<?xml version="1.0" encoding="UTF-8" standalone="no"?>
<!DOCTYPE svg PUBLIC "-//W3C//DTD SVG 1.1//EN"
 "http://www.w3.org/Graphics/SVG/1.1/DTD/svg11.dtd">
<!-- Generated by graphviz version 2.43.0 (0)
 -->
<!-- Title: repos_for_Dox/cFDK/SRA/LIB/SHELL/LIB/hls/NTS/arp/src/arp.hpp Pages: 1 -->
<svg width="294pt" height="206pt"
 viewBox="0.00 0.00 294.00 206.00" xmlns="http://www.w3.org/2000/svg" xmlns:xlink="http://www.w3.org/1999/xlink">
<g id="graph0" class="graph" transform="scale(1 1) rotate(0) translate(4 202)">
<title>repos_for_Dox/cFDK/SRA/LIB/SHELL/LIB/hls/NTS/arp/src/arp.hpp</title>
<!-- Node1 -->
<g id="node1" class="node">
<title>Node1</title>
<g id="a_node1"><a xlink:title=": Address Resolution Protocol (ARP) Server">
<polygon fill="#bfbfbf" stroke="black" points="76,-156.5 76,-197.5 201,-197.5 201,-156.5 76,-156.5"/>
<text text-anchor="start" x="84" y="-185.5" font-family="Helvetica,sans-Serif" font-size="10.00">repos_for_Dox/cFDK</text>
<text text-anchor="start" x="84" y="-174.5" font-family="Helvetica,sans-Serif" font-size="10.00">/SRA/LIB/SHELL/LIB/hls</text>
<text text-anchor="middle" x="138.5" y="-163.5" font-family="Helvetica,sans-Serif" font-size="10.00">/NTS/arp/src/arp.hpp</text>
</a>
</g>
</g>
<!-- Node2 -->
<g id="node2" class="node">
<title>Node2</title>
<g id="a_node2"><a xlink:href="arp_8cpp.html" target="_top" xlink:title=" ">
<polygon fill="none" stroke="black" points="0,-78.5 0,-119.5 125,-119.5 125,-78.5 0,-78.5"/>
<text text-anchor="start" x="8" y="-107.5" font-family="Helvetica,sans-Serif" font-size="10.00">repos_for_Dox/cFDK</text>
<text text-anchor="start" x="8" y="-96.5" font-family="Helvetica,sans-Serif" font-size="10.00">/SRA/LIB/SHELL/LIB/hls</text>
<text text-anchor="middle" x="62.5" y="-85.5" font-family="Helvetica,sans-Serif" font-size="10.00">/NTS/arp/src/arp.cpp</text>
</a>
</g>
</g>
<!-- Node1&#45;&gt;Node2 -->
<g id="edge1" class="edge">
<title>Node1&#45;&gt;Node2</title>
<path fill="none" stroke="midnightblue" d="M111.7,-149.2C101.92,-139.42 91.04,-128.54 82.01,-119.51"/>
<polygon fill="midnightblue" stroke="midnightblue" points="109.38,-151.83 118.93,-156.43 114.33,-146.88 109.38,-151.83"/>
</g>
<!-- Node3 -->
<g id="node3" class="node">
<title>Node3</title>
<g id="a_node3"><a xlink:href="test__arp_8hpp.html" target="_top" xlink:title=" ">
<polygon fill="none" stroke="black" points="143,-78.5 143,-119.5 286,-119.5 286,-78.5 143,-78.5"/>
<text text-anchor="start" x="151" y="-107.5" font-family="Helvetica,sans-Serif" font-size="10.00">repos_for_Dox/cFDK</text>
<text text-anchor="start" x="151" y="-96.5" font-family="Helvetica,sans-Serif" font-size="10.00">/SRA/LIB/SHELL/LIB/hls</text>
<text text-anchor="middle" x="214.5" y="-85.5" font-family="Helvetica,sans-Serif" font-size="10.00">/NTS/arp/test/test_arp.hpp</text>
</a>
</g>
</g>
<!-- Node1&#45;&gt;Node3 -->
<g id="edge2" class="edge">
<title>Node1&#45;&gt;Node3</title>
<path fill="none" stroke="midnightblue" d="M165.3,-149.2C175.08,-139.42 185.96,-128.54 194.99,-119.51"/>
<polygon fill="midnightblue" stroke="midnightblue" points="162.67,-146.88 158.07,-156.43 167.62,-151.83 162.67,-146.88"/>
</g>
<!-- Node4 -->
<g id="node4" class="node">
<title>Node4</title>
<g id="a_node4"><a xlink:href="test__arp_8cpp.html" target="_top" xlink:title=": Testbench for the Address Resolution Protocol (ARP) server.">
<polygon fill="none" stroke="black" points="143,-0.5 143,-41.5 286,-41.5 286,-0.5 143,-0.5"/>
<text text-anchor="start" x="151" y="-29.5" font-family="Helvetica,sans-Serif" font-size="10.00">repos_for_Dox/cFDK</text>
<text text-anchor="start" x="151" y="-18.5" font-family="Helvetica,sans-Serif" font-size="10.00">/SRA/LIB/SHELL/LIB/hls</text>
<text text-anchor="middle" x="214.5" y="-7.5" font-family="Helvetica,sans-Serif" font-size="10.00">/NTS/arp/test/test_arp.cpp</text>
</a>
</g>
</g>
<!-- Node3&#45;&gt;Node4 -->
<g id="edge3" class="edge">
<title>Node3&#45;&gt;Node4</title>
<path fill="none" stroke="midnightblue" d="M214.5,-68.3C214.5,-59.3 214.5,-49.65 214.5,-41.51"/>
<polygon fill="midnightblue" stroke="midnightblue" points="211,-68.43 214.5,-78.43 218,-68.43 211,-68.43"/>
</g>
</g>
</svg>
