<?xml version="1.0" encoding="UTF-8" standalone="no"?>
<!DOCTYPE svg PUBLIC "-//W3C//DTD SVG 1.1//EN"
 "http://www.w3.org/Graphics/SVG/1.1/DTD/svg11.dtd">
<!-- Generated by graphviz version 2.43.0 (0)
 -->
<!-- Title: repos_for_Dox/cFDK/SRA/LIB/SHELL/LIB/hls/NTS/AxisIcmp.hpp Pages: 1 -->
<svg width="310pt" height="162pt"
 viewBox="0.00 0.00 310.00 162.00" xmlns="http://www.w3.org/2000/svg" xmlns:xlink="http://www.w3.org/1999/xlink">
<g id="graph0" class="graph" transform="scale(1 1) rotate(0) translate(4 158)">
<title>repos_for_Dox/cFDK/SRA/LIB/SHELL/LIB/hls/NTS/AxisIcmp.hpp</title>
<!-- Node1 -->
<g id="node1" class="node">
<title>Node1</title>
<g id="a_node1"><a xlink:title=": A class to access ICMP header fields within data chunks transmitted over an AXI4&#45;Stream interface.">
<polygon fill="#bfbfbf" stroke="black" points="81.5,-112.5 81.5,-153.5 206.5,-153.5 206.5,-112.5 81.5,-112.5"/>
<text text-anchor="start" x="89.5" y="-141.5" font-family="Helvetica,sans-Serif" font-size="10.00">repos_for_Dox/cFDK</text>
<text text-anchor="start" x="89.5" y="-130.5" font-family="Helvetica,sans-Serif" font-size="10.00">/SRA/LIB/SHELL/LIB/hls</text>
<text text-anchor="middle" x="144" y="-119.5" font-family="Helvetica,sans-Serif" font-size="10.00">/NTS/AxisIcmp.hpp</text>
</a>
</g>
</g>
<!-- Node2 -->
<g id="node2" class="node">
<title>Node2</title>
<g id="a_node2"><a xlink:href="AxisRaw_8hpp.html" target="_top" xlink:title=": A generic class used by the Network&#45;Transport&#45;Stack (NTS) to to transfer a chunk of data over an AX...">
<polygon fill="none" stroke="black" points="101.5,-56.5 101.5,-75.5 186.5,-75.5 186.5,-56.5 101.5,-56.5"/>
<text text-anchor="middle" x="144" y="-63.5" font-family="Helvetica,sans-Serif" font-size="10.00">./AxisRaw.hpp</text>
</a>
</g>
</g>
<!-- Node1&#45;&gt;Node2 -->
<g id="edge1" class="edge">
<title>Node1&#45;&gt;Node2</title>
<path fill="none" stroke="midnightblue" d="M144,-112.5C144,-104.07 144,-94.24 144,-85.87"/>
<polygon fill="midnightblue" stroke="midnightblue" points="147.5,-85.65 144,-75.65 140.5,-85.65 147.5,-85.65"/>
</g>
<!-- Node3 -->
<g id="node3" class="node">
<title>Node3</title>
<g id="a_node3"><a xlink:title=" ">
<polygon fill="none" stroke="#bfbfbf" points="0,-0.5 0,-19.5 52,-19.5 52,-0.5 0,-0.5"/>
<text text-anchor="middle" x="26" y="-7.5" font-family="Helvetica,sans-Serif" font-size="10.00">cassert</text>
</a>
</g>
</g>
<!-- Node2&#45;&gt;Node3 -->
<g id="edge2" class="edge">
<title>Node2&#45;&gt;Node3</title>
<path fill="none" stroke="midnightblue" d="M125.3,-56.44C106.06,-47.64 75.85,-33.81 53.8,-23.72"/>
<polygon fill="midnightblue" stroke="midnightblue" points="55.16,-20.5 44.61,-19.52 52.25,-26.86 55.16,-20.5"/>
</g>
<!-- Node4 -->
<g id="node4" class="node">
<title>Node4</title>
<g id="a_node4"><a xlink:title=" ">
<polygon fill="none" stroke="#bfbfbf" points="70,-0.5 70,-19.5 130,-19.5 130,-0.5 70,-0.5"/>
<text text-anchor="middle" x="100" y="-7.5" font-family="Helvetica,sans-Serif" font-size="10.00">iostream</text>
</a>
</g>
</g>
<!-- Node2&#45;&gt;Node4 -->
<g id="edge3" class="edge">
<title>Node2&#45;&gt;Node4</title>
<path fill="none" stroke="midnightblue" d="M136.73,-56.08C130.46,-48.38 121.21,-37.03 113.57,-27.65"/>
<polygon fill="midnightblue" stroke="midnightblue" points="116.16,-25.29 107.13,-19.75 110.73,-29.71 116.16,-25.29"/>
</g>
<!-- Node5 -->
<g id="node5" class="node">
<title>Node5</title>
<g id="a_node5"><a xlink:title=" ">
<polygon fill="none" stroke="#bfbfbf" points="148,-0.5 148,-19.5 228,-19.5 228,-0.5 148,-0.5"/>
<text text-anchor="middle" x="188" y="-7.5" font-family="Helvetica,sans-Serif" font-size="10.00">hls_stream.h</text>
</a>
</g>
</g>
<!-- Node2&#45;&gt;Node5 -->
<g id="edge4" class="edge">
<title>Node2&#45;&gt;Node5</title>
<path fill="none" stroke="midnightblue" d="M151.27,-56.08C157.54,-48.38 166.79,-37.03 174.43,-27.65"/>
<polygon fill="midnightblue" stroke="midnightblue" points="177.27,-29.71 180.87,-19.75 171.84,-25.29 177.27,-29.71"/>
</g>
<!-- Node6 -->
<g id="node6" class="node">
<title>Node6</title>
<g id="a_node6"><a xlink:title=" ">
<polygon fill="none" stroke="#bfbfbf" points="246,-0.5 246,-19.5 302,-19.5 302,-0.5 246,-0.5"/>
<text text-anchor="middle" x="274" y="-7.5" font-family="Helvetica,sans-Serif" font-size="10.00">ap_int.h</text>
</a>
</g>
</g>
<!-- Node2&#45;&gt;Node6 -->
<g id="edge5" class="edge">
<title>Node2&#45;&gt;Node6</title>
<path fill="none" stroke="midnightblue" d="M164.6,-56.44C185.99,-47.56 219.68,-33.56 244.02,-23.45"/>
<polygon fill="midnightblue" stroke="midnightblue" points="245.61,-26.58 253.5,-19.52 242.92,-20.12 245.61,-26.58"/>
</g>
</g>
</svg>
