<?xml version="1.0" encoding="UTF-8" standalone="no"?>
<!DOCTYPE svg PUBLIC "-//W3C//DTD SVG 1.1//EN"
 "http://www.w3.org/Graphics/SVG/1.1/DTD/svg11.dtd">
<!-- Generated by graphviz version 2.43.0 (0)
 -->
<!-- Title: cFSPlib.python_api_client.swagger_client.models.images_app_logic_body.ImagesAppLogicBody.to_str Pages: 1 -->
<svg width="549pt" height="1596pt"
 viewBox="0.00 0.00 549.00 1596.00" xmlns="http://www.w3.org/2000/svg" xmlns:xlink="http://www.w3.org/1999/xlink">
<g id="graph0" class="graph" transform="scale(1 1) rotate(0) translate(4 1592)">
<title>cFSPlib.python_api_client.swagger_client.models.images_app_logic_body.ImagesAppLogicBody.to_str</title>
<!-- Node1 -->
<g id="node1" class="node">
<title>Node1</title>
<g id="a_node1"><a xlink:title=" ">
<polygon fill="#bfbfbf" stroke="black" points="308,-774 308,-815 541,-815 541,-774 308,-774"/>
<text text-anchor="start" x="316" y="-803" font-family="Helvetica,sans-Serif" font-size="10.00">cFSPlib.python_api</text>
<text text-anchor="start" x="316" y="-792" font-family="Helvetica,sans-Serif" font-size="10.00">_client.swagger_client.models.images</text>
<text text-anchor="middle" x="424.5" y="-781" font-family="Helvetica,sans-Serif" font-size="10.00">_app_logic_body.ImagesAppLogicBody.to_str</text>
</a>
</g>
</g>
<!-- Node2 -->
<g id="node2" class="node">
<title>Node2</title>
<g id="a_node2"><a xlink:href="classcFSPlib_1_1python__api__client_1_1swagger__client_1_1models_1_1administration__mantle__logi168f0a51d80725a08a224c580ca4eab6.html#ad1cb3f837b0fb7187e407e652faed88b" target="_top" xlink:title=" ">
<polygon fill="none" stroke="black" points="12.5,-1535.5 12.5,-1587.5 259.5,-1587.5 259.5,-1535.5 12.5,-1535.5"/>
<text text-anchor="start" x="20.5" y="-1575.5" font-family="Helvetica,sans-Serif" font-size="10.00">cFSPlib.python_api</text>
<text text-anchor="start" x="20.5" y="-1564.5" font-family="Helvetica,sans-Serif" font-size="10.00">_client.swagger_client.models.administration</text>
<text text-anchor="start" x="20.5" y="-1553.5" font-family="Helvetica,sans-Serif" font-size="10.00">_mantle_logic_body.AdministrationMantleLogic</text>
<text text-anchor="middle" x="136" y="-1542.5" font-family="Helvetica,sans-Serif" font-size="10.00">Body.__repr__</text>
</a>
</g>
</g>
<!-- Node1&#45;&gt;Node2 -->
<g id="edge1" class="edge">
<title>Node1&#45;&gt;Node2</title>
<path fill="none" stroke="midnightblue" d="M421.39,-825.05C412.14,-950.26 371.1,-1422.36 272,-1526.5 268.24,-1530.45 264.11,-1533.97 259.68,-1537.11"/>
<polygon fill="midnightblue" stroke="midnightblue" points="424.89,-825.24 422.12,-815.01 417.91,-824.73 424.89,-825.24"/>
</g>
<!-- Node3 -->
<g id="node3" class="node">
<title>Node3</title>
<g id="a_node3"><a xlink:href="classcFSPlib_1_1python__api__client_1_1swagger__client_1_1models_1_1administration__platform__lo7236faec3e459a8c5be8431e1b997ede.html#a0c9da310956fd3722898545877914406" target="_top" xlink:title=" ">
<polygon fill="none" stroke="black" points="16.5,-1464.5 16.5,-1516.5 255.5,-1516.5 255.5,-1464.5 16.5,-1464.5"/>
<text text-anchor="start" x="24.5" y="-1504.5" font-family="Helvetica,sans-Serif" font-size="10.00">cFSPlib.python_api</text>
<text text-anchor="start" x="24.5" y="-1493.5" font-family="Helvetica,sans-Serif" font-size="10.00">_client.swagger_client.models.administration</text>
<text text-anchor="start" x="24.5" y="-1482.5" font-family="Helvetica,sans-Serif" font-size="10.00">_platform_logic_body.AdministrationPlatform</text>
<text text-anchor="middle" x="136" y="-1471.5" font-family="Helvetica,sans-Serif" font-size="10.00">LogicBody.__repr__</text>
</a>
</g>
</g>
<!-- Node1&#45;&gt;Node3 -->
<g id="edge2" class="edge">
<title>Node1&#45;&gt;Node3</title>
<path fill="none" stroke="midnightblue" d="M420.59,-825.42C408.89,-943.2 361.59,-1361.73 272,-1454.5 267.11,-1459.56 261.6,-1463.94 255.67,-1467.72"/>
<polygon fill="midnightblue" stroke="midnightblue" points="424.09,-825.59 421.58,-815.29 417.12,-824.9 424.09,-825.59"/>
</g>
<!-- Node4 -->
<g id="node4" class="node">
<title>Node4</title>
<g id="a_node4"><a xlink:href="classcFSPlib_1_1python__api__client_1_1swagger__client_1_1models_1_1build__script_1_1BuildScript.html#a448bc85c025bf0489aec25faf4174ea4" target="_top" xlink:title=" ">
<polygon fill="none" stroke="black" points="40.5,-1404 40.5,-1445 231.5,-1445 231.5,-1404 40.5,-1404"/>
<text text-anchor="start" x="48.5" y="-1433" font-family="Helvetica,sans-Serif" font-size="10.00">cFSPlib.python_api</text>
<text text-anchor="start" x="48.5" y="-1422" font-family="Helvetica,sans-Serif" font-size="10.00">_client.swagger_client.models.build</text>
<text text-anchor="middle" x="136" y="-1411" font-family="Helvetica,sans-Serif" font-size="10.00">_script.BuildScript.__repr__</text>
</a>
</g>
</g>
<!-- Node1&#45;&gt;Node4 -->
<g id="edge3" class="edge">
<title>Node1&#45;&gt;Node4</title>
<path fill="none" stroke="midnightblue" d="M419.98,-825.22C406.68,-936.05 355.89,-1312.98 272,-1394.5 260.81,-1405.38 246.6,-1412.66 231.62,-1417.48"/>
<polygon fill="midnightblue" stroke="midnightblue" points="423.49,-825.4 421.19,-815.06 416.53,-824.58 423.49,-825.4"/>
</g>
<!-- Node5 -->
<g id="node5" class="node">
<title>Node5</title>
<g id="a_node5"><a xlink:href="classcFSPlib_1_1python__api__client_1_1swagger__client_1_1models_1_1cluster_1_1Cluster.html#a26f2701765ffcb35f33d5c7fbb539b27" target="_top" xlink:title=" ">
<polygon fill="none" stroke="black" points="34.5,-1344 34.5,-1385 237.5,-1385 237.5,-1344 34.5,-1344"/>
<text text-anchor="start" x="42.5" y="-1373" font-family="Helvetica,sans-Serif" font-size="10.00">cFSPlib.python_api</text>
<text text-anchor="start" x="42.5" y="-1362" font-family="Helvetica,sans-Serif" font-size="10.00">_client.swagger_client.models.cluster.</text>
<text text-anchor="middle" x="136" y="-1351" font-family="Helvetica,sans-Serif" font-size="10.00">Cluster.__repr__</text>
</a>
</g>
</g>
<!-- Node1&#45;&gt;Node5 -->
<g id="edge4" class="edge">
<title>Node1&#45;&gt;Node5</title>
<path fill="none" stroke="midnightblue" d="M419.07,-825.18C403.53,-928.65 348.24,-1262.34 272,-1334.5 262.24,-1343.74 250.28,-1350.38 237.57,-1355.1"/>
<polygon fill="midnightblue" stroke="midnightblue" points="422.56,-825.49 420.57,-815.08 415.64,-824.46 422.56,-825.49"/>
</g>
<!-- Node6 -->
<g id="node6" class="node">
<title>Node6</title>
<g id="a_node6"><a xlink:href="classcFSPlib_1_1python__api__client_1_1swagger__client_1_1models_1_1cluster__id__node__id__body_1_1ClusterIdNodeIdBody.html#ad0713dba776df60cac99179ebed01035" target="_top" xlink:title=" ">
<polygon fill="none" stroke="black" points="11,-1284 11,-1325 261,-1325 261,-1284 11,-1284"/>
<text text-anchor="start" x="19" y="-1313" font-family="Helvetica,sans-Serif" font-size="10.00">cFSPlib.python_api</text>
<text text-anchor="start" x="19" y="-1302" font-family="Helvetica,sans-Serif" font-size="10.00">_client.swagger_client.models.cluster</text>
<text text-anchor="middle" x="136" y="-1291" font-family="Helvetica,sans-Serif" font-size="10.00">_id_node_id_body.ClusterIdNodeIdBody.__repr__</text>
</a>
</g>
</g>
<!-- Node1&#45;&gt;Node6 -->
<g id="edge5" class="edge">
<title>Node1&#45;&gt;Node6</title>
<path fill="none" stroke="midnightblue" d="M423.66,-825.13C422.35,-910.23 406.37,-1151.35 272,-1274.5 268.19,-1277.99 264.08,-1281.1 259.72,-1283.88"/>
<polygon fill="midnightblue" stroke="midnightblue" points="427.16,-825.12 423.76,-815.09 420.16,-825.06 427.16,-825.12"/>
</g>
<!-- Node7 -->
<g id="node7" class="node">
<title>Node7</title>
<g id="a_node7"><a xlink:href="classcFSPlib_1_1python__api__client_1_1swagger__client_1_1models_1_1clusters__body_1_1ClustersBody.html#ab6646398021a76e42eb7c8be5af65128" target="_top" xlink:title=" ">
<polygon fill="none" stroke="black" points="33,-1224 33,-1265 239,-1265 239,-1224 33,-1224"/>
<text text-anchor="start" x="41" y="-1253" font-family="Helvetica,sans-Serif" font-size="10.00">cFSPlib.python_api</text>
<text text-anchor="start" x="41" y="-1242" font-family="Helvetica,sans-Serif" font-size="10.00">_client.swagger_client.models.clusters</text>
<text text-anchor="middle" x="136" y="-1231" font-family="Helvetica,sans-Serif" font-size="10.00">_body.ClustersBody.__repr__</text>
</a>
</g>
</g>
<!-- Node1&#45;&gt;Node7 -->
<g id="edge6" class="edge">
<title>Node1&#45;&gt;Node7</title>
<path fill="none" stroke="midnightblue" d="M422.05,-825.52C416.65,-903.62 391.22,-1109.59 272,-1214.5 262.45,-1222.91 251.06,-1229.12 239.02,-1233.68"/>
<polygon fill="midnightblue" stroke="midnightblue" points="425.55,-825.57 422.69,-815.37 418.57,-825.13 425.55,-825.57"/>
</g>
<!-- Node8 -->
<g id="node8" class="node">
<title>Node8</title>
<g id="a_node8"><a xlink:href="classcFSPlib_1_1python__api__client_1_1swagger__client_1_1models_1_1image_1_1Image.html#a0854b84137f933a93dc33082ff4131bf" target="_top" xlink:title=" ">
<polygon fill="none" stroke="black" points="35.5,-1164 35.5,-1205 236.5,-1205 236.5,-1164 35.5,-1164"/>
<text text-anchor="start" x="43.5" y="-1193" font-family="Helvetica,sans-Serif" font-size="10.00">cFSPlib.python_api</text>
<text text-anchor="start" x="43.5" y="-1182" font-family="Helvetica,sans-Serif" font-size="10.00">_client.swagger_client.models.image.</text>
<text text-anchor="middle" x="136" y="-1171" font-family="Helvetica,sans-Serif" font-size="10.00">Image.__repr__</text>
</a>
</g>
</g>
<!-- Node1&#45;&gt;Node8 -->
<g id="edge7" class="edge">
<title>Node1&#45;&gt;Node8</title>
<path fill="none" stroke="midnightblue" d="M419.98,-825.37C410.27,-895.45 376.51,-1067.26 272,-1154.5 261.68,-1163.12 249.41,-1169.4 236.55,-1173.95"/>
<polygon fill="midnightblue" stroke="midnightblue" points="423.51,-825.39 421.34,-815.02 416.57,-824.48 423.51,-825.39"/>
</g>
<!-- Node9 -->
<g id="node9" class="node">
<title>Node9</title>
<g id="a_node9"><a xlink:href="classcFSPlib_1_1python__api__client_1_1swagger__client_1_1models_1_1images__app__logic__body_1_1ImagesAppLogicBody.html#a99987314d45e9493c3c5ef061a1a0ab8" target="_top" xlink:title=" ">
<polygon fill="none" stroke="black" points="13,-1104 13,-1145 259,-1145 259,-1104 13,-1104"/>
<text text-anchor="start" x="21" y="-1133" font-family="Helvetica,sans-Serif" font-size="10.00">cFSPlib.python_api</text>
<text text-anchor="start" x="21" y="-1122" font-family="Helvetica,sans-Serif" font-size="10.00">_client.swagger_client.models.images</text>
<text text-anchor="middle" x="136" y="-1111" font-family="Helvetica,sans-Serif" font-size="10.00">_app_logic_body.ImagesAppLogicBody.__repr__</text>
</a>
</g>
</g>
<!-- Node1&#45;&gt;Node9 -->
<g id="edge8" class="edge">
<title>Node1&#45;&gt;Node9</title>
<path fill="none" stroke="midnightblue" d="M417.24,-824.95C402.99,-886.19 362.13,-1024.42 272,-1094.5 267.45,-1098.04 262.57,-1101.17 257.46,-1103.96"/>
<polygon fill="midnightblue" stroke="midnightblue" points="420.67,-825.64 419.45,-815.12 413.84,-824.1 420.67,-825.64"/>
</g>
<!-- Node10 -->
<g id="node10" class="node">
<title>Node10</title>
<g id="a_node10"><a xlink:href="classcFSPlib_1_1python__api__client_1_1swagger__client_1_1models_1_1images__body_1_1ImagesBody.html#a1ed669c0f3398e7cccdad49cc3d8e0d3" target="_top" xlink:title=" ">
<polygon fill="none" stroke="black" points="34.5,-1044 34.5,-1085 237.5,-1085 237.5,-1044 34.5,-1044"/>
<text text-anchor="start" x="42.5" y="-1073" font-family="Helvetica,sans-Serif" font-size="10.00">cFSPlib.python_api</text>
<text text-anchor="start" x="42.5" y="-1062" font-family="Helvetica,sans-Serif" font-size="10.00">_client.swagger_client.models.images</text>
<text text-anchor="middle" x="136" y="-1051" font-family="Helvetica,sans-Serif" font-size="10.00">_body.ImagesBody.__repr__</text>
</a>
</g>
</g>
<!-- Node1&#45;&gt;Node10 -->
<g id="edge9" class="edge">
<title>Node1&#45;&gt;Node10</title>
<path fill="none" stroke="midnightblue" d="M413.28,-824.66C394.17,-876.26 347.93,-981.07 272,-1034.5 261.69,-1041.75 249.93,-1047.29 237.75,-1051.52"/>
<polygon fill="midnightblue" stroke="midnightblue" points="416.63,-825.68 416.74,-815.08 410.05,-823.3 416.63,-825.68"/>
</g>
<!-- Node11 -->
<g id="node11" class="node">
<title>Node11</title>
<g id="a_node11"><a xlink:href="classcFSPlib_1_1python__api__client_1_1swagger__client_1_1models_1_1inline__response200_1_1InlineResponse200.html#ac6f8953ce29b06b760f67c873c66324c" target="_top" xlink:title=" ">
<polygon fill="none" stroke="black" points="24.5,-984 24.5,-1025 247.5,-1025 247.5,-984 24.5,-984"/>
<text text-anchor="start" x="32.5" y="-1013" font-family="Helvetica,sans-Serif" font-size="10.00">cFSPlib.python_api</text>
<text text-anchor="start" x="32.5" y="-1002" font-family="Helvetica,sans-Serif" font-size="10.00">_client.swagger_client.models.inline</text>
<text text-anchor="middle" x="136" y="-991" font-family="Helvetica,sans-Serif" font-size="10.00">_response200.InlineResponse200.__repr__</text>
</a>
</g>
</g>
<!-- Node1&#45;&gt;Node11 -->
<g id="edge10" class="edge">
<title>Node1&#45;&gt;Node11</title>
<path fill="none" stroke="midnightblue" d="M407.24,-823.87C383.2,-864.41 334.22,-936.79 272,-974.5 264.4,-979.1 256.18,-983 247.68,-986.31"/>
<polygon fill="midnightblue" stroke="midnightblue" points="410.4,-825.41 412.4,-815 404.35,-821.89 410.4,-825.41"/>
</g>
<!-- Node12 -->
<g id="node12" class="node">
<title>Node12</title>
<g id="a_node12"><a xlink:href="classcFSPlib_1_1python__api__client_1_1swagger__client_1_1models_1_1inline__response2001_1_1InlineResponse2001.html#a7b1813083bf541835b5c79d5f65312dc" target="_top" xlink:title=" ">
<polygon fill="none" stroke="black" points="18.5,-924 18.5,-965 253.5,-965 253.5,-924 18.5,-924"/>
<text text-anchor="start" x="26.5" y="-953" font-family="Helvetica,sans-Serif" font-size="10.00">cFSPlib.python_api</text>
<text text-anchor="start" x="26.5" y="-942" font-family="Helvetica,sans-Serif" font-size="10.00">_client.swagger_client.models.inline</text>
<text text-anchor="middle" x="136" y="-931" font-family="Helvetica,sans-Serif" font-size="10.00">_response2001.InlineResponse2001.__repr__</text>
</a>
</g>
</g>
<!-- Node1&#45;&gt;Node12 -->
<g id="edge11" class="edge">
<title>Node1&#45;&gt;Node12</title>
<path fill="none" stroke="midnightblue" d="M396.36,-822.4C367.91,-849.99 320.67,-891.33 272,-914.5 264.52,-918.06 256.61,-921.21 248.51,-923.98"/>
<polygon fill="midnightblue" stroke="midnightblue" points="398.84,-824.87 403.52,-815.36 393.94,-819.87 398.84,-824.87"/>
</g>
<!-- Node13 -->
<g id="node13" class="node">
<title>Node13</title>
<g id="a_node13"><a xlink:href="classcFSPlib_1_1python__api__client_1_1swagger__client_1_1models_1_1inline__response2002_1_1InlineResponse2002.html#adbbfec7280b1cf5175d44440b83419af" target="_top" xlink:title=" ">
<polygon fill="none" stroke="black" points="18.5,-864 18.5,-905 253.5,-905 253.5,-864 18.5,-864"/>
<text text-anchor="start" x="26.5" y="-893" font-family="Helvetica,sans-Serif" font-size="10.00">cFSPlib.python_api</text>
<text text-anchor="start" x="26.5" y="-882" font-family="Helvetica,sans-Serif" font-size="10.00">_client.swagger_client.models.inline</text>
<text text-anchor="middle" x="136" y="-871" font-family="Helvetica,sans-Serif" font-size="10.00">_response2002.InlineResponse2002.__repr__</text>
</a>
</g>
</g>
<!-- Node1&#45;&gt;Node13 -->
<g id="edge12" class="edge">
<title>Node1&#45;&gt;Node13</title>
<path fill="none" stroke="midnightblue" d="M367.77,-819.02C339.47,-830.85 304.32,-844.58 272,-854.5 260.98,-857.88 249.35,-861.05 237.72,-863.97"/>
<polygon fill="midnightblue" stroke="midnightblue" points="369.24,-822.2 377.1,-815.1 366.52,-815.75 369.24,-822.2"/>
</g>
<!-- Node14 -->
<g id="node14" class="node">
<title>Node14</title>
<g id="a_node14"><a xlink:href="classcFSPlib_1_1python__api__client_1_1swagger__client_1_1models_1_1inline__response2003_1_1InlineResponse2003.html#a8ca2bbd5a75f2000001047ad645e1b7f" target="_top" xlink:title=" ">
<polygon fill="none" stroke="black" points="18.5,-804 18.5,-845 253.5,-845 253.5,-804 18.5,-804"/>
<text text-anchor="start" x="26.5" y="-833" font-family="Helvetica,sans-Serif" font-size="10.00">cFSPlib.python_api</text>
<text text-anchor="start" x="26.5" y="-822" font-family="Helvetica,sans-Serif" font-size="10.00">_client.swagger_client.models.inline</text>
<text text-anchor="middle" x="136" y="-811" font-family="Helvetica,sans-Serif" font-size="10.00">_response2003.InlineResponse2003.__repr__</text>
</a>
</g>
</g>
<!-- Node1&#45;&gt;Node14 -->
<g id="edge13" class="edge">
<title>Node1&#45;&gt;Node14</title>
<path fill="none" stroke="midnightblue" d="M297.69,-807.67C283.04,-809.21 268.13,-810.77 253.6,-812.29"/>
<polygon fill="midnightblue" stroke="midnightblue" points="298.21,-811.14 307.8,-806.62 297.49,-804.18 298.21,-811.14"/>
</g>
<!-- Node15 -->
<g id="node15" class="node">
<title>Node15</title>
<g id="a_node15"><a xlink:href="classcFSPlib_1_1python__api__client_1_1swagger__client_1_1models_1_1inline__response2004_1_1InlineResponse2004.html#a438928711d368ae2dfb1f0dae503efd0" target="_top" xlink:title=" ">
<polygon fill="none" stroke="black" points="18.5,-744 18.5,-785 253.5,-785 253.5,-744 18.5,-744"/>
<text text-anchor="start" x="26.5" y="-773" font-family="Helvetica,sans-Serif" font-size="10.00">cFSPlib.python_api</text>
<text text-anchor="start" x="26.5" y="-762" font-family="Helvetica,sans-Serif" font-size="10.00">_client.swagger_client.models.inline</text>
<text text-anchor="middle" x="136" y="-751" font-family="Helvetica,sans-Serif" font-size="10.00">_response2004.InlineResponse2004.__repr__</text>
</a>
</g>
</g>
<!-- Node1&#45;&gt;Node15 -->
<g id="edge14" class="edge">
<title>Node1&#45;&gt;Node15</title>
<path fill="none" stroke="midnightblue" d="M297.69,-781.33C283.04,-779.79 268.13,-778.23 253.6,-776.71"/>
<polygon fill="midnightblue" stroke="midnightblue" points="297.49,-784.82 307.8,-782.38 298.21,-777.86 297.49,-784.82"/>
</g>
<!-- Node16 -->
<g id="node16" class="node">
<title>Node16</title>
<g id="a_node16"><a xlink:href="classcFSPlib_1_1python__api__client_1_1swagger__client_1_1models_1_1inline__response2005_1_1InlineResponse2005.html#a68342538baeb453cad9a2f378281c710" target="_top" xlink:title=" ">
<polygon fill="none" stroke="black" points="18.5,-684 18.5,-725 253.5,-725 253.5,-684 18.5,-684"/>
<text text-anchor="start" x="26.5" y="-713" font-family="Helvetica,sans-Serif" font-size="10.00">cFSPlib.python_api</text>
<text text-anchor="start" x="26.5" y="-702" font-family="Helvetica,sans-Serif" font-size="10.00">_client.swagger_client.models.inline</text>
<text text-anchor="middle" x="136" y="-691" font-family="Helvetica,sans-Serif" font-size="10.00">_response2005.InlineResponse2005.__repr__</text>
</a>
</g>
</g>
<!-- Node1&#45;&gt;Node16 -->
<g id="edge15" class="edge">
<title>Node1&#45;&gt;Node16</title>
<path fill="none" stroke="midnightblue" d="M367.77,-769.98C339.47,-758.15 304.32,-744.42 272,-734.5 260.98,-731.12 249.35,-727.95 237.72,-725.03"/>
<polygon fill="midnightblue" stroke="midnightblue" points="366.52,-773.25 377.1,-773.9 369.24,-766.8 366.52,-773.25"/>
</g>
<!-- Node17 -->
<g id="node17" class="node">
<title>Node17</title>
<g id="a_node17"><a xlink:href="classcFSPlib_1_1python__api__client_1_1swagger__client_1_1models_1_1inline__response2006_1_1InlineResponse2006.html#a39ebc73abe63b92a0b0c794877a99da4" target="_top" xlink:title=" ">
<polygon fill="none" stroke="black" points="18.5,-624 18.5,-665 253.5,-665 253.5,-624 18.5,-624"/>
<text text-anchor="start" x="26.5" y="-653" font-family="Helvetica,sans-Serif" font-size="10.00">cFSPlib.python_api</text>
<text text-anchor="start" x="26.5" y="-642" font-family="Helvetica,sans-Serif" font-size="10.00">_client.swagger_client.models.inline</text>
<text text-anchor="middle" x="136" y="-631" font-family="Helvetica,sans-Serif" font-size="10.00">_response2006.InlineResponse2006.__repr__</text>
</a>
</g>
</g>
<!-- Node1&#45;&gt;Node17 -->
<g id="edge16" class="edge">
<title>Node1&#45;&gt;Node17</title>
<path fill="none" stroke="midnightblue" d="M396.36,-766.6C367.91,-739.01 320.67,-697.67 272,-674.5 264.52,-670.94 256.61,-667.79 248.51,-665.02"/>
<polygon fill="midnightblue" stroke="midnightblue" points="393.94,-769.13 403.52,-773.64 398.84,-764.13 393.94,-769.13"/>
</g>
<!-- Node18 -->
<g id="node18" class="node">
<title>Node18</title>
<g id="a_node18"><a xlink:href="classcFSPlib_1_1python__api__client_1_1swagger__client_1_1models_1_1instance_1_1Instance.html#a3018c78d992e6757c90626981cb0b194" target="_top" xlink:title=" ">
<polygon fill="none" stroke="black" points="30,-564 30,-605 242,-605 242,-564 30,-564"/>
<text text-anchor="start" x="38" y="-593" font-family="Helvetica,sans-Serif" font-size="10.00">cFSPlib.python_api</text>
<text text-anchor="start" x="38" y="-582" font-family="Helvetica,sans-Serif" font-size="10.00">_client.swagger_client.models.instance.</text>
<text text-anchor="middle" x="136" y="-571" font-family="Helvetica,sans-Serif" font-size="10.00">Instance.__repr__</text>
</a>
</g>
</g>
<!-- Node1&#45;&gt;Node18 -->
<g id="edge17" class="edge">
<title>Node1&#45;&gt;Node18</title>
<path fill="none" stroke="midnightblue" d="M407.24,-765.13C383.2,-724.59 334.22,-652.21 272,-614.5 262.76,-608.9 252.6,-604.34 242.12,-600.63"/>
<polygon fill="midnightblue" stroke="midnightblue" points="404.35,-767.11 412.4,-774 410.4,-763.59 404.35,-767.11"/>
</g>
<!-- Node19 -->
<g id="node19" class="node">
<title>Node19</title>
<g id="a_node19"><a xlink:href="classcFSPlib_1_1python__api__client_1_1swagger__client_1_1models_1_1instance__id__api__gateway__33456c8700113c53c3cfaa915ef28716.html#aa545f675e04b431f8123af8442cb69fd" target="_top" xlink:title=" ">
<polygon fill="none" stroke="black" points="16.5,-492.5 16.5,-544.5 255.5,-544.5 255.5,-492.5 16.5,-492.5"/>
<text text-anchor="start" x="24.5" y="-532.5" font-family="Helvetica,sans-Serif" font-size="10.00">cFSPlib.python_api</text>
<text text-anchor="start" x="24.5" y="-521.5" font-family="Helvetica,sans-Serif" font-size="10.00">_client.swagger_client.models.instance</text>
<text text-anchor="start" x="24.5" y="-510.5" font-family="Helvetica,sans-Serif" font-size="10.00">_id_api_gateway_body.InstanceIdApiGateway</text>
<text text-anchor="middle" x="136" y="-499.5" font-family="Helvetica,sans-Serif" font-size="10.00">Body.__repr__</text>
</a>
</g>
</g>
<!-- Node1&#45;&gt;Node19 -->
<g id="edge18" class="edge">
<title>Node1&#45;&gt;Node19</title>
<path fill="none" stroke="midnightblue" d="M412.9,-764.29C393.33,-713.06 346.61,-609.38 272,-554.5 266.92,-550.76 261.48,-547.41 255.8,-544.41"/>
<polygon fill="midnightblue" stroke="midnightblue" points="409.67,-765.66 416.45,-773.8 416.23,-763.21 409.67,-765.66"/>
</g>
<!-- Node20 -->
<g id="node20" class="node">
<title>Node20</title>
<g id="a_node20"><a xlink:href="classcFSPlib_1_1python__api__client_1_1swagger__client_1_1models_1_1instance__id__runlevel__body_1_1InstanceIdRunlevelBody.html#a9d0c64ef27367c164b9adb537680d771" target="_top" xlink:title=" ">
<polygon fill="none" stroke="black" points="3,-432 3,-473 269,-473 269,-432 3,-432"/>
<text text-anchor="start" x="11" y="-461" font-family="Helvetica,sans-Serif" font-size="10.00">cFSPlib.python_api</text>
<text text-anchor="start" x="11" y="-450" font-family="Helvetica,sans-Serif" font-size="10.00">_client.swagger_client.models.instance</text>
<text text-anchor="middle" x="136" y="-439" font-family="Helvetica,sans-Serif" font-size="10.00">_id_runlevel_body.InstanceIdRunlevelBody.__repr__</text>
</a>
</g>
</g>
<!-- Node1&#45;&gt;Node20 -->
<g id="edge19" class="edge">
<title>Node1&#45;&gt;Node20</title>
<path fill="none" stroke="midnightblue" d="M417.75,-763.93C404.26,-701.05 364.44,-556.98 272,-483.5 267.01,-479.53 261.61,-476.06 255.93,-473.01"/>
<polygon fill="midnightblue" stroke="midnightblue" points="414.38,-764.91 419.83,-774 421.23,-763.5 414.38,-764.91"/>
</g>
<!-- Node21 -->
<g id="node21" class="node">
<title>Node21</title>
<g id="a_node21"><a xlink:href="classcFSPlib_1_1python__api__client_1_1swagger__client_1_1models_1_1instances__body_1_1InstancesBody.html#a6b441c86aa1aa6f248f599b0a3a286b0" target="_top" xlink:title=" ">
<polygon fill="none" stroke="black" points="29,-372 29,-413 243,-413 243,-372 29,-372"/>
<text text-anchor="start" x="37" y="-401" font-family="Helvetica,sans-Serif" font-size="10.00">cFSPlib.python_api</text>
<text text-anchor="start" x="37" y="-390" font-family="Helvetica,sans-Serif" font-size="10.00">_client.swagger_client.models.instances</text>
<text text-anchor="middle" x="136" y="-379" font-family="Helvetica,sans-Serif" font-size="10.00">_body.InstancesBody.__repr__</text>
</a>
</g>
</g>
<!-- Node1&#45;&gt;Node21 -->
<g id="edge20" class="edge">
<title>Node1&#45;&gt;Node21</title>
<path fill="none" stroke="midnightblue" d="M420.44,-763.59C411.61,-691.84 379.43,-513.23 272,-422.5 263.47,-415.3 253.59,-409.72 243.12,-405.42"/>
<polygon fill="midnightblue" stroke="midnightblue" points="416.99,-764.23 421.62,-773.76 423.94,-763.43 416.99,-764.23"/>
</g>
<!-- Node22 -->
<g id="node22" class="node">
<title>Node22</title>
<g id="a_node22"><a xlink:href="classcFSPlib_1_1python__api__client_1_1swagger__client_1_1models_1_1instances__instance__id__body_1_1InstancesInstanceIdBody.html#ad0be600fabc59f43e5649cbbd09ea8fa" target="_top" xlink:title=" ">
<polygon fill="none" stroke="black" points="0,-312 0,-353 272,-353 272,-312 0,-312"/>
<text text-anchor="start" x="8" y="-341" font-family="Helvetica,sans-Serif" font-size="10.00">cFSPlib.python_api</text>
<text text-anchor="start" x="8" y="-330" font-family="Helvetica,sans-Serif" font-size="10.00">_client.swagger_client.models.instances</text>
<text text-anchor="middle" x="136" y="-319" font-family="Helvetica,sans-Serif" font-size="10.00">_instance_id_body.InstancesInstanceIdBody.__repr__</text>
</a>
</g>
</g>
<!-- Node1&#45;&gt;Node22 -->
<g id="edge21" class="edge">
<title>Node1&#45;&gt;Node22</title>
<path fill="none" stroke="midnightblue" d="M422.39,-763.18C417.77,-683.33 394.04,-470.86 272,-362.5 268.05,-358.99 263.78,-355.87 259.28,-353.08"/>
<polygon fill="midnightblue" stroke="midnightblue" points="418.91,-763.73 422.92,-773.54 425.9,-763.37 418.91,-763.73"/>
</g>
<!-- Node23 -->
<g id="node23" class="node">
<title>Node23</title>
<g id="a_node23"><a xlink:href="classcFSPlib_1_1python__api__client_1_1swagger__client_1_1models_1_1node__map_1_1NodeMap.html#af7c968e6ab103154dd247b9dbca76974" target="_top" xlink:title=" ">
<polygon fill="none" stroke="black" points="40.5,-252 40.5,-293 231.5,-293 231.5,-252 40.5,-252"/>
<text text-anchor="start" x="48.5" y="-281" font-family="Helvetica,sans-Serif" font-size="10.00">cFSPlib.python_api</text>
<text text-anchor="start" x="48.5" y="-270" font-family="Helvetica,sans-Serif" font-size="10.00">_client.swagger_client.models.node</text>
<text text-anchor="middle" x="136" y="-259" font-family="Helvetica,sans-Serif" font-size="10.00">_map.NodeMap.__repr__</text>
</a>
</g>
</g>
<!-- Node1&#45;&gt;Node23 -->
<g id="edge22" class="edge">
<title>Node1&#45;&gt;Node23</title>
<path fill="none" stroke="midnightblue" d="M423.94,-763.72C423.39,-677.09 409.3,-429.23 272,-302.5 260.62,-292 246.41,-284.88 231.51,-280.11"/>
<polygon fill="midnightblue" stroke="midnightblue" points="420.44,-763.93 423.94,-773.93 427.44,-763.93 420.44,-763.93"/>
</g>
<!-- Node24 -->
<g id="node24" class="node">
<title>Node24</title>
<g id="a_node24"><a xlink:href="classcFSPlib_1_1python__api__client_1_1swagger__client_1_1models_1_1node__map__inner_1_1NodeMapInner.html#a587604c99266c82720ed89c2c61ffe2a" target="_top" xlink:title=" ">
<polygon fill="none" stroke="black" points="40.5,-192 40.5,-233 231.5,-233 231.5,-192 40.5,-192"/>
<text text-anchor="start" x="48.5" y="-221" font-family="Helvetica,sans-Serif" font-size="10.00">cFSPlib.python_api</text>
<text text-anchor="start" x="48.5" y="-210" font-family="Helvetica,sans-Serif" font-size="10.00">_client.swagger_client.models.node</text>
<text text-anchor="middle" x="136" y="-199" font-family="Helvetica,sans-Serif" font-size="10.00">_map_inner.NodeMapInner.__repr__</text>
</a>
</g>
</g>
<!-- Node1&#45;&gt;Node24 -->
<g id="edge23" class="edge">
<title>Node1&#45;&gt;Node24</title>
<path fill="none" stroke="midnightblue" d="M419.27,-763.82C404.19,-658.85 349.76,-316.53 272,-242.5 260.78,-231.82 246.65,-224.62 231.78,-219.82"/>
<polygon fill="midnightblue" stroke="midnightblue" points="415.81,-764.36 420.68,-773.77 422.74,-763.38 415.81,-764.36"/>
</g>
<!-- Node25 -->
<g id="node25" class="node">
<title>Node25</title>
<g id="a_node25"><a xlink:href="classcFSPlib_1_1python__api__client_1_1swagger__client_1_1models_1_1quota_1_1Quota.html#ad43824f75dab80cd5638590e1a92dd78" target="_top" xlink:title=" ">
<polygon fill="none" stroke="black" points="37,-132 37,-173 235,-173 235,-132 37,-132"/>
<text text-anchor="start" x="45" y="-161" font-family="Helvetica,sans-Serif" font-size="10.00">cFSPlib.python_api</text>
<text text-anchor="start" x="45" y="-150" font-family="Helvetica,sans-Serif" font-size="10.00">_client.swagger_client.models.quota.</text>
<text text-anchor="middle" x="136" y="-139" font-family="Helvetica,sans-Serif" font-size="10.00">Quota.__repr__</text>
</a>
</g>
</g>
<!-- Node1&#45;&gt;Node25 -->
<g id="edge24" class="edge">
<title>Node1&#45;&gt;Node25</title>
<path fill="none" stroke="midnightblue" d="M420.16,-763.88C407.3,-651.79 357.45,-265.93 272,-182.5 261.69,-172.44 248.8,-165.44 235.1,-160.63"/>
<polygon fill="midnightblue" stroke="midnightblue" points="416.68,-764.32 421.29,-773.86 423.64,-763.53 416.68,-764.32"/>
</g>
<!-- Node26 -->
<g id="node26" class="node">
<title>Node26</title>
<g id="a_node26"><a xlink:href="classcFSPlib_1_1python__api__client_1_1swagger__client_1_1models_1_1resource_1_1Resource.html#ae6c97465f736f8b4d119f4e7986429d9" target="_top" xlink:title=" ">
<polygon fill="none" stroke="black" points="30,-72 30,-113 242,-113 242,-72 30,-72"/>
<text text-anchor="start" x="38" y="-101" font-family="Helvetica,sans-Serif" font-size="10.00">cFSPlib.python_api</text>
<text text-anchor="start" x="38" y="-90" font-family="Helvetica,sans-Serif" font-size="10.00">_client.swagger_client.models.resource.</text>
<text text-anchor="middle" x="136" y="-79" font-family="Helvetica,sans-Serif" font-size="10.00">Resource.__repr__</text>
</a>
</g>
</g>
<!-- Node1&#45;&gt;Node26 -->
<g id="edge25" class="edge">
<title>Node1&#45;&gt;Node26</title>
<path fill="none" stroke="midnightblue" d="M420.86,-763.69C410.04,-644.46 365.12,-215.33 272,-122.5 263.5,-114.02 253.17,-107.72 242.05,-103.05"/>
<polygon fill="midnightblue" stroke="midnightblue" points="417.4,-764.29 421.78,-773.94 424.38,-763.66 417.4,-764.29"/>
</g>
<!-- Node27 -->
<g id="node27" class="node">
<title>Node27</title>
<g id="a_node27"><a xlink:href="classcFSPlib_1_1python__api__client_1_1swagger__client_1_1models_1_1test__instance__instance__idb21fef29c350bd01bc51bf6a97dd8668.html#af4ecdf849e2718aec0c18c3f5c2aae42" target="_top" xlink:title=" ">
<polygon fill="none" stroke="black" points="28.5,-0.5 28.5,-52.5 243.5,-52.5 243.5,-0.5 28.5,-0.5"/>
<text text-anchor="start" x="36.5" y="-40.5" font-family="Helvetica,sans-Serif" font-size="10.00">cFSPlib.python_api</text>
<text text-anchor="start" x="36.5" y="-29.5" font-family="Helvetica,sans-Serif" font-size="10.00">_client.swagger_client.models.test</text>
<text text-anchor="start" x="36.5" y="-18.5" font-family="Helvetica,sans-Serif" font-size="10.00">_instance_instance_id_body.TestInstance</text>
<text text-anchor="middle" x="136" y="-7.5" font-family="Helvetica,sans-Serif" font-size="10.00">InstanceIdBody.__repr__</text>
</a>
</g>
</g>
<!-- Node1&#45;&gt;Node27 -->
<g id="edge26" class="edge">
<title>Node1&#45;&gt;Node27</title>
<path fill="none" stroke="midnightblue" d="M421.34,-763.55C411.95,-637.8 370.63,-166.87 272,-62.5 264,-54.04 254.26,-47.48 243.7,-42.42"/>
<polygon fill="midnightblue" stroke="midnightblue" points="417.86,-763.93 422.08,-773.65 424.84,-763.42 417.86,-763.93"/>
</g>
</g>
</svg>
