<?xml version="1.0" encoding="UTF-8" standalone="no"?>
<!DOCTYPE svg PUBLIC "-//W3C//DTD SVG 1.1//EN"
 "http://www.w3.org/Graphics/SVG/1.1/DTD/svg11.dtd">
<!-- Generated by graphviz version 2.43.0 (0)
 -->
<!-- Title: cFSPlib.python_api_client.swagger_client.api_client.ApiClient.update_params_for_auth Pages: 1 -->
<svg width="350pt" height="110pt"
 viewBox="0.00 0.00 350.00 110.00" xmlns="http://www.w3.org/2000/svg" xmlns:xlink="http://www.w3.org/1999/xlink">
<g id="graph0" class="graph" transform="scale(1 1) rotate(0) translate(4 106)">
<title>cFSPlib.python_api_client.swagger_client.api_client.ApiClient.update_params_for_auth</title>
<!-- Node1 -->
<g id="node1" class="node">
<title>Node1</title>
<g id="a_node1"><a xlink:title=" ">
<polygon fill="#bfbfbf" stroke="black" points="0,-25 0,-77 143,-77 143,-25 0,-25"/>
<text text-anchor="start" x="8" y="-65" font-family="Helvetica,sans-Serif" font-size="10.00">cFSPlib.python_api</text>
<text text-anchor="start" x="8" y="-54" font-family="Helvetica,sans-Serif" font-size="10.00">_client.swagger_client.api</text>
<text text-anchor="start" x="8" y="-43" font-family="Helvetica,sans-Serif" font-size="10.00">_client.ApiClient.update</text>
<text text-anchor="middle" x="71.5" y="-32" font-family="Helvetica,sans-Serif" font-size="10.00">_params_for_auth</text>
</a>
</g>
</g>
<!-- Node2 -->
<g id="node2" class="node">
<title>Node2</title>
<g id="a_node2"><a xlink:href="classcFSPlib_1_1python__api__client_1_1swagger__client_1_1api__client_1_1ApiClient.html#af81032968a6921b0687946a203a6f028" target="_top" xlink:title=" ">
<polygon fill="none" stroke="black" points="179,-60.5 179,-101.5 342,-101.5 342,-60.5 179,-60.5"/>
<text text-anchor="start" x="187" y="-89.5" font-family="Helvetica,sans-Serif" font-size="10.00">cFSPlib.python_api</text>
<text text-anchor="start" x="187" y="-78.5" font-family="Helvetica,sans-Serif" font-size="10.00">_client.swagger_client.api</text>
<text text-anchor="middle" x="260.5" y="-67.5" font-family="Helvetica,sans-Serif" font-size="10.00">_client.ApiClient.__deserialize</text>
</a>
</g>
</g>
<!-- Node1&#45;&gt;Node2 -->
<g id="edge1" class="edge">
<title>Node1&#45;&gt;Node2</title>
<path fill="none" stroke="midnightblue" d="M143.2,-62.34C151.6,-63.69 160.26,-65.08 168.89,-66.46"/>
<polygon fill="midnightblue" stroke="midnightblue" points="168.56,-69.95 178.98,-68.08 169.67,-63.04 168.56,-69.95"/>
</g>
<!-- Node3 -->
<g id="node3" class="node">
<title>Node3</title>
<g id="a_node3"><a xlink:href="classcFSPlib_1_1python__api__client_1_1swagger__client_1_1api__client_1_1ApiClient.html#a856373a3aefbbee977807bff116f75b5" target="_top" xlink:title=" ">
<polygon fill="none" stroke="black" points="188.5,-0.5 188.5,-41.5 332.5,-41.5 332.5,-0.5 188.5,-0.5"/>
<text text-anchor="start" x="196.5" y="-29.5" font-family="Helvetica,sans-Serif" font-size="10.00">cFSPlib.python_api</text>
<text text-anchor="start" x="196.5" y="-18.5" font-family="Helvetica,sans-Serif" font-size="10.00">_client.swagger_client.api</text>
<text text-anchor="middle" x="260.5" y="-7.5" font-family="Helvetica,sans-Serif" font-size="10.00">_client.ApiClient.__hasattr</text>
</a>
</g>
</g>
<!-- Node1&#45;&gt;Node3 -->
<g id="edge2" class="edge">
<title>Node1&#45;&gt;Node3</title>
<path fill="none" stroke="midnightblue" d="M143.2,-39.66C154.64,-37.82 166.56,-35.91 178.23,-34.04"/>
<polygon fill="midnightblue" stroke="midnightblue" points="179.07,-37.45 188.39,-32.41 177.96,-30.54 179.07,-37.45"/>
</g>
</g>
</svg>
