<?xml version="1.0" encoding="UTF-8" standalone="no"?>
<!DOCTYPE svg PUBLIC "-//W3C//DTD SVG 1.1//EN"
 "http://www.w3.org/Graphics/SVG/1.1/DTD/svg11.dtd">
<!-- Generated by graphviz version 2.43.0 (0)
 -->
<!-- Title: SimIp4Packet::getTcpData Pages: 1 -->
<svg width="532pt" height="159pt"
 viewBox="0.00 0.00 532.00 158.50" xmlns="http://www.w3.org/2000/svg" xmlns:xlink="http://www.w3.org/1999/xlink">
<g id="graph0" class="graph" transform="scale(1 1) rotate(0) translate(4 154.5)">
<title>SimIp4Packet::getTcpData</title>
<!-- Node1 -->
<g id="node1" class="node">
<title>Node1</title>
<g id="a_node1"><a xlink:title="Get TCP data from the current IPv4 packet.">
<polygon fill="#bfbfbf" stroke="black" points="0,-57.5 0,-76.5 143,-76.5 143,-57.5 0,-57.5"/>
<text text-anchor="middle" x="71.5" y="-64.5" font-family="Helvetica,sans-Serif" font-size="10.00">SimIp4Packet::getTcpData</text>
</a>
</g>
</g>
<!-- Node2 -->
<g id="node2" class="node">
<title>Node2</title>
<g id="a_node2"><a xlink:href="classSimIp4Packet.html#a7ee25ca44b1cb9e3d375b41c8790dffb" target="_top" xlink:title=" ">
<polygon fill="none" stroke="black" points="373,-120 373,-150 524,-150 524,-120 373,-120"/>
<text text-anchor="start" x="381" y="-138" font-family="Helvetica,sans-Serif" font-size="10.00">SimIp4Packet::getIpInternet</text>
<text text-anchor="middle" x="448.5" y="-127" font-family="Helvetica,sans-Serif" font-size="10.00">HeaderLength</text>
</a>
</g>
</g>
<!-- Node1&#45;&gt;Node2 -->
<g id="edge1" class="edge">
<title>Node1&#45;&gt;Node2</title>
<path fill="none" stroke="midnightblue" d="M94.49,-76.54C115.72,-85.34 148.97,-98.06 179,-105 239.64,-119.01 309.56,-126.55 362.84,-130.57"/>
<polygon fill="midnightblue" stroke="midnightblue" points="362.7,-134.07 372.93,-131.31 363.21,-127.09 362.7,-134.07"/>
</g>
<!-- Node3 -->
<g id="node3" class="node">
<title>Node3</title>
<g id="a_node3"><a xlink:href="classSimIp4Packet.html#a4894d6345f56f2e0c85853e58154a996" target="_top" xlink:title=" ">
<polygon fill="none" stroke="black" points="377,-22 377,-52 520,-52 520,-22 377,-22"/>
<text text-anchor="start" x="385" y="-40" font-family="Helvetica,sans-Serif" font-size="10.00">SimIp4Packet::getTcpData</text>
<text text-anchor="middle" x="448.5" y="-29" font-family="Helvetica,sans-Serif" font-size="10.00">Offset</text>
</a>
</g>
</g>
<!-- Node1&#45;&gt;Node3 -->
<g id="edge2" class="edge">
<title>Node1&#45;&gt;Node3</title>
<path fill="none" stroke="midnightblue" d="M143.03,-61.36C206.7,-56.26 300.33,-48.77 366.93,-43.45"/>
<polygon fill="midnightblue" stroke="midnightblue" points="367.27,-46.93 376.96,-42.64 366.72,-39.95 367.27,-46.93"/>
</g>
<!-- Node4 -->
<g id="node4" class="node">
<title>Node4</title>
<g id="a_node4"><a xlink:href="group__NTS__SIM.html#ga23351fea2192ce82bbb836404a52973b" target="_top" xlink:title="Converts an UINT8 into a string of 2 HEX characters.">
<polygon fill="none" stroke="black" points="207,-0.5 207,-19.5 309,-19.5 309,-0.5 207,-0.5"/>
<text text-anchor="middle" x="258" y="-7.5" font-family="Helvetica,sans-Serif" font-size="10.00">myUint8ToStrHex</text>
</a>
</g>
</g>
<!-- Node1&#45;&gt;Node4 -->
<g id="edge3" class="edge">
<title>Node1&#45;&gt;Node4</title>
<path fill="none" stroke="midnightblue" d="M103.25,-57.45C124.52,-50.85 153.48,-41.88 179,-34 191.06,-30.28 204.17,-26.24 216.13,-22.56"/>
<polygon fill="midnightblue" stroke="midnightblue" points="217.34,-25.85 225.87,-19.56 215.29,-19.16 217.34,-25.85"/>
</g>
<!-- Node5 -->
<g id="node5" class="node">
<title>Node5</title>
<g id="a_node5"><a xlink:href="classSimIp4Packet.html#a0344208d2488a4d0902a9699c62c1742" target="_top" xlink:title="Return the size of the TCP data payload in octets.">
<polygon fill="none" stroke="black" points="179,-76.5 179,-95.5 337,-95.5 337,-76.5 179,-76.5"/>
<text text-anchor="middle" x="258" y="-83.5" font-family="Helvetica,sans-Serif" font-size="10.00">SimIp4Packet::sizeOfTcpData</text>
</a>
</g>
</g>
<!-- Node1&#45;&gt;Node5 -->
<g id="edge4" class="edge">
<title>Node1&#45;&gt;Node5</title>
<path fill="none" stroke="midnightblue" d="M143.04,-74.26C151.45,-75.13 160.11,-76.02 168.73,-76.91"/>
<polygon fill="midnightblue" stroke="midnightblue" points="168.5,-80.4 178.81,-77.95 169.22,-73.44 168.5,-80.4"/>
</g>
<!-- Node5&#45;&gt;Node2 -->
<g id="edge5" class="edge">
<title>Node5&#45;&gt;Node2</title>
<path fill="none" stroke="midnightblue" d="M295.79,-95.56C319.66,-101.77 351.47,-110.04 379.8,-117.4"/>
<polygon fill="midnightblue" stroke="midnightblue" points="379.09,-120.83 389.65,-119.96 380.86,-114.06 379.09,-120.83"/>
</g>
<!-- Node5&#45;&gt;Node3 -->
<g id="edge7" class="edge">
<title>Node5&#45;&gt;Node3</title>
<path fill="none" stroke="midnightblue" d="M295.79,-76.44C319.66,-70.23 351.47,-61.96 379.8,-54.6"/>
<polygon fill="midnightblue" stroke="midnightblue" points="380.86,-57.94 389.65,-52.04 379.09,-51.17 380.86,-57.94"/>
</g>
<!-- Node6 -->
<g id="node6" class="node">
<title>Node6</title>
<g id="a_node6"><a xlink:href="classSimIp4Packet.html#a09cac22ce1fceda47a24a78d2066e5a3" target="_top" xlink:title=" ">
<polygon fill="none" stroke="black" points="380.5,-71 380.5,-101 516.5,-101 516.5,-71 380.5,-71"/>
<text text-anchor="start" x="388.5" y="-89" font-family="Helvetica,sans-Serif" font-size="10.00">SimIp4Packet::getIpTotal</text>
<text text-anchor="middle" x="448.5" y="-78" font-family="Helvetica,sans-Serif" font-size="10.00">Length</text>
</a>
</g>
</g>
<!-- Node5&#45;&gt;Node6 -->
<g id="edge6" class="edge">
<title>Node5&#45;&gt;Node6</title>
<path fill="none" stroke="midnightblue" d="M337.03,-86C347.93,-86 359.13,-86 370.02,-86"/>
<polygon fill="midnightblue" stroke="midnightblue" points="370.34,-89.5 380.34,-86 370.34,-82.5 370.34,-89.5"/>
</g>
</g>
</svg>
