<?xml version="1.0" encoding="UTF-8" standalone="no"?>
<!DOCTYPE svg PUBLIC "-//W3C//DTD SVG 1.1//EN"
 "http://www.w3.org/Graphics/SVG/1.1/DTD/svg11.dtd">
<!-- Generated by graphviz version 2.43.0 (0)
 -->
<!-- Title: test_sobel_numpi_video_threaded.FPS.fps Pages: 1 -->
<svg width="375pt" height="225pt"
 viewBox="0.00 0.00 375.00 224.50" xmlns="http://www.w3.org/2000/svg" xmlns:xlink="http://www.w3.org/1999/xlink">
<g id="graph0" class="graph" transform="scale(1 1) rotate(0) translate(4 220.5)">
<title>test_sobel_numpi_video_threaded.FPS.fps</title>
<!-- Node1 -->
<g id="node1" class="node">
<title>Node1</title>
<g id="a_node1"><a xlink:title=" ">
<polygon fill="#bfbfbf" stroke="black" points="0,-98.5 0,-128.5 135,-128.5 135,-98.5 0,-98.5"/>
<text text-anchor="start" x="8" y="-116.5" font-family="Helvetica,sans-Serif" font-size="10.00">test_sobel_numpi_video</text>
<text text-anchor="middle" x="67.5" y="-105.5" font-family="Helvetica,sans-Serif" font-size="10.00">_threaded.FPS.fps</text>
</a>
</g>
</g>
<!-- Node2 -->
<g id="node2" class="node">
<title>Node2</title>
<g id="a_node2"><a xlink:href="classvar_1_1video__threaded_1_1FPS.html#a4eac7eadc5f54202a4699ea90f65ced0" target="_top" xlink:title=" ">
<polygon fill="none" stroke="black" points="182.5,-197 182.5,-216 355.5,-216 355.5,-197 182.5,-197"/>
<text text-anchor="middle" x="269" y="-204" font-family="Helvetica,sans-Serif" font-size="10.00">var.video_threaded.FPS.elapsed</text>
</a>
</g>
</g>
<!-- Node1&#45;&gt;Node2 -->
<g id="edge1" class="edge">
<title>Node1&#45;&gt;Node2</title>
<path fill="none" stroke="midnightblue" d="M84.52,-128.52C103.6,-145.54 137.17,-172.82 171,-187.5 176.89,-190.05 183.13,-192.27 189.49,-194.19"/>
<polygon fill="midnightblue" stroke="midnightblue" points="188.98,-197.68 199.55,-196.96 190.84,-190.93 188.98,-197.68"/>
</g>
<!-- Node3 -->
<g id="node3" class="node">
<title>Node3</title>
<g id="a_node3"><a xlink:href="classtest__harris__numpi__video__threaded_1_1FPS.html#a9c936a8989857d7744bed858d254069f" target="_top" xlink:title=" ">
<polygon fill="none" stroke="black" points="200.5,-147.5 200.5,-177.5 337.5,-177.5 337.5,-147.5 200.5,-147.5"/>
<text text-anchor="start" x="208.5" y="-165.5" font-family="Helvetica,sans-Serif" font-size="10.00">test_harris_numpi_video</text>
<text text-anchor="middle" x="269" y="-154.5" font-family="Helvetica,sans-Serif" font-size="10.00">_threaded.FPS.elapsed</text>
</a>
</g>
</g>
<!-- Node1&#45;&gt;Node3 -->
<g id="edge2" class="edge">
<title>Node1&#45;&gt;Node3</title>
<path fill="none" stroke="midnightblue" d="M129.71,-128.53C150.97,-133.76 174.98,-139.65 196.96,-145.05"/>
<polygon fill="midnightblue" stroke="midnightblue" points="196.36,-148.51 206.9,-147.49 198.03,-141.71 196.36,-148.51"/>
</g>
<!-- Node4 -->
<g id="node4" class="node">
<title>Node4</title>
<g id="a_node4"><a xlink:href="classtest__median__blur__numpi__video__threaded_1_1FPS.html#a880fed105baa52e94a04f82f8d71cf8b" target="_top" xlink:title=" ">
<polygon fill="none" stroke="black" points="189,-98.5 189,-128.5 349,-128.5 349,-98.5 189,-98.5"/>
<text text-anchor="start" x="197" y="-116.5" font-family="Helvetica,sans-Serif" font-size="10.00">test_median_blur_numpi</text>
<text text-anchor="middle" x="269" y="-105.5" font-family="Helvetica,sans-Serif" font-size="10.00">_video_threaded.FPS.elapsed</text>
</a>
</g>
</g>
<!-- Node1&#45;&gt;Node4 -->
<g id="edge3" class="edge">
<title>Node1&#45;&gt;Node4</title>
<path fill="none" stroke="midnightblue" d="M135.21,-113.5C149.2,-113.5 164.16,-113.5 178.82,-113.5"/>
<polygon fill="midnightblue" stroke="midnightblue" points="178.91,-117 188.91,-113.5 178.91,-110 178.91,-117"/>
</g>
<!-- Node5 -->
<g id="node5" class="node">
<title>Node5</title>
<g id="a_node5"><a xlink:href="classtest__sobel__numpi__video__threaded_1_1FPS.html#a9602e403c1c3afaef171c83719f15a9a" target="_top" xlink:title=" ">
<polygon fill="none" stroke="black" points="201.5,-49.5 201.5,-79.5 336.5,-79.5 336.5,-49.5 201.5,-49.5"/>
<text text-anchor="start" x="209.5" y="-67.5" font-family="Helvetica,sans-Serif" font-size="10.00">test_sobel_numpi_video</text>
<text text-anchor="middle" x="269" y="-56.5" font-family="Helvetica,sans-Serif" font-size="10.00">_threaded.FPS.elapsed</text>
</a>
</g>
</g>
<!-- Node1&#45;&gt;Node5 -->
<g id="edge4" class="edge">
<title>Node1&#45;&gt;Node5</title>
<path fill="none" stroke="midnightblue" d="M129.71,-98.47C150.97,-93.24 174.98,-87.35 196.96,-81.95"/>
<polygon fill="midnightblue" stroke="midnightblue" points="198.03,-85.29 206.9,-79.51 196.36,-78.49 198.03,-85.29"/>
</g>
<!-- Node6 -->
<g id="node6" class="node">
<title>Node6</title>
<g id="a_node6"><a xlink:href="classtest__warp__transform__numpi__video__threaded_1_1FPS.html#a5112bdf75bce138815aa0e7d42124b83" target="_top" xlink:title=" ">
<polygon fill="none" stroke="black" points="171,-0.5 171,-30.5 367,-30.5 367,-0.5 171,-0.5"/>
<text text-anchor="start" x="179" y="-18.5" font-family="Helvetica,sans-Serif" font-size="10.00">test_warp_transform</text>
<text text-anchor="middle" x="269" y="-7.5" font-family="Helvetica,sans-Serif" font-size="10.00">_numpi_video_threaded.FPS.elapsed</text>
</a>
</g>
</g>
<!-- Node1&#45;&gt;Node6 -->
<g id="edge5" class="edge">
<title>Node1&#45;&gt;Node6</title>
<path fill="none" stroke="midnightblue" d="M85.41,-98.45C104.78,-81.95 138.12,-55.8 171,-40.5 176.25,-38.06 181.78,-35.82 187.42,-33.79"/>
<polygon fill="midnightblue" stroke="midnightblue" points="188.65,-37.07 197,-30.56 186.41,-30.44 188.65,-37.07"/>
</g>
</g>
</svg>
