<?xml version="1.0" encoding="UTF-8" standalone="no"?>
<!DOCTYPE svg PUBLIC "-//W3C//DTD SVG 1.1//EN"
 "http://www.w3.org/Graphics/SVG/1.1/DTD/svg11.dtd">
<!-- Generated by graphviz version 2.43.0 (0)
 -->
<!-- Title: SimUdpDatagram::isWellFormed Pages: 1 -->
<!--zoomable 154 -->
<svg id="main" version="1.1" xmlns="http://www.w3.org/2000/svg" xmlns:xlink="http://www.w3.org/1999/xlink" xml:space="preserve" onload="init(evt)">
<style type="text/css"><![CDATA[
.edge:hover path { stroke: red; }
.edge:hover polygon { stroke: red; fill: red; }
]]></style>
<script type="text/javascript"><![CDATA[
var edges = document.getElementsByTagName('g');
if (edges && edges.length) {
  for (var i=0;i<edges.length;i++) {
    if (edges[i].id.substr(0,4)=='edge') {
      edges[i].setAttribute('class','edge');
    }
  }
}
]]></script>
        <defs>
                <circle id="rim" cx="0" cy="0" r="7"/>
                <circle id="rim2" cx="0" cy="0" r="3.5"/>
                <g id="zoomPlus">
                        <use xlink:href="#rim" fill="#404040">
                                <set attributeName="fill" to="#808080" begin="zoomplus.mouseover" end="zoomplus.mouseout"/>
                        </use>
                        <path d="M-4,0h8M0,-4v8" fill="none" stroke="white" stroke-width="1.5" pointer-events="none"/>
                </g>
                <g id="zoomMin">
                        <use xlink:href="#rim" fill="#404040">
                                <set attributeName="fill" to="#808080" begin="zoomminus.mouseover" end="zoomminus.mouseout"/>
                        </use>
                        <path d="M-4,0h8" fill="none" stroke="white" stroke-width="1.5" pointer-events="none"/>
                </g>
                <g id="dirArrow">
                        <path fill="none" stroke="white" stroke-width="1.5" d="M0,-3.0v7 M-2.5,-0.5L0,-3.0L2.5,-0.5"/>
                </g>
               <g id="resetDef">
                       <use xlink:href="#rim2" fill="#404040">
                               <set attributeName="fill" to="#808080" begin="reset.mouseover" end="reset.mouseout"/>
                       </use>
               </g>
        </defs>

<script type="text/javascript">
var viewWidth = 861;
var viewHeight = 154;
var sectionId = 'dynsection-10';
</script>
<script xlink:href="svgpan.js"/>
<svg id="graph" class="graph">
<g id="viewport">
<title>SimUdpDatagram::isWellFormed</title>
<!-- Node1 -->
<g id="node1" class="node">
<title>Node1</title>
<g id="a_node1"><a xlink:title="Checks if the datagram header fields are properly set.">
<polygon fill="#bfbfbf" stroke="black" points="0,-88.5 0,-107.5 176,-107.5 176,-88.5 0,-88.5"/>
<text text-anchor="middle" x="88" y="-95.5" font-family="Helvetica,sans-Serif" font-size="10.00">SimUdpDatagram::isWellFormed</text>
</a>
</g>
</g>
<!-- Node2 -->
<g id="node2" class="node">
<title>Node2</title>
<g id="a_node2"><a xlink:href="classSimUdpDatagram.html#adcb8da39de0a7f16588132a1bcac3cad" target="_top" xlink:title=" ">
<polygon fill="none" stroke="black" points="212,-126.5 212,-145.5 408,-145.5 408,-126.5 212,-126.5"/>
<text text-anchor="middle" x="310" y="-133.5" font-family="Helvetica,sans-Serif" font-size="10.00">SimUdpDatagram::getUdpChecksum</text>
</a>
</g>
</g>
<!-- Node1&#45;&gt;Node2 -->
<g id="edge1" class="edge">
<title>Node1&#45;&gt;Node2</title>
<path fill="none" stroke="midnightblue" d="M144.23,-107.54C174.44,-112.76 212.04,-119.25 243.69,-124.72"/>
<polygon fill="midnightblue" stroke="midnightblue" points="243.3,-128.2 253.75,-126.46 244.49,-121.31 243.3,-128.2"/>
</g>
<!-- Node3 -->
<g id="node3" class="node">
<title>Node3</title>
<g id="a_node3"><a xlink:href="classSimUdpDatagram.html#abc1fde2bc9002c46366d8baa92f7a4ae" target="_top" xlink:title=" ">
<polygon fill="none" stroke="black" points="675,-86.5 675,-105.5 853,-105.5 853,-86.5 675,-86.5"/>
<text text-anchor="middle" x="764" y="-93.5" font-family="Helvetica,sans-Serif" font-size="10.00">SimUdpDatagram::getUdpLength</text>
</a>
</g>
</g>
<!-- Node1&#45;&gt;Node3 -->
<g id="edge2" class="edge">
<title>Node1&#45;&gt;Node3</title>
<path fill="none" stroke="midnightblue" d="M176.08,-97.74C301.72,-97.37 533.16,-96.68 664.75,-96.29"/>
<polygon fill="midnightblue" stroke="midnightblue" points="664.84,-99.79 674.83,-96.26 664.82,-92.79 664.84,-99.79"/>
</g>
<!-- Node4 -->
<g id="node4" class="node">
<title>Node4</title>
<g id="a_node4"><a xlink:href="classSimUdpDatagram.html#ad0d2ae16d9a266b36c2ec50811a99e37" target="_top" xlink:title="Recalculate the UDP checksum of a datagram.">
<polygon fill="none" stroke="black" points="227.5,-39 227.5,-69 392.5,-69 392.5,-39 227.5,-39"/>
<text text-anchor="start" x="235.5" y="-57" font-family="Helvetica,sans-Serif" font-size="10.00">SimUdpDatagram::reCalculate</text>
<text text-anchor="middle" x="310" y="-46" font-family="Helvetica,sans-Serif" font-size="10.00">UdpChecksum</text>
</a>
</g>
</g>
<!-- Node1&#45;&gt;Node4 -->
<g id="edge3" class="edge">
<title>Node1&#45;&gt;Node4</title>
<path fill="none" stroke="midnightblue" d="M136.74,-88.45C162.17,-83.37 194.22,-76.96 223.76,-71.05"/>
<polygon fill="midnightblue" stroke="midnightblue" points="224.55,-74.46 233.67,-69.07 223.18,-67.59 224.55,-74.46"/>
</g>
<!-- Node5 -->
<g id="node5" class="node">
<title>Node5</title>
<g id="a_node5"><a xlink:href="classSimUdpDatagram.html#a548bbafdc75719ff512dcc44e5e47d7e" target="_top" xlink:title="Calculate the UDP checksum of the datagram.">
<polygon fill="none" stroke="black" points="464.5,-39 464.5,-69 618.5,-69 618.5,-39 464.5,-39"/>
<text text-anchor="start" x="472.5" y="-57" font-family="Helvetica,sans-Serif" font-size="10.00">SimUdpDatagram::calculate</text>
<text text-anchor="middle" x="541.5" y="-46" font-family="Helvetica,sans-Serif" font-size="10.00">UdpChecksum</text>
</a>
</g>
</g>
<!-- Node4&#45;&gt;Node5 -->
<g id="edge4" class="edge">
<title>Node4&#45;&gt;Node5</title>
<path fill="none" stroke="midnightblue" d="M392.56,-54C412.51,-54 433.92,-54 454.09,-54"/>
<polygon fill="midnightblue" stroke="midnightblue" points="454.19,-57.5 464.19,-54 454.19,-50.5 454.19,-57.5"/>
</g>
<!-- Node8 -->
<g id="node8" class="node">
<title>Node8</title>
<g id="a_node8"><a xlink:href="classSimUdpDatagram.html#a0d0dd40d9e2b60b16d3d9c0360404ca1" target="_top" xlink:title=" ">
<polygon fill="none" stroke="black" points="444,-0.5 444,-19.5 639,-19.5 639,-0.5 444,-0.5"/>
<text text-anchor="middle" x="541.5" y="-7.5" font-family="Helvetica,sans-Serif" font-size="10.00">SimUdpDatagram::setUdpChecksum</text>
</a>
</g>
</g>
<!-- Node4&#45;&gt;Node8 -->
<g id="edge8" class="edge">
<title>Node4&#45;&gt;Node8</title>
<path fill="none" stroke="midnightblue" d="M389.34,-38.98C419.29,-33.24 452.94,-26.79 480.87,-21.43"/>
<polygon fill="midnightblue" stroke="midnightblue" points="481.72,-24.83 490.88,-19.51 480.4,-17.96 481.72,-24.83"/>
</g>
<!-- Node5&#45;&gt;Node3 -->
<g id="edge6" class="edge">
<title>Node5&#45;&gt;Node3</title>
<path fill="none" stroke="midnightblue" d="M618.69,-68.51C646.28,-73.77 677.01,-79.62 703.01,-84.57"/>
<polygon fill="midnightblue" stroke="midnightblue" points="702.61,-88.06 713.09,-86.49 703.92,-81.18 702.61,-88.06"/>
</g>
<!-- Node6 -->
<g id="node6" class="node">
<title>Node6</title>
<g id="a_node6"><a xlink:href="udp_8cpp.html#ga3179abf5c515026aad3e82047a1dd9a3" target="_top" xlink:title=" ">
<polygon fill="none" stroke="black" points="725.5,-45.5 725.5,-64.5 802.5,-64.5 802.5,-45.5 725.5,-45.5"/>
<text text-anchor="middle" x="764" y="-52.5" font-family="Helvetica,sans-Serif" font-size="10.00">byteSwap16</text>
</a>
</g>
</g>
<!-- Node5&#45;&gt;Node6 -->
<g id="edge5" class="edge">
<title>Node5&#45;&gt;Node6</title>
<path fill="none" stroke="midnightblue" d="M618.69,-54.35C650.84,-54.49 687.28,-54.66 715.5,-54.78"/>
<polygon fill="midnightblue" stroke="midnightblue" points="715.48,-58.28 725.5,-54.83 715.51,-51.28 715.48,-58.28"/>
</g>
<!-- Node7 -->
<g id="node7" class="node">
<title>Node7</title>
<g id="a_node7"><a xlink:href="classSimUdpDatagram.html#a5cc83610935341408f23d7a5b431d3e8" target="_top" xlink:title=" ">
<polygon fill="none" stroke="black" points="699.5,-7.5 699.5,-26.5 828.5,-26.5 828.5,-7.5 699.5,-7.5"/>
<text text-anchor="middle" x="764" y="-14.5" font-family="Helvetica,sans-Serif" font-size="10.00">SimUdpDatagram::size</text>
</a>
</g>
</g>
<!-- Node5&#45;&gt;Node7 -->
<g id="edge7" class="edge">
<title>Node5&#45;&gt;Node7</title>
<path fill="none" stroke="midnightblue" d="M618.69,-41.21C643.97,-36.97 671.89,-32.29 696.38,-28.18"/>
<polygon fill="midnightblue" stroke="midnightblue" points="697.01,-31.62 706.29,-26.52 695.85,-24.72 697.01,-31.62"/>
</g>
</g>
</svg>
        <g id="navigator" transform="translate(0 0)" fill="#404254">
                <rect fill="#f2f5e9" fill-opacity="0.5" stroke="#606060" stroke-width=".5" x="0" y="0" width="60" height="60"/>
                <use id="zoomplus" xlink:href="#zoomPlus" x="17" y="9" onmousedown="handleZoom(evt,'in')"/>
                <use id="zoomminus" xlink:href="#zoomMin" x="42" y="9" onmousedown="handleZoom(evt,'out')"/>
                <use id="reset" xlink:href="#resetDef" x="30" y="36" onmousedown="handleReset()"/>
                <g id="arrowUp" xlink:href="#dirArrow" transform="translate(30 24)" onmousedown="handlePan(0,-1)">
                  <use xlink:href="#rim" fill="#404040">
                        <set attributeName="fill" to="#808080" begin="arrowUp.mouseover" end="arrowUp.mouseout"/>
                  </use>
                  <path fill="none" stroke="white" stroke-width="1.5" d="M0,-3.0v7 M-2.5,-0.5L0,-3.0L2.5,-0.5"/>
                </g>
                <g id="arrowRight" xlink:href="#dirArrow" transform="rotate(90) translate(36 -43)" onmousedown="handlePan(1,0)">
                  <use xlink:href="#rim" fill="#404040">
                        <set attributeName="fill" to="#808080" begin="arrowRight.mouseover" end="arrowRight.mouseout"/>
                  </use>
                  <path fill="none" stroke="white" stroke-width="1.5" d="M0,-3.0v7 M-2.5,-0.5L0,-3.0L2.5,-0.5"/>
                </g>
                <g id="arrowDown" xlink:href="#dirArrow" transform="rotate(180) translate(-30 -48)" onmousedown="handlePan(0,1)">
                  <use xlink:href="#rim" fill="#404040">
                        <set attributeName="fill" to="#808080" begin="arrowDown.mouseover" end="arrowDown.mouseout"/>
                  </use>
                  <path fill="none" stroke="white" stroke-width="1.5" d="M0,-3.0v7 M-2.5,-0.5L0,-3.0L2.5,-0.5"/>
                </g>
                <g id="arrowLeft" xlink:href="#dirArrow" transform="rotate(270) translate(-36 17)" onmousedown="handlePan(-1,0)">
                  <use xlink:href="#rim" fill="#404040">
                        <set attributeName="fill" to="#808080" begin="arrowLeft.mouseover" end="arrowLeft.mouseout"/>
                  </use>
                  <path fill="none" stroke="white" stroke-width="1.5" d="M0,-3.0v7 M-2.5,-0.5L0,-3.0L2.5,-0.5"/>
                </g>
        </g>
        <svg viewBox="0 0 15 15" width="100%" height="30px" preserveAspectRatio="xMaxYMin meet">
         <g id="arrow_out" transform="scale(0.3 0.3)">
          <a xlink:href="classSimUdpDatagram_a75792488c03e516ee2d74e4dc59cca65_cgraph_org.svg" target="_base">
           <rect id="button" ry="5" rx="5" y="6" x="6" height="38" width="38"
                fill="#f2f5e9" fill-opacity="0.5" stroke="#606060" stroke-width="1.0"/>
           <path id="arrow"
             d="M 11.500037,31.436501 C 11.940474,20.09759 22.043105,11.32322 32.158766,21.979434 L 37.068811,17.246167 C 37.068811,17.246167 37.088388,32 37.088388,32 L 22.160133,31.978069 C 22.160133,31.978069 26.997745,27.140456 26.997745,27.140456 C 18.528582,18.264221 13.291696,25.230495 11.500037,31.436501 z"
             style="fill:#404040;"/>
          </a>
         </g>
        </svg>
</svg>
