<?xml version="1.0" encoding="UTF-8" standalone="no"?>
<!DOCTYPE svg PUBLIC "-//W3C//DTD SVG 1.1//EN"
 "http://www.w3.org/Graphics/SVG/1.1/DTD/svg11.dtd">
<!-- Generated by graphviz version 2.43.0 (0)
 -->
<!-- Title: SimUdpDatagram::cloneHeader Pages: 1 -->
<svg width="695pt" height="85pt"
 viewBox="0.00 0.00 695.00 85.00" xmlns="http://www.w3.org/2000/svg" xmlns:xlink="http://www.w3.org/1999/xlink">
<g id="graph0" class="graph" transform="scale(1 1) rotate(0) translate(4 81)">
<title>SimUdpDatagram::cloneHeader</title>
<!-- Node1 -->
<g id="node1" class="node">
<title>Node1</title>
<g id="a_node1"><a xlink:title="Clone the header of a UDP datagram.">
<polygon fill="#bfbfbf" stroke="black" points="0,-38.5 0,-57.5 171,-57.5 171,-38.5 0,-38.5"/>
<text text-anchor="middle" x="85.5" y="-45.5" font-family="Helvetica,sans-Serif" font-size="10.00">SimUdpDatagram::cloneHeader</text>
</a>
</g>
</g>
<!-- Node2 -->
<g id="node2" class="node">
<title>Node2</title>
<g id="a_node2"><a xlink:href="group__NTS.html#ga322539a2726973fd6ecf61d26e6ccbf8" target="_top" xlink:title="A function to set a number of &#39;1&#39; in an 8&#45;bit field. It is used here to set the number of valid bytes...">
<polygon fill="none" stroke="black" points="246,-57.5 246,-76.5 332,-76.5 332,-57.5 246,-57.5"/>
<text text-anchor="middle" x="289" y="-64.5" font-family="Helvetica,sans-Serif" font-size="10.00">lenToLE_tKeep</text>
</a>
</g>
</g>
<!-- Node1&#45;&gt;Node2 -->
<g id="edge1" class="edge">
<title>Node1&#45;&gt;Node2</title>
<path fill="none" stroke="midnightblue" d="M171.08,-55.98C193.09,-58.05 216.16,-60.23 235.93,-62.09"/>
<polygon fill="midnightblue" stroke="midnightblue" points="235.67,-65.58 245.95,-63.04 236.32,-58.61 235.67,-65.58"/>
</g>
<!-- Node3 -->
<g id="node3" class="node">
<title>Node3</title>
<g id="a_node3"><a xlink:href="classSimUdpDatagram.html#a19f8f331cc36e9b566a1a6935a9d9e56" target="_top" xlink:title=" ">
<polygon fill="none" stroke="black" points="207,-19.5 207,-38.5 371,-38.5 371,-19.5 207,-19.5"/>
<text text-anchor="middle" x="289" y="-26.5" font-family="Helvetica,sans-Serif" font-size="10.00">SimUdpDatagram::pushChunk</text>
</a>
</g>
</g>
<!-- Node1&#45;&gt;Node3 -->
<g id="edge2" class="edge">
<title>Node1&#45;&gt;Node3</title>
<path fill="none" stroke="midnightblue" d="M171.08,-40.02C179.59,-39.22 188.27,-38.4 196.85,-37.6"/>
<polygon fill="midnightblue" stroke="midnightblue" points="197.23,-41.07 206.86,-36.65 196.58,-34.11 197.23,-41.07"/>
</g>
<!-- Node4 -->
<g id="node4" class="node">
<title>Node4</title>
<g id="a_node4"><a xlink:href="classAxisRaw.html#acadbd2b7e00e34417c426fa91c8d7c51" target="_top" xlink:title=" ">
<polygon fill="none" stroke="black" points="423,-38.5 423,-57.5 520,-57.5 520,-38.5 423,-38.5"/>
<text text-anchor="middle" x="471.5" y="-45.5" font-family="Helvetica,sans-Serif" font-size="10.00">AxisRaw::getLen</text>
</a>
</g>
</g>
<!-- Node3&#45;&gt;Node4 -->
<g id="edge3" class="edge">
<title>Node3&#45;&gt;Node4</title>
<path fill="none" stroke="midnightblue" d="M371.01,-37.53C385.13,-39.01 399.55,-40.53 412.87,-41.93"/>
<polygon fill="midnightblue" stroke="midnightblue" points="412.51,-45.41 422.82,-42.98 413.24,-38.45 412.51,-45.41"/>
</g>
<!-- Node6 -->
<g id="node6" class="node">
<title>Node6</title>
<g id="a_node6"><a xlink:href="classSimUdpDatagram.html#a5cc83610935341408f23d7a5b431d3e8" target="_top" xlink:title=" ">
<polygon fill="none" stroke="black" points="407,-0.5 407,-19.5 536,-19.5 536,-0.5 407,-0.5"/>
<text text-anchor="middle" x="471.5" y="-7.5" font-family="Helvetica,sans-Serif" font-size="10.00">SimUdpDatagram::size</text>
</a>
</g>
</g>
<!-- Node3&#45;&gt;Node6 -->
<g id="edge5" class="edge">
<title>Node3&#45;&gt;Node6</title>
<path fill="none" stroke="midnightblue" d="M371.01,-20.47C379.54,-19.57 388.18,-18.67 396.62,-17.78"/>
<polygon fill="midnightblue" stroke="midnightblue" points="397.22,-21.23 406.8,-16.71 396.49,-14.27 397.22,-21.23"/>
</g>
<!-- Node5 -->
<g id="node5" class="node">
<title>Node5</title>
<g id="a_node5"><a xlink:href="classAxisRaw.html#aec8718820338b67381cce084ba407063" target="_top" xlink:title=" ">
<polygon fill="none" stroke="black" points="572,-38.5 572,-57.5 687,-57.5 687,-38.5 572,-38.5"/>
<text text-anchor="middle" x="629.5" y="-45.5" font-family="Helvetica,sans-Serif" font-size="10.00">AxisRaw::keepToLen</text>
</a>
</g>
</g>
<!-- Node4&#45;&gt;Node5 -->
<g id="edge4" class="edge">
<title>Node4&#45;&gt;Node5</title>
<path fill="none" stroke="midnightblue" d="M520.15,-48C533.28,-48 547.76,-48 561.74,-48"/>
<polygon fill="midnightblue" stroke="midnightblue" points="561.82,-51.5 571.82,-48 561.81,-44.5 561.82,-51.5"/>
</g>
</g>
</svg>
