<?xml version="1.0" encoding="UTF-8" standalone="no"?>
<!DOCTYPE svg PUBLIC "-//W3C//DTD SVG 1.1//EN"
 "http://www.w3.org/Graphics/SVG/1.1/DTD/svg11.dtd">
<!-- Generated by graphviz version 2.43.0 (0)
 -->
<!-- Title: cFSPlib.python_api_client.swagger_client.models.administration_platform_logic_body.AdministrationPlatformLogicBody.to_str Pages: 1 -->
<svg width="555pt" height="1596pt"
 viewBox="0.00 0.00 555.00 1596.00" xmlns="http://www.w3.org/2000/svg" xmlns:xlink="http://www.w3.org/1999/xlink">
<g id="graph0" class="graph" transform="scale(1 1) rotate(0) translate(4 1592)">
<title>cFSPlib.python_api_client.swagger_client.models.administration_platform_logic_body.AdministrationPlatformLogicBody.to_str</title>
<!-- Node1 -->
<g id="node1" class="node">
<title>Node1</title>
<g id="a_node1"><a xlink:title=" ">
<polygon fill="#bfbfbf" stroke="black" points="308,-768.5 308,-820.5 547,-820.5 547,-768.5 308,-768.5"/>
<text text-anchor="start" x="316" y="-808.5" font-family="Helvetica,sans-Serif" font-size="10.00">cFSPlib.python_api</text>
<text text-anchor="start" x="316" y="-797.5" font-family="Helvetica,sans-Serif" font-size="10.00">_client.swagger_client.models.administration</text>
<text text-anchor="start" x="316" y="-786.5" font-family="Helvetica,sans-Serif" font-size="10.00">_platform_logic_body.AdministrationPlatform</text>
<text text-anchor="middle" x="427.5" y="-775.5" font-family="Helvetica,sans-Serif" font-size="10.00">LogicBody.to_str</text>
</a>
</g>
</g>
<!-- Node2 -->
<g id="node2" class="node">
<title>Node2</title>
<g id="a_node2"><a xlink:href="classcFSPlib_1_1python__api__client_1_1swagger__client_1_1models_1_1administration__mantle__logi168f0a51d80725a08a224c580ca4eab6.html#ad1cb3f837b0fb7187e407e652faed88b" target="_top" xlink:title=" ">
<polygon fill="none" stroke="black" points="12.5,-1535.5 12.5,-1587.5 259.5,-1587.5 259.5,-1535.5 12.5,-1535.5"/>
<text text-anchor="start" x="20.5" y="-1575.5" font-family="Helvetica,sans-Serif" font-size="10.00">cFSPlib.python_api</text>
<text text-anchor="start" x="20.5" y="-1564.5" font-family="Helvetica,sans-Serif" font-size="10.00">_client.swagger_client.models.administration</text>
<text text-anchor="start" x="20.5" y="-1553.5" font-family="Helvetica,sans-Serif" font-size="10.00">_mantle_logic_body.AdministrationMantleLogic</text>
<text text-anchor="middle" x="136" y="-1542.5" font-family="Helvetica,sans-Serif" font-size="10.00">Body.__repr__</text>
</a>
</g>
</g>
<!-- Node1&#45;&gt;Node2 -->
<g id="edge1" class="edge">
<title>Node1&#45;&gt;Node2</title>
<path fill="none" stroke="midnightblue" d="M423.81,-830.71C413.2,-963.87 369.95,-1423.98 272,-1526.5 268.24,-1530.44 264.09,-1533.96 259.66,-1537.09"/>
<polygon fill="midnightblue" stroke="midnightblue" points="427.31,-830.87 424.6,-820.63 420.33,-830.32 427.31,-830.87"/>
</g>
<!-- Node3 -->
<g id="node3" class="node">
<title>Node3</title>
<g id="a_node3"><a xlink:href="classcFSPlib_1_1python__api__client_1_1swagger__client_1_1models_1_1administration__platform__lo7236faec3e459a8c5be8431e1b997ede.html#a0c9da310956fd3722898545877914406" target="_top" xlink:title=" ">
<polygon fill="none" stroke="black" points="16.5,-1464.5 16.5,-1516.5 255.5,-1516.5 255.5,-1464.5 16.5,-1464.5"/>
<text text-anchor="start" x="24.5" y="-1504.5" font-family="Helvetica,sans-Serif" font-size="10.00">cFSPlib.python_api</text>
<text text-anchor="start" x="24.5" y="-1493.5" font-family="Helvetica,sans-Serif" font-size="10.00">_client.swagger_client.models.administration</text>
<text text-anchor="start" x="24.5" y="-1482.5" font-family="Helvetica,sans-Serif" font-size="10.00">_platform_logic_body.AdministrationPlatform</text>
<text text-anchor="middle" x="136" y="-1471.5" font-family="Helvetica,sans-Serif" font-size="10.00">LogicBody.__repr__</text>
</a>
</g>
</g>
<!-- Node1&#45;&gt;Node3 -->
<g id="edge2" class="edge">
<title>Node1&#45;&gt;Node3</title>
<path fill="none" stroke="midnightblue" d="M422.88,-830.78C409.73,-955.38 360.56,-1363.18 272,-1454.5 267.1,-1459.55 261.58,-1463.92 255.64,-1467.69"/>
<polygon fill="midnightblue" stroke="midnightblue" points="426.38,-830.93 423.94,-820.62 419.42,-830.2 426.38,-830.93"/>
</g>
<!-- Node4 -->
<g id="node4" class="node">
<title>Node4</title>
<g id="a_node4"><a xlink:href="classcFSPlib_1_1python__api__client_1_1swagger__client_1_1models_1_1build__script_1_1BuildScript.html#a448bc85c025bf0489aec25faf4174ea4" target="_top" xlink:title=" ">
<polygon fill="none" stroke="black" points="40.5,-1404 40.5,-1445 231.5,-1445 231.5,-1404 40.5,-1404"/>
<text text-anchor="start" x="48.5" y="-1433" font-family="Helvetica,sans-Serif" font-size="10.00">cFSPlib.python_api</text>
<text text-anchor="start" x="48.5" y="-1422" font-family="Helvetica,sans-Serif" font-size="10.00">_client.swagger_client.models.build</text>
<text text-anchor="middle" x="136" y="-1411" font-family="Helvetica,sans-Serif" font-size="10.00">_script.BuildScript.__repr__</text>
</a>
</g>
</g>
<!-- Node1&#45;&gt;Node4 -->
<g id="edge3" class="edge">
<title>Node1&#45;&gt;Node4</title>
<path fill="none" stroke="midnightblue" d="M422.13,-830.72C407.25,-948 354.84,-1314.38 272,-1394.5 260.78,-1405.35 246.56,-1412.62 231.58,-1417.44"/>
<polygon fill="midnightblue" stroke="midnightblue" points="425.6,-831.16 423.37,-820.8 418.66,-830.29 425.6,-831.16"/>
</g>
<!-- Node5 -->
<g id="node5" class="node">
<title>Node5</title>
<g id="a_node5"><a xlink:href="classcFSPlib_1_1python__api__client_1_1swagger__client_1_1models_1_1cluster_1_1Cluster.html#a26f2701765ffcb35f33d5c7fbb539b27" target="_top" xlink:title=" ">
<polygon fill="none" stroke="black" points="34.5,-1344 34.5,-1385 237.5,-1385 237.5,-1344 34.5,-1344"/>
<text text-anchor="start" x="42.5" y="-1373" font-family="Helvetica,sans-Serif" font-size="10.00">cFSPlib.python_api</text>
<text text-anchor="start" x="42.5" y="-1362" font-family="Helvetica,sans-Serif" font-size="10.00">_client.swagger_client.models.cluster.</text>
<text text-anchor="middle" x="136" y="-1351" font-family="Helvetica,sans-Serif" font-size="10.00">Cluster.__repr__</text>
</a>
</g>
</g>
<!-- Node1&#45;&gt;Node5 -->
<g id="edge4" class="edge">
<title>Node1&#45;&gt;Node5</title>
<path fill="none" stroke="midnightblue" d="M421.02,-830.73C403.78,-940.08 347.22,-1263.67 272,-1334.5 262.21,-1343.72 250.25,-1350.34 237.52,-1355.06"/>
<polygon fill="midnightblue" stroke="midnightblue" points="424.49,-831.25 422.57,-820.83 417.57,-830.17 424.49,-831.25"/>
</g>
<!-- Node6 -->
<g id="node6" class="node">
<title>Node6</title>
<g id="a_node6"><a xlink:href="classcFSPlib_1_1python__api__client_1_1swagger__client_1_1models_1_1cluster__id__node__id__body_1_1ClusterIdNodeIdBody.html#ad0713dba776df60cac99179ebed01035" target="_top" xlink:title=" ">
<polygon fill="none" stroke="black" points="11,-1284 11,-1325 261,-1325 261,-1284 11,-1284"/>
<text text-anchor="start" x="19" y="-1313" font-family="Helvetica,sans-Serif" font-size="10.00">cFSPlib.python_api</text>
<text text-anchor="start" x="19" y="-1302" font-family="Helvetica,sans-Serif" font-size="10.00">_client.swagger_client.models.cluster</text>
<text text-anchor="middle" x="136" y="-1291" font-family="Helvetica,sans-Serif" font-size="10.00">_id_node_id_body.ClusterIdNodeIdBody.__repr__</text>
</a>
</g>
</g>
<!-- Node1&#45;&gt;Node6 -->
<g id="edge5" class="edge">
<title>Node1&#45;&gt;Node6</title>
<path fill="none" stroke="midnightblue" d="M426.31,-830.72C423.77,-920.37 404.13,-1154.09 272,-1274.5 268.18,-1277.98 264.06,-1281.08 259.7,-1283.85"/>
<polygon fill="midnightblue" stroke="midnightblue" points="429.82,-830.59 426.54,-820.51 422.82,-830.43 429.82,-830.59"/>
</g>
<!-- Node7 -->
<g id="node7" class="node">
<title>Node7</title>
<g id="a_node7"><a xlink:href="classcFSPlib_1_1python__api__client_1_1swagger__client_1_1models_1_1clusters__body_1_1ClustersBody.html#ab6646398021a76e42eb7c8be5af65128" target="_top" xlink:title=" ">
<polygon fill="none" stroke="black" points="33,-1224 33,-1265 239,-1265 239,-1224 33,-1224"/>
<text text-anchor="start" x="41" y="-1253" font-family="Helvetica,sans-Serif" font-size="10.00">cFSPlib.python_api</text>
<text text-anchor="start" x="41" y="-1242" font-family="Helvetica,sans-Serif" font-size="10.00">_client.swagger_client.models.clusters</text>
<text text-anchor="middle" x="136" y="-1231" font-family="Helvetica,sans-Serif" font-size="10.00">_body.ClustersBody.__repr__</text>
</a>
</g>
</g>
<!-- Node1&#45;&gt;Node7 -->
<g id="edge6" class="edge">
<title>Node1&#45;&gt;Node7</title>
<path fill="none" stroke="midnightblue" d="M424.37,-831C417.55,-912.89 389.13,-1112.08 272,-1214.5 262.51,-1222.8 251.24,-1228.95 239.31,-1233.5"/>
<polygon fill="midnightblue" stroke="midnightblue" points="427.89,-830.94 425.17,-820.7 420.91,-830.4 427.89,-830.94"/>
</g>
<!-- Node8 -->
<g id="node8" class="node">
<title>Node8</title>
<g id="a_node8"><a xlink:href="classcFSPlib_1_1python__api__client_1_1swagger__client_1_1models_1_1image_1_1Image.html#a0854b84137f933a93dc33082ff4131bf" target="_top" xlink:title=" ">
<polygon fill="none" stroke="black" points="35.5,-1164 35.5,-1205 236.5,-1205 236.5,-1164 35.5,-1164"/>
<text text-anchor="start" x="43.5" y="-1193" font-family="Helvetica,sans-Serif" font-size="10.00">cFSPlib.python_api</text>
<text text-anchor="start" x="43.5" y="-1182" font-family="Helvetica,sans-Serif" font-size="10.00">_client.swagger_client.models.image.</text>
<text text-anchor="middle" x="136" y="-1171" font-family="Helvetica,sans-Serif" font-size="10.00">Image.__repr__</text>
</a>
</g>
</g>
<!-- Node1&#45;&gt;Node8 -->
<g id="edge7" class="edge">
<title>Node1&#45;&gt;Node8</title>
<path fill="none" stroke="midnightblue" d="M421.91,-830.69C410.63,-903.83 374.57,-1069.5 272,-1154.5 261.74,-1163 249.58,-1169.23 236.84,-1173.77"/>
<polygon fill="midnightblue" stroke="midnightblue" points="425.4,-830.99 423.4,-820.59 418.48,-829.97 425.4,-830.99"/>
</g>
<!-- Node9 -->
<g id="node9" class="node">
<title>Node9</title>
<g id="a_node9"><a xlink:href="classcFSPlib_1_1python__api__client_1_1swagger__client_1_1models_1_1images__app__logic__body_1_1ImagesAppLogicBody.html#a99987314d45e9493c3c5ef061a1a0ab8" target="_top" xlink:title=" ">
<polygon fill="none" stroke="black" points="13,-1104 13,-1145 259,-1145 259,-1104 13,-1104"/>
<text text-anchor="start" x="21" y="-1133" font-family="Helvetica,sans-Serif" font-size="10.00">cFSPlib.python_api</text>
<text text-anchor="start" x="21" y="-1122" font-family="Helvetica,sans-Serif" font-size="10.00">_client.swagger_client.models.images</text>
<text text-anchor="middle" x="136" y="-1111" font-family="Helvetica,sans-Serif" font-size="10.00">_app_logic_body.ImagesAppLogicBody.__repr__</text>
</a>
</g>
</g>
<!-- Node1&#45;&gt;Node9 -->
<g id="edge8" class="edge">
<title>Node1&#45;&gt;Node9</title>
<path fill="none" stroke="midnightblue" d="M418.54,-830.56C402.52,-894.3 360.11,-1026.55 272,-1094.5 267.44,-1098.02 262.54,-1101.14 257.42,-1103.91"/>
<polygon fill="midnightblue" stroke="midnightblue" points="422.01,-831.12 420.98,-820.57 415.21,-829.46 422.01,-831.12"/>
</g>
<!-- Node10 -->
<g id="node10" class="node">
<title>Node10</title>
<g id="a_node10"><a xlink:href="classcFSPlib_1_1python__api__client_1_1swagger__client_1_1models_1_1images__body_1_1ImagesBody.html#a1ed669c0f3398e7cccdad49cc3d8e0d3" target="_top" xlink:title=" ">
<polygon fill="none" stroke="black" points="34.5,-1044 34.5,-1085 237.5,-1085 237.5,-1044 34.5,-1044"/>
<text text-anchor="start" x="42.5" y="-1073" font-family="Helvetica,sans-Serif" font-size="10.00">cFSPlib.python_api</text>
<text text-anchor="start" x="42.5" y="-1062" font-family="Helvetica,sans-Serif" font-size="10.00">_client.swagger_client.models.images</text>
<text text-anchor="middle" x="136" y="-1051" font-family="Helvetica,sans-Serif" font-size="10.00">_body.ImagesBody.__repr__</text>
</a>
</g>
</g>
<!-- Node1&#45;&gt;Node10 -->
<g id="edge9" class="edge">
<title>Node1&#45;&gt;Node10</title>
<path fill="none" stroke="midnightblue" d="M413.84,-830C392.95,-883.2 346.05,-982.88 272,-1034.5 261.66,-1041.71 249.88,-1047.22 237.69,-1051.43"/>
<polygon fill="midnightblue" stroke="midnightblue" points="417.12,-831.22 417.44,-820.63 410.58,-828.71 417.12,-831.22"/>
</g>
<!-- Node11 -->
<g id="node11" class="node">
<title>Node11</title>
<g id="a_node11"><a xlink:href="classcFSPlib_1_1python__api__client_1_1swagger__client_1_1models_1_1inline__response200_1_1InlineResponse200.html#ac6f8953ce29b06b760f67c873c66324c" target="_top" xlink:title=" ">
<polygon fill="none" stroke="black" points="24.5,-984 24.5,-1025 247.5,-1025 247.5,-984 24.5,-984"/>
<text text-anchor="start" x="32.5" y="-1013" font-family="Helvetica,sans-Serif" font-size="10.00">cFSPlib.python_api</text>
<text text-anchor="start" x="32.5" y="-1002" font-family="Helvetica,sans-Serif" font-size="10.00">_client.swagger_client.models.inline</text>
<text text-anchor="middle" x="136" y="-991" font-family="Helvetica,sans-Serif" font-size="10.00">_response200.InlineResponse200.__repr__</text>
</a>
</g>
</g>
<!-- Node1&#45;&gt;Node11 -->
<g id="edge10" class="edge">
<title>Node1&#45;&gt;Node11</title>
<path fill="none" stroke="midnightblue" d="M406.46,-829.25C380.75,-870.55 332.22,-938.4 272,-974.5 264.38,-979.07 256.14,-982.94 247.63,-986.23"/>
<polygon fill="midnightblue" stroke="midnightblue" points="409.51,-830.97 411.74,-820.61 403.54,-827.31 409.51,-830.97"/>
</g>
<!-- Node12 -->
<g id="node12" class="node">
<title>Node12</title>
<g id="a_node12"><a xlink:href="classcFSPlib_1_1python__api__client_1_1swagger__client_1_1models_1_1inline__response2001_1_1InlineResponse2001.html#a7b1813083bf541835b5c79d5f65312dc" target="_top" xlink:title=" ">
<polygon fill="none" stroke="black" points="18.5,-924 18.5,-965 253.5,-965 253.5,-924 18.5,-924"/>
<text text-anchor="start" x="26.5" y="-953" font-family="Helvetica,sans-Serif" font-size="10.00">cFSPlib.python_api</text>
<text text-anchor="start" x="26.5" y="-942" font-family="Helvetica,sans-Serif" font-size="10.00">_client.swagger_client.models.inline</text>
<text text-anchor="middle" x="136" y="-931" font-family="Helvetica,sans-Serif" font-size="10.00">_response2001.InlineResponse2001.__repr__</text>
</a>
</g>
</g>
<!-- Node1&#45;&gt;Node12 -->
<g id="edge11" class="edge">
<title>Node1&#45;&gt;Node12</title>
<path fill="none" stroke="midnightblue" d="M393,-827.74C363.55,-855.08 318.27,-892.74 272,-914.5 264.5,-918.02 256.58,-921.14 248.47,-923.9"/>
<polygon fill="midnightblue" stroke="midnightblue" points="395.63,-830.07 400.51,-820.67 390.83,-824.98 395.63,-830.07"/>
</g>
<!-- Node13 -->
<g id="node13" class="node">
<title>Node13</title>
<g id="a_node13"><a xlink:href="classcFSPlib_1_1python__api__client_1_1swagger__client_1_1models_1_1inline__response2002_1_1InlineResponse2002.html#adbbfec7280b1cf5175d44440b83419af" target="_top" xlink:title=" ">
<polygon fill="none" stroke="black" points="18.5,-864 18.5,-905 253.5,-905 253.5,-864 18.5,-864"/>
<text text-anchor="start" x="26.5" y="-893" font-family="Helvetica,sans-Serif" font-size="10.00">cFSPlib.python_api</text>
<text text-anchor="start" x="26.5" y="-882" font-family="Helvetica,sans-Serif" font-size="10.00">_client.swagger_client.models.inline</text>
<text text-anchor="middle" x="136" y="-871" font-family="Helvetica,sans-Serif" font-size="10.00">_response2002.InlineResponse2002.__repr__</text>
</a>
</g>
</g>
<!-- Node1&#45;&gt;Node13 -->
<g id="edge12" class="edge">
<title>Node1&#45;&gt;Node13</title>
<path fill="none" stroke="midnightblue" d="M356.17,-824.41C330.04,-834.83 299.96,-846.02 272,-854.5 260.86,-857.88 249.09,-861.06 237.34,-863.99"/>
<polygon fill="midnightblue" stroke="midnightblue" points="357.63,-827.59 365.6,-820.61 355.02,-821.1 357.63,-827.59"/>
</g>
<!-- Node14 -->
<g id="node14" class="node">
<title>Node14</title>
<g id="a_node14"><a xlink:href="classcFSPlib_1_1python__api__client_1_1swagger__client_1_1models_1_1inline__response2003_1_1InlineResponse2003.html#a8ca2bbd5a75f2000001047ad645e1b7f" target="_top" xlink:title=" ">
<polygon fill="none" stroke="black" points="18.5,-804 18.5,-845 253.5,-845 253.5,-804 18.5,-804"/>
<text text-anchor="start" x="26.5" y="-833" font-family="Helvetica,sans-Serif" font-size="10.00">cFSPlib.python_api</text>
<text text-anchor="start" x="26.5" y="-822" font-family="Helvetica,sans-Serif" font-size="10.00">_client.swagger_client.models.inline</text>
<text text-anchor="middle" x="136" y="-811" font-family="Helvetica,sans-Serif" font-size="10.00">_response2003.InlineResponse2003.__repr__</text>
</a>
</g>
</g>
<!-- Node1&#45;&gt;Node14 -->
<g id="edge13" class="edge">
<title>Node1&#45;&gt;Node14</title>
<path fill="none" stroke="midnightblue" d="M297.76,-807.84C283.04,-809.37 268.08,-810.92 253.53,-812.42"/>
<polygon fill="midnightblue" stroke="midnightblue" points="298.33,-811.3 307.91,-806.79 297.61,-804.34 298.33,-811.3"/>
</g>
<!-- Node15 -->
<g id="node15" class="node">
<title>Node15</title>
<g id="a_node15"><a xlink:href="classcFSPlib_1_1python__api__client_1_1swagger__client_1_1models_1_1inline__response2004_1_1InlineResponse2004.html#a438928711d368ae2dfb1f0dae503efd0" target="_top" xlink:title=" ">
<polygon fill="none" stroke="black" points="18.5,-744 18.5,-785 253.5,-785 253.5,-744 18.5,-744"/>
<text text-anchor="start" x="26.5" y="-773" font-family="Helvetica,sans-Serif" font-size="10.00">cFSPlib.python_api</text>
<text text-anchor="start" x="26.5" y="-762" font-family="Helvetica,sans-Serif" font-size="10.00">_client.swagger_client.models.inline</text>
<text text-anchor="middle" x="136" y="-751" font-family="Helvetica,sans-Serif" font-size="10.00">_response2004.InlineResponse2004.__repr__</text>
</a>
</g>
</g>
<!-- Node1&#45;&gt;Node15 -->
<g id="edge14" class="edge">
<title>Node1&#45;&gt;Node15</title>
<path fill="none" stroke="midnightblue" d="M297.76,-781.16C283.04,-779.63 268.08,-778.08 253.53,-776.58"/>
<polygon fill="midnightblue" stroke="midnightblue" points="297.61,-784.66 307.91,-782.21 298.33,-777.7 297.61,-784.66"/>
</g>
<!-- Node16 -->
<g id="node16" class="node">
<title>Node16</title>
<g id="a_node16"><a xlink:href="classcFSPlib_1_1python__api__client_1_1swagger__client_1_1models_1_1inline__response2005_1_1InlineResponse2005.html#a68342538baeb453cad9a2f378281c710" target="_top" xlink:title=" ">
<polygon fill="none" stroke="black" points="18.5,-684 18.5,-725 253.5,-725 253.5,-684 18.5,-684"/>
<text text-anchor="start" x="26.5" y="-713" font-family="Helvetica,sans-Serif" font-size="10.00">cFSPlib.python_api</text>
<text text-anchor="start" x="26.5" y="-702" font-family="Helvetica,sans-Serif" font-size="10.00">_client.swagger_client.models.inline</text>
<text text-anchor="middle" x="136" y="-691" font-family="Helvetica,sans-Serif" font-size="10.00">_response2005.InlineResponse2005.__repr__</text>
</a>
</g>
</g>
<!-- Node1&#45;&gt;Node16 -->
<g id="edge15" class="edge">
<title>Node1&#45;&gt;Node16</title>
<path fill="none" stroke="midnightblue" d="M356.17,-764.59C330.04,-754.17 299.96,-742.98 272,-734.5 260.86,-731.12 249.09,-727.94 237.34,-725.01"/>
<polygon fill="midnightblue" stroke="midnightblue" points="355.02,-767.9 365.6,-768.39 357.63,-761.41 355.02,-767.9"/>
</g>
<!-- Node17 -->
<g id="node17" class="node">
<title>Node17</title>
<g id="a_node17"><a xlink:href="classcFSPlib_1_1python__api__client_1_1swagger__client_1_1models_1_1inline__response2006_1_1InlineResponse2006.html#a39ebc73abe63b92a0b0c794877a99da4" target="_top" xlink:title=" ">
<polygon fill="none" stroke="black" points="18.5,-624 18.5,-665 253.5,-665 253.5,-624 18.5,-624"/>
<text text-anchor="start" x="26.5" y="-653" font-family="Helvetica,sans-Serif" font-size="10.00">cFSPlib.python_api</text>
<text text-anchor="start" x="26.5" y="-642" font-family="Helvetica,sans-Serif" font-size="10.00">_client.swagger_client.models.inline</text>
<text text-anchor="middle" x="136" y="-631" font-family="Helvetica,sans-Serif" font-size="10.00">_response2006.InlineResponse2006.__repr__</text>
</a>
</g>
</g>
<!-- Node1&#45;&gt;Node17 -->
<g id="edge16" class="edge">
<title>Node1&#45;&gt;Node17</title>
<path fill="none" stroke="midnightblue" d="M393,-761.26C363.55,-733.92 318.27,-696.26 272,-674.5 264.5,-670.98 256.58,-667.86 248.47,-665.1"/>
<polygon fill="midnightblue" stroke="midnightblue" points="390.83,-764.02 400.51,-768.33 395.63,-758.93 390.83,-764.02"/>
</g>
<!-- Node18 -->
<g id="node18" class="node">
<title>Node18</title>
<g id="a_node18"><a xlink:href="classcFSPlib_1_1python__api__client_1_1swagger__client_1_1models_1_1instance_1_1Instance.html#a3018c78d992e6757c90626981cb0b194" target="_top" xlink:title=" ">
<polygon fill="none" stroke="black" points="30,-564 30,-605 242,-605 242,-564 30,-564"/>
<text text-anchor="start" x="38" y="-593" font-family="Helvetica,sans-Serif" font-size="10.00">cFSPlib.python_api</text>
<text text-anchor="start" x="38" y="-582" font-family="Helvetica,sans-Serif" font-size="10.00">_client.swagger_client.models.instance.</text>
<text text-anchor="middle" x="136" y="-571" font-family="Helvetica,sans-Serif" font-size="10.00">Instance.__repr__</text>
</a>
</g>
</g>
<!-- Node1&#45;&gt;Node18 -->
<g id="edge17" class="edge">
<title>Node1&#45;&gt;Node18</title>
<path fill="none" stroke="midnightblue" d="M406.46,-759.75C380.75,-718.45 332.22,-650.6 272,-614.5 262.73,-608.94 252.55,-604.42 242.07,-600.72"/>
<polygon fill="midnightblue" stroke="midnightblue" points="403.54,-761.69 411.74,-768.39 409.51,-758.03 403.54,-761.69"/>
</g>
<!-- Node19 -->
<g id="node19" class="node">
<title>Node19</title>
<g id="a_node19"><a xlink:href="classcFSPlib_1_1python__api__client_1_1swagger__client_1_1models_1_1instance__id__api__gateway__33456c8700113c53c3cfaa915ef28716.html#aa545f675e04b431f8123af8442cb69fd" target="_top" xlink:title=" ">
<polygon fill="none" stroke="black" points="16.5,-492.5 16.5,-544.5 255.5,-544.5 255.5,-492.5 16.5,-492.5"/>
<text text-anchor="start" x="24.5" y="-532.5" font-family="Helvetica,sans-Serif" font-size="10.00">cFSPlib.python_api</text>
<text text-anchor="start" x="24.5" y="-521.5" font-family="Helvetica,sans-Serif" font-size="10.00">_client.swagger_client.models.instance</text>
<text text-anchor="start" x="24.5" y="-510.5" font-family="Helvetica,sans-Serif" font-size="10.00">_id_api_gateway_body.InstanceIdApiGateway</text>
<text text-anchor="middle" x="136" y="-499.5" font-family="Helvetica,sans-Serif" font-size="10.00">Body.__repr__</text>
</a>
</g>
</g>
<!-- Node1&#45;&gt;Node19 -->
<g id="edge18" class="edge">
<title>Node1&#45;&gt;Node19</title>
<path fill="none" stroke="midnightblue" d="M413.4,-758.98C392.07,-706.17 344.77,-607.52 272,-554.5 266.9,-550.79 261.45,-547.45 255.76,-544.47"/>
<polygon fill="midnightblue" stroke="midnightblue" points="410.15,-760.27 417.08,-768.28 416.65,-757.7 410.15,-760.27"/>
</g>
<!-- Node20 -->
<g id="node20" class="node">
<title>Node20</title>
<g id="a_node20"><a xlink:href="classcFSPlib_1_1python__api__client_1_1swagger__client_1_1models_1_1instance__id__runlevel__body_1_1InstanceIdRunlevelBody.html#a9d0c64ef27367c164b9adb537680d771" target="_top" xlink:title=" ">
<polygon fill="none" stroke="black" points="3,-432 3,-473 269,-473 269,-432 3,-432"/>
<text text-anchor="start" x="11" y="-461" font-family="Helvetica,sans-Serif" font-size="10.00">cFSPlib.python_api</text>
<text text-anchor="start" x="11" y="-450" font-family="Helvetica,sans-Serif" font-size="10.00">_client.swagger_client.models.instance</text>
<text text-anchor="middle" x="136" y="-439" font-family="Helvetica,sans-Serif" font-size="10.00">_id_runlevel_body.InstanceIdRunlevelBody.__repr__</text>
</a>
</g>
</g>
<!-- Node1&#45;&gt;Node20 -->
<g id="edge19" class="edge">
<title>Node1&#45;&gt;Node20</title>
<path fill="none" stroke="midnightblue" d="M419.23,-758.6C404.04,-693.21 362.55,-554.9 272,-483.5 267,-479.55 261.58,-476.09 255.89,-473.06"/>
<polygon fill="midnightblue" stroke="midnightblue" points="415.83,-759.46 421.44,-768.44 422.66,-757.92 415.83,-759.46"/>
</g>
<!-- Node21 -->
<g id="node21" class="node">
<title>Node21</title>
<g id="a_node21"><a xlink:href="classcFSPlib_1_1python__api__client_1_1swagger__client_1_1models_1_1instances__body_1_1InstancesBody.html#a6b441c86aa1aa6f248f599b0a3a286b0" target="_top" xlink:title=" ">
<polygon fill="none" stroke="black" points="29,-372 29,-413 243,-413 243,-372 29,-372"/>
<text text-anchor="start" x="37" y="-401" font-family="Helvetica,sans-Serif" font-size="10.00">cFSPlib.python_api</text>
<text text-anchor="start" x="37" y="-390" font-family="Helvetica,sans-Serif" font-size="10.00">_client.swagger_client.models.instances</text>
<text text-anchor="middle" x="136" y="-379" font-family="Helvetica,sans-Serif" font-size="10.00">_body.InstancesBody.__repr__</text>
</a>
</g>
</g>
<!-- Node1&#45;&gt;Node21 -->
<g id="edge20" class="edge">
<title>Node1&#45;&gt;Node21</title>
<path fill="none" stroke="midnightblue" d="M422.44,-758.15C412.06,-683.15 377.42,-510.92 272,-422.5 263.45,-415.33 253.55,-409.77 243.07,-405.48"/>
<polygon fill="midnightblue" stroke="midnightblue" points="418.97,-758.61 423.75,-768.07 425.91,-757.69 418.97,-758.61"/>
</g>
<!-- Node22 -->
<g id="node22" class="node">
<title>Node22</title>
<g id="a_node22"><a xlink:href="classcFSPlib_1_1python__api__client_1_1swagger__client_1_1models_1_1instances__instance__id__body_1_1InstancesInstanceIdBody.html#ad0be600fabc59f43e5649cbbd09ea8fa" target="_top" xlink:title=" ">
<polygon fill="none" stroke="black" points="0,-312 0,-353 272,-353 272,-312 0,-312"/>
<text text-anchor="start" x="8" y="-341" font-family="Helvetica,sans-Serif" font-size="10.00">cFSPlib.python_api</text>
<text text-anchor="start" x="8" y="-330" font-family="Helvetica,sans-Serif" font-size="10.00">_client.swagger_client.models.instances</text>
<text text-anchor="middle" x="136" y="-319" font-family="Helvetica,sans-Serif" font-size="10.00">_instance_id_body.InstancesInstanceIdBody.__repr__</text>
</a>
</g>
</g>
<!-- Node1&#45;&gt;Node22 -->
<g id="edge21" class="edge">
<title>Node1&#45;&gt;Node22</title>
<path fill="none" stroke="midnightblue" d="M424.83,-758.4C418.93,-675.12 392.28,-468.63 272,-362.5 268.04,-359.01 263.76,-355.89 259.25,-353.11"/>
<polygon fill="midnightblue" stroke="midnightblue" points="421.34,-758.64 425.48,-768.39 428.32,-758.18 421.34,-758.64"/>
</g>
<!-- Node23 -->
<g id="node23" class="node">
<title>Node23</title>
<g id="a_node23"><a xlink:href="classcFSPlib_1_1python__api__client_1_1swagger__client_1_1models_1_1node__map_1_1NodeMap.html#af7c968e6ab103154dd247b9dbca76974" target="_top" xlink:title=" ">
<polygon fill="none" stroke="black" points="40.5,-252 40.5,-293 231.5,-293 231.5,-252 40.5,-252"/>
<text text-anchor="start" x="48.5" y="-281" font-family="Helvetica,sans-Serif" font-size="10.00">cFSPlib.python_api</text>
<text text-anchor="start" x="48.5" y="-270" font-family="Helvetica,sans-Serif" font-size="10.00">_client.swagger_client.models.node</text>
<text text-anchor="middle" x="136" y="-259" font-family="Helvetica,sans-Serif" font-size="10.00">_map.NodeMap.__repr__</text>
</a>
</g>
</g>
<!-- Node1&#45;&gt;Node23 -->
<g id="edge22" class="edge">
<title>Node1&#45;&gt;Node23</title>
<path fill="none" stroke="midnightblue" d="M426.64,-758.33C424.93,-667.18 407.14,-426.54 272,-302.5 260.68,-292.11 246.58,-285.04 231.8,-280.28"/>
<polygon fill="midnightblue" stroke="midnightblue" points="423.15,-758.48 426.78,-768.43 430.14,-758.39 423.15,-758.48"/>
</g>
<!-- Node24 -->
<g id="node24" class="node">
<title>Node24</title>
<g id="a_node24"><a xlink:href="classcFSPlib_1_1python__api__client_1_1swagger__client_1_1models_1_1node__map__inner_1_1NodeMapInner.html#a587604c99266c82720ed89c2c61ffe2a" target="_top" xlink:title=" ">
<polygon fill="none" stroke="black" points="40.5,-192 40.5,-233 231.5,-233 231.5,-192 40.5,-192"/>
<text text-anchor="start" x="48.5" y="-221" font-family="Helvetica,sans-Serif" font-size="10.00">cFSPlib.python_api</text>
<text text-anchor="start" x="48.5" y="-210" font-family="Helvetica,sans-Serif" font-size="10.00">_client.swagger_client.models.node</text>
<text text-anchor="middle" x="136" y="-199" font-family="Helvetica,sans-Serif" font-size="10.00">_map_inner.NodeMapInner.__repr__</text>
</a>
</g>
</g>
<!-- Node1&#45;&gt;Node24 -->
<g id="edge23" class="edge">
<title>Node1&#45;&gt;Node24</title>
<path fill="none" stroke="midnightblue" d="M421.26,-758.24C404.49,-647.24 348.73,-315.18 272,-242.5 260.76,-231.85 246.61,-224.66 231.73,-219.87"/>
<polygon fill="midnightblue" stroke="midnightblue" points="417.82,-758.9 422.76,-768.28 424.74,-757.87 417.82,-758.9"/>
</g>
<!-- Node25 -->
<g id="node25" class="node">
<title>Node25</title>
<g id="a_node25"><a xlink:href="classcFSPlib_1_1python__api__client_1_1swagger__client_1_1models_1_1quota_1_1Quota.html#ad43824f75dab80cd5638590e1a92dd78" target="_top" xlink:title=" ">
<polygon fill="none" stroke="black" points="37,-132 37,-173 235,-173 235,-132 37,-132"/>
<text text-anchor="start" x="45" y="-161" font-family="Helvetica,sans-Serif" font-size="10.00">cFSPlib.python_api</text>
<text text-anchor="start" x="45" y="-150" font-family="Helvetica,sans-Serif" font-size="10.00">_client.swagger_client.models.quota.</text>
<text text-anchor="middle" x="136" y="-139" font-family="Helvetica,sans-Serif" font-size="10.00">Quota.__repr__</text>
</a>
</g>
</g>
<!-- Node1&#45;&gt;Node25 -->
<g id="edge24" class="edge">
<title>Node1&#45;&gt;Node25</title>
<path fill="none" stroke="midnightblue" d="M422.33,-758.37C407.92,-639.65 356.39,-264.51 272,-182.5 261.67,-172.46 248.76,-165.48 235.06,-160.67"/>
<polygon fill="midnightblue" stroke="midnightblue" points="418.87,-758.89 423.54,-768.4 425.82,-758.06 418.87,-758.89"/>
</g>
<!-- Node26 -->
<g id="node26" class="node">
<title>Node26</title>
<g id="a_node26"><a xlink:href="classcFSPlib_1_1python__api__client_1_1swagger__client_1_1models_1_1resource_1_1Resource.html#ae6c97465f736f8b4d119f4e7986429d9" target="_top" xlink:title=" ">
<polygon fill="none" stroke="black" points="30,-72 30,-113 242,-113 242,-72 30,-72"/>
<text text-anchor="start" x="38" y="-101" font-family="Helvetica,sans-Serif" font-size="10.00">cFSPlib.python_api</text>
<text text-anchor="start" x="38" y="-90" font-family="Helvetica,sans-Serif" font-size="10.00">_client.swagger_client.models.resource.</text>
<text text-anchor="middle" x="136" y="-79" font-family="Helvetica,sans-Serif" font-size="10.00">Resource.__repr__</text>
</a>
</g>
</g>
<!-- Node1&#45;&gt;Node26 -->
<g id="edge25" class="edge">
<title>Node1&#45;&gt;Node26</title>
<path fill="none" stroke="midnightblue" d="M423.16,-757.86C410.86,-631.07 363.94,-213.77 272,-122.5 263.48,-114.04 253.14,-107.74 242.01,-103.08"/>
<polygon fill="midnightblue" stroke="midnightblue" points="419.71,-758.57 424.15,-768.19 426.68,-757.9 419.71,-758.57"/>
</g>
<!-- Node27 -->
<g id="node27" class="node">
<title>Node27</title>
<g id="a_node27"><a xlink:href="classcFSPlib_1_1python__api__client_1_1swagger__client_1_1models_1_1test__instance__instance__idb21fef29c350bd01bc51bf6a97dd8668.html#af4ecdf849e2718aec0c18c3f5c2aae42" target="_top" xlink:title=" ">
<polygon fill="none" stroke="black" points="28.5,-0.5 28.5,-52.5 243.5,-52.5 243.5,-0.5 28.5,-0.5"/>
<text text-anchor="start" x="36.5" y="-40.5" font-family="Helvetica,sans-Serif" font-size="10.00">cFSPlib.python_api</text>
<text text-anchor="start" x="36.5" y="-29.5" font-family="Helvetica,sans-Serif" font-size="10.00">_client.swagger_client.models.test</text>
<text text-anchor="start" x="36.5" y="-18.5" font-family="Helvetica,sans-Serif" font-size="10.00">_instance_instance_id_body.TestInstance</text>
<text text-anchor="middle" x="136" y="-7.5" font-family="Helvetica,sans-Serif" font-size="10.00">InstanceIdBody.__repr__</text>
</a>
</g>
</g>
<!-- Node1&#45;&gt;Node27 -->
<g id="edge26" class="edge">
<title>Node1&#45;&gt;Node27</title>
<path fill="none" stroke="midnightblue" d="M423.79,-758.31C413.1,-625.23 369.59,-165.36 272,-62.5 263.99,-54.05 254.23,-47.51 243.67,-42.45"/>
<polygon fill="midnightblue" stroke="midnightblue" points="420.31,-758.7 424.59,-768.39 427.29,-758.14 420.31,-758.7"/>
</g>
</g>
</svg>
