<?xml version="1.0" encoding="UTF-8" standalone="no"?>
<!DOCTYPE svg PUBLIC "-//W3C//DTD SVG 1.1//EN"
 "http://www.w3.org/Graphics/SVG/1.1/DTD/svg11.dtd">
<!-- Generated by graphviz version 2.43.0 (0)
 -->
<!-- Title: ExtendedEvent Pages: 1 -->
<svg width="161pt" height="173pt"
 viewBox="0.00 0.00 160.50 173.00" xmlns="http://www.w3.org/2000/svg" xmlns:xlink="http://www.w3.org/1999/xlink">
<g id="graph0" class="graph" transform="scale(1 1) rotate(0) translate(4 169)">
<title>ExtendedEvent</title>
<!-- Node1 -->
<g id="node1" class="node">
<title>Node1</title>
<g id="a_node1"><a xlink:title=" ">
<polygon fill="#bfbfbf" stroke="black" points="0,-0.5 0,-19.5 90,-19.5 90,-0.5 0,-0.5"/>
<text text-anchor="middle" x="45" y="-7.5" font-family="Helvetica,sans-Serif" font-size="10.00">ExtendedEvent</text>
</a>
</g>
</g>
<!-- Node2 -->
<g id="node2" class="node">
<title>Node2</title>
<g id="a_node2"><a xlink:href="classEvent.html" target="_top" xlink:title=" ">
<polygon fill="none" stroke="black" points="7,-67.5 7,-86.5 51,-86.5 51,-67.5 7,-67.5"/>
<text text-anchor="middle" x="29" y="-74.5" font-family="Helvetica,sans-Serif" font-size="10.00">Event</text>
</a>
</g>
</g>
<!-- Node2&#45;&gt;Node1 -->
<g id="edge1" class="edge">
<title>Node2&#45;&gt;Node1</title>
<path fill="none" stroke="midnightblue" d="M33.57,-57.41C36.63,-44.99 40.52,-29.22 42.88,-19.63"/>
<polygon fill="midnightblue" stroke="midnightblue" points="30.15,-56.69 31.16,-67.23 36.95,-58.36 30.15,-56.69"/>
</g>
<!-- Node3 -->
<g id="node3" class="node">
<title>Node3</title>
<g id="a_node3"><a xlink:href="classLE__SocketPair.html" target="_top" xlink:title=" ">
<polygon fill="none" stroke="black" points="69.5,-67.5 69.5,-86.5 152.5,-86.5 152.5,-67.5 69.5,-67.5"/>
<text text-anchor="middle" x="111" y="-74.5" font-family="Helvetica,sans-Serif" font-size="10.00">LE_SocketPair</text>
</a>
</g>
</g>
<!-- Node3&#45;&gt;Node1 -->
<g id="edge2" class="edge">
<title>Node3&#45;&gt;Node1</title>
<path fill="none" stroke="#9a32cd" stroke-dasharray="5,2" d="M94.75,-60C81.81,-47.25 64.19,-29.89 53.76,-19.63"/>
<polygon fill="#9a32cd" stroke="#9a32cd" points="92.52,-62.71 102.1,-67.23 97.43,-57.72 92.52,-62.71"/>
<text text-anchor="middle" x="95" y="-41" font-family="Helvetica,sans-Serif" font-size="10.00"> tuple</text>
</g>
<!-- Node4 -->
<g id="node4" class="node">
<title>Node4</title>
<g id="a_node4"><a xlink:href="classLE__SockAddr.html" target="_top" xlink:title=" ">
<polygon fill="none" stroke="black" points="71.5,-145.5 71.5,-164.5 150.5,-164.5 150.5,-145.5 71.5,-145.5"/>
<text text-anchor="middle" x="111" y="-152.5" font-family="Helvetica,sans-Serif" font-size="10.00">LE_SockAddr</text>
</a>
</g>
</g>
<!-- Node4&#45;&gt;Node3 -->
<g id="edge3" class="edge">
<title>Node4&#45;&gt;Node3</title>
<path fill="none" stroke="#9a32cd" stroke-dasharray="5,2" d="M111,-135.22C111,-119.7 111,-98.36 111,-86.62"/>
<polygon fill="#9a32cd" stroke="#9a32cd" points="107.5,-135.28 111,-145.28 114.5,-135.28 107.5,-135.28"/>
<text text-anchor="middle" x="120.5" y="-119" font-family="Helvetica,sans-Serif" font-size="10.00"> dst</text>
<text text-anchor="middle" x="120.5" y="-108" font-family="Helvetica,sans-Serif" font-size="10.00">src</text>
</g>
</g>
</svg>
