<?xml version="1.0" encoding="UTF-8" standalone="no"?>
<!DOCTYPE svg PUBLIC "-//W3C//DTD SVG 1.1//EN"
 "http://www.w3.org/Graphics/SVG/1.1/DTD/svg11.dtd">
<!-- Generated by graphviz version 2.43.0 (0)
 -->
<!-- Title: SimUdpDatagram::setUdpDestinationPort Pages: 1 -->
<svg width="457pt" height="47pt"
 viewBox="0.00 0.00 457.00 47.00" xmlns="http://www.w3.org/2000/svg" xmlns:xlink="http://www.w3.org/1999/xlink">
<g id="graph0" class="graph" transform="scale(1 1) rotate(0) translate(4 43)">
<title>SimUdpDatagram::setUdpDestinationPort</title>
<!-- Node1 -->
<g id="node1" class="node">
<title>Node1</title>
<g id="a_node1"><a xlink:title=" ">
<polygon fill="#bfbfbf" stroke="black" points="229,-0.5 229,-19.5 449,-19.5 449,-0.5 229,-0.5"/>
<text text-anchor="middle" x="339" y="-7.5" font-family="Helvetica,sans-Serif" font-size="10.00">SimUdpDatagram::setUdpDestinationPort</text>
</a>
</g>
</g>
<!-- Node2 -->
<g id="node2" class="node">
<title>Node2</title>
<g id="a_node2"><a xlink:href="group__NTS__UOE__TEST.html#ga0aea8acea94e854cc4f5d8a5b2bb6809" target="_top" xlink:title="Create the golden IPTX reference file from an input UAIF test file.">
<polygon fill="none" stroke="black" points="77,-19.5 77,-38.5 193,-38.5 193,-19.5 77,-19.5"/>
<text text-anchor="middle" x="135" y="-26.5" font-family="Helvetica,sans-Serif" font-size="10.00">createGoldenTxFiles</text>
</a>
</g>
</g>
<!-- Node1&#45;&gt;Node2 -->
<g id="edge1" class="edge">
<title>Node1&#45;&gt;Node2</title>
<path fill="none" stroke="midnightblue" d="M226.55,-20.48C215.03,-21.57 203.7,-22.63 193.16,-23.62"/>
<polygon fill="midnightblue" stroke="midnightblue" points="227.08,-23.95 236.7,-19.53 226.42,-16.98 227.08,-23.95"/>
</g>
<!-- Node3 -->
<g id="node3" class="node">
<title>Node3</title>
<g id="a_node3"><a xlink:href="group__NTS__UOE__TEST.html#ga0ddf1224851353fc92bfbff6f499fa97" target="_top" xlink:title="Main function.">
<polygon fill="none" stroke="black" points="0,-0.5 0,-19.5 41,-19.5 41,-0.5 0,-0.5"/>
<text text-anchor="middle" x="20.5" y="-7.5" font-family="Helvetica,sans-Serif" font-size="10.00">main</text>
</a>
</g>
</g>
<!-- Node1&#45;&gt;Node3 -->
<g id="edge3" class="edge">
<title>Node1&#45;&gt;Node3</title>
<path fill="none" stroke="midnightblue" d="M218.49,-10C152.1,-10 76.02,-10 41,-10"/>
<polygon fill="midnightblue" stroke="midnightblue" points="218.64,-13.5 228.64,-10 218.64,-6.5 218.64,-13.5"/>
</g>
<!-- Node2&#45;&gt;Node3 -->
<g id="edge2" class="edge">
<title>Node2&#45;&gt;Node3</title>
<path fill="none" stroke="midnightblue" d="M67.4,-17.75C57.88,-16.14 48.77,-14.61 41.22,-13.33"/>
<polygon fill="midnightblue" stroke="midnightblue" points="66.98,-21.23 77.42,-19.44 68.14,-14.33 66.98,-21.23"/>
</g>
</g>
</svg>
