<?xml version="1.0" encoding="UTF-8" standalone="no"?>
<!DOCTYPE svg PUBLIC "-//W3C//DTD SVG 1.1//EN"
 "http://www.w3.org/Graphics/SVG/1.1/DTD/svg11.dtd">
<!-- Generated by graphviz version 2.43.0 (0)
 -->
<!-- Title: SimUdpDatagram::writePayloadToDatFile Pages: 1 -->
<!--zoomable 142 -->
<svg id="main" version="1.1" xmlns="http://www.w3.org/2000/svg" xmlns:xlink="http://www.w3.org/1999/xlink" xml:space="preserve" onload="init(evt)">
<style type="text/css"><![CDATA[
.edge:hover path { stroke: red; }
.edge:hover polygon { stroke: red; fill: red; }
]]></style>
<script type="text/javascript"><![CDATA[
var edges = document.getElementsByTagName('g');
if (edges && edges.length) {
  for (var i=0;i<edges.length;i++) {
    if (edges[i].id.substr(0,4)=='edge') {
      edges[i].setAttribute('class','edge');
    }
  }
}
]]></script>
        <defs>
                <circle id="rim" cx="0" cy="0" r="7"/>
                <circle id="rim2" cx="0" cy="0" r="3.5"/>
                <g id="zoomPlus">
                        <use xlink:href="#rim" fill="#404040">
                                <set attributeName="fill" to="#808080" begin="zoomplus.mouseover" end="zoomplus.mouseout"/>
                        </use>
                        <path d="M-4,0h8M0,-4v8" fill="none" stroke="white" stroke-width="1.5" pointer-events="none"/>
                </g>
                <g id="zoomMin">
                        <use xlink:href="#rim" fill="#404040">
                                <set attributeName="fill" to="#808080" begin="zoomminus.mouseover" end="zoomminus.mouseout"/>
                        </use>
                        <path d="M-4,0h8" fill="none" stroke="white" stroke-width="1.5" pointer-events="none"/>
                </g>
                <g id="dirArrow">
                        <path fill="none" stroke="white" stroke-width="1.5" d="M0,-3.0v7 M-2.5,-0.5L0,-3.0L2.5,-0.5"/>
                </g>
               <g id="resetDef">
                       <use xlink:href="#rim2" fill="#404040">
                               <set attributeName="fill" to="#808080" begin="reset.mouseover" end="reset.mouseout"/>
                       </use>
               </g>
        </defs>

<script type="text/javascript">
var viewWidth = 840;
var viewHeight = 142;
var sectionId = 'dynsection-27';
</script>
<script xlink:href="svgpan.js"/>
<svg id="graph" class="graph">
<g id="viewport">
<title>SimUdpDatagram::writePayloadToDatFile</title>
<!-- Node1 -->
<g id="node1" class="node">
<title>Node1</title>
<g id="a_node1"><a xlink:title="Dump the payload of this datagram as AxisUdp chunks into a file.">
<polygon fill="#bfbfbf" stroke="black" points="0,-74 0,-104 173,-104 173,-74 0,-74"/>
<text text-anchor="start" x="8" y="-92" font-family="Helvetica,sans-Serif" font-size="10.00">SimUdpDatagram::writePayload</text>
<text text-anchor="middle" x="86.5" y="-81" font-family="Helvetica,sans-Serif" font-size="10.00">ToDatFile</text>
</a>
</g>
</g>
<!-- Node2 -->
<g id="node2" class="node">
<title>Node2</title>
<g id="a_node2"><a xlink:href="classSimUdpDatagram.html#a5cc83610935341408f23d7a5b431d3e8" target="_top" xlink:title=" ">
<polygon fill="none" stroke="black" points="222,-101.5 222,-120.5 351,-120.5 351,-101.5 222,-101.5"/>
<text text-anchor="middle" x="286.5" y="-108.5" font-family="Helvetica,sans-Serif" font-size="10.00">SimUdpDatagram::size</text>
</a>
</g>
</g>
<!-- Node1&#45;&gt;Node2 -->
<g id="edge1" class="edge">
<title>Node1&#45;&gt;Node2</title>
<path fill="none" stroke="midnightblue" d="M173.19,-98.52C186.06,-99.95 199.23,-101.41 211.82,-102.81"/>
<polygon fill="midnightblue" stroke="midnightblue" points="211.44,-106.29 221.77,-103.92 212.21,-99.34 211.44,-106.29"/>
</g>
<!-- Node3 -->
<g id="node3" class="node">
<title>Node3</title>
<g id="a_node3"><a xlink:href="classSimUdpDatagram.html#a683cd40a7c6616640250a9e20e470f7a" target="_top" xlink:title="Dump an AxisUdp chunk to a file.">
<polygon fill="none" stroke="black" points="209,-52 209,-82 364,-82 364,-52 209,-52"/>
<text text-anchor="start" x="217" y="-70" font-family="Helvetica,sans-Serif" font-size="10.00">SimUdpDatagram::writeAxis</text>
<text text-anchor="middle" x="286.5" y="-59" font-family="Helvetica,sans-Serif" font-size="10.00">UdpToFile</text>
</a>
</g>
</g>
<!-- Node1&#45;&gt;Node3 -->
<g id="edge2" class="edge">
<title>Node1&#45;&gt;Node3</title>
<path fill="none" stroke="midnightblue" d="M173.19,-79.48C181.59,-78.55 190.12,-77.6 198.53,-76.66"/>
<polygon fill="midnightblue" stroke="midnightblue" points="199.16,-80.12 208.71,-75.53 198.38,-73.16 199.16,-80.12"/>
</g>
<!-- Node4 -->
<g id="node4" class="node">
<title>Node4</title>
<g id="a_node4"><a xlink:href="classAxisRaw.html#a7034bcf8cf143fb2bb9bfc46e70a7d6b" target="_top" xlink:title=" ">
<polygon fill="none" stroke="black" points="547.5,-114.5 547.5,-133.5 672.5,-133.5 672.5,-114.5 547.5,-114.5"/>
<text text-anchor="middle" x="610" y="-121.5" font-family="Helvetica,sans-Serif" font-size="10.00">AxisRaw::getLE_TData</text>
</a>
</g>
</g>
<!-- Node3&#45;&gt;Node4 -->
<g id="edge3" class="edge">
<title>Node3&#45;&gt;Node4</title>
<path fill="none" stroke="midnightblue" d="M358.83,-82.04C372.48,-84.78 386.67,-87.55 400,-90 445.5,-98.35 496.77,-106.7 537.14,-113.04"/>
<polygon fill="midnightblue" stroke="midnightblue" points="536.74,-116.52 547.16,-114.61 537.82,-109.61 536.74,-116.52"/>
</g>
<!-- Node5 -->
<g id="node5" class="node">
<title>Node5</title>
<g id="a_node5"><a xlink:href="classAxisRaw.html#a4becd0ad3c51e3db2749e888f2f72e31" target="_top" xlink:title=" ">
<polygon fill="none" stroke="black" points="547,-76.5 547,-95.5 673,-95.5 673,-76.5 547,-76.5"/>
<text text-anchor="middle" x="610" y="-83.5" font-family="Helvetica,sans-Serif" font-size="10.00">AxisRaw::getLE_TKeep</text>
</a>
</g>
</g>
<!-- Node3&#45;&gt;Node5 -->
<g id="edge4" class="edge">
<title>Node3&#45;&gt;Node5</title>
<path fill="none" stroke="midnightblue" d="M364.1,-71.53C416.51,-74.62 485.54,-78.7 536.95,-81.74"/>
<polygon fill="midnightblue" stroke="midnightblue" points="536.8,-85.24 546.99,-82.34 537.21,-78.25 536.8,-85.24"/>
</g>
<!-- Node6 -->
<g id="node6" class="node">
<title>Node6</title>
<g id="a_node6"><a xlink:href="classAxisRaw.html#af8208752dcbb14911c5fda27d90a0ef4" target="_top" xlink:title=" ">
<polygon fill="none" stroke="black" points="549,-0.5 549,-19.5 671,-19.5 671,-0.5 549,-0.5"/>
<text text-anchor="middle" x="610" y="-7.5" font-family="Helvetica,sans-Serif" font-size="10.00">AxisRaw::getLE_TLast</text>
</a>
</g>
</g>
<!-- Node3&#45;&gt;Node6 -->
<g id="edge5" class="edge">
<title>Node3&#45;&gt;Node6</title>
<path fill="none" stroke="midnightblue" d="M324.64,-52C346.28,-43.88 374.28,-34.43 400,-29 445.68,-19.35 497.99,-14.6 538.86,-12.26"/>
<polygon fill="midnightblue" stroke="midnightblue" points="539.19,-15.75 548.99,-11.72 538.81,-8.76 539.19,-15.75"/>
</g>
<!-- Node7 -->
<g id="node7" class="node">
<title>Node7</title>
<g id="a_node7"><a xlink:href="group__NTS__SIM.html#ga3fa45716710c0aeab2d9c48492828087" target="_top" xlink:title="Dump an Axis raw data chunk to a file.">
<polygon fill="none" stroke="black" points="400,-38.5 400,-57.5 511,-57.5 511,-38.5 400,-38.5"/>
<text text-anchor="middle" x="455.5" y="-45.5" font-family="Helvetica,sans-Serif" font-size="10.00">writeAxisRawToFile</text>
</a>
</g>
</g>
<!-- Node3&#45;&gt;Node7 -->
<g id="edge6" class="edge">
<title>Node3&#45;&gt;Node7</title>
<path fill="none" stroke="midnightblue" d="M364.16,-58.28C372.69,-57.31 381.32,-56.33 389.69,-55.37"/>
<polygon fill="midnightblue" stroke="midnightblue" points="390.2,-58.84 399.74,-54.23 389.41,-51.88 390.2,-58.84"/>
</g>
<!-- Node7&#45;&gt;Node4 -->
<g id="edge7" class="edge">
<title>Node7&#45;&gt;Node4</title>
<path fill="none" stroke="midnightblue" d="M469.37,-57.65C486.37,-70.04 517.63,-91.54 547,-105 551.93,-107.26 557.19,-109.34 562.49,-111.23"/>
<polygon fill="midnightblue" stroke="midnightblue" points="561.42,-114.56 572.01,-114.42 563.64,-107.92 561.42,-114.56"/>
</g>
<!-- Node7&#45;&gt;Node5 -->
<g id="edge8" class="edge">
<title>Node7&#45;&gt;Node5</title>
<path fill="none" stroke="midnightblue" d="M494.98,-57.59C515.02,-62.58 539.7,-68.73 560.98,-74.03"/>
<polygon fill="midnightblue" stroke="midnightblue" points="560.24,-77.46 570.79,-76.48 561.94,-70.67 560.24,-77.46"/>
</g>
<!-- Node7&#45;&gt;Node6 -->
<g id="edge9" class="edge">
<title>Node7&#45;&gt;Node6</title>
<path fill="none" stroke="midnightblue" d="M494.98,-38.41C515.02,-33.42 539.7,-27.27 560.98,-21.97"/>
<polygon fill="midnightblue" stroke="midnightblue" points="561.94,-25.33 570.79,-19.52 560.24,-18.54 561.94,-25.33"/>
</g>
<!-- Node8 -->
<g id="node8" class="node">
<title>Node8</title>
<g id="a_node8"><a xlink:href="group__UppercaseHLS.html#gae061e0acc4f8984634689d549fdae11b" target="_top" xlink:title="Main process of the Uppercase Application directives.">
<polygon fill="none" stroke="black" points="576.5,-38.5 576.5,-57.5 643.5,-57.5 643.5,-38.5 576.5,-38.5"/>
<text text-anchor="middle" x="610" y="-45.5" font-family="Helvetica,sans-Serif" font-size="10.00">uppercase</text>
</a>
</g>
</g>
<!-- Node7&#45;&gt;Node8 -->
<g id="edge10" class="edge">
<title>Node7&#45;&gt;Node8</title>
<path fill="none" stroke="midnightblue" d="M511.13,-48C529.24,-48 549.14,-48 566.23,-48"/>
<polygon fill="midnightblue" stroke="midnightblue" points="566.47,-51.5 576.47,-48 566.47,-44.5 566.47,-51.5"/>
</g>
<!-- Node9 -->
<g id="node9" class="node">
<title>Node9</title>
<g id="a_node9"><a xlink:href="group__UppercaseHLS.html#ga033fd36668741325cf3c111416e82131" target="_top" xlink:title="pPortAndDestionation &#45; Setup the port and the destination rank.">
<polygon fill="none" stroke="black" points="709,-76.5 709,-95.5 832,-95.5 832,-76.5 709,-76.5"/>
<text text-anchor="middle" x="770.5" y="-83.5" font-family="Helvetica,sans-Serif" font-size="10.00">pPortAndDestionation</text>
</a>
</g>
</g>
<!-- Node8&#45;&gt;Node9 -->
<g id="edge11" class="edge">
<title>Node8&#45;&gt;Node9</title>
<path fill="none" stroke="midnightblue" d="M643.84,-55.87C665.76,-61.13 694.98,-68.14 719.74,-74.07"/>
<polygon fill="midnightblue" stroke="midnightblue" points="719.14,-77.53 729.68,-76.45 720.77,-70.72 719.14,-77.53"/>
</g>
<!-- Node10 -->
<g id="node10" class="node">
<title>Node10</title>
<g id="a_node10"><a xlink:href="group__UppercaseHLS.html#ga5241239d0335747a6f0ee418cbc7d5a9" target="_top" xlink:title="Receive Path &#45; From SHELL to THIS.">
<polygon fill="none" stroke="black" points="742,-38.5 742,-57.5 799,-57.5 799,-38.5 742,-38.5"/>
<text text-anchor="middle" x="770.5" y="-45.5" font-family="Helvetica,sans-Serif" font-size="10.00">pRXPath</text>
</a>
</g>
</g>
<!-- Node8&#45;&gt;Node10 -->
<g id="edge12" class="edge">
<title>Node8&#45;&gt;Node10</title>
<path fill="none" stroke="midnightblue" d="M643.84,-48C669.46,-48 705.06,-48 731.83,-48"/>
<polygon fill="midnightblue" stroke="midnightblue" points="731.98,-51.5 741.98,-48 731.98,-44.5 731.98,-51.5"/>
</g>
<!-- Node11 -->
<g id="node11" class="node">
<title>Node11</title>
<g id="a_node11"><a xlink:href="group__UppercaseHLS.html#ga6ac5a71b18876a813d752ff488f94c45" target="_top" xlink:title="Transmit Path &#45; From THIS to SHELL.">
<polygon fill="none" stroke="black" points="742.5,-0.5 742.5,-19.5 798.5,-19.5 798.5,-0.5 742.5,-0.5"/>
<text text-anchor="middle" x="770.5" y="-7.5" font-family="Helvetica,sans-Serif" font-size="10.00">pTXPath</text>
</a>
</g>
</g>
<!-- Node8&#45;&gt;Node11 -->
<g id="edge13" class="edge">
<title>Node8&#45;&gt;Node11</title>
<path fill="none" stroke="midnightblue" d="M643.84,-40.13C669.73,-33.92 705.82,-25.27 732.69,-18.83"/>
<polygon fill="midnightblue" stroke="midnightblue" points="733.58,-22.21 742.49,-16.48 731.95,-15.4 733.58,-22.21"/>
</g>
</g>
</svg>
        <g id="navigator" transform="translate(0 0)" fill="#404254">
                <rect fill="#f2f5e9" fill-opacity="0.5" stroke="#606060" stroke-width=".5" x="0" y="0" width="60" height="60"/>
                <use id="zoomplus" xlink:href="#zoomPlus" x="17" y="9" onmousedown="handleZoom(evt,'in')"/>
                <use id="zoomminus" xlink:href="#zoomMin" x="42" y="9" onmousedown="handleZoom(evt,'out')"/>
                <use id="reset" xlink:href="#resetDef" x="30" y="36" onmousedown="handleReset()"/>
                <g id="arrowUp" xlink:href="#dirArrow" transform="translate(30 24)" onmousedown="handlePan(0,-1)">
                  <use xlink:href="#rim" fill="#404040">
                        <set attributeName="fill" to="#808080" begin="arrowUp.mouseover" end="arrowUp.mouseout"/>
                  </use>
                  <path fill="none" stroke="white" stroke-width="1.5" d="M0,-3.0v7 M-2.5,-0.5L0,-3.0L2.5,-0.5"/>
                </g>
                <g id="arrowRight" xlink:href="#dirArrow" transform="rotate(90) translate(36 -43)" onmousedown="handlePan(1,0)">
                  <use xlink:href="#rim" fill="#404040">
                        <set attributeName="fill" to="#808080" begin="arrowRight.mouseover" end="arrowRight.mouseout"/>
                  </use>
                  <path fill="none" stroke="white" stroke-width="1.5" d="M0,-3.0v7 M-2.5,-0.5L0,-3.0L2.5,-0.5"/>
                </g>
                <g id="arrowDown" xlink:href="#dirArrow" transform="rotate(180) translate(-30 -48)" onmousedown="handlePan(0,1)">
                  <use xlink:href="#rim" fill="#404040">
                        <set attributeName="fill" to="#808080" begin="arrowDown.mouseover" end="arrowDown.mouseout"/>
                  </use>
                  <path fill="none" stroke="white" stroke-width="1.5" d="M0,-3.0v7 M-2.5,-0.5L0,-3.0L2.5,-0.5"/>
                </g>
                <g id="arrowLeft" xlink:href="#dirArrow" transform="rotate(270) translate(-36 17)" onmousedown="handlePan(-1,0)">
                  <use xlink:href="#rim" fill="#404040">
                        <set attributeName="fill" to="#808080" begin="arrowLeft.mouseover" end="arrowLeft.mouseout"/>
                  </use>
                  <path fill="none" stroke="white" stroke-width="1.5" d="M0,-3.0v7 M-2.5,-0.5L0,-3.0L2.5,-0.5"/>
                </g>
        </g>
        <svg viewBox="0 0 15 15" width="100%" height="30px" preserveAspectRatio="xMaxYMin meet">
         <g id="arrow_out" transform="scale(0.3 0.3)">
          <a xlink:href="classSimUdpDatagram_afd62cd4a99bab57e5c11597be65ba49b_cgraph_org.svg" target="_base">
           <rect id="button" ry="5" rx="5" y="6" x="6" height="38" width="38"
                fill="#f2f5e9" fill-opacity="0.5" stroke="#606060" stroke-width="1.0"/>
           <path id="arrow"
             d="M 11.500037,31.436501 C 11.940474,20.09759 22.043105,11.32322 32.158766,21.979434 L 37.068811,17.246167 C 37.068811,17.246167 37.088388,32 37.088388,32 L 22.160133,31.978069 C 22.160133,31.978069 26.997745,27.140456 26.997745,27.140456 C 18.528582,18.264221 13.291696,25.230495 11.500037,31.436501 z"
             style="fill:#404040;"/>
          </a>
         </g>
        </svg>
</svg>
