<?xml version="1.0" encoding="UTF-8" standalone="no"?>
<!DOCTYPE svg PUBLIC "-//W3C//DTD SVG 1.1//EN"
 "http://www.w3.org/Graphics/SVG/1.1/DTD/svg11.dtd">
<!-- Generated by graphviz version 2.43.0 (0)
 -->
<!-- Title: cFSPlib.python_api_client.swagger_client.api_client.ApiClient.request Pages: 1 -->
<svg width="380pt" height="470pt"
 viewBox="0.00 0.00 380.00 470.00" xmlns="http://www.w3.org/2000/svg" xmlns:xlink="http://www.w3.org/1999/xlink">
<g id="graph0" class="graph" transform="scale(1 1) rotate(0) translate(4 466)">
<title>cFSPlib.python_api_client.swagger_client.api_client.ApiClient.request</title>
<!-- Node1 -->
<g id="node1" class="node">
<title>Node1</title>
<g id="a_node1"><a xlink:title=" ">
<polygon fill="#bfbfbf" stroke="black" points="229,-210.5 229,-251.5 372,-251.5 372,-210.5 229,-210.5"/>
<text text-anchor="start" x="237" y="-239.5" font-family="Helvetica,sans-Serif" font-size="10.00">cFSPlib.python_api</text>
<text text-anchor="start" x="237" y="-228.5" font-family="Helvetica,sans-Serif" font-size="10.00">_client.swagger_client.api</text>
<text text-anchor="middle" x="300.5" y="-217.5" font-family="Helvetica,sans-Serif" font-size="10.00">_client.ApiClient.request</text>
</a>
</g>
</g>
<!-- Node2 -->
<g id="node2" class="node">
<title>Node2</title>
<g id="a_node2"><a xlink:href="classcFSPlib_1_1python__api__client_1_1swagger__client_1_1rest_1_1RESTClientObject.html#ab95ad980b9e8774c7c388464f5c575a8" target="_top" xlink:title=" ">
<polygon fill="none" stroke="black" points="21.5,-420.5 21.5,-461.5 171.5,-461.5 171.5,-420.5 21.5,-420.5"/>
<text text-anchor="start" x="29.5" y="-449.5" font-family="Helvetica,sans-Serif" font-size="10.00">cFSPlib.python_api</text>
<text text-anchor="start" x="29.5" y="-438.5" font-family="Helvetica,sans-Serif" font-size="10.00">_client.swagger_client.rest.</text>
<text text-anchor="middle" x="96.5" y="-427.5" font-family="Helvetica,sans-Serif" font-size="10.00">RESTClientObject.DELETE</text>
</a>
</g>
</g>
<!-- Node1&#45;&gt;Node2 -->
<g id="edge1" class="edge">
<title>Node1&#45;&gt;Node2</title>
<path fill="none" stroke="midnightblue" d="M289.49,-261.06C274.66,-301.04 243.1,-371.28 193,-411 186.6,-416.08 179.33,-420.3 171.73,-423.81"/>
<polygon fill="midnightblue" stroke="midnightblue" points="292.81,-262.18 292.9,-251.59 286.22,-259.81 292.81,-262.18"/>
</g>
<!-- Node3 -->
<g id="node3" class="node">
<title>Node3</title>
<g id="a_node3"><a xlink:href="classcFSPlib_1_1python__api__client_1_1swagger__client_1_1rest_1_1RESTClientObject.html#a1f58e996d73d6656b2c329afd4edc3b1" target="_top" xlink:title=" ">
<polygon fill="none" stroke="black" points="21.5,-360.5 21.5,-401.5 171.5,-401.5 171.5,-360.5 21.5,-360.5"/>
<text text-anchor="start" x="29.5" y="-389.5" font-family="Helvetica,sans-Serif" font-size="10.00">cFSPlib.python_api</text>
<text text-anchor="start" x="29.5" y="-378.5" font-family="Helvetica,sans-Serif" font-size="10.00">_client.swagger_client.rest.</text>
<text text-anchor="middle" x="96.5" y="-367.5" font-family="Helvetica,sans-Serif" font-size="10.00">RESTClientObject.GET</text>
</a>
</g>
</g>
<!-- Node1&#45;&gt;Node3 -->
<g id="edge2" class="edge">
<title>Node1&#45;&gt;Node3</title>
<path fill="none" stroke="midnightblue" d="M280.51,-260.29C261.45,-287.48 229.71,-327.23 193,-351 186.44,-355.25 179.23,-358.93 171.81,-362.12"/>
<polygon fill="midnightblue" stroke="midnightblue" points="283.47,-262.17 286.24,-251.94 277.7,-258.2 283.47,-262.17"/>
</g>
<!-- Node4 -->
<g id="node4" class="node">
<title>Node4</title>
<g id="a_node4"><a xlink:href="classcFSPlib_1_1python__api__client_1_1swagger__client_1_1rest_1_1RESTClientObject.html#a12fc45b9d05d188397de0afb9924e028" target="_top" xlink:title=" ">
<polygon fill="none" stroke="black" points="21.5,-300.5 21.5,-341.5 171.5,-341.5 171.5,-300.5 21.5,-300.5"/>
<text text-anchor="start" x="29.5" y="-329.5" font-family="Helvetica,sans-Serif" font-size="10.00">cFSPlib.python_api</text>
<text text-anchor="start" x="29.5" y="-318.5" font-family="Helvetica,sans-Serif" font-size="10.00">_client.swagger_client.rest.</text>
<text text-anchor="middle" x="96.5" y="-307.5" font-family="Helvetica,sans-Serif" font-size="10.00">RESTClientObject.HEAD</text>
</a>
</g>
</g>
<!-- Node1&#45;&gt;Node4 -->
<g id="edge3" class="edge">
<title>Node1&#45;&gt;Node4</title>
<path fill="none" stroke="midnightblue" d="M258.02,-257.04C238.73,-268.45 215.19,-281.39 193,-291 185.27,-294.35 177.03,-297.51 168.77,-300.42"/>
<polygon fill="midnightblue" stroke="midnightblue" points="260.06,-259.9 266.84,-251.76 256.46,-253.89 260.06,-259.9"/>
</g>
<!-- Node5 -->
<g id="node5" class="node">
<title>Node5</title>
<g id="a_node5"><a xlink:href="classcFSPlib_1_1python__api__client_1_1swagger__client_1_1rest_1_1RESTClientObject.html#adef5658b48474e82ef475e64c07b25ce" target="_top" xlink:title=" ">
<polygon fill="none" stroke="black" points="21.5,-240.5 21.5,-281.5 171.5,-281.5 171.5,-240.5 21.5,-240.5"/>
<text text-anchor="start" x="29.5" y="-269.5" font-family="Helvetica,sans-Serif" font-size="10.00">cFSPlib.python_api</text>
<text text-anchor="start" x="29.5" y="-258.5" font-family="Helvetica,sans-Serif" font-size="10.00">_client.swagger_client.rest.</text>
<text text-anchor="middle" x="96.5" y="-247.5" font-family="Helvetica,sans-Serif" font-size="10.00">RESTClientObject.OPTIONS</text>
</a>
</g>
</g>
<!-- Node1&#45;&gt;Node5 -->
<g id="edge4" class="edge">
<title>Node1&#45;&gt;Node5</title>
<path fill="none" stroke="midnightblue" d="M218.72,-243C203.14,-245.31 186.89,-247.72 171.54,-250"/>
<polygon fill="midnightblue" stroke="midnightblue" points="219.47,-246.42 228.85,-241.49 218.44,-239.5 219.47,-246.42"/>
</g>
<!-- Node6 -->
<g id="node6" class="node">
<title>Node6</title>
<g id="a_node6"><a xlink:href="classcFSPlib_1_1python__api__client_1_1swagger__client_1_1rest_1_1RESTClientObject.html#a2840cce9101d930a6d813ee239f55b8d" target="_top" xlink:title=" ">
<polygon fill="none" stroke="black" points="21.5,-180.5 21.5,-221.5 171.5,-221.5 171.5,-180.5 21.5,-180.5"/>
<text text-anchor="start" x="29.5" y="-209.5" font-family="Helvetica,sans-Serif" font-size="10.00">cFSPlib.python_api</text>
<text text-anchor="start" x="29.5" y="-198.5" font-family="Helvetica,sans-Serif" font-size="10.00">_client.swagger_client.rest.</text>
<text text-anchor="middle" x="96.5" y="-187.5" font-family="Helvetica,sans-Serif" font-size="10.00">RESTClientObject.PATCH</text>
</a>
</g>
</g>
<!-- Node1&#45;&gt;Node6 -->
<g id="edge5" class="edge">
<title>Node1&#45;&gt;Node6</title>
<path fill="none" stroke="midnightblue" d="M218.72,-219C203.14,-216.69 186.89,-214.28 171.54,-212"/>
<polygon fill="midnightblue" stroke="midnightblue" points="218.44,-222.5 228.85,-220.51 219.47,-215.58 218.44,-222.5"/>
</g>
<!-- Node7 -->
<g id="node7" class="node">
<title>Node7</title>
<g id="a_node7"><a xlink:href="classcFSPlib_1_1python__api__client_1_1swagger__client_1_1rest_1_1RESTClientObject.html#a10f05de61d30a3f39b9eac29255043ee" target="_top" xlink:title=" ">
<polygon fill="none" stroke="black" points="21.5,-120.5 21.5,-161.5 171.5,-161.5 171.5,-120.5 21.5,-120.5"/>
<text text-anchor="start" x="29.5" y="-149.5" font-family="Helvetica,sans-Serif" font-size="10.00">cFSPlib.python_api</text>
<text text-anchor="start" x="29.5" y="-138.5" font-family="Helvetica,sans-Serif" font-size="10.00">_client.swagger_client.rest.</text>
<text text-anchor="middle" x="96.5" y="-127.5" font-family="Helvetica,sans-Serif" font-size="10.00">RESTClientObject.POST</text>
</a>
</g>
</g>
<!-- Node1&#45;&gt;Node7 -->
<g id="edge6" class="edge">
<title>Node1&#45;&gt;Node7</title>
<path fill="none" stroke="midnightblue" d="M258.02,-204.96C238.73,-193.55 215.19,-180.61 193,-171 185.27,-167.65 177.03,-164.49 168.77,-161.58"/>
<polygon fill="midnightblue" stroke="midnightblue" points="256.46,-208.11 266.84,-210.24 260.06,-202.1 256.46,-208.11"/>
</g>
<!-- Node8 -->
<g id="node8" class="node">
<title>Node8</title>
<g id="a_node8"><a xlink:href="classcFSPlib_1_1python__api__client_1_1swagger__client_1_1rest_1_1RESTClientObject.html#ab9be4c20a0858fc5eb04f6fa63a85dc1" target="_top" xlink:title=" ">
<polygon fill="none" stroke="black" points="21.5,-60.5 21.5,-101.5 171.5,-101.5 171.5,-60.5 21.5,-60.5"/>
<text text-anchor="start" x="29.5" y="-89.5" font-family="Helvetica,sans-Serif" font-size="10.00">cFSPlib.python_api</text>
<text text-anchor="start" x="29.5" y="-78.5" font-family="Helvetica,sans-Serif" font-size="10.00">_client.swagger_client.rest.</text>
<text text-anchor="middle" x="96.5" y="-67.5" font-family="Helvetica,sans-Serif" font-size="10.00">RESTClientObject.PUT</text>
</a>
</g>
</g>
<!-- Node1&#45;&gt;Node8 -->
<g id="edge7" class="edge">
<title>Node1&#45;&gt;Node8</title>
<path fill="none" stroke="midnightblue" d="M280.51,-201.71C261.45,-174.52 229.71,-134.77 193,-111 186.44,-106.75 179.23,-103.07 171.81,-99.88"/>
<polygon fill="midnightblue" stroke="midnightblue" points="277.7,-203.8 286.24,-210.06 283.47,-199.83 277.7,-203.8"/>
</g>
<!-- Node9 -->
<g id="node9" class="node">
<title>Node9</title>
<g id="a_node9"><a xlink:href="classcFSPlib_1_1python__api__client_1_1swagger__client_1_1api__client_1_1ApiClient.html#a0ab33cb0a448a58c090decee4fe60f16" target="_top" xlink:title=" ">
<polygon fill="none" stroke="black" points="0,-0.5 0,-41.5 193,-41.5 193,-0.5 0,-0.5"/>
<text text-anchor="start" x="8" y="-29.5" font-family="Helvetica,sans-Serif" font-size="10.00">cFSPlib.python_api</text>
<text text-anchor="start" x="8" y="-18.5" font-family="Helvetica,sans-Serif" font-size="10.00">_client.swagger_client.api</text>
<text text-anchor="middle" x="96.5" y="-7.5" font-family="Helvetica,sans-Serif" font-size="10.00">_client.ApiClient.set_default_header</text>
</a>
</g>
</g>
<!-- Node1&#45;&gt;Node9 -->
<g id="edge8" class="edge">
<title>Node1&#45;&gt;Node9</title>
<path fill="none" stroke="midnightblue" d="M289.49,-200.94C274.66,-160.96 243.1,-90.72 193,-51 188.51,-47.44 183.58,-44.29 178.42,-41.52"/>
<polygon fill="midnightblue" stroke="midnightblue" points="286.22,-202.19 292.9,-210.41 292.81,-199.82 286.22,-202.19"/>
</g>
</g>
</svg>
