<?xml version="1.0" encoding="UTF-8" standalone="no"?>
<!DOCTYPE svg PUBLIC "-//W3C//DTD SVG 1.1//EN"
 "http://www.w3.org/Graphics/SVG/1.1/DTD/svg11.dtd">
<!-- Generated by graphviz version 2.43.0 (0)
 -->
<!-- Title: SimArpPacket::SimArpPacket Pages: 1 -->
<svg width="639pt" height="85pt"
 viewBox="0.00 0.00 639.00 85.00" xmlns="http://www.w3.org/2000/svg" xmlns:xlink="http://www.w3.org/1999/xlink">
<g id="graph0" class="graph" transform="scale(1 1) rotate(0) translate(4 81)">
<title>SimArpPacket::SimArpPacket</title>
<!-- Node1 -->
<g id="node1" class="node">
<title>Node1</title>
<g id="a_node1"><a xlink:title=" ">
<polygon fill="#bfbfbf" stroke="black" points="0,-38.5 0,-57.5 156,-57.5 156,-38.5 0,-38.5"/>
<text text-anchor="middle" x="78" y="-45.5" font-family="Helvetica,sans-Serif" font-size="10.00">SimArpPacket::SimArpPacket</text>
</a>
</g>
</g>
<!-- Node2 -->
<g id="node2" class="node">
<title>Node2</title>
<g id="a_node2"><a xlink:href="group__NTS.html#ga322539a2726973fd6ecf61d26e6ccbf8" target="_top" xlink:title="A function to set a number of &#39;1&#39; in an 8&#45;bit field. It is used here to set the number of valid bytes...">
<polygon fill="none" stroke="black" points="220.5,-57.5 220.5,-76.5 306.5,-76.5 306.5,-57.5 220.5,-57.5"/>
<text text-anchor="middle" x="263.5" y="-64.5" font-family="Helvetica,sans-Serif" font-size="10.00">lenToLE_tKeep</text>
</a>
</g>
</g>
<!-- Node1&#45;&gt;Node2 -->
<g id="edge1" class="edge">
<title>Node1&#45;&gt;Node2</title>
<path fill="none" stroke="midnightblue" d="M156.02,-55.98C174.3,-57.87 193.37,-59.84 210.25,-61.59"/>
<polygon fill="midnightblue" stroke="midnightblue" points="210.13,-65.1 220.44,-62.65 210.85,-58.13 210.13,-65.1"/>
</g>
<!-- Node3 -->
<g id="node3" class="node">
<title>Node3</title>
<g id="a_node3"><a xlink:href="classSimArpPacket.html#a1f6d3c78f57cd5504fa9bbf03f7a14c5" target="_top" xlink:title=" ">
<polygon fill="none" stroke="black" points="192,-19.5 192,-38.5 335,-38.5 335,-19.5 192,-19.5"/>
<text text-anchor="middle" x="263.5" y="-26.5" font-family="Helvetica,sans-Serif" font-size="10.00">SimArpPacket::pushChunk</text>
</a>
</g>
</g>
<!-- Node1&#45;&gt;Node3 -->
<g id="edge2" class="edge">
<title>Node1&#45;&gt;Node3</title>
<path fill="none" stroke="midnightblue" d="M156.02,-40.02C164.55,-39.14 173.26,-38.24 181.83,-37.35"/>
<polygon fill="midnightblue" stroke="midnightblue" points="182.23,-40.83 191.82,-36.32 181.51,-33.87 182.23,-40.83"/>
</g>
<!-- Node4 -->
<g id="node4" class="node">
<title>Node4</title>
<g id="a_node4"><a xlink:href="classAxisRaw.html#acadbd2b7e00e34417c426fa91c8d7c51" target="_top" xlink:title=" ">
<polygon fill="none" stroke="black" points="377,-38.5 377,-57.5 474,-57.5 474,-38.5 377,-38.5"/>
<text text-anchor="middle" x="425.5" y="-45.5" font-family="Helvetica,sans-Serif" font-size="10.00">AxisRaw::getLen</text>
</a>
</g>
</g>
<!-- Node3&#45;&gt;Node4 -->
<g id="edge3" class="edge">
<title>Node3&#45;&gt;Node4</title>
<path fill="none" stroke="midnightblue" d="M335.14,-37.39C345.69,-38.64 356.46,-39.92 366.7,-41.14"/>
<polygon fill="midnightblue" stroke="midnightblue" points="366.4,-44.62 376.74,-42.33 367.22,-37.67 366.4,-44.62"/>
</g>
<!-- Node6 -->
<g id="node6" class="node">
<title>Node6</title>
<g id="a_node6"><a xlink:href="classSimArpPacket.html#a057241fff37e92ec0ecf89d94c03db2e" target="_top" xlink:title=" ">
<polygon fill="none" stroke="black" points="371,-0.5 371,-19.5 480,-19.5 480,-0.5 371,-0.5"/>
<text text-anchor="middle" x="425.5" y="-7.5" font-family="Helvetica,sans-Serif" font-size="10.00">SimArpPacket::size</text>
</a>
</g>
</g>
<!-- Node3&#45;&gt;Node6 -->
<g id="edge5" class="edge">
<title>Node3&#45;&gt;Node6</title>
<path fill="none" stroke="midnightblue" d="M335.14,-20.61C343.6,-19.61 352.19,-18.59 360.54,-17.6"/>
<polygon fill="midnightblue" stroke="midnightblue" points="361.06,-21.06 370.58,-16.4 360.23,-14.11 361.06,-21.06"/>
</g>
<!-- Node5 -->
<g id="node5" class="node">
<title>Node5</title>
<g id="a_node5"><a xlink:href="classAxisRaw.html#aec8718820338b67381cce084ba407063" target="_top" xlink:title=" ">
<polygon fill="none" stroke="black" points="516,-38.5 516,-57.5 631,-57.5 631,-38.5 516,-38.5"/>
<text text-anchor="middle" x="573.5" y="-45.5" font-family="Helvetica,sans-Serif" font-size="10.00">AxisRaw::keepToLen</text>
</a>
</g>
</g>
<!-- Node4&#45;&gt;Node5 -->
<g id="edge4" class="edge">
<title>Node4&#45;&gt;Node5</title>
<path fill="none" stroke="midnightblue" d="M474.31,-48C484.39,-48 495.2,-48 505.84,-48"/>
<polygon fill="midnightblue" stroke="midnightblue" points="505.95,-51.5 515.95,-48 505.95,-44.5 505.95,-51.5"/>
</g>
</g>
</svg>
