<?xml version="1.0" encoding="UTF-8" standalone="no"?>
<!DOCTYPE svg PUBLIC "-//W3C//DTD SVG 1.1//EN"
 "http://www.w3.org/Graphics/SVG/1.1/DTD/svg11.dtd">
<!-- Generated by graphviz version 2.43.0 (0)
 -->
<!-- Title: AxisUdp::getUdpSrcPort Pages: 1 -->
<svg width="774pt" height="104pt"
 viewBox="0.00 0.00 774.00 104.00" xmlns="http://www.w3.org/2000/svg" xmlns:xlink="http://www.w3.org/1999/xlink">
<g id="graph0" class="graph" transform="scale(1 1) rotate(0) translate(4 100)">
<title>AxisUdp::getUdpSrcPort</title>
<!-- Node1 -->
<g id="node1" class="node">
<title>Node1</title>
<g id="a_node1"><a xlink:title=" ">
<polygon fill="#bfbfbf" stroke="black" points="633,-38.5 633,-57.5 766,-57.5 766,-38.5 633,-38.5"/>
<text text-anchor="middle" x="699.5" y="-45.5" font-family="Helvetica,sans-Serif" font-size="10.00">AxisUdp::getUdpSrcPort</text>
</a>
</g>
</g>
<!-- Node2 -->
<g id="node2" class="node">
<title>Node2</title>
<g id="a_node2"><a xlink:href="group__NTS__UOE.html#ga2bfd00650e9f0cc4d8440d60e013f8be" target="_top" xlink:title=" ">
<polygon fill="none" stroke="black" points="480.5,-76.5 480.5,-95.5 581.5,-95.5 581.5,-76.5 480.5,-76.5"/>
<text text-anchor="middle" x="531" y="-83.5" font-family="Helvetica,sans-Serif" font-size="10.00">pIp4HeaderAdder</text>
</a>
</g>
</g>
<!-- Node1&#45;&gt;Node2 -->
<g id="edge1" class="edge">
<title>Node1&#45;&gt;Node2</title>
<path fill="none" stroke="midnightblue" d="M646.69,-59.82C623.22,-65.18 595.83,-71.43 573.71,-76.48"/>
<polygon fill="midnightblue" stroke="midnightblue" points="647.51,-63.23 656.49,-57.59 645.96,-56.4 647.51,-63.23"/>
</g>
<!-- Node8 -->
<g id="node8" class="node">
<title>Node8</title>
<g id="a_node8"><a xlink:href="group__NTS__UOE.html#ga167bf3d28da8dec6aa2e94ca84f42131" target="_top" xlink:title=" ">
<polygon fill="none" stroke="black" points="478.5,-38.5 478.5,-57.5 583.5,-57.5 583.5,-38.5 478.5,-38.5"/>
<text text-anchor="middle" x="531" y="-45.5" font-family="Helvetica,sans-Serif" font-size="10.00">pRxPacketHandler</text>
</a>
</g>
</g>
<!-- Node1&#45;&gt;Node8 -->
<g id="edge8" class="edge">
<title>Node1&#45;&gt;Node8</title>
<path fill="none" stroke="midnightblue" d="M622.69,-48C609.51,-48 596.08,-48 583.73,-48"/>
<polygon fill="midnightblue" stroke="midnightblue" points="622.69,-51.5 632.69,-48 622.69,-44.5 622.69,-51.5"/>
</g>
<!-- Node10 -->
<g id="node10" class="node">
<title>Node10</title>
<g id="a_node10"><a xlink:href="group__NTS__UOE.html#ga2a359e091f9f35fcd4f5564574eafc6c" target="_top" xlink:title=" ">
<polygon fill="none" stroke="black" points="465,-0.5 465,-19.5 597,-19.5 597,-0.5 465,-0.5"/>
<text text-anchor="middle" x="531" y="-7.5" font-family="Helvetica,sans-Serif" font-size="10.00">pUdpChecksumChecker</text>
</a>
</g>
</g>
<!-- Node1&#45;&gt;Node10 -->
<g id="edge11" class="edge">
<title>Node1&#45;&gt;Node10</title>
<path fill="none" stroke="midnightblue" d="M646.69,-36.18C623.22,-30.82 595.83,-24.57 573.71,-19.52"/>
<polygon fill="midnightblue" stroke="midnightblue" points="645.96,-39.6 656.49,-38.41 647.51,-32.77 645.96,-39.6"/>
</g>
<!-- Node3 -->
<g id="node3" class="node">
<title>Node3</title>
<g id="a_node3"><a xlink:href="group__NTS__UOE.html#ga857a71b260dfd52bf76ffdcd4260aeae" target="_top" xlink:title=" ">
<polygon fill="none" stroke="black" points="361,-76.5 361,-95.5 429,-95.5 429,-76.5 361,-76.5"/>
<text text-anchor="middle" x="395" y="-83.5" font-family="Helvetica,sans-Serif" font-size="10.00">pTxEngine</text>
</a>
</g>
</g>
<!-- Node2&#45;&gt;Node3 -->
<g id="edge2" class="edge">
<title>Node2&#45;&gt;Node3</title>
<path fill="none" stroke="midnightblue" d="M470.29,-86C456.12,-86 441.52,-86 429.05,-86"/>
<polygon fill="midnightblue" stroke="midnightblue" points="470.48,-89.5 480.48,-86 470.48,-82.5 470.48,-89.5"/>
</g>
<!-- Node4 -->
<g id="node4" class="node">
<title>Node4</title>
<g id="a_node4"><a xlink:href="group__NTS__UOE.html#ga84101607ce156850e4f7426c8be83a2b" target="_top" xlink:title="Main process of the UDP Offload Engine (UOE).">
<polygon fill="none" stroke="black" points="290,-57.5 290,-76.5 325,-76.5 325,-57.5 290,-57.5"/>
<text text-anchor="middle" x="307.5" y="-64.5" font-family="Helvetica,sans-Serif" font-size="10.00">uoe</text>
</a>
</g>
</g>
<!-- Node3&#45;&gt;Node4 -->
<g id="edge3" class="edge">
<title>Node3&#45;&gt;Node4</title>
<path fill="none" stroke="midnightblue" d="M350.83,-76.41C341.68,-74.37 332.55,-72.34 325.13,-70.7"/>
<polygon fill="midnightblue" stroke="midnightblue" points="350.18,-79.85 360.7,-78.6 351.7,-73.01 350.18,-79.85"/>
</g>
<!-- Node5 -->
<g id="node5" class="node">
<title>Node5</title>
<g id="a_node5"><a xlink:href="group__NTS__UOE.html#ga5d9bd6d46b41ba8787888e1e6bfb0d41" target="_top" xlink:title="Top of UDP Offload Engine (UOE)">
<polygon fill="none" stroke="black" points="198,-57.5 198,-76.5 254,-76.5 254,-57.5 198,-57.5"/>
<text text-anchor="middle" x="226" y="-64.5" font-family="Helvetica,sans-Serif" font-size="10.00">uoe_top</text>
</a>
</g>
</g>
<!-- Node4&#45;&gt;Node5 -->
<g id="edge4" class="edge">
<title>Node4&#45;&gt;Node5</title>
<path fill="none" stroke="midnightblue" d="M279.49,-67C271.32,-67 262.34,-67 254.16,-67"/>
<polygon fill="midnightblue" stroke="midnightblue" points="279.64,-70.5 289.64,-67 279.64,-63.5 279.64,-70.5"/>
</g>
<!-- Node6 -->
<g id="node6" class="node">
<title>Node6</title>
<g id="a_node6"><a xlink:href="group__NTS__UOE__TEST.html#ga0ddf1224851353fc92bfbff6f499fa97" target="_top" xlink:title="Main function.">
<polygon fill="none" stroke="black" points="0,-57.5 0,-76.5 41,-76.5 41,-57.5 0,-57.5"/>
<text text-anchor="middle" x="20.5" y="-64.5" font-family="Helvetica,sans-Serif" font-size="10.00">main</text>
</a>
</g>
</g>
<!-- Node5&#45;&gt;Node6 -->
<g id="edge5" class="edge">
<title>Node5&#45;&gt;Node6</title>
<path fill="none" stroke="midnightblue" d="M187.85,-67C144.59,-67 74.76,-67 41,-67"/>
<polygon fill="midnightblue" stroke="midnightblue" points="187.98,-70.5 197.98,-67 187.98,-63.5 187.98,-70.5"/>
</g>
<!-- Node7 -->
<g id="node7" class="node">
<title>Node7</title>
<g id="a_node7"><a xlink:href="group__NTS__UOE__TEST.html#ga0bfd8cabf14df12bd23594b44ea70b16" target="_top" xlink:title="A wrapper for the Toplevel of the UDP Offload Engine (UOE)">
<polygon fill="none" stroke="black" points="77,-38.5 77,-57.5 162,-57.5 162,-38.5 77,-38.5"/>
<text text-anchor="middle" x="119.5" y="-45.5" font-family="Helvetica,sans-Serif" font-size="10.00">uoe_top_wrap</text>
</a>
</g>
</g>
<!-- Node5&#45;&gt;Node7 -->
<g id="edge6" class="edge">
<title>Node5&#45;&gt;Node7</title>
<path fill="none" stroke="midnightblue" d="M187.96,-60.27C179.6,-58.75 170.67,-57.12 162.14,-55.57"/>
<polygon fill="midnightblue" stroke="midnightblue" points="187.35,-63.71 197.82,-62.06 188.6,-56.83 187.35,-63.71"/>
</g>
<!-- Node7&#45;&gt;Node6 -->
<g id="edge7" class="edge">
<title>Node7&#45;&gt;Node6</title>
<path fill="none" stroke="midnightblue" d="M66.83,-58.12C57.64,-59.92 48.61,-61.69 41.05,-63.17"/>
<polygon fill="midnightblue" stroke="midnightblue" points="67.66,-61.53 76.8,-56.17 66.31,-54.66 67.66,-61.53"/>
</g>
<!-- Node9 -->
<g id="node9" class="node">
<title>Node9</title>
<g id="a_node9"><a xlink:href="group__NTS__UOE.html#ga0f2f0d19a54d57f63fe33700654988f8" target="_top" xlink:title=" ">
<polygon fill="none" stroke="black" points="361,-38.5 361,-57.5 429,-57.5 429,-38.5 361,-38.5"/>
<text text-anchor="middle" x="395" y="-45.5" font-family="Helvetica,sans-Serif" font-size="10.00">pRxEngine</text>
</a>
</g>
</g>
<!-- Node8&#45;&gt;Node9 -->
<g id="edge9" class="edge">
<title>Node8&#45;&gt;Node9</title>
<path fill="none" stroke="midnightblue" d="M468.01,-48C454.59,-48 440.89,-48 429.1,-48"/>
<polygon fill="midnightblue" stroke="midnightblue" points="468.19,-51.5 478.19,-48 468.19,-44.5 468.19,-51.5"/>
</g>
<!-- Node9&#45;&gt;Node4 -->
<g id="edge10" class="edge">
<title>Node9&#45;&gt;Node4</title>
<path fill="none" stroke="midnightblue" d="M350.83,-57.59C341.68,-59.63 332.55,-61.66 325.13,-63.3"/>
<polygon fill="midnightblue" stroke="midnightblue" points="351.7,-60.99 360.7,-55.4 350.18,-54.15 351.7,-60.99"/>
</g>
<!-- Node10&#45;&gt;Node9 -->
<g id="edge12" class="edge">
<title>Node10&#45;&gt;Node9</title>
<path fill="none" stroke="midnightblue" d="M486.49,-22.34C467.93,-27.6 446.62,-33.65 429.34,-38.55"/>
<polygon fill="midnightblue" stroke="midnightblue" points="487.52,-25.68 496.19,-19.59 485.61,-18.95 487.52,-25.68"/>
</g>
</g>
</svg>
