<?xml version="1.0" encoding="UTF-8" standalone="no"?>
<!DOCTYPE svg PUBLIC "-//W3C//DTD SVG 1.1//EN"
 "http://www.w3.org/Graphics/SVG/1.1/DTD/svg11.dtd">
<!-- Generated by graphviz version 2.43.0 (0)
 -->
<!-- Title: SimUdpDatagram::pullHeader Pages: 1 -->
<svg width="687pt" height="66pt"
 viewBox="0.00 0.00 687.00 66.00" xmlns="http://www.w3.org/2000/svg" xmlns:xlink="http://www.w3.org/1999/xlink">
<g id="graph0" class="graph" transform="scale(1 1) rotate(0) translate(4 62)">
<title>SimUdpDatagram::pullHeader</title>
<!-- Node1 -->
<g id="node1" class="node">
<title>Node1</title>
<g id="a_node1"><a xlink:title="Pull the header of this datagram.">
<polygon fill="#bfbfbf" stroke="black" points="0,-19.5 0,-38.5 163,-38.5 163,-19.5 0,-19.5"/>
<text text-anchor="middle" x="81.5" y="-26.5" font-family="Helvetica,sans-Serif" font-size="10.00">SimUdpDatagram::pullHeader</text>
</a>
</g>
</g>
<!-- Node2 -->
<g id="node2" class="node">
<title>Node2</title>
<g id="a_node2"><a xlink:href="classAxisRaw.html#acadbd2b7e00e34417c426fa91c8d7c51" target="_top" xlink:title=" ">
<polygon fill="none" stroke="black" points="415,-38.5 415,-57.5 512,-57.5 512,-38.5 415,-38.5"/>
<text text-anchor="middle" x="463.5" y="-45.5" font-family="Helvetica,sans-Serif" font-size="10.00">AxisRaw::getLen</text>
</a>
</g>
</g>
<!-- Node1&#45;&gt;Node2 -->
<g id="edge1" class="edge">
<title>Node1&#45;&gt;Node2</title>
<path fill="none" stroke="midnightblue" d="M163.09,-33.03C235.53,-36.65 340.15,-41.88 404.61,-45.11"/>
<polygon fill="midnightblue" stroke="midnightblue" points="404.82,-48.62 414.99,-45.62 405.17,-41.63 404.82,-48.62"/>
</g>
<!-- Node4 -->
<g id="node4" class="node">
<title>Node4</title>
<g id="a_node4"><a xlink:href="classSimUdpDatagram.html#a19f8f331cc36e9b566a1a6935a9d9e56" target="_top" xlink:title=" ">
<polygon fill="none" stroke="black" points="199,-0.5 199,-19.5 363,-19.5 363,-0.5 199,-0.5"/>
<text text-anchor="middle" x="281" y="-7.5" font-family="Helvetica,sans-Serif" font-size="10.00">SimUdpDatagram::pushChunk</text>
</a>
</g>
</g>
<!-- Node1&#45;&gt;Node4 -->
<g id="edge3" class="edge">
<title>Node1&#45;&gt;Node4</title>
<path fill="none" stroke="midnightblue" d="M163.12,-21.24C171.55,-20.43 180.16,-19.6 188.71,-18.78"/>
<polygon fill="midnightblue" stroke="midnightblue" points="189.06,-22.26 198.68,-17.82 188.39,-15.3 189.06,-22.26"/>
</g>
<!-- Node3 -->
<g id="node3" class="node">
<title>Node3</title>
<g id="a_node3"><a xlink:href="classAxisRaw.html#aec8718820338b67381cce084ba407063" target="_top" xlink:title=" ">
<polygon fill="none" stroke="black" points="564,-38.5 564,-57.5 679,-57.5 679,-38.5 564,-38.5"/>
<text text-anchor="middle" x="621.5" y="-45.5" font-family="Helvetica,sans-Serif" font-size="10.00">AxisRaw::keepToLen</text>
</a>
</g>
</g>
<!-- Node2&#45;&gt;Node3 -->
<g id="edge2" class="edge">
<title>Node2&#45;&gt;Node3</title>
<path fill="none" stroke="midnightblue" d="M512.15,-48C525.28,-48 539.76,-48 553.74,-48"/>
<polygon fill="midnightblue" stroke="midnightblue" points="553.82,-51.5 563.82,-48 553.81,-44.5 553.82,-51.5"/>
</g>
<!-- Node4&#45;&gt;Node2 -->
<g id="edge4" class="edge">
<title>Node4&#45;&gt;Node2</title>
<path fill="none" stroke="midnightblue" d="M327.55,-19.59C351.8,-24.69 381.8,-31.01 407.36,-36.39"/>
<polygon fill="midnightblue" stroke="midnightblue" points="406.77,-39.84 417.28,-38.48 408.22,-32.99 406.77,-39.84"/>
</g>
<!-- Node5 -->
<g id="node5" class="node">
<title>Node5</title>
<g id="a_node5"><a xlink:href="classSimUdpDatagram.html#a5cc83610935341408f23d7a5b431d3e8" target="_top" xlink:title=" ">
<polygon fill="none" stroke="black" points="399,-0.5 399,-19.5 528,-19.5 528,-0.5 399,-0.5"/>
<text text-anchor="middle" x="463.5" y="-7.5" font-family="Helvetica,sans-Serif" font-size="10.00">SimUdpDatagram::size</text>
</a>
</g>
</g>
<!-- Node4&#45;&gt;Node5 -->
<g id="edge5" class="edge">
<title>Node4&#45;&gt;Node5</title>
<path fill="none" stroke="midnightblue" d="M363.01,-10C371.54,-10 380.18,-10 388.62,-10"/>
<polygon fill="midnightblue" stroke="midnightblue" points="388.8,-13.5 398.8,-10 388.8,-6.5 388.8,-13.5"/>
</g>
</g>
</svg>
