<?xml version="1.0" encoding="UTF-8" standalone="no"?>
<!DOCTYPE svg PUBLIC "-//W3C//DTD SVG 1.1//EN"
 "http://www.w3.org/Graphics/SVG/1.1/DTD/svg11.dtd">
<!-- Generated by graphviz version 2.43.0 (0)
 -->
<!-- Title: AxisRaw::getTKeep Pages: 1 -->
<!--zoomable 410 -->
<svg id="main" version="1.1" xmlns="http://www.w3.org/2000/svg" xmlns:xlink="http://www.w3.org/1999/xlink" xml:space="preserve" onload="init(evt)">
<style type="text/css"><![CDATA[
.edge:hover path { stroke: red; }
.edge:hover polygon { stroke: red; fill: red; }
]]></style>
<script type="text/javascript"><![CDATA[
var edges = document.getElementsByTagName('g');
if (edges && edges.length) {
  for (var i=0;i<edges.length;i++) {
    if (edges[i].id.substr(0,4)=='edge') {
      edges[i].setAttribute('class','edge');
    }
  }
}
]]></script>
        <defs>
                <circle id="rim" cx="0" cy="0" r="7"/>
                <circle id="rim2" cx="0" cy="0" r="3.5"/>
                <g id="zoomPlus">
                        <use xlink:href="#rim" fill="#404040">
                                <set attributeName="fill" to="#808080" begin="zoomplus.mouseover" end="zoomplus.mouseout"/>
                        </use>
                        <path d="M-4,0h8M0,-4v8" fill="none" stroke="white" stroke-width="1.5" pointer-events="none"/>
                </g>
                <g id="zoomMin">
                        <use xlink:href="#rim" fill="#404040">
                                <set attributeName="fill" to="#808080" begin="zoomminus.mouseover" end="zoomminus.mouseout"/>
                        </use>
                        <path d="M-4,0h8" fill="none" stroke="white" stroke-width="1.5" pointer-events="none"/>
                </g>
                <g id="dirArrow">
                        <path fill="none" stroke="white" stroke-width="1.5" d="M0,-3.0v7 M-2.5,-0.5L0,-3.0L2.5,-0.5"/>
                </g>
               <g id="resetDef">
                       <use xlink:href="#rim2" fill="#404040">
                               <set attributeName="fill" to="#808080" begin="reset.mouseover" end="reset.mouseout"/>
                       </use>
               </g>
        </defs>

<script type="text/javascript">
var viewWidth = 1035;
var viewHeight = 410;
var sectionId = 'dynsection-19';
</script>
<script xlink:href="svgpan.js"/>
<svg id="graph" class="graph">
<g id="viewport">
<title>AxisRaw::getTKeep</title>
<!-- Node1 -->
<g id="node1" class="node">
<title>Node1</title>
<g id="a_node1"><a xlink:title=" ">
<polygon fill="#bfbfbf" stroke="black" points="917,-176.35 917,-195.35 1027,-195.35 1027,-176.35 917,-176.35"/>
<text text-anchor="middle" x="972" y="-183.35" font-family="Helvetica,sans-Serif" font-size="10.00">AxisRaw::getTKeep</text>
</a>
</g>
</g>
<!-- Node2 -->
<g id="node2" class="node">
<title>Node2</title>
<g id="a_node2"><a xlink:href="classSimAppData.html#aeee016b2fa35193aca6c4ca62b491dd1" target="_top" xlink:title="Dump this APP data as HEX and ASCII characters to screen.">
<polygon fill="none" stroke="black" points="761.5,-328.35 761.5,-347.35 872.5,-347.35 872.5,-328.35 761.5,-328.35"/>
<text text-anchor="middle" x="817" y="-335.35" font-family="Helvetica,sans-Serif" font-size="10.00">SimAppData::dump</text>
</a>
</g>
</g>
<!-- Node1&#45;&gt;Node2 -->
<g id="edge1" class="edge">
<title>Node1&#45;&gt;Node2</title>
<path fill="none" stroke="midnightblue" d="M963.15,-204.95C950.3,-233.9 922,-288.68 881,-318.85 875.76,-322.71 869.72,-325.8 863.51,-328.26"/>
<polygon fill="midnightblue" stroke="midnightblue" points="966.46,-206.12 967.19,-195.55 960.03,-203.36 966.46,-206.12"/>
</g>
<!-- Node3 -->
<g id="node3" class="node">
<title>Node3</title>
<g id="a_node3"><a xlink:href="classSimTcpSegment.html#abd55f2b54ff766a375917216364e2ff0" target="_top" xlink:title="Dump this TCP segment as HEX and ASCII characters to screen.">
<polygon fill="none" stroke="black" points="753,-290.35 753,-309.35 881,-309.35 881,-290.35 753,-290.35"/>
<text text-anchor="middle" x="817" y="-297.35" font-family="Helvetica,sans-Serif" font-size="10.00">SimTcpSegment::dump</text>
</a>
</g>
</g>
<!-- Node1&#45;&gt;Node3 -->
<g id="edge2" class="edge">
<title>Node1&#45;&gt;Node3</title>
<path fill="none" stroke="midnightblue" d="M958.66,-203.72C942.99,-225.08 913.99,-260.5 881,-280.85 874.78,-284.69 867.73,-287.8 860.66,-290.3"/>
<polygon fill="midnightblue" stroke="midnightblue" points="961.56,-205.67 964.53,-195.5 955.86,-201.6 961.56,-205.67"/>
</g>
<!-- Node11 -->
<g id="node11" class="node">
<title>Node11</title>
<g id="a_node11"><a xlink:href="group__NAL.html#ga67785887c17c5aa83fd0fb9ec80da92f" target="_top" xlink:title="Dump a data word to a file.">
<polygon fill="none" stroke="black" points="769.5,-138.35 769.5,-157.35 864.5,-157.35 864.5,-138.35 769.5,-138.35"/>
<text text-anchor="middle" x="817" y="-145.35" font-family="Helvetica,sans-Serif" font-size="10.00">dumpDataToFile</text>
</a>
</g>
</g>
<!-- Node1&#45;&gt;Node11 -->
<g id="edge10" class="edge">
<title>Node1&#45;&gt;Node11</title>
<path fill="none" stroke="midnightblue" d="M922.52,-173.81C901.15,-168.51 876.39,-162.36 856.33,-157.37"/>
<polygon fill="midnightblue" stroke="midnightblue" points="921.84,-177.25 932.39,-176.27 923.53,-170.46 921.84,-177.25"/>
</g>
<!-- Node12 -->
<g id="node12" class="node">
<title>Node12</title>
<g id="a_node12"><a xlink:href="group__NAL.html#gaf9e0eed561df3f2066eefef642f250d0" target="_top" xlink:title="Fill an output file with data from an output stream.">
<polygon fill="none" stroke="black" points="578,-138.35 578,-157.35 702,-157.35 702,-138.35 578,-138.35"/>
<text text-anchor="middle" x="640" y="-145.35" font-family="Helvetica,sans-Serif" font-size="10.00">getOutputDataStream</text>
</a>
</g>
</g>
<!-- Node1&#45;&gt;Node12 -->
<g id="edge13" class="edge">
<title>Node1&#45;&gt;Node12</title>
<path fill="none" stroke="midnightblue" d="M952.31,-169.5C935.12,-155.63 908.23,-136.75 881,-128.85 826.36,-113.01 809.69,-124.08 753,-128.85 730.99,-130.71 706.8,-134.58 686.55,-138.34"/>
<polygon fill="midnightblue" stroke="midnightblue" points="950.44,-172.5 960.37,-176.22 954.93,-167.13 950.44,-172.5"/>
</g>
<!-- Node14 -->
<g id="node14" class="node">
<title>Node14</title>
<g id="a_node14"><a xlink:href="classAxisRaw.html#a58b8357553e87b35d4841c9f0bcdb08d" target="_top" xlink:title=" ">
<polygon fill="none" stroke="black" points="757,-214.35 757,-233.35 877,-233.35 877,-214.35 757,-214.35"/>
<text text-anchor="middle" x="817" y="-221.35" font-family="Helvetica,sans-Serif" font-size="10.00">AxisRaw::getTKeepHi</text>
</a>
</g>
</g>
<!-- Node1&#45;&gt;Node14 -->
<g id="edge14" class="edge">
<title>Node1&#45;&gt;Node14</title>
<path fill="none" stroke="midnightblue" d="M922.52,-197.89C901.15,-203.2 876.39,-209.35 856.33,-214.33"/>
<polygon fill="midnightblue" stroke="midnightblue" points="923.53,-201.25 932.39,-195.44 921.84,-194.46 923.53,-201.25"/>
</g>
<!-- Node21 -->
<g id="node21" class="node">
<title>Node21</title>
<g id="a_node21"><a xlink:href="group__NTS__UOE.html#gaf298ae8ed051de648f02f4b2ab238ded" target="_top" xlink:title=" ">
<polygon fill="none" stroke="black" points="587.5,-176.35 587.5,-195.35 692.5,-195.35 692.5,-176.35 587.5,-176.35"/>
<text text-anchor="middle" x="640" y="-183.35" font-family="Helvetica,sans-Serif" font-size="10.00">pIpHeaderStripper</text>
</a>
</g>
</g>
<!-- Node1&#45;&gt;Node21 -->
<g id="edge35" class="edge">
<title>Node1&#45;&gt;Node21</title>
<path fill="none" stroke="midnightblue" d="M906.74,-185.85C844.25,-185.85 750.53,-185.85 692.7,-185.85"/>
<polygon fill="midnightblue" stroke="midnightblue" points="906.88,-189.35 916.88,-185.85 906.88,-182.35 906.88,-189.35"/>
</g>
<!-- Node24 -->
<g id="node24" class="node">
<title>Node24</title>
<g id="a_node24"><a xlink:href="classAxisRaw.html#af7dcf20294a3d8853042af971f19c4a6" target="_top" xlink:title=" ">
<polygon fill="none" stroke="black" points="756.5,-252.35 756.5,-271.35 877.5,-271.35 877.5,-252.35 756.5,-252.35"/>
<text text-anchor="middle" x="817" y="-259.35" font-family="Helvetica,sans-Serif" font-size="10.00">AxisRaw::getTKeepLo</text>
</a>
</g>
</g>
<!-- Node1&#45;&gt;Node24 -->
<g id="edge30" class="edge">
<title>Node1&#45;&gt;Node24</title>
<path fill="none" stroke="midnightblue" d="M949.82,-201.61C932.15,-214.16 905.92,-231.46 881,-242.85 873,-246.51 864.11,-249.69 855.6,-252.34"/>
<polygon fill="midnightblue" stroke="midnightblue" points="952.17,-204.23 958.22,-195.53 948.07,-198.55 952.17,-204.23"/>
</g>
<!-- Node25 -->
<g id="node25" class="node">
<title>Node25</title>
<g id="a_node25"><a xlink:href="simulation__utils_8cpp.html#a61409c0a9f0cc53a8133e2250889a0b5" target="_top" xlink:title="Prints one chunk of a data stream (used for debugging).">
<polygon fill="none" stroke="black" points="777,-62.35 777,-81.35 857,-81.35 857,-62.35 777,-62.35"/>
<text text-anchor="middle" x="817" y="-69.35" font-family="Helvetica,sans-Serif" font-size="10.00">printAxiWord</text>
</a>
</g>
</g>
<!-- Node1&#45;&gt;Node25 -->
<g id="edge36" class="edge">
<title>Node1&#45;&gt;Node25</title>
<path fill="none" stroke="midnightblue" d="M957.23,-168.15C940.92,-148.2 912.02,-115.94 881,-95.85 871.86,-89.94 861.05,-85.15 850.99,-81.46"/>
<polygon fill="midnightblue" stroke="midnightblue" points="954.63,-170.5 963.61,-176.12 960.1,-166.12 954.63,-170.5"/>
</g>
<!-- Node29 -->
<g id="node29" class="node">
<title>Node29</title>
<g id="a_node29"><a xlink:href="group__NAL.html#ga003bb1ba6dbd173c93b519ed3f899959" target="_top" xlink:title="Initialize an input data stream from a file.">
<polygon fill="none" stroke="black" points="759.5,-5.35 759.5,-24.35 874.5,-24.35 874.5,-5.35 759.5,-5.35"/>
<text text-anchor="middle" x="817" y="-12.35" font-family="Helvetica,sans-Serif" font-size="10.00">setInputDataStream</text>
</a>
</g>
</g>
<!-- Node1&#45;&gt;Node29 -->
<g id="edge43" class="edge">
<title>Node1&#45;&gt;Node29</title>
<path fill="none" stroke="midnightblue" d="M961.73,-167.15C947.37,-139.58 917.56,-87.56 881,-52.85 868.59,-41.07 851.91,-31.21 838.83,-24.49"/>
<polygon fill="midnightblue" stroke="midnightblue" points="958.64,-168.8 966.3,-176.12 964.88,-165.62 958.64,-168.8"/>
</g>
<!-- Node4 -->
<g id="node4" class="node">
<title>Node4</title>
<g id="a_node4"><a xlink:href="classSimIp4Packet.html#a56e254cf6292c3fa12a6a6e4ed7bbd6f" target="_top" xlink:title="Checks if the IP header and embedded protocol fields are properly set.">
<polygon fill="none" stroke="black" points="563,-328.35 563,-347.35 717,-347.35 717,-328.35 563,-328.35"/>
<text text-anchor="middle" x="640" y="-335.35" font-family="Helvetica,sans-Serif" font-size="10.00">SimIp4Packet::isWellFormed</text>
</a>
</g>
</g>
<!-- Node3&#45;&gt;Node4 -->
<g id="edge3" class="edge">
<title>Node3&#45;&gt;Node4</title>
<path fill="none" stroke="midnightblue" d="M761.88,-311.61C737.13,-316.98 708.2,-323.26 684.84,-328.33"/>
<polygon fill="midnightblue" stroke="midnightblue" points="762.81,-314.99 771.84,-309.44 761.33,-308.15 762.81,-314.99"/>
</g>
<!-- Node5 -->
<g id="node5" class="node">
<title>Node5</title>
<g id="a_node5"><a xlink:href="group__NTS__ICMP__TEST.html#ga652464dca3fe1c76270d52a9acdc94a5" target="_top" xlink:title="Create the golden reference file from an input test file.">
<polygon fill="none" stroke="black" points="428,-290.35 428,-309.35 527,-309.35 527,-290.35 428,-290.35"/>
<text text-anchor="middle" x="477.5" y="-297.35" font-family="Helvetica,sans-Serif" font-size="10.00">createGoldenFile</text>
</a>
</g>
</g>
<!-- Node4&#45;&gt;Node5 -->
<g id="edge4" class="edge">
<title>Node4&#45;&gt;Node5</title>
<path fill="none" stroke="midnightblue" d="M588.75,-325.96C566.19,-320.62 539.94,-314.4 518.71,-309.37"/>
<polygon fill="midnightblue" stroke="midnightblue" points="587.96,-329.37 598.5,-328.27 589.57,-322.56 587.96,-329.37"/>
</g>
<!-- Node7 -->
<g id="node7" class="node">
<title>Node7</title>
<g id="a_node7"><a xlink:href="group__NTS__UOE__TEST.html#ga40610514eb0285c8afbe8cfe003638f6" target="_top" xlink:title="Create the golden Rx APP reference files from an input IPRX test file.">
<polygon fill="none" stroke="black" points="198,-347.35 198,-366.35 315,-366.35 315,-347.35 198,-347.35"/>
<text text-anchor="middle" x="256.5" y="-354.35" font-family="Helvetica,sans-Serif" font-size="10.00">createGoldenRxFiles</text>
</a>
</g>
</g>
<!-- Node4&#45;&gt;Node7 -->
<g id="edge6" class="edge">
<title>Node4&#45;&gt;Node7</title>
<path fill="none" stroke="midnightblue" d="M616.86,-353.12C595.11,-367.11 560.42,-386.84 527,-394.85 438.09,-416.18 329.62,-383.56 281.95,-366.36"/>
<polygon fill="midnightblue" stroke="midnightblue" points="618.92,-355.95 625.35,-347.52 615.07,-350.1 618.92,-355.95"/>
</g>
<!-- Node9 -->
<g id="node9" class="node">
<title>Node9</title>
<g id="a_node9"><a xlink:href="group__NTS__TOE__TEST.html#ga19626da81d440ab83bcba2f6838ccb87" target="_top" xlink:title="Emulate the behavior of the IP Rx Path (IPRX).">
<polygon fill="none" stroke="black" points="455,-366.35 455,-385.35 500,-385.35 500,-366.35 455,-366.35"/>
<text text-anchor="middle" x="477.5" y="-373.35" font-family="Helvetica,sans-Serif" font-size="10.00">pIPRX</text>
</a>
</g>
</g>
<!-- Node4&#45;&gt;Node9 -->
<g id="edge8" class="edge">
<title>Node4&#45;&gt;Node9</title>
<path fill="none" stroke="midnightblue" d="M588.69,-349.77C558.95,-356.81 522.81,-365.36 500.23,-370.71"/>
<polygon fill="midnightblue" stroke="midnightblue" points="589.57,-353.15 598.5,-347.44 587.96,-346.34 589.57,-353.15"/>
</g>
<!-- Node10 -->
<g id="node10" class="node">
<title>Node10</title>
<g id="a_node10"><a xlink:href="group__NTS__TOE__TEST.html#ga5555b85edfa105eb62cf20f0dbdf5962" target="_top" xlink:title="Emulate the behavior of the IP Tx Handler (IPTX).">
<polygon fill="none" stroke="black" points="455.5,-328.35 455.5,-347.35 499.5,-347.35 499.5,-328.35 455.5,-328.35"/>
<text text-anchor="middle" x="477.5" y="-335.35" font-family="Helvetica,sans-Serif" font-size="10.00">pIPTX</text>
</a>
</g>
</g>
<!-- Node4&#45;&gt;Node10 -->
<g id="edge9" class="edge">
<title>Node4&#45;&gt;Node10</title>
<path fill="none" stroke="midnightblue" d="M552.93,-337.85C533.12,-337.85 513.8,-337.85 499.8,-337.85"/>
<polygon fill="midnightblue" stroke="midnightblue" points="552.98,-341.35 562.98,-337.85 552.98,-334.35 552.98,-341.35"/>
</g>
<!-- Node6 -->
<g id="node6" class="node">
<title>Node6</title>
<g id="a_node6"><a xlink:href="group__NTS__ICMP__TEST.html#ga0ddf1224851353fc92bfbff6f499fa97" target="_top" xlink:title="Main function.">
<polygon fill="none" stroke="black" points="351,-290.35 351,-309.35 392,-309.35 392,-290.35 351,-290.35"/>
<text text-anchor="middle" x="371.5" y="-297.35" font-family="Helvetica,sans-Serif" font-size="10.00">main</text>
</a>
</g>
</g>
<!-- Node5&#45;&gt;Node6 -->
<g id="edge5" class="edge">
<title>Node5&#45;&gt;Node6</title>
<path fill="none" stroke="midnightblue" d="M417.74,-299.85C408.48,-299.85 399.5,-299.85 392.02,-299.85"/>
<polygon fill="midnightblue" stroke="midnightblue" points="417.85,-303.35 427.85,-299.85 417.85,-296.35 417.85,-303.35"/>
</g>
<!-- Node8 -->
<g id="node8" class="node">
<title>Node8</title>
<g id="a_node8"><a xlink:href="group__NTS__UOE__TEST.html#ga0ddf1224851353fc92bfbff6f499fa97" target="_top" xlink:title="Main function.">
<polygon fill="none" stroke="black" points="0,-233.35 0,-252.35 41,-252.35 41,-233.35 0,-233.35"/>
<text text-anchor="middle" x="20.5" y="-240.35" font-family="Helvetica,sans-Serif" font-size="10.00">main</text>
</a>
</g>
</g>
<!-- Node7&#45;&gt;Node8 -->
<g id="edge7" class="edge">
<title>Node7&#45;&gt;Node8</title>
<path fill="none" stroke="midnightblue" d="M222.73,-343.27C186.53,-327.98 126.77,-301.84 77,-275.85 63.09,-268.59 47.79,-259.4 36.79,-252.57"/>
<polygon fill="midnightblue" stroke="midnightblue" points="221.71,-346.64 232.29,-347.29 224.43,-340.19 221.71,-346.64"/>
</g>
<!-- Node11&#45;&gt;Node12 -->
<g id="edge11" class="edge">
<title>Node11&#45;&gt;Node12</title>
<path fill="none" stroke="midnightblue" d="M758.96,-147.85C740.8,-147.85 720.64,-147.85 702.2,-147.85"/>
<polygon fill="midnightblue" stroke="midnightblue" points="759.1,-151.35 769.1,-147.85 759.1,-144.35 759.1,-151.35"/>
</g>
<!-- Node13 -->
<g id="node13" class="node">
<title>Node13</title>
<g id="a_node13"><a xlink:href="group__NAL.html#gae66f6b31b5ad750f1fe042a706a4e3d4" target="_top" xlink:title="Main Testbench Loop; Emulates also the behavior of the UDP Offload Engine (UOE).">
<polygon fill="none" stroke="black" points="457,-62.35 457,-81.35 498,-81.35 498,-62.35 457,-62.35"/>
<text text-anchor="middle" x="477.5" y="-69.35" font-family="Helvetica,sans-Serif" font-size="10.00">main</text>
</a>
</g>
</g>
<!-- Node12&#45;&gt;Node13 -->
<g id="edge12" class="edge">
<title>Node12&#45;&gt;Node13</title>
<path fill="none" stroke="midnightblue" d="M580.03,-135.3C574.18,-133.41 568.41,-131.27 563,-128.85 534.55,-116.18 505.28,-93.99 489.76,-81.36"/>
<polygon fill="midnightblue" stroke="midnightblue" points="579.32,-138.74 589.91,-138.25 581.33,-132.03 579.32,-138.74"/>
</g>
<!-- Node15 -->
<g id="node15" class="node">
<title>Node15</title>
<g id="a_node15"><a xlink:href="classSimIp4Packet.html#ad0e76afdc3d67fb491ae2a8a949dbda5" target="_top" xlink:title="Append some data to this packet from a UDP datagram.">
<polygon fill="none" stroke="black" points="563.5,-290.35 563.5,-309.35 716.5,-309.35 716.5,-290.35 563.5,-290.35"/>
<text text-anchor="middle" x="640" y="-297.35" font-family="Helvetica,sans-Serif" font-size="10.00">SimIp4Packet::addIpPayload</text>
</a>
</g>
</g>
<!-- Node14&#45;&gt;Node15 -->
<g id="edge15" class="edge">
<title>Node14&#45;&gt;Node15</title>
<path fill="none" stroke="midnightblue" d="M763.82,-237.19C760.05,-238.88 756.4,-240.76 753,-242.85 733.2,-255.07 737.09,-269.12 717,-280.85 710.31,-284.77 702.83,-287.88 695.24,-290.35"/>
<polygon fill="midnightblue" stroke="midnightblue" points="765.34,-240.35 773.34,-233.41 762.76,-233.85 765.34,-240.35"/>
</g>
<!-- Node16 -->
<g id="node16" class="node">
<title>Node16</title>
<g id="a_node16"><a xlink:href="group__NTS__UOE.html#ga2bfd00650e9f0cc4d8440d60e013f8be" target="_top" xlink:title=" ">
<polygon fill="none" stroke="black" points="589.5,-214.35 589.5,-233.35 690.5,-233.35 690.5,-214.35 589.5,-214.35"/>
<text text-anchor="middle" x="640" y="-221.35" font-family="Helvetica,sans-Serif" font-size="10.00">pIp4HeaderAdder</text>
</a>
</g>
</g>
<!-- Node14&#45;&gt;Node16 -->
<g id="edge18" class="edge">
<title>Node14&#45;&gt;Node16</title>
<path fill="none" stroke="midnightblue" d="M746.5,-223.85C727.8,-223.85 707.95,-223.85 690.57,-223.85"/>
<polygon fill="midnightblue" stroke="midnightblue" points="746.75,-227.35 756.75,-223.85 746.75,-220.35 746.75,-227.35"/>
</g>
<!-- Node14&#45;&gt;Node21 -->
<g id="edge25" class="edge">
<title>Node14&#45;&gt;Node21</title>
<path fill="none" stroke="midnightblue" d="M761.88,-212.1C737.13,-206.73 708.2,-200.45 684.84,-195.37"/>
<polygon fill="midnightblue" stroke="midnightblue" points="761.33,-215.56 771.84,-214.27 762.81,-208.72 761.33,-215.56"/>
</g>
<!-- Node23 -->
<g id="node23" class="node">
<title>Node23</title>
<g id="a_node23"><a xlink:href="group__NTS__UOE.html#gac7019e2dca00657e45cc22122fe8c23e" target="_top" xlink:title=" ">
<polygon fill="none" stroke="black" points="579,-252.35 579,-271.35 701,-271.35 701,-252.35 579,-252.35"/>
<text text-anchor="middle" x="640" y="-259.35" font-family="Helvetica,sans-Serif" font-size="10.00">pTxDatagramHandler</text>
</a>
</g>
</g>
<!-- Node14&#45;&gt;Node23 -->
<g id="edge28" class="edge">
<title>Node14&#45;&gt;Node23</title>
<path fill="none" stroke="midnightblue" d="M761.88,-235.61C737.13,-240.98 708.2,-247.26 684.84,-252.33"/>
<polygon fill="midnightblue" stroke="midnightblue" points="762.81,-238.99 771.84,-233.44 761.33,-232.15 762.81,-238.99"/>
</g>
<!-- Node15&#45;&gt;Node5 -->
<g id="edge16" class="edge">
<title>Node15&#45;&gt;Node5</title>
<path fill="none" stroke="midnightblue" d="M553.3,-299.85C544.33,-299.85 535.44,-299.85 527.1,-299.85"/>
<polygon fill="midnightblue" stroke="midnightblue" points="553.45,-303.35 563.45,-299.85 553.45,-296.35 553.45,-303.35"/>
</g>
<!-- Node15&#45;&gt;Node8 -->
<g id="edge17" class="edge">
<title>Node15&#45;&gt;Node8</title>
<path fill="none" stroke="midnightblue" d="M587.81,-288.16C534.38,-276.99 448.02,-261.85 372.5,-261.85 372.5,-261.85 372.5,-261.85 255.5,-261.85 175.82,-261.85 81.37,-250.77 41.18,-245.54"/>
<polygon fill="midnightblue" stroke="midnightblue" points="587.21,-291.61 597.71,-290.27 588.66,-284.76 587.21,-291.61"/>
</g>
<!-- Node17 -->
<g id="node17" class="node">
<title>Node17</title>
<g id="a_node17"><a xlink:href="group__NTS__UOE.html#ga857a71b260dfd52bf76ffdcd4260aeae" target="_top" xlink:title=" ">
<polygon fill="none" stroke="black" points="443.5,-214.35 443.5,-233.35 511.5,-233.35 511.5,-214.35 443.5,-214.35"/>
<text text-anchor="middle" x="477.5" y="-221.35" font-family="Helvetica,sans-Serif" font-size="10.00">pTxEngine</text>
</a>
</g>
</g>
<!-- Node16&#45;&gt;Node17 -->
<g id="edge19" class="edge">
<title>Node16&#45;&gt;Node17</title>
<path fill="none" stroke="midnightblue" d="M578.83,-223.85C556.07,-223.85 531.01,-223.85 511.63,-223.85"/>
<polygon fill="midnightblue" stroke="midnightblue" points="579.1,-227.35 589.1,-223.85 579.1,-220.35 579.1,-227.35"/>
</g>
<!-- Node18 -->
<g id="node18" class="node">
<title>Node18</title>
<g id="a_node18"><a xlink:href="group__NTS__UOE.html#ga84101607ce156850e4f7426c8be83a2b" target="_top" xlink:title="Main process of the UDP Offload Engine (UOE).">
<polygon fill="none" stroke="black" points="354,-195.35 354,-214.35 389,-214.35 389,-195.35 354,-195.35"/>
<text text-anchor="middle" x="371.5" y="-202.35" font-family="Helvetica,sans-Serif" font-size="10.00">uoe</text>
</a>
</g>
</g>
<!-- Node17&#45;&gt;Node18 -->
<g id="edge20" class="edge">
<title>Node17&#45;&gt;Node18</title>
<path fill="none" stroke="midnightblue" d="M433.29,-215.96C417.71,-213.11 401.05,-210.07 389.12,-207.89"/>
<polygon fill="midnightblue" stroke="midnightblue" points="432.84,-219.44 443.31,-217.79 434.1,-212.55 432.84,-219.44"/>
</g>
<!-- Node19 -->
<g id="node19" class="node">
<title>Node19</title>
<g id="a_node19"><a xlink:href="group__NTS__UOE.html#ga5d9bd6d46b41ba8787888e1e6bfb0d41" target="_top" xlink:title="Top of UDP Offload Engine (UOE)">
<polygon fill="none" stroke="black" points="228.5,-195.35 228.5,-214.35 284.5,-214.35 284.5,-195.35 228.5,-195.35"/>
<text text-anchor="middle" x="256.5" y="-202.35" font-family="Helvetica,sans-Serif" font-size="10.00">uoe_top</text>
</a>
</g>
</g>
<!-- Node18&#45;&gt;Node19 -->
<g id="edge21" class="edge">
<title>Node18&#45;&gt;Node19</title>
<path fill="none" stroke="midnightblue" d="M343.81,-204.85C326.01,-204.85 302.68,-204.85 284.76,-204.85"/>
<polygon fill="midnightblue" stroke="midnightblue" points="343.83,-208.35 353.83,-204.85 343.83,-201.35 343.83,-208.35"/>
</g>
<!-- Node19&#45;&gt;Node8 -->
<g id="edge22" class="edge">
<title>Node19&#45;&gt;Node8</title>
<path fill="none" stroke="midnightblue" d="M218.06,-210.93C167.75,-219.1 80.15,-233.33 41.17,-239.66"/>
<polygon fill="midnightblue" stroke="midnightblue" points="218.89,-214.35 228.2,-209.29 217.77,-207.44 218.89,-214.35"/>
</g>
<!-- Node20 -->
<g id="node20" class="node">
<title>Node20</title>
<g id="a_node20"><a xlink:href="group__NTS__UOE__TEST.html#ga0bfd8cabf14df12bd23594b44ea70b16" target="_top" xlink:title="A wrapper for the Toplevel of the UDP Offload Engine (UOE)">
<polygon fill="none" stroke="black" points="77,-176.35 77,-195.35 162,-195.35 162,-176.35 77,-176.35"/>
<text text-anchor="middle" x="119.5" y="-183.35" font-family="Helvetica,sans-Serif" font-size="10.00">uoe_top_wrap</text>
</a>
</g>
</g>
<!-- Node19&#45;&gt;Node20 -->
<g id="edge23" class="edge">
<title>Node19&#45;&gt;Node20</title>
<path fill="none" stroke="midnightblue" d="M217.87,-199.56C200.55,-197.12 179.94,-194.22 162.15,-191.72"/>
<polygon fill="midnightblue" stroke="midnightblue" points="217.79,-203.08 228.18,-201.01 218.77,-196.15 217.79,-203.08"/>
</g>
<!-- Node20&#45;&gt;Node8 -->
<g id="edge24" class="edge">
<title>Node20&#45;&gt;Node8</title>
<path fill="none" stroke="midnightblue" d="M93.24,-200.4C87.87,-203.51 82.24,-206.78 77,-209.85 63.66,-217.68 48.57,-226.66 37.5,-233.27"/>
<polygon fill="midnightblue" stroke="midnightblue" points="95.01,-203.42 101.91,-195.39 91.5,-197.36 95.01,-203.42"/>
</g>
<!-- Node22 -->
<g id="node22" class="node">
<title>Node22</title>
<g id="a_node22"><a xlink:href="group__NTS__UOE.html#ga0f2f0d19a54d57f63fe33700654988f8" target="_top" xlink:title=" ">
<polygon fill="none" stroke="black" points="443.5,-176.35 443.5,-195.35 511.5,-195.35 511.5,-176.35 443.5,-176.35"/>
<text text-anchor="middle" x="477.5" y="-183.35" font-family="Helvetica,sans-Serif" font-size="10.00">pRxEngine</text>
</a>
</g>
</g>
<!-- Node21&#45;&gt;Node22 -->
<g id="edge26" class="edge">
<title>Node21&#45;&gt;Node22</title>
<path fill="none" stroke="midnightblue" d="M577.28,-185.85C555.04,-185.85 530.78,-185.85 511.87,-185.85"/>
<polygon fill="midnightblue" stroke="midnightblue" points="577.33,-189.35 587.33,-185.85 577.33,-182.35 577.33,-189.35"/>
</g>
<!-- Node22&#45;&gt;Node18 -->
<g id="edge27" class="edge">
<title>Node22&#45;&gt;Node18</title>
<path fill="none" stroke="midnightblue" d="M433.29,-193.75C417.71,-196.6 401.05,-199.64 389.12,-201.82"/>
<polygon fill="midnightblue" stroke="midnightblue" points="434.1,-197.16 443.31,-191.92 432.84,-190.27 434.1,-197.16"/>
</g>
<!-- Node23&#45;&gt;Node17 -->
<g id="edge29" class="edge">
<title>Node23&#45;&gt;Node17</title>
<path fill="none" stroke="midnightblue" d="M588.77,-249.96C563.64,-244.01 533.94,-236.98 511.69,-231.71"/>
<polygon fill="midnightblue" stroke="midnightblue" points="587.96,-253.37 598.5,-252.27 589.57,-246.56 587.96,-253.37"/>
</g>
<!-- Node24&#45;&gt;Node15 -->
<g id="edge31" class="edge">
<title>Node24&#45;&gt;Node15</title>
<path fill="none" stroke="midnightblue" d="M761.88,-273.61C737.13,-278.98 708.2,-285.26 684.84,-290.33"/>
<polygon fill="midnightblue" stroke="midnightblue" points="762.81,-276.99 771.84,-271.44 761.33,-270.15 762.81,-276.99"/>
</g>
<!-- Node24&#45;&gt;Node16 -->
<g id="edge32" class="edge">
<title>Node24&#45;&gt;Node16</title>
<path fill="none" stroke="midnightblue" d="M761.88,-250.1C737.13,-244.73 708.2,-238.45 684.84,-233.37"/>
<polygon fill="midnightblue" stroke="midnightblue" points="761.33,-253.56 771.84,-252.27 762.81,-246.72 761.33,-253.56"/>
</g>
<!-- Node24&#45;&gt;Node21 -->
<g id="edge33" class="edge">
<title>Node24&#45;&gt;Node21</title>
<path fill="none" stroke="midnightblue" d="M763.82,-248.52C760.05,-246.83 756.4,-244.95 753,-242.85 733.2,-230.64 737.09,-216.59 717,-204.85 709.6,-200.53 701.24,-197.19 692.84,-194.6"/>
<polygon fill="midnightblue" stroke="midnightblue" points="762.76,-251.86 773.34,-252.3 765.34,-245.36 762.76,-251.86"/>
</g>
<!-- Node24&#45;&gt;Node23 -->
<g id="edge34" class="edge">
<title>Node24&#45;&gt;Node23</title>
<path fill="none" stroke="midnightblue" d="M746.08,-261.85C731.17,-261.85 715.56,-261.85 701.06,-261.85"/>
<polygon fill="midnightblue" stroke="midnightblue" points="746.26,-265.35 756.26,-261.85 746.26,-258.35 746.26,-265.35"/>
</g>
<!-- Node26 -->
<g id="node26" class="node">
<title>Node26</title>
<g id="a_node26"><a xlink:href="group__NAL.html#ga5e4b85fe70c370ddbeef8ae11fe6d336" target="_top" xlink:title="Emulate the behavior of the FMC.">
<polygon fill="none" stroke="black" points="618,-100.35 618,-119.35 662,-119.35 662,-100.35 618,-100.35"/>
<text text-anchor="middle" x="640" y="-107.35" font-family="Helvetica,sans-Serif" font-size="10.00">pFMC</text>
</a>
</g>
</g>
<!-- Node25&#45;&gt;Node26 -->
<g id="edge37" class="edge">
<title>Node25&#45;&gt;Node26</title>
<path fill="none" stroke="midnightblue" d="M766.82,-82.53C732.3,-90.03 687.86,-99.68 662.09,-105.28"/>
<polygon fill="midnightblue" stroke="midnightblue" points="767.7,-85.92 776.73,-80.38 766.21,-79.08 767.7,-85.92"/>
</g>
<!-- Node27 -->
<g id="node27" class="node">
<title>Node27</title>
<g id="a_node27"><a xlink:href="group__NAL.html#ga3ec86a0286ba43e4a10f3f7d9e240aad" target="_top" xlink:title="Emulate the behavior of the ROLE.">
<polygon fill="none" stroke="black" points="616,-62.35 616,-81.35 664,-81.35 664,-62.35 616,-62.35"/>
<text text-anchor="middle" x="640" y="-69.35" font-family="Helvetica,sans-Serif" font-size="10.00">pROLE</text>
</a>
</g>
</g>
<!-- Node25&#45;&gt;Node27 -->
<g id="edge39" class="edge">
<title>Node25&#45;&gt;Node27</title>
<path fill="none" stroke="midnightblue" d="M766.62,-71.85C732.99,-71.85 690.02,-71.85 664.05,-71.85"/>
<polygon fill="midnightblue" stroke="midnightblue" points="766.73,-75.35 776.73,-71.85 766.73,-68.35 766.73,-75.35"/>
</g>
<!-- Node28 -->
<g id="node28" class="node">
<title>Node28</title>
<g id="a_node28"><a xlink:href="group__NAL.html#ga54430111c6e15adab440e5c58f8ea536" target="_top" xlink:title=" ">
<polygon fill="none" stroke="black" points="619,-24.35 619,-43.35 661,-43.35 661,-24.35 619,-24.35"/>
<text text-anchor="middle" x="640" y="-31.35" font-family="Helvetica,sans-Serif" font-size="10.00">pTOE</text>
</a>
</g>
</g>
<!-- Node25&#45;&gt;Node28 -->
<g id="edge41" class="edge">
<title>Node25&#45;&gt;Node28</title>
<path fill="none" stroke="midnightblue" d="M766.7,-61.15C731.77,-53.56 686.72,-43.78 661.13,-38.23"/>
<polygon fill="midnightblue" stroke="midnightblue" points="766.21,-64.62 776.73,-63.33 767.7,-57.78 766.21,-64.62"/>
</g>
<!-- Node26&#45;&gt;Node13 -->
<g id="edge38" class="edge">
<title>Node26&#45;&gt;Node13</title>
<path fill="none" stroke="midnightblue" d="M607.81,-102.47C575.34,-94.78 525.49,-82.98 498.14,-76.5"/>
<polygon fill="midnightblue" stroke="midnightblue" points="607.15,-105.91 617.69,-104.81 608.76,-99.1 607.15,-105.91"/>
</g>
<!-- Node27&#45;&gt;Node13 -->
<g id="edge40" class="edge">
<title>Node27&#45;&gt;Node13</title>
<path fill="none" stroke="midnightblue" d="M605.32,-71.85C572.92,-71.85 525.02,-71.85 498.32,-71.85"/>
<polygon fill="midnightblue" stroke="midnightblue" points="605.66,-75.35 615.66,-71.85 605.66,-68.35 605.66,-75.35"/>
</g>
<!-- Node28&#45;&gt;Node13 -->
<g id="edge42" class="edge">
<title>Node28&#45;&gt;Node13</title>
<path fill="none" stroke="midnightblue" d="M609.19,-40.91C576.81,-48.58 526.02,-60.6 498.25,-67.18"/>
<polygon fill="midnightblue" stroke="midnightblue" points="610.07,-44.3 619,-38.59 608.46,-37.49 610.07,-44.3"/>
</g>
<!-- Node29&#45;&gt;Node13 -->
<g id="edge44" class="edge">
<title>Node29&#45;&gt;Node13</title>
<path fill="none" stroke="midnightblue" d="M749.24,-4.39C697.3,1.28 624.04,3.81 563,-14.85 532.54,-24.17 503.14,-48.56 488.37,-62.23"/>
<polygon fill="midnightblue" stroke="midnightblue" points="749,-7.88 759.33,-5.56 749.8,-0.93 749,-7.88"/>
</g>
</g>
</svg>
        <g id="navigator" transform="translate(0 0)" fill="#404254">
                <rect fill="#f2f5e9" fill-opacity="0.5" stroke="#606060" stroke-width=".5" x="0" y="0" width="60" height="60"/>
                <use id="zoomplus" xlink:href="#zoomPlus" x="17" y="9" onmousedown="handleZoom(evt,'in')"/>
                <use id="zoomminus" xlink:href="#zoomMin" x="42" y="9" onmousedown="handleZoom(evt,'out')"/>
                <use id="reset" xlink:href="#resetDef" x="30" y="36" onmousedown="handleReset()"/>
                <g id="arrowUp" xlink:href="#dirArrow" transform="translate(30 24)" onmousedown="handlePan(0,-1)">
                  <use xlink:href="#rim" fill="#404040">
                        <set attributeName="fill" to="#808080" begin="arrowUp.mouseover" end="arrowUp.mouseout"/>
                  </use>
                  <path fill="none" stroke="white" stroke-width="1.5" d="M0,-3.0v7 M-2.5,-0.5L0,-3.0L2.5,-0.5"/>
                </g>
                <g id="arrowRight" xlink:href="#dirArrow" transform="rotate(90) translate(36 -43)" onmousedown="handlePan(1,0)">
                  <use xlink:href="#rim" fill="#404040">
                        <set attributeName="fill" to="#808080" begin="arrowRight.mouseover" end="arrowRight.mouseout"/>
                  </use>
                  <path fill="none" stroke="white" stroke-width="1.5" d="M0,-3.0v7 M-2.5,-0.5L0,-3.0L2.5,-0.5"/>
                </g>
                <g id="arrowDown" xlink:href="#dirArrow" transform="rotate(180) translate(-30 -48)" onmousedown="handlePan(0,1)">
                  <use xlink:href="#rim" fill="#404040">
                        <set attributeName="fill" to="#808080" begin="arrowDown.mouseover" end="arrowDown.mouseout"/>
                  </use>
                  <path fill="none" stroke="white" stroke-width="1.5" d="M0,-3.0v7 M-2.5,-0.5L0,-3.0L2.5,-0.5"/>
                </g>
                <g id="arrowLeft" xlink:href="#dirArrow" transform="rotate(270) translate(-36 17)" onmousedown="handlePan(-1,0)">
                  <use xlink:href="#rim" fill="#404040">
                        <set attributeName="fill" to="#808080" begin="arrowLeft.mouseover" end="arrowLeft.mouseout"/>
                  </use>
                  <path fill="none" stroke="white" stroke-width="1.5" d="M0,-3.0v7 M-2.5,-0.5L0,-3.0L2.5,-0.5"/>
                </g>
        </g>
        <svg viewBox="0 0 15 15" width="100%" height="30px" preserveAspectRatio="xMaxYMin meet">
         <g id="arrow_out" transform="scale(0.3 0.3)">
          <a xlink:href="classAxisRaw_acb10d569e10f95bdd0be0af34ce605bd_icgraph_org.svg" target="_base">
           <rect id="button" ry="5" rx="5" y="6" x="6" height="38" width="38"
                fill="#f2f5e9" fill-opacity="0.5" stroke="#606060" stroke-width="1.0"/>
           <path id="arrow"
             d="M 11.500037,31.436501 C 11.940474,20.09759 22.043105,11.32322 32.158766,21.979434 L 37.068811,17.246167 C 37.068811,17.246167 37.088388,32 37.088388,32 L 22.160133,31.978069 C 22.160133,31.978069 26.997745,27.140456 26.997745,27.140456 C 18.528582,18.264221 13.291696,25.230495 11.500037,31.436501 z"
             style="fill:#404040;"/>
          </a>
         </g>
        </svg>
</svg>
