<?xml version="1.0" encoding="UTF-8" standalone="no"?>
<!DOCTYPE svg PUBLIC "-//W3C//DTD SVG 1.1//EN"
 "http://www.w3.org/Graphics/SVG/1.1/DTD/svg11.dtd">
<!-- Generated by graphviz version 2.43.0 (0)
 -->
<!-- Title: AxisIp4::setIp4TotalLen Pages: 1 -->
<!--zoomable 151 -->
<svg id="main" version="1.1" xmlns="http://www.w3.org/2000/svg" xmlns:xlink="http://www.w3.org/1999/xlink" xml:space="preserve" onload="init(evt)">
<style type="text/css"><![CDATA[
.edge:hover path { stroke: red; }
.edge:hover polygon { stroke: red; fill: red; }
]]></style>
<script type="text/javascript"><![CDATA[
var edges = document.getElementsByTagName('g');
if (edges && edges.length) {
  for (var i=0;i<edges.length;i++) {
    if (edges[i].id.substr(0,4)=='edge') {
      edges[i].setAttribute('class','edge');
    }
  }
}
]]></script>
        <defs>
                <circle id="rim" cx="0" cy="0" r="7"/>
                <circle id="rim2" cx="0" cy="0" r="3.5"/>
                <g id="zoomPlus">
                        <use xlink:href="#rim" fill="#404040">
                                <set attributeName="fill" to="#808080" begin="zoomplus.mouseover" end="zoomplus.mouseout"/>
                        </use>
                        <path d="M-4,0h8M0,-4v8" fill="none" stroke="white" stroke-width="1.5" pointer-events="none"/>
                </g>
                <g id="zoomMin">
                        <use xlink:href="#rim" fill="#404040">
                                <set attributeName="fill" to="#808080" begin="zoomminus.mouseover" end="zoomminus.mouseout"/>
                        </use>
                        <path d="M-4,0h8" fill="none" stroke="white" stroke-width="1.5" pointer-events="none"/>
                </g>
                <g id="dirArrow">
                        <path fill="none" stroke="white" stroke-width="1.5" d="M0,-3.0v7 M-2.5,-0.5L0,-3.0L2.5,-0.5"/>
                </g>
               <g id="resetDef">
                       <use xlink:href="#rim2" fill="#404040">
                               <set attributeName="fill" to="#808080" begin="reset.mouseover" end="reset.mouseout"/>
                       </use>
               </g>
        </defs>

<script type="text/javascript">
var viewWidth = 823;
var viewHeight = 151;
var sectionId = 'dynsection-28';
</script>
<script xlink:href="svgpan.js"/>
<svg id="graph" class="graph">
<g id="viewport">
<title>AxisIp4::setIp4TotalLen</title>
<!-- Node1 -->
<g id="node1" class="node">
<title>Node1</title>
<g id="a_node1"><a xlink:title=" ">
<polygon fill="#bfbfbf" stroke="black" points="686,-73.5 686,-92.5 815,-92.5 815,-73.5 686,-73.5"/>
<text text-anchor="middle" x="750.5" y="-80.5" font-family="Helvetica,sans-Serif" font-size="10.00">AxisIp4::setIp4TotalLen</text>
</a>
</g>
</g>
<!-- Node2 -->
<g id="node2" class="node">
<title>Node2</title>
<g id="a_node2"><a xlink:href="group__NTS__UOE.html#ga2bfd00650e9f0cc4d8440d60e013f8be" target="_top" xlink:title=" ">
<polygon fill="none" stroke="black" points="538,-112.5 538,-131.5 639,-131.5 639,-112.5 538,-112.5"/>
<text text-anchor="middle" x="588.5" y="-119.5" font-family="Helvetica,sans-Serif" font-size="10.00">pIp4HeaderAdder</text>
</a>
</g>
</g>
<!-- Node1&#45;&gt;Node2 -->
<g id="edge1" class="edge">
<title>Node1&#45;&gt;Node2</title>
<path fill="none" stroke="midnightblue" d="M700.41,-94.97C677.32,-100.59 650.17,-107.21 628.51,-112.49"/>
<polygon fill="midnightblue" stroke="midnightblue" points="701.47,-98.31 710.36,-92.54 699.82,-91.51 701.47,-98.31"/>
</g>
<!-- Node8 -->
<g id="node8" class="node">
<title>Node8</title>
<g id="a_node8"><a xlink:href="group__NTS__ICMP.html#ga714464fcd91343268264b188c34d4026" target="_top" xlink:title=" ">
<polygon fill="none" stroke="black" points="532,-73.5 532,-92.5 645,-92.5 645,-73.5 532,-73.5"/>
<text text-anchor="middle" x="588.5" y="-80.5" font-family="Helvetica,sans-Serif" font-size="10.00">pIpHeaderAppender</text>
</a>
</g>
</g>
<!-- Node1&#45;&gt;Node8 -->
<g id="edge8" class="edge">
<title>Node1&#45;&gt;Node8</title>
<path fill="none" stroke="midnightblue" d="M675.64,-83C665.41,-83 655.05,-83 645.22,-83"/>
<polygon fill="midnightblue" stroke="midnightblue" points="675.8,-86.5 685.8,-83 675.8,-79.5 675.8,-86.5"/>
</g>
<!-- Node13 -->
<g id="node13" class="node">
<title>Node13</title>
<g id="a_node13"><a xlink:href="group__NTS__TOE.html#ga9cec5277fb0152a5f683ca830e84fc2e" target="_top" xlink:title="IPv4 Header Constructor (Ihc)">
<polygon fill="none" stroke="black" points="527,-33.5 527,-52.5 650,-52.5 650,-33.5 527,-33.5"/>
<text text-anchor="middle" x="588.5" y="-40.5" font-family="Helvetica,sans-Serif" font-size="10.00">pIpHeaderConstructor</text>
</a>
</g>
</g>
<!-- Node1&#45;&gt;Node13 -->
<g id="edge14" class="edge">
<title>Node1&#45;&gt;Node13</title>
<path fill="none" stroke="midnightblue" d="M701.34,-70.96C677.7,-65.05 649.62,-58.03 627.51,-52.5"/>
<polygon fill="midnightblue" stroke="midnightblue" points="700.63,-74.39 711.18,-73.42 702.32,-67.6 700.63,-74.39"/>
</g>
<!-- Node3 -->
<g id="node3" class="node">
<title>Node3</title>
<g id="a_node3"><a xlink:href="group__NTS__UOE.html#ga857a71b260dfd52bf76ffdcd4260aeae" target="_top" xlink:title=" ">
<polygon fill="none" stroke="black" points="423,-112.5 423,-131.5 491,-131.5 491,-112.5 423,-112.5"/>
<text text-anchor="middle" x="457" y="-119.5" font-family="Helvetica,sans-Serif" font-size="10.00">pTxEngine</text>
</a>
</g>
</g>
<!-- Node2&#45;&gt;Node3 -->
<g id="edge2" class="edge">
<title>Node2&#45;&gt;Node3</title>
<path fill="none" stroke="midnightblue" d="M527.46,-122C515.04,-122 502.38,-122 491.34,-122"/>
<polygon fill="midnightblue" stroke="midnightblue" points="527.8,-125.5 537.8,-122 527.8,-118.5 527.8,-125.5"/>
</g>
<!-- Node4 -->
<g id="node4" class="node">
<title>Node4</title>
<g id="a_node4"><a xlink:href="group__NTS__UOE.html#ga84101607ce156850e4f7426c8be83a2b" target="_top" xlink:title="Main process of the UDP Offload Engine (UOE).">
<polygon fill="none" stroke="black" points="338.5,-112.5 338.5,-131.5 373.5,-131.5 373.5,-112.5 338.5,-112.5"/>
<text text-anchor="middle" x="356" y="-119.5" font-family="Helvetica,sans-Serif" font-size="10.00">uoe</text>
</a>
</g>
</g>
<!-- Node3&#45;&gt;Node4 -->
<g id="edge3" class="edge">
<title>Node3&#45;&gt;Node4</title>
<path fill="none" stroke="midnightblue" d="M412.43,-122C398.67,-122 384.29,-122 373.63,-122"/>
<polygon fill="midnightblue" stroke="midnightblue" points="412.76,-125.5 422.76,-122 412.76,-118.5 412.76,-125.5"/>
</g>
<!-- Node5 -->
<g id="node5" class="node">
<title>Node5</title>
<g id="a_node5"><a xlink:href="group__NTS__UOE.html#ga5d9bd6d46b41ba8787888e1e6bfb0d41" target="_top" xlink:title="Top of UDP Offload Engine (UOE)">
<polygon fill="none" stroke="black" points="215.5,-114.5 215.5,-133.5 271.5,-133.5 271.5,-114.5 215.5,-114.5"/>
<text text-anchor="middle" x="243.5" y="-121.5" font-family="Helvetica,sans-Serif" font-size="10.00">uoe_top</text>
</a>
</g>
</g>
<!-- Node4&#45;&gt;Node5 -->
<g id="edge4" class="edge">
<title>Node4&#45;&gt;Node5</title>
<path fill="none" stroke="midnightblue" d="M327.81,-122.49C310.76,-122.8 288.85,-123.2 271.77,-123.51"/>
<polygon fill="midnightblue" stroke="midnightblue" points="328.28,-125.98 338.22,-122.3 328.16,-118.99 328.28,-125.98"/>
</g>
<!-- Node6 -->
<g id="node6" class="node">
<title>Node6</title>
<g id="a_node6"><a xlink:href="group__NTS__UOE__TEST.html#ga0ddf1224851353fc92bfbff6f499fa97" target="_top" xlink:title="Main function.">
<polygon fill="none" stroke="black" points="0,-123.5 0,-142.5 41,-142.5 41,-123.5 0,-123.5"/>
<text text-anchor="middle" x="20.5" y="-130.5" font-family="Helvetica,sans-Serif" font-size="10.00">main</text>
</a>
</g>
</g>
<!-- Node5&#45;&gt;Node6 -->
<g id="edge5" class="edge">
<title>Node5&#45;&gt;Node6</title>
<path fill="none" stroke="midnightblue" d="M205.38,-129.02C191.77,-130.64 176.21,-132.21 162,-133 118.89,-135.4 68.23,-134.48 41.07,-133.69"/>
<polygon fill="midnightblue" stroke="midnightblue" points="205.86,-132.49 215.36,-127.8 205.01,-125.54 205.86,-132.49"/>
</g>
<!-- Node7 -->
<g id="node7" class="node">
<title>Node7</title>
<g id="a_node7"><a xlink:href="group__NTS__UOE__TEST.html#ga0bfd8cabf14df12bd23594b44ea70b16" target="_top" xlink:title="A wrapper for the Toplevel of the UDP Offload Engine (UOE)">
<polygon fill="none" stroke="black" points="77,-104.5 77,-123.5 162,-123.5 162,-104.5 77,-104.5"/>
<text text-anchor="middle" x="119.5" y="-111.5" font-family="Helvetica,sans-Serif" font-size="10.00">uoe_top_wrap</text>
</a>
</g>
</g>
<!-- Node5&#45;&gt;Node7 -->
<g id="edge6" class="edge">
<title>Node5&#45;&gt;Node7</title>
<path fill="none" stroke="midnightblue" d="M205.45,-120.96C191.85,-119.85 176.36,-118.58 162.36,-117.43"/>
<polygon fill="midnightblue" stroke="midnightblue" points="205.17,-124.45 215.42,-121.78 205.74,-117.48 205.17,-124.45"/>
</g>
<!-- Node7&#45;&gt;Node6 -->
<g id="edge7" class="edge">
<title>Node7&#45;&gt;Node6</title>
<path fill="none" stroke="midnightblue" d="M66.83,-124.12C57.64,-125.92 48.61,-127.69 41.05,-129.17"/>
<polygon fill="midnightblue" stroke="midnightblue" points="67.66,-127.53 76.8,-122.17 66.31,-120.66 67.66,-127.53"/>
</g>
<!-- Node9 -->
<g id="node9" class="node">
<title>Node9</title>
<g id="a_node9"><a xlink:href="group__NTS__ICMP.html#gaa1fbe125ee59fc3f93c7cf0b3dc045a5" target="_top" xlink:title="Main process of the Internet Control Message Protocol (ICMP) Server.">
<polygon fill="none" stroke="black" points="436.5,-73.5 436.5,-92.5 477.5,-92.5 477.5,-73.5 436.5,-73.5"/>
<text text-anchor="middle" x="457" y="-80.5" font-family="Helvetica,sans-Serif" font-size="10.00">icmp</text>
</a>
</g>
</g>
<!-- Node8&#45;&gt;Node9 -->
<g id="edge9" class="edge">
<title>Node8&#45;&gt;Node9</title>
<path fill="none" stroke="midnightblue" d="M521.8,-83C505.65,-83 489.58,-83 477.61,-83"/>
<polygon fill="midnightblue" stroke="midnightblue" points="521.83,-86.5 531.83,-83 521.83,-79.5 521.83,-86.5"/>
</g>
<!-- Node10 -->
<g id="node10" class="node">
<title>Node10</title>
<g id="a_node10"><a xlink:href="group__NTS__ICMP.html#ga3c54cc21d2386d572cf73472661b22d4" target="_top" xlink:title="Top of the Internet Control Message Protocol (ICMP) Server.">
<polygon fill="none" stroke="black" points="325,-73.5 325,-92.5 387,-92.5 387,-73.5 325,-73.5"/>
<text text-anchor="middle" x="356" y="-80.5" font-family="Helvetica,sans-Serif" font-size="10.00">icmp_top</text>
</a>
</g>
</g>
<!-- Node9&#45;&gt;Node10 -->
<g id="edge10" class="edge">
<title>Node9&#45;&gt;Node10</title>
<path fill="none" stroke="midnightblue" d="M426.17,-83C413.79,-83 399.45,-83 387.05,-83"/>
<polygon fill="midnightblue" stroke="midnightblue" points="426.44,-86.5 436.44,-83 426.44,-79.5 426.44,-86.5"/>
</g>
<!-- Node11 -->
<g id="node11" class="node">
<title>Node11</title>
<g id="a_node11"><a xlink:href="group__NTS__ICMP__TEST.html#ga32bc9c115ea573de78b3d47cc1535acb" target="_top" xlink:title="A wrapper for Toplevel of Internet Control Message Protocol (ICMP).">
<polygon fill="none" stroke="black" points="198,-76.5 198,-95.5 289,-95.5 289,-76.5 198,-76.5"/>
<text text-anchor="middle" x="243.5" y="-83.5" font-family="Helvetica,sans-Serif" font-size="10.00">icmp_top_wrap</text>
</a>
</g>
</g>
<!-- Node10&#45;&gt;Node11 -->
<g id="edge11" class="edge">
<title>Node10&#45;&gt;Node11</title>
<path fill="none" stroke="midnightblue" d="M314.63,-84.1C306.35,-84.32 297.59,-84.56 289.17,-84.79"/>
<polygon fill="midnightblue" stroke="midnightblue" points="314.9,-87.59 324.81,-83.82 314.71,-80.59 314.9,-87.59"/>
</g>
<!-- Node12 -->
<g id="node12" class="node">
<title>Node12</title>
<g id="a_node12"><a xlink:href="group__NTS__ICMP__TEST.html#ga0ddf1224851353fc92bfbff6f499fa97" target="_top" xlink:title="Main function.">
<polygon fill="none" stroke="black" points="99,-57.5 99,-76.5 140,-76.5 140,-57.5 99,-57.5"/>
<text text-anchor="middle" x="119.5" y="-64.5" font-family="Helvetica,sans-Serif" font-size="10.00">main</text>
</a>
</g>
</g>
<!-- Node10&#45;&gt;Node12 -->
<g id="edge13" class="edge">
<title>Node10&#45;&gt;Node12</title>
<path fill="none" stroke="midnightblue" d="M315,-71.69C306.48,-69.74 297.5,-68.02 289,-67 235.41,-60.6 171.54,-63.42 140.05,-65.5"/>
<polygon fill="midnightblue" stroke="midnightblue" points="314.17,-75.1 324.72,-74.06 315.83,-68.29 314.17,-75.1"/>
</g>
<!-- Node11&#45;&gt;Node12 -->
<g id="edge12" class="edge">
<title>Node11&#45;&gt;Node12</title>
<path fill="none" stroke="midnightblue" d="M187.83,-77.49C170.76,-74.83 153.02,-72.06 140.04,-70.04"/>
<polygon fill="midnightblue" stroke="midnightblue" points="187.34,-80.95 197.76,-79.03 188.42,-74.04 187.34,-80.95"/>
</g>
<!-- Node14 -->
<g id="node14" class="node">
<title>Node14</title>
<g id="a_node14"><a xlink:href="group__NTS__TOE.html#gab7ba01372a1e4397ba0ce6d9cbb398eb" target="_top" xlink:title="Transmit Engine (TXe)">
<polygon fill="none" stroke="black" points="424.5,-28.5 424.5,-47.5 489.5,-47.5 489.5,-28.5 424.5,-28.5"/>
<text text-anchor="middle" x="457" y="-35.5" font-family="Helvetica,sans-Serif" font-size="10.00">tx_engine</text>
</a>
</g>
</g>
<!-- Node13&#45;&gt;Node14 -->
<g id="edge15" class="edge">
<title>Node13&#45;&gt;Node14</title>
<path fill="none" stroke="midnightblue" d="M516.63,-40.26C507.18,-39.9 497.9,-39.54 489.61,-39.22"/>
<polygon fill="midnightblue" stroke="midnightblue" points="516.79,-43.77 526.92,-40.66 517.06,-36.78 516.79,-43.77"/>
</g>
<!-- Node15 -->
<g id="node15" class="node">
<title>Node15</title>
<g id="a_node15"><a xlink:href="group__NTS__TOE.html#ga1d48efdcf37aa3803a7f7444fe485c9f" target="_top" xlink:title="Main process of the TCP Offload Engine (TOE0.">
<polygon fill="none" stroke="black" points="340,-19.5 340,-38.5 372,-38.5 372,-19.5 340,-19.5"/>
<text text-anchor="middle" x="356" y="-26.5" font-family="Helvetica,sans-Serif" font-size="10.00">toe</text>
</a>
</g>
</g>
<!-- Node14&#45;&gt;Node15 -->
<g id="edge16" class="edge">
<title>Node14&#45;&gt;Node15</title>
<path fill="none" stroke="midnightblue" d="M414.24,-34.2C399.23,-32.84 383.26,-31.39 372,-30.36"/>
<polygon fill="midnightblue" stroke="midnightblue" points="414.13,-37.71 424.4,-35.13 414.76,-30.74 414.13,-37.71"/>
</g>
<!-- Node16 -->
<g id="node16" class="node">
<title>Node16</title>
<g id="a_node16"><a xlink:href="group__NTS__TOE.html#gab3d23260a8a037543d01f716091df7e8" target="_top" xlink:title="Top of TCP Offload Engine (TOE)">
<polygon fill="none" stroke="black" points="217,-0.5 217,-19.5 270,-19.5 270,-0.5 217,-0.5"/>
<text text-anchor="middle" x="243.5" y="-7.5" font-family="Helvetica,sans-Serif" font-size="10.00">toe_top</text>
</a>
</g>
</g>
<!-- Node15&#45;&gt;Node16 -->
<g id="edge17" class="edge">
<title>Node15&#45;&gt;Node16</title>
<path fill="none" stroke="midnightblue" d="M329.69,-24.65C311.92,-21.59 288.23,-17.52 270.35,-14.44"/>
<polygon fill="midnightblue" stroke="midnightblue" points="329.19,-28.11 339.64,-26.36 330.37,-21.21 329.19,-28.11"/>
</g>
<!-- Node17 -->
<g id="node17" class="node">
<title>Node17</title>
<g id="a_node17"><a xlink:href="group__NTS__TOE__TEST.html#gae95a90fdba9993f0d4e2f27cd94f22e2" target="_top" xlink:title="A wrapper for the Toplevel of the TCP Offload Engine (TOE).">
<polygon fill="none" stroke="black" points="78,-0.5 78,-19.5 161,-19.5 161,-0.5 78,-0.5"/>
<text text-anchor="middle" x="119.5" y="-7.5" font-family="Helvetica,sans-Serif" font-size="10.00">toe_top_wrap</text>
</a>
</g>
</g>
<!-- Node16&#45;&gt;Node17 -->
<g id="edge18" class="edge">
<title>Node16&#45;&gt;Node17</title>
<path fill="none" stroke="midnightblue" d="M206.58,-10C192.4,-10 176.04,-10 161.41,-10"/>
<polygon fill="midnightblue" stroke="midnightblue" points="206.92,-13.5 216.92,-10 206.92,-6.5 206.92,-13.5"/>
</g>
</g>
</svg>
        <g id="navigator" transform="translate(0 0)" fill="#404254">
                <rect fill="#f2f5e9" fill-opacity="0.5" stroke="#606060" stroke-width=".5" x="0" y="0" width="60" height="60"/>
                <use id="zoomplus" xlink:href="#zoomPlus" x="17" y="9" onmousedown="handleZoom(evt,'in')"/>
                <use id="zoomminus" xlink:href="#zoomMin" x="42" y="9" onmousedown="handleZoom(evt,'out')"/>
                <use id="reset" xlink:href="#resetDef" x="30" y="36" onmousedown="handleReset()"/>
                <g id="arrowUp" xlink:href="#dirArrow" transform="translate(30 24)" onmousedown="handlePan(0,-1)">
                  <use xlink:href="#rim" fill="#404040">
                        <set attributeName="fill" to="#808080" begin="arrowUp.mouseover" end="arrowUp.mouseout"/>
                  </use>
                  <path fill="none" stroke="white" stroke-width="1.5" d="M0,-3.0v7 M-2.5,-0.5L0,-3.0L2.5,-0.5"/>
                </g>
                <g id="arrowRight" xlink:href="#dirArrow" transform="rotate(90) translate(36 -43)" onmousedown="handlePan(1,0)">
                  <use xlink:href="#rim" fill="#404040">
                        <set attributeName="fill" to="#808080" begin="arrowRight.mouseover" end="arrowRight.mouseout"/>
                  </use>
                  <path fill="none" stroke="white" stroke-width="1.5" d="M0,-3.0v7 M-2.5,-0.5L0,-3.0L2.5,-0.5"/>
                </g>
                <g id="arrowDown" xlink:href="#dirArrow" transform="rotate(180) translate(-30 -48)" onmousedown="handlePan(0,1)">
                  <use xlink:href="#rim" fill="#404040">
                        <set attributeName="fill" to="#808080" begin="arrowDown.mouseover" end="arrowDown.mouseout"/>
                  </use>
                  <path fill="none" stroke="white" stroke-width="1.5" d="M0,-3.0v7 M-2.5,-0.5L0,-3.0L2.5,-0.5"/>
                </g>
                <g id="arrowLeft" xlink:href="#dirArrow" transform="rotate(270) translate(-36 17)" onmousedown="handlePan(-1,0)">
                  <use xlink:href="#rim" fill="#404040">
                        <set attributeName="fill" to="#808080" begin="arrowLeft.mouseover" end="arrowLeft.mouseout"/>
                  </use>
                  <path fill="none" stroke="white" stroke-width="1.5" d="M0,-3.0v7 M-2.5,-0.5L0,-3.0L2.5,-0.5"/>
                </g>
        </g>
        <svg viewBox="0 0 15 15" width="100%" height="30px" preserveAspectRatio="xMaxYMin meet">
         <g id="arrow_out" transform="scale(0.3 0.3)">
          <a xlink:href="classAxisIp4_a88aa6b72c8593baed8f6c4837d7b394f_icgraph_org.svg" target="_base">
           <rect id="button" ry="5" rx="5" y="6" x="6" height="38" width="38"
                fill="#f2f5e9" fill-opacity="0.5" stroke="#606060" stroke-width="1.0"/>
           <path id="arrow"
             d="M 11.500037,31.436501 C 11.940474,20.09759 22.043105,11.32322 32.158766,21.979434 L 37.068811,17.246167 C 37.068811,17.246167 37.088388,32 37.088388,32 L 22.160133,31.978069 C 22.160133,31.978069 26.997745,27.140456 26.997745,27.140456 C 18.528582,18.264221 13.291696,25.230495 11.500037,31.436501 z"
             style="fill:#404040;"/>
          </a>
         </g>
        </svg>
</svg>
