<?xml version="1.0" encoding="UTF-8" standalone="no"?>
<!DOCTYPE svg PUBLIC "-//W3C//DTD SVG 1.1//EN"
 "http://www.w3.org/Graphics/SVG/1.1/DTD/svg11.dtd">
<!-- Generated by graphviz version 2.43.0 (0)
 -->
<!-- Title: SimIp4Packet::clone Pages: 1 -->
<svg width="314pt" height="28pt"
 viewBox="0.00 0.00 314.00 28.00" xmlns="http://www.w3.org/2000/svg" xmlns:xlink="http://www.w3.org/1999/xlink">
<g id="graph0" class="graph" transform="scale(1 1) rotate(0) translate(4 24)">
<title>SimIp4Packet::clone</title>
<!-- Node1 -->
<g id="node1" class="node">
<title>Node1</title>
<g id="a_node1"><a xlink:title="Clone an IP packet.">
<polygon fill="#bfbfbf" stroke="black" points="192,-0.5 192,-19.5 306,-19.5 306,-0.5 192,-0.5"/>
<text text-anchor="middle" x="249" y="-7.5" font-family="Helvetica,sans-Serif" font-size="10.00">SimIp4Packet::clone</text>
</a>
</g>
</g>
<!-- Node2 -->
<g id="node2" class="node">
<title>Node2</title>
<g id="a_node2"><a xlink:href="group__NTS__TOE__TEST.html#ga9a2995ad064c9297d100faa61cd553a9" target="_top" xlink:title="Parse the TCP/IP packets generated by the TOE.">
<polygon fill="none" stroke="black" points="80,-0.5 80,-19.5 156,-19.5 156,-0.5 80,-0.5"/>
<text text-anchor="middle" x="118" y="-7.5" font-family="Helvetica,sans-Serif" font-size="10.00">pIPTX_Parse</text>
</a>
</g>
</g>
<!-- Node1&#45;&gt;Node2 -->
<g id="edge1" class="edge">
<title>Node1&#45;&gt;Node2</title>
<path fill="none" stroke="midnightblue" d="M181.54,-10C172.79,-10 164.09,-10 156.09,-10"/>
<polygon fill="midnightblue" stroke="midnightblue" points="181.79,-13.5 191.79,-10 181.79,-6.5 181.79,-13.5"/>
</g>
<!-- Node3 -->
<g id="node3" class="node">
<title>Node3</title>
<g id="a_node3"><a xlink:href="group__NTS__TOE__TEST.html#ga5555b85edfa105eb62cf20f0dbdf5962" target="_top" xlink:title="Emulate the behavior of the IP Tx Handler (IPTX).">
<polygon fill="none" stroke="black" points="0,-0.5 0,-19.5 44,-19.5 44,-0.5 0,-0.5"/>
<text text-anchor="middle" x="22" y="-7.5" font-family="Helvetica,sans-Serif" font-size="10.00">pIPTX</text>
</a>
</g>
</g>
<!-- Node2&#45;&gt;Node3 -->
<g id="edge2" class="edge">
<title>Node2&#45;&gt;Node3</title>
<path fill="none" stroke="midnightblue" d="M69.78,-10C60.8,-10 51.84,-10 44.19,-10"/>
<polygon fill="midnightblue" stroke="midnightblue" points="69.85,-13.5 79.85,-10 69.85,-6.5 69.85,-13.5"/>
</g>
</g>
</svg>
