<?xml version="1.0" encoding="UTF-8" standalone="no"?>
<!DOCTYPE svg PUBLIC "-//W3C//DTD SVG 1.1//EN"
 "http://www.w3.org/Graphics/SVG/1.1/DTD/svg11.dtd">
<!-- Generated by graphviz version 2.43.0 (0)
 -->
<!-- Title: SimIp4Packet::printHdr Pages: 1 -->
<!--zoomable 1224 -->
<svg id="main" version="1.1" xmlns="http://www.w3.org/2000/svg" xmlns:xlink="http://www.w3.org/1999/xlink" xml:space="preserve" onload="init(evt)">
<style type="text/css"><![CDATA[
.edge:hover path { stroke: red; }
.edge:hover polygon { stroke: red; fill: red; }
]]></style>
<script type="text/javascript"><![CDATA[
var edges = document.getElementsByTagName('g');
if (edges && edges.length) {
  for (var i=0;i<edges.length;i++) {
    if (edges[i].id.substr(0,4)=='edge') {
      edges[i].setAttribute('class','edge');
    }
  }
}
]]></script>
        <defs>
                <circle id="rim" cx="0" cy="0" r="7"/>
                <circle id="rim2" cx="0" cy="0" r="3.5"/>
                <g id="zoomPlus">
                        <use xlink:href="#rim" fill="#404040">
                                <set attributeName="fill" to="#808080" begin="zoomplus.mouseover" end="zoomplus.mouseout"/>
                        </use>
                        <path d="M-4,0h8M0,-4v8" fill="none" stroke="white" stroke-width="1.5" pointer-events="none"/>
                </g>
                <g id="zoomMin">
                        <use xlink:href="#rim" fill="#404040">
                                <set attributeName="fill" to="#808080" begin="zoomminus.mouseover" end="zoomminus.mouseout"/>
                        </use>
                        <path d="M-4,0h8" fill="none" stroke="white" stroke-width="1.5" pointer-events="none"/>
                </g>
                <g id="dirArrow">
                        <path fill="none" stroke="white" stroke-width="1.5" d="M0,-3.0v7 M-2.5,-0.5L0,-3.0L2.5,-0.5"/>
                </g>
               <g id="resetDef">
                       <use xlink:href="#rim2" fill="#404040">
                               <set attributeName="fill" to="#808080" begin="reset.mouseover" end="reset.mouseout"/>
                       </use>
               </g>
        </defs>

<script type="text/javascript">
var viewWidth = 554;
var viewHeight = 1224;
var sectionId = 'dynsection-63';
</script>
<script xlink:href="svgpan.js"/>
<svg id="graph" class="graph">
<g id="viewport">
<title>SimIp4Packet::printHdr</title>
<!-- Node1 -->
<g id="node1" class="node">
<title>Node1</title>
<g id="a_node1"><a xlink:title="Print the header details of an IP packet.">
<polygon fill="#bfbfbf" stroke="black" points="0,-584.5 0,-603.5 128,-603.5 128,-584.5 0,-584.5"/>
<text text-anchor="middle" x="64" y="-591.5" font-family="Helvetica,sans-Serif" font-size="10.00">SimIp4Packet::printHdr</text>
</a>
</g>
</g>
<!-- Node2 -->
<g id="node2" class="node">
<title>Node2</title>
<g id="a_node2"><a xlink:href="udp_8cpp.html#ga3179abf5c515026aad3e82047a1dd9a3" target="_top" xlink:title=" ">
<polygon fill="none" stroke="black" points="223,-1196.5 223,-1215.5 300,-1215.5 300,-1196.5 223,-1196.5"/>
<text text-anchor="middle" x="261.5" y="-1203.5" font-family="Helvetica,sans-Serif" font-size="10.00">byteSwap16</text>
</a>
</g>
</g>
<!-- Node1&#45;&gt;Node2 -->
<g id="edge1" class="edge">
<title>Node1&#45;&gt;Node2</title>
<path fill="none" stroke="midnightblue" d="M65.16,-603.54C66.56,-672.87 78.54,-1099.03 164,-1187 176.53,-1199.9 195.09,-1205.4 212.59,-1207.41"/>
<polygon fill="midnightblue" stroke="midnightblue" points="212.47,-1210.91 222.72,-1208.22 213.03,-1203.93 212.47,-1210.91"/>
</g>
<!-- Node3 -->
<g id="node3" class="node">
<title>Node3</title>
<g id="a_node3"><a xlink:href="udp_8cpp.html#ga2355e0cecd0576470bca0178c4c1aec2" target="_top" xlink:title=" ">
<polygon fill="none" stroke="black" points="223,-1158.5 223,-1177.5 300,-1177.5 300,-1158.5 223,-1158.5"/>
<text text-anchor="middle" x="261.5" y="-1165.5" font-family="Helvetica,sans-Serif" font-size="10.00">byteSwap32</text>
</a>
</g>
</g>
<!-- Node1&#45;&gt;Node3 -->
<g id="edge2" class="edge">
<title>Node1&#45;&gt;Node3</title>
<path fill="none" stroke="midnightblue" d="M65.29,-603.78C67.49,-671.25 83.75,-1067.31 164,-1149 176.6,-1161.83 195.17,-1167.32 212.66,-1169.34"/>
<polygon fill="midnightblue" stroke="midnightblue" points="212.53,-1172.84 222.78,-1170.15 213.1,-1165.86 212.53,-1172.84"/>
</g>
<!-- Node4 -->
<g id="node4" class="node">
<title>Node4</title>
<g id="a_node4"><a xlink:href="classSimIp4Packet.html#ac76b6d7dedd83784c206b40b89a5810e" target="_top" xlink:title=" ">
<polygon fill="none" stroke="black" points="177,-1109 177,-1139 346,-1139 346,-1109 177,-1109"/>
<text text-anchor="start" x="185" y="-1127" font-family="Helvetica,sans-Serif" font-size="10.00">SimIp4Packet::getIpDestination</text>
<text text-anchor="middle" x="261.5" y="-1116" font-family="Helvetica,sans-Serif" font-size="10.00">Address</text>
</a>
</g>
</g>
<!-- Node1&#45;&gt;Node4 -->
<g id="edge3" class="edge">
<title>Node1&#45;&gt;Node4</title>
<path fill="none" stroke="midnightblue" d="M65.51,-603.69C69.08,-667.26 92.15,-1024.42 164,-1100 165.43,-1101.5 166.93,-1102.91 168.51,-1104.25"/>
<polygon fill="midnightblue" stroke="midnightblue" points="166.72,-1107.27 176.89,-1110.23 170.78,-1101.57 166.72,-1107.27"/>
</g>
<!-- Node5 -->
<g id="node5" class="node">
<title>Node5</title>
<g id="a_node5"><a xlink:href="classSimIp4Packet.html#acc0263274e2181868709d471143edbbc" target="_top" xlink:title=" ">
<polygon fill="none" stroke="black" points="182,-1060 182,-1090 341,-1090 341,-1060 182,-1060"/>
<text text-anchor="start" x="190" y="-1078" font-family="Helvetica,sans-Serif" font-size="10.00">SimIp4Packet::getIpFragment</text>
<text text-anchor="middle" x="261.5" y="-1067" font-family="Helvetica,sans-Serif" font-size="10.00">Offset</text>
</a>
</g>
</g>
<!-- Node1&#45;&gt;Node5 -->
<g id="edge4" class="edge">
<title>Node1&#45;&gt;Node5</title>
<path fill="none" stroke="midnightblue" d="M65.72,-603.51C70.4,-663 98.43,-983.41 164,-1051 166.83,-1053.91 169.95,-1056.5 173.29,-1058.78"/>
<polygon fill="midnightblue" stroke="midnightblue" points="171.59,-1061.84 181.99,-1063.87 175.12,-1055.8 171.59,-1061.84"/>
</g>
<!-- Node6 -->
<g id="node6" class="node">
<title>Node6</title>
<g id="a_node6"><a xlink:href="classSimIp4Packet.html#a883315fe88d1fa0e2f5e521f0256c77f" target="_top" xlink:title=" ">
<polygon fill="none" stroke="black" points="187.5,-1011 187.5,-1041 335.5,-1041 335.5,-1011 187.5,-1011"/>
<text text-anchor="start" x="195.5" y="-1029" font-family="Helvetica,sans-Serif" font-size="10.00">SimIp4Packet::getIpHeader</text>
<text text-anchor="middle" x="261.5" y="-1018" font-family="Helvetica,sans-Serif" font-size="10.00">Checksum</text>
</a>
</g>
</g>
<!-- Node1&#45;&gt;Node6 -->
<g id="edge5" class="edge">
<title>Node1&#45;&gt;Node6</title>
<path fill="none" stroke="midnightblue" d="M66,-603.53C72.02,-659.15 105.18,-941.3 164,-1001 168.2,-1005.26 173.03,-1008.83 178.24,-1011.82"/>
<polygon fill="midnightblue" stroke="midnightblue" points="176.81,-1015.01 187.32,-1016.3 179.91,-1008.74 176.81,-1015.01"/>
</g>
<!-- Node7 -->
<g id="node7" class="node">
<title>Node7</title>
<g id="a_node7"><a xlink:href="classSimIp4Packet.html#a6eb293c5610d30169047c8a11bf4b64f" target="_top" xlink:title=" ">
<polygon fill="none" stroke="black" points="173.5,-972.5 173.5,-991.5 349.5,-991.5 349.5,-972.5 173.5,-972.5"/>
<text text-anchor="middle" x="261.5" y="-979.5" font-family="Helvetica,sans-Serif" font-size="10.00">SimIp4Packet::getIpIdentification</text>
</a>
</g>
</g>
<!-- Node1&#45;&gt;Node7 -->
<g id="edge6" class="edge">
<title>Node1&#45;&gt;Node7</title>
<path fill="none" stroke="midnightblue" d="M66.28,-603.54C73.48,-655.67 110.4,-905.56 164,-958 167.83,-961.75 172.16,-964.95 176.8,-967.66"/>
<polygon fill="midnightblue" stroke="midnightblue" points="175.56,-970.96 186.07,-972.32 178.71,-964.71 175.56,-970.96"/>
</g>
<!-- Node8 -->
<g id="node8" class="node">
<title>Node8</title>
<g id="a_node8"><a xlink:href="classSimIp4Packet.html#a7ee25ca44b1cb9e3d375b41c8790dffb" target="_top" xlink:title=" ">
<polygon fill="none" stroke="black" points="395,-927 395,-957 546,-957 546,-927 395,-927"/>
<text text-anchor="start" x="403" y="-945" font-family="Helvetica,sans-Serif" font-size="10.00">SimIp4Packet::getIpInternet</text>
<text text-anchor="middle" x="470.5" y="-934" font-family="Helvetica,sans-Serif" font-size="10.00">HeaderLength</text>
</a>
</g>
</g>
<!-- Node1&#45;&gt;Node8 -->
<g id="edge7" class="edge">
<title>Node1&#45;&gt;Node8</title>
<path fill="none" stroke="midnightblue" d="M66.42,-603.82C73.89,-654.19 110.43,-882.74 164,-925 197.03,-951.05 306.13,-951.38 384.53,-947.83"/>
<polygon fill="midnightblue" stroke="midnightblue" points="385.08,-951.31 394.9,-947.34 384.74,-944.32 385.08,-951.31"/>
</g>
<!-- Node9 -->
<g id="node9" class="node">
<title>Node9</title>
<g id="a_node9"><a xlink:href="classSimIp4Packet.html#aece7b2e0e19d407234b26deeff75f913" target="_top" xlink:title=" ">
<polygon fill="none" stroke="black" points="185.5,-782.5 185.5,-801.5 337.5,-801.5 337.5,-782.5 185.5,-782.5"/>
<text text-anchor="middle" x="261.5" y="-789.5" font-family="Helvetica,sans-Serif" font-size="10.00">SimIp4Packet::getIpProtocol</text>
</a>
</g>
</g>
<!-- Node1&#45;&gt;Node9 -->
<g id="edge8" class="edge">
<title>Node1&#45;&gt;Node9</title>
<path fill="none" stroke="midnightblue" d="M67.3,-603.6C75.08,-633.79 103.31,-727.4 164,-772 167.67,-774.69 171.61,-777.05 175.74,-779.09"/>
<polygon fill="midnightblue" stroke="midnightblue" points="174.46,-782.35 185.03,-783.11 177.24,-775.93 174.46,-782.35"/>
</g>
<!-- Node10 -->
<g id="node10" class="node">
<title>Node10</title>
<g id="a_node10"><a xlink:href="classSimIp4Packet.html#a67aab09fcaa210daf58d7a4ffd36bea2" target="_top" xlink:title=" ">
<polygon fill="none" stroke="black" points="188.5,-733 188.5,-763 334.5,-763 334.5,-733 188.5,-733"/>
<text text-anchor="start" x="196.5" y="-751" font-family="Helvetica,sans-Serif" font-size="10.00">SimIp4Packet::getIpSource</text>
<text text-anchor="middle" x="261.5" y="-740" font-family="Helvetica,sans-Serif" font-size="10.00">Address</text>
</a>
</g>
</g>
<!-- Node1&#45;&gt;Node10 -->
<g id="edge9" class="edge">
<title>Node1&#45;&gt;Node10</title>
<path fill="none" stroke="midnightblue" d="M69.48,-603.52C81.29,-627.55 115.75,-691.05 164,-723 168.6,-726.05 173.55,-728.72 178.69,-731.07"/>
<polygon fill="midnightblue" stroke="midnightblue" points="177.54,-734.38 188.12,-734.96 180.21,-727.91 177.54,-734.38"/>
</g>
<!-- Node11 -->
<g id="node11" class="node">
<title>Node11</title>
<g id="a_node11"><a xlink:href="classSimIp4Packet.html#a34a22807679e51e87cb61cbc08f39a26" target="_top" xlink:title=" ">
<polygon fill="none" stroke="black" points="177.5,-694.5 177.5,-713.5 345.5,-713.5 345.5,-694.5 177.5,-694.5"/>
<text text-anchor="middle" x="261.5" y="-701.5" font-family="Helvetica,sans-Serif" font-size="10.00">SimIp4Packet::getIpTimeToLive</text>
</a>
</g>
</g>
<!-- Node1&#45;&gt;Node11 -->
<g id="edge10" class="edge">
<title>Node1&#45;&gt;Node11</title>
<path fill="none" stroke="midnightblue" d="M72.54,-603.68C87.7,-622.41 123.85,-663.55 164,-684 169.65,-686.88 175.69,-689.34 181.89,-691.45"/>
<polygon fill="midnightblue" stroke="midnightblue" points="181.13,-694.88 191.72,-694.49 183.2,-688.19 181.13,-694.88"/>
</g>
<!-- Node12 -->
<g id="node12" class="node">
<title>Node12</title>
<g id="a_node12"><a xlink:href="classSimIp4Packet.html#a09cac22ce1fceda47a24a78d2066e5a3" target="_top" xlink:title=" ">
<polygon fill="none" stroke="black" points="402.5,-876 402.5,-906 538.5,-906 538.5,-876 402.5,-876"/>
<text text-anchor="start" x="410.5" y="-894" font-family="Helvetica,sans-Serif" font-size="10.00">SimIp4Packet::getIpTotal</text>
<text text-anchor="middle" x="470.5" y="-883" font-family="Helvetica,sans-Serif" font-size="10.00">Length</text>
</a>
</g>
</g>
<!-- Node1&#45;&gt;Node12 -->
<g id="edge11" class="edge">
<title>Node1&#45;&gt;Node12</title>
<path fill="none" stroke="midnightblue" d="M65.66,-603.72C68.75,-641.1 85.22,-776.71 164,-840 198.25,-867.52 313.26,-880.68 391.96,-886.61"/>
<polygon fill="midnightblue" stroke="midnightblue" points="392.11,-890.13 402.34,-887.37 392.62,-883.15 392.11,-890.13"/>
</g>
<!-- Node13 -->
<g id="node13" class="node">
<title>Node13</title>
<g id="a_node13"><a xlink:href="classSimIp4Packet.html#a1acf06dbdba53db620cbe153040819e9" target="_top" xlink:title=" ">
<polygon fill="none" stroke="black" points="188.5,-645 188.5,-675 334.5,-675 334.5,-645 188.5,-645"/>
<text text-anchor="start" x="196.5" y="-663" font-family="Helvetica,sans-Serif" font-size="10.00">SimIp4Packet::getIpTypeOf</text>
<text text-anchor="middle" x="261.5" y="-652" font-family="Helvetica,sans-Serif" font-size="10.00">Service</text>
</a>
</g>
</g>
<!-- Node1&#45;&gt;Node13 -->
<g id="edge12" class="edge">
<title>Node1&#45;&gt;Node13</title>
<path fill="none" stroke="midnightblue" d="M85.92,-603.66C105.74,-612.58 136.48,-625.79 164,-635 171.58,-637.54 179.57,-639.98 187.58,-642.27"/>
<polygon fill="midnightblue" stroke="midnightblue" points="186.75,-645.67 197.32,-644.98 188.63,-638.92 186.75,-645.67"/>
</g>
<!-- Node14 -->
<g id="node14" class="node">
<title>Node14</title>
<g id="a_node14"><a xlink:href="classSimIp4Packet.html#a14d8cb777dff128244f27906b562bece" target="_top" xlink:title=" ">
<polygon fill="none" stroke="black" points="187,-606.5 187,-625.5 336,-625.5 336,-606.5 187,-606.5"/>
<text text-anchor="middle" x="261.5" y="-613.5" font-family="Helvetica,sans-Serif" font-size="10.00">SimIp4Packet::getIpVersion</text>
</a>
</g>
</g>
<!-- Node1&#45;&gt;Node14 -->
<g id="edge13" class="edge">
<title>Node1&#45;&gt;Node14</title>
<path fill="none" stroke="midnightblue" d="M128.2,-601.11C143.72,-602.86 160.58,-604.76 176.89,-606.59"/>
<polygon fill="midnightblue" stroke="midnightblue" points="176.64,-610.09 186.97,-607.73 177.42,-603.13 176.64,-610.09"/>
</g>
<!-- Node15 -->
<g id="node15" class="node">
<title>Node15</title>
<g id="a_node15"><a xlink:href="classSimIp4Packet.html#a56fa53ce8b1c61ef1b978c4b2ce00a7e" target="_top" xlink:title=" ">
<polygon fill="none" stroke="black" points="169,-557 169,-587 354,-587 354,-557 169,-557"/>
<text text-anchor="start" x="177" y="-575" font-family="Helvetica,sans-Serif" font-size="10.00">SimIp4Packet::getTcpAcknowledge</text>
<text text-anchor="middle" x="261.5" y="-564" font-family="Helvetica,sans-Serif" font-size="10.00">Number</text>
</a>
</g>
</g>
<!-- Node1&#45;&gt;Node15 -->
<g id="edge14" class="edge">
<title>Node1&#45;&gt;Node15</title>
<path fill="none" stroke="midnightblue" d="M128.2,-586.89C138.01,-585.78 148.35,-584.62 158.75,-583.45"/>
<polygon fill="midnightblue" stroke="midnightblue" points="159.18,-586.92 168.72,-582.33 158.39,-579.97 159.18,-586.92"/>
</g>
<!-- Node16 -->
<g id="node16" class="node">
<title>Node16</title>
<g id="a_node16"><a xlink:href="classSimIp4Packet.html#a822ffa30e280e39068222eb58284fc62" target="_top" xlink:title=" ">
<polygon fill="none" stroke="black" points="176.5,-518.5 176.5,-537.5 346.5,-537.5 346.5,-518.5 176.5,-518.5"/>
<text text-anchor="middle" x="261.5" y="-525.5" font-family="Helvetica,sans-Serif" font-size="10.00">SimIp4Packet::getTcpChecksum</text>
</a>
</g>
</g>
<!-- Node1&#45;&gt;Node16 -->
<g id="edge15" class="edge">
<title>Node1&#45;&gt;Node16</title>
<path fill="none" stroke="midnightblue" d="M81.98,-584.33C101.29,-573.72 134.01,-556.9 164,-547 172.31,-544.26 181.15,-541.85 189.99,-539.76"/>
<polygon fill="midnightblue" stroke="midnightblue" points="190.94,-543.13 199.93,-537.53 189.41,-536.3 190.94,-543.13"/>
</g>
<!-- Node17 -->
<g id="node17" class="node">
<title>Node17</title>
<g id="a_node17"><a xlink:href="classSimIp4Packet.html#abf5266a8abd4f6490d5f5eeccefc67bc" target="_top" xlink:title=" ">
<polygon fill="none" stroke="black" points="175,-480.5 175,-499.5 348,-499.5 348,-480.5 175,-480.5"/>
<text text-anchor="middle" x="261.5" y="-487.5" font-family="Helvetica,sans-Serif" font-size="10.00">SimIp4Packet::getTcpControlAck</text>
</a>
</g>
</g>
<!-- Node1&#45;&gt;Node17 -->
<g id="edge16" class="edge">
<title>Node1&#45;&gt;Node17</title>
<path fill="none" stroke="midnightblue" d="M73.13,-584.28C88.75,-566.31 124.87,-527.99 164,-509 169.04,-506.55 174.37,-504.42 179.84,-502.56"/>
<polygon fill="midnightblue" stroke="midnightblue" points="181.27,-505.79 189.8,-499.51 179.21,-499.1 181.27,-505.79"/>
</g>
<!-- Node18 -->
<g id="node18" class="node">
<title>Node18</title>
<g id="a_node18"><a xlink:href="classSimIp4Packet.html#add4f17f02774485c3e16a9c1f1147783" target="_top" xlink:title=" ">
<polygon fill="none" stroke="black" points="177,-442.5 177,-461.5 346,-461.5 346,-442.5 177,-442.5"/>
<text text-anchor="middle" x="261.5" y="-449.5" font-family="Helvetica,sans-Serif" font-size="10.00">SimIp4Packet::getTcpControlFin</text>
</a>
</g>
</g>
<!-- Node1&#45;&gt;Node18 -->
<g id="edge17" class="edge">
<title>Node1&#45;&gt;Node18</title>
<path fill="none" stroke="midnightblue" d="M69.67,-584.42C81.69,-560.86 116.14,-499.93 164,-471 167.62,-468.81 171.44,-466.87 175.38,-465.15"/>
<polygon fill="midnightblue" stroke="midnightblue" points="176.73,-468.38 184.8,-461.51 174.21,-461.85 176.73,-468.38"/>
</g>
<!-- Node19 -->
<g id="node19" class="node">
<title>Node19</title>
<g id="a_node19"><a xlink:href="classSimIp4Packet.html#aefb575bbbc00d1d01bcbafc168fb606d" target="_top" xlink:title=" ">
<polygon fill="none" stroke="black" points="175.5,-404.5 175.5,-423.5 347.5,-423.5 347.5,-404.5 175.5,-404.5"/>
<text text-anchor="middle" x="261.5" y="-411.5" font-family="Helvetica,sans-Serif" font-size="10.00">SimIp4Packet::getTcpControlPsh</text>
</a>
</g>
</g>
<!-- Node1&#45;&gt;Node19 -->
<g id="edge18" class="edge">
<title>Node1&#45;&gt;Node19</title>
<path fill="none" stroke="midnightblue" d="M67.83,-584.49C76.75,-556.26 107.13,-472.49 164,-433 166.73,-431.1 169.61,-429.38 172.6,-427.82"/>
<polygon fill="midnightblue" stroke="midnightblue" points="174.17,-430.95 181.83,-423.62 171.28,-424.58 174.17,-430.95"/>
</g>
<!-- Node20 -->
<g id="node20" class="node">
<title>Node20</title>
<g id="a_node20"><a xlink:href="classSimIp4Packet.html#a93c8472038d846564838d7ebeeff51ef" target="_top" xlink:title=" ">
<polygon fill="none" stroke="black" points="176.5,-366.5 176.5,-385.5 346.5,-385.5 346.5,-366.5 176.5,-366.5"/>
<text text-anchor="middle" x="261.5" y="-373.5" font-family="Helvetica,sans-Serif" font-size="10.00">SimIp4Packet::getTcpControlRst</text>
</a>
</g>
</g>
<!-- Node1&#45;&gt;Node20 -->
<g id="edge19" class="edge">
<title>Node1&#45;&gt;Node20</title>
<path fill="none" stroke="midnightblue" d="M66.73,-584.19C73.04,-551.48 98.04,-445.33 164,-395 166.35,-393.2 168.83,-391.56 171.41,-390.07"/>
<polygon fill="midnightblue" stroke="midnightblue" points="173.12,-393.12 180.49,-385.51 169.98,-386.86 173.12,-393.12"/>
</g>
<!-- Node21 -->
<g id="node21" class="node">
<title>Node21</title>
<g id="a_node21"><a xlink:href="classSimIp4Packet.html#ab41f91e6b57fcb575980d83c561a7107" target="_top" xlink:title=" ">
<polygon fill="none" stroke="black" points="175,-328.5 175,-347.5 348,-347.5 348,-328.5 175,-328.5"/>
<text text-anchor="middle" x="261.5" y="-335.5" font-family="Helvetica,sans-Serif" font-size="10.00">SimIp4Packet::getTcpControlSyn</text>
</a>
</g>
</g>
<!-- Node1&#45;&gt;Node21 -->
<g id="edge20" class="edge">
<title>Node1&#45;&gt;Node21</title>
<path fill="none" stroke="midnightblue" d="M65.87,-584.45C69.68,-548.3 88.36,-418.77 164,-357 166.03,-355.35 168.15,-353.82 170.37,-352.42"/>
<polygon fill="midnightblue" stroke="midnightblue" points="172.15,-355.43 179.27,-347.58 168.81,-349.28 172.15,-355.43"/>
</g>
<!-- Node22 -->
<g id="node22" class="node">
<title>Node22</title>
<g id="a_node22"><a xlink:href="classSimIp4Packet.html#a7cd02b7f1931c5279c873b540fd2b01e" target="_top" xlink:title=" ">
<polygon fill="none" stroke="black" points="175.5,-290.5 175.5,-309.5 347.5,-309.5 347.5,-290.5 175.5,-290.5"/>
<text text-anchor="middle" x="261.5" y="-297.5" font-family="Helvetica,sans-Serif" font-size="10.00">SimIp4Packet::getTcpControlUrg</text>
</a>
</g>
</g>
<!-- Node1&#45;&gt;Node22 -->
<g id="edge21" class="edge">
<title>Node1&#45;&gt;Node22</title>
<path fill="none" stroke="midnightblue" d="M65.26,-584.35C66.91,-544.62 78.75,-392.25 164,-319 165.79,-317.46 167.67,-316.04 169.62,-314.71"/>
<polygon fill="midnightblue" stroke="midnightblue" points="171.67,-317.57 178.59,-309.55 168.18,-311.5 171.67,-317.57"/>
</g>
<!-- Node23 -->
<g id="node23" class="node">
<title>Node23</title>
<g id="a_node23"><a xlink:href="classSimIp4Packet.html#a4894d6345f56f2e0c85853e58154a996" target="_top" xlink:title=" ">
<polygon fill="none" stroke="black" points="399,-823 399,-853 542,-853 542,-823 399,-823"/>
<text text-anchor="start" x="407" y="-841" font-family="Helvetica,sans-Serif" font-size="10.00">SimIp4Packet::getTcpData</text>
<text text-anchor="middle" x="470.5" y="-830" font-family="Helvetica,sans-Serif" font-size="10.00">Offset</text>
</a>
</g>
</g>
<!-- Node1&#45;&gt;Node23 -->
<g id="edge22" class="edge">
<title>Node1&#45;&gt;Node23</title>
<path fill="none" stroke="midnightblue" d="M66.08,-603.96C70.51,-639.27 90.63,-759.12 164,-811 198.95,-835.71 310.5,-840.03 388.65,-839.83"/>
<polygon fill="midnightblue" stroke="midnightblue" points="388.98,-843.33 398.97,-839.78 388.95,-836.33 388.98,-843.33"/>
</g>
<!-- Node24 -->
<g id="node24" class="node">
<title>Node24</title>
<g id="a_node24"><a xlink:href="classSimIp4Packet.html#a809769c60a50708c72fc7d7d7003ee36" target="_top" xlink:title=" ">
<polygon fill="none" stroke="black" points="164,-252.5 164,-271.5 359,-271.5 359,-252.5 164,-252.5"/>
<text text-anchor="middle" x="261.5" y="-259.5" font-family="Helvetica,sans-Serif" font-size="10.00">SimIp4Packet::getTcpDestinationPort</text>
</a>
</g>
</g>
<!-- Node1&#45;&gt;Node24 -->
<g id="edge23" class="edge">
<title>Node1&#45;&gt;Node24</title>
<path fill="none" stroke="midnightblue" d="M64.79,-584.25C64.43,-541.13 69.03,-365.89 164,-281 165.71,-279.47 167.5,-278.06 169.36,-276.74"/>
<polygon fill="midnightblue" stroke="midnightblue" points="171.18,-279.73 177.96,-271.59 167.58,-273.73 171.18,-279.73"/>
</g>
<!-- Node25 -->
<g id="node25" class="node">
<title>Node25</title>
<g id="a_node25"><a xlink:href="classSimIp4Packet.html#a94bab74bfa4a7a2af6414ebc39679a12" target="_top" xlink:title=" ">
<polygon fill="none" stroke="black" points="175,-214.5 175,-233.5 348,-233.5 348,-214.5 175,-214.5"/>
<text text-anchor="middle" x="261.5" y="-221.5" font-family="Helvetica,sans-Serif" font-size="10.00">SimIp4Packet::getTcpOptionKind</text>
</a>
</g>
</g>
<!-- Node1&#45;&gt;Node25 -->
<g id="edge24" class="edge">
<title>Node1&#45;&gt;Node25</title>
<path fill="none" stroke="midnightblue" d="M66.34,-584.42C73.7,-533.18 110.83,-292.05 164,-243 165.51,-241.61 167.08,-240.31 168.72,-239.09"/>
<polygon fill="midnightblue" stroke="midnightblue" points="170.75,-241.95 177.37,-233.67 167.04,-236.02 170.75,-241.95"/>
</g>
<!-- Node26 -->
<g id="node26" class="node">
<title>Node26</title>
<g id="a_node26"><a xlink:href="classSimIp4Packet.html#a506b84e0fb770f2e5da2065502b7b7a1" target="_top" xlink:title=" ">
<polygon fill="none" stroke="black" points="176,-176.5 176,-195.5 347,-195.5 347,-176.5 176,-176.5"/>
<text text-anchor="middle" x="261.5" y="-183.5" font-family="Helvetica,sans-Serif" font-size="10.00">SimIp4Packet::getTcpOptionMss</text>
</a>
</g>
</g>
<!-- Node1&#45;&gt;Node26 -->
<g id="edge25" class="edge">
<title>Node1&#45;&gt;Node26</title>
<path fill="none" stroke="midnightblue" d="M66.06,-584.48C72.27,-530.19 105.8,-260.09 164,-205 165.49,-203.59 167.05,-202.27 168.67,-201.04"/>
<polygon fill="midnightblue" stroke="midnightblue" points="170.72,-203.89 177.26,-195.56 166.95,-197.99 170.72,-203.89"/>
</g>
<!-- Node27 -->
<g id="node27" class="node">
<title>Node27</title>
<g id="a_node27"><a xlink:href="classSimIp4Packet.html#a057795d5137323c62071e1659186af9f" target="_top" xlink:title=" ">
<polygon fill="none" stroke="black" points="178,-127 178,-157 345,-157 345,-127 178,-127"/>
<text text-anchor="start" x="186" y="-145" font-family="Helvetica,sans-Serif" font-size="10.00">SimIp4Packet::getTcpSequence</text>
<text text-anchor="middle" x="261.5" y="-134" font-family="Helvetica,sans-Serif" font-size="10.00">Number</text>
</a>
</g>
</g>
<!-- Node1&#45;&gt;Node27 -->
<g id="edge26" class="edge">
<title>Node1&#45;&gt;Node27</title>
<path fill="none" stroke="midnightblue" d="M65.89,-584.38C71.41,-526.97 102.65,-229.94 164,-167 165.67,-165.29 167.44,-163.69 169.29,-162.19"/>
<polygon fill="midnightblue" stroke="midnightblue" points="171.64,-164.82 177.92,-156.29 167.69,-159.05 171.64,-164.82"/>
</g>
<!-- Node28 -->
<g id="node28" class="node">
<title>Node28</title>
<g id="a_node28"><a xlink:href="classSimIp4Packet.html#aefc19abc100c35989ec42dc851609531" target="_top" xlink:title=" ">
<polygon fill="none" stroke="black" points="175.5,-88.5 175.5,-107.5 347.5,-107.5 347.5,-88.5 175.5,-88.5"/>
<text text-anchor="middle" x="261.5" y="-95.5" font-family="Helvetica,sans-Serif" font-size="10.00">SimIp4Packet::getTcpSourcePort</text>
</a>
</g>
</g>
<!-- Node1&#45;&gt;Node28 -->
<g id="edge27" class="edge">
<title>Node1&#45;&gt;Node28</title>
<path fill="none" stroke="midnightblue" d="M65.58,-584.43C69.51,-523.14 94.12,-186.17 164,-117 165.29,-115.72 166.65,-114.51 168.05,-113.38"/>
<polygon fill="midnightblue" stroke="midnightblue" points="170.28,-116.09 176.62,-107.6 166.37,-110.29 170.28,-116.09"/>
</g>
<!-- Node29 -->
<g id="node29" class="node">
<title>Node29</title>
<g id="a_node29"><a xlink:href="classSimIp4Packet.html#a843690d9506e3634be31b59cd5743003" target="_top" xlink:title=" ">
<polygon fill="none" stroke="black" points="185.5,-39 185.5,-69 337.5,-69 337.5,-39 185.5,-39"/>
<text text-anchor="start" x="193.5" y="-57" font-family="Helvetica,sans-Serif" font-size="10.00">SimIp4Packet::getTcpUrgent</text>
<text text-anchor="middle" x="261.5" y="-46" font-family="Helvetica,sans-Serif" font-size="10.00">Pointer</text>
</a>
</g>
</g>
<!-- Node1&#45;&gt;Node29 -->
<g id="edge28" class="edge">
<title>Node1&#45;&gt;Node29</title>
<path fill="none" stroke="midnightblue" d="M65.5,-584.15C68.95,-519.52 91.42,-156.35 164,-79 167.61,-75.15 171.72,-71.87 176.18,-69.07"/>
<polygon fill="midnightblue" stroke="midnightblue" points="177.97,-72.08 185.11,-64.25 174.64,-65.92 177.97,-72.08"/>
</g>
<!-- Node30 -->
<g id="node30" class="node">
<title>Node30</title>
<g id="a_node30"><a xlink:href="classSimIp4Packet.html#a205769ddbefb9a2ad4d6f01bfa1551c6" target="_top" xlink:title=" ">
<polygon fill="none" stroke="black" points="182.5,-0.5 182.5,-19.5 340.5,-19.5 340.5,-0.5 182.5,-0.5"/>
<text text-anchor="middle" x="261.5" y="-7.5" font-family="Helvetica,sans-Serif" font-size="10.00">SimIp4Packet::getTcpWindow</text>
</a>
</g>
</g>
<!-- Node1&#45;&gt;Node30 -->
<g id="edge29" class="edge">
<title>Node1&#45;&gt;Node30</title>
<path fill="none" stroke="midnightblue" d="M65.25,-584.48C67.21,-517.1 82.31,-112.42 164,-29 166.87,-26.06 170.06,-23.51 173.48,-21.3"/>
<polygon fill="midnightblue" stroke="midnightblue" points="175.27,-24.31 182.39,-16.47 171.93,-18.16 175.27,-24.31"/>
</g>
<!-- Node31 -->
<g id="node31" class="node">
<title>Node31</title>
<g id="a_node31"><a xlink:href="classSimIp4Packet.html#a0344208d2488a4d0902a9699c62c1742" target="_top" xlink:title="Return the size of the TCP data payload in octets.">
<polygon fill="none" stroke="black" points="182.5,-896.5 182.5,-915.5 340.5,-915.5 340.5,-896.5 182.5,-896.5"/>
<text text-anchor="middle" x="261.5" y="-903.5" font-family="Helvetica,sans-Serif" font-size="10.00">SimIp4Packet::sizeOfTcpData</text>
</a>
</g>
</g>
<!-- Node1&#45;&gt;Node31 -->
<g id="edge30" class="edge">
<title>Node1&#45;&gt;Node31</title>
<path fill="none" stroke="midnightblue" d="M65.2,-603.69C66.56,-644.36 77.46,-802.71 164,-882 168.22,-885.86 172.96,-889.13 178.02,-891.89"/>
<polygon fill="midnightblue" stroke="midnightblue" points="176.88,-895.22 187.42,-896.32 179.87,-888.89 176.88,-895.22"/>
</g>
<!-- Node31&#45;&gt;Node8 -->
<g id="edge31" class="edge">
<title>Node31&#45;&gt;Node8</title>
<path fill="none" stroke="midnightblue" d="M317.16,-915.51C337.82,-919.1 361.85,-923.28 384.63,-927.24"/>
<polygon fill="midnightblue" stroke="midnightblue" points="384.19,-930.72 394.65,-928.98 385.39,-923.82 384.19,-930.72"/>
</g>
<!-- Node31&#45;&gt;Node12 -->
<g id="edge32" class="edge">
<title>Node31&#45;&gt;Node12</title>
<path fill="none" stroke="midnightblue" d="M340.76,-900.33C357.54,-899.11 375.26,-897.83 392.02,-896.61"/>
<polygon fill="midnightblue" stroke="midnightblue" points="392.58,-900.08 402.3,-895.87 392.08,-893.1 392.58,-900.08"/>
</g>
<!-- Node31&#45;&gt;Node23 -->
<g id="edge33" class="edge">
<title>Node31&#45;&gt;Node23</title>
<path fill="none" stroke="midnightblue" d="M291.72,-896.4C323.36,-886.01 374.58,-869.18 413.94,-856.25"/>
<polygon fill="midnightblue" stroke="midnightblue" points="415.26,-859.5 423.67,-853.06 413.08,-852.85 415.26,-859.5"/>
</g>
</g>
</svg>
        <g id="navigator" transform="translate(0 0)" fill="#404254">
                <rect fill="#f2f5e9" fill-opacity="0.5" stroke="#606060" stroke-width=".5" x="0" y="0" width="60" height="60"/>
                <use id="zoomplus" xlink:href="#zoomPlus" x="17" y="9" onmousedown="handleZoom(evt,'in')"/>
                <use id="zoomminus" xlink:href="#zoomMin" x="42" y="9" onmousedown="handleZoom(evt,'out')"/>
                <use id="reset" xlink:href="#resetDef" x="30" y="36" onmousedown="handleReset()"/>
                <g id="arrowUp" xlink:href="#dirArrow" transform="translate(30 24)" onmousedown="handlePan(0,-1)">
                  <use xlink:href="#rim" fill="#404040">
                        <set attributeName="fill" to="#808080" begin="arrowUp.mouseover" end="arrowUp.mouseout"/>
                  </use>
                  <path fill="none" stroke="white" stroke-width="1.5" d="M0,-3.0v7 M-2.5,-0.5L0,-3.0L2.5,-0.5"/>
                </g>
                <g id="arrowRight" xlink:href="#dirArrow" transform="rotate(90) translate(36 -43)" onmousedown="handlePan(1,0)">
                  <use xlink:href="#rim" fill="#404040">
                        <set attributeName="fill" to="#808080" begin="arrowRight.mouseover" end="arrowRight.mouseout"/>
                  </use>
                  <path fill="none" stroke="white" stroke-width="1.5" d="M0,-3.0v7 M-2.5,-0.5L0,-3.0L2.5,-0.5"/>
                </g>
                <g id="arrowDown" xlink:href="#dirArrow" transform="rotate(180) translate(-30 -48)" onmousedown="handlePan(0,1)">
                  <use xlink:href="#rim" fill="#404040">
                        <set attributeName="fill" to="#808080" begin="arrowDown.mouseover" end="arrowDown.mouseout"/>
                  </use>
                  <path fill="none" stroke="white" stroke-width="1.5" d="M0,-3.0v7 M-2.5,-0.5L0,-3.0L2.5,-0.5"/>
                </g>
                <g id="arrowLeft" xlink:href="#dirArrow" transform="rotate(270) translate(-36 17)" onmousedown="handlePan(-1,0)">
                  <use xlink:href="#rim" fill="#404040">
                        <set attributeName="fill" to="#808080" begin="arrowLeft.mouseover" end="arrowLeft.mouseout"/>
                  </use>
                  <path fill="none" stroke="white" stroke-width="1.5" d="M0,-3.0v7 M-2.5,-0.5L0,-3.0L2.5,-0.5"/>
                </g>
        </g>
        <svg viewBox="0 0 15 15" width="100%" height="30px" preserveAspectRatio="xMaxYMin meet">
         <g id="arrow_out" transform="scale(0.3 0.3)">
          <a xlink:href="classSimIp4Packet_acd45073036bd1f8641b8bfc3ea46a49f_cgraph_org.svg" target="_base">
           <rect id="button" ry="5" rx="5" y="6" x="6" height="38" width="38"
                fill="#f2f5e9" fill-opacity="0.5" stroke="#606060" stroke-width="1.0"/>
           <path id="arrow"
             d="M 11.500037,31.436501 C 11.940474,20.09759 22.043105,11.32322 32.158766,21.979434 L 37.068811,17.246167 C 37.068811,17.246167 37.088388,32 37.088388,32 L 22.160133,31.978069 C 22.160133,31.978069 26.997745,27.140456 26.997745,27.140456 C 18.528582,18.264221 13.291696,25.230495 11.500037,31.436501 z"
             style="fill:#404040;"/>
          </a>
         </g>
        </svg>
</svg>
