<?xml version="1.0" encoding="UTF-8" standalone="no"?>
<!DOCTYPE svg PUBLIC "-//W3C//DTD SVG 1.1//EN"
 "http://www.w3.org/Graphics/SVG/1.1/DTD/svg11.dtd">
<!-- Generated by graphviz version 2.43.0 (0)
 -->
<!-- Title: cFSPlib.python_api_client.swagger_client.models.build_script.BuildScript.to_str Pages: 1 -->
<!--zoomable 1596 -->
<svg id="main" version="1.1" xmlns="http://www.w3.org/2000/svg" xmlns:xlink="http://www.w3.org/1999/xlink" xml:space="preserve" onload="init(evt)">
<style type="text/css"><![CDATA[
.edge:hover path { stroke: red; }
.edge:hover polygon { stroke: red; fill: red; }
]]></style>
<script type="text/javascript"><![CDATA[
var edges = document.getElementsByTagName('g');
if (edges && edges.length) {
  for (var i=0;i<edges.length;i++) {
    if (edges[i].id.substr(0,4)=='edge') {
      edges[i].setAttribute('class','edge');
    }
  }
}
]]></script>
        <defs>
                <circle id="rim" cx="0" cy="0" r="7"/>
                <circle id="rim2" cx="0" cy="0" r="3.5"/>
                <g id="zoomPlus">
                        <use xlink:href="#rim" fill="#404040">
                                <set attributeName="fill" to="#808080" begin="zoomplus.mouseover" end="zoomplus.mouseout"/>
                        </use>
                        <path d="M-4,0h8M0,-4v8" fill="none" stroke="white" stroke-width="1.5" pointer-events="none"/>
                </g>
                <g id="zoomMin">
                        <use xlink:href="#rim" fill="#404040">
                                <set attributeName="fill" to="#808080" begin="zoomminus.mouseover" end="zoomminus.mouseout"/>
                        </use>
                        <path d="M-4,0h8" fill="none" stroke="white" stroke-width="1.5" pointer-events="none"/>
                </g>
                <g id="dirArrow">
                        <path fill="none" stroke="white" stroke-width="1.5" d="M0,-3.0v7 M-2.5,-0.5L0,-3.0L2.5,-0.5"/>
                </g>
               <g id="resetDef">
                       <use xlink:href="#rim2" fill="#404040">
                               <set attributeName="fill" to="#808080" begin="reset.mouseover" end="reset.mouseout"/>
                       </use>
               </g>
        </defs>

<script type="text/javascript">
var viewWidth = 499;
var viewHeight = 1596;
var sectionId = 'dynsection-4';
</script>
<script xlink:href="svgpan.js"/>
<svg id="graph" class="graph">
<g id="viewport">
<title>cFSPlib.python_api_client.swagger_client.models.build_script.BuildScript.to_str</title>
<!-- Node1 -->
<g id="node1" class="node">
<title>Node1</title>
<g id="a_node1"><a xlink:title=" ">
<polygon fill="#bfbfbf" stroke="black" points="0,-774 0,-815 191,-815 191,-774 0,-774"/>
<text text-anchor="start" x="8" y="-803" font-family="Helvetica,sans-Serif" font-size="10.00">cFSPlib.python_api</text>
<text text-anchor="start" x="8" y="-792" font-family="Helvetica,sans-Serif" font-size="10.00">_client.swagger_client.models.build</text>
<text text-anchor="middle" x="95.5" y="-781" font-family="Helvetica,sans-Serif" font-size="10.00">_script.BuildScript.to_str</text>
</a>
</g>
</g>
<!-- Node2 -->
<g id="node2" class="node">
<title>Node2</title>
<g id="a_node2"><a xlink:href="classcFSPlib_1_1python__api__client_1_1swagger__client_1_1models_1_1administration__mantle__logi168f0a51d80725a08a224c580ca4eab6.html#a2e44cec43286af69878a8fdb0d2704b2" target="_top" xlink:title=" ">
<polygon fill="none" stroke="black" points="235.5,-1535.5 235.5,-1587.5 482.5,-1587.5 482.5,-1535.5 235.5,-1535.5"/>
<text text-anchor="start" x="243.5" y="-1575.5" font-family="Helvetica,sans-Serif" font-size="10.00">cFSPlib.python_api</text>
<text text-anchor="start" x="243.5" y="-1564.5" font-family="Helvetica,sans-Serif" font-size="10.00">_client.swagger_client.models.administration</text>
<text text-anchor="start" x="243.5" y="-1553.5" font-family="Helvetica,sans-Serif" font-size="10.00">_mantle_logic_body.AdministrationMantleLogic</text>
<text text-anchor="middle" x="359" y="-1542.5" font-family="Helvetica,sans-Serif" font-size="10.00">Body.to_dict</text>
</a>
</g>
</g>
<!-- Node1&#45;&gt;Node2 -->
<g id="edge1" class="edge">
<title>Node1&#45;&gt;Node2</title>
<path fill="none" stroke="midnightblue" d="M97.28,-815.32C101.76,-923.25 127.55,-1418.25 227,-1526.5 227.64,-1527.2 228.3,-1527.89 228.97,-1528.56"/>
<polygon fill="midnightblue" stroke="midnightblue" points="226.76,-1531.28 236.56,-1535.3 231.41,-1526.05 226.76,-1531.28"/>
</g>
<!-- Node3 -->
<g id="node3" class="node">
<title>Node3</title>
<g id="a_node3"><a xlink:href="classcFSPlib_1_1python__api__client_1_1swagger__client_1_1models_1_1administration__platform__lo7236faec3e459a8c5be8431e1b997ede.html#aa930e0963982b60a68f2217ebd62eba1" target="_top" xlink:title=" ">
<polygon fill="none" stroke="black" points="239.5,-1464.5 239.5,-1516.5 478.5,-1516.5 478.5,-1464.5 239.5,-1464.5"/>
<text text-anchor="start" x="247.5" y="-1504.5" font-family="Helvetica,sans-Serif" font-size="10.00">cFSPlib.python_api</text>
<text text-anchor="start" x="247.5" y="-1493.5" font-family="Helvetica,sans-Serif" font-size="10.00">_client.swagger_client.models.administration</text>
<text text-anchor="start" x="247.5" y="-1482.5" font-family="Helvetica,sans-Serif" font-size="10.00">_platform_logic_body.AdministrationPlatform</text>
<text text-anchor="middle" x="359" y="-1471.5" font-family="Helvetica,sans-Serif" font-size="10.00">LogicBody.to_dict</text>
</a>
</g>
</g>
<!-- Node1&#45;&gt;Node3 -->
<g id="edge2" class="edge">
<title>Node1&#45;&gt;Node3</title>
<path fill="none" stroke="midnightblue" d="M97.73,-815.25C104.16,-916.49 137.04,-1357.72 227,-1454.5 228.42,-1456.02 229.89,-1457.48 231.41,-1458.88"/>
<polygon fill="midnightblue" stroke="midnightblue" points="229.48,-1461.82 239.45,-1465.4 233.89,-1456.38 229.48,-1461.82"/>
</g>
<!-- Node4 -->
<g id="node4" class="node">
<title>Node4</title>
<g id="a_node4"><a xlink:href="classcFSPlib_1_1python__api__client_1_1swagger__client_1_1models_1_1build__script_1_1BuildScript.html#ad0e292056f849925160b529b0868e73f" target="_top" xlink:title=" ">
<polygon fill="none" stroke="black" points="263.5,-1404 263.5,-1445 454.5,-1445 454.5,-1404 263.5,-1404"/>
<text text-anchor="start" x="271.5" y="-1433" font-family="Helvetica,sans-Serif" font-size="10.00">cFSPlib.python_api</text>
<text text-anchor="start" x="271.5" y="-1422" font-family="Helvetica,sans-Serif" font-size="10.00">_client.swagger_client.models.build</text>
<text text-anchor="middle" x="359" y="-1411" font-family="Helvetica,sans-Serif" font-size="10.00">_script.BuildScript.to_dict</text>
</a>
</g>
</g>
<!-- Node1&#45;&gt;Node4 -->
<g id="edge3" class="edge">
<title>Node1&#45;&gt;Node4</title>
<path fill="none" stroke="midnightblue" d="M98.07,-815.01C105.77,-910.36 142.66,-1309.24 227,-1394.5 234.66,-1402.25 243.89,-1408.17 253.85,-1412.67"/>
<polygon fill="midnightblue" stroke="midnightblue" points="252.61,-1415.94 263.19,-1416.41 255.21,-1409.44 252.61,-1415.94"/>
</g>
<!-- Node5 -->
<g id="node5" class="node">
<title>Node5</title>
<g id="a_node5"><a xlink:href="classcFSPlib_1_1python__api__client_1_1swagger__client_1_1models_1_1cluster_1_1Cluster.html#af6d7e45ca50dac96ffb9c9cddffde96c" target="_top" xlink:title=" ">
<polygon fill="none" stroke="black" points="257.5,-1344 257.5,-1385 460.5,-1385 460.5,-1344 257.5,-1344"/>
<text text-anchor="start" x="265.5" y="-1373" font-family="Helvetica,sans-Serif" font-size="10.00">cFSPlib.python_api</text>
<text text-anchor="start" x="265.5" y="-1362" font-family="Helvetica,sans-Serif" font-size="10.00">_client.swagger_client.models.cluster.</text>
<text text-anchor="middle" x="359" y="-1351" font-family="Helvetica,sans-Serif" font-size="10.00">Cluster.to_dict</text>
</a>
</g>
</g>
<!-- Node1&#45;&gt;Node5 -->
<g id="edge4" class="edge">
<title>Node1&#45;&gt;Node5</title>
<path fill="none" stroke="midnightblue" d="M98.6,-815.04C108.16,-904.47 150.42,-1258.83 227,-1334.5 233.2,-1340.63 240.39,-1345.61 248.13,-1349.64"/>
<polygon fill="midnightblue" stroke="midnightblue" points="246.91,-1352.93 257.46,-1353.96 249.85,-1346.58 246.91,-1352.93"/>
</g>
<!-- Node6 -->
<g id="node6" class="node">
<title>Node6</title>
<g id="a_node6"><a xlink:href="classcFSPlib_1_1python__api__client_1_1swagger__client_1_1models_1_1cluster__id__node__id__body_1_1ClusterIdNodeIdBody.html#ad1ca6fa563bd9987d1098b2d0ddbabed" target="_top" xlink:title=" ">
<polygon fill="none" stroke="black" points="238,-1284 238,-1325 480,-1325 480,-1284 238,-1284"/>
<text text-anchor="start" x="246" y="-1313" font-family="Helvetica,sans-Serif" font-size="10.00">cFSPlib.python_api</text>
<text text-anchor="start" x="246" y="-1302" font-family="Helvetica,sans-Serif" font-size="10.00">_client.swagger_client.models.cluster</text>
<text text-anchor="middle" x="359" y="-1291" font-family="Helvetica,sans-Serif" font-size="10.00">_id_node_id_body.ClusterIdNodeIdBody.to_dict</text>
</a>
</g>
</g>
<!-- Node1&#45;&gt;Node6 -->
<g id="edge5" class="edge">
<title>Node1&#45;&gt;Node6</title>
<path fill="none" stroke="midnightblue" d="M99.29,-815.26C110.93,-898.7 158.18,-1208.4 227,-1274.5 228.13,-1275.59 229.29,-1276.64 230.48,-1277.65"/>
<polygon fill="midnightblue" stroke="midnightblue" points="228.63,-1280.63 238.72,-1283.85 232.83,-1275.04 228.63,-1280.63"/>
</g>
<!-- Node7 -->
<g id="node7" class="node">
<title>Node7</title>
<g id="a_node7"><a xlink:href="classcFSPlib_1_1python__api__client_1_1swagger__client_1_1models_1_1clusters__body_1_1ClustersBody.html#a8db8cde3aac212a7e75e4dc470b00466" target="_top" xlink:title=" ">
<polygon fill="none" stroke="black" points="256,-1224 256,-1265 462,-1265 462,-1224 256,-1224"/>
<text text-anchor="start" x="264" y="-1253" font-family="Helvetica,sans-Serif" font-size="10.00">cFSPlib.python_api</text>
<text text-anchor="start" x="264" y="-1242" font-family="Helvetica,sans-Serif" font-size="10.00">_client.swagger_client.models.clusters</text>
<text text-anchor="middle" x="359" y="-1231" font-family="Helvetica,sans-Serif" font-size="10.00">_body.ClustersBody.to_dict</text>
</a>
</g>
</g>
<!-- Node1&#45;&gt;Node7 -->
<g id="edge6" class="edge">
<title>Node1&#45;&gt;Node7</title>
<path fill="none" stroke="midnightblue" d="M96.21,-815.26C96.43,-883.54 106.86,-1103.18 227,-1214.5 232.84,-1219.91 239.44,-1224.41 246.51,-1228.14"/>
<polygon fill="midnightblue" stroke="midnightblue" points="245.15,-1231.37 255.68,-1232.48 248.14,-1225.04 245.15,-1231.37"/>
</g>
<!-- Node8 -->
<g id="node8" class="node">
<title>Node8</title>
<g id="a_node8"><a xlink:href="classcFSPlib_1_1python__api__client_1_1swagger__client_1_1models_1_1image_1_1Image.html#ac15b59cb35d3025925bee33ba3aaa79f" target="_top" xlink:title=" ">
<polygon fill="none" stroke="black" points="258.5,-1164 258.5,-1205 459.5,-1205 459.5,-1164 258.5,-1164"/>
<text text-anchor="start" x="266.5" y="-1193" font-family="Helvetica,sans-Serif" font-size="10.00">cFSPlib.python_api</text>
<text text-anchor="start" x="266.5" y="-1182" font-family="Helvetica,sans-Serif" font-size="10.00">_client.swagger_client.models.image.</text>
<text text-anchor="middle" x="359" y="-1171" font-family="Helvetica,sans-Serif" font-size="10.00">Image.to_dict</text>
</a>
</g>
</g>
<!-- Node1&#45;&gt;Node8 -->
<g id="edge7" class="edge">
<title>Node1&#45;&gt;Node8</title>
<path fill="none" stroke="midnightblue" d="M97.44,-815.35C101.4,-877.27 121.92,-1061.58 227,-1154.5 233.6,-1160.34 241.11,-1165.11 249.11,-1169"/>
<polygon fill="midnightblue" stroke="midnightblue" points="247.77,-1172.23 258.33,-1173.02 250.57,-1165.81 247.77,-1172.23"/>
</g>
<!-- Node9 -->
<g id="node9" class="node">
<title>Node9</title>
<g id="a_node9"><a xlink:href="classcFSPlib_1_1python__api__client_1_1swagger__client_1_1models_1_1images__app__logic__body_1_1ImagesAppLogicBody.html#a73f303c4a1b1a73d171347b4a3bb4604" target="_top" xlink:title=" ">
<polygon fill="none" stroke="black" points="239.5,-1104 239.5,-1145 478.5,-1145 478.5,-1104 239.5,-1104"/>
<text text-anchor="start" x="247.5" y="-1133" font-family="Helvetica,sans-Serif" font-size="10.00">cFSPlib.python_api</text>
<text text-anchor="start" x="247.5" y="-1122" font-family="Helvetica,sans-Serif" font-size="10.00">_client.swagger_client.models.images</text>
<text text-anchor="middle" x="359" y="-1111" font-family="Helvetica,sans-Serif" font-size="10.00">_app_logic_body.ImagesAppLogicBody.to_dict</text>
</a>
</g>
</g>
<!-- Node1&#45;&gt;Node9 -->
<g id="edge8" class="edge">
<title>Node1&#45;&gt;Node9</title>
<path fill="none" stroke="midnightblue" d="M99.07,-815.01C107.04,-869.61 136.53,-1019.41 227,-1094.5 228.58,-1095.81 230.21,-1097.07 231.88,-1098.28"/>
<polygon fill="midnightblue" stroke="midnightblue" points="230.25,-1101.39 240.55,-1103.88 234.05,-1095.51 230.25,-1101.39"/>
</g>
<!-- Node10 -->
<g id="node10" class="node">
<title>Node10</title>
<g id="a_node10"><a xlink:href="classcFSPlib_1_1python__api__client_1_1swagger__client_1_1models_1_1images__body_1_1ImagesBody.html#a5554114728bde54cdd776aebee542078" target="_top" xlink:title=" ">
<polygon fill="none" stroke="black" points="257.5,-1044 257.5,-1085 460.5,-1085 460.5,-1044 257.5,-1044"/>
<text text-anchor="start" x="265.5" y="-1073" font-family="Helvetica,sans-Serif" font-size="10.00">cFSPlib.python_api</text>
<text text-anchor="start" x="265.5" y="-1062" font-family="Helvetica,sans-Serif" font-size="10.00">_client.swagger_client.models.images</text>
<text text-anchor="middle" x="359" y="-1051" font-family="Helvetica,sans-Serif" font-size="10.00">_body.ImagesBody.to_dict</text>
</a>
</g>
</g>
<!-- Node1&#45;&gt;Node10 -->
<g id="edge9" class="edge">
<title>Node1&#45;&gt;Node10</title>
<path fill="none" stroke="midnightblue" d="M101.56,-815.35C114.1,-862.36 151.24,-977.03 227,-1034.5 233.4,-1039.36 240.46,-1043.45 247.87,-1046.9"/>
<polygon fill="midnightblue" stroke="midnightblue" points="246.85,-1050.27 257.43,-1050.93 249.57,-1043.82 246.85,-1050.27"/>
</g>
<!-- Node11 -->
<g id="node11" class="node">
<title>Node11</title>
<g id="a_node11"><a xlink:href="classcFSPlib_1_1python__api__client_1_1swagger__client_1_1models_1_1inline__response200_1_1InlineResponse200.html#a66e88896e524555c9eac804f03b4a04b" target="_top" xlink:title=" ">
<polygon fill="none" stroke="black" points="251.5,-984 251.5,-1025 466.5,-1025 466.5,-984 251.5,-984"/>
<text text-anchor="start" x="259.5" y="-1013" font-family="Helvetica,sans-Serif" font-size="10.00">cFSPlib.python_api</text>
<text text-anchor="start" x="259.5" y="-1002" font-family="Helvetica,sans-Serif" font-size="10.00">_client.swagger_client.models.inline</text>
<text text-anchor="middle" x="359" y="-991" font-family="Helvetica,sans-Serif" font-size="10.00">_response200.InlineResponse200.to_dict</text>
</a>
</g>
</g>
<!-- Node1&#45;&gt;Node11 -->
<g id="edge10" class="edge">
<title>Node1&#45;&gt;Node11</title>
<path fill="none" stroke="midnightblue" d="M105.44,-815.26C122.91,-853.23 165.35,-933.73 227,-974.5 231.68,-977.6 236.64,-980.38 241.79,-982.87"/>
<polygon fill="midnightblue" stroke="midnightblue" points="240.66,-986.2 251.22,-987.06 243.5,-979.8 240.66,-986.2"/>
</g>
<!-- Node12 -->
<g id="node12" class="node">
<title>Node12</title>
<g id="a_node12"><a xlink:href="classcFSPlib_1_1python__api__client_1_1swagger__client_1_1models_1_1inline__response2001_1_1InlineResponse2001.html#ad6663b23b7498b71d4ca99c7ebd03029" target="_top" xlink:title=" ">
<polygon fill="none" stroke="black" points="245.5,-924 245.5,-965 472.5,-965 472.5,-924 245.5,-924"/>
<text text-anchor="start" x="253.5" y="-953" font-family="Helvetica,sans-Serif" font-size="10.00">cFSPlib.python_api</text>
<text text-anchor="start" x="253.5" y="-942" font-family="Helvetica,sans-Serif" font-size="10.00">_client.swagger_client.models.inline</text>
<text text-anchor="middle" x="359" y="-931" font-family="Helvetica,sans-Serif" font-size="10.00">_response2001.InlineResponse2001.to_dict</text>
</a>
</g>
</g>
<!-- Node1&#45;&gt;Node12 -->
<g id="edge11" class="edge">
<title>Node1&#45;&gt;Node12</title>
<path fill="none" stroke="midnightblue" d="M113.11,-815.41C135.85,-842.55 179.33,-889.42 227,-914.5 230.77,-916.49 234.68,-918.34 238.67,-920.07"/>
<polygon fill="midnightblue" stroke="midnightblue" points="237.56,-923.4 248.14,-923.9 240.18,-916.91 237.56,-923.4"/>
</g>
<!-- Node13 -->
<g id="node13" class="node">
<title>Node13</title>
<g id="a_node13"><a xlink:href="classcFSPlib_1_1python__api__client_1_1swagger__client_1_1models_1_1inline__response2002_1_1InlineResponse2002.html#a7120aa02a5bd37a0522121898626d7ae" target="_top" xlink:title=" ">
<polygon fill="none" stroke="black" points="245.5,-864 245.5,-905 472.5,-905 472.5,-864 245.5,-864"/>
<text text-anchor="start" x="253.5" y="-893" font-family="Helvetica,sans-Serif" font-size="10.00">cFSPlib.python_api</text>
<text text-anchor="start" x="253.5" y="-882" font-family="Helvetica,sans-Serif" font-size="10.00">_client.swagger_client.models.inline</text>
<text text-anchor="middle" x="359" y="-871" font-family="Helvetica,sans-Serif" font-size="10.00">_response2002.InlineResponse2002.to_dict</text>
</a>
</g>
</g>
<!-- Node1&#45;&gt;Node13 -->
<g id="edge12" class="edge">
<title>Node1&#45;&gt;Node13</title>
<path fill="none" stroke="midnightblue" d="M135.61,-815.06C161.09,-827.8 195.37,-843.73 227,-854.5 233.91,-856.85 241.09,-859.08 248.36,-861.17"/>
<polygon fill="midnightblue" stroke="midnightblue" points="247.76,-864.63 258.33,-863.94 249.63,-857.89 247.76,-864.63"/>
</g>
<!-- Node14 -->
<g id="node14" class="node">
<title>Node14</title>
<g id="a_node14"><a xlink:href="classcFSPlib_1_1python__api__client_1_1swagger__client_1_1models_1_1inline__response2003_1_1InlineResponse2003.html#a9e1663a068774b55c2e94e319635e85a" target="_top" xlink:title=" ">
<polygon fill="none" stroke="black" points="245.5,-804 245.5,-845 472.5,-845 472.5,-804 245.5,-804"/>
<text text-anchor="start" x="253.5" y="-833" font-family="Helvetica,sans-Serif" font-size="10.00">cFSPlib.python_api</text>
<text text-anchor="start" x="253.5" y="-822" font-family="Helvetica,sans-Serif" font-size="10.00">_client.swagger_client.models.inline</text>
<text text-anchor="middle" x="359" y="-811" font-family="Helvetica,sans-Serif" font-size="10.00">_response2003.InlineResponse2003.to_dict</text>
</a>
</g>
</g>
<!-- Node1&#45;&gt;Node14 -->
<g id="edge13" class="edge">
<title>Node1&#45;&gt;Node14</title>
<path fill="none" stroke="midnightblue" d="M191.28,-805.37C205.53,-807.01 220.4,-808.71 235.13,-810.4"/>
<polygon fill="midnightblue" stroke="midnightblue" points="234.97,-813.91 245.3,-811.57 235.77,-806.95 234.97,-813.91"/>
</g>
<!-- Node15 -->
<g id="node15" class="node">
<title>Node15</title>
<g id="a_node15"><a xlink:href="classcFSPlib_1_1python__api__client_1_1swagger__client_1_1models_1_1inline__response2004_1_1InlineResponse2004.html#a4297acc6998c1b7e0d61ed12d9a3ee24" target="_top" xlink:title=" ">
<polygon fill="none" stroke="black" points="245.5,-744 245.5,-785 472.5,-785 472.5,-744 245.5,-744"/>
<text text-anchor="start" x="253.5" y="-773" font-family="Helvetica,sans-Serif" font-size="10.00">cFSPlib.python_api</text>
<text text-anchor="start" x="253.5" y="-762" font-family="Helvetica,sans-Serif" font-size="10.00">_client.swagger_client.models.inline</text>
<text text-anchor="middle" x="359" y="-751" font-family="Helvetica,sans-Serif" font-size="10.00">_response2004.InlineResponse2004.to_dict</text>
</a>
</g>
</g>
<!-- Node1&#45;&gt;Node15 -->
<g id="edge14" class="edge">
<title>Node1&#45;&gt;Node15</title>
<path fill="none" stroke="midnightblue" d="M191.28,-783.63C205.53,-781.99 220.4,-780.29 235.13,-778.6"/>
<polygon fill="midnightblue" stroke="midnightblue" points="235.77,-782.05 245.3,-777.43 234.97,-775.09 235.77,-782.05"/>
</g>
<!-- Node16 -->
<g id="node16" class="node">
<title>Node16</title>
<g id="a_node16"><a xlink:href="classcFSPlib_1_1python__api__client_1_1swagger__client_1_1models_1_1inline__response2005_1_1InlineResponse2005.html#ad46c7545bdf1094cbd707019113737ca" target="_top" xlink:title=" ">
<polygon fill="none" stroke="black" points="245.5,-684 245.5,-725 472.5,-725 472.5,-684 245.5,-684"/>
<text text-anchor="start" x="253.5" y="-713" font-family="Helvetica,sans-Serif" font-size="10.00">cFSPlib.python_api</text>
<text text-anchor="start" x="253.5" y="-702" font-family="Helvetica,sans-Serif" font-size="10.00">_client.swagger_client.models.inline</text>
<text text-anchor="middle" x="359" y="-691" font-family="Helvetica,sans-Serif" font-size="10.00">_response2005.InlineResponse2005.to_dict</text>
</a>
</g>
</g>
<!-- Node1&#45;&gt;Node16 -->
<g id="edge15" class="edge">
<title>Node1&#45;&gt;Node16</title>
<path fill="none" stroke="midnightblue" d="M135.61,-773.94C161.09,-761.2 195.37,-745.27 227,-734.5 233.91,-732.15 241.09,-729.92 248.36,-727.83"/>
<polygon fill="midnightblue" stroke="midnightblue" points="249.63,-731.11 258.33,-725.06 247.76,-724.37 249.63,-731.11"/>
</g>
<!-- Node17 -->
<g id="node17" class="node">
<title>Node17</title>
<g id="a_node17"><a xlink:href="classcFSPlib_1_1python__api__client_1_1swagger__client_1_1models_1_1inline__response2006_1_1InlineResponse2006.html#a5c95ca06fe9c1f2014a8dbe7f8b0a9d0" target="_top" xlink:title=" ">
<polygon fill="none" stroke="black" points="245.5,-624 245.5,-665 472.5,-665 472.5,-624 245.5,-624"/>
<text text-anchor="start" x="253.5" y="-653" font-family="Helvetica,sans-Serif" font-size="10.00">cFSPlib.python_api</text>
<text text-anchor="start" x="253.5" y="-642" font-family="Helvetica,sans-Serif" font-size="10.00">_client.swagger_client.models.inline</text>
<text text-anchor="middle" x="359" y="-631" font-family="Helvetica,sans-Serif" font-size="10.00">_response2006.InlineResponse2006.to_dict</text>
</a>
</g>
</g>
<!-- Node1&#45;&gt;Node17 -->
<g id="edge16" class="edge">
<title>Node1&#45;&gt;Node17</title>
<path fill="none" stroke="midnightblue" d="M113.11,-773.59C135.85,-746.45 179.33,-699.58 227,-674.5 230.77,-672.51 234.68,-670.66 238.67,-668.93"/>
<polygon fill="midnightblue" stroke="midnightblue" points="240.18,-672.09 248.14,-665.1 237.56,-665.6 240.18,-672.09"/>
</g>
<!-- Node18 -->
<g id="node18" class="node">
<title>Node18</title>
<g id="a_node18"><a xlink:href="classcFSPlib_1_1python__api__client_1_1swagger__client_1_1models_1_1instance_1_1Instance.html#aed23dfe041763799abf00baff0255667" target="_top" xlink:title=" ">
<polygon fill="none" stroke="black" points="253,-564 253,-605 465,-605 465,-564 253,-564"/>
<text text-anchor="start" x="261" y="-593" font-family="Helvetica,sans-Serif" font-size="10.00">cFSPlib.python_api</text>
<text text-anchor="start" x="261" y="-582" font-family="Helvetica,sans-Serif" font-size="10.00">_client.swagger_client.models.instance.</text>
<text text-anchor="middle" x="359" y="-571" font-family="Helvetica,sans-Serif" font-size="10.00">Instance.to_dict</text>
</a>
</g>
</g>
<!-- Node1&#45;&gt;Node18 -->
<g id="edge17" class="edge">
<title>Node1&#45;&gt;Node18</title>
<path fill="none" stroke="midnightblue" d="M105.44,-773.74C122.91,-735.77 165.35,-655.27 227,-614.5 232.24,-611.04 237.82,-607.97 243.62,-605.26"/>
<polygon fill="midnightblue" stroke="midnightblue" points="245.08,-608.44 252.89,-601.27 242.32,-602 245.08,-608.44"/>
</g>
<!-- Node19 -->
<g id="node19" class="node">
<title>Node19</title>
<g id="a_node19"><a xlink:href="classcFSPlib_1_1python__api__client_1_1swagger__client_1_1models_1_1instance__id__api__gateway__33456c8700113c53c3cfaa915ef28716.html#a4d21c92cd28568b7bcdddcd77c95da7a" target="_top" xlink:title=" ">
<polygon fill="none" stroke="black" points="239.5,-492.5 239.5,-544.5 478.5,-544.5 478.5,-492.5 239.5,-492.5"/>
<text text-anchor="start" x="247.5" y="-532.5" font-family="Helvetica,sans-Serif" font-size="10.00">cFSPlib.python_api</text>
<text text-anchor="start" x="247.5" y="-521.5" font-family="Helvetica,sans-Serif" font-size="10.00">_client.swagger_client.models.instance</text>
<text text-anchor="start" x="247.5" y="-510.5" font-family="Helvetica,sans-Serif" font-size="10.00">_id_api_gateway_body.InstanceIdApiGateway</text>
<text text-anchor="middle" x="359" y="-499.5" font-family="Helvetica,sans-Serif" font-size="10.00">Body.to_dict</text>
</a>
</g>
</g>
<!-- Node1&#45;&gt;Node19 -->
<g id="edge18" class="edge">
<title>Node1&#45;&gt;Node19</title>
<path fill="none" stroke="midnightblue" d="M101.74,-773.88C114.64,-727.34 152.49,-613.59 227,-554.5 229.02,-552.9 231.11,-551.37 233.25,-549.9"/>
<polygon fill="midnightblue" stroke="midnightblue" points="235.15,-552.84 241.79,-544.59 231.45,-546.9 235.15,-552.84"/>
</g>
<!-- Node20 -->
<g id="node20" class="node">
<title>Node20</title>
<g id="a_node20"><a xlink:href="classcFSPlib_1_1python__api__client_1_1swagger__client_1_1models_1_1instance__id__runlevel__body_1_1InstanceIdRunlevelBody.html#acc6834a79dfaafbd099970c0df7d878a" target="_top" xlink:title=" ">
<polygon fill="none" stroke="black" points="229.5,-432 229.5,-473 488.5,-473 488.5,-432 229.5,-432"/>
<text text-anchor="start" x="237.5" y="-461" font-family="Helvetica,sans-Serif" font-size="10.00">cFSPlib.python_api</text>
<text text-anchor="start" x="237.5" y="-450" font-family="Helvetica,sans-Serif" font-size="10.00">_client.swagger_client.models.instance</text>
<text text-anchor="middle" x="359" y="-439" font-family="Helvetica,sans-Serif" font-size="10.00">_id_runlevel_body.InstanceIdRunlevelBody.to_dict</text>
</a>
</g>
</g>
<!-- Node1&#45;&gt;Node20 -->
<g id="edge19" class="edge">
<title>Node1&#45;&gt;Node20</title>
<path fill="none" stroke="midnightblue" d="M98.8,-773.7C106.14,-717.58 134.3,-562.04 227,-483.5 229.03,-481.78 231.13,-480.15 233.31,-478.61"/>
<polygon fill="midnightblue" stroke="midnightblue" points="235.44,-481.41 242.01,-473.09 231.69,-475.5 235.44,-481.41"/>
</g>
<!-- Node21 -->
<g id="node21" class="node">
<title>Node21</title>
<g id="a_node21"><a xlink:href="classcFSPlib_1_1python__api__client_1_1swagger__client_1_1models_1_1instances__body_1_1InstancesBody.html#aed7aad923568e83cd8fff866b77013e1" target="_top" xlink:title=" ">
<polygon fill="none" stroke="black" points="252,-372 252,-413 466,-413 466,-372 252,-372"/>
<text text-anchor="start" x="260" y="-401" font-family="Helvetica,sans-Serif" font-size="10.00">cFSPlib.python_api</text>
<text text-anchor="start" x="260" y="-390" font-family="Helvetica,sans-Serif" font-size="10.00">_client.swagger_client.models.instances</text>
<text text-anchor="middle" x="359" y="-379" font-family="Helvetica,sans-Serif" font-size="10.00">_body.InstancesBody.to_dict</text>
</a>
</g>
</g>
<!-- Node1&#45;&gt;Node21 -->
<g id="edge20" class="edge">
<title>Node1&#45;&gt;Node21</title>
<path fill="none" stroke="midnightblue" d="M97.15,-773.88C100.31,-710.85 118.81,-519.18 227,-422.5 231.8,-418.22 237.08,-414.5 242.68,-411.3"/>
<polygon fill="midnightblue" stroke="midnightblue" points="244.44,-414.33 251.74,-406.65 241.24,-408.1 244.44,-414.33"/>
</g>
<!-- Node22 -->
<g id="node22" class="node">
<title>Node22</title>
<g id="a_node22"><a xlink:href="classcFSPlib_1_1python__api__client_1_1swagger__client_1_1models_1_1instances__instance__id__body_1_1InstancesInstanceIdBody.html#a7dd72793d6126eb9e9aaa591f4cd27a1" target="_top" xlink:title=" ">
<polygon fill="none" stroke="black" points="227,-312 227,-353 491,-353 491,-312 227,-312"/>
<text text-anchor="start" x="235" y="-341" font-family="Helvetica,sans-Serif" font-size="10.00">cFSPlib.python_api</text>
<text text-anchor="start" x="235" y="-330" font-family="Helvetica,sans-Serif" font-size="10.00">_client.swagger_client.models.instances</text>
<text text-anchor="middle" x="359" y="-319" font-family="Helvetica,sans-Serif" font-size="10.00">_instance_id_body.InstancesInstanceIdBody.to_dict</text>
</a>
</g>
</g>
<!-- Node1&#45;&gt;Node22 -->
<g id="edge21" class="edge">
<title>Node1&#45;&gt;Node22</title>
<path fill="none" stroke="midnightblue" d="M96,-773.65C95.52,-704.03 103.9,-477.48 227,-362.5 228.29,-361.3 229.62,-360.14 230.98,-359.02"/>
<polygon fill="midnightblue" stroke="midnightblue" points="233.11,-361.8 239.14,-353.09 228.99,-356.14 233.11,-361.8"/>
</g>
<!-- Node23 -->
<g id="node23" class="node">
<title>Node23</title>
<g id="a_node23"><a xlink:href="classcFSPlib_1_1python__api__client_1_1swagger__client_1_1models_1_1node__map_1_1NodeMap.html#a9f8e084f531872bf958a4f2ab0763677" target="_top" xlink:title=" ">
<polygon fill="none" stroke="black" points="263.5,-252 263.5,-293 454.5,-293 454.5,-252 263.5,-252"/>
<text text-anchor="start" x="271.5" y="-281" font-family="Helvetica,sans-Serif" font-size="10.00">cFSPlib.python_api</text>
<text text-anchor="start" x="271.5" y="-270" font-family="Helvetica,sans-Serif" font-size="10.00">_client.swagger_client.models.node</text>
<text text-anchor="middle" x="359" y="-259" font-family="Helvetica,sans-Serif" font-size="10.00">_map.NodeMap.to_dict</text>
</a>
</g>
</g>
<!-- Node1&#45;&gt;Node23 -->
<g id="edge22" class="edge">
<title>Node1&#45;&gt;Node23</title>
<path fill="none" stroke="midnightblue" d="M99.14,-773.81C110.34,-689.16 156.62,-370.51 227,-302.5 234.77,-294.99 244.02,-289.21 253.95,-284.79"/>
<polygon fill="midnightblue" stroke="midnightblue" points="255.25,-288.05 263.25,-281.1 252.66,-281.54 255.25,-288.05"/>
</g>
<!-- Node24 -->
<g id="node24" class="node">
<title>Node24</title>
<g id="a_node24"><a xlink:href="classcFSPlib_1_1python__api__client_1_1swagger__client_1_1models_1_1node__map__inner_1_1NodeMapInner.html#af6d39304bb728e602bb55d3e19d1233f" target="_top" xlink:title=" ">
<polygon fill="none" stroke="black" points="263.5,-192 263.5,-233 454.5,-233 454.5,-192 263.5,-192"/>
<text text-anchor="start" x="271.5" y="-221" font-family="Helvetica,sans-Serif" font-size="10.00">cFSPlib.python_api</text>
<text text-anchor="start" x="271.5" y="-210" font-family="Helvetica,sans-Serif" font-size="10.00">_client.swagger_client.models.node</text>
<text text-anchor="middle" x="359" y="-199" font-family="Helvetica,sans-Serif" font-size="10.00">_map_inner.NodeMapInner.to_dict</text>
</a>
</g>
</g>
<!-- Node1&#45;&gt;Node24 -->
<g id="edge23" class="edge">
<title>Node1&#45;&gt;Node24</title>
<path fill="none" stroke="midnightblue" d="M98.5,-773.82C107.7,-682.93 148.91,-320.04 227,-242.5 234.73,-234.82 244,-228.95 253.99,-224.47"/>
<polygon fill="midnightblue" stroke="midnightblue" points="255.35,-227.7 263.35,-220.75 252.76,-221.2 255.35,-227.7"/>
</g>
<!-- Node25 -->
<g id="node25" class="node">
<title>Node25</title>
<g id="a_node25"><a xlink:href="classcFSPlib_1_1python__api__client_1_1swagger__client_1_1models_1_1quota_1_1Quota.html#aa144c533fb9a07e0328cd2c9f8a54e10" target="_top" xlink:title=" ">
<polygon fill="none" stroke="black" points="260,-132 260,-173 458,-173 458,-132 260,-132"/>
<text text-anchor="start" x="268" y="-161" font-family="Helvetica,sans-Serif" font-size="10.00">cFSPlib.python_api</text>
<text text-anchor="start" x="268" y="-150" font-family="Helvetica,sans-Serif" font-size="10.00">_client.swagger_client.models.quota.</text>
<text text-anchor="middle" x="359" y="-139" font-family="Helvetica,sans-Serif" font-size="10.00">Quota.to_dict</text>
</a>
</g>
</g>
<!-- Node1&#45;&gt;Node25 -->
<g id="edge24" class="edge">
<title>Node1&#45;&gt;Node25</title>
<path fill="none" stroke="midnightblue" d="M97.98,-773.9C105.34,-677.25 141.14,-269.67 227,-182.5 233.81,-175.59 241.85,-170.14 250.56,-165.84"/>
<polygon fill="midnightblue" stroke="midnightblue" points="252.09,-168.99 259.85,-161.78 249.29,-162.58 252.09,-168.99"/>
</g>
<!-- Node26 -->
<g id="node26" class="node">
<title>Node26</title>
<g id="a_node26"><a xlink:href="classcFSPlib_1_1python__api__client_1_1swagger__client_1_1models_1_1resource_1_1Resource.html#ab23087e90002e476660d47200211a80e" target="_top" xlink:title=" ">
<polygon fill="none" stroke="black" points="253,-72 253,-113 465,-113 465,-72 253,-72"/>
<text text-anchor="start" x="261" y="-101" font-family="Helvetica,sans-Serif" font-size="10.00">cFSPlib.python_api</text>
<text text-anchor="start" x="261" y="-90" font-family="Helvetica,sans-Serif" font-size="10.00">_client.swagger_client.models.resource.</text>
<text text-anchor="middle" x="359" y="-79" font-family="Helvetica,sans-Serif" font-size="10.00">Resource.to_dict</text>
</a>
</g>
</g>
<!-- Node1&#45;&gt;Node26 -->
<g id="edge25" class="edge">
<title>Node1&#45;&gt;Node26</title>
<path fill="none" stroke="midnightblue" d="M97.55,-773.98C103.21,-671.84 133.32,-219.35 227,-122.5 231.96,-117.37 237.6,-113.04 243.69,-109.39"/>
<polygon fill="midnightblue" stroke="midnightblue" points="245.71,-112.29 252.91,-104.52 242.44,-106.1 245.71,-112.29"/>
</g>
<!-- Node27 -->
<g id="node27" class="node">
<title>Node27</title>
<g id="a_node27"><a xlink:href="classcFSPlib_1_1python__api__client_1_1swagger__client_1_1models_1_1test__instance__instance__idb21fef29c350bd01bc51bf6a97dd8668.html#aef8ffd853e93db25594577ace055c355" target="_top" xlink:title=" ">
<polygon fill="none" stroke="black" points="251.5,-0.5 251.5,-52.5 466.5,-52.5 466.5,-0.5 251.5,-0.5"/>
<text text-anchor="start" x="259.5" y="-40.5" font-family="Helvetica,sans-Serif" font-size="10.00">cFSPlib.python_api</text>
<text text-anchor="start" x="259.5" y="-29.5" font-family="Helvetica,sans-Serif" font-size="10.00">_client.swagger_client.models.test</text>
<text text-anchor="start" x="259.5" y="-18.5" font-family="Helvetica,sans-Serif" font-size="10.00">_instance_instance_id_body.TestInstance</text>
<text text-anchor="middle" x="359" y="-7.5" font-family="Helvetica,sans-Serif" font-size="10.00">InstanceIdBody.to_dict</text>
</a>
</g>
</g>
<!-- Node1&#45;&gt;Node27 -->
<g id="edge26" class="edge">
<title>Node1&#45;&gt;Node27</title>
<path fill="none" stroke="midnightblue" d="M97.3,-773.69C101.85,-665.83 127.93,-171.1 227,-62.5 231.65,-57.41 236.94,-53.01 242.67,-49.21"/>
<polygon fill="midnightblue" stroke="midnightblue" points="244.53,-52.17 251.35,-44.07 240.97,-46.15 244.53,-52.17"/>
</g>
</g>
</svg>
        <g id="navigator" transform="translate(0 0)" fill="#404254">
                <rect fill="#f2f5e9" fill-opacity="0.5" stroke="#606060" stroke-width=".5" x="0" y="0" width="60" height="60"/>
                <use id="zoomplus" xlink:href="#zoomPlus" x="17" y="9" onmousedown="handleZoom(evt,'in')"/>
                <use id="zoomminus" xlink:href="#zoomMin" x="42" y="9" onmousedown="handleZoom(evt,'out')"/>
                <use id="reset" xlink:href="#resetDef" x="30" y="36" onmousedown="handleReset()"/>
                <g id="arrowUp" xlink:href="#dirArrow" transform="translate(30 24)" onmousedown="handlePan(0,-1)">
                  <use xlink:href="#rim" fill="#404040">
                        <set attributeName="fill" to="#808080" begin="arrowUp.mouseover" end="arrowUp.mouseout"/>
                  </use>
                  <path fill="none" stroke="white" stroke-width="1.5" d="M0,-3.0v7 M-2.5,-0.5L0,-3.0L2.5,-0.5"/>
                </g>
                <g id="arrowRight" xlink:href="#dirArrow" transform="rotate(90) translate(36 -43)" onmousedown="handlePan(1,0)">
                  <use xlink:href="#rim" fill="#404040">
                        <set attributeName="fill" to="#808080" begin="arrowRight.mouseover" end="arrowRight.mouseout"/>
                  </use>
                  <path fill="none" stroke="white" stroke-width="1.5" d="M0,-3.0v7 M-2.5,-0.5L0,-3.0L2.5,-0.5"/>
                </g>
                <g id="arrowDown" xlink:href="#dirArrow" transform="rotate(180) translate(-30 -48)" onmousedown="handlePan(0,1)">
                  <use xlink:href="#rim" fill="#404040">
                        <set attributeName="fill" to="#808080" begin="arrowDown.mouseover" end="arrowDown.mouseout"/>
                  </use>
                  <path fill="none" stroke="white" stroke-width="1.5" d="M0,-3.0v7 M-2.5,-0.5L0,-3.0L2.5,-0.5"/>
                </g>
                <g id="arrowLeft" xlink:href="#dirArrow" transform="rotate(270) translate(-36 17)" onmousedown="handlePan(-1,0)">
                  <use xlink:href="#rim" fill="#404040">
                        <set attributeName="fill" to="#808080" begin="arrowLeft.mouseover" end="arrowLeft.mouseout"/>
                  </use>
                  <path fill="none" stroke="white" stroke-width="1.5" d="M0,-3.0v7 M-2.5,-0.5L0,-3.0L2.5,-0.5"/>
                </g>
        </g>
        <svg viewBox="0 0 15 15" width="100%" height="30px" preserveAspectRatio="xMaxYMin meet">
         <g id="arrow_out" transform="scale(0.3 0.3)">
          <a xlink:href="classcFSPlib_1_1python__api__client_1_1swagger__client_1_1models_1_1build__script_1_1BuildScript_aff693bc9fbeb1944c17daebbe2af4bf1_cgraph_org.svg" target="_base">
           <rect id="button" ry="5" rx="5" y="6" x="6" height="38" width="38"
                fill="#f2f5e9" fill-opacity="0.5" stroke="#606060" stroke-width="1.0"/>
           <path id="arrow"
             d="M 11.500037,31.436501 C 11.940474,20.09759 22.043105,11.32322 32.158766,21.979434 L 37.068811,17.246167 C 37.068811,17.246167 37.088388,32 37.088388,32 L 22.160133,31.978069 C 22.160133,31.978069 26.997745,27.140456 26.997745,27.140456 C 18.528582,18.264221 13.291696,25.230495 11.500037,31.436501 z"
             style="fill:#404040;"/>
          </a>
         </g>
        </svg>
</svg>
