<?xml version="1.0" encoding="UTF-8" standalone="no"?>
<!DOCTYPE svg PUBLIC "-//W3C//DTD SVG 1.1//EN"
 "http://www.w3.org/Graphics/SVG/1.1/DTD/svg11.dtd">
<!-- Generated by graphviz version 2.43.0 (0)
 -->
<!-- Title: AxisIp4::getIp4Prot Pages: 1 -->
<!--zoomable 180 -->
<svg id="main" version="1.1" xmlns="http://www.w3.org/2000/svg" xmlns:xlink="http://www.w3.org/1999/xlink" xml:space="preserve" onload="init(evt)">
<style type="text/css"><![CDATA[
.edge:hover path { stroke: red; }
.edge:hover polygon { stroke: red; fill: red; }
]]></style>
<script type="text/javascript"><![CDATA[
var edges = document.getElementsByTagName('g');
if (edges && edges.length) {
  for (var i=0;i<edges.length;i++) {
    if (edges[i].id.substr(0,4)=='edge') {
      edges[i].setAttribute('class','edge');
    }
  }
}
]]></script>
        <defs>
                <circle id="rim" cx="0" cy="0" r="7"/>
                <circle id="rim2" cx="0" cy="0" r="3.5"/>
                <g id="zoomPlus">
                        <use xlink:href="#rim" fill="#404040">
                                <set attributeName="fill" to="#808080" begin="zoomplus.mouseover" end="zoomplus.mouseout"/>
                        </use>
                        <path d="M-4,0h8M0,-4v8" fill="none" stroke="white" stroke-width="1.5" pointer-events="none"/>
                </g>
                <g id="zoomMin">
                        <use xlink:href="#rim" fill="#404040">
                                <set attributeName="fill" to="#808080" begin="zoomminus.mouseover" end="zoomminus.mouseout"/>
                        </use>
                        <path d="M-4,0h8" fill="none" stroke="white" stroke-width="1.5" pointer-events="none"/>
                </g>
                <g id="dirArrow">
                        <path fill="none" stroke="white" stroke-width="1.5" d="M0,-3.0v7 M-2.5,-0.5L0,-3.0L2.5,-0.5"/>
                </g>
               <g id="resetDef">
                       <use xlink:href="#rim2" fill="#404040">
                               <set attributeName="fill" to="#808080" begin="reset.mouseover" end="reset.mouseout"/>
                       </use>
               </g>
        </defs>

<script type="text/javascript">
var viewWidth = 817;
var viewHeight = 180;
var sectionId = 'dynsection-8';
</script>
<script xlink:href="svgpan.js"/>
<svg id="graph" class="graph">
<g id="viewport">
<title>AxisIp4::getIp4Prot</title>
<!-- Node1 -->
<g id="node1" class="node">
<title>Node1</title>
<g id="a_node1"><a xlink:title=" ">
<polygon fill="#bfbfbf" stroke="black" points="700,-76.5 700,-95.5 809,-95.5 809,-76.5 700,-76.5"/>
<text text-anchor="middle" x="754.5" y="-83.5" font-family="Helvetica,sans-Serif" font-size="10.00">AxisIp4::getIp4Prot</text>
</a>
</g>
</g>
<!-- Node2 -->
<g id="node2" class="node">
<title>Node2</title>
<g id="a_node2"><a xlink:href="group__NTS__ICMP.html#ga9966f6389006fa1f1ef4b06b458b081a" target="_top" xlink:title=" ">
<polygon fill="none" stroke="black" points="527,-114.5 527,-133.5 664,-133.5 664,-114.5 527,-114.5"/>
<text text-anchor="middle" x="595.5" y="-121.5" font-family="Helvetica,sans-Serif" font-size="10.00">pIcmpChecksumChecker</text>
</a>
</g>
</g>
<!-- Node1&#45;&gt;Node2 -->
<g id="edge1" class="edge">
<title>Node1&#45;&gt;Node2</title>
<path fill="none" stroke="midnightblue" d="M704.05,-97.97C682.05,-103.29 656.51,-109.48 635.83,-114.48"/>
<polygon fill="midnightblue" stroke="midnightblue" points="704.99,-101.34 713.88,-95.59 703.34,-94.54 704.99,-101.34"/>
</g>
<!-- Node7 -->
<g id="node7" class="node">
<title>Node7</title>
<g id="a_node7"><a xlink:href="group__NTS__UOE.html#gaf298ae8ed051de648f02f4b2ab238ded" target="_top" xlink:title=" ">
<polygon fill="none" stroke="black" points="543,-76.5 543,-95.5 648,-95.5 648,-76.5 543,-76.5"/>
<text text-anchor="middle" x="595.5" y="-83.5" font-family="Helvetica,sans-Serif" font-size="10.00">pIpHeaderStripper</text>
</a>
</g>
</g>
<!-- Node1&#45;&gt;Node7 -->
<g id="edge7" class="edge">
<title>Node1&#45;&gt;Node7</title>
<path fill="none" stroke="midnightblue" d="M689.55,-86C675.82,-86 661.46,-86 648.26,-86"/>
<polygon fill="midnightblue" stroke="midnightblue" points="689.91,-89.5 699.91,-86 689.91,-82.5 689.91,-89.5"/>
</g>
<!-- Node13 -->
<g id="node13" class="node">
<title>Node13</title>
<g id="a_node13"><a xlink:href="group__NTS__IPRX.html#gabdae837ccc3696605659448bc4ee394c" target="_top" xlink:title=" ">
<polygon fill="none" stroke="black" points="548,-38.5 548,-57.5 643,-57.5 643,-38.5 548,-38.5"/>
<text text-anchor="middle" x="595.5" y="-45.5" font-family="Helvetica,sans-Serif" font-size="10.00">pIpPacketRouter</text>
</a>
</g>
</g>
<!-- Node1&#45;&gt;Node13 -->
<g id="edge14" class="edge">
<title>Node1&#45;&gt;Node13</title>
<path fill="none" stroke="midnightblue" d="M704.05,-74.03C682.05,-68.71 656.51,-62.52 635.83,-57.52"/>
<polygon fill="midnightblue" stroke="midnightblue" points="703.34,-77.46 713.88,-76.41 704.99,-70.66 703.34,-77.46"/>
</g>
<!-- Node3 -->
<g id="node3" class="node">
<title>Node3</title>
<g id="a_node3"><a xlink:href="group__NTS__ICMP.html#gaa1fbe125ee59fc3f93c7cf0b3dc045a5" target="_top" xlink:title="Main process of the Internet Control Message Protocol (ICMP) Server.">
<polygon fill="none" stroke="black" points="436.5,-114.5 436.5,-133.5 477.5,-133.5 477.5,-114.5 436.5,-114.5"/>
<text text-anchor="middle" x="457" y="-121.5" font-family="Helvetica,sans-Serif" font-size="10.00">icmp</text>
</a>
</g>
</g>
<!-- Node2&#45;&gt;Node3 -->
<g id="edge2" class="edge">
<title>Node2&#45;&gt;Node3</title>
<path fill="none" stroke="midnightblue" d="M516.59,-124C502.15,-124 488.3,-124 477.7,-124"/>
<polygon fill="midnightblue" stroke="midnightblue" points="516.65,-127.5 526.65,-124 516.65,-120.5 516.65,-127.5"/>
</g>
<!-- Node4 -->
<g id="node4" class="node">
<title>Node4</title>
<g id="a_node4"><a xlink:href="group__NTS__ICMP.html#ga3c54cc21d2386d572cf73472661b22d4" target="_top" xlink:title="Top of the Internet Control Message Protocol (ICMP) Server.">
<polygon fill="none" stroke="black" points="325,-114.5 325,-133.5 387,-133.5 387,-114.5 325,-114.5"/>
<text text-anchor="middle" x="356" y="-121.5" font-family="Helvetica,sans-Serif" font-size="10.00">icmp_top</text>
</a>
</g>
</g>
<!-- Node3&#45;&gt;Node4 -->
<g id="edge3" class="edge">
<title>Node3&#45;&gt;Node4</title>
<path fill="none" stroke="midnightblue" d="M426.17,-124C413.79,-124 399.45,-124 387.05,-124"/>
<polygon fill="midnightblue" stroke="midnightblue" points="426.44,-127.5 436.44,-124 426.44,-120.5 426.44,-127.5"/>
</g>
<!-- Node5 -->
<g id="node5" class="node">
<title>Node5</title>
<g id="a_node5"><a xlink:href="group__NTS__ICMP__TEST.html#ga32bc9c115ea573de78b3d47cc1535acb" target="_top" xlink:title="A wrapper for Toplevel of Internet Control Message Protocol (ICMP).">
<polygon fill="none" stroke="black" points="198,-152.5 198,-171.5 289,-171.5 289,-152.5 198,-152.5"/>
<text text-anchor="middle" x="243.5" y="-159.5" font-family="Helvetica,sans-Serif" font-size="10.00">icmp_top_wrap</text>
</a>
</g>
</g>
<!-- Node4&#45;&gt;Node5 -->
<g id="edge4" class="edge">
<title>Node4&#45;&gt;Node5</title>
<path fill="none" stroke="midnightblue" d="M317.28,-136.97C302.56,-142.03 285.98,-147.73 272.37,-152.41"/>
<polygon fill="midnightblue" stroke="midnightblue" points="318.8,-140.15 327.12,-133.59 316.52,-133.53 318.8,-140.15"/>
</g>
<!-- Node6 -->
<g id="node6" class="node">
<title>Node6</title>
<g id="a_node6"><a xlink:href="group__NTS__ICMP__TEST.html#ga0ddf1224851353fc92bfbff6f499fa97" target="_top" xlink:title="Main function.">
<polygon fill="none" stroke="black" points="99,-114.5 99,-133.5 140,-133.5 140,-114.5 99,-114.5"/>
<text text-anchor="middle" x="119.5" y="-121.5" font-family="Helvetica,sans-Serif" font-size="10.00">main</text>
</a>
</g>
</g>
<!-- Node4&#45;&gt;Node6 -->
<g id="edge6" class="edge">
<title>Node4&#45;&gt;Node6</title>
<path fill="none" stroke="midnightblue" d="M314.53,-124C263.74,-124 178.63,-124 140.29,-124"/>
<polygon fill="midnightblue" stroke="midnightblue" points="314.82,-127.5 324.82,-124 314.82,-120.5 314.82,-127.5"/>
</g>
<!-- Node5&#45;&gt;Node6 -->
<g id="edge5" class="edge">
<title>Node5&#45;&gt;Node6</title>
<path fill="none" stroke="midnightblue" d="M202.14,-149.43C181.33,-142.95 156.88,-135.33 140.19,-130.13"/>
<polygon fill="midnightblue" stroke="midnightblue" points="201.13,-152.78 211.71,-152.41 203.21,-146.1 201.13,-152.78"/>
</g>
<!-- Node8 -->
<g id="node8" class="node">
<title>Node8</title>
<g id="a_node8"><a xlink:href="group__NTS__UOE.html#ga0f2f0d19a54d57f63fe33700654988f8" target="_top" xlink:title=" ">
<polygon fill="none" stroke="black" points="423,-76.5 423,-95.5 491,-95.5 491,-76.5 423,-76.5"/>
<text text-anchor="middle" x="457" y="-83.5" font-family="Helvetica,sans-Serif" font-size="10.00">pRxEngine</text>
</a>
</g>
</g>
<!-- Node7&#45;&gt;Node8 -->
<g id="edge8" class="edge">
<title>Node7&#45;&gt;Node8</title>
<path fill="none" stroke="midnightblue" d="M532.58,-86C518.28,-86 503.6,-86 491.09,-86"/>
<polygon fill="midnightblue" stroke="midnightblue" points="532.9,-89.5 542.9,-86 532.9,-82.5 532.9,-89.5"/>
</g>
<!-- Node9 -->
<g id="node9" class="node">
<title>Node9</title>
<g id="a_node9"><a xlink:href="group__NTS__UOE.html#ga84101607ce156850e4f7426c8be83a2b" target="_top" xlink:title="Main process of the UDP Offload Engine (UOE).">
<polygon fill="none" stroke="black" points="338.5,-76.5 338.5,-95.5 373.5,-95.5 373.5,-76.5 338.5,-76.5"/>
<text text-anchor="middle" x="356" y="-83.5" font-family="Helvetica,sans-Serif" font-size="10.00">uoe</text>
</a>
</g>
</g>
<!-- Node8&#45;&gt;Node9 -->
<g id="edge9" class="edge">
<title>Node8&#45;&gt;Node9</title>
<path fill="none" stroke="midnightblue" d="M412.43,-86C398.67,-86 384.29,-86 373.63,-86"/>
<polygon fill="midnightblue" stroke="midnightblue" points="412.76,-89.5 422.76,-86 412.76,-82.5 412.76,-89.5"/>
</g>
<!-- Node10 -->
<g id="node10" class="node">
<title>Node10</title>
<g id="a_node10"><a xlink:href="group__NTS__UOE.html#ga5d9bd6d46b41ba8787888e1e6bfb0d41" target="_top" xlink:title="Top of UDP Offload Engine (UOE)">
<polygon fill="none" stroke="black" points="215.5,-76.5 215.5,-95.5 271.5,-95.5 271.5,-76.5 215.5,-76.5"/>
<text text-anchor="middle" x="243.5" y="-83.5" font-family="Helvetica,sans-Serif" font-size="10.00">uoe_top</text>
</a>
</g>
</g>
<!-- Node9&#45;&gt;Node10 -->
<g id="edge10" class="edge">
<title>Node9&#45;&gt;Node10</title>
<path fill="none" stroke="midnightblue" d="M327.81,-86C310.76,-86 288.85,-86 271.77,-86"/>
<polygon fill="midnightblue" stroke="midnightblue" points="328.22,-89.5 338.22,-86 328.22,-82.5 328.22,-89.5"/>
</g>
<!-- Node11 -->
<g id="node11" class="node">
<title>Node11</title>
<g id="a_node11"><a xlink:href="group__NTS__UOE__TEST.html#ga0ddf1224851353fc92bfbff6f499fa97" target="_top" xlink:title="Main function.">
<polygon fill="none" stroke="black" points="0,-57.5 0,-76.5 41,-76.5 41,-57.5 0,-57.5"/>
<text text-anchor="middle" x="20.5" y="-64.5" font-family="Helvetica,sans-Serif" font-size="10.00">main</text>
</a>
</g>
</g>
<!-- Node10&#45;&gt;Node11 -->
<g id="edge11" class="edge">
<title>Node10&#45;&gt;Node11</title>
<path fill="none" stroke="midnightblue" d="M205.24,-82.8C157.86,-78.72 77.78,-71.84 41.02,-68.68"/>
<polygon fill="midnightblue" stroke="midnightblue" points="205.14,-86.3 215.4,-83.67 205.74,-79.33 205.14,-86.3"/>
</g>
<!-- Node12 -->
<g id="node12" class="node">
<title>Node12</title>
<g id="a_node12"><a xlink:href="group__NTS__UOE__TEST.html#ga0bfd8cabf14df12bd23594b44ea70b16" target="_top" xlink:title="A wrapper for the Toplevel of the UDP Offload Engine (UOE)">
<polygon fill="none" stroke="black" points="77,-38.5 77,-57.5 162,-57.5 162,-38.5 77,-38.5"/>
<text text-anchor="middle" x="119.5" y="-45.5" font-family="Helvetica,sans-Serif" font-size="10.00">uoe_top_wrap</text>
</a>
</g>
</g>
<!-- Node10&#45;&gt;Node12 -->
<g id="edge12" class="edge">
<title>Node10&#45;&gt;Node12</title>
<path fill="none" stroke="midnightblue" d="M205.63,-74.52C188.3,-69.12 167.87,-62.75 151.37,-57.62"/>
<polygon fill="midnightblue" stroke="midnightblue" points="204.84,-77.93 215.42,-77.57 206.92,-71.25 204.84,-77.93"/>
</g>
<!-- Node12&#45;&gt;Node11 -->
<g id="edge13" class="edge">
<title>Node12&#45;&gt;Node11</title>
<path fill="none" stroke="midnightblue" d="M66.83,-58.12C57.64,-59.92 48.61,-61.69 41.05,-63.17"/>
<polygon fill="midnightblue" stroke="midnightblue" points="67.66,-61.53 76.8,-56.17 66.31,-54.66 67.66,-61.53"/>
</g>
<!-- Node14 -->
<g id="node14" class="node">
<title>Node14</title>
<g id="a_node14"><a xlink:href="group__NTS__IPRX.html#ga7e8c72b9e6e0c5d3dc9c3db3d7d2b223" target="_top" xlink:title="Main process of the IP Receive handler (IPRX).">
<polygon fill="none" stroke="black" points="439.5,-38.5 439.5,-57.5 474.5,-57.5 474.5,-38.5 439.5,-38.5"/>
<text text-anchor="middle" x="457" y="-45.5" font-family="Helvetica,sans-Serif" font-size="10.00">iprx</text>
</a>
</g>
</g>
<!-- Node13&#45;&gt;Node14 -->
<g id="edge15" class="edge">
<title>Node13&#45;&gt;Node14</title>
<path fill="none" stroke="midnightblue" d="M537.62,-48C514.87,-48 490.39,-48 474.67,-48"/>
<polygon fill="midnightblue" stroke="midnightblue" points="537.91,-51.5 547.91,-48 537.91,-44.5 537.91,-51.5"/>
</g>
<!-- Node15 -->
<g id="node15" class="node">
<title>Node15</title>
<g id="a_node15"><a xlink:href="group__NTS__IPRX.html#ga9551c84175612702350bad828283ff42" target="_top" xlink:title="Top of IP Receive handler (IPRX)">
<polygon fill="none" stroke="black" points="328,-38.5 328,-57.5 384,-57.5 384,-38.5 328,-38.5"/>
<text text-anchor="middle" x="356" y="-45.5" font-family="Helvetica,sans-Serif" font-size="10.00">iprx_top</text>
</a>
</g>
</g>
<!-- Node14&#45;&gt;Node15 -->
<g id="edge16" class="edge">
<title>Node14&#45;&gt;Node15</title>
<path fill="none" stroke="midnightblue" d="M428.85,-48C415.02,-48 398.23,-48 384.36,-48"/>
<polygon fill="midnightblue" stroke="midnightblue" points="429.21,-51.5 439.21,-48 429.21,-44.5 429.21,-51.5"/>
</g>
<!-- Node16 -->
<g id="node16" class="node">
<title>Node16</title>
<g id="a_node16"><a xlink:href="group__NTS__IPRX__TEST.html#ga0a0f6aca8f6ee02e5d06ac2f60bdd06b" target="_top" xlink:title="A wrapper for the Toplevel of the IP Receive handler (IPRX).">
<polygon fill="none" stroke="black" points="200.5,-38.5 200.5,-57.5 286.5,-57.5 286.5,-38.5 200.5,-38.5"/>
<text text-anchor="middle" x="243.5" y="-45.5" font-family="Helvetica,sans-Serif" font-size="10.00">iprx_top_wrap</text>
</a>
</g>
</g>
<!-- Node15&#45;&gt;Node16 -->
<g id="edge17" class="edge">
<title>Node15&#45;&gt;Node16</title>
<path fill="none" stroke="midnightblue" d="M317.93,-48C307.92,-48 297.02,-48 286.75,-48"/>
<polygon fill="midnightblue" stroke="midnightblue" points="317.97,-51.5 327.97,-48 317.97,-44.5 317.97,-51.5"/>
</g>
<!-- Node17 -->
<g id="node17" class="node">
<title>Node17</title>
<g id="a_node17"><a xlink:href="group__NTS__IPRX__TEST.html#ga0ddf1224851353fc92bfbff6f499fa97" target="_top" xlink:title="Main function.">
<polygon fill="none" stroke="black" points="99,-0.5 99,-19.5 140,-19.5 140,-0.5 99,-0.5"/>
<text text-anchor="middle" x="119.5" y="-7.5" font-family="Helvetica,sans-Serif" font-size="10.00">main</text>
</a>
</g>
</g>
<!-- Node15&#45;&gt;Node17 -->
<g id="edge19" class="edge">
<title>Node15&#45;&gt;Node17</title>
<path fill="none" stroke="midnightblue" d="M318.1,-36.19C308.69,-33.51 298.53,-30.9 289,-29 235.73,-18.41 171.72,-13.21 140.12,-11.14"/>
<polygon fill="midnightblue" stroke="midnightblue" points="317.38,-39.63 327.96,-39.1 319.36,-32.92 317.38,-39.63"/>
</g>
<!-- Node16&#45;&gt;Node17 -->
<g id="edge18" class="edge">
<title>Node16&#45;&gt;Node17</title>
<path fill="none" stroke="midnightblue" d="M202.14,-35.43C181.33,-28.95 156.88,-21.33 140.19,-16.13"/>
<polygon fill="midnightblue" stroke="midnightblue" points="201.13,-38.78 211.71,-38.41 203.21,-32.1 201.13,-38.78"/>
</g>
</g>
</svg>
        <g id="navigator" transform="translate(0 0)" fill="#404254">
                <rect fill="#f2f5e9" fill-opacity="0.5" stroke="#606060" stroke-width=".5" x="0" y="0" width="60" height="60"/>
                <use id="zoomplus" xlink:href="#zoomPlus" x="17" y="9" onmousedown="handleZoom(evt,'in')"/>
                <use id="zoomminus" xlink:href="#zoomMin" x="42" y="9" onmousedown="handleZoom(evt,'out')"/>
                <use id="reset" xlink:href="#resetDef" x="30" y="36" onmousedown="handleReset()"/>
                <g id="arrowUp" xlink:href="#dirArrow" transform="translate(30 24)" onmousedown="handlePan(0,-1)">
                  <use xlink:href="#rim" fill="#404040">
                        <set attributeName="fill" to="#808080" begin="arrowUp.mouseover" end="arrowUp.mouseout"/>
                  </use>
                  <path fill="none" stroke="white" stroke-width="1.5" d="M0,-3.0v7 M-2.5,-0.5L0,-3.0L2.5,-0.5"/>
                </g>
                <g id="arrowRight" xlink:href="#dirArrow" transform="rotate(90) translate(36 -43)" onmousedown="handlePan(1,0)">
                  <use xlink:href="#rim" fill="#404040">
                        <set attributeName="fill" to="#808080" begin="arrowRight.mouseover" end="arrowRight.mouseout"/>
                  </use>
                  <path fill="none" stroke="white" stroke-width="1.5" d="M0,-3.0v7 M-2.5,-0.5L0,-3.0L2.5,-0.5"/>
                </g>
                <g id="arrowDown" xlink:href="#dirArrow" transform="rotate(180) translate(-30 -48)" onmousedown="handlePan(0,1)">
                  <use xlink:href="#rim" fill="#404040">
                        <set attributeName="fill" to="#808080" begin="arrowDown.mouseover" end="arrowDown.mouseout"/>
                  </use>
                  <path fill="none" stroke="white" stroke-width="1.5" d="M0,-3.0v7 M-2.5,-0.5L0,-3.0L2.5,-0.5"/>
                </g>
                <g id="arrowLeft" xlink:href="#dirArrow" transform="rotate(270) translate(-36 17)" onmousedown="handlePan(-1,0)">
                  <use xlink:href="#rim" fill="#404040">
                        <set attributeName="fill" to="#808080" begin="arrowLeft.mouseover" end="arrowLeft.mouseout"/>
                  </use>
                  <path fill="none" stroke="white" stroke-width="1.5" d="M0,-3.0v7 M-2.5,-0.5L0,-3.0L2.5,-0.5"/>
                </g>
        </g>
        <svg viewBox="0 0 15 15" width="100%" height="30px" preserveAspectRatio="xMaxYMin meet">
         <g id="arrow_out" transform="scale(0.3 0.3)">
          <a xlink:href="classAxisIp4_ac68754528b100219c3a9ee916de54828_icgraph_org.svg" target="_base">
           <rect id="button" ry="5" rx="5" y="6" x="6" height="38" width="38"
                fill="#f2f5e9" fill-opacity="0.5" stroke="#606060" stroke-width="1.0"/>
           <path id="arrow"
             d="M 11.500037,31.436501 C 11.940474,20.09759 22.043105,11.32322 32.158766,21.979434 L 37.068811,17.246167 C 37.068811,17.246167 37.088388,32 37.088388,32 L 22.160133,31.978069 C 22.160133,31.978069 26.997745,27.140456 26.997745,27.140456 C 18.528582,18.264221 13.291696,25.230495 11.500037,31.436501 z"
             style="fill:#404040;"/>
          </a>
         </g>
        </svg>
</svg>
