<?xml version="1.0" encoding="UTF-8" standalone="no"?>
<!DOCTYPE svg PUBLIC "-//W3C//DTD SVG 1.1//EN"
 "http://www.w3.org/Graphics/SVG/1.1/DTD/svg11.dtd">
<!-- Generated by graphviz version 2.43.0 (0)
 -->
<!-- Title: var.video.VideoSynthBase Pages: 1 -->
<svg width="317pt" height="140pt"
 viewBox="0.00 0.00 317.00 140.00" xmlns="http://www.w3.org/2000/svg" xmlns:xlink="http://www.w3.org/1999/xlink">
<g id="graph0" class="graph" transform="scale(1 1) rotate(0) translate(4 136)">
<title>var.video.VideoSynthBase</title>
<!-- Node1 -->
<g id="node1" class="node">
<title>Node1</title>
<g id="a_node1"><a xlink:title=" ">
<polygon fill="#bfbfbf" stroke="black" points="82.5,-56.5 82.5,-75.5 226.5,-75.5 226.5,-56.5 82.5,-56.5"/>
<text text-anchor="middle" x="154.5" y="-63.5" font-family="Helvetica,sans-Serif" font-size="10.00">var.video.VideoSynthBase</text>
</a>
</g>
</g>
<!-- Node3 -->
<g id="node3" class="node">
<title>Node3</title>
<g id="a_node3"><a xlink:href="classvar_1_1video_1_1Book.html" target="_top" xlink:title=" ">
<polygon fill="none" stroke="black" points="0,-0.5 0,-19.5 89,-19.5 89,-0.5 0,-0.5"/>
<text text-anchor="middle" x="44.5" y="-7.5" font-family="Helvetica,sans-Serif" font-size="10.00">var.video.Book</text>
</a>
</g>
</g>
<!-- Node1&#45;&gt;Node3 -->
<g id="edge2" class="edge">
<title>Node1&#45;&gt;Node3</title>
<path fill="none" stroke="midnightblue" d="M127.74,-51.86C107.34,-41.85 79.83,-28.35 62.13,-19.65"/>
<polygon fill="midnightblue" stroke="midnightblue" points="126.31,-55.06 136.83,-56.32 129.39,-48.78 126.31,-55.06"/>
</g>
<!-- Node4 -->
<g id="node4" class="node">
<title>Node4</title>
<g id="a_node4"><a xlink:href="classvar_1_1video_1_1Chess.html" target="_top" xlink:title=" ">
<polygon fill="none" stroke="black" points="107.5,-0.5 107.5,-19.5 201.5,-19.5 201.5,-0.5 107.5,-0.5"/>
<text text-anchor="middle" x="154.5" y="-7.5" font-family="Helvetica,sans-Serif" font-size="10.00">var.video.Chess</text>
</a>
</g>
</g>
<!-- Node1&#45;&gt;Node4 -->
<g id="edge3" class="edge">
<title>Node1&#45;&gt;Node4</title>
<path fill="none" stroke="midnightblue" d="M154.5,-45.8C154.5,-36.91 154.5,-26.78 154.5,-19.75"/>
<polygon fill="midnightblue" stroke="midnightblue" points="151,-46.08 154.5,-56.08 158,-46.08 151,-46.08"/>
</g>
<!-- Node5 -->
<g id="node5" class="node">
<title>Node5</title>
<g id="a_node5"><a xlink:href="classvar_1_1video_1_1Cube.html" target="_top" xlink:title=" ">
<polygon fill="none" stroke="black" points="220,-0.5 220,-19.5 309,-19.5 309,-0.5 220,-0.5"/>
<text text-anchor="middle" x="264.5" y="-7.5" font-family="Helvetica,sans-Serif" font-size="10.00">var.video.Cube</text>
</a>
</g>
</g>
<!-- Node1&#45;&gt;Node5 -->
<g id="edge4" class="edge">
<title>Node1&#45;&gt;Node5</title>
<path fill="none" stroke="midnightblue" d="M181.26,-51.86C201.66,-41.85 229.17,-28.35 246.87,-19.65"/>
<polygon fill="midnightblue" stroke="midnightblue" points="179.61,-48.78 172.17,-56.32 182.69,-55.06 179.61,-48.78"/>
</g>
<!-- Node2 -->
<g id="node2" class="node">
<title>Node2</title>
<g id="a_node2"><a xlink:title=" ">
<polygon fill="none" stroke="#bfbfbf" points="131,-112.5 131,-131.5 178,-131.5 178,-112.5 131,-112.5"/>
<text text-anchor="middle" x="154.5" y="-119.5" font-family="Helvetica,sans-Serif" font-size="10.00">object</text>
</a>
</g>
</g>
<!-- Node2&#45;&gt;Node1 -->
<g id="edge1" class="edge">
<title>Node2&#45;&gt;Node1</title>
<path fill="none" stroke="midnightblue" d="M154.5,-101.8C154.5,-92.91 154.5,-82.78 154.5,-75.75"/>
<polygon fill="midnightblue" stroke="midnightblue" points="151,-102.08 154.5,-112.08 158,-102.08 151,-102.08"/>
</g>
</g>
</svg>
