<?xml version="1.0" encoding="UTF-8" standalone="no"?>
<!DOCTYPE svg PUBLIC "-//W3C//DTD SVG 1.1//EN"
 "http://www.w3.org/Graphics/SVG/1.1/DTD/svg11.dtd">
<!-- Generated by graphviz version 2.43.0 (0)
 -->
<!-- Title: cFSPlib.python_api_client.swagger_client.models.image.Image.id Pages: 1 -->
<svg width="422pt" height="66pt"
 viewBox="0.00 0.00 422.00 66.00" xmlns="http://www.w3.org/2000/svg" xmlns:xlink="http://www.w3.org/1999/xlink">
<g id="graph0" class="graph" transform="scale(1 1) rotate(0) translate(4 62)">
<title>cFSPlib.python_api_client.swagger_client.models.image.Image.id</title>
<!-- Node1 -->
<g id="node1" class="node">
<title>Node1</title>
<g id="a_node1"><a xlink:title=" ">
<polygon fill="#bfbfbf" stroke="black" points="213,-8.5 213,-49.5 414,-49.5 414,-8.5 213,-8.5"/>
<text text-anchor="start" x="221" y="-37.5" font-family="Helvetica,sans-Serif" font-size="10.00">cFSPlib.python_api</text>
<text text-anchor="start" x="221" y="-26.5" font-family="Helvetica,sans-Serif" font-size="10.00">_client.swagger_client.models.image.</text>
<text text-anchor="middle" x="313.5" y="-15.5" font-family="Helvetica,sans-Serif" font-size="10.00">Image.id</text>
</a>
</g>
</g>
<!-- Node2 -->
<g id="node2" class="node">
<title>Node2</title>
<g id="a_node2"><a xlink:href="classcFSPlib_1_1mngmt_1_1cFcluster.html#afaecb24de120b26ec41a71984bc41ca7" target="_top" xlink:title=" ">
<polygon fill="none" stroke="black" points="4,-38.5 4,-57.5 173,-57.5 173,-38.5 4,-38.5"/>
<text text-anchor="middle" x="88.5" y="-45.5" font-family="Helvetica,sans-Serif" font-size="10.00">cFSPlib.mngmt.cFcluster.get_id</text>
</a>
</g>
</g>
<!-- Node1&#45;&gt;Node2 -->
<g id="edge1" class="edge">
<title>Node1&#45;&gt;Node2</title>
<path fill="none" stroke="midnightblue" d="M202.48,-38.37C192.62,-39.21 182.75,-40.06 173.17,-40.87"/>
<polygon fill="midnightblue" stroke="midnightblue" points="203.07,-41.84 212.74,-37.5 202.48,-34.86 203.07,-41.84"/>
</g>
<!-- Node3 -->
<g id="node3" class="node">
<title>Node3</title>
<g id="a_node3"><a xlink:href="classcFSPlib_1_1mngmt_1_1cFinstance.html#a0d7657e276d5cfa0a8c7296c10c65618" target="_top" xlink:title=" ">
<polygon fill="none" stroke="black" points="0,-0.5 0,-19.5 177,-19.5 177,-0.5 0,-0.5"/>
<text text-anchor="middle" x="88.5" y="-7.5" font-family="Helvetica,sans-Serif" font-size="10.00">cFSPlib.mngmt.cFinstance.get_id</text>
</a>
</g>
</g>
<!-- Node1&#45;&gt;Node3 -->
<g id="edge2" class="edge">
<title>Node1&#45;&gt;Node3</title>
<path fill="none" stroke="midnightblue" d="M202.73,-19.65C194.19,-18.92 185.63,-18.19 177.26,-17.48"/>
<polygon fill="midnightblue" stroke="midnightblue" points="202.48,-23.14 212.74,-20.5 203.07,-16.16 202.48,-23.14"/>
</g>
</g>
</svg>
