<?xml version="1.0" encoding="UTF-8" standalone="no"?>
<!DOCTYPE svg PUBLIC "-//W3C//DTD SVG 1.1//EN"
 "http://www.w3.org/Graphics/SVG/1.1/DTD/svg11.dtd">
<!-- Generated by graphviz version 2.43.0 (0)
 -->
<!-- Title: SimEthFrame::getArpPacket Pages: 1 -->
<svg width="635pt" height="85pt"
 viewBox="0.00 0.00 635.00 85.00" xmlns="http://www.w3.org/2000/svg" xmlns:xlink="http://www.w3.org/1999/xlink">
<g id="graph0" class="graph" transform="scale(1 1) rotate(0) translate(4 81)">
<title>SimEthFrame::getArpPacket</title>
<!-- Node1 -->
<g id="node1" class="node">
<title>Node1</title>
<g id="a_node1"><a xlink:title=" ">
<polygon fill="#bfbfbf" stroke="black" points="0,-19.5 0,-38.5 152,-38.5 152,-19.5 0,-19.5"/>
<text text-anchor="middle" x="76" y="-26.5" font-family="Helvetica,sans-Serif" font-size="10.00">SimEthFrame::getArpPacket</text>
</a>
</g>
</g>
<!-- Node2 -->
<g id="node2" class="node">
<title>Node2</title>
<g id="a_node2"><a xlink:href="classSimArpPacket.html#a1f6d3c78f57cd5504fa9bbf03f7a14c5" target="_top" xlink:title=" ">
<polygon fill="none" stroke="black" points="188,-38.5 188,-57.5 331,-57.5 331,-38.5 188,-38.5"/>
<text text-anchor="middle" x="259.5" y="-45.5" font-family="Helvetica,sans-Serif" font-size="10.00">SimArpPacket::pushChunk</text>
</a>
</g>
</g>
<!-- Node1&#45;&gt;Node2 -->
<g id="edge1" class="edge">
<title>Node1&#45;&gt;Node2</title>
<path fill="none" stroke="midnightblue" d="M152.13,-36.87C160.61,-37.75 169.28,-38.66 177.83,-39.56"/>
<polygon fill="midnightblue" stroke="midnightblue" points="177.48,-43.04 187.79,-40.6 178.21,-36.08 177.48,-43.04"/>
</g>
<!-- Node6 -->
<g id="node6" class="node">
<title>Node6</title>
<g id="a_node6"><a xlink:href="classSimEthFrame.html#ab28b518506d129e3c1b52f10cfe454f0" target="_top" xlink:title=" ">
<polygon fill="none" stroke="black" points="206,-0.5 206,-19.5 313,-19.5 313,-0.5 206,-0.5"/>
<text text-anchor="middle" x="259.5" y="-7.5" font-family="Helvetica,sans-Serif" font-size="10.00">SimEthFrame::size</text>
</a>
</g>
</g>
<!-- Node1&#45;&gt;Node6 -->
<g id="edge5" class="edge">
<title>Node1&#45;&gt;Node6</title>
<path fill="none" stroke="midnightblue" d="M152.13,-21.13C166.65,-19.62 181.72,-18.04 195.79,-16.56"/>
<polygon fill="midnightblue" stroke="midnightblue" points="196.26,-20.04 205.84,-15.51 195.53,-13.07 196.26,-20.04"/>
</g>
<!-- Node3 -->
<g id="node3" class="node">
<title>Node3</title>
<g id="a_node3"><a xlink:href="classAxisRaw.html#acadbd2b7e00e34417c426fa91c8d7c51" target="_top" xlink:title=" ">
<polygon fill="none" stroke="black" points="373,-57.5 373,-76.5 470,-76.5 470,-57.5 373,-57.5"/>
<text text-anchor="middle" x="421.5" y="-64.5" font-family="Helvetica,sans-Serif" font-size="10.00">AxisRaw::getLen</text>
</a>
</g>
</g>
<!-- Node2&#45;&gt;Node3 -->
<g id="edge2" class="edge">
<title>Node2&#45;&gt;Node3</title>
<path fill="none" stroke="midnightblue" d="M331.14,-56.39C341.69,-57.64 352.46,-58.92 362.7,-60.14"/>
<polygon fill="midnightblue" stroke="midnightblue" points="362.4,-63.62 372.74,-61.33 363.22,-56.67 362.4,-63.62"/>
</g>
<!-- Node5 -->
<g id="node5" class="node">
<title>Node5</title>
<g id="a_node5"><a xlink:href="classSimArpPacket.html#a057241fff37e92ec0ecf89d94c03db2e" target="_top" xlink:title=" ">
<polygon fill="none" stroke="black" points="367,-19.5 367,-38.5 476,-38.5 476,-19.5 367,-19.5"/>
<text text-anchor="middle" x="421.5" y="-26.5" font-family="Helvetica,sans-Serif" font-size="10.00">SimArpPacket::size</text>
</a>
</g>
</g>
<!-- Node2&#45;&gt;Node5 -->
<g id="edge4" class="edge">
<title>Node2&#45;&gt;Node5</title>
<path fill="none" stroke="midnightblue" d="M331.14,-39.61C339.6,-38.61 348.19,-37.59 356.54,-36.6"/>
<polygon fill="midnightblue" stroke="midnightblue" points="357.06,-40.06 366.58,-35.4 356.23,-33.11 357.06,-40.06"/>
</g>
<!-- Node4 -->
<g id="node4" class="node">
<title>Node4</title>
<g id="a_node4"><a xlink:href="classAxisRaw.html#aec8718820338b67381cce084ba407063" target="_top" xlink:title=" ">
<polygon fill="none" stroke="black" points="512,-57.5 512,-76.5 627,-76.5 627,-57.5 512,-57.5"/>
<text text-anchor="middle" x="569.5" y="-64.5" font-family="Helvetica,sans-Serif" font-size="10.00">AxisRaw::keepToLen</text>
</a>
</g>
</g>
<!-- Node3&#45;&gt;Node4 -->
<g id="edge3" class="edge">
<title>Node3&#45;&gt;Node4</title>
<path fill="none" stroke="midnightblue" d="M470.31,-67C480.39,-67 491.2,-67 501.84,-67"/>
<polygon fill="midnightblue" stroke="midnightblue" points="501.95,-70.5 511.95,-67 501.95,-63.5 501.95,-70.5"/>
</g>
</g>
</svg>
