<?xml version="1.0" encoding="UTF-8" standalone="no"?>
<!DOCTYPE svg PUBLIC "-//W3C//DTD SVG 1.1//EN"
 "http://www.w3.org/Graphics/SVG/1.1/DTD/svg11.dtd">
<!-- Generated by graphviz version 2.43.0 (0)
 -->
<!-- Title: cFSPlib.python_api_client.swagger_client.api_client.ApiClient.deserialize Pages: 1 -->
<svg width="395pt" height="434pt"
 viewBox="0.00 0.00 395.00 433.50" xmlns="http://www.w3.org/2000/svg" xmlns:xlink="http://www.w3.org/1999/xlink">
<g id="graph0" class="graph" transform="scale(1 1) rotate(0) translate(4 429.5)">
<title>cFSPlib.python_api_client.swagger_client.api_client.ApiClient.deserialize</title>
<!-- Node1 -->
<g id="node1" class="node">
<title>Node1</title>
<g id="a_node1"><a xlink:title=" ">
<polygon fill="#bfbfbf" stroke="black" points="0,-192 0,-233 152,-233 152,-192 0,-192"/>
<text text-anchor="start" x="8" y="-221" font-family="Helvetica,sans-Serif" font-size="10.00">cFSPlib.python_api</text>
<text text-anchor="start" x="8" y="-210" font-family="Helvetica,sans-Serif" font-size="10.00">_client.swagger_client.api</text>
<text text-anchor="middle" x="76" y="-199" font-family="Helvetica,sans-Serif" font-size="10.00">_client.ApiClient.deserialize</text>
</a>
</g>
</g>
<!-- Node2 -->
<g id="node2" class="node">
<title>Node2</title>
<g id="a_node2"><a xlink:href="classcFSPlib_1_1python__api__client_1_1swagger__client_1_1api__client_1_1ApiClient.html#af81032968a6921b0687946a203a6f028" target="_top" xlink:title=" ">
<polygon fill="none" stroke="black" points="206,-384 206,-425 369,-425 369,-384 206,-384"/>
<text text-anchor="start" x="214" y="-413" font-family="Helvetica,sans-Serif" font-size="10.00">cFSPlib.python_api</text>
<text text-anchor="start" x="214" y="-402" font-family="Helvetica,sans-Serif" font-size="10.00">_client.swagger_client.api</text>
<text text-anchor="middle" x="287.5" y="-391" font-family="Helvetica,sans-Serif" font-size="10.00">_client.ApiClient.__deserialize</text>
</a>
</g>
</g>
<!-- Node1&#45;&gt;Node2 -->
<g id="edge1" class="edge">
<title>Node1&#45;&gt;Node2</title>
<path fill="none" stroke="midnightblue" d="M85.64,-233.24C101.06,-267.73 136.59,-336.79 188,-374.5 190.82,-376.57 193.79,-378.5 196.87,-380.3"/>
<polygon fill="midnightblue" stroke="midnightblue" points="195.31,-383.43 205.78,-385.03 198.59,-377.25 195.31,-383.43"/>
</g>
<!-- Node3 -->
<g id="node3" class="node">
<title>Node3</title>
<g id="a_node3"><a xlink:href="classcFSPlib_1_1python__api__client_1_1swagger__client_1_1api__client_1_1ApiClient.html#ac5f1d095fb597f77b6dc4ce79500583e" target="_top" xlink:title=" ">
<polygon fill="none" stroke="black" points="206,-312.5 206,-364.5 369,-364.5 369,-312.5 206,-312.5"/>
<text text-anchor="start" x="214" y="-352.5" font-family="Helvetica,sans-Serif" font-size="10.00">cFSPlib.python_api</text>
<text text-anchor="start" x="214" y="-341.5" font-family="Helvetica,sans-Serif" font-size="10.00">_client.swagger_client.api</text>
<text text-anchor="start" x="214" y="-330.5" font-family="Helvetica,sans-Serif" font-size="10.00">_client.ApiClient.__deserialize</text>
<text text-anchor="middle" x="287.5" y="-319.5" font-family="Helvetica,sans-Serif" font-size="10.00">_datatime</text>
</a>
</g>
</g>
<!-- Node1&#45;&gt;Node3 -->
<g id="edge2" class="edge">
<title>Node1&#45;&gt;Node3</title>
<path fill="none" stroke="midnightblue" d="M97.95,-233.09C119.18,-253.04 153.69,-283.04 188,-302.5 191.42,-304.44 194.97,-306.31 198.59,-308.11"/>
<polygon fill="midnightblue" stroke="midnightblue" points="197.2,-311.32 207.73,-312.42 200.18,-304.99 197.2,-311.32"/>
</g>
<!-- Node4 -->
<g id="node4" class="node">
<title>Node4</title>
<g id="a_node4"><a xlink:href="classcFSPlib_1_1python__api__client_1_1swagger__client_1_1api__client_1_1ApiClient.html#a2c88681d0673f790815c9d3c8ee61940" target="_top" xlink:title=" ">
<polygon fill="none" stroke="black" points="192.5,-252 192.5,-293 382.5,-293 382.5,-252 192.5,-252"/>
<text text-anchor="start" x="200.5" y="-281" font-family="Helvetica,sans-Serif" font-size="10.00">cFSPlib.python_api</text>
<text text-anchor="start" x="200.5" y="-270" font-family="Helvetica,sans-Serif" font-size="10.00">_client.swagger_client.api</text>
<text text-anchor="middle" x="287.5" y="-259" font-family="Helvetica,sans-Serif" font-size="10.00">_client.ApiClient.__deserialize_date</text>
</a>
</g>
</g>
<!-- Node1&#45;&gt;Node4 -->
<g id="edge3" class="edge">
<title>Node1&#45;&gt;Node4</title>
<path fill="none" stroke="midnightblue" d="M148.8,-233.06C166.88,-238.24 186.41,-243.83 204.92,-249.14"/>
<polygon fill="midnightblue" stroke="midnightblue" points="204.21,-252.57 214.79,-251.96 206.14,-245.84 204.21,-252.57"/>
</g>
<!-- Node5 -->
<g id="node5" class="node">
<title>Node5</title>
<g id="a_node5"><a xlink:href="classcFSPlib_1_1python__api__client_1_1swagger__client_1_1api__client_1_1ApiClient.html#a2a951cb2536d3cbbad1bdb1dabffb21d" target="_top" xlink:title=" ">
<polygon fill="none" stroke="black" points="196,-192 196,-233 379,-233 379,-192 196,-192"/>
<text text-anchor="start" x="204" y="-221" font-family="Helvetica,sans-Serif" font-size="10.00">cFSPlib.python_api</text>
<text text-anchor="start" x="204" y="-210" font-family="Helvetica,sans-Serif" font-size="10.00">_client.swagger_client.api</text>
<text text-anchor="middle" x="287.5" y="-199" font-family="Helvetica,sans-Serif" font-size="10.00">_client.ApiClient.__deserialize_file</text>
</a>
</g>
</g>
<!-- Node1&#45;&gt;Node5 -->
<g id="edge4" class="edge">
<title>Node1&#45;&gt;Node5</title>
<path fill="none" stroke="midnightblue" d="M152.04,-212.5C162.92,-212.5 174.26,-212.5 185.55,-212.5"/>
<polygon fill="midnightblue" stroke="midnightblue" points="185.88,-216 195.88,-212.5 185.88,-209 185.88,-216"/>
</g>
<!-- Node6 -->
<g id="node6" class="node">
<title>Node6</title>
<g id="a_node6"><a xlink:href="classcFSPlib_1_1python__api__client_1_1swagger__client_1_1api__client_1_1ApiClient.html#a17c501ee89469601da3d33b38f09aed8" target="_top" xlink:title=" ">
<polygon fill="none" stroke="black" points="188,-132 188,-173 387,-173 387,-132 188,-132"/>
<text text-anchor="start" x="196" y="-161" font-family="Helvetica,sans-Serif" font-size="10.00">cFSPlib.python_api</text>
<text text-anchor="start" x="196" y="-150" font-family="Helvetica,sans-Serif" font-size="10.00">_client.swagger_client.api</text>
<text text-anchor="middle" x="287.5" y="-139" font-family="Helvetica,sans-Serif" font-size="10.00">_client.ApiClient.__deserialize_model</text>
</a>
</g>
</g>
<!-- Node1&#45;&gt;Node6 -->
<g id="edge5" class="edge">
<title>Node1&#45;&gt;Node6</title>
<path fill="none" stroke="midnightblue" d="M148.8,-191.94C166.88,-186.76 186.41,-181.17 204.92,-175.86"/>
<polygon fill="midnightblue" stroke="midnightblue" points="206.14,-179.16 214.79,-173.04 204.21,-172.43 206.14,-179.16"/>
</g>
<!-- Node7 -->
<g id="node7" class="node">
<title>Node7</title>
<g id="a_node7"><a xlink:href="classcFSPlib_1_1python__api__client_1_1swagger__client_1_1api__client_1_1ApiClient.html#a41790570b663603ea484ba7d7fd20f18" target="_top" xlink:title=" ">
<polygon fill="none" stroke="black" points="188.5,-72 188.5,-113 386.5,-113 386.5,-72 188.5,-72"/>
<text text-anchor="start" x="196.5" y="-101" font-family="Helvetica,sans-Serif" font-size="10.00">cFSPlib.python_api</text>
<text text-anchor="start" x="196.5" y="-90" font-family="Helvetica,sans-Serif" font-size="10.00">_client.swagger_client.api</text>
<text text-anchor="middle" x="287.5" y="-79" font-family="Helvetica,sans-Serif" font-size="10.00">_client.ApiClient.__deserialize_object</text>
</a>
</g>
</g>
<!-- Node1&#45;&gt;Node7 -->
<g id="edge6" class="edge">
<title>Node1&#45;&gt;Node7</title>
<path fill="none" stroke="midnightblue" d="M97.33,-191.88C118.35,-171.63 152.95,-141.13 188,-122.5 191.68,-120.54 195.52,-118.69 199.44,-116.94"/>
<polygon fill="midnightblue" stroke="midnightblue" points="200.85,-120.15 208.72,-113.06 198.15,-113.69 200.85,-120.15"/>
</g>
<!-- Node8 -->
<g id="node8" class="node">
<title>Node8</title>
<g id="a_node8"><a xlink:href="classcFSPlib_1_1python__api__client_1_1swagger__client_1_1api__client_1_1ApiClient.html#a42c01299cb434956a8e05c6fe6a3d97f" target="_top" xlink:title=" ">
<polygon fill="none" stroke="black" points="206,-0.5 206,-52.5 369,-52.5 369,-0.5 206,-0.5"/>
<text text-anchor="start" x="214" y="-40.5" font-family="Helvetica,sans-Serif" font-size="10.00">cFSPlib.python_api</text>
<text text-anchor="start" x="214" y="-29.5" font-family="Helvetica,sans-Serif" font-size="10.00">_client.swagger_client.api</text>
<text text-anchor="start" x="214" y="-18.5" font-family="Helvetica,sans-Serif" font-size="10.00">_client.ApiClient.__deserialize</text>
<text text-anchor="middle" x="287.5" y="-7.5" font-family="Helvetica,sans-Serif" font-size="10.00">_primitive</text>
</a>
</g>
</g>
<!-- Node1&#45;&gt;Node8 -->
<g id="edge7" class="edge">
<title>Node1&#45;&gt;Node8</title>
<path fill="none" stroke="midnightblue" d="M87.21,-191.79C104,-159.73 140.39,-98.1 188,-62.5 190.86,-60.36 193.85,-58.34 196.95,-56.43"/>
<polygon fill="midnightblue" stroke="midnightblue" points="198.95,-59.32 205.92,-51.34 195.5,-53.24 198.95,-59.32"/>
</g>
</g>
</svg>
