<?xml version="1.0" encoding="UTF-8" standalone="no"?>
<!DOCTYPE svg PUBLIC "-//W3C//DTD SVG 1.1//EN"
 "http://www.w3.org/Graphics/SVG/1.1/DTD/svg11.dtd">
<!-- Generated by graphviz version 2.43.0 (0)
 -->
<!-- Title: SimUdpDatagram::calculateUdpChecksum Pages: 1 -->
<svg width="814pt" height="224pt"
 viewBox="0.00 0.00 814.00 223.50" xmlns="http://www.w3.org/2000/svg" xmlns:xlink="http://www.w3.org/1999/xlink">
<g id="graph0" class="graph" transform="scale(1 1) rotate(0) translate(4 219.5)">
<title>SimUdpDatagram::calculateUdpChecksum</title>
<!-- Node1 -->
<g id="node1" class="node">
<title>Node1</title>
<g id="a_node1"><a xlink:title="Calculate the UDP checksum of the datagram.">
<polygon fill="#bfbfbf" stroke="black" points="652,-103 652,-133 806,-133 806,-103 652,-103"/>
<text text-anchor="start" x="660" y="-121" font-family="Helvetica,sans-Serif" font-size="10.00">SimUdpDatagram::calculate</text>
<text text-anchor="middle" x="729" y="-110" font-family="Helvetica,sans-Serif" font-size="10.00">UdpChecksum</text>
</a>
</g>
</g>
<!-- Node2 -->
<g id="node2" class="node">
<title>Node2</title>
<g id="a_node2"><a xlink:href="classSimUdpDatagram.html#ad0d2ae16d9a266b36c2ec50811a99e37" target="_top" xlink:title="Recalculate the UDP checksum of a datagram.">
<polygon fill="none" stroke="black" points="451,-103 451,-133 616,-133 616,-103 451,-103"/>
<text text-anchor="start" x="459" y="-121" font-family="Helvetica,sans-Serif" font-size="10.00">SimUdpDatagram::reCalculate</text>
<text text-anchor="middle" x="533.5" y="-110" font-family="Helvetica,sans-Serif" font-size="10.00">UdpChecksum</text>
</a>
</g>
</g>
<!-- Node1&#45;&gt;Node2 -->
<g id="edge1" class="edge">
<title>Node1&#45;&gt;Node2</title>
<path fill="none" stroke="midnightblue" d="M641.53,-118C633.06,-118 624.47,-118 616.05,-118"/>
<polygon fill="midnightblue" stroke="midnightblue" points="641.8,-121.5 651.8,-118 641.8,-114.5 641.8,-121.5"/>
</g>
<!-- Node3 -->
<g id="node3" class="node">
<title>Node3</title>
<g id="a_node3"><a xlink:href="group__NTS__UOE__TEST.html#ga40610514eb0285c8afbe8cfe003638f6" target="_top" xlink:title="Create the golden Rx APP reference files from an input IPRX test file.">
<polygon fill="none" stroke="black" points="77,-152.5 77,-171.5 194,-171.5 194,-152.5 77,-152.5"/>
<text text-anchor="middle" x="135.5" y="-159.5" font-family="Helvetica,sans-Serif" font-size="10.00">createGoldenRxFiles</text>
</a>
</g>
</g>
<!-- Node2&#45;&gt;Node3 -->
<g id="edge2" class="edge">
<title>Node2&#45;&gt;Node3</title>
<path fill="none" stroke="midnightblue" d="M440.61,-133.5C431.97,-134.76 423.33,-135.95 415,-137 338.9,-146.56 250.65,-153.84 194.23,-158.02"/>
<polygon fill="midnightblue" stroke="midnightblue" points="441.38,-136.92 450.75,-131.98 440.34,-130 441.38,-136.92"/>
</g>
<!-- Node5 -->
<g id="node5" class="node">
<title>Node5</title>
<g id="a_node5"><a xlink:href="classSimIp4Packet.html#a56e254cf6292c3fa12a6a6e4ed7bbd6f" target="_top" xlink:title="Checks if the IP header and embedded protocol fields are properly set.">
<polygon fill="none" stroke="black" points="245.5,-108.5 245.5,-127.5 399.5,-127.5 399.5,-108.5 245.5,-108.5"/>
<text text-anchor="middle" x="322.5" y="-115.5" font-family="Helvetica,sans-Serif" font-size="10.00">SimIp4Packet::isWellFormed</text>
</a>
</g>
</g>
<!-- Node2&#45;&gt;Node5 -->
<g id="edge4" class="edge">
<title>Node2&#45;&gt;Node5</title>
<path fill="none" stroke="midnightblue" d="M440.45,-118C426.84,-118 412.93,-118 399.68,-118"/>
<polygon fill="midnightblue" stroke="midnightblue" points="440.8,-121.5 450.8,-118 440.8,-114.5 440.8,-121.5"/>
</g>
<!-- Node10 -->
<g id="node10" class="node">
<title>Node10</title>
<g id="a_node10"><a xlink:href="classSimUdpDatagram.html#a75792488c03e516ee2d74e4dc59cca65" target="_top" xlink:title="Checks if the datagram header fields are properly set.">
<polygon fill="none" stroke="black" points="234.5,-70.5 234.5,-89.5 410.5,-89.5 410.5,-70.5 234.5,-70.5"/>
<text text-anchor="middle" x="322.5" y="-77.5" font-family="Helvetica,sans-Serif" font-size="10.00">SimUdpDatagram::isWellFormed</text>
</a>
</g>
</g>
<!-- Node2&#45;&gt;Node10 -->
<g id="edge10" class="edge">
<title>Node2&#45;&gt;Node10</title>
<path fill="none" stroke="midnightblue" d="M440.68,-101.31C418.5,-97.27 395.56,-93.1 375.91,-89.53"/>
<polygon fill="midnightblue" stroke="midnightblue" points="440.33,-104.8 450.8,-103.14 441.58,-97.91 440.33,-104.8"/>
</g>
<!-- Node11 -->
<g id="node11" class="node">
<title>Node11</title>
<g id="a_node11"><a xlink:href="classSimIp4Packet.html#a46b1a73e1415f5adf102790fd3a52ee5" target="_top" xlink:title="Recalculate checksum of an UDP datagram after it was modified.">
<polygon fill="none" stroke="black" points="241,-185 241,-215 404,-215 404,-185 241,-185"/>
<text text-anchor="start" x="249" y="-203" font-family="Helvetica,sans-Serif" font-size="10.00">SimIp4Packet::udpRecalculate</text>
<text text-anchor="middle" x="322.5" y="-192" font-family="Helvetica,sans-Serif" font-size="10.00">Checksum</text>
</a>
</g>
</g>
<!-- Node2&#45;&gt;Node11 -->
<g id="edge11" class="edge">
<title>Node2&#45;&gt;Node11</title>
<path fill="none" stroke="midnightblue" d="M491.25,-137.46C468.91,-147.7 440.69,-160.13 415,-170 401.42,-175.22 386.51,-180.35 372.73,-184.86"/>
<polygon fill="midnightblue" stroke="midnightblue" points="492.83,-140.59 500.45,-133.22 489.9,-134.23 492.83,-140.59"/>
</g>
<!-- Node12 -->
<g id="node12" class="node">
<title>Node12</title>
<g id="a_node12"><a xlink:href="classSimIp4Packet.html#aa5a8e5a5e60578f723a82b283b558d90" target="_top" xlink:title="Recalculate the UDP checksum and compare it with the one embedded into the datagram.">
<polygon fill="none" stroke="black" points="230,-16.5 230,-35.5 415,-35.5 415,-16.5 230,-16.5"/>
<text text-anchor="middle" x="322.5" y="-23.5" font-family="Helvetica,sans-Serif" font-size="10.00">SimIp4Packet::udpVerifyChecksum</text>
</a>
</g>
</g>
<!-- Node2&#45;&gt;Node12 -->
<g id="edge13" class="edge">
<title>Node2&#45;&gt;Node12</title>
<path fill="none" stroke="midnightblue" d="M494.36,-98.46C471.56,-87.05 441.88,-72.64 415,-61 393.46,-51.68 368.55,-42.23 350.17,-35.51"/>
<polygon fill="midnightblue" stroke="midnightblue" points="492.86,-101.63 503.37,-103 496.01,-95.38 492.86,-101.63"/>
</g>
<!-- Node4 -->
<g id="node4" class="node">
<title>Node4</title>
<g id="a_node4"><a xlink:href="group__NTS__UOE__TEST.html#ga0ddf1224851353fc92bfbff6f499fa97" target="_top" xlink:title="Main function.">
<polygon fill="none" stroke="black" points="0,-171.5 0,-190.5 41,-190.5 41,-171.5 0,-171.5"/>
<text text-anchor="middle" x="20.5" y="-178.5" font-family="Helvetica,sans-Serif" font-size="10.00">main</text>
</a>
</g>
</g>
<!-- Node3&#45;&gt;Node4 -->
<g id="edge3" class="edge">
<title>Node3&#45;&gt;Node4</title>
<path fill="none" stroke="midnightblue" d="M67.52,-173.26C57.88,-174.88 48.67,-176.43 41.05,-177.71"/>
<polygon fill="midnightblue" stroke="midnightblue" points="68.39,-176.67 77.67,-171.56 67.23,-169.76 68.39,-176.67"/>
</g>
<!-- Node5&#45;&gt;Node3 -->
<g id="edge7" class="edge">
<title>Node5&#45;&gt;Node3</title>
<path fill="none" stroke="midnightblue" d="M271.56,-129.88C241.76,-136.96 204.43,-145.84 176.56,-152.47"/>
<polygon fill="midnightblue" stroke="midnightblue" points="272.44,-133.27 281.36,-127.55 270.82,-126.46 272.44,-133.27"/>
</g>
<!-- Node6 -->
<g id="node6" class="node">
<title>Node6</title>
<g id="a_node6"><a xlink:href="group__NTS__ICMP__TEST.html#ga652464dca3fe1c76270d52a9acdc94a5" target="_top" xlink:title="Create the golden reference file from an input test file.">
<polygon fill="none" stroke="black" points="86,-114.5 86,-133.5 185,-133.5 185,-114.5 86,-114.5"/>
<text text-anchor="middle" x="135.5" y="-121.5" font-family="Helvetica,sans-Serif" font-size="10.00">createGoldenFile</text>
</a>
</g>
</g>
<!-- Node5&#45;&gt;Node6 -->
<g id="edge5" class="edge">
<title>Node5&#45;&gt;Node6</title>
<path fill="none" stroke="midnightblue" d="M235.33,-120.79C218.04,-121.36 200.45,-121.93 185,-122.43"/>
<polygon fill="midnightblue" stroke="midnightblue" points="235.57,-124.29 245.45,-120.47 235.34,-117.29 235.57,-124.29"/>
</g>
<!-- Node8 -->
<g id="node8" class="node">
<title>Node8</title>
<g id="a_node8"><a xlink:href="group__NTS__TOE__TEST.html#ga19626da81d440ab83bcba2f6838ccb87" target="_top" xlink:title="Emulate the behavior of the IP Rx Path (IPRX).">
<polygon fill="none" stroke="black" points="113,-76.5 113,-95.5 158,-95.5 158,-76.5 113,-76.5"/>
<text text-anchor="middle" x="135.5" y="-83.5" font-family="Helvetica,sans-Serif" font-size="10.00">pIPRX</text>
</a>
</g>
</g>
<!-- Node5&#45;&gt;Node8 -->
<g id="edge8" class="edge">
<title>Node5&#45;&gt;Node8</title>
<path fill="none" stroke="midnightblue" d="M256.53,-106.76C222.27,-100.84 182.46,-93.95 158.39,-89.79"/>
<polygon fill="midnightblue" stroke="midnightblue" points="256.04,-110.23 266.49,-108.49 257.24,-103.33 256.04,-110.23"/>
</g>
<!-- Node9 -->
<g id="node9" class="node">
<title>Node9</title>
<g id="a_node9"><a xlink:href="group__NTS__TOE__TEST.html#ga5555b85edfa105eb62cf20f0dbdf5962" target="_top" xlink:title="Emulate the behavior of the IP Tx Handler (IPTX).">
<polygon fill="none" stroke="black" points="113.5,-38.5 113.5,-57.5 157.5,-57.5 157.5,-38.5 113.5,-38.5"/>
<text text-anchor="middle" x="135.5" y="-45.5" font-family="Helvetica,sans-Serif" font-size="10.00">pIPTX</text>
</a>
</g>
</g>
<!-- Node5&#45;&gt;Node9 -->
<g id="edge9" class="edge">
<title>Node5&#45;&gt;Node9</title>
<path fill="none" stroke="midnightblue" d="M244.73,-105.22C239.64,-103.41 234.68,-101.35 230,-99 210.87,-89.39 212.55,-77.69 194,-67 182.71,-60.49 168.86,-55.83 157.59,-52.75"/>
<polygon fill="midnightblue" stroke="midnightblue" points="244.04,-108.68 254.64,-108.39 246.18,-102.01 244.04,-108.68"/>
</g>
<!-- Node7 -->
<g id="node7" class="node">
<title>Node7</title>
<g id="a_node7"><a xlink:href="group__NTS__ICMP__TEST.html#ga0ddf1224851353fc92bfbff6f499fa97" target="_top" xlink:title="Main function.">
<polygon fill="none" stroke="black" points="0,-114.5 0,-133.5 41,-133.5 41,-114.5 0,-114.5"/>
<text text-anchor="middle" x="20.5" y="-121.5" font-family="Helvetica,sans-Serif" font-size="10.00">main</text>
</a>
</g>
</g>
<!-- Node6&#45;&gt;Node7 -->
<g id="edge6" class="edge">
<title>Node6&#45;&gt;Node7</title>
<path fill="none" stroke="midnightblue" d="M75.86,-124C63.3,-124 50.88,-124 41.09,-124"/>
<polygon fill="midnightblue" stroke="midnightblue" points="75.92,-127.5 85.92,-124 75.92,-120.5 75.92,-127.5"/>
</g>
<!-- Node11&#45;&gt;Node4 -->
<g id="edge12" class="edge">
<title>Node11&#45;&gt;Node4</title>
<path fill="none" stroke="midnightblue" d="M230.61,-194.24C163.99,-190.02 78.86,-184.63 41.07,-182.24"/>
<polygon fill="midnightblue" stroke="midnightblue" points="230.51,-197.74 240.71,-194.88 230.95,-190.76 230.51,-197.74"/>
</g>
<!-- Node13 -->
<g id="node13" class="node">
<title>Node13</title>
<g id="a_node13"><a xlink:href="group__NTS__IPTX__TEST.html#ga68f4b01bef67002b19d80fa51f7db94a" target="_top" xlink:title="Create the golden reference file from an input test file.">
<polygon fill="none" stroke="black" points="86,-0.5 86,-19.5 185,-19.5 185,-0.5 86,-0.5"/>
<text text-anchor="middle" x="135.5" y="-7.5" font-family="Helvetica,sans-Serif" font-size="10.00">createGoldenFile</text>
</a>
</g>
</g>
<!-- Node12&#45;&gt;Node13 -->
<g id="edge14" class="edge">
<title>Node12&#45;&gt;Node13</title>
<path fill="none" stroke="midnightblue" d="M219.69,-17.19C207.68,-16.16 195.88,-15.14 185.11,-14.2"/>
<polygon fill="midnightblue" stroke="midnightblue" points="219.55,-20.7 229.81,-18.07 220.15,-13.72 219.55,-20.7"/>
</g>
<!-- Node14 -->
<g id="node14" class="node">
<title>Node14</title>
<g id="a_node14"><a xlink:href="group__NTS__IPTX__TEST.html#ga0ddf1224851353fc92bfbff6f499fa97" target="_top" xlink:title="Main function.">
<polygon fill="none" stroke="black" points="0,-0.5 0,-19.5 41,-19.5 41,-0.5 0,-0.5"/>
<text text-anchor="middle" x="20.5" y="-7.5" font-family="Helvetica,sans-Serif" font-size="10.00">main</text>
</a>
</g>
</g>
<!-- Node13&#45;&gt;Node14 -->
<g id="edge15" class="edge">
<title>Node13&#45;&gt;Node14</title>
<path fill="none" stroke="midnightblue" d="M75.86,-10C63.3,-10 50.88,-10 41.09,-10"/>
<polygon fill="midnightblue" stroke="midnightblue" points="75.92,-13.5 85.92,-10 75.92,-6.5 75.92,-13.5"/>
</g>
</g>
</svg>
