<?xml version="1.0" encoding="UTF-8" standalone="no"?>
<!DOCTYPE svg PUBLIC "-//W3C//DTD SVG 1.1//EN"
 "http://www.w3.org/Graphics/SVG/1.1/DTD/svg11.dtd">
<!-- Generated by graphviz version 2.43.0 (0)
 -->
<!-- Title: SimIp4Packet::verifyIpHeaderChecksum Pages: 1 -->
<svg width="385pt" height="39pt"
 viewBox="0.00 0.00 385.00 39.00" xmlns="http://www.w3.org/2000/svg" xmlns:xlink="http://www.w3.org/1999/xlink">
<g id="graph0" class="graph" transform="scale(1 1) rotate(0) translate(4 35)">
<title>SimIp4Packet::verifyIpHeaderChecksum</title>
<!-- Node1 -->
<g id="node1" class="node">
<title>Node1</title>
<g id="a_node1"><a xlink:title="Recalculate the IPv4 header checksum and compare it with the one embedded into the packet.">
<polygon fill="#bfbfbf" stroke="black" points="217,-0.5 217,-30.5 377,-30.5 377,-0.5 217,-0.5"/>
<text text-anchor="start" x="225" y="-18.5" font-family="Helvetica,sans-Serif" font-size="10.00">SimIp4Packet::verifyIpHeader</text>
<text text-anchor="middle" x="297" y="-7.5" font-family="Helvetica,sans-Serif" font-size="10.00">Checksum</text>
</a>
</g>
</g>
<!-- Node2 -->
<g id="node2" class="node">
<title>Node2</title>
<g id="a_node2"><a xlink:href="group__NTS__IPRX__TEST.html#ga0b909e5ea146aed33a8de139bebaab84" target="_top" xlink:title="Create the golden reference files from an input test file.">
<polygon fill="none" stroke="black" points="77,-6 77,-25 181,-25 181,-6 77,-6"/>
<text text-anchor="middle" x="129" y="-13" font-family="Helvetica,sans-Serif" font-size="10.00">createGoldenFiles</text>
</a>
</g>
</g>
<!-- Node1&#45;&gt;Node2 -->
<g id="edge1" class="edge">
<title>Node1&#45;&gt;Node2</title>
<path fill="none" stroke="midnightblue" d="M206.88,-15.5C198.04,-15.5 189.29,-15.5 181.03,-15.5"/>
<polygon fill="midnightblue" stroke="midnightblue" points="206.89,-19 216.89,-15.5 206.89,-12 206.89,-19"/>
</g>
<!-- Node3 -->
<g id="node3" class="node">
<title>Node3</title>
<g id="a_node3"><a xlink:href="group__NTS__IPRX__TEST.html#ga0ddf1224851353fc92bfbff6f499fa97" target="_top" xlink:title="Main function.">
<polygon fill="none" stroke="black" points="0,-6 0,-25 41,-25 41,-6 0,-6"/>
<text text-anchor="middle" x="20.5" y="-13" font-family="Helvetica,sans-Serif" font-size="10.00">main</text>
</a>
</g>
</g>
<!-- Node2&#45;&gt;Node3 -->
<g id="edge2" class="edge">
<title>Node2&#45;&gt;Node3</title>
<path fill="none" stroke="midnightblue" d="M66.83,-15.5C57.58,-15.5 48.66,-15.5 41.22,-15.5"/>
<polygon fill="midnightblue" stroke="midnightblue" points="66.93,-19 76.93,-15.5 66.93,-12 66.93,-19"/>
</g>
</g>
</svg>
