<?xml version="1.0" encoding="UTF-8" standalone="no"?>
<!DOCTYPE svg PUBLIC "-//W3C//DTD SVG 1.1//EN"
 "http://www.w3.org/Graphics/SVG/1.1/DTD/svg11.dtd">
<!-- Generated by graphviz version 2.43.0 (0)
 -->
<!-- Title: var.video.Book.read Pages: 1 -->
<svg width="337pt" height="66pt"
 viewBox="0.00 0.00 337.00 66.00" xmlns="http://www.w3.org/2000/svg" xmlns:xlink="http://www.w3.org/1999/xlink">
<g id="graph0" class="graph" transform="scale(1 1) rotate(0) translate(4 62)">
<title>var.video.Book.read</title>
<!-- Node1 -->
<g id="node1" class="node">
<title>Node1</title>
<g id="a_node1"><a xlink:title=" ">
<polygon fill="#bfbfbf" stroke="black" points="0,-19.5 0,-38.5 114,-38.5 114,-19.5 0,-19.5"/>
<text text-anchor="middle" x="57" y="-26.5" font-family="Helvetica,sans-Serif" font-size="10.00">var.video.Book.read</text>
</a>
</g>
</g>
<!-- Node2 -->
<g id="node2" class="node">
<title>Node2</title>
<g id="a_node2"><a xlink:href="classvar_1_1video_1_1VideoSynthBase.html#a290b7e34542b86ba8176c5c8bc991376" target="_top" xlink:title=" ">
<polygon fill="none" stroke="black" points="150,-38.5 150,-57.5 329,-57.5 329,-38.5 150,-38.5"/>
<text text-anchor="middle" x="239.5" y="-45.5" font-family="Helvetica,sans-Serif" font-size="10.00">var.video.VideoSynthBase.render</text>
</a>
</g>
</g>
<!-- Node1&#45;&gt;Node2 -->
<g id="edge1" class="edge">
<title>Node1&#45;&gt;Node2</title>
<path fill="none" stroke="midnightblue" d="M114.12,-34.91C122.39,-35.78 131.11,-36.7 139.94,-37.63"/>
<polygon fill="midnightblue" stroke="midnightblue" points="139.62,-41.11 149.93,-38.68 140.35,-34.15 139.62,-41.11"/>
</g>
<!-- Node3 -->
<g id="node3" class="node">
<title>Node3</title>
<g id="a_node3"><a xlink:href="classvar_1_1video_1_1Chess.html#a755dd99b3bf4f90676e5e3eabe6c2223" target="_top" xlink:title=" ">
<polygon fill="none" stroke="black" points="175.5,-0.5 175.5,-19.5 303.5,-19.5 303.5,-0.5 175.5,-0.5"/>
<text text-anchor="middle" x="239.5" y="-7.5" font-family="Helvetica,sans-Serif" font-size="10.00">var.video.Chess.render</text>
</a>
</g>
</g>
<!-- Node1&#45;&gt;Node3 -->
<g id="edge2" class="edge">
<title>Node1&#45;&gt;Node3</title>
<path fill="none" stroke="midnightblue" d="M114.12,-23.09C130.39,-21.38 148.38,-19.49 165.52,-17.68"/>
<polygon fill="midnightblue" stroke="midnightblue" points="165.91,-21.16 175.49,-16.63 165.18,-14.2 165.91,-21.16"/>
</g>
</g>
</svg>
