<?xml version="1.0" encoding="UTF-8" standalone="no"?>
<!DOCTYPE svg PUBLIC "-//W3C//DTD SVG 1.1//EN"
 "http://www.w3.org/Graphics/SVG/1.1/DTD/svg11.dtd">
<!-- Generated by graphviz version 2.43.0 (0)
 -->
<!-- Title: SimIp4Packet::getTcpData Pages: 1 -->
<svg width="420pt" height="66pt"
 viewBox="0.00 0.00 420.00 66.00" xmlns="http://www.w3.org/2000/svg" xmlns:xlink="http://www.w3.org/1999/xlink">
<g id="graph0" class="graph" transform="scale(1 1) rotate(0) translate(4 62)">
<title>SimIp4Packet::getTcpData</title>
<!-- Node1 -->
<g id="node1" class="node">
<title>Node1</title>
<g id="a_node1"><a xlink:title="Get TCP data from the current IPv4 packet.">
<polygon fill="#bfbfbf" stroke="black" points="269,-19.5 269,-38.5 412,-38.5 412,-19.5 269,-19.5"/>
<text text-anchor="middle" x="340.5" y="-26.5" font-family="Helvetica,sans-Serif" font-size="10.00">SimIp4Packet::getTcpData</text>
</a>
</g>
</g>
<!-- Node2 -->
<g id="node2" class="node">
<title>Node2</title>
<g id="a_node2"><a xlink:href="classSimIp4Packet.html#a00ec738b87cbc5dc9f8f0ebcd1ecf3e2" target="_top" xlink:title="Dump the TCP payload of this IP packet into a file. Data is written as a string.">
<polygon fill="none" stroke="black" points="81,-14 81,-44 233,-44 233,-14 81,-14"/>
<text text-anchor="start" x="89" y="-32" font-family="Helvetica,sans-Serif" font-size="10.00">SimIp4Packet::writeTcpData</text>
<text text-anchor="middle" x="157" y="-21" font-family="Helvetica,sans-Serif" font-size="10.00">ToDatFile</text>
</a>
</g>
</g>
<!-- Node1&#45;&gt;Node2 -->
<g id="edge1" class="edge">
<title>Node1&#45;&gt;Node2</title>
<path fill="none" stroke="midnightblue" d="M258.61,-29C250.19,-29 241.66,-29 233.3,-29"/>
<polygon fill="midnightblue" stroke="midnightblue" points="258.81,-32.5 268.81,-29 258.81,-25.5 258.81,-32.5"/>
</g>
<!-- Node3 -->
<g id="node3" class="node">
<title>Node3</title>
<g id="a_node3"><a xlink:href="group__NTS__TOE__TEST.html#ga19626da81d440ab83bcba2f6838ccb87" target="_top" xlink:title="Emulate the behavior of the IP Rx Path (IPRX).">
<polygon fill="none" stroke="black" points="0,-38.5 0,-57.5 45,-57.5 45,-38.5 0,-38.5"/>
<text text-anchor="middle" x="22.5" y="-45.5" font-family="Helvetica,sans-Serif" font-size="10.00">pIPRX</text>
</a>
</g>
</g>
<!-- Node2&#45;&gt;Node3 -->
<g id="edge2" class="edge">
<title>Node2&#45;&gt;Node3</title>
<path fill="none" stroke="midnightblue" d="M70.86,-41.21C61.43,-42.56 52.56,-43.83 45.1,-44.9"/>
<polygon fill="midnightblue" stroke="midnightblue" points="71.44,-44.66 80.85,-39.78 70.45,-37.73 71.44,-44.66"/>
</g>
<!-- Node4 -->
<g id="node4" class="node">
<title>Node4</title>
<g id="a_node4"><a xlink:href="group__NTS__TOE__TEST.html#ga5555b85edfa105eb62cf20f0dbdf5962" target="_top" xlink:title="Emulate the behavior of the IP Tx Handler (IPTX).">
<polygon fill="none" stroke="black" points="0.5,-0.5 0.5,-19.5 44.5,-19.5 44.5,-0.5 0.5,-0.5"/>
<text text-anchor="middle" x="22.5" y="-7.5" font-family="Helvetica,sans-Serif" font-size="10.00">pIPTX</text>
</a>
</g>
</g>
<!-- Node2&#45;&gt;Node4 -->
<g id="edge3" class="edge">
<title>Node2&#45;&gt;Node4</title>
<path fill="none" stroke="midnightblue" d="M70.68,-16.77C61.09,-15.39 52.09,-14.1 44.57,-13.02"/>
<polygon fill="midnightblue" stroke="midnightblue" points="70.45,-20.27 80.85,-18.22 71.44,-13.34 70.45,-20.27"/>
</g>
</g>
</svg>
