<?xml version="1.0" encoding="UTF-8" standalone="no"?>
<!DOCTYPE svg PUBLIC "-//W3C//DTD SVG 1.1//EN"
 "http://www.w3.org/Graphics/SVG/1.1/DTD/svg11.dtd">
<!-- Generated by graphviz version 2.43.0 (0)
 -->
<!-- Title: AxisEth::getArpTpaHi Pages: 1 -->
<svg width="630pt" height="47pt"
 viewBox="0.00 0.00 630.00 47.00" xmlns="http://www.w3.org/2000/svg" xmlns:xlink="http://www.w3.org/1999/xlink">
<g id="graph0" class="graph" transform="scale(1 1) rotate(0) translate(4 43)">
<title>AxisEth::getArpTpaHi</title>
<!-- Node1 -->
<g id="node1" class="node">
<title>Node1</title>
<g id="a_node1"><a xlink:title=" ">
<polygon fill="#bfbfbf" stroke="black" points="502,-0.5 502,-19.5 622,-19.5 622,-0.5 502,-0.5"/>
<text text-anchor="middle" x="562" y="-7.5" font-family="Helvetica,sans-Serif" font-size="10.00">AxisEth::getArpTpaHi</text>
</a>
</g>
</g>
<!-- Node2 -->
<g id="node2" class="node">
<title>Node2</title>
<g id="a_node2"><a xlink:href="group__NTS__ARP.html#ga316ceee71331361619788df27c0b3ec7" target="_top" xlink:title=" ">
<polygon fill="none" stroke="black" points="353,-0.5 353,-19.5 466,-19.5 466,-0.5 353,-0.5"/>
<text text-anchor="middle" x="409.5" y="-7.5" font-family="Helvetica,sans-Serif" font-size="10.00">pArpPacketReceiver</text>
</a>
</g>
</g>
<!-- Node1&#45;&gt;Node2 -->
<g id="edge1" class="edge">
<title>Node1&#45;&gt;Node2</title>
<path fill="none" stroke="midnightblue" d="M491.7,-10C483.23,-10 474.67,-10 466.43,-10"/>
<polygon fill="midnightblue" stroke="midnightblue" points="491.95,-13.5 501.95,-10 491.95,-6.5 491.95,-13.5"/>
</g>
<!-- Node3 -->
<g id="node3" class="node">
<title>Node3</title>
<g id="a_node3"><a xlink:href="group__NTS__ARP.html#gab9ccf22b359d207c21e293d6489ff5a1" target="_top" xlink:title="Main process of the Address Resolution Protocol (ARP) Server.">
<polygon fill="none" stroke="black" points="285,-0.5 285,-19.5 317,-19.5 317,-0.5 285,-0.5"/>
<text text-anchor="middle" x="301" y="-7.5" font-family="Helvetica,sans-Serif" font-size="10.00">arp</text>
</a>
</g>
</g>
<!-- Node2&#45;&gt;Node3 -->
<g id="edge2" class="edge">
<title>Node2&#45;&gt;Node3</title>
<path fill="none" stroke="midnightblue" d="M342.73,-10C333.25,-10 324.33,-10 317.27,-10"/>
<polygon fill="midnightblue" stroke="midnightblue" points="342.75,-13.5 352.75,-10 342.75,-6.5 342.75,-13.5"/>
</g>
<!-- Node4 -->
<g id="node4" class="node">
<title>Node4</title>
<g id="a_node4"><a xlink:href="group__NTS__ARP.html#ga5ca02cb7318b37b61b46b739269784f4" target="_top" xlink:title="Top of Address Resolution Protocol (ARP) Server.">
<polygon fill="none" stroke="black" points="196,-0.5 196,-19.5 249,-19.5 249,-0.5 196,-0.5"/>
<text text-anchor="middle" x="222.5" y="-7.5" font-family="Helvetica,sans-Serif" font-size="10.00">arp_top</text>
</a>
</g>
</g>
<!-- Node3&#45;&gt;Node4 -->
<g id="edge3" class="edge">
<title>Node3&#45;&gt;Node4</title>
<path fill="none" stroke="midnightblue" d="M274.75,-10C266.52,-10 257.38,-10 249.13,-10"/>
<polygon fill="midnightblue" stroke="midnightblue" points="274.89,-13.5 284.89,-10 274.89,-6.5 274.89,-13.5"/>
</g>
<!-- Node5 -->
<g id="node5" class="node">
<title>Node5</title>
<g id="a_node5"><a xlink:href="group__NTS__ARP__TEST.html#gac439322ef10ff13fdfd743b41dd080df" target="_top" xlink:title="A wrapper for the Toplevel of the Address Resolution Protocol (ARP) Server.">
<polygon fill="none" stroke="black" points="77,-19.5 77,-38.5 160,-38.5 160,-19.5 77,-19.5"/>
<text text-anchor="middle" x="118.5" y="-26.5" font-family="Helvetica,sans-Serif" font-size="10.00">arp_top_wrap</text>
</a>
</g>
</g>
<!-- Node4&#45;&gt;Node5 -->
<g id="edge4" class="edge">
<title>Node4&#45;&gt;Node5</title>
<path fill="none" stroke="midnightblue" d="M185.74,-16.66C177.52,-18.19 168.73,-19.83 160.32,-21.4"/>
<polygon fill="midnightblue" stroke="midnightblue" points="186.57,-20.07 195.76,-14.79 185.29,-13.19 186.57,-20.07"/>
</g>
<!-- Node6 -->
<g id="node6" class="node">
<title>Node6</title>
<g id="a_node6"><a xlink:href="group__NTS__ARP__TEST.html#ga0ddf1224851353fc92bfbff6f499fa97" target="_top" xlink:title="Main function.">
<polygon fill="none" stroke="black" points="0,-0.5 0,-19.5 41,-19.5 41,-0.5 0,-0.5"/>
<text text-anchor="middle" x="20.5" y="-7.5" font-family="Helvetica,sans-Serif" font-size="10.00">main</text>
</a>
</g>
</g>
<!-- Node4&#45;&gt;Node6 -->
<g id="edge6" class="edge">
<title>Node4&#45;&gt;Node6</title>
<path fill="none" stroke="midnightblue" d="M185.62,-10C143.35,-10 74.64,-10 41.13,-10"/>
<polygon fill="midnightblue" stroke="midnightblue" points="185.76,-13.5 195.76,-10 185.76,-6.5 185.76,-13.5"/>
</g>
<!-- Node5&#45;&gt;Node6 -->
<g id="edge5" class="edge">
<title>Node5&#45;&gt;Node6</title>
<path fill="none" stroke="midnightblue" d="M66.86,-18.98C57.69,-17.16 48.66,-15.37 41.09,-13.88"/>
<polygon fill="midnightblue" stroke="midnightblue" points="66.3,-22.43 76.79,-20.94 67.66,-15.57 66.3,-22.43"/>
</g>
</g>
</svg>
