<?xml version="1.0" encoding="UTF-8" standalone="no"?>
<!DOCTYPE svg PUBLIC "-//W3C//DTD SVG 1.1//EN"
 "http://www.w3.org/Graphics/SVG/1.1/DTD/svg11.dtd">
<!-- Generated by graphviz version 2.43.0 (0)
 -->
<!-- Title: AxisIp4::getIp4SrcAddr Pages: 1 -->
<svg width="835pt" height="152pt"
 viewBox="0.00 0.00 835.00 152.00" xmlns="http://www.w3.org/2000/svg" xmlns:xlink="http://www.w3.org/1999/xlink">
<g id="graph0" class="graph" transform="scale(1 1) rotate(0) translate(4 148)">
<title>AxisIp4::getIp4SrcAddr</title>
<!-- Node1 -->
<g id="node1" class="node">
<title>Node1</title>
<g id="a_node1"><a xlink:title=" ">
<polygon fill="#bfbfbf" stroke="black" points="700,-57.5 700,-76.5 827,-76.5 827,-57.5 700,-57.5"/>
<text text-anchor="middle" x="763.5" y="-64.5" font-family="Helvetica,sans-Serif" font-size="10.00">AxisIp4::getIp4SrcAddr</text>
</a>
</g>
</g>
<!-- Node2 -->
<g id="node2" class="node">
<title>Node2</title>
<g id="a_node2"><a xlink:href="group__NTS__ICMP.html#ga9966f6389006fa1f1ef4b06b458b081a" target="_top" xlink:title=" ">
<polygon fill="none" stroke="black" points="527,-114.5 527,-133.5 664,-133.5 664,-114.5 527,-114.5"/>
<text text-anchor="middle" x="595.5" y="-121.5" font-family="Helvetica,sans-Serif" font-size="10.00">pIcmpChecksumChecker</text>
</a>
</g>
</g>
<!-- Node1&#45;&gt;Node2 -->
<g id="edge1" class="edge">
<title>Node1&#45;&gt;Node2</title>
<path fill="none" stroke="midnightblue" d="M730.21,-80.34C711.11,-88 686.36,-97.56 664,-105 653.95,-108.34 642.94,-111.61 632.77,-114.46"/>
<polygon fill="midnightblue" stroke="midnightblue" points="731.68,-83.52 739.63,-76.52 729.05,-77.03 731.68,-83.52"/>
</g>
<!-- Node7 -->
<g id="node7" class="node">
<title>Node7</title>
<g id="a_node7"><a xlink:href="group__NTS__ICMP.html#ga714464fcd91343268264b188c34d4026" target="_top" xlink:title=" ">
<polygon fill="none" stroke="black" points="539,-76.5 539,-95.5 652,-95.5 652,-76.5 539,-76.5"/>
<text text-anchor="middle" x="595.5" y="-83.5" font-family="Helvetica,sans-Serif" font-size="10.00">pIpHeaderAppender</text>
</a>
</g>
</g>
<!-- Node1&#45;&gt;Node7 -->
<g id="edge7" class="edge">
<title>Node1&#45;&gt;Node7</title>
<path fill="none" stroke="midnightblue" d="M689.75,-75.33C677.18,-76.77 664.29,-78.24 652.26,-79.62"/>
<polygon fill="midnightblue" stroke="midnightblue" points="690.21,-78.8 699.74,-74.18 689.41,-71.84 690.21,-78.8"/>
</g>
<!-- Node8 -->
<g id="node8" class="node">
<title>Node8</title>
<g id="a_node8"><a xlink:href="group__NTS__UOE.html#gaf298ae8ed051de648f02f4b2ab238ded" target="_top" xlink:title=" ">
<polygon fill="none" stroke="black" points="543,-38.5 543,-57.5 648,-57.5 648,-38.5 543,-38.5"/>
<text text-anchor="middle" x="595.5" y="-45.5" font-family="Helvetica,sans-Serif" font-size="10.00">pIpHeaderStripper</text>
</a>
</g>
</g>
<!-- Node1&#45;&gt;Node8 -->
<g id="edge9" class="edge">
<title>Node1&#45;&gt;Node8</title>
<path fill="none" stroke="midnightblue" d="M689.68,-58.66C675.72,-57.07 661.38,-55.43 648.26,-53.92"/>
<polygon fill="midnightblue" stroke="midnightblue" points="689.41,-62.16 699.74,-59.82 690.21,-55.2 689.41,-62.16"/>
</g>
<!-- Node14 -->
<g id="node14" class="node">
<title>Node14</title>
<g id="a_node14"><a xlink:href="group__NTS__UOE.html#ga167bf3d28da8dec6aa2e94ca84f42131" target="_top" xlink:title=" ">
<polygon fill="none" stroke="black" points="543,-0.5 543,-19.5 648,-19.5 648,-0.5 543,-0.5"/>
<text text-anchor="middle" x="595.5" y="-7.5" font-family="Helvetica,sans-Serif" font-size="10.00">pRxPacketHandler</text>
</a>
</g>
</g>
<!-- Node1&#45;&gt;Node14 -->
<g id="edge16" class="edge">
<title>Node1&#45;&gt;Node14</title>
<path fill="none" stroke="midnightblue" d="M730.21,-53.66C711.11,-46 686.36,-36.44 664,-29 653.95,-25.66 642.94,-22.39 632.77,-19.54"/>
<polygon fill="midnightblue" stroke="midnightblue" points="729.05,-56.97 739.63,-57.48 731.68,-50.48 729.05,-56.97"/>
</g>
<!-- Node3 -->
<g id="node3" class="node">
<title>Node3</title>
<g id="a_node3"><a xlink:href="group__NTS__ICMP.html#gaa1fbe125ee59fc3f93c7cf0b3dc045a5" target="_top" xlink:title="Main process of the Internet Control Message Protocol (ICMP) Server.">
<polygon fill="none" stroke="black" points="436.5,-95.5 436.5,-114.5 477.5,-114.5 477.5,-95.5 436.5,-95.5"/>
<text text-anchor="middle" x="457" y="-102.5" font-family="Helvetica,sans-Serif" font-size="10.00">icmp</text>
</a>
</g>
</g>
<!-- Node2&#45;&gt;Node3 -->
<g id="edge2" class="edge">
<title>Node2&#45;&gt;Node3</title>
<path fill="none" stroke="midnightblue" d="M516.59,-113.16C502.15,-111.15 488.3,-109.22 477.7,-107.74"/>
<polygon fill="midnightblue" stroke="midnightblue" points="516.26,-116.64 526.65,-114.56 517.23,-109.71 516.26,-116.64"/>
</g>
<!-- Node4 -->
<g id="node4" class="node">
<title>Node4</title>
<g id="a_node4"><a xlink:href="group__NTS__ICMP.html#ga3c54cc21d2386d572cf73472661b22d4" target="_top" xlink:title="Top of the Internet Control Message Protocol (ICMP) Server.">
<polygon fill="none" stroke="black" points="325,-95.5 325,-114.5 387,-114.5 387,-95.5 325,-95.5"/>
<text text-anchor="middle" x="356" y="-102.5" font-family="Helvetica,sans-Serif" font-size="10.00">icmp_top</text>
</a>
</g>
</g>
<!-- Node3&#45;&gt;Node4 -->
<g id="edge3" class="edge">
<title>Node3&#45;&gt;Node4</title>
<path fill="none" stroke="midnightblue" d="M426.17,-105C413.79,-105 399.45,-105 387.05,-105"/>
<polygon fill="midnightblue" stroke="midnightblue" points="426.44,-108.5 436.44,-105 426.44,-101.5 426.44,-108.5"/>
</g>
<!-- Node5 -->
<g id="node5" class="node">
<title>Node5</title>
<g id="a_node5"><a xlink:href="group__NTS__ICMP__TEST.html#ga32bc9c115ea573de78b3d47cc1535acb" target="_top" xlink:title="A wrapper for Toplevel of Internet Control Message Protocol (ICMP).">
<polygon fill="none" stroke="black" points="198,-124.5 198,-143.5 289,-143.5 289,-124.5 198,-124.5"/>
<text text-anchor="middle" x="243.5" y="-131.5" font-family="Helvetica,sans-Serif" font-size="10.00">icmp_top_wrap</text>
</a>
</g>
</g>
<!-- Node4&#45;&gt;Node5 -->
<g id="edge4" class="edge">
<title>Node4&#45;&gt;Node5</title>
<path fill="none" stroke="midnightblue" d="M314.92,-115.52C303.82,-118.43 291.83,-121.58 280.95,-124.43"/>
<polygon fill="midnightblue" stroke="midnightblue" points="316.02,-118.85 324.81,-112.92 314.24,-112.08 316.02,-118.85"/>
</g>
<!-- Node6 -->
<g id="node6" class="node">
<title>Node6</title>
<g id="a_node6"><a xlink:href="group__NTS__ICMP__TEST.html#ga0ddf1224851353fc92bfbff6f499fa97" target="_top" xlink:title="Main function.">
<polygon fill="none" stroke="black" points="99,-105.5 99,-124.5 140,-124.5 140,-105.5 99,-105.5"/>
<text text-anchor="middle" x="119.5" y="-112.5" font-family="Helvetica,sans-Serif" font-size="10.00">main</text>
</a>
</g>
</g>
<!-- Node4&#45;&gt;Node6 -->
<g id="edge6" class="edge">
<title>Node4&#45;&gt;Node6</title>
<path fill="none" stroke="midnightblue" d="M314.53,-106.73C263.74,-108.89 178.63,-112.52 140.29,-114.16"/>
<polygon fill="midnightblue" stroke="midnightblue" points="314.98,-110.21 324.82,-106.29 314.68,-103.22 314.98,-110.21"/>
</g>
<!-- Node5&#45;&gt;Node6 -->
<g id="edge5" class="edge">
<title>Node5&#45;&gt;Node6</title>
<path fill="none" stroke="midnightblue" d="M187.83,-125.49C170.76,-122.83 153.02,-120.06 140.04,-118.04"/>
<polygon fill="midnightblue" stroke="midnightblue" points="187.34,-128.95 197.76,-127.03 188.42,-122.04 187.34,-128.95"/>
</g>
<!-- Node7&#45;&gt;Node3 -->
<g id="edge8" class="edge">
<title>Node7&#45;&gt;Node3</title>
<path fill="none" stroke="midnightblue" d="M528.97,-95.12C510.3,-97.72 491.35,-100.36 477.74,-102.25"/>
<polygon fill="midnightblue" stroke="midnightblue" points="529.56,-98.57 538.98,-93.73 528.59,-91.64 529.56,-98.57"/>
</g>
<!-- Node9 -->
<g id="node9" class="node">
<title>Node9</title>
<g id="a_node9"><a xlink:href="group__NTS__UOE.html#ga0f2f0d19a54d57f63fe33700654988f8" target="_top" xlink:title=" ">
<polygon fill="none" stroke="black" points="423,-19.5 423,-38.5 491,-38.5 491,-19.5 423,-19.5"/>
<text text-anchor="middle" x="457" y="-26.5" font-family="Helvetica,sans-Serif" font-size="10.00">pRxEngine</text>
</a>
</g>
</g>
<!-- Node8&#45;&gt;Node9 -->
<g id="edge10" class="edge">
<title>Node8&#45;&gt;Node9</title>
<path fill="none" stroke="midnightblue" d="M532.58,-39.38C518.28,-37.39 503.6,-35.35 491.09,-33.61"/>
<polygon fill="midnightblue" stroke="midnightblue" points="532.51,-42.9 542.9,-40.82 533.47,-35.97 532.51,-42.9"/>
</g>
<!-- Node10 -->
<g id="node10" class="node">
<title>Node10</title>
<g id="a_node10"><a xlink:href="group__NTS__UOE.html#ga84101607ce156850e4f7426c8be83a2b" target="_top" xlink:title="Main process of the UDP Offload Engine (UOE).">
<polygon fill="none" stroke="black" points="338.5,-19.5 338.5,-38.5 373.5,-38.5 373.5,-19.5 338.5,-19.5"/>
<text text-anchor="middle" x="356" y="-26.5" font-family="Helvetica,sans-Serif" font-size="10.00">uoe</text>
</a>
</g>
</g>
<!-- Node9&#45;&gt;Node10 -->
<g id="edge11" class="edge">
<title>Node9&#45;&gt;Node10</title>
<path fill="none" stroke="midnightblue" d="M412.43,-29C398.67,-29 384.29,-29 373.63,-29"/>
<polygon fill="midnightblue" stroke="midnightblue" points="412.76,-32.5 422.76,-29 412.76,-25.5 412.76,-32.5"/>
</g>
<!-- Node11 -->
<g id="node11" class="node">
<title>Node11</title>
<g id="a_node11"><a xlink:href="group__NTS__UOE.html#ga5d9bd6d46b41ba8787888e1e6bfb0d41" target="_top" xlink:title="Top of UDP Offload Engine (UOE)">
<polygon fill="none" stroke="black" points="215.5,-19.5 215.5,-38.5 271.5,-38.5 271.5,-19.5 215.5,-19.5"/>
<text text-anchor="middle" x="243.5" y="-26.5" font-family="Helvetica,sans-Serif" font-size="10.00">uoe_top</text>
</a>
</g>
</g>
<!-- Node10&#45;&gt;Node11 -->
<g id="edge12" class="edge">
<title>Node10&#45;&gt;Node11</title>
<path fill="none" stroke="midnightblue" d="M327.81,-29C310.76,-29 288.85,-29 271.77,-29"/>
<polygon fill="midnightblue" stroke="midnightblue" points="328.22,-32.5 338.22,-29 328.22,-25.5 328.22,-32.5"/>
</g>
<!-- Node12 -->
<g id="node12" class="node">
<title>Node12</title>
<g id="a_node12"><a xlink:href="group__NTS__UOE__TEST.html#ga0ddf1224851353fc92bfbff6f499fa97" target="_top" xlink:title="Main function.">
<polygon fill="none" stroke="black" points="0,-19.5 0,-38.5 41,-38.5 41,-19.5 0,-19.5"/>
<text text-anchor="middle" x="20.5" y="-26.5" font-family="Helvetica,sans-Serif" font-size="10.00">main</text>
</a>
</g>
</g>
<!-- Node11&#45;&gt;Node12 -->
<g id="edge13" class="edge">
<title>Node11&#45;&gt;Node12</title>
<path fill="none" stroke="midnightblue" d="M205.24,-29C157.86,-29 77.78,-29 41.02,-29"/>
<polygon fill="midnightblue" stroke="midnightblue" points="205.4,-32.5 215.4,-29 205.4,-25.5 205.4,-32.5"/>
</g>
<!-- Node13 -->
<g id="node13" class="node">
<title>Node13</title>
<g id="a_node13"><a xlink:href="group__NTS__UOE__TEST.html#ga0bfd8cabf14df12bd23594b44ea70b16" target="_top" xlink:title="A wrapper for the Toplevel of the UDP Offload Engine (UOE)">
<polygon fill="none" stroke="black" points="77,-0.5 77,-19.5 162,-19.5 162,-0.5 77,-0.5"/>
<text text-anchor="middle" x="119.5" y="-7.5" font-family="Helvetica,sans-Serif" font-size="10.00">uoe_top_wrap</text>
</a>
</g>
</g>
<!-- Node11&#45;&gt;Node13 -->
<g id="edge14" class="edge">
<title>Node11&#45;&gt;Node13</title>
<path fill="none" stroke="midnightblue" d="M205.45,-23.23C191.85,-21.11 176.36,-18.7 162.36,-16.52"/>
<polygon fill="midnightblue" stroke="midnightblue" points="205,-26.7 215.42,-24.78 206.08,-19.79 205,-26.7"/>
</g>
<!-- Node13&#45;&gt;Node12 -->
<g id="edge15" class="edge">
<title>Node13&#45;&gt;Node12</title>
<path fill="none" stroke="midnightblue" d="M66.83,-20.12C57.64,-21.92 48.61,-23.69 41.05,-25.17"/>
<polygon fill="midnightblue" stroke="midnightblue" points="67.66,-23.53 76.8,-18.17 66.31,-16.66 67.66,-23.53"/>
</g>
<!-- Node14&#45;&gt;Node9 -->
<g id="edge17" class="edge">
<title>Node14&#45;&gt;Node9</title>
<path fill="none" stroke="midnightblue" d="M532.58,-18.62C518.28,-20.61 503.6,-22.65 491.09,-24.39"/>
<polygon fill="midnightblue" stroke="midnightblue" points="533.47,-22.03 542.9,-17.18 532.51,-15.1 533.47,-22.03"/>
</g>
</g>
</svg>
