<?xml version="1.0" encoding="UTF-8" standalone="no"?>
<!DOCTYPE svg PUBLIC "-//W3C//DTD SVG 1.1//EN"
 "http://www.w3.org/Graphics/SVG/1.1/DTD/svg11.dtd">
<!-- Generated by graphviz version 2.43.0 (0)
 -->
<!-- Title: SimEthFrame::getIpPacket Pages: 1 -->
<svg width="624pt" height="85pt"
 viewBox="0.00 0.00 624.00 85.00" xmlns="http://www.w3.org/2000/svg" xmlns:xlink="http://www.w3.org/1999/xlink">
<g id="graph0" class="graph" transform="scale(1 1) rotate(0) translate(4 81)">
<title>SimEthFrame::getIpPacket</title>
<!-- Node1 -->
<g id="node1" class="node">
<title>Node1</title>
<g id="a_node1"><a xlink:title=" ">
<polygon fill="#bfbfbf" stroke="black" points="0,-19.5 0,-38.5 144,-38.5 144,-19.5 0,-19.5"/>
<text text-anchor="middle" x="72" y="-26.5" font-family="Helvetica,sans-Serif" font-size="10.00">SimEthFrame::getIpPacket</text>
</a>
</g>
</g>
<!-- Node2 -->
<g id="node2" class="node">
<title>Node2</title>
<g id="a_node2"><a xlink:href="classSimIp4Packet.html#a86f15f4253811fa2ef07730858a9f372" target="_top" xlink:title=" ">
<polygon fill="none" stroke="black" points="180,-38.5 180,-57.5 322,-57.5 322,-38.5 180,-38.5"/>
<text text-anchor="middle" x="251" y="-45.5" font-family="Helvetica,sans-Serif" font-size="10.00">SimIp4Packet::pushChunk</text>
</a>
</g>
</g>
<!-- Node1&#45;&gt;Node2 -->
<g id="edge1" class="edge">
<title>Node1&#45;&gt;Node2</title>
<path fill="none" stroke="midnightblue" d="M144.23,-36.65C152.65,-37.55 161.29,-38.48 169.83,-39.39"/>
<polygon fill="midnightblue" stroke="midnightblue" points="169.47,-42.88 179.78,-40.46 170.21,-35.92 169.47,-42.88"/>
</g>
<!-- Node6 -->
<g id="node6" class="node">
<title>Node6</title>
<g id="a_node6"><a xlink:href="classSimEthFrame.html#ab28b518506d129e3c1b52f10cfe454f0" target="_top" xlink:title=" ">
<polygon fill="none" stroke="black" points="197.5,-0.5 197.5,-19.5 304.5,-19.5 304.5,-0.5 197.5,-0.5"/>
<text text-anchor="middle" x="251" y="-7.5" font-family="Helvetica,sans-Serif" font-size="10.00">SimEthFrame::size</text>
</a>
</g>
</g>
<!-- Node1&#45;&gt;Node6 -->
<g id="edge5" class="edge">
<title>Node1&#45;&gt;Node6</title>
<path fill="none" stroke="midnightblue" d="M144.23,-21.35C158.53,-19.82 173.45,-18.22 187.43,-16.72"/>
<polygon fill="midnightblue" stroke="midnightblue" points="187.85,-20.19 197.42,-15.64 187.11,-13.23 187.85,-20.19"/>
</g>
<!-- Node3 -->
<g id="node3" class="node">
<title>Node3</title>
<g id="a_node3"><a xlink:href="classAxisRaw.html#acadbd2b7e00e34417c426fa91c8d7c51" target="_top" xlink:title=" ">
<polygon fill="none" stroke="black" points="363,-57.5 363,-76.5 460,-76.5 460,-57.5 363,-57.5"/>
<text text-anchor="middle" x="411.5" y="-64.5" font-family="Helvetica,sans-Serif" font-size="10.00">AxisRaw::getLen</text>
</a>
</g>
</g>
<!-- Node2&#45;&gt;Node3 -->
<g id="edge2" class="edge">
<title>Node2&#45;&gt;Node3</title>
<path fill="none" stroke="midnightblue" d="M322.44,-56.44C332.51,-57.65 342.76,-58.88 352.55,-60.05"/>
<polygon fill="midnightblue" stroke="midnightblue" points="352.21,-63.54 362.55,-61.25 353.04,-56.59 352.21,-63.54"/>
</g>
<!-- Node5 -->
<g id="node5" class="node">
<title>Node5</title>
<g id="a_node5"><a xlink:href="classSimIp4Packet.html#a53b4354e1a627f97899bfce5540c83ef" target="_top" xlink:title=" ">
<polygon fill="none" stroke="black" points="358,-19.5 358,-38.5 465,-38.5 465,-19.5 358,-19.5"/>
<text text-anchor="middle" x="411.5" y="-26.5" font-family="Helvetica,sans-Serif" font-size="10.00">SimIp4Packet::size</text>
</a>
</g>
</g>
<!-- Node2&#45;&gt;Node5 -->
<g id="edge4" class="edge">
<title>Node2&#45;&gt;Node5</title>
<path fill="none" stroke="midnightblue" d="M322.44,-39.56C330.91,-38.54 339.51,-37.51 347.85,-36.51"/>
<polygon fill="midnightblue" stroke="midnightblue" points="348.36,-39.97 357.87,-35.31 347.53,-33.02 348.36,-39.97"/>
</g>
<!-- Node4 -->
<g id="node4" class="node">
<title>Node4</title>
<g id="a_node4"><a xlink:href="classAxisRaw.html#aec8718820338b67381cce084ba407063" target="_top" xlink:title=" ">
<polygon fill="none" stroke="black" points="501,-57.5 501,-76.5 616,-76.5 616,-57.5 501,-57.5"/>
<text text-anchor="middle" x="558.5" y="-64.5" font-family="Helvetica,sans-Serif" font-size="10.00">AxisRaw::keepToLen</text>
</a>
</g>
</g>
<!-- Node3&#45;&gt;Node4 -->
<g id="edge3" class="edge">
<title>Node3&#45;&gt;Node4</title>
<path fill="none" stroke="midnightblue" d="M460.38,-67C470.09,-67 480.48,-67 490.71,-67"/>
<polygon fill="midnightblue" stroke="midnightblue" points="490.85,-70.5 500.85,-67 490.85,-63.5 490.85,-70.5"/>
</g>
</g>
</svg>
