<?xml version="1.0" encoding="UTF-8" standalone="no"?>
<!DOCTYPE svg PUBLIC "-//W3C//DTD SVG 1.1//EN"
 "http://www.w3.org/Graphics/SVG/1.1/DTD/svg11.dtd">
<!-- Generated by graphviz version 2.43.0 (0)
 -->
<!-- Title: cFSPlib.python_api_client.swagger_client.models.administration_mantle_logic_body.AdministrationMantleLogicBody.to_str Pages: 1 -->
<!--zoomable 1596 -->
<svg id="main" version="1.1" xmlns="http://www.w3.org/2000/svg" xmlns:xlink="http://www.w3.org/1999/xlink" xml:space="preserve" onload="init(evt)">
<style type="text/css"><![CDATA[
.edge:hover path { stroke: red; }
.edge:hover polygon { stroke: red; fill: red; }
]]></style>
<script type="text/javascript"><![CDATA[
var edges = document.getElementsByTagName('g');
if (edges && edges.length) {
  for (var i=0;i<edges.length;i++) {
    if (edges[i].id.substr(0,4)=='edge') {
      edges[i].setAttribute('class','edge');
    }
  }
}
]]></script>
        <defs>
                <circle id="rim" cx="0" cy="0" r="7"/>
                <circle id="rim2" cx="0" cy="0" r="3.5"/>
                <g id="zoomPlus">
                        <use xlink:href="#rim" fill="#404040">
                                <set attributeName="fill" to="#808080" begin="zoomplus.mouseover" end="zoomplus.mouseout"/>
                        </use>
                        <path d="M-4,0h8M0,-4v8" fill="none" stroke="white" stroke-width="1.5" pointer-events="none"/>
                </g>
                <g id="zoomMin">
                        <use xlink:href="#rim" fill="#404040">
                                <set attributeName="fill" to="#808080" begin="zoomminus.mouseover" end="zoomminus.mouseout"/>
                        </use>
                        <path d="M-4,0h8" fill="none" stroke="white" stroke-width="1.5" pointer-events="none"/>
                </g>
                <g id="dirArrow">
                        <path fill="none" stroke="white" stroke-width="1.5" d="M0,-3.0v7 M-2.5,-0.5L0,-3.0L2.5,-0.5"/>
                </g>
               <g id="resetDef">
                       <use xlink:href="#rim2" fill="#404040">
                               <set attributeName="fill" to="#808080" begin="reset.mouseover" end="reset.mouseout"/>
                       </use>
               </g>
        </defs>

<script type="text/javascript">
var viewWidth = 563;
var viewHeight = 1596;
var sectionId = 'dynsection-5';
</script>
<script xlink:href="svgpan.js"/>
<svg id="graph" class="graph">
<g id="viewport">
<title>cFSPlib.python_api_client.swagger_client.models.administration_mantle_logic_body.AdministrationMantleLogicBody.to_str</title>
<!-- Node1 -->
<g id="node1" class="node">
<title>Node1</title>
<g id="a_node1"><a xlink:title=" ">
<polygon fill="#bfbfbf" stroke="black" points="308,-768.5 308,-820.5 555,-820.5 555,-768.5 308,-768.5"/>
<text text-anchor="start" x="316" y="-808.5" font-family="Helvetica,sans-Serif" font-size="10.00">cFSPlib.python_api</text>
<text text-anchor="start" x="316" y="-797.5" font-family="Helvetica,sans-Serif" font-size="10.00">_client.swagger_client.models.administration</text>
<text text-anchor="start" x="316" y="-786.5" font-family="Helvetica,sans-Serif" font-size="10.00">_mantle_logic_body.AdministrationMantleLogic</text>
<text text-anchor="middle" x="431.5" y="-775.5" font-family="Helvetica,sans-Serif" font-size="10.00">Body.to_str</text>
</a>
</g>
</g>
<!-- Node2 -->
<g id="node2" class="node">
<title>Node2</title>
<g id="a_node2"><a xlink:href="classcFSPlib_1_1python__api__client_1_1swagger__client_1_1models_1_1administration__mantle__logi168f0a51d80725a08a224c580ca4eab6.html#ad1cb3f837b0fb7187e407e652faed88b" target="_top" xlink:title=" ">
<polygon fill="none" stroke="black" points="12.5,-1535.5 12.5,-1587.5 259.5,-1587.5 259.5,-1535.5 12.5,-1535.5"/>
<text text-anchor="start" x="20.5" y="-1575.5" font-family="Helvetica,sans-Serif" font-size="10.00">cFSPlib.python_api</text>
<text text-anchor="start" x="20.5" y="-1564.5" font-family="Helvetica,sans-Serif" font-size="10.00">_client.swagger_client.models.administration</text>
<text text-anchor="start" x="20.5" y="-1553.5" font-family="Helvetica,sans-Serif" font-size="10.00">_mantle_logic_body.AdministrationMantleLogic</text>
<text text-anchor="middle" x="136" y="-1542.5" font-family="Helvetica,sans-Serif" font-size="10.00">Body.__repr__</text>
</a>
</g>
</g>
<!-- Node1&#45;&gt;Node2 -->
<g id="edge1" class="edge">
<title>Node1&#45;&gt;Node2</title>
<path fill="none" stroke="midnightblue" d="M427.6,-830.72C416.22,-963.92 370.32,-1424.12 272,-1526.5 268.23,-1530.43 264.07,-1533.94 259.64,-1537.07"/>
<polygon fill="midnightblue" stroke="midnightblue" points="431.1,-830.89 428.45,-820.63 424.12,-830.3 431.1,-830.89"/>
</g>
<!-- Node3 -->
<g id="node3" class="node">
<title>Node3</title>
<g id="a_node3"><a xlink:href="classcFSPlib_1_1python__api__client_1_1swagger__client_1_1models_1_1administration__platform__lo7236faec3e459a8c5be8431e1b997ede.html#a0c9da310956fd3722898545877914406" target="_top" xlink:title=" ">
<polygon fill="none" stroke="black" points="16.5,-1464.5 16.5,-1516.5 255.5,-1516.5 255.5,-1464.5 16.5,-1464.5"/>
<text text-anchor="start" x="24.5" y="-1504.5" font-family="Helvetica,sans-Serif" font-size="10.00">cFSPlib.python_api</text>
<text text-anchor="start" x="24.5" y="-1493.5" font-family="Helvetica,sans-Serif" font-size="10.00">_client.swagger_client.models.administration</text>
<text text-anchor="start" x="24.5" y="-1482.5" font-family="Helvetica,sans-Serif" font-size="10.00">_platform_logic_body.AdministrationPlatform</text>
<text text-anchor="middle" x="136" y="-1471.5" font-family="Helvetica,sans-Serif" font-size="10.00">LogicBody.__repr__</text>
</a>
</g>
</g>
<!-- Node1&#45;&gt;Node3 -->
<g id="edge2" class="edge">
<title>Node1&#45;&gt;Node3</title>
<path fill="none" stroke="midnightblue" d="M426.65,-830.79C412.7,-955.42 360.95,-1363.31 272,-1454.5 267.09,-1459.54 261.56,-1463.89 255.61,-1467.66"/>
<polygon fill="midnightblue" stroke="midnightblue" points="430.15,-830.95 427.77,-820.63 423.19,-830.18 430.15,-830.95"/>
</g>
<!-- Node4 -->
<g id="node4" class="node">
<title>Node4</title>
<g id="a_node4"><a xlink:href="classcFSPlib_1_1python__api__client_1_1swagger__client_1_1models_1_1build__script_1_1BuildScript.html#a448bc85c025bf0489aec25faf4174ea4" target="_top" xlink:title=" ">
<polygon fill="none" stroke="black" points="40.5,-1404 40.5,-1445 231.5,-1445 231.5,-1404 40.5,-1404"/>
<text text-anchor="start" x="48.5" y="-1433" font-family="Helvetica,sans-Serif" font-size="10.00">cFSPlib.python_api</text>
<text text-anchor="start" x="48.5" y="-1422" font-family="Helvetica,sans-Serif" font-size="10.00">_client.swagger_client.models.build</text>
<text text-anchor="middle" x="136" y="-1411" font-family="Helvetica,sans-Serif" font-size="10.00">_script.BuildScript.__repr__</text>
</a>
</g>
</g>
<!-- Node1&#45;&gt;Node4 -->
<g id="edge3" class="edge">
<title>Node1&#45;&gt;Node4</title>
<path fill="none" stroke="midnightblue" d="M425.87,-830.73C410.18,-948.05 355.22,-1314.51 272,-1394.5 260.75,-1405.31 246.51,-1412.57 231.52,-1417.38"/>
<polygon fill="midnightblue" stroke="midnightblue" points="429.35,-831.18 427.19,-820.81 422.41,-830.26 429.35,-831.18"/>
</g>
<!-- Node5 -->
<g id="node5" class="node">
<title>Node5</title>
<g id="a_node5"><a xlink:href="classcFSPlib_1_1python__api__client_1_1swagger__client_1_1models_1_1cluster_1_1Cluster.html#a26f2701765ffcb35f33d5c7fbb539b27" target="_top" xlink:title=" ">
<polygon fill="none" stroke="black" points="34.5,-1344 34.5,-1385 237.5,-1385 237.5,-1344 34.5,-1344"/>
<text text-anchor="start" x="42.5" y="-1373" font-family="Helvetica,sans-Serif" font-size="10.00">cFSPlib.python_api</text>
<text text-anchor="start" x="42.5" y="-1362" font-family="Helvetica,sans-Serif" font-size="10.00">_client.swagger_client.models.cluster.</text>
<text text-anchor="middle" x="136" y="-1351" font-family="Helvetica,sans-Serif" font-size="10.00">Cluster.__repr__</text>
</a>
</g>
</g>
<!-- Node1&#45;&gt;Node5 -->
<g id="edge4" class="edge">
<title>Node1&#45;&gt;Node5</title>
<path fill="none" stroke="midnightblue" d="M424.75,-830.69C406.67,-940.03 347.62,-1263.77 272,-1334.5 262.27,-1343.6 250.41,-1350.17 237.81,-1354.87"/>
<polygon fill="midnightblue" stroke="midnightblue" points="428.26,-830.93 426.42,-820.5 421.35,-829.8 428.26,-830.93"/>
</g>
<!-- Node6 -->
<g id="node6" class="node">
<title>Node6</title>
<g id="a_node6"><a xlink:href="classcFSPlib_1_1python__api__client_1_1swagger__client_1_1models_1_1cluster__id__node__id__body_1_1ClusterIdNodeIdBody.html#ad0713dba776df60cac99179ebed01035" target="_top" xlink:title=" ">
<polygon fill="none" stroke="black" points="11,-1284 11,-1325 261,-1325 261,-1284 11,-1284"/>
<text text-anchor="start" x="19" y="-1313" font-family="Helvetica,sans-Serif" font-size="10.00">cFSPlib.python_api</text>
<text text-anchor="start" x="19" y="-1302" font-family="Helvetica,sans-Serif" font-size="10.00">_client.swagger_client.models.cluster</text>
<text text-anchor="middle" x="136" y="-1291" font-family="Helvetica,sans-Serif" font-size="10.00">_id_node_id_body.ClusterIdNodeIdBody.__repr__</text>
</a>
</g>
</g>
<!-- Node1&#45;&gt;Node6 -->
<g id="edge5" class="edge">
<title>Node1&#45;&gt;Node6</title>
<path fill="none" stroke="midnightblue" d="M429.98,-830.74C426.63,-920.45 404.91,-1154.29 272,-1274.5 268.17,-1277.96 264.03,-1281.06 259.67,-1283.82"/>
<polygon fill="midnightblue" stroke="midnightblue" points="433.49,-830.64 430.31,-820.53 426.49,-830.42 433.49,-830.64"/>
</g>
<!-- Node7 -->
<g id="node7" class="node">
<title>Node7</title>
<g id="a_node7"><a xlink:href="classcFSPlib_1_1python__api__client_1_1swagger__client_1_1models_1_1clusters__body_1_1ClustersBody.html#ab6646398021a76e42eb7c8be5af65128" target="_top" xlink:title=" ">
<polygon fill="none" stroke="black" points="33,-1224 33,-1265 239,-1265 239,-1224 33,-1224"/>
<text text-anchor="start" x="41" y="-1253" font-family="Helvetica,sans-Serif" font-size="10.00">cFSPlib.python_api</text>
<text text-anchor="start" x="41" y="-1242" font-family="Helvetica,sans-Serif" font-size="10.00">_client.swagger_client.models.clusters</text>
<text text-anchor="middle" x="136" y="-1231" font-family="Helvetica,sans-Serif" font-size="10.00">_body.ClustersBody.__repr__</text>
</a>
</g>
</g>
<!-- Node1&#45;&gt;Node7 -->
<g id="edge6" class="edge">
<title>Node1&#45;&gt;Node7</title>
<path fill="none" stroke="midnightblue" d="M428.02,-830.77C420.41,-912.56 390.04,-1112.15 272,-1214.5 262.48,-1222.76 251.18,-1228.89 239.24,-1233.42"/>
<polygon fill="midnightblue" stroke="midnightblue" points="431.52,-830.98 428.9,-820.72 424.55,-830.37 431.52,-830.98"/>
</g>
<!-- Node8 -->
<g id="node8" class="node">
<title>Node8</title>
<g id="a_node8"><a xlink:href="classcFSPlib_1_1python__api__client_1_1swagger__client_1_1models_1_1image_1_1Image.html#a0854b84137f933a93dc33082ff4131bf" target="_top" xlink:title=" ">
<polygon fill="none" stroke="black" points="35.5,-1164 35.5,-1205 236.5,-1205 236.5,-1164 35.5,-1164"/>
<text text-anchor="start" x="43.5" y="-1193" font-family="Helvetica,sans-Serif" font-size="10.00">cFSPlib.python_api</text>
<text text-anchor="start" x="43.5" y="-1182" font-family="Helvetica,sans-Serif" font-size="10.00">_client.swagger_client.models.image.</text>
<text text-anchor="middle" x="136" y="-1171" font-family="Helvetica,sans-Serif" font-size="10.00">Image.__repr__</text>
</a>
</g>
</g>
<!-- Node1&#45;&gt;Node8 -->
<g id="edge7" class="edge">
<title>Node1&#45;&gt;Node8</title>
<path fill="none" stroke="midnightblue" d="M425.49,-830.71C413.35,-903.89 375.38,-1069.63 272,-1154.5 261.7,-1162.95 249.52,-1169.15 236.76,-1173.68"/>
<polygon fill="midnightblue" stroke="midnightblue" points="428.98,-831.03 427.09,-820.6 422.07,-829.93 428.98,-831.03"/>
</g>
<!-- Node9 -->
<g id="node9" class="node">
<title>Node9</title>
<g id="a_node9"><a xlink:href="classcFSPlib_1_1python__api__client_1_1swagger__client_1_1models_1_1images__app__logic__body_1_1ImagesAppLogicBody.html#a99987314d45e9493c3c5ef061a1a0ab8" target="_top" xlink:title=" ">
<polygon fill="none" stroke="black" points="13,-1104 13,-1145 259,-1145 259,-1104 13,-1104"/>
<text text-anchor="start" x="21" y="-1133" font-family="Helvetica,sans-Serif" font-size="10.00">cFSPlib.python_api</text>
<text text-anchor="start" x="21" y="-1122" font-family="Helvetica,sans-Serif" font-size="10.00">_client.swagger_client.models.images</text>
<text text-anchor="middle" x="136" y="-1111" font-family="Helvetica,sans-Serif" font-size="10.00">_app_logic_body.ImagesAppLogicBody.__repr__</text>
</a>
</g>
</g>
<!-- Node1&#45;&gt;Node9 -->
<g id="edge8" class="edge">
<title>Node1&#45;&gt;Node9</title>
<path fill="none" stroke="midnightblue" d="M422.05,-830.58C405.16,-894.35 360.95,-1026.64 272,-1094.5 267.42,-1098 262.51,-1101.1 257.38,-1103.85"/>
<polygon fill="midnightblue" stroke="midnightblue" points="425.52,-831.14 424.62,-820.59 418.74,-829.4 425.52,-831.14"/>
</g>
<!-- Node10 -->
<g id="node10" class="node">
<title>Node10</title>
<g id="a_node10"><a xlink:href="classcFSPlib_1_1python__api__client_1_1swagger__client_1_1models_1_1images__body_1_1ImagesBody.html#a1ed669c0f3398e7cccdad49cc3d8e0d3" target="_top" xlink:title=" ">
<polygon fill="none" stroke="black" points="34.5,-1044 34.5,-1085 237.5,-1085 237.5,-1044 34.5,-1044"/>
<text text-anchor="start" x="42.5" y="-1073" font-family="Helvetica,sans-Serif" font-size="10.00">cFSPlib.python_api</text>
<text text-anchor="start" x="42.5" y="-1062" font-family="Helvetica,sans-Serif" font-size="10.00">_client.swagger_client.models.images</text>
<text text-anchor="middle" x="136" y="-1051" font-family="Helvetica,sans-Serif" font-size="10.00">_body.ImagesBody.__repr__</text>
</a>
</g>
</g>
<!-- Node1&#45;&gt;Node10 -->
<g id="edge9" class="edge">
<title>Node1&#45;&gt;Node10</title>
<path fill="none" stroke="midnightblue" d="M417.25,-830.01C395.47,-883.23 346.92,-982.92 272,-1034.5 261.62,-1041.65 249.82,-1047.12 237.61,-1051.32"/>
<polygon fill="midnightblue" stroke="midnightblue" points="420.53,-831.22 421,-820.63 414.03,-828.62 420.53,-831.22"/>
</g>
<!-- Node11 -->
<g id="node11" class="node">
<title>Node11</title>
<g id="a_node11"><a xlink:href="classcFSPlib_1_1python__api__client_1_1swagger__client_1_1models_1_1inline__response200_1_1InlineResponse200.html#ac6f8953ce29b06b760f67c873c66324c" target="_top" xlink:title=" ">
<polygon fill="none" stroke="black" points="24.5,-984 24.5,-1025 247.5,-1025 247.5,-984 24.5,-984"/>
<text text-anchor="start" x="32.5" y="-1013" font-family="Helvetica,sans-Serif" font-size="10.00">cFSPlib.python_api</text>
<text text-anchor="start" x="32.5" y="-1002" font-family="Helvetica,sans-Serif" font-size="10.00">_client.swagger_client.models.inline</text>
<text text-anchor="middle" x="136" y="-991" font-family="Helvetica,sans-Serif" font-size="10.00">_response200.InlineResponse200.__repr__</text>
</a>
</g>
</g>
<!-- Node1&#45;&gt;Node11 -->
<g id="edge10" class="edge">
<title>Node1&#45;&gt;Node11</title>
<path fill="none" stroke="midnightblue" d="M409.72,-829.24C383.13,-870.54 333.12,-938.38 272,-974.5 264.35,-979.02 256.1,-982.86 247.56,-986.12"/>
<polygon fill="midnightblue" stroke="midnightblue" points="412.79,-830.93 415.19,-820.61 406.88,-827.18 412.79,-830.93"/>
</g>
<!-- Node12 -->
<g id="node12" class="node">
<title>Node12</title>
<g id="a_node12"><a xlink:href="classcFSPlib_1_1python__api__client_1_1swagger__client_1_1models_1_1inline__response2001_1_1InlineResponse2001.html#a7b1813083bf541835b5c79d5f65312dc" target="_top" xlink:title=" ">
<polygon fill="none" stroke="black" points="18.5,-924 18.5,-965 253.5,-965 253.5,-924 18.5,-924"/>
<text text-anchor="start" x="26.5" y="-953" font-family="Helvetica,sans-Serif" font-size="10.00">cFSPlib.python_api</text>
<text text-anchor="start" x="26.5" y="-942" font-family="Helvetica,sans-Serif" font-size="10.00">_client.swagger_client.models.inline</text>
<text text-anchor="middle" x="136" y="-931" font-family="Helvetica,sans-Serif" font-size="10.00">_response2001.InlineResponse2001.__repr__</text>
</a>
</g>
</g>
<!-- Node1&#45;&gt;Node12 -->
<g id="edge11" class="edge">
<title>Node1&#45;&gt;Node12</title>
<path fill="none" stroke="midnightblue" d="M395.98,-827.7C365.66,-855.02 319.16,-892.68 272,-914.5 264.37,-918.03 256.31,-921.15 248.07,-923.92"/>
<polygon fill="midnightblue" stroke="midnightblue" points="398.68,-829.97 403.71,-820.65 393.96,-824.81 398.68,-829.97"/>
</g>
<!-- Node13 -->
<g id="node13" class="node">
<title>Node13</title>
<g id="a_node13"><a xlink:href="classcFSPlib_1_1python__api__client_1_1swagger__client_1_1models_1_1inline__response2002_1_1InlineResponse2002.html#adbbfec7280b1cf5175d44440b83419af" target="_top" xlink:title=" ">
<polygon fill="none" stroke="black" points="18.5,-864 18.5,-905 253.5,-905 253.5,-864 18.5,-864"/>
<text text-anchor="start" x="26.5" y="-893" font-family="Helvetica,sans-Serif" font-size="10.00">cFSPlib.python_api</text>
<text text-anchor="start" x="26.5" y="-882" font-family="Helvetica,sans-Serif" font-size="10.00">_client.swagger_client.models.inline</text>
<text text-anchor="middle" x="136" y="-871" font-family="Helvetica,sans-Serif" font-size="10.00">_response2002.InlineResponse2002.__repr__</text>
</a>
</g>
</g>
<!-- Node1&#45;&gt;Node13 -->
<g id="edge12" class="edge">
<title>Node1&#45;&gt;Node13</title>
<path fill="none" stroke="midnightblue" d="M358.64,-824.2C331.74,-834.65 300.75,-845.91 272,-854.5 260.73,-857.87 248.82,-861.04 236.95,-863.98"/>
<polygon fill="midnightblue" stroke="midnightblue" points="359.93,-827.45 367.97,-820.54 357.38,-820.93 359.93,-827.45"/>
</g>
<!-- Node14 -->
<g id="node14" class="node">
<title>Node14</title>
<g id="a_node14"><a xlink:href="classcFSPlib_1_1python__api__client_1_1swagger__client_1_1models_1_1inline__response2003_1_1InlineResponse2003.html#a8ca2bbd5a75f2000001047ad645e1b7f" target="_top" xlink:title=" ">
<polygon fill="none" stroke="black" points="18.5,-804 18.5,-845 253.5,-845 253.5,-804 18.5,-804"/>
<text text-anchor="start" x="26.5" y="-833" font-family="Helvetica,sans-Serif" font-size="10.00">cFSPlib.python_api</text>
<text text-anchor="start" x="26.5" y="-822" font-family="Helvetica,sans-Serif" font-size="10.00">_client.swagger_client.models.inline</text>
<text text-anchor="middle" x="136" y="-811" font-family="Helvetica,sans-Serif" font-size="10.00">_response2003.InlineResponse2003.__repr__</text>
</a>
</g>
</g>
<!-- Node1&#45;&gt;Node14 -->
<g id="edge13" class="edge">
<title>Node1&#45;&gt;Node14</title>
<path fill="none" stroke="midnightblue" d="M297.61,-808.08C282.95,-809.58 268.09,-811.1 253.64,-812.58"/>
<polygon fill="midnightblue" stroke="midnightblue" points="298.14,-811.55 307.73,-807.05 297.43,-804.58 298.14,-811.55"/>
</g>
<!-- Node15 -->
<g id="node15" class="node">
<title>Node15</title>
<g id="a_node15"><a xlink:href="classcFSPlib_1_1python__api__client_1_1swagger__client_1_1models_1_1inline__response2004_1_1InlineResponse2004.html#a438928711d368ae2dfb1f0dae503efd0" target="_top" xlink:title=" ">
<polygon fill="none" stroke="black" points="18.5,-744 18.5,-785 253.5,-785 253.5,-744 18.5,-744"/>
<text text-anchor="start" x="26.5" y="-773" font-family="Helvetica,sans-Serif" font-size="10.00">cFSPlib.python_api</text>
<text text-anchor="start" x="26.5" y="-762" font-family="Helvetica,sans-Serif" font-size="10.00">_client.swagger_client.models.inline</text>
<text text-anchor="middle" x="136" y="-751" font-family="Helvetica,sans-Serif" font-size="10.00">_response2004.InlineResponse2004.__repr__</text>
</a>
</g>
</g>
<!-- Node1&#45;&gt;Node15 -->
<g id="edge14" class="edge">
<title>Node1&#45;&gt;Node15</title>
<path fill="none" stroke="midnightblue" d="M297.61,-780.92C282.95,-779.42 268.09,-777.9 253.64,-776.42"/>
<polygon fill="midnightblue" stroke="midnightblue" points="297.43,-784.42 307.73,-781.95 298.14,-777.45 297.43,-784.42"/>
</g>
<!-- Node16 -->
<g id="node16" class="node">
<title>Node16</title>
<g id="a_node16"><a xlink:href="classcFSPlib_1_1python__api__client_1_1swagger__client_1_1models_1_1inline__response2005_1_1InlineResponse2005.html#a68342538baeb453cad9a2f378281c710" target="_top" xlink:title=" ">
<polygon fill="none" stroke="black" points="18.5,-684 18.5,-725 253.5,-725 253.5,-684 18.5,-684"/>
<text text-anchor="start" x="26.5" y="-713" font-family="Helvetica,sans-Serif" font-size="10.00">cFSPlib.python_api</text>
<text text-anchor="start" x="26.5" y="-702" font-family="Helvetica,sans-Serif" font-size="10.00">_client.swagger_client.models.inline</text>
<text text-anchor="middle" x="136" y="-691" font-family="Helvetica,sans-Serif" font-size="10.00">_response2005.InlineResponse2005.__repr__</text>
</a>
</g>
</g>
<!-- Node1&#45;&gt;Node16 -->
<g id="edge15" class="edge">
<title>Node1&#45;&gt;Node16</title>
<path fill="none" stroke="midnightblue" d="M358.64,-764.8C331.74,-754.35 300.75,-743.09 272,-734.5 260.73,-731.13 248.82,-727.96 236.95,-725.02"/>
<polygon fill="midnightblue" stroke="midnightblue" points="357.38,-768.07 367.97,-768.46 359.93,-761.55 357.38,-768.07"/>
</g>
<!-- Node17 -->
<g id="node17" class="node">
<title>Node17</title>
<g id="a_node17"><a xlink:href="classcFSPlib_1_1python__api__client_1_1swagger__client_1_1models_1_1inline__response2006_1_1InlineResponse2006.html#a39ebc73abe63b92a0b0c794877a99da4" target="_top" xlink:title=" ">
<polygon fill="none" stroke="black" points="18.5,-624 18.5,-665 253.5,-665 253.5,-624 18.5,-624"/>
<text text-anchor="start" x="26.5" y="-653" font-family="Helvetica,sans-Serif" font-size="10.00">cFSPlib.python_api</text>
<text text-anchor="start" x="26.5" y="-642" font-family="Helvetica,sans-Serif" font-size="10.00">_client.swagger_client.models.inline</text>
<text text-anchor="middle" x="136" y="-631" font-family="Helvetica,sans-Serif" font-size="10.00">_response2006.InlineResponse2006.__repr__</text>
</a>
</g>
</g>
<!-- Node1&#45;&gt;Node17 -->
<g id="edge16" class="edge">
<title>Node1&#45;&gt;Node17</title>
<path fill="none" stroke="midnightblue" d="M395.98,-761.3C365.66,-733.98 319.16,-696.32 272,-674.5 264.37,-670.97 256.31,-667.85 248.07,-665.08"/>
<polygon fill="midnightblue" stroke="midnightblue" points="393.96,-764.19 403.71,-768.35 398.68,-759.03 393.96,-764.19"/>
</g>
<!-- Node18 -->
<g id="node18" class="node">
<title>Node18</title>
<g id="a_node18"><a xlink:href="classcFSPlib_1_1python__api__client_1_1swagger__client_1_1models_1_1instance_1_1Instance.html#a3018c78d992e6757c90626981cb0b194" target="_top" xlink:title=" ">
<polygon fill="none" stroke="black" points="30,-564 30,-605 242,-605 242,-564 30,-564"/>
<text text-anchor="start" x="38" y="-593" font-family="Helvetica,sans-Serif" font-size="10.00">cFSPlib.python_api</text>
<text text-anchor="start" x="38" y="-582" font-family="Helvetica,sans-Serif" font-size="10.00">_client.swagger_client.models.instance.</text>
<text text-anchor="middle" x="136" y="-571" font-family="Helvetica,sans-Serif" font-size="10.00">Instance.__repr__</text>
</a>
</g>
</g>
<!-- Node1&#45;&gt;Node18 -->
<g id="edge17" class="edge">
<title>Node1&#45;&gt;Node18</title>
<path fill="none" stroke="midnightblue" d="M409.72,-759.76C383.13,-718.46 333.12,-650.62 272,-614.5 262.8,-609.06 252.72,-604.61 242.35,-600.97"/>
<polygon fill="midnightblue" stroke="midnightblue" points="406.88,-761.82 415.19,-768.39 412.79,-758.07 406.88,-761.82"/>
</g>
<!-- Node19 -->
<g id="node19" class="node">
<title>Node19</title>
<g id="a_node19"><a xlink:href="classcFSPlib_1_1python__api__client_1_1swagger__client_1_1models_1_1instance__id__api__gateway__33456c8700113c53c3cfaa915ef28716.html#aa545f675e04b431f8123af8442cb69fd" target="_top" xlink:title=" ">
<polygon fill="none" stroke="black" points="16.5,-492.5 16.5,-544.5 255.5,-544.5 255.5,-492.5 16.5,-492.5"/>
<text text-anchor="start" x="24.5" y="-532.5" font-family="Helvetica,sans-Serif" font-size="10.00">cFSPlib.python_api</text>
<text text-anchor="start" x="24.5" y="-521.5" font-family="Helvetica,sans-Serif" font-size="10.00">_client.swagger_client.models.instance</text>
<text text-anchor="start" x="24.5" y="-510.5" font-family="Helvetica,sans-Serif" font-size="10.00">_id_api_gateway_body.InstanceIdApiGateway</text>
<text text-anchor="middle" x="136" y="-499.5" font-family="Helvetica,sans-Serif" font-size="10.00">Body.__repr__</text>
</a>
</g>
</g>
<!-- Node1&#45;&gt;Node19 -->
<g id="edge18" class="edge">
<title>Node1&#45;&gt;Node19</title>
<path fill="none" stroke="midnightblue" d="M416.8,-758.97C394.59,-706.16 345.63,-607.5 272,-554.5 266.88,-550.82 261.41,-547.51 255.71,-544.54"/>
<polygon fill="midnightblue" stroke="midnightblue" points="413.59,-760.37 420.64,-768.28 420.06,-757.7 413.59,-760.37"/>
</g>
<!-- Node20 -->
<g id="node20" class="node">
<title>Node20</title>
<g id="a_node20"><a xlink:href="classcFSPlib_1_1python__api__client_1_1swagger__client_1_1models_1_1instance__id__runlevel__body_1_1InstanceIdRunlevelBody.html#a9d0c64ef27367c164b9adb537680d771" target="_top" xlink:title=" ">
<polygon fill="none" stroke="black" points="3,-432 3,-473 269,-473 269,-432 3,-432"/>
<text text-anchor="start" x="11" y="-461" font-family="Helvetica,sans-Serif" font-size="10.00">cFSPlib.python_api</text>
<text text-anchor="start" x="11" y="-450" font-family="Helvetica,sans-Serif" font-size="10.00">_client.swagger_client.models.instance</text>
<text text-anchor="middle" x="136" y="-439" font-family="Helvetica,sans-Serif" font-size="10.00">_id_runlevel_body.InstanceIdRunlevelBody.__repr__</text>
</a>
</g>
</g>
<!-- Node1&#45;&gt;Node20 -->
<g id="edge19" class="edge">
<title>Node1&#45;&gt;Node20</title>
<path fill="none" stroke="midnightblue" d="M422.75,-758.58C406.69,-693.16 363.38,-554.8 272,-483.5 266.98,-479.58 261.55,-476.14 255.85,-473.12"/>
<polygon fill="midnightblue" stroke="midnightblue" points="419.38,-759.51 425.1,-768.43 426.19,-757.89 419.38,-759.51"/>
</g>
<!-- Node21 -->
<g id="node21" class="node">
<title>Node21</title>
<g id="a_node21"><a xlink:href="classcFSPlib_1_1python__api__client_1_1swagger__client_1_1models_1_1instances__body_1_1InstancesBody.html#a6b441c86aa1aa6f248f599b0a3a286b0" target="_top" xlink:title=" ">
<polygon fill="none" stroke="black" points="29,-372 29,-413 243,-413 243,-372 29,-372"/>
<text text-anchor="start" x="37" y="-401" font-family="Helvetica,sans-Serif" font-size="10.00">cFSPlib.python_api</text>
<text text-anchor="start" x="37" y="-390" font-family="Helvetica,sans-Serif" font-size="10.00">_client.swagger_client.models.instances</text>
<text text-anchor="middle" x="136" y="-379" font-family="Helvetica,sans-Serif" font-size="10.00">_body.InstancesBody.__repr__</text>
</a>
</g>
</g>
<!-- Node1&#45;&gt;Node21 -->
<g id="edge20" class="edge">
<title>Node1&#45;&gt;Node21</title>
<path fill="none" stroke="midnightblue" d="M426.03,-758.12C414.79,-683.09 378.23,-510.77 272,-422.5 263.41,-415.36 253.49,-409.83 243,-405.55"/>
<polygon fill="midnightblue" stroke="midnightblue" points="422.57,-758.65 427.45,-768.05 429.5,-757.65 422.57,-758.65"/>
</g>
<!-- Node22 -->
<g id="node22" class="node">
<title>Node22</title>
<g id="a_node22"><a xlink:href="classcFSPlib_1_1python__api__client_1_1swagger__client_1_1models_1_1instances__instance__id__body_1_1InstancesInstanceIdBody.html#ad0be600fabc59f43e5649cbbd09ea8fa" target="_top" xlink:title=" ">
<polygon fill="none" stroke="black" points="0,-312 0,-353 272,-353 272,-312 0,-312"/>
<text text-anchor="start" x="8" y="-341" font-family="Helvetica,sans-Serif" font-size="10.00">cFSPlib.python_api</text>
<text text-anchor="start" x="8" y="-330" font-family="Helvetica,sans-Serif" font-size="10.00">_client.swagger_client.models.instances</text>
<text text-anchor="middle" x="136" y="-319" font-family="Helvetica,sans-Serif" font-size="10.00">_instance_id_body.InstancesInstanceIdBody.__repr__</text>
</a>
</g>
</g>
<!-- Node1&#45;&gt;Node22 -->
<g id="edge21" class="edge">
<title>Node1&#45;&gt;Node22</title>
<path fill="none" stroke="midnightblue" d="M428.47,-758.37C421.74,-675.05 393.07,-468.45 272,-362.5 268.03,-359.02 263.74,-355.92 259.22,-353.15"/>
<polygon fill="midnightblue" stroke="midnightblue" points="424.98,-758.66 429.22,-768.37 431.96,-758.14 424.98,-758.66"/>
</g>
<!-- Node23 -->
<g id="node23" class="node">
<title>Node23</title>
<g id="a_node23"><a xlink:href="classcFSPlib_1_1python__api__client_1_1swagger__client_1_1models_1_1node__map_1_1NodeMap.html#af7c968e6ab103154dd247b9dbca76974" target="_top" xlink:title=" ">
<polygon fill="none" stroke="black" points="40.5,-252 40.5,-293 231.5,-293 231.5,-252 40.5,-252"/>
<text text-anchor="start" x="48.5" y="-281" font-family="Helvetica,sans-Serif" font-size="10.00">cFSPlib.python_api</text>
<text text-anchor="start" x="48.5" y="-270" font-family="Helvetica,sans-Serif" font-size="10.00">_client.swagger_client.models.node</text>
<text text-anchor="middle" x="136" y="-259" font-family="Helvetica,sans-Serif" font-size="10.00">_map.NodeMap.__repr__</text>
</a>
</g>
</g>
<!-- Node1&#45;&gt;Node23 -->
<g id="edge22" class="edge">
<title>Node1&#45;&gt;Node23</title>
<path fill="none" stroke="midnightblue" d="M430.32,-758.3C427.8,-667.1 407.91,-426.33 272,-302.5 260.64,-292.15 246.52,-285.1 231.74,-280.35"/>
<polygon fill="midnightblue" stroke="midnightblue" points="426.83,-758.5 430.55,-768.42 433.82,-758.34 426.83,-758.5"/>
</g>
<!-- Node24 -->
<g id="node24" class="node">
<title>Node24</title>
<g id="a_node24"><a xlink:href="classcFSPlib_1_1python__api__client_1_1swagger__client_1_1models_1_1node__map__inner_1_1NodeMapInner.html#a587604c99266c82720ed89c2c61ffe2a" target="_top" xlink:title=" ">
<polygon fill="none" stroke="black" points="40.5,-192 40.5,-233 231.5,-233 231.5,-192 40.5,-192"/>
<text text-anchor="start" x="48.5" y="-221" font-family="Helvetica,sans-Serif" font-size="10.00">cFSPlib.python_api</text>
<text text-anchor="start" x="48.5" y="-210" font-family="Helvetica,sans-Serif" font-size="10.00">_client.swagger_client.models.node</text>
<text text-anchor="middle" x="136" y="-199" font-family="Helvetica,sans-Serif" font-size="10.00">_map_inner.NodeMapInner.__repr__</text>
</a>
</g>
</g>
<!-- Node1&#45;&gt;Node24 -->
<g id="edge23" class="edge">
<title>Node1&#45;&gt;Node24</title>
<path fill="none" stroke="midnightblue" d="M424.98,-758.23C407.38,-647.2 349.12,-315.06 272,-242.5 260.72,-231.89 246.56,-224.72 231.67,-219.93"/>
<polygon fill="midnightblue" stroke="midnightblue" points="421.55,-758.93 426.56,-768.27 428.47,-757.85 421.55,-758.93"/>
</g>
<!-- Node25 -->
<g id="node25" class="node">
<title>Node25</title>
<g id="a_node25"><a xlink:href="classcFSPlib_1_1python__api__client_1_1swagger__client_1_1models_1_1quota_1_1Quota.html#ad43824f75dab80cd5638590e1a92dd78" target="_top" xlink:title=" ">
<polygon fill="none" stroke="black" points="37,-132 37,-173 235,-173 235,-132 37,-132"/>
<text text-anchor="start" x="45" y="-161" font-family="Helvetica,sans-Serif" font-size="10.00">cFSPlib.python_api</text>
<text text-anchor="start" x="45" y="-150" font-family="Helvetica,sans-Serif" font-size="10.00">_client.swagger_client.models.quota.</text>
<text text-anchor="middle" x="136" y="-139" font-family="Helvetica,sans-Serif" font-size="10.00">Quota.__repr__</text>
</a>
</g>
</g>
<!-- Node1&#45;&gt;Node25 -->
<g id="edge24" class="edge">
<title>Node1&#45;&gt;Node25</title>
<path fill="none" stroke="midnightblue" d="M426.09,-758.36C410.86,-639.61 356.77,-264.38 272,-182.5 261.64,-172.49 248.72,-165.53 235.01,-160.73"/>
<polygon fill="midnightblue" stroke="midnightblue" points="422.63,-758.91 427.36,-768.39 429.57,-758.03 422.63,-758.91"/>
</g>
<!-- Node26 -->
<g id="node26" class="node">
<title>Node26</title>
<g id="a_node26"><a xlink:href="classcFSPlib_1_1python__api__client_1_1swagger__client_1_1models_1_1resource_1_1Resource.html#ae6c97465f736f8b4d119f4e7986429d9" target="_top" xlink:title=" ">
<polygon fill="none" stroke="black" points="30,-72 30,-113 242,-113 242,-72 30,-72"/>
<text text-anchor="start" x="38" y="-101" font-family="Helvetica,sans-Serif" font-size="10.00">cFSPlib.python_api</text>
<text text-anchor="start" x="38" y="-90" font-family="Helvetica,sans-Serif" font-size="10.00">_client.swagger_client.models.resource.</text>
<text text-anchor="middle" x="136" y="-79" font-family="Helvetica,sans-Serif" font-size="10.00">Resource.__repr__</text>
</a>
</g>
</g>
<!-- Node1&#45;&gt;Node26 -->
<g id="edge25" class="edge">
<title>Node1&#45;&gt;Node26</title>
<path fill="none" stroke="midnightblue" d="M426.97,-758.23C413.93,-631.87 364.41,-213.72 272,-122.5 263.54,-114.15 253.31,-107.91 242.3,-103.27"/>
<polygon fill="midnightblue" stroke="midnightblue" points="423.49,-758.59 427.98,-768.18 430.45,-757.88 423.49,-758.59"/>
</g>
<!-- Node27 -->
<g id="node27" class="node">
<title>Node27</title>
<g id="a_node27"><a xlink:href="classcFSPlib_1_1python__api__client_1_1swagger__client_1_1models_1_1test__instance__instance__idb21fef29c350bd01bc51bf6a97dd8668.html#af4ecdf849e2718aec0c18c3f5c2aae42" target="_top" xlink:title=" ">
<polygon fill="none" stroke="black" points="28.5,-0.5 28.5,-52.5 243.5,-52.5 243.5,-0.5 28.5,-0.5"/>
<text text-anchor="start" x="36.5" y="-40.5" font-family="Helvetica,sans-Serif" font-size="10.00">cFSPlib.python_api</text>
<text text-anchor="start" x="36.5" y="-29.5" font-family="Helvetica,sans-Serif" font-size="10.00">_client.swagger_client.models.test</text>
<text text-anchor="start" x="36.5" y="-18.5" font-family="Helvetica,sans-Serif" font-size="10.00">_instance_instance_id_body.TestInstance</text>
<text text-anchor="middle" x="136" y="-7.5" font-family="Helvetica,sans-Serif" font-size="10.00">InstanceIdBody.__repr__</text>
</a>
</g>
</g>
<!-- Node1&#45;&gt;Node27 -->
<g id="edge26" class="edge">
<title>Node1&#45;&gt;Node27</title>
<path fill="none" stroke="midnightblue" d="M427.58,-758.3C416.12,-625.18 369.97,-165.22 272,-62.5 263.96,-54.07 254.2,-47.54 243.63,-42.49"/>
<polygon fill="midnightblue" stroke="midnightblue" points="424.1,-758.71 428.43,-768.38 431.08,-758.12 424.1,-758.71"/>
</g>
</g>
</svg>
        <g id="navigator" transform="translate(0 0)" fill="#404254">
                <rect fill="#f2f5e9" fill-opacity="0.5" stroke="#606060" stroke-width=".5" x="0" y="0" width="60" height="60"/>
                <use id="zoomplus" xlink:href="#zoomPlus" x="17" y="9" onmousedown="handleZoom(evt,'in')"/>
                <use id="zoomminus" xlink:href="#zoomMin" x="42" y="9" onmousedown="handleZoom(evt,'out')"/>
                <use id="reset" xlink:href="#resetDef" x="30" y="36" onmousedown="handleReset()"/>
                <g id="arrowUp" xlink:href="#dirArrow" transform="translate(30 24)" onmousedown="handlePan(0,-1)">
                  <use xlink:href="#rim" fill="#404040">
                        <set attributeName="fill" to="#808080" begin="arrowUp.mouseover" end="arrowUp.mouseout"/>
                  </use>
                  <path fill="none" stroke="white" stroke-width="1.5" d="M0,-3.0v7 M-2.5,-0.5L0,-3.0L2.5,-0.5"/>
                </g>
                <g id="arrowRight" xlink:href="#dirArrow" transform="rotate(90) translate(36 -43)" onmousedown="handlePan(1,0)">
                  <use xlink:href="#rim" fill="#404040">
                        <set attributeName="fill" to="#808080" begin="arrowRight.mouseover" end="arrowRight.mouseout"/>
                  </use>
                  <path fill="none" stroke="white" stroke-width="1.5" d="M0,-3.0v7 M-2.5,-0.5L0,-3.0L2.5,-0.5"/>
                </g>
                <g id="arrowDown" xlink:href="#dirArrow" transform="rotate(180) translate(-30 -48)" onmousedown="handlePan(0,1)">
                  <use xlink:href="#rim" fill="#404040">
                        <set attributeName="fill" to="#808080" begin="arrowDown.mouseover" end="arrowDown.mouseout"/>
                  </use>
                  <path fill="none" stroke="white" stroke-width="1.5" d="M0,-3.0v7 M-2.5,-0.5L0,-3.0L2.5,-0.5"/>
                </g>
                <g id="arrowLeft" xlink:href="#dirArrow" transform="rotate(270) translate(-36 17)" onmousedown="handlePan(-1,0)">
                  <use xlink:href="#rim" fill="#404040">
                        <set attributeName="fill" to="#808080" begin="arrowLeft.mouseover" end="arrowLeft.mouseout"/>
                  </use>
                  <path fill="none" stroke="white" stroke-width="1.5" d="M0,-3.0v7 M-2.5,-0.5L0,-3.0L2.5,-0.5"/>
                </g>
        </g>
        <svg viewBox="0 0 15 15" width="100%" height="30px" preserveAspectRatio="xMaxYMin meet">
         <g id="arrow_out" transform="scale(0.3 0.3)">
          <a xlink:href="classcFSPlib_1_1python__api__client_1_1swagger__client_1_1models_1_1administration__mantle__logi168f0a51d80725a08a224c580ca4eab6_a32550b4322fe6b674a8dee4c93b2eb4e_icgraph_org.svg" target="_base">
           <rect id="button" ry="5" rx="5" y="6" x="6" height="38" width="38"
                fill="#f2f5e9" fill-opacity="0.5" stroke="#606060" stroke-width="1.0"/>
           <path id="arrow"
             d="M 11.500037,31.436501 C 11.940474,20.09759 22.043105,11.32322 32.158766,21.979434 L 37.068811,17.246167 C 37.068811,17.246167 37.088388,32 37.088388,32 L 22.160133,31.978069 C 22.160133,31.978069 26.997745,27.140456 26.997745,27.140456 C 18.528582,18.264221 13.291696,25.230495 11.500037,31.436501 z"
             style="fill:#404040;"/>
          </a>
         </g>
        </svg>
</svg>
