<?xml version="1.0" encoding="UTF-8" standalone="no"?>
<!DOCTYPE svg PUBLIC "-//W3C//DTD SVG 1.1//EN"
 "http://www.w3.org/Graphics/SVG/1.1/DTD/svg11.dtd">
<!-- Generated by graphviz version 2.43.0 (0)
 -->
<!-- Title: AxisIp4::getIp4TtL Pages: 1 -->
<!--zoomable 117 -->
<svg id="main" version="1.1" xmlns="http://www.w3.org/2000/svg" xmlns:xlink="http://www.w3.org/1999/xlink" xml:space="preserve" onload="init(evt)">
<style type="text/css"><![CDATA[
.edge:hover path { stroke: red; }
.edge:hover polygon { stroke: red; fill: red; }
]]></style>
<script type="text/javascript"><![CDATA[
var edges = document.getElementsByTagName('g');
if (edges && edges.length) {
  for (var i=0;i<edges.length;i++) {
    if (edges[i].id.substr(0,4)=='edge') {
      edges[i].setAttribute('class','edge');
    }
  }
}
]]></script>
        <defs>
                <circle id="rim" cx="0" cy="0" r="7"/>
                <circle id="rim2" cx="0" cy="0" r="3.5"/>
                <g id="zoomPlus">
                        <use xlink:href="#rim" fill="#404040">
                                <set attributeName="fill" to="#808080" begin="zoomplus.mouseover" end="zoomplus.mouseout"/>
                        </use>
                        <path d="M-4,0h8M0,-4v8" fill="none" stroke="white" stroke-width="1.5" pointer-events="none"/>
                </g>
                <g id="zoomMin">
                        <use xlink:href="#rim" fill="#404040">
                                <set attributeName="fill" to="#808080" begin="zoomminus.mouseover" end="zoomminus.mouseout"/>
                        </use>
                        <path d="M-4,0h8" fill="none" stroke="white" stroke-width="1.5" pointer-events="none"/>
                </g>
                <g id="dirArrow">
                        <path fill="none" stroke="white" stroke-width="1.5" d="M0,-3.0v7 M-2.5,-0.5L0,-3.0L2.5,-0.5"/>
                </g>
               <g id="resetDef">
                       <use xlink:href="#rim2" fill="#404040">
                               <set attributeName="fill" to="#808080" begin="reset.mouseover" end="reset.mouseout"/>
                       </use>
               </g>
        </defs>

<script type="text/javascript">
var viewWidth = 664;
var viewHeight = 117;
var sectionId = 'dynsection-12';
</script>
<script xlink:href="svgpan.js"/>
<svg id="graph" class="graph">
<g id="viewport">
<title>AxisIp4::getIp4TtL</title>
<!-- Node1 -->
<g id="node1" class="node">
<title>Node1</title>
<g id="a_node1"><a xlink:title=" ">
<polygon fill="#bfbfbf" stroke="black" points="552,-32.14 552,-51.14 656,-51.14 656,-32.14 552,-32.14"/>
<text text-anchor="middle" x="604" y="-39.14" font-family="Helvetica,sans-Serif" font-size="10.00">AxisIp4::getIp4TtL</text>
</a>
</g>
</g>
<!-- Node2 -->
<g id="node2" class="node">
<title>Node2</title>
<g id="a_node2"><a xlink:href="group__NTS__ICMP.html#ga9966f6389006fa1f1ef4b06b458b081a" target="_top" xlink:title=" ">
<polygon fill="none" stroke="black" points="379,-51.14 379,-70.14 516,-70.14 516,-51.14 379,-51.14"/>
<text text-anchor="middle" x="447.5" y="-58.14" font-family="Helvetica,sans-Serif" font-size="10.00">pIcmpChecksumChecker</text>
</a>
</g>
</g>
<!-- Node1&#45;&gt;Node2 -->
<g id="edge1" class="edge">
<title>Node1&#45;&gt;Node2</title>
<path fill="none" stroke="midnightblue" d="M541.88,-49.15C533.47,-50.19 524.8,-51.25 516.27,-52.3"/>
<polygon fill="midnightblue" stroke="midnightblue" points="542.48,-52.61 551.98,-47.91 541.63,-45.66 542.48,-52.61"/>
</g>
<!-- Node7 -->
<g id="node7" class="node">
<title>Node7</title>
<g id="a_node7"><a xlink:href="group__NTS__IPRX.html#gabdae837ccc3696605659448bc4ee394c" target="_top" xlink:title=" ">
<polygon fill="none" stroke="black" points="400,-13.14 400,-32.14 495,-32.14 495,-13.14 400,-13.14"/>
<text text-anchor="middle" x="447.5" y="-20.14" font-family="Helvetica,sans-Serif" font-size="10.00">pIpPacketRouter</text>
</a>
</g>
</g>
<!-- Node1&#45;&gt;Node7 -->
<g id="edge7" class="edge">
<title>Node1&#45;&gt;Node7</title>
<path fill="none" stroke="midnightblue" d="M541.89,-34.12C526.29,-32.2 509.77,-30.17 495.03,-28.36"/>
<polygon fill="midnightblue" stroke="midnightblue" points="541.63,-37.62 551.98,-35.36 542.48,-30.67 541.63,-37.62"/>
</g>
<!-- Node3 -->
<g id="node3" class="node">
<title>Node3</title>
<g id="a_node3"><a xlink:href="group__NTS__ICMP.html#gaa1fbe125ee59fc3f93c7cf0b3dc045a5" target="_top" xlink:title="Main process of the Internet Control Message Protocol (ICMP) Server.">
<polygon fill="none" stroke="black" points="302,-51.14 302,-70.14 343,-70.14 343,-51.14 302,-51.14"/>
<text text-anchor="middle" x="322.5" y="-58.14" font-family="Helvetica,sans-Serif" font-size="10.00">icmp</text>
</a>
</g>
</g>
<!-- Node2&#45;&gt;Node3 -->
<g id="edge2" class="edge">
<title>Node2&#45;&gt;Node3</title>
<path fill="none" stroke="midnightblue" d="M368.6,-60.64C359.27,-60.64 350.49,-60.64 343.2,-60.64"/>
<polygon fill="midnightblue" stroke="midnightblue" points="368.88,-64.14 378.88,-60.64 368.88,-57.14 368.88,-64.14"/>
</g>
<!-- Node4 -->
<g id="node4" class="node">
<title>Node4</title>
<g id="a_node4"><a xlink:href="group__NTS__ICMP.html#ga3c54cc21d2386d572cf73472661b22d4" target="_top" xlink:title="Top of the Internet Control Message Protocol (ICMP) Server.">
<polygon fill="none" stroke="black" points="204,-51.14 204,-70.14 266,-70.14 266,-51.14 204,-51.14"/>
<text text-anchor="middle" x="235" y="-58.14" font-family="Helvetica,sans-Serif" font-size="10.00">icmp_top</text>
</a>
</g>
</g>
<!-- Node3&#45;&gt;Node4 -->
<g id="edge3" class="edge">
<title>Node3&#45;&gt;Node4</title>
<path fill="none" stroke="midnightblue" d="M291.4,-60.64C283.2,-60.64 274.31,-60.64 266.11,-60.64"/>
<polygon fill="midnightblue" stroke="midnightblue" points="291.67,-64.14 301.67,-60.64 291.67,-57.14 291.67,-64.14"/>
</g>
<!-- Node5 -->
<g id="node5" class="node">
<title>Node5</title>
<g id="a_node5"><a xlink:href="group__NTS__ICMP__TEST.html#ga32bc9c115ea573de78b3d47cc1535acb" target="_top" xlink:title="A wrapper for Toplevel of Internet Control Message Protocol (ICMP).">
<polygon fill="none" stroke="black" points="77,-89.14 77,-108.14 168,-108.14 168,-89.14 77,-89.14"/>
<text text-anchor="middle" x="122.5" y="-96.14" font-family="Helvetica,sans-Serif" font-size="10.00">icmp_top_wrap</text>
</a>
</g>
</g>
<!-- Node4&#45;&gt;Node5 -->
<g id="edge4" class="edge">
<title>Node4&#45;&gt;Node5</title>
<path fill="none" stroke="midnightblue" d="M196.28,-73.61C181.56,-78.67 164.98,-84.37 151.37,-89.05"/>
<polygon fill="midnightblue" stroke="midnightblue" points="197.8,-76.79 206.12,-70.23 195.52,-70.17 197.8,-76.79"/>
</g>
<!-- Node6 -->
<g id="node6" class="node">
<title>Node6</title>
<g id="a_node6"><a xlink:href="group__NTS__ICMP__TEST.html#ga0ddf1224851353fc92bfbff6f499fa97" target="_top" xlink:title="Main function.">
<polygon fill="none" stroke="black" points="0,-60.14 0,-79.14 41,-79.14 41,-60.14 0,-60.14"/>
<text text-anchor="middle" x="20.5" y="-67.14" font-family="Helvetica,sans-Serif" font-size="10.00">main</text>
</a>
</g>
</g>
<!-- Node4&#45;&gt;Node6 -->
<g id="edge6" class="edge">
<title>Node4&#45;&gt;Node6</title>
<path fill="none" stroke="midnightblue" d="M193.41,-62.36C147.78,-64.29 75.59,-67.35 41.1,-68.81"/>
<polygon fill="midnightblue" stroke="midnightblue" points="193.71,-65.85 203.55,-61.93 193.41,-58.85 193.71,-65.85"/>
</g>
<!-- Node5&#45;&gt;Node6 -->
<g id="edge5" class="edge">
<title>Node5&#45;&gt;Node6</title>
<path fill="none" stroke="midnightblue" d="M78.66,-86.21C65.57,-82.42 51.8,-78.42 41.06,-75.31"/>
<polygon fill="midnightblue" stroke="midnightblue" points="77.9,-89.64 88.48,-89.06 79.85,-82.91 77.9,-89.64"/>
</g>
<!-- Node8 -->
<g id="node8" class="node">
<title>Node8</title>
<g id="a_node8"><a xlink:href="group__NTS__IPRX.html#ga7e8c72b9e6e0c5d3dc9c3db3d7d2b223" target="_top" xlink:title="Main process of the IP Receive handler (IPRX).">
<polygon fill="none" stroke="black" points="305,-13.14 305,-32.14 340,-32.14 340,-13.14 305,-13.14"/>
<text text-anchor="middle" x="322.5" y="-20.14" font-family="Helvetica,sans-Serif" font-size="10.00">iprx</text>
</a>
</g>
</g>
<!-- Node7&#45;&gt;Node8 -->
<g id="edge8" class="edge">
<title>Node7&#45;&gt;Node8</title>
<path fill="none" stroke="midnightblue" d="M389.78,-22.64C371.75,-22.64 353.16,-22.64 340.28,-22.64"/>
<polygon fill="midnightblue" stroke="midnightblue" points="390,-26.14 400,-22.64 390,-19.14 390,-26.14"/>
</g>
<!-- Node9 -->
<g id="node9" class="node">
<title>Node9</title>
<g id="a_node9"><a xlink:href="group__NTS__IPRX.html#ga9551c84175612702350bad828283ff42" target="_top" xlink:title="Top of IP Receive handler (IPRX)">
<polygon fill="none" stroke="black" points="207,-13.14 207,-32.14 263,-32.14 263,-13.14 207,-13.14"/>
<text text-anchor="middle" x="235" y="-20.14" font-family="Helvetica,sans-Serif" font-size="10.00">iprx_top</text>
</a>
</g>
</g>
<!-- Node8&#45;&gt;Node9 -->
<g id="edge9" class="edge">
<title>Node8&#45;&gt;Node9</title>
<path fill="none" stroke="midnightblue" d="M294.46,-22.64C284.52,-22.64 273.25,-22.64 263.29,-22.64"/>
<polygon fill="midnightblue" stroke="midnightblue" points="294.61,-26.14 304.61,-22.64 294.61,-19.14 294.61,-26.14"/>
</g>
<!-- Node10 -->
<g id="node10" class="node">
<title>Node10</title>
<g id="a_node10"><a xlink:href="group__NTS__IPRX__TEST.html#ga0a0f6aca8f6ee02e5d06ac2f60bdd06b" target="_top" xlink:title="A wrapper for the Toplevel of the IP Receive handler (IPRX).">
<polygon fill="none" stroke="black" points="79.5,-13.14 79.5,-32.14 165.5,-32.14 165.5,-13.14 79.5,-13.14"/>
<text text-anchor="middle" x="122.5" y="-20.14" font-family="Helvetica,sans-Serif" font-size="10.00">iprx_top_wrap</text>
</a>
</g>
</g>
<!-- Node9&#45;&gt;Node10 -->
<g id="edge10" class="edge">
<title>Node9&#45;&gt;Node10</title>
<path fill="none" stroke="midnightblue" d="M196.93,-22.64C186.92,-22.64 176.02,-22.64 165.75,-22.64"/>
<polygon fill="midnightblue" stroke="midnightblue" points="196.97,-26.14 206.97,-22.64 196.97,-19.14 196.97,-26.14"/>
</g>
<!-- Node11 -->
<g id="node11" class="node">
<title>Node11</title>
<g id="a_node11"><a xlink:href="group__NTS__IPRX__TEST.html#ga0ddf1224851353fc92bfbff6f499fa97" target="_top" xlink:title="Main function.">
<polygon fill="none" stroke="black" points="0,-3.14 0,-22.14 41,-22.14 41,-3.14 0,-3.14"/>
<text text-anchor="middle" x="20.5" y="-10.14" font-family="Helvetica,sans-Serif" font-size="10.00">main</text>
</a>
</g>
</g>
<!-- Node9&#45;&gt;Node11 -->
<g id="edge12" class="edge">
<title>Node9&#45;&gt;Node11</title>
<path fill="none" stroke="midnightblue" d="M197.78,-10.24C188.21,-7.51 177.81,-5.02 168,-3.64 127.95,2.01 117.31,-0.39 77,-3.64 65.03,-4.6 51.75,-6.72 41.18,-8.65"/>
<polygon fill="midnightblue" stroke="midnightblue" points="196.81,-13.6 207.4,-13.14 198.83,-6.9 196.81,-13.6"/>
</g>
<!-- Node10&#45;&gt;Node11 -->
<g id="edge11" class="edge">
<title>Node10&#45;&gt;Node11</title>
<path fill="none" stroke="midnightblue" d="M69.37,-17.42C59.34,-16.42 49.42,-15.43 41.24,-14.61"/>
<polygon fill="midnightblue" stroke="midnightblue" points="69.08,-20.91 79.38,-18.42 69.78,-13.95 69.08,-20.91"/>
</g>
</g>
</svg>
        <g id="navigator" transform="translate(0 0)" fill="#404254">
                <rect fill="#f2f5e9" fill-opacity="0.5" stroke="#606060" stroke-width=".5" x="0" y="0" width="60" height="60"/>
                <use id="zoomplus" xlink:href="#zoomPlus" x="17" y="9" onmousedown="handleZoom(evt,'in')"/>
                <use id="zoomminus" xlink:href="#zoomMin" x="42" y="9" onmousedown="handleZoom(evt,'out')"/>
                <use id="reset" xlink:href="#resetDef" x="30" y="36" onmousedown="handleReset()"/>
                <g id="arrowUp" xlink:href="#dirArrow" transform="translate(30 24)" onmousedown="handlePan(0,-1)">
                  <use xlink:href="#rim" fill="#404040">
                        <set attributeName="fill" to="#808080" begin="arrowUp.mouseover" end="arrowUp.mouseout"/>
                  </use>
                  <path fill="none" stroke="white" stroke-width="1.5" d="M0,-3.0v7 M-2.5,-0.5L0,-3.0L2.5,-0.5"/>
                </g>
                <g id="arrowRight" xlink:href="#dirArrow" transform="rotate(90) translate(36 -43)" onmousedown="handlePan(1,0)">
                  <use xlink:href="#rim" fill="#404040">
                        <set attributeName="fill" to="#808080" begin="arrowRight.mouseover" end="arrowRight.mouseout"/>
                  </use>
                  <path fill="none" stroke="white" stroke-width="1.5" d="M0,-3.0v7 M-2.5,-0.5L0,-3.0L2.5,-0.5"/>
                </g>
                <g id="arrowDown" xlink:href="#dirArrow" transform="rotate(180) translate(-30 -48)" onmousedown="handlePan(0,1)">
                  <use xlink:href="#rim" fill="#404040">
                        <set attributeName="fill" to="#808080" begin="arrowDown.mouseover" end="arrowDown.mouseout"/>
                  </use>
                  <path fill="none" stroke="white" stroke-width="1.5" d="M0,-3.0v7 M-2.5,-0.5L0,-3.0L2.5,-0.5"/>
                </g>
                <g id="arrowLeft" xlink:href="#dirArrow" transform="rotate(270) translate(-36 17)" onmousedown="handlePan(-1,0)">
                  <use xlink:href="#rim" fill="#404040">
                        <set attributeName="fill" to="#808080" begin="arrowLeft.mouseover" end="arrowLeft.mouseout"/>
                  </use>
                  <path fill="none" stroke="white" stroke-width="1.5" d="M0,-3.0v7 M-2.5,-0.5L0,-3.0L2.5,-0.5"/>
                </g>
        </g>
        <svg viewBox="0 0 15 15" width="100%" height="30px" preserveAspectRatio="xMaxYMin meet">
         <g id="arrow_out" transform="scale(0.3 0.3)">
          <a xlink:href="classAxisIp4_a04efcb30e743243d2111546c167be29f_icgraph_org.svg" target="_base">
           <rect id="button" ry="5" rx="5" y="6" x="6" height="38" width="38"
                fill="#f2f5e9" fill-opacity="0.5" stroke="#606060" stroke-width="1.0"/>
           <path id="arrow"
             d="M 11.500037,31.436501 C 11.940474,20.09759 22.043105,11.32322 32.158766,21.979434 L 37.068811,17.246167 C 37.068811,17.246167 37.088388,32 37.088388,32 L 22.160133,31.978069 C 22.160133,31.978069 26.997745,27.140456 26.997745,27.140456 C 18.528582,18.264221 13.291696,25.230495 11.500037,31.436501 z"
             style="fill:#404040;"/>
          </a>
         </g>
        </svg>
</svg>
