<?xml version="1.0" encoding="UTF-8" standalone="no"?>
<!DOCTYPE svg PUBLIC "-//W3C//DTD SVG 1.1//EN"
 "http://www.w3.org/Graphics/SVG/1.1/DTD/svg11.dtd">
<!-- Generated by graphviz version 2.43.0 (0)
 -->
<!-- Title: SimIp4Packet::udpRecalculateChecksum Pages: 1 -->
<svg width="976pt" height="291pt"
 viewBox="0.00 0.00 976.00 290.50" xmlns="http://www.w3.org/2000/svg" xmlns:xlink="http://www.w3.org/1999/xlink">
<g id="graph0" class="graph" transform="scale(1 1) rotate(0) translate(4 286.5)">
<title>SimIp4Packet::udpRecalculateChecksum</title>
<!-- Node1 -->
<g id="node1" class="node">
<title>Node1</title>
<g id="a_node1"><a xlink:title="Recalculate checksum of an UDP datagram after it was modified.">
<polygon fill="#bfbfbf" stroke="black" points="0,-159 0,-189 163,-189 163,-159 0,-159"/>
<text text-anchor="start" x="8" y="-177" font-family="Helvetica,sans-Serif" font-size="10.00">SimIp4Packet::udpRecalculate</text>
<text text-anchor="middle" x="81.5" y="-166" font-family="Helvetica,sans-Serif" font-size="10.00">Checksum</text>
</a>
</g>
</g>
<!-- Node2 -->
<g id="node2" class="node">
<title>Node2</title>
<g id="a_node2"><a xlink:href="classSimIp4Packet.html#ac76b6d7dedd83784c206b40b89a5810e" target="_top" xlink:title=" ">
<polygon fill="none" stroke="black" points="201,-252 201,-282 370,-282 370,-252 201,-252"/>
<text text-anchor="start" x="209" y="-270" font-family="Helvetica,sans-Serif" font-size="10.00">SimIp4Packet::getIpDestination</text>
<text text-anchor="middle" x="285.5" y="-259" font-family="Helvetica,sans-Serif" font-size="10.00">Address</text>
</a>
</g>
</g>
<!-- Node1&#45;&gt;Node2 -->
<g id="edge1" class="edge">
<title>Node1&#45;&gt;Node2</title>
<path fill="none" stroke="midnightblue" d="M103.92,-189.02C126.63,-204.37 163.99,-228.02 199,-243 203.66,-245 208.54,-246.87 213.5,-248.63"/>
<polygon fill="midnightblue" stroke="midnightblue" points="212.51,-251.99 223.11,-251.87 214.75,-245.36 212.51,-251.99"/>
</g>
<!-- Node3 -->
<g id="node3" class="node">
<title>Node3</title>
<g id="a_node3"><a xlink:href="classSimIp4Packet.html#a67aab09fcaa210daf58d7a4ffd36bea2" target="_top" xlink:title=" ">
<polygon fill="none" stroke="black" points="212.5,-203 212.5,-233 358.5,-233 358.5,-203 212.5,-203"/>
<text text-anchor="start" x="220.5" y="-221" font-family="Helvetica,sans-Serif" font-size="10.00">SimIp4Packet::getIpSource</text>
<text text-anchor="middle" x="285.5" y="-210" font-family="Helvetica,sans-Serif" font-size="10.00">Address</text>
</a>
</g>
</g>
<!-- Node1&#45;&gt;Node3 -->
<g id="edge2" class="edge">
<title>Node1&#45;&gt;Node3</title>
<path fill="none" stroke="midnightblue" d="M151.45,-189.02C168.91,-192.82 187.79,-196.93 205.69,-200.83"/>
<polygon fill="midnightblue" stroke="midnightblue" points="205,-204.27 215.52,-202.97 206.49,-197.43 205,-204.27"/>
</g>
<!-- Node4 -->
<g id="node4" class="node">
<title>Node4</title>
<g id="a_node4"><a xlink:href="classSimIp4Packet.html#a894f22a2fb248027b3457937faf5f934" target="_top" xlink:title=" ">
<polygon fill="none" stroke="black" points="199.5,-126.5 199.5,-145.5 371.5,-145.5 371.5,-126.5 199.5,-126.5"/>
<text text-anchor="middle" x="285.5" y="-133.5" font-family="Helvetica,sans-Serif" font-size="10.00">SimIp4Packet::getUdpDatagram</text>
</a>
</g>
</g>
<!-- Node1&#45;&gt;Node4 -->
<g id="edge3" class="edge">
<title>Node1&#45;&gt;Node4</title>
<path fill="none" stroke="midnightblue" d="M162.34,-158.98C182.9,-155.11 204.69,-151.01 224.09,-147.36"/>
<polygon fill="midnightblue" stroke="midnightblue" points="224.81,-150.79 234,-145.5 223.52,-143.91 224.81,-150.79"/>
</g>
<!-- Node11 -->
<g id="node11" class="node">
<title>Node11</title>
<g id="a_node11"><a xlink:href="classSimUdpDatagram.html#ad0d2ae16d9a266b36c2ec50811a99e37" target="_top" xlink:title="Recalculate the UDP checksum of a datagram.">
<polygon fill="none" stroke="black" points="203,-39 203,-69 368,-69 368,-39 203,-39"/>
<text text-anchor="start" x="211" y="-57" font-family="Helvetica,sans-Serif" font-size="10.00">SimUdpDatagram::reCalculate</text>
<text text-anchor="middle" x="285.5" y="-46" font-family="Helvetica,sans-Serif" font-size="10.00">UdpChecksum</text>
</a>
</g>
</g>
<!-- Node1&#45;&gt;Node11 -->
<g id="edge10" class="edge">
<title>Node1&#45;&gt;Node11</title>
<path fill="none" stroke="midnightblue" d="M108.08,-158.8C144.21,-137.34 210.23,-98.12 250.46,-74.22"/>
<polygon fill="midnightblue" stroke="midnightblue" points="252.31,-77.19 259.12,-69.07 248.74,-71.17 252.31,-77.19"/>
</g>
<!-- Node16 -->
<g id="node16" class="node">
<title>Node16</title>
<g id="a_node16"><a xlink:href="classSimIp4Packet.html#a60ad5e4989be728cfbc7545e26c441f9" target="_top" xlink:title=" ">
<polygon fill="none" stroke="black" points="199,-164.5 199,-183.5 372,-183.5 372,-164.5 199,-164.5"/>
<text text-anchor="middle" x="285.5" y="-171.5" font-family="Helvetica,sans-Serif" font-size="10.00">SimIp4Packet::setUdpChecksum</text>
</a>
</g>
</g>
<!-- Node1&#45;&gt;Node16 -->
<g id="edge16" class="edge">
<title>Node1&#45;&gt;Node16</title>
<path fill="none" stroke="midnightblue" d="M163.21,-174C171.66,-174 180.31,-174 188.9,-174"/>
<polygon fill="midnightblue" stroke="midnightblue" points="188.96,-177.5 198.96,-174 188.96,-170.5 188.96,-177.5"/>
</g>
<!-- Node5 -->
<g id="node5" class="node">
<title>Node5</title>
<g id="a_node5"><a xlink:href="classSimIp4Packet.html#a7ee25ca44b1cb9e3d375b41c8790dffb" target="_top" xlink:title=" ">
<polygon fill="none" stroke="black" points="430,-165 430,-195 581,-195 581,-165 430,-165"/>
<text text-anchor="start" x="438" y="-183" font-family="Helvetica,sans-Serif" font-size="10.00">SimIp4Packet::getIpInternet</text>
<text text-anchor="middle" x="505.5" y="-172" font-family="Helvetica,sans-Serif" font-size="10.00">HeaderLength</text>
</a>
</g>
</g>
<!-- Node4&#45;&gt;Node5 -->
<g id="edge4" class="edge">
<title>Node4&#45;&gt;Node5</title>
<path fill="none" stroke="midnightblue" d="M333.8,-145.55C359,-150.63 390.77,-157.04 420.04,-162.95"/>
<polygon fill="midnightblue" stroke="midnightblue" points="419.36,-166.39 429.86,-164.93 420.75,-159.53 419.36,-166.39"/>
</g>
<!-- Node6 -->
<g id="node6" class="node">
<title>Node6</title>
<g id="a_node6"><a xlink:href="classSimUdpDatagram.html#a19f8f331cc36e9b566a1a6935a9d9e56" target="_top" xlink:title=" ">
<polygon fill="none" stroke="black" points="423.5,-126.5 423.5,-145.5 587.5,-145.5 587.5,-126.5 423.5,-126.5"/>
<text text-anchor="middle" x="505.5" y="-133.5" font-family="Helvetica,sans-Serif" font-size="10.00">SimUdpDatagram::pushChunk</text>
</a>
</g>
</g>
<!-- Node4&#45;&gt;Node6 -->
<g id="edge5" class="edge">
<title>Node4&#45;&gt;Node6</title>
<path fill="none" stroke="midnightblue" d="M371.72,-136C385.23,-136 399.26,-136 412.91,-136"/>
<polygon fill="midnightblue" stroke="midnightblue" points="413.26,-139.5 423.26,-136 413.26,-132.5 413.26,-139.5"/>
</g>
<!-- Node10 -->
<g id="node10" class="node">
<title>Node10</title>
<g id="a_node10"><a xlink:href="classSimIp4Packet.html#a53b4354e1a627f97899bfce5540c83ef" target="_top" xlink:title=" ">
<polygon fill="none" stroke="black" points="452,-88.5 452,-107.5 559,-107.5 559,-88.5 452,-88.5"/>
<text text-anchor="middle" x="505.5" y="-95.5" font-family="Helvetica,sans-Serif" font-size="10.00">SimIp4Packet::size</text>
</a>
</g>
</g>
<!-- Node4&#45;&gt;Node10 -->
<g id="edge9" class="edge">
<title>Node4&#45;&gt;Node10</title>
<path fill="none" stroke="midnightblue" d="M341.23,-126.46C371.73,-121.14 409.84,-114.5 441.57,-108.97"/>
<polygon fill="midnightblue" stroke="midnightblue" points="442.38,-112.38 451.63,-107.22 441.18,-105.49 442.38,-112.38"/>
</g>
<!-- Node7 -->
<g id="node7" class="node">
<title>Node7</title>
<g id="a_node7"><a xlink:href="classAxisRaw.html#acadbd2b7e00e34417c426fa91c8d7c51" target="_top" xlink:title=" ">
<polygon fill="none" stroke="black" points="679.5,-126.5 679.5,-145.5 776.5,-145.5 776.5,-126.5 679.5,-126.5"/>
<text text-anchor="middle" x="728" y="-133.5" font-family="Helvetica,sans-Serif" font-size="10.00">AxisRaw::getLen</text>
</a>
</g>
</g>
<!-- Node6&#45;&gt;Node7 -->
<g id="edge6" class="edge">
<title>Node6&#45;&gt;Node7</title>
<path fill="none" stroke="midnightblue" d="M587.67,-136C614.76,-136 644.37,-136 669.3,-136"/>
<polygon fill="midnightblue" stroke="midnightblue" points="669.32,-139.5 679.32,-136 669.32,-132.5 669.32,-139.5"/>
</g>
<!-- Node9 -->
<g id="node9" class="node">
<title>Node9</title>
<g id="a_node9"><a xlink:href="classSimUdpDatagram.html#a5cc83610935341408f23d7a5b431d3e8" target="_top" xlink:title=" ">
<polygon fill="none" stroke="black" points="663.5,-85.5 663.5,-104.5 792.5,-104.5 792.5,-85.5 663.5,-85.5"/>
<text text-anchor="middle" x="728" y="-92.5" font-family="Helvetica,sans-Serif" font-size="10.00">SimUdpDatagram::size</text>
</a>
</g>
</g>
<!-- Node6&#45;&gt;Node9 -->
<g id="edge8" class="edge">
<title>Node6&#45;&gt;Node9</title>
<path fill="none" stroke="midnightblue" d="M557.64,-126.49C589.95,-120.48 631.87,-112.69 665.92,-106.36"/>
<polygon fill="midnightblue" stroke="midnightblue" points="666.56,-109.8 675.75,-104.53 665.28,-102.92 666.56,-109.8"/>
</g>
<!-- Node8 -->
<g id="node8" class="node">
<title>Node8</title>
<g id="a_node8"><a xlink:href="classAxisRaw.html#aec8718820338b67381cce084ba407063" target="_top" xlink:title=" ">
<polygon fill="none" stroke="black" points="853,-126.5 853,-145.5 968,-145.5 968,-126.5 853,-126.5"/>
<text text-anchor="middle" x="910.5" y="-133.5" font-family="Helvetica,sans-Serif" font-size="10.00">AxisRaw::keepToLen</text>
</a>
</g>
</g>
<!-- Node7&#45;&gt;Node8 -->
<g id="edge7" class="edge">
<title>Node7&#45;&gt;Node8</title>
<path fill="none" stroke="midnightblue" d="M776.9,-136C797,-136 820.74,-136 842.53,-136"/>
<polygon fill="midnightblue" stroke="midnightblue" points="842.71,-139.5 852.71,-136 842.71,-132.5 842.71,-139.5"/>
</g>
<!-- Node12 -->
<g id="node12" class="node">
<title>Node12</title>
<g id="a_node12"><a xlink:href="classSimUdpDatagram.html#a548bbafdc75719ff512dcc44e5e47d7e" target="_top" xlink:title="Calculate the UDP checksum of the datagram.">
<polygon fill="none" stroke="black" points="428.5,-39 428.5,-69 582.5,-69 582.5,-39 428.5,-39"/>
<text text-anchor="start" x="436.5" y="-57" font-family="Helvetica,sans-Serif" font-size="10.00">SimUdpDatagram::calculate</text>
<text text-anchor="middle" x="505.5" y="-46" font-family="Helvetica,sans-Serif" font-size="10.00">UdpChecksum</text>
</a>
</g>
</g>
<!-- Node11&#45;&gt;Node12 -->
<g id="edge11" class="edge">
<title>Node11&#45;&gt;Node12</title>
<path fill="none" stroke="midnightblue" d="M368.3,-54C384.6,-54 401.78,-54 418.23,-54"/>
<polygon fill="midnightblue" stroke="midnightblue" points="418.37,-57.5 428.37,-54 418.37,-50.5 418.37,-57.5"/>
</g>
<!-- Node15 -->
<g id="node15" class="node">
<title>Node15</title>
<g id="a_node15"><a xlink:href="classSimUdpDatagram.html#a0d0dd40d9e2b60b16d3d9c0360404ca1" target="_top" xlink:title=" ">
<polygon fill="none" stroke="black" points="408,-0.5 408,-19.5 603,-19.5 603,-0.5 408,-0.5"/>
<text text-anchor="middle" x="505.5" y="-7.5" font-family="Helvetica,sans-Serif" font-size="10.00">SimUdpDatagram::setUdpChecksum</text>
</a>
</g>
</g>
<!-- Node11&#45;&gt;Node15 -->
<g id="edge15" class="edge">
<title>Node11&#45;&gt;Node15</title>
<path fill="none" stroke="midnightblue" d="M360.91,-38.98C389.24,-33.26 421.05,-26.84 447.51,-21.5"/>
<polygon fill="midnightblue" stroke="midnightblue" points="448.26,-24.92 457.37,-19.51 446.88,-18.06 448.26,-24.92"/>
</g>
<!-- Node12&#45;&gt;Node9 -->
<g id="edge14" class="edge">
<title>Node12&#45;&gt;Node9</title>
<path fill="none" stroke="midnightblue" d="M582.69,-68.17C609.84,-73.21 640.03,-78.83 665.76,-83.61"/>
<polygon fill="midnightblue" stroke="midnightblue" points="665.28,-87.08 675.75,-85.47 666.56,-80.2 665.28,-87.08"/>
</g>
<!-- Node13 -->
<g id="node13" class="node">
<title>Node13</title>
<g id="a_node13"><a xlink:href="udp_8cpp.html#ga3179abf5c515026aad3e82047a1dd9a3" target="_top" xlink:title=" ">
<polygon fill="none" stroke="black" points="689.5,-45.5 689.5,-64.5 766.5,-64.5 766.5,-45.5 689.5,-45.5"/>
<text text-anchor="middle" x="728" y="-52.5" font-family="Helvetica,sans-Serif" font-size="10.00">byteSwap16</text>
</a>
</g>
</g>
<!-- Node12&#45;&gt;Node13 -->
<g id="edge12" class="edge">
<title>Node12&#45;&gt;Node13</title>
<path fill="none" stroke="midnightblue" d="M582.69,-54.35C614.84,-54.49 651.28,-54.66 679.5,-54.78"/>
<polygon fill="midnightblue" stroke="midnightblue" points="679.48,-58.28 689.5,-54.83 679.51,-51.28 679.48,-58.28"/>
</g>
<!-- Node14 -->
<g id="node14" class="node">
<title>Node14</title>
<g id="a_node14"><a xlink:href="classSimUdpDatagram.html#abc1fde2bc9002c46366d8baa92f7a4ae" target="_top" xlink:title=" ">
<polygon fill="none" stroke="black" points="639,-7.5 639,-26.5 817,-26.5 817,-7.5 639,-7.5"/>
<text text-anchor="middle" x="728" y="-14.5" font-family="Helvetica,sans-Serif" font-size="10.00">SimUdpDatagram::getUdpLength</text>
</a>
</g>
</g>
<!-- Node12&#45;&gt;Node14 -->
<g id="edge13" class="edge">
<title>Node12&#45;&gt;Node14</title>
<path fill="none" stroke="midnightblue" d="M582.69,-41.21C607.97,-36.97 635.89,-32.29 660.38,-28.18"/>
<polygon fill="midnightblue" stroke="midnightblue" points="661.01,-31.62 670.29,-26.52 659.85,-24.72 661.01,-31.62"/>
</g>
<!-- Node16&#45;&gt;Node5 -->
<g id="edge17" class="edge">
<title>Node16&#45;&gt;Node5</title>
<path fill="none" stroke="midnightblue" d="M372.03,-176.35C387.69,-176.79 404.02,-177.23 419.66,-177.66"/>
<polygon fill="midnightblue" stroke="midnightblue" points="419.73,-181.17 429.82,-177.94 419.92,-174.17 419.73,-181.17"/>
</g>
</g>
</svg>
