<?xml version="1.0" encoding="UTF-8" standalone="no"?>
<!DOCTYPE svg PUBLIC "-//W3C//DTD SVG 1.1//EN"
 "http://www.w3.org/Graphics/SVG/1.1/DTD/svg11.dtd">
<!-- Generated by graphviz version 2.43.0 (0)
 -->
<!-- Title: AxisPsd4::setTcpCtrlSyn Pages: 1 -->
<svg width="703pt" height="28pt"
 viewBox="0.00 0.00 703.00 28.00" xmlns="http://www.w3.org/2000/svg" xmlns:xlink="http://www.w3.org/1999/xlink">
<g id="graph0" class="graph" transform="scale(1 1) rotate(0) translate(4 24)">
<title>AxisPsd4::setTcpCtrlSyn</title>
<!-- Node1 -->
<g id="node1" class="node">
<title>Node1</title>
<g id="a_node1"><a xlink:title=" ">
<polygon fill="#bfbfbf" stroke="black" points="562,-0.5 562,-19.5 695,-19.5 695,-0.5 562,-0.5"/>
<text text-anchor="middle" x="628.5" y="-7.5" font-family="Helvetica,sans-Serif" font-size="10.00">AxisPsd4::setTcpCtrlSyn</text>
</a>
</g>
</g>
<!-- Node2 -->
<g id="node2" class="node">
<title>Node2</title>
<g id="a_node2"><a xlink:href="group__NTS__TOE.html#gaddf4a234bbec03acba8de46da6052a7f" target="_top" xlink:title="Pseudo Header Constructor (Phc)">
<polygon fill="none" stroke="black" points="377,-0.5 377,-19.5 526,-19.5 526,-0.5 377,-0.5"/>
<text text-anchor="middle" x="451.5" y="-7.5" font-family="Helvetica,sans-Serif" font-size="10.00">pPseudoHeaderConstructor</text>
</a>
</g>
</g>
<!-- Node1&#45;&gt;Node2 -->
<g id="edge1" class="edge">
<title>Node1&#45;&gt;Node2</title>
<path fill="none" stroke="midnightblue" d="M551.63,-10C543.18,-10 534.59,-10 526.17,-10"/>
<polygon fill="midnightblue" stroke="midnightblue" points="551.84,-13.5 561.84,-10 551.84,-6.5 551.84,-13.5"/>
</g>
<!-- Node3 -->
<g id="node3" class="node">
<title>Node3</title>
<g id="a_node3"><a xlink:href="group__NTS__TOE.html#gab7ba01372a1e4397ba0ce6d9cbb398eb" target="_top" xlink:title="Transmit Engine (TXe)">
<polygon fill="none" stroke="black" points="276,-0.5 276,-19.5 341,-19.5 341,-0.5 276,-0.5"/>
<text text-anchor="middle" x="308.5" y="-7.5" font-family="Helvetica,sans-Serif" font-size="10.00">tx_engine</text>
</a>
</g>
</g>
<!-- Node2&#45;&gt;Node3 -->
<g id="edge2" class="edge">
<title>Node2&#45;&gt;Node3</title>
<path fill="none" stroke="midnightblue" d="M366.48,-10C357.52,-10 348.87,-10 341.12,-10"/>
<polygon fill="midnightblue" stroke="midnightblue" points="366.7,-13.5 376.7,-10 366.7,-6.5 366.7,-13.5"/>
</g>
<!-- Node4 -->
<g id="node4" class="node">
<title>Node4</title>
<g id="a_node4"><a xlink:href="group__NTS__TOE.html#ga1d48efdcf37aa3803a7f7444fe485c9f" target="_top" xlink:title="Main process of the TCP Offload Engine (TOE0.">
<polygon fill="none" stroke="black" points="208,-0.5 208,-19.5 240,-19.5 240,-0.5 208,-0.5"/>
<text text-anchor="middle" x="224" y="-7.5" font-family="Helvetica,sans-Serif" font-size="10.00">toe</text>
</a>
</g>
</g>
<!-- Node3&#45;&gt;Node4 -->
<g id="edge3" class="edge">
<title>Node3&#45;&gt;Node4</title>
<path fill="none" stroke="midnightblue" d="M265.68,-10C256.61,-10 247.58,-10 240.34,-10"/>
<polygon fill="midnightblue" stroke="midnightblue" points="265.84,-13.5 275.84,-10 265.84,-6.5 265.84,-13.5"/>
</g>
<!-- Node5 -->
<g id="node5" class="node">
<title>Node5</title>
<g id="a_node5"><a xlink:href="group__NTS__TOE.html#gab3d23260a8a037543d01f716091df7e8" target="_top" xlink:title="Top of TCP Offload Engine (TOE)">
<polygon fill="none" stroke="black" points="119,-0.5 119,-19.5 172,-19.5 172,-0.5 119,-0.5"/>
<text text-anchor="middle" x="145.5" y="-7.5" font-family="Helvetica,sans-Serif" font-size="10.00">toe_top</text>
</a>
</g>
</g>
<!-- Node4&#45;&gt;Node5 -->
<g id="edge4" class="edge">
<title>Node4&#45;&gt;Node5</title>
<path fill="none" stroke="midnightblue" d="M197.75,-10C189.52,-10 180.38,-10 172.13,-10"/>
<polygon fill="midnightblue" stroke="midnightblue" points="197.89,-13.5 207.89,-10 197.89,-6.5 197.89,-13.5"/>
</g>
<!-- Node6 -->
<g id="node6" class="node">
<title>Node6</title>
<g id="a_node6"><a xlink:href="group__NTS__TOE__TEST.html#gae95a90fdba9993f0d4e2f27cd94f22e2" target="_top" xlink:title="A wrapper for the Toplevel of the TCP Offload Engine (TOE).">
<polygon fill="none" stroke="black" points="0,-0.5 0,-19.5 83,-19.5 83,-0.5 0,-0.5"/>
<text text-anchor="middle" x="41.5" y="-7.5" font-family="Helvetica,sans-Serif" font-size="10.00">toe_top_wrap</text>
</a>
</g>
</g>
<!-- Node5&#45;&gt;Node6 -->
<g id="edge5" class="edge">
<title>Node5&#45;&gt;Node6</title>
<path fill="none" stroke="midnightblue" d="M108.74,-10C100.52,-10 91.73,-10 83.32,-10"/>
<polygon fill="midnightblue" stroke="midnightblue" points="108.76,-13.5 118.76,-10 108.76,-6.5 108.76,-13.5"/>
</g>
</g>
</svg>
