<?xml version="1.0" encoding="UTF-8" standalone="no"?>
<!DOCTYPE svg PUBLIC "-//W3C//DTD SVG 1.1//EN"
 "http://www.w3.org/Graphics/SVG/1.1/DTD/svg11.dtd">
<!-- Generated by graphviz version 2.43.0 (0)
 -->
<!-- Title: AxisRaw::setTData Pages: 1 -->
<!--zoomable 142 -->
<svg id="main" version="1.1" xmlns="http://www.w3.org/2000/svg" xmlns:xlink="http://www.w3.org/1999/xlink" xml:space="preserve" onload="init(evt)">
<style type="text/css"><![CDATA[
.edge:hover path { stroke: red; }
.edge:hover polygon { stroke: red; fill: red; }
]]></style>
<script type="text/javascript"><![CDATA[
var edges = document.getElementsByTagName('g');
if (edges && edges.length) {
  for (var i=0;i<edges.length;i++) {
    if (edges[i].id.substr(0,4)=='edge') {
      edges[i].setAttribute('class','edge');
    }
  }
}
]]></script>
        <defs>
                <circle id="rim" cx="0" cy="0" r="7"/>
                <circle id="rim2" cx="0" cy="0" r="3.5"/>
                <g id="zoomPlus">
                        <use xlink:href="#rim" fill="#404040">
                                <set attributeName="fill" to="#808080" begin="zoomplus.mouseover" end="zoomplus.mouseout"/>
                        </use>
                        <path d="M-4,0h8M0,-4v8" fill="none" stroke="white" stroke-width="1.5" pointer-events="none"/>
                </g>
                <g id="zoomMin">
                        <use xlink:href="#rim" fill="#404040">
                                <set attributeName="fill" to="#808080" begin="zoomminus.mouseover" end="zoomminus.mouseout"/>
                        </use>
                        <path d="M-4,0h8" fill="none" stroke="white" stroke-width="1.5" pointer-events="none"/>
                </g>
                <g id="dirArrow">
                        <path fill="none" stroke="white" stroke-width="1.5" d="M0,-3.0v7 M-2.5,-0.5L0,-3.0L2.5,-0.5"/>
                </g>
               <g id="resetDef">
                       <use xlink:href="#rim2" fill="#404040">
                               <set attributeName="fill" to="#808080" begin="reset.mouseover" end="reset.mouseout"/>
                       </use>
               </g>
        </defs>

<script type="text/javascript">
var viewWidth = 504;
var viewHeight = 142;
var sectionId = 'dynsection-31';
</script>
<script xlink:href="svgpan.js"/>
<svg id="graph" class="graph">
<g id="viewport">
<title>AxisRaw::setTData</title>
<!-- Node1 -->
<g id="node1" class="node">
<title>Node1</title>
<g id="a_node1"><a xlink:title=" ">
<polygon fill="#bfbfbf" stroke="black" points="388,-57.5 388,-76.5 496,-76.5 496,-57.5 388,-57.5"/>
<text text-anchor="middle" x="442" y="-64.5" font-family="Helvetica,sans-Serif" font-size="10.00">AxisRaw::setTData</text>
</a>
</g>
</g>
<!-- Node2 -->
<g id="node2" class="node">
<title>Node2</title>
<g id="a_node2"><a xlink:href="group__tcp__shell__if.html#ga4d29cb2d828e67dfdd9c7538336b2f04" target="_top" xlink:title="Emulate behavior of the SHELL/NTS/TCP Offload Engine (TOE).">
<polygon fill="none" stroke="black" points="273.5,-114.5 273.5,-133.5 315.5,-133.5 315.5,-114.5 273.5,-114.5"/>
<text text-anchor="middle" x="294.5" y="-121.5" font-family="Helvetica,sans-Serif" font-size="10.00">pTOE</text>
</a>
</g>
</g>
<!-- Node1&#45;&gt;Node2 -->
<g id="edge1" class="edge">
<title>Node1&#45;&gt;Node2</title>
<path fill="none" stroke="midnightblue" d="M410.51,-80.72C393.44,-88.23 371.69,-97.5 352,-105 340.01,-109.57 326.38,-114.17 315.51,-117.7"/>
<polygon fill="midnightblue" stroke="midnightblue" points="412.25,-83.78 419.97,-76.54 409.41,-77.38 412.25,-83.78"/>
</g>
<!-- Node3 -->
<g id="node3" class="node">
<title>Node3</title>
<g id="a_node3"><a xlink:href="group__udp__shell__if.html#gad2f4a79a5d25be1a5112d627ca6e3dc0" target="_top" xlink:title="Emulate behavior of the SHELL/NTS/UDP Offload Engine (UOE).">
<polygon fill="none" stroke="black" points="272.5,-76.5 272.5,-95.5 316.5,-95.5 316.5,-76.5 272.5,-76.5"/>
<text text-anchor="middle" x="294.5" y="-83.5" font-family="Helvetica,sans-Serif" font-size="10.00">pUOE</text>
</a>
</g>
</g>
<!-- Node1&#45;&gt;Node3 -->
<g id="edge2" class="edge">
<title>Node1&#45;&gt;Node3</title>
<path fill="none" stroke="midnightblue" d="M377.68,-75.27C355.75,-78.13 332.66,-81.15 316.56,-83.25"/>
<polygon fill="midnightblue" stroke="midnightblue" points="378.18,-78.73 387.65,-73.97 377.28,-71.79 378.18,-78.73"/>
</g>
<!-- Node5 -->
<g id="node5" class="node">
<title>Node5</title>
<g id="a_node5"><a xlink:href="group__tcp__shell__if.html#ga81f5b86452aba7509074e797be6888fd" target="_top" xlink:title="Write Path (WRp)">
<polygon fill="none" stroke="black" points="259.5,-38.5 259.5,-57.5 329.5,-57.5 329.5,-38.5 259.5,-38.5"/>
<text text-anchor="middle" x="294.5" y="-45.5" font-family="Helvetica,sans-Serif" font-size="10.00">pWritePath</text>
</a>
</g>
</g>
<!-- Node1&#45;&gt;Node5 -->
<g id="edge4" class="edge">
<title>Node1&#45;&gt;Node5</title>
<path fill="none" stroke="midnightblue" d="M377.55,-58.71C361.15,-56.57 344.11,-54.35 329.84,-52.48"/>
<polygon fill="midnightblue" stroke="midnightblue" points="377.28,-62.21 387.65,-60.03 378.18,-55.27 377.28,-62.21"/>
</g>
<!-- Node9 -->
<g id="node9" class="node">
<title>Node9</title>
<g id="a_node9"><a xlink:href="group__NAL.html#ga003bb1ba6dbd173c93b519ed3f899959" target="_top" xlink:title="Initialize an input data stream from a file.">
<polygon fill="none" stroke="black" points="237,-0.5 237,-19.5 352,-19.5 352,-0.5 237,-0.5"/>
<text text-anchor="middle" x="294.5" y="-7.5" font-family="Helvetica,sans-Serif" font-size="10.00">setInputDataStream</text>
</a>
</g>
</g>
<!-- Node1&#45;&gt;Node9 -->
<g id="edge8" class="edge">
<title>Node1&#45;&gt;Node9</title>
<path fill="none" stroke="midnightblue" d="M410.51,-53.28C393.44,-45.77 371.69,-36.5 352,-29 343.39,-25.72 333.94,-22.43 325.27,-19.52"/>
<polygon fill="midnightblue" stroke="midnightblue" points="409.41,-56.62 419.97,-57.46 412.25,-50.22 409.41,-56.62"/>
</g>
<!-- Node4 -->
<g id="node4" class="node">
<title>Node4</title>
<g id="a_node4"><a xlink:href="group__udp__shell__if.html#ga0ddf1224851353fc92bfbff6f499fa97" target="_top" xlink:title="Main function for the test of the UDP Shell Interface (USIF).">
<polygon fill="none" stroke="black" points="144.5,-76.5 144.5,-95.5 185.5,-95.5 185.5,-76.5 144.5,-76.5"/>
<text text-anchor="middle" x="165" y="-83.5" font-family="Helvetica,sans-Serif" font-size="10.00">main</text>
</a>
</g>
</g>
<!-- Node3&#45;&gt;Node4 -->
<g id="edge3" class="edge">
<title>Node3&#45;&gt;Node4</title>
<path fill="none" stroke="midnightblue" d="M262.14,-86C238.3,-86 206.22,-86 185.83,-86"/>
<polygon fill="midnightblue" stroke="midnightblue" points="262.45,-89.5 272.45,-86 262.45,-82.5 262.45,-89.5"/>
</g>
<!-- Node6 -->
<g id="node6" class="node">
<title>Node6</title>
<g id="a_node6"><a xlink:href="group__tcp__shell__if.html#ga33d275a5a280034b43adfd415c7599b0" target="_top" xlink:title="TCP Shell Interface (TSIF)">
<polygon fill="none" stroke="black" points="129,-38.5 129,-57.5 201,-57.5 201,-38.5 129,-38.5"/>
<text text-anchor="middle" x="165" y="-45.5" font-family="Helvetica,sans-Serif" font-size="10.00">tcp_shell_if</text>
</a>
</g>
</g>
<!-- Node5&#45;&gt;Node6 -->
<g id="edge5" class="edge">
<title>Node5&#45;&gt;Node6</title>
<path fill="none" stroke="midnightblue" d="M249.28,-48C233.54,-48 216.03,-48 201.15,-48"/>
<polygon fill="midnightblue" stroke="midnightblue" points="249.33,-51.5 259.33,-48 249.33,-44.5 249.33,-51.5"/>
</g>
<!-- Node7 -->
<g id="node7" class="node">
<title>Node7</title>
<g id="a_node7"><a xlink:href="group__tcp__shell__if.html#ga0ddf1224851353fc92bfbff6f499fa97" target="_top" xlink:title="Main function for the test of the TCP Shell Interface (TSIF).">
<polygon fill="none" stroke="black" points="26,-57.5 26,-76.5 67,-76.5 67,-57.5 26,-57.5"/>
<text text-anchor="middle" x="46.5" y="-64.5" font-family="Helvetica,sans-Serif" font-size="10.00">main</text>
</a>
</g>
</g>
<!-- Node6&#45;&gt;Node7 -->
<g id="edge6" class="edge">
<title>Node6&#45;&gt;Node7</title>
<path fill="none" stroke="midnightblue" d="M118.72,-55.38C100.82,-58.3 81.19,-61.51 67.08,-63.81"/>
<polygon fill="midnightblue" stroke="midnightblue" points="119.42,-58.82 128.73,-53.75 118.3,-51.91 119.42,-58.82"/>
</g>
<!-- Node8 -->
<g id="node8" class="node">
<title>Node8</title>
<g id="a_node8"><a xlink:href="group__tcp__shell__if.html#gacb6dcd3aa444269175772a0373dc4d56" target="_top" xlink:title="Top of TCP Shell Interface (TSIF)">
<polygon fill="none" stroke="black" points="0,-19.5 0,-38.5 93,-38.5 93,-19.5 0,-19.5"/>
<text text-anchor="middle" x="46.5" y="-26.5" font-family="Helvetica,sans-Serif" font-size="10.00">tcp_shell_if_top</text>
</a>
</g>
</g>
<!-- Node6&#45;&gt;Node8 -->
<g id="edge7" class="edge">
<title>Node6&#45;&gt;Node8</title>
<path fill="none" stroke="midnightblue" d="M118.81,-40.63C110.48,-39.27 101.77,-37.85 93.42,-36.49"/>
<polygon fill="midnightblue" stroke="midnightblue" points="118.3,-44.09 128.73,-42.25 119.42,-37.18 118.3,-44.09"/>
</g>
<!-- Node10 -->
<g id="node10" class="node">
<title>Node10</title>
<g id="a_node10"><a xlink:href="group__NAL.html#gae66f6b31b5ad750f1fe042a706a4e3d4" target="_top" xlink:title="Main Testbench Loop; Emulates also the behavior of the UDP Offload Engine (UOE).">
<polygon fill="none" stroke="black" points="144.5,-0.5 144.5,-19.5 185.5,-19.5 185.5,-0.5 144.5,-0.5"/>
<text text-anchor="middle" x="165" y="-7.5" font-family="Helvetica,sans-Serif" font-size="10.00">main</text>
</a>
</g>
</g>
<!-- Node9&#45;&gt;Node10 -->
<g id="edge9" class="edge">
<title>Node9&#45;&gt;Node10</title>
<path fill="none" stroke="midnightblue" d="M226.47,-10C211.49,-10 196.75,-10 185.58,-10"/>
<polygon fill="midnightblue" stroke="midnightblue" points="226.83,-13.5 236.83,-10 226.83,-6.5 226.83,-13.5"/>
</g>
</g>
</svg>
        <g id="navigator" transform="translate(0 0)" fill="#404254">
                <rect fill="#f2f5e9" fill-opacity="0.5" stroke="#606060" stroke-width=".5" x="0" y="0" width="60" height="60"/>
                <use id="zoomplus" xlink:href="#zoomPlus" x="17" y="9" onmousedown="handleZoom(evt,'in')"/>
                <use id="zoomminus" xlink:href="#zoomMin" x="42" y="9" onmousedown="handleZoom(evt,'out')"/>
                <use id="reset" xlink:href="#resetDef" x="30" y="36" onmousedown="handleReset()"/>
                <g id="arrowUp" xlink:href="#dirArrow" transform="translate(30 24)" onmousedown="handlePan(0,-1)">
                  <use xlink:href="#rim" fill="#404040">
                        <set attributeName="fill" to="#808080" begin="arrowUp.mouseover" end="arrowUp.mouseout"/>
                  </use>
                  <path fill="none" stroke="white" stroke-width="1.5" d="M0,-3.0v7 M-2.5,-0.5L0,-3.0L2.5,-0.5"/>
                </g>
                <g id="arrowRight" xlink:href="#dirArrow" transform="rotate(90) translate(36 -43)" onmousedown="handlePan(1,0)">
                  <use xlink:href="#rim" fill="#404040">
                        <set attributeName="fill" to="#808080" begin="arrowRight.mouseover" end="arrowRight.mouseout"/>
                  </use>
                  <path fill="none" stroke="white" stroke-width="1.5" d="M0,-3.0v7 M-2.5,-0.5L0,-3.0L2.5,-0.5"/>
                </g>
                <g id="arrowDown" xlink:href="#dirArrow" transform="rotate(180) translate(-30 -48)" onmousedown="handlePan(0,1)">
                  <use xlink:href="#rim" fill="#404040">
                        <set attributeName="fill" to="#808080" begin="arrowDown.mouseover" end="arrowDown.mouseout"/>
                  </use>
                  <path fill="none" stroke="white" stroke-width="1.5" d="M0,-3.0v7 M-2.5,-0.5L0,-3.0L2.5,-0.5"/>
                </g>
                <g id="arrowLeft" xlink:href="#dirArrow" transform="rotate(270) translate(-36 17)" onmousedown="handlePan(-1,0)">
                  <use xlink:href="#rim" fill="#404040">
                        <set attributeName="fill" to="#808080" begin="arrowLeft.mouseover" end="arrowLeft.mouseout"/>
                  </use>
                  <path fill="none" stroke="white" stroke-width="1.5" d="M0,-3.0v7 M-2.5,-0.5L0,-3.0L2.5,-0.5"/>
                </g>
        </g>
        <svg viewBox="0 0 15 15" width="100%" height="30px" preserveAspectRatio="xMaxYMin meet">
         <g id="arrow_out" transform="scale(0.3 0.3)">
          <a xlink:href="classAxisRaw_acfbcd3fa29b19fdf650e915a01542432_icgraph_org.svg" target="_base">
           <rect id="button" ry="5" rx="5" y="6" x="6" height="38" width="38"
                fill="#f2f5e9" fill-opacity="0.5" stroke="#606060" stroke-width="1.0"/>
           <path id="arrow"
             d="M 11.500037,31.436501 C 11.940474,20.09759 22.043105,11.32322 32.158766,21.979434 L 37.068811,17.246167 C 37.068811,17.246167 37.088388,32 37.088388,32 L 22.160133,31.978069 C 22.160133,31.978069 26.997745,27.140456 26.997745,27.140456 C 18.528582,18.264221 13.291696,25.230495 11.500037,31.436501 z"
             style="fill:#404040;"/>
          </a>
         </g>
        </svg>
</svg>
