<?xml version="1.0" encoding="UTF-8" standalone="no"?>
<!DOCTYPE svg PUBLIC "-//W3C//DTD SVG 1.1//EN"
 "http://www.w3.org/Graphics/SVG/1.1/DTD/svg11.dtd">
<!-- Generated by graphviz version 2.43.0 (0)
 -->
<!-- Title: AxisIp4::setIp4HdrCsum Pages: 1 -->
<svg width="842pt" height="218pt"
 viewBox="0.00 0.00 842.00 218.00" xmlns="http://www.w3.org/2000/svg" xmlns:xlink="http://www.w3.org/1999/xlink">
<g id="graph0" class="graph" transform="scale(1 1) rotate(0) translate(4 214)">
<title>AxisIp4::setIp4HdrCsum</title>
<!-- Node1 -->
<g id="node1" class="node">
<title>Node1</title>
<g id="a_node1"><a xlink:title=" ">
<polygon fill="#bfbfbf" stroke="black" points="700,-95.5 700,-114.5 834,-114.5 834,-95.5 700,-95.5"/>
<text text-anchor="middle" x="767" y="-102.5" font-family="Helvetica,sans-Serif" font-size="10.00">AxisIp4::setIp4HdrCsum</text>
</a>
</g>
</g>
<!-- Node2 -->
<g id="node2" class="node">
<title>Node2</title>
<g id="a_node2"><a xlink:href="group__NTS__ICMP.html#ga9966f6389006fa1f1ef4b06b458b081a" target="_top" xlink:title=" ">
<polygon fill="none" stroke="black" points="527,-152.5 527,-171.5 664,-171.5 664,-152.5 527,-152.5"/>
<text text-anchor="middle" x="595.5" y="-159.5" font-family="Helvetica,sans-Serif" font-size="10.00">pIcmpChecksumChecker</text>
</a>
</g>
</g>
<!-- Node1&#45;&gt;Node2 -->
<g id="edge1" class="edge">
<title>Node1&#45;&gt;Node2</title>
<path fill="none" stroke="midnightblue" d="M732.39,-118.31C712.62,-125.95 687.05,-135.48 664,-143 653.82,-146.32 642.66,-149.61 632.4,-152.49"/>
<polygon fill="midnightblue" stroke="midnightblue" points="733.83,-121.51 741.88,-114.63 731.29,-114.99 733.83,-121.51"/>
</g>
<!-- Node7 -->
<g id="node7" class="node">
<title>Node7</title>
<g id="a_node7"><a xlink:href="group__NTS__UOE.html#ga2bfd00650e9f0cc4d8440d60e013f8be" target="_top" xlink:title=" ">
<polygon fill="none" stroke="black" points="545,-114.5 545,-133.5 646,-133.5 646,-114.5 545,-114.5"/>
<text text-anchor="middle" x="595.5" y="-121.5" font-family="Helvetica,sans-Serif" font-size="10.00">pIp4HeaderAdder</text>
</a>
</g>
</g>
<!-- Node1&#45;&gt;Node7 -->
<g id="edge7" class="edge">
<title>Node1&#45;&gt;Node7</title>
<path fill="none" stroke="midnightblue" d="M689.79,-113.54C674.95,-115.21 659.76,-116.91 646.06,-118.44"/>
<polygon fill="midnightblue" stroke="midnightblue" points="690.43,-116.99 699.98,-112.4 689.65,-110.04 690.43,-116.99"/>
</g>
<!-- Node13 -->
<g id="node13" class="node">
<title>Node13</title>
<g id="a_node13"><a xlink:href="group__NTS__IPTX.html#ga4f448cc228c56c3bf934d8bc0d657e1d" target="_top" xlink:title=" ">
<polygon fill="none" stroke="black" points="540.5,-76.5 540.5,-95.5 650.5,-95.5 650.5,-76.5 540.5,-76.5"/>
<text text-anchor="middle" x="595.5" y="-83.5" font-family="Helvetica,sans-Serif" font-size="10.00">pIpChecksumInsert</text>
</a>
</g>
</g>
<!-- Node1&#45;&gt;Node13 -->
<g id="edge14" class="edge">
<title>Node1&#45;&gt;Node13</title>
<path fill="none" stroke="midnightblue" d="M689.91,-96.47C676.64,-94.98 663.09,-93.46 650.57,-92.06"/>
<polygon fill="midnightblue" stroke="midnightblue" points="689.65,-99.96 699.98,-97.6 690.43,-93.01 689.65,-99.96"/>
</g>
<!-- Node18 -->
<g id="node18" class="node">
<title>Node18</title>
<g id="a_node18"><a xlink:href="group__NTS__TOE.html#ga9cec5277fb0152a5f683ca830e84fc2e" target="_top" xlink:title="IPv4 Header Constructor (Ihc)">
<polygon fill="none" stroke="black" points="534,-33.5 534,-52.5 657,-52.5 657,-33.5 534,-33.5"/>
<text text-anchor="middle" x="595.5" y="-40.5" font-family="Helvetica,sans-Serif" font-size="10.00">pIpHeaderConstructor</text>
</a>
</g>
</g>
<!-- Node1&#45;&gt;Node18 -->
<g id="edge20" class="edge">
<title>Node1&#45;&gt;Node18</title>
<path fill="none" stroke="midnightblue" d="M731,-91.81C711.34,-84.44 686.33,-75.13 664,-67 650.79,-62.19 636.09,-56.95 623.79,-52.6"/>
<polygon fill="midnightblue" stroke="midnightblue" points="729.88,-95.13 740.47,-95.37 732.34,-88.58 729.88,-95.13"/>
</g>
<!-- Node3 -->
<g id="node3" class="node">
<title>Node3</title>
<g id="a_node3"><a xlink:href="group__NTS__ICMP.html#gaa1fbe125ee59fc3f93c7cf0b3dc045a5" target="_top" xlink:title="Main process of the Internet Control Message Protocol (ICMP) Server.">
<polygon fill="none" stroke="black" points="436.5,-152.5 436.5,-171.5 477.5,-171.5 477.5,-152.5 436.5,-152.5"/>
<text text-anchor="middle" x="457" y="-159.5" font-family="Helvetica,sans-Serif" font-size="10.00">icmp</text>
</a>
</g>
</g>
<!-- Node2&#45;&gt;Node3 -->
<g id="edge2" class="edge">
<title>Node2&#45;&gt;Node3</title>
<path fill="none" stroke="midnightblue" d="M516.59,-162C502.15,-162 488.3,-162 477.7,-162"/>
<polygon fill="midnightblue" stroke="midnightblue" points="516.65,-165.5 526.65,-162 516.65,-158.5 516.65,-165.5"/>
</g>
<!-- Node4 -->
<g id="node4" class="node">
<title>Node4</title>
<g id="a_node4"><a xlink:href="group__NTS__ICMP.html#ga3c54cc21d2386d572cf73472661b22d4" target="_top" xlink:title="Top of the Internet Control Message Protocol (ICMP) Server.">
<polygon fill="none" stroke="black" points="325,-152.5 325,-171.5 387,-171.5 387,-152.5 325,-152.5"/>
<text text-anchor="middle" x="356" y="-159.5" font-family="Helvetica,sans-Serif" font-size="10.00">icmp_top</text>
</a>
</g>
</g>
<!-- Node3&#45;&gt;Node4 -->
<g id="edge3" class="edge">
<title>Node3&#45;&gt;Node4</title>
<path fill="none" stroke="midnightblue" d="M426.17,-162C413.79,-162 399.45,-162 387.05,-162"/>
<polygon fill="midnightblue" stroke="midnightblue" points="426.44,-165.5 436.44,-162 426.44,-158.5 426.44,-165.5"/>
</g>
<!-- Node5 -->
<g id="node5" class="node">
<title>Node5</title>
<g id="a_node5"><a xlink:href="group__NTS__ICMP__TEST.html#ga32bc9c115ea573de78b3d47cc1535acb" target="_top" xlink:title="A wrapper for Toplevel of Internet Control Message Protocol (ICMP).">
<polygon fill="none" stroke="black" points="198,-190.5 198,-209.5 289,-209.5 289,-190.5 198,-190.5"/>
<text text-anchor="middle" x="243.5" y="-197.5" font-family="Helvetica,sans-Serif" font-size="10.00">icmp_top_wrap</text>
</a>
</g>
</g>
<!-- Node4&#45;&gt;Node5 -->
<g id="edge4" class="edge">
<title>Node4&#45;&gt;Node5</title>
<path fill="none" stroke="midnightblue" d="M317.28,-174.97C302.56,-180.03 285.98,-185.73 272.37,-190.41"/>
<polygon fill="midnightblue" stroke="midnightblue" points="318.8,-178.15 327.12,-171.59 316.52,-171.53 318.8,-178.15"/>
</g>
<!-- Node6 -->
<g id="node6" class="node">
<title>Node6</title>
<g id="a_node6"><a xlink:href="group__NTS__ICMP__TEST.html#ga0ddf1224851353fc92bfbff6f499fa97" target="_top" xlink:title="Main function.">
<polygon fill="none" stroke="black" points="99,-171.5 99,-190.5 140,-190.5 140,-171.5 99,-171.5"/>
<text text-anchor="middle" x="119.5" y="-178.5" font-family="Helvetica,sans-Serif" font-size="10.00">main</text>
</a>
</g>
</g>
<!-- Node4&#45;&gt;Node6 -->
<g id="edge6" class="edge">
<title>Node4&#45;&gt;Node6</title>
<path fill="none" stroke="midnightblue" d="M314.85,-165.25C264.1,-169.37 178.72,-176.28 140.29,-179.4"/>
<polygon fill="midnightblue" stroke="midnightblue" points="315.14,-168.74 324.82,-164.45 314.57,-161.76 315.14,-168.74"/>
</g>
<!-- Node5&#45;&gt;Node6 -->
<g id="edge5" class="edge">
<title>Node5&#45;&gt;Node6</title>
<path fill="none" stroke="midnightblue" d="M187.83,-191.49C170.76,-188.83 153.02,-186.06 140.04,-184.04"/>
<polygon fill="midnightblue" stroke="midnightblue" points="187.34,-194.95 197.76,-193.03 188.42,-188.04 187.34,-194.95"/>
</g>
<!-- Node8 -->
<g id="node8" class="node">
<title>Node8</title>
<g id="a_node8"><a xlink:href="group__NTS__UOE.html#ga857a71b260dfd52bf76ffdcd4260aeae" target="_top" xlink:title=" ">
<polygon fill="none" stroke="black" points="423,-114.5 423,-133.5 491,-133.5 491,-114.5 423,-114.5"/>
<text text-anchor="middle" x="457" y="-121.5" font-family="Helvetica,sans-Serif" font-size="10.00">pTxEngine</text>
</a>
</g>
</g>
<!-- Node7&#45;&gt;Node8 -->
<g id="edge8" class="edge">
<title>Node7&#45;&gt;Node8</title>
<path fill="none" stroke="midnightblue" d="M534.64,-124C519.75,-124 504.31,-124 491.22,-124"/>
<polygon fill="midnightblue" stroke="midnightblue" points="534.83,-127.5 544.83,-124 534.83,-120.5 534.83,-127.5"/>
</g>
<!-- Node9 -->
<g id="node9" class="node">
<title>Node9</title>
<g id="a_node9"><a xlink:href="group__NTS__UOE.html#ga84101607ce156850e4f7426c8be83a2b" target="_top" xlink:title="Main process of the UDP Offload Engine (UOE).">
<polygon fill="none" stroke="black" points="338.5,-114.5 338.5,-133.5 373.5,-133.5 373.5,-114.5 338.5,-114.5"/>
<text text-anchor="middle" x="356" y="-121.5" font-family="Helvetica,sans-Serif" font-size="10.00">uoe</text>
</a>
</g>
</g>
<!-- Node8&#45;&gt;Node9 -->
<g id="edge9" class="edge">
<title>Node8&#45;&gt;Node9</title>
<path fill="none" stroke="midnightblue" d="M412.43,-124C398.67,-124 384.29,-124 373.63,-124"/>
<polygon fill="midnightblue" stroke="midnightblue" points="412.76,-127.5 422.76,-124 412.76,-120.5 412.76,-127.5"/>
</g>
<!-- Node10 -->
<g id="node10" class="node">
<title>Node10</title>
<g id="a_node10"><a xlink:href="group__NTS__UOE.html#ga5d9bd6d46b41ba8787888e1e6bfb0d41" target="_top" xlink:title="Top of UDP Offload Engine (UOE)">
<polygon fill="none" stroke="black" points="215.5,-114.5 215.5,-133.5 271.5,-133.5 271.5,-114.5 215.5,-114.5"/>
<text text-anchor="middle" x="243.5" y="-121.5" font-family="Helvetica,sans-Serif" font-size="10.00">uoe_top</text>
</a>
</g>
</g>
<!-- Node9&#45;&gt;Node10 -->
<g id="edge10" class="edge">
<title>Node9&#45;&gt;Node10</title>
<path fill="none" stroke="midnightblue" d="M327.81,-124C310.76,-124 288.85,-124 271.77,-124"/>
<polygon fill="midnightblue" stroke="midnightblue" points="328.22,-127.5 338.22,-124 328.22,-120.5 328.22,-127.5"/>
</g>
<!-- Node11 -->
<g id="node11" class="node">
<title>Node11</title>
<g id="a_node11"><a xlink:href="group__NTS__UOE__TEST.html#ga0ddf1224851353fc92bfbff6f499fa97" target="_top" xlink:title="Main function.">
<polygon fill="none" stroke="black" points="0,-95.5 0,-114.5 41,-114.5 41,-95.5 0,-95.5"/>
<text text-anchor="middle" x="20.5" y="-102.5" font-family="Helvetica,sans-Serif" font-size="10.00">main</text>
</a>
</g>
</g>
<!-- Node10&#45;&gt;Node11 -->
<g id="edge11" class="edge">
<title>Node10&#45;&gt;Node11</title>
<path fill="none" stroke="midnightblue" d="M205.24,-120.8C157.86,-116.72 77.78,-109.84 41.02,-106.68"/>
<polygon fill="midnightblue" stroke="midnightblue" points="205.14,-124.3 215.4,-121.67 205.74,-117.33 205.14,-124.3"/>
</g>
<!-- Node12 -->
<g id="node12" class="node">
<title>Node12</title>
<g id="a_node12"><a xlink:href="group__NTS__UOE__TEST.html#ga0bfd8cabf14df12bd23594b44ea70b16" target="_top" xlink:title="A wrapper for the Toplevel of the UDP Offload Engine (UOE)">
<polygon fill="none" stroke="black" points="77,-76.5 77,-95.5 162,-95.5 162,-76.5 77,-76.5"/>
<text text-anchor="middle" x="119.5" y="-83.5" font-family="Helvetica,sans-Serif" font-size="10.00">uoe_top_wrap</text>
</a>
</g>
</g>
<!-- Node10&#45;&gt;Node12 -->
<g id="edge12" class="edge">
<title>Node10&#45;&gt;Node12</title>
<path fill="none" stroke="midnightblue" d="M205.63,-112.52C188.3,-107.12 167.87,-100.75 151.37,-95.62"/>
<polygon fill="midnightblue" stroke="midnightblue" points="204.84,-115.93 215.42,-115.57 206.92,-109.25 204.84,-115.93"/>
</g>
<!-- Node12&#45;&gt;Node11 -->
<g id="edge13" class="edge">
<title>Node12&#45;&gt;Node11</title>
<path fill="none" stroke="midnightblue" d="M66.83,-96.12C57.64,-97.92 48.61,-99.69 41.05,-101.17"/>
<polygon fill="midnightblue" stroke="midnightblue" points="67.66,-99.53 76.8,-94.17 66.31,-92.66 67.66,-99.53"/>
</g>
<!-- Node14 -->
<g id="node14" class="node">
<title>Node14</title>
<g id="a_node14"><a xlink:href="group__NTS__IPTX.html#ga6dcaac4c2683261302afd8dcc396cf15" target="_top" xlink:title="Main process of the IP Transmitter Handler (IPTX).">
<polygon fill="none" stroke="black" points="439.5,-76.5 439.5,-95.5 474.5,-95.5 474.5,-76.5 439.5,-76.5"/>
<text text-anchor="middle" x="457" y="-83.5" font-family="Helvetica,sans-Serif" font-size="10.00">iptx</text>
</a>
</g>
</g>
<!-- Node13&#45;&gt;Node14 -->
<g id="edge15" class="edge">
<title>Node13&#45;&gt;Node14</title>
<path fill="none" stroke="midnightblue" d="M530.14,-86C509.6,-86 488.58,-86 474.57,-86"/>
<polygon fill="midnightblue" stroke="midnightblue" points="530.16,-89.5 540.16,-86 530.16,-82.5 530.16,-89.5"/>
</g>
<!-- Node15 -->
<g id="node15" class="node">
<title>Node15</title>
<g id="a_node15"><a xlink:href="group__NTS__IPTX.html#gaaad65b0572e24ba52e2672fa55aea23e" target="_top" xlink:title="Top of IP Transmitter Handler (IPTX)">
<polygon fill="none" stroke="black" points="328,-76.5 328,-95.5 384,-95.5 384,-76.5 328,-76.5"/>
<text text-anchor="middle" x="356" y="-83.5" font-family="Helvetica,sans-Serif" font-size="10.00">iptx_top</text>
</a>
</g>
</g>
<!-- Node14&#45;&gt;Node15 -->
<g id="edge16" class="edge">
<title>Node14&#45;&gt;Node15</title>
<path fill="none" stroke="midnightblue" d="M428.85,-86C415.02,-86 398.23,-86 384.36,-86"/>
<polygon fill="midnightblue" stroke="midnightblue" points="429.21,-89.5 439.21,-86 429.21,-82.5 429.21,-89.5"/>
</g>
<!-- Node16 -->
<g id="node16" class="node">
<title>Node16</title>
<g id="a_node16"><a xlink:href="group__NTS__IPTX__TEST.html#ga428ccf7f9d62a0d0b46840f4f543892c" target="_top" xlink:title="A wrapper for the Toplevel of IP the IP Transmitter Handler (IPTX).">
<polygon fill="none" stroke="black" points="200.5,-76.5 200.5,-95.5 286.5,-95.5 286.5,-76.5 200.5,-76.5"/>
<text text-anchor="middle" x="243.5" y="-83.5" font-family="Helvetica,sans-Serif" font-size="10.00">iptx_top_wrap</text>
</a>
</g>
</g>
<!-- Node15&#45;&gt;Node16 -->
<g id="edge17" class="edge">
<title>Node15&#45;&gt;Node16</title>
<path fill="none" stroke="midnightblue" d="M317.93,-86C307.92,-86 297.02,-86 286.75,-86"/>
<polygon fill="midnightblue" stroke="midnightblue" points="317.97,-89.5 327.97,-86 317.97,-82.5 317.97,-89.5"/>
</g>
<!-- Node17 -->
<g id="node17" class="node">
<title>Node17</title>
<g id="a_node17"><a xlink:href="group__NTS__IPTX__TEST.html#ga0ddf1224851353fc92bfbff6f499fa97" target="_top" xlink:title="Main function.">
<polygon fill="none" stroke="black" points="99,-38.5 99,-57.5 140,-57.5 140,-38.5 99,-38.5"/>
<text text-anchor="middle" x="119.5" y="-45.5" font-family="Helvetica,sans-Serif" font-size="10.00">main</text>
</a>
</g>
</g>
<!-- Node15&#45;&gt;Node17 -->
<g id="edge19" class="edge">
<title>Node15&#45;&gt;Node17</title>
<path fill="none" stroke="midnightblue" d="M318.1,-74.19C308.69,-71.51 298.53,-68.9 289,-67 235.73,-56.41 171.72,-51.21 140.12,-49.14"/>
<polygon fill="midnightblue" stroke="midnightblue" points="317.38,-77.63 327.96,-77.1 319.36,-70.92 317.38,-77.63"/>
</g>
<!-- Node16&#45;&gt;Node17 -->
<g id="edge18" class="edge">
<title>Node16&#45;&gt;Node17</title>
<path fill="none" stroke="midnightblue" d="M202.14,-73.43C181.33,-66.95 156.88,-59.33 140.19,-54.13"/>
<polygon fill="midnightblue" stroke="midnightblue" points="201.13,-76.78 211.71,-76.41 203.21,-70.1 201.13,-76.78"/>
</g>
<!-- Node19 -->
<g id="node19" class="node">
<title>Node19</title>
<g id="a_node19"><a xlink:href="group__NTS__TOE.html#gab7ba01372a1e4397ba0ce6d9cbb398eb" target="_top" xlink:title="Transmit Engine (TXe)">
<polygon fill="none" stroke="black" points="424.5,-24.5 424.5,-43.5 489.5,-43.5 489.5,-24.5 424.5,-24.5"/>
<text text-anchor="middle" x="457" y="-31.5" font-family="Helvetica,sans-Serif" font-size="10.00">tx_engine</text>
</a>
</g>
</g>
<!-- Node18&#45;&gt;Node19 -->
<g id="edge21" class="edge">
<title>Node18&#45;&gt;Node19</title>
<path fill="none" stroke="midnightblue" d="M523.79,-38.34C511.83,-37.55 499.97,-36.77 489.68,-36.09"/>
<polygon fill="midnightblue" stroke="midnightblue" points="523.63,-41.83 533.83,-39 524.09,-34.85 523.63,-41.83"/>
</g>
<!-- Node20 -->
<g id="node20" class="node">
<title>Node20</title>
<g id="a_node20"><a xlink:href="group__NTS__TOE.html#ga1d48efdcf37aa3803a7f7444fe485c9f" target="_top" xlink:title="Main process of the TCP Offload Engine (TOE0.">
<polygon fill="none" stroke="black" points="340,-5.5 340,-24.5 372,-24.5 372,-5.5 340,-5.5"/>
<text text-anchor="middle" x="356" y="-12.5" font-family="Helvetica,sans-Serif" font-size="10.00">toe</text>
</a>
</g>
</g>
<!-- Node19&#45;&gt;Node20 -->
<g id="edge22" class="edge">
<title>Node19&#45;&gt;Node20</title>
<path fill="none" stroke="midnightblue" d="M414.24,-25.99C399.23,-23.11 383.26,-20.04 372,-17.88"/>
<polygon fill="midnightblue" stroke="midnightblue" points="413.92,-29.49 424.4,-27.94 415.24,-22.61 413.92,-29.49"/>
</g>
<!-- Node21 -->
<g id="node21" class="node">
<title>Node21</title>
<g id="a_node21"><a xlink:href="group__NTS__TOE.html#gab3d23260a8a037543d01f716091df7e8" target="_top" xlink:title="Top of TCP Offload Engine (TOE)">
<polygon fill="none" stroke="black" points="217,-0.5 217,-19.5 270,-19.5 270,-0.5 217,-0.5"/>
<text text-anchor="middle" x="243.5" y="-7.5" font-family="Helvetica,sans-Serif" font-size="10.00">toe_top</text>
</a>
</g>
</g>
<!-- Node20&#45;&gt;Node21 -->
<g id="edge23" class="edge">
<title>Node20&#45;&gt;Node21</title>
<path fill="none" stroke="midnightblue" d="M329.44,-13.84C311.7,-13.04 288.15,-11.98 270.35,-11.17"/>
<polygon fill="midnightblue" stroke="midnightblue" points="329.49,-17.35 339.64,-14.3 329.8,-10.36 329.49,-17.35"/>
</g>
<!-- Node22 -->
<g id="node22" class="node">
<title>Node22</title>
<g id="a_node22"><a xlink:href="group__NTS__TOE__TEST.html#gae95a90fdba9993f0d4e2f27cd94f22e2" target="_top" xlink:title="A wrapper for the Toplevel of the TCP Offload Engine (TOE).">
<polygon fill="none" stroke="black" points="78,-0.5 78,-19.5 161,-19.5 161,-0.5 78,-0.5"/>
<text text-anchor="middle" x="119.5" y="-7.5" font-family="Helvetica,sans-Serif" font-size="10.00">toe_top_wrap</text>
</a>
</g>
</g>
<!-- Node21&#45;&gt;Node22 -->
<g id="edge24" class="edge">
<title>Node21&#45;&gt;Node22</title>
<path fill="none" stroke="midnightblue" d="M206.58,-10C192.4,-10 176.04,-10 161.41,-10"/>
<polygon fill="midnightblue" stroke="midnightblue" points="206.92,-13.5 216.92,-10 206.92,-6.5 206.92,-13.5"/>
</g>
</g>
</svg>
