<?xml version="1.0" encoding="UTF-8" standalone="no"?>
<!DOCTYPE svg PUBLIC "-//W3C//DTD SVG 1.1//EN"
 "http://www.w3.org/Graphics/SVG/1.1/DTD/svg11.dtd">
<!-- Generated by graphviz version 2.43.0 (0)
 -->
<!-- Title: SimIp4Packet::SimIp4Packet Pages: 1 -->
<svg width="667pt" height="592pt"
 viewBox="0.00 0.00 667.00 591.50" xmlns="http://www.w3.org/2000/svg" xmlns:xlink="http://www.w3.org/1999/xlink">
<g id="graph0" class="graph" transform="scale(1 1) rotate(0) translate(4 587.5)">
<title>SimIp4Packet::SimIp4Packet</title>
<!-- Node1 -->
<g id="node1" class="node">
<title>Node1</title>
<g id="a_node1"><a xlink:title=" ">
<polygon fill="#bfbfbf" stroke="black" points="0,-291 0,-310 153,-310 153,-291 0,-291"/>
<text text-anchor="middle" x="76.5" y="-298" font-family="Helvetica,sans-Serif" font-size="10.00">SimIp4Packet::SimIp4Packet</text>
</a>
</g>
</g>
<!-- Node2 -->
<g id="node2" class="node">
<title>Node2</title>
<g id="a_node2"><a xlink:href="classSimIp4Packet.html#a70a68ca1b6d7a414250c3e0d1fe0d941" target="_top" xlink:title=" ">
<polygon fill="none" stroke="black" points="217.5,-564 217.5,-583 336.5,-583 336.5,-564 217.5,-564"/>
<text text-anchor="middle" x="277" y="-571" font-family="Helvetica,sans-Serif" font-size="10.00">SimIp4Packet::length</text>
</a>
</g>
</g>
<!-- Node1&#45;&gt;Node2 -->
<g id="edge1" class="edge">
<title>Node1&#45;&gt;Node2</title>
<path fill="none" stroke="midnightblue" d="M78.63,-310.17C83.6,-348.04 107.02,-487.38 189,-554.5 194.59,-559.08 201.04,-562.62 207.85,-565.35"/>
<polygon fill="midnightblue" stroke="midnightblue" points="206.72,-568.66 217.31,-568.58 208.99,-562.04 206.72,-568.66"/>
</g>
<!-- Node3 -->
<g id="node3" class="node">
<title>Node3</title>
<g id="a_node3"><a xlink:href="group__NTS.html#ga322539a2726973fd6ecf61d26e6ccbf8" target="_top" xlink:title="A function to set a number of &#39;1&#39; in an 8&#45;bit field. It is used here to set the number of valid bytes...">
<polygon fill="none" stroke="black" points="234,-526 234,-545 320,-545 320,-526 234,-526"/>
<text text-anchor="middle" x="277" y="-533" font-family="Helvetica,sans-Serif" font-size="10.00">lenToLE_tKeep</text>
</a>
</g>
</g>
<!-- Node1&#45;&gt;Node3 -->
<g id="edge2" class="edge">
<title>Node1&#45;&gt;Node3</title>
<path fill="none" stroke="midnightblue" d="M79.42,-310.13C86.75,-344.31 116.35,-460.74 189,-516.5 199.06,-524.22 211.62,-528.95 224.03,-531.8"/>
<polygon fill="midnightblue" stroke="midnightblue" points="223.42,-535.25 233.9,-533.71 224.75,-528.38 223.42,-535.25"/>
</g>
<!-- Node4 -->
<g id="node4" class="node">
<title>Node4</title>
<g id="a_node4"><a xlink:href="classSimIp4Packet.html#a86f15f4253811fa2ef07730858a9f372" target="_top" xlink:title=" ">
<polygon fill="none" stroke="black" points="206,-488 206,-507 348,-507 348,-488 206,-488"/>
<text text-anchor="middle" x="277" y="-495" font-family="Helvetica,sans-Serif" font-size="10.00">SimIp4Packet::pushChunk</text>
</a>
</g>
</g>
<!-- Node1&#45;&gt;Node4 -->
<g id="edge3" class="edge">
<title>Node1&#45;&gt;Node4</title>
<path fill="none" stroke="midnightblue" d="M80.5,-310.1C90.47,-340.26 125.48,-433.81 189,-478.5 191.72,-480.41 194.59,-482.14 197.58,-483.69"/>
<polygon fill="midnightblue" stroke="midnightblue" points="196.28,-486.95 206.83,-487.87 199.16,-480.57 196.28,-486.95"/>
</g>
<!-- Node8 -->
<g id="node8" class="node">
<title>Node8</title>
<g id="a_node8"><a xlink:href="classSimIp4Packet.html#a59b96a58de981f386e092e3c522f5085" target="_top" xlink:title=" ">
<polygon fill="none" stroke="black" points="208,-450 208,-469 346,-469 346,-450 208,-450"/>
<text text-anchor="middle" x="277" y="-457" font-family="Helvetica,sans-Serif" font-size="10.00">SimIp4Packet::setIpFlags</text>
</a>
</g>
</g>
<!-- Node1&#45;&gt;Node8 -->
<g id="edge7" class="edge">
<title>Node1&#45;&gt;Node8</title>
<path fill="none" stroke="midnightblue" d="M82.23,-310.09C95.33,-335.59 134.75,-405.46 189,-439.5 193.13,-442.09 197.56,-444.35 202.15,-446.31"/>
<polygon fill="midnightblue" stroke="midnightblue" points="201.18,-449.69 211.77,-449.95 203.65,-443.14 201.18,-449.69"/>
</g>
<!-- Node9 -->
<g id="node9" class="node">
<title>Node9</title>
<g id="a_node9"><a xlink:href="classSimIp4Packet.html#a3fa1b5f18808979965641f083d7af6c8" target="_top" xlink:title=" ">
<polygon fill="none" stroke="black" points="198,-400.5 198,-430.5 356,-430.5 356,-400.5 198,-400.5"/>
<text text-anchor="start" x="206" y="-418.5" font-family="Helvetica,sans-Serif" font-size="10.00">SimIp4Packet::setIpFragment</text>
<text text-anchor="middle" x="277" y="-407.5" font-family="Helvetica,sans-Serif" font-size="10.00">Offset</text>
</a>
</g>
</g>
<!-- Node1&#45;&gt;Node9 -->
<g id="edge8" class="edge">
<title>Node1&#45;&gt;Node9</title>
<path fill="none" stroke="midnightblue" d="M86.69,-310.15C104.66,-328.45 146.4,-368.35 189,-390.5 193.31,-392.74 197.84,-394.8 202.48,-396.7"/>
<polygon fill="midnightblue" stroke="midnightblue" points="201.53,-400.08 212.12,-400.36 204.02,-393.54 201.53,-400.08"/>
</g>
<!-- Node10 -->
<g id="node10" class="node">
<title>Node10</title>
<g id="a_node10"><a xlink:href="classSimIp4Packet.html#a787c086273fb3a74b132362f7358bbe8" target="_top" xlink:title=" ">
<polygon fill="none" stroke="black" points="203.5,-351.5 203.5,-381.5 350.5,-381.5 350.5,-351.5 203.5,-351.5"/>
<text text-anchor="start" x="211.5" y="-369.5" font-family="Helvetica,sans-Serif" font-size="10.00">SimIp4Packet::setIpHeader</text>
<text text-anchor="middle" x="277" y="-358.5" font-family="Helvetica,sans-Serif" font-size="10.00">Checksum</text>
</a>
</g>
</g>
<!-- Node1&#45;&gt;Node10 -->
<g id="edge9" class="edge">
<title>Node1&#45;&gt;Node10</title>
<path fill="none" stroke="midnightblue" d="M102.12,-310.14C124.59,-318.8 158.81,-331.63 189,-341.5 196.17,-343.84 203.7,-346.19 211.22,-348.45"/>
<polygon fill="midnightblue" stroke="midnightblue" points="210.47,-351.88 221.05,-351.37 212.46,-345.17 210.47,-351.88"/>
</g>
<!-- Node11 -->
<g id="node11" class="node">
<title>Node11</title>
<g id="a_node11"><a xlink:href="classSimIp4Packet.html#ac633b2741e11e0dbd786f3c00f646199" target="_top" xlink:title=" ">
<polygon fill="none" stroke="black" points="189,-313 189,-332 365,-332 365,-313 189,-313"/>
<text text-anchor="middle" x="277" y="-320" font-family="Helvetica,sans-Serif" font-size="10.00">SimIp4Packet::setIpIdentification</text>
</a>
</g>
</g>
<!-- Node1&#45;&gt;Node11 -->
<g id="edge10" class="edge">
<title>Node1&#45;&gt;Node11</title>
<path fill="none" stroke="midnightblue" d="M153.11,-308.88C161.87,-309.85 170.88,-310.85 179.87,-311.85"/>
<polygon fill="midnightblue" stroke="midnightblue" points="179.65,-315.34 189.98,-312.97 180.43,-308.39 179.65,-315.34"/>
</g>
<!-- Node12 -->
<g id="node12" class="node">
<title>Node12</title>
<g id="a_node12"><a xlink:href="classSimIp4Packet.html#a56fab32e854d8a70346e9a66443946e7" target="_top" xlink:title=" ">
<polygon fill="none" stroke="black" points="202,-263.5 202,-293.5 352,-293.5 352,-263.5 202,-263.5"/>
<text text-anchor="start" x="210" y="-281.5" font-family="Helvetica,sans-Serif" font-size="10.00">SimIp4Packet::setIpInternet</text>
<text text-anchor="middle" x="277" y="-270.5" font-family="Helvetica,sans-Serif" font-size="10.00">HeaderLength</text>
</a>
</g>
</g>
<!-- Node1&#45;&gt;Node12 -->
<g id="edge11" class="edge">
<title>Node1&#45;&gt;Node12</title>
<path fill="none" stroke="midnightblue" d="M153.11,-292.12C165.73,-290.72 178.9,-289.26 191.72,-287.84"/>
<polygon fill="midnightblue" stroke="midnightblue" points="192.36,-291.29 201.91,-286.71 191.59,-284.33 192.36,-291.29"/>
</g>
<!-- Node13 -->
<g id="node13" class="node">
<title>Node13</title>
<g id="a_node13"><a xlink:href="classSimIp4Packet.html#aaca8ff471b4dc7e4edde8da73a4486ac" target="_top" xlink:title=" ">
<polygon fill="none" stroke="black" points="201,-225 201,-244 353,-244 353,-225 201,-225"/>
<text text-anchor="middle" x="277" y="-232" font-family="Helvetica,sans-Serif" font-size="10.00">SimIp4Packet::setIpProtocol</text>
</a>
</g>
</g>
<!-- Node1&#45;&gt;Node13 -->
<g id="edge12" class="edge">
<title>Node1&#45;&gt;Node13</title>
<path fill="none" stroke="midnightblue" d="M97.23,-290.88C119.19,-280.47 155.96,-263.97 189,-253.5 197.24,-250.89 206.04,-248.51 214.75,-246.39"/>
<polygon fill="midnightblue" stroke="midnightblue" points="215.58,-249.79 224.52,-244.1 213.99,-242.97 215.58,-249.79"/>
</g>
<!-- Node14 -->
<g id="node14" class="node">
<title>Node14</title>
<g id="a_node14"><a xlink:href="classSimIp4Packet.html#a796e0a15f2e541e41dda8ce2c9848cdd" target="_top" xlink:title=" ">
<polygon fill="none" stroke="black" points="193.5,-187 193.5,-206 360.5,-206 360.5,-187 193.5,-187"/>
<text text-anchor="middle" x="277" y="-194" font-family="Helvetica,sans-Serif" font-size="10.00">SimIp4Packet::setIpTimeToLive</text>
</a>
</g>
</g>
<!-- Node1&#45;&gt;Node14 -->
<g id="edge13" class="edge">
<title>Node1&#45;&gt;Node14</title>
<path fill="none" stroke="midnightblue" d="M86.97,-290.9C105.07,-273.12 146.58,-235.12 189,-215.5 194.39,-213.01 200.13,-210.83 205.98,-208.94"/>
<polygon fill="midnightblue" stroke="midnightblue" points="207.3,-212.2 215.9,-206.01 205.32,-205.48 207.3,-212.2"/>
</g>
<!-- Node15 -->
<g id="node15" class="node">
<title>Node15</title>
<g id="a_node15"><a xlink:href="classSimIp4Packet.html#a22a987ba73d98b4f0d78ab8310784b39" target="_top" xlink:title=" ">
<polygon fill="none" stroke="black" points="209.5,-137.5 209.5,-167.5 344.5,-167.5 344.5,-137.5 209.5,-137.5"/>
<text text-anchor="start" x="217.5" y="-155.5" font-family="Helvetica,sans-Serif" font-size="10.00">SimIp4Packet::setIpTotal</text>
<text text-anchor="middle" x="277" y="-144.5" font-family="Helvetica,sans-Serif" font-size="10.00">Length</text>
</a>
</g>
</g>
<!-- Node1&#45;&gt;Node15 -->
<g id="edge14" class="edge">
<title>Node1&#45;&gt;Node15</title>
<path fill="none" stroke="midnightblue" d="M83.47,-290.84C98.33,-267.65 139.34,-208.44 189,-177.5 192.43,-175.36 196.05,-173.41 199.78,-171.61"/>
<polygon fill="midnightblue" stroke="midnightblue" points="201.49,-174.68 209.26,-167.47 198.69,-168.27 201.49,-174.68"/>
</g>
<!-- Node16 -->
<g id="node16" class="node">
<title>Node16</title>
<g id="a_node16"><a xlink:href="classSimIp4Packet.html#a695a136584eaa374449dd52017f99e16" target="_top" xlink:title=" ">
<polygon fill="none" stroke="black" points="204,-88.5 204,-118.5 350,-118.5 350,-88.5 204,-88.5"/>
<text text-anchor="start" x="212" y="-106.5" font-family="Helvetica,sans-Serif" font-size="10.00">SimIp4Packet::setIpTypeOf</text>
<text text-anchor="middle" x="277" y="-95.5" font-family="Helvetica,sans-Serif" font-size="10.00">Service</text>
</a>
</g>
</g>
<!-- Node1&#45;&gt;Node16 -->
<g id="edge15" class="edge">
<title>Node1&#45;&gt;Node16</title>
<path fill="none" stroke="midnightblue" d="M80.84,-290.9C91.55,-261.56 127.96,-172.36 189,-127.5 190.9,-126.11 192.87,-124.79 194.91,-123.55"/>
<polygon fill="midnightblue" stroke="midnightblue" points="197.01,-126.4 204.18,-118.6 193.71,-120.23 197.01,-126.4"/>
</g>
<!-- Node17 -->
<g id="node17" class="node">
<title>Node17</title>
<g id="a_node17"><a xlink:href="classSimIp4Packet.html#a73c79f3410c517dc8fd2f6da102b1578" target="_top" xlink:title=" ">
<polygon fill="none" stroke="black" points="203,-50 203,-69 351,-69 351,-50 203,-50"/>
<text text-anchor="middle" x="277" y="-57" font-family="Helvetica,sans-Serif" font-size="10.00">SimIp4Packet::setIpVersion</text>
</a>
</g>
</g>
<!-- Node1&#45;&gt;Node17 -->
<g id="edge16" class="edge">
<title>Node1&#45;&gt;Node17</title>
<path fill="none" stroke="midnightblue" d="M79.33,-290.61C86.36,-255.5 115.07,-135.9 189,-78.5 191.21,-76.78 193.55,-75.21 195.98,-73.78"/>
<polygon fill="midnightblue" stroke="midnightblue" points="197.79,-76.78 205.14,-69.15 194.64,-70.53 197.79,-76.78"/>
</g>
<!-- Node18 -->
<g id="node18" class="node">
<title>Node18</title>
<g id="a_node18"><a xlink:href="classSimIp4Packet.html#a4d0e036b87c9ecde5c292aa788568753" target="_top" xlink:title=" ">
<polygon fill="none" stroke="black" points="206,-0.5 206,-30.5 348,-30.5 348,-0.5 206,-0.5"/>
<text text-anchor="start" x="214" y="-18.5" font-family="Helvetica,sans-Serif" font-size="10.00">SimIp4Packet::setTcpData</text>
<text text-anchor="middle" x="277" y="-7.5" font-family="Helvetica,sans-Serif" font-size="10.00">Offset</text>
</a>
</g>
</g>
<!-- Node1&#45;&gt;Node18 -->
<g id="edge17" class="edge">
<title>Node1&#45;&gt;Node18</title>
<path fill="none" stroke="midnightblue" d="M78.69,-290.76C83.86,-252.62 107.96,-111.97 189,-40.5 191.48,-38.32 194.13,-36.32 196.92,-34.5"/>
<polygon fill="midnightblue" stroke="midnightblue" points="198.67,-37.53 205.63,-29.55 195.21,-31.45 198.67,-37.53"/>
</g>
<!-- Node5 -->
<g id="node5" class="node">
<title>Node5</title>
<g id="a_node5"><a xlink:href="classAxisRaw.html#acadbd2b7e00e34417c426fa91c8d7c51" target="_top" xlink:title=" ">
<polygon fill="none" stroke="black" points="406,-507 406,-526 503,-526 503,-507 406,-507"/>
<text text-anchor="middle" x="454.5" y="-514" font-family="Helvetica,sans-Serif" font-size="10.00">AxisRaw::getLen</text>
</a>
</g>
</g>
<!-- Node4&#45;&gt;Node5 -->
<g id="edge4" class="edge">
<title>Node4&#45;&gt;Node5</title>
<path fill="none" stroke="midnightblue" d="M348.12,-505.09C363.87,-506.8 380.4,-508.59 395.59,-510.23"/>
<polygon fill="midnightblue" stroke="midnightblue" points="395.54,-513.75 405.86,-511.34 396.29,-506.79 395.54,-513.75"/>
</g>
<!-- Node7 -->
<g id="node7" class="node">
<title>Node7</title>
<g id="a_node7"><a xlink:href="classSimIp4Packet.html#a53b4354e1a627f97899bfce5540c83ef" target="_top" xlink:title=" ">
<polygon fill="none" stroke="black" points="401,-469 401,-488 508,-488 508,-469 401,-469"/>
<text text-anchor="middle" x="454.5" y="-476" font-family="Helvetica,sans-Serif" font-size="10.00">SimIp4Packet::size</text>
</a>
</g>
</g>
<!-- Node4&#45;&gt;Node7 -->
<g id="edge6" class="edge">
<title>Node4&#45;&gt;Node7</title>
<path fill="none" stroke="midnightblue" d="M348.12,-489.91C362.12,-488.39 376.74,-486.81 390.48,-485.32"/>
<polygon fill="midnightblue" stroke="midnightblue" points="391.23,-488.76 400.8,-484.21 390.48,-481.8 391.23,-488.76"/>
</g>
<!-- Node6 -->
<g id="node6" class="node">
<title>Node6</title>
<g id="a_node6"><a xlink:href="classAxisRaw.html#aec8718820338b67381cce084ba407063" target="_top" xlink:title=" ">
<polygon fill="none" stroke="black" points="544,-507 544,-526 659,-526 659,-507 544,-507"/>
<text text-anchor="middle" x="601.5" y="-514" font-family="Helvetica,sans-Serif" font-size="10.00">AxisRaw::keepToLen</text>
</a>
</g>
</g>
<!-- Node5&#45;&gt;Node6 -->
<g id="edge5" class="edge">
<title>Node5&#45;&gt;Node6</title>
<path fill="none" stroke="midnightblue" d="M503.38,-516.5C513.09,-516.5 523.48,-516.5 533.71,-516.5"/>
<polygon fill="midnightblue" stroke="midnightblue" points="533.85,-520 543.85,-516.5 533.85,-513 533.85,-520"/>
</g>
</g>
</svg>
