<?xml version="1.0" encoding="UTF-8" standalone="no"?>
<!DOCTYPE svg PUBLIC "-//W3C//DTD SVG 1.1//EN"
 "http://www.w3.org/Graphics/SVG/1.1/DTD/svg11.dtd">
<!-- Generated by graphviz version 2.43.0 (0)
 -->
<!-- Title: SimIp4Packet::addIpPayload Pages: 1 -->
<svg width="643pt" height="218pt"
 viewBox="0.00 0.00 643.00 218.00" xmlns="http://www.w3.org/2000/svg" xmlns:xlink="http://www.w3.org/1999/xlink">
<g id="graph0" class="graph" transform="scale(1 1) rotate(0) translate(4 214)">
<title>SimIp4Packet::addIpPayload</title>
<!-- Node1 -->
<g id="node1" class="node">
<title>Node1</title>
<g id="a_node1"><a xlink:title="Append the data payload of this packet as an ICMP packet.">
<polygon fill="#bfbfbf" stroke="black" points="0,-95.5 0,-114.5 153,-114.5 153,-95.5 0,-95.5"/>
<text text-anchor="middle" x="76.5" y="-102.5" font-family="Helvetica,sans-Serif" font-size="10.00">SimIp4Packet::addIpPayload</text>
</a>
</g>
</g>
<!-- Node2 -->
<g id="node2" class="node">
<title>Node2</title>
<g id="a_node2"><a xlink:href="classAxisRaw.html#a7034bcf8cf143fb2bb9bfc46e70a7d6b" target="_top" xlink:title=" ">
<polygon fill="none" stroke="black" points="202.5,-190.5 202.5,-209.5 327.5,-209.5 327.5,-190.5 202.5,-190.5"/>
<text text-anchor="middle" x="265" y="-197.5" font-family="Helvetica,sans-Serif" font-size="10.00">AxisRaw::getLE_TData</text>
</a>
</g>
</g>
<!-- Node1&#45;&gt;Node2 -->
<g id="edge1" class="edge">
<title>Node1&#45;&gt;Node2</title>
<path fill="none" stroke="midnightblue" d="M88.73,-114.67C107.97,-130.75 149.06,-163.01 189,-181 194.41,-183.44 200.19,-185.6 206.05,-187.51"/>
<polygon fill="midnightblue" stroke="midnightblue" points="205.35,-190.95 215.94,-190.49 207.37,-184.25 205.35,-190.95"/>
</g>
<!-- Node3 -->
<g id="node3" class="node">
<title>Node3</title>
<g id="a_node3"><a xlink:href="classAxisRaw.html#a4becd0ad3c51e3db2749e888f2f72e31" target="_top" xlink:title=" ">
<polygon fill="none" stroke="black" points="202,-152.5 202,-171.5 328,-171.5 328,-152.5 202,-152.5"/>
<text text-anchor="middle" x="265" y="-159.5" font-family="Helvetica,sans-Serif" font-size="10.00">AxisRaw::getLE_TKeep</text>
</a>
</g>
</g>
<!-- Node1&#45;&gt;Node3 -->
<g id="edge2" class="edge">
<title>Node1&#45;&gt;Node3</title>
<path fill="none" stroke="midnightblue" d="M103.44,-114.5C125.92,-122.58 159.39,-134.22 189,-143 197.05,-145.39 205.65,-147.74 214.04,-149.94"/>
<polygon fill="midnightblue" stroke="midnightblue" points="213.19,-153.33 223.75,-152.44 214.93,-146.56 213.19,-153.33"/>
</g>
<!-- Node4 -->
<g id="node4" class="node">
<title>Node4</title>
<g id="a_node4"><a xlink:href="classAxisRaw.html#af8208752dcbb14911c5fda27d90a0ef4" target="_top" xlink:title=" ">
<polygon fill="none" stroke="black" points="204,-114.5 204,-133.5 326,-133.5 326,-114.5 204,-114.5"/>
<text text-anchor="middle" x="265" y="-121.5" font-family="Helvetica,sans-Serif" font-size="10.00">AxisRaw::getLE_TLast</text>
</a>
</g>
</g>
<!-- Node1&#45;&gt;Node4 -->
<g id="edge3" class="edge">
<title>Node1&#45;&gt;Node4</title>
<path fill="none" stroke="midnightblue" d="M153.09,-112.7C166.52,-114.07 180.47,-115.49 193.75,-116.84"/>
<polygon fill="midnightblue" stroke="midnightblue" points="193.45,-120.33 203.76,-117.86 194.16,-113.37 193.45,-120.33"/>
</g>
<!-- Node5 -->
<g id="node5" class="node">
<title>Node5</title>
<g id="a_node5"><a xlink:href="classSimIcmpPacket.html#abdc87fa3f357b4427942fb727d247dd2" target="_top" xlink:title=" ">
<polygon fill="none" stroke="black" points="192,-76.5 192,-95.5 338,-95.5 338,-76.5 192,-76.5"/>
<text text-anchor="middle" x="265" y="-83.5" font-family="Helvetica,sans-Serif" font-size="10.00">SimIcmpPacket::pullChunk</text>
</a>
</g>
</g>
<!-- Node1&#45;&gt;Node5 -->
<g id="edge4" class="edge">
<title>Node1&#45;&gt;Node5</title>
<path fill="none" stroke="midnightblue" d="M153.09,-97.3C162.5,-96.34 172.17,-95.36 181.68,-94.39"/>
<polygon fill="midnightblue" stroke="midnightblue" points="182.33,-97.84 191.93,-93.34 181.62,-90.87 182.33,-97.84"/>
</g>
<!-- Node8 -->
<g id="node8" class="node">
<title>Node8</title>
<g id="a_node8"><a xlink:href="classSimIp4Packet.html#a86f15f4253811fa2ef07730858a9f372" target="_top" xlink:title=" ">
<polygon fill="none" stroke="black" points="194,-38.5 194,-57.5 336,-57.5 336,-38.5 194,-38.5"/>
<text text-anchor="middle" x="265" y="-45.5" font-family="Helvetica,sans-Serif" font-size="10.00">SimIp4Packet::pushChunk</text>
</a>
</g>
</g>
<!-- Node1&#45;&gt;Node8 -->
<g id="edge7" class="edge">
<title>Node1&#45;&gt;Node8</title>
<path fill="none" stroke="midnightblue" d="M103.44,-95.5C125.92,-87.42 159.39,-75.78 189,-67 197.05,-64.61 205.65,-62.26 214.04,-60.06"/>
<polygon fill="midnightblue" stroke="midnightblue" points="214.93,-63.44 223.75,-57.56 213.19,-56.67 214.93,-63.44"/>
</g>
<!-- Node10 -->
<g id="node10" class="node">
<title>Node10</title>
<g id="a_node10"><a xlink:href="classSimIp4Packet.html#aaca8ff471b4dc7e4edde8da73a4486ac" target="_top" xlink:title=" ">
<polygon fill="none" stroke="black" points="189,-0.5 189,-19.5 341,-19.5 341,-0.5 189,-0.5"/>
<text text-anchor="middle" x="265" y="-7.5" font-family="Helvetica,sans-Serif" font-size="10.00">SimIp4Packet::setIpProtocol</text>
</a>
</g>
</g>
<!-- Node1&#45;&gt;Node10 -->
<g id="edge10" class="edge">
<title>Node1&#45;&gt;Node10</title>
<path fill="none" stroke="midnightblue" d="M88.73,-95.33C107.97,-79.25 149.06,-46.99 189,-29 194.41,-26.56 200.19,-24.4 206.05,-22.49"/>
<polygon fill="midnightblue" stroke="midnightblue" points="207.37,-25.75 215.94,-19.51 205.35,-19.05 207.37,-25.75"/>
</g>
<!-- Node6 -->
<g id="node6" class="node">
<title>Node6</title>
<g id="a_node6"><a xlink:href="classAxisRaw.html#acadbd2b7e00e34417c426fa91c8d7c51" target="_top" xlink:title=" ">
<polygon fill="none" stroke="black" points="382,-76.5 382,-95.5 479,-95.5 479,-76.5 382,-76.5"/>
<text text-anchor="middle" x="430.5" y="-83.5" font-family="Helvetica,sans-Serif" font-size="10.00">AxisRaw::getLen</text>
</a>
</g>
</g>
<!-- Node5&#45;&gt;Node6 -->
<g id="edge5" class="edge">
<title>Node5&#45;&gt;Node6</title>
<path fill="none" stroke="midnightblue" d="M338.19,-86C349.34,-86 360.73,-86 371.52,-86"/>
<polygon fill="midnightblue" stroke="midnightblue" points="371.65,-89.5 381.65,-86 371.65,-82.5 371.65,-89.5"/>
</g>
<!-- Node7 -->
<g id="node7" class="node">
<title>Node7</title>
<g id="a_node7"><a xlink:href="classAxisRaw.html#aec8718820338b67381cce084ba407063" target="_top" xlink:title=" ">
<polygon fill="none" stroke="black" points="520,-76.5 520,-95.5 635,-95.5 635,-76.5 520,-76.5"/>
<text text-anchor="middle" x="577.5" y="-83.5" font-family="Helvetica,sans-Serif" font-size="10.00">AxisRaw::keepToLen</text>
</a>
</g>
</g>
<!-- Node6&#45;&gt;Node7 -->
<g id="edge6" class="edge">
<title>Node6&#45;&gt;Node7</title>
<path fill="none" stroke="midnightblue" d="M479.38,-86C489.09,-86 499.48,-86 509.71,-86"/>
<polygon fill="midnightblue" stroke="midnightblue" points="509.85,-89.5 519.85,-86 509.85,-82.5 509.85,-89.5"/>
</g>
<!-- Node8&#45;&gt;Node6 -->
<g id="edge8" class="edge">
<title>Node8&#45;&gt;Node6</title>
<path fill="none" stroke="midnightblue" d="M307.26,-57.59C328.93,-62.63 355.68,-68.84 378.63,-74.18"/>
<polygon fill="midnightblue" stroke="midnightblue" points="378.01,-77.63 388.54,-76.48 379.59,-70.81 378.01,-77.63"/>
</g>
<!-- Node9 -->
<g id="node9" class="node">
<title>Node9</title>
<g id="a_node9"><a xlink:href="classSimIp4Packet.html#a53b4354e1a627f97899bfce5540c83ef" target="_top" xlink:title=" ">
<polygon fill="none" stroke="black" points="377,-38.5 377,-57.5 484,-57.5 484,-38.5 377,-38.5"/>
<text text-anchor="middle" x="430.5" y="-45.5" font-family="Helvetica,sans-Serif" font-size="10.00">SimIp4Packet::size</text>
</a>
</g>
</g>
<!-- Node8&#45;&gt;Node9 -->
<g id="edge9" class="edge">
<title>Node8&#45;&gt;Node9</title>
<path fill="none" stroke="midnightblue" d="M336.29,-48C346.31,-48 356.56,-48 366.44,-48"/>
<polygon fill="midnightblue" stroke="midnightblue" points="366.56,-51.5 376.56,-48 366.56,-44.5 366.56,-51.5"/>
</g>
</g>
</svg>
