<?xml version="1.0" encoding="UTF-8" standalone="no"?>
<!DOCTYPE svg PUBLIC "-//W3C//DTD SVG 1.1//EN"
 "http://www.w3.org/Graphics/SVG/1.1/DTD/svg11.dtd">
<!-- Generated by graphviz version 2.43.0 (0)
 -->
<!-- Title: cFSPlib.python_api_client.swagger_client.models.clusters_body.ClustersBody.to_str Pages: 1 -->
<!--zoomable 1596 -->
<svg id="main" version="1.1" xmlns="http://www.w3.org/2000/svg" xmlns:xlink="http://www.w3.org/1999/xlink" xml:space="preserve" onload="init(evt)">
<style type="text/css"><![CDATA[
.edge:hover path { stroke: red; }
.edge:hover polygon { stroke: red; fill: red; }
]]></style>
<script type="text/javascript"><![CDATA[
var edges = document.getElementsByTagName('g');
if (edges && edges.length) {
  for (var i=0;i<edges.length;i++) {
    if (edges[i].id.substr(0,4)=='edge') {
      edges[i].setAttribute('class','edge');
    }
  }
}
]]></script>
        <defs>
                <circle id="rim" cx="0" cy="0" r="7"/>
                <circle id="rim2" cx="0" cy="0" r="3.5"/>
                <g id="zoomPlus">
                        <use xlink:href="#rim" fill="#404040">
                                <set attributeName="fill" to="#808080" begin="zoomplus.mouseover" end="zoomplus.mouseout"/>
                        </use>
                        <path d="M-4,0h8M0,-4v8" fill="none" stroke="white" stroke-width="1.5" pointer-events="none"/>
                </g>
                <g id="zoomMin">
                        <use xlink:href="#rim" fill="#404040">
                                <set attributeName="fill" to="#808080" begin="zoomminus.mouseover" end="zoomminus.mouseout"/>
                        </use>
                        <path d="M-4,0h8" fill="none" stroke="white" stroke-width="1.5" pointer-events="none"/>
                </g>
                <g id="dirArrow">
                        <path fill="none" stroke="white" stroke-width="1.5" d="M0,-3.0v7 M-2.5,-0.5L0,-3.0L2.5,-0.5"/>
                </g>
               <g id="resetDef">
                       <use xlink:href="#rim2" fill="#404040">
                               <set attributeName="fill" to="#808080" begin="reset.mouseover" end="reset.mouseout"/>
                       </use>
               </g>
        </defs>

<script type="text/javascript">
var viewWidth = 514;
var viewHeight = 1596;
var sectionId = 'dynsection-4';
</script>
<script xlink:href="svgpan.js"/>
<svg id="graph" class="graph">
<g id="viewport">
<title>cFSPlib.python_api_client.swagger_client.models.clusters_body.ClustersBody.to_str</title>
<!-- Node1 -->
<g id="node1" class="node">
<title>Node1</title>
<g id="a_node1"><a xlink:title=" ">
<polygon fill="#bfbfbf" stroke="black" points="0,-774 0,-815 206,-815 206,-774 0,-774"/>
<text text-anchor="start" x="8" y="-803" font-family="Helvetica,sans-Serif" font-size="10.00">cFSPlib.python_api</text>
<text text-anchor="start" x="8" y="-792" font-family="Helvetica,sans-Serif" font-size="10.00">_client.swagger_client.models.clusters</text>
<text text-anchor="middle" x="103" y="-781" font-family="Helvetica,sans-Serif" font-size="10.00">_body.ClustersBody.to_str</text>
</a>
</g>
</g>
<!-- Node2 -->
<g id="node2" class="node">
<title>Node2</title>
<g id="a_node2"><a xlink:href="classcFSPlib_1_1python__api__client_1_1swagger__client_1_1models_1_1administration__mantle__logi168f0a51d80725a08a224c580ca4eab6.html#a2e44cec43286af69878a8fdb0d2704b2" target="_top" xlink:title=" ">
<polygon fill="none" stroke="black" points="250.5,-1535.5 250.5,-1587.5 497.5,-1587.5 497.5,-1535.5 250.5,-1535.5"/>
<text text-anchor="start" x="258.5" y="-1575.5" font-family="Helvetica,sans-Serif" font-size="10.00">cFSPlib.python_api</text>
<text text-anchor="start" x="258.5" y="-1564.5" font-family="Helvetica,sans-Serif" font-size="10.00">_client.swagger_client.models.administration</text>
<text text-anchor="start" x="258.5" y="-1553.5" font-family="Helvetica,sans-Serif" font-size="10.00">_mantle_logic_body.AdministrationMantleLogic</text>
<text text-anchor="middle" x="374" y="-1542.5" font-family="Helvetica,sans-Serif" font-size="10.00">Body.to_dict</text>
</a>
</g>
</g>
<!-- Node1&#45;&gt;Node2 -->
<g id="edge1" class="edge">
<title>Node1&#45;&gt;Node2</title>
<path fill="none" stroke="midnightblue" d="M105.01,-815.33C110.67,-923.32 141.83,-1418.55 242,-1526.5 242.76,-1527.32 243.54,-1528.12 244.33,-1528.9"/>
<polygon fill="midnightblue" stroke="midnightblue" points="242.04,-1531.55 251.88,-1535.48 246.64,-1526.27 242.04,-1531.55"/>
</g>
<!-- Node3 -->
<g id="node3" class="node">
<title>Node3</title>
<g id="a_node3"><a xlink:href="classcFSPlib_1_1python__api__client_1_1swagger__client_1_1models_1_1administration__platform__lo7236faec3e459a8c5be8431e1b997ede.html#aa930e0963982b60a68f2217ebd62eba1" target="_top" xlink:title=" ">
<polygon fill="none" stroke="black" points="254.5,-1464.5 254.5,-1516.5 493.5,-1516.5 493.5,-1464.5 254.5,-1464.5"/>
<text text-anchor="start" x="262.5" y="-1504.5" font-family="Helvetica,sans-Serif" font-size="10.00">cFSPlib.python_api</text>
<text text-anchor="start" x="262.5" y="-1493.5" font-family="Helvetica,sans-Serif" font-size="10.00">_client.swagger_client.models.administration</text>
<text text-anchor="start" x="262.5" y="-1482.5" font-family="Helvetica,sans-Serif" font-size="10.00">_platform_logic_body.AdministrationPlatform</text>
<text text-anchor="middle" x="374" y="-1471.5" font-family="Helvetica,sans-Serif" font-size="10.00">LogicBody.to_dict</text>
</a>
</g>
</g>
<!-- Node1&#45;&gt;Node3 -->
<g id="edge2" class="edge">
<title>Node1&#45;&gt;Node3</title>
<path fill="none" stroke="midnightblue" d="M105.48,-815.26C113.13,-916.56 151.31,-1358 242,-1454.5 243.39,-1455.98 244.84,-1457.41 246.34,-1458.77"/>
<polygon fill="midnightblue" stroke="midnightblue" points="244.24,-1461.58 254.21,-1465.14 248.64,-1456.13 244.24,-1461.58"/>
</g>
<!-- Node4 -->
<g id="node4" class="node">
<title>Node4</title>
<g id="a_node4"><a xlink:href="classcFSPlib_1_1python__api__client_1_1swagger__client_1_1models_1_1build__script_1_1BuildScript.html#ad0e292056f849925160b529b0868e73f" target="_top" xlink:title=" ">
<polygon fill="none" stroke="black" points="278.5,-1404 278.5,-1445 469.5,-1445 469.5,-1404 278.5,-1404"/>
<text text-anchor="start" x="286.5" y="-1433" font-family="Helvetica,sans-Serif" font-size="10.00">cFSPlib.python_api</text>
<text text-anchor="start" x="286.5" y="-1422" font-family="Helvetica,sans-Serif" font-size="10.00">_client.swagger_client.models.build</text>
<text text-anchor="middle" x="374" y="-1411" font-family="Helvetica,sans-Serif" font-size="10.00">_script.BuildScript.to_dict</text>
</a>
</g>
</g>
<!-- Node1&#45;&gt;Node4 -->
<g id="edge3" class="edge">
<title>Node1&#45;&gt;Node4</title>
<path fill="none" stroke="midnightblue" d="M105.84,-815.03C114.8,-910.43 156.93,-1309.51 242,-1394.5 249.71,-1402.2 258.96,-1408.09 268.95,-1412.57"/>
<polygon fill="midnightblue" stroke="midnightblue" points="267.71,-1415.85 278.29,-1416.31 270.31,-1409.35 267.71,-1415.85"/>
</g>
<!-- Node5 -->
<g id="node5" class="node">
<title>Node5</title>
<g id="a_node5"><a xlink:href="classcFSPlib_1_1python__api__client_1_1swagger__client_1_1models_1_1cluster_1_1Cluster.html#af6d7e45ca50dac96ffb9c9cddffde96c" target="_top" xlink:title=" ">
<polygon fill="none" stroke="black" points="272.5,-1344 272.5,-1385 475.5,-1385 475.5,-1344 272.5,-1344"/>
<text text-anchor="start" x="280.5" y="-1373" font-family="Helvetica,sans-Serif" font-size="10.00">cFSPlib.python_api</text>
<text text-anchor="start" x="280.5" y="-1362" font-family="Helvetica,sans-Serif" font-size="10.00">_client.swagger_client.models.cluster.</text>
<text text-anchor="middle" x="374" y="-1351" font-family="Helvetica,sans-Serif" font-size="10.00">Cluster.to_dict</text>
</a>
</g>
</g>
<!-- Node1&#45;&gt;Node5 -->
<g id="edge4" class="edge">
<title>Node1&#45;&gt;Node5</title>
<path fill="none" stroke="midnightblue" d="M106.4,-815.05C117.27,-904.53 164.67,-1259.09 242,-1334.5 248.18,-1340.53 255.32,-1345.44 263,-1349.44"/>
<polygon fill="midnightblue" stroke="midnightblue" points="261.69,-1352.69 272.24,-1353.71 264.63,-1346.34 261.69,-1352.69"/>
</g>
<!-- Node6 -->
<g id="node6" class="node">
<title>Node6</title>
<g id="a_node6"><a xlink:href="classcFSPlib_1_1python__api__client_1_1swagger__client_1_1models_1_1cluster__id__node__id__body_1_1ClusterIdNodeIdBody.html#ad1ca6fa563bd9987d1098b2d0ddbabed" target="_top" xlink:title=" ">
<polygon fill="none" stroke="black" points="253,-1284 253,-1325 495,-1325 495,-1284 253,-1284"/>
<text text-anchor="start" x="261" y="-1313" font-family="Helvetica,sans-Serif" font-size="10.00">cFSPlib.python_api</text>
<text text-anchor="start" x="261" y="-1302" font-family="Helvetica,sans-Serif" font-size="10.00">_client.swagger_client.models.cluster</text>
<text text-anchor="middle" x="374" y="-1291" font-family="Helvetica,sans-Serif" font-size="10.00">_id_node_id_body.ClusterIdNodeIdBody.to_dict</text>
</a>
</g>
</g>
<!-- Node1&#45;&gt;Node6 -->
<g id="edge5" class="edge">
<title>Node1&#45;&gt;Node6</title>
<path fill="none" stroke="midnightblue" d="M107.13,-815.27C120.13,-898.77 172.42,-1208.63 242,-1274.5 243.28,-1275.71 244.6,-1276.88 245.96,-1278"/>
<polygon fill="midnightblue" stroke="midnightblue" points="243.95,-1280.87 254.08,-1283.97 248.09,-1275.23 243.95,-1280.87"/>
</g>
<!-- Node7 -->
<g id="node7" class="node">
<title>Node7</title>
<g id="a_node7"><a xlink:href="classcFSPlib_1_1python__api__client_1_1swagger__client_1_1models_1_1clusters__body_1_1ClustersBody.html#a8db8cde3aac212a7e75e4dc470b00466" target="_top" xlink:title=" ">
<polygon fill="none" stroke="black" points="271,-1224 271,-1265 477,-1265 477,-1224 271,-1224"/>
<text text-anchor="start" x="279" y="-1253" font-family="Helvetica,sans-Serif" font-size="10.00">cFSPlib.python_api</text>
<text text-anchor="start" x="279" y="-1242" font-family="Helvetica,sans-Serif" font-size="10.00">_client.swagger_client.models.clusters</text>
<text text-anchor="middle" x="374" y="-1231" font-family="Helvetica,sans-Serif" font-size="10.00">_body.ClustersBody.to_dict</text>
</a>
</g>
</g>
<!-- Node1&#45;&gt;Node7 -->
<g id="edge6" class="edge">
<title>Node1&#45;&gt;Node7</title>
<path fill="none" stroke="midnightblue" d="M104.11,-815.29C105.67,-883.67 120.34,-1103.58 242,-1214.5 247.88,-1219.86 254.52,-1224.33 261.61,-1228.04"/>
<polygon fill="midnightblue" stroke="midnightblue" points="260.27,-1231.27 270.81,-1232.35 263.24,-1224.94 260.27,-1231.27"/>
</g>
<!-- Node8 -->
<g id="node8" class="node">
<title>Node8</title>
<g id="a_node8"><a xlink:href="classcFSPlib_1_1python__api__client_1_1swagger__client_1_1models_1_1image_1_1Image.html#ac15b59cb35d3025925bee33ba3aaa79f" target="_top" xlink:title=" ">
<polygon fill="none" stroke="black" points="273.5,-1164 273.5,-1205 474.5,-1205 474.5,-1164 273.5,-1164"/>
<text text-anchor="start" x="281.5" y="-1193" font-family="Helvetica,sans-Serif" font-size="10.00">cFSPlib.python_api</text>
<text text-anchor="start" x="281.5" y="-1182" font-family="Helvetica,sans-Serif" font-size="10.00">_client.swagger_client.models.image.</text>
<text text-anchor="middle" x="374" y="-1171" font-family="Helvetica,sans-Serif" font-size="10.00">Image.to_dict</text>
</a>
</g>
</g>
<!-- Node1&#45;&gt;Node8 -->
<g id="edge7" class="edge">
<title>Node1&#45;&gt;Node8</title>
<path fill="none" stroke="midnightblue" d="M105.41,-815.38C110.76,-877.39 135.35,-1061.91 242,-1154.5 248.66,-1160.28 256.2,-1165.01 264.23,-1168.86"/>
<polygon fill="midnightblue" stroke="midnightblue" points="262.9,-1172.11 273.47,-1172.86 265.68,-1165.68 262.9,-1172.11"/>
</g>
<!-- Node9 -->
<g id="node9" class="node">
<title>Node9</title>
<g id="a_node9"><a xlink:href="classcFSPlib_1_1python__api__client_1_1swagger__client_1_1models_1_1images__app__logic__body_1_1ImagesAppLogicBody.html#a73f303c4a1b1a73d171347b4a3bb4604" target="_top" xlink:title=" ">
<polygon fill="none" stroke="black" points="254.5,-1104 254.5,-1145 493.5,-1145 493.5,-1104 254.5,-1104"/>
<text text-anchor="start" x="262.5" y="-1133" font-family="Helvetica,sans-Serif" font-size="10.00">cFSPlib.python_api</text>
<text text-anchor="start" x="262.5" y="-1122" font-family="Helvetica,sans-Serif" font-size="10.00">_client.swagger_client.models.images</text>
<text text-anchor="middle" x="374" y="-1111" font-family="Helvetica,sans-Serif" font-size="10.00">_app_logic_body.ImagesAppLogicBody.to_dict</text>
</a>
</g>
</g>
<!-- Node1&#45;&gt;Node9 -->
<g id="edge8" class="edge">
<title>Node1&#45;&gt;Node9</title>
<path fill="none" stroke="midnightblue" d="M107.11,-815.04C116.52,-869.7 149.9,-1019.66 242,-1094.5 243.77,-1095.93 245.59,-1097.3 247.46,-1098.61"/>
<polygon fill="midnightblue" stroke="midnightblue" points="245.62,-1101.59 255.95,-1103.94 249.34,-1095.66 245.62,-1101.59"/>
</g>
<!-- Node10 -->
<g id="node10" class="node">
<title>Node10</title>
<g id="a_node10"><a xlink:href="classcFSPlib_1_1python__api__client_1_1swagger__client_1_1models_1_1images__body_1_1ImagesBody.html#a5554114728bde54cdd776aebee542078" target="_top" xlink:title=" ">
<polygon fill="none" stroke="black" points="272.5,-1044 272.5,-1085 475.5,-1085 475.5,-1044 272.5,-1044"/>
<text text-anchor="start" x="280.5" y="-1073" font-family="Helvetica,sans-Serif" font-size="10.00">cFSPlib.python_api</text>
<text text-anchor="start" x="280.5" y="-1062" font-family="Helvetica,sans-Serif" font-size="10.00">_client.swagger_client.models.images</text>
<text text-anchor="middle" x="374" y="-1051" font-family="Helvetica,sans-Serif" font-size="10.00">_body.ImagesBody.to_dict</text>
</a>
</g>
</g>
<!-- Node1&#45;&gt;Node10 -->
<g id="edge9" class="edge">
<title>Node1&#45;&gt;Node10</title>
<path fill="none" stroke="midnightblue" d="M109.62,-815.02C123.56,-861.86 164.34,-977.04 242,-1034.5 248.4,-1039.23 255.41,-1043.24 262.77,-1046.62"/>
<polygon fill="midnightblue" stroke="midnightblue" points="261.68,-1049.96 272.25,-1050.59 264.38,-1043.5 261.68,-1049.96"/>
</g>
<!-- Node11 -->
<g id="node11" class="node">
<title>Node11</title>
<g id="a_node11"><a xlink:href="classcFSPlib_1_1python__api__client_1_1swagger__client_1_1models_1_1inline__response200_1_1InlineResponse200.html#a66e88896e524555c9eac804f03b4a04b" target="_top" xlink:title=" ">
<polygon fill="none" stroke="black" points="266.5,-984 266.5,-1025 481.5,-1025 481.5,-984 266.5,-984"/>
<text text-anchor="start" x="274.5" y="-1013" font-family="Helvetica,sans-Serif" font-size="10.00">cFSPlib.python_api</text>
<text text-anchor="start" x="274.5" y="-1002" font-family="Helvetica,sans-Serif" font-size="10.00">_client.swagger_client.models.inline</text>
<text text-anchor="middle" x="374" y="-991" font-family="Helvetica,sans-Serif" font-size="10.00">_response200.InlineResponse200.to_dict</text>
</a>
</g>
</g>
<!-- Node1&#45;&gt;Node11 -->
<g id="edge10" class="edge">
<title>Node1&#45;&gt;Node11</title>
<path fill="none" stroke="midnightblue" d="M113.78,-815.26C132.81,-853.24 178.55,-933.75 242,-974.5 246.72,-977.53 251.72,-980.26 256.89,-982.72"/>
<polygon fill="midnightblue" stroke="midnightblue" points="255.8,-986.06 266.36,-986.84 258.59,-979.64 255.8,-986.06"/>
</g>
<!-- Node12 -->
<g id="node12" class="node">
<title>Node12</title>
<g id="a_node12"><a xlink:href="classcFSPlib_1_1python__api__client_1_1swagger__client_1_1models_1_1inline__response2001_1_1InlineResponse2001.html#ad6663b23b7498b71d4ca99c7ebd03029" target="_top" xlink:title=" ">
<polygon fill="none" stroke="black" points="260.5,-924 260.5,-965 487.5,-965 487.5,-924 260.5,-924"/>
<text text-anchor="start" x="268.5" y="-953" font-family="Helvetica,sans-Serif" font-size="10.00">cFSPlib.python_api</text>
<text text-anchor="start" x="268.5" y="-942" font-family="Helvetica,sans-Serif" font-size="10.00">_client.swagger_client.models.inline</text>
<text text-anchor="middle" x="374" y="-931" font-family="Helvetica,sans-Serif" font-size="10.00">_response2001.InlineResponse2001.to_dict</text>
</a>
</g>
</g>
<!-- Node1&#45;&gt;Node12 -->
<g id="edge11" class="edge">
<title>Node1&#45;&gt;Node12</title>
<path fill="none" stroke="midnightblue" d="M121.83,-815.37C146.17,-842.49 192.47,-889.32 242,-914.5 246.03,-916.55 250.2,-918.46 254.46,-920.24"/>
<polygon fill="midnightblue" stroke="midnightblue" points="253.34,-923.56 263.93,-923.94 255.89,-917.04 253.34,-923.56"/>
</g>
<!-- Node13 -->
<g id="node13" class="node">
<title>Node13</title>
<g id="a_node13"><a xlink:href="classcFSPlib_1_1python__api__client_1_1swagger__client_1_1models_1_1inline__response2002_1_1InlineResponse2002.html#a7120aa02a5bd37a0522121898626d7ae" target="_top" xlink:title=" ">
<polygon fill="none" stroke="black" points="260.5,-864 260.5,-905 487.5,-905 487.5,-864 260.5,-864"/>
<text text-anchor="start" x="268.5" y="-893" font-family="Helvetica,sans-Serif" font-size="10.00">cFSPlib.python_api</text>
<text text-anchor="start" x="268.5" y="-882" font-family="Helvetica,sans-Serif" font-size="10.00">_client.swagger_client.models.inline</text>
<text text-anchor="middle" x="374" y="-871" font-family="Helvetica,sans-Serif" font-size="10.00">_response2002.InlineResponse2002.to_dict</text>
</a>
</g>
</g>
<!-- Node1&#45;&gt;Node13 -->
<g id="edge12" class="edge">
<title>Node1&#45;&gt;Node13</title>
<path fill="none" stroke="midnightblue" d="M145.8,-815.09C172.76,-827.76 208.87,-843.61 242,-854.5 249.25,-856.88 256.78,-859.15 264.41,-861.28"/>
<polygon fill="midnightblue" stroke="midnightblue" points="263.54,-864.67 274.1,-863.92 265.37,-857.92 263.54,-864.67"/>
</g>
<!-- Node14 -->
<g id="node14" class="node">
<title>Node14</title>
<g id="a_node14"><a xlink:href="classcFSPlib_1_1python__api__client_1_1swagger__client_1_1models_1_1inline__response2003_1_1InlineResponse2003.html#a9e1663a068774b55c2e94e319635e85a" target="_top" xlink:title=" ">
<polygon fill="none" stroke="black" points="260.5,-804 260.5,-845 487.5,-845 487.5,-804 260.5,-804"/>
<text text-anchor="start" x="268.5" y="-833" font-family="Helvetica,sans-Serif" font-size="10.00">cFSPlib.python_api</text>
<text text-anchor="start" x="268.5" y="-822" font-family="Helvetica,sans-Serif" font-size="10.00">_client.swagger_client.models.inline</text>
<text text-anchor="middle" x="374" y="-811" font-family="Helvetica,sans-Serif" font-size="10.00">_response2003.InlineResponse2003.to_dict</text>
</a>
</g>
</g>
<!-- Node1&#45;&gt;Node14 -->
<g id="edge13" class="edge">
<title>Node1&#45;&gt;Node14</title>
<path fill="none" stroke="midnightblue" d="M206.08,-805.88C220.45,-807.49 235.35,-809.15 250.06,-810.79"/>
<polygon fill="midnightblue" stroke="midnightblue" points="249.88,-814.29 260.2,-811.92 250.65,-807.33 249.88,-814.29"/>
</g>
<!-- Node15 -->
<g id="node15" class="node">
<title>Node15</title>
<g id="a_node15"><a xlink:href="classcFSPlib_1_1python__api__client_1_1swagger__client_1_1models_1_1inline__response2004_1_1InlineResponse2004.html#a4297acc6998c1b7e0d61ed12d9a3ee24" target="_top" xlink:title=" ">
<polygon fill="none" stroke="black" points="260.5,-744 260.5,-785 487.5,-785 487.5,-744 260.5,-744"/>
<text text-anchor="start" x="268.5" y="-773" font-family="Helvetica,sans-Serif" font-size="10.00">cFSPlib.python_api</text>
<text text-anchor="start" x="268.5" y="-762" font-family="Helvetica,sans-Serif" font-size="10.00">_client.swagger_client.models.inline</text>
<text text-anchor="middle" x="374" y="-751" font-family="Helvetica,sans-Serif" font-size="10.00">_response2004.InlineResponse2004.to_dict</text>
</a>
</g>
</g>
<!-- Node1&#45;&gt;Node15 -->
<g id="edge14" class="edge">
<title>Node1&#45;&gt;Node15</title>
<path fill="none" stroke="midnightblue" d="M206.08,-783.12C220.45,-781.51 235.35,-779.85 250.06,-778.21"/>
<polygon fill="midnightblue" stroke="midnightblue" points="250.65,-781.67 260.2,-777.08 249.88,-774.71 250.65,-781.67"/>
</g>
<!-- Node16 -->
<g id="node16" class="node">
<title>Node16</title>
<g id="a_node16"><a xlink:href="classcFSPlib_1_1python__api__client_1_1swagger__client_1_1models_1_1inline__response2005_1_1InlineResponse2005.html#ad46c7545bdf1094cbd707019113737ca" target="_top" xlink:title=" ">
<polygon fill="none" stroke="black" points="260.5,-684 260.5,-725 487.5,-725 487.5,-684 260.5,-684"/>
<text text-anchor="start" x="268.5" y="-713" font-family="Helvetica,sans-Serif" font-size="10.00">cFSPlib.python_api</text>
<text text-anchor="start" x="268.5" y="-702" font-family="Helvetica,sans-Serif" font-size="10.00">_client.swagger_client.models.inline</text>
<text text-anchor="middle" x="374" y="-691" font-family="Helvetica,sans-Serif" font-size="10.00">_response2005.InlineResponse2005.to_dict</text>
</a>
</g>
</g>
<!-- Node1&#45;&gt;Node16 -->
<g id="edge15" class="edge">
<title>Node1&#45;&gt;Node16</title>
<path fill="none" stroke="midnightblue" d="M145.8,-773.91C172.76,-761.24 208.87,-745.39 242,-734.5 249.25,-732.12 256.78,-729.85 264.41,-727.72"/>
<polygon fill="midnightblue" stroke="midnightblue" points="265.37,-731.08 274.1,-725.08 263.54,-724.33 265.37,-731.08"/>
</g>
<!-- Node17 -->
<g id="node17" class="node">
<title>Node17</title>
<g id="a_node17"><a xlink:href="classcFSPlib_1_1python__api__client_1_1swagger__client_1_1models_1_1inline__response2006_1_1InlineResponse2006.html#a5c95ca06fe9c1f2014a8dbe7f8b0a9d0" target="_top" xlink:title=" ">
<polygon fill="none" stroke="black" points="260.5,-624 260.5,-665 487.5,-665 487.5,-624 260.5,-624"/>
<text text-anchor="start" x="268.5" y="-653" font-family="Helvetica,sans-Serif" font-size="10.00">cFSPlib.python_api</text>
<text text-anchor="start" x="268.5" y="-642" font-family="Helvetica,sans-Serif" font-size="10.00">_client.swagger_client.models.inline</text>
<text text-anchor="middle" x="374" y="-631" font-family="Helvetica,sans-Serif" font-size="10.00">_response2006.InlineResponse2006.to_dict</text>
</a>
</g>
</g>
<!-- Node1&#45;&gt;Node17 -->
<g id="edge16" class="edge">
<title>Node1&#45;&gt;Node17</title>
<path fill="none" stroke="midnightblue" d="M121.83,-773.63C146.17,-746.51 192.47,-699.68 242,-674.5 246.03,-672.45 250.2,-670.54 254.46,-668.76"/>
<polygon fill="midnightblue" stroke="midnightblue" points="255.89,-671.96 263.93,-665.06 253.34,-665.44 255.89,-671.96"/>
</g>
<!-- Node18 -->
<g id="node18" class="node">
<title>Node18</title>
<g id="a_node18"><a xlink:href="classcFSPlib_1_1python__api__client_1_1swagger__client_1_1models_1_1instance_1_1Instance.html#aed23dfe041763799abf00baff0255667" target="_top" xlink:title=" ">
<polygon fill="none" stroke="black" points="268,-564 268,-605 480,-605 480,-564 268,-564"/>
<text text-anchor="start" x="276" y="-593" font-family="Helvetica,sans-Serif" font-size="10.00">cFSPlib.python_api</text>
<text text-anchor="start" x="276" y="-582" font-family="Helvetica,sans-Serif" font-size="10.00">_client.swagger_client.models.instance.</text>
<text text-anchor="middle" x="374" y="-571" font-family="Helvetica,sans-Serif" font-size="10.00">Instance.to_dict</text>
</a>
</g>
</g>
<!-- Node1&#45;&gt;Node18 -->
<g id="edge17" class="edge">
<title>Node1&#45;&gt;Node18</title>
<path fill="none" stroke="midnightblue" d="M113.78,-773.74C132.81,-735.76 178.55,-655.25 242,-614.5 247.09,-611.23 252.5,-608.31 258.1,-605.71"/>
<polygon fill="midnightblue" stroke="midnightblue" points="259.87,-608.76 267.7,-601.63 257.13,-602.32 259.87,-608.76"/>
</g>
<!-- Node19 -->
<g id="node19" class="node">
<title>Node19</title>
<g id="a_node19"><a xlink:href="classcFSPlib_1_1python__api__client_1_1swagger__client_1_1models_1_1instance__id__api__gateway__33456c8700113c53c3cfaa915ef28716.html#a4d21c92cd28568b7bcdddcd77c95da7a" target="_top" xlink:title=" ">
<polygon fill="none" stroke="black" points="254.5,-492.5 254.5,-544.5 493.5,-544.5 493.5,-492.5 254.5,-492.5"/>
<text text-anchor="start" x="262.5" y="-532.5" font-family="Helvetica,sans-Serif" font-size="10.00">cFSPlib.python_api</text>
<text text-anchor="start" x="262.5" y="-521.5" font-family="Helvetica,sans-Serif" font-size="10.00">_client.swagger_client.models.instance</text>
<text text-anchor="start" x="262.5" y="-510.5" font-family="Helvetica,sans-Serif" font-size="10.00">_id_api_gateway_body.InstanceIdApiGateway</text>
<text text-anchor="middle" x="374" y="-499.5" font-family="Helvetica,sans-Serif" font-size="10.00">Body.to_dict</text>
</a>
</g>
</g>
<!-- Node1&#45;&gt;Node19 -->
<g id="edge18" class="edge">
<title>Node1&#45;&gt;Node19</title>
<path fill="none" stroke="midnightblue" d="M109.9,-773.87C124.3,-727.29 165.79,-613.48 242,-554.5 244.08,-552.89 246.23,-551.35 248.44,-549.88"/>
<polygon fill="midnightblue" stroke="midnightblue" points="250.48,-552.73 257.21,-544.55 246.85,-546.75 250.48,-552.73"/>
</g>
<!-- Node20 -->
<g id="node20" class="node">
<title>Node20</title>
<g id="a_node20"><a xlink:href="classcFSPlib_1_1python__api__client_1_1swagger__client_1_1models_1_1instance__id__runlevel__body_1_1InstanceIdRunlevelBody.html#acc6834a79dfaafbd099970c0df7d878a" target="_top" xlink:title=" ">
<polygon fill="none" stroke="black" points="244.5,-432 244.5,-473 503.5,-473 503.5,-432 244.5,-432"/>
<text text-anchor="start" x="252.5" y="-461" font-family="Helvetica,sans-Serif" font-size="10.00">cFSPlib.python_api</text>
<text text-anchor="start" x="252.5" y="-450" font-family="Helvetica,sans-Serif" font-size="10.00">_client.swagger_client.models.instance</text>
<text text-anchor="middle" x="374" y="-439" font-family="Helvetica,sans-Serif" font-size="10.00">_id_runlevel_body.InstanceIdRunlevelBody.to_dict</text>
</a>
</g>
</g>
<!-- Node1&#45;&gt;Node20 -->
<g id="edge19" class="edge">
<title>Node1&#45;&gt;Node20</title>
<path fill="none" stroke="midnightblue" d="M106.83,-773.67C115.6,-717.48 147.68,-561.78 242,-483.5 244.08,-481.77 246.25,-480.13 248.48,-478.58"/>
<polygon fill="midnightblue" stroke="midnightblue" points="250.76,-481.29 257.41,-473.04 247.07,-475.34 250.76,-481.29"/>
</g>
<!-- Node21 -->
<g id="node21" class="node">
<title>Node21</title>
<g id="a_node21"><a xlink:href="classcFSPlib_1_1python__api__client_1_1swagger__client_1_1models_1_1instances__body_1_1InstancesBody.html#aed7aad923568e83cd8fff866b77013e1" target="_top" xlink:title=" ">
<polygon fill="none" stroke="black" points="267,-372 267,-413 481,-413 481,-372 267,-372"/>
<text text-anchor="start" x="275" y="-401" font-family="Helvetica,sans-Serif" font-size="10.00">cFSPlib.python_api</text>
<text text-anchor="start" x="275" y="-390" font-family="Helvetica,sans-Serif" font-size="10.00">_client.swagger_client.models.instances</text>
<text text-anchor="middle" x="374" y="-379" font-family="Helvetica,sans-Serif" font-size="10.00">_body.InstancesBody.to_dict</text>
</a>
</g>
</g>
<!-- Node1&#45;&gt;Node21 -->
<g id="edge20" class="edge">
<title>Node1&#45;&gt;Node21</title>
<path fill="none" stroke="midnightblue" d="M105.1,-773.85C109.63,-710.73 132.24,-518.83 242,-422.5 246.83,-418.26 252.14,-414.58 257.77,-411.4"/>
<polygon fill="midnightblue" stroke="midnightblue" points="259.52,-414.44 266.86,-406.79 256.36,-408.19 259.52,-414.44"/>
</g>
<!-- Node22 -->
<g id="node22" class="node">
<title>Node22</title>
<g id="a_node22"><a xlink:href="classcFSPlib_1_1python__api__client_1_1swagger__client_1_1models_1_1instances__instance__id__body_1_1InstancesInstanceIdBody.html#a7dd72793d6126eb9e9aaa591f4cd27a1" target="_top" xlink:title=" ">
<polygon fill="none" stroke="black" points="242,-312 242,-353 506,-353 506,-312 242,-312"/>
<text text-anchor="start" x="250" y="-341" font-family="Helvetica,sans-Serif" font-size="10.00">cFSPlib.python_api</text>
<text text-anchor="start" x="250" y="-330" font-family="Helvetica,sans-Serif" font-size="10.00">_client.swagger_client.models.instances</text>
<text text-anchor="middle" x="374" y="-319" font-family="Helvetica,sans-Serif" font-size="10.00">_instance_id_body.InstancesInstanceIdBody.to_dict</text>
</a>
</g>
</g>
<!-- Node1&#45;&gt;Node22 -->
<g id="edge21" class="edge">
<title>Node1&#45;&gt;Node22</title>
<path fill="none" stroke="midnightblue" d="M103.9,-773.62C104.75,-703.9 117.38,-477.06 242,-362.5 243.3,-361.31 244.64,-360.16 246.01,-359.05"/>
<polygon fill="midnightblue" stroke="midnightblue" points="248.12,-361.84 254.21,-353.17 244.04,-356.15 248.12,-361.84"/>
</g>
<!-- Node23 -->
<g id="node23" class="node">
<title>Node23</title>
<g id="a_node23"><a xlink:href="classcFSPlib_1_1python__api__client_1_1swagger__client_1_1models_1_1node__map_1_1NodeMap.html#a9f8e084f531872bf958a4f2ab0763677" target="_top" xlink:title=" ">
<polygon fill="none" stroke="black" points="278.5,-252 278.5,-293 469.5,-293 469.5,-252 278.5,-252"/>
<text text-anchor="start" x="286.5" y="-281" font-family="Helvetica,sans-Serif" font-size="10.00">cFSPlib.python_api</text>
<text text-anchor="start" x="286.5" y="-270" font-family="Helvetica,sans-Serif" font-size="10.00">_client.swagger_client.models.node</text>
<text text-anchor="middle" x="374" y="-259" font-family="Helvetica,sans-Serif" font-size="10.00">_map.NodeMap.to_dict</text>
</a>
</g>
</g>
<!-- Node1&#45;&gt;Node23 -->
<g id="edge22" class="edge">
<title>Node1&#45;&gt;Node23</title>
<path fill="none" stroke="midnightblue" d="M106.97,-773.79C119.52,-689.09 170.87,-370.27 242,-302.5 249.82,-295.04 259.11,-289.31 269.06,-284.9"/>
<polygon fill="midnightblue" stroke="midnightblue" points="270.36,-288.16 278.37,-281.23 267.78,-281.65 270.36,-288.16"/>
</g>
<!-- Node24 -->
<g id="node24" class="node">
<title>Node24</title>
<g id="a_node24"><a xlink:href="classcFSPlib_1_1python__api__client_1_1swagger__client_1_1models_1_1node__map__inner_1_1NodeMapInner.html#af6d39304bb728e602bb55d3e19d1233f" target="_top" xlink:title=" ">
<polygon fill="none" stroke="black" points="278.5,-192 278.5,-233 469.5,-233 469.5,-192 278.5,-192"/>
<text text-anchor="start" x="286.5" y="-221" font-family="Helvetica,sans-Serif" font-size="10.00">cFSPlib.python_api</text>
<text text-anchor="start" x="286.5" y="-210" font-family="Helvetica,sans-Serif" font-size="10.00">_client.swagger_client.models.node</text>
<text text-anchor="middle" x="374" y="-199" font-family="Helvetica,sans-Serif" font-size="10.00">_map_inner.NodeMapInner.to_dict</text>
</a>
</g>
</g>
<!-- Node1&#45;&gt;Node24 -->
<g id="edge23" class="edge">
<title>Node1&#45;&gt;Node24</title>
<path fill="none" stroke="midnightblue" d="M106.3,-773.81C116.8,-682.86 163.17,-319.78 242,-242.5 249.78,-234.87 259.08,-229.03 269.09,-224.57"/>
<polygon fill="midnightblue" stroke="midnightblue" points="270.45,-227.8 278.46,-220.86 267.87,-221.29 270.45,-227.8"/>
</g>
<!-- Node25 -->
<g id="node25" class="node">
<title>Node25</title>
<g id="a_node25"><a xlink:href="classcFSPlib_1_1python__api__client_1_1swagger__client_1_1models_1_1quota_1_1Quota.html#aa144c533fb9a07e0328cd2c9f8a54e10" target="_top" xlink:title=" ">
<polygon fill="none" stroke="black" points="275,-132 275,-173 473,-173 473,-132 275,-132"/>
<text text-anchor="start" x="283" y="-161" font-family="Helvetica,sans-Serif" font-size="10.00">cFSPlib.python_api</text>
<text text-anchor="start" x="283" y="-150" font-family="Helvetica,sans-Serif" font-size="10.00">_client.swagger_client.models.quota.</text>
<text text-anchor="middle" x="374" y="-139" font-family="Helvetica,sans-Serif" font-size="10.00">Quota.to_dict</text>
</a>
</g>
</g>
<!-- Node1&#45;&gt;Node25 -->
<g id="edge24" class="edge">
<title>Node1&#45;&gt;Node25</title>
<path fill="none" stroke="midnightblue" d="M105.75,-773.89C114.36,-677.18 155.41,-269.38 242,-182.5 248.85,-175.63 256.92,-170.2 265.65,-165.93"/>
<polygon fill="midnightblue" stroke="midnightblue" points="267.18,-169.08 274.95,-161.88 264.39,-162.66 267.18,-169.08"/>
</g>
<!-- Node26 -->
<g id="node26" class="node">
<title>Node26</title>
<g id="a_node26"><a xlink:href="classcFSPlib_1_1python__api__client_1_1swagger__client_1_1models_1_1resource_1_1Resource.html#ab23087e90002e476660d47200211a80e" target="_top" xlink:title=" ">
<polygon fill="none" stroke="black" points="268,-72 268,-113 480,-113 480,-72 268,-72"/>
<text text-anchor="start" x="276" y="-101" font-family="Helvetica,sans-Serif" font-size="10.00">cFSPlib.python_api</text>
<text text-anchor="start" x="276" y="-90" font-family="Helvetica,sans-Serif" font-size="10.00">_client.swagger_client.models.resource.</text>
<text text-anchor="middle" x="374" y="-79" font-family="Helvetica,sans-Serif" font-size="10.00">Resource.to_dict</text>
</a>
</g>
</g>
<!-- Node1&#45;&gt;Node26 -->
<g id="edge25" class="edge">
<title>Node1&#45;&gt;Node26</title>
<path fill="none" stroke="midnightblue" d="M105.3,-773.97C112.16,-671.77 147.6,-219.05 242,-122.5 246.99,-117.4 252.65,-113.09 258.76,-109.45"/>
<polygon fill="midnightblue" stroke="midnightblue" points="260.77,-112.35 268,-104.6 257.52,-106.15 260.77,-112.35"/>
</g>
<!-- Node27 -->
<g id="node27" class="node">
<title>Node27</title>
<g id="a_node27"><a xlink:href="classcFSPlib_1_1python__api__client_1_1swagger__client_1_1models_1_1test__instance__instance__idb21fef29c350bd01bc51bf6a97dd8668.html#aef8ffd853e93db25594577ace055c355" target="_top" xlink:title=" ">
<polygon fill="none" stroke="black" points="266.5,-0.5 266.5,-52.5 481.5,-52.5 481.5,-0.5 266.5,-0.5"/>
<text text-anchor="start" x="274.5" y="-40.5" font-family="Helvetica,sans-Serif" font-size="10.00">cFSPlib.python_api</text>
<text text-anchor="start" x="274.5" y="-29.5" font-family="Helvetica,sans-Serif" font-size="10.00">_client.swagger_client.models.test</text>
<text text-anchor="start" x="274.5" y="-18.5" font-family="Helvetica,sans-Serif" font-size="10.00">_instance_instance_id_body.TestInstance</text>
<text text-anchor="middle" x="374" y="-7.5" font-family="Helvetica,sans-Serif" font-size="10.00">InstanceIdBody.to_dict</text>
</a>
</g>
</g>
<!-- Node1&#45;&gt;Node27 -->
<g id="edge26" class="edge">
<title>Node1&#45;&gt;Node27</title>
<path fill="none" stroke="midnightblue" d="M105.03,-773.68C110.75,-665.76 142.22,-170.81 242,-62.5 246.67,-57.43 251.98,-53.05 257.73,-49.26"/>
<polygon fill="midnightblue" stroke="midnightblue" points="259.59,-52.23 266.43,-44.14 256.04,-46.2 259.59,-52.23"/>
</g>
</g>
</svg>
        <g id="navigator" transform="translate(0 0)" fill="#404254">
                <rect fill="#f2f5e9" fill-opacity="0.5" stroke="#606060" stroke-width=".5" x="0" y="0" width="60" height="60"/>
                <use id="zoomplus" xlink:href="#zoomPlus" x="17" y="9" onmousedown="handleZoom(evt,'in')"/>
                <use id="zoomminus" xlink:href="#zoomMin" x="42" y="9" onmousedown="handleZoom(evt,'out')"/>
                <use id="reset" xlink:href="#resetDef" x="30" y="36" onmousedown="handleReset()"/>
                <g id="arrowUp" xlink:href="#dirArrow" transform="translate(30 24)" onmousedown="handlePan(0,-1)">
                  <use xlink:href="#rim" fill="#404040">
                        <set attributeName="fill" to="#808080" begin="arrowUp.mouseover" end="arrowUp.mouseout"/>
                  </use>
                  <path fill="none" stroke="white" stroke-width="1.5" d="M0,-3.0v7 M-2.5,-0.5L0,-3.0L2.5,-0.5"/>
                </g>
                <g id="arrowRight" xlink:href="#dirArrow" transform="rotate(90) translate(36 -43)" onmousedown="handlePan(1,0)">
                  <use xlink:href="#rim" fill="#404040">
                        <set attributeName="fill" to="#808080" begin="arrowRight.mouseover" end="arrowRight.mouseout"/>
                  </use>
                  <path fill="none" stroke="white" stroke-width="1.5" d="M0,-3.0v7 M-2.5,-0.5L0,-3.0L2.5,-0.5"/>
                </g>
                <g id="arrowDown" xlink:href="#dirArrow" transform="rotate(180) translate(-30 -48)" onmousedown="handlePan(0,1)">
                  <use xlink:href="#rim" fill="#404040">
                        <set attributeName="fill" to="#808080" begin="arrowDown.mouseover" end="arrowDown.mouseout"/>
                  </use>
                  <path fill="none" stroke="white" stroke-width="1.5" d="M0,-3.0v7 M-2.5,-0.5L0,-3.0L2.5,-0.5"/>
                </g>
                <g id="arrowLeft" xlink:href="#dirArrow" transform="rotate(270) translate(-36 17)" onmousedown="handlePan(-1,0)">
                  <use xlink:href="#rim" fill="#404040">
                        <set attributeName="fill" to="#808080" begin="arrowLeft.mouseover" end="arrowLeft.mouseout"/>
                  </use>
                  <path fill="none" stroke="white" stroke-width="1.5" d="M0,-3.0v7 M-2.5,-0.5L0,-3.0L2.5,-0.5"/>
                </g>
        </g>
        <svg viewBox="0 0 15 15" width="100%" height="30px" preserveAspectRatio="xMaxYMin meet">
         <g id="arrow_out" transform="scale(0.3 0.3)">
          <a xlink:href="classcFSPlib_1_1python__api__client_1_1swagger__client_1_1models_1_1clusters__body_1_1ClustersBody_af1564ddb64720f11f874f44024eb7cf5_cgraph_org.svg" target="_base">
           <rect id="button" ry="5" rx="5" y="6" x="6" height="38" width="38"
                fill="#f2f5e9" fill-opacity="0.5" stroke="#606060" stroke-width="1.0"/>
           <path id="arrow"
             d="M 11.500037,31.436501 C 11.940474,20.09759 22.043105,11.32322 32.158766,21.979434 L 37.068811,17.246167 C 37.068811,17.246167 37.088388,32 37.088388,32 L 22.160133,31.978069 C 22.160133,31.978069 26.997745,27.140456 26.997745,27.140456 C 18.528582,18.264221 13.291696,25.230495 11.500037,31.436501 z"
             style="fill:#404040;"/>
          </a>
         </g>
        </svg>
</svg>
