<?xml version="1.0" encoding="UTF-8" standalone="no"?>
<!DOCTYPE svg PUBLIC "-//W3C//DTD SVG 1.1//EN"
 "http://www.w3.org/Graphics/SVG/1.1/DTD/svg11.dtd">
<!-- Generated by graphviz version 2.43.0 (0)
 -->
<!-- Title: SimIp4Packet::addIpPayload Pages: 1 -->
<svg width="694pt" height="826pt"
 viewBox="0.00 0.00 694.00 826.00" xmlns="http://www.w3.org/2000/svg" xmlns:xlink="http://www.w3.org/1999/xlink">
<g id="graph0" class="graph" transform="scale(1 1) rotate(0) translate(4 822)">
<title>SimIp4Packet::addIpPayload</title>
<!-- Node1 -->
<g id="node1" class="node">
<title>Node1</title>
<g id="a_node1"><a xlink:title="Append some data to this packet from a UDP datagram.">
<polygon fill="#bfbfbf" stroke="black" points="0,-399.5 0,-418.5 153,-418.5 153,-399.5 0,-399.5"/>
<text text-anchor="middle" x="76.5" y="-406.5" font-family="Helvetica,sans-Serif" font-size="10.00">SimIp4Packet::addIpPayload</text>
</a>
</g>
</g>
<!-- Node2 -->
<g id="node2" class="node">
<title>Node2</title>
<g id="a_node2"><a xlink:href="classAxisRaw.html#a7034bcf8cf143fb2bb9bfc46e70a7d6b" target="_top" xlink:title=" ">
<polygon fill="none" stroke="black" points="205.5,-798.5 205.5,-817.5 330.5,-817.5 330.5,-798.5 205.5,-798.5"/>
<text text-anchor="middle" x="268" y="-805.5" font-family="Helvetica,sans-Serif" font-size="10.00">AxisRaw::getLE_TData</text>
</a>
</g>
</g>
<!-- Node1&#45;&gt;Node2 -->
<g id="edge1" class="edge">
<title>Node1&#45;&gt;Node2</title>
<path fill="none" stroke="midnightblue" d="M77.11,-418.69C75.76,-466.75 76.36,-681.47 189,-789 191.3,-791.19 193.8,-793.14 196.46,-794.88"/>
<polygon fill="midnightblue" stroke="midnightblue" points="194.94,-798.04 205.4,-799.73 198.28,-791.89 194.94,-798.04"/>
</g>
<!-- Node3 -->
<g id="node3" class="node">
<title>Node3</title>
<g id="a_node3"><a xlink:href="classAxisRaw.html#a4becd0ad3c51e3db2749e888f2f72e31" target="_top" xlink:title=" ">
<polygon fill="none" stroke="black" points="205,-760.5 205,-779.5 331,-779.5 331,-760.5 205,-760.5"/>
<text text-anchor="middle" x="268" y="-767.5" font-family="Helvetica,sans-Serif" font-size="10.00">AxisRaw::getLE_TKeep</text>
</a>
</g>
</g>
<!-- Node1&#45;&gt;Node3 -->
<g id="edge2" class="edge">
<title>Node1&#45;&gt;Node3</title>
<path fill="none" stroke="midnightblue" d="M77.47,-418.63C77.91,-463.68 85.93,-655.5 189,-751 191.16,-753 193.49,-754.8 195.95,-756.41"/>
<polygon fill="midnightblue" stroke="midnightblue" points="194.31,-759.5 204.76,-761.24 197.67,-753.37 194.31,-759.5"/>
</g>
<!-- Node4 -->
<g id="node4" class="node">
<title>Node4</title>
<g id="a_node4"><a xlink:href="classAxisRaw.html#af8208752dcbb14911c5fda27d90a0ef4" target="_top" xlink:title=" ">
<polygon fill="none" stroke="black" points="207,-722.5 207,-741.5 329,-741.5 329,-722.5 207,-722.5"/>
<text text-anchor="middle" x="268" y="-729.5" font-family="Helvetica,sans-Serif" font-size="10.00">AxisRaw::getLE_TLast</text>
</a>
</g>
</g>
<!-- Node1&#45;&gt;Node4 -->
<g id="edge3" class="edge">
<title>Node1&#45;&gt;Node4</title>
<path fill="none" stroke="midnightblue" d="M78.12,-418.68C81.3,-460 99.33,-623.42 189,-708 193.29,-712.05 198.25,-715.41 203.55,-718.21"/>
<polygon fill="midnightblue" stroke="midnightblue" points="202.17,-721.43 212.72,-722.41 205.08,-715.07 202.17,-721.43"/>
</g>
<!-- Node5 -->
<g id="node5" class="node">
<title>Node5</title>
<g id="a_node5"><a xlink:href="classAxisRaw.html#acadbd2b7e00e34417c426fa91c8d7c51" target="_top" xlink:title=" ">
<polygon fill="none" stroke="black" points="410.5,-380.5 410.5,-399.5 507.5,-399.5 507.5,-380.5 410.5,-380.5"/>
<text text-anchor="middle" x="459" y="-387.5" font-family="Helvetica,sans-Serif" font-size="10.00">AxisRaw::getLen</text>
</a>
</g>
</g>
<!-- Node1&#45;&gt;Node5 -->
<g id="edge4" class="edge">
<title>Node1&#45;&gt;Node5</title>
<path fill="none" stroke="midnightblue" d="M98.75,-418.59C120.79,-427.97 156.52,-441.62 189,-447 258.28,-458.48 278.74,-463.5 347,-447 380.16,-438.98 414.54,-419.26 436.08,-405.26"/>
<polygon fill="midnightblue" stroke="midnightblue" points="438.1,-408.12 444.48,-399.67 434.22,-402.29 438.1,-408.12"/>
</g>
<!-- Node7 -->
<g id="node7" class="node">
<title>Node7</title>
<g id="a_node7"><a xlink:href="classAxisRaw.html#a5ae74f8b3ac6d619f88db0522f4ba29f" target="_top" xlink:title=" ">
<polygon fill="none" stroke="black" points="405.5,-684.5 405.5,-703.5 512.5,-703.5 512.5,-684.5 405.5,-684.5"/>
<text text-anchor="middle" x="459" y="-691.5" font-family="Helvetica,sans-Serif" font-size="10.00">AxisRaw::getLenHi</text>
</a>
</g>
</g>
<!-- Node1&#45;&gt;Node7 -->
<g id="edge6" class="edge">
<title>Node1&#45;&gt;Node7</title>
<path fill="none" stroke="midnightblue" d="M78.28,-418.62C82.01,-457.54 101.6,-604.23 189,-668 248.71,-711.57 336.81,-711.36 395.73,-704.75"/>
<polygon fill="midnightblue" stroke="midnightblue" points="396.52,-708.18 406.02,-703.5 395.67,-701.24 396.52,-708.18"/>
</g>
<!-- Node8 -->
<g id="node8" class="node">
<title>Node8</title>
<g id="a_node8"><a xlink:href="classAxisRaw.html#af49ab8944959a3eaeb2632dc63f0dc3b" target="_top" xlink:title=" ">
<polygon fill="none" stroke="black" points="405,-646.5 405,-665.5 513,-665.5 513,-646.5 405,-646.5"/>
<text text-anchor="middle" x="459" y="-653.5" font-family="Helvetica,sans-Serif" font-size="10.00">AxisRaw::getLenLo</text>
</a>
</g>
</g>
<!-- Node1&#45;&gt;Node8 -->
<g id="edge8" class="edge">
<title>Node1&#45;&gt;Node8</title>
<path fill="none" stroke="midnightblue" d="M78.8,-418.53C84.27,-454.55 108.99,-583.05 189,-637 252.53,-679.84 344.79,-675.67 403.06,-667.08"/>
<polygon fill="midnightblue" stroke="midnightblue" points="403.84,-670.51 413.18,-665.5 402.76,-663.59 403.84,-670.51"/>
</g>
<!-- Node9 -->
<g id="node9" class="node">
<title>Node9</title>
<g id="a_node9"><a xlink:href="classAxisRaw.html#ad9de3735705f840155f6df0226230b01" target="_top" xlink:title=" ">
<polygon fill="none" stroke="black" points="208.5,-608.5 208.5,-627.5 327.5,-627.5 327.5,-608.5 208.5,-608.5"/>
<text text-anchor="middle" x="268" y="-615.5" font-family="Helvetica,sans-Serif" font-size="10.00">AxisRaw::getTDataHi</text>
</a>
</g>
</g>
<!-- Node1&#45;&gt;Node9 -->
<g id="edge10" class="edge">
<title>Node1&#45;&gt;Node9</title>
<path fill="none" stroke="midnightblue" d="M80.22,-418.72C89.54,-450.2 123.33,-550.15 189,-599 192.18,-601.37 195.62,-603.44 199.21,-605.26"/>
<polygon fill="midnightblue" stroke="midnightblue" points="197.86,-608.49 208.43,-609.27 200.66,-602.07 197.86,-608.49"/>
</g>
<!-- Node11 -->
<g id="node11" class="node">
<title>Node11</title>
<g id="a_node11"><a xlink:href="classAxisRaw.html#a48f8284ad60d96e2d2764ef2eefc4a64" target="_top" xlink:title=" ">
<polygon fill="none" stroke="black" points="208,-570.5 208,-589.5 328,-589.5 328,-570.5 208,-570.5"/>
<text text-anchor="middle" x="268" y="-577.5" font-family="Helvetica,sans-Serif" font-size="10.00">AxisRaw::getTDataLo</text>
</a>
</g>
</g>
<!-- Node1&#45;&gt;Node11 -->
<g id="edge12" class="edge">
<title>Node1&#45;&gt;Node11</title>
<path fill="none" stroke="midnightblue" d="M81.64,-418.65C93.79,-445.75 132.1,-523.03 189,-561 192.08,-563.05 195.36,-564.89 198.77,-566.52"/>
<polygon fill="midnightblue" stroke="midnightblue" points="197.45,-569.77 208.02,-570.41 200.16,-563.31 197.45,-569.77"/>
</g>
<!-- Node12 -->
<g id="node12" class="node">
<title>Node12</title>
<g id="a_node12"><a xlink:href="classAxisRaw.html#a58b8357553e87b35d4841c9f0bcdb08d" target="_top" xlink:title=" ">
<polygon fill="none" stroke="black" points="208,-532.5 208,-551.5 328,-551.5 328,-532.5 208,-532.5"/>
<text text-anchor="middle" x="268" y="-539.5" font-family="Helvetica,sans-Serif" font-size="10.00">AxisRaw::getTKeepHi</text>
</a>
</g>
</g>
<!-- Node1&#45;&gt;Node12 -->
<g id="edge14" class="edge">
<title>Node1&#45;&gt;Node12</title>
<path fill="none" stroke="midnightblue" d="M84.03,-418.71C99.49,-440.89 140.65,-495.46 189,-523 192.92,-525.23 197.1,-527.21 201.4,-528.95"/>
<polygon fill="midnightblue" stroke="midnightblue" points="200.39,-532.3 210.98,-532.4 202.76,-525.72 200.39,-532.3"/>
</g>
<!-- Node14 -->
<g id="node14" class="node">
<title>Node14</title>
<g id="a_node14"><a xlink:href="classAxisRaw.html#af7dcf20294a3d8853042af971f19c4a6" target="_top" xlink:title=" ">
<polygon fill="none" stroke="black" points="207.5,-494.5 207.5,-513.5 328.5,-513.5 328.5,-494.5 207.5,-494.5"/>
<text text-anchor="middle" x="268" y="-501.5" font-family="Helvetica,sans-Serif" font-size="10.00">AxisRaw::getTKeepLo</text>
</a>
</g>
</g>
<!-- Node1&#45;&gt;Node14 -->
<g id="edge16" class="edge">
<title>Node1&#45;&gt;Node14</title>
<path fill="none" stroke="midnightblue" d="M90.23,-418.73C110.28,-433.67 150.87,-462.39 189,-480 198.36,-484.32 208.7,-488.13 218.7,-491.36"/>
<polygon fill="midnightblue" stroke="midnightblue" points="217.96,-494.79 228.55,-494.4 220.02,-488.1 217.96,-494.79"/>
</g>
<!-- Node15 -->
<g id="node15" class="node">
<title>Node15</title>
<g id="a_node15"><a xlink:href="classAxisRaw.html#a42cd520c9b19f7c2fc6d2fc204cb30b7" target="_top" xlink:title=" ">
<polygon fill="none" stroke="black" points="215,-418.5 215,-437.5 321,-437.5 321,-418.5 215,-418.5"/>
<text text-anchor="middle" x="268" y="-425.5" font-family="Helvetica,sans-Serif" font-size="10.00">AxisRaw::getTLast</text>
</a>
</g>
</g>
<!-- Node1&#45;&gt;Node15 -->
<g id="edge18" class="edge">
<title>Node1&#45;&gt;Node15</title>
<path fill="none" stroke="midnightblue" d="M153.21,-416.59C170.37,-418.31 188.4,-420.12 204.92,-421.78"/>
<polygon fill="midnightblue" stroke="midnightblue" points="204.69,-425.27 214.99,-422.79 205.39,-418.3 204.69,-425.27"/>
</g>
<!-- Node16 -->
<g id="node16" class="node">
<title>Node16</title>
<g id="a_node16"><a xlink:href="classSimIp4Packet.html#a70a68ca1b6d7a414250c3e0d1fe0d941" target="_top" xlink:title=" ">
<polygon fill="none" stroke="black" points="208.5,-380.5 208.5,-399.5 327.5,-399.5 327.5,-380.5 208.5,-380.5"/>
<text text-anchor="middle" x="268" y="-387.5" font-family="Helvetica,sans-Serif" font-size="10.00">SimIp4Packet::length</text>
</a>
</g>
</g>
<!-- Node1&#45;&gt;Node16 -->
<g id="edge19" class="edge">
<title>Node1&#45;&gt;Node16</title>
<path fill="none" stroke="midnightblue" d="M153.21,-401.41C168.12,-399.91 183.69,-398.35 198.35,-396.88"/>
<polygon fill="midnightblue" stroke="midnightblue" points="198.73,-400.36 208.34,-395.88 198.04,-393.4 198.73,-400.36"/>
</g>
<!-- Node17 -->
<g id="node17" class="node">
<title>Node17</title>
<g id="a_node17"><a xlink:href="classSimUdpDatagram.html#a9eb0ec079b8e711a6a056c46948c2806" target="_top" xlink:title=" ">
<polygon fill="none" stroke="black" points="198,-342.5 198,-361.5 338,-361.5 338,-342.5 198,-342.5"/>
<text text-anchor="middle" x="268" y="-349.5" font-family="Helvetica,sans-Serif" font-size="10.00">SimUdpDatagram::length</text>
</a>
</g>
</g>
<!-- Node1&#45;&gt;Node17 -->
<g id="edge20" class="edge">
<title>Node1&#45;&gt;Node17</title>
<path fill="none" stroke="midnightblue" d="M103.42,-399.43C125.89,-391.31 159.35,-379.64 189,-371 197.36,-368.56 206.29,-366.18 215,-363.98"/>
<polygon fill="midnightblue" stroke="midnightblue" points="215.85,-367.37 224.72,-361.57 214.17,-360.58 215.85,-367.37"/>
</g>
<!-- Node18 -->
<g id="node18" class="node">
<title>Node18</title>
<g id="a_node18"><a xlink:href="classSimUdpDatagram.html#a6eea76efd89ac8a77431583cb2ef6b98" target="_top" xlink:title=" ">
<polygon fill="none" stroke="black" points="189,-304.5 189,-323.5 347,-323.5 347,-304.5 189,-304.5"/>
<text text-anchor="middle" x="268" y="-311.5" font-family="Helvetica,sans-Serif" font-size="10.00">SimUdpDatagram::pullChunk</text>
</a>
</g>
</g>
<!-- Node1&#45;&gt;Node18 -->
<g id="edge21" class="edge">
<title>Node1&#45;&gt;Node18</title>
<path fill="none" stroke="midnightblue" d="M88.71,-399.29C107.93,-383.15 148.97,-350.81 189,-333 194.47,-330.57 200.29,-328.42 206.2,-326.52"/>
<polygon fill="midnightblue" stroke="midnightblue" points="207.59,-329.76 216.18,-323.57 205.6,-323.05 207.59,-329.76"/>
</g>
<!-- Node19 -->
<g id="node19" class="node">
<title>Node19</title>
<g id="a_node19"><a xlink:href="classSimIp4Packet.html#a86f15f4253811fa2ef07730858a9f372" target="_top" xlink:title=" ">
<polygon fill="none" stroke="black" points="197,-266.5 197,-285.5 339,-285.5 339,-266.5 197,-266.5"/>
<text text-anchor="middle" x="268" y="-273.5" font-family="Helvetica,sans-Serif" font-size="10.00">SimIp4Packet::pushChunk</text>
</a>
</g>
</g>
<!-- Node1&#45;&gt;Node19 -->
<g id="edge23" class="edge">
<title>Node1&#45;&gt;Node19</title>
<path fill="none" stroke="midnightblue" d="M84.03,-399.29C99.49,-377.11 140.65,-322.54 189,-295 192.92,-292.77 197.1,-290.79 201.4,-289.05"/>
<polygon fill="midnightblue" stroke="midnightblue" points="202.76,-292.28 210.98,-285.6 200.39,-285.7 202.76,-292.28"/>
</g>
<!-- Node21 -->
<g id="node21" class="node">
<title>Node21</title>
<g id="a_node21"><a xlink:href="classSimIp4Packet.html#aaca8ff471b4dc7e4edde8da73a4486ac" target="_top" xlink:title=" ">
<polygon fill="none" stroke="black" points="192,-228.5 192,-247.5 344,-247.5 344,-228.5 192,-228.5"/>
<text text-anchor="middle" x="268" y="-235.5" font-family="Helvetica,sans-Serif" font-size="10.00">SimIp4Packet::setIpProtocol</text>
</a>
</g>
</g>
<!-- Node1&#45;&gt;Node21 -->
<g id="edge26" class="edge">
<title>Node1&#45;&gt;Node21</title>
<path fill="none" stroke="midnightblue" d="M81.64,-399.35C93.79,-372.25 132.1,-294.97 189,-257 192.08,-254.95 195.36,-253.11 198.77,-251.48"/>
<polygon fill="midnightblue" stroke="midnightblue" points="200.16,-254.69 208.02,-247.59 197.45,-248.23 200.16,-254.69"/>
</g>
<!-- Node22 -->
<g id="node22" class="node">
<title>Node22</title>
<g id="a_node22"><a xlink:href="classAxisRaw.html#aa3f30a26f59cb6430ffd9196ab30c6d6" target="_top" xlink:title=" ">
<polygon fill="none" stroke="black" points="205.5,-190.5 205.5,-209.5 330.5,-209.5 330.5,-190.5 205.5,-190.5"/>
<text text-anchor="middle" x="268" y="-197.5" font-family="Helvetica,sans-Serif" font-size="10.00">AxisRaw::setLE_TData</text>
</a>
</g>
</g>
<!-- Node1&#45;&gt;Node22 -->
<g id="edge27" class="edge">
<title>Node1&#45;&gt;Node22</title>
<path fill="none" stroke="midnightblue" d="M80.22,-399.28C89.54,-367.8 123.33,-267.85 189,-219 191.49,-217.15 194.14,-215.47 196.9,-213.96"/>
<polygon fill="midnightblue" stroke="midnightblue" points="198.48,-217.08 206.04,-209.66 195.5,-210.75 198.48,-217.08"/>
</g>
<!-- Node23 -->
<g id="node23" class="node">
<title>Node23</title>
<g id="a_node23"><a xlink:href="classAxisRaw.html#ae8f59ce9fd52536106de4db99df4558e" target="_top" xlink:title=" ">
<polygon fill="none" stroke="black" points="205.5,-152.5 205.5,-171.5 330.5,-171.5 330.5,-152.5 205.5,-152.5"/>
<text text-anchor="middle" x="268" y="-159.5" font-family="Helvetica,sans-Serif" font-size="10.00">AxisRaw::setLE_TKeep</text>
</a>
</g>
</g>
<!-- Node1&#45;&gt;Node23 -->
<g id="edge28" class="edge">
<title>Node1&#45;&gt;Node23</title>
<path fill="none" stroke="midnightblue" d="M79.19,-399.4C85.92,-364.21 114.15,-241.21 189,-181 191.29,-179.16 193.73,-177.49 196.29,-175.98"/>
<polygon fill="midnightblue" stroke="midnightblue" points="197.98,-179.05 205.34,-171.43 194.84,-172.79 197.98,-179.05"/>
</g>
<!-- Node24 -->
<g id="node24" class="node">
<title>Node24</title>
<g id="a_node24"><a xlink:href="classAxisRaw.html#a7fd855df91177afa363d72b3eb17af25" target="_top" xlink:title=" ">
<polygon fill="none" stroke="black" points="207,-114.5 207,-133.5 329,-133.5 329,-114.5 207,-114.5"/>
<text text-anchor="middle" x="268" y="-121.5" font-family="Helvetica,sans-Serif" font-size="10.00">AxisRaw::setLE_TLast</text>
</a>
</g>
</g>
<!-- Node1&#45;&gt;Node24 -->
<g id="edge29" class="edge">
<title>Node1&#45;&gt;Node24</title>
<path fill="none" stroke="midnightblue" d="M78.46,-399.47C82.89,-360.88 104.82,-214.83 189,-143 191.68,-140.71 194.59,-138.69 197.66,-136.91"/>
<polygon fill="midnightblue" stroke="midnightblue" points="199.24,-140.03 206.67,-132.48 196.15,-133.75 199.24,-140.03"/>
</g>
<!-- Node25 -->
<g id="node25" class="node">
<title>Node25</title>
<g id="a_node25"><a xlink:href="classAxisRaw.html#a1a7e2a69edc7b522df061409e3f79441" target="_top" xlink:title=" ">
<polygon fill="none" stroke="black" points="208.5,-76.5 208.5,-95.5 327.5,-95.5 327.5,-76.5 208.5,-76.5"/>
<text text-anchor="middle" x="268" y="-83.5" font-family="Helvetica,sans-Serif" font-size="10.00">AxisRaw::setTDataHi</text>
</a>
</g>
</g>
<!-- Node1&#45;&gt;Node25 -->
<g id="edge30" class="edge">
<title>Node1&#45;&gt;Node25</title>
<path fill="none" stroke="midnightblue" d="M77.92,-399.31C80.29,-357.21 95.51,-188.52 189,-105 192.07,-102.26 195.47,-99.9 199.08,-97.86"/>
<polygon fill="midnightblue" stroke="midnightblue" points="200.88,-100.88 208.43,-93.46 197.89,-94.55 200.88,-100.88"/>
</g>
<!-- Node26 -->
<g id="node26" class="node">
<title>Node26</title>
<g id="a_node26"><a xlink:href="classAxisRaw.html#a9d6431f0204bddaa17277cea807dc804" target="_top" xlink:title=" ">
<polygon fill="none" stroke="black" points="208.5,-38.5 208.5,-57.5 327.5,-57.5 327.5,-38.5 208.5,-38.5"/>
<text text-anchor="middle" x="268" y="-45.5" font-family="Helvetica,sans-Serif" font-size="10.00">AxisRaw::setTKeepHi</text>
</a>
</g>
</g>
<!-- Node1&#45;&gt;Node26 -->
<g id="edge31" class="edge">
<title>Node1&#45;&gt;Node26</title>
<path fill="none" stroke="midnightblue" d="M77.47,-399.37C77.91,-354.32 85.93,-162.5 189,-67 192.02,-64.2 195.38,-61.8 198.96,-59.73"/>
<polygon fill="midnightblue" stroke="midnightblue" points="200.76,-62.75 208.26,-55.27 197.73,-56.44 200.76,-62.75"/>
</g>
<!-- Node27 -->
<g id="node27" class="node">
<title>Node27</title>
<g id="a_node27"><a xlink:href="classAxisRaw.html#a1238c47d46a7d858c542f55797dfc9f2" target="_top" xlink:title=" ">
<polygon fill="none" stroke="black" points="215.5,-0.5 215.5,-19.5 320.5,-19.5 320.5,-0.5 215.5,-0.5"/>
<text text-anchor="middle" x="268" y="-7.5" font-family="Helvetica,sans-Serif" font-size="10.00">AxisRaw::setTLast</text>
</a>
</g>
</g>
<!-- Node1&#45;&gt;Node27 -->
<g id="edge32" class="edge">
<title>Node1&#45;&gt;Node27</title>
<path fill="none" stroke="midnightblue" d="M77.11,-399.31C75.76,-351.25 76.36,-136.53 189,-29 193.76,-24.45 199.43,-20.94 205.49,-18.23"/>
<polygon fill="midnightblue" stroke="midnightblue" points="207.13,-21.35 215.29,-14.6 204.7,-14.79 207.13,-21.35"/>
</g>
<!-- Node6 -->
<g id="node6" class="node">
<title>Node6</title>
<g id="a_node6"><a xlink:href="classAxisRaw.html#aec8718820338b67381cce084ba407063" target="_top" xlink:title=" ">
<polygon fill="none" stroke="black" points="571,-646.5 571,-665.5 686,-665.5 686,-646.5 571,-646.5"/>
<text text-anchor="middle" x="628.5" y="-653.5" font-family="Helvetica,sans-Serif" font-size="10.00">AxisRaw::keepToLen</text>
</a>
</g>
</g>
<!-- Node5&#45;&gt;Node6 -->
<g id="edge5" class="edge">
<title>Node5&#45;&gt;Node6</title>
<path fill="none" stroke="midnightblue" d="M466.54,-399.68C479.71,-419.25 510.29,-464.97 535,-504 565.15,-551.63 599.32,-608.59 616.46,-637.38"/>
<polygon fill="midnightblue" stroke="midnightblue" points="613.65,-639.52 621.77,-646.32 619.67,-635.94 613.65,-639.52"/>
</g>
<!-- Node7&#45;&gt;Node6 -->
<g id="edge7" class="edge">
<title>Node7&#45;&gt;Node6</title>
<path fill="none" stroke="midnightblue" d="M502.27,-684.41C524.57,-679.35 552.12,-673.1 575.7,-667.75"/>
<polygon fill="midnightblue" stroke="midnightblue" points="576.56,-671.15 585.54,-665.52 575.01,-664.32 576.56,-671.15"/>
</g>
<!-- Node8&#45;&gt;Node6 -->
<g id="edge9" class="edge">
<title>Node8&#45;&gt;Node6</title>
<path fill="none" stroke="midnightblue" d="M513.46,-656C528.46,-656 544.96,-656 560.63,-656"/>
<polygon fill="midnightblue" stroke="midnightblue" points="560.79,-659.5 570.79,-656 560.79,-652.5 560.79,-659.5"/>
</g>
<!-- Node10 -->
<g id="node10" class="node">
<title>Node10</title>
<g id="a_node10"><a xlink:href="classAxisRaw.html#a208a8bf67decab3e92139c8afc9aa149" target="_top" xlink:title=" ">
<polygon fill="none" stroke="black" points="404.5,-589.5 404.5,-608.5 513.5,-608.5 513.5,-589.5 404.5,-589.5"/>
<text text-anchor="middle" x="459" y="-596.5" font-family="Helvetica,sans-Serif" font-size="10.00">AxisRaw::getTData</text>
</a>
</g>
</g>
<!-- Node9&#45;&gt;Node10 -->
<g id="edge11" class="edge">
<title>Node9&#45;&gt;Node10</title>
<path fill="none" stroke="midnightblue" d="M327.51,-612.12C348.66,-609.99 372.64,-607.58 394.22,-605.41"/>
<polygon fill="midnightblue" stroke="midnightblue" points="394.67,-608.88 404.27,-604.4 393.97,-601.92 394.67,-608.88"/>
</g>
<!-- Node11&#45;&gt;Node10 -->
<g id="edge13" class="edge">
<title>Node11&#45;&gt;Node10</title>
<path fill="none" stroke="midnightblue" d="M328.02,-585.93C349.06,-588.05 372.84,-590.44 394.26,-592.59"/>
<polygon fill="midnightblue" stroke="midnightblue" points="393.94,-596.08 404.24,-593.6 394.64,-589.11 393.94,-596.08"/>
</g>
<!-- Node13 -->
<g id="node13" class="node">
<title>Node13</title>
<g id="a_node13"><a xlink:href="classAxisRaw.html#acb10d569e10f95bdd0be0af34ce605bd" target="_top" xlink:title=" ">
<polygon fill="none" stroke="black" points="404,-513.5 404,-532.5 514,-532.5 514,-513.5 404,-513.5"/>
<text text-anchor="middle" x="459" y="-520.5" font-family="Helvetica,sans-Serif" font-size="10.00">AxisRaw::getTKeep</text>
</a>
</g>
</g>
<!-- Node12&#45;&gt;Node13 -->
<g id="edge15" class="edge">
<title>Node12&#45;&gt;Node13</title>
<path fill="none" stroke="midnightblue" d="M328.02,-536.07C348.87,-533.97 372.42,-531.6 393.68,-529.47"/>
<polygon fill="midnightblue" stroke="midnightblue" points="394.32,-532.92 403.92,-528.44 393.62,-525.95 394.32,-532.92"/>
</g>
<!-- Node14&#45;&gt;Node13 -->
<g id="edge17" class="edge">
<title>Node14&#45;&gt;Node13</title>
<path fill="none" stroke="midnightblue" d="M328.54,-509.99C349.28,-512.07 372.63,-514.42 393.73,-516.54"/>
<polygon fill="midnightblue" stroke="midnightblue" points="393.59,-520.04 403.89,-517.56 394.29,-513.08 393.59,-520.04"/>
</g>
<!-- Node18&#45;&gt;Node5 -->
<g id="edge22" class="edge">
<title>Node18&#45;&gt;Node5</title>
<path fill="none" stroke="midnightblue" d="M316.15,-323.59C326.45,-326.21 337.2,-329.35 347,-333 378.08,-344.58 411.7,-362.7 433.69,-375.39"/>
<polygon fill="midnightblue" stroke="midnightblue" points="431.96,-378.44 442.36,-380.47 435.5,-372.4 431.96,-378.44"/>
</g>
<!-- Node19&#45;&gt;Node5 -->
<g id="edge24" class="edge">
<title>Node19&#45;&gt;Node5</title>
<path fill="none" stroke="midnightblue" d="M322.65,-285.53C331.04,-288.02 339.43,-291.12 347,-295 386.04,-315 422.98,-351.32 442.85,-372.79"/>
<polygon fill="midnightblue" stroke="midnightblue" points="440.28,-375.18 449.59,-380.23 445.47,-370.47 440.28,-375.18"/>
</g>
<!-- Node20 -->
<g id="node20" class="node">
<title>Node20</title>
<g id="a_node20"><a xlink:href="classSimIp4Packet.html#a53b4354e1a627f97899bfce5540c83ef" target="_top" xlink:title=" ">
<polygon fill="none" stroke="black" points="405.5,-266.5 405.5,-285.5 512.5,-285.5 512.5,-266.5 405.5,-266.5"/>
<text text-anchor="middle" x="459" y="-273.5" font-family="Helvetica,sans-Serif" font-size="10.00">SimIp4Packet::size</text>
</a>
</g>
</g>
<!-- Node19&#45;&gt;Node20 -->
<g id="edge25" class="edge">
<title>Node19&#45;&gt;Node20</title>
<path fill="none" stroke="midnightblue" d="M339.11,-276C357.55,-276 377.32,-276 395.34,-276"/>
<polygon fill="midnightblue" stroke="midnightblue" points="395.44,-279.5 405.44,-276 395.44,-272.5 395.44,-279.5"/>
</g>
<!-- Node28 -->
<g id="node28" class="node">
<title>Node28</title>
<g id="a_node28"><a xlink:href="classAxisRaw.html#a4e8ed9ad2072a6563870f9344c362a4e" target="_top" xlink:title=" ">
<polygon fill="none" stroke="black" points="383,-0.5 383,-19.5 535,-19.5 535,-0.5 383,-0.5"/>
<text text-anchor="middle" x="459" y="-7.5" font-family="Helvetica,sans-Serif" font-size="10.00">AxisRaw::clearUnusedBytes</text>
</a>
</g>
</g>
<!-- Node27&#45;&gt;Node28 -->
<g id="edge33" class="edge">
<title>Node27&#45;&gt;Node28</title>
<path fill="none" stroke="midnightblue" d="M320.65,-10C336.63,-10 354.7,-10 372.35,-10"/>
<polygon fill="midnightblue" stroke="midnightblue" points="372.67,-13.5 382.67,-10 372.67,-6.5 372.67,-13.5"/>
</g>
</g>
</svg>
