<?xml version="1.0" encoding="UTF-8" standalone="no"?>
<!DOCTYPE svg PUBLIC "-//W3C//DTD SVG 1.1//EN"
 "http://www.w3.org/Graphics/SVG/1.1/DTD/svg11.dtd">
<!-- Generated by graphviz version 2.43.0 (0)
 -->
<!-- Title: cFSPlib.python_api_client.swagger_client.models.image.Image.to_str Pages: 1 -->
<!--zoomable 1596 -->
<svg id="main" version="1.1" xmlns="http://www.w3.org/2000/svg" xmlns:xlink="http://www.w3.org/1999/xlink" xml:space="preserve" onload="init(evt)">
<style type="text/css"><![CDATA[
.edge:hover path { stroke: red; }
.edge:hover polygon { stroke: red; fill: red; }
]]></style>
<script type="text/javascript"><![CDATA[
var edges = document.getElementsByTagName('g');
if (edges && edges.length) {
  for (var i=0;i<edges.length;i++) {
    if (edges[i].id.substr(0,4)=='edge') {
      edges[i].setAttribute('class','edge');
    }
  }
}
]]></script>
        <defs>
                <circle id="rim" cx="0" cy="0" r="7"/>
                <circle id="rim2" cx="0" cy="0" r="3.5"/>
                <g id="zoomPlus">
                        <use xlink:href="#rim" fill="#404040">
                                <set attributeName="fill" to="#808080" begin="zoomplus.mouseover" end="zoomplus.mouseout"/>
                        </use>
                        <path d="M-4,0h8M0,-4v8" fill="none" stroke="white" stroke-width="1.5" pointer-events="none"/>
                </g>
                <g id="zoomMin">
                        <use xlink:href="#rim" fill="#404040">
                                <set attributeName="fill" to="#808080" begin="zoomminus.mouseover" end="zoomminus.mouseout"/>
                        </use>
                        <path d="M-4,0h8" fill="none" stroke="white" stroke-width="1.5" pointer-events="none"/>
                </g>
                <g id="dirArrow">
                        <path fill="none" stroke="white" stroke-width="1.5" d="M0,-3.0v7 M-2.5,-0.5L0,-3.0L2.5,-0.5"/>
                </g>
               <g id="resetDef">
                       <use xlink:href="#rim2" fill="#404040">
                               <set attributeName="fill" to="#808080" begin="reset.mouseover" end="reset.mouseout"/>
                       </use>
               </g>
        </defs>

<script type="text/javascript">
var viewWidth = 509;
var viewHeight = 1596;
var sectionId = 'dynsection-6';
</script>
<script xlink:href="svgpan.js"/>
<svg id="graph" class="graph">
<g id="viewport">
<title>cFSPlib.python_api_client.swagger_client.models.image.Image.to_str</title>
<!-- Node1 -->
<g id="node1" class="node">
<title>Node1</title>
<g id="a_node1"><a xlink:title=" ">
<polygon fill="#bfbfbf" stroke="black" points="0,-774 0,-815 201,-815 201,-774 0,-774"/>
<text text-anchor="start" x="8" y="-803" font-family="Helvetica,sans-Serif" font-size="10.00">cFSPlib.python_api</text>
<text text-anchor="start" x="8" y="-792" font-family="Helvetica,sans-Serif" font-size="10.00">_client.swagger_client.models.image.</text>
<text text-anchor="middle" x="100.5" y="-781" font-family="Helvetica,sans-Serif" font-size="10.00">Image.to_str</text>
</a>
</g>
</g>
<!-- Node2 -->
<g id="node2" class="node">
<title>Node2</title>
<g id="a_node2"><a xlink:href="classcFSPlib_1_1python__api__client_1_1swagger__client_1_1models_1_1administration__mantle__logi168f0a51d80725a08a224c580ca4eab6.html#a2e44cec43286af69878a8fdb0d2704b2" target="_top" xlink:title=" ">
<polygon fill="none" stroke="black" points="245.5,-1535.5 245.5,-1587.5 492.5,-1587.5 492.5,-1535.5 245.5,-1535.5"/>
<text text-anchor="start" x="253.5" y="-1575.5" font-family="Helvetica,sans-Serif" font-size="10.00">cFSPlib.python_api</text>
<text text-anchor="start" x="253.5" y="-1564.5" font-family="Helvetica,sans-Serif" font-size="10.00">_client.swagger_client.models.administration</text>
<text text-anchor="start" x="253.5" y="-1553.5" font-family="Helvetica,sans-Serif" font-size="10.00">_mantle_logic_body.AdministrationMantleLogic</text>
<text text-anchor="middle" x="369" y="-1542.5" font-family="Helvetica,sans-Serif" font-size="10.00">Body.to_dict</text>
</a>
</g>
</g>
<!-- Node1&#45;&gt;Node2 -->
<g id="edge1" class="edge">
<title>Node1&#45;&gt;Node2</title>
<path fill="none" stroke="midnightblue" d="M102.44,-815.33C107.7,-923.29 137.07,-1418.45 237,-1526.5 237.76,-1527.32 238.54,-1528.12 239.33,-1528.91"/>
<polygon fill="midnightblue" stroke="midnightblue" points="237.03,-1531.55 246.87,-1535.49 241.64,-1526.28 237.03,-1531.55"/>
</g>
<!-- Node3 -->
<g id="node3" class="node">
<title>Node3</title>
<g id="a_node3"><a xlink:href="classcFSPlib_1_1python__api__client_1_1swagger__client_1_1models_1_1administration__platform__lo7236faec3e459a8c5be8431e1b997ede.html#aa930e0963982b60a68f2217ebd62eba1" target="_top" xlink:title=" ">
<polygon fill="none" stroke="black" points="249.5,-1464.5 249.5,-1516.5 488.5,-1516.5 488.5,-1464.5 249.5,-1464.5"/>
<text text-anchor="start" x="257.5" y="-1504.5" font-family="Helvetica,sans-Serif" font-size="10.00">cFSPlib.python_api</text>
<text text-anchor="start" x="257.5" y="-1493.5" font-family="Helvetica,sans-Serif" font-size="10.00">_client.swagger_client.models.administration</text>
<text text-anchor="start" x="257.5" y="-1482.5" font-family="Helvetica,sans-Serif" font-size="10.00">_platform_logic_body.AdministrationPlatform</text>
<text text-anchor="middle" x="369" y="-1471.5" font-family="Helvetica,sans-Serif" font-size="10.00">LogicBody.to_dict</text>
</a>
</g>
</g>
<!-- Node1&#45;&gt;Node3 -->
<g id="edge2" class="edge">
<title>Node1&#45;&gt;Node3</title>
<path fill="none" stroke="midnightblue" d="M102.9,-815.25C110.14,-916.54 146.56,-1357.91 237,-1454.5 238.42,-1456.02 239.9,-1457.47 241.43,-1458.87"/>
<polygon fill="midnightblue" stroke="midnightblue" points="239.5,-1461.81 249.48,-1465.37 243.9,-1456.36 239.5,-1461.81"/>
</g>
<!-- Node4 -->
<g id="node4" class="node">
<title>Node4</title>
<g id="a_node4"><a xlink:href="classcFSPlib_1_1python__api__client_1_1swagger__client_1_1models_1_1build__script_1_1BuildScript.html#ad0e292056f849925160b529b0868e73f" target="_top" xlink:title=" ">
<polygon fill="none" stroke="black" points="273.5,-1404 273.5,-1445 464.5,-1445 464.5,-1404 273.5,-1404"/>
<text text-anchor="start" x="281.5" y="-1433" font-family="Helvetica,sans-Serif" font-size="10.00">cFSPlib.python_api</text>
<text text-anchor="start" x="281.5" y="-1422" font-family="Helvetica,sans-Serif" font-size="10.00">_client.swagger_client.models.build</text>
<text text-anchor="middle" x="369" y="-1411" font-family="Helvetica,sans-Serif" font-size="10.00">_script.BuildScript.to_dict</text>
</a>
</g>
</g>
<!-- Node1&#45;&gt;Node4 -->
<g id="edge3" class="edge">
<title>Node1&#45;&gt;Node4</title>
<path fill="none" stroke="midnightblue" d="M103.25,-815.02C111.79,-910.41 152.18,-1309.42 237,-1394.5 244.69,-1402.22 253.94,-1408.12 263.92,-1412.61"/>
<polygon fill="midnightblue" stroke="midnightblue" points="262.68,-1415.88 273.26,-1416.34 265.28,-1409.38 262.68,-1415.88"/>
</g>
<!-- Node5 -->
<g id="node5" class="node">
<title>Node5</title>
<g id="a_node5"><a xlink:href="classcFSPlib_1_1python__api__client_1_1swagger__client_1_1models_1_1cluster_1_1Cluster.html#af6d7e45ca50dac96ffb9c9cddffde96c" target="_top" xlink:title=" ">
<polygon fill="none" stroke="black" points="267.5,-1344 267.5,-1385 470.5,-1385 470.5,-1344 267.5,-1344"/>
<text text-anchor="start" x="275.5" y="-1373" font-family="Helvetica,sans-Serif" font-size="10.00">cFSPlib.python_api</text>
<text text-anchor="start" x="275.5" y="-1362" font-family="Helvetica,sans-Serif" font-size="10.00">_client.swagger_client.models.cluster.</text>
<text text-anchor="middle" x="369" y="-1351" font-family="Helvetica,sans-Serif" font-size="10.00">Cluster.to_dict</text>
</a>
</g>
</g>
<!-- Node1&#45;&gt;Node5 -->
<g id="edge4" class="edge">
<title>Node1&#45;&gt;Node5</title>
<path fill="none" stroke="midnightblue" d="M103.8,-815.04C114.23,-904.51 159.92,-1259 237,-1334.5 243.17,-1340.54 250.29,-1345.47 257.97,-1349.47"/>
<polygon fill="midnightblue" stroke="midnightblue" points="256.66,-1352.72 267.2,-1353.75 259.61,-1346.37 256.66,-1352.72"/>
</g>
<!-- Node6 -->
<g id="node6" class="node">
<title>Node6</title>
<g id="a_node6"><a xlink:href="classcFSPlib_1_1python__api__client_1_1swagger__client_1_1models_1_1cluster__id__node__id__body_1_1ClusterIdNodeIdBody.html#ad1ca6fa563bd9987d1098b2d0ddbabed" target="_top" xlink:title=" ">
<polygon fill="none" stroke="black" points="248,-1284 248,-1325 490,-1325 490,-1284 248,-1284"/>
<text text-anchor="start" x="256" y="-1313" font-family="Helvetica,sans-Serif" font-size="10.00">cFSPlib.python_api</text>
<text text-anchor="start" x="256" y="-1302" font-family="Helvetica,sans-Serif" font-size="10.00">_client.swagger_client.models.cluster</text>
<text text-anchor="middle" x="369" y="-1291" font-family="Helvetica,sans-Serif" font-size="10.00">_id_node_id_body.ClusterIdNodeIdBody.to_dict</text>
</a>
</g>
</g>
<!-- Node1&#45;&gt;Node6 -->
<g id="edge5" class="edge">
<title>Node1&#45;&gt;Node6</title>
<path fill="none" stroke="midnightblue" d="M104.52,-815.27C117.06,-898.75 167.67,-1208.56 237,-1274.5 238.28,-1275.72 239.6,-1276.89 240.95,-1278.01"/>
<polygon fill="midnightblue" stroke="midnightblue" points="238.93,-1280.88 249.06,-1283.99 243.09,-1275.24 238.93,-1280.88"/>
</g>
<!-- Node7 -->
<g id="node7" class="node">
<title>Node7</title>
<g id="a_node7"><a xlink:href="classcFSPlib_1_1python__api__client_1_1swagger__client_1_1models_1_1clusters__body_1_1ClustersBody.html#a8db8cde3aac212a7e75e4dc470b00466" target="_top" xlink:title=" ">
<polygon fill="none" stroke="black" points="266,-1224 266,-1265 472,-1265 472,-1224 266,-1224"/>
<text text-anchor="start" x="274" y="-1253" font-family="Helvetica,sans-Serif" font-size="10.00">cFSPlib.python_api</text>
<text text-anchor="start" x="274" y="-1242" font-family="Helvetica,sans-Serif" font-size="10.00">_client.swagger_client.models.clusters</text>
<text text-anchor="middle" x="369" y="-1231" font-family="Helvetica,sans-Serif" font-size="10.00">_body.ClustersBody.to_dict</text>
</a>
</g>
</g>
<!-- Node1&#45;&gt;Node7 -->
<g id="edge6" class="edge">
<title>Node1&#45;&gt;Node7</title>
<path fill="none" stroke="midnightblue" d="M101.48,-815.28C102.59,-883.63 115.85,-1103.45 237,-1214.5 242.87,-1219.88 249.49,-1224.35 256.57,-1228.07"/>
<polygon fill="midnightblue" stroke="midnightblue" points="255.23,-1231.31 265.77,-1232.39 258.2,-1224.97 255.23,-1231.31"/>
</g>
<!-- Node8 -->
<g id="node8" class="node">
<title>Node8</title>
<g id="a_node8"><a xlink:href="classcFSPlib_1_1python__api__client_1_1swagger__client_1_1models_1_1image_1_1Image.html#ac15b59cb35d3025925bee33ba3aaa79f" target="_top" xlink:title=" ">
<polygon fill="none" stroke="black" points="268.5,-1164 268.5,-1205 469.5,-1205 469.5,-1164 268.5,-1164"/>
<text text-anchor="start" x="276.5" y="-1193" font-family="Helvetica,sans-Serif" font-size="10.00">cFSPlib.python_api</text>
<text text-anchor="start" x="276.5" y="-1182" font-family="Helvetica,sans-Serif" font-size="10.00">_client.swagger_client.models.image.</text>
<text text-anchor="middle" x="369" y="-1171" font-family="Helvetica,sans-Serif" font-size="10.00">Image.to_dict</text>
</a>
</g>
</g>
<!-- Node1&#45;&gt;Node8 -->
<g id="edge7" class="edge">
<title>Node1&#45;&gt;Node8</title>
<path fill="none" stroke="midnightblue" d="M102.75,-815.37C107.64,-877.35 130.88,-1061.8 237,-1154.5 243.64,-1160.3 251.17,-1165.04 259.19,-1168.91"/>
<polygon fill="midnightblue" stroke="midnightblue" points="257.86,-1172.15 268.43,-1172.92 260.65,-1165.72 257.86,-1172.15"/>
</g>
<!-- Node9 -->
<g id="node9" class="node">
<title>Node9</title>
<g id="a_node9"><a xlink:href="classcFSPlib_1_1python__api__client_1_1swagger__client_1_1models_1_1images__app__logic__body_1_1ImagesAppLogicBody.html#a73f303c4a1b1a73d171347b4a3bb4604" target="_top" xlink:title=" ">
<polygon fill="none" stroke="black" points="249.5,-1104 249.5,-1145 488.5,-1145 488.5,-1104 249.5,-1104"/>
<text text-anchor="start" x="257.5" y="-1133" font-family="Helvetica,sans-Serif" font-size="10.00">cFSPlib.python_api</text>
<text text-anchor="start" x="257.5" y="-1122" font-family="Helvetica,sans-Serif" font-size="10.00">_client.swagger_client.models.images</text>
<text text-anchor="middle" x="369" y="-1111" font-family="Helvetica,sans-Serif" font-size="10.00">_app_logic_body.ImagesAppLogicBody.to_dict</text>
</a>
</g>
</g>
<!-- Node1&#45;&gt;Node9 -->
<g id="edge8" class="edge">
<title>Node1&#45;&gt;Node9</title>
<path fill="none" stroke="midnightblue" d="M104.43,-815.03C113.36,-869.67 145.45,-1019.58 237,-1094.5 238.76,-1095.94 240.58,-1097.32 242.44,-1098.63"/>
<polygon fill="midnightblue" stroke="midnightblue" points="240.59,-1101.6 250.92,-1103.98 244.33,-1095.68 240.59,-1101.6"/>
</g>
<!-- Node10 -->
<g id="node10" class="node">
<title>Node10</title>
<g id="a_node10"><a xlink:href="classcFSPlib_1_1python__api__client_1_1swagger__client_1_1models_1_1images__body_1_1ImagesBody.html#a5554114728bde54cdd776aebee542078" target="_top" xlink:title=" ">
<polygon fill="none" stroke="black" points="267.5,-1044 267.5,-1085 470.5,-1085 470.5,-1044 267.5,-1044"/>
<text text-anchor="start" x="275.5" y="-1073" font-family="Helvetica,sans-Serif" font-size="10.00">cFSPlib.python_api</text>
<text text-anchor="start" x="275.5" y="-1062" font-family="Helvetica,sans-Serif" font-size="10.00">_client.swagger_client.models.images</text>
<text text-anchor="middle" x="369" y="-1051" font-family="Helvetica,sans-Serif" font-size="10.00">_body.ImagesBody.to_dict</text>
</a>
</g>
</g>
<!-- Node1&#45;&gt;Node10 -->
<g id="edge9" class="edge">
<title>Node1&#45;&gt;Node10</title>
<path fill="none" stroke="midnightblue" d="M106.9,-815.01C120.35,-861.84 159.91,-976.99 237,-1034.5 243.38,-1039.26 250.38,-1043.28 257.73,-1046.68"/>
<polygon fill="midnightblue" stroke="midnightblue" points="256.63,-1050.01 267.2,-1050.66 259.34,-1043.56 256.63,-1050.01"/>
</g>
<!-- Node11 -->
<g id="node11" class="node">
<title>Node11</title>
<g id="a_node11"><a xlink:href="classcFSPlib_1_1python__api__client_1_1swagger__client_1_1models_1_1inline__response200_1_1InlineResponse200.html#a66e88896e524555c9eac804f03b4a04b" target="_top" xlink:title=" ">
<polygon fill="none" stroke="black" points="261.5,-984 261.5,-1025 476.5,-1025 476.5,-984 261.5,-984"/>
<text text-anchor="start" x="269.5" y="-1013" font-family="Helvetica,sans-Serif" font-size="10.00">cFSPlib.python_api</text>
<text text-anchor="start" x="269.5" y="-1002" font-family="Helvetica,sans-Serif" font-size="10.00">_client.swagger_client.models.inline</text>
<text text-anchor="middle" x="369" y="-991" font-family="Helvetica,sans-Serif" font-size="10.00">_response200.InlineResponse200.to_dict</text>
</a>
</g>
</g>
<!-- Node1&#45;&gt;Node11 -->
<g id="edge10" class="edge">
<title>Node1&#45;&gt;Node11</title>
<path fill="none" stroke="midnightblue" d="M111,-815.26C129.51,-853.24 174.15,-933.74 237,-974.5 241.71,-977.55 246.69,-980.3 251.85,-982.77"/>
<polygon fill="midnightblue" stroke="midnightblue" points="250.75,-986.11 261.32,-986.92 253.56,-979.7 250.75,-986.11"/>
</g>
<!-- Node12 -->
<g id="node12" class="node">
<title>Node12</title>
<g id="a_node12"><a xlink:href="classcFSPlib_1_1python__api__client_1_1swagger__client_1_1models_1_1inline__response2001_1_1InlineResponse2001.html#ad6663b23b7498b71d4ca99c7ebd03029" target="_top" xlink:title=" ">
<polygon fill="none" stroke="black" points="255.5,-924 255.5,-965 482.5,-965 482.5,-924 255.5,-924"/>
<text text-anchor="start" x="263.5" y="-953" font-family="Helvetica,sans-Serif" font-size="10.00">cFSPlib.python_api</text>
<text text-anchor="start" x="263.5" y="-942" font-family="Helvetica,sans-Serif" font-size="10.00">_client.swagger_client.models.inline</text>
<text text-anchor="middle" x="369" y="-931" font-family="Helvetica,sans-Serif" font-size="10.00">_response2001.InlineResponse2001.to_dict</text>
</a>
</g>
</g>
<!-- Node1&#45;&gt;Node12 -->
<g id="edge11" class="edge">
<title>Node1&#45;&gt;Node12</title>
<path fill="none" stroke="midnightblue" d="M118.92,-815.39C142.73,-842.51 188.1,-889.35 237,-914.5 240.96,-916.54 245.05,-918.43 249.25,-920.21"/>
<polygon fill="midnightblue" stroke="midnightblue" points="247.97,-923.46 258.56,-923.88 250.54,-916.95 247.97,-923.46"/>
</g>
<!-- Node13 -->
<g id="node13" class="node">
<title>Node13</title>
<g id="a_node13"><a xlink:href="classcFSPlib_1_1python__api__client_1_1swagger__client_1_1models_1_1inline__response2002_1_1InlineResponse2002.html#a7120aa02a5bd37a0522121898626d7ae" target="_top" xlink:title=" ">
<polygon fill="none" stroke="black" points="255.5,-864 255.5,-905 482.5,-905 482.5,-864 255.5,-864"/>
<text text-anchor="start" x="263.5" y="-893" font-family="Helvetica,sans-Serif" font-size="10.00">cFSPlib.python_api</text>
<text text-anchor="start" x="263.5" y="-882" font-family="Helvetica,sans-Serif" font-size="10.00">_client.swagger_client.models.inline</text>
<text text-anchor="middle" x="369" y="-871" font-family="Helvetica,sans-Serif" font-size="10.00">_response2002.InlineResponse2002.to_dict</text>
</a>
</g>
</g>
<!-- Node1&#45;&gt;Node13 -->
<g id="edge12" class="edge">
<title>Node1&#45;&gt;Node13</title>
<path fill="none" stroke="midnightblue" d="M142.5,-815.12C168.96,-827.81 204.41,-843.66 237,-854.5 244.24,-856.91 251.77,-859.19 259.39,-861.34"/>
<polygon fill="midnightblue" stroke="midnightblue" points="258.51,-864.73 269.08,-863.99 260.36,-857.97 258.51,-864.73"/>
</g>
<!-- Node14 -->
<g id="node14" class="node">
<title>Node14</title>
<g id="a_node14"><a xlink:href="classcFSPlib_1_1python__api__client_1_1swagger__client_1_1models_1_1inline__response2003_1_1InlineResponse2003.html#a9e1663a068774b55c2e94e319635e85a" target="_top" xlink:title=" ">
<polygon fill="none" stroke="black" points="255.5,-804 255.5,-845 482.5,-845 482.5,-804 255.5,-804"/>
<text text-anchor="start" x="263.5" y="-833" font-family="Helvetica,sans-Serif" font-size="10.00">cFSPlib.python_api</text>
<text text-anchor="start" x="263.5" y="-822" font-family="Helvetica,sans-Serif" font-size="10.00">_client.swagger_client.models.inline</text>
<text text-anchor="middle" x="369" y="-811" font-family="Helvetica,sans-Serif" font-size="10.00">_response2003.InlineResponse2003.to_dict</text>
</a>
</g>
</g>
<!-- Node1&#45;&gt;Node14 -->
<g id="edge13" class="edge">
<title>Node1&#45;&gt;Node14</title>
<path fill="none" stroke="midnightblue" d="M201.11,-805.71C215.41,-807.32 230.26,-808.99 244.94,-810.65"/>
<polygon fill="midnightblue" stroke="midnightblue" points="244.74,-814.15 255.07,-811.79 245.52,-807.19 244.74,-814.15"/>
</g>
<!-- Node15 -->
<g id="node15" class="node">
<title>Node15</title>
<g id="a_node15"><a xlink:href="classcFSPlib_1_1python__api__client_1_1swagger__client_1_1models_1_1inline__response2004_1_1InlineResponse2004.html#a4297acc6998c1b7e0d61ed12d9a3ee24" target="_top" xlink:title=" ">
<polygon fill="none" stroke="black" points="255.5,-744 255.5,-785 482.5,-785 482.5,-744 255.5,-744"/>
<text text-anchor="start" x="263.5" y="-773" font-family="Helvetica,sans-Serif" font-size="10.00">cFSPlib.python_api</text>
<text text-anchor="start" x="263.5" y="-762" font-family="Helvetica,sans-Serif" font-size="10.00">_client.swagger_client.models.inline</text>
<text text-anchor="middle" x="369" y="-751" font-family="Helvetica,sans-Serif" font-size="10.00">_response2004.InlineResponse2004.to_dict</text>
</a>
</g>
</g>
<!-- Node1&#45;&gt;Node15 -->
<g id="edge14" class="edge">
<title>Node1&#45;&gt;Node15</title>
<path fill="none" stroke="midnightblue" d="M201.11,-783.29C215.41,-781.68 230.26,-780.01 244.94,-778.35"/>
<polygon fill="midnightblue" stroke="midnightblue" points="245.52,-781.81 255.07,-777.21 244.74,-774.85 245.52,-781.81"/>
</g>
<!-- Node16 -->
<g id="node16" class="node">
<title>Node16</title>
<g id="a_node16"><a xlink:href="classcFSPlib_1_1python__api__client_1_1swagger__client_1_1models_1_1inline__response2005_1_1InlineResponse2005.html#ad46c7545bdf1094cbd707019113737ca" target="_top" xlink:title=" ">
<polygon fill="none" stroke="black" points="255.5,-684 255.5,-725 482.5,-725 482.5,-684 255.5,-684"/>
<text text-anchor="start" x="263.5" y="-713" font-family="Helvetica,sans-Serif" font-size="10.00">cFSPlib.python_api</text>
<text text-anchor="start" x="263.5" y="-702" font-family="Helvetica,sans-Serif" font-size="10.00">_client.swagger_client.models.inline</text>
<text text-anchor="middle" x="369" y="-691" font-family="Helvetica,sans-Serif" font-size="10.00">_response2005.InlineResponse2005.to_dict</text>
</a>
</g>
</g>
<!-- Node1&#45;&gt;Node16 -->
<g id="edge15" class="edge">
<title>Node1&#45;&gt;Node16</title>
<path fill="none" stroke="midnightblue" d="M142.5,-773.88C168.96,-761.19 204.41,-745.34 237,-734.5 244.24,-732.09 251.77,-729.81 259.39,-727.66"/>
<polygon fill="midnightblue" stroke="midnightblue" points="260.36,-731.03 269.08,-725.01 258.51,-724.27 260.36,-731.03"/>
</g>
<!-- Node17 -->
<g id="node17" class="node">
<title>Node17</title>
<g id="a_node17"><a xlink:href="classcFSPlib_1_1python__api__client_1_1swagger__client_1_1models_1_1inline__response2006_1_1InlineResponse2006.html#a5c95ca06fe9c1f2014a8dbe7f8b0a9d0" target="_top" xlink:title=" ">
<polygon fill="none" stroke="black" points="255.5,-624 255.5,-665 482.5,-665 482.5,-624 255.5,-624"/>
<text text-anchor="start" x="263.5" y="-653" font-family="Helvetica,sans-Serif" font-size="10.00">cFSPlib.python_api</text>
<text text-anchor="start" x="263.5" y="-642" font-family="Helvetica,sans-Serif" font-size="10.00">_client.swagger_client.models.inline</text>
<text text-anchor="middle" x="369" y="-631" font-family="Helvetica,sans-Serif" font-size="10.00">_response2006.InlineResponse2006.to_dict</text>
</a>
</g>
</g>
<!-- Node1&#45;&gt;Node17 -->
<g id="edge16" class="edge">
<title>Node1&#45;&gt;Node17</title>
<path fill="none" stroke="midnightblue" d="M118.92,-773.61C142.73,-746.49 188.1,-699.65 237,-674.5 240.96,-672.46 245.05,-670.57 249.25,-668.79"/>
<polygon fill="midnightblue" stroke="midnightblue" points="250.54,-672.05 258.56,-665.12 247.97,-665.54 250.54,-672.05"/>
</g>
<!-- Node18 -->
<g id="node18" class="node">
<title>Node18</title>
<g id="a_node18"><a xlink:href="classcFSPlib_1_1python__api__client_1_1swagger__client_1_1models_1_1instance_1_1Instance.html#aed23dfe041763799abf00baff0255667" target="_top" xlink:title=" ">
<polygon fill="none" stroke="black" points="263,-564 263,-605 475,-605 475,-564 263,-564"/>
<text text-anchor="start" x="271" y="-593" font-family="Helvetica,sans-Serif" font-size="10.00">cFSPlib.python_api</text>
<text text-anchor="start" x="271" y="-582" font-family="Helvetica,sans-Serif" font-size="10.00">_client.swagger_client.models.instance.</text>
<text text-anchor="middle" x="369" y="-571" font-family="Helvetica,sans-Serif" font-size="10.00">Instance.to_dict</text>
</a>
</g>
</g>
<!-- Node1&#45;&gt;Node18 -->
<g id="edge17" class="edge">
<title>Node1&#45;&gt;Node18</title>
<path fill="none" stroke="midnightblue" d="M111,-773.74C129.51,-735.76 174.15,-655.26 237,-614.5 242.27,-611.08 247.87,-608.06 253.69,-605.37"/>
<polygon fill="midnightblue" stroke="midnightblue" points="255.15,-608.55 262.99,-601.42 252.41,-602.11 255.15,-608.55"/>
</g>
<!-- Node19 -->
<g id="node19" class="node">
<title>Node19</title>
<g id="a_node19"><a xlink:href="classcFSPlib_1_1python__api__client_1_1swagger__client_1_1models_1_1instance__id__api__gateway__33456c8700113c53c3cfaa915ef28716.html#a4d21c92cd28568b7bcdddcd77c95da7a" target="_top" xlink:title=" ">
<polygon fill="none" stroke="black" points="249.5,-492.5 249.5,-544.5 488.5,-544.5 488.5,-492.5 249.5,-492.5"/>
<text text-anchor="start" x="257.5" y="-532.5" font-family="Helvetica,sans-Serif" font-size="10.00">cFSPlib.python_api</text>
<text text-anchor="start" x="257.5" y="-521.5" font-family="Helvetica,sans-Serif" font-size="10.00">_client.swagger_client.models.instance</text>
<text text-anchor="start" x="257.5" y="-510.5" font-family="Helvetica,sans-Serif" font-size="10.00">_id_api_gateway_body.InstanceIdApiGateway</text>
<text text-anchor="middle" x="369" y="-499.5" font-family="Helvetica,sans-Serif" font-size="10.00">Body.to_dict</text>
</a>
</g>
</g>
<!-- Node1&#45;&gt;Node19 -->
<g id="edge18" class="edge">
<title>Node1&#45;&gt;Node19</title>
<path fill="none" stroke="midnightblue" d="M107.18,-773.87C121.09,-727.3 161.36,-613.51 237,-554.5 239.07,-552.88 241.22,-551.34 243.42,-549.86"/>
<polygon fill="midnightblue" stroke="midnightblue" points="245.47,-552.71 252.17,-544.5 241.82,-546.74 245.47,-552.71"/>
</g>
<!-- Node20 -->
<g id="node20" class="node">
<title>Node20</title>
<g id="a_node20"><a xlink:href="classcFSPlib_1_1python__api__client_1_1swagger__client_1_1models_1_1instance__id__runlevel__body_1_1InstanceIdRunlevelBody.html#acc6834a79dfaafbd099970c0df7d878a" target="_top" xlink:title=" ">
<polygon fill="none" stroke="black" points="239.5,-432 239.5,-473 498.5,-473 498.5,-432 239.5,-432"/>
<text text-anchor="start" x="247.5" y="-461" font-family="Helvetica,sans-Serif" font-size="10.00">cFSPlib.python_api</text>
<text text-anchor="start" x="247.5" y="-450" font-family="Helvetica,sans-Serif" font-size="10.00">_client.swagger_client.models.instance</text>
<text text-anchor="middle" x="369" y="-439" font-family="Helvetica,sans-Serif" font-size="10.00">_id_runlevel_body.InstanceIdRunlevelBody.to_dict</text>
</a>
</g>
</g>
<!-- Node1&#45;&gt;Node20 -->
<g id="edge19" class="edge">
<title>Node1&#45;&gt;Node20</title>
<path fill="none" stroke="midnightblue" d="M104.15,-773.68C112.45,-717.52 143.23,-561.87 237,-483.5 239.04,-481.8 241.16,-480.18 243.34,-478.65"/>
<polygon fill="midnightblue" stroke="midnightblue" points="245.46,-481.45 252.07,-473.17 241.74,-475.52 245.46,-481.45"/>
</g>
<!-- Node21 -->
<g id="node21" class="node">
<title>Node21</title>
<g id="a_node21"><a xlink:href="classcFSPlib_1_1python__api__client_1_1swagger__client_1_1models_1_1instances__body_1_1InstancesBody.html#aed7aad923568e83cd8fff866b77013e1" target="_top" xlink:title=" ">
<polygon fill="none" stroke="black" points="262,-372 262,-413 476,-413 476,-372 262,-372"/>
<text text-anchor="start" x="270" y="-401" font-family="Helvetica,sans-Serif" font-size="10.00">cFSPlib.python_api</text>
<text text-anchor="start" x="270" y="-390" font-family="Helvetica,sans-Serif" font-size="10.00">_client.swagger_client.models.instances</text>
<text text-anchor="middle" x="369" y="-379" font-family="Helvetica,sans-Serif" font-size="10.00">_body.InstancesBody.to_dict</text>
</a>
</g>
</g>
<!-- Node1&#45;&gt;Node21 -->
<g id="edge20" class="edge">
<title>Node1&#45;&gt;Node21</title>
<path fill="none" stroke="midnightblue" d="M102.45,-773.86C106.53,-710.77 127.77,-518.94 237,-422.5 241.82,-418.24 247.12,-414.56 252.74,-411.36"/>
<polygon fill="midnightblue" stroke="midnightblue" points="254.5,-414.4 261.82,-406.75 251.32,-408.16 254.5,-414.4"/>
</g>
<!-- Node22 -->
<g id="node22" class="node">
<title>Node22</title>
<g id="a_node22"><a xlink:href="classcFSPlib_1_1python__api__client_1_1swagger__client_1_1models_1_1instances__instance__id__body_1_1InstancesInstanceIdBody.html#a7dd72793d6126eb9e9aaa591f4cd27a1" target="_top" xlink:title=" ">
<polygon fill="none" stroke="black" points="237,-312 237,-353 501,-353 501,-312 237,-312"/>
<text text-anchor="start" x="245" y="-341" font-family="Helvetica,sans-Serif" font-size="10.00">cFSPlib.python_api</text>
<text text-anchor="start" x="245" y="-330" font-family="Helvetica,sans-Serif" font-size="10.00">_client.swagger_client.models.instances</text>
<text text-anchor="middle" x="369" y="-319" font-family="Helvetica,sans-Serif" font-size="10.00">_instance_id_body.InstancesInstanceIdBody.to_dict</text>
</a>
</g>
</g>
<!-- Node1&#45;&gt;Node22 -->
<g id="edge21" class="edge">
<title>Node1&#45;&gt;Node22</title>
<path fill="none" stroke="midnightblue" d="M101.26,-773.63C101.67,-703.94 112.89,-477.2 237,-362.5 238.3,-361.3 239.63,-360.15 241,-359.04"/>
<polygon fill="midnightblue" stroke="midnightblue" points="243.12,-361.83 249.19,-353.14 239.03,-356.15 243.12,-361.83"/>
</g>
<!-- Node23 -->
<g id="node23" class="node">
<title>Node23</title>
<g id="a_node23"><a xlink:href="classcFSPlib_1_1python__api__client_1_1swagger__client_1_1models_1_1node__map_1_1NodeMap.html#a9f8e084f531872bf958a4f2ab0763677" target="_top" xlink:title=" ">
<polygon fill="none" stroke="black" points="273.5,-252 273.5,-293 464.5,-293 464.5,-252 273.5,-252"/>
<text text-anchor="start" x="281.5" y="-281" font-family="Helvetica,sans-Serif" font-size="10.00">cFSPlib.python_api</text>
<text text-anchor="start" x="281.5" y="-270" font-family="Helvetica,sans-Serif" font-size="10.00">_client.swagger_client.models.node</text>
<text text-anchor="middle" x="369" y="-259" font-family="Helvetica,sans-Serif" font-size="10.00">_map.NodeMap.to_dict</text>
</a>
</g>
</g>
<!-- Node1&#45;&gt;Node23 -->
<g id="edge22" class="edge">
<title>Node1&#45;&gt;Node23</title>
<path fill="none" stroke="midnightblue" d="M104.36,-773.8C116.46,-689.11 166.12,-370.35 237,-302.5 244.81,-295.03 254.08,-289.28 264.03,-284.87"/>
<polygon fill="midnightblue" stroke="midnightblue" points="265.32,-288.12 273.33,-281.19 262.74,-281.61 265.32,-288.12"/>
</g>
<!-- Node24 -->
<g id="node24" class="node">
<title>Node24</title>
<g id="a_node24"><a xlink:href="classcFSPlib_1_1python__api__client_1_1swagger__client_1_1models_1_1node__map__inner_1_1NodeMapInner.html#af6d39304bb728e602bb55d3e19d1233f" target="_top" xlink:title=" ">
<polygon fill="none" stroke="black" points="273.5,-192 273.5,-233 464.5,-233 464.5,-192 273.5,-192"/>
<text text-anchor="start" x="281.5" y="-221" font-family="Helvetica,sans-Serif" font-size="10.00">cFSPlib.python_api</text>
<text text-anchor="start" x="281.5" y="-210" font-family="Helvetica,sans-Serif" font-size="10.00">_client.swagger_client.models.node</text>
<text text-anchor="middle" x="369" y="-199" font-family="Helvetica,sans-Serif" font-size="10.00">_map_inner.NodeMapInner.to_dict</text>
</a>
</g>
</g>
<!-- Node1&#45;&gt;Node24 -->
<g id="edge23" class="edge">
<title>Node1&#45;&gt;Node24</title>
<path fill="none" stroke="midnightblue" d="M103.7,-773.81C113.77,-682.88 158.42,-319.86 237,-242.5 244.76,-234.86 254.06,-229 264.06,-224.54"/>
<polygon fill="midnightblue" stroke="midnightblue" points="265.42,-227.76 273.42,-220.82 262.84,-221.26 265.42,-227.76"/>
</g>
<!-- Node25 -->
<g id="node25" class="node">
<title>Node25</title>
<g id="a_node25"><a xlink:href="classcFSPlib_1_1python__api__client_1_1swagger__client_1_1models_1_1quota_1_1Quota.html#aa144c533fb9a07e0328cd2c9f8a54e10" target="_top" xlink:title=" ">
<polygon fill="none" stroke="black" points="270,-132 270,-173 468,-173 468,-132 270,-132"/>
<text text-anchor="start" x="278" y="-161" font-family="Helvetica,sans-Serif" font-size="10.00">cFSPlib.python_api</text>
<text text-anchor="start" x="278" y="-150" font-family="Helvetica,sans-Serif" font-size="10.00">_client.swagger_client.models.quota.</text>
<text text-anchor="middle" x="369" y="-139" font-family="Helvetica,sans-Serif" font-size="10.00">Quota.to_dict</text>
</a>
</g>
</g>
<!-- Node1&#45;&gt;Node25 -->
<g id="edge24" class="edge">
<title>Node1&#45;&gt;Node25</title>
<path fill="none" stroke="midnightblue" d="M103.16,-773.9C111.35,-677.2 150.65,-269.48 237,-182.5 243.83,-175.62 251.9,-170.18 260.62,-165.9"/>
<polygon fill="midnightblue" stroke="midnightblue" points="262.15,-169.05 269.92,-161.84 259.35,-162.63 262.15,-169.05"/>
</g>
<!-- Node26 -->
<g id="node26" class="node">
<title>Node26</title>
<g id="a_node26"><a xlink:href="classcFSPlib_1_1python__api__client_1_1swagger__client_1_1models_1_1resource_1_1Resource.html#ab23087e90002e476660d47200211a80e" target="_top" xlink:title=" ">
<polygon fill="none" stroke="black" points="263,-72 263,-113 475,-113 475,-72 263,-72"/>
<text text-anchor="start" x="271" y="-101" font-family="Helvetica,sans-Serif" font-size="10.00">cFSPlib.python_api</text>
<text text-anchor="start" x="271" y="-90" font-family="Helvetica,sans-Serif" font-size="10.00">_client.swagger_client.models.resource.</text>
<text text-anchor="middle" x="369" y="-79" font-family="Helvetica,sans-Serif" font-size="10.00">Resource.to_dict</text>
</a>
</g>
</g>
<!-- Node1&#45;&gt;Node26 -->
<g id="edge25" class="edge">
<title>Node1&#45;&gt;Node26</title>
<path fill="none" stroke="midnightblue" d="M102.71,-773.97C109.18,-671.8 142.84,-219.15 237,-122.5 241.98,-117.39 247.63,-113.07 253.74,-109.43"/>
<polygon fill="midnightblue" stroke="midnightblue" points="255.75,-112.33 262.97,-104.57 252.49,-106.13 255.75,-112.33"/>
</g>
<!-- Node27 -->
<g id="node27" class="node">
<title>Node27</title>
<g id="a_node27"><a xlink:href="classcFSPlib_1_1python__api__client_1_1swagger__client_1_1models_1_1test__instance__instance__idb21fef29c350bd01bc51bf6a97dd8668.html#aef8ffd853e93db25594577ace055c355" target="_top" xlink:title=" ">
<polygon fill="none" stroke="black" points="261.5,-0.5 261.5,-52.5 476.5,-52.5 476.5,-0.5 261.5,-0.5"/>
<text text-anchor="start" x="269.5" y="-40.5" font-family="Helvetica,sans-Serif" font-size="10.00">cFSPlib.python_api</text>
<text text-anchor="start" x="269.5" y="-29.5" font-family="Helvetica,sans-Serif" font-size="10.00">_client.swagger_client.models.test</text>
<text text-anchor="start" x="269.5" y="-18.5" font-family="Helvetica,sans-Serif" font-size="10.00">_instance_instance_id_body.TestInstance</text>
<text text-anchor="middle" x="369" y="-7.5" font-family="Helvetica,sans-Serif" font-size="10.00">InstanceIdBody.to_dict</text>
</a>
</g>
</g>
<!-- Node1&#45;&gt;Node27 -->
<g id="edge26" class="edge">
<title>Node1&#45;&gt;Node27</title>
<path fill="none" stroke="midnightblue" d="M102.45,-773.69C107.79,-665.78 137.46,-170.9 237,-62.5 241.66,-57.42 246.97,-53.04 252.71,-49.25"/>
<polygon fill="midnightblue" stroke="midnightblue" points="254.57,-52.21 261.41,-44.11 251.02,-46.18 254.57,-52.21"/>
</g>
</g>
</svg>
        <g id="navigator" transform="translate(0 0)" fill="#404254">
                <rect fill="#f2f5e9" fill-opacity="0.5" stroke="#606060" stroke-width=".5" x="0" y="0" width="60" height="60"/>
                <use id="zoomplus" xlink:href="#zoomPlus" x="17" y="9" onmousedown="handleZoom(evt,'in')"/>
                <use id="zoomminus" xlink:href="#zoomMin" x="42" y="9" onmousedown="handleZoom(evt,'out')"/>
                <use id="reset" xlink:href="#resetDef" x="30" y="36" onmousedown="handleReset()"/>
                <g id="arrowUp" xlink:href="#dirArrow" transform="translate(30 24)" onmousedown="handlePan(0,-1)">
                  <use xlink:href="#rim" fill="#404040">
                        <set attributeName="fill" to="#808080" begin="arrowUp.mouseover" end="arrowUp.mouseout"/>
                  </use>
                  <path fill="none" stroke="white" stroke-width="1.5" d="M0,-3.0v7 M-2.5,-0.5L0,-3.0L2.5,-0.5"/>
                </g>
                <g id="arrowRight" xlink:href="#dirArrow" transform="rotate(90) translate(36 -43)" onmousedown="handlePan(1,0)">
                  <use xlink:href="#rim" fill="#404040">
                        <set attributeName="fill" to="#808080" begin="arrowRight.mouseover" end="arrowRight.mouseout"/>
                  </use>
                  <path fill="none" stroke="white" stroke-width="1.5" d="M0,-3.0v7 M-2.5,-0.5L0,-3.0L2.5,-0.5"/>
                </g>
                <g id="arrowDown" xlink:href="#dirArrow" transform="rotate(180) translate(-30 -48)" onmousedown="handlePan(0,1)">
                  <use xlink:href="#rim" fill="#404040">
                        <set attributeName="fill" to="#808080" begin="arrowDown.mouseover" end="arrowDown.mouseout"/>
                  </use>
                  <path fill="none" stroke="white" stroke-width="1.5" d="M0,-3.0v7 M-2.5,-0.5L0,-3.0L2.5,-0.5"/>
                </g>
                <g id="arrowLeft" xlink:href="#dirArrow" transform="rotate(270) translate(-36 17)" onmousedown="handlePan(-1,0)">
                  <use xlink:href="#rim" fill="#404040">
                        <set attributeName="fill" to="#808080" begin="arrowLeft.mouseover" end="arrowLeft.mouseout"/>
                  </use>
                  <path fill="none" stroke="white" stroke-width="1.5" d="M0,-3.0v7 M-2.5,-0.5L0,-3.0L2.5,-0.5"/>
                </g>
        </g>
        <svg viewBox="0 0 15 15" width="100%" height="30px" preserveAspectRatio="xMaxYMin meet">
         <g id="arrow_out" transform="scale(0.3 0.3)">
          <a xlink:href="classcFSPlib_1_1python__api__client_1_1swagger__client_1_1models_1_1image_1_1Image_a322497c28181a346f3f8bb641efdfec7_cgraph_org.svg" target="_base">
           <rect id="button" ry="5" rx="5" y="6" x="6" height="38" width="38"
                fill="#f2f5e9" fill-opacity="0.5" stroke="#606060" stroke-width="1.0"/>
           <path id="arrow"
             d="M 11.500037,31.436501 C 11.940474,20.09759 22.043105,11.32322 32.158766,21.979434 L 37.068811,17.246167 C 37.068811,17.246167 37.088388,32 37.088388,32 L 22.160133,31.978069 C 22.160133,31.978069 26.997745,27.140456 26.997745,27.140456 C 18.528582,18.264221 13.291696,25.230495 11.500037,31.436501 z"
             style="fill:#404040;"/>
          </a>
         </g>
        </svg>
</svg>
