<?xml version="1.0" encoding="UTF-8" standalone="no"?>
<!DOCTYPE svg PUBLIC "-//W3C//DTD SVG 1.1//EN"
 "http://www.w3.org/Graphics/SVG/1.1/DTD/svg11.dtd">
<!-- Generated by graphviz version 2.43.0 (0)
 -->
<!-- Title: SimUdpDatagram::writePayloadToDatFile Pages: 1 -->
<svg width="411pt" height="66pt"
 viewBox="0.00 0.00 411.00 66.00" xmlns="http://www.w3.org/2000/svg" xmlns:xlink="http://www.w3.org/1999/xlink">
<g id="graph0" class="graph" transform="scale(1 1) rotate(0) translate(4 62)">
<title>SimUdpDatagram::writePayloadToDatFile</title>
<!-- Node1 -->
<g id="node1" class="node">
<title>Node1</title>
<g id="a_node1"><a xlink:title="Dump the payload of this datagram as AxisUdp chunks into a file.">
<polygon fill="#bfbfbf" stroke="black" points="230,-14 230,-44 403,-44 403,-14 230,-14"/>
<text text-anchor="start" x="238" y="-32" font-family="Helvetica,sans-Serif" font-size="10.00">SimUdpDatagram::writePayload</text>
<text text-anchor="middle" x="316.5" y="-21" font-family="Helvetica,sans-Serif" font-size="10.00">ToDatFile</text>
</a>
</g>
</g>
<!-- Node2 -->
<g id="node2" class="node">
<title>Node2</title>
<g id="a_node2"><a xlink:href="group__NTS__UOE__TEST.html#ga40610514eb0285c8afbe8cfe003638f6" target="_top" xlink:title="Create the golden Rx APP reference files from an input IPRX test file.">
<polygon fill="none" stroke="black" points="77,-38.5 77,-57.5 194,-57.5 194,-38.5 77,-38.5"/>
<text text-anchor="middle" x="135.5" y="-45.5" font-family="Helvetica,sans-Serif" font-size="10.00">createGoldenRxFiles</text>
</a>
</g>
</g>
<!-- Node1&#45;&gt;Node2 -->
<g id="edge1" class="edge">
<title>Node1&#45;&gt;Node2</title>
<path fill="none" stroke="midnightblue" d="M219.97,-39.14C211.17,-40.07 202.44,-41 194.13,-41.88"/>
<polygon fill="midnightblue" stroke="midnightblue" points="220.36,-42.62 229.93,-38.08 219.62,-35.66 220.36,-42.62"/>
</g>
<!-- Node4 -->
<g id="node4" class="node">
<title>Node4</title>
<g id="a_node4"><a xlink:href="group__udp__app__flash.html#gaed659893ff9e142d02f969213e4a501f" target="_top" xlink:title="Create the golden UDP Tx files from an input test file.">
<polygon fill="none" stroke="black" points="77.5,-0.5 77.5,-19.5 193.5,-19.5 193.5,-0.5 77.5,-0.5"/>
<text text-anchor="middle" x="135.5" y="-7.5" font-family="Helvetica,sans-Serif" font-size="10.00">createGoldenTxFiles</text>
</a>
</g>
</g>
<!-- Node1&#45;&gt;Node4 -->
<g id="edge3" class="edge">
<title>Node1&#45;&gt;Node4</title>
<path fill="none" stroke="midnightblue" d="M219.83,-18.84C210.89,-17.9 202.04,-16.96 193.63,-16.06"/>
<polygon fill="midnightblue" stroke="midnightblue" points="219.62,-22.34 229.93,-19.92 220.36,-15.38 219.62,-22.34"/>
</g>
<!-- Node3 -->
<g id="node3" class="node">
<title>Node3</title>
<g id="a_node3"><a xlink:href="group__NTS__UOE__TEST.html#ga0ddf1224851353fc92bfbff6f499fa97" target="_top" xlink:title="Main function.">
<polygon fill="none" stroke="black" points="0,-38.5 0,-57.5 41,-57.5 41,-38.5 0,-38.5"/>
<text text-anchor="middle" x="20.5" y="-45.5" font-family="Helvetica,sans-Serif" font-size="10.00">main</text>
</a>
</g>
</g>
<!-- Node2&#45;&gt;Node3 -->
<g id="edge2" class="edge">
<title>Node2&#45;&gt;Node3</title>
<path fill="none" stroke="midnightblue" d="M66.53,-48C57.29,-48 48.48,-48 41.14,-48"/>
<polygon fill="midnightblue" stroke="midnightblue" points="66.68,-51.5 76.68,-48 66.68,-44.5 66.68,-51.5"/>
</g>
</g>
</svg>
