<?xml version="1.0" encoding="UTF-8" standalone="no"?>
<!DOCTYPE svg PUBLIC "-//W3C//DTD SVG 1.1//EN"
 "http://www.w3.org/Graphics/SVG/1.1/DTD/svg11.dtd">
<!-- Generated by graphviz version 2.43.0 (0)
 -->
<!-- Title: cFSPlib.python_api_client.swagger_client.models.image.Image.to_str Pages: 1 -->
<!--zoomable 1596 -->
<svg id="main" version="1.1" xmlns="http://www.w3.org/2000/svg" xmlns:xlink="http://www.w3.org/1999/xlink" xml:space="preserve" onload="init(evt)">
<style type="text/css"><![CDATA[
.edge:hover path { stroke: red; }
.edge:hover polygon { stroke: red; fill: red; }
]]></style>
<script type="text/javascript"><![CDATA[
var edges = document.getElementsByTagName('g');
if (edges && edges.length) {
  for (var i=0;i<edges.length;i++) {
    if (edges[i].id.substr(0,4)=='edge') {
      edges[i].setAttribute('class','edge');
    }
  }
}
]]></script>
        <defs>
                <circle id="rim" cx="0" cy="0" r="7"/>
                <circle id="rim2" cx="0" cy="0" r="3.5"/>
                <g id="zoomPlus">
                        <use xlink:href="#rim" fill="#404040">
                                <set attributeName="fill" to="#808080" begin="zoomplus.mouseover" end="zoomplus.mouseout"/>
                        </use>
                        <path d="M-4,0h8M0,-4v8" fill="none" stroke="white" stroke-width="1.5" pointer-events="none"/>
                </g>
                <g id="zoomMin">
                        <use xlink:href="#rim" fill="#404040">
                                <set attributeName="fill" to="#808080" begin="zoomminus.mouseover" end="zoomminus.mouseout"/>
                        </use>
                        <path d="M-4,0h8" fill="none" stroke="white" stroke-width="1.5" pointer-events="none"/>
                </g>
                <g id="dirArrow">
                        <path fill="none" stroke="white" stroke-width="1.5" d="M0,-3.0v7 M-2.5,-0.5L0,-3.0L2.5,-0.5"/>
                </g>
               <g id="resetDef">
                       <use xlink:href="#rim2" fill="#404040">
                               <set attributeName="fill" to="#808080" begin="reset.mouseover" end="reset.mouseout"/>
                       </use>
               </g>
        </defs>

<script type="text/javascript">
var viewWidth = 517;
var viewHeight = 1596;
var sectionId = 'dynsection-7';
</script>
<script xlink:href="svgpan.js"/>
<svg id="graph" class="graph">
<g id="viewport">
<title>cFSPlib.python_api_client.swagger_client.models.image.Image.to_str</title>
<!-- Node1 -->
<g id="node1" class="node">
<title>Node1</title>
<g id="a_node1"><a xlink:title=" ">
<polygon fill="#bfbfbf" stroke="black" points="308,-774 308,-815 509,-815 509,-774 308,-774"/>
<text text-anchor="start" x="316" y="-803" font-family="Helvetica,sans-Serif" font-size="10.00">cFSPlib.python_api</text>
<text text-anchor="start" x="316" y="-792" font-family="Helvetica,sans-Serif" font-size="10.00">_client.swagger_client.models.image.</text>
<text text-anchor="middle" x="408.5" y="-781" font-family="Helvetica,sans-Serif" font-size="10.00">Image.to_str</text>
</a>
</g>
</g>
<!-- Node2 -->
<g id="node2" class="node">
<title>Node2</title>
<g id="a_node2"><a xlink:href="classcFSPlib_1_1python__api__client_1_1swagger__client_1_1models_1_1administration__mantle__logi168f0a51d80725a08a224c580ca4eab6.html#ad1cb3f837b0fb7187e407e652faed88b" target="_top" xlink:title=" ">
<polygon fill="none" stroke="black" points="12.5,-1535.5 12.5,-1587.5 259.5,-1587.5 259.5,-1535.5 12.5,-1535.5"/>
<text text-anchor="start" x="20.5" y="-1575.5" font-family="Helvetica,sans-Serif" font-size="10.00">cFSPlib.python_api</text>
<text text-anchor="start" x="20.5" y="-1564.5" font-family="Helvetica,sans-Serif" font-size="10.00">_client.swagger_client.models.administration</text>
<text text-anchor="start" x="20.5" y="-1553.5" font-family="Helvetica,sans-Serif" font-size="10.00">_mantle_logic_body.AdministrationMantleLogic</text>
<text text-anchor="middle" x="136" y="-1542.5" font-family="Helvetica,sans-Serif" font-size="10.00">Body.__repr__</text>
</a>
</g>
</g>
<!-- Node1&#45;&gt;Node2 -->
<g id="edge1" class="edge">
<title>Node1&#45;&gt;Node2</title>
<path fill="none" stroke="midnightblue" d="M406.08,-825.43C399.68,-951.13 369.49,-1421.87 272,-1526.5 268.29,-1530.49 264.18,-1534.04 259.79,-1537.21"/>
<polygon fill="midnightblue" stroke="midnightblue" points="409.58,-825.5 406.58,-815.34 402.59,-825.16 409.58,-825.5"/>
</g>
<!-- Node3 -->
<g id="node3" class="node">
<title>Node3</title>
<g id="a_node3"><a xlink:href="classcFSPlib_1_1python__api__client_1_1swagger__client_1_1models_1_1administration__platform__lo7236faec3e459a8c5be8431e1b997ede.html#a0c9da310956fd3722898545877914406" target="_top" xlink:title=" ">
<polygon fill="none" stroke="black" points="16.5,-1464.5 16.5,-1516.5 255.5,-1516.5 255.5,-1464.5 16.5,-1464.5"/>
<text text-anchor="start" x="24.5" y="-1504.5" font-family="Helvetica,sans-Serif" font-size="10.00">cFSPlib.python_api</text>
<text text-anchor="start" x="24.5" y="-1493.5" font-family="Helvetica,sans-Serif" font-size="10.00">_client.swagger_client.models.administration</text>
<text text-anchor="start" x="24.5" y="-1482.5" font-family="Helvetica,sans-Serif" font-size="10.00">_platform_logic_body.AdministrationPlatform</text>
<text text-anchor="middle" x="136" y="-1471.5" font-family="Helvetica,sans-Serif" font-size="10.00">LogicBody.__repr__</text>
</a>
</g>
</g>
<!-- Node1&#45;&gt;Node3 -->
<g id="edge2" class="edge">
<title>Node1&#45;&gt;Node3</title>
<path fill="none" stroke="midnightblue" d="M405.38,-825.39C396.71,-943.04 360.06,-1361.17 272,-1454.5 267.09,-1459.7 261.52,-1464.19 255.5,-1468.05"/>
<polygon fill="midnightblue" stroke="midnightblue" points="408.88,-825.5 406.11,-815.27 401.9,-824.99 408.88,-825.5"/>
</g>
<!-- Node4 -->
<g id="node4" class="node">
<title>Node4</title>
<g id="a_node4"><a xlink:href="classcFSPlib_1_1python__api__client_1_1swagger__client_1_1models_1_1build__script_1_1BuildScript.html#a448bc85c025bf0489aec25faf4174ea4" target="_top" xlink:title=" ">
<polygon fill="none" stroke="black" points="40.5,-1404 40.5,-1445 231.5,-1445 231.5,-1404 40.5,-1404"/>
<text text-anchor="start" x="48.5" y="-1433" font-family="Helvetica,sans-Serif" font-size="10.00">cFSPlib.python_api</text>
<text text-anchor="start" x="48.5" y="-1422" font-family="Helvetica,sans-Serif" font-size="10.00">_client.swagger_client.models.build</text>
<text text-anchor="middle" x="136" y="-1411" font-family="Helvetica,sans-Serif" font-size="10.00">_script.BuildScript.__repr__</text>
</a>
</g>
</g>
<!-- Node1&#45;&gt;Node4 -->
<g id="edge3" class="edge">
<title>Node1&#45;&gt;Node4</title>
<path fill="none" stroke="midnightblue" d="M404.84,-825.19C394.64,-935.88 354.35,-1312.43 272,-1394.5 260.86,-1405.6 246.58,-1412.99 231.5,-1417.83"/>
<polygon fill="midnightblue" stroke="midnightblue" points="408.35,-825.31 405.76,-815.03 401.38,-824.68 408.35,-825.31"/>
</g>
<!-- Node5 -->
<g id="node5" class="node">
<title>Node5</title>
<g id="a_node5"><a xlink:href="classcFSPlib_1_1python__api__client_1_1swagger__client_1_1models_1_1cluster_1_1Cluster.html#a26f2701765ffcb35f33d5c7fbb539b27" target="_top" xlink:title=" ">
<polygon fill="none" stroke="black" points="34.5,-1344 34.5,-1385 237.5,-1385 237.5,-1344 34.5,-1344"/>
<text text-anchor="start" x="42.5" y="-1373" font-family="Helvetica,sans-Serif" font-size="10.00">cFSPlib.python_api</text>
<text text-anchor="start" x="42.5" y="-1362" font-family="Helvetica,sans-Serif" font-size="10.00">_client.swagger_client.models.cluster.</text>
<text text-anchor="middle" x="136" y="-1351" font-family="Helvetica,sans-Serif" font-size="10.00">Cluster.__repr__</text>
</a>
</g>
</g>
<!-- Node1&#45;&gt;Node5 -->
<g id="edge4" class="edge">
<title>Node1&#45;&gt;Node5</title>
<path fill="none" stroke="midnightblue" d="M404.02,-825.14C391.68,-928.49 346.68,-1261.82 272,-1334.5 262.36,-1343.88 250.48,-1350.59 237.8,-1355.35"/>
<polygon fill="midnightblue" stroke="midnightblue" points="407.52,-825.4 405.21,-815.06 400.57,-824.58 407.52,-825.4"/>
</g>
<!-- Node6 -->
<g id="node6" class="node">
<title>Node6</title>
<g id="a_node6"><a xlink:href="classcFSPlib_1_1python__api__client_1_1swagger__client_1_1models_1_1cluster__id__node__id__body_1_1ClusterIdNodeIdBody.html#ad0713dba776df60cac99179ebed01035" target="_top" xlink:title=" ">
<polygon fill="none" stroke="black" points="11,-1284 11,-1325 261,-1325 261,-1284 11,-1284"/>
<text text-anchor="start" x="19" y="-1313" font-family="Helvetica,sans-Serif" font-size="10.00">cFSPlib.python_api</text>
<text text-anchor="start" x="19" y="-1302" font-family="Helvetica,sans-Serif" font-size="10.00">_client.swagger_client.models.cluster</text>
<text text-anchor="middle" x="136" y="-1291" font-family="Helvetica,sans-Serif" font-size="10.00">_id_node_id_body.ClusterIdNodeIdBody.__repr__</text>
</a>
</g>
</g>
<!-- Node1&#45;&gt;Node6 -->
<g id="edge5" class="edge">
<title>Node1&#45;&gt;Node6</title>
<path fill="none" stroke="midnightblue" d="M402.99,-825.2C388.33,-920.89 339.03,-1211.15 272,-1274.5 268.34,-1277.96 264.36,-1281.06 260.16,-1283.83"/>
<polygon fill="midnightblue" stroke="midnightblue" points="406.46,-825.69 404.49,-815.28 399.54,-824.64 406.46,-825.69"/>
</g>
<!-- Node7 -->
<g id="node7" class="node">
<title>Node7</title>
<g id="a_node7"><a xlink:href="classcFSPlib_1_1python__api__client_1_1swagger__client_1_1models_1_1clusters__body_1_1ClustersBody.html#ab6646398021a76e42eb7c8be5af65128" target="_top" xlink:title=" ">
<polygon fill="none" stroke="black" points="33,-1224 33,-1265 239,-1265 239,-1224 33,-1224"/>
<text text-anchor="start" x="41" y="-1253" font-family="Helvetica,sans-Serif" font-size="10.00">cFSPlib.python_api</text>
<text text-anchor="start" x="41" y="-1242" font-family="Helvetica,sans-Serif" font-size="10.00">_client.swagger_client.models.clusters</text>
<text text-anchor="middle" x="136" y="-1231" font-family="Helvetica,sans-Serif" font-size="10.00">_body.ClustersBody.__repr__</text>
</a>
</g>
</g>
<!-- Node1&#45;&gt;Node7 -->
<g id="edge6" class="edge">
<title>Node1&#45;&gt;Node7</title>
<path fill="none" stroke="midnightblue" d="M407.33,-825.43C405.14,-903.31 388.05,-1108.81 272,-1214.5 262.59,-1223.07 251.29,-1229.37 239.29,-1233.99"/>
<polygon fill="midnightblue" stroke="midnightblue" points="410.83,-825.38 407.55,-815.31 403.83,-825.23 410.83,-825.38"/>
</g>
<!-- Node8 -->
<g id="node8" class="node">
<title>Node8</title>
<g id="a_node8"><a xlink:href="classcFSPlib_1_1python__api__client_1_1swagger__client_1_1models_1_1image_1_1Image.html#a0854b84137f933a93dc33082ff4131bf" target="_top" xlink:title=" ">
<polygon fill="none" stroke="black" points="35.5,-1164 35.5,-1205 236.5,-1205 236.5,-1164 35.5,-1164"/>
<text text-anchor="start" x="43.5" y="-1193" font-family="Helvetica,sans-Serif" font-size="10.00">cFSPlib.python_api</text>
<text text-anchor="start" x="43.5" y="-1182" font-family="Helvetica,sans-Serif" font-size="10.00">_client.swagger_client.models.image.</text>
<text text-anchor="middle" x="136" y="-1171" font-family="Helvetica,sans-Serif" font-size="10.00">Image.__repr__</text>
</a>
</g>
</g>
<!-- Node1&#45;&gt;Node8 -->
<g id="edge7" class="edge">
<title>Node1&#45;&gt;Node8</title>
<path fill="none" stroke="midnightblue" d="M405.39,-825.78C398.91,-895.99 373.02,-1066.84 272,-1154.5 261.75,-1163.39 249.46,-1169.82 236.51,-1174.44"/>
<polygon fill="midnightblue" stroke="midnightblue" points="408.92,-825.66 406.28,-815.4 401.94,-825.07 408.92,-825.66"/>
</g>
<!-- Node9 -->
<g id="node9" class="node">
<title>Node9</title>
<g id="a_node9"><a xlink:href="classcFSPlib_1_1python__api__client_1_1swagger__client_1_1models_1_1images__app__logic__body_1_1ImagesAppLogicBody.html#a99987314d45e9493c3c5ef061a1a0ab8" target="_top" xlink:title=" ">
<polygon fill="none" stroke="black" points="13,-1104 13,-1145 259,-1145 259,-1104 13,-1104"/>
<text text-anchor="start" x="21" y="-1133" font-family="Helvetica,sans-Serif" font-size="10.00">cFSPlib.python_api</text>
<text text-anchor="start" x="21" y="-1122" font-family="Helvetica,sans-Serif" font-size="10.00">_client.swagger_client.models.images</text>
<text text-anchor="middle" x="136" y="-1111" font-family="Helvetica,sans-Serif" font-size="10.00">_app_logic_body.ImagesAppLogicBody.__repr__</text>
</a>
</g>
</g>
<!-- Node1&#45;&gt;Node9 -->
<g id="edge8" class="edge">
<title>Node1&#45;&gt;Node9</title>
<path fill="none" stroke="midnightblue" d="M402.86,-825.25C391.92,-886.55 358.59,-1024.1 272,-1094.5 267.72,-1097.98 263.11,-1101.08 258.28,-1103.84"/>
<polygon fill="midnightblue" stroke="midnightblue" points="406.37,-825.51 404.6,-815.06 399.47,-824.33 406.37,-825.51"/>
</g>
<!-- Node10 -->
<g id="node10" class="node">
<title>Node10</title>
<g id="a_node10"><a xlink:href="classcFSPlib_1_1python__api__client_1_1swagger__client_1_1models_1_1images__body_1_1ImagesBody.html#a1ed669c0f3398e7cccdad49cc3d8e0d3" target="_top" xlink:title=" ">
<polygon fill="none" stroke="black" points="34.5,-1044 34.5,-1085 237.5,-1085 237.5,-1044 34.5,-1044"/>
<text text-anchor="start" x="42.5" y="-1073" font-family="Helvetica,sans-Serif" font-size="10.00">cFSPlib.python_api</text>
<text text-anchor="start" x="42.5" y="-1062" font-family="Helvetica,sans-Serif" font-size="10.00">_client.swagger_client.models.images</text>
<text text-anchor="middle" x="136" y="-1051" font-family="Helvetica,sans-Serif" font-size="10.00">_body.ImagesBody.__repr__</text>
</a>
</g>
</g>
<!-- Node1&#45;&gt;Node10 -->
<g id="edge9" class="edge">
<title>Node1&#45;&gt;Node10</title>
<path fill="none" stroke="midnightblue" d="M399.21,-824.93C383.49,-876.56 344.29,-980.93 272,-1034.5 261.78,-1042.08 250,-1047.8 237.75,-1052.12"/>
<polygon fill="midnightblue" stroke="midnightblue" points="402.65,-825.63 402.12,-815.04 395.94,-823.65 402.65,-825.63"/>
</g>
<!-- Node11 -->
<g id="node11" class="node">
<title>Node11</title>
<g id="a_node11"><a xlink:href="classcFSPlib_1_1python__api__client_1_1swagger__client_1_1models_1_1inline__response200_1_1InlineResponse200.html#ac6f8953ce29b06b760f67c873c66324c" target="_top" xlink:title=" ">
<polygon fill="none" stroke="black" points="24.5,-984 24.5,-1025 247.5,-1025 247.5,-984 24.5,-984"/>
<text text-anchor="start" x="32.5" y="-1013" font-family="Helvetica,sans-Serif" font-size="10.00">cFSPlib.python_api</text>
<text text-anchor="start" x="32.5" y="-1002" font-family="Helvetica,sans-Serif" font-size="10.00">_client.swagger_client.models.inline</text>
<text text-anchor="middle" x="136" y="-991" font-family="Helvetica,sans-Serif" font-size="10.00">_response200.InlineResponse200.__repr__</text>
</a>
</g>
</g>
<!-- Node1&#45;&gt;Node11 -->
<g id="edge10" class="edge">
<title>Node1&#45;&gt;Node11</title>
<path fill="none" stroke="midnightblue" d="M393.64,-824.12C373.06,-864.71 330.46,-936.86 272,-974.5 264.43,-979.37 256.18,-983.46 247.61,-986.9"/>
<polygon fill="midnightblue" stroke="midnightblue" points="396.86,-825.52 398.17,-815 390.59,-822.41 396.86,-825.52"/>
</g>
<!-- Node12 -->
<g id="node12" class="node">
<title>Node12</title>
<g id="a_node12"><a xlink:href="classcFSPlib_1_1python__api__client_1_1swagger__client_1_1models_1_1inline__response2001_1_1InlineResponse2001.html#a7b1813083bf541835b5c79d5f65312dc" target="_top" xlink:title=" ">
<polygon fill="none" stroke="black" points="18.5,-924 18.5,-965 253.5,-965 253.5,-924 18.5,-924"/>
<text text-anchor="start" x="26.5" y="-953" font-family="Helvetica,sans-Serif" font-size="10.00">cFSPlib.python_api</text>
<text text-anchor="start" x="26.5" y="-942" font-family="Helvetica,sans-Serif" font-size="10.00">_client.swagger_client.models.inline</text>
<text text-anchor="middle" x="136" y="-931" font-family="Helvetica,sans-Serif" font-size="10.00">_response2001.InlineResponse2001.__repr__</text>
</a>
</g>
</g>
<!-- Node1&#45;&gt;Node12 -->
<g id="edge11" class="edge">
<title>Node1&#45;&gt;Node12</title>
<path fill="none" stroke="midnightblue" d="M383.18,-823.21C358.14,-850.86 316.58,-891.76 272,-914.5 265.05,-918.05 257.69,-921.18 250.13,-923.94"/>
<polygon fill="midnightblue" stroke="midnightblue" points="386.07,-825.23 390.1,-815.43 380.84,-820.57 386.07,-825.23"/>
</g>
<!-- Node13 -->
<g id="node13" class="node">
<title>Node13</title>
<g id="a_node13"><a xlink:href="classcFSPlib_1_1python__api__client_1_1swagger__client_1_1models_1_1inline__response2002_1_1InlineResponse2002.html#adbbfec7280b1cf5175d44440b83419af" target="_top" xlink:title=" ">
<polygon fill="none" stroke="black" points="18.5,-864 18.5,-905 253.5,-905 253.5,-864 18.5,-864"/>
<text text-anchor="start" x="26.5" y="-893" font-family="Helvetica,sans-Serif" font-size="10.00">cFSPlib.python_api</text>
<text text-anchor="start" x="26.5" y="-882" font-family="Helvetica,sans-Serif" font-size="10.00">_client.swagger_client.models.inline</text>
<text text-anchor="middle" x="136" y="-871" font-family="Helvetica,sans-Serif" font-size="10.00">_response2002.InlineResponse2002.__repr__</text>
</a>
</g>
</g>
<!-- Node1&#45;&gt;Node13 -->
<g id="edge12" class="edge">
<title>Node1&#45;&gt;Node13</title>
<path fill="none" stroke="midnightblue" d="M357.49,-819.49C332.31,-831.34 301.04,-844.95 272,-854.5 261.62,-857.91 250.67,-861.06 239.67,-863.93"/>
<polygon fill="midnightblue" stroke="midnightblue" points="359.3,-822.51 366.82,-815.05 356.29,-816.19 359.3,-822.51"/>
</g>
<!-- Node14 -->
<g id="node14" class="node">
<title>Node14</title>
<g id="a_node14"><a xlink:href="classcFSPlib_1_1python__api__client_1_1swagger__client_1_1models_1_1inline__response2003_1_1InlineResponse2003.html#a8ca2bbd5a75f2000001047ad645e1b7f" target="_top" xlink:title=" ">
<polygon fill="none" stroke="black" points="18.5,-804 18.5,-845 253.5,-845 253.5,-804 18.5,-804"/>
<text text-anchor="start" x="26.5" y="-833" font-family="Helvetica,sans-Serif" font-size="10.00">cFSPlib.python_api</text>
<text text-anchor="start" x="26.5" y="-822" font-family="Helvetica,sans-Serif" font-size="10.00">_client.swagger_client.models.inline</text>
<text text-anchor="middle" x="136" y="-811" font-family="Helvetica,sans-Serif" font-size="10.00">_response2003.InlineResponse2003.__repr__</text>
</a>
</g>
</g>
<!-- Node1&#45;&gt;Node14 -->
<g id="edge13" class="edge">
<title>Node1&#45;&gt;Node14</title>
<path fill="none" stroke="midnightblue" d="M297.93,-806.65C283.38,-808.27 268.42,-809.92 253.76,-811.55"/>
<polygon fill="midnightblue" stroke="midnightblue" points="298.37,-810.12 307.93,-805.54 297.6,-803.17 298.37,-810.12"/>
</g>
<!-- Node15 -->
<g id="node15" class="node">
<title>Node15</title>
<g id="a_node15"><a xlink:href="classcFSPlib_1_1python__api__client_1_1swagger__client_1_1models_1_1inline__response2004_1_1InlineResponse2004.html#a438928711d368ae2dfb1f0dae503efd0" target="_top" xlink:title=" ">
<polygon fill="none" stroke="black" points="18.5,-744 18.5,-785 253.5,-785 253.5,-744 18.5,-744"/>
<text text-anchor="start" x="26.5" y="-773" font-family="Helvetica,sans-Serif" font-size="10.00">cFSPlib.python_api</text>
<text text-anchor="start" x="26.5" y="-762" font-family="Helvetica,sans-Serif" font-size="10.00">_client.swagger_client.models.inline</text>
<text text-anchor="middle" x="136" y="-751" font-family="Helvetica,sans-Serif" font-size="10.00">_response2004.InlineResponse2004.__repr__</text>
</a>
</g>
</g>
<!-- Node1&#45;&gt;Node15 -->
<g id="edge14" class="edge">
<title>Node1&#45;&gt;Node15</title>
<path fill="none" stroke="midnightblue" d="M297.93,-782.35C283.38,-780.73 268.42,-779.08 253.76,-777.45"/>
<polygon fill="midnightblue" stroke="midnightblue" points="297.6,-785.83 307.93,-783.46 298.37,-778.88 297.6,-785.83"/>
</g>
<!-- Node16 -->
<g id="node16" class="node">
<title>Node16</title>
<g id="a_node16"><a xlink:href="classcFSPlib_1_1python__api__client_1_1swagger__client_1_1models_1_1inline__response2005_1_1InlineResponse2005.html#a68342538baeb453cad9a2f378281c710" target="_top" xlink:title=" ">
<polygon fill="none" stroke="black" points="18.5,-684 18.5,-725 253.5,-725 253.5,-684 18.5,-684"/>
<text text-anchor="start" x="26.5" y="-713" font-family="Helvetica,sans-Serif" font-size="10.00">cFSPlib.python_api</text>
<text text-anchor="start" x="26.5" y="-702" font-family="Helvetica,sans-Serif" font-size="10.00">_client.swagger_client.models.inline</text>
<text text-anchor="middle" x="136" y="-691" font-family="Helvetica,sans-Serif" font-size="10.00">_response2005.InlineResponse2005.__repr__</text>
</a>
</g>
</g>
<!-- Node1&#45;&gt;Node16 -->
<g id="edge15" class="edge">
<title>Node1&#45;&gt;Node16</title>
<path fill="none" stroke="midnightblue" d="M357.49,-769.51C332.31,-757.66 301.04,-744.05 272,-734.5 261.62,-731.09 250.67,-727.94 239.67,-725.07"/>
<polygon fill="midnightblue" stroke="midnightblue" points="356.29,-772.81 366.82,-773.95 359.3,-766.49 356.29,-772.81"/>
</g>
<!-- Node17 -->
<g id="node17" class="node">
<title>Node17</title>
<g id="a_node17"><a xlink:href="classcFSPlib_1_1python__api__client_1_1swagger__client_1_1models_1_1inline__response2006_1_1InlineResponse2006.html#a39ebc73abe63b92a0b0c794877a99da4" target="_top" xlink:title=" ">
<polygon fill="none" stroke="black" points="18.5,-624 18.5,-665 253.5,-665 253.5,-624 18.5,-624"/>
<text text-anchor="start" x="26.5" y="-653" font-family="Helvetica,sans-Serif" font-size="10.00">cFSPlib.python_api</text>
<text text-anchor="start" x="26.5" y="-642" font-family="Helvetica,sans-Serif" font-size="10.00">_client.swagger_client.models.inline</text>
<text text-anchor="middle" x="136" y="-631" font-family="Helvetica,sans-Serif" font-size="10.00">_response2006.InlineResponse2006.__repr__</text>
</a>
</g>
</g>
<!-- Node1&#45;&gt;Node17 -->
<g id="edge16" class="edge">
<title>Node1&#45;&gt;Node17</title>
<path fill="none" stroke="midnightblue" d="M383.18,-765.79C358.14,-738.14 316.58,-697.24 272,-674.5 265.05,-670.95 257.69,-667.82 250.13,-665.06"/>
<polygon fill="midnightblue" stroke="midnightblue" points="380.84,-768.43 390.1,-773.57 386.07,-763.77 380.84,-768.43"/>
</g>
<!-- Node18 -->
<g id="node18" class="node">
<title>Node18</title>
<g id="a_node18"><a xlink:href="classcFSPlib_1_1python__api__client_1_1swagger__client_1_1models_1_1instance_1_1Instance.html#a3018c78d992e6757c90626981cb0b194" target="_top" xlink:title=" ">
<polygon fill="none" stroke="black" points="30,-564 30,-605 242,-605 242,-564 30,-564"/>
<text text-anchor="start" x="38" y="-593" font-family="Helvetica,sans-Serif" font-size="10.00">cFSPlib.python_api</text>
<text text-anchor="start" x="38" y="-582" font-family="Helvetica,sans-Serif" font-size="10.00">_client.swagger_client.models.instance.</text>
<text text-anchor="middle" x="136" y="-571" font-family="Helvetica,sans-Serif" font-size="10.00">Instance.__repr__</text>
</a>
</g>
</g>
<!-- Node1&#45;&gt;Node18 -->
<g id="edge17" class="edge">
<title>Node1&#45;&gt;Node18</title>
<path fill="none" stroke="midnightblue" d="M393.64,-764.88C373.06,-724.29 330.46,-652.14 272,-614.5 262.82,-608.59 252.63,-603.83 242.09,-600"/>
<polygon fill="midnightblue" stroke="midnightblue" points="390.59,-766.59 398.17,-774 396.86,-763.48 390.59,-766.59"/>
</g>
<!-- Node19 -->
<g id="node19" class="node">
<title>Node19</title>
<g id="a_node19"><a xlink:href="classcFSPlib_1_1python__api__client_1_1swagger__client_1_1models_1_1instance__id__api__gateway__33456c8700113c53c3cfaa915ef28716.html#aa545f675e04b431f8123af8442cb69fd" target="_top" xlink:title=" ">
<polygon fill="none" stroke="black" points="16.5,-492.5 16.5,-544.5 255.5,-544.5 255.5,-492.5 16.5,-492.5"/>
<text text-anchor="start" x="24.5" y="-532.5" font-family="Helvetica,sans-Serif" font-size="10.00">cFSPlib.python_api</text>
<text text-anchor="start" x="24.5" y="-521.5" font-family="Helvetica,sans-Serif" font-size="10.00">_client.swagger_client.models.instance</text>
<text text-anchor="start" x="24.5" y="-510.5" font-family="Helvetica,sans-Serif" font-size="10.00">_id_api_gateway_body.InstanceIdApiGateway</text>
<text text-anchor="middle" x="136" y="-499.5" font-family="Helvetica,sans-Serif" font-size="10.00">Body.__repr__</text>
</a>
</g>
</g>
<!-- Node1&#45;&gt;Node19 -->
<g id="edge18" class="edge">
<title>Node1&#45;&gt;Node19</title>
<path fill="none" stroke="midnightblue" d="M398.85,-764C382.69,-712.72 342.98,-609.44 272,-554.5 266.92,-550.57 261.44,-547.06 255.7,-543.94"/>
<polygon fill="midnightblue" stroke="midnightblue" points="395.58,-765.29 401.85,-773.83 402.27,-763.24 395.58,-765.29"/>
</g>
<!-- Node20 -->
<g id="node20" class="node">
<title>Node20</title>
<g id="a_node20"><a xlink:href="classcFSPlib_1_1python__api__client_1_1swagger__client_1_1models_1_1instance__id__runlevel__body_1_1InstanceIdRunlevelBody.html#a9d0c64ef27367c164b9adb537680d771" target="_top" xlink:title=" ">
<polygon fill="none" stroke="black" points="3,-432 3,-473 269,-473 269,-432 3,-432"/>
<text text-anchor="start" x="11" y="-461" font-family="Helvetica,sans-Serif" font-size="10.00">cFSPlib.python_api</text>
<text text-anchor="start" x="11" y="-450" font-family="Helvetica,sans-Serif" font-size="10.00">_client.swagger_client.models.instance</text>
<text text-anchor="middle" x="136" y="-439" font-family="Helvetica,sans-Serif" font-size="10.00">_id_runlevel_body.InstanceIdRunlevelBody.__repr__</text>
</a>
</g>
</g>
<!-- Node1&#45;&gt;Node20 -->
<g id="edge19" class="edge">
<title>Node1&#45;&gt;Node20</title>
<path fill="none" stroke="midnightblue" d="M403.32,-763.55C393.11,-700.59 360.89,-557.29 272,-483.5 267.28,-479.58 262.16,-476.14 256.77,-473.11"/>
<polygon fill="midnightblue" stroke="midnightblue" points="399.89,-764.3 404.88,-773.65 406.81,-763.23 399.89,-764.3"/>
</g>
<!-- Node21 -->
<g id="node21" class="node">
<title>Node21</title>
<g id="a_node21"><a xlink:href="classcFSPlib_1_1python__api__client_1_1swagger__client_1_1models_1_1instances__body_1_1InstancesBody.html#a6b441c86aa1aa6f248f599b0a3a286b0" target="_top" xlink:title=" ">
<polygon fill="none" stroke="black" points="29,-372 29,-413 243,-413 243,-372 29,-372"/>
<text text-anchor="start" x="37" y="-401" font-family="Helvetica,sans-Serif" font-size="10.00">cFSPlib.python_api</text>
<text text-anchor="start" x="37" y="-390" font-family="Helvetica,sans-Serif" font-size="10.00">_client.swagger_client.models.instances</text>
<text text-anchor="middle" x="136" y="-379" font-family="Helvetica,sans-Serif" font-size="10.00">_body.InstancesBody.__repr__</text>
</a>
</g>
</g>
<!-- Node1&#45;&gt;Node21 -->
<g id="edge20" class="edge">
<title>Node1&#45;&gt;Node21</title>
<path fill="none" stroke="midnightblue" d="M405.86,-763.68C400.31,-692.12 376.19,-513.9 272,-422.5 263.52,-415.06 253.6,-409.34 243.06,-404.96"/>
<polygon fill="midnightblue" stroke="midnightblue" points="402.38,-764.1 406.58,-773.83 409.36,-763.6 402.38,-764.1"/>
</g>
<!-- Node22 -->
<g id="node22" class="node">
<title>Node22</title>
<g id="a_node22"><a xlink:href="classcFSPlib_1_1python__api__client_1_1swagger__client_1_1models_1_1instances__instance__id__body_1_1InstancesInstanceIdBody.html#ad0be600fabc59f43e5649cbbd09ea8fa" target="_top" xlink:title=" ">
<polygon fill="none" stroke="black" points="0,-312 0,-353 272,-353 272,-312 0,-312"/>
<text text-anchor="start" x="8" y="-341" font-family="Helvetica,sans-Serif" font-size="10.00">cFSPlib.python_api</text>
<text text-anchor="start" x="8" y="-330" font-family="Helvetica,sans-Serif" font-size="10.00">_client.swagger_client.models.instances</text>
<text text-anchor="middle" x="136" y="-319" font-family="Helvetica,sans-Serif" font-size="10.00">_instance_id_body.InstancesInstanceIdBody.__repr__</text>
</a>
</g>
</g>
<!-- Node1&#45;&gt;Node22 -->
<g id="edge21" class="edge">
<title>Node1&#45;&gt;Node22</title>
<path fill="none" stroke="midnightblue" d="M407.65,-763.27C406.23,-683.65 390.89,-471.66 272,-362.5 268.2,-359.01 264.08,-355.89 259.73,-353.11"/>
<polygon fill="midnightblue" stroke="midnightblue" points="404.15,-763.64 407.77,-773.6 411.15,-763.56 404.15,-763.64"/>
</g>
<!-- Node23 -->
<g id="node23" class="node">
<title>Node23</title>
<g id="a_node23"><a xlink:href="classcFSPlib_1_1python__api__client_1_1swagger__client_1_1models_1_1node__map_1_1NodeMap.html#af7c968e6ab103154dd247b9dbca76974" target="_top" xlink:title=" ">
<polygon fill="none" stroke="black" points="40.5,-252 40.5,-293 231.5,-293 231.5,-252 40.5,-252"/>
<text text-anchor="start" x="48.5" y="-281" font-family="Helvetica,sans-Serif" font-size="10.00">cFSPlib.python_api</text>
<text text-anchor="start" x="48.5" y="-270" font-family="Helvetica,sans-Serif" font-size="10.00">_client.swagger_client.models.node</text>
<text text-anchor="middle" x="136" y="-259" font-family="Helvetica,sans-Serif" font-size="10.00">_map.NodeMap.__repr__</text>
</a>
</g>
</g>
<!-- Node1&#45;&gt;Node23 -->
<g id="edge22" class="edge">
<title>Node1&#45;&gt;Node23</title>
<path fill="none" stroke="midnightblue" d="M403.2,-763.71C389,-666.33 340.53,-367.68 272,-302.5 260.78,-291.83 246.64,-284.63 231.77,-279.83"/>
<polygon fill="midnightblue" stroke="midnightblue" points="399.76,-764.39 404.65,-773.79 406.69,-763.39 399.76,-764.39"/>
</g>
<!-- Node24 -->
<g id="node24" class="node">
<title>Node24</title>
<g id="a_node24"><a xlink:href="classcFSPlib_1_1python__api__client_1_1swagger__client_1_1models_1_1node__map__inner_1_1NodeMapInner.html#a587604c99266c82720ed89c2c61ffe2a" target="_top" xlink:title=" ">
<polygon fill="none" stroke="black" points="40.5,-192 40.5,-233 231.5,-233 231.5,-192 40.5,-192"/>
<text text-anchor="start" x="48.5" y="-221" font-family="Helvetica,sans-Serif" font-size="10.00">cFSPlib.python_api</text>
<text text-anchor="start" x="48.5" y="-210" font-family="Helvetica,sans-Serif" font-size="10.00">_client.swagger_client.models.node</text>
<text text-anchor="middle" x="136" y="-199" font-family="Helvetica,sans-Serif" font-size="10.00">_map_inner.NodeMapInner.__repr__</text>
</a>
</g>
</g>
<!-- Node1&#45;&gt;Node24 -->
<g id="edge23" class="edge">
<title>Node1&#45;&gt;Node24</title>
<path fill="none" stroke="midnightblue" d="M404.2,-763.86C392.3,-659.02 348.21,-317.05 272,-242.5 260.84,-231.59 246.65,-224.28 231.68,-219.46"/>
<polygon fill="midnightblue" stroke="midnightblue" points="400.72,-764.25 405.31,-773.8 407.68,-763.47 400.72,-764.25"/>
</g>
<!-- Node25 -->
<g id="node25" class="node">
<title>Node25</title>
<g id="a_node25"><a xlink:href="classcFSPlib_1_1python__api__client_1_1swagger__client_1_1models_1_1quota_1_1Quota.html#ad43824f75dab80cd5638590e1a92dd78" target="_top" xlink:title=" ">
<polygon fill="none" stroke="black" points="37,-132 37,-173 235,-173 235,-132 37,-132"/>
<text text-anchor="start" x="45" y="-161" font-family="Helvetica,sans-Serif" font-size="10.00">cFSPlib.python_api</text>
<text text-anchor="start" x="45" y="-150" font-family="Helvetica,sans-Serif" font-size="10.00">_client.swagger_client.models.quota.</text>
<text text-anchor="middle" x="136" y="-139" font-family="Helvetica,sans-Serif" font-size="10.00">Quota.__repr__</text>
</a>
</g>
</g>
<!-- Node1&#45;&gt;Node25 -->
<g id="edge24" class="edge">
<title>Node1&#45;&gt;Node25</title>
<path fill="none" stroke="midnightblue" d="M404.97,-763.58C395.15,-651.18 355.84,-266.4 272,-182.5 261.82,-172.31 248.99,-165.25 235.32,-160.41"/>
<polygon fill="midnightblue" stroke="midnightblue" points="401.51,-764.22 405.85,-773.88 408.49,-763.62 401.51,-764.22"/>
</g>
<!-- Node26 -->
<g id="node26" class="node">
<title>Node26</title>
<g id="a_node26"><a xlink:href="classcFSPlib_1_1python__api__client_1_1swagger__client_1_1models_1_1resource_1_1Resource.html#ae6c97465f736f8b4d119f4e7986429d9" target="_top" xlink:title=" ">
<polygon fill="none" stroke="black" points="30,-72 30,-113 242,-113 242,-72 30,-72"/>
<text text-anchor="start" x="38" y="-101" font-family="Helvetica,sans-Serif" font-size="10.00">cFSPlib.python_api</text>
<text text-anchor="start" x="38" y="-90" font-family="Helvetica,sans-Serif" font-size="10.00">_client.swagger_client.models.resource.</text>
<text text-anchor="middle" x="136" y="-79" font-family="Helvetica,sans-Serif" font-size="10.00">Resource.__repr__</text>
</a>
</g>
</g>
<!-- Node1&#45;&gt;Node26 -->
<g id="edge25" class="edge">
<title>Node1&#45;&gt;Node26</title>
<path fill="none" stroke="midnightblue" d="M405.64,-763.73C397.81,-644.63 363.61,-215.93 272,-122.5 263.6,-113.93 253.32,-107.56 242.24,-102.86"/>
<polygon fill="midnightblue" stroke="midnightblue" points="402.16,-764.2 406.3,-773.96 409.15,-763.76 402.16,-764.2"/>
</g>
<!-- Node27 -->
<g id="node27" class="node">
<title>Node27</title>
<g id="a_node27"><a xlink:href="classcFSPlib_1_1python__api__client_1_1swagger__client_1_1models_1_1test__instance__instance__idb21fef29c350bd01bc51bf6a97dd8668.html#af4ecdf849e2718aec0c18c3f5c2aae42" target="_top" xlink:title=" ">
<polygon fill="none" stroke="black" points="28.5,-0.5 28.5,-52.5 243.5,-52.5 243.5,-0.5 28.5,-0.5"/>
<text text-anchor="start" x="36.5" y="-40.5" font-family="Helvetica,sans-Serif" font-size="10.00">cFSPlib.python_api</text>
<text text-anchor="start" x="36.5" y="-29.5" font-family="Helvetica,sans-Serif" font-size="10.00">_client.swagger_client.models.test</text>
<text text-anchor="start" x="36.5" y="-18.5" font-family="Helvetica,sans-Serif" font-size="10.00">_instance_instance_id_body.TestInstance</text>
<text text-anchor="middle" x="136" y="-7.5" font-family="Helvetica,sans-Serif" font-size="10.00">InstanceIdBody.__repr__</text>
</a>
</g>
</g>
<!-- Node1&#45;&gt;Node27 -->
<g id="edge26" class="edge">
<title>Node1&#45;&gt;Node27</title>
<path fill="none" stroke="midnightblue" d="M406.06,-763.58C399.59,-637.96 369.12,-167.47 272,-62.5 264.01,-53.87 254.2,-47.21 243.55,-42.09"/>
<polygon fill="midnightblue" stroke="midnightblue" points="402.57,-763.86 406.57,-773.67 409.56,-763.51 402.57,-763.86"/>
</g>
</g>
</svg>
        <g id="navigator" transform="translate(0 0)" fill="#404254">
                <rect fill="#f2f5e9" fill-opacity="0.5" stroke="#606060" stroke-width=".5" x="0" y="0" width="60" height="60"/>
                <use id="zoomplus" xlink:href="#zoomPlus" x="17" y="9" onmousedown="handleZoom(evt,'in')"/>
                <use id="zoomminus" xlink:href="#zoomMin" x="42" y="9" onmousedown="handleZoom(evt,'out')"/>
                <use id="reset" xlink:href="#resetDef" x="30" y="36" onmousedown="handleReset()"/>
                <g id="arrowUp" xlink:href="#dirArrow" transform="translate(30 24)" onmousedown="handlePan(0,-1)">
                  <use xlink:href="#rim" fill="#404040">
                        <set attributeName="fill" to="#808080" begin="arrowUp.mouseover" end="arrowUp.mouseout"/>
                  </use>
                  <path fill="none" stroke="white" stroke-width="1.5" d="M0,-3.0v7 M-2.5,-0.5L0,-3.0L2.5,-0.5"/>
                </g>
                <g id="arrowRight" xlink:href="#dirArrow" transform="rotate(90) translate(36 -43)" onmousedown="handlePan(1,0)">
                  <use xlink:href="#rim" fill="#404040">
                        <set attributeName="fill" to="#808080" begin="arrowRight.mouseover" end="arrowRight.mouseout"/>
                  </use>
                  <path fill="none" stroke="white" stroke-width="1.5" d="M0,-3.0v7 M-2.5,-0.5L0,-3.0L2.5,-0.5"/>
                </g>
                <g id="arrowDown" xlink:href="#dirArrow" transform="rotate(180) translate(-30 -48)" onmousedown="handlePan(0,1)">
                  <use xlink:href="#rim" fill="#404040">
                        <set attributeName="fill" to="#808080" begin="arrowDown.mouseover" end="arrowDown.mouseout"/>
                  </use>
                  <path fill="none" stroke="white" stroke-width="1.5" d="M0,-3.0v7 M-2.5,-0.5L0,-3.0L2.5,-0.5"/>
                </g>
                <g id="arrowLeft" xlink:href="#dirArrow" transform="rotate(270) translate(-36 17)" onmousedown="handlePan(-1,0)">
                  <use xlink:href="#rim" fill="#404040">
                        <set attributeName="fill" to="#808080" begin="arrowLeft.mouseover" end="arrowLeft.mouseout"/>
                  </use>
                  <path fill="none" stroke="white" stroke-width="1.5" d="M0,-3.0v7 M-2.5,-0.5L0,-3.0L2.5,-0.5"/>
                </g>
        </g>
        <svg viewBox="0 0 15 15" width="100%" height="30px" preserveAspectRatio="xMaxYMin meet">
         <g id="arrow_out" transform="scale(0.3 0.3)">
          <a xlink:href="classcFSPlib_1_1python__api__client_1_1swagger__client_1_1models_1_1image_1_1Image_a322497c28181a346f3f8bb641efdfec7_icgraph_org.svg" target="_base">
           <rect id="button" ry="5" rx="5" y="6" x="6" height="38" width="38"
                fill="#f2f5e9" fill-opacity="0.5" stroke="#606060" stroke-width="1.0"/>
           <path id="arrow"
             d="M 11.500037,31.436501 C 11.940474,20.09759 22.043105,11.32322 32.158766,21.979434 L 37.068811,17.246167 C 37.068811,17.246167 37.088388,32 37.088388,32 L 22.160133,31.978069 C 22.160133,31.978069 26.997745,27.140456 26.997745,27.140456 C 18.528582,18.264221 13.291696,25.230495 11.500037,31.436501 z"
             style="fill:#404040;"/>
          </a>
         </g>
        </svg>
</svg>
