<?xml version="1.0" encoding="UTF-8" standalone="no"?>
<!DOCTYPE svg PUBLIC "-//W3C//DTD SVG 1.1//EN"
 "http://www.w3.org/Graphics/SVG/1.1/DTD/svg11.dtd">
<!-- Generated by graphviz version 2.43.0 (0)
 -->
<!-- Title: SimIp4Packet::pullChunk Pages: 1 -->
<svg width="406pt" height="104pt"
 viewBox="0.00 0.00 406.00 104.00" xmlns="http://www.w3.org/2000/svg" xmlns:xlink="http://www.w3.org/1999/xlink">
<g id="graph0" class="graph" transform="scale(1 1) rotate(0) translate(4 100)">
<title>SimIp4Packet::pullChunk</title>
<!-- Node1 -->
<g id="node1" class="node">
<title>Node1</title>
<g id="a_node1"><a xlink:title=" ">
<polygon fill="#bfbfbf" stroke="black" points="261,-38.5 261,-57.5 398,-57.5 398,-38.5 261,-38.5"/>
<text text-anchor="middle" x="329.5" y="-45.5" font-family="Helvetica,sans-Serif" font-size="10.00">SimIp4Packet::pullChunk</text>
</a>
</g>
</g>
<!-- Node2 -->
<g id="node2" class="node">
<title>Node2</title>
<g id="a_node2"><a xlink:href="classSimEthFrame.html#ad31244475e768f9cfbadf63f2580ae0d" target="_top" xlink:title="Add data payload to this frame from an IP4 packet.">
<polygon fill="none" stroke="black" points="81,-76.5 81,-95.5 225,-95.5 225,-76.5 81,-76.5"/>
<text text-anchor="middle" x="153" y="-83.5" font-family="Helvetica,sans-Serif" font-size="10.00">SimEthFrame::addPayload</text>
</a>
</g>
</g>
<!-- Node1&#45;&gt;Node2 -->
<g id="edge1" class="edge">
<title>Node1&#45;&gt;Node2</title>
<path fill="none" stroke="midnightblue" d="M274.53,-59.75C249.86,-65.13 221.01,-71.41 197.72,-76.48"/>
<polygon fill="midnightblue" stroke="midnightblue" points="275.44,-63.14 284.47,-57.59 273.95,-56.3 275.44,-63.14"/>
</g>
<!-- Node3 -->
<g id="node3" class="node">
<title>Node3</title>
<g id="a_node3"><a xlink:href="group__NTS__UOE__TEST.html#ga0ddf1224851353fc92bfbff6f499fa97" target="_top" xlink:title="Main function.">
<polygon fill="none" stroke="black" points="132.5,-38.5 132.5,-57.5 173.5,-57.5 173.5,-38.5 132.5,-38.5"/>
<text text-anchor="middle" x="153" y="-45.5" font-family="Helvetica,sans-Serif" font-size="10.00">main</text>
</a>
</g>
</g>
<!-- Node1&#45;&gt;Node3 -->
<g id="edge2" class="edge">
<title>Node1&#45;&gt;Node3</title>
<path fill="none" stroke="midnightblue" d="M250.2,-48C221.92,-48 192.37,-48 173.61,-48"/>
<polygon fill="midnightblue" stroke="midnightblue" points="250.53,-51.5 260.53,-48 250.53,-44.5 250.53,-51.5"/>
</g>
<!-- Node4 -->
<g id="node4" class="node">
<title>Node4</title>
<g id="a_node4"><a xlink:href="group__NTS__TOE__TEST.html#ga117d84af693cae78b0f7f615942c8db8" target="_top" xlink:title="Feed TOE with an IP packet.">
<polygon fill="none" stroke="black" points="106.5,-0.5 106.5,-19.5 199.5,-19.5 199.5,-0.5 106.5,-0.5"/>
<text text-anchor="middle" x="153" y="-7.5" font-family="Helvetica,sans-Serif" font-size="10.00">pIPRX_FeedTOE</text>
</a>
</g>
</g>
<!-- Node1&#45;&gt;Node4 -->
<g id="edge3" class="edge">
<title>Node1&#45;&gt;Node4</title>
<path fill="none" stroke="midnightblue" d="M274.53,-36.25C249.86,-30.87 221.01,-24.59 197.72,-19.52"/>
<polygon fill="midnightblue" stroke="midnightblue" points="273.95,-39.7 284.47,-38.41 275.44,-32.86 273.95,-39.7"/>
</g>
<!-- Node5 -->
<g id="node5" class="node">
<title>Node5</title>
<g id="a_node5"><a xlink:href="group__NTS__TOE__TEST.html#ga19626da81d440ab83bcba2f6838ccb87" target="_top" xlink:title="Emulate the behavior of the IP Rx Path (IPRX).">
<polygon fill="none" stroke="black" points="0,-0.5 0,-19.5 45,-19.5 45,-0.5 0,-0.5"/>
<text text-anchor="middle" x="22.5" y="-7.5" font-family="Helvetica,sans-Serif" font-size="10.00">pIPRX</text>
</a>
</g>
</g>
<!-- Node4&#45;&gt;Node5 -->
<g id="edge4" class="edge">
<title>Node4&#45;&gt;Node5</title>
<path fill="none" stroke="midnightblue" d="M96.17,-10C78.17,-10 59.27,-10 45.26,-10"/>
<polygon fill="midnightblue" stroke="midnightblue" points="96.33,-13.5 106.33,-10 96.33,-6.5 96.33,-13.5"/>
</g>
</g>
</svg>
