<?xml version="1.0" encoding="UTF-8" standalone="no"?>
<!DOCTYPE svg PUBLIC "-//W3C//DTD SVG 1.1//EN"
 "http://www.w3.org/Graphics/SVG/1.1/DTD/svg11.dtd">
<!-- Generated by graphviz version 2.43.0 (0)
 -->
<!-- Title: SimUdpDatagram::writeAxisUdpToFile Pages: 1 -->
<svg width="608pt" height="91pt"
 viewBox="0.00 0.00 608.00 91.00" xmlns="http://www.w3.org/2000/svg" xmlns:xlink="http://www.w3.org/1999/xlink">
<g id="graph0" class="graph" transform="scale(1 1) rotate(0) translate(4 87)">
<title>SimUdpDatagram::writeAxisUdpToFile</title>
<!-- Node1 -->
<g id="node1" class="node">
<title>Node1</title>
<g id="a_node1"><a xlink:title="Dump an AxisUdp chunk to a file.">
<polygon fill="#bfbfbf" stroke="black" points="445,-17 445,-47 600,-47 600,-17 445,-17"/>
<text text-anchor="start" x="453" y="-35" font-family="Helvetica,sans-Serif" font-size="10.00">SimUdpDatagram::writeAxis</text>
<text text-anchor="middle" x="522.5" y="-24" font-family="Helvetica,sans-Serif" font-size="10.00">UdpToFile</text>
</a>
</g>
</g>
<!-- Node2 -->
<g id="node2" class="node">
<title>Node2</title>
<g id="a_node2"><a xlink:href="classSimUdpDatagram.html#afd62cd4a99bab57e5c11597be65ba49b" target="_top" xlink:title="Dump the payload of this datagram as AxisUdp chunks into a file.">
<polygon fill="none" stroke="black" points="233,-39 233,-69 406,-69 406,-39 233,-39"/>
<text text-anchor="start" x="241" y="-57" font-family="Helvetica,sans-Serif" font-size="10.00">SimUdpDatagram::writePayload</text>
<text text-anchor="middle" x="319.5" y="-46" font-family="Helvetica,sans-Serif" font-size="10.00">ToDatFile</text>
</a>
</g>
</g>
<!-- Node1&#45;&gt;Node2 -->
<g id="edge1" class="edge">
<title>Node1&#45;&gt;Node2</title>
<path fill="none" stroke="midnightblue" d="M434.76,-41.49C425.31,-42.53 415.69,-43.58 406.25,-44.61"/>
<polygon fill="midnightblue" stroke="midnightblue" points="435.38,-44.95 444.94,-40.38 434.62,-37.99 435.38,-44.95"/>
</g>
<!-- Node6 -->
<g id="node6" class="node">
<title>Node6</title>
<g id="a_node6"><a xlink:href="classSimUdpDatagram.html#aab75328b19ee3c008b849046fdd25f1a" target="_top" xlink:title="Dump this UDP datagram as raw AxisUdp chunks into a file.">
<polygon fill="none" stroke="black" points="230,-0.5 230,-19.5 409,-19.5 409,-0.5 230,-0.5"/>
<text text-anchor="middle" x="319.5" y="-7.5" font-family="Helvetica,sans-Serif" font-size="10.00">SimUdpDatagram::writeToDatFile</text>
</a>
</g>
</g>
<!-- Node1&#45;&gt;Node6 -->
<g id="edge5" class="edge">
<title>Node1&#45;&gt;Node6</title>
<path fill="none" stroke="midnightblue" d="M434.83,-22.51C425.81,-21.53 416.63,-20.52 407.6,-19.53"/>
<polygon fill="midnightblue" stroke="midnightblue" points="434.62,-26.01 444.94,-23.62 435.38,-19.05 434.62,-26.01"/>
</g>
<!-- Node3 -->
<g id="node3" class="node">
<title>Node3</title>
<g id="a_node3"><a xlink:href="group__NTS__UOE__TEST.html#ga40610514eb0285c8afbe8cfe003638f6" target="_top" xlink:title="Create the golden Rx APP reference files from an input IPRX test file.">
<polygon fill="none" stroke="black" points="77,-63.5 77,-82.5 194,-82.5 194,-63.5 77,-63.5"/>
<text text-anchor="middle" x="135.5" y="-70.5" font-family="Helvetica,sans-Serif" font-size="10.00">createGoldenRxFiles</text>
</a>
</g>
</g>
<!-- Node2&#45;&gt;Node3 -->
<g id="edge2" class="edge">
<title>Node2&#45;&gt;Node3</title>
<path fill="none" stroke="midnightblue" d="M222.69,-64C212.97,-65.02 203.33,-66.02 194.2,-66.98"/>
<polygon fill="midnightblue" stroke="midnightblue" points="223.25,-67.46 232.83,-62.94 222.52,-60.5 223.25,-67.46"/>
</g>
<!-- Node5 -->
<g id="node5" class="node">
<title>Node5</title>
<g id="a_node5"><a xlink:href="group__udp__app__flash.html#gaed659893ff9e142d02f969213e4a501f" target="_top" xlink:title="Create the golden UDP Tx files from an input test file.">
<polygon fill="none" stroke="black" points="77.5,-25.5 77.5,-44.5 193.5,-44.5 193.5,-25.5 77.5,-25.5"/>
<text text-anchor="middle" x="135.5" y="-32.5" font-family="Helvetica,sans-Serif" font-size="10.00">createGoldenTxFiles</text>
</a>
</g>
</g>
<!-- Node2&#45;&gt;Node5 -->
<g id="edge4" class="edge">
<title>Node2&#45;&gt;Node5</title>
<path fill="none" stroke="midnightblue" d="M222.86,-44.02C212.9,-42.98 203.01,-41.94 193.68,-40.97"/>
<polygon fill="midnightblue" stroke="midnightblue" points="222.52,-47.5 232.83,-45.06 223.25,-40.54 222.52,-47.5"/>
</g>
<!-- Node4 -->
<g id="node4" class="node">
<title>Node4</title>
<g id="a_node4"><a xlink:href="group__NTS__UOE__TEST.html#ga0ddf1224851353fc92bfbff6f499fa97" target="_top" xlink:title="Main function.">
<polygon fill="none" stroke="black" points="0,-63.5 0,-82.5 41,-82.5 41,-63.5 0,-63.5"/>
<text text-anchor="middle" x="20.5" y="-70.5" font-family="Helvetica,sans-Serif" font-size="10.00">main</text>
</a>
</g>
</g>
<!-- Node3&#45;&gt;Node4 -->
<g id="edge3" class="edge">
<title>Node3&#45;&gt;Node4</title>
<path fill="none" stroke="midnightblue" d="M66.53,-73C57.29,-73 48.48,-73 41.14,-73"/>
<polygon fill="midnightblue" stroke="midnightblue" points="66.68,-76.5 76.68,-73 66.68,-69.5 66.68,-76.5"/>
</g>
</g>
</svg>
