<?xml version="1.0" encoding="UTF-8" standalone="no"?>
<!DOCTYPE svg PUBLIC "-//W3C//DTD SVG 1.1//EN"
 "http://www.w3.org/Graphics/SVG/1.1/DTD/svg11.dtd">
<!-- Generated by graphviz version 2.43.0 (0)
 -->
<!-- Title: SimIcmpPacket::addIcmpPayload Pages: 1 -->
<svg width="675pt" height="66pt"
 viewBox="0.00 0.00 675.00 66.00" xmlns="http://www.w3.org/2000/svg" xmlns:xlink="http://www.w3.org/1999/xlink">
<g id="graph0" class="graph" transform="scale(1 1) rotate(0) translate(4 62)">
<title>SimIcmpPacket::addIcmpPayload</title>
<!-- Node1 -->
<g id="node1" class="node">
<title>Node1</title>
<g id="a_node1"><a xlink:title=" ">
<polygon fill="#bfbfbf" stroke="black" points="0,-19.5 0,-38.5 177,-38.5 177,-19.5 0,-19.5"/>
<text text-anchor="middle" x="88.5" y="-26.5" font-family="Helvetica,sans-Serif" font-size="10.00">SimIcmpPacket::addIcmpPayload</text>
</a>
</g>
</g>
<!-- Node2 -->
<g id="node2" class="node">
<title>Node2</title>
<g id="a_node2"><a xlink:href="classSimIcmpPacket.html#a57d1ceea68d521728bb52dc201500c47" target="_top" xlink:title=" ">
<polygon fill="none" stroke="black" points="213,-19.5 213,-38.5 364,-38.5 364,-19.5 213,-19.5"/>
<text text-anchor="middle" x="288.5" y="-26.5" font-family="Helvetica,sans-Serif" font-size="10.00">SimIcmpPacket::pushChunk</text>
</a>
</g>
</g>
<!-- Node1&#45;&gt;Node2 -->
<g id="edge1" class="edge">
<title>Node1&#45;&gt;Node2</title>
<path fill="none" stroke="midnightblue" d="M177.21,-29C185.67,-29 194.24,-29 202.66,-29"/>
<polygon fill="midnightblue" stroke="midnightblue" points="202.86,-32.5 212.86,-29 202.86,-25.5 202.86,-32.5"/>
</g>
<!-- Node3 -->
<g id="node3" class="node">
<title>Node3</title>
<g id="a_node3"><a xlink:href="classAxisRaw.html#acadbd2b7e00e34417c426fa91c8d7c51" target="_top" xlink:title=" ">
<polygon fill="none" stroke="black" points="409.5,-38.5 409.5,-57.5 506.5,-57.5 506.5,-38.5 409.5,-38.5"/>
<text text-anchor="middle" x="458" y="-45.5" font-family="Helvetica,sans-Serif" font-size="10.00">AxisRaw::getLen</text>
</a>
</g>
</g>
<!-- Node2&#45;&gt;Node3 -->
<g id="edge2" class="edge">
<title>Node2&#45;&gt;Node3</title>
<path fill="none" stroke="midnightblue" d="M364.43,-37.5C376.04,-38.82 387.87,-40.16 399.02,-41.42"/>
<polygon fill="midnightblue" stroke="midnightblue" points="398.72,-44.91 409.05,-42.56 399.51,-37.96 398.72,-44.91"/>
</g>
<!-- Node5 -->
<g id="node5" class="node">
<title>Node5</title>
<g id="a_node5"><a xlink:href="classSimIcmpPacket.html#a62a5ccd0ed49fa27a4616531434313e2" target="_top" xlink:title=" ">
<polygon fill="none" stroke="black" points="400,-0.5 400,-19.5 516,-19.5 516,-0.5 400,-0.5"/>
<text text-anchor="middle" x="458" y="-7.5" font-family="Helvetica,sans-Serif" font-size="10.00">SimIcmpPacket::size</text>
</a>
</g>
</g>
<!-- Node2&#45;&gt;Node5 -->
<g id="edge4" class="edge">
<title>Node2&#45;&gt;Node5</title>
<path fill="none" stroke="midnightblue" d="M364.43,-20.5C372.85,-19.54 381.4,-18.58 389.71,-17.63"/>
<polygon fill="midnightblue" stroke="midnightblue" points="390.18,-21.1 399.72,-16.5 389.39,-14.15 390.18,-21.1"/>
</g>
<!-- Node4 -->
<g id="node4" class="node">
<title>Node4</title>
<g id="a_node4"><a xlink:href="classAxisRaw.html#aec8718820338b67381cce084ba407063" target="_top" xlink:title=" ">
<polygon fill="none" stroke="black" points="552,-38.5 552,-57.5 667,-57.5 667,-38.5 552,-38.5"/>
<text text-anchor="middle" x="609.5" y="-45.5" font-family="Helvetica,sans-Serif" font-size="10.00">AxisRaw::keepToLen</text>
</a>
</g>
</g>
<!-- Node3&#45;&gt;Node4 -->
<g id="edge3" class="edge">
<title>Node3&#45;&gt;Node4</title>
<path fill="none" stroke="midnightblue" d="M506.71,-48C517.82,-48 529.84,-48 541.6,-48"/>
<polygon fill="midnightblue" stroke="midnightblue" points="541.84,-51.5 551.84,-48 541.84,-44.5 541.84,-51.5"/>
</g>
</g>
</svg>
