<?xml version="1.0" encoding="UTF-8" standalone="no"?>
<!DOCTYPE svg PUBLIC "-//W3C//DTD SVG 1.1//EN"
 "http://www.w3.org/Graphics/SVG/1.1/DTD/svg11.dtd">
<!-- Generated by graphviz version 2.43.0 (0)
 -->
<!-- Title: SimIp4Packet::getIcmpPacket Pages: 1 -->
<svg width="657pt" height="116pt"
 viewBox="0.00 0.00 657.00 115.50" xmlns="http://www.w3.org/2000/svg" xmlns:xlink="http://www.w3.org/1999/xlink">
<g id="graph0" class="graph" transform="scale(1 1) rotate(0) translate(4 111.5)">
<title>SimIp4Packet::getIcmpPacket</title>
<!-- Node1 -->
<g id="node1" class="node">
<title>Node1</title>
<g id="a_node1"><a xlink:title=" ">
<polygon fill="#bfbfbf" stroke="black" points="0,-38.5 0,-57.5 159,-57.5 159,-38.5 0,-38.5"/>
<text text-anchor="middle" x="79.5" y="-45.5" font-family="Helvetica,sans-Serif" font-size="10.00">SimIp4Packet::getIcmpPacket</text>
</a>
</g>
</g>
<!-- Node2 -->
<g id="node2" class="node">
<title>Node2</title>
<g id="a_node2"><a xlink:href="classSimIp4Packet.html#a7ee25ca44b1cb9e3d375b41c8790dffb" target="_top" xlink:title=" ">
<polygon fill="none" stroke="black" points="195,-77 195,-107 346,-107 346,-77 195,-77"/>
<text text-anchor="start" x="203" y="-95" font-family="Helvetica,sans-Serif" font-size="10.00">SimIp4Packet::getIpInternet</text>
<text text-anchor="middle" x="270.5" y="-84" font-family="Helvetica,sans-Serif" font-size="10.00">HeaderLength</text>
</a>
</g>
</g>
<!-- Node1&#45;&gt;Node2 -->
<g id="edge1" class="edge">
<title>Node1&#45;&gt;Node2</title>
<path fill="none" stroke="midnightblue" d="M121.51,-57.55C142.98,-62.55 169.94,-68.82 194.95,-74.64"/>
<polygon fill="midnightblue" stroke="midnightblue" points="194.25,-78.08 204.79,-76.93 195.84,-71.26 194.25,-78.08"/>
</g>
<!-- Node3 -->
<g id="node3" class="node">
<title>Node3</title>
<g id="a_node3"><a xlink:href="classSimIcmpPacket.html#a57d1ceea68d521728bb52dc201500c47" target="_top" xlink:title=" ">
<polygon fill="none" stroke="black" points="195,-38.5 195,-57.5 346,-57.5 346,-38.5 195,-38.5"/>
<text text-anchor="middle" x="270.5" y="-45.5" font-family="Helvetica,sans-Serif" font-size="10.00">SimIcmpPacket::pushChunk</text>
</a>
</g>
</g>
<!-- Node1&#45;&gt;Node3 -->
<g id="edge2" class="edge">
<title>Node1&#45;&gt;Node3</title>
<path fill="none" stroke="midnightblue" d="M159.01,-48C167.54,-48 176.25,-48 184.85,-48"/>
<polygon fill="midnightblue" stroke="midnightblue" points="184.87,-51.5 194.87,-48 184.87,-44.5 184.87,-51.5"/>
</g>
<!-- Node7 -->
<g id="node7" class="node">
<title>Node7</title>
<g id="a_node7"><a xlink:href="classSimIp4Packet.html#a53b4354e1a627f97899bfce5540c83ef" target="_top" xlink:title=" ">
<polygon fill="none" stroke="black" points="217,-0.5 217,-19.5 324,-19.5 324,-0.5 217,-0.5"/>
<text text-anchor="middle" x="270.5" y="-7.5" font-family="Helvetica,sans-Serif" font-size="10.00">SimIp4Packet::size</text>
</a>
</g>
</g>
<!-- Node1&#45;&gt;Node7 -->
<g id="edge6" class="edge">
<title>Node1&#45;&gt;Node7</title>
<path fill="none" stroke="midnightblue" d="M128.19,-38.41C153.7,-33.28 185.28,-26.93 212.12,-21.54"/>
<polygon fill="midnightblue" stroke="midnightblue" points="213.04,-24.92 222.15,-19.52 211.66,-18.06 213.04,-24.92"/>
</g>
<!-- Node4 -->
<g id="node4" class="node">
<title>Node4</title>
<g id="a_node4"><a xlink:href="classAxisRaw.html#acadbd2b7e00e34417c426fa91c8d7c51" target="_top" xlink:title=" ">
<polygon fill="none" stroke="black" points="391.5,-57.5 391.5,-76.5 488.5,-76.5 488.5,-57.5 391.5,-57.5"/>
<text text-anchor="middle" x="440" y="-64.5" font-family="Helvetica,sans-Serif" font-size="10.00">AxisRaw::getLen</text>
</a>
</g>
</g>
<!-- Node3&#45;&gt;Node4 -->
<g id="edge3" class="edge">
<title>Node3&#45;&gt;Node4</title>
<path fill="none" stroke="midnightblue" d="M346.43,-56.5C358.04,-57.82 369.87,-59.16 381.02,-60.42"/>
<polygon fill="midnightblue" stroke="midnightblue" points="380.72,-63.91 391.05,-61.56 381.51,-56.96 380.72,-63.91"/>
</g>
<!-- Node6 -->
<g id="node6" class="node">
<title>Node6</title>
<g id="a_node6"><a xlink:href="classSimIcmpPacket.html#a62a5ccd0ed49fa27a4616531434313e2" target="_top" xlink:title=" ">
<polygon fill="none" stroke="black" points="382,-19.5 382,-38.5 498,-38.5 498,-19.5 382,-19.5"/>
<text text-anchor="middle" x="440" y="-26.5" font-family="Helvetica,sans-Serif" font-size="10.00">SimIcmpPacket::size</text>
</a>
</g>
</g>
<!-- Node3&#45;&gt;Node6 -->
<g id="edge5" class="edge">
<title>Node3&#45;&gt;Node6</title>
<path fill="none" stroke="midnightblue" d="M346.43,-39.5C354.85,-38.54 363.4,-37.58 371.71,-36.63"/>
<polygon fill="midnightblue" stroke="midnightblue" points="372.18,-40.1 381.72,-35.5 371.39,-33.15 372.18,-40.1"/>
</g>
<!-- Node5 -->
<g id="node5" class="node">
<title>Node5</title>
<g id="a_node5"><a xlink:href="classAxisRaw.html#aec8718820338b67381cce084ba407063" target="_top" xlink:title=" ">
<polygon fill="none" stroke="black" points="534,-57.5 534,-76.5 649,-76.5 649,-57.5 534,-57.5"/>
<text text-anchor="middle" x="591.5" y="-64.5" font-family="Helvetica,sans-Serif" font-size="10.00">AxisRaw::keepToLen</text>
</a>
</g>
</g>
<!-- Node4&#45;&gt;Node5 -->
<g id="edge4" class="edge">
<title>Node4&#45;&gt;Node5</title>
<path fill="none" stroke="midnightblue" d="M488.71,-67C499.82,-67 511.84,-67 523.6,-67"/>
<polygon fill="midnightblue" stroke="midnightblue" points="523.84,-70.5 533.84,-67 523.84,-63.5 523.84,-70.5"/>
</g>
</g>
</svg>
