<?xml version="1.0" encoding="UTF-8" standalone="no"?>
<!DOCTYPE svg PUBLIC "-//W3C//DTD SVG 1.1//EN"
 "http://www.w3.org/Graphics/SVG/1.1/DTD/svg11.dtd">
<!-- Generated by graphviz version 2.43.0 (0)
 -->
<!-- Title: SimArpPacket::size Pages: 1 -->
<svg width="705pt" height="104pt"
 viewBox="0.00 0.00 705.00 104.00" xmlns="http://www.w3.org/2000/svg" xmlns:xlink="http://www.w3.org/1999/xlink">
<g id="graph0" class="graph" transform="scale(1 1) rotate(0) translate(4 100)">
<title>SimArpPacket::size</title>
<!-- Node1 -->
<g id="node1" class="node">
<title>Node1</title>
<g id="a_node1"><a xlink:title=" ">
<polygon fill="#bfbfbf" stroke="black" points="588,-57.5 588,-76.5 697,-76.5 697,-57.5 588,-57.5"/>
<text text-anchor="middle" x="642.5" y="-64.5" font-family="Helvetica,sans-Serif" font-size="10.00">SimArpPacket::size</text>
</a>
</g>
</g>
<!-- Node2 -->
<g id="node2" class="node">
<title>Node2</title>
<g id="a_node2"><a xlink:href="group__NTS__IPRX__TEST.html#ga0b909e5ea146aed33a8de139bebaab84" target="_top" xlink:title="Create the golden reference files from an input test file.">
<polygon fill="none" stroke="black" points="77,-76.5 77,-95.5 181,-95.5 181,-76.5 77,-76.5"/>
<text text-anchor="middle" x="129" y="-83.5" font-family="Helvetica,sans-Serif" font-size="10.00">createGoldenFiles</text>
</a>
</g>
</g>
<!-- Node1&#45;&gt;Node2 -->
<g id="edge1" class="edge">
<title>Node1&#45;&gt;Node2</title>
<path fill="none" stroke="midnightblue" d="M577.49,-69.38C474.75,-73.19 275.07,-80.61 181.15,-84.1"/>
<polygon fill="midnightblue" stroke="midnightblue" points="577.86,-72.87 587.73,-69 577.6,-65.87 577.86,-72.87"/>
</g>
<!-- Node4 -->
<g id="node4" class="node">
<title>Node4</title>
<g id="a_node4"><a xlink:href="classSimArpPacket.html#a1f6d3c78f57cd5504fa9bbf03f7a14c5" target="_top" xlink:title=" ">
<polygon fill="none" stroke="black" points="409,-38.5 409,-57.5 552,-57.5 552,-38.5 409,-38.5"/>
<text text-anchor="middle" x="480.5" y="-45.5" font-family="Helvetica,sans-Serif" font-size="10.00">SimArpPacket::pushChunk</text>
</a>
</g>
</g>
<!-- Node1&#45;&gt;Node4 -->
<g id="edge3" class="edge">
<title>Node1&#45;&gt;Node4</title>
<path fill="none" stroke="midnightblue" d="M577.68,-59.42C569.28,-58.42 560.64,-57.4 552.13,-56.39"/>
<polygon fill="midnightblue" stroke="midnightblue" points="577.43,-62.92 587.78,-60.62 578.26,-55.97 577.43,-62.92"/>
</g>
<!-- Node3 -->
<g id="node3" class="node">
<title>Node3</title>
<g id="a_node3"><a xlink:href="group__NTS__IPRX__TEST.html#ga0ddf1224851353fc92bfbff6f499fa97" target="_top" xlink:title="Main function.">
<polygon fill="none" stroke="black" points="0,-76.5 0,-95.5 41,-95.5 41,-76.5 0,-76.5"/>
<text text-anchor="middle" x="20.5" y="-83.5" font-family="Helvetica,sans-Serif" font-size="10.00">main</text>
</a>
</g>
</g>
<!-- Node2&#45;&gt;Node3 -->
<g id="edge2" class="edge">
<title>Node2&#45;&gt;Node3</title>
<path fill="none" stroke="midnightblue" d="M66.83,-86C57.58,-86 48.66,-86 41.22,-86"/>
<polygon fill="midnightblue" stroke="midnightblue" points="66.93,-89.5 76.93,-86 66.93,-82.5 66.93,-89.5"/>
</g>
<!-- Node5 -->
<g id="node5" class="node">
<title>Node5</title>
<g id="a_node5"><a xlink:href="classSimEthFrame.html#ae4640159ee96b44cb91615f66341b29d" target="_top" xlink:title=" ">
<polygon fill="none" stroke="black" points="219,-38.5 219,-57.5 371,-57.5 371,-38.5 219,-38.5"/>
<text text-anchor="middle" x="295" y="-45.5" font-family="Helvetica,sans-Serif" font-size="10.00">SimEthFrame::getArpPacket</text>
</a>
</g>
</g>
<!-- Node4&#45;&gt;Node5 -->
<g id="edge4" class="edge">
<title>Node4&#45;&gt;Node5</title>
<path fill="none" stroke="midnightblue" d="M398.61,-48C389.5,-48 380.25,-48 371.21,-48"/>
<polygon fill="midnightblue" stroke="midnightblue" points="398.82,-51.5 408.82,-48 398.82,-44.5 398.82,-51.5"/>
</g>
<!-- Node8 -->
<g id="node8" class="node">
<title>Node8</title>
<g id="a_node8"><a xlink:href="classSimArpPacket.html#a57e6d4af72fecc7394e04b1a71524113" target="_top" xlink:title=" ">
<polygon fill="none" stroke="black" points="217,-0.5 217,-19.5 373,-19.5 373,-0.5 217,-0.5"/>
<text text-anchor="middle" x="295" y="-7.5" font-family="Helvetica,sans-Serif" font-size="10.00">SimArpPacket::SimArpPacket</text>
</a>
</g>
</g>
<!-- Node4&#45;&gt;Node8 -->
<g id="edge8" class="edge">
<title>Node4&#45;&gt;Node8</title>
<path fill="none" stroke="midnightblue" d="M423.09,-36.32C397.07,-30.93 366.57,-24.61 341.97,-19.52"/>
<polygon fill="midnightblue" stroke="midnightblue" points="422.69,-39.81 433.2,-38.41 424.11,-32.96 422.69,-39.81"/>
</g>
<!-- Node5&#45;&gt;Node2 -->
<g id="edge7" class="edge">
<title>Node5&#45;&gt;Node2</title>
<path fill="none" stroke="midnightblue" d="M242.66,-59.9C219.61,-65.24 192.78,-71.45 171.09,-76.48"/>
<polygon fill="midnightblue" stroke="midnightblue" points="243.66,-63.26 252.62,-57.59 242.08,-56.44 243.66,-63.26"/>
</g>
<!-- Node6 -->
<g id="node6" class="node">
<title>Node6</title>
<g id="a_node6"><a xlink:href="group__NTS__ARP__TEST.html#ga5e15c6fbfca5524e0c76a49943f75b67" target="_top" xlink:title="Create the golden reference file from an input test file.">
<polygon fill="none" stroke="black" points="79.5,-38.5 79.5,-57.5 178.5,-57.5 178.5,-38.5 79.5,-38.5"/>
<text text-anchor="middle" x="129" y="-45.5" font-family="Helvetica,sans-Serif" font-size="10.00">createGoldenFile</text>
</a>
</g>
</g>
<!-- Node5&#45;&gt;Node6 -->
<g id="edge5" class="edge">
<title>Node5&#45;&gt;Node6</title>
<path fill="none" stroke="midnightblue" d="M208.47,-48C198.21,-48 188.03,-48 178.57,-48"/>
<polygon fill="midnightblue" stroke="midnightblue" points="208.72,-51.5 218.72,-48 208.72,-44.5 208.72,-51.5"/>
</g>
<!-- Node7 -->
<g id="node7" class="node">
<title>Node7</title>
<g id="a_node7"><a xlink:href="group__NTS__ARP__TEST.html#ga0ddf1224851353fc92bfbff6f499fa97" target="_top" xlink:title="Main function.">
<polygon fill="none" stroke="black" points="0,-38.5 0,-57.5 41,-57.5 41,-38.5 0,-38.5"/>
<text text-anchor="middle" x="20.5" y="-45.5" font-family="Helvetica,sans-Serif" font-size="10.00">main</text>
</a>
</g>
</g>
<!-- Node6&#45;&gt;Node7 -->
<g id="edge6" class="edge">
<title>Node6&#45;&gt;Node7</title>
<path fill="none" stroke="midnightblue" d="M69.28,-48C59.17,-48 49.33,-48 41.23,-48"/>
<polygon fill="midnightblue" stroke="midnightblue" points="69.42,-51.5 79.42,-48 69.42,-44.5 69.42,-51.5"/>
</g>
</g>
</svg>
