<?xml version="1.0" encoding="UTF-8" standalone="no"?>
<!DOCTYPE svg PUBLIC "-//W3C//DTD SVG 1.1//EN"
 "http://www.w3.org/Graphics/SVG/1.1/DTD/svg11.dtd">
<!-- Generated by graphviz version 2.43.0 (0)
 -->
<!-- Title: SimIp4Packet::setIpPayload Pages: 1 -->
<!--zoomable 218 -->
<svg id="main" version="1.1" xmlns="http://www.w3.org/2000/svg" xmlns:xlink="http://www.w3.org/1999/xlink" xml:space="preserve" onload="init(evt)">
<style type="text/css"><![CDATA[
.edge:hover path { stroke: red; }
.edge:hover polygon { stroke: red; fill: red; }
]]></style>
<script type="text/javascript"><![CDATA[
var edges = document.getElementsByTagName('g');
if (edges && edges.length) {
  for (var i=0;i<edges.length;i++) {
    if (edges[i].id.substr(0,4)=='edge') {
      edges[i].setAttribute('class','edge');
    }
  }
}
]]></script>
        <defs>
                <circle id="rim" cx="0" cy="0" r="7"/>
                <circle id="rim2" cx="0" cy="0" r="3.5"/>
                <g id="zoomPlus">
                        <use xlink:href="#rim" fill="#404040">
                                <set attributeName="fill" to="#808080" begin="zoomplus.mouseover" end="zoomplus.mouseout"/>
                        </use>
                        <path d="M-4,0h8M0,-4v8" fill="none" stroke="white" stroke-width="1.5" pointer-events="none"/>
                </g>
                <g id="zoomMin">
                        <use xlink:href="#rim" fill="#404040">
                                <set attributeName="fill" to="#808080" begin="zoomminus.mouseover" end="zoomminus.mouseout"/>
                        </use>
                        <path d="M-4,0h8" fill="none" stroke="white" stroke-width="1.5" pointer-events="none"/>
                </g>
                <g id="dirArrow">
                        <path fill="none" stroke="white" stroke-width="1.5" d="M0,-3.0v7 M-2.5,-0.5L0,-3.0L2.5,-0.5"/>
                </g>
               <g id="resetDef">
                       <use xlink:href="#rim2" fill="#404040">
                               <set attributeName="fill" to="#808080" begin="reset.mouseover" end="reset.mouseout"/>
                       </use>
               </g>
        </defs>

<script type="text/javascript">
var viewWidth = 624;
var viewHeight = 218;
var sectionId = 'dynsection-78';
</script>
<script xlink:href="svgpan.js"/>
<svg id="graph" class="graph">
<g id="viewport">
<title>SimIp4Packet::setIpPayload</title>
<!-- Node1 -->
<g id="node1" class="node">
<title>Node1</title>
<g id="a_node1"><a xlink:title="Set the data payload of this packet as an ICMP packet.">
<polygon fill="#bfbfbf" stroke="black" points="0,-95.5 0,-114.5 150,-114.5 150,-95.5 0,-95.5"/>
<text text-anchor="middle" x="75" y="-102.5" font-family="Helvetica,sans-Serif" font-size="10.00">SimIp4Packet::setIpPayload</text>
</a>
</g>
</g>
<!-- Node2 -->
<g id="node2" class="node">
<title>Node2</title>
<g id="a_node2"><a xlink:href="classAxisRaw.html#a7034bcf8cf143fb2bb9bfc46e70a7d6b" target="_top" xlink:title=" ">
<polygon fill="none" stroke="black" points="196.5,-190.5 196.5,-209.5 321.5,-209.5 321.5,-190.5 196.5,-190.5"/>
<text text-anchor="middle" x="259" y="-197.5" font-family="Helvetica,sans-Serif" font-size="10.00">AxisRaw::getLE_TData</text>
</a>
</g>
</g>
<!-- Node1&#45;&gt;Node2 -->
<g id="edge1" class="edge">
<title>Node1&#45;&gt;Node2</title>
<path fill="none" stroke="midnightblue" d="M87.07,-114.63C106.05,-130.67 146.57,-162.85 186,-181 191.27,-183.42 196.9,-185.58 202.6,-187.49"/>
<polygon fill="midnightblue" stroke="midnightblue" points="201.64,-190.86 212.23,-190.48 203.71,-184.17 201.64,-190.86"/>
</g>
<!-- Node3 -->
<g id="node3" class="node">
<title>Node3</title>
<g id="a_node3"><a xlink:href="classAxisRaw.html#a4becd0ad3c51e3db2749e888f2f72e31" target="_top" xlink:title=" ">
<polygon fill="none" stroke="black" points="196,-152.5 196,-171.5 322,-171.5 322,-152.5 196,-152.5"/>
<text text-anchor="middle" x="259" y="-159.5" font-family="Helvetica,sans-Serif" font-size="10.00">AxisRaw::getLE_TKeep</text>
</a>
</g>
</g>
<!-- Node1&#45;&gt;Node3 -->
<g id="edge2" class="edge">
<title>Node1&#45;&gt;Node3</title>
<path fill="none" stroke="midnightblue" d="M102.05,-114.61C124.22,-122.65 157.01,-134.18 186,-143 193.74,-145.35 201.99,-147.69 210.05,-149.88"/>
<polygon fill="midnightblue" stroke="midnightblue" points="209.17,-153.27 219.74,-152.47 210.98,-146.51 209.17,-153.27"/>
</g>
<!-- Node4 -->
<g id="node4" class="node">
<title>Node4</title>
<g id="a_node4"><a xlink:href="classAxisRaw.html#af8208752dcbb14911c5fda27d90a0ef4" target="_top" xlink:title=" ">
<polygon fill="none" stroke="black" points="198,-114.5 198,-133.5 320,-133.5 320,-114.5 198,-114.5"/>
<text text-anchor="middle" x="259" y="-121.5" font-family="Helvetica,sans-Serif" font-size="10.00">AxisRaw::getLE_TLast</text>
</a>
</g>
</g>
<!-- Node1&#45;&gt;Node4 -->
<g id="edge3" class="edge">
<title>Node1&#45;&gt;Node4</title>
<path fill="none" stroke="midnightblue" d="M150.03,-112.73C162.48,-114.03 175.38,-115.37 187.73,-116.66"/>
<polygon fill="midnightblue" stroke="midnightblue" points="187.66,-120.18 197.97,-117.73 188.38,-113.21 187.66,-120.18"/>
</g>
<!-- Node5 -->
<g id="node5" class="node">
<title>Node5</title>
<g id="a_node5"><a xlink:href="classSimIcmpPacket.html#a4c0fd3c349bee73a68b6ee03ff19de41" target="_top" xlink:title=" ">
<polygon fill="none" stroke="black" points="195,-76.5 195,-95.5 323,-95.5 323,-76.5 195,-76.5"/>
<text text-anchor="middle" x="259" y="-83.5" font-family="Helvetica,sans-Serif" font-size="10.00">SimIcmpPacket::length</text>
</a>
</g>
</g>
<!-- Node1&#45;&gt;Node5 -->
<g id="edge4" class="edge">
<title>Node1&#45;&gt;Node5</title>
<path fill="none" stroke="midnightblue" d="M150.03,-97.27C161.52,-96.07 173.39,-94.83 184.86,-93.64"/>
<polygon fill="midnightblue" stroke="midnightblue" points="185.24,-97.11 194.82,-92.6 184.51,-90.15 185.24,-97.11"/>
</g>
<!-- Node6 -->
<g id="node6" class="node">
<title>Node6</title>
<g id="a_node6"><a xlink:href="classSimIcmpPacket.html#abdc87fa3f357b4427942fb727d247dd2" target="_top" xlink:title=" ">
<polygon fill="none" stroke="black" points="186,-38.5 186,-57.5 332,-57.5 332,-38.5 186,-38.5"/>
<text text-anchor="middle" x="259" y="-45.5" font-family="Helvetica,sans-Serif" font-size="10.00">SimIcmpPacket::pullChunk</text>
</a>
</g>
</g>
<!-- Node1&#45;&gt;Node6 -->
<g id="edge5" class="edge">
<title>Node1&#45;&gt;Node6</title>
<path fill="none" stroke="midnightblue" d="M102.05,-95.39C124.22,-87.35 157.01,-75.82 186,-67 193.74,-64.65 201.99,-62.31 210.05,-60.12"/>
<polygon fill="midnightblue" stroke="midnightblue" points="210.98,-63.49 219.74,-57.53 209.17,-56.73 210.98,-63.49"/>
</g>
<!-- Node9 -->
<g id="node9" class="node">
<title>Node9</title>
<g id="a_node9"><a xlink:href="classAxisRaw.html#aa3f30a26f59cb6430ffd9196ab30c6d6" target="_top" xlink:title=" ">
<polygon fill="none" stroke="black" points="196.5,-0.5 196.5,-19.5 321.5,-19.5 321.5,-0.5 196.5,-0.5"/>
<text text-anchor="middle" x="259" y="-7.5" font-family="Helvetica,sans-Serif" font-size="10.00">AxisRaw::setLE_TData</text>
</a>
</g>
</g>
<!-- Node1&#45;&gt;Node9 -->
<g id="edge8" class="edge">
<title>Node1&#45;&gt;Node9</title>
<path fill="none" stroke="midnightblue" d="M87.07,-95.37C106.05,-79.33 146.57,-47.15 186,-29 191.27,-26.58 196.9,-24.42 202.6,-22.51"/>
<polygon fill="midnightblue" stroke="midnightblue" points="203.71,-25.83 212.23,-19.52 201.64,-19.14 203.71,-25.83"/>
</g>
<!-- Node7 -->
<g id="node7" class="node">
<title>Node7</title>
<g id="a_node7"><a xlink:href="classAxisRaw.html#acadbd2b7e00e34417c426fa91c8d7c51" target="_top" xlink:title=" ">
<polygon fill="none" stroke="black" points="368,-38.5 368,-57.5 465,-57.5 465,-38.5 368,-38.5"/>
<text text-anchor="middle" x="416.5" y="-45.5" font-family="Helvetica,sans-Serif" font-size="10.00">AxisRaw::getLen</text>
</a>
</g>
</g>
<!-- Node6&#45;&gt;Node7 -->
<g id="edge6" class="edge">
<title>Node6&#45;&gt;Node7</title>
<path fill="none" stroke="midnightblue" d="M332.29,-48C340.76,-48 349.33,-48 357.57,-48"/>
<polygon fill="midnightblue" stroke="midnightblue" points="357.81,-51.5 367.81,-48 357.81,-44.5 357.81,-51.5"/>
</g>
<!-- Node8 -->
<g id="node8" class="node">
<title>Node8</title>
<g id="a_node8"><a xlink:href="classAxisRaw.html#aec8718820338b67381cce084ba407063" target="_top" xlink:title=" ">
<polygon fill="none" stroke="black" points="501,-38.5 501,-57.5 616,-57.5 616,-38.5 501,-38.5"/>
<text text-anchor="middle" x="558.5" y="-45.5" font-family="Helvetica,sans-Serif" font-size="10.00">AxisRaw::keepToLen</text>
</a>
</g>
</g>
<!-- Node7&#45;&gt;Node8 -->
<g id="edge7" class="edge">
<title>Node7&#45;&gt;Node8</title>
<path fill="none" stroke="midnightblue" d="M465.29,-48C473.49,-48 482.14,-48 490.73,-48"/>
<polygon fill="midnightblue" stroke="midnightblue" points="490.75,-51.5 500.75,-48 490.75,-44.5 490.75,-51.5"/>
</g>
</g>
</svg>
        <g id="navigator" transform="translate(0 0)" fill="#404254">
                <rect fill="#f2f5e9" fill-opacity="0.5" stroke="#606060" stroke-width=".5" x="0" y="0" width="60" height="60"/>
                <use id="zoomplus" xlink:href="#zoomPlus" x="17" y="9" onmousedown="handleZoom(evt,'in')"/>
                <use id="zoomminus" xlink:href="#zoomMin" x="42" y="9" onmousedown="handleZoom(evt,'out')"/>
                <use id="reset" xlink:href="#resetDef" x="30" y="36" onmousedown="handleReset()"/>
                <g id="arrowUp" xlink:href="#dirArrow" transform="translate(30 24)" onmousedown="handlePan(0,-1)">
                  <use xlink:href="#rim" fill="#404040">
                        <set attributeName="fill" to="#808080" begin="arrowUp.mouseover" end="arrowUp.mouseout"/>
                  </use>
                  <path fill="none" stroke="white" stroke-width="1.5" d="M0,-3.0v7 M-2.5,-0.5L0,-3.0L2.5,-0.5"/>
                </g>
                <g id="arrowRight" xlink:href="#dirArrow" transform="rotate(90) translate(36 -43)" onmousedown="handlePan(1,0)">
                  <use xlink:href="#rim" fill="#404040">
                        <set attributeName="fill" to="#808080" begin="arrowRight.mouseover" end="arrowRight.mouseout"/>
                  </use>
                  <path fill="none" stroke="white" stroke-width="1.5" d="M0,-3.0v7 M-2.5,-0.5L0,-3.0L2.5,-0.5"/>
                </g>
                <g id="arrowDown" xlink:href="#dirArrow" transform="rotate(180) translate(-30 -48)" onmousedown="handlePan(0,1)">
                  <use xlink:href="#rim" fill="#404040">
                        <set attributeName="fill" to="#808080" begin="arrowDown.mouseover" end="arrowDown.mouseout"/>
                  </use>
                  <path fill="none" stroke="white" stroke-width="1.5" d="M0,-3.0v7 M-2.5,-0.5L0,-3.0L2.5,-0.5"/>
                </g>
                <g id="arrowLeft" xlink:href="#dirArrow" transform="rotate(270) translate(-36 17)" onmousedown="handlePan(-1,0)">
                  <use xlink:href="#rim" fill="#404040">
                        <set attributeName="fill" to="#808080" begin="arrowLeft.mouseover" end="arrowLeft.mouseout"/>
                  </use>
                  <path fill="none" stroke="white" stroke-width="1.5" d="M0,-3.0v7 M-2.5,-0.5L0,-3.0L2.5,-0.5"/>
                </g>
        </g>
        <svg viewBox="0 0 15 15" width="100%" height="30px" preserveAspectRatio="xMaxYMin meet">
         <g id="arrow_out" transform="scale(0.3 0.3)">
          <a xlink:href="classSimIp4Packet_accddcca5f10a6d9996f35dead70c82e9_cgraph_org.svg" target="_base">
           <rect id="button" ry="5" rx="5" y="6" x="6" height="38" width="38"
                fill="#f2f5e9" fill-opacity="0.5" stroke="#606060" stroke-width="1.0"/>
           <path id="arrow"
             d="M 11.500037,31.436501 C 11.940474,20.09759 22.043105,11.32322 32.158766,21.979434 L 37.068811,17.246167 C 37.068811,17.246167 37.088388,32 37.088388,32 L 22.160133,31.978069 C 22.160133,31.978069 26.997745,27.140456 26.997745,27.140456 C 18.528582,18.264221 13.291696,25.230495 11.500037,31.436501 z"
             style="fill:#404040;"/>
          </a>
         </g>
        </svg>
</svg>
