<?xml version="1.0" encoding="UTF-8" standalone="no"?>
<!DOCTYPE svg PUBLIC "-//W3C//DTD SVG 1.1//EN"
 "http://www.w3.org/Graphics/SVG/1.1/DTD/svg11.dtd">
<!-- Generated by graphviz version 2.43.0 (0)
 -->
<!-- Title: SimUdpDatagram::writeToDatFile Pages: 1 -->
<svg width="846pt" height="142pt"
 viewBox="0.00 0.00 846.00 142.00" xmlns="http://www.w3.org/2000/svg" xmlns:xlink="http://www.w3.org/1999/xlink">
<g id="graph0" class="graph" transform="scale(1 1) rotate(0) translate(4 138)">
<title>SimUdpDatagram::writeToDatFile</title>
<!-- Node1 -->
<g id="node1" class="node">
<title>Node1</title>
<g id="a_node1"><a xlink:title="Dump this UDP datagram as raw AxisUdp chunks into a file.">
<polygon fill="#bfbfbf" stroke="black" points="0,-79.5 0,-98.5 179,-98.5 179,-79.5 0,-79.5"/>
<text text-anchor="middle" x="89.5" y="-86.5" font-family="Helvetica,sans-Serif" font-size="10.00">SimUdpDatagram::writeToDatFile</text>
</a>
</g>
</g>
<!-- Node2 -->
<g id="node2" class="node">
<title>Node2</title>
<g id="a_node2"><a xlink:href="classSimUdpDatagram.html#a5cc83610935341408f23d7a5b431d3e8" target="_top" xlink:title=" ">
<polygon fill="none" stroke="black" points="228,-101.5 228,-120.5 357,-120.5 357,-101.5 228,-101.5"/>
<text text-anchor="middle" x="292.5" y="-108.5" font-family="Helvetica,sans-Serif" font-size="10.00">SimUdpDatagram::size</text>
</a>
</g>
</g>
<!-- Node1&#45;&gt;Node2 -->
<g id="edge1" class="edge">
<title>Node1&#45;&gt;Node2</title>
<path fill="none" stroke="midnightblue" d="M177.49,-98.52C190.8,-99.98 204.44,-101.47 217.44,-102.89"/>
<polygon fill="midnightblue" stroke="midnightblue" points="217.38,-106.41 227.7,-104.02 218.15,-99.45 217.38,-106.41"/>
</g>
<!-- Node3 -->
<g id="node3" class="node">
<title>Node3</title>
<g id="a_node3"><a xlink:href="classSimUdpDatagram.html#a683cd40a7c6616640250a9e20e470f7a" target="_top" xlink:title="Dump an AxisUdp chunk to a file.">
<polygon fill="none" stroke="black" points="215,-52 215,-82 370,-82 370,-52 215,-52"/>
<text text-anchor="start" x="223" y="-70" font-family="Helvetica,sans-Serif" font-size="10.00">SimUdpDatagram::writeAxis</text>
<text text-anchor="middle" x="292.5" y="-59" font-family="Helvetica,sans-Serif" font-size="10.00">UdpToFile</text>
</a>
</g>
</g>
<!-- Node1&#45;&gt;Node3 -->
<g id="edge2" class="edge">
<title>Node1&#45;&gt;Node3</title>
<path fill="none" stroke="midnightblue" d="M177.49,-79.48C186.51,-78.49 195.68,-77.49 204.7,-76.5"/>
<polygon fill="midnightblue" stroke="midnightblue" points="205.24,-79.96 214.8,-75.4 204.48,-73 205.24,-79.96"/>
</g>
<!-- Node4 -->
<g id="node4" class="node">
<title>Node4</title>
<g id="a_node4"><a xlink:href="classAxisRaw.html#a7034bcf8cf143fb2bb9bfc46e70a7d6b" target="_top" xlink:title=" ">
<polygon fill="none" stroke="black" points="553.5,-114.5 553.5,-133.5 678.5,-133.5 678.5,-114.5 553.5,-114.5"/>
<text text-anchor="middle" x="616" y="-121.5" font-family="Helvetica,sans-Serif" font-size="10.00">AxisRaw::getLE_TData</text>
</a>
</g>
</g>
<!-- Node3&#45;&gt;Node4 -->
<g id="edge3" class="edge">
<title>Node3&#45;&gt;Node4</title>
<path fill="none" stroke="midnightblue" d="M364.83,-82.04C378.48,-84.78 392.67,-87.55 406,-90 451.5,-98.35 502.77,-106.7 543.14,-113.04"/>
<polygon fill="midnightblue" stroke="midnightblue" points="542.74,-116.52 553.16,-114.61 543.82,-109.61 542.74,-116.52"/>
</g>
<!-- Node5 -->
<g id="node5" class="node">
<title>Node5</title>
<g id="a_node5"><a xlink:href="classAxisRaw.html#a4becd0ad3c51e3db2749e888f2f72e31" target="_top" xlink:title=" ">
<polygon fill="none" stroke="black" points="553,-76.5 553,-95.5 679,-95.5 679,-76.5 553,-76.5"/>
<text text-anchor="middle" x="616" y="-83.5" font-family="Helvetica,sans-Serif" font-size="10.00">AxisRaw::getLE_TKeep</text>
</a>
</g>
</g>
<!-- Node3&#45;&gt;Node5 -->
<g id="edge4" class="edge">
<title>Node3&#45;&gt;Node5</title>
<path fill="none" stroke="midnightblue" d="M370.1,-71.53C422.51,-74.62 491.54,-78.7 542.95,-81.74"/>
<polygon fill="midnightblue" stroke="midnightblue" points="542.8,-85.24 552.99,-82.34 543.21,-78.25 542.8,-85.24"/>
</g>
<!-- Node6 -->
<g id="node6" class="node">
<title>Node6</title>
<g id="a_node6"><a xlink:href="classAxisRaw.html#af8208752dcbb14911c5fda27d90a0ef4" target="_top" xlink:title=" ">
<polygon fill="none" stroke="black" points="555,-0.5 555,-19.5 677,-19.5 677,-0.5 555,-0.5"/>
<text text-anchor="middle" x="616" y="-7.5" font-family="Helvetica,sans-Serif" font-size="10.00">AxisRaw::getLE_TLast</text>
</a>
</g>
</g>
<!-- Node3&#45;&gt;Node6 -->
<g id="edge5" class="edge">
<title>Node3&#45;&gt;Node6</title>
<path fill="none" stroke="midnightblue" d="M330.64,-52C352.28,-43.88 380.28,-34.43 406,-29 451.68,-19.35 503.99,-14.6 544.86,-12.26"/>
<polygon fill="midnightblue" stroke="midnightblue" points="545.19,-15.75 554.99,-11.72 544.81,-8.76 545.19,-15.75"/>
</g>
<!-- Node7 -->
<g id="node7" class="node">
<title>Node7</title>
<g id="a_node7"><a xlink:href="group__NTS__SIM.html#ga3fa45716710c0aeab2d9c48492828087" target="_top" xlink:title="Dump an Axis raw data chunk to a file.">
<polygon fill="none" stroke="black" points="406,-38.5 406,-57.5 517,-57.5 517,-38.5 406,-38.5"/>
<text text-anchor="middle" x="461.5" y="-45.5" font-family="Helvetica,sans-Serif" font-size="10.00">writeAxisRawToFile</text>
</a>
</g>
</g>
<!-- Node3&#45;&gt;Node7 -->
<g id="edge6" class="edge">
<title>Node3&#45;&gt;Node7</title>
<path fill="none" stroke="midnightblue" d="M370.16,-58.28C378.69,-57.31 387.32,-56.33 395.69,-55.37"/>
<polygon fill="midnightblue" stroke="midnightblue" points="396.2,-58.84 405.74,-54.23 395.41,-51.88 396.2,-58.84"/>
</g>
<!-- Node7&#45;&gt;Node4 -->
<g id="edge7" class="edge">
<title>Node7&#45;&gt;Node4</title>
<path fill="none" stroke="midnightblue" d="M475.37,-57.65C492.37,-70.04 523.63,-91.54 553,-105 557.93,-107.26 563.19,-109.34 568.49,-111.23"/>
<polygon fill="midnightblue" stroke="midnightblue" points="567.42,-114.56 578.01,-114.42 569.64,-107.92 567.42,-114.56"/>
</g>
<!-- Node7&#45;&gt;Node5 -->
<g id="edge8" class="edge">
<title>Node7&#45;&gt;Node5</title>
<path fill="none" stroke="midnightblue" d="M500.98,-57.59C521.02,-62.58 545.7,-68.73 566.98,-74.03"/>
<polygon fill="midnightblue" stroke="midnightblue" points="566.24,-77.46 576.79,-76.48 567.94,-70.67 566.24,-77.46"/>
</g>
<!-- Node7&#45;&gt;Node6 -->
<g id="edge9" class="edge">
<title>Node7&#45;&gt;Node6</title>
<path fill="none" stroke="midnightblue" d="M500.98,-38.41C521.02,-33.42 545.7,-27.27 566.98,-21.97"/>
<polygon fill="midnightblue" stroke="midnightblue" points="567.94,-25.33 576.79,-19.52 566.24,-18.54 567.94,-25.33"/>
</g>
<!-- Node8 -->
<g id="node8" class="node">
<title>Node8</title>
<g id="a_node8"><a xlink:href="group__UppercaseHLS.html#gae061e0acc4f8984634689d549fdae11b" target="_top" xlink:title="Main process of the Uppercase Application directives.">
<polygon fill="none" stroke="black" points="582.5,-38.5 582.5,-57.5 649.5,-57.5 649.5,-38.5 582.5,-38.5"/>
<text text-anchor="middle" x="616" y="-45.5" font-family="Helvetica,sans-Serif" font-size="10.00">uppercase</text>
</a>
</g>
</g>
<!-- Node7&#45;&gt;Node8 -->
<g id="edge10" class="edge">
<title>Node7&#45;&gt;Node8</title>
<path fill="none" stroke="midnightblue" d="M517.13,-48C535.24,-48 555.14,-48 572.23,-48"/>
<polygon fill="midnightblue" stroke="midnightblue" points="572.47,-51.5 582.47,-48 572.47,-44.5 572.47,-51.5"/>
</g>
<!-- Node9 -->
<g id="node9" class="node">
<title>Node9</title>
<g id="a_node9"><a xlink:href="group__UppercaseHLS.html#ga033fd36668741325cf3c111416e82131" target="_top" xlink:title="pPortAndDestionation &#45; Setup the port and the destination rank.">
<polygon fill="none" stroke="black" points="715,-76.5 715,-95.5 838,-95.5 838,-76.5 715,-76.5"/>
<text text-anchor="middle" x="776.5" y="-83.5" font-family="Helvetica,sans-Serif" font-size="10.00">pPortAndDestionation</text>
</a>
</g>
</g>
<!-- Node8&#45;&gt;Node9 -->
<g id="edge11" class="edge">
<title>Node8&#45;&gt;Node9</title>
<path fill="none" stroke="midnightblue" d="M649.84,-55.87C671.76,-61.13 700.98,-68.14 725.74,-74.07"/>
<polygon fill="midnightblue" stroke="midnightblue" points="725.14,-77.53 735.68,-76.45 726.77,-70.72 725.14,-77.53"/>
</g>
<!-- Node10 -->
<g id="node10" class="node">
<title>Node10</title>
<g id="a_node10"><a xlink:href="group__UppercaseHLS.html#ga5241239d0335747a6f0ee418cbc7d5a9" target="_top" xlink:title="Receive Path &#45; From SHELL to THIS.">
<polygon fill="none" stroke="black" points="748,-38.5 748,-57.5 805,-57.5 805,-38.5 748,-38.5"/>
<text text-anchor="middle" x="776.5" y="-45.5" font-family="Helvetica,sans-Serif" font-size="10.00">pRXPath</text>
</a>
</g>
</g>
<!-- Node8&#45;&gt;Node10 -->
<g id="edge12" class="edge">
<title>Node8&#45;&gt;Node10</title>
<path fill="none" stroke="midnightblue" d="M649.84,-48C675.46,-48 711.06,-48 737.83,-48"/>
<polygon fill="midnightblue" stroke="midnightblue" points="737.98,-51.5 747.98,-48 737.98,-44.5 737.98,-51.5"/>
</g>
<!-- Node11 -->
<g id="node11" class="node">
<title>Node11</title>
<g id="a_node11"><a xlink:href="group__UppercaseHLS.html#ga6ac5a71b18876a813d752ff488f94c45" target="_top" xlink:title="Transmit Path &#45; From THIS to SHELL.">
<polygon fill="none" stroke="black" points="748.5,-0.5 748.5,-19.5 804.5,-19.5 804.5,-0.5 748.5,-0.5"/>
<text text-anchor="middle" x="776.5" y="-7.5" font-family="Helvetica,sans-Serif" font-size="10.00">pTXPath</text>
</a>
</g>
</g>
<!-- Node8&#45;&gt;Node11 -->
<g id="edge13" class="edge">
<title>Node8&#45;&gt;Node11</title>
<path fill="none" stroke="midnightblue" d="M649.84,-40.13C675.73,-33.92 711.82,-25.27 738.69,-18.83"/>
<polygon fill="midnightblue" stroke="midnightblue" points="739.58,-22.21 748.49,-16.48 737.95,-15.4 739.58,-22.21"/>
</g>
</g>
</svg>
