<?xml version="1.0" encoding="UTF-8" standalone="no"?>
<!DOCTYPE svg PUBLIC "-//W3C//DTD SVG 1.1//EN"
 "http://www.w3.org/Graphics/SVG/1.1/DTD/svg11.dtd">
<!-- Generated by graphviz version 2.43.0 (0)
 -->
<!-- Title: SimIcmpPacket::pushChunk Pages: 1 -->
<svg width="584pt" height="104pt"
 viewBox="0.00 0.00 584.00 104.00" xmlns="http://www.w3.org/2000/svg" xmlns:xlink="http://www.w3.org/1999/xlink">
<g id="graph0" class="graph" transform="scale(1 1) rotate(0) translate(4 100)">
<title>SimIcmpPacket::pushChunk</title>
<!-- Node1 -->
<g id="node1" class="node">
<title>Node1</title>
<g id="a_node1"><a xlink:title=" ">
<polygon fill="#bfbfbf" stroke="black" points="425,-38.5 425,-57.5 576,-57.5 576,-38.5 425,-38.5"/>
<text text-anchor="middle" x="500.5" y="-45.5" font-family="Helvetica,sans-Serif" font-size="10.00">SimIcmpPacket::pushChunk</text>
</a>
</g>
</g>
<!-- Node2 -->
<g id="node2" class="node">
<title>Node2</title>
<g id="a_node2"><a xlink:href="classSimIcmpPacket.html#aa9d6e5785cd16318f433280be2b83b02" target="_top" xlink:title=" ">
<polygon fill="none" stroke="black" points="212,-76.5 212,-95.5 389,-95.5 389,-76.5 212,-76.5"/>
<text text-anchor="middle" x="300.5" y="-83.5" font-family="Helvetica,sans-Serif" font-size="10.00">SimIcmpPacket::addIcmpPayload</text>
</a>
</g>
</g>
<!-- Node1&#45;&gt;Node2 -->
<g id="edge1" class="edge">
<title>Node1&#45;&gt;Node2</title>
<path fill="none" stroke="midnightblue" d="M439.63,-59.49C411.38,-64.91 378.06,-71.31 351.23,-76.46"/>
<polygon fill="midnightblue" stroke="midnightblue" points="440.63,-62.86 449.79,-57.54 439.31,-55.99 440.63,-62.86"/>
</g>
<!-- Node3 -->
<g id="node3" class="node">
<title>Node3</title>
<g id="a_node3"><a xlink:href="classSimIp4Packet.html#afbf7f0e31bb00e23b05b490e7034fd43" target="_top" xlink:title=" ">
<polygon fill="none" stroke="black" points="221,-38.5 221,-57.5 380,-57.5 380,-38.5 221,-38.5"/>
<text text-anchor="middle" x="300.5" y="-45.5" font-family="Helvetica,sans-Serif" font-size="10.00">SimIp4Packet::getIcmpPacket</text>
</a>
</g>
</g>
<!-- Node1&#45;&gt;Node3 -->
<g id="edge2" class="edge">
<title>Node1&#45;&gt;Node3</title>
<path fill="none" stroke="midnightblue" d="M414.92,-48C403.43,-48 391.68,-48 380.3,-48"/>
<polygon fill="midnightblue" stroke="midnightblue" points="414.93,-51.5 424.93,-48 414.93,-44.5 414.93,-51.5"/>
</g>
<!-- Node6 -->
<g id="node6" class="node">
<title>Node6</title>
<g id="a_node6"><a xlink:href="classSimIcmpPacket.html#a536e5f3eb75c8e267b68fa448e548efd" target="_top" xlink:title=" ">
<polygon fill="none" stroke="black" points="215,-0.5 215,-19.5 386,-19.5 386,-0.5 215,-0.5"/>
<text text-anchor="middle" x="300.5" y="-7.5" font-family="Helvetica,sans-Serif" font-size="10.00">SimIcmpPacket::SimIcmpPacket</text>
</a>
</g>
</g>
<!-- Node1&#45;&gt;Node6 -->
<g id="edge5" class="edge">
<title>Node1&#45;&gt;Node6</title>
<path fill="none" stroke="midnightblue" d="M439.63,-36.51C411.38,-31.09 378.06,-24.69 351.23,-19.54"/>
<polygon fill="midnightblue" stroke="midnightblue" points="439.31,-40.01 449.79,-38.46 440.63,-33.14 439.31,-40.01"/>
</g>
<!-- Node4 -->
<g id="node4" class="node">
<title>Node4</title>
<g id="a_node4"><a xlink:href="group__NTS__ICMP__TEST.html#ga652464dca3fe1c76270d52a9acdc94a5" target="_top" xlink:title="Create the golden reference file from an input test file.">
<polygon fill="none" stroke="black" points="77,-38.5 77,-57.5 176,-57.5 176,-38.5 77,-38.5"/>
<text text-anchor="middle" x="126.5" y="-45.5" font-family="Helvetica,sans-Serif" font-size="10.00">createGoldenFile</text>
</a>
</g>
</g>
<!-- Node3&#45;&gt;Node4 -->
<g id="edge3" class="edge">
<title>Node3&#45;&gt;Node4</title>
<path fill="none" stroke="midnightblue" d="M210.79,-48C198.87,-48 187.02,-48 176.16,-48"/>
<polygon fill="midnightblue" stroke="midnightblue" points="210.8,-51.5 220.8,-48 210.8,-44.5 210.8,-51.5"/>
</g>
<!-- Node5 -->
<g id="node5" class="node">
<title>Node5</title>
<g id="a_node5"><a xlink:href="group__NTS__ICMP__TEST.html#ga0ddf1224851353fc92bfbff6f499fa97" target="_top" xlink:title="Main function.">
<polygon fill="none" stroke="black" points="0,-38.5 0,-57.5 41,-57.5 41,-38.5 0,-38.5"/>
<text text-anchor="middle" x="20.5" y="-45.5" font-family="Helvetica,sans-Serif" font-size="10.00">main</text>
</a>
</g>
</g>
<!-- Node4&#45;&gt;Node5 -->
<g id="edge4" class="edge">
<title>Node4&#45;&gt;Node5</title>
<path fill="none" stroke="midnightblue" d="M66.74,-48C57.48,-48 48.5,-48 41.02,-48"/>
<polygon fill="midnightblue" stroke="midnightblue" points="66.85,-51.5 76.85,-48 66.85,-44.5 66.85,-51.5"/>
</g>
</g>
</svg>
