<?xml version="1.0" encoding="UTF-8" standalone="no"?>
<!DOCTYPE svg PUBLIC "-//W3C//DTD SVG 1.1//EN"
 "http://www.w3.org/Graphics/SVG/1.1/DTD/svg11.dtd">
<!-- Generated by graphviz version 2.43.0 (0)
 -->
<!-- Title: cFSPlib.python_api_client.swagger_client.models.inline_response200.InlineResponse200.to_str Pages: 1 -->
<svg width="518pt" height="1596pt"
 viewBox="0.00 0.00 518.00 1596.00" xmlns="http://www.w3.org/2000/svg" xmlns:xlink="http://www.w3.org/1999/xlink">
<g id="graph0" class="graph" transform="scale(1 1) rotate(0) translate(4 1592)">
<title>cFSPlib.python_api_client.swagger_client.models.inline_response200.InlineResponse200.to_str</title>
<!-- Node1 -->
<g id="node1" class="node">
<title>Node1</title>
<g id="a_node1"><a xlink:title=" ">
<polygon fill="#bfbfbf" stroke="black" points="0,-774 0,-815 210,-815 210,-774 0,-774"/>
<text text-anchor="start" x="8" y="-803" font-family="Helvetica,sans-Serif" font-size="10.00">cFSPlib.python_api</text>
<text text-anchor="start" x="8" y="-792" font-family="Helvetica,sans-Serif" font-size="10.00">_client.swagger_client.models.inline</text>
<text text-anchor="middle" x="105" y="-781" font-family="Helvetica,sans-Serif" font-size="10.00">_response200.InlineResponse200.to_str</text>
</a>
</g>
</g>
<!-- Node2 -->
<g id="node2" class="node">
<title>Node2</title>
<g id="a_node2"><a xlink:href="classcFSPlib_1_1python__api__client_1_1swagger__client_1_1models_1_1administration__mantle__logi168f0a51d80725a08a224c580ca4eab6.html#a2e44cec43286af69878a8fdb0d2704b2" target="_top" xlink:title=" ">
<polygon fill="none" stroke="black" points="254.5,-1535.5 254.5,-1587.5 501.5,-1587.5 501.5,-1535.5 254.5,-1535.5"/>
<text text-anchor="start" x="262.5" y="-1575.5" font-family="Helvetica,sans-Serif" font-size="10.00">cFSPlib.python_api</text>
<text text-anchor="start" x="262.5" y="-1564.5" font-family="Helvetica,sans-Serif" font-size="10.00">_client.swagger_client.models.administration</text>
<text text-anchor="start" x="262.5" y="-1553.5" font-family="Helvetica,sans-Serif" font-size="10.00">_mantle_logic_body.AdministrationMantleLogic</text>
<text text-anchor="middle" x="378" y="-1542.5" font-family="Helvetica,sans-Serif" font-size="10.00">Body.to_dict</text>
</a>
</g>
</g>
<!-- Node1&#45;&gt;Node2 -->
<g id="edge1" class="edge">
<title>Node1&#45;&gt;Node2</title>
<path fill="none" stroke="midnightblue" d="M107.07,-815.33C113.04,-923.33 145.64,-1418.63 246,-1526.5 246.76,-1527.32 247.54,-1528.12 248.33,-1528.9"/>
<polygon fill="midnightblue" stroke="midnightblue" points="246.05,-1531.55 255.89,-1535.47 250.64,-1526.27 246.05,-1531.55"/>
</g>
<!-- Node3 -->
<g id="node3" class="node">
<title>Node3</title>
<g id="a_node3"><a xlink:href="classcFSPlib_1_1python__api__client_1_1swagger__client_1_1models_1_1administration__platform__lo7236faec3e459a8c5be8431e1b997ede.html#aa930e0963982b60a68f2217ebd62eba1" target="_top" xlink:title=" ">
<polygon fill="none" stroke="black" points="258.5,-1464.5 258.5,-1516.5 497.5,-1516.5 497.5,-1464.5 258.5,-1464.5"/>
<text text-anchor="start" x="266.5" y="-1504.5" font-family="Helvetica,sans-Serif" font-size="10.00">cFSPlib.python_api</text>
<text text-anchor="start" x="266.5" y="-1493.5" font-family="Helvetica,sans-Serif" font-size="10.00">_client.swagger_client.models.administration</text>
<text text-anchor="start" x="266.5" y="-1482.5" font-family="Helvetica,sans-Serif" font-size="10.00">_platform_logic_body.AdministrationPlatform</text>
<text text-anchor="middle" x="378" y="-1471.5" font-family="Helvetica,sans-Serif" font-size="10.00">LogicBody.to_dict</text>
</a>
</g>
</g>
<!-- Node1&#45;&gt;Node3 -->
<g id="edge2" class="edge">
<title>Node1&#45;&gt;Node3</title>
<path fill="none" stroke="midnightblue" d="M107.55,-815.26C115.52,-916.57 155.12,-1358.07 246,-1454.5 247.4,-1455.98 248.85,-1457.4 250.34,-1458.77"/>
<polygon fill="midnightblue" stroke="midnightblue" points="248.25,-1461.57 258.23,-1465.13 252.65,-1456.13 248.25,-1461.57"/>
</g>
<!-- Node4 -->
<g id="node4" class="node">
<title>Node4</title>
<g id="a_node4"><a xlink:href="classcFSPlib_1_1python__api__client_1_1swagger__client_1_1models_1_1build__script_1_1BuildScript.html#ad0e292056f849925160b529b0868e73f" target="_top" xlink:title=" ">
<polygon fill="none" stroke="black" points="282.5,-1404 282.5,-1445 473.5,-1445 473.5,-1404 282.5,-1404"/>
<text text-anchor="start" x="290.5" y="-1433" font-family="Helvetica,sans-Serif" font-size="10.00">cFSPlib.python_api</text>
<text text-anchor="start" x="290.5" y="-1422" font-family="Helvetica,sans-Serif" font-size="10.00">_client.swagger_client.models.build</text>
<text text-anchor="middle" x="378" y="-1411" font-family="Helvetica,sans-Serif" font-size="10.00">_script.BuildScript.to_dict</text>
</a>
</g>
</g>
<!-- Node1&#45;&gt;Node4 -->
<g id="edge3" class="edge">
<title>Node1&#45;&gt;Node4</title>
<path fill="none" stroke="midnightblue" d="M107.91,-815.03C117.2,-910.45 160.74,-1309.58 246,-1394.5 253.72,-1402.19 262.98,-1408.07 272.97,-1412.55"/>
<polygon fill="midnightblue" stroke="midnightblue" points="271.74,-1415.83 282.32,-1416.28 274.33,-1409.32 271.74,-1415.83"/>
</g>
<!-- Node5 -->
<g id="node5" class="node">
<title>Node5</title>
<g id="a_node5"><a xlink:href="classcFSPlib_1_1python__api__client_1_1swagger__client_1_1models_1_1cluster_1_1Cluster.html#af6d7e45ca50dac96ffb9c9cddffde96c" target="_top" xlink:title=" ">
<polygon fill="none" stroke="black" points="276.5,-1344 276.5,-1385 479.5,-1385 479.5,-1344 276.5,-1344"/>
<text text-anchor="start" x="284.5" y="-1373" font-family="Helvetica,sans-Serif" font-size="10.00">cFSPlib.python_api</text>
<text text-anchor="start" x="284.5" y="-1362" font-family="Helvetica,sans-Serif" font-size="10.00">_client.swagger_client.models.cluster.</text>
<text text-anchor="middle" x="378" y="-1351" font-family="Helvetica,sans-Serif" font-size="10.00">Cluster.to_dict</text>
</a>
</g>
</g>
<!-- Node1&#45;&gt;Node5 -->
<g id="edge4" class="edge">
<title>Node1&#45;&gt;Node5</title>
<path fill="none" stroke="midnightblue" d="M108.48,-815.05C119.69,-904.55 168.47,-1259.15 246,-1334.5 252.19,-1340.52 259.33,-1345.42 267.02,-1349.41"/>
<polygon fill="midnightblue" stroke="midnightblue" points="265.72,-1352.67 276.27,-1353.69 268.66,-1346.31 265.72,-1352.67"/>
</g>
<!-- Node6 -->
<g id="node6" class="node">
<title>Node6</title>
<g id="a_node6"><a xlink:href="classcFSPlib_1_1python__api__client_1_1swagger__client_1_1models_1_1cluster__id__node__id__body_1_1ClusterIdNodeIdBody.html#ad1ca6fa563bd9987d1098b2d0ddbabed" target="_top" xlink:title=" ">
<polygon fill="none" stroke="black" points="257,-1284 257,-1325 499,-1325 499,-1284 257,-1284"/>
<text text-anchor="start" x="265" y="-1313" font-family="Helvetica,sans-Serif" font-size="10.00">cFSPlib.python_api</text>
<text text-anchor="start" x="265" y="-1302" font-family="Helvetica,sans-Serif" font-size="10.00">_client.swagger_client.models.cluster</text>
<text text-anchor="middle" x="378" y="-1291" font-family="Helvetica,sans-Serif" font-size="10.00">_id_node_id_body.ClusterIdNodeIdBody.to_dict</text>
</a>
</g>
</g>
<!-- Node1&#45;&gt;Node6 -->
<g id="edge5" class="edge">
<title>Node1&#45;&gt;Node6</title>
<path fill="none" stroke="midnightblue" d="M105.23,-815.01C103.63,-889.06 108.64,-1144.97 246,-1274.5 247.28,-1275.71 248.61,-1276.88 249.96,-1278"/>
<polygon fill="midnightblue" stroke="midnightblue" points="247.96,-1280.87 258.1,-1283.95 252.1,-1275.22 247.96,-1280.87"/>
</g>
<!-- Node7 -->
<g id="node7" class="node">
<title>Node7</title>
<g id="a_node7"><a xlink:href="classcFSPlib_1_1python__api__client_1_1swagger__client_1_1models_1_1clusters__body_1_1ClustersBody.html#a8db8cde3aac212a7e75e4dc470b00466" target="_top" xlink:title=" ">
<polygon fill="none" stroke="black" points="275,-1224 275,-1265 481,-1265 481,-1224 275,-1224"/>
<text text-anchor="start" x="283" y="-1253" font-family="Helvetica,sans-Serif" font-size="10.00">cFSPlib.python_api</text>
<text text-anchor="start" x="283" y="-1242" font-family="Helvetica,sans-Serif" font-size="10.00">_client.swagger_client.models.clusters</text>
<text text-anchor="middle" x="378" y="-1231" font-family="Helvetica,sans-Serif" font-size="10.00">_body.ClustersBody.to_dict</text>
</a>
</g>
</g>
<!-- Node1&#45;&gt;Node7 -->
<g id="edge6" class="edge">
<title>Node1&#45;&gt;Node7</title>
<path fill="none" stroke="midnightblue" d="M106.22,-815.3C108.13,-883.71 123.93,-1103.69 246,-1214.5 251.89,-1219.85 258.54,-1224.3 265.63,-1228.01"/>
<polygon fill="midnightblue" stroke="midnightblue" points="264.3,-1231.25 274.84,-1232.31 267.26,-1224.91 264.3,-1231.25"/>
</g>
<!-- Node8 -->
<g id="node8" class="node">
<title>Node8</title>
<g id="a_node8"><a xlink:href="classcFSPlib_1_1python__api__client_1_1swagger__client_1_1models_1_1image_1_1Image.html#ac15b59cb35d3025925bee33ba3aaa79f" target="_top" xlink:title=" ">
<polygon fill="none" stroke="black" points="277.5,-1164 277.5,-1205 478.5,-1205 478.5,-1164 277.5,-1164"/>
<text text-anchor="start" x="285.5" y="-1193" font-family="Helvetica,sans-Serif" font-size="10.00">cFSPlib.python_api</text>
<text text-anchor="start" x="285.5" y="-1182" font-family="Helvetica,sans-Serif" font-size="10.00">_client.swagger_client.models.image.</text>
<text text-anchor="middle" x="378" y="-1171" font-family="Helvetica,sans-Serif" font-size="10.00">Image.to_dict</text>
</a>
</g>
</g>
<!-- Node1&#45;&gt;Node8 -->
<g id="edge7" class="edge">
<title>Node1&#45;&gt;Node8</title>
<path fill="none" stroke="midnightblue" d="M107.53,-815.39C113.25,-877.42 138.93,-1062 246,-1154.5 252.54,-1160.15 259.92,-1164.79 267.77,-1168.59"/>
<polygon fill="midnightblue" stroke="midnightblue" points="266.61,-1171.91 277.18,-1172.69 269.41,-1165.49 266.61,-1171.91"/>
</g>
<!-- Node9 -->
<g id="node9" class="node">
<title>Node9</title>
<g id="a_node9"><a xlink:href="classcFSPlib_1_1python__api__client_1_1swagger__client_1_1models_1_1images__app__logic__body_1_1ImagesAppLogicBody.html#a73f303c4a1b1a73d171347b4a3bb4604" target="_top" xlink:title=" ">
<polygon fill="none" stroke="black" points="258.5,-1104 258.5,-1145 497.5,-1145 497.5,-1104 258.5,-1104"/>
<text text-anchor="start" x="266.5" y="-1133" font-family="Helvetica,sans-Serif" font-size="10.00">cFSPlib.python_api</text>
<text text-anchor="start" x="266.5" y="-1122" font-family="Helvetica,sans-Serif" font-size="10.00">_client.swagger_client.models.images</text>
<text text-anchor="middle" x="378" y="-1111" font-family="Helvetica,sans-Serif" font-size="10.00">_app_logic_body.ImagesAppLogicBody.to_dict</text>
</a>
</g>
</g>
<!-- Node1&#45;&gt;Node9 -->
<g id="edge8" class="edge">
<title>Node1&#45;&gt;Node9</title>
<path fill="none" stroke="midnightblue" d="M109.25,-815.05C119.04,-869.73 153.46,-1019.72 246,-1094.5 247.77,-1095.93 249.59,-1097.29 251.47,-1098.6"/>
<polygon fill="midnightblue" stroke="midnightblue" points="249.63,-1101.58 259.97,-1103.91 253.35,-1095.64 249.63,-1101.58"/>
</g>
<!-- Node10 -->
<g id="node10" class="node">
<title>Node10</title>
<g id="a_node10"><a xlink:href="classcFSPlib_1_1python__api__client_1_1swagger__client_1_1models_1_1images__body_1_1ImagesBody.html#a5554114728bde54cdd776aebee542078" target="_top" xlink:title=" ">
<polygon fill="none" stroke="black" points="276.5,-1044 276.5,-1085 479.5,-1085 479.5,-1044 276.5,-1044"/>
<text text-anchor="start" x="284.5" y="-1073" font-family="Helvetica,sans-Serif" font-size="10.00">cFSPlib.python_api</text>
<text text-anchor="start" x="284.5" y="-1062" font-family="Helvetica,sans-Serif" font-size="10.00">_client.swagger_client.models.images</text>
<text text-anchor="middle" x="378" y="-1051" font-family="Helvetica,sans-Serif" font-size="10.00">_body.ImagesBody.to_dict</text>
</a>
</g>
</g>
<!-- Node1&#45;&gt;Node10 -->
<g id="edge9" class="edge">
<title>Node1&#45;&gt;Node10</title>
<path fill="none" stroke="midnightblue" d="M111.79,-815.02C126.13,-861.87 167.88,-977.07 246,-1034.5 252.41,-1039.21 259.44,-1043.2 266.8,-1046.58"/>
<polygon fill="midnightblue" stroke="midnightblue" points="265.72,-1049.92 276.29,-1050.53 268.41,-1043.46 265.72,-1049.92"/>
</g>
<!-- Node11 -->
<g id="node11" class="node">
<title>Node11</title>
<g id="a_node11"><a xlink:href="classcFSPlib_1_1python__api__client_1_1swagger__client_1_1models_1_1inline__response200_1_1InlineResponse200.html#a66e88896e524555c9eac804f03b4a04b" target="_top" xlink:title=" ">
<polygon fill="none" stroke="black" points="270.5,-984 270.5,-1025 485.5,-1025 485.5,-984 270.5,-984"/>
<text text-anchor="start" x="278.5" y="-1013" font-family="Helvetica,sans-Serif" font-size="10.00">cFSPlib.python_api</text>
<text text-anchor="start" x="278.5" y="-1002" font-family="Helvetica,sans-Serif" font-size="10.00">_client.swagger_client.models.inline</text>
<text text-anchor="middle" x="378" y="-991" font-family="Helvetica,sans-Serif" font-size="10.00">_response200.InlineResponse200.to_dict</text>
</a>
</g>
</g>
<!-- Node1&#45;&gt;Node11 -->
<g id="edge10" class="edge">
<title>Node1&#45;&gt;Node11</title>
<path fill="none" stroke="midnightblue" d="M116.01,-815.26C135.44,-853.24 182.07,-933.75 246,-974.5 250.73,-977.52 255.74,-980.23 260.91,-982.68"/>
<polygon fill="midnightblue" stroke="midnightblue" points="259.83,-986.02 270.4,-986.79 262.62,-979.6 259.83,-986.02"/>
</g>
<!-- Node12 -->
<g id="node12" class="node">
<title>Node12</title>
<g id="a_node12"><a xlink:href="classcFSPlib_1_1python__api__client_1_1swagger__client_1_1models_1_1inline__response2001_1_1InlineResponse2001.html#ad6663b23b7498b71d4ca99c7ebd03029" target="_top" xlink:title=" ">
<polygon fill="none" stroke="black" points="264.5,-924 264.5,-965 491.5,-965 491.5,-924 264.5,-924"/>
<text text-anchor="start" x="272.5" y="-953" font-family="Helvetica,sans-Serif" font-size="10.00">cFSPlib.python_api</text>
<text text-anchor="start" x="272.5" y="-942" font-family="Helvetica,sans-Serif" font-size="10.00">_client.swagger_client.models.inline</text>
<text text-anchor="middle" x="378" y="-931" font-family="Helvetica,sans-Serif" font-size="10.00">_response2001.InlineResponse2001.to_dict</text>
</a>
</g>
</g>
<!-- Node1&#45;&gt;Node12 -->
<g id="edge11" class="edge">
<title>Node1&#45;&gt;Node12</title>
<path fill="none" stroke="midnightblue" d="M124.15,-815.37C148.92,-842.47 195.97,-889.28 246,-914.5 250.04,-916.53 254.21,-918.43 258.48,-920.2"/>
<polygon fill="midnightblue" stroke="midnightblue" points="257.37,-923.53 267.96,-923.88 259.9,-917 257.37,-923.53"/>
</g>
<!-- Node13 -->
<g id="node13" class="node">
<title>Node13</title>
<g id="a_node13"><a xlink:href="classcFSPlib_1_1python__api__client_1_1swagger__client_1_1models_1_1inline__response2002_1_1InlineResponse2002.html#a7120aa02a5bd37a0522121898626d7ae" target="_top" xlink:title=" ">
<polygon fill="none" stroke="black" points="264.5,-864 264.5,-905 491.5,-905 491.5,-864 264.5,-864"/>
<text text-anchor="start" x="272.5" y="-893" font-family="Helvetica,sans-Serif" font-size="10.00">cFSPlib.python_api</text>
<text text-anchor="start" x="272.5" y="-882" font-family="Helvetica,sans-Serif" font-size="10.00">_client.swagger_client.models.inline</text>
<text text-anchor="middle" x="378" y="-871" font-family="Helvetica,sans-Serif" font-size="10.00">_response2002.InlineResponse2002.to_dict</text>
</a>
</g>
</g>
<!-- Node1&#45;&gt;Node13 -->
<g id="edge12" class="edge">
<title>Node1&#45;&gt;Node13</title>
<path fill="none" stroke="midnightblue" d="M148.43,-815.05C175.8,-827.72 212.43,-843.56 246,-854.5 253.33,-856.89 260.95,-859.16 268.67,-861.31"/>
<polygon fill="midnightblue" stroke="midnightblue" points="267.91,-864.73 278.47,-863.96 269.73,-857.97 267.91,-864.73"/>
</g>
<!-- Node14 -->
<g id="node14" class="node">
<title>Node14</title>
<g id="a_node14"><a xlink:href="classcFSPlib_1_1python__api__client_1_1swagger__client_1_1models_1_1inline__response2003_1_1InlineResponse2003.html#a9e1663a068774b55c2e94e319635e85a" target="_top" xlink:title=" ">
<polygon fill="none" stroke="black" points="264.5,-804 264.5,-845 491.5,-845 491.5,-804 264.5,-804"/>
<text text-anchor="start" x="272.5" y="-833" font-family="Helvetica,sans-Serif" font-size="10.00">cFSPlib.python_api</text>
<text text-anchor="start" x="272.5" y="-822" font-family="Helvetica,sans-Serif" font-size="10.00">_client.swagger_client.models.inline</text>
<text text-anchor="middle" x="378" y="-811" font-family="Helvetica,sans-Serif" font-size="10.00">_response2003.InlineResponse2003.to_dict</text>
</a>
</g>
</g>
<!-- Node1&#45;&gt;Node14 -->
<g id="edge13" class="edge">
<title>Node1&#45;&gt;Node14</title>
<path fill="none" stroke="midnightblue" d="M210,-806.01C224.43,-807.61 239.37,-809.26 254.11,-810.9"/>
<polygon fill="midnightblue" stroke="midnightblue" points="253.94,-814.4 264.27,-812.02 254.71,-807.44 253.94,-814.4"/>
</g>
<!-- Node15 -->
<g id="node15" class="node">
<title>Node15</title>
<g id="a_node15"><a xlink:href="classcFSPlib_1_1python__api__client_1_1swagger__client_1_1models_1_1inline__response2004_1_1InlineResponse2004.html#a4297acc6998c1b7e0d61ed12d9a3ee24" target="_top" xlink:title=" ">
<polygon fill="none" stroke="black" points="264.5,-744 264.5,-785 491.5,-785 491.5,-744 264.5,-744"/>
<text text-anchor="start" x="272.5" y="-773" font-family="Helvetica,sans-Serif" font-size="10.00">cFSPlib.python_api</text>
<text text-anchor="start" x="272.5" y="-762" font-family="Helvetica,sans-Serif" font-size="10.00">_client.swagger_client.models.inline</text>
<text text-anchor="middle" x="378" y="-751" font-family="Helvetica,sans-Serif" font-size="10.00">_response2004.InlineResponse2004.to_dict</text>
</a>
</g>
</g>
<!-- Node1&#45;&gt;Node15 -->
<g id="edge14" class="edge">
<title>Node1&#45;&gt;Node15</title>
<path fill="none" stroke="midnightblue" d="M210,-782.99C224.43,-781.39 239.37,-779.74 254.11,-778.1"/>
<polygon fill="midnightblue" stroke="midnightblue" points="254.71,-781.56 264.27,-776.98 253.94,-774.6 254.71,-781.56"/>
</g>
<!-- Node16 -->
<g id="node16" class="node">
<title>Node16</title>
<g id="a_node16"><a xlink:href="classcFSPlib_1_1python__api__client_1_1swagger__client_1_1models_1_1inline__response2005_1_1InlineResponse2005.html#ad46c7545bdf1094cbd707019113737ca" target="_top" xlink:title=" ">
<polygon fill="none" stroke="black" points="264.5,-684 264.5,-725 491.5,-725 491.5,-684 264.5,-684"/>
<text text-anchor="start" x="272.5" y="-713" font-family="Helvetica,sans-Serif" font-size="10.00">cFSPlib.python_api</text>
<text text-anchor="start" x="272.5" y="-702" font-family="Helvetica,sans-Serif" font-size="10.00">_client.swagger_client.models.inline</text>
<text text-anchor="middle" x="378" y="-691" font-family="Helvetica,sans-Serif" font-size="10.00">_response2005.InlineResponse2005.to_dict</text>
</a>
</g>
</g>
<!-- Node1&#45;&gt;Node16 -->
<g id="edge15" class="edge">
<title>Node1&#45;&gt;Node16</title>
<path fill="none" stroke="midnightblue" d="M148.43,-773.95C175.8,-761.28 212.43,-745.44 246,-734.5 253.33,-732.11 260.95,-729.84 268.67,-727.69"/>
<polygon fill="midnightblue" stroke="midnightblue" points="269.73,-731.03 278.47,-725.04 267.91,-724.27 269.73,-731.03"/>
</g>
<!-- Node17 -->
<g id="node17" class="node">
<title>Node17</title>
<g id="a_node17"><a xlink:href="classcFSPlib_1_1python__api__client_1_1swagger__client_1_1models_1_1inline__response2006_1_1InlineResponse2006.html#a5c95ca06fe9c1f2014a8dbe7f8b0a9d0" target="_top" xlink:title=" ">
<polygon fill="none" stroke="black" points="264.5,-624 264.5,-665 491.5,-665 491.5,-624 264.5,-624"/>
<text text-anchor="start" x="272.5" y="-653" font-family="Helvetica,sans-Serif" font-size="10.00">cFSPlib.python_api</text>
<text text-anchor="start" x="272.5" y="-642" font-family="Helvetica,sans-Serif" font-size="10.00">_client.swagger_client.models.inline</text>
<text text-anchor="middle" x="378" y="-631" font-family="Helvetica,sans-Serif" font-size="10.00">_response2006.InlineResponse2006.to_dict</text>
</a>
</g>
</g>
<!-- Node1&#45;&gt;Node17 -->
<g id="edge16" class="edge">
<title>Node1&#45;&gt;Node17</title>
<path fill="none" stroke="midnightblue" d="M124.15,-773.63C148.92,-746.53 195.97,-699.72 246,-674.5 250.04,-672.47 254.21,-670.57 258.48,-668.8"/>
<polygon fill="midnightblue" stroke="midnightblue" points="259.9,-672 267.96,-665.12 257.37,-665.47 259.9,-672"/>
</g>
<!-- Node18 -->
<g id="node18" class="node">
<title>Node18</title>
<g id="a_node18"><a xlink:href="classcFSPlib_1_1python__api__client_1_1swagger__client_1_1models_1_1instance_1_1Instance.html#aed23dfe041763799abf00baff0255667" target="_top" xlink:title=" ">
<polygon fill="none" stroke="black" points="272,-564 272,-605 484,-605 484,-564 272,-564"/>
<text text-anchor="start" x="280" y="-593" font-family="Helvetica,sans-Serif" font-size="10.00">cFSPlib.python_api</text>
<text text-anchor="start" x="280" y="-582" font-family="Helvetica,sans-Serif" font-size="10.00">_client.swagger_client.models.instance.</text>
<text text-anchor="middle" x="378" y="-571" font-family="Helvetica,sans-Serif" font-size="10.00">Instance.to_dict</text>
</a>
</g>
</g>
<!-- Node1&#45;&gt;Node18 -->
<g id="edge17" class="edge">
<title>Node1&#45;&gt;Node18</title>
<path fill="none" stroke="midnightblue" d="M116.01,-773.74C135.44,-735.76 182.07,-655.25 246,-614.5 251.1,-611.25 256.52,-608.34 262.13,-605.76"/>
<polygon fill="midnightblue" stroke="midnightblue" points="263.89,-608.81 271.74,-601.69 261.17,-602.36 263.89,-608.81"/>
</g>
<!-- Node19 -->
<g id="node19" class="node">
<title>Node19</title>
<g id="a_node19"><a xlink:href="classcFSPlib_1_1python__api__client_1_1swagger__client_1_1models_1_1instance__id__api__gateway__33456c8700113c53c3cfaa915ef28716.html#a4d21c92cd28568b7bcdddcd77c95da7a" target="_top" xlink:title=" ">
<polygon fill="none" stroke="black" points="258.5,-492.5 258.5,-544.5 497.5,-544.5 497.5,-492.5 258.5,-492.5"/>
<text text-anchor="start" x="266.5" y="-532.5" font-family="Helvetica,sans-Serif" font-size="10.00">cFSPlib.python_api</text>
<text text-anchor="start" x="266.5" y="-521.5" font-family="Helvetica,sans-Serif" font-size="10.00">_client.swagger_client.models.instance</text>
<text text-anchor="start" x="266.5" y="-510.5" font-family="Helvetica,sans-Serif" font-size="10.00">_id_api_gateway_body.InstanceIdApiGateway</text>
<text text-anchor="middle" x="378" y="-499.5" font-family="Helvetica,sans-Serif" font-size="10.00">Body.to_dict</text>
</a>
</g>
</g>
<!-- Node1&#45;&gt;Node19 -->
<g id="edge18" class="edge">
<title>Node1&#45;&gt;Node19</title>
<path fill="none" stroke="midnightblue" d="M112.08,-773.86C126.88,-727.28 169.33,-613.45 246,-554.5 248.09,-552.9 250.24,-551.36 252.45,-549.9"/>
<polygon fill="midnightblue" stroke="midnightblue" points="254.49,-552.75 261.24,-544.58 250.87,-546.76 254.49,-552.75"/>
</g>
<!-- Node20 -->
<g id="node20" class="node">
<title>Node20</title>
<g id="a_node20"><a xlink:href="classcFSPlib_1_1python__api__client_1_1swagger__client_1_1models_1_1instance__id__runlevel__body_1_1InstanceIdRunlevelBody.html#acc6834a79dfaafbd099970c0df7d878a" target="_top" xlink:title=" ">
<polygon fill="none" stroke="black" points="248.5,-432 248.5,-473 507.5,-473 507.5,-432 248.5,-432"/>
<text text-anchor="start" x="256.5" y="-461" font-family="Helvetica,sans-Serif" font-size="10.00">cFSPlib.python_api</text>
<text text-anchor="start" x="256.5" y="-450" font-family="Helvetica,sans-Serif" font-size="10.00">_client.swagger_client.models.instance</text>
<text text-anchor="middle" x="378" y="-439" font-family="Helvetica,sans-Serif" font-size="10.00">_id_runlevel_body.InstanceIdRunlevelBody.to_dict</text>
</a>
</g>
</g>
<!-- Node1&#45;&gt;Node20 -->
<g id="edge19" class="edge">
<title>Node1&#45;&gt;Node20</title>
<path fill="none" stroke="midnightblue" d="M108.97,-773.66C118.12,-717.46 151.25,-561.72 246,-483.5 248.09,-481.78 250.26,-480.14 252.5,-478.6"/>
<polygon fill="midnightblue" stroke="midnightblue" points="254.77,-481.3 261.44,-473.07 251.09,-475.35 254.77,-481.3"/>
</g>
<!-- Node21 -->
<g id="node21" class="node">
<title>Node21</title>
<g id="a_node21"><a xlink:href="classcFSPlib_1_1python__api__client_1_1swagger__client_1_1models_1_1instances__body_1_1InstancesBody.html#aed7aad923568e83cd8fff866b77013e1" target="_top" xlink:title=" ">
<polygon fill="none" stroke="black" points="271,-372 271,-413 485,-413 485,-372 271,-372"/>
<text text-anchor="start" x="279" y="-401" font-family="Helvetica,sans-Serif" font-size="10.00">cFSPlib.python_api</text>
<text text-anchor="start" x="279" y="-390" font-family="Helvetica,sans-Serif" font-size="10.00">_client.swagger_client.models.instances</text>
<text text-anchor="middle" x="378" y="-379" font-family="Helvetica,sans-Serif" font-size="10.00">_body.InstancesBody.to_dict</text>
</a>
</g>
</g>
<!-- Node1&#45;&gt;Node21 -->
<g id="edge20" class="edge">
<title>Node1&#45;&gt;Node21</title>
<path fill="none" stroke="midnightblue" d="M107.22,-773.84C112.12,-710.7 135.82,-518.74 246,-422.5 250.84,-418.27 256.16,-414.6 261.8,-411.43"/>
<polygon fill="midnightblue" stroke="midnightblue" points="263.55,-414.46 270.89,-406.83 260.39,-408.22 263.55,-414.46"/>
</g>
<!-- Node22 -->
<g id="node22" class="node">
<title>Node22</title>
<g id="a_node22"><a xlink:href="classcFSPlib_1_1python__api__client_1_1swagger__client_1_1models_1_1instances__instance__id__body_1_1InstancesInstanceIdBody.html#a7dd72793d6126eb9e9aaa591f4cd27a1" target="_top" xlink:title=" ">
<polygon fill="none" stroke="black" points="246,-312 246,-353 510,-353 510,-312 246,-312"/>
<text text-anchor="start" x="254" y="-341" font-family="Helvetica,sans-Serif" font-size="10.00">cFSPlib.python_api</text>
<text text-anchor="start" x="254" y="-330" font-family="Helvetica,sans-Serif" font-size="10.00">_client.swagger_client.models.instances</text>
<text text-anchor="middle" x="378" y="-319" font-family="Helvetica,sans-Serif" font-size="10.00">_instance_id_body.InstancesInstanceIdBody.to_dict</text>
</a>
</g>
</g>
<!-- Node1&#45;&gt;Node22 -->
<g id="edge21" class="edge">
<title>Node1&#45;&gt;Node22</title>
<path fill="none" stroke="midnightblue" d="M106,-773.61C107.2,-703.87 120.97,-476.95 246,-362.5 247.3,-361.31 248.64,-360.16 250.01,-359.06"/>
<polygon fill="midnightblue" stroke="midnightblue" points="252.13,-361.85 258.23,-353.19 248.06,-356.15 252.13,-361.85"/>
</g>
<!-- Node23 -->
<g id="node23" class="node">
<title>Node23</title>
<g id="a_node23"><a xlink:href="classcFSPlib_1_1python__api__client_1_1swagger__client_1_1models_1_1node__map_1_1NodeMap.html#a9f8e084f531872bf958a4f2ab0763677" target="_top" xlink:title=" ">
<polygon fill="none" stroke="black" points="282.5,-252 282.5,-293 473.5,-293 473.5,-252 282.5,-252"/>
<text text-anchor="start" x="290.5" y="-281" font-family="Helvetica,sans-Serif" font-size="10.00">cFSPlib.python_api</text>
<text text-anchor="start" x="290.5" y="-270" font-family="Helvetica,sans-Serif" font-size="10.00">_client.swagger_client.models.node</text>
<text text-anchor="middle" x="378" y="-259" font-family="Helvetica,sans-Serif" font-size="10.00">_map.NodeMap.to_dict</text>
</a>
</g>
</g>
<!-- Node1&#45;&gt;Node23 -->
<g id="edge22" class="edge">
<title>Node1&#45;&gt;Node23</title>
<path fill="none" stroke="midnightblue" d="M109.06,-773.79C121.96,-689.08 174.67,-370.21 246,-302.5 253.84,-295.06 263.13,-289.33 273.09,-284.93"/>
<polygon fill="midnightblue" stroke="midnightblue" points="274.38,-288.19 282.4,-281.26 271.82,-281.67 274.38,-288.19"/>
</g>
<!-- Node24 -->
<g id="node24" class="node">
<title>Node24</title>
<g id="a_node24"><a xlink:href="classcFSPlib_1_1python__api__client_1_1swagger__client_1_1models_1_1node__map__inner_1_1NodeMapInner.html#af6d39304bb728e602bb55d3e19d1233f" target="_top" xlink:title=" ">
<polygon fill="none" stroke="black" points="282.5,-192 282.5,-233 473.5,-233 473.5,-192 282.5,-192"/>
<text text-anchor="start" x="290.5" y="-221" font-family="Helvetica,sans-Serif" font-size="10.00">cFSPlib.python_api</text>
<text text-anchor="start" x="290.5" y="-210" font-family="Helvetica,sans-Serif" font-size="10.00">_client.swagger_client.models.node</text>
<text text-anchor="middle" x="378" y="-199" font-family="Helvetica,sans-Serif" font-size="10.00">_map_inner.NodeMapInner.to_dict</text>
</a>
</g>
</g>
<!-- Node1&#45;&gt;Node24 -->
<g id="edge23" class="edge">
<title>Node1&#45;&gt;Node24</title>
<path fill="none" stroke="midnightblue" d="M108.38,-773.8C119.22,-682.84 166.97,-319.71 246,-242.5 253.79,-234.89 263.1,-229.05 273.12,-224.6"/>
<polygon fill="midnightblue" stroke="midnightblue" points="274.48,-227.82 282.49,-220.89 271.9,-221.32 274.48,-227.82"/>
</g>
<!-- Node25 -->
<g id="node25" class="node">
<title>Node25</title>
<g id="a_node25"><a xlink:href="classcFSPlib_1_1python__api__client_1_1swagger__client_1_1models_1_1quota_1_1Quota.html#aa144c533fb9a07e0328cd2c9f8a54e10" target="_top" xlink:title=" ">
<polygon fill="none" stroke="black" points="279,-132 279,-173 477,-173 477,-132 279,-132"/>
<text text-anchor="start" x="287" y="-161" font-family="Helvetica,sans-Serif" font-size="10.00">cFSPlib.python_api</text>
<text text-anchor="start" x="287" y="-150" font-family="Helvetica,sans-Serif" font-size="10.00">_client.swagger_client.models.quota.</text>
<text text-anchor="middle" x="378" y="-139" font-family="Helvetica,sans-Serif" font-size="10.00">Quota.to_dict</text>
</a>
</g>
</g>
<!-- Node1&#45;&gt;Node25 -->
<g id="edge24" class="edge">
<title>Node1&#45;&gt;Node25</title>
<path fill="none" stroke="midnightblue" d="M107.82,-773.89C116.76,-677.16 159.21,-269.31 246,-182.5 252.86,-175.64 260.94,-170.22 269.67,-165.95"/>
<polygon fill="midnightblue" stroke="midnightblue" points="271.2,-169.1 278.98,-161.9 268.41,-162.68 271.2,-169.1"/>
</g>
<!-- Node26 -->
<g id="node26" class="node">
<title>Node26</title>
<g id="a_node26"><a xlink:href="classcFSPlib_1_1python__api__client_1_1swagger__client_1_1models_1_1resource_1_1Resource.html#ab23087e90002e476660d47200211a80e" target="_top" xlink:title=" ">
<polygon fill="none" stroke="black" points="272,-72 272,-113 484,-113 484,-72 272,-72"/>
<text text-anchor="start" x="280" y="-101" font-family="Helvetica,sans-Serif" font-size="10.00">cFSPlib.python_api</text>
<text text-anchor="start" x="280" y="-90" font-family="Helvetica,sans-Serif" font-size="10.00">_client.swagger_client.models.resource.</text>
<text text-anchor="middle" x="378" y="-79" font-family="Helvetica,sans-Serif" font-size="10.00">Resource.to_dict</text>
</a>
</g>
</g>
<!-- Node1&#45;&gt;Node26 -->
<g id="edge25" class="edge">
<title>Node1&#45;&gt;Node26</title>
<path fill="none" stroke="midnightblue" d="M107.36,-773.96C114.55,-671.76 151.41,-218.98 246,-122.5 250.94,-117.46 256.54,-113.2 262.57,-109.59"/>
<polygon fill="midnightblue" stroke="midnightblue" points="264.5,-112.53 271.7,-104.77 261.22,-106.35 264.5,-112.53"/>
</g>
<!-- Node27 -->
<g id="node27" class="node">
<title>Node27</title>
<g id="a_node27"><a xlink:href="classcFSPlib_1_1python__api__client_1_1swagger__client_1_1models_1_1test__instance__instance__idb21fef29c350bd01bc51bf6a97dd8668.html#aef8ffd853e93db25594577ace055c355" target="_top" xlink:title=" ">
<polygon fill="none" stroke="black" points="270.5,-0.5 270.5,-52.5 485.5,-52.5 485.5,-0.5 270.5,-0.5"/>
<text text-anchor="start" x="278.5" y="-40.5" font-family="Helvetica,sans-Serif" font-size="10.00">cFSPlib.python_api</text>
<text text-anchor="start" x="278.5" y="-29.5" font-family="Helvetica,sans-Serif" font-size="10.00">_client.swagger_client.models.test</text>
<text text-anchor="start" x="278.5" y="-18.5" font-family="Helvetica,sans-Serif" font-size="10.00">_instance_instance_id_body.TestInstance</text>
<text text-anchor="middle" x="378" y="-7.5" font-family="Helvetica,sans-Serif" font-size="10.00">InstanceIdBody.to_dict</text>
</a>
</g>
</g>
<!-- Node1&#45;&gt;Node27 -->
<g id="edge26" class="edge">
<title>Node1&#45;&gt;Node27</title>
<path fill="none" stroke="midnightblue" d="M107.09,-773.68C113.13,-665.75 146.02,-170.73 246,-62.5 250.68,-57.44 255.99,-53.06 261.74,-49.28"/>
<polygon fill="midnightblue" stroke="midnightblue" points="263.61,-52.24 270.45,-44.16 260.06,-46.21 263.61,-52.24"/>
</g>
</g>
</svg>
