<?xml version="1.0" encoding="UTF-8" standalone="no"?>
<!DOCTYPE svg PUBLIC "-//W3C//DTD SVG 1.1//EN"
 "http://www.w3.org/Graphics/SVG/1.1/DTD/svg11.dtd">
<!-- Generated by graphviz version 2.43.0 (0)
 -->
<!-- Title: cFSPlib.python_api_client.swagger_client.models.cluster_id_node_id_body.ClusterIdNodeIdBody.to_str Pages: 1 -->
<svg width="545pt" height="1596pt"
 viewBox="0.00 0.00 545.00 1596.00" xmlns="http://www.w3.org/2000/svg" xmlns:xlink="http://www.w3.org/1999/xlink">
<g id="graph0" class="graph" transform="scale(1 1) rotate(0) translate(4 1592)">
<title>cFSPlib.python_api_client.swagger_client.models.cluster_id_node_id_body.ClusterIdNodeIdBody.to_str</title>
<!-- Node1 -->
<g id="node1" class="node">
<title>Node1</title>
<g id="a_node1"><a xlink:title=" ">
<polygon fill="#bfbfbf" stroke="black" points="0,-774 0,-815 237,-815 237,-774 0,-774"/>
<text text-anchor="start" x="8" y="-803" font-family="Helvetica,sans-Serif" font-size="10.00">cFSPlib.python_api</text>
<text text-anchor="start" x="8" y="-792" font-family="Helvetica,sans-Serif" font-size="10.00">_client.swagger_client.models.cluster</text>
<text text-anchor="middle" x="118.5" y="-781" font-family="Helvetica,sans-Serif" font-size="10.00">_id_node_id_body.ClusterIdNodeIdBody.to_str</text>
</a>
</g>
</g>
<!-- Node2 -->
<g id="node2" class="node">
<title>Node2</title>
<g id="a_node2"><a xlink:href="classcFSPlib_1_1python__api__client_1_1swagger__client_1_1models_1_1administration__mantle__logi168f0a51d80725a08a224c580ca4eab6.html#a2e44cec43286af69878a8fdb0d2704b2" target="_top" xlink:title=" ">
<polygon fill="none" stroke="black" points="281.5,-1535.5 281.5,-1587.5 528.5,-1587.5 528.5,-1535.5 281.5,-1535.5"/>
<text text-anchor="start" x="289.5" y="-1575.5" font-family="Helvetica,sans-Serif" font-size="10.00">cFSPlib.python_api</text>
<text text-anchor="start" x="289.5" y="-1564.5" font-family="Helvetica,sans-Serif" font-size="10.00">_client.swagger_client.models.administration</text>
<text text-anchor="start" x="289.5" y="-1553.5" font-family="Helvetica,sans-Serif" font-size="10.00">_mantle_logic_body.AdministrationMantleLogic</text>
<text text-anchor="middle" x="405" y="-1542.5" font-family="Helvetica,sans-Serif" font-size="10.00">Body.to_dict</text>
</a>
</g>
</g>
<!-- Node1&#45;&gt;Node2 -->
<g id="edge1" class="edge">
<title>Node1&#45;&gt;Node2</title>
<path fill="none" stroke="midnightblue" d="M120.98,-815.35C129.07,-923.45 171.33,-1419.14 273,-1526.5 273.77,-1527.31 274.55,-1528.11 275.36,-1528.88"/>
<polygon fill="midnightblue" stroke="midnightblue" points="273.09,-1531.55 282.97,-1535.4 277.65,-1526.24 273.09,-1531.55"/>
</g>
<!-- Node3 -->
<g id="node3" class="node">
<title>Node3</title>
<g id="a_node3"><a xlink:href="classcFSPlib_1_1python__api__client_1_1swagger__client_1_1models_1_1administration__platform__lo7236faec3e459a8c5be8431e1b997ede.html#aa930e0963982b60a68f2217ebd62eba1" target="_top" xlink:title=" ">
<polygon fill="none" stroke="black" points="285.5,-1464.5 285.5,-1516.5 524.5,-1516.5 524.5,-1464.5 285.5,-1464.5"/>
<text text-anchor="start" x="293.5" y="-1504.5" font-family="Helvetica,sans-Serif" font-size="10.00">cFSPlib.python_api</text>
<text text-anchor="start" x="293.5" y="-1493.5" font-family="Helvetica,sans-Serif" font-size="10.00">_client.swagger_client.models.administration</text>
<text text-anchor="start" x="293.5" y="-1482.5" font-family="Helvetica,sans-Serif" font-size="10.00">_platform_logic_body.AdministrationPlatform</text>
<text text-anchor="middle" x="405" y="-1471.5" font-family="Helvetica,sans-Serif" font-size="10.00">LogicBody.to_dict</text>
</a>
</g>
</g>
<!-- Node1&#45;&gt;Node3 -->
<g id="edge2" class="edge">
<title>Node1&#45;&gt;Node3</title>
<path fill="none" stroke="midnightblue" d="M121.5,-815.28C131.67,-916.68 180.78,-1358.55 273,-1454.5 274.41,-1455.97 275.87,-1457.38 277.38,-1458.73"/>
<polygon fill="midnightblue" stroke="midnightblue" points="275.32,-1461.56 285.32,-1465.04 279.67,-1456.08 275.32,-1461.56"/>
</g>
<!-- Node4 -->
<g id="node4" class="node">
<title>Node4</title>
<g id="a_node4"><a xlink:href="classcFSPlib_1_1python__api__client_1_1swagger__client_1_1models_1_1build__script_1_1BuildScript.html#ad0e292056f849925160b529b0868e73f" target="_top" xlink:title=" ">
<polygon fill="none" stroke="black" points="309.5,-1404 309.5,-1445 500.5,-1445 500.5,-1404 309.5,-1404"/>
<text text-anchor="start" x="317.5" y="-1433" font-family="Helvetica,sans-Serif" font-size="10.00">cFSPlib.python_api</text>
<text text-anchor="start" x="317.5" y="-1422" font-family="Helvetica,sans-Serif" font-size="10.00">_client.swagger_client.models.build</text>
<text text-anchor="middle" x="405" y="-1411" font-family="Helvetica,sans-Serif" font-size="10.00">_script.BuildScript.to_dict</text>
</a>
</g>
</g>
<!-- Node1&#45;&gt;Node4 -->
<g id="edge3" class="edge">
<title>Node1&#45;&gt;Node4</title>
<path fill="none" stroke="midnightblue" d="M121.9,-815.05C133.45,-910.56 186.39,-1310.06 273,-1394.5 280.66,-1401.97 289.78,-1407.72 299.58,-1412.14"/>
<polygon fill="midnightblue" stroke="midnightblue" points="298.59,-1415.51 309.17,-1415.98 301.19,-1409.01 298.59,-1415.51"/>
</g>
<!-- Node5 -->
<g id="node5" class="node">
<title>Node5</title>
<g id="a_node5"><a xlink:href="classcFSPlib_1_1python__api__client_1_1swagger__client_1_1models_1_1cluster_1_1Cluster.html#af6d7e45ca50dac96ffb9c9cddffde96c" target="_top" xlink:title=" ">
<polygon fill="none" stroke="black" points="303.5,-1344 303.5,-1385 506.5,-1385 506.5,-1344 303.5,-1344"/>
<text text-anchor="start" x="311.5" y="-1373" font-family="Helvetica,sans-Serif" font-size="10.00">cFSPlib.python_api</text>
<text text-anchor="start" x="311.5" y="-1362" font-family="Helvetica,sans-Serif" font-size="10.00">_client.swagger_client.models.cluster.</text>
<text text-anchor="middle" x="405" y="-1351" font-family="Helvetica,sans-Serif" font-size="10.00">Cluster.to_dict</text>
</a>
</g>
</g>
<!-- Node1&#45;&gt;Node5 -->
<g id="edge4" class="edge">
<title>Node1&#45;&gt;Node5</title>
<path fill="none" stroke="midnightblue" d="M122.52,-815.07C136.08,-904.66 194.1,-1259.59 273,-1334.5 279.26,-1340.45 286.45,-1345.3 294.17,-1349.25"/>
<polygon fill="midnightblue" stroke="midnightblue" points="292.9,-1352.52 303.45,-1353.49 295.81,-1346.15 292.9,-1352.52"/>
</g>
<!-- Node6 -->
<g id="node6" class="node">
<title>Node6</title>
<g id="a_node6"><a xlink:href="classcFSPlib_1_1python__api__client_1_1swagger__client_1_1models_1_1cluster__id__node__id__body_1_1ClusterIdNodeIdBody.html#ad1ca6fa563bd9987d1098b2d0ddbabed" target="_top" xlink:title=" ">
<polygon fill="none" stroke="black" points="284,-1284 284,-1325 526,-1325 526,-1284 284,-1284"/>
<text text-anchor="start" x="292" y="-1313" font-family="Helvetica,sans-Serif" font-size="10.00">cFSPlib.python_api</text>
<text text-anchor="start" x="292" y="-1302" font-family="Helvetica,sans-Serif" font-size="10.00">_client.swagger_client.models.cluster</text>
<text text-anchor="middle" x="405" y="-1291" font-family="Helvetica,sans-Serif" font-size="10.00">_id_node_id_body.ClusterIdNodeIdBody.to_dict</text>
</a>
</g>
</g>
<!-- Node1&#45;&gt;Node6 -->
<g id="edge5" class="edge">
<title>Node1&#45;&gt;Node6</title>
<path fill="none" stroke="midnightblue" d="M119.36,-815.07C120.05,-889.29 132.89,-1145.74 273,-1274.5 274.3,-1275.69 275.64,-1276.84 277.01,-1277.95"/>
<polygon fill="midnightblue" stroke="midnightblue" points="275.04,-1280.85 285.21,-1283.83 279.12,-1275.16 275.04,-1280.85"/>
</g>
<!-- Node7 -->
<g id="node7" class="node">
<title>Node7</title>
<g id="a_node7"><a xlink:href="classcFSPlib_1_1python__api__client_1_1swagger__client_1_1models_1_1clusters__body_1_1ClustersBody.html#a8db8cde3aac212a7e75e4dc470b00466" target="_top" xlink:title=" ">
<polygon fill="none" stroke="black" points="302,-1224 302,-1265 508,-1265 508,-1224 302,-1224"/>
<text text-anchor="start" x="310" y="-1253" font-family="Helvetica,sans-Serif" font-size="10.00">cFSPlib.python_api</text>
<text text-anchor="start" x="310" y="-1242" font-family="Helvetica,sans-Serif" font-size="10.00">_client.swagger_client.models.clusters</text>
<text text-anchor="middle" x="405" y="-1231" font-family="Helvetica,sans-Serif" font-size="10.00">_body.ClustersBody.to_dict</text>
</a>
</g>
</g>
<!-- Node1&#45;&gt;Node7 -->
<g id="edge6" class="edge">
<title>Node1&#45;&gt;Node7</title>
<path fill="none" stroke="midnightblue" d="M120.45,-815.35C124.74,-883.92 148.11,-1104.35 273,-1214.5 278.91,-1219.71 285.53,-1224.07 292.58,-1227.7"/>
<polygon fill="midnightblue" stroke="midnightblue" points="291.18,-1230.91 301.72,-1231.94 294.12,-1224.56 291.18,-1230.91"/>
</g>
<!-- Node8 -->
<g id="node8" class="node">
<title>Node8</title>
<g id="a_node8"><a xlink:href="classcFSPlib_1_1python__api__client_1_1swagger__client_1_1models_1_1image_1_1Image.html#ac15b59cb35d3025925bee33ba3aaa79f" target="_top" xlink:title=" ">
<polygon fill="none" stroke="black" points="304.5,-1164 304.5,-1205 505.5,-1205 505.5,-1164 304.5,-1164"/>
<text text-anchor="start" x="312.5" y="-1193" font-family="Helvetica,sans-Serif" font-size="10.00">cFSPlib.python_api</text>
<text text-anchor="start" x="312.5" y="-1182" font-family="Helvetica,sans-Serif" font-size="10.00">_client.swagger_client.models.image.</text>
<text text-anchor="middle" x="405" y="-1171" font-family="Helvetica,sans-Serif" font-size="10.00">Image.to_dict</text>
</a>
</g>
</g>
<!-- Node1&#45;&gt;Node8 -->
<g id="edge7" class="edge">
<title>Node1&#45;&gt;Node8</title>
<path fill="none" stroke="midnightblue" d="M121.87,-815.44C130.06,-877.61 163.02,-1062.53 273,-1154.5 279.63,-1160.04 287.07,-1164.61 294.97,-1168.36"/>
<polygon fill="midnightblue" stroke="midnightblue" points="293.85,-1171.69 304.42,-1172.41 296.6,-1165.26 293.85,-1171.69"/>
</g>
<!-- Node9 -->
<g id="node9" class="node">
<title>Node9</title>
<g id="a_node9"><a xlink:href="classcFSPlib_1_1python__api__client_1_1swagger__client_1_1models_1_1images__app__logic__body_1_1ImagesAppLogicBody.html#a73f303c4a1b1a73d171347b4a3bb4604" target="_top" xlink:title=" ">
<polygon fill="none" stroke="black" points="285.5,-1104 285.5,-1145 524.5,-1145 524.5,-1104 285.5,-1104"/>
<text text-anchor="start" x="293.5" y="-1133" font-family="Helvetica,sans-Serif" font-size="10.00">cFSPlib.python_api</text>
<text text-anchor="start" x="293.5" y="-1122" font-family="Helvetica,sans-Serif" font-size="10.00">_client.swagger_client.models.images</text>
<text text-anchor="middle" x="405" y="-1111" font-family="Helvetica,sans-Serif" font-size="10.00">_app_logic_body.ImagesAppLogicBody.to_dict</text>
</a>
</g>
</g>
<!-- Node1&#45;&gt;Node9 -->
<g id="edge8" class="edge">
<title>Node1&#45;&gt;Node9</title>
<path fill="none" stroke="midnightblue" d="M123.72,-815.09C136.06,-869.87 177.44,-1020.11 273,-1094.5 274.83,-1095.93 276.72,-1097.29 278.66,-1098.59"/>
<polygon fill="midnightblue" stroke="midnightblue" points="277.07,-1101.71 287.44,-1103.89 280.68,-1095.72 277.07,-1101.71"/>
</g>
<!-- Node10 -->
<g id="node10" class="node">
<title>Node10</title>
<g id="a_node10"><a xlink:href="classcFSPlib_1_1python__api__client_1_1swagger__client_1_1models_1_1images__body_1_1ImagesBody.html#a5554114728bde54cdd776aebee542078" target="_top" xlink:title=" ">
<polygon fill="none" stroke="black" points="303.5,-1044 303.5,-1085 506.5,-1085 506.5,-1044 303.5,-1044"/>
<text text-anchor="start" x="311.5" y="-1073" font-family="Helvetica,sans-Serif" font-size="10.00">cFSPlib.python_api</text>
<text text-anchor="start" x="311.5" y="-1062" font-family="Helvetica,sans-Serif" font-size="10.00">_client.swagger_client.models.images</text>
<text text-anchor="middle" x="405" y="-1051" font-family="Helvetica,sans-Serif" font-size="10.00">_body.ImagesBody.to_dict</text>
</a>
</g>
</g>
<!-- Node1&#45;&gt;Node10 -->
<g id="edge9" class="edge">
<title>Node1&#45;&gt;Node10</title>
<path fill="none" stroke="midnightblue" d="M126.46,-815.05C143.44,-861.96 191.71,-977.27 273,-1034.5 279.44,-1039.03 286.46,-1042.89 293.79,-1046.18"/>
<polygon fill="midnightblue" stroke="midnightblue" points="292.64,-1049.49 303.23,-1050.04 295.29,-1043.01 292.64,-1049.49"/>
</g>
<!-- Node11 -->
<g id="node11" class="node">
<title>Node11</title>
<g id="a_node11"><a xlink:href="classcFSPlib_1_1python__api__client_1_1swagger__client_1_1models_1_1inline__response200_1_1InlineResponse200.html#a66e88896e524555c9eac804f03b4a04b" target="_top" xlink:title=" ">
<polygon fill="none" stroke="black" points="297.5,-984 297.5,-1025 512.5,-1025 512.5,-984 297.5,-984"/>
<text text-anchor="start" x="305.5" y="-1013" font-family="Helvetica,sans-Serif" font-size="10.00">cFSPlib.python_api</text>
<text text-anchor="start" x="305.5" y="-1002" font-family="Helvetica,sans-Serif" font-size="10.00">_client.swagger_client.models.inline</text>
<text text-anchor="middle" x="405" y="-991" font-family="Helvetica,sans-Serif" font-size="10.00">_response200.InlineResponse200.to_dict</text>
</a>
</g>
</g>
<!-- Node1&#45;&gt;Node11 -->
<g id="edge10" class="edge">
<title>Node1&#45;&gt;Node11</title>
<path fill="none" stroke="midnightblue" d="M131.01,-815.26C153.21,-853.23 205.74,-933.73 273,-974.5 277.74,-977.37 282.73,-979.97 287.87,-982.32"/>
<polygon fill="midnightblue" stroke="midnightblue" points="286.72,-985.63 297.3,-986.28 289.44,-979.18 286.72,-985.63"/>
</g>
<!-- Node12 -->
<g id="node12" class="node">
<title>Node12</title>
<g id="a_node12"><a xlink:href="classcFSPlib_1_1python__api__client_1_1swagger__client_1_1models_1_1inline__response2001_1_1InlineResponse2001.html#ad6663b23b7498b71d4ca99c7ebd03029" target="_top" xlink:title=" ">
<polygon fill="none" stroke="black" points="291.5,-924 291.5,-965 518.5,-965 518.5,-924 291.5,-924"/>
<text text-anchor="start" x="299.5" y="-953" font-family="Helvetica,sans-Serif" font-size="10.00">cFSPlib.python_api</text>
<text text-anchor="start" x="299.5" y="-942" font-family="Helvetica,sans-Serif" font-size="10.00">_client.swagger_client.models.inline</text>
<text text-anchor="middle" x="405" y="-931" font-family="Helvetica,sans-Serif" font-size="10.00">_response2001.InlineResponse2001.to_dict</text>
</a>
</g>
</g>
<!-- Node1&#45;&gt;Node12 -->
<g id="edge11" class="edge">
<title>Node1&#45;&gt;Node12</title>
<path fill="none" stroke="midnightblue" d="M139.82,-815.3C167.45,-842.32 219.55,-889.05 273,-914.5 277.56,-916.67 282.28,-918.69 287.11,-920.56"/>
<polygon fill="midnightblue" stroke="midnightblue" points="285.91,-923.85 296.5,-923.99 288.31,-917.28 285.91,-923.85"/>
</g>
<!-- Node13 -->
<g id="node13" class="node">
<title>Node13</title>
<g id="a_node13"><a xlink:href="classcFSPlib_1_1python__api__client_1_1swagger__client_1_1models_1_1inline__response2002_1_1InlineResponse2002.html#a7120aa02a5bd37a0522121898626d7ae" target="_top" xlink:title=" ">
<polygon fill="none" stroke="black" points="291.5,-864 291.5,-905 518.5,-905 518.5,-864 291.5,-864"/>
<text text-anchor="start" x="299.5" y="-893" font-family="Helvetica,sans-Serif" font-size="10.00">cFSPlib.python_api</text>
<text text-anchor="start" x="299.5" y="-882" font-family="Helvetica,sans-Serif" font-size="10.00">_client.swagger_client.models.inline</text>
<text text-anchor="middle" x="405" y="-871" font-family="Helvetica,sans-Serif" font-size="10.00">_response2002.InlineResponse2002.to_dict</text>
</a>
</g>
</g>
<!-- Node1&#45;&gt;Node13 -->
<g id="edge12" class="edge">
<title>Node1&#45;&gt;Node13</title>
<path fill="none" stroke="midnightblue" d="M166.91,-815.12C196.92,-827.66 236.77,-843.34 273,-854.5 280.85,-856.92 289.02,-859.24 297.28,-861.45"/>
<polygon fill="midnightblue" stroke="midnightblue" points="296.43,-864.84 306.99,-863.98 298.2,-858.07 296.43,-864.84"/>
</g>
<!-- Node14 -->
<g id="node14" class="node">
<title>Node14</title>
<g id="a_node14"><a xlink:href="classcFSPlib_1_1python__api__client_1_1swagger__client_1_1models_1_1inline__response2003_1_1InlineResponse2003.html#a9e1663a068774b55c2e94e319635e85a" target="_top" xlink:title=" ">
<polygon fill="none" stroke="black" points="291.5,-804 291.5,-845 518.5,-845 518.5,-804 291.5,-804"/>
<text text-anchor="start" x="299.5" y="-833" font-family="Helvetica,sans-Serif" font-size="10.00">cFSPlib.python_api</text>
<text text-anchor="start" x="299.5" y="-822" font-family="Helvetica,sans-Serif" font-size="10.00">_client.swagger_client.models.inline</text>
<text text-anchor="middle" x="405" y="-811" font-family="Helvetica,sans-Serif" font-size="10.00">_response2003.InlineResponse2003.to_dict</text>
</a>
</g>
</g>
<!-- Node1&#45;&gt;Node14 -->
<g id="edge13" class="edge">
<title>Node1&#45;&gt;Node14</title>
<path fill="none" stroke="midnightblue" d="M237.27,-806.92C251.8,-808.45 266.69,-810.02 281.29,-811.56"/>
<polygon fill="midnightblue" stroke="midnightblue" points="281.03,-815.05 291.35,-812.62 281.77,-808.09 281.03,-815.05"/>
</g>
<!-- Node15 -->
<g id="node15" class="node">
<title>Node15</title>
<g id="a_node15"><a xlink:href="classcFSPlib_1_1python__api__client_1_1swagger__client_1_1models_1_1inline__response2004_1_1InlineResponse2004.html#a4297acc6998c1b7e0d61ed12d9a3ee24" target="_top" xlink:title=" ">
<polygon fill="none" stroke="black" points="291.5,-744 291.5,-785 518.5,-785 518.5,-744 291.5,-744"/>
<text text-anchor="start" x="299.5" y="-773" font-family="Helvetica,sans-Serif" font-size="10.00">cFSPlib.python_api</text>
<text text-anchor="start" x="299.5" y="-762" font-family="Helvetica,sans-Serif" font-size="10.00">_client.swagger_client.models.inline</text>
<text text-anchor="middle" x="405" y="-751" font-family="Helvetica,sans-Serif" font-size="10.00">_response2004.InlineResponse2004.to_dict</text>
</a>
</g>
</g>
<!-- Node1&#45;&gt;Node15 -->
<g id="edge14" class="edge">
<title>Node1&#45;&gt;Node15</title>
<path fill="none" stroke="midnightblue" d="M237.27,-782.08C251.8,-780.55 266.69,-778.98 281.29,-777.44"/>
<polygon fill="midnightblue" stroke="midnightblue" points="281.77,-780.91 291.35,-776.38 281.03,-773.95 281.77,-780.91"/>
</g>
<!-- Node16 -->
<g id="node16" class="node">
<title>Node16</title>
<g id="a_node16"><a xlink:href="classcFSPlib_1_1python__api__client_1_1swagger__client_1_1models_1_1inline__response2005_1_1InlineResponse2005.html#ad46c7545bdf1094cbd707019113737ca" target="_top" xlink:title=" ">
<polygon fill="none" stroke="black" points="291.5,-684 291.5,-725 518.5,-725 518.5,-684 291.5,-684"/>
<text text-anchor="start" x="299.5" y="-713" font-family="Helvetica,sans-Serif" font-size="10.00">cFSPlib.python_api</text>
<text text-anchor="start" x="299.5" y="-702" font-family="Helvetica,sans-Serif" font-size="10.00">_client.swagger_client.models.inline</text>
<text text-anchor="middle" x="405" y="-691" font-family="Helvetica,sans-Serif" font-size="10.00">_response2005.InlineResponse2005.to_dict</text>
</a>
</g>
</g>
<!-- Node1&#45;&gt;Node16 -->
<g id="edge15" class="edge">
<title>Node1&#45;&gt;Node16</title>
<path fill="none" stroke="midnightblue" d="M166.91,-773.88C196.92,-761.34 236.77,-745.66 273,-734.5 280.85,-732.08 289.02,-729.76 297.28,-727.55"/>
<polygon fill="midnightblue" stroke="midnightblue" points="298.2,-730.93 306.99,-725.02 296.43,-724.16 298.2,-730.93"/>
</g>
<!-- Node17 -->
<g id="node17" class="node">
<title>Node17</title>
<g id="a_node17"><a xlink:href="classcFSPlib_1_1python__api__client_1_1swagger__client_1_1models_1_1inline__response2006_1_1InlineResponse2006.html#a5c95ca06fe9c1f2014a8dbe7f8b0a9d0" target="_top" xlink:title=" ">
<polygon fill="none" stroke="black" points="291.5,-624 291.5,-665 518.5,-665 518.5,-624 291.5,-624"/>
<text text-anchor="start" x="299.5" y="-653" font-family="Helvetica,sans-Serif" font-size="10.00">cFSPlib.python_api</text>
<text text-anchor="start" x="299.5" y="-642" font-family="Helvetica,sans-Serif" font-size="10.00">_client.swagger_client.models.inline</text>
<text text-anchor="middle" x="405" y="-631" font-family="Helvetica,sans-Serif" font-size="10.00">_response2006.InlineResponse2006.to_dict</text>
</a>
</g>
</g>
<!-- Node1&#45;&gt;Node17 -->
<g id="edge16" class="edge">
<title>Node1&#45;&gt;Node17</title>
<path fill="none" stroke="midnightblue" d="M139.82,-773.7C167.45,-746.68 219.55,-699.95 273,-674.5 277.56,-672.33 282.28,-670.31 287.11,-668.44"/>
<polygon fill="midnightblue" stroke="midnightblue" points="288.31,-671.72 296.5,-665.01 285.91,-665.15 288.31,-671.72"/>
</g>
<!-- Node18 -->
<g id="node18" class="node">
<title>Node18</title>
<g id="a_node18"><a xlink:href="classcFSPlib_1_1python__api__client_1_1swagger__client_1_1models_1_1instance_1_1Instance.html#aed23dfe041763799abf00baff0255667" target="_top" xlink:title=" ">
<polygon fill="none" stroke="black" points="299,-564 299,-605 511,-605 511,-564 299,-564"/>
<text text-anchor="start" x="307" y="-593" font-family="Helvetica,sans-Serif" font-size="10.00">cFSPlib.python_api</text>
<text text-anchor="start" x="307" y="-582" font-family="Helvetica,sans-Serif" font-size="10.00">_client.swagger_client.models.instance.</text>
<text text-anchor="middle" x="405" y="-571" font-family="Helvetica,sans-Serif" font-size="10.00">Instance.to_dict</text>
</a>
</g>
</g>
<!-- Node1&#45;&gt;Node18 -->
<g id="edge17" class="edge">
<title>Node1&#45;&gt;Node18</title>
<path fill="none" stroke="midnightblue" d="M131.01,-773.74C153.21,-735.77 205.74,-655.27 273,-614.5 278.18,-611.36 283.65,-608.55 289.31,-606.04"/>
<polygon fill="midnightblue" stroke="midnightblue" points="291.05,-609.1 298.98,-602.07 288.4,-602.63 291.05,-609.1"/>
</g>
<!-- Node19 -->
<g id="node19" class="node">
<title>Node19</title>
<g id="a_node19"><a xlink:href="classcFSPlib_1_1python__api__client_1_1swagger__client_1_1models_1_1instance__id__api__gateway__33456c8700113c53c3cfaa915ef28716.html#a4d21c92cd28568b7bcdddcd77c95da7a" target="_top" xlink:title=" ">
<polygon fill="none" stroke="black" points="285.5,-492.5 285.5,-544.5 524.5,-544.5 524.5,-492.5 285.5,-492.5"/>
<text text-anchor="start" x="293.5" y="-532.5" font-family="Helvetica,sans-Serif" font-size="10.00">cFSPlib.python_api</text>
<text text-anchor="start" x="293.5" y="-521.5" font-family="Helvetica,sans-Serif" font-size="10.00">_client.swagger_client.models.instance</text>
<text text-anchor="start" x="293.5" y="-510.5" font-family="Helvetica,sans-Serif" font-size="10.00">_id_api_gateway_body.InstanceIdApiGateway</text>
<text text-anchor="middle" x="405" y="-499.5" font-family="Helvetica,sans-Serif" font-size="10.00">Body.to_dict</text>
</a>
</g>
</g>
<!-- Node1&#45;&gt;Node19 -->
<g id="edge18" class="edge">
<title>Node1&#45;&gt;Node19</title>
<path fill="none" stroke="midnightblue" d="M126.76,-773.84C144.22,-727.22 193.16,-613.32 273,-554.5 275.16,-552.91 277.39,-551.39 279.67,-549.93"/>
<polygon fill="midnightblue" stroke="midnightblue" points="281.86,-552.71 288.73,-544.65 278.33,-546.66 281.86,-552.71"/>
</g>
<!-- Node20 -->
<g id="node20" class="node">
<title>Node20</title>
<g id="a_node20"><a xlink:href="classcFSPlib_1_1python__api__client_1_1swagger__client_1_1models_1_1instance__id__runlevel__body_1_1InstanceIdRunlevelBody.html#acc6834a79dfaafbd099970c0df7d878a" target="_top" xlink:title=" ">
<polygon fill="none" stroke="black" points="275.5,-432 275.5,-473 534.5,-473 534.5,-432 275.5,-432"/>
<text text-anchor="start" x="283.5" y="-461" font-family="Helvetica,sans-Serif" font-size="10.00">cFSPlib.python_api</text>
<text text-anchor="start" x="283.5" y="-450" font-family="Helvetica,sans-Serif" font-size="10.00">_client.swagger_client.models.instance</text>
<text text-anchor="middle" x="405" y="-439" font-family="Helvetica,sans-Serif" font-size="10.00">_id_runlevel_body.InstanceIdRunlevelBody.to_dict</text>
</a>
</g>
</g>
<!-- Node1&#45;&gt;Node20 -->
<g id="edge19" class="edge">
<title>Node1&#45;&gt;Node20</title>
<path fill="none" stroke="midnightblue" d="M123.42,-773.62C135.12,-717.31 175.25,-561.31 273,-483.5 275.31,-481.66 277.72,-479.92 280.2,-478.29"/>
<polygon fill="midnightblue" stroke="midnightblue" points="282.11,-481.22 288.92,-473.1 278.53,-475.21 282.11,-481.22"/>
</g>
<!-- Node21 -->
<g id="node21" class="node">
<title>Node21</title>
<g id="a_node21"><a xlink:href="classcFSPlib_1_1python__api__client_1_1swagger__client_1_1models_1_1instances__body_1_1InstancesBody.html#aed7aad923568e83cd8fff866b77013e1" target="_top" xlink:title=" ">
<polygon fill="none" stroke="black" points="298,-372 298,-413 512,-413 512,-372 298,-372"/>
<text text-anchor="start" x="306" y="-401" font-family="Helvetica,sans-Serif" font-size="10.00">cFSPlib.python_api</text>
<text text-anchor="start" x="306" y="-390" font-family="Helvetica,sans-Serif" font-size="10.00">_client.swagger_client.models.instances</text>
<text text-anchor="middle" x="405" y="-379" font-family="Helvetica,sans-Serif" font-size="10.00">_body.InstancesBody.to_dict</text>
</a>
</g>
</g>
<!-- Node1&#45;&gt;Node21 -->
<g id="edge20" class="edge">
<title>Node1&#45;&gt;Node21</title>
<path fill="none" stroke="midnightblue" d="M121.52,-773.79C128.86,-710.5 159.93,-518.18 273,-422.5 277.85,-418.4 283.15,-414.82 288.75,-411.72"/>
<polygon fill="midnightblue" stroke="midnightblue" points="290.39,-414.81 297.78,-407.22 287.27,-408.55 290.39,-414.81"/>
</g>
<!-- Node22 -->
<g id="node22" class="node">
<title>Node22</title>
<g id="a_node22"><a xlink:href="classcFSPlib_1_1python__api__client_1_1swagger__client_1_1models_1_1instances__instance__id__body_1_1InstancesInstanceIdBody.html#a7dd72793d6126eb9e9aaa591f4cd27a1" target="_top" xlink:title=" ">
<polygon fill="none" stroke="black" points="273,-312 273,-353 537,-353 537,-312 273,-312"/>
<text text-anchor="start" x="281" y="-341" font-family="Helvetica,sans-Serif" font-size="10.00">cFSPlib.python_api</text>
<text text-anchor="start" x="281" y="-330" font-family="Helvetica,sans-Serif" font-size="10.00">_client.swagger_client.models.instances</text>
<text text-anchor="middle" x="405" y="-319" font-family="Helvetica,sans-Serif" font-size="10.00">_instance_id_body.InstancesInstanceIdBody.to_dict</text>
</a>
</g>
</g>
<!-- Node1&#45;&gt;Node22 -->
<g id="edge21" class="edge">
<title>Node1&#45;&gt;Node22</title>
<path fill="none" stroke="midnightblue" d="M120.21,-773.56C123.78,-703.65 145.17,-476.27 273,-362.5 274.35,-361.3 275.73,-360.15 277.15,-359.03"/>
<polygon fill="midnightblue" stroke="midnightblue" points="279.43,-361.72 285.65,-353.13 275.44,-355.97 279.43,-361.72"/>
</g>
<!-- Node23 -->
<g id="node23" class="node">
<title>Node23</title>
<g id="a_node23"><a xlink:href="classcFSPlib_1_1python__api__client_1_1swagger__client_1_1models_1_1node__map_1_1NodeMap.html#a9f8e084f531872bf958a4f2ab0763677" target="_top" xlink:title=" ">
<polygon fill="none" stroke="black" points="309.5,-252 309.5,-293 500.5,-293 500.5,-252 309.5,-252"/>
<text text-anchor="start" x="317.5" y="-281" font-family="Helvetica,sans-Serif" font-size="10.00">cFSPlib.python_api</text>
<text text-anchor="start" x="317.5" y="-270" font-family="Helvetica,sans-Serif" font-size="10.00">_client.swagger_client.models.node</text>
<text text-anchor="middle" x="405" y="-259" font-family="Helvetica,sans-Serif" font-size="10.00">_map.NodeMap.to_dict</text>
</a>
</g>
</g>
<!-- Node1&#45;&gt;Node23 -->
<g id="edge22" class="edge">
<title>Node1&#45;&gt;Node23</title>
<path fill="none" stroke="midnightblue" d="M119.18,-773.95C119.19,-698.61 129.84,-435 273,-302.5 280.79,-295.29 289.94,-289.7 299.73,-285.38"/>
<polygon fill="midnightblue" stroke="midnightblue" points="301.26,-288.53 309.28,-281.61 298.7,-282.02 301.26,-288.53"/>
</g>
<!-- Node24 -->
<g id="node24" class="node">
<title>Node24</title>
<g id="a_node24"><a xlink:href="classcFSPlib_1_1python__api__client_1_1swagger__client_1_1models_1_1node__map__inner_1_1NodeMapInner.html#af6d39304bb728e602bb55d3e19d1233f" target="_top" xlink:title=" ">
<polygon fill="none" stroke="black" points="309.5,-192 309.5,-233 500.5,-233 500.5,-192 309.5,-192"/>
<text text-anchor="start" x="317.5" y="-221" font-family="Helvetica,sans-Serif" font-size="10.00">cFSPlib.python_api</text>
<text text-anchor="start" x="317.5" y="-210" font-family="Helvetica,sans-Serif" font-size="10.00">_client.swagger_client.models.node</text>
<text text-anchor="middle" x="405" y="-199" font-family="Helvetica,sans-Serif" font-size="10.00">_map_inner.NodeMapInner.to_dict</text>
</a>
</g>
</g>
<!-- Node1&#45;&gt;Node24 -->
<g id="edge23" class="edge">
<title>Node1&#45;&gt;Node24</title>
<path fill="none" stroke="midnightblue" d="M122.41,-773.78C135.59,-682.73 192.61,-319.27 273,-242.5 280.82,-235.04 290.09,-229.29 300.04,-224.89"/>
<polygon fill="midnightblue" stroke="midnightblue" points="301.34,-228.14 309.35,-221.21 298.77,-221.63 301.34,-228.14"/>
</g>
<!-- Node25 -->
<g id="node25" class="node">
<title>Node25</title>
<g id="a_node25"><a xlink:href="classcFSPlib_1_1python__api__client_1_1swagger__client_1_1models_1_1quota_1_1Quota.html#aa144c533fb9a07e0328cd2c9f8a54e10" target="_top" xlink:title=" ">
<polygon fill="none" stroke="black" points="306,-132 306,-173 504,-173 504,-132 306,-132"/>
<text text-anchor="start" x="314" y="-161" font-family="Helvetica,sans-Serif" font-size="10.00">cFSPlib.python_api</text>
<text text-anchor="start" x="314" y="-150" font-family="Helvetica,sans-Serif" font-size="10.00">_client.swagger_client.models.quota.</text>
<text text-anchor="middle" x="405" y="-139" font-family="Helvetica,sans-Serif" font-size="10.00">Quota.to_dict</text>
</a>
</g>
</g>
<!-- Node1&#45;&gt;Node25 -->
<g id="edge24" class="edge">
<title>Node1&#45;&gt;Node25</title>
<path fill="none" stroke="midnightblue" d="M121.8,-773.87C132.99,-677.05 184.87,-268.83 273,-182.5 279.87,-175.77 287.91,-170.44 296.58,-166.21"/>
<polygon fill="midnightblue" stroke="midnightblue" points="298.04,-169.4 305.82,-162.21 295.26,-162.98 298.04,-169.4"/>
</g>
<!-- Node26 -->
<g id="node26" class="node">
<title>Node26</title>
<g id="a_node26"><a xlink:href="classcFSPlib_1_1python__api__client_1_1swagger__client_1_1models_1_1resource_1_1Resource.html#ab23087e90002e476660d47200211a80e" target="_top" xlink:title=" ">
<polygon fill="none" stroke="black" points="299,-72 299,-113 511,-113 511,-72 299,-72"/>
<text text-anchor="start" x="307" y="-101" font-family="Helvetica,sans-Serif" font-size="10.00">cFSPlib.python_api</text>
<text text-anchor="start" x="307" y="-90" font-family="Helvetica,sans-Serif" font-size="10.00">_client.swagger_client.models.resource.</text>
<text text-anchor="middle" x="405" y="-79" font-family="Helvetica,sans-Serif" font-size="10.00">Resource.to_dict</text>
</a>
</g>
</g>
<!-- Node1&#45;&gt;Node26 -->
<g id="edge25" class="edge">
<title>Node1&#45;&gt;Node26</title>
<path fill="none" stroke="midnightblue" d="M121.3,-773.94C130.66,-671.64 177.09,-218.47 273,-122.5 277.99,-117.51 283.62,-113.28 289.69,-109.7"/>
<polygon fill="midnightblue" stroke="midnightblue" points="291.61,-112.65 298.85,-104.91 288.36,-106.44 291.61,-112.65"/>
</g>
<!-- Node27 -->
<g id="node27" class="node">
<title>Node27</title>
<g id="a_node27"><a xlink:href="classcFSPlib_1_1python__api__client_1_1swagger__client_1_1models_1_1test__instance__instance__idb21fef29c350bd01bc51bf6a97dd8668.html#aef8ffd853e93db25594577ace055c355" target="_top" xlink:title=" ">
<polygon fill="none" stroke="black" points="297.5,-0.5 297.5,-52.5 512.5,-52.5 512.5,-0.5 297.5,-0.5"/>
<text text-anchor="start" x="305.5" y="-40.5" font-family="Helvetica,sans-Serif" font-size="10.00">cFSPlib.python_api</text>
<text text-anchor="start" x="305.5" y="-29.5" font-family="Helvetica,sans-Serif" font-size="10.00">_client.swagger_client.models.test</text>
<text text-anchor="start" x="305.5" y="-18.5" font-family="Helvetica,sans-Serif" font-size="10.00">_instance_instance_id_body.TestInstance</text>
<text text-anchor="middle" x="405" y="-7.5" font-family="Helvetica,sans-Serif" font-size="10.00">InstanceIdBody.to_dict</text>
</a>
</g>
</g>
<!-- Node1&#45;&gt;Node27 -->
<g id="edge26" class="edge">
<title>Node1&#45;&gt;Node27</title>
<path fill="none" stroke="midnightblue" d="M120.99,-773.66C129.15,-665.63 171.71,-170.22 273,-62.5 277.56,-57.65 282.71,-53.43 288.25,-49.77"/>
<polygon fill="midnightblue" stroke="midnightblue" points="290.44,-52.54 297.28,-44.45 286.88,-46.51 290.44,-52.54"/>
</g>
</g>
</svg>
