<?xml version="1.0" encoding="UTF-8" standalone="no"?>
<!DOCTYPE svg PUBLIC "-//W3C//DTD SVG 1.1//EN"
 "http://www.w3.org/Graphics/SVG/1.1/DTD/svg11.dtd">
<!-- Generated by graphviz version 2.43.0 (0)
 -->
<!-- Title: AxisEth::getIp4DstAddrLo Pages: 1 -->
<svg width="690pt" height="47pt"
 viewBox="0.00 0.00 690.00 47.00" xmlns="http://www.w3.org/2000/svg" xmlns:xlink="http://www.w3.org/1999/xlink">
<g id="graph0" class="graph" transform="scale(1 1) rotate(0) translate(4 43)">
<title>AxisEth::getIp4DstAddrLo</title>
<!-- Node1 -->
<g id="node1" class="node">
<title>Node1</title>
<g id="a_node1"><a xlink:title=" ">
<polygon fill="#bfbfbf" stroke="black" points="542,-0.5 542,-19.5 682,-19.5 682,-0.5 542,-0.5"/>
<text text-anchor="middle" x="612" y="-7.5" font-family="Helvetica,sans-Serif" font-size="10.00">AxisEth::getIp4DstAddrLo</text>
</a>
</g>
</g>
<!-- Node2 -->
<g id="node2" class="node">
<title>Node2</title>
<g id="a_node2"><a xlink:href="group__NTS__IPRX.html#gae3bc92369e84aaf6ce498bc596412800" target="_top" xlink:title=" ">
<polygon fill="none" stroke="black" points="362,-0.5 362,-19.5 506,-19.5 506,-0.5 362,-0.5"/>
<text text-anchor="middle" x="434" y="-7.5" font-family="Helvetica,sans-Serif" font-size="10.00">pIpChecksumAccumulator</text>
</a>
</g>
</g>
<!-- Node1&#45;&gt;Node2 -->
<g id="edge1" class="edge">
<title>Node1&#45;&gt;Node2</title>
<path fill="none" stroke="midnightblue" d="M531.94,-10C523.35,-10 514.65,-10 506.17,-10"/>
<polygon fill="midnightblue" stroke="midnightblue" points="531.95,-13.5 541.95,-10 531.95,-6.5 531.95,-13.5"/>
</g>
<!-- Node3 -->
<g id="node3" class="node">
<title>Node3</title>
<g id="a_node3"><a xlink:href="group__NTS__IPRX.html#ga7e8c72b9e6e0c5d3dc9c3db3d7d2b223" target="_top" xlink:title="Main process of the IP Receive handler (IPRX).">
<polygon fill="none" stroke="black" points="291,-0.5 291,-19.5 326,-19.5 326,-0.5 291,-0.5"/>
<text text-anchor="middle" x="308.5" y="-7.5" font-family="Helvetica,sans-Serif" font-size="10.00">iprx</text>
</a>
</g>
</g>
<!-- Node2&#45;&gt;Node3 -->
<g id="edge2" class="edge">
<title>Node2&#45;&gt;Node3</title>
<path fill="none" stroke="midnightblue" d="M351.75,-10C342.24,-10 333.41,-10 326.31,-10"/>
<polygon fill="midnightblue" stroke="midnightblue" points="351.88,-13.5 361.88,-10 351.88,-6.5 351.88,-13.5"/>
</g>
<!-- Node4 -->
<g id="node4" class="node">
<title>Node4</title>
<g id="a_node4"><a xlink:href="group__NTS__IPRX.html#ga9551c84175612702350bad828283ff42" target="_top" xlink:title="Top of IP Receive handler (IPRX)">
<polygon fill="none" stroke="black" points="199,-0.5 199,-19.5 255,-19.5 255,-0.5 199,-0.5"/>
<text text-anchor="middle" x="227" y="-7.5" font-family="Helvetica,sans-Serif" font-size="10.00">iprx_top</text>
</a>
</g>
</g>
<!-- Node3&#45;&gt;Node4 -->
<g id="edge3" class="edge">
<title>Node3&#45;&gt;Node4</title>
<path fill="none" stroke="midnightblue" d="M280.49,-10C272.32,-10 263.34,-10 255.16,-10"/>
<polygon fill="midnightblue" stroke="midnightblue" points="280.64,-13.5 290.64,-10 280.64,-6.5 280.64,-13.5"/>
</g>
<!-- Node5 -->
<g id="node5" class="node">
<title>Node5</title>
<g id="a_node5"><a xlink:href="group__NTS__IPRX__TEST.html#ga0a0f6aca8f6ee02e5d06ac2f60bdd06b" target="_top" xlink:title="A wrapper for the Toplevel of the IP Receive handler (IPRX).">
<polygon fill="none" stroke="black" points="77,-19.5 77,-38.5 163,-38.5 163,-19.5 77,-19.5"/>
<text text-anchor="middle" x="120" y="-26.5" font-family="Helvetica,sans-Serif" font-size="10.00">iprx_top_wrap</text>
</a>
</g>
</g>
<!-- Node4&#45;&gt;Node5 -->
<g id="edge4" class="edge">
<title>Node4&#45;&gt;Node5</title>
<path fill="none" stroke="midnightblue" d="M189.05,-16.69C180.64,-18.21 171.64,-19.84 163.03,-21.39"/>
<polygon fill="midnightblue" stroke="midnightblue" points="189.74,-20.12 198.96,-14.89 188.5,-13.23 189.74,-20.12"/>
</g>
<!-- Node6 -->
<g id="node6" class="node">
<title>Node6</title>
<g id="a_node6"><a xlink:href="group__NTS__IPRX__TEST.html#ga0ddf1224851353fc92bfbff6f499fa97" target="_top" xlink:title="Main function.">
<polygon fill="none" stroke="black" points="0,-0.5 0,-19.5 41,-19.5 41,-0.5 0,-0.5"/>
<text text-anchor="middle" x="20.5" y="-7.5" font-family="Helvetica,sans-Serif" font-size="10.00">main</text>
</a>
</g>
</g>
<!-- Node4&#45;&gt;Node6 -->
<g id="edge6" class="edge">
<title>Node4&#45;&gt;Node6</title>
<path fill="none" stroke="midnightblue" d="M188.67,-10C145.2,-10 75.02,-10 41.1,-10"/>
<polygon fill="midnightblue" stroke="midnightblue" points="188.84,-13.5 198.84,-10 188.84,-6.5 188.84,-13.5"/>
</g>
<!-- Node5&#45;&gt;Node6 -->
<g id="edge5" class="edge">
<title>Node5&#45;&gt;Node6</title>
<path fill="none" stroke="midnightblue" d="M66.82,-18.83C57.62,-17.04 48.58,-15.28 41.03,-13.81"/>
<polygon fill="midnightblue" stroke="midnightblue" points="66.32,-22.3 76.8,-20.78 67.66,-15.43 66.32,-22.3"/>
</g>
</g>
</svg>
