<?xml version="1.0" encoding="UTF-8" standalone="no"?>
<!DOCTYPE svg PUBLIC "-//W3C//DTD SVG 1.1//EN"
 "http://www.w3.org/Graphics/SVG/1.1/DTD/svg11.dtd">
<!-- Generated by graphviz version 2.43.0 (0)
 -->
<!-- Title: SimIp4Packet::sizeOfTcpData Pages: 1 -->
<svg width="614pt" height="167pt"
 viewBox="0.00 0.00 614.00 166.50" xmlns="http://www.w3.org/2000/svg" xmlns:xlink="http://www.w3.org/1999/xlink">
<g id="graph0" class="graph" transform="scale(1 1) rotate(0) translate(4 162.5)">
<title>SimIp4Packet::sizeOfTcpData</title>
<!-- Node1 -->
<g id="node1" class="node">
<title>Node1</title>
<g id="a_node1"><a xlink:title="Return the size of the TCP data payload in octets.">
<polygon fill="#bfbfbf" stroke="black" points="448,-76.5 448,-95.5 606,-95.5 606,-76.5 448,-76.5"/>
<text text-anchor="middle" x="527" y="-83.5" font-family="Helvetica,sans-Serif" font-size="10.00">SimIp4Packet::sizeOfTcpData</text>
</a>
</g>
</g>
<!-- Node2 -->
<g id="node2" class="node">
<title>Node2</title>
<g id="a_node2"><a xlink:href="classSimIp4Packet.html#a4c9411ec721eba54a13a4e7f79c3def1" target="_top" xlink:title="Get TCP data from the current IPv4 packet.">
<polygon fill="none" stroke="black" points="269,-114.5 269,-133.5 412,-133.5 412,-114.5 269,-114.5"/>
<text text-anchor="middle" x="340.5" y="-121.5" font-family="Helvetica,sans-Serif" font-size="10.00">SimIp4Packet::getTcpData</text>
</a>
</g>
</g>
<!-- Node1&#45;&gt;Node2 -->
<g id="edge1" class="edge">
<title>Node1&#45;&gt;Node2</title>
<path fill="none" stroke="midnightblue" d="M469.63,-97.61C443.39,-103.01 412.56,-109.36 387.72,-114.48"/>
<polygon fill="midnightblue" stroke="midnightblue" points="470.35,-101.03 479.44,-95.59 468.94,-94.18 470.35,-101.03"/>
</g>
<!-- Node3 -->
<g id="node3" class="node">
<title>Node3</title>
<g id="a_node3"><a xlink:href="classSimIp4Packet.html#a00ec738b87cbc5dc9f8f0ebcd1ecf3e2" target="_top" xlink:title="Dump the TCP payload of this IP packet into a file. Data is written as a string.">
<polygon fill="none" stroke="black" points="81,-90 81,-120 233,-120 233,-90 81,-90"/>
<text text-anchor="start" x="89" y="-108" font-family="Helvetica,sans-Serif" font-size="10.00">SimIp4Packet::writeTcpData</text>
<text text-anchor="middle" x="157" y="-97" font-family="Helvetica,sans-Serif" font-size="10.00">ToDatFile</text>
</a>
</g>
</g>
<!-- Node1&#45;&gt;Node3 -->
<g id="edge10" class="edge">
<title>Node1&#45;&gt;Node3</title>
<path fill="none" stroke="midnightblue" d="M437.72,-90.56C375.26,-93.78 292.4,-98.06 233.1,-101.12"/>
<polygon fill="midnightblue" stroke="midnightblue" points="438.15,-94.04 447.96,-90.03 437.79,-87.05 438.15,-94.04"/>
</g>
<!-- Node4 -->
<g id="node4" class="node">
<title>Node4</title>
<g id="a_node4"><a xlink:href="group__NTS__TOE__TEST.html#ga19626da81d440ab83bcba2f6838ccb87" target="_top" xlink:title="Emulate the behavior of the IP Rx Path (IPRX).">
<polygon fill="none" stroke="black" points="0,-123.5 0,-142.5 45,-142.5 45,-123.5 0,-123.5"/>
<text text-anchor="middle" x="22.5" y="-130.5" font-family="Helvetica,sans-Serif" font-size="10.00">pIPRX</text>
</a>
</g>
</g>
<!-- Node1&#45;&gt;Node4 -->
<g id="edge5" class="edge">
<title>Node1&#45;&gt;Node4</title>
<path fill="none" stroke="midnightblue" d="M503.42,-101.27C481.25,-115.26 445.92,-134.99 412,-143 275.74,-175.17 105.13,-148.62 45.38,-137.4"/>
<polygon fill="midnightblue" stroke="midnightblue" points="505.58,-104.04 512.07,-95.67 501.78,-98.16 505.58,-104.04"/>
</g>
<!-- Node5 -->
<g id="node5" class="node">
<title>Node5</title>
<g id="a_node5"><a xlink:href="group__NTS__TOE__TEST.html#ga5555b85edfa105eb62cf20f0dbdf5962" target="_top" xlink:title="Emulate the behavior of the IP Tx Handler (IPTX).">
<polygon fill="none" stroke="black" points="0.5,-38.5 0.5,-57.5 44.5,-57.5 44.5,-38.5 0.5,-38.5"/>
<text text-anchor="middle" x="22.5" y="-45.5" font-family="Helvetica,sans-Serif" font-size="10.00">pIPTX</text>
</a>
</g>
</g>
<!-- Node1&#45;&gt;Node5 -->
<g id="edge6" class="edge">
<title>Node1&#45;&gt;Node5</title>
<path fill="none" stroke="midnightblue" d="M437.52,-79.31C317.83,-70.26 111.62,-54.66 44.96,-49.62"/>
<polygon fill="midnightblue" stroke="midnightblue" points="437.52,-82.82 447.76,-80.08 438.05,-75.84 437.52,-82.82"/>
</g>
<!-- Node6 -->
<g id="node6" class="node">
<title>Node6</title>
<g id="a_node6"><a xlink:href="classSimIp4Packet.html#acd45073036bd1f8641b8bfc3ea46a49f" target="_top" xlink:title="Print the header details of an IP packet.">
<polygon fill="none" stroke="black" points="276.5,-0.5 276.5,-19.5 404.5,-19.5 404.5,-0.5 276.5,-0.5"/>
<text text-anchor="middle" x="340.5" y="-7.5" font-family="Helvetica,sans-Serif" font-size="10.00">SimIp4Packet::printHdr</text>
</a>
</g>
</g>
<!-- Node1&#45;&gt;Node6 -->
<g id="edge7" class="edge">
<title>Node1&#45;&gt;Node6</title>
<path fill="none" stroke="midnightblue" d="M497.35,-71.97C474.5,-61.01 441.54,-45.73 412,-34 398.9,-28.8 384.18,-23.68 371.58,-19.51"/>
<polygon fill="midnightblue" stroke="midnightblue" points="495.96,-75.18 506.49,-76.38 499,-68.88 495.96,-75.18"/>
</g>
<!-- Node2&#45;&gt;Node3 -->
<g id="edge2" class="edge">
<title>Node2&#45;&gt;Node3</title>
<path fill="none" stroke="midnightblue" d="M258.61,-115.53C250.19,-114.65 241.66,-113.76 233.3,-112.88"/>
<polygon fill="midnightblue" stroke="midnightblue" points="258.5,-119.04 268.81,-116.6 259.23,-112.08 258.5,-119.04"/>
</g>
<!-- Node3&#45;&gt;Node4 -->
<g id="edge3" class="edge">
<title>Node3&#45;&gt;Node4</title>
<path fill="none" stroke="midnightblue" d="M74.63,-122.19C63.8,-124.48 53.53,-126.65 45.08,-128.44"/>
<polygon fill="midnightblue" stroke="midnightblue" points="75.65,-125.56 84.71,-120.07 74.2,-118.71 75.65,-125.56"/>
</g>
<!-- Node3&#45;&gt;Node5 -->
<g id="edge4" class="edge">
<title>Node3&#45;&gt;Node5</title>
<path fill="none" stroke="midnightblue" d="M111.45,-85.84C88.93,-76.15 62.65,-64.84 44.72,-57.13"/>
<polygon fill="midnightblue" stroke="midnightblue" points="110.27,-89.14 120.84,-89.87 113.04,-82.71 110.27,-89.14"/>
</g>
<!-- Node7 -->
<g id="node7" class="node">
<title>Node7</title>
<g id="a_node7"><a xlink:href="group__NTS__TOE__TEST.html#ga9a2995ad064c9297d100faa61cd553a9" target="_top" xlink:title="Parse the TCP/IP packets generated by the TOE.">
<polygon fill="none" stroke="black" points="119,-0.5 119,-19.5 195,-19.5 195,-0.5 119,-0.5"/>
<text text-anchor="middle" x="157" y="-7.5" font-family="Helvetica,sans-Serif" font-size="10.00">pIPTX_Parse</text>
</a>
</g>
</g>
<!-- Node6&#45;&gt;Node7 -->
<g id="edge8" class="edge">
<title>Node6&#45;&gt;Node7</title>
<path fill="none" stroke="midnightblue" d="M265.96,-10C241.6,-10 215.51,-10 195.09,-10"/>
<polygon fill="midnightblue" stroke="midnightblue" points="266.27,-13.5 276.27,-10 266.27,-6.5 266.27,-13.5"/>
</g>
<!-- Node7&#45;&gt;Node5 -->
<g id="edge9" class="edge">
<title>Node7&#45;&gt;Node5</title>
<path fill="none" stroke="midnightblue" d="M112.78,-22.39C90.04,-28.92 63.17,-36.62 44.89,-41.87"/>
<polygon fill="midnightblue" stroke="midnightblue" points="113.92,-25.71 122.56,-19.59 111.99,-18.98 113.92,-25.71"/>
</g>
</g>
</svg>
