<?xml version="1.0" encoding="UTF-8" standalone="no"?>
<!DOCTYPE svg PUBLIC "-//W3C//DTD SVG 1.1//EN"
 "http://www.w3.org/Graphics/SVG/1.1/DTD/svg11.dtd">
<!-- Generated by graphviz version 2.43.0 (0)
 -->
<!-- Title: cFSPlib.python_api_client.swagger_client.models.clusters_body.ClustersBody.to_str Pages: 1 -->
<!--zoomable 1596 -->
<svg id="main" version="1.1" xmlns="http://www.w3.org/2000/svg" xmlns:xlink="http://www.w3.org/1999/xlink" xml:space="preserve" onload="init(evt)">
<style type="text/css"><![CDATA[
.edge:hover path { stroke: red; }
.edge:hover polygon { stroke: red; fill: red; }
]]></style>
<script type="text/javascript"><![CDATA[
var edges = document.getElementsByTagName('g');
if (edges && edges.length) {
  for (var i=0;i<edges.length;i++) {
    if (edges[i].id.substr(0,4)=='edge') {
      edges[i].setAttribute('class','edge');
    }
  }
}
]]></script>
        <defs>
                <circle id="rim" cx="0" cy="0" r="7"/>
                <circle id="rim2" cx="0" cy="0" r="3.5"/>
                <g id="zoomPlus">
                        <use xlink:href="#rim" fill="#404040">
                                <set attributeName="fill" to="#808080" begin="zoomplus.mouseover" end="zoomplus.mouseout"/>
                        </use>
                        <path d="M-4,0h8M0,-4v8" fill="none" stroke="white" stroke-width="1.5" pointer-events="none"/>
                </g>
                <g id="zoomMin">
                        <use xlink:href="#rim" fill="#404040">
                                <set attributeName="fill" to="#808080" begin="zoomminus.mouseover" end="zoomminus.mouseout"/>
                        </use>
                        <path d="M-4,0h8" fill="none" stroke="white" stroke-width="1.5" pointer-events="none"/>
                </g>
                <g id="dirArrow">
                        <path fill="none" stroke="white" stroke-width="1.5" d="M0,-3.0v7 M-2.5,-0.5L0,-3.0L2.5,-0.5"/>
                </g>
               <g id="resetDef">
                       <use xlink:href="#rim2" fill="#404040">
                               <set attributeName="fill" to="#808080" begin="reset.mouseover" end="reset.mouseout"/>
                       </use>
               </g>
        </defs>

<script type="text/javascript">
var viewWidth = 522;
var viewHeight = 1596;
var sectionId = 'dynsection-5';
</script>
<script xlink:href="svgpan.js"/>
<svg id="graph" class="graph">
<g id="viewport">
<title>cFSPlib.python_api_client.swagger_client.models.clusters_body.ClustersBody.to_str</title>
<!-- Node1 -->
<g id="node1" class="node">
<title>Node1</title>
<g id="a_node1"><a xlink:title=" ">
<polygon fill="#bfbfbf" stroke="black" points="308,-774 308,-815 514,-815 514,-774 308,-774"/>
<text text-anchor="start" x="316" y="-803" font-family="Helvetica,sans-Serif" font-size="10.00">cFSPlib.python_api</text>
<text text-anchor="start" x="316" y="-792" font-family="Helvetica,sans-Serif" font-size="10.00">_client.swagger_client.models.clusters</text>
<text text-anchor="middle" x="411" y="-781" font-family="Helvetica,sans-Serif" font-size="10.00">_body.ClustersBody.to_str</text>
</a>
</g>
</g>
<!-- Node2 -->
<g id="node2" class="node">
<title>Node2</title>
<g id="a_node2"><a xlink:href="classcFSPlib_1_1python__api__client_1_1swagger__client_1_1models_1_1administration__mantle__logi168f0a51d80725a08a224c580ca4eab6.html#ad1cb3f837b0fb7187e407e652faed88b" target="_top" xlink:title=" ">
<polygon fill="none" stroke="black" points="12.5,-1535.5 12.5,-1587.5 259.5,-1587.5 259.5,-1535.5 12.5,-1535.5"/>
<text text-anchor="start" x="20.5" y="-1575.5" font-family="Helvetica,sans-Serif" font-size="10.00">cFSPlib.python_api</text>
<text text-anchor="start" x="20.5" y="-1564.5" font-family="Helvetica,sans-Serif" font-size="10.00">_client.swagger_client.models.administration</text>
<text text-anchor="start" x="20.5" y="-1553.5" font-family="Helvetica,sans-Serif" font-size="10.00">_mantle_logic_body.AdministrationMantleLogic</text>
<text text-anchor="middle" x="136" y="-1542.5" font-family="Helvetica,sans-Serif" font-size="10.00">Body.__repr__</text>
</a>
</g>
</g>
<!-- Node1&#45;&gt;Node2 -->
<g id="edge1" class="edge">
<title>Node1&#45;&gt;Node2</title>
<path fill="none" stroke="midnightblue" d="M408.47,-825.44C401.62,-951.15 369.72,-1421.97 272,-1526.5 268.28,-1530.48 264.17,-1534.03 259.77,-1537.2"/>
<polygon fill="midnightblue" stroke="midnightblue" points="411.97,-825.52 409,-815.34 404.98,-825.14 411.97,-825.52"/>
</g>
<!-- Node3 -->
<g id="node3" class="node">
<title>Node3</title>
<g id="a_node3"><a xlink:href="classcFSPlib_1_1python__api__client_1_1swagger__client_1_1models_1_1administration__platform__lo7236faec3e459a8c5be8431e1b997ede.html#a0c9da310956fd3722898545877914406" target="_top" xlink:title=" ">
<polygon fill="none" stroke="black" points="16.5,-1464.5 16.5,-1516.5 255.5,-1516.5 255.5,-1464.5 16.5,-1464.5"/>
<text text-anchor="start" x="24.5" y="-1504.5" font-family="Helvetica,sans-Serif" font-size="10.00">cFSPlib.python_api</text>
<text text-anchor="start" x="24.5" y="-1493.5" font-family="Helvetica,sans-Serif" font-size="10.00">_client.swagger_client.models.administration</text>
<text text-anchor="start" x="24.5" y="-1482.5" font-family="Helvetica,sans-Serif" font-size="10.00">_platform_logic_body.AdministrationPlatform</text>
<text text-anchor="middle" x="136" y="-1471.5" font-family="Helvetica,sans-Serif" font-size="10.00">LogicBody.__repr__</text>
</a>
</g>
</g>
<!-- Node1&#45;&gt;Node3 -->
<g id="edge2" class="edge">
<title>Node1&#45;&gt;Node3</title>
<path fill="none" stroke="midnightblue" d="M407.76,-825.4C398.61,-943.06 360.3,-1361.26 272,-1454.5 267.16,-1459.61 261.69,-1464.02 255.79,-1467.83"/>
<polygon fill="midnightblue" stroke="midnightblue" points="411.26,-825.51 408.53,-815.27 404.28,-824.98 411.26,-825.51"/>
</g>
<!-- Node4 -->
<g id="node4" class="node">
<title>Node4</title>
<g id="a_node4"><a xlink:href="classcFSPlib_1_1python__api__client_1_1swagger__client_1_1models_1_1build__script_1_1BuildScript.html#a448bc85c025bf0489aec25faf4174ea4" target="_top" xlink:title=" ">
<polygon fill="none" stroke="black" points="40.5,-1404 40.5,-1445 231.5,-1445 231.5,-1404 40.5,-1404"/>
<text text-anchor="start" x="48.5" y="-1433" font-family="Helvetica,sans-Serif" font-size="10.00">cFSPlib.python_api</text>
<text text-anchor="start" x="48.5" y="-1422" font-family="Helvetica,sans-Serif" font-size="10.00">_client.swagger_client.models.build</text>
<text text-anchor="middle" x="136" y="-1411" font-family="Helvetica,sans-Serif" font-size="10.00">_script.BuildScript.__repr__</text>
</a>
</g>
</g>
<!-- Node1&#45;&gt;Node4 -->
<g id="edge3" class="edge">
<title>Node1&#45;&gt;Node4</title>
<path fill="none" stroke="midnightblue" d="M407.21,-825.19C396.52,-935.91 354.59,-1312.52 272,-1394.5 260.92,-1405.49 246.77,-1412.84 231.81,-1417.68"/>
<polygon fill="midnightblue" stroke="midnightblue" points="410.71,-825.32 408.17,-815.04 403.74,-824.66 410.71,-825.32"/>
</g>
<!-- Node5 -->
<g id="node5" class="node">
<title>Node5</title>
<g id="a_node5"><a xlink:href="classcFSPlib_1_1python__api__client_1_1swagger__client_1_1models_1_1cluster_1_1Cluster.html#a26f2701765ffcb35f33d5c7fbb539b27" target="_top" xlink:title=" ">
<polygon fill="none" stroke="black" points="34.5,-1344 34.5,-1385 237.5,-1385 237.5,-1344 34.5,-1344"/>
<text text-anchor="start" x="42.5" y="-1373" font-family="Helvetica,sans-Serif" font-size="10.00">cFSPlib.python_api</text>
<text text-anchor="start" x="42.5" y="-1362" font-family="Helvetica,sans-Serif" font-size="10.00">_client.swagger_client.models.cluster.</text>
<text text-anchor="middle" x="136" y="-1351" font-family="Helvetica,sans-Serif" font-size="10.00">Cluster.__repr__</text>
</a>
</g>
</g>
<!-- Node1&#45;&gt;Node5 -->
<g id="edge4" class="edge">
<title>Node1&#45;&gt;Node5</title>
<path fill="none" stroke="midnightblue" d="M406.37,-825.15C393.53,-928.52 346.92,-1261.91 272,-1334.5 262.34,-1343.86 250.45,-1350.55 237.77,-1355.31"/>
<polygon fill="midnightblue" stroke="midnightblue" points="409.87,-825.41 407.61,-815.06 402.92,-824.56 409.87,-825.41"/>
</g>
<!-- Node6 -->
<g id="node6" class="node">
<title>Node6</title>
<g id="a_node6"><a xlink:href="classcFSPlib_1_1python__api__client_1_1swagger__client_1_1models_1_1cluster__id__node__id__body_1_1ClusterIdNodeIdBody.html#ad0713dba776df60cac99179ebed01035" target="_top" xlink:title=" ">
<polygon fill="none" stroke="black" points="11,-1284 11,-1325 261,-1325 261,-1284 11,-1284"/>
<text text-anchor="start" x="19" y="-1313" font-family="Helvetica,sans-Serif" font-size="10.00">cFSPlib.python_api</text>
<text text-anchor="start" x="19" y="-1302" font-family="Helvetica,sans-Serif" font-size="10.00">_client.swagger_client.models.cluster</text>
<text text-anchor="middle" x="136" y="-1291" font-family="Helvetica,sans-Serif" font-size="10.00">_id_node_id_body.ClusterIdNodeIdBody.__repr__</text>
</a>
</g>
</g>
<!-- Node1&#45;&gt;Node6 -->
<g id="edge5" class="edge">
<title>Node1&#45;&gt;Node6</title>
<path fill="none" stroke="midnightblue" d="M405.32,-825.2C390.14,-920.91 339.27,-1211.23 272,-1274.5 268.33,-1277.95 264.35,-1281.04 260.14,-1283.8"/>
<polygon fill="midnightblue" stroke="midnightblue" points="408.79,-825.7 406.88,-815.28 401.87,-824.62 408.79,-825.7"/>
</g>
<!-- Node7 -->
<g id="node7" class="node">
<title>Node7</title>
<g id="a_node7"><a xlink:href="classcFSPlib_1_1python__api__client_1_1swagger__client_1_1models_1_1clusters__body_1_1ClustersBody.html#ab6646398021a76e42eb7c8be5af65128" target="_top" xlink:title=" ">
<polygon fill="none" stroke="black" points="33,-1224 33,-1265 239,-1265 239,-1224 33,-1224"/>
<text text-anchor="start" x="41" y="-1253" font-family="Helvetica,sans-Serif" font-size="10.00">cFSPlib.python_api</text>
<text text-anchor="start" x="41" y="-1242" font-family="Helvetica,sans-Serif" font-size="10.00">_client.swagger_client.models.clusters</text>
<text text-anchor="middle" x="136" y="-1231" font-family="Helvetica,sans-Serif" font-size="10.00">_body.ClustersBody.__repr__</text>
</a>
</g>
</g>
<!-- Node1&#45;&gt;Node7 -->
<g id="edge6" class="edge">
<title>Node1&#45;&gt;Node7</title>
<path fill="none" stroke="midnightblue" d="M409.63,-825.44C406.93,-903.36 388.54,-1108.94 272,-1214.5 262.57,-1223.04 251.26,-1229.33 239.25,-1233.94"/>
<polygon fill="midnightblue" stroke="midnightblue" points="413.13,-825.41 409.92,-815.32 406.14,-825.22 413.13,-825.41"/>
</g>
<!-- Node8 -->
<g id="node8" class="node">
<title>Node8</title>
<g id="a_node8"><a xlink:href="classcFSPlib_1_1python__api__client_1_1swagger__client_1_1models_1_1image_1_1Image.html#a0854b84137f933a93dc33082ff4131bf" target="_top" xlink:title=" ">
<polygon fill="none" stroke="black" points="35.5,-1164 35.5,-1205 236.5,-1205 236.5,-1164 35.5,-1164"/>
<text text-anchor="start" x="43.5" y="-1193" font-family="Helvetica,sans-Serif" font-size="10.00">cFSPlib.python_api</text>
<text text-anchor="start" x="43.5" y="-1182" font-family="Helvetica,sans-Serif" font-size="10.00">_client.swagger_client.models.image.</text>
<text text-anchor="middle" x="136" y="-1171" font-family="Helvetica,sans-Serif" font-size="10.00">Image.__repr__</text>
</a>
</g>
</g>
<!-- Node1&#45;&gt;Node8 -->
<g id="edge7" class="edge">
<title>Node1&#45;&gt;Node8</title>
<path fill="none" stroke="midnightblue" d="M407.66,-825.79C400.66,-896.03 373.52,-1066.94 272,-1154.5 261.82,-1163.28 249.63,-1169.66 236.8,-1174.26"/>
<polygon fill="midnightblue" stroke="midnightblue" points="411.19,-825.69 408.62,-815.41 404.21,-825.05 411.19,-825.69"/>
</g>
<!-- Node9 -->
<g id="node9" class="node">
<title>Node9</title>
<g id="a_node9"><a xlink:href="classcFSPlib_1_1python__api__client_1_1swagger__client_1_1models_1_1images__app__logic__body_1_1ImagesAppLogicBody.html#a99987314d45e9493c3c5ef061a1a0ab8" target="_top" xlink:title=" ">
<polygon fill="none" stroke="black" points="13,-1104 13,-1145 259,-1145 259,-1104 13,-1104"/>
<text text-anchor="start" x="21" y="-1133" font-family="Helvetica,sans-Serif" font-size="10.00">cFSPlib.python_api</text>
<text text-anchor="start" x="21" y="-1122" font-family="Helvetica,sans-Serif" font-size="10.00">_client.swagger_client.models.images</text>
<text text-anchor="middle" x="136" y="-1111" font-family="Helvetica,sans-Serif" font-size="10.00">_app_logic_body.ImagesAppLogicBody.__repr__</text>
</a>
</g>
</g>
<!-- Node1&#45;&gt;Node9 -->
<g id="edge8" class="edge">
<title>Node1&#45;&gt;Node9</title>
<path fill="none" stroke="midnightblue" d="M405.09,-825.26C393.62,-886.58 359.11,-1024.18 272,-1094.5 267.61,-1098.04 262.89,-1101.19 257.93,-1103.98"/>
<polygon fill="midnightblue" stroke="midnightblue" points="408.6,-825.53 406.92,-815.07 401.71,-824.3 408.6,-825.53"/>
</g>
<!-- Node10 -->
<g id="node10" class="node">
<title>Node10</title>
<g id="a_node10"><a xlink:href="classcFSPlib_1_1python__api__client_1_1swagger__client_1_1models_1_1images__body_1_1ImagesBody.html#a1ed669c0f3398e7cccdad49cc3d8e0d3" target="_top" xlink:title=" ">
<polygon fill="none" stroke="black" points="34.5,-1044 34.5,-1085 237.5,-1085 237.5,-1044 34.5,-1044"/>
<text text-anchor="start" x="42.5" y="-1073" font-family="Helvetica,sans-Serif" font-size="10.00">cFSPlib.python_api</text>
<text text-anchor="start" x="42.5" y="-1062" font-family="Helvetica,sans-Serif" font-size="10.00">_client.swagger_client.models.images</text>
<text text-anchor="middle" x="136" y="-1051" font-family="Helvetica,sans-Serif" font-size="10.00">_body.ImagesBody.__repr__</text>
</a>
</g>
</g>
<!-- Node1&#45;&gt;Node10 -->
<g id="edge9" class="edge">
<title>Node1&#45;&gt;Node10</title>
<path fill="none" stroke="midnightblue" d="M401.49,-824.62C385.29,-876.15 344.98,-980.86 272,-1034.5 261.75,-1042.04 249.95,-1047.74 237.69,-1052.04"/>
<polygon fill="midnightblue" stroke="midnightblue" points="404.84,-825.64 404.41,-815.05 398.14,-823.59 404.84,-825.64"/>
</g>
<!-- Node11 -->
<g id="node11" class="node">
<title>Node11</title>
<g id="a_node11"><a xlink:href="classcFSPlib_1_1python__api__client_1_1swagger__client_1_1models_1_1inline__response200_1_1InlineResponse200.html#ac6f8953ce29b06b760f67c873c66324c" target="_top" xlink:title=" ">
<polygon fill="none" stroke="black" points="24.5,-984 24.5,-1025 247.5,-1025 247.5,-984 24.5,-984"/>
<text text-anchor="start" x="32.5" y="-1013" font-family="Helvetica,sans-Serif" font-size="10.00">cFSPlib.python_api</text>
<text text-anchor="start" x="32.5" y="-1002" font-family="Helvetica,sans-Serif" font-size="10.00">_client.swagger_client.models.inline</text>
<text text-anchor="middle" x="136" y="-991" font-family="Helvetica,sans-Serif" font-size="10.00">_response200.InlineResponse200.__repr__</text>
</a>
</g>
</g>
<!-- Node1&#45;&gt;Node11 -->
<g id="edge10" class="edge">
<title>Node1&#45;&gt;Node11</title>
<path fill="none" stroke="midnightblue" d="M395.74,-824.12C374.61,-864.71 331.01,-936.87 272,-974.5 264.41,-979.34 256.14,-983.41 247.57,-986.82"/>
<polygon fill="midnightblue" stroke="midnightblue" points="398.97,-825.5 400.39,-815 392.73,-822.32 398.97,-825.5"/>
</g>
<!-- Node12 -->
<g id="node12" class="node">
<title>Node12</title>
<g id="a_node12"><a xlink:href="classcFSPlib_1_1python__api__client_1_1swagger__client_1_1models_1_1inline__response2001_1_1InlineResponse2001.html#a7b1813083bf541835b5c79d5f65312dc" target="_top" xlink:title=" ">
<polygon fill="none" stroke="black" points="18.5,-924 18.5,-965 253.5,-965 253.5,-924 18.5,-924"/>
<text text-anchor="start" x="26.5" y="-953" font-family="Helvetica,sans-Serif" font-size="10.00">cFSPlib.python_api</text>
<text text-anchor="start" x="26.5" y="-942" font-family="Helvetica,sans-Serif" font-size="10.00">_client.swagger_client.models.inline</text>
<text text-anchor="middle" x="136" y="-931" font-family="Helvetica,sans-Serif" font-size="10.00">_response2001.InlineResponse2001.__repr__</text>
</a>
</g>
</g>
<!-- Node1&#45;&gt;Node12 -->
<g id="edge11" class="edge">
<title>Node1&#45;&gt;Node12</title>
<path fill="none" stroke="midnightblue" d="M385.45,-822.84C359.9,-850.49 317.34,-891.63 272,-914.5 264.93,-918.07 257.43,-921.22 249.75,-923.99"/>
<polygon fill="midnightblue" stroke="midnightblue" points="388.06,-825.18 392.19,-815.42 382.88,-820.47 388.06,-825.18"/>
</g>
<!-- Node13 -->
<g id="node13" class="node">
<title>Node13</title>
<g id="a_node13"><a xlink:href="classcFSPlib_1_1python__api__client_1_1swagger__client_1_1models_1_1inline__response2002_1_1InlineResponse2002.html#adbbfec7280b1cf5175d44440b83419af" target="_top" xlink:title=" ">
<polygon fill="none" stroke="black" points="18.5,-864 18.5,-905 253.5,-905 253.5,-864 18.5,-864"/>
<text text-anchor="start" x="26.5" y="-893" font-family="Helvetica,sans-Serif" font-size="10.00">cFSPlib.python_api</text>
<text text-anchor="start" x="26.5" y="-882" font-family="Helvetica,sans-Serif" font-size="10.00">_client.swagger_client.models.inline</text>
<text text-anchor="middle" x="136" y="-871" font-family="Helvetica,sans-Serif" font-size="10.00">_response2002.InlineResponse2002.__repr__</text>
</a>
</g>
</g>
<!-- Node1&#45;&gt;Node13 -->
<g id="edge12" class="edge">
<title>Node1&#45;&gt;Node13</title>
<path fill="none" stroke="midnightblue" d="M359.36,-819.3C333.65,-831.17 301.65,-844.86 272,-854.5 261.5,-857.92 250.41,-861.07 239.29,-863.95"/>
<polygon fill="midnightblue" stroke="midnightblue" points="360.95,-822.42 368.53,-815.02 357.99,-816.07 360.95,-822.42"/>
</g>
<!-- Node14 -->
<g id="node14" class="node">
<title>Node14</title>
<g id="a_node14"><a xlink:href="classcFSPlib_1_1python__api__client_1_1swagger__client_1_1models_1_1inline__response2003_1_1InlineResponse2003.html#a8ca2bbd5a75f2000001047ad645e1b7f" target="_top" xlink:title=" ">
<polygon fill="none" stroke="black" points="18.5,-804 18.5,-845 253.5,-845 253.5,-804 18.5,-804"/>
<text text-anchor="start" x="26.5" y="-833" font-family="Helvetica,sans-Serif" font-size="10.00">cFSPlib.python_api</text>
<text text-anchor="start" x="26.5" y="-822" font-family="Helvetica,sans-Serif" font-size="10.00">_client.swagger_client.models.inline</text>
<text text-anchor="middle" x="136" y="-811" font-family="Helvetica,sans-Serif" font-size="10.00">_response2003.InlineResponse2003.__repr__</text>
</a>
</g>
</g>
<!-- Node1&#45;&gt;Node14 -->
<g id="edge13" class="edge">
<title>Node1&#45;&gt;Node14</title>
<path fill="none" stroke="midnightblue" d="M297.91,-806.82C283.3,-808.42 268.3,-810.07 253.62,-811.69"/>
<polygon fill="midnightblue" stroke="midnightblue" points="298.4,-810.29 307.96,-805.71 297.63,-803.33 298.4,-810.29"/>
</g>
<!-- Node15 -->
<g id="node15" class="node">
<title>Node15</title>
<g id="a_node15"><a xlink:href="classcFSPlib_1_1python__api__client_1_1swagger__client_1_1models_1_1inline__response2004_1_1InlineResponse2004.html#a438928711d368ae2dfb1f0dae503efd0" target="_top" xlink:title=" ">
<polygon fill="none" stroke="black" points="18.5,-744 18.5,-785 253.5,-785 253.5,-744 18.5,-744"/>
<text text-anchor="start" x="26.5" y="-773" font-family="Helvetica,sans-Serif" font-size="10.00">cFSPlib.python_api</text>
<text text-anchor="start" x="26.5" y="-762" font-family="Helvetica,sans-Serif" font-size="10.00">_client.swagger_client.models.inline</text>
<text text-anchor="middle" x="136" y="-751" font-family="Helvetica,sans-Serif" font-size="10.00">_response2004.InlineResponse2004.__repr__</text>
</a>
</g>
</g>
<!-- Node1&#45;&gt;Node15 -->
<g id="edge14" class="edge">
<title>Node1&#45;&gt;Node15</title>
<path fill="none" stroke="midnightblue" d="M297.91,-782.18C283.3,-780.58 268.3,-778.93 253.62,-777.31"/>
<polygon fill="midnightblue" stroke="midnightblue" points="297.63,-785.67 307.96,-783.29 298.4,-778.71 297.63,-785.67"/>
</g>
<!-- Node16 -->
<g id="node16" class="node">
<title>Node16</title>
<g id="a_node16"><a xlink:href="classcFSPlib_1_1python__api__client_1_1swagger__client_1_1models_1_1inline__response2005_1_1InlineResponse2005.html#a68342538baeb453cad9a2f378281c710" target="_top" xlink:title=" ">
<polygon fill="none" stroke="black" points="18.5,-684 18.5,-725 253.5,-725 253.5,-684 18.5,-684"/>
<text text-anchor="start" x="26.5" y="-713" font-family="Helvetica,sans-Serif" font-size="10.00">cFSPlib.python_api</text>
<text text-anchor="start" x="26.5" y="-702" font-family="Helvetica,sans-Serif" font-size="10.00">_client.swagger_client.models.inline</text>
<text text-anchor="middle" x="136" y="-691" font-family="Helvetica,sans-Serif" font-size="10.00">_response2005.InlineResponse2005.__repr__</text>
</a>
</g>
</g>
<!-- Node1&#45;&gt;Node16 -->
<g id="edge15" class="edge">
<title>Node1&#45;&gt;Node16</title>
<path fill="none" stroke="midnightblue" d="M359.36,-769.7C333.65,-757.83 301.65,-744.14 272,-734.5 261.5,-731.08 250.41,-727.93 239.29,-725.05"/>
<polygon fill="midnightblue" stroke="midnightblue" points="357.99,-772.93 368.53,-773.98 360.95,-766.58 357.99,-772.93"/>
</g>
<!-- Node17 -->
<g id="node17" class="node">
<title>Node17</title>
<g id="a_node17"><a xlink:href="classcFSPlib_1_1python__api__client_1_1swagger__client_1_1models_1_1inline__response2006_1_1InlineResponse2006.html#a39ebc73abe63b92a0b0c794877a99da4" target="_top" xlink:title=" ">
<polygon fill="none" stroke="black" points="18.5,-624 18.5,-665 253.5,-665 253.5,-624 18.5,-624"/>
<text text-anchor="start" x="26.5" y="-653" font-family="Helvetica,sans-Serif" font-size="10.00">cFSPlib.python_api</text>
<text text-anchor="start" x="26.5" y="-642" font-family="Helvetica,sans-Serif" font-size="10.00">_client.swagger_client.models.inline</text>
<text text-anchor="middle" x="136" y="-631" font-family="Helvetica,sans-Serif" font-size="10.00">_response2006.InlineResponse2006.__repr__</text>
</a>
</g>
</g>
<!-- Node1&#45;&gt;Node17 -->
<g id="edge16" class="edge">
<title>Node1&#45;&gt;Node17</title>
<path fill="none" stroke="midnightblue" d="M385.45,-766.16C359.9,-738.51 317.34,-697.37 272,-674.5 264.93,-670.93 257.43,-667.78 249.75,-665.01"/>
<polygon fill="midnightblue" stroke="midnightblue" points="382.88,-768.53 392.19,-773.58 388.06,-763.82 382.88,-768.53"/>
</g>
<!-- Node18 -->
<g id="node18" class="node">
<title>Node18</title>
<g id="a_node18"><a xlink:href="classcFSPlib_1_1python__api__client_1_1swagger__client_1_1models_1_1instance_1_1Instance.html#a3018c78d992e6757c90626981cb0b194" target="_top" xlink:title=" ">
<polygon fill="none" stroke="black" points="30,-564 30,-605 242,-605 242,-564 30,-564"/>
<text text-anchor="start" x="38" y="-593" font-family="Helvetica,sans-Serif" font-size="10.00">cFSPlib.python_api</text>
<text text-anchor="start" x="38" y="-582" font-family="Helvetica,sans-Serif" font-size="10.00">_client.swagger_client.models.instance.</text>
<text text-anchor="middle" x="136" y="-571" font-family="Helvetica,sans-Serif" font-size="10.00">Instance.__repr__</text>
</a>
</g>
</g>
<!-- Node1&#45;&gt;Node18 -->
<g id="edge17" class="edge">
<title>Node1&#45;&gt;Node18</title>
<path fill="none" stroke="midnightblue" d="M395.74,-764.88C374.61,-724.29 331.01,-652.13 272,-614.5 262.79,-608.63 252.59,-603.89 242.04,-600.08"/>
<polygon fill="midnightblue" stroke="midnightblue" points="392.73,-766.68 400.39,-774 398.97,-763.5 392.73,-766.68"/>
</g>
<!-- Node19 -->
<g id="node19" class="node">
<title>Node19</title>
<g id="a_node19"><a xlink:href="classcFSPlib_1_1python__api__client_1_1swagger__client_1_1models_1_1instance__id__api__gateway__33456c8700113c53c3cfaa915ef28716.html#aa545f675e04b431f8123af8442cb69fd" target="_top" xlink:title=" ">
<polygon fill="none" stroke="black" points="16.5,-492.5 16.5,-544.5 255.5,-544.5 255.5,-492.5 16.5,-492.5"/>
<text text-anchor="start" x="24.5" y="-532.5" font-family="Helvetica,sans-Serif" font-size="10.00">cFSPlib.python_api</text>
<text text-anchor="start" x="24.5" y="-521.5" font-family="Helvetica,sans-Serif" font-size="10.00">_client.swagger_client.models.instance</text>
<text text-anchor="start" x="24.5" y="-510.5" font-family="Helvetica,sans-Serif" font-size="10.00">_id_api_gateway_body.InstanceIdApiGateway</text>
<text text-anchor="middle" x="136" y="-499.5" font-family="Helvetica,sans-Serif" font-size="10.00">Body.__repr__</text>
</a>
</g>
</g>
<!-- Node1&#45;&gt;Node19 -->
<g id="edge18" class="edge">
<title>Node1&#45;&gt;Node19</title>
<path fill="none" stroke="midnightblue" d="M401.02,-764C384.32,-712.7 343.51,-609.4 272,-554.5 266.9,-550.59 261.41,-547.1 255.67,-543.98"/>
<polygon fill="midnightblue" stroke="midnightblue" points="397.78,-765.35 404.13,-773.83 404.45,-763.24 397.78,-765.35"/>
</g>
<!-- Node20 -->
<g id="node20" class="node">
<title>Node20</title>
<g id="a_node20"><a xlink:href="classcFSPlib_1_1python__api__client_1_1swagger__client_1_1models_1_1instance__id__runlevel__body_1_1InstanceIdRunlevelBody.html#a9d0c64ef27367c164b9adb537680d771" target="_top" xlink:title=" ">
<polygon fill="none" stroke="black" points="3,-432 3,-473 269,-473 269,-432 3,-432"/>
<text text-anchor="start" x="11" y="-461" font-family="Helvetica,sans-Serif" font-size="10.00">cFSPlib.python_api</text>
<text text-anchor="start" x="11" y="-450" font-family="Helvetica,sans-Serif" font-size="10.00">_client.swagger_client.models.instance</text>
<text text-anchor="middle" x="136" y="-439" font-family="Helvetica,sans-Serif" font-size="10.00">_id_runlevel_body.InstanceIdRunlevelBody.__repr__</text>
</a>
</g>
</g>
<!-- Node1&#45;&gt;Node20 -->
<g id="edge19" class="edge">
<title>Node1&#45;&gt;Node20</title>
<path fill="none" stroke="midnightblue" d="M405.56,-763.54C394.82,-700.55 361.4,-557.2 272,-483.5 267.27,-479.6 262.14,-476.17 256.74,-473.15"/>
<polygon fill="midnightblue" stroke="midnightblue" points="402.14,-764.33 407.2,-773.64 409.05,-763.2 402.14,-764.33"/>
</g>
<!-- Node21 -->
<g id="node21" class="node">
<title>Node21</title>
<g id="a_node21"><a xlink:href="classcFSPlib_1_1python__api__client_1_1swagger__client_1_1models_1_1instances__body_1_1InstancesBody.html#a6b441c86aa1aa6f248f599b0a3a286b0" target="_top" xlink:title=" ">
<polygon fill="none" stroke="black" points="29,-372 29,-413 243,-413 243,-372 29,-372"/>
<text text-anchor="start" x="37" y="-401" font-family="Helvetica,sans-Serif" font-size="10.00">cFSPlib.python_api</text>
<text text-anchor="start" x="37" y="-390" font-family="Helvetica,sans-Serif" font-size="10.00">_client.swagger_client.models.instances</text>
<text text-anchor="middle" x="136" y="-379" font-family="Helvetica,sans-Serif" font-size="10.00">_body.InstancesBody.__repr__</text>
</a>
</g>
</g>
<!-- Node1&#45;&gt;Node21 -->
<g id="edge20" class="edge">
<title>Node1&#45;&gt;Node21</title>
<path fill="none" stroke="midnightblue" d="M408.14,-763.66C402.08,-692.07 376.69,-513.79 272,-422.5 263.49,-415.08 253.56,-409.38 243.01,-405.01"/>
<polygon fill="midnightblue" stroke="midnightblue" points="404.66,-764.12 408.93,-773.82 411.64,-763.57 404.66,-764.12"/>
</g>
<!-- Node22 -->
<g id="node22" class="node">
<title>Node22</title>
<g id="a_node22"><a xlink:href="classcFSPlib_1_1python__api__client_1_1swagger__client_1_1models_1_1instances__instance__id__body_1_1InstancesInstanceIdBody.html#ad0be600fabc59f43e5649cbbd09ea8fa" target="_top" xlink:title=" ">
<polygon fill="none" stroke="black" points="0,-312 0,-353 272,-353 272,-312 0,-312"/>
<text text-anchor="start" x="8" y="-341" font-family="Helvetica,sans-Serif" font-size="10.00">cFSPlib.python_api</text>
<text text-anchor="start" x="8" y="-330" font-family="Helvetica,sans-Serif" font-size="10.00">_client.swagger_client.models.instances</text>
<text text-anchor="middle" x="136" y="-319" font-family="Helvetica,sans-Serif" font-size="10.00">_instance_id_body.InstancesInstanceIdBody.__repr__</text>
</a>
</g>
</g>
<!-- Node1&#45;&gt;Node22 -->
<g id="edge21" class="edge">
<title>Node1&#45;&gt;Node22</title>
<path fill="none" stroke="midnightblue" d="M409.95,-763.25C408.03,-683.6 391.38,-471.53 272,-362.5 268.19,-359.02 264.07,-355.91 259.71,-353.14"/>
<polygon fill="midnightblue" stroke="midnightblue" points="406.46,-763.65 410.13,-773.59 413.46,-763.53 406.46,-763.65"/>
</g>
<!-- Node23 -->
<g id="node23" class="node">
<title>Node23</title>
<g id="a_node23"><a xlink:href="classcFSPlib_1_1python__api__client_1_1swagger__client_1_1models_1_1node__map_1_1NodeMap.html#af7c968e6ab103154dd247b9dbca76974" target="_top" xlink:title=" ">
<polygon fill="none" stroke="black" points="40.5,-252 40.5,-293 231.5,-293 231.5,-252 40.5,-252"/>
<text text-anchor="start" x="48.5" y="-281" font-family="Helvetica,sans-Serif" font-size="10.00">cFSPlib.python_api</text>
<text text-anchor="start" x="48.5" y="-270" font-family="Helvetica,sans-Serif" font-size="10.00">_client.swagger_client.models.node</text>
<text text-anchor="middle" x="136" y="-259" font-family="Helvetica,sans-Serif" font-size="10.00">_map.NodeMap.__repr__</text>
</a>
</g>
</g>
<!-- Node1&#45;&gt;Node23 -->
<g id="edge22" class="edge">
<title>Node1&#45;&gt;Node23</title>
<path fill="none" stroke="midnightblue" d="M405.54,-763.7C390.82,-666.31 340.77,-367.6 272,-302.5 260.75,-291.85 246.6,-284.67 231.73,-279.87"/>
<polygon fill="midnightblue" stroke="midnightblue" points="402.11,-764.41 407.04,-773.78 409.03,-763.37 402.11,-764.41"/>
</g>
<!-- Node24 -->
<g id="node24" class="node">
<title>Node24</title>
<g id="a_node24"><a xlink:href="classcFSPlib_1_1python__api__client_1_1swagger__client_1_1models_1_1node__map__inner_1_1NodeMapInner.html#a587604c99266c82720ed89c2c61ffe2a" target="_top" xlink:title=" ">
<polygon fill="none" stroke="black" points="40.5,-192 40.5,-233 231.5,-233 231.5,-192 40.5,-192"/>
<text text-anchor="start" x="48.5" y="-221" font-family="Helvetica,sans-Serif" font-size="10.00">cFSPlib.python_api</text>
<text text-anchor="start" x="48.5" y="-210" font-family="Helvetica,sans-Serif" font-size="10.00">_client.swagger_client.models.node</text>
<text text-anchor="middle" x="136" y="-199" font-family="Helvetica,sans-Serif" font-size="10.00">_map_inner.NodeMapInner.__repr__</text>
</a>
</g>
</g>
<!-- Node1&#45;&gt;Node24 -->
<g id="edge23" class="edge">
<title>Node1&#45;&gt;Node24</title>
<path fill="none" stroke="midnightblue" d="M406.56,-763.85C394.16,-658.99 348.45,-316.97 272,-242.5 260.82,-231.61 246.62,-224.32 231.64,-219.5"/>
<polygon fill="midnightblue" stroke="midnightblue" points="403.08,-764.27 407.72,-773.79 410.03,-763.46 403.08,-764.27"/>
</g>
<!-- Node25 -->
<g id="node25" class="node">
<title>Node25</title>
<g id="a_node25"><a xlink:href="classcFSPlib_1_1python__api__client_1_1swagger__client_1_1models_1_1quota_1_1Quota.html#ad43824f75dab80cd5638590e1a92dd78" target="_top" xlink:title=" ">
<polygon fill="none" stroke="black" points="37,-132 37,-173 235,-173 235,-132 37,-132"/>
<text text-anchor="start" x="45" y="-161" font-family="Helvetica,sans-Serif" font-size="10.00">cFSPlib.python_api</text>
<text text-anchor="start" x="45" y="-150" font-family="Helvetica,sans-Serif" font-size="10.00">_client.swagger_client.models.quota.</text>
<text text-anchor="middle" x="136" y="-139" font-family="Helvetica,sans-Serif" font-size="10.00">Quota.__repr__</text>
</a>
</g>
</g>
<!-- Node1&#45;&gt;Node25 -->
<g id="edge24" class="edge">
<title>Node1&#45;&gt;Node25</title>
<path fill="none" stroke="midnightblue" d="M407.37,-763.92C397.11,-651.93 356.16,-266.4 272,-182.5 261.8,-172.33 248.96,-165.28 235.29,-160.44"/>
<polygon fill="midnightblue" stroke="midnightblue" points="403.88,-764.23 408.27,-773.88 410.85,-763.61 403.88,-764.23"/>
</g>
<!-- Node26 -->
<g id="node26" class="node">
<title>Node26</title>
<g id="a_node26"><a xlink:href="classcFSPlib_1_1python__api__client_1_1swagger__client_1_1models_1_1resource_1_1Resource.html#ae6c97465f736f8b4d119f4e7986429d9" target="_top" xlink:title=" ">
<polygon fill="none" stroke="black" points="30,-72 30,-113 242,-113 242,-72 30,-72"/>
<text text-anchor="start" x="38" y="-101" font-family="Helvetica,sans-Serif" font-size="10.00">cFSPlib.python_api</text>
<text text-anchor="start" x="38" y="-90" font-family="Helvetica,sans-Serif" font-size="10.00">_client.swagger_client.models.resource.</text>
<text text-anchor="middle" x="136" y="-79" font-family="Helvetica,sans-Serif" font-size="10.00">Resource.__repr__</text>
</a>
</g>
</g>
<!-- Node1&#45;&gt;Node26 -->
<g id="edge25" class="edge">
<title>Node1&#45;&gt;Node26</title>
<path fill="none" stroke="midnightblue" d="M408.02,-763.72C399.72,-644.61 363.84,-215.83 272,-122.5 263.58,-113.94 253.3,-107.58 242.21,-102.89"/>
<polygon fill="midnightblue" stroke="midnightblue" points="404.54,-764.22 408.72,-773.96 411.53,-763.74 404.54,-764.22"/>
</g>
<!-- Node27 -->
<g id="node27" class="node">
<title>Node27</title>
<g id="a_node27"><a xlink:href="classcFSPlib_1_1python__api__client_1_1swagger__client_1_1models_1_1test__instance__instance__idb21fef29c350bd01bc51bf6a97dd8668.html#af4ecdf849e2718aec0c18c3f5c2aae42" target="_top" xlink:title=" ">
<polygon fill="none" stroke="black" points="28.5,-0.5 28.5,-52.5 243.5,-52.5 243.5,-0.5 28.5,-0.5"/>
<text text-anchor="start" x="36.5" y="-40.5" font-family="Helvetica,sans-Serif" font-size="10.00">cFSPlib.python_api</text>
<text text-anchor="start" x="36.5" y="-29.5" font-family="Helvetica,sans-Serif" font-size="10.00">_client.swagger_client.models.test</text>
<text text-anchor="start" x="36.5" y="-18.5" font-family="Helvetica,sans-Serif" font-size="10.00">_instance_instance_id_body.TestInstance</text>
<text text-anchor="middle" x="136" y="-7.5" font-family="Helvetica,sans-Serif" font-size="10.00">InstanceIdBody.__repr__</text>
</a>
</g>
</g>
<!-- Node1&#45;&gt;Node27 -->
<g id="edge26" class="edge">
<title>Node1&#45;&gt;Node27</title>
<path fill="none" stroke="midnightblue" d="M408.45,-763.58C401.52,-637.94 369.36,-167.37 272,-62.5 264,-53.88 254.18,-47.23 243.52,-42.12"/>
<polygon fill="midnightblue" stroke="midnightblue" points="404.96,-763.87 408.99,-773.67 411.95,-763.49 404.96,-763.87"/>
</g>
</g>
</svg>
        <g id="navigator" transform="translate(0 0)" fill="#404254">
                <rect fill="#f2f5e9" fill-opacity="0.5" stroke="#606060" stroke-width=".5" x="0" y="0" width="60" height="60"/>
                <use id="zoomplus" xlink:href="#zoomPlus" x="17" y="9" onmousedown="handleZoom(evt,'in')"/>
                <use id="zoomminus" xlink:href="#zoomMin" x="42" y="9" onmousedown="handleZoom(evt,'out')"/>
                <use id="reset" xlink:href="#resetDef" x="30" y="36" onmousedown="handleReset()"/>
                <g id="arrowUp" xlink:href="#dirArrow" transform="translate(30 24)" onmousedown="handlePan(0,-1)">
                  <use xlink:href="#rim" fill="#404040">
                        <set attributeName="fill" to="#808080" begin="arrowUp.mouseover" end="arrowUp.mouseout"/>
                  </use>
                  <path fill="none" stroke="white" stroke-width="1.5" d="M0,-3.0v7 M-2.5,-0.5L0,-3.0L2.5,-0.5"/>
                </g>
                <g id="arrowRight" xlink:href="#dirArrow" transform="rotate(90) translate(36 -43)" onmousedown="handlePan(1,0)">
                  <use xlink:href="#rim" fill="#404040">
                        <set attributeName="fill" to="#808080" begin="arrowRight.mouseover" end="arrowRight.mouseout"/>
                  </use>
                  <path fill="none" stroke="white" stroke-width="1.5" d="M0,-3.0v7 M-2.5,-0.5L0,-3.0L2.5,-0.5"/>
                </g>
                <g id="arrowDown" xlink:href="#dirArrow" transform="rotate(180) translate(-30 -48)" onmousedown="handlePan(0,1)">
                  <use xlink:href="#rim" fill="#404040">
                        <set attributeName="fill" to="#808080" begin="arrowDown.mouseover" end="arrowDown.mouseout"/>
                  </use>
                  <path fill="none" stroke="white" stroke-width="1.5" d="M0,-3.0v7 M-2.5,-0.5L0,-3.0L2.5,-0.5"/>
                </g>
                <g id="arrowLeft" xlink:href="#dirArrow" transform="rotate(270) translate(-36 17)" onmousedown="handlePan(-1,0)">
                  <use xlink:href="#rim" fill="#404040">
                        <set attributeName="fill" to="#808080" begin="arrowLeft.mouseover" end="arrowLeft.mouseout"/>
                  </use>
                  <path fill="none" stroke="white" stroke-width="1.5" d="M0,-3.0v7 M-2.5,-0.5L0,-3.0L2.5,-0.5"/>
                </g>
        </g>
        <svg viewBox="0 0 15 15" width="100%" height="30px" preserveAspectRatio="xMaxYMin meet">
         <g id="arrow_out" transform="scale(0.3 0.3)">
          <a xlink:href="classcFSPlib_1_1python__api__client_1_1swagger__client_1_1models_1_1clusters__body_1_1ClustersBody_af1564ddb64720f11f874f44024eb7cf5_icgraph_org.svg" target="_base">
           <rect id="button" ry="5" rx="5" y="6" x="6" height="38" width="38"
                fill="#f2f5e9" fill-opacity="0.5" stroke="#606060" stroke-width="1.0"/>
           <path id="arrow"
             d="M 11.500037,31.436501 C 11.940474,20.09759 22.043105,11.32322 32.158766,21.979434 L 37.068811,17.246167 C 37.068811,17.246167 37.088388,32 37.088388,32 L 22.160133,31.978069 C 22.160133,31.978069 26.997745,27.140456 26.997745,27.140456 C 18.528582,18.264221 13.291696,25.230495 11.500037,31.436501 z"
             style="fill:#404040;"/>
          </a>
         </g>
        </svg>
</svg>
