<?xml version="1.0" encoding="UTF-8" standalone="no"?>
<!DOCTYPE svg PUBLIC "-//W3C//DTD SVG 1.1//EN"
 "http://www.w3.org/Graphics/SVG/1.1/DTD/svg11.dtd">
<!-- Generated by graphviz version 2.43.0 (0)
 -->
<!-- Title: SimIp4Packet::sizeOfTcpData Pages: 1 -->
<svg width="353pt" height="137pt"
 viewBox="0.00 0.00 353.00 137.00" xmlns="http://www.w3.org/2000/svg" xmlns:xlink="http://www.w3.org/1999/xlink">
<g id="graph0" class="graph" transform="scale(1 1) rotate(0) translate(4 133)">
<title>SimIp4Packet::sizeOfTcpData</title>
<!-- Node1 -->
<g id="node1" class="node">
<title>Node1</title>
<g id="a_node1"><a xlink:title="Return the size of the TCP data payload in octets.">
<polygon fill="#bfbfbf" stroke="black" points="0,-55 0,-74 158,-74 158,-55 0,-55"/>
<text text-anchor="middle" x="79" y="-62" font-family="Helvetica,sans-Serif" font-size="10.00">SimIp4Packet::sizeOfTcpData</text>
</a>
</g>
</g>
<!-- Node2 -->
<g id="node2" class="node">
<title>Node2</title>
<g id="a_node2"><a xlink:href="classSimIp4Packet.html#a7ee25ca44b1cb9e3d375b41c8790dffb" target="_top" xlink:title=" ">
<polygon fill="none" stroke="black" points="194,-98.5 194,-128.5 345,-128.5 345,-98.5 194,-98.5"/>
<text text-anchor="start" x="202" y="-116.5" font-family="Helvetica,sans-Serif" font-size="10.00">SimIp4Packet::getIpInternet</text>
<text text-anchor="middle" x="269.5" y="-105.5" font-family="Helvetica,sans-Serif" font-size="10.00">HeaderLength</text>
</a>
</g>
</g>
<!-- Node1&#45;&gt;Node2 -->
<g id="edge1" class="edge">
<title>Node1&#45;&gt;Node2</title>
<path fill="none" stroke="midnightblue" d="M116.79,-74.06C140.66,-80.27 172.47,-88.54 200.8,-95.9"/>
<polygon fill="midnightblue" stroke="midnightblue" points="200.09,-99.33 210.65,-98.46 201.86,-92.56 200.09,-99.33"/>
</g>
<!-- Node3 -->
<g id="node3" class="node">
<title>Node3</title>
<g id="a_node3"><a xlink:href="classSimIp4Packet.html#a09cac22ce1fceda47a24a78d2066e5a3" target="_top" xlink:title=" ">
<polygon fill="none" stroke="black" points="201.5,-49.5 201.5,-79.5 337.5,-79.5 337.5,-49.5 201.5,-49.5"/>
<text text-anchor="start" x="209.5" y="-67.5" font-family="Helvetica,sans-Serif" font-size="10.00">SimIp4Packet::getIpTotal</text>
<text text-anchor="middle" x="269.5" y="-56.5" font-family="Helvetica,sans-Serif" font-size="10.00">Length</text>
</a>
</g>
</g>
<!-- Node1&#45;&gt;Node3 -->
<g id="edge2" class="edge">
<title>Node1&#45;&gt;Node3</title>
<path fill="none" stroke="midnightblue" d="M158.03,-64.5C168.93,-64.5 180.13,-64.5 191.02,-64.5"/>
<polygon fill="midnightblue" stroke="midnightblue" points="191.34,-68 201.34,-64.5 191.34,-61 191.34,-68"/>
</g>
<!-- Node4 -->
<g id="node4" class="node">
<title>Node4</title>
<g id="a_node4"><a xlink:href="classSimIp4Packet.html#a4894d6345f56f2e0c85853e58154a996" target="_top" xlink:title=" ">
<polygon fill="none" stroke="black" points="198,-0.5 198,-30.5 341,-30.5 341,-0.5 198,-0.5"/>
<text text-anchor="start" x="206" y="-18.5" font-family="Helvetica,sans-Serif" font-size="10.00">SimIp4Packet::getTcpData</text>
<text text-anchor="middle" x="269.5" y="-7.5" font-family="Helvetica,sans-Serif" font-size="10.00">Offset</text>
</a>
</g>
</g>
<!-- Node1&#45;&gt;Node4 -->
<g id="edge3" class="edge">
<title>Node1&#45;&gt;Node4</title>
<path fill="none" stroke="midnightblue" d="M116.79,-54.94C140.66,-48.73 172.47,-40.46 200.8,-33.1"/>
<polygon fill="midnightblue" stroke="midnightblue" points="201.86,-36.44 210.65,-30.54 200.09,-29.67 201.86,-36.44"/>
</g>
</g>
</svg>
