<?xml version="1.0" encoding="UTF-8" standalone="no"?>
<!DOCTYPE svg PUBLIC "-//W3C//DTD SVG 1.1//EN"
 "http://www.w3.org/Graphics/SVG/1.1/DTD/svg11.dtd">
<!-- Generated by graphviz version 2.43.0 (0)
 -->
<!-- Title: SimIp4Packet::getIpHeaderChecksum Pages: 1 -->
<svg width="585pt" height="256pt"
 viewBox="0.00 0.00 585.00 256.00" xmlns="http://www.w3.org/2000/svg" xmlns:xlink="http://www.w3.org/1999/xlink">
<g id="graph0" class="graph" transform="scale(1 1) rotate(0) translate(4 252)">
<title>SimIp4Packet::getIpHeaderChecksum</title>
<!-- Node1 -->
<g id="node1" class="node">
<title>Node1</title>
<g id="a_node1"><a xlink:title=" ">
<polygon fill="#bfbfbf" stroke="black" points="429,-82 429,-112 577,-112 577,-82 429,-82"/>
<text text-anchor="start" x="437" y="-100" font-family="Helvetica,sans-Serif" font-size="10.00">SimIp4Packet::getIpHeader</text>
<text text-anchor="middle" x="503" y="-89" font-family="Helvetica,sans-Serif" font-size="10.00">Checksum</text>
</a>
</g>
</g>
<!-- Node2 -->
<g id="node2" class="node">
<title>Node2</title>
<g id="a_node2"><a xlink:href="group__NTS__IPTX__TEST.html#ga68f4b01bef67002b19d80fa51f7db94a" target="_top" xlink:title="Create the golden reference file from an input test file.">
<polygon fill="none" stroke="black" points="263.5,-190.5 263.5,-209.5 362.5,-209.5 362.5,-190.5 263.5,-190.5"/>
<text text-anchor="middle" x="313" y="-197.5" font-family="Helvetica,sans-Serif" font-size="10.00">createGoldenFile</text>
</a>
</g>
</g>
<!-- Node1&#45;&gt;Node2 -->
<g id="edge1" class="edge">
<title>Node1&#45;&gt;Node2</title>
<path fill="none" stroke="midnightblue" d="M465.27,-117.12C424.9,-139.24 361.77,-173.83 331.43,-190.45"/>
<polygon fill="midnightblue" stroke="midnightblue" points="467.17,-120.07 474.26,-112.2 463.81,-113.93 467.17,-120.07"/>
</g>
<!-- Node4 -->
<g id="node4" class="node">
<title>Node4</title>
<g id="a_node4"><a xlink:href="classSimIp4Packet.html#a56e254cf6292c3fa12a6a6e4ed7bbd6f" target="_top" xlink:title="Checks if the IP header and embedded protocol fields are properly set.">
<polygon fill="none" stroke="black" points="236,-114.5 236,-133.5 390,-133.5 390,-114.5 236,-114.5"/>
<text text-anchor="middle" x="313" y="-121.5" font-family="Helvetica,sans-Serif" font-size="10.00">SimIp4Packet::isWellFormed</text>
</a>
</g>
</g>
<!-- Node1&#45;&gt;Node4 -->
<g id="edge3" class="edge">
<title>Node1&#45;&gt;Node4</title>
<path fill="none" stroke="midnightblue" d="M418.57,-108.98C405.75,-110.82 392.66,-112.7 380.28,-114.48"/>
<polygon fill="midnightblue" stroke="midnightblue" points="419.38,-112.4 428.78,-107.52 418.38,-105.47 419.38,-112.4"/>
</g>
<!-- Node11 -->
<g id="node11" class="node">
<title>Node11</title>
<g id="a_node11"><a xlink:href="classSimIp4Packet.html#acd45073036bd1f8641b8bfc3ea46a49f" target="_top" xlink:title="Print the header details of an IP packet.">
<polygon fill="none" stroke="black" points="249,-68.5 249,-87.5 377,-87.5 377,-68.5 249,-68.5"/>
<text text-anchor="middle" x="313" y="-75.5" font-family="Helvetica,sans-Serif" font-size="10.00">SimIp4Packet::printHdr</text>
</a>
</g>
</g>
<!-- Node1&#45;&gt;Node11 -->
<g id="edge10" class="edge">
<title>Node1&#45;&gt;Node11</title>
<path fill="none" stroke="midnightblue" d="M418.72,-88.58C404.8,-87.18 390.57,-85.74 377.26,-84.39"/>
<polygon fill="midnightblue" stroke="midnightblue" points="418.47,-92.08 428.78,-89.6 419.18,-85.11 418.47,-92.08"/>
</g>
<!-- Node13 -->
<g id="node13" class="node">
<title>Node13</title>
<g id="a_node13"><a xlink:href="classSimIp4Packet.html#a6e26f3eb66455e42e7fc844f34111804" target="_top" xlink:title="Recalculate the IPv4 header checksum and compare it with the one embedded into the packet.">
<polygon fill="none" stroke="black" points="233,-3 233,-33 393,-33 393,-3 233,-3"/>
<text text-anchor="start" x="241" y="-21" font-family="Helvetica,sans-Serif" font-size="10.00">SimIp4Packet::verifyIpHeader</text>
<text text-anchor="middle" x="313" y="-10" font-family="Helvetica,sans-Serif" font-size="10.00">Checksum</text>
</a>
</g>
</g>
<!-- Node1&#45;&gt;Node13 -->
<g id="edge13" class="edge">
<title>Node1&#45;&gt;Node13</title>
<path fill="none" stroke="midnightblue" d="M456.84,-78.02C424.09,-64.26 380.39,-45.9 349.99,-33.12"/>
<polygon fill="midnightblue" stroke="midnightblue" points="455.62,-81.31 466.2,-81.95 458.33,-74.85 455.62,-81.31"/>
</g>
<!-- Node3 -->
<g id="node3" class="node">
<title>Node3</title>
<g id="a_node3"><a xlink:href="group__NTS__IPTX__TEST.html#ga0ddf1224851353fc92bfbff6f499fa97" target="_top" xlink:title="Main function.">
<polygon fill="none" stroke="black" points="118,-228.5 118,-247.5 159,-247.5 159,-228.5 118,-228.5"/>
<text text-anchor="middle" x="138.5" y="-235.5" font-family="Helvetica,sans-Serif" font-size="10.00">main</text>
</a>
</g>
</g>
<!-- Node2&#45;&gt;Node3 -->
<g id="edge2" class="edge">
<title>Node2&#45;&gt;Node3</title>
<path fill="none" stroke="midnightblue" d="M258.28,-211.83C224.57,-219.26 183.08,-228.4 159.12,-233.68"/>
<polygon fill="midnightblue" stroke="midnightblue" points="259.46,-215.16 268.47,-209.59 257.95,-208.32 259.46,-215.16"/>
</g>
<!-- Node5 -->
<g id="node5" class="node">
<title>Node5</title>
<g id="a_node5"><a xlink:href="group__NTS__ICMP__TEST.html#ga652464dca3fe1c76270d52a9acdc94a5" target="_top" xlink:title="Create the golden reference file from an input test file.">
<polygon fill="none" stroke="black" points="89,-190.5 89,-209.5 188,-209.5 188,-190.5 89,-190.5"/>
<text text-anchor="middle" x="138.5" y="-197.5" font-family="Helvetica,sans-Serif" font-size="10.00">createGoldenFile</text>
</a>
</g>
</g>
<!-- Node4&#45;&gt;Node5 -->
<g id="edge4" class="edge">
<title>Node4&#45;&gt;Node5</title>
<path fill="none" stroke="midnightblue" d="M285.62,-138.41C262.62,-150.64 228.16,-168.2 197,-181 188.73,-184.39 179.62,-187.63 171.13,-190.44"/>
<polygon fill="midnightblue" stroke="midnightblue" points="287.27,-141.49 294.43,-133.68 283.97,-135.32 287.27,-141.49"/>
</g>
<!-- Node7 -->
<g id="node7" class="node">
<title>Node7</title>
<g id="a_node7"><a xlink:href="group__NTS__UOE__TEST.html#ga40610514eb0285c8afbe8cfe003638f6" target="_top" xlink:title="Create the golden Rx APP reference files from an input IPRX test file.">
<polygon fill="none" stroke="black" points="80,-152.5 80,-171.5 197,-171.5 197,-152.5 80,-152.5"/>
<text text-anchor="middle" x="138.5" y="-159.5" font-family="Helvetica,sans-Serif" font-size="10.00">createGoldenRxFiles</text>
</a>
</g>
</g>
<!-- Node4&#45;&gt;Node7 -->
<g id="edge6" class="edge">
<title>Node4&#45;&gt;Node7</title>
<path fill="none" stroke="midnightblue" d="M258.65,-135.75C234.26,-141.13 205.74,-147.41 182.72,-152.48"/>
<polygon fill="midnightblue" stroke="midnightblue" points="259.46,-139.16 268.47,-133.59 257.95,-132.32 259.46,-139.16"/>
</g>
<!-- Node9 -->
<g id="node9" class="node">
<title>Node9</title>
<g id="a_node9"><a xlink:href="group__NTS__TOE__TEST.html#ga19626da81d440ab83bcba2f6838ccb87" target="_top" xlink:title="Emulate the behavior of the IP Rx Path (IPRX).">
<polygon fill="none" stroke="black" points="116,-114.5 116,-133.5 161,-133.5 161,-114.5 116,-114.5"/>
<text text-anchor="middle" x="138.5" y="-121.5" font-family="Helvetica,sans-Serif" font-size="10.00">pIPRX</text>
</a>
</g>
</g>
<!-- Node4&#45;&gt;Node9 -->
<g id="edge8" class="edge">
<title>Node4&#45;&gt;Node9</title>
<path fill="none" stroke="midnightblue" d="M225.57,-124C201.58,-124 177.6,-124 161.07,-124"/>
<polygon fill="midnightblue" stroke="midnightblue" points="225.84,-127.5 235.84,-124 225.84,-120.5 225.84,-127.5"/>
</g>
<!-- Node10 -->
<g id="node10" class="node">
<title>Node10</title>
<g id="a_node10"><a xlink:href="group__NTS__TOE__TEST.html#ga5555b85edfa105eb62cf20f0dbdf5962" target="_top" xlink:title="Emulate the behavior of the IP Tx Handler (IPTX).">
<polygon fill="none" stroke="black" points="0,-57.5 0,-76.5 44,-76.5 44,-57.5 0,-57.5"/>
<text text-anchor="middle" x="22" y="-64.5" font-family="Helvetica,sans-Serif" font-size="10.00">pIPTX</text>
</a>
</g>
</g>
<!-- Node4&#45;&gt;Node10 -->
<g id="edge9" class="edge">
<title>Node4&#45;&gt;Node10</title>
<path fill="none" stroke="midnightblue" d="M253.57,-112.48C188.87,-99.72 87.96,-79.81 44.31,-71.2"/>
<polygon fill="midnightblue" stroke="midnightblue" points="253.14,-115.96 263.63,-114.46 254.49,-109.09 253.14,-115.96"/>
</g>
<!-- Node6 -->
<g id="node6" class="node">
<title>Node6</title>
<g id="a_node6"><a xlink:href="group__NTS__ICMP__TEST.html#ga0ddf1224851353fc92bfbff6f499fa97" target="_top" xlink:title="Main function.">
<polygon fill="none" stroke="black" points="1.5,-190.5 1.5,-209.5 42.5,-209.5 42.5,-190.5 1.5,-190.5"/>
<text text-anchor="middle" x="22" y="-197.5" font-family="Helvetica,sans-Serif" font-size="10.00">main</text>
</a>
</g>
</g>
<!-- Node5&#45;&gt;Node6 -->
<g id="edge5" class="edge">
<title>Node5&#45;&gt;Node6</title>
<path fill="none" stroke="midnightblue" d="M78.91,-200C65.76,-200 52.71,-200 42.52,-200"/>
<polygon fill="midnightblue" stroke="midnightblue" points="78.94,-203.5 88.94,-200 78.94,-196.5 78.94,-203.5"/>
</g>
<!-- Node8 -->
<g id="node8" class="node">
<title>Node8</title>
<g id="a_node8"><a xlink:href="group__NTS__UOE__TEST.html#ga0ddf1224851353fc92bfbff6f499fa97" target="_top" xlink:title="Main function.">
<polygon fill="none" stroke="black" points="1.5,-152.5 1.5,-171.5 42.5,-171.5 42.5,-152.5 1.5,-152.5"/>
<text text-anchor="middle" x="22" y="-159.5" font-family="Helvetica,sans-Serif" font-size="10.00">main</text>
</a>
</g>
</g>
<!-- Node7&#45;&gt;Node8 -->
<g id="edge7" class="edge">
<title>Node7&#45;&gt;Node8</title>
<path fill="none" stroke="midnightblue" d="M69.86,-162C59.9,-162 50.38,-162 42.55,-162"/>
<polygon fill="midnightblue" stroke="midnightblue" points="69.91,-165.5 79.91,-162 69.91,-158.5 69.91,-165.5"/>
</g>
<!-- Node12 -->
<g id="node12" class="node">
<title>Node12</title>
<g id="a_node12"><a xlink:href="group__NTS__TOE__TEST.html#ga9a2995ad064c9297d100faa61cd553a9" target="_top" xlink:title="Parse the TCP/IP packets generated by the TOE.">
<polygon fill="none" stroke="black" points="100.5,-38.5 100.5,-57.5 176.5,-57.5 176.5,-38.5 100.5,-38.5"/>
<text text-anchor="middle" x="138.5" y="-45.5" font-family="Helvetica,sans-Serif" font-size="10.00">pIPTX_Parse</text>
</a>
</g>
</g>
<!-- Node11&#45;&gt;Node12 -->
<g id="edge11" class="edge">
<title>Node11&#45;&gt;Node12</title>
<path fill="none" stroke="midnightblue" d="M246.92,-66.68C223.16,-62.55 197.11,-58.02 176.62,-54.46"/>
<polygon fill="midnightblue" stroke="midnightblue" points="246.49,-70.16 256.95,-68.43 247.69,-63.26 246.49,-70.16"/>
</g>
<!-- Node12&#45;&gt;Node10 -->
<g id="edge12" class="edge">
<title>Node12&#45;&gt;Node10</title>
<path fill="none" stroke="midnightblue" d="M90.07,-55.87C74.15,-58.51 57.2,-61.33 44.31,-63.46"/>
<polygon fill="midnightblue" stroke="midnightblue" points="91.03,-59.26 100.33,-54.17 89.89,-52.35 91.03,-59.26"/>
</g>
<!-- Node14 -->
<g id="node14" class="node">
<title>Node14</title>
<g id="a_node14"><a xlink:href="group__NTS__IPRX__TEST.html#ga0b909e5ea146aed33a8de139bebaab84" target="_top" xlink:title="Create the golden reference files from an input test file.">
<polygon fill="none" stroke="black" points="86.5,-0.5 86.5,-19.5 190.5,-19.5 190.5,-0.5 86.5,-0.5"/>
<text text-anchor="middle" x="138.5" y="-7.5" font-family="Helvetica,sans-Serif" font-size="10.00">createGoldenFiles</text>
</a>
</g>
</g>
<!-- Node13&#45;&gt;Node14 -->
<g id="edge14" class="edge">
<title>Node13&#45;&gt;Node14</title>
<path fill="none" stroke="midnightblue" d="M222.71,-13.86C211.69,-13.35 200.75,-12.84 190.59,-12.37"/>
<polygon fill="midnightblue" stroke="midnightblue" points="222.67,-17.36 232.82,-14.33 222.99,-10.37 222.67,-17.36"/>
</g>
<!-- Node15 -->
<g id="node15" class="node">
<title>Node15</title>
<g id="a_node15"><a xlink:href="group__NTS__IPRX__TEST.html#ga0ddf1224851353fc92bfbff6f499fa97" target="_top" xlink:title="Main function.">
<polygon fill="none" stroke="black" points="1.5,-0.5 1.5,-19.5 42.5,-19.5 42.5,-0.5 1.5,-0.5"/>
<text text-anchor="middle" x="22" y="-7.5" font-family="Helvetica,sans-Serif" font-size="10.00">main</text>
</a>
</g>
</g>
<!-- Node14&#45;&gt;Node15 -->
<g id="edge15" class="edge">
<title>Node14&#45;&gt;Node15</title>
<path fill="none" stroke="midnightblue" d="M76.08,-10C63.96,-10 52.08,-10 42.65,-10"/>
<polygon fill="midnightblue" stroke="midnightblue" points="76.28,-13.5 86.28,-10 76.28,-6.5 76.28,-13.5"/>
</g>
</g>
</svg>
