<?xml version="1.0" encoding="UTF-8" standalone="no"?>
<!DOCTYPE svg PUBLIC "-//W3C//DTD SVG 1.1//EN"
 "http://www.w3.org/Graphics/SVG/1.1/DTD/svg11.dtd">
<!-- Generated by graphviz version 2.43.0 (0)
 -->
<!-- Title: SimIp4Packet::getUdpDatagram Pages: 1 -->
<!--zoomable 224 -->
<svg id="main" version="1.1" xmlns="http://www.w3.org/2000/svg" xmlns:xlink="http://www.w3.org/1999/xlink" xml:space="preserve" onload="init(evt)">
<style type="text/css"><![CDATA[
.edge:hover path { stroke: red; }
.edge:hover polygon { stroke: red; fill: red; }
]]></style>
<script type="text/javascript"><![CDATA[
var edges = document.getElementsByTagName('g');
if (edges && edges.length) {
  for (var i=0;i<edges.length;i++) {
    if (edges[i].id.substr(0,4)=='edge') {
      edges[i].setAttribute('class','edge');
    }
  }
}
]]></script>
        <defs>
                <circle id="rim" cx="0" cy="0" r="7"/>
                <circle id="rim2" cx="0" cy="0" r="3.5"/>
                <g id="zoomPlus">
                        <use xlink:href="#rim" fill="#404040">
                                <set attributeName="fill" to="#808080" begin="zoomplus.mouseover" end="zoomplus.mouseout"/>
                        </use>
                        <path d="M-4,0h8M0,-4v8" fill="none" stroke="white" stroke-width="1.5" pointer-events="none"/>
                </g>
                <g id="zoomMin">
                        <use xlink:href="#rim" fill="#404040">
                                <set attributeName="fill" to="#808080" begin="zoomminus.mouseover" end="zoomminus.mouseout"/>
                        </use>
                        <path d="M-4,0h8" fill="none" stroke="white" stroke-width="1.5" pointer-events="none"/>
                </g>
                <g id="dirArrow">
                        <path fill="none" stroke="white" stroke-width="1.5" d="M0,-3.0v7 M-2.5,-0.5L0,-3.0L2.5,-0.5"/>
                </g>
               <g id="resetDef">
                       <use xlink:href="#rim2" fill="#404040">
                               <set attributeName="fill" to="#808080" begin="reset.mouseover" end="reset.mouseout"/>
                       </use>
               </g>
        </defs>

<script type="text/javascript">
var viewWidth = 631;
var viewHeight = 224;
var sectionId = 'dynsection-48';
</script>
<script xlink:href="svgpan.js"/>
<svg id="graph" class="graph">
<g id="viewport">
<title>SimIp4Packet::getUdpDatagram</title>
<!-- Node1 -->
<g id="node1" class="node">
<title>Node1</title>
<g id="a_node1"><a xlink:title=" ">
<polygon fill="#bfbfbf" stroke="black" points="451,-127.5 451,-146.5 623,-146.5 623,-127.5 451,-127.5"/>
<text text-anchor="middle" x="537" y="-134.5" font-family="Helvetica,sans-Serif" font-size="10.00">SimIp4Packet::getUdpDatagram</text>
</a>
</g>
</g>
<!-- Node2 -->
<g id="node2" class="node">
<title>Node2</title>
<g id="a_node2"><a xlink:href="group__NTS__UOE__TEST.html#ga40610514eb0285c8afbe8cfe003638f6" target="_top" xlink:title="Create the golden Rx APP reference files from an input IPRX test file.">
<polygon fill="none" stroke="black" points="77,-152.5 77,-171.5 194,-171.5 194,-152.5 77,-152.5"/>
<text text-anchor="middle" x="135.5" y="-159.5" font-family="Helvetica,sans-Serif" font-size="10.00">createGoldenRxFiles</text>
</a>
</g>
</g>
<!-- Node1&#45;&gt;Node2 -->
<g id="edge1" class="edge">
<title>Node1&#45;&gt;Node2</title>
<path fill="none" stroke="midnightblue" d="M440.63,-142.97C363.91,-147.77 258.61,-154.36 194.19,-158.39"/>
<polygon fill="midnightblue" stroke="midnightblue" points="441.03,-146.45 450.79,-142.33 440.59,-139.46 441.03,-146.45"/>
</g>
<!-- Node4 -->
<g id="node4" class="node">
<title>Node4</title>
<g id="a_node4"><a xlink:href="classSimIp4Packet.html#a56e254cf6292c3fa12a6a6e4ed7bbd6f" target="_top" xlink:title="Checks if the IP header and embedded protocol fields are properly set.">
<polygon fill="none" stroke="black" points="245.5,-108.5 245.5,-127.5 399.5,-127.5 399.5,-108.5 245.5,-108.5"/>
<text text-anchor="middle" x="322.5" y="-115.5" font-family="Helvetica,sans-Serif" font-size="10.00">SimIp4Packet::isWellFormed</text>
</a>
</g>
</g>
<!-- Node1&#45;&gt;Node4 -->
<g id="edge3" class="edge">
<title>Node1&#45;&gt;Node4</title>
<path fill="none" stroke="midnightblue" d="M440.44,-128.46C426.83,-127.24 412.98,-126 399.8,-124.82"/>
<polygon fill="midnightblue" stroke="midnightblue" points="440.52,-131.98 450.79,-129.38 441.14,-125 440.52,-131.98"/>
</g>
<!-- Node9 -->
<g id="node9" class="node">
<title>Node9</title>
<g id="a_node9"><a xlink:href="classSimIp4Packet.html#a46b1a73e1415f5adf102790fd3a52ee5" target="_top" xlink:title="Recalculate checksum of an UDP datagram after it was modified.">
<polygon fill="none" stroke="black" points="241,-185 241,-215 404,-215 404,-185 241,-185"/>
<text text-anchor="start" x="249" y="-203" font-family="Helvetica,sans-Serif" font-size="10.00">SimIp4Packet::udpRecalculate</text>
<text text-anchor="middle" x="322.5" y="-192" font-family="Helvetica,sans-Serif" font-size="10.00">Checksum</text>
</a>
</g>
</g>
<!-- Node1&#45;&gt;Node9 -->
<g id="edge9" class="edge">
<title>Node1&#45;&gt;Node9</title>
<path fill="none" stroke="midnightblue" d="M493.99,-149.45C459.62,-159.64 410.88,-174.09 374.31,-184.93"/>
<polygon fill="midnightblue" stroke="midnightblue" points="495.13,-152.77 503.73,-146.57 493.14,-146.06 495.13,-152.77"/>
</g>
<!-- Node10 -->
<g id="node10" class="node">
<title>Node10</title>
<g id="a_node10"><a xlink:href="classSimIp4Packet.html#aa5a8e5a5e60578f723a82b283b558d90" target="_top" xlink:title="Recalculate the UDP checksum and compare it with the one embedded into the datagram.">
<polygon fill="none" stroke="black" points="230,-35.5 230,-54.5 415,-54.5 415,-35.5 230,-35.5"/>
<text text-anchor="middle" x="322.5" y="-42.5" font-family="Helvetica,sans-Serif" font-size="10.00">SimIp4Packet::udpVerifyChecksum</text>
</a>
</g>
</g>
<!-- Node1&#45;&gt;Node10 -->
<g id="edge11" class="edge">
<title>Node1&#45;&gt;Node10</title>
<path fill="none" stroke="midnightblue" d="M504.38,-123.31C460.8,-104.44 383.37,-70.92 345.54,-54.54"/>
<polygon fill="midnightblue" stroke="midnightblue" points="503.09,-126.57 513.66,-127.33 505.87,-120.14 503.09,-126.57"/>
</g>
<!-- Node3 -->
<g id="node3" class="node">
<title>Node3</title>
<g id="a_node3"><a xlink:href="group__NTS__UOE__TEST.html#ga0ddf1224851353fc92bfbff6f499fa97" target="_top" xlink:title="Main function.">
<polygon fill="none" stroke="black" points="0,-171.5 0,-190.5 41,-190.5 41,-171.5 0,-171.5"/>
<text text-anchor="middle" x="20.5" y="-178.5" font-family="Helvetica,sans-Serif" font-size="10.00">main</text>
</a>
</g>
</g>
<!-- Node2&#45;&gt;Node3 -->
<g id="edge2" class="edge">
<title>Node2&#45;&gt;Node3</title>
<path fill="none" stroke="midnightblue" d="M67.52,-173.26C57.88,-174.88 48.67,-176.43 41.05,-177.71"/>
<polygon fill="midnightblue" stroke="midnightblue" points="68.39,-176.67 77.67,-171.56 67.23,-169.76 68.39,-176.67"/>
</g>
<!-- Node4&#45;&gt;Node2 -->
<g id="edge6" class="edge">
<title>Node4&#45;&gt;Node2</title>
<path fill="none" stroke="midnightblue" d="M271.56,-129.88C241.76,-136.96 204.43,-145.84 176.56,-152.47"/>
<polygon fill="midnightblue" stroke="midnightblue" points="272.44,-133.27 281.36,-127.55 270.82,-126.46 272.44,-133.27"/>
</g>
<!-- Node5 -->
<g id="node5" class="node">
<title>Node5</title>
<g id="a_node5"><a xlink:href="group__NTS__ICMP__TEST.html#ga652464dca3fe1c76270d52a9acdc94a5" target="_top" xlink:title="Create the golden reference file from an input test file.">
<polygon fill="none" stroke="black" points="86,-114.5 86,-133.5 185,-133.5 185,-114.5 86,-114.5"/>
<text text-anchor="middle" x="135.5" y="-121.5" font-family="Helvetica,sans-Serif" font-size="10.00">createGoldenFile</text>
</a>
</g>
</g>
<!-- Node4&#45;&gt;Node5 -->
<g id="edge4" class="edge">
<title>Node4&#45;&gt;Node5</title>
<path fill="none" stroke="midnightblue" d="M235.33,-120.79C218.04,-121.36 200.45,-121.93 185,-122.43"/>
<polygon fill="midnightblue" stroke="midnightblue" points="235.57,-124.29 245.45,-120.47 235.34,-117.29 235.57,-124.29"/>
</g>
<!-- Node7 -->
<g id="node7" class="node">
<title>Node7</title>
<g id="a_node7"><a xlink:href="group__NTS__TOE__TEST.html#ga19626da81d440ab83bcba2f6838ccb87" target="_top" xlink:title="Emulate the behavior of the IP Rx Path (IPRX).">
<polygon fill="none" stroke="black" points="113,-76.5 113,-95.5 158,-95.5 158,-76.5 113,-76.5"/>
<text text-anchor="middle" x="135.5" y="-83.5" font-family="Helvetica,sans-Serif" font-size="10.00">pIPRX</text>
</a>
</g>
</g>
<!-- Node4&#45;&gt;Node7 -->
<g id="edge7" class="edge">
<title>Node4&#45;&gt;Node7</title>
<path fill="none" stroke="midnightblue" d="M256.53,-106.76C222.27,-100.84 182.46,-93.95 158.39,-89.79"/>
<polygon fill="midnightblue" stroke="midnightblue" points="256.04,-110.23 266.49,-108.49 257.24,-103.33 256.04,-110.23"/>
</g>
<!-- Node8 -->
<g id="node8" class="node">
<title>Node8</title>
<g id="a_node8"><a xlink:href="group__NTS__TOE__TEST.html#ga5555b85edfa105eb62cf20f0dbdf5962" target="_top" xlink:title="Emulate the behavior of the IP Tx Handler (IPTX).">
<polygon fill="none" stroke="black" points="113.5,-38.5 113.5,-57.5 157.5,-57.5 157.5,-38.5 113.5,-38.5"/>
<text text-anchor="middle" x="135.5" y="-45.5" font-family="Helvetica,sans-Serif" font-size="10.00">pIPTX</text>
</a>
</g>
</g>
<!-- Node4&#45;&gt;Node8 -->
<g id="edge8" class="edge">
<title>Node4&#45;&gt;Node8</title>
<path fill="none" stroke="midnightblue" d="M289.38,-104.52C263.73,-93.9 226.77,-78.95 194,-67 182.05,-62.64 168.55,-58.16 157.64,-54.64"/>
<polygon fill="midnightblue" stroke="midnightblue" points="288.05,-107.76 298.63,-108.36 290.74,-101.29 288.05,-107.76"/>
</g>
<!-- Node6 -->
<g id="node6" class="node">
<title>Node6</title>
<g id="a_node6"><a xlink:href="group__NTS__ICMP__TEST.html#ga0ddf1224851353fc92bfbff6f499fa97" target="_top" xlink:title="Main function.">
<polygon fill="none" stroke="black" points="0,-114.5 0,-133.5 41,-133.5 41,-114.5 0,-114.5"/>
<text text-anchor="middle" x="20.5" y="-121.5" font-family="Helvetica,sans-Serif" font-size="10.00">main</text>
</a>
</g>
</g>
<!-- Node5&#45;&gt;Node6 -->
<g id="edge5" class="edge">
<title>Node5&#45;&gt;Node6</title>
<path fill="none" stroke="midnightblue" d="M75.86,-124C63.3,-124 50.88,-124 41.09,-124"/>
<polygon fill="midnightblue" stroke="midnightblue" points="75.92,-127.5 85.92,-124 75.92,-120.5 75.92,-127.5"/>
</g>
<!-- Node9&#45;&gt;Node3 -->
<g id="edge10" class="edge">
<title>Node9&#45;&gt;Node3</title>
<path fill="none" stroke="midnightblue" d="M230.61,-194.24C163.99,-190.02 78.86,-184.63 41.07,-182.24"/>
<polygon fill="midnightblue" stroke="midnightblue" points="230.51,-197.74 240.71,-194.88 230.95,-190.76 230.51,-197.74"/>
</g>
<!-- Node11 -->
<g id="node11" class="node">
<title>Node11</title>
<g id="a_node11"><a xlink:href="group__NTS__IPTX__TEST.html#ga68f4b01bef67002b19d80fa51f7db94a" target="_top" xlink:title="Create the golden reference file from an input test file.">
<polygon fill="none" stroke="black" points="86,-0.5 86,-19.5 185,-19.5 185,-0.5 86,-0.5"/>
<text text-anchor="middle" x="135.5" y="-7.5" font-family="Helvetica,sans-Serif" font-size="10.00">createGoldenFile</text>
</a>
</g>
</g>
<!-- Node10&#45;&gt;Node11 -->
<g id="edge12" class="edge">
<title>Node10&#45;&gt;Node11</title>
<path fill="none" stroke="midnightblue" d="M260.99,-33.55C236.38,-28.9 208.32,-23.59 185.08,-19.19"/>
<polygon fill="midnightblue" stroke="midnightblue" points="260.47,-37.02 270.95,-35.44 261.77,-30.14 260.47,-37.02"/>
</g>
<!-- Node12 -->
<g id="node12" class="node">
<title>Node12</title>
<g id="a_node12"><a xlink:href="group__NTS__IPTX__TEST.html#ga0ddf1224851353fc92bfbff6f499fa97" target="_top" xlink:title="Main function.">
<polygon fill="none" stroke="black" points="0,-0.5 0,-19.5 41,-19.5 41,-0.5 0,-0.5"/>
<text text-anchor="middle" x="20.5" y="-7.5" font-family="Helvetica,sans-Serif" font-size="10.00">main</text>
</a>
</g>
</g>
<!-- Node11&#45;&gt;Node12 -->
<g id="edge13" class="edge">
<title>Node11&#45;&gt;Node12</title>
<path fill="none" stroke="midnightblue" d="M75.86,-10C63.3,-10 50.88,-10 41.09,-10"/>
<polygon fill="midnightblue" stroke="midnightblue" points="75.92,-13.5 85.92,-10 75.92,-6.5 75.92,-13.5"/>
</g>
</g>
</svg>
        <g id="navigator" transform="translate(0 0)" fill="#404254">
                <rect fill="#f2f5e9" fill-opacity="0.5" stroke="#606060" stroke-width=".5" x="0" y="0" width="60" height="60"/>
                <use id="zoomplus" xlink:href="#zoomPlus" x="17" y="9" onmousedown="handleZoom(evt,'in')"/>
                <use id="zoomminus" xlink:href="#zoomMin" x="42" y="9" onmousedown="handleZoom(evt,'out')"/>
                <use id="reset" xlink:href="#resetDef" x="30" y="36" onmousedown="handleReset()"/>
                <g id="arrowUp" xlink:href="#dirArrow" transform="translate(30 24)" onmousedown="handlePan(0,-1)">
                  <use xlink:href="#rim" fill="#404040">
                        <set attributeName="fill" to="#808080" begin="arrowUp.mouseover" end="arrowUp.mouseout"/>
                  </use>
                  <path fill="none" stroke="white" stroke-width="1.5" d="M0,-3.0v7 M-2.5,-0.5L0,-3.0L2.5,-0.5"/>
                </g>
                <g id="arrowRight" xlink:href="#dirArrow" transform="rotate(90) translate(36 -43)" onmousedown="handlePan(1,0)">
                  <use xlink:href="#rim" fill="#404040">
                        <set attributeName="fill" to="#808080" begin="arrowRight.mouseover" end="arrowRight.mouseout"/>
                  </use>
                  <path fill="none" stroke="white" stroke-width="1.5" d="M0,-3.0v7 M-2.5,-0.5L0,-3.0L2.5,-0.5"/>
                </g>
                <g id="arrowDown" xlink:href="#dirArrow" transform="rotate(180) translate(-30 -48)" onmousedown="handlePan(0,1)">
                  <use xlink:href="#rim" fill="#404040">
                        <set attributeName="fill" to="#808080" begin="arrowDown.mouseover" end="arrowDown.mouseout"/>
                  </use>
                  <path fill="none" stroke="white" stroke-width="1.5" d="M0,-3.0v7 M-2.5,-0.5L0,-3.0L2.5,-0.5"/>
                </g>
                <g id="arrowLeft" xlink:href="#dirArrow" transform="rotate(270) translate(-36 17)" onmousedown="handlePan(-1,0)">
                  <use xlink:href="#rim" fill="#404040">
                        <set attributeName="fill" to="#808080" begin="arrowLeft.mouseover" end="arrowLeft.mouseout"/>
                  </use>
                  <path fill="none" stroke="white" stroke-width="1.5" d="M0,-3.0v7 M-2.5,-0.5L0,-3.0L2.5,-0.5"/>
                </g>
        </g>
        <svg viewBox="0 0 15 15" width="100%" height="30px" preserveAspectRatio="xMaxYMin meet">
         <g id="arrow_out" transform="scale(0.3 0.3)">
          <a xlink:href="classSimIp4Packet_a894f22a2fb248027b3457937faf5f934_icgraph_org.svg" target="_base">
           <rect id="button" ry="5" rx="5" y="6" x="6" height="38" width="38"
                fill="#f2f5e9" fill-opacity="0.5" stroke="#606060" stroke-width="1.0"/>
           <path id="arrow"
             d="M 11.500037,31.436501 C 11.940474,20.09759 22.043105,11.32322 32.158766,21.979434 L 37.068811,17.246167 C 37.068811,17.246167 37.088388,32 37.088388,32 L 22.160133,31.978069 C 22.160133,31.978069 26.997745,27.140456 26.997745,27.140456 C 18.528582,18.264221 13.291696,25.230495 11.500037,31.436501 z"
             style="fill:#404040;"/>
          </a>
         </g>
        </svg>
</svg>
