<?xml version="1.0" encoding="UTF-8" standalone="no"?>
<!DOCTYPE svg PUBLIC "-//W3C//DTD SVG 1.1//EN"
 "http://www.w3.org/Graphics/SVG/1.1/DTD/svg11.dtd">
<!-- Generated by graphviz version 2.43.0 (0)
 -->
<!-- Title: SimIp4Packet::setIpProtocol Pages: 1 -->
<svg width="561pt" height="142pt"
 viewBox="0.00 0.00 561.00 142.00" xmlns="http://www.w3.org/2000/svg" xmlns:xlink="http://www.w3.org/1999/xlink">
<g id="graph0" class="graph" transform="scale(1 1) rotate(0) translate(4 138)">
<title>SimIp4Packet::setIpProtocol</title>
<!-- Node1 -->
<g id="node1" class="node">
<title>Node1</title>
<g id="a_node1"><a xlink:title=" ">
<polygon fill="#bfbfbf" stroke="black" points="401,-38.5 401,-57.5 553,-57.5 553,-38.5 401,-38.5"/>
<text text-anchor="middle" x="477" y="-45.5" font-family="Helvetica,sans-Serif" font-size="10.00">SimIp4Packet::setIpProtocol</text>
</a>
</g>
</g>
<!-- Node2 -->
<g id="node2" class="node">
<title>Node2</title>
<g id="a_node2"><a xlink:href="classSimIp4Packet.html#ad0e76afdc3d67fb491ae2a8a949dbda5" target="_top" xlink:title="Append some data to this packet from a UDP datagram.">
<polygon fill="none" stroke="black" points="212,-76.5 212,-95.5 365,-95.5 365,-76.5 212,-76.5"/>
<text text-anchor="middle" x="288.5" y="-83.5" font-family="Helvetica,sans-Serif" font-size="10.00">SimIp4Packet::addIpPayload</text>
</a>
</g>
</g>
<!-- Node1&#45;&gt;Node2 -->
<g id="edge1" class="edge">
<title>Node1&#45;&gt;Node2</title>
<path fill="none" stroke="midnightblue" d="M419.02,-59.61C392.5,-65.01 361.33,-71.36 336.22,-76.48"/>
<polygon fill="midnightblue" stroke="midnightblue" points="419.84,-63.02 428.94,-57.59 418.44,-56.16 419.84,-63.02"/>
</g>
<!-- Node6 -->
<g id="node6" class="node">
<title>Node6</title>
<g id="a_node6"><a xlink:href="group__NTS__TOE__TEST.html#ga9a2995ad064c9297d100faa61cd553a9" target="_top" xlink:title="Parse the TCP/IP packets generated by the TOE.">
<polygon fill="none" stroke="black" points="250.5,-38.5 250.5,-57.5 326.5,-57.5 326.5,-38.5 250.5,-38.5"/>
<text text-anchor="middle" x="288.5" y="-45.5" font-family="Helvetica,sans-Serif" font-size="10.00">pIPTX_Parse</text>
</a>
</g>
</g>
<!-- Node1&#45;&gt;Node6 -->
<g id="edge5" class="edge">
<title>Node1&#45;&gt;Node6</title>
<path fill="none" stroke="midnightblue" d="M390.66,-48C368.14,-48 345,-48 326.55,-48"/>
<polygon fill="midnightblue" stroke="midnightblue" points="390.95,-51.5 400.95,-48 390.95,-44.5 390.95,-51.5"/>
</g>
<!-- Node8 -->
<g id="node8" class="node">
<title>Node8</title>
<g id="a_node8"><a xlink:href="classSimIp4Packet.html#a8cf7f8a9e472882a6231e406d70a208a" target="_top" xlink:title=" ">
<polygon fill="none" stroke="black" points="212,-0.5 212,-19.5 365,-19.5 365,-0.5 212,-0.5"/>
<text text-anchor="middle" x="288.5" y="-7.5" font-family="Helvetica,sans-Serif" font-size="10.00">SimIp4Packet::SimIp4Packet</text>
</a>
</g>
</g>
<!-- Node1&#45;&gt;Node8 -->
<g id="edge7" class="edge">
<title>Node1&#45;&gt;Node8</title>
<path fill="none" stroke="midnightblue" d="M419.02,-36.39C392.5,-30.99 361.33,-24.64 336.22,-19.52"/>
<polygon fill="midnightblue" stroke="midnightblue" points="418.44,-39.84 428.94,-38.41 419.84,-32.98 418.44,-39.84"/>
</g>
<!-- Node3 -->
<g id="node3" class="node">
<title>Node3</title>
<g id="a_node3"><a xlink:href="group__NTS__ICMP__TEST.html#ga652464dca3fe1c76270d52a9acdc94a5" target="_top" xlink:title="Create the golden reference file from an input test file.">
<polygon fill="none" stroke="black" points="77,-114.5 77,-133.5 176,-133.5 176,-114.5 77,-114.5"/>
<text text-anchor="middle" x="126.5" y="-121.5" font-family="Helvetica,sans-Serif" font-size="10.00">createGoldenFile</text>
</a>
</g>
</g>
<!-- Node2&#45;&gt;Node3 -->
<g id="edge2" class="edge">
<title>Node2&#45;&gt;Node3</title>
<path fill="none" stroke="midnightblue" d="M237.11,-97.97C214.69,-103.29 188.65,-109.48 167.58,-114.48"/>
<polygon fill="midnightblue" stroke="midnightblue" points="238.2,-101.31 247.13,-95.59 236.59,-94.49 238.2,-101.31"/>
</g>
<!-- Node5 -->
<g id="node5" class="node">
<title>Node5</title>
<g id="a_node5"><a xlink:href="group__NTS__UOE__TEST.html#ga0ddf1224851353fc92bfbff6f499fa97" target="_top" xlink:title="Main function.">
<polygon fill="none" stroke="black" points="106,-76.5 106,-95.5 147,-95.5 147,-76.5 106,-76.5"/>
<text text-anchor="middle" x="126.5" y="-83.5" font-family="Helvetica,sans-Serif" font-size="10.00">main</text>
</a>
</g>
</g>
<!-- Node2&#45;&gt;Node5 -->
<g id="edge4" class="edge">
<title>Node2&#45;&gt;Node5</title>
<path fill="none" stroke="midnightblue" d="M201.62,-86C181.1,-86 161.1,-86 147.05,-86"/>
<polygon fill="midnightblue" stroke="midnightblue" points="201.72,-89.5 211.72,-86 201.72,-82.5 201.72,-89.5"/>
</g>
<!-- Node4 -->
<g id="node4" class="node">
<title>Node4</title>
<g id="a_node4"><a xlink:href="group__NTS__ICMP__TEST.html#ga0ddf1224851353fc92bfbff6f499fa97" target="_top" xlink:title="Main function.">
<polygon fill="none" stroke="black" points="0,-114.5 0,-133.5 41,-133.5 41,-114.5 0,-114.5"/>
<text text-anchor="middle" x="20.5" y="-121.5" font-family="Helvetica,sans-Serif" font-size="10.00">main</text>
</a>
</g>
</g>
<!-- Node3&#45;&gt;Node4 -->
<g id="edge3" class="edge">
<title>Node3&#45;&gt;Node4</title>
<path fill="none" stroke="midnightblue" d="M66.74,-124C57.48,-124 48.5,-124 41.02,-124"/>
<polygon fill="midnightblue" stroke="midnightblue" points="66.85,-127.5 76.85,-124 66.85,-120.5 66.85,-127.5"/>
</g>
<!-- Node7 -->
<g id="node7" class="node">
<title>Node7</title>
<g id="a_node7"><a xlink:href="group__NTS__TOE__TEST.html#ga5555b85edfa105eb62cf20f0dbdf5962" target="_top" xlink:title="Emulate the behavior of the IP Tx Handler (IPTX).">
<polygon fill="none" stroke="black" points="104.5,-38.5 104.5,-57.5 148.5,-57.5 148.5,-38.5 104.5,-38.5"/>
<text text-anchor="middle" x="126.5" y="-45.5" font-family="Helvetica,sans-Serif" font-size="10.00">pIPTX</text>
</a>
</g>
</g>
<!-- Node6&#45;&gt;Node7 -->
<g id="edge6" class="edge">
<title>Node6&#45;&gt;Node7</title>
<path fill="none" stroke="midnightblue" d="M240.02,-48C209.69,-48 171.86,-48 148.71,-48"/>
<polygon fill="midnightblue" stroke="midnightblue" points="240.39,-51.5 250.39,-48 240.39,-44.5 240.39,-51.5"/>
</g>
</g>
</svg>
