<?xml version="1.0" encoding="UTF-8" standalone="no"?>
<!DOCTYPE svg PUBLIC "-//W3C//DTD SVG 1.1//EN"
 "http://www.w3.org/Graphics/SVG/1.1/DTD/svg11.dtd">
<!-- Generated by graphviz version 2.43.0 (0)
 -->
<!-- Title: repos_for_Dox/cFp_Zoo/ROLE/custom/hls/common/src/common.cpp Pages: 1 -->
<svg width="539pt" height="128pt"
 viewBox="0.00 0.00 538.50 128.00" xmlns="http://www.w3.org/2000/svg" xmlns:xlink="http://www.w3.org/1999/xlink">
<g id="graph0" class="graph" transform="scale(1 1) rotate(0) translate(4 124)">
<title>repos_for_Dox/cFp_Zoo/ROLE/custom/hls/common/src/common.cpp</title>
<!-- Node1 -->
<g id="node1" class="node">
<title>Node1</title>
<g id="a_node1"><a xlink:title=" ">
<polygon fill="#bfbfbf" stroke="black" points="171,-78.5 171,-119.5 318,-119.5 318,-78.5 171,-78.5"/>
<text text-anchor="start" x="179" y="-107.5" font-family="Helvetica,sans-Serif" font-size="10.00">repos_for_Dox/cFp_Zoo</text>
<text text-anchor="start" x="179" y="-96.5" font-family="Helvetica,sans-Serif" font-size="10.00">/ROLE/custom/hls/common</text>
<text text-anchor="middle" x="244.5" y="-85.5" font-family="Helvetica,sans-Serif" font-size="10.00">/src/common.cpp</text>
</a>
</g>
</g>
<!-- Node2 -->
<g id="node2" class="node">
<title>Node2</title>
<g id="a_node2"><a xlink:href="test__memtest_8cpp.html" target="_top" xlink:title=": Testbench for Memtest.">
<polygon fill="none" stroke="black" points="0,-0.5 0,-41.5 149,-41.5 149,-0.5 0,-0.5"/>
<text text-anchor="start" x="8" y="-29.5" font-family="Helvetica,sans-Serif" font-size="10.00">repos_for_Dox/cFp_Zoo</text>
<text text-anchor="start" x="8" y="-18.5" font-family="Helvetica,sans-Serif" font-size="10.00">/ROLE/custom/hls/memtest</text>
<text text-anchor="middle" x="74.5" y="-7.5" font-family="Helvetica,sans-Serif" font-size="10.00">/test/test_memtest.cpp</text>
</a>
</g>
</g>
<!-- Node1&#45;&gt;Node2 -->
<g id="edge1" class="edge">
<title>Node1&#45;&gt;Node2</title>
<path fill="none" stroke="midnightblue" d="M191.55,-74.33C167.96,-63.78 140.52,-51.51 118.13,-41.51"/>
<polygon fill="midnightblue" stroke="midnightblue" points="190.16,-77.54 200.72,-78.43 193.02,-71.15 190.16,-77.54"/>
</g>
<!-- Node3 -->
<g id="node3" class="node">
<title>Node3</title>
<g id="a_node3"><a xlink:href="test_2test__uppercase_8cpp.html" target="_top" xlink:title=": Testbench for Uppercase.">
<polygon fill="none" stroke="black" points="167,-0.5 167,-41.5 322,-41.5 322,-0.5 167,-0.5"/>
<text text-anchor="start" x="175" y="-29.5" font-family="Helvetica,sans-Serif" font-size="10.00">repos_for_Dox/cFp_Zoo</text>
<text text-anchor="start" x="175" y="-18.5" font-family="Helvetica,sans-Serif" font-size="10.00">/ROLE/custom/hls/uppercase</text>
<text text-anchor="middle" x="244.5" y="-7.5" font-family="Helvetica,sans-Serif" font-size="10.00">/test/test_uppercase.cpp</text>
</a>
</g>
</g>
<!-- Node1&#45;&gt;Node3 -->
<g id="edge2" class="edge">
<title>Node1&#45;&gt;Node3</title>
<path fill="none" stroke="midnightblue" d="M244.5,-68.3C244.5,-59.3 244.5,-49.65 244.5,-41.51"/>
<polygon fill="midnightblue" stroke="midnightblue" points="241,-68.43 244.5,-78.43 248,-68.43 241,-68.43"/>
</g>
<!-- Node4 -->
<g id="node4" class="node">
<title>Node4</title>
<g id="a_node4"><a xlink:href="start__stop_2test_2test__uppercase_8cpp.html" target="_top" xlink:title=": Testbench for Uppercase.">
<polygon fill="none" stroke="black" points="340.5,-0.5 340.5,-41.5 530.5,-41.5 530.5,-0.5 340.5,-0.5"/>
<text text-anchor="start" x="348.5" y="-29.5" font-family="Helvetica,sans-Serif" font-size="10.00">repos_for_Dox/cFp_Zoo</text>
<text text-anchor="start" x="348.5" y="-18.5" font-family="Helvetica,sans-Serif" font-size="10.00">/ROLE/custom/hls/uppercase</text>
<text text-anchor="middle" x="435.5" y="-7.5" font-family="Helvetica,sans-Serif" font-size="10.00">_start_stop/test/test_uppercase.cpp</text>
</a>
</g>
</g>
<!-- Node1&#45;&gt;Node4 -->
<g id="edge3" class="edge">
<title>Node1&#45;&gt;Node4</title>
<path fill="none" stroke="midnightblue" d="M303.29,-74.61C329.95,-64 361.11,-51.6 386.48,-41.51"/>
<polygon fill="midnightblue" stroke="midnightblue" points="301.68,-71.48 293.69,-78.43 304.27,-77.98 301.68,-71.48"/>
</g>
</g>
</svg>
