<?xml version="1.0" encoding="UTF-8" standalone="no"?>
<!DOCTYPE svg PUBLIC "-//W3C//DTD SVG 1.1//EN"
 "http://www.w3.org/Graphics/SVG/1.1/DTD/svg11.dtd">
<!-- Generated by graphviz version 2.43.0 (0)
 -->
<!-- Title: repos_for_Dox/cFp_Zoo/HOST/custom/memtest/languages/cplusplus/include/config.h Pages: 1 -->
<!--zoomable 317 -->
<svg id="main" version="1.1" xmlns="http://www.w3.org/2000/svg" xmlns:xlink="http://www.w3.org/1999/xlink" xml:space="preserve" onload="init(evt)">
<style type="text/css"><![CDATA[
.edge:hover path { stroke: red; }
.edge:hover polygon { stroke: red; fill: red; }
]]></style>
<script type="text/javascript"><![CDATA[
var edges = document.getElementsByTagName('g');
if (edges && edges.length) {
  for (var i=0;i<edges.length;i++) {
    if (edges[i].id.substr(0,4)=='edge') {
      edges[i].setAttribute('class','edge');
    }
  }
}
]]></script>
        <defs>
                <circle id="rim" cx="0" cy="0" r="7"/>
                <circle id="rim2" cx="0" cy="0" r="3.5"/>
                <g id="zoomPlus">
                        <use xlink:href="#rim" fill="#404040">
                                <set attributeName="fill" to="#808080" begin="zoomplus.mouseover" end="zoomplus.mouseout"/>
                        </use>
                        <path d="M-4,0h8M0,-4v8" fill="none" stroke="white" stroke-width="1.5" pointer-events="none"/>
                </g>
                <g id="zoomMin">
                        <use xlink:href="#rim" fill="#404040">
                                <set attributeName="fill" to="#808080" begin="zoomminus.mouseover" end="zoomminus.mouseout"/>
                        </use>
                        <path d="M-4,0h8" fill="none" stroke="white" stroke-width="1.5" pointer-events="none"/>
                </g>
                <g id="dirArrow">
                        <path fill="none" stroke="white" stroke-width="1.5" d="M0,-3.0v7 M-2.5,-0.5L0,-3.0L2.5,-0.5"/>
                </g>
               <g id="resetDef">
                       <use xlink:href="#rim2" fill="#404040">
                               <set attributeName="fill" to="#808080" begin="reset.mouseover" end="reset.mouseout"/>
                       </use>
               </g>
        </defs>

<script type="text/javascript">
var viewWidth = 690;
var viewHeight = 317;
var sectionId = 'dynsection-0';
</script>
<script xlink:href="svgpan.js"/>
<svg id="graph" class="graph">
<g id="viewport">
<title>repos_for_Dox/cFp_Zoo/HOST/custom/memtest/languages/cplusplus/include/config.h</title>
<!-- Node1 -->
<g id="node1" class="node">
<title>Node1</title>
<g id="a_node1"><a xlink:title="The configuration of a Memtest Example application (UDP or TCP)">
<polygon fill="#bfbfbf" stroke="black" points="232.5,-256.5 232.5,-308.5 389.5,-308.5 389.5,-256.5 232.5,-256.5"/>
<text text-anchor="start" x="240.5" y="-296.5" font-family="Helvetica,sans-Serif" font-size="10.00">repos_for_Dox/cFp_Zoo</text>
<text text-anchor="start" x="240.5" y="-285.5" font-family="Helvetica,sans-Serif" font-size="10.00">/HOST/custom/memtest</text>
<text text-anchor="start" x="240.5" y="-274.5" font-family="Helvetica,sans-Serif" font-size="10.00">/languages/cplusplus/include</text>
<text text-anchor="middle" x="311" y="-263.5" font-family="Helvetica,sans-Serif" font-size="10.00">/config.h</text>
</a>
</g>
</g>
<!-- Node2 -->
<g id="node2" class="node">
<title>Node2</title>
<g id="a_node2"><a xlink:href="HOST_2custom_2memtest_2languages_2cplusplus_2include_2common_8hpp.html" target="_top" xlink:title=" ">
<polygon fill="none" stroke="black" points="106.5,-167.5 106.5,-219.5 263.5,-219.5 263.5,-167.5 106.5,-167.5"/>
<text text-anchor="start" x="114.5" y="-207.5" font-family="Helvetica,sans-Serif" font-size="10.00">repos_for_Dox/cFp_Zoo</text>
<text text-anchor="start" x="114.5" y="-196.5" font-family="Helvetica,sans-Serif" font-size="10.00">/HOST/custom/memtest</text>
<text text-anchor="start" x="114.5" y="-185.5" font-family="Helvetica,sans-Serif" font-size="10.00">/languages/cplusplus/include</text>
<text text-anchor="middle" x="185" y="-174.5" font-family="Helvetica,sans-Serif" font-size="10.00">/common.hpp</text>
</a>
</g>
</g>
<!-- Node1&#45;&gt;Node2 -->
<g id="edge1" class="edge">
<title>Node1&#45;&gt;Node2</title>
<path fill="none" stroke="midnightblue" d="M266.11,-250.5C251.43,-240.37 235.33,-229.25 221.36,-219.61"/>
<polygon fill="midnightblue" stroke="midnightblue" points="264.34,-253.53 274.56,-256.34 268.32,-247.77 264.34,-253.53"/>
</g>
<!-- Node3 -->
<g id="node3" class="node">
<title>Node3</title>
<g id="a_node3"><a xlink:href="memtest__host_8cpp.html" target="_top" xlink:title="Memtest userspace application for cF (x86, ppc64).">
<polygon fill="none" stroke="black" points="0,-78.5 0,-130.5 136,-130.5 136,-78.5 0,-78.5"/>
<text text-anchor="start" x="8" y="-118.5" font-family="Helvetica,sans-Serif" font-size="10.00">repos_for_Dox/cFp_Zoo</text>
<text text-anchor="start" x="8" y="-107.5" font-family="Helvetica,sans-Serif" font-size="10.00">/HOST/custom/memtest</text>
<text text-anchor="start" x="8" y="-96.5" font-family="Helvetica,sans-Serif" font-size="10.00">/languages/cplusplus/src</text>
<text text-anchor="middle" x="68" y="-85.5" font-family="Helvetica,sans-Serif" font-size="10.00">/memtest_host.cpp</text>
</a>
</g>
</g>
<!-- Node1&#45;&gt;Node3 -->
<g id="edge4" class="edge">
<title>Node1&#45;&gt;Node3</title>
<path fill="none" stroke="midnightblue" d="M222.46,-276.27C179.19,-269.19 129.56,-253.62 97,-220 73.89,-196.14 68.41,-156.63 67.51,-130.82"/>
<polygon fill="midnightblue" stroke="midnightblue" points="222.03,-279.75 232.44,-277.77 223.07,-272.82 222.03,-279.75"/>
</g>
<!-- Node4 -->
<g id="node4" class="node">
<title>Node4</title>
<g id="a_node4"><a xlink:href="memtest__host__fwd__tb_8cpp.html" target="_top" xlink:title="Testbench for Memtest userspace application for cF (x86, ppc64).">
<polygon fill="none" stroke="black" points="154,-78.5 154,-130.5 302,-130.5 302,-78.5 154,-78.5"/>
<text text-anchor="start" x="162" y="-118.5" font-family="Helvetica,sans-Serif" font-size="10.00">repos_for_Dox/cFp_Zoo</text>
<text text-anchor="start" x="162" y="-107.5" font-family="Helvetica,sans-Serif" font-size="10.00">/HOST/custom/memtest</text>
<text text-anchor="start" x="162" y="-96.5" font-family="Helvetica,sans-Serif" font-size="10.00">/languages/cplusplus/src</text>
<text text-anchor="middle" x="228" y="-85.5" font-family="Helvetica,sans-Serif" font-size="10.00">/memtest_host_fwd_tb.cpp</text>
</a>
</g>
</g>
<!-- Node1&#45;&gt;Node4 -->
<g id="edge5" class="edge">
<title>Node1&#45;&gt;Node4</title>
<path fill="none" stroke="midnightblue" d="M301.91,-246.3C295.23,-223.08 285.04,-192.38 272,-167 265.52,-154.39 256.68,-141.47 248.62,-130.75"/>
<polygon fill="midnightblue" stroke="midnightblue" points="298.58,-247.39 304.65,-256.07 305.32,-245.5 298.58,-247.39"/>
</g>
<!-- Node5 -->
<g id="node5" class="node">
<title>Node5</title>
<g id="a_node5"><a xlink:href="memtest__library_8hpp.html" target="_top" xlink:title="A library for some common functionalities: Network&#45;Related Memory interaction Performance Counters.">
<polygon fill="none" stroke="black" points="524,-173 524,-214 682,-214 682,-173 524,-173"/>
<text text-anchor="start" x="532" y="-202" font-family="Helvetica,sans-Serif" font-size="10.00">repos_for_Dox/cFp_Zoo</text>
<text text-anchor="start" x="532" y="-191" font-family="Helvetica,sans-Serif" font-size="10.00">/ROLE/custom/hls/memtest</text>
<text text-anchor="middle" x="603" y="-180" font-family="Helvetica,sans-Serif" font-size="10.00">/include/memtest_library.hpp</text>
</a>
</g>
</g>
<!-- Node1&#45;&gt;Node5 -->
<g id="edge6" class="edge">
<title>Node1&#45;&gt;Node5</title>
<path fill="none" stroke="midnightblue" d="M399.24,-255.21C443.56,-242 496.34,-226.28 537.07,-214.14"/>
<polygon fill="midnightblue" stroke="midnightblue" points="398.22,-251.86 389.63,-258.07 400.22,-258.57 398.22,-251.86"/>
</g>
<!-- Node7 -->
<g id="node7" class="node">
<title>Node7</title>
<g id="a_node7"><a xlink:href="memtest_8cpp.html" target="_top" xlink:title="The Role for a Memtest Example application (UDP or TCP)">
<polygon fill="none" stroke="black" points="352.5,-0.5 352.5,-41.5 501.5,-41.5 501.5,-0.5 352.5,-0.5"/>
<text text-anchor="start" x="360.5" y="-29.5" font-family="Helvetica,sans-Serif" font-size="10.00">repos_for_Dox/cFp_Zoo</text>
<text text-anchor="start" x="360.5" y="-18.5" font-family="Helvetica,sans-Serif" font-size="10.00">/ROLE/custom/hls/memtest</text>
<text text-anchor="middle" x="427" y="-7.5" font-family="Helvetica,sans-Serif" font-size="10.00">/src/memtest.cpp</text>
</a>
</g>
</g>
<!-- Node1&#45;&gt;Node7 -->
<g id="edge13" class="edge">
<title>Node1&#45;&gt;Node7</title>
<path fill="none" stroke="midnightblue" d="M318.06,-246.35C327.49,-204.32 346.74,-132.8 378,-78 385.55,-64.76 396.55,-51.83 406.22,-41.73"/>
<polygon fill="midnightblue" stroke="midnightblue" points="314.58,-245.85 315.87,-256.37 321.42,-247.35 314.58,-245.85"/>
</g>
<!-- Node8 -->
<g id="node8" class="node">
<title>Node8</title>
<g id="a_node8"><a xlink:href="memtest__pattern__library_8hpp.html" target="_top" xlink:title="A library for memory test functionalities: sequence generation, reading, writing.">
<polygon fill="none" stroke="black" points="357.5,-167.5 357.5,-219.5 506.5,-219.5 506.5,-167.5 357.5,-167.5"/>
<text text-anchor="start" x="365.5" y="-207.5" font-family="Helvetica,sans-Serif" font-size="10.00">repos_for_Dox/cFp_Zoo</text>
<text text-anchor="start" x="365.5" y="-196.5" font-family="Helvetica,sans-Serif" font-size="10.00">/ROLE/custom/hls/memtest</text>
<text text-anchor="start" x="365.5" y="-185.5" font-family="Helvetica,sans-Serif" font-size="10.00">/include/memtest_pattern</text>
<text text-anchor="middle" x="432" y="-174.5" font-family="Helvetica,sans-Serif" font-size="10.00">_library.hpp</text>
</a>
</g>
</g>
<!-- Node1&#45;&gt;Node8 -->
<g id="edge10" class="edge">
<title>Node1&#45;&gt;Node8</title>
<path fill="none" stroke="midnightblue" d="M354.51,-250.22C368.49,-240.16 383.79,-229.16 397.08,-219.61"/>
<polygon fill="midnightblue" stroke="midnightblue" points="352.07,-247.66 346,-256.34 356.16,-253.34 352.07,-247.66"/>
</g>
<!-- Node2&#45;&gt;Node3 -->
<g id="edge2" class="edge">
<title>Node2&#45;&gt;Node3</title>
<path fill="none" stroke="midnightblue" d="M142.93,-161.22C129.41,-151.16 114.61,-140.16 101.77,-130.61"/>
<polygon fill="midnightblue" stroke="midnightblue" points="141.05,-164.18 151.16,-167.34 145.22,-158.56 141.05,-164.18"/>
</g>
<!-- Node2&#45;&gt;Node4 -->
<g id="edge3" class="edge">
<title>Node2&#45;&gt;Node4</title>
<path fill="none" stroke="midnightblue" d="M201.88,-158.35C206.45,-149.1 211.31,-139.26 215.59,-130.61"/>
<polygon fill="midnightblue" stroke="midnightblue" points="198.73,-156.82 197.44,-167.34 205.01,-159.92 198.73,-156.82"/>
</g>
<!-- Node6 -->
<g id="node6" class="node">
<title>Node6</title>
<g id="a_node6"><a xlink:href="memtest__processing_8hpp.html" target="_top" xlink:title="The processing template for the memory test.">
<polygon fill="none" stroke="black" points="396.5,-84 396.5,-125 577.5,-125 577.5,-84 396.5,-84"/>
<text text-anchor="start" x="404.5" y="-113" font-family="Helvetica,sans-Serif" font-size="10.00">repos_for_Dox/cFp_Zoo</text>
<text text-anchor="start" x="404.5" y="-102" font-family="Helvetica,sans-Serif" font-size="10.00">/ROLE/custom/hls/memtest</text>
<text text-anchor="middle" x="487" y="-91" font-family="Helvetica,sans-Serif" font-size="10.00">/include/memtest_processing.hpp</text>
</a>
</g>
</g>
<!-- Node5&#45;&gt;Node6 -->
<g id="edge7" class="edge">
<title>Node5&#45;&gt;Node6</title>
<path fill="none" stroke="midnightblue" d="M568.61,-166.71C550.92,-153.44 529.71,-137.53 513.35,-125.26"/>
<polygon fill="midnightblue" stroke="midnightblue" points="566.87,-169.78 576.97,-172.98 571.07,-164.18 566.87,-169.78"/>
</g>
<!-- Node5&#45;&gt;Node7 -->
<g id="edge9" class="edge">
<title>Node5&#45;&gt;Node7</title>
<path fill="none" stroke="midnightblue" d="M606.82,-162.53C608.34,-137.24 606.26,-101.5 587,-78 566.02,-52.39 532.57,-38.48 501.68,-30.92"/>
<polygon fill="midnightblue" stroke="midnightblue" points="603.31,-162.41 605.99,-172.67 610.29,-162.99 603.31,-162.41"/>
</g>
<!-- Node6&#45;&gt;Node7 -->
<g id="edge8" class="edge">
<title>Node6&#45;&gt;Node7</title>
<path fill="none" stroke="midnightblue" d="M466.43,-75.55C458.18,-64.36 448.89,-51.73 441.39,-41.55"/>
<polygon fill="midnightblue" stroke="midnightblue" points="463.73,-77.79 472.48,-83.77 469.37,-73.64 463.73,-77.79"/>
</g>
<!-- Node8&#45;&gt;Node6 -->
<g id="edge11" class="edge">
<title>Node8&#45;&gt;Node6</title>
<path fill="none" stroke="midnightblue" d="M453.28,-158.84C460.5,-147.42 468.33,-135.04 474.62,-125.08"/>
<polygon fill="midnightblue" stroke="midnightblue" points="450.29,-157.01 447.91,-167.34 456.21,-160.75 450.29,-157.01"/>
</g>
<!-- Node8&#45;&gt;Node7 -->
<g id="edge12" class="edge">
<title>Node8&#45;&gt;Node7</title>
<path fill="none" stroke="midnightblue" d="M401.81,-159.12C395.74,-150.53 390.24,-140.9 387,-131 379.68,-108.61 379.81,-100.43 387,-78 391.3,-64.57 400.14,-51.63 408.41,-41.57"/>
<polygon fill="midnightblue" stroke="midnightblue" points="399.19,-161.46 408,-167.33 404.78,-157.24 399.19,-161.46"/>
</g>
</g>
</svg>
        <g id="navigator" transform="translate(0 0)" fill="#404254">
                <rect fill="#f2f5e9" fill-opacity="0.5" stroke="#606060" stroke-width=".5" x="0" y="0" width="60" height="60"/>
                <use id="zoomplus" xlink:href="#zoomPlus" x="17" y="9" onmousedown="handleZoom(evt,'in')"/>
                <use id="zoomminus" xlink:href="#zoomMin" x="42" y="9" onmousedown="handleZoom(evt,'out')"/>
                <use id="reset" xlink:href="#resetDef" x="30" y="36" onmousedown="handleReset()"/>
                <g id="arrowUp" xlink:href="#dirArrow" transform="translate(30 24)" onmousedown="handlePan(0,-1)">
                  <use xlink:href="#rim" fill="#404040">
                        <set attributeName="fill" to="#808080" begin="arrowUp.mouseover" end="arrowUp.mouseout"/>
                  </use>
                  <path fill="none" stroke="white" stroke-width="1.5" d="M0,-3.0v7 M-2.5,-0.5L0,-3.0L2.5,-0.5"/>
                </g>
                <g id="arrowRight" xlink:href="#dirArrow" transform="rotate(90) translate(36 -43)" onmousedown="handlePan(1,0)">
                  <use xlink:href="#rim" fill="#404040">
                        <set attributeName="fill" to="#808080" begin="arrowRight.mouseover" end="arrowRight.mouseout"/>
                  </use>
                  <path fill="none" stroke="white" stroke-width="1.5" d="M0,-3.0v7 M-2.5,-0.5L0,-3.0L2.5,-0.5"/>
                </g>
                <g id="arrowDown" xlink:href="#dirArrow" transform="rotate(180) translate(-30 -48)" onmousedown="handlePan(0,1)">
                  <use xlink:href="#rim" fill="#404040">
                        <set attributeName="fill" to="#808080" begin="arrowDown.mouseover" end="arrowDown.mouseout"/>
                  </use>
                  <path fill="none" stroke="white" stroke-width="1.5" d="M0,-3.0v7 M-2.5,-0.5L0,-3.0L2.5,-0.5"/>
                </g>
                <g id="arrowLeft" xlink:href="#dirArrow" transform="rotate(270) translate(-36 17)" onmousedown="handlePan(-1,0)">
                  <use xlink:href="#rim" fill="#404040">
                        <set attributeName="fill" to="#808080" begin="arrowLeft.mouseover" end="arrowLeft.mouseout"/>
                  </use>
                  <path fill="none" stroke="white" stroke-width="1.5" d="M0,-3.0v7 M-2.5,-0.5L0,-3.0L2.5,-0.5"/>
                </g>
        </g>
        <svg viewBox="0 0 15 15" width="100%" height="30px" preserveAspectRatio="xMaxYMin meet">
         <g id="arrow_out" transform="scale(0.3 0.3)">
          <a xlink:href="custom_2memtest_2languages_2cplusplus_2include_2config_8h__dep__incl_org.svg" target="_base">
           <rect id="button" ry="5" rx="5" y="6" x="6" height="38" width="38"
                fill="#f2f5e9" fill-opacity="0.5" stroke="#606060" stroke-width="1.0"/>
           <path id="arrow"
             d="M 11.500037,31.436501 C 11.940474,20.09759 22.043105,11.32322 32.158766,21.979434 L 37.068811,17.246167 C 37.068811,17.246167 37.088388,32 37.088388,32 L 22.160133,31.978069 C 22.160133,31.978069 26.997745,27.140456 26.997745,27.140456 C 18.528582,18.264221 13.291696,25.230495 11.500037,31.436501 z"
             style="fill:#404040;"/>
          </a>
         </g>
        </svg>
</svg>
