<?xml version="1.0" encoding="UTF-8" standalone="no"?>
<!DOCTYPE svg PUBLIC "-//W3C//DTD SVG 1.1//EN"
 "http://www.w3.org/Graphics/SVG/1.1/DTD/svg11.dtd">
<!-- Generated by graphviz version 2.43.0 (0)
 -->
<!-- Title: repos_for_Dox/cFDK/SRA/LIB/SHELL/LIB/hls/NTS/legacy/dhcp_client/src/dhcp_client.cpp Pages: 1 -->
<svg width="162pt" height="173pt"
 viewBox="0.00 0.00 162.00 173.00" xmlns="http://www.w3.org/2000/svg" xmlns:xlink="http://www.w3.org/1999/xlink">
<g id="graph0" class="graph" transform="scale(1 1) rotate(0) translate(4 169)">
<title>repos_for_Dox/cFDK/SRA/LIB/SHELL/LIB/hls/NTS/legacy/dhcp_client/src/dhcp_client.cpp</title>
<!-- Node1 -->
<g id="node1" class="node">
<title>Node1</title>
<g id="a_node1"><a xlink:title=": Dynamic Host Configuration Protocol (DHCP) client.">
<polygon fill="#bfbfbf" stroke="black" points="16.5,-112.5 16.5,-164.5 149.5,-164.5 149.5,-112.5 16.5,-112.5"/>
<text text-anchor="start" x="24.5" y="-152.5" font-family="Helvetica,sans-Serif" font-size="10.00">repos_for_Dox/cFDK</text>
<text text-anchor="start" x="24.5" y="-141.5" font-family="Helvetica,sans-Serif" font-size="10.00">/SRA/LIB/SHELL/LIB/hls</text>
<text text-anchor="start" x="24.5" y="-130.5" font-family="Helvetica,sans-Serif" font-size="10.00">/NTS/legacy/dhcp_client</text>
<text text-anchor="middle" x="83" y="-119.5" font-family="Helvetica,sans-Serif" font-size="10.00">/src/dhcp_client.cpp</text>
</a>
</g>
</g>
<!-- Node2 -->
<g id="node2" class="node">
<title>Node2</title>
<g id="a_node2"><a xlink:href="dhcp__client_8hpp.html" target="_top" xlink:title=": Dynamic Host Configuration Protocol (DHCP) client.">
<polygon fill="none" stroke="black" points="36.5,-56.5 36.5,-75.5 129.5,-75.5 129.5,-56.5 36.5,-56.5"/>
<text text-anchor="middle" x="83" y="-63.5" font-family="Helvetica,sans-Serif" font-size="10.00">dhcp_client.hpp</text>
</a>
</g>
</g>
<!-- Node1&#45;&gt;Node2 -->
<g id="edge1" class="edge">
<title>Node1&#45;&gt;Node2</title>
<path fill="none" stroke="midnightblue" d="M83,-112.45C83,-103.73 83,-94.1 83,-85.96"/>
<polygon fill="midnightblue" stroke="midnightblue" points="86.5,-85.7 83,-75.7 79.5,-85.7 86.5,-85.7"/>
</g>
<!-- Node3 -->
<g id="node3" class="node">
<title>Node3</title>
<g id="a_node3"><a xlink:title=" ">
<polygon fill="none" stroke="#bfbfbf" points="0,-0.5 0,-19.5 80,-19.5 80,-0.5 0,-0.5"/>
<text text-anchor="middle" x="40" y="-7.5" font-family="Helvetica,sans-Serif" font-size="10.00">hls_stream.h</text>
</a>
</g>
</g>
<!-- Node2&#45;&gt;Node3 -->
<g id="edge2" class="edge">
<title>Node2&#45;&gt;Node3</title>
<path fill="none" stroke="midnightblue" d="M75.9,-56.08C69.76,-48.38 60.73,-37.03 53.26,-27.65"/>
<polygon fill="midnightblue" stroke="midnightblue" points="55.94,-25.39 46.97,-19.75 50.46,-29.75 55.94,-25.39"/>
</g>
<!-- Node4 -->
<g id="node4" class="node">
<title>Node4</title>
<g id="a_node4"><a xlink:title=" ">
<polygon fill="none" stroke="#bfbfbf" points="98,-0.5 98,-19.5 154,-19.5 154,-0.5 98,-0.5"/>
<text text-anchor="middle" x="126" y="-7.5" font-family="Helvetica,sans-Serif" font-size="10.00">ap_int.h</text>
</a>
</g>
</g>
<!-- Node2&#45;&gt;Node4 -->
<g id="edge3" class="edge">
<title>Node2&#45;&gt;Node4</title>
<path fill="none" stroke="midnightblue" d="M90.1,-56.08C96.24,-48.38 105.27,-37.03 112.74,-27.65"/>
<polygon fill="midnightblue" stroke="midnightblue" points="115.54,-29.75 119.03,-19.75 110.06,-25.39 115.54,-29.75"/>
</g>
</g>
</svg>
