<?xml version="1.0" encoding="UTF-8" standalone="no"?>
<!DOCTYPE svg PUBLIC "-//W3C//DTD SVG 1.1//EN"
 "http://www.w3.org/Graphics/SVG/1.1/DTD/svg11.dtd">
<!-- Generated by graphviz version 2.43.0 (0)
 -->
<!-- Title: dhcp_client Pages: 1 -->
<svg width="200pt" height="142pt"
 viewBox="0.00 0.00 200.00 142.00" xmlns="http://www.w3.org/2000/svg" xmlns:xlink="http://www.w3.org/1999/xlink">
<g id="graph0" class="graph" transform="scale(1 1) rotate(0) translate(4 138)">
<title>dhcp_client</title>
<!-- Node1 -->
<g id="node1" class="node">
<title>Node1</title>
<g id="a_node1"><a xlink:title="Main process of the DHCP&#45;client.">
<polygon fill="#bfbfbf" stroke="black" points="0,-57.5 0,-76.5 72,-76.5 72,-57.5 0,-57.5"/>
<text text-anchor="middle" x="36" y="-64.5" font-family="Helvetica,sans-Serif" font-size="10.00">dhcp_client</text>
</a>
</g>
</g>
<!-- Node2 -->
<g id="node2" class="node">
<title>Node2</title>
<g id="a_node2"><a xlink:href="dhcp__client_8cpp.html#a0dacd063661072dd08a81f2f695b2723" target="_top" xlink:title="Final state machine that controls the sending and reception of DHCP messages. to the.">
<polygon fill="none" stroke="black" points="119.5,-114.5 119.5,-133.5 180.5,-133.5 180.5,-114.5 119.5,-114.5"/>
<text text-anchor="middle" x="150" y="-121.5" font-family="Helvetica,sans-Serif" font-size="10.00">pFsmCtrl</text>
</a>
</g>
</g>
<!-- Node1&#45;&gt;Node2 -->
<g id="edge1" class="edge">
<title>Node1&#45;&gt;Node2</title>
<path fill="none" stroke="midnightblue" d="M54.36,-76.65C68.65,-84.51 89.48,-95.76 108,-105 111.36,-106.67 114.89,-108.39 118.42,-110.06"/>
<polygon fill="midnightblue" stroke="midnightblue" points="117.07,-113.3 127.61,-114.37 120.04,-106.96 117.07,-113.3"/>
</g>
<!-- Node3 -->
<g id="node3" class="node">
<title>Node3</title>
<g id="a_node3"><a xlink:href="dhcp__client_8cpp.html#af03c0912d99c93fa17022f61c9646130" target="_top" xlink:title="Open a communication end point. This corresponds somehow to the creation of a UDP socket at the clien...">
<polygon fill="none" stroke="black" points="113,-76.5 113,-95.5 187,-95.5 187,-76.5 113,-76.5"/>
<text text-anchor="middle" x="150" y="-83.5" font-family="Helvetica,sans-Serif" font-size="10.00">pOpnComm</text>
</a>
</g>
</g>
<!-- Node1&#45;&gt;Node3 -->
<g id="edge2" class="edge">
<title>Node1&#45;&gt;Node3</title>
<path fill="none" stroke="midnightblue" d="M72.13,-72.96C81.85,-74.61 92.55,-76.42 102.79,-78.16"/>
<polygon fill="midnightblue" stroke="midnightblue" points="102.39,-81.64 112.84,-79.87 103.56,-74.74 102.39,-81.64"/>
</g>
<!-- Node4 -->
<g id="node4" class="node">
<title>Node4</title>
<g id="a_node4"><a xlink:href="dhcp__client_8cpp.html#a7a31b93d9d81098bcf703cbcb7278e85" target="_top" xlink:title="Receive a message from the DHCP server and generate a meta&#45;reply information for the FSM control proc...">
<polygon fill="none" stroke="black" points="108,-38.5 108,-57.5 192,-57.5 192,-38.5 108,-38.5"/>
<text text-anchor="middle" x="150" y="-45.5" font-family="Helvetica,sans-Serif" font-size="10.00">pRcvMessage</text>
</a>
</g>
</g>
<!-- Node1&#45;&gt;Node4 -->
<g id="edge3" class="edge">
<title>Node1&#45;&gt;Node4</title>
<path fill="none" stroke="midnightblue" d="M72.13,-61.04C80.25,-59.66 89.04,-58.17 97.69,-56.7"/>
<polygon fill="midnightblue" stroke="midnightblue" points="98.45,-60.13 107.72,-55 97.28,-53.22 98.45,-60.13"/>
</g>
<!-- Node5 -->
<g id="node5" class="node">
<title>Node5</title>
<g id="a_node5"><a xlink:href="dhcp__client_8cpp.html#a1c5df11eba2541cacb13e917b4a29133" target="_top" xlink:title="Build a DHCP message from a meta&#45;request information and send it out to the DHCP server.">
<polygon fill="none" stroke="black" points="108,-0.5 108,-19.5 192,-19.5 192,-0.5 108,-0.5"/>
<text text-anchor="middle" x="150" y="-7.5" font-family="Helvetica,sans-Serif" font-size="10.00">pSndMessage</text>
</a>
</g>
</g>
<!-- Node1&#45;&gt;Node5 -->
<g id="edge4" class="edge">
<title>Node1&#45;&gt;Node5</title>
<path fill="none" stroke="midnightblue" d="M54.36,-57.35C68.65,-49.49 89.48,-38.24 108,-29 111.36,-27.33 114.89,-25.61 118.42,-23.94"/>
<polygon fill="midnightblue" stroke="midnightblue" points="120.04,-27.04 127.61,-19.63 117.07,-20.7 120.04,-27.04"/>
</g>
</g>
</svg>
