<?xml version="1.0" encoding="UTF-8" standalone="no"?>
<!DOCTYPE svg PUBLIC "-//W3C//DTD SVG 1.1//EN"
 "http://www.w3.org/Graphics/SVG/1.1/DTD/svg11.dtd">
<!-- Generated by graphviz version 2.43.0 (0)
 -->
<!-- Title: repos_for_Dox/cFp_Zoo/HOST/vision/gammacorrection/src Pages: 1 -->
<svg width="182pt" height="167pt"
 viewBox="0.00 0.00 182.00 167.00" xmlns="http://www.w3.org/2000/svg" xmlns:xlink="http://www.w3.org/1999/xlink">
<g id="graph0" class="graph" transform="scale(1 1) rotate(0) translate(4 163)">
<title>repos_for_Dox/cFp_Zoo/HOST/vision/gammacorrection/src</title>
<g id="clust1" class="cluster">
<title>clusterdir_a173aa145f3b5ee5ae11f4b23ae502da</title>
<g id="a_clust1"><a xlink:href="dir_a173aa145f3b5ee5ae11f4b23ae502da.html" target="_top" xlink:title="gammacorrection">
<polygon fill="#ddddee" stroke="black" points="8,-8 8,-151 111,-151 111,-8 8,-8"/>
<text text-anchor="middle" x="59.5" y="-139" font-family="Helvetica,sans-Serif" font-size="10.00">gammacorrection</text>
</a>
</g>
</g>
<!-- dir_765f020dcb5f271c89d803d60446da66 -->
<g id="node1" class="node">
<title>dir_765f020dcb5f271c89d803d60446da66</title>
<g id="a_node1"><a xlink:href="dir_765f020dcb5f271c89d803d60446da66.html" target="_top" xlink:title="include">
<polygon fill="none" stroke="black" points="102,-52 48,-52 48,-16 102,-16 102,-52"/>
<text text-anchor="middle" x="75" y="-31.5" font-family="Helvetica,sans-Serif" font-size="10.00">include</text>
</a>
</g>
</g>
<!-- dir_e81608aaa352e709165497283e89b2f2 -->
<g id="node2" class="node">
<title>dir_e81608aaa352e709165497283e89b2f2</title>
<g id="a_node2"><a xlink:href="dir_e81608aaa352e709165497283e89b2f2.html" target="_top" xlink:title="src">
<polygon fill="#eeeeff" stroke="black" points="102,-124 48,-124 48,-88 102,-88 102,-124"/>
<text text-anchor="middle" x="75" y="-103.5" font-family="Helvetica,sans-Serif" font-size="10.00">src</text>
</a>
</g>
</g>
<!-- dir_e81608aaa352e709165497283e89b2f2&#45;&gt;dir_765f020dcb5f271c89d803d60446da66 -->
<g id="edge3" class="edge">
<title>dir_e81608aaa352e709165497283e89b2f2&#45;&gt;dir_765f020dcb5f271c89d803d60446da66</title>
<path fill="none" stroke="black" d="M75,-87.7C75,-79.98 75,-70.71 75,-62.11"/>
<polygon fill="black" stroke="black" points="78.5,-62.1 75,-52.1 71.5,-62.1 78.5,-62.1"/>
<g id="a_edge3&#45;headlabel"><a xlink:href="dir_000211_000189.html" target="_top" xlink:title="2">
<text text-anchor="middle" x="81.34" y="-63.2" font-family="Helvetica,sans-Serif" font-size="10.00">2</text>
</a>
</g>
</g>
<!-- dir_372190bba8e51f711404a4d20d8d4609 -->
<g id="node3" class="node">
<title>dir_372190bba8e51f711404a4d20d8d4609</title>
<g id="a_node3"><a xlink:href="dir_372190bba8e51f711404a4d20d8d4609.html" target="_top" xlink:title="ROLE">
<polygon fill="none" stroke="red" points="174,-52 120,-52 120,-16 174,-16 174,-52"/>
<text text-anchor="middle" x="147" y="-31.5" font-family="Helvetica,sans-Serif" font-size="10.00">ROLE</text>
</a>
</g>
</g>
<!-- dir_e81608aaa352e709165497283e89b2f2&#45;&gt;dir_372190bba8e51f711404a4d20d8d4609 -->
<g id="edge2" class="edge">
<title>dir_e81608aaa352e709165497283e89b2f2&#45;&gt;dir_372190bba8e51f711404a4d20d8d4609</title>
<path fill="none" stroke="black" d="M92.8,-87.7C101.6,-79.14 112.38,-68.66 122,-59.3"/>
<polygon fill="black" stroke="black" points="124.68,-61.58 129.41,-52.1 119.8,-56.57 124.68,-61.58"/>
<g id="a_edge2&#45;headlabel"><a xlink:href="dir_000211_000023.html" target="_top" xlink:title="1">
<text text-anchor="middle" x="124.08" y="-63.63" font-family="Helvetica,sans-Serif" font-size="10.00">1</text>
</a>
</g>
</g>
<!-- dir_372190bba8e51f711404a4d20d8d4609&#45;&gt;dir_765f020dcb5f271c89d803d60446da66 -->
<g id="edge1" class="edge">
<title>dir_372190bba8e51f711404a4d20d8d4609&#45;&gt;dir_765f020dcb5f271c89d803d60446da66</title>
<path fill="none" stroke="black" d="M119.75,-34C117.29,-34 114.84,-34 112.38,-34"/>
<polygon fill="black" stroke="black" points="112.28,-30.5 102.28,-34 112.28,-37.5 112.28,-30.5"/>
<g id="a_edge1&#45;headlabel"><a xlink:href="dir_000023_000189.html" target="_top" xlink:title="2">
<text text-anchor="middle" x="115.88" y="-25.16" font-family="Helvetica,sans-Serif" font-size="10.00">2</text>
</a>
</g>
</g>
</g>
</svg>
