<?xml version="1.0" encoding="UTF-8" standalone="no"?>
<!DOCTYPE svg PUBLIC "-//W3C//DTD SVG 1.1//EN"
 "http://www.w3.org/Graphics/SVG/1.1/DTD/svg11.dtd">
<!-- Generated by graphviz version 2.43.0 (0)
 -->
<!-- Title: repos_for_Dox/cFp_Zoo/ROLE/quantitative_finance/hls/common/include Pages: 1 -->
<svg width="147pt" height="223pt"
 viewBox="0.00 0.00 147.00 223.00" xmlns="http://www.w3.org/2000/svg" xmlns:xlink="http://www.w3.org/1999/xlink">
<g id="graph0" class="graph" transform="scale(1 1) rotate(0) translate(4 219)">
<title>repos_for_Dox/cFp_Zoo/ROLE/quantitative_finance/hls/common/include</title>
<g id="clust1" class="cluster">
<title>clusterdir_4ab145607ff46c81a3464251f9b61dcb</title>
<g id="a_clust1"><a xlink:href="dir_4ab145607ff46c81a3464251f9b61dcb.html" target="_top" xlink:title="common">
<polygon fill="#ddddee" stroke="black" points="8,-136 8,-207 78,-207 78,-136 8,-136"/>
<text text-anchor="middle" x="43" y="-195" font-family="Helvetica,sans-Serif" font-size="10.00">common</text>
</a>
</g>
</g>
<!-- dir_ae90f59c5b3618fc9bbd01625b4edce5 -->
<g id="node1" class="node">
<title>dir_ae90f59c5b3618fc9bbd01625b4edce5</title>
<g id="a_node1"><a xlink:href="dir_ae90f59c5b3618fc9bbd01625b4edce5.html" target="_top" xlink:title="include">
<polygon fill="#eeeeff" stroke="black" points="70,-180 16,-180 16,-144 70,-144 70,-180"/>
<text text-anchor="middle" x="43" y="-159.5" font-family="Helvetica,sans-Serif" font-size="10.00">include</text>
</a>
</g>
</g>
<!-- dir_23f0d356d1035ca2b48ed060bc32e928 -->
<g id="node2" class="node">
<title>dir_23f0d356d1035ca2b48ed060bc32e928</title>
<g id="a_node2"><a xlink:href="dir_23f0d356d1035ca2b48ed060bc32e928.html" target="_top" xlink:title="HOST">
<polygon fill="none" stroke="red" points="69,-36 15,-36 15,0 69,0 69,-36"/>
<text text-anchor="middle" x="42" y="-15.5" font-family="Helvetica,sans-Serif" font-size="10.00">HOST</text>
</a>
</g>
</g>
<!-- dir_ae90f59c5b3618fc9bbd01625b4edce5&#45;&gt;dir_23f0d356d1035ca2b48ed060bc32e928 -->
<g id="edge2" class="edge">
<title>dir_ae90f59c5b3618fc9bbd01625b4edce5&#45;&gt;dir_23f0d356d1035ca2b48ed060bc32e928</title>
<path fill="none" stroke="black" d="M33.46,-143.93C28.36,-133.82 22.61,-120.57 20,-108 16.75,-92.33 16.87,-87.69 20,-72 21.79,-63.01 25.14,-53.64 28.69,-45.32"/>
<polygon fill="black" stroke="black" points="31.92,-46.67 32.87,-36.12 25.54,-43.77 31.92,-46.67"/>
<g id="a_edge2&#45;headlabel"><a xlink:href="dir_000183_000139.html" target="_top" xlink:title="1">
<text text-anchor="middle" x="33.01" y="-48.62" font-family="Helvetica,sans-Serif" font-size="10.00">1</text>
</a>
</g>
</g>
<!-- dir_4a5cce8799bc098458869cabc79087c9 -->
<g id="node3" class="node">
<title>dir_4a5cce8799bc098458869cabc79087c9</title>
<g id="a_node3"><a xlink:href="dir_4a5cce8799bc098458869cabc79087c9.html" target="_top" xlink:title="mceuropeanengine">
<polygon fill="none" stroke="red" points="139,-108 29,-108 29,-72 139,-72 139,-108"/>
<text text-anchor="middle" x="84" y="-87.5" font-family="Helvetica,sans-Serif" font-size="10.00">mceuropeanengine</text>
</a>
</g>
</g>
<!-- dir_ae90f59c5b3618fc9bbd01625b4edce5&#45;&gt;dir_4a5cce8799bc098458869cabc79087c9 -->
<g id="edge3" class="edge">
<title>dir_ae90f59c5b3618fc9bbd01625b4edce5&#45;&gt;dir_4a5cce8799bc098458869cabc79087c9</title>
<path fill="none" stroke="black" d="M53.13,-143.7C57.85,-135.64 63.56,-125.89 68.78,-116.98"/>
<polygon fill="black" stroke="black" points="71.95,-118.5 73.98,-108.1 65.91,-114.96 71.95,-118.5"/>
<g id="a_edge3&#45;headlabel"><a xlink:href="dir_000183_000231.html" target="_top" xlink:title="1">
<text text-anchor="middle" x="72.58" y="-120.54" font-family="Helvetica,sans-Serif" font-size="10.00">1</text>
</a>
</g>
</g>
<!-- dir_4a5cce8799bc098458869cabc79087c9&#45;&gt;dir_23f0d356d1035ca2b48ed060bc32e928 -->
<g id="edge1" class="edge">
<title>dir_4a5cce8799bc098458869cabc79087c9&#45;&gt;dir_23f0d356d1035ca2b48ed060bc32e928</title>
<path fill="none" stroke="black" d="M73.62,-71.7C68.74,-63.56 62.81,-53.69 57.42,-44.7"/>
<polygon fill="black" stroke="black" points="60.41,-42.88 52.26,-36.1 54.41,-46.48 60.41,-42.88"/>
<g id="a_edge1&#45;headlabel"><a xlink:href="dir_000231_000139.html" target="_top" xlink:title="1">
<text text-anchor="middle" x="64.69" y="-42" font-family="Helvetica,sans-Serif" font-size="10.00">1</text>
</a>
</g>
</g>
</g>
</svg>
