<?xml version="1.0" encoding="UTF-8" standalone="no"?>
<!DOCTYPE svg PUBLIC "-//W3C//DTD SVG 1.1//EN"
 "http://www.w3.org/Graphics/SVG/1.1/DTD/svg11.dtd">
<!-- Generated by graphviz version 2.43.0 (0)
 -->
<!-- Title: repos_for_Dox/cFDK/SRA/LIB/SHELL/LIB/hls/NTS/toe/src/rx_engine/test Pages: 1 -->
<svg width="963pt" height="223pt"
 viewBox="0.00 0.00 962.50 223.00" xmlns="http://www.w3.org/2000/svg" xmlns:xlink="http://www.w3.org/1999/xlink">
<g id="graph0" class="graph" transform="scale(1 1) rotate(0) translate(4 219)">
<title>repos_for_Dox/cFDK/SRA/LIB/SHELL/LIB/hls/NTS/toe/src/rx_engine/test</title>
<g id="clust1" class="cluster">
<title>clusterdir_219deef6a1eae841677d652c679aa0d3</title>
<g id="a_clust1"><a xlink:href="dir_219deef6a1eae841677d652c679aa0d3.html" target="_top" xlink:title="rx_engine">
<polygon fill="#ddddee" stroke="black" points="471,-136 471,-207 541,-207 541,-136 471,-136"/>
<text text-anchor="middle" x="506" y="-195" font-family="Helvetica,sans-Serif" font-size="10.00">rx_engine</text>
</a>
</g>
</g>
<!-- dir_2a397433d412fbb0ac7e3f4eb37ee760 -->
<g id="node1" class="node">
<title>dir_2a397433d412fbb0ac7e3f4eb37ee760</title>
<g id="a_node1"><a xlink:href="dir_2a397433d412fbb0ac7e3f4eb37ee760.html" target="_top" xlink:title="test">
<polygon fill="#eeeeff" stroke="black" points="533,-180 479,-180 479,-144 533,-144 533,-180"/>
<text text-anchor="middle" x="506" y="-159.5" font-family="Helvetica,sans-Serif" font-size="10.00">test</text>
</a>
</g>
</g>
<!-- dir_116776bbb74f65bb8bf12fd7da7745fd -->
<g id="node2" class="node">
<title>dir_116776bbb74f65bb8bf12fd7da7745fd</title>
<g id="a_node2"><a xlink:href="dir_116776bbb74f65bb8bf12fd7da7745fd.html" target="_top" xlink:title="timers">
<polygon fill="none" stroke="black" points="54,-36 0,-36 0,0 54,0 54,-36"/>
<text text-anchor="middle" x="27" y="-15.5" font-family="Helvetica,sans-Serif" font-size="10.00">timers</text>
</a>
</g>
</g>
<!-- dir_2a397433d412fbb0ac7e3f4eb37ee760&#45;&gt;dir_116776bbb74f65bb8bf12fd7da7745fd -->
<g id="edge1" class="edge">
<title>dir_2a397433d412fbb0ac7e3f4eb37ee760&#45;&gt;dir_116776bbb74f65bb8bf12fd7da7745fd</title>
<path fill="none" stroke="black" d="M478.66,-158.03C427.68,-152.01 315.05,-136.48 224,-108 165.88,-89.82 102.3,-58.94 63.53,-38.75"/>
<polygon fill="black" stroke="black" points="64.7,-35.42 54.22,-33.87 61.45,-41.61 64.7,-35.42"/>
<g id="a_edge1&#45;headlabel"><a xlink:href="dir_000082_000086.html" target="_top" xlink:title="1">
<text text-anchor="middle" x="69.21" y="-32.07" font-family="Helvetica,sans-Serif" font-size="10.00">1</text>
</a>
</g>
</g>
<!-- dir_13512d79193b746fbd0446caf2a7076f -->
<g id="node3" class="node">
<title>dir_13512d79193b746fbd0446caf2a7076f</title>
<g id="a_node3"><a xlink:href="dir_13512d79193b746fbd0446caf2a7076f.html" target="_top" xlink:title="tx_sar_table">
<polygon fill="none" stroke="black" points="149.5,-36 72.5,-36 72.5,0 149.5,0 149.5,-36"/>
<text text-anchor="middle" x="111" y="-15.5" font-family="Helvetica,sans-Serif" font-size="10.00">tx_sar_table</text>
</a>
</g>
</g>
<!-- dir_2a397433d412fbb0ac7e3f4eb37ee760&#45;&gt;dir_13512d79193b746fbd0446caf2a7076f -->
<g id="edge2" class="edge">
<title>dir_2a397433d412fbb0ac7e3f4eb37ee760&#45;&gt;dir_13512d79193b746fbd0446caf2a7076f</title>
<path fill="none" stroke="black" d="M478.93,-154.96C441.07,-146.22 370.39,-128.77 312,-108 256.41,-88.23 194.65,-59.87 154.45,-40.52"/>
<polygon fill="black" stroke="black" points="155.74,-37.25 145.22,-36.05 152.69,-43.55 155.74,-37.25"/>
<g id="a_edge2&#45;headlabel"><a xlink:href="dir_000082_000091.html" target="_top" xlink:title="1">
<text text-anchor="middle" x="160.22" y="-33.76" font-family="Helvetica,sans-Serif" font-size="10.00">1</text>
</a>
</g>
</g>
<!-- dir_19a6afe2592d40dd3fc0d3399c6015fe -->
<g id="node4" class="node">
<title>dir_19a6afe2592d40dd3fc0d3399c6015fe</title>
<g id="a_node4"><a xlink:href="dir_19a6afe2592d40dd3fc0d3399c6015fe.html" target="_top" xlink:title="tx_app_interface">
<polygon fill="none" stroke="black" points="266,-36 168,-36 168,0 266,0 266,-36"/>
<text text-anchor="middle" x="217" y="-15.5" font-family="Helvetica,sans-Serif" font-size="10.00">tx_app_interface</text>
</a>
</g>
</g>
<!-- dir_2a397433d412fbb0ac7e3f4eb37ee760&#45;&gt;dir_19a6afe2592d40dd3fc0d3399c6015fe -->
<g id="edge3" class="edge">
<title>dir_2a397433d412fbb0ac7e3f4eb37ee760&#45;&gt;dir_19a6afe2592d40dd3fc0d3399c6015fe</title>
<path fill="none" stroke="black" d="M478.59,-149.53C454.11,-139.14 417.37,-123.17 386,-108 341.25,-86.36 290.96,-59.55 256.96,-41.04"/>
<polygon fill="black" stroke="black" points="258.28,-37.77 247.82,-36.05 254.92,-43.91 258.28,-37.77"/>
<g id="a_edge3&#45;headlabel"><a xlink:href="dir_000082_000087.html" target="_top" xlink:title="1">
<text text-anchor="middle" x="262.79" y="-34.5" font-family="Helvetica,sans-Serif" font-size="10.00">1</text>
</a>
</g>
</g>
<!-- dir_2fcaf553d3ed3689d342eef26f04b478 -->
<g id="node5" class="node">
<title>dir_2fcaf553d3ed3689d342eef26f04b478</title>
<g id="a_node5"><a xlink:href="dir_2fcaf553d3ed3689d342eef26f04b478.html" target="_top" xlink:title="port_table">
<polygon fill="none" stroke="black" points="350,-36 284,-36 284,0 350,0 350,-36"/>
<text text-anchor="middle" x="317" y="-15.5" font-family="Helvetica,sans-Serif" font-size="10.00">port_table</text>
</a>
</g>
</g>
<!-- dir_2a397433d412fbb0ac7e3f4eb37ee760&#45;&gt;dir_2fcaf553d3ed3689d342eef26f04b478 -->
<g id="edge4" class="edge">
<title>dir_2a397433d412fbb0ac7e3f4eb37ee760&#45;&gt;dir_2fcaf553d3ed3689d342eef26f04b478</title>
<path fill="none" stroke="black" d="M483.2,-143.87C449.43,-118.5 386.02,-70.85 348.04,-42.32"/>
<polygon fill="black" stroke="black" points="349.98,-39.4 339.88,-36.19 345.77,-44.99 349.98,-39.4"/>
<g id="a_edge4&#45;headlabel"><a xlink:href="dir_000082_000078.html" target="_top" xlink:title="1">
<text text-anchor="middle" x="354.56" y="-36.79" font-family="Helvetica,sans-Serif" font-size="10.00">1</text>
</a>
</g>
</g>
<!-- dir_581e1b63a87af0e0ceb4aaafb47d829e -->
<g id="node6" class="node">
<title>dir_581e1b63a87af0e0ceb4aaafb47d829e</title>
<g id="a_node6"><a xlink:href="dir_581e1b63a87af0e0ceb4aaafb47d829e.html" target="_top" xlink:title="session_lookup_controller">
<polygon fill="none" stroke="black" points="511.5,-36 368.5,-36 368.5,0 511.5,0 511.5,-36"/>
<text text-anchor="middle" x="440" y="-15.5" font-family="Helvetica,sans-Serif" font-size="10.00">session_lookup_controller</text>
</a>
</g>
</g>
<!-- dir_2a397433d412fbb0ac7e3f4eb37ee760&#45;&gt;dir_581e1b63a87af0e0ceb4aaafb47d829e -->
<g id="edge5" class="edge">
<title>dir_2a397433d412fbb0ac7e3f4eb37ee760&#45;&gt;dir_581e1b63a87af0e0ceb4aaafb47d829e</title>
<path fill="none" stroke="black" d="M489.24,-143.63C480.61,-133.84 470.55,-121 464,-108 454.13,-88.41 447.95,-64.28 444.33,-46.08"/>
<polygon fill="black" stroke="black" points="447.75,-45.34 442.5,-36.14 440.87,-46.61 447.75,-45.34"/>
<g id="a_edge5&#45;headlabel"><a xlink:href="dir_000082_000084.html" target="_top" xlink:title="1">
<text text-anchor="middle" x="451.2" y="-45.86" font-family="Helvetica,sans-Serif" font-size="10.00">1</text>
</a>
</g>
</g>
<!-- dir_592bd16346e6805364137fbb564fc530 -->
<g id="node7" class="node">
<title>dir_592bd16346e6805364137fbb564fc530</title>
<g id="a_node7"><a xlink:href="dir_592bd16346e6805364137fbb564fc530.html" target="_top" xlink:title="tx_engine">
<polygon fill="none" stroke="red" points="538.5,-108 473.5,-108 473.5,-72 538.5,-72 538.5,-108"/>
<text text-anchor="middle" x="506" y="-87.5" font-family="Helvetica,sans-Serif" font-size="10.00">tx_engine</text>
</a>
</g>
</g>
<!-- dir_2a397433d412fbb0ac7e3f4eb37ee760&#45;&gt;dir_592bd16346e6805364137fbb564fc530 -->
<g id="edge6" class="edge">
<title>dir_2a397433d412fbb0ac7e3f4eb37ee760&#45;&gt;dir_592bd16346e6805364137fbb564fc530</title>
<path fill="none" stroke="black" d="M506,-143.7C506,-135.98 506,-126.71 506,-118.11"/>
<polygon fill="black" stroke="black" points="509.5,-118.1 506,-108.1 502.5,-118.1 509.5,-118.1"/>
<g id="a_edge6&#45;headlabel"><a xlink:href="dir_000082_000088.html" target="_top" xlink:title="1">
<text text-anchor="middle" x="512.34" y="-119.2" font-family="Helvetica,sans-Serif" font-size="10.00">1</text>
</a>
</g>
</g>
<!-- dir_a37b80ab0a2749e6985e9032ea4b52fa -->
<g id="node8" class="node">
<title>dir_a37b80ab0a2749e6985e9032ea4b52fa</title>
<g id="a_node8"><a xlink:href="dir_a37b80ab0a2749e6985e9032ea4b52fa.html" target="_top" xlink:title="event_engine">
<polygon fill="none" stroke="black" points="612.5,-36 529.5,-36 529.5,0 612.5,0 612.5,-36"/>
<text text-anchor="middle" x="571" y="-15.5" font-family="Helvetica,sans-Serif" font-size="10.00">event_engine</text>
</a>
</g>
</g>
<!-- dir_2a397433d412fbb0ac7e3f4eb37ee760&#45;&gt;dir_a37b80ab0a2749e6985e9032ea4b52fa -->
<g id="edge7" class="edge">
<title>dir_2a397433d412fbb0ac7e3f4eb37ee760&#45;&gt;dir_a37b80ab0a2749e6985e9032ea4b52fa</title>
<path fill="none" stroke="black" d="M522.34,-143.56C530.76,-133.76 540.58,-120.92 547,-108 556.76,-88.35 562.95,-64.22 566.59,-46.05"/>
<polygon fill="black" stroke="black" points="570.05,-46.59 568.45,-36.11 563.17,-45.3 570.05,-46.59"/>
<g id="a_edge7&#45;headlabel"><a xlink:href="dir_000082_000077.html" target="_top" xlink:title="1">
<text text-anchor="middle" x="572.18" y="-48.14" font-family="Helvetica,sans-Serif" font-size="10.00">1</text>
</a>
</g>
</g>
<!-- dir_ae87538a6eea15386c17fa032287f472 -->
<g id="node9" class="node">
<title>dir_ae87538a6eea15386c17fa032287f472</title>
<g id="a_node9"><a xlink:href="dir_ae87538a6eea15386c17fa032287f472.html" target="_top" xlink:title="test">
<polygon fill="none" stroke="red" points="685,-36 631,-36 631,0 685,0 685,-36"/>
<text text-anchor="middle" x="658" y="-15.5" font-family="Helvetica,sans-Serif" font-size="10.00">test</text>
</a>
</g>
</g>
<!-- dir_2a397433d412fbb0ac7e3f4eb37ee760&#45;&gt;dir_ae87538a6eea15386c17fa032287f472 -->
<g id="edge8" class="edge">
<title>dir_2a397433d412fbb0ac7e3f4eb37ee760&#45;&gt;dir_ae87538a6eea15386c17fa032287f472</title>
<path fill="none" stroke="black" d="M526.71,-143.94C538.92,-133.73 554.55,-120.37 568,-108 591.07,-86.78 616.37,-61.58 634.25,-43.42"/>
<polygon fill="black" stroke="black" points="636.93,-45.69 641.44,-36.1 631.93,-40.79 636.93,-45.69"/>
<g id="a_edge8&#45;headlabel"><a xlink:href="dir_000082_000092.html" target="_top" xlink:title="1">
<text text-anchor="middle" x="636.44" y="-47.75" font-family="Helvetica,sans-Serif" font-size="10.00">1</text>
</a>
</g>
</g>
<!-- dir_e4c8e9759fe719f97b5143e470de01f0 -->
<g id="node10" class="node">
<title>dir_e4c8e9759fe719f97b5143e470de01f0</title>
<g id="a_node10"><a xlink:href="dir_e4c8e9759fe719f97b5143e470de01f0.html" target="_top" xlink:title="rx_sar_table">
<polygon fill="none" stroke="black" points="780.5,-36 703.5,-36 703.5,0 780.5,0 780.5,-36"/>
<text text-anchor="middle" x="742" y="-15.5" font-family="Helvetica,sans-Serif" font-size="10.00">rx_sar_table</text>
</a>
</g>
</g>
<!-- dir_2a397433d412fbb0ac7e3f4eb37ee760&#45;&gt;dir_e4c8e9759fe719f97b5143e470de01f0 -->
<g id="edge9" class="edge">
<title>dir_2a397433d412fbb0ac7e3f4eb37ee760&#45;&gt;dir_e4c8e9759fe719f97b5143e470de01f0</title>
<path fill="none" stroke="black" d="M533.34,-146.02C552.2,-135.59 577.78,-121.22 600,-108 636.94,-86.03 678.53,-59.78 707.1,-41.51"/>
<polygon fill="black" stroke="black" points="709,-44.45 715.53,-36.1 705.22,-38.55 709,-44.45"/>
<g id="a_edge9&#45;headlabel"><a xlink:href="dir_000082_000083.html" target="_top" xlink:title="1">
<text text-anchor="middle" x="707.51" y="-46.28" font-family="Helvetica,sans-Serif" font-size="10.00">1</text>
</a>
</g>
</g>
<!-- dir_e5ff43aef556d54b386024f1cb34403d -->
<g id="node11" class="node">
<title>dir_e5ff43aef556d54b386024f1cb34403d</title>
<g id="a_node11"><a xlink:href="dir_e5ff43aef556d54b386024f1cb34403d.html" target="_top" xlink:title="ack_delay">
<polygon fill="none" stroke="red" points="865,-36 799,-36 799,0 865,0 865,-36"/>
<text text-anchor="middle" x="832" y="-15.5" font-family="Helvetica,sans-Serif" font-size="10.00">ack_delay</text>
</a>
</g>
</g>
<!-- dir_2a397433d412fbb0ac7e3f4eb37ee760&#45;&gt;dir_e5ff43aef556d54b386024f1cb34403d -->
<g id="edge10" class="edge">
<title>dir_2a397433d412fbb0ac7e3f4eb37ee760&#45;&gt;dir_e5ff43aef556d54b386024f1cb34403d</title>
<path fill="none" stroke="black" d="M533.05,-151.06C560.65,-140.78 604.62,-124.02 642,-108 693.24,-86.04 751.11,-58.54 789.38,-39.96"/>
<polygon fill="black" stroke="black" points="791.21,-42.96 798.67,-35.44 788.15,-36.66 791.21,-42.96"/>
<g id="a_edge10&#45;headlabel"><a xlink:href="dir_000082_000074.html" target="_top" xlink:title="1">
<text text-anchor="middle" x="789.22" y="-44.58" font-family="Helvetica,sans-Serif" font-size="10.00">1</text>
</a>
</g>
</g>
<!-- dir_eddf108cc624d2f50c8f564dd298775d -->
<g id="node12" class="node">
<title>dir_eddf108cc624d2f50c8f564dd298775d</title>
<g id="a_node12"><a xlink:href="dir_eddf108cc624d2f50c8f564dd298775d.html" target="_top" xlink:title="state_table">
<polygon fill="none" stroke="black" points="954.5,-36 883.5,-36 883.5,0 954.5,0 954.5,-36"/>
<text text-anchor="middle" x="919" y="-15.5" font-family="Helvetica,sans-Serif" font-size="10.00">state_table</text>
</a>
</g>
</g>
<!-- dir_2a397433d412fbb0ac7e3f4eb37ee760&#45;&gt;dir_eddf108cc624d2f50c8f564dd298775d -->
<g id="edge11" class="edge">
<title>dir_2a397433d412fbb0ac7e3f4eb37ee760&#45;&gt;dir_eddf108cc624d2f50c8f564dd298775d</title>
<path fill="none" stroke="black" d="M533.02,-154.44C570.12,-145.21 638.74,-127.35 696,-108 758.55,-86.86 829.05,-57.82 873.73,-38.73"/>
<polygon fill="black" stroke="black" points="875.33,-41.86 883.14,-34.7 872.57,-35.43 875.33,-41.86"/>
<g id="a_edge11&#45;headlabel"><a xlink:href="dir_000082_000085.html" target="_top" xlink:title="1">
<text text-anchor="middle" x="873.14" y="-43.39" font-family="Helvetica,sans-Serif" font-size="10.00">1</text>
</a>
</g>
</g>
<!-- dir_592bd16346e6805364137fbb564fc530&#45;&gt;dir_116776bbb74f65bb8bf12fd7da7745fd -->
<g id="edge12" class="edge">
<title>dir_592bd16346e6805364137fbb564fc530&#45;&gt;dir_116776bbb74f65bb8bf12fd7da7745fd</title>
<path fill="none" stroke="black" d="M473.33,-88.66C400.51,-87.14 219.68,-79.22 63.91,-35.72"/>
<polygon fill="black" stroke="black" points="64.74,-32.31 54.16,-32.94 62.82,-39.04 64.74,-32.31"/>
<g id="a_edge12&#45;headlabel"><a xlink:href="dir_000088_000086.html" target="_top" xlink:title="1">
<text text-anchor="middle" x="68.97" y="-28.07" font-family="Helvetica,sans-Serif" font-size="10.00">1</text>
</a>
</g>
</g>
<!-- dir_592bd16346e6805364137fbb564fc530&#45;&gt;dir_13512d79193b746fbd0446caf2a7076f -->
<g id="edge13" class="edge">
<title>dir_592bd16346e6805364137fbb564fc530&#45;&gt;dir_13512d79193b746fbd0446caf2a7076f</title>
<path fill="none" stroke="black" d="M473.06,-86.06C412.57,-80.22 279.73,-65.31 159.33,-35.8"/>
<polygon fill="black" stroke="black" points="160.13,-32.39 149.58,-33.37 158.44,-39.18 160.13,-32.39"/>
<g id="a_edge13&#45;headlabel"><a xlink:href="dir_000088_000091.html" target="_top" xlink:title="1">
<text text-anchor="middle" x="164.3" y="-28" font-family="Helvetica,sans-Serif" font-size="10.00">1</text>
</a>
</g>
</g>
<!-- dir_592bd16346e6805364137fbb564fc530&#45;&gt;dir_19a6afe2592d40dd3fc0d3399c6015fe -->
<g id="edge14" class="edge">
<title>dir_592bd16346e6805364137fbb564fc530&#45;&gt;dir_19a6afe2592d40dd3fc0d3399c6015fe</title>
<path fill="none" stroke="black" d="M473.33,-82.15C430.29,-72.98 352.03,-55.82 276.04,-36.2"/>
<polygon fill="black" stroke="black" points="276.86,-32.8 266.31,-33.67 275.1,-39.57 276.86,-32.8"/>
<g id="a_edge14&#45;headlabel"><a xlink:href="dir_000088_000087.html" target="_top" xlink:title="1">
<text text-anchor="middle" x="281.06" y="-28.45" font-family="Helvetica,sans-Serif" font-size="10.00">1</text>
</a>
</g>
</g>
<!-- dir_592bd16346e6805364137fbb564fc530&#45;&gt;dir_2fcaf553d3ed3689d342eef26f04b478 -->
<g id="edge15" class="edge">
<title>dir_592bd16346e6805364137fbb564fc530&#45;&gt;dir_2fcaf553d3ed3689d342eef26f04b478</title>
<path fill="none" stroke="black" d="M473.46,-77.67C445.57,-67.87 404.11,-53.1 359.9,-36.28"/>
<polygon fill="black" stroke="black" points="361.02,-32.96 350.42,-32.66 358.52,-39.5 361.02,-32.96"/>
<g id="a_edge15&#45;headlabel"><a xlink:href="dir_000088_000078.html" target="_top" xlink:title="1">
<text text-anchor="middle" x="365.39" y="-29.09" font-family="Helvetica,sans-Serif" font-size="10.00">1</text>
</a>
</g>
</g>
<!-- dir_592bd16346e6805364137fbb564fc530&#45;&gt;dir_581e1b63a87af0e0ceb4aaafb47d829e -->
<g id="edge16" class="edge">
<title>dir_592bd16346e6805364137fbb564fc530&#45;&gt;dir_581e1b63a87af0e0ceb4aaafb47d829e</title>
<path fill="none" stroke="black" d="M489.69,-71.7C481.69,-63.22 471.93,-52.86 463.18,-43.58"/>
<polygon fill="black" stroke="black" points="465.53,-40.98 456.13,-36.1 460.44,-45.78 465.53,-40.98"/>
<g id="a_edge16&#45;headlabel"><a xlink:href="dir_000088_000084.html" target="_top" xlink:title="1">
<text text-anchor="middle" x="470.07" y="-39.15" font-family="Helvetica,sans-Serif" font-size="10.00">1</text>
</a>
</g>
</g>
<!-- dir_592bd16346e6805364137fbb564fc530&#45;&gt;dir_a37b80ab0a2749e6985e9032ea4b52fa -->
<g id="edge17" class="edge">
<title>dir_592bd16346e6805364137fbb564fc530&#45;&gt;dir_a37b80ab0a2749e6985e9032ea4b52fa</title>
<path fill="none" stroke="black" d="M522.07,-71.7C529.94,-63.22 539.56,-52.86 548.17,-43.58"/>
<polygon fill="black" stroke="black" points="550.88,-45.81 555.12,-36.1 545.75,-41.05 550.88,-45.81"/>
<g id="a_edge17&#45;headlabel"><a xlink:href="dir_000088_000077.html" target="_top" xlink:title="1">
<text text-anchor="middle" x="550.51" y="-47.88" font-family="Helvetica,sans-Serif" font-size="10.00">1</text>
</a>
</g>
</g>
<!-- dir_592bd16346e6805364137fbb564fc530&#45;&gt;dir_ae87538a6eea15386c17fa032287f472 -->
<g id="edge18" class="edge">
<title>dir_592bd16346e6805364137fbb564fc530&#45;&gt;dir_ae87538a6eea15386c17fa032287f472</title>
<path fill="none" stroke="black" d="M538.61,-73.98C562.9,-62.8 596.08,-47.52 621.29,-35.9"/>
<polygon fill="black" stroke="black" points="622.91,-39.01 630.53,-31.65 619.99,-32.65 622.91,-39.01"/>
<g id="a_edge18&#45;headlabel"><a xlink:href="dir_000088_000092.html" target="_top" xlink:title="1">
<text text-anchor="middle" x="620.84" y="-40.59" font-family="Helvetica,sans-Serif" font-size="10.00">1</text>
</a>
</g>
</g>
<!-- dir_592bd16346e6805364137fbb564fc530&#45;&gt;dir_e4c8e9759fe719f97b5143e470de01f0 -->
<g id="edge19" class="edge">
<title>dir_592bd16346e6805364137fbb564fc530&#45;&gt;dir_e4c8e9759fe719f97b5143e470de01f0</title>
<path fill="none" stroke="black" d="M538.8,-80.45C574.55,-70.98 633.64,-54.89 693.66,-36"/>
<polygon fill="black" stroke="black" points="694.83,-39.31 703.3,-32.95 692.71,-32.64 694.83,-39.31"/>
<g id="a_edge19&#45;headlabel"><a xlink:href="dir_000088_000083.html" target="_top" xlink:title="1">
<text text-anchor="middle" x="692.26" y="-40.6" font-family="Helvetica,sans-Serif" font-size="10.00">1</text>
</a>
</g>
</g>
<!-- dir_592bd16346e6805364137fbb564fc530&#45;&gt;dir_e5ff43aef556d54b386024f1cb34403d -->
<g id="edge20" class="edge">
<title>dir_592bd16346e6805364137fbb564fc530&#45;&gt;dir_e5ff43aef556d54b386024f1cb34403d</title>
<path fill="none" stroke="black" d="M538.73,-84.94C591.92,-77.89 700.15,-61.63 789,-36 789.1,-35.97 789.2,-35.94 789.3,-35.91"/>
<polygon fill="black" stroke="black" points="790.44,-39.22 798.88,-32.82 788.29,-32.56 790.44,-39.22"/>
<g id="a_edge20&#45;headlabel"><a xlink:href="dir_000088_000074.html" target="_top" xlink:title="1">
<text text-anchor="middle" x="787.89" y="-40.53" font-family="Helvetica,sans-Serif" font-size="10.00">1</text>
</a>
</g>
</g>
<!-- dir_592bd16346e6805364137fbb564fc530&#45;&gt;dir_eddf108cc624d2f50c8f564dd298775d -->
<g id="edge21" class="edge">
<title>dir_592bd16346e6805364137fbb564fc530&#45;&gt;dir_eddf108cc624d2f50c8f564dd298775d</title>
<path fill="none" stroke="black" d="M538.96,-86.68C602.28,-81.7 745.23,-67.96 873.38,-35.82"/>
<polygon fill="black" stroke="black" points="874.54,-39.13 883.37,-33.27 872.81,-32.35 874.54,-39.13"/>
<g id="a_edge21&#45;headlabel"><a xlink:href="dir_000088_000085.html" target="_top" xlink:title="1">
<text text-anchor="middle" x="871.76" y="-40.27" font-family="Helvetica,sans-Serif" font-size="10.00">1</text>
</a>
</g>
</g>
</g>
</svg>
