<?xml version="1.0" encoding="UTF-8" standalone="no"?>
<!DOCTYPE svg PUBLIC "-//W3C//DTD SVG 1.1//EN"
 "http://www.w3.org/Graphics/SVG/1.1/DTD/svg11.dtd">
<!-- Generated by graphviz version 2.43.0 (0)
 -->
<!-- Title: repos_for_Dox/cFp_Zoo/HOST/vision Pages: 1 -->
<svg width="661pt" height="211pt"
 viewBox="0.00 0.00 661.00 211.00" xmlns="http://www.w3.org/2000/svg" xmlns:xlink="http://www.w3.org/1999/xlink">
<g id="graph0" class="graph" transform="scale(1 1) rotate(0) translate(4 207)">
<title>repos_for_Dox/cFp_Zoo/HOST/vision</title>
<g id="clust1" class="cluster">
<title>clusterdir_23f0d356d1035ca2b48ed060bc32e928</title>
<g id="a_clust1"><a xlink:href="dir_23f0d356d1035ca2b48ed060bc32e928.html" target="_top" xlink:title="HOST">
<polygon fill="#ddddee" stroke="black" points="8,-8 8,-159 645,-159 645,-8 8,-8"/>
<text text-anchor="middle" x="326.5" y="-147" font-family="Helvetica,sans-Serif" font-size="10.00">HOST</text>
</a>
</g>
</g>
<g id="clust2" class="cluster">
<title>clusterdir_6b20162fd5645267b8cad5d26dd6919f</title>
<g id="a_clust2"><a xlink:href="dir_6b20162fd5645267b8cad5d26dd6919f.html" target="_top">
<polygon fill="#eeeeff" stroke="black" points="16,-80 16,-132 637,-132 637,-80 16,-80"/>
</a>
</g>
</g>
<!-- dir_2d1a2d04cdc9c8c736428abde8ada78b -->
<g id="node1" class="node">
<title>dir_2d1a2d04cdc9c8c736428abde8ada78b</title>
<g id="a_node1"><a xlink:href="dir_2d1a2d04cdc9c8c736428abde8ada78b.html" target="_top" xlink:title="common">
<polygon fill="none" stroke="red" points="192.5,-52 133.5,-52 133.5,-16 192.5,-16 192.5,-52"/>
<text text-anchor="middle" x="163" y="-31.5" font-family="Helvetica,sans-Serif" font-size="10.00">common</text>
</a>
</g>
</g>
<!-- dir_6b20162fd5645267b8cad5d26dd6919f -->
<g id="node2" class="node">
<title>dir_6b20162fd5645267b8cad5d26dd6919f</title>
<text text-anchor="middle" x="602" y="-103.5" font-family="Helvetica,sans-Serif" font-size="10.00">vision</text>
</g>
<!-- dir_9c5a1bae85a47fb69aa89f5a9c974096 -->
<g id="node3" class="node">
<title>dir_9c5a1bae85a47fb69aa89f5a9c974096</title>
<g id="a_node3"><a xlink:href="dir_9c5a1bae85a47fb69aa89f5a9c974096.html" target="_top" xlink:title="common">
<polygon fill="white" stroke="red" points="556.5,-124 497.5,-124 497.5,-88 556.5,-88 556.5,-124"/>
<text text-anchor="middle" x="527" y="-103.5" font-family="Helvetica,sans-Serif" font-size="10.00">common</text>
</a>
</g>
</g>
<!-- dir_a173aa145f3b5ee5ae11f4b23ae502da -->
<g id="node4" class="node">
<title>dir_a173aa145f3b5ee5ae11f4b23ae502da</title>
<g id="a_node4"><a xlink:href="dir_a173aa145f3b5ee5ae11f4b23ae502da.html" target="_top" xlink:title="gammacorrection">
<polygon fill="white" stroke="red" points="479.5,-124 376.5,-124 376.5,-88 479.5,-88 479.5,-124"/>
<text text-anchor="middle" x="428" y="-103.5" font-family="Helvetica,sans-Serif" font-size="10.00">gammacorrection</text>
</a>
</g>
</g>
<!-- dir_372190bba8e51f711404a4d20d8d4609 -->
<g id="node9" class="node">
<title>dir_372190bba8e51f711404a4d20d8d4609</title>
<g id="a_node9"><a xlink:href="dir_372190bba8e51f711404a4d20d8d4609.html" target="_top" xlink:title="ROLE">
<polygon fill="none" stroke="red" points="274,-203 220,-203 220,-167 274,-167 274,-203"/>
<text text-anchor="middle" x="247" y="-182.5" font-family="Helvetica,sans-Serif" font-size="10.00">ROLE</text>
</a>
</g>
</g>
<!-- dir_a173aa145f3b5ee5ae11f4b23ae502da&#45;&gt;dir_372190bba8e51f711404a4d20d8d4609 -->
<g id="edge8" class="edge">
<title>dir_a173aa145f3b5ee5ae11f4b23ae502da&#45;&gt;dir_372190bba8e51f711404a4d20d8d4609</title>
<path fill="none" stroke="black" d="M405.02,-124.07C392.1,-135.68 375.49,-150.43 358,-159 334.74,-170.4 306.47,-176.61 284.18,-179.99"/>
<polygon fill="black" stroke="black" points="283.51,-176.55 274.08,-181.39 284.47,-183.48 283.51,-176.55"/>
<g id="a_edge8&#45;headlabel"><a xlink:href="dir_000160_000023.html" target="_top" xlink:title="1">
<text text-anchor="middle" x="286.68" y="-170.74" font-family="Helvetica,sans-Serif" font-size="10.00">1</text>
</a>
</g>
</g>
<!-- dir_08a353ee0cb92f7197739c3ce107cfb8 -->
<g id="node5" class="node">
<title>dir_08a353ee0cb92f7197739c3ce107cfb8</title>
<g id="a_node5"><a xlink:href="dir_08a353ee0cb92f7197739c3ce107cfb8.html" target="_top" xlink:title="harris">
<polygon fill="white" stroke="red" points="358,-124 304,-124 304,-88 358,-88 358,-124"/>
<text text-anchor="middle" x="331" y="-103.5" font-family="Helvetica,sans-Serif" font-size="10.00">harris</text>
</a>
</g>
</g>
<!-- dir_08a353ee0cb92f7197739c3ce107cfb8&#45;&gt;dir_372190bba8e51f711404a4d20d8d4609 -->
<g id="edge11" class="edge">
<title>dir_08a353ee0cb92f7197739c3ce107cfb8&#45;&gt;dir_372190bba8e51f711404a4d20d8d4609</title>
<path fill="none" stroke="black" d="M314.42,-124.05C306.66,-135.06 297.2,-149.12 286,-159 285.01,-159.87 283.98,-160.73 282.93,-161.56"/>
<polygon fill="black" stroke="black" points="280.61,-158.91 274.44,-167.52 284.64,-164.64 280.61,-158.91"/>
<g id="a_edge11&#45;headlabel"><a xlink:href="dir_000161_000023.html" target="_top" xlink:title="1">
<text text-anchor="middle" x="281.92" y="-152.02" font-family="Helvetica,sans-Serif" font-size="10.00">1</text>
</a>
</g>
</g>
<!-- dir_2501e3ec97524c884edd893780052381 -->
<g id="node6" class="node">
<title>dir_2501e3ec97524c884edd893780052381</title>
<g id="a_node6"><a xlink:href="dir_2501e3ec97524c884edd893780052381.html" target="_top" xlink:title="median_blur">
<polygon fill="white" stroke="red" points="285.5,-124 208.5,-124 208.5,-88 285.5,-88 285.5,-124"/>
<text text-anchor="middle" x="247" y="-103.5" font-family="Helvetica,sans-Serif" font-size="10.00">median_blur</text>
</a>
</g>
</g>
<!-- dir_2501e3ec97524c884edd893780052381&#45;&gt;dir_2d1a2d04cdc9c8c736428abde8ada78b -->
<g id="edge6" class="edge">
<title>dir_2501e3ec97524c884edd893780052381&#45;&gt;dir_2d1a2d04cdc9c8c736428abde8ada78b</title>
<path fill="none" stroke="black" d="M226.24,-87.7C215.76,-78.97 202.89,-68.24 191.5,-58.75"/>
<polygon fill="black" stroke="black" points="193.45,-55.82 183.53,-52.1 188.97,-61.19 193.45,-55.82"/>
<g id="a_edge6&#45;headlabel"><a xlink:href="dir_000165_000140.html" target="_top" xlink:title="2">
<text text-anchor="middle" x="198.03" y="-53.44" font-family="Helvetica,sans-Serif" font-size="10.00">2</text>
</a>
</g>
</g>
<!-- dir_2501e3ec97524c884edd893780052381&#45;&gt;dir_372190bba8e51f711404a4d20d8d4609 -->
<g id="edge7" class="edge">
<title>dir_2501e3ec97524c884edd893780052381&#45;&gt;dir_372190bba8e51f711404a4d20d8d4609</title>
<path fill="none" stroke="black" d="M241.29,-124.04C240.25,-133.6 239.99,-145.76 240.51,-156.62"/>
<polygon fill="black" stroke="black" points="237.04,-157.2 241.28,-166.91 244.02,-156.68 237.04,-157.2"/>
<g id="a_edge7&#45;headlabel"><a xlink:href="dir_000165_000023.html" target="_top" xlink:title="1">
<text text-anchor="middle" x="233.94" y="-151.33" font-family="Helvetica,sans-Serif" font-size="10.00">1</text>
</a>
</g>
</g>
<!-- dir_fa14a0bb88df8edbc939661f4df7612f -->
<g id="node7" class="node">
<title>dir_fa14a0bb88df8edbc939661f4df7612f</title>
<g id="a_node7"><a xlink:href="dir_fa14a0bb88df8edbc939661f4df7612f.html" target="_top" xlink:title="sobel">
<polygon fill="white" stroke="red" points="190,-124 136,-124 136,-88 190,-88 190,-124"/>
<text text-anchor="middle" x="163" y="-103.5" font-family="Helvetica,sans-Serif" font-size="10.00">sobel</text>
</a>
</g>
</g>
<!-- dir_fa14a0bb88df8edbc939661f4df7612f&#45;&gt;dir_2d1a2d04cdc9c8c736428abde8ada78b -->
<g id="edge12" class="edge">
<title>dir_fa14a0bb88df8edbc939661f4df7612f&#45;&gt;dir_2d1a2d04cdc9c8c736428abde8ada78b</title>
<path fill="none" stroke="black" d="M163,-87.7C163,-79.98 163,-70.71 163,-62.11"/>
<polygon fill="black" stroke="black" points="166.5,-62.1 163,-52.1 159.5,-62.1 166.5,-62.1"/>
<g id="a_edge12&#45;headlabel"><a xlink:href="dir_000169_000140.html" target="_top" xlink:title="1">
<text text-anchor="middle" x="169.34" y="-63.2" font-family="Helvetica,sans-Serif" font-size="10.00">1</text>
</a>
</g>
</g>
<!-- dir_611297f6c9beb89a24614f4a5924872a -->
<g id="node8" class="node">
<title>dir_611297f6c9beb89a24614f4a5924872a</title>
<g id="a_node8"><a xlink:href="dir_611297f6c9beb89a24614f4a5924872a.html" target="_top" xlink:title="warp_transform">
<polygon fill="white" stroke="red" points="118,-124 24,-124 24,-88 118,-88 118,-124"/>
<text text-anchor="middle" x="71" y="-103.5" font-family="Helvetica,sans-Serif" font-size="10.00">warp_transform</text>
</a>
</g>
</g>
<!-- dir_611297f6c9beb89a24614f4a5924872a&#45;&gt;dir_2d1a2d04cdc9c8c736428abde8ada78b -->
<g id="edge9" class="edge">
<title>dir_611297f6c9beb89a24614f4a5924872a&#45;&gt;dir_2d1a2d04cdc9c8c736428abde8ada78b</title>
<path fill="none" stroke="black" d="M93.74,-87.7C105.44,-78.8 119.86,-67.82 132.51,-58.2"/>
<polygon fill="black" stroke="black" points="134.68,-60.94 140.52,-52.1 130.44,-55.37 134.68,-60.94"/>
<g id="a_edge9&#45;headlabel"><a xlink:href="dir_000173_000140.html" target="_top" xlink:title="1">
<text text-anchor="middle" x="133.54" y="-62.88" font-family="Helvetica,sans-Serif" font-size="10.00">1</text>
</a>
</g>
</g>
<!-- dir_611297f6c9beb89a24614f4a5924872a&#45;&gt;dir_372190bba8e51f711404a4d20d8d4609 -->
<g id="edge10" class="edge">
<title>dir_611297f6c9beb89a24614f4a5924872a&#45;&gt;dir_372190bba8e51f711404a4d20d8d4609</title>
<path fill="none" stroke="black" d="M77.38,-124.1C86.3,-135.72 101.5,-150.47 118,-159 146.37,-173.66 182.72,-179.72 209.76,-182.23"/>
<polygon fill="black" stroke="black" points="209.74,-185.74 219.99,-183.05 210.3,-178.76 209.74,-185.74"/>
<g id="a_edge10&#45;headlabel"><a xlink:href="dir_000173_000023.html" target="_top" xlink:title="1">
<text text-anchor="middle" x="205.93" y="-185.78" font-family="Helvetica,sans-Serif" font-size="10.00">1</text>
</a>
</g>
</g>
<!-- dir_372190bba8e51f711404a4d20d8d4609&#45;&gt;dir_a173aa145f3b5ee5ae11f4b23ae502da -->
<g id="edge4" class="edge">
<title>dir_372190bba8e51f711404a4d20d8d4609&#45;&gt;dir_a173aa145f3b5ee5ae11f4b23ae502da</title>
<path fill="none" stroke="black" d="M274.38,-182.78C301.75,-180.65 343.71,-174.83 376,-159 389.94,-152.17 403.32,-141.42 413.23,-131.46"/>
<polygon fill="black" stroke="black" points="415.84,-133.78 420.08,-124.07 410.71,-129.02 415.84,-133.78"/>
<g id="a_edge4&#45;headlabel"><a xlink:href="dir_000023_000160.html" target="_top" xlink:title="2">
<text text-anchor="middle" x="415.48" y="-135.85" font-family="Helvetica,sans-Serif" font-size="10.00">2</text>
</a>
</g>
</g>
<!-- dir_372190bba8e51f711404a4d20d8d4609&#45;&gt;dir_08a353ee0cb92f7197739c3ce107cfb8 -->
<g id="edge1" class="edge">
<title>dir_372190bba8e51f711404a4d20d8d4609&#45;&gt;dir_08a353ee0cb92f7197739c3ce107cfb8</title>
<path fill="none" stroke="black" d="M274.16,-176.64C284.47,-172.42 295.54,-166.46 304,-159 312.31,-151.67 319.67,-142.04 324.97,-133.05"/>
<polygon fill="black" stroke="black" points="328.15,-134.53 329.72,-124.05 321.96,-131.27 328.15,-134.53"/>
<g id="a_edge1&#45;headlabel"><a xlink:href="dir_000023_000161.html" target="_top" xlink:title="1">
<text text-anchor="middle" x="328.99" y="-136.54" font-family="Helvetica,sans-Serif" font-size="10.00">1</text>
</a>
</g>
</g>
<!-- dir_372190bba8e51f711404a4d20d8d4609&#45;&gt;dir_2501e3ec97524c884edd893780052381 -->
<g id="edge2" class="edge">
<title>dir_372190bba8e51f711404a4d20d8d4609&#45;&gt;dir_2501e3ec97524c884edd893780052381</title>
<path fill="none" stroke="black" d="M252.72,-166.91C253.75,-157.34 254.01,-145.18 253.49,-134.32"/>
<polygon fill="black" stroke="black" points="256.96,-133.75 252.71,-124.04 249.98,-134.28 256.96,-133.75"/>
<g id="a_edge2&#45;headlabel"><a xlink:href="dir_000023_000165.html" target="_top" xlink:title="1">
<text text-anchor="middle" x="260.06" y="-134.62" font-family="Helvetica,sans-Serif" font-size="10.00">1</text>
</a>
</g>
</g>
<!-- dir_372190bba8e51f711404a4d20d8d4609&#45;&gt;dir_fa14a0bb88df8edbc939661f4df7612f -->
<g id="edge5" class="edge">
<title>dir_372190bba8e51f711404a4d20d8d4609&#45;&gt;dir_fa14a0bb88df8edbc939661f4df7612f</title>
<path fill="none" stroke="black" d="M219.76,-172.25C212.9,-168.58 205.83,-164.12 200,-159 191.51,-151.54 183.91,-141.77 177.84,-132.72"/>
<polygon fill="black" stroke="black" points="180.62,-130.57 172.3,-124.01 174.72,-134.33 180.62,-130.57"/>
<g id="a_edge5&#45;headlabel"><a xlink:href="dir_000023_000169.html" target="_top" xlink:title="3">
<text text-anchor="middle" x="184.95" y="-129.58" font-family="Helvetica,sans-Serif" font-size="10.00">3</text>
</a>
</g>
</g>
<!-- dir_372190bba8e51f711404a4d20d8d4609&#45;&gt;dir_611297f6c9beb89a24614f4a5924872a -->
<g id="edge3" class="edge">
<title>dir_372190bba8e51f711404a4d20d8d4609&#45;&gt;dir_611297f6c9beb89a24614f4a5924872a</title>
<path fill="none" stroke="black" d="M219.74,-181.74C196.35,-178.96 162.66,-172.77 136,-159 122.72,-152.14 110.28,-141.25 99.75,-131.2"/>
<polygon fill="black" stroke="black" points="102.05,-128.55 92.44,-124.1 97.18,-133.58 102.05,-128.55"/>
<g id="a_edge3&#45;headlabel"><a xlink:href="dir_000023_000173.html" target="_top" xlink:title="3">
<text text-anchor="middle" x="106.61" y="-126.52" font-family="Helvetica,sans-Serif" font-size="10.00">3</text>
</a>
</g>
</g>
</g>
</svg>
