<?xml version="1.0" encoding="UTF-8" standalone="no"?>
<!DOCTYPE svg PUBLIC "-//W3C//DTD SVG 1.1//EN"
 "http://www.w3.org/Graphics/SVG/1.1/DTD/svg11.dtd">
<!-- Generated by graphviz version 2.43.0 (0)
 -->
<!-- Title: repos_for_Dox/cFp_Zoo/ROLE/vision/hls/median_blur Pages: 1 -->
<svg width="346pt" height="231pt"
 viewBox="0.00 0.00 346.00 231.00" xmlns="http://www.w3.org/2000/svg" xmlns:xlink="http://www.w3.org/1999/xlink">
<g id="graph0" class="graph" transform="scale(1 1) rotate(0) translate(4 227)">
<title>repos_for_Dox/cFp_Zoo/ROLE/vision/hls/median_blur</title>
<g id="clust1" class="cluster">
<title>clusterdir_8fcfd4d6b137402926035128293c4399</title>
<g id="a_clust1"><a xlink:href="dir_8fcfd4d6b137402926035128293c4399.html" target="_top" xlink:title="hls">
<polygon fill="#ddddee" stroke="black" points="8,-56 8,-215 330,-215 330,-56 8,-56"/>
<text text-anchor="middle" x="169" y="-203" font-family="Helvetica,sans-Serif" font-size="10.00">hls</text>
</a>
</g>
</g>
<g id="clust2" class="cluster">
<title>clusterdir_a9a15b71a6cf45f6099944e9c640be6d</title>
<g id="a_clust2"><a xlink:href="dir_a9a15b71a6cf45f6099944e9c640be6d.html" target="_top">
<polygon fill="#eeeeff" stroke="black" points="16,-64 16,-188 254,-188 254,-64 16,-64"/>
</a>
</g>
</g>
<!-- dir_177b9ba96c5dcf245c339ecf570fbf7e -->
<g id="node1" class="node">
<title>dir_177b9ba96c5dcf245c339ecf570fbf7e</title>
<g id="a_node1"><a xlink:href="dir_177b9ba96c5dcf245c339ecf570fbf7e.html" target="_top" xlink:title="common">
<polygon fill="none" stroke="red" points="321.5,-108 262.5,-108 262.5,-72 321.5,-72 321.5,-108"/>
<text text-anchor="middle" x="292" y="-87.5" font-family="Helvetica,sans-Serif" font-size="10.00">common</text>
</a>
</g>
</g>
<!-- dir_a9a15b71a6cf45f6099944e9c640be6d -->
<g id="node2" class="node">
<title>dir_a9a15b71a6cf45f6099944e9c640be6d</title>
<text text-anchor="middle" x="207" y="-159.5" font-family="Helvetica,sans-Serif" font-size="10.00">median_blur</text>
</g>
<!-- dir_66a20097fa95b6243c15937749d16e3f -->
<g id="node3" class="node">
<title>dir_66a20097fa95b6243c15937749d16e3f</title>
<g id="a_node3"><a xlink:href="dir_66a20097fa95b6243c15937749d16e3f.html" target="_top" xlink:title="include">
<polygon fill="white" stroke="black" points="114,-108 60,-108 60,-72 114,-72 114,-108"/>
<text text-anchor="middle" x="87" y="-87.5" font-family="Helvetica,sans-Serif" font-size="10.00">include</text>
</a>
</g>
</g>
<!-- dir_23f0d356d1035ca2b48ed060bc32e928 -->
<g id="node6" class="node">
<title>dir_23f0d356d1035ca2b48ed060bc32e928</title>
<g id="a_node6"><a xlink:href="dir_23f0d356d1035ca2b48ed060bc32e928.html" target="_top" xlink:title="HOST">
<polygon fill="none" stroke="red" points="78,-36 24,-36 24,0 78,0 78,-36"/>
<text text-anchor="middle" x="51" y="-15.5" font-family="Helvetica,sans-Serif" font-size="10.00">HOST</text>
</a>
</g>
</g>
<!-- dir_66a20097fa95b6243c15937749d16e3f&#45;&gt;dir_23f0d356d1035ca2b48ed060bc32e928 -->
<g id="edge5" class="edge">
<title>dir_66a20097fa95b6243c15937749d16e3f&#45;&gt;dir_23f0d356d1035ca2b48ed060bc32e928</title>
<path fill="none" stroke="black" d="M72.19,-71.7C67.27,-63.73 62.1,-54.1 57.95,-45.26"/>
<polygon fill="black" stroke="black" points="61.14,-43.84 53.9,-36.1 54.74,-46.67 61.14,-43.84"/>
<g id="a_edge5&#45;headlabel"><a xlink:href="dir_000240_000139.html" target="_top" xlink:title="1">
<text text-anchor="middle" x="65.19" y="-43.48" font-family="Helvetica,sans-Serif" font-size="10.00">1</text>
</a>
</g>
</g>
<!-- dir_c763309d04da4bd0478ffd28b96eadab -->
<g id="node7" class="node">
<title>dir_c763309d04da4bd0478ffd28b96eadab</title>
<g id="a_node7"><a xlink:href="dir_c763309d04da4bd0478ffd28b96eadab.html" target="_top" xlink:title="cFDK">
<polygon fill="none" stroke="red" points="150,-36 96,-36 96,0 150,0 150,-36"/>
<text text-anchor="middle" x="123" y="-15.5" font-family="Helvetica,sans-Serif" font-size="10.00">cFDK</text>
</a>
</g>
</g>
<!-- dir_66a20097fa95b6243c15937749d16e3f&#45;&gt;dir_c763309d04da4bd0478ffd28b96eadab -->
<g id="edge6" class="edge">
<title>dir_66a20097fa95b6243c15937749d16e3f&#45;&gt;dir_c763309d04da4bd0478ffd28b96eadab</title>
<path fill="none" stroke="black" d="M95.9,-71.7C100,-63.73 104.95,-54.1 109.49,-45.26"/>
<polygon fill="black" stroke="black" points="112.74,-46.6 114.2,-36.1 106.52,-43.4 112.74,-46.6"/>
<g id="a_edge6&#45;headlabel"><a xlink:href="dir_000240_000001.html" target="_top" xlink:title="1">
<text text-anchor="middle" x="113.62" y="-48.59" font-family="Helvetica,sans-Serif" font-size="10.00">1</text>
</a>
</g>
</g>
<!-- dir_21a6f2eacd45078371ac651988fd3e8d -->
<g id="node4" class="node">
<title>dir_21a6f2eacd45078371ac651988fd3e8d</title>
<g id="a_node4"><a xlink:href="dir_21a6f2eacd45078371ac651988fd3e8d.html" target="_top" xlink:title="src">
<polygon fill="white" stroke="black" points="78,-180 24,-180 24,-144 78,-144 78,-180"/>
<text text-anchor="middle" x="51" y="-159.5" font-family="Helvetica,sans-Serif" font-size="10.00">src</text>
</a>
</g>
</g>
<!-- dir_21a6f2eacd45078371ac651988fd3e8d&#45;&gt;dir_66a20097fa95b6243c15937749d16e3f -->
<g id="edge3" class="edge">
<title>dir_21a6f2eacd45078371ac651988fd3e8d&#45;&gt;dir_66a20097fa95b6243c15937749d16e3f</title>
<path fill="none" stroke="black" d="M59.9,-143.7C64,-135.73 68.95,-126.1 73.49,-117.26"/>
<polygon fill="black" stroke="black" points="76.74,-118.6 78.2,-108.1 70.52,-115.4 76.74,-118.6"/>
<g id="a_edge3&#45;headlabel"><a xlink:href="dir_000249_000240.html" target="_top" xlink:title="3">
<text text-anchor="middle" x="77.62" y="-120.59" font-family="Helvetica,sans-Serif" font-size="10.00">3</text>
</a>
</g>
</g>
<!-- dir_698fc4a790b610045caf298b39c8ece6 -->
<g id="node5" class="node">
<title>dir_698fc4a790b610045caf298b39c8ece6</title>
<g id="a_node5"><a xlink:href="dir_698fc4a790b610045caf298b39c8ece6.html" target="_top" xlink:title="test">
<polygon fill="white" stroke="black" points="150,-180 96,-180 96,-144 150,-144 150,-180"/>
<text text-anchor="middle" x="123" y="-159.5" font-family="Helvetica,sans-Serif" font-size="10.00">test</text>
</a>
</g>
</g>
<!-- dir_698fc4a790b610045caf298b39c8ece6&#45;&gt;dir_177b9ba96c5dcf245c339ecf570fbf7e -->
<g id="edge1" class="edge">
<title>dir_698fc4a790b610045caf298b39c8ece6&#45;&gt;dir_177b9ba96c5dcf245c339ecf570fbf7e</title>
<path fill="none" stroke="black" d="M150.37,-148.13C153.6,-146.7 156.86,-145.29 160,-144 199.88,-127.54 213.49,-126.48 252.99,-110.04"/>
<polygon fill="black" stroke="black" points="254.59,-113.16 262.42,-106.03 251.85,-106.72 254.59,-113.16"/>
<g id="a_edge1&#45;headlabel"><a xlink:href="dir_000250_000185.html" target="_top" xlink:title="1">
<text text-anchor="middle" x="252.39" y="-114.68" font-family="Helvetica,sans-Serif" font-size="10.00">1</text>
</a>
</g>
</g>
<!-- dir_698fc4a790b610045caf298b39c8ece6&#45;&gt;dir_66a20097fa95b6243c15937749d16e3f -->
<g id="edge2" class="edge">
<title>dir_698fc4a790b610045caf298b39c8ece6&#45;&gt;dir_66a20097fa95b6243c15937749d16e3f</title>
<path fill="none" stroke="black" d="M114.1,-143.7C110,-135.73 105.05,-126.1 100.51,-117.26"/>
<polygon fill="black" stroke="black" points="103.48,-115.4 95.8,-108.1 97.26,-118.6 103.48,-115.4"/>
<g id="a_edge2&#45;headlabel"><a xlink:href="dir_000250_000240.html" target="_top" xlink:title="1">
<text text-anchor="middle" x="107.65" y="-114.79" font-family="Helvetica,sans-Serif" font-size="10.00">1</text>
</a>
</g>
</g>
<!-- dir_23f0d356d1035ca2b48ed060bc32e928&#45;&gt;dir_66a20097fa95b6243c15937749d16e3f -->
<g id="edge4" class="edge">
<title>dir_23f0d356d1035ca2b48ed060bc32e928&#45;&gt;dir_66a20097fa95b6243c15937749d16e3f</title>
<path fill="none" stroke="black" d="M65.69,-36.1C70.61,-44.04 75.78,-53.67 79.95,-62.51"/>
<polygon fill="black" stroke="black" points="76.77,-63.97 84.02,-71.7 83.17,-61.14 76.77,-63.97"/>
<g id="a_edge4&#45;headlabel"><a xlink:href="dir_000139_000240.html" target="_top" xlink:title="1">
<text text-anchor="middle" x="72.71" y="-59.34" font-family="Helvetica,sans-Serif" font-size="10.00">1</text>
</a>
</g>
</g>
</g>
</svg>
