<?xml version="1.0" encoding="UTF-8" standalone="no"?>
<!DOCTYPE svg PUBLIC "-//W3C//DTD SVG 1.1//EN"
 "http://www.w3.org/Graphics/SVG/1.1/DTD/svg11.dtd">
<!-- Generated by graphviz version 2.43.0 (0)
 -->
<!-- Title: repos_for_Dox/cFp_Zoo/ROLE/custom/hls/uppercase/test Pages: 1 -->
<svg width="156pt" height="167pt"
 viewBox="0.00 0.00 155.50 167.00" xmlns="http://www.w3.org/2000/svg" xmlns:xlink="http://www.w3.org/1999/xlink">
<g id="graph0" class="graph" transform="scale(1 1) rotate(0) translate(4 163)">
<title>repos_for_Dox/cFp_Zoo/ROLE/custom/hls/uppercase/test</title>
<g id="clust1" class="cluster">
<title>clusterdir_c1ad335428e75bcea888e0edf1927136</title>
<g id="a_clust1"><a xlink:href="dir_c1ad335428e75bcea888e0edf1927136.html" target="_top" xlink:title="uppercase">
<polygon fill="#ddddee" stroke="black" points="8,-8 8,-151 78,-151 78,-8 8,-8"/>
<text text-anchor="middle" x="43" y="-139" font-family="Helvetica,sans-Serif" font-size="10.00">uppercase</text>
</a>
</g>
</g>
<!-- dir_cc0f0a5500c7fc6bd4dc2ef850ae790f -->
<g id="node1" class="node">
<title>dir_cc0f0a5500c7fc6bd4dc2ef850ae790f</title>
<g id="a_node1"><a xlink:href="dir_cc0f0a5500c7fc6bd4dc2ef850ae790f.html" target="_top" xlink:title="include">
<polygon fill="none" stroke="black" points="70,-52 16,-52 16,-16 70,-16 70,-52"/>
<text text-anchor="middle" x="43" y="-31.5" font-family="Helvetica,sans-Serif" font-size="10.00">include</text>
</a>
</g>
</g>
<!-- dir_7bcf5fd27b75ae7f85acd5e99f6439d1 -->
<g id="node2" class="node">
<title>dir_7bcf5fd27b75ae7f85acd5e99f6439d1</title>
<g id="a_node2"><a xlink:href="dir_7bcf5fd27b75ae7f85acd5e99f6439d1.html" target="_top" xlink:title="test">
<polygon fill="#eeeeff" stroke="black" points="70,-124 16,-124 16,-88 70,-88 70,-124"/>
<text text-anchor="middle" x="43" y="-103.5" font-family="Helvetica,sans-Serif" font-size="10.00">test</text>
</a>
</g>
</g>
<!-- dir_7bcf5fd27b75ae7f85acd5e99f6439d1&#45;&gt;dir_cc0f0a5500c7fc6bd4dc2ef850ae790f -->
<g id="edge2" class="edge">
<title>dir_7bcf5fd27b75ae7f85acd5e99f6439d1&#45;&gt;dir_cc0f0a5500c7fc6bd4dc2ef850ae790f</title>
<path fill="none" stroke="black" d="M43,-87.7C43,-79.98 43,-70.71 43,-62.11"/>
<polygon fill="black" stroke="black" points="46.5,-62.1 43,-52.1 39.5,-62.1 46.5,-62.1"/>
<g id="a_edge2&#45;headlabel"><a xlink:href="dir_000229_000224.html" target="_top" xlink:title="1">
<text text-anchor="middle" x="49.34" y="-63.2" font-family="Helvetica,sans-Serif" font-size="10.00">1</text>
</a>
</g>
</g>
<!-- dir_55f47020d71592f444d89e499c77159c -->
<g id="node3" class="node">
<title>dir_55f47020d71592f444d89e499c77159c</title>
<g id="a_node3"><a xlink:href="dir_55f47020d71592f444d89e499c77159c.html" target="_top" xlink:title="common">
<polygon fill="none" stroke="red" points="147.5,-52 88.5,-52 88.5,-16 147.5,-16 147.5,-52"/>
<text text-anchor="middle" x="118" y="-31.5" font-family="Helvetica,sans-Serif" font-size="10.00">common</text>
</a>
</g>
</g>
<!-- dir_7bcf5fd27b75ae7f85acd5e99f6439d1&#45;&gt;dir_55f47020d71592f444d89e499c77159c -->
<g id="edge1" class="edge">
<title>dir_7bcf5fd27b75ae7f85acd5e99f6439d1&#45;&gt;dir_55f47020d71592f444d89e499c77159c</title>
<path fill="none" stroke="black" d="M61.54,-87.7C70.8,-79.05 82.16,-68.45 92.26,-59.03"/>
<polygon fill="black" stroke="black" points="94.75,-61.49 99.67,-52.1 89.98,-56.37 94.75,-61.49"/>
<g id="a_edge1&#45;headlabel"><a xlink:href="dir_000229_000179.html" target="_top" xlink:title="1">
<text text-anchor="middle" x="94.06" y="-63.51" font-family="Helvetica,sans-Serif" font-size="10.00">1</text>
</a>
</g>
</g>
</g>
</svg>
