<?xml version="1.0" encoding="UTF-8" standalone="no"?>
<!DOCTYPE svg PUBLIC "-//W3C//DTD SVG 1.1//EN"
 "http://www.w3.org/Graphics/SVG/1.1/DTD/svg11.dtd">
<!-- Generated by graphviz version 2.43.0 (0)
 -->
<!-- Title: repos_for_Dox/cFp_Zoo/ROLE/custom/hls Pages: 1 -->
<!--zoomable 183 -->
<svg id="main" version="1.1" xmlns="http://www.w3.org/2000/svg" xmlns:xlink="http://www.w3.org/1999/xlink" xml:space="preserve" onload="init(evt)">
<style type="text/css"><![CDATA[
.edge:hover path { stroke: red; }
.edge:hover polygon { stroke: red; fill: red; }
]]></style>
<script type="text/javascript"><![CDATA[
var edges = document.getElementsByTagName('g');
if (edges && edges.length) {
  for (var i=0;i<edges.length;i++) {
    if (edges[i].id.substr(0,4)=='edge') {
      edges[i].setAttribute('class','edge');
    }
  }
}
]]></script>
        <defs>
                <circle id="rim" cx="0" cy="0" r="7"/>
                <circle id="rim2" cx="0" cy="0" r="3.5"/>
                <g id="zoomPlus">
                        <use xlink:href="#rim" fill="#404040">
                                <set attributeName="fill" to="#808080" begin="zoomplus.mouseover" end="zoomplus.mouseout"/>
                        </use>
                        <path d="M-4,0h8M0,-4v8" fill="none" stroke="white" stroke-width="1.5" pointer-events="none"/>
                </g>
                <g id="zoomMin">
                        <use xlink:href="#rim" fill="#404040">
                                <set attributeName="fill" to="#808080" begin="zoomminus.mouseover" end="zoomminus.mouseout"/>
                        </use>
                        <path d="M-4,0h8" fill="none" stroke="white" stroke-width="1.5" pointer-events="none"/>
                </g>
                <g id="dirArrow">
                        <path fill="none" stroke="white" stroke-width="1.5" d="M0,-3.0v7 M-2.5,-0.5L0,-3.0L2.5,-0.5"/>
                </g>
               <g id="resetDef">
                       <use xlink:href="#rim2" fill="#404040">
                               <set attributeName="fill" to="#808080" begin="reset.mouseover" end="reset.mouseout"/>
                       </use>
               </g>
        </defs>

<script type="text/javascript">
var viewWidth = 540;
var viewHeight = 183;
var sectionId = 'dynsection-0';
</script>
<script xlink:href="svgpan.js"/>
<svg id="graph" class="graph">
<g id="viewport">
<title>repos_for_Dox/cFp_Zoo/ROLE/custom/hls</title>
<g id="clust1" class="cluster">
<title>clusterdir_e9961d5b244581f114631536c420bc43</title>
<g id="a_clust1"><a xlink:href="dir_e9961d5b244581f114631536c420bc43.html" target="_top" xlink:title="custom">
<polygon fill="#ddddee" stroke="black" points="8,-8 8,-167 398,-167 398,-8 8,-8"/>
<text text-anchor="middle" x="203" y="-155" font-family="Helvetica,sans-Serif" font-size="10.00">custom</text>
</a>
</g>
</g>
<g id="clust2" class="cluster">
<title>clusterdir_b78b1bb98bf307aa34f3c18c58e5015e</title>
<g id="a_clust2"><a xlink:href="dir_b78b1bb98bf307aa34f3c18c58e5015e.html" target="_top">
<polygon fill="#eeeeff" stroke="black" points="16,-16 16,-140 390,-140 390,-16 16,-16"/>
</a>
</g>
</g>
<!-- dir_b78b1bb98bf307aa34f3c18c58e5015e -->
<g id="node1" class="node">
<title>dir_b78b1bb98bf307aa34f3c18c58e5015e</title>
<text text-anchor="middle" x="355" y="-111.5" font-family="Helvetica,sans-Serif" font-size="10.00">hls</text>
</g>
<!-- dir_55f47020d71592f444d89e499c77159c -->
<g id="node2" class="node">
<title>dir_55f47020d71592f444d89e499c77159c</title>
<g id="a_node2"><a xlink:href="dir_55f47020d71592f444d89e499c77159c.html" target="_top" xlink:title="common">
<polygon fill="white" stroke="red" points="226.5,-60 167.5,-60 167.5,-24 226.5,-24 226.5,-60"/>
<text text-anchor="middle" x="197" y="-39.5" font-family="Helvetica,sans-Serif" font-size="10.00">common</text>
</a>
</g>
</g>
<!-- dir_6dc731a9991b35f8e1decb21546a86ce -->
<g id="node3" class="node">
<title>dir_6dc731a9991b35f8e1decb21546a86ce</title>
<g id="a_node3"><a xlink:href="dir_6dc731a9991b35f8e1decb21546a86ce.html" target="_top" xlink:title="memtest">
<polygon fill="white" stroke="red" points="309.5,-132 248.5,-132 248.5,-96 309.5,-96 309.5,-132"/>
<text text-anchor="middle" x="279" y="-111.5" font-family="Helvetica,sans-Serif" font-size="10.00">memtest</text>
</a>
</g>
</g>
<!-- dir_6dc731a9991b35f8e1decb21546a86ce&#45;&gt;dir_55f47020d71592f444d89e499c77159c -->
<g id="edge6" class="edge">
<title>dir_6dc731a9991b35f8e1decb21546a86ce&#45;&gt;dir_55f47020d71592f444d89e499c77159c</title>
<path fill="none" stroke="black" d="M258.73,-95.7C248.5,-86.97 235.94,-76.24 224.82,-66.75"/>
<polygon fill="black" stroke="black" points="226.91,-63.94 217.04,-60.1 222.37,-69.26 226.91,-63.94"/>
<g id="a_edge6&#45;headlabel"><a xlink:href="dir_000219_000179.html" target="_top" xlink:title="1">
<text text-anchor="middle" x="231.49" y="-61.61" font-family="Helvetica,sans-Serif" font-size="10.00">1</text>
</a>
</g>
</g>
<!-- dir_c763309d04da4bd0478ffd28b96eadab -->
<g id="node6" class="node">
<title>dir_c763309d04da4bd0478ffd28b96eadab</title>
<g id="a_node6"><a xlink:href="dir_c763309d04da4bd0478ffd28b96eadab.html" target="_top" xlink:title="cFDK">
<polygon fill="none" stroke="red" points="460,-60 406,-60 406,-24 460,-24 460,-60"/>
<text text-anchor="middle" x="433" y="-39.5" font-family="Helvetica,sans-Serif" font-size="10.00">cFDK</text>
</a>
</g>
</g>
<!-- dir_6dc731a9991b35f8e1decb21546a86ce&#45;&gt;dir_c763309d04da4bd0478ffd28b96eadab -->
<g id="edge5" class="edge">
<title>dir_6dc731a9991b35f8e1decb21546a86ce&#45;&gt;dir_c763309d04da4bd0478ffd28b96eadab</title>
<path fill="none" stroke="black" d="M309.79,-99C334.81,-87.63 370.15,-71.57 396.57,-59.56"/>
<polygon fill="black" stroke="black" points="398.21,-62.66 405.87,-55.33 395.31,-56.29 398.21,-62.66"/>
<g id="a_edge5&#45;headlabel"><a xlink:href="dir_000219_000001.html" target="_top" xlink:title="3">
<text text-anchor="middle" x="396.11" y="-64.23" font-family="Helvetica,sans-Serif" font-size="10.00">3</text>
</a>
</g>
</g>
<!-- dir_23f0d356d1035ca2b48ed060bc32e928 -->
<g id="node7" class="node">
<title>dir_23f0d356d1035ca2b48ed060bc32e928</title>
<g id="a_node7"><a xlink:href="dir_23f0d356d1035ca2b48ed060bc32e928.html" target="_top" xlink:title="HOST">
<polygon fill="none" stroke="red" points="532,-60 478,-60 478,-24 532,-24 532,-60"/>
<text text-anchor="middle" x="505" y="-39.5" font-family="Helvetica,sans-Serif" font-size="10.00">HOST</text>
</a>
</g>
</g>
<!-- dir_6dc731a9991b35f8e1decb21546a86ce&#45;&gt;dir_23f0d356d1035ca2b48ed060bc32e928 -->
<g id="edge4" class="edge">
<title>dir_6dc731a9991b35f8e1decb21546a86ce&#45;&gt;dir_23f0d356d1035ca2b48ed060bc32e928</title>
<path fill="none" stroke="black" d="M309.81,-99.3C312.89,-98.12 315.99,-96.99 319,-96 381.18,-75.48 402.42,-82.08 468.15,-59.91"/>
<polygon fill="black" stroke="black" points="469.43,-63.17 477.73,-56.59 467.13,-56.56 469.43,-63.17"/>
<g id="a_edge4&#45;headlabel"><a xlink:href="dir_000219_000139.html" target="_top" xlink:title="3">
<text text-anchor="middle" x="466.96" y="-64.54" font-family="Helvetica,sans-Serif" font-size="10.00">3</text>
</a>
</g>
</g>
<!-- dir_c1ad335428e75bcea888e0edf1927136 -->
<g id="node4" class="node">
<title>dir_c1ad335428e75bcea888e0edf1927136</title>
<g id="a_node4"><a xlink:href="dir_c1ad335428e75bcea888e0edf1927136.html" target="_top" xlink:title="uppercase">
<polygon fill="white" stroke="red" points="230.5,-132 163.5,-132 163.5,-96 230.5,-96 230.5,-132"/>
<text text-anchor="middle" x="197" y="-111.5" font-family="Helvetica,sans-Serif" font-size="10.00">uppercase</text>
</a>
</g>
</g>
<!-- dir_c1ad335428e75bcea888e0edf1927136&#45;&gt;dir_55f47020d71592f444d89e499c77159c -->
<g id="edge2" class="edge">
<title>dir_c1ad335428e75bcea888e0edf1927136&#45;&gt;dir_55f47020d71592f444d89e499c77159c</title>
<path fill="none" stroke="black" d="M197,-95.7C197,-87.98 197,-78.71 197,-70.11"/>
<polygon fill="black" stroke="black" points="200.5,-70.1 197,-60.1 193.5,-70.1 200.5,-70.1"/>
<g id="a_edge2&#45;headlabel"><a xlink:href="dir_000223_000179.html" target="_top" xlink:title="1">
<text text-anchor="middle" x="203.34" y="-71.2" font-family="Helvetica,sans-Serif" font-size="10.00">1</text>
</a>
</g>
</g>
<!-- dir_c1ad335428e75bcea888e0edf1927136&#45;&gt;dir_c763309d04da4bd0478ffd28b96eadab -->
<g id="edge3" class="edge">
<title>dir_c1ad335428e75bcea888e0edf1927136&#45;&gt;dir_c763309d04da4bd0478ffd28b96eadab</title>
<path fill="none" stroke="black" d="M230.63,-99.16C233.78,-98.03 236.94,-96.96 240,-96 307.09,-75.02 327.29,-82.13 394,-60 394.86,-59.72 395.72,-59.42 396.6,-59.11"/>
<polygon fill="black" stroke="black" points="397.88,-62.37 405.97,-55.53 395.38,-55.83 397.88,-62.37"/>
<g id="a_edge3&#45;headlabel"><a xlink:href="dir_000223_000001.html" target="_top" xlink:title="1">
<text text-anchor="middle" x="395.53" y="-63.8" font-family="Helvetica,sans-Serif" font-size="10.00">1</text>
</a>
</g>
</g>
<!-- dir_c1ad335428e75bcea888e0edf1927136&#45;&gt;dir_23f0d356d1035ca2b48ed060bc32e928 -->
<g id="edge1" class="edge">
<title>dir_c1ad335428e75bcea888e0edf1927136&#45;&gt;dir_23f0d356d1035ca2b48ed060bc32e928</title>
<path fill="none" stroke="black" d="M230.56,-98.92C233.72,-97.84 236.9,-96.84 240,-96 336.29,-69.74 368.52,-89.01 467.97,-59.81"/>
<polygon fill="black" stroke="black" points="469.25,-63.08 477.8,-56.83 467.22,-56.38 469.25,-63.08"/>
<g id="a_edge1&#45;headlabel"><a xlink:href="dir_000223_000139.html" target="_top" xlink:title="1">
<text text-anchor="middle" x="466.63" y="-64.33" font-family="Helvetica,sans-Serif" font-size="10.00">1</text>
</a>
</g>
</g>
<!-- dir_24477ffb43c846e2b0b63125bdf7aed6 -->
<g id="node5" class="node">
<title>dir_24477ffb43c846e2b0b63125bdf7aed6</title>
<g id="a_node5"><a xlink:href="dir_24477ffb43c846e2b0b63125bdf7aed6.html" target="_top" xlink:title="uppercase_start_stop">
<polygon fill="white" stroke="red" points="145.5,-132 24.5,-132 24.5,-96 145.5,-96 145.5,-132"/>
<text text-anchor="middle" x="85" y="-111.5" font-family="Helvetica,sans-Serif" font-size="10.00">uppercase_start_stop</text>
</a>
</g>
</g>
<!-- dir_24477ffb43c846e2b0b63125bdf7aed6&#45;&gt;dir_55f47020d71592f444d89e499c77159c -->
<g id="edge8" class="edge">
<title>dir_24477ffb43c846e2b0b63125bdf7aed6&#45;&gt;dir_55f47020d71592f444d89e499c77159c</title>
<path fill="none" stroke="black" d="M112.4,-95.88C126.91,-86.81 144.92,-75.55 160.59,-65.76"/>
<polygon fill="black" stroke="black" points="162.87,-68.46 169.5,-60.19 159.16,-62.52 162.87,-68.46"/>
<g id="a_edge8&#45;headlabel"><a xlink:href="dir_000225_000179.html" target="_top" xlink:title="1">
<text text-anchor="middle" x="161.33" y="-70.27" font-family="Helvetica,sans-Serif" font-size="10.00">1</text>
</a>
</g>
</g>
<!-- dir_24477ffb43c846e2b0b63125bdf7aed6&#45;&gt;dir_c763309d04da4bd0478ffd28b96eadab -->
<g id="edge9" class="edge">
<title>dir_24477ffb43c846e2b0b63125bdf7aed6&#45;&gt;dir_c763309d04da4bd0478ffd28b96eadab</title>
<path fill="none" stroke="black" d="M145.63,-97.93C148.8,-97.25 151.93,-96.6 155,-96 260.41,-75.3 290.77,-89.72 394,-60 394.72,-59.79 395.44,-59.58 396.17,-59.35"/>
<polygon fill="black" stroke="black" points="397.38,-62.63 405.63,-55.99 395.04,-56.04 397.38,-62.63"/>
<g id="a_edge9&#45;headlabel"><a xlink:href="dir_000225_000001.html" target="_top" xlink:title="1">
<text text-anchor="middle" x="394.94" y="-64.01" font-family="Helvetica,sans-Serif" font-size="10.00">1</text>
</a>
</g>
</g>
<!-- dir_24477ffb43c846e2b0b63125bdf7aed6&#45;&gt;dir_23f0d356d1035ca2b48ed060bc32e928 -->
<g id="edge7" class="edge">
<title>dir_24477ffb43c846e2b0b63125bdf7aed6&#45;&gt;dir_23f0d356d1035ca2b48ed060bc32e928</title>
<path fill="none" stroke="black" d="M145.61,-97.79C148.78,-97.15 151.92,-96.55 155,-96 290.05,-71.95 331.95,-97.26 467.89,-59.76"/>
<polygon fill="black" stroke="black" points="469.17,-63.04 477.84,-56.95 467.27,-56.3 469.17,-63.04"/>
<g id="a_edge7&#45;headlabel"><a xlink:href="dir_000225_000139.html" target="_top" xlink:title="1">
<text text-anchor="middle" x="466.48" y="-64.25" font-family="Helvetica,sans-Serif" font-size="10.00">1</text>
</a>
</g>
</g>
</g>
</svg>
        <g id="navigator" transform="translate(0 0)" fill="#404254">
                <rect fill="#f2f5e9" fill-opacity="0.5" stroke="#606060" stroke-width=".5" x="0" y="0" width="60" height="60"/>
                <use id="zoomplus" xlink:href="#zoomPlus" x="17" y="9" onmousedown="handleZoom(evt,'in')"/>
                <use id="zoomminus" xlink:href="#zoomMin" x="42" y="9" onmousedown="handleZoom(evt,'out')"/>
                <use id="reset" xlink:href="#resetDef" x="30" y="36" onmousedown="handleReset()"/>
                <g id="arrowUp" xlink:href="#dirArrow" transform="translate(30 24)" onmousedown="handlePan(0,-1)">
                  <use xlink:href="#rim" fill="#404040">
                        <set attributeName="fill" to="#808080" begin="arrowUp.mouseover" end="arrowUp.mouseout"/>
                  </use>
                  <path fill="none" stroke="white" stroke-width="1.5" d="M0,-3.0v7 M-2.5,-0.5L0,-3.0L2.5,-0.5"/>
                </g>
                <g id="arrowRight" xlink:href="#dirArrow" transform="rotate(90) translate(36 -43)" onmousedown="handlePan(1,0)">
                  <use xlink:href="#rim" fill="#404040">
                        <set attributeName="fill" to="#808080" begin="arrowRight.mouseover" end="arrowRight.mouseout"/>
                  </use>
                  <path fill="none" stroke="white" stroke-width="1.5" d="M0,-3.0v7 M-2.5,-0.5L0,-3.0L2.5,-0.5"/>
                </g>
                <g id="arrowDown" xlink:href="#dirArrow" transform="rotate(180) translate(-30 -48)" onmousedown="handlePan(0,1)">
                  <use xlink:href="#rim" fill="#404040">
                        <set attributeName="fill" to="#808080" begin="arrowDown.mouseover" end="arrowDown.mouseout"/>
                  </use>
                  <path fill="none" stroke="white" stroke-width="1.5" d="M0,-3.0v7 M-2.5,-0.5L0,-3.0L2.5,-0.5"/>
                </g>
                <g id="arrowLeft" xlink:href="#dirArrow" transform="rotate(270) translate(-36 17)" onmousedown="handlePan(-1,0)">
                  <use xlink:href="#rim" fill="#404040">
                        <set attributeName="fill" to="#808080" begin="arrowLeft.mouseover" end="arrowLeft.mouseout"/>
                  </use>
                  <path fill="none" stroke="white" stroke-width="1.5" d="M0,-3.0v7 M-2.5,-0.5L0,-3.0L2.5,-0.5"/>
                </g>
        </g>
        <svg viewBox="0 0 15 15" width="100%" height="30px" preserveAspectRatio="xMaxYMin meet">
         <g id="arrow_out" transform="scale(0.3 0.3)">
          <a xlink:href="dir_b78b1bb98bf307aa34f3c18c58e5015e_dep_org.svg" target="_base">
           <rect id="button" ry="5" rx="5" y="6" x="6" height="38" width="38"
                fill="#f2f5e9" fill-opacity="0.5" stroke="#606060" stroke-width="1.0"/>
           <path id="arrow"
             d="M 11.500037,31.436501 C 11.940474,20.09759 22.043105,11.32322 32.158766,21.979434 L 37.068811,17.246167 C 37.068811,17.246167 37.088388,32 37.088388,32 L 22.160133,31.978069 C 22.160133,31.978069 26.997745,27.140456 26.997745,27.140456 C 18.528582,18.264221 13.291696,25.230495 11.500037,31.436501 z"
             style="fill:#404040;"/>
          </a>
         </g>
        </svg>
</svg>
