<?xml version="1.0" encoding="UTF-8" standalone="no"?>
<!DOCTYPE svg PUBLIC "-//W3C//DTD SVG 1.1//EN"
 "http://www.w3.org/Graphics/SVG/1.1/DTD/svg11.dtd">
<!-- Generated by graphviz version 2.43.0 (0)
 -->
<!-- Title: repos_for_Dox/cFDK/SRA/LIB/SHELL/LIB/hls/NTS/toe/src/rx_engine Pages: 1 -->
<svg width="978pt" height="194pt"
 viewBox="0.00 0.00 978.00 194.06" xmlns="http://www.w3.org/2000/svg" xmlns:xlink="http://www.w3.org/1999/xlink">
<g id="graph0" class="graph" transform="scale(1 1) rotate(0) translate(4 190.06)">
<title>repos_for_Dox/cFDK/SRA/LIB/SHELL/LIB/hls/NTS/toe/src/rx_engine</title>
<g id="clust1" class="cluster">
<title>clusterdir_a2a70285cc28360b488d79ea2b511d97</title>
<g id="a_clust1"><a xlink:href="dir_a2a70285cc28360b488d79ea2b511d97.html" target="_top" xlink:title="src">
<polygon fill="#ddddee" stroke="black" points="8,-8 8,-159 906,-159 906,-8 8,-8"/>
<text text-anchor="middle" x="457" y="-147" font-family="Helvetica,sans-Serif" font-size="10.00">src</text>
</a>
</g>
</g>
<g id="clust2" class="cluster">
<title>clusterdir_219deef6a1eae841677d652c679aa0d3</title>
<g id="a_clust2"><a xlink:href="dir_219deef6a1eae841677d652c679aa0d3.html" target="_top">
<polygon fill="#eeeeff" stroke="black" points="460,-80 460,-132 686,-132 686,-80 460,-80"/>
</a>
</g>
</g>
<!-- dir_581e1b63a87af0e0ceb4aaafb47d829e -->
<g id="node1" class="node">
<title>dir_581e1b63a87af0e0ceb4aaafb47d829e</title>
<g id="a_node1"><a xlink:href="dir_581e1b63a87af0e0ceb4aaafb47d829e.html" target="_top" xlink:title="session_lookup_controller">
<polygon fill="none" stroke="black" points="897.5,-52 754.5,-52 754.5,-16 897.5,-16 897.5,-52"/>
<text text-anchor="middle" x="826" y="-31.5" font-family="Helvetica,sans-Serif" font-size="10.00">session_lookup_controller</text>
</a>
</g>
</g>
<!-- dir_eddf108cc624d2f50c8f564dd298775d -->
<g id="node2" class="node">
<title>dir_eddf108cc624d2f50c8f564dd298775d</title>
<g id="a_node2"><a xlink:href="dir_eddf108cc624d2f50c8f564dd298775d.html" target="_top" xlink:title="state_table">
<polygon fill="none" stroke="black" points="87.5,-52 16.5,-52 16.5,-16 87.5,-16 87.5,-52"/>
<text text-anchor="middle" x="52" y="-31.5" font-family="Helvetica,sans-Serif" font-size="10.00">state_table</text>
</a>
</g>
</g>
<!-- dir_e4c8e9759fe719f97b5143e470de01f0 -->
<g id="node3" class="node">
<title>dir_e4c8e9759fe719f97b5143e470de01f0</title>
<g id="a_node3"><a xlink:href="dir_e4c8e9759fe719f97b5143e470de01f0.html" target="_top" xlink:title="rx_sar_table">
<polygon fill="none" stroke="black" points="182.5,-52 105.5,-52 105.5,-16 182.5,-16 182.5,-52"/>
<text text-anchor="middle" x="144" y="-31.5" font-family="Helvetica,sans-Serif" font-size="10.00">rx_sar_table</text>
</a>
</g>
</g>
<!-- dir_13512d79193b746fbd0446caf2a7076f -->
<g id="node4" class="node">
<title>dir_13512d79193b746fbd0446caf2a7076f</title>
<g id="a_node4"><a xlink:href="dir_13512d79193b746fbd0446caf2a7076f.html" target="_top" xlink:title="tx_sar_table">
<polygon fill="none" stroke="black" points="277.5,-52 200.5,-52 200.5,-16 277.5,-16 277.5,-52"/>
<text text-anchor="middle" x="239" y="-31.5" font-family="Helvetica,sans-Serif" font-size="10.00">tx_sar_table</text>
</a>
</g>
</g>
<!-- dir_116776bbb74f65bb8bf12fd7da7745fd -->
<g id="node5" class="node">
<title>dir_116776bbb74f65bb8bf12fd7da7745fd</title>
<g id="a_node5"><a xlink:href="dir_116776bbb74f65bb8bf12fd7da7745fd.html" target="_top" xlink:title="timers">
<polygon fill="none" stroke="black" points="350,-52 296,-52 296,-16 350,-16 350,-52"/>
<text text-anchor="middle" x="323" y="-31.5" font-family="Helvetica,sans-Serif" font-size="10.00">timers</text>
</a>
</g>
</g>
<!-- dir_a37b80ab0a2749e6985e9032ea4b52fa -->
<g id="node6" class="node">
<title>dir_a37b80ab0a2749e6985e9032ea4b52fa</title>
<g id="a_node6"><a xlink:href="dir_a37b80ab0a2749e6985e9032ea4b52fa.html" target="_top" xlink:title="event_engine">
<polygon fill="none" stroke="black" points="451.5,-52 368.5,-52 368.5,-16 451.5,-16 451.5,-52"/>
<text text-anchor="middle" x="410" y="-31.5" font-family="Helvetica,sans-Serif" font-size="10.00">event_engine</text>
</a>
</g>
</g>
<!-- dir_e5ff43aef556d54b386024f1cb34403d -->
<g id="node7" class="node">
<title>dir_e5ff43aef556d54b386024f1cb34403d</title>
<g id="a_node7"><a xlink:href="dir_e5ff43aef556d54b386024f1cb34403d.html" target="_top" xlink:title="ack_delay">
<polygon fill="none" stroke="red" points="536,-52 470,-52 470,-16 536,-16 536,-52"/>
<text text-anchor="middle" x="503" y="-31.5" font-family="Helvetica,sans-Serif" font-size="10.00">ack_delay</text>
</a>
</g>
</g>
<!-- dir_2fcaf553d3ed3689d342eef26f04b478 -->
<g id="node8" class="node">
<title>dir_2fcaf553d3ed3689d342eef26f04b478</title>
<g id="a_node8"><a xlink:href="dir_2fcaf553d3ed3689d342eef26f04b478.html" target="_top" xlink:title="port_table">
<polygon fill="none" stroke="black" points="620,-52 554,-52 554,-16 620,-16 620,-52"/>
<text text-anchor="middle" x="587" y="-31.5" font-family="Helvetica,sans-Serif" font-size="10.00">port_table</text>
</a>
</g>
</g>
<!-- dir_592bd16346e6805364137fbb564fc530 -->
<g id="node9" class="node">
<title>dir_592bd16346e6805364137fbb564fc530</title>
<g id="a_node9"><a xlink:href="dir_592bd16346e6805364137fbb564fc530.html" target="_top" xlink:title="tx_engine">
<polygon fill="none" stroke="red" points="449.5,-124 384.5,-124 384.5,-88 449.5,-88 449.5,-124"/>
<text text-anchor="middle" x="417" y="-103.5" font-family="Helvetica,sans-Serif" font-size="10.00">tx_engine</text>
</a>
</g>
</g>
<!-- dir_592bd16346e6805364137fbb564fc530&#45;&gt;dir_581e1b63a87af0e0ceb4aaafb47d829e -->
<g id="edge17" class="edge">
<title>dir_592bd16346e6805364137fbb564fc530&#45;&gt;dir_581e1b63a87af0e0ceb4aaafb47d829e</title>
<path fill="none" stroke="black" d="M440,-87.76C445.05,-84.7 450.53,-81.89 456,-80 574.85,-38.85 615.38,-69.84 743.86,-52.02"/>
<polygon fill="black" stroke="black" points="744.7,-55.43 754.09,-50.52 743.69,-48.51 744.7,-55.43"/>
<g id="a_edge17&#45;headlabel"><a xlink:href="dir_000088_000084.html" target="_top" xlink:title="1">
<text text-anchor="middle" x="741.55" y="-56.26" font-family="Helvetica,sans-Serif" font-size="10.00">1</text>
</a>
</g>
</g>
<!-- dir_592bd16346e6805364137fbb564fc530&#45;&gt;dir_eddf108cc624d2f50c8f564dd298775d -->
<g id="edge22" class="edge">
<title>dir_592bd16346e6805364137fbb564fc530&#45;&gt;dir_eddf108cc624d2f50c8f564dd298775d</title>
<path fill="none" stroke="black" d="M384.3,-101.74C327.59,-95.62 207.37,-80.62 97.56,-51.84"/>
<polygon fill="black" stroke="black" points="98.22,-48.39 87.65,-49.19 96.41,-55.15 98.22,-48.39"/>
<g id="a_edge22&#45;headlabel"><a xlink:href="dir_000088_000085.html" target="_top" xlink:title="1">
<text text-anchor="middle" x="102.42" y="-44.07" font-family="Helvetica,sans-Serif" font-size="10.00">1</text>
</a>
</g>
</g>
<!-- dir_592bd16346e6805364137fbb564fc530&#45;&gt;dir_e4c8e9759fe719f97b5143e470de01f0 -->
<g id="edge20" class="edge">
<title>dir_592bd16346e6805364137fbb564fc530&#45;&gt;dir_e4c8e9759fe719f97b5143e470de01f0</title>
<path fill="none" stroke="black" d="M384.29,-98.47C342.13,-89.79 266.44,-73.35 192.59,-52"/>
<polygon fill="black" stroke="black" points="193.23,-48.55 182.65,-49.1 191.27,-55.26 193.23,-48.55"/>
<g id="a_edge20&#45;headlabel"><a xlink:href="dir_000088_000083.html" target="_top" xlink:title="1">
<text text-anchor="middle" x="197.48" y="-44.33" font-family="Helvetica,sans-Serif" font-size="10.00">1</text>
</a>
</g>
</g>
<!-- dir_592bd16346e6805364137fbb564fc530&#45;&gt;dir_13512d79193b746fbd0446caf2a7076f -->
<g id="edge13" class="edge">
<title>dir_592bd16346e6805364137fbb564fc530&#45;&gt;dir_13512d79193b746fbd0446caf2a7076f</title>
<path fill="none" stroke="black" d="M384.35,-92.16C357.18,-81.48 318.11,-66.11 287.32,-54"/>
<polygon fill="black" stroke="black" points="288.22,-50.6 277.64,-50.19 285.66,-57.11 288.22,-50.6"/>
<g id="a_edge13&#45;headlabel"><a xlink:href="dir_000088_000091.html" target="_top" xlink:title="1">
<text text-anchor="middle" x="292.61" y="-46.77" font-family="Helvetica,sans-Serif" font-size="10.00">1</text>
</a>
</g>
</g>
<!-- dir_592bd16346e6805364137fbb564fc530&#45;&gt;dir_116776bbb74f65bb8bf12fd7da7745fd -->
<g id="edge12" class="edge">
<title>dir_592bd16346e6805364137fbb564fc530&#45;&gt;dir_116776bbb74f65bb8bf12fd7da7745fd</title>
<path fill="none" stroke="black" d="M393.76,-87.7C381.81,-78.8 367.08,-67.82 354.15,-58.2"/>
<polygon fill="black" stroke="black" points="356.08,-55.27 345.97,-52.1 351.9,-60.88 356.08,-55.27"/>
<g id="a_edge12&#45;headlabel"><a xlink:href="dir_000088_000086.html" target="_top" xlink:title="1">
<text text-anchor="middle" x="360.66" y="-52.64" font-family="Helvetica,sans-Serif" font-size="10.00">1</text>
</a>
</g>
</g>
<!-- dir_592bd16346e6805364137fbb564fc530&#45;&gt;dir_a37b80ab0a2749e6985e9032ea4b52fa -->
<g id="edge18" class="edge">
<title>dir_592bd16346e6805364137fbb564fc530&#45;&gt;dir_a37b80ab0a2749e6985e9032ea4b52fa</title>
<path fill="none" stroke="black" d="M415.27,-87.7C414.5,-79.98 413.57,-70.71 412.71,-62.11"/>
<polygon fill="black" stroke="black" points="416.19,-61.71 411.71,-52.1 409.22,-62.4 416.19,-61.71"/>
<g id="a_edge18&#45;headlabel"><a xlink:href="dir_000088_000077.html" target="_top" xlink:title="1">
<text text-anchor="middle" x="419.37" y="-62.5" font-family="Helvetica,sans-Serif" font-size="10.00">1</text>
</a>
</g>
</g>
<!-- dir_592bd16346e6805364137fbb564fc530&#45;&gt;dir_e5ff43aef556d54b386024f1cb34403d -->
<g id="edge21" class="edge">
<title>dir_592bd16346e6805364137fbb564fc530&#45;&gt;dir_e5ff43aef556d54b386024f1cb34403d</title>
<path fill="none" stroke="black" d="M438.26,-87.7C449.09,-78.88 462.42,-68.03 474.16,-58.47"/>
<polygon fill="black" stroke="black" points="476.44,-61.13 481.99,-52.1 472.02,-55.7 476.44,-61.13"/>
<g id="a_edge21&#45;headlabel"><a xlink:href="dir_000088_000074.html" target="_top" xlink:title="1">
<text text-anchor="middle" x="475.44" y="-63.1" font-family="Helvetica,sans-Serif" font-size="10.00">1</text>
</a>
</g>
</g>
<!-- dir_592bd16346e6805364137fbb564fc530&#45;&gt;dir_2fcaf553d3ed3689d342eef26f04b478 -->
<g id="edge16" class="edge">
<title>dir_592bd16346e6805364137fbb564fc530&#45;&gt;dir_2fcaf553d3ed3689d342eef26f04b478</title>
<path fill="none" stroke="black" d="M441.61,-87.84C446.27,-85 451.19,-82.25 456,-80 490.92,-63.67 504.1,-65.61 544.07,-52.13"/>
<polygon fill="black" stroke="black" points="545.34,-55.39 553.62,-48.79 543.03,-48.79 545.34,-55.39"/>
<g id="a_edge16&#45;headlabel"><a xlink:href="dir_000088_000078.html" target="_top" xlink:title="1">
<text text-anchor="middle" x="542.88" y="-56.76" font-family="Helvetica,sans-Serif" font-size="10.00">1</text>
</a>
</g>
</g>
<!-- dir_19a6afe2592d40dd3fc0d3399c6015fe -->
<g id="node10" class="node">
<title>dir_19a6afe2592d40dd3fc0d3399c6015fe</title>
<g id="a_node10"><a xlink:href="dir_19a6afe2592d40dd3fc0d3399c6015fe.html" target="_top" xlink:title="tx_app_interface">
<polygon fill="none" stroke="black" points="736,-52 638,-52 638,-16 736,-16 736,-52"/>
<text text-anchor="middle" x="687" y="-31.5" font-family="Helvetica,sans-Serif" font-size="10.00">tx_app_interface</text>
</a>
</g>
</g>
<!-- dir_592bd16346e6805364137fbb564fc530&#45;&gt;dir_19a6afe2592d40dd3fc0d3399c6015fe -->
<g id="edge15" class="edge">
<title>dir_592bd16346e6805364137fbb564fc530&#45;&gt;dir_19a6afe2592d40dd3fc0d3399c6015fe</title>
<path fill="none" stroke="black" d="M440.52,-87.77C445.44,-84.79 450.74,-82.01 456,-80 525.77,-53.32 550.96,-67.89 627.62,-52.09"/>
<polygon fill="black" stroke="black" points="628.72,-55.43 637.75,-49.89 627.23,-48.59 628.72,-55.43"/>
<g id="a_edge15&#45;headlabel"><a xlink:href="dir_000088_000087.html" target="_top" xlink:title="1">
<text text-anchor="middle" x="625.81" y="-56.47" font-family="Helvetica,sans-Serif" font-size="10.00">1</text>
</a>
</g>
</g>
<!-- dir_1624ea287e95f176e315ebde462b8468 -->
<g id="node12" class="node">
<title>dir_1624ea287e95f176e315ebde462b8468</title>
<g id="a_node12"><a xlink:href="dir_1624ea287e95f176e315ebde462b8468.html" target="_top" xlink:title="src">
<polygon fill="white" stroke="black" points="594,-124 540,-124 540,-88 594,-88 594,-124"/>
<text text-anchor="middle" x="567" y="-103.5" font-family="Helvetica,sans-Serif" font-size="10.00">src</text>
</a>
</g>
</g>
<!-- dir_592bd16346e6805364137fbb564fc530&#45;&gt;dir_1624ea287e95f176e315ebde462b8468 -->
<g id="edge14" class="edge">
<title>dir_592bd16346e6805364137fbb564fc530&#45;&gt;dir_1624ea287e95f176e315ebde462b8468</title>
<path fill="none" stroke="black" d="M423.45,-124.08C430.65,-141.2 444.11,-165.9 465,-177 487.37,-188.88 499.8,-189.21 522,-177 538.84,-167.74 550.26,-149.22 557.38,-133.42"/>
<polygon fill="black" stroke="black" points="560.67,-134.62 561.27,-124.04 554.21,-131.94 560.67,-134.62"/>
<g id="a_edge14&#45;headlabel"><a xlink:href="dir_000088_000081.html" target="_top" xlink:title="1">
<text text-anchor="middle" x="561.92" y="-136.52" font-family="Helvetica,sans-Serif" font-size="10.00">1</text>
</a>
</g>
</g>
<!-- dir_ae87538a6eea15386c17fa032287f472 -->
<g id="node14" class="node">
<title>dir_ae87538a6eea15386c17fa032287f472</title>
<g id="a_node14"><a xlink:href="dir_ae87538a6eea15386c17fa032287f472.html" target="_top" xlink:title="test">
<polygon fill="none" stroke="red" points="970,-52 916,-52 916,-16 970,-16 970,-52"/>
<text text-anchor="middle" x="943" y="-31.5" font-family="Helvetica,sans-Serif" font-size="10.00">test</text>
</a>
</g>
</g>
<!-- dir_592bd16346e6805364137fbb564fc530&#45;&gt;dir_ae87538a6eea15386c17fa032287f472 -->
<g id="edge19" class="edge">
<title>dir_592bd16346e6805364137fbb564fc530&#45;&gt;dir_ae87538a6eea15386c17fa032287f472</title>
<path fill="none" stroke="black" d="M439.53,-87.86C444.7,-84.72 450.34,-81.85 456,-80 644.97,-18.25 712.83,-102.76 906.09,-52.67"/>
<polygon fill="black" stroke="black" points="907.23,-55.98 915.98,-50.01 905.42,-49.22 907.23,-55.98"/>
<g id="a_edge19&#45;headlabel"><a xlink:href="dir_000088_000092.html" target="_top" xlink:title="1">
<text text-anchor="middle" x="904.5" y="-57.16" font-family="Helvetica,sans-Serif" font-size="10.00">1</text>
</a>
</g>
</g>
<!-- dir_219deef6a1eae841677d652c679aa0d3 -->
<g id="node11" class="node">
<title>dir_219deef6a1eae841677d652c679aa0d3</title>
<text text-anchor="middle" x="645" y="-103.5" font-family="Helvetica,sans-Serif" font-size="10.00">rx_engine</text>
</g>
<!-- dir_2a397433d412fbb0ac7e3f4eb37ee760 -->
<g id="node13" class="node">
<title>dir_2a397433d412fbb0ac7e3f4eb37ee760</title>
<g id="a_node13"><a xlink:href="dir_2a397433d412fbb0ac7e3f4eb37ee760.html" target="_top" xlink:title="test">
<polygon fill="white" stroke="black" points="522,-124 468,-124 468,-88 522,-88 522,-124"/>
<text text-anchor="middle" x="495" y="-103.5" font-family="Helvetica,sans-Serif" font-size="10.00">test</text>
</a>
</g>
</g>
<!-- dir_2a397433d412fbb0ac7e3f4eb37ee760&#45;&gt;dir_581e1b63a87af0e0ceb4aaafb47d829e -->
<g id="edge5" class="edge">
<title>dir_2a397433d412fbb0ac7e3f4eb37ee760&#45;&gt;dir_581e1b63a87af0e0ceb4aaafb47d829e</title>
<path fill="none" stroke="black" d="M516.14,-87.88C520.81,-84.81 525.89,-81.97 531,-80 617.51,-46.59 648.38,-66.64 743.98,-52.03"/>
<polygon fill="black" stroke="black" points="744.75,-55.45 754.07,-50.4 743.64,-48.54 744.75,-55.45"/>
<g id="a_edge5&#45;headlabel"><a xlink:href="dir_000082_000084.html" target="_top" xlink:title="1">
<text text-anchor="middle" x="741.66" y="-56.33" font-family="Helvetica,sans-Serif" font-size="10.00">1</text>
</a>
</g>
</g>
<!-- dir_2a397433d412fbb0ac7e3f4eb37ee760&#45;&gt;dir_eddf108cc624d2f50c8f564dd298775d -->
<g id="edge11" class="edge">
<title>dir_2a397433d412fbb0ac7e3f4eb37ee760&#45;&gt;dir_eddf108cc624d2f50c8f564dd298775d</title>
<path fill="none" stroke="black" d="M477.49,-87.92C473.35,-84.77 468.76,-81.89 464,-80 314.9,-20.89 258.88,-84.89 97.36,-51.6"/>
<polygon fill="black" stroke="black" points="98.09,-48.17 87.58,-49.49 96.62,-55.02 98.09,-48.17"/>
<g id="a_edge11&#45;headlabel"><a xlink:href="dir_000082_000085.html" target="_top" xlink:title="1">
<text text-anchor="middle" x="102.21" y="-43.66" font-family="Helvetica,sans-Serif" font-size="10.00">1</text>
</a>
</g>
</g>
<!-- dir_2a397433d412fbb0ac7e3f4eb37ee760&#45;&gt;dir_e4c8e9759fe719f97b5143e470de01f0 -->
<g id="edge9" class="edge">
<title>dir_2a397433d412fbb0ac7e3f4eb37ee760&#45;&gt;dir_e4c8e9759fe719f97b5143e470de01f0</title>
<path fill="none" stroke="black" d="M477.11,-87.76C473.07,-84.7 468.6,-81.9 464,-80 354.59,-34.95 312.77,-76.39 192.49,-51.69"/>
<polygon fill="black" stroke="black" points="193.05,-48.23 182.54,-49.54 191.57,-55.07 193.05,-48.23"/>
<g id="a_edge9&#45;headlabel"><a xlink:href="dir_000082_000083.html" target="_top" xlink:title="1">
<text text-anchor="middle" x="197.17" y="-43.72" font-family="Helvetica,sans-Serif" font-size="10.00">1</text>
</a>
</g>
</g>
<!-- dir_2a397433d412fbb0ac7e3f4eb37ee760&#45;&gt;dir_13512d79193b746fbd0446caf2a7076f -->
<g id="edge2" class="edge">
<title>dir_2a397433d412fbb0ac7e3f4eb37ee760&#45;&gt;dir_13512d79193b746fbd0446caf2a7076f</title>
<path fill="none" stroke="black" d="M477.03,-87.95C472.99,-84.88 468.55,-82.02 464,-80 394.05,-48.95 366.38,-69.82 287.47,-51.75"/>
<polygon fill="black" stroke="black" points="288.13,-48.31 277.58,-49.35 286.48,-55.11 288.13,-48.31"/>
<g id="a_edge2&#45;headlabel"><a xlink:href="dir_000082_000091.html" target="_top" xlink:title="1">
<text text-anchor="middle" x="292.29" y="-43.9" font-family="Helvetica,sans-Serif" font-size="10.00">1</text>
</a>
</g>
</g>
<!-- dir_2a397433d412fbb0ac7e3f4eb37ee760&#45;&gt;dir_116776bbb74f65bb8bf12fd7da7745fd -->
<g id="edge1" class="edge">
<title>dir_2a397433d412fbb0ac7e3f4eb37ee760&#45;&gt;dir_116776bbb74f65bb8bf12fd7da7745fd</title>
<path fill="none" stroke="black" d="M476.18,-87.81C472.34,-84.9 468.19,-82.13 464,-80 421.34,-58.29 405.02,-68.27 360,-52 359.9,-51.96 359.8,-51.93 359.7,-51.89"/>
<polygon fill="black" stroke="black" points="360.85,-48.58 350.27,-48.15 358.27,-55.09 360.85,-48.58"/>
<g id="a_edge1&#45;headlabel"><a xlink:href="dir_000082_000086.html" target="_top" xlink:title="1">
<text text-anchor="middle" x="365.24" y="-44.77" font-family="Helvetica,sans-Serif" font-size="10.00">1</text>
</a>
</g>
</g>
<!-- dir_2a397433d412fbb0ac7e3f4eb37ee760&#45;&gt;dir_a37b80ab0a2749e6985e9032ea4b52fa -->
<g id="edge7" class="edge">
<title>dir_2a397433d412fbb0ac7e3f4eb37ee760&#45;&gt;dir_a37b80ab0a2749e6985e9032ea4b52fa</title>
<path fill="none" stroke="black" d="M473.99,-87.7C463.28,-78.88 450.11,-68.03 438.5,-58.47"/>
<polygon fill="black" stroke="black" points="440.71,-55.76 430.77,-52.1 436.26,-61.16 440.71,-55.76"/>
<g id="a_edge7&#45;headlabel"><a xlink:href="dir_000082_000077.html" target="_top" xlink:title="1">
<text text-anchor="middle" x="445.29" y="-53.35" font-family="Helvetica,sans-Serif" font-size="10.00">1</text>
</a>
</g>
</g>
<!-- dir_2a397433d412fbb0ac7e3f4eb37ee760&#45;&gt;dir_e5ff43aef556d54b386024f1cb34403d -->
<g id="edge10" class="edge">
<title>dir_2a397433d412fbb0ac7e3f4eb37ee760&#45;&gt;dir_e5ff43aef556d54b386024f1cb34403d</title>
<path fill="none" stroke="black" d="M496.98,-87.7C497.86,-79.98 498.92,-70.71 499.9,-62.11"/>
<polygon fill="black" stroke="black" points="503.39,-62.44 501.05,-52.1 496.43,-61.64 503.39,-62.44"/>
<g id="a_edge10&#45;headlabel"><a xlink:href="dir_000082_000074.html" target="_top" xlink:title="1">
<text text-anchor="middle" x="505.8" y="-63.83" font-family="Helvetica,sans-Serif" font-size="10.00">1</text>
</a>
</g>
</g>
<!-- dir_2a397433d412fbb0ac7e3f4eb37ee760&#45;&gt;dir_2fcaf553d3ed3689d342eef26f04b478 -->
<g id="edge4" class="edge">
<title>dir_2a397433d412fbb0ac7e3f4eb37ee760&#45;&gt;dir_2fcaf553d3ed3689d342eef26f04b478</title>
<path fill="none" stroke="black" d="M517.74,-87.7C529.44,-78.8 543.86,-67.82 556.51,-58.2"/>
<polygon fill="black" stroke="black" points="558.68,-60.94 564.52,-52.1 554.44,-55.37 558.68,-60.94"/>
<g id="a_edge4&#45;headlabel"><a xlink:href="dir_000082_000078.html" target="_top" xlink:title="1">
<text text-anchor="middle" x="557.54" y="-62.88" font-family="Helvetica,sans-Serif" font-size="10.00">1</text>
</a>
</g>
</g>
<!-- dir_2a397433d412fbb0ac7e3f4eb37ee760&#45;&gt;dir_592bd16346e6805364137fbb564fc530 -->
<g id="edge6" class="edge">
<title>dir_2a397433d412fbb0ac7e3f4eb37ee760&#45;&gt;dir_592bd16346e6805364137fbb564fc530</title>
<path fill="none" stroke="black" d="M467.69,-106C465.05,-106 462.41,-106 459.78,-106"/>
<polygon fill="black" stroke="black" points="459.6,-102.5 449.6,-106 459.6,-109.5 459.6,-102.5"/>
<g id="a_edge6&#45;headlabel"><a xlink:href="dir_000082_000088.html" target="_top" xlink:title="1">
<text text-anchor="middle" x="463.2" y="-97.16" font-family="Helvetica,sans-Serif" font-size="10.00">1</text>
</a>
</g>
</g>
<!-- dir_2a397433d412fbb0ac7e3f4eb37ee760&#45;&gt;dir_19a6afe2592d40dd3fc0d3399c6015fe -->
<g id="edge3" class="edge">
<title>dir_2a397433d412fbb0ac7e3f4eb37ee760&#45;&gt;dir_19a6afe2592d40dd3fc0d3399c6015fe</title>
<path fill="none" stroke="black" d="M517.16,-87.94C521.59,-85.02 526.32,-82.22 531,-80 569.29,-61.85 583.63,-64.18 628.28,-52.11"/>
<polygon fill="black" stroke="black" points="629.27,-55.47 637.96,-49.4 627.39,-48.73 629.27,-55.47"/>
<g id="a_edge3&#45;headlabel"><a xlink:href="dir_000082_000087.html" target="_top" xlink:title="1">
<text text-anchor="middle" x="626.58" y="-56.67" font-family="Helvetica,sans-Serif" font-size="10.00">1</text>
</a>
</g>
</g>
<!-- dir_2a397433d412fbb0ac7e3f4eb37ee760&#45;&gt;dir_ae87538a6eea15386c17fa032287f472 -->
<g id="edge8" class="edge">
<title>dir_2a397433d412fbb0ac7e3f4eb37ee760&#45;&gt;dir_ae87538a6eea15386c17fa032287f472</title>
<path fill="none" stroke="black" d="M515.67,-87.91C520.44,-84.76 525.69,-81.88 531,-80 687.1,-24.72 745.16,-94.97 906.23,-52.65"/>
<polygon fill="black" stroke="black" points="907.25,-56 915.98,-49.98 905.41,-49.25 907.25,-56"/>
<g id="a_edge8&#45;headlabel"><a xlink:href="dir_000082_000092.html" target="_top" xlink:title="1">
<text text-anchor="middle" x="904.54" y="-57.18" font-family="Helvetica,sans-Serif" font-size="10.00">1</text>
</a>
</g>
</g>
</g>
</svg>
