<?xml version="1.0" encoding="UTF-8" standalone="no"?>
<!DOCTYPE svg PUBLIC "-//W3C//DTD SVG 1.1//EN"
 "http://www.w3.org/Graphics/SVG/1.1/DTD/svg11.dtd">
<!-- Generated by graphviz version 2.43.0 (0)
 -->
<!-- Title: repos_for_Dox/cFp_Zoo/ROLE/custom/hls/uppercase_start_stop/src Pages: 1 -->
<svg width="200pt" height="167pt"
 viewBox="0.00 0.00 200.00 167.00" xmlns="http://www.w3.org/2000/svg" xmlns:xlink="http://www.w3.org/1999/xlink">
<g id="graph0" class="graph" transform="scale(1 1) rotate(0) translate(4 163)">
<title>repos_for_Dox/cFp_Zoo/ROLE/custom/hls/uppercase_start_stop/src</title>
<g id="clust1" class="cluster">
<title>clusterdir_24477ffb43c846e2b0b63125bdf7aed6</title>
<g id="a_clust1"><a xlink:href="dir_24477ffb43c846e2b0b63125bdf7aed6.html" target="_top" xlink:title="uppercase_start_stop">
<polygon fill="#ddddee" stroke="black" points="8,-8 8,-151 129,-151 129,-8 8,-8"/>
<text text-anchor="middle" x="68.5" y="-139" font-family="Helvetica,sans-Serif" font-size="10.00">uppercase_start_stop</text>
</a>
</g>
</g>
<!-- dir_2bb4b0ebf3f8c0b52898b0061d51d3d2 -->
<g id="node1" class="node">
<title>dir_2bb4b0ebf3f8c0b52898b0061d51d3d2</title>
<g id="a_node1"><a xlink:href="dir_2bb4b0ebf3f8c0b52898b0061d51d3d2.html" target="_top" xlink:title="include">
<polygon fill="none" stroke="black" points="120,-52 66,-52 66,-16 120,-16 120,-52"/>
<text text-anchor="middle" x="93" y="-31.5" font-family="Helvetica,sans-Serif" font-size="10.00">include</text>
</a>
</g>
</g>
<!-- dir_c3a5c36963954c350ac3f8eaa825dc2b -->
<g id="node2" class="node">
<title>dir_c3a5c36963954c350ac3f8eaa825dc2b</title>
<g id="a_node2"><a xlink:href="dir_c3a5c36963954c350ac3f8eaa825dc2b.html" target="_top" xlink:title="src">
<polygon fill="#eeeeff" stroke="black" points="120,-124 66,-124 66,-88 120,-88 120,-124"/>
<text text-anchor="middle" x="93" y="-103.5" font-family="Helvetica,sans-Serif" font-size="10.00">src</text>
</a>
</g>
</g>
<!-- dir_c3a5c36963954c350ac3f8eaa825dc2b&#45;&gt;dir_2bb4b0ebf3f8c0b52898b0061d51d3d2 -->
<g id="edge2" class="edge">
<title>dir_c3a5c36963954c350ac3f8eaa825dc2b&#45;&gt;dir_2bb4b0ebf3f8c0b52898b0061d51d3d2</title>
<path fill="none" stroke="black" d="M93,-87.7C93,-79.98 93,-70.71 93,-62.11"/>
<polygon fill="black" stroke="black" points="96.5,-62.1 93,-52.1 89.5,-62.1 96.5,-62.1"/>
<g id="a_edge2&#45;headlabel"><a xlink:href="dir_000228_000226.html" target="_top" xlink:title="1">
<text text-anchor="middle" x="99.34" y="-63.2" font-family="Helvetica,sans-Serif" font-size="10.00">1</text>
</a>
</g>
</g>
<!-- dir_23f0d356d1035ca2b48ed060bc32e928 -->
<g id="node3" class="node">
<title>dir_23f0d356d1035ca2b48ed060bc32e928</title>
<g id="a_node3"><a xlink:href="dir_23f0d356d1035ca2b48ed060bc32e928.html" target="_top" xlink:title="HOST">
<polygon fill="none" stroke="red" points="192,-52 138,-52 138,-16 192,-16 192,-52"/>
<text text-anchor="middle" x="165" y="-31.5" font-family="Helvetica,sans-Serif" font-size="10.00">HOST</text>
</a>
</g>
</g>
<!-- dir_c3a5c36963954c350ac3f8eaa825dc2b&#45;&gt;dir_23f0d356d1035ca2b48ed060bc32e928 -->
<g id="edge1" class="edge">
<title>dir_c3a5c36963954c350ac3f8eaa825dc2b&#45;&gt;dir_23f0d356d1035ca2b48ed060bc32e928</title>
<path fill="none" stroke="black" d="M110.8,-87.7C119.6,-79.14 130.38,-68.66 140,-59.3"/>
<polygon fill="black" stroke="black" points="142.68,-61.58 147.41,-52.1 137.8,-56.57 142.68,-61.58"/>
<g id="a_edge1&#45;headlabel"><a xlink:href="dir_000228_000139.html" target="_top" xlink:title="1">
<text text-anchor="middle" x="142.08" y="-63.63" font-family="Helvetica,sans-Serif" font-size="10.00">1</text>
</a>
</g>
</g>
</g>
</svg>
