<?xml version="1.0" encoding="UTF-8" standalone="no"?>
<!DOCTYPE svg PUBLIC "-//W3C//DTD SVG 1.1//EN"
 "http://www.w3.org/Graphics/SVG/1.1/DTD/svg11.dtd">
<!-- Generated by graphviz version 2.43.0 (0)
 -->
<!-- Title: repos_for_Dox/cFp_Zoo/HOST/vision/harris/languages/cplusplus Pages: 1 -->
<svg width="244pt" height="183pt"
 viewBox="0.00 0.00 244.00 183.00" xmlns="http://www.w3.org/2000/svg" xmlns:xlink="http://www.w3.org/1999/xlink">
<g id="graph0" class="graph" transform="scale(1 1) rotate(0) translate(4 179)">
<title>repos_for_Dox/cFp_Zoo/HOST/vision/harris/languages/cplusplus</title>
<g id="clust1" class="cluster">
<title>clusterdir_cec98ec84e69e4ec7bf2adc2c5549460</title>
<g id="a_clust1"><a xlink:href="dir_cec98ec84e69e4ec7bf2adc2c5549460.html" target="_top" xlink:title="languages">
<polygon fill="#ddddee" stroke="black" points="8,-8 8,-167 174,-167 174,-8 8,-8"/>
<text text-anchor="middle" x="91" y="-155" font-family="Helvetica,sans-Serif" font-size="10.00">languages</text>
</a>
</g>
</g>
<g id="clust2" class="cluster">
<title>clusterdir_06fc3c0e0fbdd9886d27133fc6afe85f</title>
<g id="a_clust2"><a xlink:href="dir_06fc3c0e0fbdd9886d27133fc6afe85f.html" target="_top">
<polygon fill="#eeeeff" stroke="black" points="16,-16 16,-140 166,-140 166,-16 16,-16"/>
</a>
</g>
</g>
<!-- dir_06fc3c0e0fbdd9886d27133fc6afe85f -->
<g id="node1" class="node">
<title>dir_06fc3c0e0fbdd9886d27133fc6afe85f</title>
<text text-anchor="middle" x="127" y="-111.5" font-family="Helvetica,sans-Serif" font-size="10.00">cplusplus</text>
</g>
<!-- dir_b50839128f2779ad7b4781ce11b8e7b8 -->
<g id="node2" class="node">
<title>dir_b50839128f2779ad7b4781ce11b8e7b8</title>
<g id="a_node2"><a xlink:href="dir_b50839128f2779ad7b4781ce11b8e7b8.html" target="_top" xlink:title="include">
<polygon fill="white" stroke="black" points="118,-60 64,-60 64,-24 118,-24 118,-60"/>
<text text-anchor="middle" x="91" y="-39.5" font-family="Helvetica,sans-Serif" font-size="10.00">include</text>
</a>
</g>
</g>
<!-- dir_cc446e682339e219f41485e239cf5cce -->
<g id="node3" class="node">
<title>dir_cc446e682339e219f41485e239cf5cce</title>
<g id="a_node3"><a xlink:href="dir_cc446e682339e219f41485e239cf5cce.html" target="_top" xlink:title="src">
<polygon fill="white" stroke="black" points="78,-132 24,-132 24,-96 78,-96 78,-132"/>
<text text-anchor="middle" x="51" y="-111.5" font-family="Helvetica,sans-Serif" font-size="10.00">src</text>
</a>
</g>
</g>
<!-- dir_cc446e682339e219f41485e239cf5cce&#45;&gt;dir_b50839128f2779ad7b4781ce11b8e7b8 -->
<g id="edge3" class="edge">
<title>dir_cc446e682339e219f41485e239cf5cce&#45;&gt;dir_b50839128f2779ad7b4781ce11b8e7b8</title>
<path fill="none" stroke="black" d="M60.89,-95.7C65.49,-87.64 71.06,-77.89 76.15,-68.98"/>
<polygon fill="black" stroke="black" points="79.3,-70.52 81.23,-60.1 73.23,-67.05 79.3,-70.52"/>
<g id="a_edge3&#45;headlabel"><a xlink:href="dir_000212_000190.html" target="_top" xlink:title="2">
<text text-anchor="middle" x="79.99" y="-72.55" font-family="Helvetica,sans-Serif" font-size="10.00">2</text>
</a>
</g>
</g>
<!-- dir_372190bba8e51f711404a4d20d8d4609 -->
<g id="node4" class="node">
<title>dir_372190bba8e51f711404a4d20d8d4609</title>
<g id="a_node4"><a xlink:href="dir_372190bba8e51f711404a4d20d8d4609.html" target="_top" xlink:title="ROLE">
<polygon fill="none" stroke="red" points="236,-60 182,-60 182,-24 236,-24 236,-60"/>
<text text-anchor="middle" x="209" y="-39.5" font-family="Helvetica,sans-Serif" font-size="10.00">ROLE</text>
</a>
</g>
</g>
<!-- dir_cc446e682339e219f41485e239cf5cce&#45;&gt;dir_372190bba8e51f711404a4d20d8d4609 -->
<g id="edge2" class="edge">
<title>dir_cc446e682339e219f41485e239cf5cce&#45;&gt;dir_372190bba8e51f711404a4d20d8d4609</title>
<path fill="none" stroke="black" d="M78.08,-100.1C81.09,-98.7 84.1,-97.31 87,-96 123.63,-79.41 133.13,-76.03 170,-60 170.83,-59.64 171.67,-59.27 172.52,-58.91"/>
<polygon fill="black" stroke="black" points="173.96,-62.1 181.73,-54.9 171.16,-55.68 173.96,-62.1"/>
<g id="a_edge2&#45;headlabel"><a xlink:href="dir_000212_000023.html" target="_top" xlink:title="1">
<text text-anchor="middle" x="171.79" y="-63.63" font-family="Helvetica,sans-Serif" font-size="10.00">1</text>
</a>
</g>
</g>
<!-- dir_372190bba8e51f711404a4d20d8d4609&#45;&gt;dir_b50839128f2779ad7b4781ce11b8e7b8 -->
<g id="edge1" class="edge">
<title>dir_372190bba8e51f711404a4d20d8d4609&#45;&gt;dir_b50839128f2779ad7b4781ce11b8e7b8</title>
<path fill="none" stroke="black" d="M181.69,-42C164,-42 146.3,-42 128.61,-42"/>
<polygon fill="black" stroke="black" points="128.2,-38.5 118.2,-42 128.2,-45.5 128.2,-38.5"/>
<g id="a_edge1&#45;headlabel"><a xlink:href="dir_000023_000190.html" target="_top" xlink:title="1">
<text text-anchor="middle" x="131.79" y="-33.16" font-family="Helvetica,sans-Serif" font-size="10.00">1</text>
</a>
</g>
</g>
</g>
</svg>
