<?xml version="1.0" encoding="UTF-8" standalone="no"?>
<!DOCTYPE svg PUBLIC "-//W3C//DTD SVG 1.1//EN"
 "http://www.w3.org/Graphics/SVG/1.1/DTD/svg11.dtd">
<!-- Generated by graphviz version 2.43.0 (0)
 -->
<!-- Title: repos_for_Dox/cFp_Zoo/ROLE/vision/hls Pages: 1 -->
<!--zoomable 183 -->
<svg id="main" version="1.1" xmlns="http://www.w3.org/2000/svg" xmlns:xlink="http://www.w3.org/1999/xlink" xml:space="preserve" onload="init(evt)">
<style type="text/css"><![CDATA[
.edge:hover path { stroke: red; }
.edge:hover polygon { stroke: red; fill: red; }
]]></style>
<script type="text/javascript"><![CDATA[
var edges = document.getElementsByTagName('g');
if (edges && edges.length) {
  for (var i=0;i<edges.length;i++) {
    if (edges[i].id.substr(0,4)=='edge') {
      edges[i].setAttribute('class','edge');
    }
  }
}
]]></script>
        <defs>
                <circle id="rim" cx="0" cy="0" r="7"/>
                <circle id="rim2" cx="0" cy="0" r="3.5"/>
                <g id="zoomPlus">
                        <use xlink:href="#rim" fill="#404040">
                                <set attributeName="fill" to="#808080" begin="zoomplus.mouseover" end="zoomplus.mouseout"/>
                        </use>
                        <path d="M-4,0h8M0,-4v8" fill="none" stroke="white" stroke-width="1.5" pointer-events="none"/>
                </g>
                <g id="zoomMin">
                        <use xlink:href="#rim" fill="#404040">
                                <set attributeName="fill" to="#808080" begin="zoomminus.mouseover" end="zoomminus.mouseout"/>
                        </use>
                        <path d="M-4,0h8" fill="none" stroke="white" stroke-width="1.5" pointer-events="none"/>
                </g>
                <g id="dirArrow">
                        <path fill="none" stroke="white" stroke-width="1.5" d="M0,-3.0v7 M-2.5,-0.5L0,-3.0L2.5,-0.5"/>
                </g>
               <g id="resetDef">
                       <use xlink:href="#rim2" fill="#404040">
                               <set attributeName="fill" to="#808080" begin="reset.mouseover" end="reset.mouseout"/>
                       </use>
               </g>
        </defs>

<script type="text/javascript">
var viewWidth = 823;
var viewHeight = 183;
var sectionId = 'dynsection-0';
</script>
<script xlink:href="svgpan.js"/>
<svg id="graph" class="graph">
<g id="viewport">
<title>repos_for_Dox/cFp_Zoo/ROLE/vision/hls</title>
<g id="clust1" class="cluster">
<title>clusterdir_ee6479532af8167eb445cc0ce00ea327</title>
<g id="a_clust1"><a xlink:href="dir_ee6479532af8167eb445cc0ce00ea327.html" target="_top" xlink:title="vision">
<polygon fill="#ddddee" stroke="black" points="8,-8 8,-167 681,-167 681,-8 8,-8"/>
<text text-anchor="middle" x="344.5" y="-155" font-family="Helvetica,sans-Serif" font-size="10.00">vision</text>
</a>
</g>
</g>
<g id="clust2" class="cluster">
<title>clusterdir_8fcfd4d6b137402926035128293c4399</title>
<g id="a_clust2"><a xlink:href="dir_8fcfd4d6b137402926035128293c4399.html" target="_top">
<polygon fill="#eeeeff" stroke="black" points="16,-16 16,-140 673,-140 673,-16 16,-16"/>
</a>
</g>
</g>
<!-- dir_8fcfd4d6b137402926035128293c4399 -->
<g id="node1" class="node">
<title>dir_8fcfd4d6b137402926035128293c4399</title>
<text text-anchor="middle" x="638" y="-111.5" font-family="Helvetica,sans-Serif" font-size="10.00">hls</text>
</g>
<!-- dir_177b9ba96c5dcf245c339ecf570fbf7e -->
<g id="node2" class="node">
<title>dir_177b9ba96c5dcf245c339ecf570fbf7e</title>
<g id="a_node2"><a xlink:href="dir_177b9ba96c5dcf245c339ecf570fbf7e.html" target="_top" xlink:title="common">
<polygon fill="white" stroke="red" points="407.5,-60 348.5,-60 348.5,-24 407.5,-24 407.5,-60"/>
<text text-anchor="middle" x="378" y="-39.5" font-family="Helvetica,sans-Serif" font-size="10.00">common</text>
</a>
</g>
</g>
<!-- dir_aaec3a9639829c2fe184e85bbdb6662d -->
<g id="node3" class="node">
<title>dir_aaec3a9639829c2fe184e85bbdb6662d</title>
<g id="a_node3"><a xlink:href="dir_aaec3a9639829c2fe184e85bbdb6662d.html" target="_top" xlink:title="gammacorrection">
<polygon fill="white" stroke="red" points="199.5,-132 96.5,-132 96.5,-96 199.5,-96 199.5,-132"/>
<text text-anchor="middle" x="148" y="-111.5" font-family="Helvetica,sans-Serif" font-size="10.00">gammacorrection</text>
</a>
</g>
</g>
<!-- dir_aaec3a9639829c2fe184e85bbdb6662d&#45;&gt;dir_177b9ba96c5dcf245c339ecf570fbf7e -->
<g id="edge6" class="edge">
<title>dir_aaec3a9639829c2fe184e85bbdb6662d&#45;&gt;dir_177b9ba96c5dcf245c339ecf570fbf7e</title>
<path fill="none" stroke="black" d="M199.62,-97.29C241.68,-84.49 300.21,-66.68 338.58,-55"/>
<polygon fill="black" stroke="black" points="339.81,-58.28 348.36,-52.02 337.77,-51.59 339.81,-58.28"/>
<g id="a_edge6&#45;headlabel"><a xlink:href="dir_000235_000185.html" target="_top" xlink:title="1">
<text text-anchor="middle" x="337.2" y="-59.54" font-family="Helvetica,sans-Serif" font-size="10.00">1</text>
</a>
</g>
</g>
<!-- dir_c763309d04da4bd0478ffd28b96eadab -->
<g id="node9" class="node">
<title>dir_c763309d04da4bd0478ffd28b96eadab</title>
<g id="a_node9"><a xlink:href="dir_c763309d04da4bd0478ffd28b96eadab.html" target="_top" xlink:title="cFDK">
<polygon fill="none" stroke="red" points="743,-60 689,-60 689,-24 743,-24 743,-60"/>
<text text-anchor="middle" x="716" y="-39.5" font-family="Helvetica,sans-Serif" font-size="10.00">cFDK</text>
</a>
</g>
</g>
<!-- dir_aaec3a9639829c2fe184e85bbdb6662d&#45;&gt;dir_c763309d04da4bd0478ffd28b96eadab -->
<g id="edge4" class="edge">
<title>dir_aaec3a9639829c2fe184e85bbdb6662d&#45;&gt;dir_c763309d04da4bd0478ffd28b96eadab</title>
<path fill="none" stroke="black" d="M199.56,-97.69C202.4,-97.06 205.23,-96.49 208,-96 413.82,-59.32 474.13,-110.47 677,-60 677.73,-59.82 678.46,-59.63 679.19,-59.42"/>
<polygon fill="black" stroke="black" points="680.32,-62.73 688.7,-56.25 678.11,-56.09 680.32,-62.73"/>
<g id="a_edge4&#45;headlabel"><a xlink:href="dir_000235_000001.html" target="_top" xlink:title="1">
<text text-anchor="middle" x="677.81" y="-64.06" font-family="Helvetica,sans-Serif" font-size="10.00">1</text>
</a>
</g>
</g>
<!-- dir_23f0d356d1035ca2b48ed060bc32e928 -->
<g id="node10" class="node">
<title>dir_23f0d356d1035ca2b48ed060bc32e928</title>
<g id="a_node10"><a xlink:href="dir_23f0d356d1035ca2b48ed060bc32e928.html" target="_top" xlink:title="HOST">
<polygon fill="none" stroke="red" points="815,-60 761,-60 761,-24 815,-24 815,-60"/>
<text text-anchor="middle" x="788" y="-39.5" font-family="Helvetica,sans-Serif" font-size="10.00">HOST</text>
</a>
</g>
</g>
<!-- dir_aaec3a9639829c2fe184e85bbdb6662d&#45;&gt;dir_23f0d356d1035ca2b48ed060bc32e928 -->
<g id="edge5" class="edge">
<title>dir_aaec3a9639829c2fe184e85bbdb6662d&#45;&gt;dir_23f0d356d1035ca2b48ed060bc32e928</title>
<path fill="none" stroke="black" d="M199.35,-95.94C437.84,-54.81 508.56,-120.77 743,-60 745.76,-59.28 748.57,-58.36 751.37,-57.31"/>
<polygon fill="black" stroke="black" points="752.92,-60.45 760.81,-53.38 750.23,-53.99 752.92,-60.45"/>
<g id="a_edge5&#45;headlabel"><a xlink:href="dir_000235_000139.html" target="_top" xlink:title="2">
<text text-anchor="middle" x="750.69" y="-61.95" font-family="Helvetica,sans-Serif" font-size="10.00">2</text>
</a>
</g>
</g>
<!-- dir_90662fd897c5120b4572ccf375cb39f9 -->
<g id="node4" class="node">
<title>dir_90662fd897c5120b4572ccf375cb39f9</title>
<g id="a_node4"><a xlink:href="dir_90662fd897c5120b4572ccf375cb39f9.html" target="_top" xlink:title="harris">
<polygon fill="white" stroke="red" points="593,-132 539,-132 539,-96 593,-96 593,-132"/>
<text text-anchor="middle" x="566" y="-111.5" font-family="Helvetica,sans-Serif" font-size="10.00">harris</text>
</a>
</g>
</g>
<!-- dir_90662fd897c5120b4572ccf375cb39f9&#45;&gt;dir_177b9ba96c5dcf245c339ecf570fbf7e -->
<g id="edge3" class="edge">
<title>dir_90662fd897c5120b4572ccf375cb39f9&#45;&gt;dir_177b9ba96c5dcf245c339ecf570fbf7e</title>
<path fill="none" stroke="black" d="M538.62,-99.7C535.73,-98.41 532.81,-97.15 530,-96 492.31,-80.58 448.27,-65.54 417.33,-55.45"/>
<polygon fill="black" stroke="black" points="418.36,-52.1 407.77,-52.35 416.2,-58.76 418.36,-52.1"/>
<g id="a_edge3&#45;headlabel"><a xlink:href="dir_000237_000185.html" target="_top" xlink:title="1">
<text text-anchor="middle" x="422.66" y="-48.01" font-family="Helvetica,sans-Serif" font-size="10.00">1</text>
</a>
</g>
</g>
<!-- dir_90662fd897c5120b4572ccf375cb39f9&#45;&gt;dir_c763309d04da4bd0478ffd28b96eadab -->
<g id="edge1" class="edge">
<title>dir_90662fd897c5120b4572ccf375cb39f9&#45;&gt;dir_c763309d04da4bd0478ffd28b96eadab</title>
<path fill="none" stroke="black" d="M593.12,-100.17C596.11,-98.76 599.12,-97.35 602,-96 627.94,-83.85 657.25,-70.22 679.65,-59.83"/>
<polygon fill="black" stroke="black" points="681.2,-62.97 688.8,-55.59 678.25,-56.62 681.2,-62.97"/>
<g id="a_edge1&#45;headlabel"><a xlink:href="dir_000237_000001.html" target="_top" xlink:title="1">
<text text-anchor="middle" x="679.13" y="-64.56" font-family="Helvetica,sans-Serif" font-size="10.00">1</text>
</a>
</g>
</g>
<!-- dir_90662fd897c5120b4572ccf375cb39f9&#45;&gt;dir_23f0d356d1035ca2b48ed060bc32e928 -->
<g id="edge2" class="edge">
<title>dir_90662fd897c5120b4572ccf375cb39f9&#45;&gt;dir_23f0d356d1035ca2b48ed060bc32e928</title>
<path fill="none" stroke="black" d="M593.38,-95.87C657.75,-73.28 678.45,-82.71 743,-60 745.69,-59.05 748.45,-57.97 751.22,-56.82"/>
<polygon fill="black" stroke="black" points="752.83,-59.93 760.62,-52.75 750.05,-53.51 752.83,-59.93"/>
<g id="a_edge2&#45;headlabel"><a xlink:href="dir_000237_000139.html" target="_top" xlink:title="1">
<text text-anchor="middle" x="750.66" y="-61.47" font-family="Helvetica,sans-Serif" font-size="10.00">1</text>
</a>
</g>
</g>
<!-- dir_a9a15b71a6cf45f6099944e9c640be6d -->
<g id="node5" class="node">
<title>dir_a9a15b71a6cf45f6099944e9c640be6d</title>
<g id="a_node5"><a xlink:href="dir_a9a15b71a6cf45f6099944e9c640be6d.html" target="_top" xlink:title="median_blur">
<polygon fill="white" stroke="red" points="520.5,-132 443.5,-132 443.5,-96 520.5,-96 520.5,-132"/>
<text text-anchor="middle" x="482" y="-111.5" font-family="Helvetica,sans-Serif" font-size="10.00">median_blur</text>
</a>
</g>
</g>
<!-- dir_a9a15b71a6cf45f6099944e9c640be6d&#45;&gt;dir_177b9ba96c5dcf245c339ecf570fbf7e -->
<g id="edge15" class="edge">
<title>dir_a9a15b71a6cf45f6099944e9c640be6d&#45;&gt;dir_177b9ba96c5dcf245c339ecf570fbf7e</title>
<path fill="none" stroke="black" d="M456.56,-95.88C443.21,-86.89 426.68,-75.76 412.22,-66.03"/>
<polygon fill="black" stroke="black" points="413.79,-62.87 403.54,-60.19 409.88,-68.68 413.79,-62.87"/>
<g id="a_edge15&#45;headlabel"><a xlink:href="dir_000239_000185.html" target="_top" xlink:title="1">
<text text-anchor="middle" x="418.36" y="-60.02" font-family="Helvetica,sans-Serif" font-size="10.00">1</text>
</a>
</g>
</g>
<!-- dir_a9a15b71a6cf45f6099944e9c640be6d&#45;&gt;dir_c763309d04da4bd0478ffd28b96eadab -->
<g id="edge14" class="edge">
<title>dir_a9a15b71a6cf45f6099944e9c640be6d&#45;&gt;dir_c763309d04da4bd0478ffd28b96eadab</title>
<path fill="none" stroke="black" d="M520.66,-98.93C523.81,-97.9 526.95,-96.91 530,-96 594.45,-76.75 613.27,-81.52 677,-60 677.86,-59.71 678.72,-59.41 679.59,-59.1"/>
<polygon fill="black" stroke="black" points="680.88,-62.35 688.96,-55.49 678.37,-55.82 680.88,-62.35"/>
<g id="a_edge14&#45;headlabel"><a xlink:href="dir_000239_000001.html" target="_top" xlink:title="1">
<text text-anchor="middle" x="678.55" y="-63.79" font-family="Helvetica,sans-Serif" font-size="10.00">1</text>
</a>
</g>
</g>
<!-- dir_a9a15b71a6cf45f6099944e9c640be6d&#45;&gt;dir_23f0d356d1035ca2b48ed060bc32e928 -->
<g id="edge13" class="edge">
<title>dir_a9a15b71a6cf45f6099944e9c640be6d&#45;&gt;dir_23f0d356d1035ca2b48ed060bc32e928</title>
<path fill="none" stroke="black" d="M520.74,-96.07C520.83,-96.04 520.91,-96.02 521,-96 617.83,-71.22 647.54,-89.63 743,-60 745.72,-59.15 748.5,-58.14 751.29,-57.03"/>
<polygon fill="black" stroke="black" points="752.88,-60.16 760.71,-53.03 750.14,-53.72 752.88,-60.16"/>
<g id="a_edge13&#45;headlabel"><a xlink:href="dir_000239_000139.html" target="_top" xlink:title="1">
<text text-anchor="middle" x="750.68" y="-61.68" font-family="Helvetica,sans-Serif" font-size="10.00">1</text>
</a>
</g>
</g>
<!-- dir_dca3230684f02776573cec5a558b23d9 -->
<g id="node6" class="node">
<title>dir_dca3230684f02776573cec5a558b23d9</title>
<g id="a_node6"><a xlink:href="dir_dca3230684f02776573cec5a558b23d9.html" target="_top" xlink:title="mem_test_flash">
<polygon fill="white" stroke="red" points="312.5,-132 217.5,-132 217.5,-96 312.5,-96 312.5,-132"/>
<text text-anchor="middle" x="265" y="-111.5" font-family="Helvetica,sans-Serif" font-size="10.00">mem_test_flash</text>
</a>
</g>
</g>
<!-- dir_609992001d61fa8e39165c5f40b74f41 -->
<g id="node7" class="node">
<title>dir_609992001d61fa8e39165c5f40b74f41</title>
<g id="a_node7"><a xlink:href="dir_609992001d61fa8e39165c5f40b74f41.html" target="_top" xlink:title="sobel">
<polygon fill="white" stroke="red" points="78,-132 24,-132 24,-96 78,-96 78,-132"/>
<text text-anchor="middle" x="51" y="-111.5" font-family="Helvetica,sans-Serif" font-size="10.00">sobel</text>
</a>
</g>
</g>
<!-- dir_609992001d61fa8e39165c5f40b74f41&#45;&gt;dir_177b9ba96c5dcf245c339ecf570fbf7e -->
<g id="edge9" class="edge">
<title>dir_609992001d61fa8e39165c5f40b74f41&#45;&gt;dir_177b9ba96c5dcf245c339ecf570fbf7e</title>
<path fill="none" stroke="black" d="M78.22,-99.25C81.14,-98.04 84.1,-96.93 87,-96 174.45,-67.92 281.76,-53.21 338.48,-46.89"/>
<polygon fill="black" stroke="black" points="338.91,-50.36 348.47,-45.8 338.15,-43.4 338.91,-50.36"/>
<g id="a_edge9&#45;headlabel"><a xlink:href="dir_000241_000185.html" target="_top" xlink:title="1">
<text text-anchor="middle" x="335.64" y="-51.07" font-family="Helvetica,sans-Serif" font-size="10.00">1</text>
</a>
</g>
</g>
<!-- dir_609992001d61fa8e39165c5f40b74f41&#45;&gt;dir_c763309d04da4bd0478ffd28b96eadab -->
<g id="edge8" class="edge">
<title>dir_609992001d61fa8e39165c5f40b74f41&#45;&gt;dir_c763309d04da4bd0478ffd28b96eadab</title>
<path fill="none" stroke="black" d="M78.11,-98.89C81.06,-97.75 84.05,-96.76 87,-96 341.47,-30.73 421.57,-121.43 677,-60 677.73,-59.83 678.46,-59.64 679.19,-59.44"/>
<polygon fill="black" stroke="black" points="680.31,-62.75 688.72,-56.31 678.12,-56.1 680.31,-62.75"/>
<g id="a_edge8&#45;headlabel"><a xlink:href="dir_000241_000001.html" target="_top" xlink:title="3">
<text text-anchor="middle" x="677.78" y="-64.07" font-family="Helvetica,sans-Serif" font-size="10.00">3</text>
</a>
</g>
</g>
<!-- dir_609992001d61fa8e39165c5f40b74f41&#45;&gt;dir_23f0d356d1035ca2b48ed060bc32e928 -->
<g id="edge7" class="edge">
<title>dir_609992001d61fa8e39165c5f40b74f41&#45;&gt;dir_23f0d356d1035ca2b48ed060bc32e928</title>
<path fill="none" stroke="black" d="M78.11,-98.87C81.05,-97.74 84.05,-96.75 87,-96 370.74,-24.27 462.97,-130.12 751,-59.6"/>
<polygon fill="black" stroke="black" points="752.04,-62.95 760.89,-57.13 750.34,-56.16 752.04,-62.95"/>
<g id="a_edge7&#45;headlabel"><a xlink:href="dir_000241_000139.html" target="_top" xlink:title="3">
<text text-anchor="middle" x="749.24" y="-64.08" font-family="Helvetica,sans-Serif" font-size="10.00">3</text>
</a>
</g>
</g>
<!-- dir_3ec3fdc20ddfa2a1d2b1c90a36bc30f9 -->
<g id="node8" class="node">
<title>dir_3ec3fdc20ddfa2a1d2b1c90a36bc30f9</title>
<g id="a_node8"><a xlink:href="dir_3ec3fdc20ddfa2a1d2b1c90a36bc30f9.html" target="_top" xlink:title="warp_transform">
<polygon fill="white" stroke="red" points="425,-132 331,-132 331,-96 425,-96 425,-132"/>
<text text-anchor="middle" x="378" y="-111.5" font-family="Helvetica,sans-Serif" font-size="10.00">warp_transform</text>
</a>
</g>
</g>
<!-- dir_3ec3fdc20ddfa2a1d2b1c90a36bc30f9&#45;&gt;dir_177b9ba96c5dcf245c339ecf570fbf7e -->
<g id="edge10" class="edge">
<title>dir_3ec3fdc20ddfa2a1d2b1c90a36bc30f9&#45;&gt;dir_177b9ba96c5dcf245c339ecf570fbf7e</title>
<path fill="none" stroke="black" d="M378,-95.7C378,-87.98 378,-78.71 378,-70.11"/>
<polygon fill="black" stroke="black" points="381.5,-70.1 378,-60.1 374.5,-70.1 381.5,-70.1"/>
<g id="a_edge10&#45;headlabel"><a xlink:href="dir_000243_000185.html" target="_top" xlink:title="1">
<text text-anchor="middle" x="384.34" y="-71.2" font-family="Helvetica,sans-Serif" font-size="10.00">1</text>
</a>
</g>
</g>
<!-- dir_3ec3fdc20ddfa2a1d2b1c90a36bc30f9&#45;&gt;dir_c763309d04da4bd0478ffd28b96eadab -->
<g id="edge12" class="edge">
<title>dir_3ec3fdc20ddfa2a1d2b1c90a36bc30f9&#45;&gt;dir_c763309d04da4bd0478ffd28b96eadab</title>
<path fill="none" stroke="black" d="M425.14,-98.38C428.46,-97.52 431.77,-96.72 435,-96 541.15,-72.4 572.48,-89.98 677,-60 677.72,-59.79 678.44,-59.58 679.17,-59.35"/>
<polygon fill="black" stroke="black" points="680.38,-62.64 688.63,-56 678.04,-56.04 680.38,-62.64"/>
<g id="a_edge12&#45;headlabel"><a xlink:href="dir_000243_000001.html" target="_top" xlink:title="3">
<text text-anchor="middle" x="677.94" y="-64.01" font-family="Helvetica,sans-Serif" font-size="10.00">3</text>
</a>
</g>
</g>
<!-- dir_3ec3fdc20ddfa2a1d2b1c90a36bc30f9&#45;&gt;dir_23f0d356d1035ca2b48ed060bc32e928 -->
<g id="edge11" class="edge">
<title>dir_3ec3fdc20ddfa2a1d2b1c90a36bc30f9&#45;&gt;dir_23f0d356d1035ca2b48ed060bc32e928</title>
<path fill="none" stroke="black" d="M425.09,-96.19C425.39,-96.12 425.7,-96.06 426,-96 564.93,-67.63 606.62,-98.79 743,-60 745.74,-59.22 748.54,-58.25 751.33,-57.17"/>
<polygon fill="black" stroke="black" points="752.9,-60.31 760.76,-53.2 750.19,-53.86 752.9,-60.31"/>
<g id="a_edge11&#45;headlabel"><a xlink:href="dir_000243_000139.html" target="_top" xlink:title="3">
<text text-anchor="middle" x="750.69" y="-61.82" font-family="Helvetica,sans-Serif" font-size="10.00">3</text>
</a>
</g>
</g>
<!-- dir_23f0d356d1035ca2b48ed060bc32e928&#45;&gt;dir_aaec3a9639829c2fe184e85bbdb6662d -->
<g id="edge19" class="edge">
<title>dir_23f0d356d1035ca2b48ed060bc32e928&#45;&gt;dir_aaec3a9639829c2fe184e85bbdb6662d</title>
<path fill="none" stroke="black" d="M760.66,-60.09C526.38,-120.73 455.65,-54.77 217,-96 214.53,-96.43 212.01,-96.92 209.47,-97.45"/>
<polygon fill="black" stroke="black" points="208.56,-94.07 199.6,-99.73 210.13,-100.89 208.56,-94.07"/>
<g id="a_edge19&#45;headlabel"><a xlink:href="dir_000139_000235.html" target="_top" xlink:title="1">
<text text-anchor="middle" x="211.43" y="-88" font-family="Helvetica,sans-Serif" font-size="10.00">1</text>
</a>
</g>
</g>
<!-- dir_23f0d356d1035ca2b48ed060bc32e928&#45;&gt;dir_90662fd897c5120b4572ccf375cb39f9 -->
<g id="edge18" class="edge">
<title>dir_23f0d356d1035ca2b48ed060bc32e928&#45;&gt;dir_90662fd897c5120b4572ccf375cb39f9</title>
<path fill="none" stroke="black" d="M760.62,-60.13C696.25,-82.72 675.55,-73.29 611,-96 608.31,-96.95 605.55,-98.03 602.78,-99.18"/>
<polygon fill="black" stroke="black" points="601.17,-96.07 593.38,-103.25 603.95,-102.49 601.17,-96.07"/>
<g id="a_edge18&#45;headlabel"><a xlink:href="dir_000139_000237.html" target="_top" xlink:title="1">
<text text-anchor="middle" x="603.34" y="-89.53" font-family="Helvetica,sans-Serif" font-size="10.00">1</text>
</a>
</g>
</g>
<!-- dir_23f0d356d1035ca2b48ed060bc32e928&#45;&gt;dir_a9a15b71a6cf45f6099944e9c640be6d -->
<g id="edge17" class="edge">
<title>dir_23f0d356d1035ca2b48ed060bc32e928&#45;&gt;dir_a9a15b71a6cf45f6099944e9c640be6d</title>
<path fill="none" stroke="black" d="M760.72,-60.09C665.48,-89.6 635.74,-71.24 539,-96 536.1,-96.74 533.12,-97.59 530.12,-98.49"/>
<polygon fill="black" stroke="black" points="528.99,-95.18 520.52,-101.55 531.11,-101.85 528.99,-95.18"/>
<g id="a_edge17&#45;headlabel"><a xlink:href="dir_000139_000239.html" target="_top" xlink:title="1">
<text text-anchor="middle" x="531.55" y="-88.89" font-family="Helvetica,sans-Serif" font-size="10.00">1</text>
</a>
</g>
</g>
<!-- dir_23f0d356d1035ca2b48ed060bc32e928&#45;&gt;dir_3ec3fdc20ddfa2a1d2b1c90a36bc30f9 -->
<g id="edge16" class="edge">
<title>dir_23f0d356d1035ca2b48ed060bc32e928&#45;&gt;dir_3ec3fdc20ddfa2a1d2b1c90a36bc30f9</title>
<path fill="none" stroke="black" d="M760.6,-60.11C624.53,-98.73 582.79,-67.65 444,-96 441.06,-96.6 438.05,-97.28 435.02,-98.02"/>
<polygon fill="black" stroke="black" points="434.09,-94.65 425.28,-100.54 435.84,-101.43 434.09,-94.65"/>
<g id="a_edge16&#45;headlabel"><a xlink:href="dir_000139_000243.html" target="_top" xlink:title="1">
<text text-anchor="middle" x="436.85" y="-88.5" font-family="Helvetica,sans-Serif" font-size="10.00">1</text>
</a>
</g>
</g>
</g>
</svg>
        <g id="navigator" transform="translate(0 0)" fill="#404254">
                <rect fill="#f2f5e9" fill-opacity="0.5" stroke="#606060" stroke-width=".5" x="0" y="0" width="60" height="60"/>
                <use id="zoomplus" xlink:href="#zoomPlus" x="17" y="9" onmousedown="handleZoom(evt,'in')"/>
                <use id="zoomminus" xlink:href="#zoomMin" x="42" y="9" onmousedown="handleZoom(evt,'out')"/>
                <use id="reset" xlink:href="#resetDef" x="30" y="36" onmousedown="handleReset()"/>
                <g id="arrowUp" xlink:href="#dirArrow" transform="translate(30 24)" onmousedown="handlePan(0,-1)">
                  <use xlink:href="#rim" fill="#404040">
                        <set attributeName="fill" to="#808080" begin="arrowUp.mouseover" end="arrowUp.mouseout"/>
                  </use>
                  <path fill="none" stroke="white" stroke-width="1.5" d="M0,-3.0v7 M-2.5,-0.5L0,-3.0L2.5,-0.5"/>
                </g>
                <g id="arrowRight" xlink:href="#dirArrow" transform="rotate(90) translate(36 -43)" onmousedown="handlePan(1,0)">
                  <use xlink:href="#rim" fill="#404040">
                        <set attributeName="fill" to="#808080" begin="arrowRight.mouseover" end="arrowRight.mouseout"/>
                  </use>
                  <path fill="none" stroke="white" stroke-width="1.5" d="M0,-3.0v7 M-2.5,-0.5L0,-3.0L2.5,-0.5"/>
                </g>
                <g id="arrowDown" xlink:href="#dirArrow" transform="rotate(180) translate(-30 -48)" onmousedown="handlePan(0,1)">
                  <use xlink:href="#rim" fill="#404040">
                        <set attributeName="fill" to="#808080" begin="arrowDown.mouseover" end="arrowDown.mouseout"/>
                  </use>
                  <path fill="none" stroke="white" stroke-width="1.5" d="M0,-3.0v7 M-2.5,-0.5L0,-3.0L2.5,-0.5"/>
                </g>
                <g id="arrowLeft" xlink:href="#dirArrow" transform="rotate(270) translate(-36 17)" onmousedown="handlePan(-1,0)">
                  <use xlink:href="#rim" fill="#404040">
                        <set attributeName="fill" to="#808080" begin="arrowLeft.mouseover" end="arrowLeft.mouseout"/>
                  </use>
                  <path fill="none" stroke="white" stroke-width="1.5" d="M0,-3.0v7 M-2.5,-0.5L0,-3.0L2.5,-0.5"/>
                </g>
        </g>
        <svg viewBox="0 0 15 15" width="100%" height="30px" preserveAspectRatio="xMaxYMin meet">
         <g id="arrow_out" transform="scale(0.3 0.3)">
          <a xlink:href="dir_8fcfd4d6b137402926035128293c4399_dep_org.svg" target="_base">
           <rect id="button" ry="5" rx="5" y="6" x="6" height="38" width="38"
                fill="#f2f5e9" fill-opacity="0.5" stroke="#606060" stroke-width="1.0"/>
           <path id="arrow"
             d="M 11.500037,31.436501 C 11.940474,20.09759 22.043105,11.32322 32.158766,21.979434 L 37.068811,17.246167 C 37.068811,17.246167 37.088388,32 37.088388,32 L 22.160133,31.978069 C 22.160133,31.978069 26.997745,27.140456 26.997745,27.140456 C 18.528582,18.264221 13.291696,25.230495 11.500037,31.436501 z"
             style="fill:#404040;"/>
          </a>
         </g>
        </svg>
</svg>
