<?xml version="1.0" encoding="UTF-8" standalone="no"?>
<!DOCTYPE svg PUBLIC "-//W3C//DTD SVG 1.1//EN"
 "http://www.w3.org/Graphics/SVG/1.1/DTD/svg11.dtd">
<!-- Generated by graphviz version 2.43.0 (0)
 -->
<!-- Title: repos_for_Dox/cFp_Zoo/ROLE/vision/hls/warp_transform/include Pages: 1 -->
<svg width="134pt" height="151pt"
 viewBox="0.00 0.00 134.00 151.00" xmlns="http://www.w3.org/2000/svg" xmlns:xlink="http://www.w3.org/1999/xlink">
<g id="graph0" class="graph" transform="scale(1 1) rotate(0) translate(4 147)">
<title>repos_for_Dox/cFp_Zoo/ROLE/vision/hls/warp_transform/include</title>
<g id="clust1" class="cluster">
<title>clusterdir_3ec3fdc20ddfa2a1d2b1c90a36bc30f9</title>
<g id="a_clust1"><a xlink:href="dir_3ec3fdc20ddfa2a1d2b1c90a36bc30f9.html" target="_top" xlink:title="warp_transform">
<polygon fill="#ddddee" stroke="black" points="16,-64 16,-135 110,-135 110,-64 16,-64"/>
<text text-anchor="middle" x="63" y="-123" font-family="Helvetica,sans-Serif" font-size="10.00">warp_transform</text>
</a>
</g>
</g>
<!-- dir_3c201978e36ce5cf292eaa4541d45319 -->
<g id="node1" class="node">
<title>dir_3c201978e36ce5cf292eaa4541d45319</title>
<g id="a_node1"><a xlink:href="dir_3c201978e36ce5cf292eaa4541d45319.html" target="_top" xlink:title="include">
<polygon fill="#eeeeff" stroke="black" points="90,-108 36,-108 36,-72 90,-72 90,-108"/>
<text text-anchor="middle" x="63" y="-87.5" font-family="Helvetica,sans-Serif" font-size="10.00">include</text>
</a>
</g>
</g>
<!-- dir_23f0d356d1035ca2b48ed060bc32e928 -->
<g id="node2" class="node">
<title>dir_23f0d356d1035ca2b48ed060bc32e928</title>
<g id="a_node2"><a xlink:href="dir_23f0d356d1035ca2b48ed060bc32e928.html" target="_top" xlink:title="HOST">
<polygon fill="none" stroke="red" points="54,-36 0,-36 0,0 54,0 54,-36"/>
<text text-anchor="middle" x="27" y="-15.5" font-family="Helvetica,sans-Serif" font-size="10.00">HOST</text>
</a>
</g>
</g>
<!-- dir_3c201978e36ce5cf292eaa4541d45319&#45;&gt;dir_23f0d356d1035ca2b48ed060bc32e928 -->
<g id="edge1" class="edge">
<title>dir_3c201978e36ce5cf292eaa4541d45319&#45;&gt;dir_23f0d356d1035ca2b48ed060bc32e928</title>
<path fill="none" stroke="black" d="M54.1,-71.7C50,-63.73 45.05,-54.1 40.51,-45.26"/>
<polygon fill="black" stroke="black" points="43.48,-43.4 35.8,-36.1 37.26,-46.6 43.48,-43.4"/>
<g id="a_edge1&#45;headlabel"><a xlink:href="dir_000244_000139.html" target="_top" xlink:title="3">
<text text-anchor="middle" x="47.65" y="-42.79" font-family="Helvetica,sans-Serif" font-size="10.00">3</text>
</a>
</g>
</g>
<!-- dir_c763309d04da4bd0478ffd28b96eadab -->
<g id="node3" class="node">
<title>dir_c763309d04da4bd0478ffd28b96eadab</title>
<g id="a_node3"><a xlink:href="dir_c763309d04da4bd0478ffd28b96eadab.html" target="_top" xlink:title="cFDK">
<polygon fill="none" stroke="red" points="126,-36 72,-36 72,0 126,0 126,-36"/>
<text text-anchor="middle" x="99" y="-15.5" font-family="Helvetica,sans-Serif" font-size="10.00">cFDK</text>
</a>
</g>
</g>
<!-- dir_3c201978e36ce5cf292eaa4541d45319&#45;&gt;dir_c763309d04da4bd0478ffd28b96eadab -->
<g id="edge2" class="edge">
<title>dir_3c201978e36ce5cf292eaa4541d45319&#45;&gt;dir_c763309d04da4bd0478ffd28b96eadab</title>
<path fill="none" stroke="black" d="M71.9,-71.7C76,-63.73 80.95,-54.1 85.49,-45.26"/>
<polygon fill="black" stroke="black" points="88.74,-46.6 90.2,-36.1 82.52,-43.4 88.74,-46.6"/>
<g id="a_edge2&#45;headlabel"><a xlink:href="dir_000244_000001.html" target="_top" xlink:title="3">
<text text-anchor="middle" x="89.62" y="-48.59" font-family="Helvetica,sans-Serif" font-size="10.00">3</text>
</a>
</g>
</g>
</g>
</svg>
