<?xml version="1.0" encoding="UTF-8" standalone="no"?>
<!DOCTYPE svg PUBLIC "-//W3C//DTD SVG 1.1//EN"
 "http://www.w3.org/Graphics/SVG/1.1/DTD/svg11.dtd">
<!-- Generated by graphviz version 2.43.0 (0)
 -->
<!-- Title: repos_for_Dox/cFDK/SRA/LIB/SHELL/LIB/hls/NAL Pages: 1 -->
<svg width="316pt" height="303pt"
 viewBox="0.00 0.00 316.00 303.00" xmlns="http://www.w3.org/2000/svg" xmlns:xlink="http://www.w3.org/1999/xlink">
<g id="graph0" class="graph" transform="scale(1 1) rotate(0) translate(4 299)">
<title>repos_for_Dox/cFDK/SRA/LIB/SHELL/LIB/hls/NAL</title>
<g id="clust1" class="cluster">
<title>clusterdir_c9f44e6f37e5344419a1b0905b1abe12</title>
<g id="a_clust1"><a xlink:href="dir_c9f44e6f37e5344419a1b0905b1abe12.html" target="_top" xlink:title="hls">
<polygon fill="#ddddee" stroke="black" points="8,-64 8,-287 300,-287 300,-64 8,-64"/>
<text text-anchor="middle" x="154" y="-275" font-family="Helvetica,sans-Serif" font-size="10.00">hls</text>
</a>
</g>
</g>
<g id="clust2" class="cluster">
<title>clusterdir_6682a0fb78b4ad4fbd2c2d6b4b5e1186</title>
<g id="a_clust2"><a xlink:href="dir_6682a0fb78b4ad4fbd2c2d6b4b5e1186.html" target="_top">
<polygon fill="#eeeeff" stroke="black" points="16,-136 16,-260 230,-260 230,-136 16,-136"/>
</a>
</g>
</g>
<!-- dir_d6028d0752218c8cabb6716cb40ac33c -->
<g id="node1" class="node">
<title>dir_d6028d0752218c8cabb6716cb40ac33c</title>
<g id="a_node1"><a xlink:href="dir_d6028d0752218c8cabb6716cb40ac33c.html" target="_top" xlink:title="FMC">
<polygon fill="none" stroke="red" points="74,-108 20,-108 20,-72 74,-72 74,-108"/>
<text text-anchor="middle" x="47" y="-87.5" font-family="Helvetica,sans-Serif" font-size="10.00">FMC</text>
</a>
</g>
</g>
<!-- dir_4d8d23beb81128bd6ed3b6109fc90767 -->
<g id="node5" class="node">
<title>dir_4d8d23beb81128bd6ed3b6109fc90767</title>
<g id="a_node5"><a xlink:href="dir_4d8d23beb81128bd6ed3b6109fc90767.html" target="_top" xlink:title="src">
<polygon fill="white" stroke="black" points="78,-180 24,-180 24,-144 78,-144 78,-180"/>
<text text-anchor="middle" x="51" y="-159.5" font-family="Helvetica,sans-Serif" font-size="10.00">src</text>
</a>
</g>
</g>
<!-- dir_d6028d0752218c8cabb6716cb40ac33c&#45;&gt;dir_4d8d23beb81128bd6ed3b6109fc90767 -->
<g id="edge2" class="edge">
<title>dir_d6028d0752218c8cabb6716cb40ac33c&#45;&gt;dir_4d8d23beb81128bd6ed3b6109fc90767</title>
<path fill="none" stroke="black" d="M53.87,-108.1C55.12,-115.79 55.88,-125.05 56.04,-133.67"/>
<polygon fill="black" stroke="black" points="52.54,-133.66 55.93,-143.7 59.54,-133.74 52.54,-133.66"/>
<g id="a_edge2&#45;headlabel"><a xlink:href="dir_000041_000047.html" target="_top" xlink:title="2">
<text text-anchor="middle" x="49.74" y="-127.53" font-family="Helvetica,sans-Serif" font-size="10.00">2</text>
</a>
</g>
</g>
<!-- dir_188d246a915f5c94f1dc76192fcb99f8 -->
<g id="node7" class="node">
<title>dir_188d246a915f5c94f1dc76192fcb99f8</title>
<g id="a_node7"><a xlink:href="dir_188d246a915f5c94f1dc76192fcb99f8.html" target="_top" xlink:title="hls">
<polygon fill="none" stroke="black" points="101,-36 47,-36 47,0 101,0 101,-36"/>
<text text-anchor="middle" x="74" y="-15.5" font-family="Helvetica,sans-Serif" font-size="10.00">hls</text>
</a>
</g>
</g>
<!-- dir_d6028d0752218c8cabb6716cb40ac33c&#45;&gt;dir_188d246a915f5c94f1dc76192fcb99f8 -->
<g id="edge1" class="edge">
<title>dir_d6028d0752218c8cabb6716cb40ac33c&#45;&gt;dir_188d246a915f5c94f1dc76192fcb99f8</title>
<path fill="none" stroke="black" d="M53.67,-71.7C56.71,-63.81 60.38,-54.3 63.76,-45.55"/>
<polygon fill="black" stroke="black" points="67.07,-46.69 67.4,-36.1 60.54,-44.17 67.07,-46.69"/>
<g id="a_edge1&#45;headlabel"><a xlink:href="dir_000041_000015.html" target="_top" xlink:title="6">
<text text-anchor="middle" x="68.42" y="-48.57" font-family="Helvetica,sans-Serif" font-size="10.00">6</text>
</a>
</g>
</g>
<!-- dir_e1e3d4eb93665cb4c1f6dd435b964e48 -->
<g id="node2" class="node">
<title>dir_e1e3d4eb93665cb4c1f6dd435b964e48</title>
<g id="a_node2"><a xlink:href="dir_e1e3d4eb93665cb4c1f6dd435b964e48.html" target="_top" xlink:title="NTS">
<polygon fill="none" stroke="red" points="292,-180 238,-180 238,-144 292,-144 292,-180"/>
<text text-anchor="middle" x="265" y="-159.5" font-family="Helvetica,sans-Serif" font-size="10.00">NTS</text>
</a>
</g>
</g>
<!-- dir_6682a0fb78b4ad4fbd2c2d6b4b5e1186 -->
<g id="node3" class="node">
<title>dir_6682a0fb78b4ad4fbd2c2d6b4b5e1186</title>
<text text-anchor="middle" x="195" y="-231.5" font-family="Helvetica,sans-Serif" font-size="10.00">NAL</text>
</g>
<!-- dir_f1f03f6133079a213fcc849e3fc73651 -->
<g id="node4" class="node">
<title>dir_f1f03f6133079a213fcc849e3fc73651</title>
<g id="a_node4"><a xlink:href="dir_f1f03f6133079a213fcc849e3fc73651.html" target="_top" xlink:title="ref">
<polygon fill="white" stroke="black" points="150,-252 96,-252 96,-216 150,-216 150,-252"/>
<text text-anchor="middle" x="123" y="-231.5" font-family="Helvetica,sans-Serif" font-size="10.00">ref</text>
</a>
</g>
</g>
<!-- dir_4d8d23beb81128bd6ed3b6109fc90767&#45;&gt;dir_d6028d0752218c8cabb6716cb40ac33c -->
<g id="edge6" class="edge">
<title>dir_4d8d23beb81128bd6ed3b6109fc90767&#45;&gt;dir_d6028d0752218c8cabb6716cb40ac33c</title>
<path fill="none" stroke="black" d="M44.1,-143.7C42.86,-135.98 42.1,-126.71 41.95,-118.11"/>
<polygon fill="black" stroke="black" points="45.45,-118.15 42.08,-108.1 38.45,-118.06 45.45,-118.15"/>
<g id="a_edge6&#45;headlabel"><a xlink:href="dir_000047_000041.html" target="_top" xlink:title="1">
<text text-anchor="middle" x="48.25" y="-119.28" font-family="Helvetica,sans-Serif" font-size="10.00">1</text>
</a>
</g>
</g>
<!-- dir_4d8d23beb81128bd6ed3b6109fc90767&#45;&gt;dir_188d246a915f5c94f1dc76192fcb99f8 -->
<g id="edge5" class="edge">
<title>dir_4d8d23beb81128bd6ed3b6109fc90767&#45;&gt;dir_188d246a915f5c94f1dc76192fcb99f8</title>
<path fill="none" stroke="black" d="M67.04,-143.85C75.01,-134.12 83.83,-121.27 88,-108 94.42,-87.57 89.97,-63.54 84.44,-45.6"/>
<polygon fill="black" stroke="black" points="87.74,-44.43 81.23,-36.07 81.11,-46.67 87.74,-44.43"/>
<g id="a_edge5&#45;headlabel"><a xlink:href="dir_000047_000015.html" target="_top" xlink:title="1">
<text text-anchor="middle" x="91.58" y="-44.43" font-family="Helvetica,sans-Serif" font-size="10.00">1</text>
</a>
</g>
</g>
<!-- dir_da9d3914e6043912fd7e56d3315b709c -->
<g id="node6" class="node">
<title>dir_da9d3914e6043912fd7e56d3315b709c</title>
<g id="a_node6"><a xlink:href="dir_da9d3914e6043912fd7e56d3315b709c.html" target="_top" xlink:title="test">
<polygon fill="white" stroke="black" points="78,-252 24,-252 24,-216 78,-216 78,-252"/>
<text text-anchor="middle" x="51" y="-231.5" font-family="Helvetica,sans-Serif" font-size="10.00">test</text>
</a>
</g>
</g>
<!-- dir_da9d3914e6043912fd7e56d3315b709c&#45;&gt;dir_e1e3d4eb93665cb4c1f6dd435b964e48 -->
<g id="edge4" class="edge">
<title>dir_da9d3914e6043912fd7e56d3315b709c&#45;&gt;dir_e1e3d4eb93665cb4c1f6dd435b964e48</title>
<path fill="none" stroke="black" d="M78.28,-219.42C81.19,-218.19 84.13,-217.02 87,-216 147.3,-194.62 169.17,-203.4 228.38,-181.97"/>
<polygon fill="black" stroke="black" points="229.68,-185.22 237.8,-178.42 227.21,-178.67 229.68,-185.22"/>
<g id="a_edge4&#45;headlabel"><a xlink:href="dir_000048_000049.html" target="_top" xlink:title="1">
<text text-anchor="middle" x="227.31" y="-186.64" font-family="Helvetica,sans-Serif" font-size="10.00">1</text>
</a>
</g>
</g>
<!-- dir_da9d3914e6043912fd7e56d3315b709c&#45;&gt;dir_4d8d23beb81128bd6ed3b6109fc90767 -->
<g id="edge3" class="edge">
<title>dir_da9d3914e6043912fd7e56d3315b709c&#45;&gt;dir_4d8d23beb81128bd6ed3b6109fc90767</title>
<path fill="none" stroke="black" d="M51,-215.7C51,-207.98 51,-198.71 51,-190.11"/>
<polygon fill="black" stroke="black" points="54.5,-190.1 51,-180.1 47.5,-190.1 54.5,-190.1"/>
<g id="a_edge3&#45;headlabel"><a xlink:href="dir_000048_000047.html" target="_top" xlink:title="1">
<text text-anchor="middle" x="57.34" y="-191.2" font-family="Helvetica,sans-Serif" font-size="10.00">1</text>
</a>
</g>
</g>
</g>
</svg>
