<?xml version="1.0" encoding="UTF-8" standalone="no"?>
<!DOCTYPE svg PUBLIC "-//W3C//DTD SVG 1.1//EN"
 "http://www.w3.org/Graphics/SVG/1.1/DTD/svg11.dtd">
<!-- Generated by graphviz version 2.43.0 (0)
 -->
<!-- Title: repos_for_Dox/cFp_Zoo/HOST Pages: 1 -->
<svg width="460pt" height="247pt"
 viewBox="0.00 0.00 460.00 247.00" xmlns="http://www.w3.org/2000/svg" xmlns:xlink="http://www.w3.org/1999/xlink">
<g id="graph0" class="graph" transform="scale(1 1) rotate(0) translate(4 243)">
<title>repos_for_Dox/cFp_Zoo/HOST</title>
<g id="clust1" class="cluster">
<title>clusterdir_5d142b4fa6d7f5d9409cd75f2ef7494f</title>
<g id="a_clust1"><a xlink:href="dir_5d142b4fa6d7f5d9409cd75f2ef7494f.html" target="_top" xlink:title="cFp_Zoo">
<polygon fill="#ddddee" stroke="black" points="8,-8 8,-231 444,-231 444,-8 8,-8"/>
<text text-anchor="middle" x="226" y="-219" font-family="Helvetica,sans-Serif" font-size="10.00">cFp_Zoo</text>
</a>
</g>
</g>
<g id="clust2" class="cluster">
<title>clusterdir_23f0d356d1035ca2b48ed060bc32e928</title>
<g id="a_clust2"><a xlink:href="dir_23f0d356d1035ca2b48ed060bc32e928.html" target="_top">
<polygon fill="#eeeeff" stroke="black" points="16,-16 16,-140 436,-140 436,-16 16,-16"/>
</a>
</g>
</g>
<!-- dir_372190bba8e51f711404a4d20d8d4609 -->
<g id="node1" class="node">
<title>dir_372190bba8e51f711404a4d20d8d4609</title>
<g id="a_node1"><a xlink:href="dir_372190bba8e51f711404a4d20d8d4609.html" target="_top" xlink:title="ROLE">
<polygon fill="none" stroke="red" points="253,-204 199,-204 199,-168 253,-168 253,-204"/>
<text text-anchor="middle" x="226" y="-183.5" font-family="Helvetica,sans-Serif" font-size="10.00">ROLE</text>
</a>
</g>
</g>
<!-- dir_b21e901561fbd26abdd422d38d96f97a -->
<g id="node4" class="node">
<title>dir_b21e901561fbd26abdd422d38d96f97a</title>
<g id="a_node4"><a xlink:href="dir_b21e901561fbd26abdd422d38d96f97a.html" target="_top" xlink:title="custom">
<polygon fill="white" stroke="red" points="356,-132 302,-132 302,-96 356,-96 356,-132"/>
<text text-anchor="middle" x="329" y="-111.5" font-family="Helvetica,sans-Serif" font-size="10.00">custom</text>
</a>
</g>
</g>
<!-- dir_372190bba8e51f711404a4d20d8d4609&#45;&gt;dir_b21e901561fbd26abdd422d38d96f97a -->
<g id="edge3" class="edge">
<title>dir_372190bba8e51f711404a4d20d8d4609&#45;&gt;dir_b21e901561fbd26abdd422d38d96f97a</title>
<path fill="none" stroke="black" d="M251.52,-168C264.04,-159.61 279.35,-149.33 293,-140 293.91,-139.38 294.83,-138.75 295.77,-138.11"/>
<polygon fill="black" stroke="black" points="298,-140.82 304.25,-132.26 294.03,-135.06 298,-140.82"/>
<g id="a_edge3&#45;headlabel"><a xlink:href="dir_000023_000145.html" target="_top" xlink:title="5">
<text text-anchor="middle" x="296.65" y="-142.7" font-family="Helvetica,sans-Serif" font-size="10.00">5</text>
</a>
</g>
</g>
<!-- dir_89df9e680e731fa320b73b2271bfeca6 -->
<g id="node5" class="node">
<title>dir_89df9e680e731fa320b73b2271bfeca6</title>
<g id="a_node5"><a xlink:href="dir_89df9e680e731fa320b73b2271bfeca6.html" target="_top" xlink:title="quantitative_finance">
<polygon fill="white" stroke="red" points="284,-132 168,-132 168,-96 284,-96 284,-132"/>
<text text-anchor="middle" x="226" y="-111.5" font-family="Helvetica,sans-Serif" font-size="10.00">quantitative_finance</text>
</a>
</g>
</g>
<!-- dir_372190bba8e51f711404a4d20d8d4609&#45;&gt;dir_89df9e680e731fa320b73b2271bfeca6 -->
<g id="edge2" class="edge">
<title>dir_372190bba8e51f711404a4d20d8d4609&#45;&gt;dir_89df9e680e731fa320b73b2271bfeca6</title>
<path fill="none" stroke="black" d="M226,-167.7C226,-159.98 226,-150.71 226,-142.11"/>
<polygon fill="black" stroke="black" points="229.5,-142.1 226,-132.1 222.5,-142.1 229.5,-142.1"/>
<g id="a_edge2&#45;headlabel"><a xlink:href="dir_000023_000154.html" target="_top" xlink:title="2">
<text text-anchor="middle" x="232.34" y="-143.2" font-family="Helvetica,sans-Serif" font-size="10.00">2</text>
</a>
</g>
</g>
<!-- dir_6b20162fd5645267b8cad5d26dd6919f -->
<g id="node7" class="node">
<title>dir_6b20162fd5645267b8cad5d26dd6919f</title>
<g id="a_node7"><a xlink:href="dir_6b20162fd5645267b8cad5d26dd6919f.html" target="_top" xlink:title="vision">
<polygon fill="white" stroke="red" points="78,-132 24,-132 24,-96 78,-96 78,-132"/>
<text text-anchor="middle" x="51" y="-111.5" font-family="Helvetica,sans-Serif" font-size="10.00">vision</text>
</a>
</g>
</g>
<!-- dir_372190bba8e51f711404a4d20d8d4609&#45;&gt;dir_6b20162fd5645267b8cad5d26dd6919f -->
<g id="edge1" class="edge">
<title>dir_372190bba8e51f711404a4d20d8d4609&#45;&gt;dir_6b20162fd5645267b8cad5d26dd6919f</title>
<path fill="none" stroke="black" d="M198.97,-176.93C171.95,-169.44 130.09,-156.89 96,-140 92.91,-138.47 89.78,-136.69 86.68,-134.81"/>
<polygon fill="black" stroke="black" points="88.36,-131.73 78.05,-129.33 84.61,-137.64 88.36,-131.73"/>
<g id="a_edge1&#45;headlabel"><a xlink:href="dir_000023_000159.html" target="_top" xlink:title="10">
<text text-anchor="middle" x="92.92" y="-128.77" font-family="Helvetica,sans-Serif" font-size="10.00">10</text>
</a>
</g>
</g>
<!-- dir_23f0d356d1035ca2b48ed060bc32e928 -->
<g id="node2" class="node">
<title>dir_23f0d356d1035ca2b48ed060bc32e928</title>
<text text-anchor="middle" x="401" y="-111.5" font-family="Helvetica,sans-Serif" font-size="10.00">HOST</text>
</g>
<!-- dir_2d1a2d04cdc9c8c736428abde8ada78b -->
<g id="node3" class="node">
<title>dir_2d1a2d04cdc9c8c736428abde8ada78b</title>
<g id="a_node3"><a xlink:href="dir_2d1a2d04cdc9c8c736428abde8ada78b.html" target="_top" xlink:title="common">
<polygon fill="white" stroke="red" points="83.5,-60 24.5,-60 24.5,-24 83.5,-24 83.5,-60"/>
<text text-anchor="middle" x="54" y="-39.5" font-family="Helvetica,sans-Serif" font-size="10.00">common</text>
</a>
</g>
</g>
<!-- dir_694ea184b58d23db6fadc3bc2845596e -->
<g id="node6" class="node">
<title>dir_694ea184b58d23db6fadc3bc2845596e</title>
<g id="a_node6"><a xlink:href="dir_694ea184b58d23db6fadc3bc2845596e.html" target="_top" xlink:title="trieres">
<polygon fill="white" stroke="black" points="150,-132 96,-132 96,-96 150,-96 150,-132"/>
<text text-anchor="middle" x="123" y="-111.5" font-family="Helvetica,sans-Serif" font-size="10.00">trieres</text>
</a>
</g>
</g>
<!-- dir_6b20162fd5645267b8cad5d26dd6919f&#45;&gt;dir_372190bba8e51f711404a4d20d8d4609 -->
<g id="edge5" class="edge">
<title>dir_6b20162fd5645267b8cad5d26dd6919f&#45;&gt;dir_372190bba8e51f711404a4d20d8d4609</title>
<path fill="none" stroke="black" d="M64.77,-132.19C68.93,-135.03 73.5,-137.77 78,-140 113.73,-157.71 158.01,-170.64 188.93,-177.98"/>
<polygon fill="black" stroke="black" points="188.35,-181.44 198.88,-180.25 189.91,-174.61 188.35,-181.44"/>
<g id="a_edge5&#45;headlabel"><a xlink:href="dir_000159_000023.html" target="_top" xlink:title="4">
<text text-anchor="middle" x="184.21" y="-180.9" font-family="Helvetica,sans-Serif" font-size="10.00">4</text>
</a>
</g>
</g>
<!-- dir_6b20162fd5645267b8cad5d26dd6919f&#45;&gt;dir_2d1a2d04cdc9c8c736428abde8ada78b -->
<g id="edge4" class="edge">
<title>dir_6b20162fd5645267b8cad5d26dd6919f&#45;&gt;dir_2d1a2d04cdc9c8c736428abde8ada78b</title>
<path fill="none" stroke="black" d="M51.74,-95.7C52.07,-87.98 52.47,-78.71 52.84,-70.11"/>
<polygon fill="black" stroke="black" points="56.34,-70.25 53.27,-60.1 49.34,-69.95 56.34,-70.25"/>
<g id="a_edge4&#45;headlabel"><a xlink:href="dir_000159_000140.html" target="_top" xlink:title="4">
<text text-anchor="middle" x="59.02" y="-71.46" font-family="Helvetica,sans-Serif" font-size="10.00">4</text>
</a>
</g>
</g>
</g>
</svg>
