<?xml version="1.0" encoding="UTF-8" standalone="no"?>
<!DOCTYPE svg PUBLIC "-//W3C//DTD SVG 1.1//EN"
 "http://www.w3.org/Graphics/SVG/1.1/DTD/svg11.dtd">
<!-- Generated by graphviz version 2.43.0 (0)
 -->
<!-- Title: repos_for_Dox/cFp_Zoo/HOST/vision/median_blur/languages Pages: 1 -->
<svg width="276pt" height="159pt"
 viewBox="0.00 0.00 276.00 159.00" xmlns="http://www.w3.org/2000/svg" xmlns:xlink="http://www.w3.org/1999/xlink">
<g id="graph0" class="graph" transform="scale(1 1) rotate(0) translate(4 155)">
<title>repos_for_Dox/cFp_Zoo/HOST/vision/median_blur/languages</title>
<g id="clust1" class="cluster">
<title>clusterdir_2501e3ec97524c884edd893780052381</title>
<g id="a_clust1"><a xlink:href="dir_2501e3ec97524c884edd893780052381.html" target="_top" xlink:title="median_blur">
<polygon fill="#ddddee" stroke="black" points="8,-56 8,-143 260,-143 260,-56 8,-56"/>
<text text-anchor="middle" x="134" y="-131" font-family="Helvetica,sans-Serif" font-size="10.00">median_blur</text>
</a>
</g>
</g>
<g id="clust2" class="cluster">
<title>clusterdir_5f779b96cd4004d755022ffa814d4b98</title>
<g id="a_clust2"><a xlink:href="dir_5f779b96cd4004d755022ffa814d4b98.html" target="_top">
<polygon fill="#eeeeff" stroke="black" points="16,-64 16,-116 252,-116 252,-64 16,-64"/>
</a>
</g>
</g>
<!-- dir_5f779b96cd4004d755022ffa814d4b98 -->
<g id="node1" class="node">
<title>dir_5f779b96cd4004d755022ffa814d4b98</title>
<text text-anchor="middle" x="210" y="-87.5" font-family="Helvetica,sans-Serif" font-size="10.00">languages</text>
</g>
<!-- dir_8e4a14b6a537922633659793142641b0 -->
<g id="node2" class="node">
<title>dir_8e4a14b6a537922633659793142641b0</title>
<g id="a_node2"><a xlink:href="dir_8e4a14b6a537922633659793142641b0.html" target="_top" xlink:title="cplusplus">
<polygon fill="white" stroke="red" points="158,-108 96,-108 96,-72 158,-72 158,-108"/>
<text text-anchor="middle" x="127" y="-87.5" font-family="Helvetica,sans-Serif" font-size="10.00">cplusplus</text>
</a>
</g>
</g>
<!-- dir_2d1a2d04cdc9c8c736428abde8ada78b -->
<g id="node4" class="node">
<title>dir_2d1a2d04cdc9c8c736428abde8ada78b</title>
<g id="a_node4"><a xlink:href="dir_2d1a2d04cdc9c8c736428abde8ada78b.html" target="_top" xlink:title="common">
<polygon fill="none" stroke="red" points="119.5,-36 60.5,-36 60.5,0 119.5,0 119.5,-36"/>
<text text-anchor="middle" x="90" y="-15.5" font-family="Helvetica,sans-Serif" font-size="10.00">common</text>
</a>
</g>
</g>
<!-- dir_8e4a14b6a537922633659793142641b0&#45;&gt;dir_2d1a2d04cdc9c8c736428abde8ada78b -->
<g id="edge1" class="edge">
<title>dir_8e4a14b6a537922633659793142641b0&#45;&gt;dir_2d1a2d04cdc9c8c736428abde8ada78b</title>
<path fill="none" stroke="black" d="M117.85,-71.7C113.6,-63.64 108.44,-53.89 103.73,-44.98"/>
<polygon fill="black" stroke="black" points="106.81,-43.31 99.04,-36.1 100.62,-46.58 106.81,-43.31"/>
<g id="a_edge1&#45;headlabel"><a xlink:href="dir_000167_000140.html" target="_top" xlink:title="2">
<text text-anchor="middle" x="111" y="-42.66" font-family="Helvetica,sans-Serif" font-size="10.00">2</text>
</a>
</g>
</g>
<!-- dir_372190bba8e51f711404a4d20d8d4609 -->
<g id="node5" class="node">
<title>dir_372190bba8e51f711404a4d20d8d4609</title>
<g id="a_node5"><a xlink:href="dir_372190bba8e51f711404a4d20d8d4609.html" target="_top" xlink:title="ROLE">
<polygon fill="none" stroke="red" points="192,-36 138,-36 138,0 192,0 192,-36"/>
<text text-anchor="middle" x="165" y="-15.5" font-family="Helvetica,sans-Serif" font-size="10.00">ROLE</text>
</a>
</g>
</g>
<!-- dir_8e4a14b6a537922633659793142641b0&#45;&gt;dir_372190bba8e51f711404a4d20d8d4609 -->
<g id="edge2" class="edge">
<title>dir_8e4a14b6a537922633659793142641b0&#45;&gt;dir_372190bba8e51f711404a4d20d8d4609</title>
<path fill="none" stroke="black" d="M130.48,-71.7C134.06,-63.56 139.21,-53.69 144.51,-44.7"/>
<polygon fill="black" stroke="black" points="147.55,-46.45 149.82,-36.1 141.59,-42.78 147.55,-46.45"/>
<g id="a_edge2&#45;headlabel"><a xlink:href="dir_000167_000023.html" target="_top" xlink:title="1">
<text text-anchor="middle" x="148.07" y="-48.5" font-family="Helvetica,sans-Serif" font-size="10.00">1</text>
</a>
</g>
</g>
<!-- dir_93faa741bae07ffe951aaf1ca0c9078b -->
<g id="node3" class="node">
<title>dir_93faa741bae07ffe951aaf1ca0c9078b</title>
<g id="a_node3"><a xlink:href="dir_93faa741bae07ffe951aaf1ca0c9078b.html" target="_top" xlink:title="python">
<polygon fill="white" stroke="red" points="78,-108 24,-108 24,-72 78,-72 78,-108"/>
<text text-anchor="middle" x="51" y="-87.5" font-family="Helvetica,sans-Serif" font-size="10.00">python</text>
</a>
</g>
</g>
<!-- dir_372190bba8e51f711404a4d20d8d4609&#45;&gt;dir_8e4a14b6a537922633659793142641b0 -->
<g id="edge3" class="edge">
<title>dir_372190bba8e51f711404a4d20d8d4609&#45;&gt;dir_8e4a14b6a537922633659793142641b0</title>
<path fill="none" stroke="black" d="M161.61,-36.1C158.06,-44.21 152.92,-54.08 147.62,-63.08"/>
<polygon fill="black" stroke="black" points="144.57,-61.35 142.31,-71.7 150.53,-65.02 144.57,-61.35"/>
<g id="a_edge3&#45;headlabel"><a xlink:href="dir_000023_000167.html" target="_top" xlink:title="1">
<text text-anchor="middle" x="144.04" y="-54.3" font-family="Helvetica,sans-Serif" font-size="10.00">1</text>
</a>
</g>
</g>
</g>
</svg>
