<?xml version="1.0" encoding="UTF-8" standalone="no"?>
<!DOCTYPE svg PUBLIC "-//W3C//DTD SVG 1.1//EN"
 "http://www.w3.org/Graphics/SVG/1.1/DTD/svg11.dtd">
<!-- Generated by graphviz version 2.43.0 (0)
 -->
<!-- Title: repos_for_Dox/cFp_Zoo/ROLE Pages: 1 -->
<svg width="442pt" height="175pt"
 viewBox="0.00 0.00 442.00 175.00" xmlns="http://www.w3.org/2000/svg" xmlns:xlink="http://www.w3.org/1999/xlink">
<g id="graph0" class="graph" transform="scale(1 1) rotate(0) translate(4 171)">
<title>repos_for_Dox/cFp_Zoo/ROLE</title>
<g id="clust1" class="cluster">
<title>clusterdir_5d142b4fa6d7f5d9409cd75f2ef7494f</title>
<g id="a_clust1"><a xlink:href="dir_5d142b4fa6d7f5d9409cd75f2ef7494f.html" target="_top" xlink:title="cFp_Zoo">
<polygon fill="#ddddee" stroke="black" points="8,-8 8,-159 372,-159 372,-8 8,-8"/>
<text text-anchor="middle" x="190" y="-147" font-family="Helvetica,sans-Serif" font-size="10.00">cFp_Zoo</text>
</a>
</g>
</g>
<g id="clust2" class="cluster">
<title>clusterdir_372190bba8e51f711404a4d20d8d4609</title>
<g id="a_clust2"><a xlink:href="dir_372190bba8e51f711404a4d20d8d4609.html" target="_top">
<polygon fill="#eeeeff" stroke="black" points="16,-80 16,-132 364,-132 364,-80 16,-80"/>
</a>
</g>
</g>
<!-- dir_23f0d356d1035ca2b48ed060bc32e928 -->
<g id="node1" class="node">
<title>dir_23f0d356d1035ca2b48ed060bc32e928</title>
<g id="a_node1"><a xlink:href="dir_23f0d356d1035ca2b48ed060bc32e928.html" target="_top" xlink:title="HOST">
<polygon fill="none" stroke="red" points="150,-52 96,-52 96,-16 150,-16 150,-52"/>
<text text-anchor="middle" x="123" y="-31.5" font-family="Helvetica,sans-Serif" font-size="10.00">HOST</text>
</a>
</g>
</g>
<!-- dir_ee6479532af8167eb445cc0ce00ea327 -->
<g id="node5" class="node">
<title>dir_ee6479532af8167eb445cc0ce00ea327</title>
<g id="a_node5"><a xlink:href="dir_ee6479532af8167eb445cc0ce00ea327.html" target="_top" xlink:title="vision">
<polygon fill="white" stroke="red" points="150,-124 96,-124 96,-88 150,-88 150,-124"/>
<text text-anchor="middle" x="123" y="-103.5" font-family="Helvetica,sans-Serif" font-size="10.00">vision</text>
</a>
</g>
</g>
<!-- dir_23f0d356d1035ca2b48ed060bc32e928&#45;&gt;dir_ee6479532af8167eb445cc0ce00ea327 -->
<g id="edge7" class="edge">
<title>dir_23f0d356d1035ca2b48ed060bc32e928&#45;&gt;dir_ee6479532af8167eb445cc0ce00ea327</title>
<path fill="none" stroke="black" d="M128.9,-52.1C129.7,-59.79 129.94,-69.05 129.6,-77.67"/>
<polygon fill="black" stroke="black" points="126.11,-77.48 128.92,-87.7 133.09,-77.96 126.11,-77.48"/>
<g id="a_edge7&#45;headlabel"><a xlink:href="dir_000139_000028.html" target="_top" xlink:title="4">
<text text-anchor="middle" x="123.52" y="-71.2" font-family="Helvetica,sans-Serif" font-size="10.00">4</text>
</a>
</g>
</g>
<!-- dir_372190bba8e51f711404a4d20d8d4609 -->
<g id="node2" class="node">
<title>dir_372190bba8e51f711404a4d20d8d4609</title>
<text text-anchor="middle" x="329" y="-103.5" font-family="Helvetica,sans-Serif" font-size="10.00">ROLE</text>
</g>
<!-- dir_e9961d5b244581f114631536c420bc43 -->
<g id="node3" class="node">
<title>dir_e9961d5b244581f114631536c420bc43</title>
<g id="a_node3"><a xlink:href="dir_e9961d5b244581f114631536c420bc43.html" target="_top" xlink:title="custom">
<polygon fill="white" stroke="red" points="78,-124 24,-124 24,-88 78,-88 78,-124"/>
<text text-anchor="middle" x="51" y="-103.5" font-family="Helvetica,sans-Serif" font-size="10.00">custom</text>
</a>
</g>
</g>
<!-- dir_e9961d5b244581f114631536c420bc43&#45;&gt;dir_23f0d356d1035ca2b48ed060bc32e928 -->
<g id="edge2" class="edge">
<title>dir_e9961d5b244581f114631536c420bc43&#45;&gt;dir_23f0d356d1035ca2b48ed060bc32e928</title>
<path fill="none" stroke="black" d="M68.8,-87.7C77.6,-79.14 88.38,-68.66 98,-59.3"/>
<polygon fill="black" stroke="black" points="100.68,-61.58 105.41,-52.1 95.8,-56.57 100.68,-61.58"/>
<g id="a_edge2&#45;headlabel"><a xlink:href="dir_000024_000139.html" target="_top" xlink:title="5">
<text text-anchor="middle" x="100.08" y="-63.63" font-family="Helvetica,sans-Serif" font-size="10.00">5</text>
</a>
</g>
</g>
<!-- dir_c763309d04da4bd0478ffd28b96eadab -->
<g id="node6" class="node">
<title>dir_c763309d04da4bd0478ffd28b96eadab</title>
<g id="a_node6"><a xlink:href="dir_c763309d04da4bd0478ffd28b96eadab.html" target="_top" xlink:title="cFDK">
<polygon fill="none" stroke="red" points="434,-52 380,-52 380,-16 434,-16 434,-52"/>
<text text-anchor="middle" x="407" y="-31.5" font-family="Helvetica,sans-Serif" font-size="10.00">cFDK</text>
</a>
</g>
</g>
<!-- dir_e9961d5b244581f114631536c420bc43&#45;&gt;dir_c763309d04da4bd0478ffd28b96eadab -->
<g id="edge1" class="edge">
<title>dir_e9961d5b244581f114631536c420bc43&#45;&gt;dir_c763309d04da4bd0478ffd28b96eadab</title>
<path fill="none" stroke="black" d="M72.09,-87.75C76.76,-84.69 81.86,-81.89 87,-80 204.95,-36.71 250.28,-87.22 369.99,-53.57"/>
<polygon fill="black" stroke="black" points="371.28,-56.84 379.88,-50.65 369.3,-50.12 371.28,-56.84"/>
<g id="a_edge1&#45;headlabel"><a xlink:href="dir_000024_000001.html" target="_top" xlink:title="5">
<text text-anchor="middle" x="368.64" y="-58.08" font-family="Helvetica,sans-Serif" font-size="10.00">5</text>
</a>
</g>
</g>
<!-- dir_72cfeb5079330990e0718e16db237d8c -->
<g id="node4" class="node">
<title>dir_72cfeb5079330990e0718e16db237d8c</title>
<g id="a_node4"><a xlink:href="dir_72cfeb5079330990e0718e16db237d8c.html" target="_top" xlink:title="quantitative_finance">
<polygon fill="white" stroke="red" points="284,-124 168,-124 168,-88 284,-88 284,-124"/>
<text text-anchor="middle" x="226" y="-103.5" font-family="Helvetica,sans-Serif" font-size="10.00">quantitative_finance</text>
</a>
</g>
</g>
<!-- dir_72cfeb5079330990e0718e16db237d8c&#45;&gt;dir_23f0d356d1035ca2b48ed060bc32e928 -->
<g id="edge5" class="edge">
<title>dir_72cfeb5079330990e0718e16db237d8c&#45;&gt;dir_23f0d356d1035ca2b48ed060bc32e928</title>
<path fill="none" stroke="black" d="M200.8,-87.88C187.59,-78.89 171.21,-67.76 156.89,-58.03"/>
<polygon fill="black" stroke="black" points="158.53,-54.92 148.29,-52.19 154.6,-60.71 158.53,-54.92"/>
<g id="a_edge5&#45;headlabel"><a xlink:href="dir_000026_000139.html" target="_top" xlink:title="2">
<text text-anchor="middle" x="163.1" y="-52.09" font-family="Helvetica,sans-Serif" font-size="10.00">2</text>
</a>
</g>
</g>
<!-- dir_72cfeb5079330990e0718e16db237d8c&#45;&gt;dir_c763309d04da4bd0478ffd28b96eadab -->
<g id="edge6" class="edge">
<title>dir_72cfeb5079330990e0718e16db237d8c&#45;&gt;dir_c763309d04da4bd0478ffd28b96eadab</title>
<path fill="none" stroke="black" d="M270.98,-87.99C278.32,-85.28 285.86,-82.53 293,-80 326.53,-68.09 338.32,-67.63 370.19,-54.38"/>
<polygon fill="black" stroke="black" points="371.93,-57.44 379.75,-50.28 369.18,-51.01 371.93,-57.44"/>
<g id="a_edge6&#45;headlabel"><a xlink:href="dir_000026_000001.html" target="_top" xlink:title="1">
<text text-anchor="middle" x="369.75" y="-58.97" font-family="Helvetica,sans-Serif" font-size="10.00">1</text>
</a>
</g>
</g>
<!-- dir_ee6479532af8167eb445cc0ce00ea327&#45;&gt;dir_23f0d356d1035ca2b48ed060bc32e928 -->
<g id="edge3" class="edge">
<title>dir_ee6479532af8167eb445cc0ce00ea327&#45;&gt;dir_23f0d356d1035ca2b48ed060bc32e928</title>
<path fill="none" stroke="black" d="M117.08,-87.7C116.29,-79.98 116.06,-70.71 116.4,-62.11"/>
<polygon fill="black" stroke="black" points="119.9,-62.32 117.1,-52.1 112.92,-61.84 119.9,-62.32"/>
<g id="a_edge3&#45;headlabel"><a xlink:href="dir_000028_000139.html" target="_top" xlink:title="10">
<text text-anchor="middle" x="122.48" y="-63.61" font-family="Helvetica,sans-Serif" font-size="10.00">10</text>
</a>
</g>
</g>
<!-- dir_ee6479532af8167eb445cc0ce00ea327&#45;&gt;dir_c763309d04da4bd0478ffd28b96eadab -->
<g id="edge4" class="edge">
<title>dir_ee6479532af8167eb445cc0ce00ea327&#45;&gt;dir_c763309d04da4bd0478ffd28b96eadab</title>
<path fill="none" stroke="black" d="M144.14,-87.87C148.8,-84.81 153.89,-81.97 159,-80 246.64,-46.24 281.16,-79.67 370.2,-53.59"/>
<polygon fill="black" stroke="black" points="371.35,-56.9 379.87,-50.6 369.28,-50.22 371.35,-56.9"/>
<g id="a_edge4&#45;headlabel"><a xlink:href="dir_000028_000001.html" target="_top" xlink:title="9">
<text text-anchor="middle" x="368.76" y="-58.18" font-family="Helvetica,sans-Serif" font-size="10.00">9</text>
</a>
</g>
</g>
</g>
</svg>
