<?xml version="1.0" encoding="UTF-8" standalone="no"?>
<!DOCTYPE svg PUBLIC "-//W3C//DTD SVG 1.1//EN"
 "http://www.w3.org/Graphics/SVG/1.1/DTD/svg11.dtd">
<!-- Generated by graphviz version 2.43.0 (0)
 -->
<!-- Title: repos_for_Dox/cFp_Zoo/ROLE/custom/hls/uppercase_start_stop Pages: 1 -->
<svg width="446pt" height="231pt"
 viewBox="0.00 0.00 446.00 231.00" xmlns="http://www.w3.org/2000/svg" xmlns:xlink="http://www.w3.org/1999/xlink">
<g id="graph0" class="graph" transform="scale(1 1) rotate(0) translate(4 227)">
<title>repos_for_Dox/cFp_Zoo/ROLE/custom/hls/uppercase_start_stop</title>
<g id="clust1" class="cluster">
<title>clusterdir_b78b1bb98bf307aa34f3c18c58e5015e</title>
<g id="a_clust1"><a xlink:href="dir_b78b1bb98bf307aa34f3c18c58e5015e.html" target="_top" xlink:title="hls">
<polygon fill="#ddddee" stroke="black" points="8,-56 8,-215 374,-215 374,-56 8,-56"/>
<text text-anchor="middle" x="191" y="-203" font-family="Helvetica,sans-Serif" font-size="10.00">hls</text>
</a>
</g>
</g>
<g id="clust2" class="cluster">
<title>clusterdir_24477ffb43c846e2b0b63125bdf7aed6</title>
<g id="a_clust2"><a xlink:href="dir_24477ffb43c846e2b0b63125bdf7aed6.html" target="_top">
<polygon fill="#eeeeff" stroke="black" points="16,-64 16,-188 298,-188 298,-64 16,-64"/>
</a>
</g>
</g>
<!-- dir_55f47020d71592f444d89e499c77159c -->
<g id="node1" class="node">
<title>dir_55f47020d71592f444d89e499c77159c</title>
<g id="a_node1"><a xlink:href="dir_55f47020d71592f444d89e499c77159c.html" target="_top" xlink:title="common">
<polygon fill="none" stroke="red" points="365.5,-108 306.5,-108 306.5,-72 365.5,-72 365.5,-108"/>
<text text-anchor="middle" x="336" y="-87.5" font-family="Helvetica,sans-Serif" font-size="10.00">common</text>
</a>
</g>
</g>
<!-- dir_24477ffb43c846e2b0b63125bdf7aed6 -->
<g id="node2" class="node">
<title>dir_24477ffb43c846e2b0b63125bdf7aed6</title>
<text text-anchor="middle" x="229" y="-159.5" font-family="Helvetica,sans-Serif" font-size="10.00">uppercase_start_stop</text>
</g>
<!-- dir_2bb4b0ebf3f8c0b52898b0061d51d3d2 -->
<g id="node3" class="node">
<title>dir_2bb4b0ebf3f8c0b52898b0061d51d3d2</title>
<g id="a_node3"><a xlink:href="dir_2bb4b0ebf3f8c0b52898b0061d51d3d2.html" target="_top" xlink:title="include">
<polygon fill="white" stroke="black" points="150,-108 96,-108 96,-72 150,-72 150,-108"/>
<text text-anchor="middle" x="123" y="-87.5" font-family="Helvetica,sans-Serif" font-size="10.00">include</text>
</a>
</g>
</g>
<!-- dir_c763309d04da4bd0478ffd28b96eadab -->
<g id="node7" class="node">
<title>dir_c763309d04da4bd0478ffd28b96eadab</title>
<g id="a_node7"><a xlink:href="dir_c763309d04da4bd0478ffd28b96eadab.html" target="_top" xlink:title="cFDK">
<polygon fill="none" stroke="red" points="150,-36 96,-36 96,0 150,0 150,-36"/>
<text text-anchor="middle" x="123" y="-15.5" font-family="Helvetica,sans-Serif" font-size="10.00">cFDK</text>
</a>
</g>
</g>
<!-- dir_2bb4b0ebf3f8c0b52898b0061d51d3d2&#45;&gt;dir_c763309d04da4bd0478ffd28b96eadab -->
<g id="edge2" class="edge">
<title>dir_2bb4b0ebf3f8c0b52898b0061d51d3d2&#45;&gt;dir_c763309d04da4bd0478ffd28b96eadab</title>
<path fill="none" stroke="black" d="M123,-71.7C123,-63.98 123,-54.71 123,-46.11"/>
<polygon fill="black" stroke="black" points="126.5,-46.1 123,-36.1 119.5,-46.1 126.5,-46.1"/>
<g id="a_edge2&#45;headlabel"><a xlink:href="dir_000226_000001.html" target="_top" xlink:title="1">
<text text-anchor="middle" x="129.34" y="-47.2" font-family="Helvetica,sans-Serif" font-size="10.00">1</text>
</a>
</g>
</g>
<!-- dir_c3a5c36963954c350ac3f8eaa825dc2b -->
<g id="node4" class="node">
<title>dir_c3a5c36963954c350ac3f8eaa825dc2b</title>
<g id="a_node4"><a xlink:href="dir_c3a5c36963954c350ac3f8eaa825dc2b.html" target="_top" xlink:title="src">
<polygon fill="white" stroke="black" points="150,-180 96,-180 96,-144 150,-144 150,-180"/>
<text text-anchor="middle" x="123" y="-159.5" font-family="Helvetica,sans-Serif" font-size="10.00">src</text>
</a>
</g>
</g>
<!-- dir_c3a5c36963954c350ac3f8eaa825dc2b&#45;&gt;dir_2bb4b0ebf3f8c0b52898b0061d51d3d2 -->
<g id="edge4" class="edge">
<title>dir_c3a5c36963954c350ac3f8eaa825dc2b&#45;&gt;dir_2bb4b0ebf3f8c0b52898b0061d51d3d2</title>
<path fill="none" stroke="black" d="M123,-143.7C123,-135.98 123,-126.71 123,-118.11"/>
<polygon fill="black" stroke="black" points="126.5,-118.1 123,-108.1 119.5,-118.1 126.5,-118.1"/>
<g id="a_edge4&#45;headlabel"><a xlink:href="dir_000228_000226.html" target="_top" xlink:title="1">
<text text-anchor="middle" x="129.34" y="-119.2" font-family="Helvetica,sans-Serif" font-size="10.00">1</text>
</a>
</g>
</g>
<!-- dir_23f0d356d1035ca2b48ed060bc32e928 -->
<g id="node6" class="node">
<title>dir_23f0d356d1035ca2b48ed060bc32e928</title>
<g id="a_node6"><a xlink:href="dir_23f0d356d1035ca2b48ed060bc32e928.html" target="_top" xlink:title="HOST">
<polygon fill="none" stroke="red" points="438,-108 384,-108 384,-72 438,-72 438,-108"/>
<text text-anchor="middle" x="411" y="-87.5" font-family="Helvetica,sans-Serif" font-size="10.00">HOST</text>
</a>
</g>
</g>
<!-- dir_c3a5c36963954c350ac3f8eaa825dc2b&#45;&gt;dir_23f0d356d1035ca2b48ed060bc32e928 -->
<g id="edge3" class="edge">
<title>dir_c3a5c36963954c350ac3f8eaa825dc2b&#45;&gt;dir_23f0d356d1035ca2b48ed060bc32e928</title>
<path fill="none" stroke="black" d="M150.16,-147.54C153.43,-146.21 156.76,-144.99 160,-144 250.78,-116.2 282.65,-137.35 374.26,-108.89"/>
<polygon fill="black" stroke="black" points="375.47,-112.18 383.91,-105.78 373.32,-105.52 375.47,-112.18"/>
<g id="a_edge3&#45;headlabel"><a xlink:href="dir_000228_000139.html" target="_top" xlink:title="1">
<text text-anchor="middle" x="372.92" y="-113.48" font-family="Helvetica,sans-Serif" font-size="10.00">1</text>
</a>
</g>
</g>
<!-- dir_4a3fb311d9a7c06fbec44d632d23ac99 -->
<g id="node5" class="node">
<title>dir_4a3fb311d9a7c06fbec44d632d23ac99</title>
<g id="a_node5"><a xlink:href="dir_4a3fb311d9a7c06fbec44d632d23ac99.html" target="_top" xlink:title="test">
<polygon fill="white" stroke="black" points="78,-180 24,-180 24,-144 78,-144 78,-180"/>
<text text-anchor="middle" x="51" y="-159.5" font-family="Helvetica,sans-Serif" font-size="10.00">test</text>
</a>
</g>
</g>
<!-- dir_4a3fb311d9a7c06fbec44d632d23ac99&#45;&gt;dir_55f47020d71592f444d89e499c77159c -->
<g id="edge1" class="edge">
<title>dir_4a3fb311d9a7c06fbec44d632d23ac99&#45;&gt;dir_55f47020d71592f444d89e499c77159c</title>
<path fill="none" stroke="black" d="M78.2,-147.2C81.13,-146.01 84.1,-144.91 87,-144 176.3,-116.03 207.72,-136.49 296.52,-109.56"/>
<polygon fill="black" stroke="black" points="297.69,-112.86 306.17,-106.52 295.58,-106.19 297.69,-112.86"/>
<g id="a_edge1&#45;headlabel"><a xlink:href="dir_000230_000179.html" target="_top" xlink:title="1">
<text text-anchor="middle" x="295.11" y="-114.15" font-family="Helvetica,sans-Serif" font-size="10.00">1</text>
</a>
</g>
</g>
</g>
</svg>
