<?xml version="1.0" encoding="UTF-8" standalone="no"?>
<!DOCTYPE svg PUBLIC "-//W3C//DTD SVG 1.1//EN"
 "http://www.w3.org/Graphics/SVG/1.1/DTD/svg11.dtd">
<!-- Generated by graphviz version 2.43.0 (0)
 -->
<!-- Title: repos_for_Dox/cFp_Zoo/ROLE/vision/hls/sobel Pages: 1 -->
<svg width="322pt" height="231pt"
 viewBox="0.00 0.00 322.00 231.00" xmlns="http://www.w3.org/2000/svg" xmlns:xlink="http://www.w3.org/1999/xlink">
<g id="graph0" class="graph" transform="scale(1 1) rotate(0) translate(4 227)">
<title>repos_for_Dox/cFp_Zoo/ROLE/vision/hls/sobel</title>
<g id="clust1" class="cluster">
<title>clusterdir_8fcfd4d6b137402926035128293c4399</title>
<g id="a_clust1"><a xlink:href="dir_8fcfd4d6b137402926035128293c4399.html" target="_top" xlink:title="hls">
<polygon fill="#ddddee" stroke="black" points="8,-56 8,-215 306,-215 306,-56 8,-56"/>
<text text-anchor="middle" x="157" y="-203" font-family="Helvetica,sans-Serif" font-size="10.00">hls</text>
</a>
</g>
</g>
<g id="clust2" class="cluster">
<title>clusterdir_609992001d61fa8e39165c5f40b74f41</title>
<g id="a_clust2"><a xlink:href="dir_609992001d61fa8e39165c5f40b74f41.html" target="_top">
<polygon fill="#eeeeff" stroke="black" points="16,-64 16,-188 230,-188 230,-64 16,-64"/>
</a>
</g>
</g>
<!-- dir_177b9ba96c5dcf245c339ecf570fbf7e -->
<g id="node1" class="node">
<title>dir_177b9ba96c5dcf245c339ecf570fbf7e</title>
<g id="a_node1"><a xlink:href="dir_177b9ba96c5dcf245c339ecf570fbf7e.html" target="_top" xlink:title="common">
<polygon fill="none" stroke="red" points="297.5,-108 238.5,-108 238.5,-72 297.5,-72 297.5,-108"/>
<text text-anchor="middle" x="268" y="-87.5" font-family="Helvetica,sans-Serif" font-size="10.00">common</text>
</a>
</g>
</g>
<!-- dir_609992001d61fa8e39165c5f40b74f41 -->
<g id="node2" class="node">
<title>dir_609992001d61fa8e39165c5f40b74f41</title>
<text text-anchor="middle" x="195" y="-159.5" font-family="Helvetica,sans-Serif" font-size="10.00">sobel</text>
</g>
<!-- dir_684c7221f943e49bf43ad47f6004fe75 -->
<g id="node3" class="node">
<title>dir_684c7221f943e49bf43ad47f6004fe75</title>
<g id="a_node3"><a xlink:href="dir_684c7221f943e49bf43ad47f6004fe75.html" target="_top" xlink:title="include">
<polygon fill="white" stroke="black" points="114,-108 60,-108 60,-72 114,-72 114,-108"/>
<text text-anchor="middle" x="87" y="-87.5" font-family="Helvetica,sans-Serif" font-size="10.00">include</text>
</a>
</g>
</g>
<!-- dir_23f0d356d1035ca2b48ed060bc32e928 -->
<g id="node6" class="node">
<title>dir_23f0d356d1035ca2b48ed060bc32e928</title>
<g id="a_node6"><a xlink:href="dir_23f0d356d1035ca2b48ed060bc32e928.html" target="_top" xlink:title="HOST">
<polygon fill="none" stroke="red" points="78,-36 24,-36 24,0 78,0 78,-36"/>
<text text-anchor="middle" x="51" y="-15.5" font-family="Helvetica,sans-Serif" font-size="10.00">HOST</text>
</a>
</g>
</g>
<!-- dir_684c7221f943e49bf43ad47f6004fe75&#45;&gt;dir_23f0d356d1035ca2b48ed060bc32e928 -->
<g id="edge1" class="edge">
<title>dir_684c7221f943e49bf43ad47f6004fe75&#45;&gt;dir_23f0d356d1035ca2b48ed060bc32e928</title>
<path fill="none" stroke="black" d="M78.1,-71.7C74,-63.73 69.05,-54.1 64.51,-45.26"/>
<polygon fill="black" stroke="black" points="67.48,-43.4 59.8,-36.1 61.26,-46.6 67.48,-43.4"/>
<g id="a_edge1&#45;headlabel"><a xlink:href="dir_000242_000139.html" target="_top" xlink:title="3">
<text text-anchor="middle" x="71.65" y="-42.79" font-family="Helvetica,sans-Serif" font-size="10.00">3</text>
</a>
</g>
</g>
<!-- dir_c763309d04da4bd0478ffd28b96eadab -->
<g id="node7" class="node">
<title>dir_c763309d04da4bd0478ffd28b96eadab</title>
<g id="a_node7"><a xlink:href="dir_c763309d04da4bd0478ffd28b96eadab.html" target="_top" xlink:title="cFDK">
<polygon fill="none" stroke="red" points="150,-36 96,-36 96,0 150,0 150,-36"/>
<text text-anchor="middle" x="123" y="-15.5" font-family="Helvetica,sans-Serif" font-size="10.00">cFDK</text>
</a>
</g>
</g>
<!-- dir_684c7221f943e49bf43ad47f6004fe75&#45;&gt;dir_c763309d04da4bd0478ffd28b96eadab -->
<g id="edge2" class="edge">
<title>dir_684c7221f943e49bf43ad47f6004fe75&#45;&gt;dir_c763309d04da4bd0478ffd28b96eadab</title>
<path fill="none" stroke="black" d="M95.9,-71.7C100,-63.73 104.95,-54.1 109.49,-45.26"/>
<polygon fill="black" stroke="black" points="112.74,-46.6 114.2,-36.1 106.52,-43.4 112.74,-46.6"/>
<g id="a_edge2&#45;headlabel"><a xlink:href="dir_000242_000001.html" target="_top" xlink:title="3">
<text text-anchor="middle" x="113.62" y="-48.59" font-family="Helvetica,sans-Serif" font-size="10.00">3</text>
</a>
</g>
</g>
<!-- dir_18ff3603a6cf25f9bf155ddb934aa8c2 -->
<g id="node4" class="node">
<title>dir_18ff3603a6cf25f9bf155ddb934aa8c2</title>
<g id="a_node4"><a xlink:href="dir_18ff3603a6cf25f9bf155ddb934aa8c2.html" target="_top" xlink:title="src">
<polygon fill="white" stroke="black" points="78,-180 24,-180 24,-144 78,-144 78,-180"/>
<text text-anchor="middle" x="51" y="-159.5" font-family="Helvetica,sans-Serif" font-size="10.00">src</text>
</a>
</g>
</g>
<!-- dir_18ff3603a6cf25f9bf155ddb934aa8c2&#45;&gt;dir_684c7221f943e49bf43ad47f6004fe75 -->
<g id="edge3" class="edge">
<title>dir_18ff3603a6cf25f9bf155ddb934aa8c2&#45;&gt;dir_684c7221f943e49bf43ad47f6004fe75</title>
<path fill="none" stroke="black" d="M59.9,-143.7C64,-135.73 68.95,-126.1 73.49,-117.26"/>
<polygon fill="black" stroke="black" points="76.74,-118.6 78.2,-108.1 70.52,-115.4 76.74,-118.6"/>
<g id="a_edge3&#45;headlabel"><a xlink:href="dir_000263_000242.html" target="_top" xlink:title="6">
<text text-anchor="middle" x="77.62" y="-120.59" font-family="Helvetica,sans-Serif" font-size="10.00">6</text>
</a>
</g>
</g>
<!-- dir_ccdda800db7eecaee520186bc41231af -->
<g id="node5" class="node">
<title>dir_ccdda800db7eecaee520186bc41231af</title>
<g id="a_node5"><a xlink:href="dir_ccdda800db7eecaee520186bc41231af.html" target="_top" xlink:title="test">
<polygon fill="white" stroke="black" points="150,-180 96,-180 96,-144 150,-144 150,-180"/>
<text text-anchor="middle" x="123" y="-159.5" font-family="Helvetica,sans-Serif" font-size="10.00">test</text>
</a>
</g>
</g>
<!-- dir_ccdda800db7eecaee520186bc41231af&#45;&gt;dir_177b9ba96c5dcf245c339ecf570fbf7e -->
<g id="edge4" class="edge">
<title>dir_ccdda800db7eecaee520186bc41231af&#45;&gt;dir_177b9ba96c5dcf245c339ecf570fbf7e</title>
<path fill="none" stroke="black" d="M150.44,-148.07C170.83,-138.42 199.57,-124.75 229.15,-110.35"/>
<polygon fill="black" stroke="black" points="230.89,-113.4 238.35,-105.87 227.82,-107.1 230.89,-113.4"/>
<g id="a_edge4&#45;headlabel"><a xlink:href="dir_000264_000185.html" target="_top" xlink:title="1">
<text text-anchor="middle" x="228.91" y="-115.02" font-family="Helvetica,sans-Serif" font-size="10.00">1</text>
</a>
</g>
</g>
<!-- dir_ccdda800db7eecaee520186bc41231af&#45;&gt;dir_684c7221f943e49bf43ad47f6004fe75 -->
<g id="edge5" class="edge">
<title>dir_ccdda800db7eecaee520186bc41231af&#45;&gt;dir_684c7221f943e49bf43ad47f6004fe75</title>
<path fill="none" stroke="black" d="M114.1,-143.7C110,-135.73 105.05,-126.1 100.51,-117.26"/>
<polygon fill="black" stroke="black" points="103.48,-115.4 95.8,-108.1 97.26,-118.6 103.48,-115.4"/>
<g id="a_edge5&#45;headlabel"><a xlink:href="dir_000264_000242.html" target="_top" xlink:title="1">
<text text-anchor="middle" x="107.65" y="-114.79" font-family="Helvetica,sans-Serif" font-size="10.00">1</text>
</a>
</g>
</g>
</g>
</svg>
