<?xml version="1.0" encoding="UTF-8" standalone="no"?>
<!DOCTYPE svg PUBLIC "-//W3C//DTD SVG 1.1//EN"
 "http://www.w3.org/Graphics/SVG/1.1/DTD/svg11.dtd">
<!-- Generated by graphviz version 2.43.0 (0)
 -->
<!-- Title: repos_for_Dox/cFDK/SRA/LIB/SHELL/LIB/hls/NTS Pages: 1 -->
<svg width="758pt" height="175pt"
 viewBox="0.00 0.00 758.00 175.00" xmlns="http://www.w3.org/2000/svg" xmlns:xlink="http://www.w3.org/1999/xlink">
<g id="graph0" class="graph" transform="scale(1 1) rotate(0) translate(4 171)">
<title>repos_for_Dox/cFDK/SRA/LIB/SHELL/LIB/hls/NTS</title>
<g id="clust1" class="cluster">
<title>clusterdir_c9f44e6f37e5344419a1b0905b1abe12</title>
<g id="a_clust1"><a xlink:href="dir_c9f44e6f37e5344419a1b0905b1abe12.html" target="_top" xlink:title="hls">
<polygon fill="#ddddee" stroke="black" points="8,-8 8,-159 742,-159 742,-8 8,-8"/>
<text text-anchor="middle" x="375" y="-147" font-family="Helvetica,sans-Serif" font-size="10.00">hls</text>
</a>
</g>
</g>
<g id="clust2" class="cluster">
<title>clusterdir_e1e3d4eb93665cb4c1f6dd435b964e48</title>
<g id="a_clust2"><a xlink:href="dir_e1e3d4eb93665cb4c1f6dd435b964e48.html" target="_top">
<polygon fill="#eeeeff" stroke="black" points="16,-80 16,-132 734,-132 734,-80 16,-80"/>
</a>
</g>
</g>
<!-- dir_c48448b1323fa63ca2ff2f2dc1244114 -->
<g id="node1" class="node">
<title>dir_c48448b1323fa63ca2ff2f2dc1244114</title>
<g id="a_node1"><a xlink:href="dir_c48448b1323fa63ca2ff2f2dc1244114.html" target="_top" xlink:title="MEM">
<polygon fill="none" stroke="black" points="222,-52 168,-52 168,-16 222,-16 222,-52"/>
<text text-anchor="middle" x="195" y="-31.5" font-family="Helvetica,sans-Serif" font-size="10.00">MEM</text>
</a>
</g>
</g>
<!-- dir_e1e3d4eb93665cb4c1f6dd435b964e48 -->
<g id="node2" class="node">
<title>dir_e1e3d4eb93665cb4c1f6dd435b964e48</title>
<text text-anchor="middle" x="699" y="-103.5" font-family="Helvetica,sans-Serif" font-size="10.00">NTS</text>
</g>
<!-- dir_467a1cfc3d2f2aaaee1de88580cc699a -->
<g id="node3" class="node">
<title>dir_467a1cfc3d2f2aaaee1de88580cc699a</title>
<g id="a_node3"><a xlink:href="dir_467a1cfc3d2f2aaaee1de88580cc699a.html" target="_top" xlink:title="arp">
<polygon fill="white" stroke="red" points="654,-124 600,-124 600,-88 654,-88 654,-124"/>
<text text-anchor="middle" x="627" y="-103.5" font-family="Helvetica,sans-Serif" font-size="10.00">arp</text>
</a>
</g>
</g>
<!-- dir_987d5bd7611760ff144ab99f9549b1ac -->
<g id="node4" class="node">
<title>dir_987d5bd7611760ff144ab99f9549b1ac</title>
<g id="a_node4"><a xlink:href="dir_987d5bd7611760ff144ab99f9549b1ac.html" target="_top" xlink:title="icmp">
<polygon fill="white" stroke="red" points="582,-124 528,-124 528,-88 582,-88 582,-124"/>
<text text-anchor="middle" x="555" y="-103.5" font-family="Helvetica,sans-Serif" font-size="10.00">icmp</text>
</a>
</g>
</g>
<!-- dir_af2ed6b5a91192e79b44901b85907ff2 -->
<g id="node5" class="node">
<title>dir_af2ed6b5a91192e79b44901b85907ff2</title>
<g id="a_node5"><a xlink:href="dir_af2ed6b5a91192e79b44901b85907ff2.html" target="_top" xlink:title="iprx">
<polygon fill="white" stroke="red" points="510,-124 456,-124 456,-88 510,-88 510,-124"/>
<text text-anchor="middle" x="483" y="-103.5" font-family="Helvetica,sans-Serif" font-size="10.00">iprx</text>
</a>
</g>
</g>
<!-- dir_bd02a6b8b0513d676d1b891a3ee3104d -->
<g id="node6" class="node">
<title>dir_bd02a6b8b0513d676d1b891a3ee3104d</title>
<g id="a_node6"><a xlink:href="dir_bd02a6b8b0513d676d1b891a3ee3104d.html" target="_top" xlink:title="iptx">
<polygon fill="white" stroke="red" points="438,-124 384,-124 384,-88 438,-88 438,-124"/>
<text text-anchor="middle" x="411" y="-103.5" font-family="Helvetica,sans-Serif" font-size="10.00">iptx</text>
</a>
</g>
</g>
<!-- dir_65a61876913afcc52691b4dfc1b52e41 -->
<g id="node7" class="node">
<title>dir_65a61876913afcc52691b4dfc1b52e41</title>
<g id="a_node7"><a xlink:href="dir_65a61876913afcc52691b4dfc1b52e41.html" target="_top" xlink:title="legacy">
<polygon fill="white" stroke="red" points="366,-124 312,-124 312,-88 366,-88 366,-124"/>
<text text-anchor="middle" x="339" y="-103.5" font-family="Helvetica,sans-Serif" font-size="10.00">legacy</text>
</a>
</g>
</g>
<!-- dir_98011012e2fdcd36087064bb82778132 -->
<g id="node8" class="node">
<title>dir_98011012e2fdcd36087064bb82778132</title>
<g id="a_node8"><a xlink:href="dir_98011012e2fdcd36087064bb82778132.html" target="_top" xlink:title="rlb">
<polygon fill="white" stroke="red" points="294,-124 240,-124 240,-88 294,-88 294,-124"/>
<text text-anchor="middle" x="267" y="-103.5" font-family="Helvetica,sans-Serif" font-size="10.00">rlb</text>
</a>
</g>
</g>
<!-- dir_bc171a66545a8cacbe465f34fb943ebf -->
<g id="node9" class="node">
<title>dir_bc171a66545a8cacbe465f34fb943ebf</title>
<g id="a_node9"><a xlink:href="dir_bc171a66545a8cacbe465f34fb943ebf.html" target="_top" xlink:title="toe">
<polygon fill="white" stroke="red" points="222,-124 168,-124 168,-88 222,-88 222,-124"/>
<text text-anchor="middle" x="195" y="-103.5" font-family="Helvetica,sans-Serif" font-size="10.00">toe</text>
</a>
</g>
</g>
<!-- dir_bc171a66545a8cacbe465f34fb943ebf&#45;&gt;dir_c48448b1323fa63ca2ff2f2dc1244114 -->
<g id="edge1" class="edge">
<title>dir_bc171a66545a8cacbe465f34fb943ebf&#45;&gt;dir_c48448b1323fa63ca2ff2f2dc1244114</title>
<path fill="none" stroke="black" d="M195,-87.7C195,-79.98 195,-70.71 195,-62.11"/>
<polygon fill="black" stroke="black" points="198.5,-62.1 195,-52.1 191.5,-62.1 198.5,-62.1"/>
<g id="a_edge1&#45;headlabel"><a xlink:href="dir_000072_000044.html" target="_top" xlink:title="2">
<text text-anchor="middle" x="201.34" y="-63.2" font-family="Helvetica,sans-Serif" font-size="10.00">2</text>
</a>
</g>
</g>
<!-- dir_707c769b9c954b767702e866c09e50fe -->
<g id="node10" class="node">
<title>dir_707c769b9c954b767702e866c09e50fe</title>
<g id="a_node10"><a xlink:href="dir_707c769b9c954b767702e866c09e50fe.html" target="_top" xlink:title="toecam">
<polygon fill="white" stroke="red" points="150,-124 96,-124 96,-88 150,-88 150,-124"/>
<text text-anchor="middle" x="123" y="-103.5" font-family="Helvetica,sans-Serif" font-size="10.00">toecam</text>
</a>
</g>
</g>
<!-- dir_87613d042277d49bf15d5493135e2325 -->
<g id="node11" class="node">
<title>dir_87613d042277d49bf15d5493135e2325</title>
<g id="a_node11"><a xlink:href="dir_87613d042277d49bf15d5493135e2325.html" target="_top" xlink:title="uoe">
<polygon fill="white" stroke="red" points="78,-124 24,-124 24,-88 78,-88 78,-124"/>
<text text-anchor="middle" x="51" y="-103.5" font-family="Helvetica,sans-Serif" font-size="10.00">uoe</text>
</a>
</g>
</g>
</g>
</svg>
