<?xml version="1.0" encoding="UTF-8" standalone="no"?>
<!DOCTYPE svg PUBLIC "-//W3C//DTD SVG 1.1//EN"
 "http://www.w3.org/Graphics/SVG/1.1/DTD/svg11.dtd">
<!-- Generated by graphviz version 2.43.0 (0)
 -->
<!-- Title: repos_for_Dox/cFDK/SRA/LIB/SHELL/LIB/hls/NTS/toe/src/tx_engine Pages: 1 -->
<svg width="978pt" height="194pt"
 viewBox="0.00 0.00 978.00 194.06" xmlns="http://www.w3.org/2000/svg" xmlns:xlink="http://www.w3.org/1999/xlink">
<g id="graph0" class="graph" transform="scale(1 1) rotate(0) translate(4 190.06)">
<title>repos_for_Dox/cFDK/SRA/LIB/SHELL/LIB/hls/NTS/toe/src/tx_engine</title>
<g id="clust1" class="cluster">
<title>clusterdir_a2a70285cc28360b488d79ea2b511d97</title>
<g id="a_clust1"><a xlink:href="dir_a2a70285cc28360b488d79ea2b511d97.html" target="_top" xlink:title="src">
<polygon fill="#ddddee" stroke="black" points="8,-8 8,-159 906,-159 906,-8 8,-8"/>
<text text-anchor="middle" x="457" y="-147" font-family="Helvetica,sans-Serif" font-size="10.00">src</text>
</a>
</g>
</g>
<g id="clust2" class="cluster">
<title>clusterdir_592bd16346e6805364137fbb564fc530</title>
<g id="a_clust2"><a xlink:href="dir_592bd16346e6805364137fbb564fc530.html" target="_top">
<polygon fill="#eeeeff" stroke="black" points="568,-80 568,-132 794,-132 794,-80 568,-80"/>
</a>
</g>
</g>
<!-- dir_116776bbb74f65bb8bf12fd7da7745fd -->
<g id="node1" class="node">
<title>dir_116776bbb74f65bb8bf12fd7da7745fd</title>
<g id="a_node1"><a xlink:href="dir_116776bbb74f65bb8bf12fd7da7745fd.html" target="_top" xlink:title="timers">
<polygon fill="none" stroke="black" points="898,-52 844,-52 844,-16 898,-16 898,-52"/>
<text text-anchor="middle" x="871" y="-31.5" font-family="Helvetica,sans-Serif" font-size="10.00">timers</text>
</a>
</g>
</g>
<!-- dir_13512d79193b746fbd0446caf2a7076f -->
<g id="node2" class="node">
<title>dir_13512d79193b746fbd0446caf2a7076f</title>
<g id="a_node2"><a xlink:href="dir_13512d79193b746fbd0446caf2a7076f.html" target="_top" xlink:title="tx_sar_table">
<polygon fill="none" stroke="black" points="93.5,-52 16.5,-52 16.5,-16 93.5,-16 93.5,-52"/>
<text text-anchor="middle" x="55" y="-31.5" font-family="Helvetica,sans-Serif" font-size="10.00">tx_sar_table</text>
</a>
</g>
</g>
<!-- dir_19a6afe2592d40dd3fc0d3399c6015fe -->
<g id="node3" class="node">
<title>dir_19a6afe2592d40dd3fc0d3399c6015fe</title>
<g id="a_node3"><a xlink:href="dir_19a6afe2592d40dd3fc0d3399c6015fe.html" target="_top" xlink:title="tx_app_interface">
<polygon fill="none" stroke="black" points="210,-52 112,-52 112,-16 210,-16 210,-52"/>
<text text-anchor="middle" x="161" y="-31.5" font-family="Helvetica,sans-Serif" font-size="10.00">tx_app_interface</text>
</a>
</g>
</g>
<!-- dir_219deef6a1eae841677d652c679aa0d3 -->
<g id="node4" class="node">
<title>dir_219deef6a1eae841677d652c679aa0d3</title>
<g id="a_node4"><a xlink:href="dir_219deef6a1eae841677d652c679aa0d3.html" target="_top" xlink:title="rx_engine">
<polygon fill="none" stroke="red" points="557.5,-124 492.5,-124 492.5,-88 557.5,-88 557.5,-124"/>
<text text-anchor="middle" x="525" y="-103.5" font-family="Helvetica,sans-Serif" font-size="10.00">rx_engine</text>
</a>
</g>
</g>
<!-- dir_219deef6a1eae841677d652c679aa0d3&#45;&gt;dir_116776bbb74f65bb8bf12fd7da7745fd -->
<g id="edge17" class="edge">
<title>dir_219deef6a1eae841677d652c679aa0d3&#45;&gt;dir_116776bbb74f65bb8bf12fd7da7745fd</title>
<path fill="none" stroke="black" d="M548.01,-87.78C553.06,-84.73 558.53,-81.91 564,-80 675.28,-41.07 716.2,-82.25 834.1,-51.63"/>
<polygon fill="black" stroke="black" points="835.12,-54.98 843.85,-48.98 833.28,-48.23 835.12,-54.98"/>
<g id="a_edge17&#45;headlabel"><a xlink:href="dir_000080_000086.html" target="_top" xlink:title="1">
<text text-anchor="middle" x="832.39" y="-56.17" font-family="Helvetica,sans-Serif" font-size="10.00">1</text>
</a>
</g>
</g>
<!-- dir_219deef6a1eae841677d652c679aa0d3&#45;&gt;dir_13512d79193b746fbd0446caf2a7076f -->
<g id="edge16" class="edge">
<title>dir_219deef6a1eae841677d652c679aa0d3&#45;&gt;dir_13512d79193b746fbd0446caf2a7076f</title>
<path fill="none" stroke="black" d="M492.28,-103.29C422.32,-99.14 253.1,-86.36 103.39,-51.77"/>
<polygon fill="black" stroke="black" points="104.09,-48.34 93.56,-49.46 102.49,-55.15 104.09,-48.34"/>
<g id="a_edge16&#45;headlabel"><a xlink:href="dir_000080_000091.html" target="_top" xlink:title="1">
<text text-anchor="middle" x="108.24" y="-43.9" font-family="Helvetica,sans-Serif" font-size="10.00">1</text>
</a>
</g>
</g>
<!-- dir_219deef6a1eae841677d652c679aa0d3&#45;&gt;dir_19a6afe2592d40dd3fc0d3399c6015fe -->
<g id="edge22" class="edge">
<title>dir_219deef6a1eae841677d652c679aa0d3&#45;&gt;dir_19a6afe2592d40dd3fc0d3399c6015fe</title>
<path fill="none" stroke="black" d="M492.15,-100.56C437.55,-92.91 324.58,-75.95 220.03,-52.11"/>
<polygon fill="black" stroke="black" points="220.79,-48.69 210.26,-49.85 219.22,-55.51 220.79,-48.69"/>
<g id="a_edge22&#45;headlabel"><a xlink:href="dir_000080_000087.html" target="_top" xlink:title="1">
<text text-anchor="middle" x="224.93" y="-44.23" font-family="Helvetica,sans-Serif" font-size="10.00">1</text>
</a>
</g>
</g>
<!-- dir_2fcaf553d3ed3689d342eef26f04b478 -->
<g id="node5" class="node">
<title>dir_2fcaf553d3ed3689d342eef26f04b478</title>
<g id="a_node5"><a xlink:href="dir_2fcaf553d3ed3689d342eef26f04b478.html" target="_top" xlink:title="port_table">
<polygon fill="none" stroke="black" points="294,-52 228,-52 228,-16 294,-16 294,-52"/>
<text text-anchor="middle" x="261" y="-31.5" font-family="Helvetica,sans-Serif" font-size="10.00">port_table</text>
</a>
</g>
</g>
<!-- dir_219deef6a1eae841677d652c679aa0d3&#45;&gt;dir_2fcaf553d3ed3689d342eef26f04b478 -->
<g id="edge20" class="edge">
<title>dir_219deef6a1eae841677d652c679aa0d3&#45;&gt;dir_2fcaf553d3ed3689d342eef26f04b478</title>
<path fill="none" stroke="black" d="M492.4,-98.69C448.94,-89.93 369.84,-72.8 304,-52 303.9,-51.97 303.8,-51.94 303.7,-51.9"/>
<polygon fill="black" stroke="black" points="304.76,-48.57 294.17,-48.65 302.5,-55.19 304.76,-48.57"/>
<g id="a_edge20&#45;headlabel"><a xlink:href="dir_000080_000078.html" target="_top" xlink:title="1">
<text text-anchor="middle" x="309.08" y="-44.54" font-family="Helvetica,sans-Serif" font-size="10.00">1</text>
</a>
</g>
</g>
<!-- dir_581e1b63a87af0e0ceb4aaafb47d829e -->
<g id="node6" class="node">
<title>dir_581e1b63a87af0e0ceb4aaafb47d829e</title>
<g id="a_node6"><a xlink:href="dir_581e1b63a87af0e0ceb4aaafb47d829e.html" target="_top" xlink:title="session_lookup_controller">
<polygon fill="none" stroke="black" points="455.5,-52 312.5,-52 312.5,-16 455.5,-16 455.5,-52"/>
<text text-anchor="middle" x="384" y="-31.5" font-family="Helvetica,sans-Serif" font-size="10.00">session_lookup_controller</text>
</a>
</g>
</g>
<!-- dir_219deef6a1eae841677d652c679aa0d3&#45;&gt;dir_581e1b63a87af0e0ceb4aaafb47d829e -->
<g id="edge13" class="edge">
<title>dir_219deef6a1eae841677d652c679aa0d3&#45;&gt;dir_581e1b63a87af0e0ceb4aaafb47d829e</title>
<path fill="none" stroke="black" d="M492.3,-88.76C473.02,-79.2 448.39,-66.97 427.5,-56.59"/>
<polygon fill="black" stroke="black" points="429.01,-53.44 418.49,-52.12 425.89,-59.71 429.01,-53.44"/>
<g id="a_edge13&#45;headlabel"><a xlink:href="dir_000080_000084.html" target="_top" xlink:title="1">
<text text-anchor="middle" x="433.49" y="-49.99" font-family="Helvetica,sans-Serif" font-size="10.00">1</text>
</a>
</g>
</g>
<!-- dir_a37b80ab0a2749e6985e9032ea4b52fa -->
<g id="node7" class="node">
<title>dir_a37b80ab0a2749e6985e9032ea4b52fa</title>
<g id="a_node7"><a xlink:href="dir_a37b80ab0a2749e6985e9032ea4b52fa.html" target="_top" xlink:title="event_engine">
<polygon fill="none" stroke="black" points="556.5,-52 473.5,-52 473.5,-16 556.5,-16 556.5,-52"/>
<text text-anchor="middle" x="515" y="-31.5" font-family="Helvetica,sans-Serif" font-size="10.00">event_engine</text>
</a>
</g>
</g>
<!-- dir_219deef6a1eae841677d652c679aa0d3&#45;&gt;dir_a37b80ab0a2749e6985e9032ea4b52fa -->
<g id="edge18" class="edge">
<title>dir_219deef6a1eae841677d652c679aa0d3&#45;&gt;dir_a37b80ab0a2749e6985e9032ea4b52fa</title>
<path fill="none" stroke="black" d="M522.53,-87.7C521.43,-79.98 520.1,-70.71 518.87,-62.11"/>
<polygon fill="black" stroke="black" points="522.32,-61.51 517.44,-52.1 515.39,-62.5 522.32,-61.51"/>
<g id="a_edge18&#45;headlabel"><a xlink:href="dir_000080_000077.html" target="_top" xlink:title="1">
<text text-anchor="middle" x="525.64" y="-62.17" font-family="Helvetica,sans-Serif" font-size="10.00">1</text>
</a>
</g>
</g>
<!-- dir_e4c8e9759fe719f97b5143e470de01f0 -->
<g id="node8" class="node">
<title>dir_e4c8e9759fe719f97b5143e470de01f0</title>
<g id="a_node8"><a xlink:href="dir_e4c8e9759fe719f97b5143e470de01f0.html" target="_top" xlink:title="rx_sar_table">
<polygon fill="none" stroke="black" points="651.5,-52 574.5,-52 574.5,-16 651.5,-16 651.5,-52"/>
<text text-anchor="middle" x="613" y="-31.5" font-family="Helvetica,sans-Serif" font-size="10.00">rx_sar_table</text>
</a>
</g>
</g>
<!-- dir_219deef6a1eae841677d652c679aa0d3&#45;&gt;dir_e4c8e9759fe719f97b5143e470de01f0 -->
<g id="edge15" class="edge">
<title>dir_219deef6a1eae841677d652c679aa0d3&#45;&gt;dir_e4c8e9759fe719f97b5143e470de01f0</title>
<path fill="none" stroke="black" d="M546.75,-87.7C557.84,-78.88 571.47,-68.03 583.49,-58.47"/>
<polygon fill="black" stroke="black" points="585.85,-61.07 591.5,-52.1 581.49,-55.59 585.85,-61.07"/>
<g id="a_edge15&#45;headlabel"><a xlink:href="dir_000080_000083.html" target="_top" xlink:title="1">
<text text-anchor="middle" x="584.8" y="-63.03" font-family="Helvetica,sans-Serif" font-size="10.00">1</text>
</a>
</g>
</g>
<!-- dir_e5ff43aef556d54b386024f1cb34403d -->
<g id="node9" class="node">
<title>dir_e5ff43aef556d54b386024f1cb34403d</title>
<g id="a_node9"><a xlink:href="dir_e5ff43aef556d54b386024f1cb34403d.html" target="_top" xlink:title="ack_delay">
<polygon fill="none" stroke="red" points="736,-52 670,-52 670,-16 736,-16 736,-52"/>
<text text-anchor="middle" x="703" y="-31.5" font-family="Helvetica,sans-Serif" font-size="10.00">ack_delay</text>
</a>
</g>
</g>
<!-- dir_219deef6a1eae841677d652c679aa0d3&#45;&gt;dir_e5ff43aef556d54b386024f1cb34403d -->
<g id="edge19" class="edge">
<title>dir_219deef6a1eae841677d652c679aa0d3&#45;&gt;dir_e5ff43aef556d54b386024f1cb34403d</title>
<path fill="none" stroke="black" d="M549.57,-87.75C554.23,-84.91 559.17,-82.19 564,-80 602.16,-62.71 616.65,-66.08 659.95,-52.12"/>
<polygon fill="black" stroke="black" points="661.28,-55.36 669.65,-48.86 659.05,-48.73 661.28,-55.36"/>
<g id="a_edge19&#45;headlabel"><a xlink:href="dir_000080_000074.html" target="_top" xlink:title="1">
<text text-anchor="middle" x="658.78" y="-56.7" font-family="Helvetica,sans-Serif" font-size="10.00">1</text>
</a>
</g>
</g>
<!-- dir_eddf108cc624d2f50c8f564dd298775d -->
<g id="node10" class="node">
<title>dir_eddf108cc624d2f50c8f564dd298775d</title>
<g id="a_node10"><a xlink:href="dir_eddf108cc624d2f50c8f564dd298775d.html" target="_top" xlink:title="state_table">
<polygon fill="none" stroke="black" points="825.5,-52 754.5,-52 754.5,-16 825.5,-16 825.5,-52"/>
<text text-anchor="middle" x="790" y="-31.5" font-family="Helvetica,sans-Serif" font-size="10.00">state_table</text>
</a>
</g>
</g>
<!-- dir_219deef6a1eae841677d652c679aa0d3&#45;&gt;dir_eddf108cc624d2f50c8f564dd298775d -->
<g id="edge14" class="edge">
<title>dir_219deef6a1eae841677d652c679aa0d3&#45;&gt;dir_eddf108cc624d2f50c8f564dd298775d</title>
<path fill="none" stroke="black" d="M548.09,-88C553.13,-84.92 558.58,-82.05 564,-80 637.16,-52.32 664.16,-71.11 744.31,-51.78"/>
<polygon fill="black" stroke="black" points="745.53,-55.09 754.36,-49.23 743.8,-48.3 745.53,-55.09"/>
<g id="a_edge14&#45;headlabel"><a xlink:href="dir_000080_000085.html" target="_top" xlink:title="1">
<text text-anchor="middle" x="742.74" y="-56.22" font-family="Helvetica,sans-Serif" font-size="10.00">1</text>
</a>
</g>
</g>
<!-- dir_f82bc034cbe0e36d8e98b8a52968e795 -->
<g id="node12" class="node">
<title>dir_f82bc034cbe0e36d8e98b8a52968e795</title>
<g id="a_node12"><a xlink:href="dir_f82bc034cbe0e36d8e98b8a52968e795.html" target="_top" xlink:title="src">
<polygon fill="white" stroke="black" points="702,-124 648,-124 648,-88 702,-88 702,-124"/>
<text text-anchor="middle" x="675" y="-103.5" font-family="Helvetica,sans-Serif" font-size="10.00">src</text>
</a>
</g>
</g>
<!-- dir_219deef6a1eae841677d652c679aa0d3&#45;&gt;dir_f82bc034cbe0e36d8e98b8a52968e795 -->
<g id="edge21" class="edge">
<title>dir_219deef6a1eae841677d652c679aa0d3&#45;&gt;dir_f82bc034cbe0e36d8e98b8a52968e795</title>
<path fill="none" stroke="black" d="M531.45,-124.08C538.65,-141.2 552.11,-165.9 573,-177 595.37,-188.88 607.8,-189.21 630,-177 646.84,-167.74 658.26,-149.22 665.38,-133.42"/>
<polygon fill="black" stroke="black" points="668.67,-134.62 669.27,-124.04 662.21,-131.94 668.67,-134.62"/>
<g id="a_edge21&#45;headlabel"><a xlink:href="dir_000080_000089.html" target="_top" xlink:title="1">
<text text-anchor="middle" x="669.92" y="-136.52" font-family="Helvetica,sans-Serif" font-size="10.00">1</text>
</a>
</g>
</g>
<!-- dir_ae87538a6eea15386c17fa032287f472 -->
<g id="node14" class="node">
<title>dir_ae87538a6eea15386c17fa032287f472</title>
<g id="a_node14"><a xlink:href="dir_ae87538a6eea15386c17fa032287f472.html" target="_top" xlink:title="test">
<polygon fill="none" stroke="red" points="970,-52 916,-52 916,-16 970,-16 970,-52"/>
<text text-anchor="middle" x="943" y="-31.5" font-family="Helvetica,sans-Serif" font-size="10.00">test</text>
</a>
</g>
</g>
<!-- dir_219deef6a1eae841677d652c679aa0d3&#45;&gt;dir_ae87538a6eea15386c17fa032287f472 -->
<g id="edge12" class="edge">
<title>dir_219deef6a1eae841677d652c679aa0d3&#45;&gt;dir_ae87538a6eea15386c17fa032287f472</title>
<path fill="none" stroke="black" d="M547.56,-87.94C552.72,-84.79 558.36,-81.9 564,-80 707.04,-31.74 759.4,-91.69 906.17,-52.68"/>
<polygon fill="black" stroke="black" points="907.27,-56.01 915.97,-49.97 905.4,-49.26 907.27,-56.01"/>
<g id="a_edge12&#45;headlabel"><a xlink:href="dir_000080_000092.html" target="_top" xlink:title="1">
<text text-anchor="middle" x="904.56" y="-57.2" font-family="Helvetica,sans-Serif" font-size="10.00">1</text>
</a>
</g>
</g>
<!-- dir_592bd16346e6805364137fbb564fc530 -->
<g id="node11" class="node">
<title>dir_592bd16346e6805364137fbb564fc530</title>
<text text-anchor="middle" x="753" y="-103.5" font-family="Helvetica,sans-Serif" font-size="10.00">tx_engine</text>
</g>
<!-- dir_0db8b204e585e348ed49a4dd753ef4f7 -->
<g id="node13" class="node">
<title>dir_0db8b204e585e348ed49a4dd753ef4f7</title>
<g id="a_node13"><a xlink:href="dir_0db8b204e585e348ed49a4dd753ef4f7.html" target="_top" xlink:title="test">
<polygon fill="white" stroke="black" points="630,-124 576,-124 576,-88 630,-88 630,-124"/>
<text text-anchor="middle" x="603" y="-103.5" font-family="Helvetica,sans-Serif" font-size="10.00">test</text>
</a>
</g>
</g>
<!-- dir_0db8b204e585e348ed49a4dd753ef4f7&#45;&gt;dir_116776bbb74f65bb8bf12fd7da7745fd -->
<g id="edge1" class="edge">
<title>dir_0db8b204e585e348ed49a4dd753ef4f7&#45;&gt;dir_116776bbb74f65bb8bf12fd7da7745fd</title>
<path fill="none" stroke="black" d="M624.16,-87.93C628.82,-84.86 633.9,-82 639,-80 717.94,-48.98 748.49,-75.24 833.97,-51.73"/>
<polygon fill="black" stroke="black" points="835.19,-55.02 843.82,-48.87 833.24,-48.3 835.19,-55.02"/>
<g id="a_edge1&#45;headlabel"><a xlink:href="dir_000090_000086.html" target="_top" xlink:title="1">
<text text-anchor="middle" x="832.53" y="-56.25" font-family="Helvetica,sans-Serif" font-size="10.00">1</text>
</a>
</g>
</g>
<!-- dir_0db8b204e585e348ed49a4dd753ef4f7&#45;&gt;dir_13512d79193b746fbd0446caf2a7076f -->
<g id="edge2" class="edge">
<title>dir_0db8b204e585e348ed49a4dd753ef4f7&#45;&gt;dir_13512d79193b746fbd0446caf2a7076f</title>
<path fill="none" stroke="black" d="M585.51,-87.86C581.38,-84.71 576.77,-81.85 572,-80 477.38,-43.39 220.44,-71.08 103.38,-51.52"/>
<polygon fill="black" stroke="black" points="103.98,-48.07 93.51,-49.69 102.7,-54.95 103.98,-48.07"/>
<g id="a_edge2&#45;headlabel"><a xlink:href="dir_000090_000091.html" target="_top" xlink:title="1">
<text text-anchor="middle" x="108.03" y="-43.43" font-family="Helvetica,sans-Serif" font-size="10.00">1</text>
</a>
</g>
</g>
<!-- dir_0db8b204e585e348ed49a4dd753ef4f7&#45;&gt;dir_19a6afe2592d40dd3fc0d3399c6015fe -->
<g id="edge3" class="edge">
<title>dir_0db8b204e585e348ed49a4dd753ef4f7&#45;&gt;dir_19a6afe2592d40dd3fc0d3399c6015fe</title>
<path fill="none" stroke="black" d="M585.48,-87.93C581.35,-84.78 576.75,-81.89 572,-80 428.78,-22.98 375.95,-78.15 220.12,-51.92"/>
<polygon fill="black" stroke="black" points="220.65,-48.46 210.19,-50.17 219.43,-55.36 220.65,-48.46"/>
<g id="a_edge3&#45;headlabel"><a xlink:href="dir_000090_000087.html" target="_top" xlink:title="1">
<text text-anchor="middle" x="224.69" y="-43.79" font-family="Helvetica,sans-Serif" font-size="10.00">1</text>
</a>
</g>
</g>
<!-- dir_0db8b204e585e348ed49a4dd753ef4f7&#45;&gt;dir_219deef6a1eae841677d652c679aa0d3 -->
<g id="edge4" class="edge">
<title>dir_0db8b204e585e348ed49a4dd753ef4f7&#45;&gt;dir_219deef6a1eae841677d652c679aa0d3</title>
<path fill="none" stroke="black" d="M575.69,-106C573.05,-106 570.41,-106 567.78,-106"/>
<polygon fill="black" stroke="black" points="567.6,-102.5 557.6,-106 567.6,-109.5 567.6,-102.5"/>
<g id="a_edge4&#45;headlabel"><a xlink:href="dir_000090_000080.html" target="_top" xlink:title="1">
<text text-anchor="middle" x="571.2" y="-97.16" font-family="Helvetica,sans-Serif" font-size="10.00">1</text>
</a>
</g>
</g>
<!-- dir_0db8b204e585e348ed49a4dd753ef4f7&#45;&gt;dir_2fcaf553d3ed3689d342eef26f04b478 -->
<g id="edge5" class="edge">
<title>dir_0db8b204e585e348ed49a4dd753ef4f7&#45;&gt;dir_2fcaf553d3ed3689d342eef26f04b478</title>
<path fill="none" stroke="black" d="M585.11,-87.76C581.07,-84.71 576.6,-81.9 572,-80 461.3,-34.32 420.32,-80.5 304,-52 303.9,-51.97 303.8,-51.95 303.69,-51.92"/>
<polygon fill="black" stroke="black" points="304.62,-48.55 294.04,-49.1 302.65,-55.27 304.62,-48.55"/>
<g id="a_edge5&#45;headlabel"><a xlink:href="dir_000090_000078.html" target="_top" xlink:title="1">
<text text-anchor="middle" x="308.87" y="-44.34" font-family="Helvetica,sans-Serif" font-size="10.00">1</text>
</a>
</g>
</g>
<!-- dir_0db8b204e585e348ed49a4dd753ef4f7&#45;&gt;dir_581e1b63a87af0e0ceb4aaafb47d829e -->
<g id="edge6" class="edge">
<title>dir_0db8b204e585e348ed49a4dd753ef4f7&#45;&gt;dir_581e1b63a87af0e0ceb4aaafb47d829e</title>
<path fill="none" stroke="black" d="M584.56,-87.97C580.63,-84.97 576.34,-82.13 572,-80 561.96,-75.07 511.43,-63.08 465.28,-52.71"/>
<polygon fill="black" stroke="black" points="466.04,-49.29 455.51,-50.53 464.51,-56.12 466.04,-49.29"/>
<g id="a_edge6&#45;headlabel"><a xlink:href="dir_000090_000084.html" target="_top" xlink:title="1">
<text text-anchor="middle" x="470.16" y="-44.81" font-family="Helvetica,sans-Serif" font-size="10.00">1</text>
</a>
</g>
</g>
<!-- dir_0db8b204e585e348ed49a4dd753ef4f7&#45;&gt;dir_a37b80ab0a2749e6985e9032ea4b52fa -->
<g id="edge7" class="edge">
<title>dir_0db8b204e585e348ed49a4dd753ef4f7&#45;&gt;dir_a37b80ab0a2749e6985e9032ea4b52fa</title>
<path fill="none" stroke="black" d="M581.68,-87.76C578.44,-85.15 575.13,-82.5 572,-80 563.19,-72.97 553.58,-65.36 544.8,-58.43"/>
<polygon fill="black" stroke="black" points="546.72,-55.48 536.7,-52.04 542.38,-60.98 546.72,-55.48"/>
<g id="a_edge7&#45;headlabel"><a xlink:href="dir_000090_000077.html" target="_top" xlink:title="1">
<text text-anchor="middle" x="551.3" y="-52.98" font-family="Helvetica,sans-Serif" font-size="10.00">1</text>
</a>
</g>
</g>
<!-- dir_0db8b204e585e348ed49a4dd753ef4f7&#45;&gt;dir_e4c8e9759fe719f97b5143e470de01f0 -->
<g id="edge9" class="edge">
<title>dir_0db8b204e585e348ed49a4dd753ef4f7&#45;&gt;dir_e4c8e9759fe719f97b5143e470de01f0</title>
<path fill="none" stroke="black" d="M605.47,-87.7C606.57,-79.98 607.9,-70.71 609.13,-62.11"/>
<polygon fill="black" stroke="black" points="612.61,-62.5 610.56,-52.1 605.68,-61.51 612.61,-62.5"/>
<g id="a_edge9&#45;headlabel"><a xlink:href="dir_000090_000083.html" target="_top" xlink:title="1">
<text text-anchor="middle" x="614.91" y="-63.96" font-family="Helvetica,sans-Serif" font-size="10.00">1</text>
</a>
</g>
</g>
<!-- dir_0db8b204e585e348ed49a4dd753ef4f7&#45;&gt;dir_e5ff43aef556d54b386024f1cb34403d -->
<g id="edge10" class="edge">
<title>dir_0db8b204e585e348ed49a4dd753ef4f7&#45;&gt;dir_e5ff43aef556d54b386024f1cb34403d</title>
<path fill="none" stroke="black" d="M627.46,-87.88C640.3,-78.89 656.2,-67.76 670.09,-58.03"/>
<polygon fill="black" stroke="black" points="672.26,-60.79 678.44,-52.19 668.24,-55.06 672.26,-60.79"/>
<g id="a_edge10&#45;headlabel"><a xlink:href="dir_000090_000074.html" target="_top" xlink:title="1">
<text text-anchor="middle" x="670.94" y="-62.68" font-family="Helvetica,sans-Serif" font-size="10.00">1</text>
</a>
</g>
</g>
<!-- dir_0db8b204e585e348ed49a4dd753ef4f7&#45;&gt;dir_eddf108cc624d2f50c8f564dd298775d -->
<g id="edge11" class="edge">
<title>dir_0db8b204e585e348ed49a4dd753ef4f7&#45;&gt;dir_eddf108cc624d2f50c8f564dd298775d</title>
<path fill="none" stroke="black" d="M625.13,-87.86C629.56,-84.95 634.3,-82.17 639,-80 680.56,-60.81 696.63,-66.07 744.57,-51.88"/>
<polygon fill="black" stroke="black" points="745.74,-55.18 754.26,-48.88 743.67,-48.5 745.74,-55.18"/>
<g id="a_edge11&#45;headlabel"><a xlink:href="dir_000090_000085.html" target="_top" xlink:title="1">
<text text-anchor="middle" x="743.14" y="-56.46" font-family="Helvetica,sans-Serif" font-size="10.00">1</text>
</a>
</g>
</g>
<!-- dir_0db8b204e585e348ed49a4dd753ef4f7&#45;&gt;dir_ae87538a6eea15386c17fa032287f472 -->
<g id="edge8" class="edge">
<title>dir_0db8b204e585e348ed49a4dd753ef4f7&#45;&gt;dir_ae87538a6eea15386c17fa032287f472</title>
<path fill="none" stroke="black" d="M624.1,-87.77C628.77,-84.71 633.86,-81.9 639,-80 749.43,-39.07 791.63,-83.95 906.13,-52.74"/>
<polygon fill="black" stroke="black" points="907.31,-56.04 915.96,-49.92 905.38,-49.31 907.31,-56.04"/>
<g id="a_edge8&#45;headlabel"><a xlink:href="dir_000090_000092.html" target="_top" xlink:title="1">
<text text-anchor="middle" x="904.64" y="-57.26" font-family="Helvetica,sans-Serif" font-size="10.00">1</text>
</a>
</g>
</g>
</g>
</svg>
