<?xml version="1.0" encoding="UTF-8" standalone="no"?>
<!DOCTYPE svg PUBLIC "-//W3C//DTD SVG 1.1//EN"
 "http://www.w3.org/Graphics/SVG/1.1/DTD/svg11.dtd">
<!-- Generated by graphviz version 2.43.0 (0)
 -->
<!-- Title: repos_for_Dox/cFp_Zoo/HOST/vision/gammacorrection Pages: 1 -->
<svg width="286pt" height="183pt"
 viewBox="0.00 0.00 286.00 183.00" xmlns="http://www.w3.org/2000/svg" xmlns:xlink="http://www.w3.org/1999/xlink">
<g id="graph0" class="graph" transform="scale(1 1) rotate(0) translate(4 179)">
<title>repos_for_Dox/cFp_Zoo/HOST/vision/gammacorrection</title>
<g id="clust1" class="cluster">
<title>clusterdir_6b20162fd5645267b8cad5d26dd6919f</title>
<g id="a_clust1"><a xlink:href="dir_6b20162fd5645267b8cad5d26dd6919f.html" target="_top" xlink:title="vision">
<polygon fill="#ddddee" stroke="black" points="8,-8 8,-167 216,-167 216,-8 8,-8"/>
<text text-anchor="middle" x="112" y="-155" font-family="Helvetica,sans-Serif" font-size="10.00">vision</text>
</a>
</g>
</g>
<g id="clust2" class="cluster">
<title>clusterdir_a173aa145f3b5ee5ae11f4b23ae502da</title>
<g id="a_clust2"><a xlink:href="dir_a173aa145f3b5ee5ae11f4b23ae502da.html" target="_top">
<polygon fill="#eeeeff" stroke="black" points="16,-16 16,-140 208,-140 208,-16 16,-16"/>
</a>
</g>
</g>
<!-- dir_a173aa145f3b5ee5ae11f4b23ae502da -->
<g id="node1" class="node">
<title>dir_a173aa145f3b5ee5ae11f4b23ae502da</title>
<text text-anchor="middle" x="148" y="-111.5" font-family="Helvetica,sans-Serif" font-size="10.00">gammacorrection</text>
</g>
<!-- dir_765f020dcb5f271c89d803d60446da66 -->
<g id="node2" class="node">
<title>dir_765f020dcb5f271c89d803d60446da66</title>
<g id="a_node2"><a xlink:href="dir_765f020dcb5f271c89d803d60446da66.html" target="_top" xlink:title="include">
<polygon fill="white" stroke="black" points="139,-60 85,-60 85,-24 139,-24 139,-60"/>
<text text-anchor="middle" x="112" y="-39.5" font-family="Helvetica,sans-Serif" font-size="10.00">include</text>
</a>
</g>
</g>
<!-- dir_e81608aaa352e709165497283e89b2f2 -->
<g id="node3" class="node">
<title>dir_e81608aaa352e709165497283e89b2f2</title>
<g id="a_node3"><a xlink:href="dir_e81608aaa352e709165497283e89b2f2.html" target="_top" xlink:title="src">
<polygon fill="white" stroke="black" points="78,-132 24,-132 24,-96 78,-96 78,-132"/>
<text text-anchor="middle" x="51" y="-111.5" font-family="Helvetica,sans-Serif" font-size="10.00">src</text>
</a>
</g>
</g>
<!-- dir_e81608aaa352e709165497283e89b2f2&#45;&gt;dir_765f020dcb5f271c89d803d60446da66 -->
<g id="edge3" class="edge">
<title>dir_e81608aaa352e709165497283e89b2f2&#45;&gt;dir_765f020dcb5f271c89d803d60446da66</title>
<path fill="none" stroke="black" d="M66.08,-95.7C73.39,-87.3 82.31,-77.07 90.34,-67.86"/>
<polygon fill="black" stroke="black" points="93.16,-69.94 97.09,-60.1 87.89,-65.34 93.16,-69.94"/>
<g id="a_edge3&#45;headlabel"><a xlink:href="dir_000211_000189.html" target="_top" xlink:title="2">
<text text-anchor="middle" x="92.94" y="-72.02" font-family="Helvetica,sans-Serif" font-size="10.00">2</text>
</a>
</g>
</g>
<!-- dir_372190bba8e51f711404a4d20d8d4609 -->
<g id="node4" class="node">
<title>dir_372190bba8e51f711404a4d20d8d4609</title>
<g id="a_node4"><a xlink:href="dir_372190bba8e51f711404a4d20d8d4609.html" target="_top" xlink:title="ROLE">
<polygon fill="none" stroke="red" points="278,-60 224,-60 224,-24 278,-24 278,-60"/>
<text text-anchor="middle" x="251" y="-39.5" font-family="Helvetica,sans-Serif" font-size="10.00">ROLE</text>
</a>
</g>
</g>
<!-- dir_e81608aaa352e709165497283e89b2f2&#45;&gt;dir_372190bba8e51f711404a4d20d8d4609 -->
<g id="edge2" class="edge">
<title>dir_e81608aaa352e709165497283e89b2f2&#45;&gt;dir_372190bba8e51f711404a4d20d8d4609</title>
<path fill="none" stroke="black" d="M78.29,-99.91C81.53,-98.52 84.82,-97.18 88,-96 141.78,-75.97 158.03,-79.51 212,-60 212.85,-59.69 213.71,-59.38 214.57,-59.05"/>
<polygon fill="black" stroke="black" points="215.91,-62.29 223.9,-55.34 213.32,-55.78 215.91,-62.29"/>
<g id="a_edge2&#45;headlabel"><a xlink:href="dir_000211_000023.html" target="_top" xlink:title="1">
<text text-anchor="middle" x="213.61" y="-63.75" font-family="Helvetica,sans-Serif" font-size="10.00">1</text>
</a>
</g>
</g>
<!-- dir_372190bba8e51f711404a4d20d8d4609&#45;&gt;dir_765f020dcb5f271c89d803d60446da66 -->
<g id="edge1" class="edge">
<title>dir_372190bba8e51f711404a4d20d8d4609&#45;&gt;dir_765f020dcb5f271c89d803d60446da66</title>
<path fill="none" stroke="black" d="M223.91,-42C199.08,-42 174.25,-42 149.41,-42"/>
<polygon fill="black" stroke="black" points="149.15,-38.5 139.15,-42 149.15,-45.5 149.15,-38.5"/>
<g id="a_edge1&#45;headlabel"><a xlink:href="dir_000023_000189.html" target="_top" xlink:title="2">
<text text-anchor="middle" x="152.74" y="-33.16" font-family="Helvetica,sans-Serif" font-size="10.00">2</text>
</a>
</g>
</g>
</g>
</svg>
