<?xml version="1.0" encoding="UTF-8" standalone="no"?>
<!DOCTYPE svg PUBLIC "-//W3C//DTD SVG 1.1//EN"
 "http://www.w3.org/Graphics/SVG/1.1/DTD/svg11.dtd">
<!-- Generated by graphviz version 2.43.0 (0)
 -->
<!-- Title: repos_for_Dox Pages: 1 -->
<svg width="580pt" height="148pt"
 viewBox="0.00 0.00 580.00 148.00" xmlns="http://www.w3.org/2000/svg" xmlns:xlink="http://www.w3.org/1999/xlink">
<g id="graph0" class="graph" transform="scale(1 1) rotate(0) translate(4 144)">
<title>repos_for_Dox</title>
<g id="clust1" class="cluster">
<title>clusterdir_b7e1ac749c44ea1caea8cb543e7af8e2</title>
<g id="a_clust1"><a xlink:href="dir_b7e1ac749c44ea1caea8cb543e7af8e2.html" target="_top">
<polygon fill="#eeeeff" stroke="black" points="8,-8 8,-132 564,-132 564,-8 8,-8"/>
</a>
</g>
</g>
<!-- dir_b7e1ac749c44ea1caea8cb543e7af8e2 -->
<g id="node1" class="node">
<title>dir_b7e1ac749c44ea1caea8cb543e7af8e2</title>
<text text-anchor="middle" x="512" y="-103.5" font-family="Helvetica,sans-Serif" font-size="10.00">repos_for_Dox</text>
</g>
<!-- dir_c763309d04da4bd0478ffd28b96eadab -->
<g id="node2" class="node">
<title>dir_c763309d04da4bd0478ffd28b96eadab</title>
<g id="a_node2"><a xlink:href="dir_c763309d04da4bd0478ffd28b96eadab.html" target="_top" xlink:title="cFDK">
<polygon fill="white" stroke="red" points="267,-52 213,-52 213,-16 267,-16 267,-52"/>
<text text-anchor="middle" x="240" y="-31.5" font-family="Helvetica,sans-Serif" font-size="10.00">cFDK</text>
</a>
</g>
</g>
<!-- dir_cefd3de93bea72315f07a5c1d09427c7 -->
<g id="node3" class="node">
<title>dir_cefd3de93bea72315f07a5c1d09427c7</title>
<g id="a_node3"><a xlink:href="dir_cefd3de93bea72315f07a5c1d09427c7.html" target="_top" xlink:title="cFp_HelloKale">
<polygon fill="white" stroke="red" points="450,-124 364,-124 364,-88 450,-88 450,-124"/>
<text text-anchor="middle" x="407" y="-103.5" font-family="Helvetica,sans-Serif" font-size="10.00">cFp_HelloKale</text>
</a>
</g>
</g>
<!-- dir_36842f88d531f78d9cf0910d4180b361 -->
<g id="node4" class="node">
<title>dir_36842f88d531f78d9cf0910d4180b361</title>
<g id="a_node4"><a xlink:href="dir_36842f88d531f78d9cf0910d4180b361.html" target="_top" xlink:title="cFp_HelloThemisto">
<polygon fill="white" stroke="red" points="346,-124 236,-124 236,-88 346,-88 346,-124"/>
<text text-anchor="middle" x="291" y="-103.5" font-family="Helvetica,sans-Serif" font-size="10.00">cFp_HelloThemisto</text>
</a>
</g>
</g>
<!-- dir_36842f88d531f78d9cf0910d4180b361&#45;&gt;dir_c763309d04da4bd0478ffd28b96eadab -->
<g id="edge1" class="edge">
<title>dir_36842f88d531f78d9cf0910d4180b361&#45;&gt;dir_c763309d04da4bd0478ffd28b96eadab</title>
<path fill="none" stroke="black" d="M278.39,-87.7C272.4,-79.47 265.12,-69.48 258.52,-60.42"/>
<polygon fill="black" stroke="black" points="261.18,-58.13 252.46,-52.1 255.52,-62.25 261.18,-58.13"/>
<g id="a_edge1&#45;headlabel"><a xlink:href="dir_000005_000001.html" target="_top" xlink:title="2">
<text text-anchor="middle" x="265.59" y="-56.86" font-family="Helvetica,sans-Serif" font-size="10.00">2</text>
</a>
</g>
</g>
<!-- dir_5d142b4fa6d7f5d9409cd75f2ef7494f -->
<g id="node5" class="node">
<title>dir_5d142b4fa6d7f5d9409cd75f2ef7494f</title>
<g id="a_node5"><a xlink:href="dir_5d142b4fa6d7f5d9409cd75f2ef7494f.html" target="_top" xlink:title="cFp_Zoo">
<polygon fill="white" stroke="red" points="218,-124 160,-124 160,-88 218,-88 218,-124"/>
<text text-anchor="middle" x="189" y="-103.5" font-family="Helvetica,sans-Serif" font-size="10.00">cFp_Zoo</text>
</a>
</g>
</g>
<!-- dir_5d142b4fa6d7f5d9409cd75f2ef7494f&#45;&gt;dir_c763309d04da4bd0478ffd28b96eadab -->
<g id="edge2" class="edge">
<title>dir_5d142b4fa6d7f5d9409cd75f2ef7494f&#45;&gt;dir_c763309d04da4bd0478ffd28b96eadab</title>
<path fill="none" stroke="black" d="M201.61,-87.7C207.6,-79.47 214.88,-69.48 221.48,-60.42"/>
<polygon fill="black" stroke="black" points="224.48,-62.25 227.54,-52.1 218.82,-58.13 224.48,-62.25"/>
<g id="a_edge2&#45;headlabel"><a xlink:href="dir_000003_000001.html" target="_top" xlink:title="15">
<text text-anchor="middle" x="224.66" y="-64.32" font-family="Helvetica,sans-Serif" font-size="10.00">15</text>
</a>
</g>
</g>
<!-- dir_8c36c889a705cb6a6fe738fba40365ed -->
<g id="node6" class="node">
<title>dir_8c36c889a705cb6a6fe738fba40365ed</title>
<g id="a_node6"><a xlink:href="dir_8c36c889a705cb6a6fe738fba40365ed.html" target="_top" xlink:title="cFSP">
<polygon fill="white" stroke="red" points="142,-124 88,-124 88,-88 142,-88 142,-124"/>
<text text-anchor="middle" x="115" y="-103.5" font-family="Helvetica,sans-Serif" font-size="10.00">cFSP</text>
</a>
</g>
</g>
<!-- dir_b5a4ccb9e2c27ab31ff557fe1b2dc54d -->
<g id="node7" class="node">
<title>dir_b5a4ccb9e2c27ab31ff557fe1b2dc54d</title>
<g id="a_node7"><a xlink:href="dir_b5a4ccb9e2c27ab31ff557fe1b2dc54d.html" target="_top" xlink:title="Dox">
<polygon fill="white" stroke="red" points="70,-124 16,-124 16,-88 70,-88 70,-124"/>
<text text-anchor="middle" x="43" y="-103.5" font-family="Helvetica,sans-Serif" font-size="10.00">Dox</text>
</a>
</g>
</g>
</g>
</svg>
