<?xml version="1.0" encoding="UTF-8" standalone="no"?>
<!DOCTYPE svg PUBLIC "-//W3C//DTD SVG 1.1//EN"
 "http://www.w3.org/Graphics/SVG/1.1/DTD/svg11.dtd">
<!-- Generated by graphviz version 2.43.0 (0)
 -->
<!-- Title: repos_for_Dox/cFp_Zoo/ROLE/quantitative_finance/hls/common Pages: 1 -->
<svg width="308pt" height="250pt"
 viewBox="0.00 0.00 308.00 250.08" xmlns="http://www.w3.org/2000/svg" xmlns:xlink="http://www.w3.org/1999/xlink">
<g id="graph0" class="graph" transform="scale(1 1) rotate(0) translate(4 246.08)">
<title>repos_for_Dox/cFp_Zoo/ROLE/quantitative_finance/hls/common</title>
<g id="clust1" class="cluster">
<title>clusterdir_3048d46254c143ec18fb041f517208ab</title>
<g id="a_clust1"><a xlink:href="dir_3048d46254c143ec18fb041f517208ab.html" target="_top" xlink:title="hls">
<polygon fill="#ddddee" stroke="black" points="8,-56 8,-215 292,-215 292,-56 8,-56"/>
<text text-anchor="middle" x="150" y="-203" font-family="Helvetica,sans-Serif" font-size="10.00">hls</text>
</a>
</g>
</g>
<g id="clust2" class="cluster">
<title>clusterdir_4ab145607ff46c81a3464251f9b61dcb</title>
<g id="a_clust2"><a xlink:href="dir_4ab145607ff46c81a3464251f9b61dcb.html" target="_top">
<polygon fill="#eeeeff" stroke="black" points="16,-64 16,-188 164,-188 164,-64 16,-64"/>
</a>
</g>
</g>
<!-- dir_4a5cce8799bc098458869cabc79087c9 -->
<g id="node1" class="node">
<title>dir_4a5cce8799bc098458869cabc79087c9</title>
<g id="a_node1"><a xlink:href="dir_4a5cce8799bc098458869cabc79087c9.html" target="_top" xlink:title="mceuropeanengine">
<polygon fill="none" stroke="red" points="284,-180 174,-180 174,-144 284,-144 284,-180"/>
<text text-anchor="middle" x="229" y="-159.5" font-family="Helvetica,sans-Serif" font-size="10.00">mceuropeanengine</text>
</a>
</g>
</g>
<!-- dir_ae90f59c5b3618fc9bbd01625b4edce5 -->
<g id="node3" class="node">
<title>dir_ae90f59c5b3618fc9bbd01625b4edce5</title>
<g id="a_node3"><a xlink:href="dir_ae90f59c5b3618fc9bbd01625b4edce5.html" target="_top" xlink:title="include">
<polygon fill="white" stroke="black" points="156,-108 102,-108 102,-72 156,-72 156,-108"/>
<text text-anchor="middle" x="129" y="-87.5" font-family="Helvetica,sans-Serif" font-size="10.00">include</text>
</a>
</g>
</g>
<!-- dir_4a5cce8799bc098458869cabc79087c9&#45;&gt;dir_ae90f59c5b3618fc9bbd01625b4edce5 -->
<g id="edge1" class="edge">
<title>dir_4a5cce8799bc098458869cabc79087c9&#45;&gt;dir_ae90f59c5b3618fc9bbd01625b4edce5</title>
<path fill="none" stroke="black" d="M210.2,-143.7C197.37,-134.02 180.14,-121.89 164.8,-111.71"/>
<polygon fill="black" stroke="black" points="166.32,-108.52 156.04,-105.97 162.49,-114.37 166.32,-108.52"/>
<g id="a_edge1&#45;headlabel"><a xlink:href="dir_000231_000183.html" target="_top" xlink:title="1">
<text text-anchor="middle" x="170.88" y="-105.61" font-family="Helvetica,sans-Serif" font-size="10.00">1</text>
</a>
</g>
</g>
<!-- dir_9fbbff896f3644a79b0a4e2c097a9e7d -->
<g id="node4" class="node">
<title>dir_9fbbff896f3644a79b0a4e2c097a9e7d</title>
<g id="a_node4"><a xlink:href="dir_9fbbff896f3644a79b0a4e2c097a9e7d.html" target="_top" xlink:title="src">
<polygon fill="white" stroke="black" points="78,-180 24,-180 24,-144 78,-144 78,-180"/>
<text text-anchor="middle" x="51" y="-159.5" font-family="Helvetica,sans-Serif" font-size="10.00">src</text>
</a>
</g>
</g>
<!-- dir_4a5cce8799bc098458869cabc79087c9&#45;&gt;dir_9fbbff896f3644a79b0a4e2c097a9e7d -->
<g id="edge3" class="edge">
<title>dir_4a5cce8799bc098458869cabc79087c9&#45;&gt;dir_9fbbff896f3644a79b0a4e2c097a9e7d</title>
<path fill="none" stroke="black" d="M217.4,-180.28C205.24,-197.56 184.39,-222.38 159,-233 133.58,-243.64 121.21,-246.16 97,-233 80.01,-223.76 68.33,-205.25 60.99,-189.44"/>
<polygon fill="black" stroke="black" points="64.12,-187.87 56.97,-180.05 57.69,-190.62 64.12,-187.87"/>
<g id="a_edge3&#45;headlabel"><a xlink:href="dir_000231_000217.html" target="_top" xlink:title="1">
<text text-anchor="middle" x="68.15" y="-187.55" font-family="Helvetica,sans-Serif" font-size="10.00">1</text>
</a>
</g>
</g>
<!-- dir_23f0d356d1035ca2b48ed060bc32e928 -->
<g id="node5" class="node">
<title>dir_23f0d356d1035ca2b48ed060bc32e928</title>
<g id="a_node5"><a xlink:href="dir_23f0d356d1035ca2b48ed060bc32e928.html" target="_top" xlink:title="HOST">
<polygon fill="none" stroke="red" points="194,-36 140,-36 140,0 194,0 194,-36"/>
<text text-anchor="middle" x="167" y="-15.5" font-family="Helvetica,sans-Serif" font-size="10.00">HOST</text>
</a>
</g>
</g>
<!-- dir_4a5cce8799bc098458869cabc79087c9&#45;&gt;dir_23f0d356d1035ca2b48ed060bc32e928 -->
<g id="edge2" class="edge">
<title>dir_4a5cce8799bc098458869cabc79087c9&#45;&gt;dir_23f0d356d1035ca2b48ed060bc32e928</title>
<path fill="none" stroke="black" d="M221.52,-143.87C210.86,-119.46 191.2,-74.43 178.63,-45.64"/>
<polygon fill="black" stroke="black" points="181.71,-43.95 174.51,-36.19 175.3,-46.75 181.71,-43.95"/>
<g id="a_edge2&#45;headlabel"><a xlink:href="dir_000231_000139.html" target="_top" xlink:title="1">
<text text-anchor="middle" x="185.75" y="-43.61" font-family="Helvetica,sans-Serif" font-size="10.00">1</text>
</a>
</g>
</g>
<!-- dir_4ab145607ff46c81a3464251f9b61dcb -->
<g id="node2" class="node">
<title>dir_4ab145607ff46c81a3464251f9b61dcb</title>
<text text-anchor="middle" x="126" y="-159.5" font-family="Helvetica,sans-Serif" font-size="10.00">common</text>
</g>
<!-- dir_ae90f59c5b3618fc9bbd01625b4edce5&#45;&gt;dir_4a5cce8799bc098458869cabc79087c9 -->
<g id="edge5" class="edge">
<title>dir_ae90f59c5b3618fc9bbd01625b4edce5&#45;&gt;dir_4a5cce8799bc098458869cabc79087c9</title>
<path fill="none" stroke="black" d="M147.65,-108.19C159.68,-117.27 175.61,-128.53 190.22,-138.31"/>
<polygon fill="black" stroke="black" points="188.37,-141.28 198.64,-143.88 192.23,-135.44 188.37,-141.28"/>
<g id="a_edge5&#45;headlabel"><a xlink:href="dir_000183_000231.html" target="_top" xlink:title="1">
<text text-anchor="middle" x="183.8" y="-139.17" font-family="Helvetica,sans-Serif" font-size="10.00">1</text>
</a>
</g>
</g>
<!-- dir_ae90f59c5b3618fc9bbd01625b4edce5&#45;&gt;dir_23f0d356d1035ca2b48ed060bc32e928 -->
<g id="edge4" class="edge">
<title>dir_ae90f59c5b3618fc9bbd01625b4edce5&#45;&gt;dir_23f0d356d1035ca2b48ed060bc32e928</title>
<path fill="none" stroke="black" d="M138.39,-71.7C142.76,-63.64 148.06,-53.89 152.9,-44.98"/>
<polygon fill="black" stroke="black" points="156.02,-46.56 157.71,-36.1 149.87,-43.22 156.02,-46.56"/>
<g id="a_edge4&#45;headlabel"><a xlink:href="dir_000183_000139.html" target="_top" xlink:title="1">
<text text-anchor="middle" x="156.8" y="-48.58" font-family="Helvetica,sans-Serif" font-size="10.00">1</text>
</a>
</g>
</g>
<!-- dir_9fbbff896f3644a79b0a4e2c097a9e7d&#45;&gt;dir_ae90f59c5b3618fc9bbd01625b4edce5 -->
<g id="edge6" class="edge">
<title>dir_9fbbff896f3644a79b0a4e2c097a9e7d&#45;&gt;dir_ae90f59c5b3618fc9bbd01625b4edce5</title>
<path fill="none" stroke="black" d="M70.28,-143.7C79.92,-135.05 91.73,-124.45 102.23,-115.03"/>
<polygon fill="black" stroke="black" points="104.84,-117.39 109.94,-108.1 100.16,-112.18 104.84,-117.39"/>
<g id="a_edge6&#45;headlabel"><a xlink:href="dir_000217_000183.html" target="_top" xlink:title="1">
<text text-anchor="middle" x="104.06" y="-119.4" font-family="Helvetica,sans-Serif" font-size="10.00">1</text>
</a>
</g>
</g>
</g>
</svg>
