<?xml version="1.0" encoding="UTF-8" standalone="no"?>
<!DOCTYPE svg PUBLIC "-//W3C//DTD SVG 1.1//EN"
 "http://www.w3.org/Graphics/SVG/1.1/DTD/svg11.dtd">
<!-- Generated by graphviz version 2.43.0 (0)
 -->
<!-- Title: repos_for_Dox/cFDK/SRA/LIB/SHELL/LIB/hls/NTS/toe/test/dummy_memory/dummy_memory.cpp Pages: 1 -->
<!--zoomable 509 -->
<svg id="main" version="1.1" xmlns="http://www.w3.org/2000/svg" xmlns:xlink="http://www.w3.org/1999/xlink" xml:space="preserve" onload="init(evt)">
<style type="text/css"><![CDATA[
.edge:hover path { stroke: red; }
.edge:hover polygon { stroke: red; fill: red; }
]]></style>
<script type="text/javascript"><![CDATA[
var edges = document.getElementsByTagName('g');
if (edges && edges.length) {
  for (var i=0;i<edges.length;i++) {
    if (edges[i].id.substr(0,4)=='edge') {
      edges[i].setAttribute('class','edge');
    }
  }
}
]]></script>
        <defs>
                <circle id="rim" cx="0" cy="0" r="7"/>
                <circle id="rim2" cx="0" cy="0" r="3.5"/>
                <g id="zoomPlus">
                        <use xlink:href="#rim" fill="#404040">
                                <set attributeName="fill" to="#808080" begin="zoomplus.mouseover" end="zoomplus.mouseout"/>
                        </use>
                        <path d="M-4,0h8M0,-4v8" fill="none" stroke="white" stroke-width="1.5" pointer-events="none"/>
                </g>
                <g id="zoomMin">
                        <use xlink:href="#rim" fill="#404040">
                                <set attributeName="fill" to="#808080" begin="zoomminus.mouseover" end="zoomminus.mouseout"/>
                        </use>
                        <path d="M-4,0h8" fill="none" stroke="white" stroke-width="1.5" pointer-events="none"/>
                </g>
                <g id="dirArrow">
                        <path fill="none" stroke="white" stroke-width="1.5" d="M0,-3.0v7 M-2.5,-0.5L0,-3.0L2.5,-0.5"/>
                </g>
               <g id="resetDef">
                       <use xlink:href="#rim2" fill="#404040">
                               <set attributeName="fill" to="#808080" begin="reset.mouseover" end="reset.mouseout"/>
                       </use>
               </g>
        </defs>

<script type="text/javascript">
var viewWidth = 537;
var viewHeight = 509;
var sectionId = 'dynsection-0';
</script>
<script xlink:href="svgpan.js"/>
<svg id="graph" class="graph">
<g id="viewport">
<title>repos_for_Dox/cFDK/SRA/LIB/SHELL/LIB/hls/NTS/toe/test/dummy_memory/dummy_memory.cpp</title>
<!-- Node1 -->
<g id="node1" class="node">
<title>Node1</title>
<g id="a_node1"><a xlink:title=": A class to emulate the TCP buffer memory.">
<polygon fill="#bfbfbf" stroke="black" points="361.5,-448.5 361.5,-500.5 528.5,-500.5 528.5,-448.5 361.5,-448.5"/>
<text text-anchor="start" x="369.5" y="-488.5" font-family="Helvetica,sans-Serif" font-size="10.00">repos_for_Dox/cFDK</text>
<text text-anchor="start" x="369.5" y="-477.5" font-family="Helvetica,sans-Serif" font-size="10.00">/SRA/LIB/SHELL/LIB/hls</text>
<text text-anchor="start" x="369.5" y="-466.5" font-family="Helvetica,sans-Serif" font-size="10.00">/NTS/toe/test/dummy_memory</text>
<text text-anchor="middle" x="445" y="-455.5" font-family="Helvetica,sans-Serif" font-size="10.00">/dummy_memory.cpp</text>
</a>
</g>
</g>
<!-- Node2 -->
<g id="node2" class="node">
<title>Node2</title>
<g id="a_node2"><a xlink:href="dummy__memory_8hpp.html" target="_top" xlink:title=": A class to emulate the TCP buffer memory.">
<polygon fill="none" stroke="black" points="385,-392.5 385,-411.5 505,-411.5 505,-392.5 385,-392.5"/>
<text text-anchor="middle" x="445" y="-399.5" font-family="Helvetica,sans-Serif" font-size="10.00">dummy_memory.hpp</text>
</a>
</g>
</g>
<!-- Node1&#45;&gt;Node2 -->
<g id="edge1" class="edge">
<title>Node1&#45;&gt;Node2</title>
<path fill="none" stroke="midnightblue" d="M445,-448.45C445,-439.73 445,-430.1 445,-421.96"/>
<polygon fill="midnightblue" stroke="midnightblue" points="448.5,-421.7 445,-411.7 441.5,-421.7 448.5,-421.7"/>
</g>
<!-- Node3 -->
<g id="node3" class="node">
<title>Node3</title>
<g id="a_node3"><a xlink:href="nts_8hpp.html" target="_top" xlink:title=": Definition of the Network Transport Stack (NTS) component as if it was an HLS IP core.">
<polygon fill="none" stroke="black" points="285.5,-336.5 285.5,-355.5 396.5,-355.5 396.5,-336.5 285.5,-336.5"/>
<text text-anchor="middle" x="341" y="-343.5" font-family="Helvetica,sans-Serif" font-size="10.00">../../../../NTS/nts.hpp</text>
</a>
</g>
</g>
<!-- Node2&#45;&gt;Node3 -->
<g id="edge2" class="edge">
<title>Node2&#45;&gt;Node3</title>
<path fill="none" stroke="midnightblue" d="M428.29,-392.32C411.69,-383.7 386,-370.36 366.78,-360.39"/>
<polygon fill="midnightblue" stroke="midnightblue" points="368.16,-357.16 357.67,-355.65 364.93,-363.37 368.16,-357.16"/>
</g>
<!-- Node19 -->
<g id="node19" class="node">
<title>Node19</title>
<g id="a_node19"><a xlink:href="mem_8hpp.html" target="_top" xlink:title=": Memory Sub&#45;System (MEM) for the cloudFPGA shell.">
<polygon fill="none" stroke="black" points="224,-56.5 224,-75.5 350,-75.5 350,-56.5 224,-56.5"/>
<text text-anchor="middle" x="287" y="-63.5" font-family="Helvetica,sans-Serif" font-size="10.00">../../../../MEM/mem.hpp</text>
</a>
</g>
</g>
<!-- Node2&#45;&gt;Node19 -->
<g id="edge26" class="edge">
<title>Node2&#45;&gt;Node19</title>
<path fill="none" stroke="midnightblue" d="M445,-392.44C445,-373.94 445,-328.81 445,-291 445,-291 445,-291 445,-177 445,-146.9 446.97,-133.59 426,-112 408.52,-94.01 383.81,-83.21 360.06,-76.72"/>
<polygon fill="midnightblue" stroke="midnightblue" points="360.87,-73.31 350.32,-74.28 359.16,-80.1 360.87,-73.31"/>
</g>
<!-- Node20 -->
<g id="node20" class="node">
<title>Node20</title>
<g id="a_node20"><a xlink:title=" ">
<polygon fill="none" stroke="#bfbfbf" points="473,-336.5 473,-355.5 511,-355.5 511,-336.5 473,-336.5"/>
<text text-anchor="middle" x="492" y="-343.5" font-family="Helvetica,sans-Serif" font-size="10.00">map</text>
</a>
</g>
</g>
<!-- Node2&#45;&gt;Node20 -->
<g id="edge28" class="edge">
<title>Node2&#45;&gt;Node20</title>
<path fill="none" stroke="midnightblue" d="M452.76,-392.08C459.54,-384.3 469.54,-372.8 477.76,-363.37"/>
<polygon fill="midnightblue" stroke="midnightblue" points="480.46,-365.59 484.38,-355.75 475.18,-361 480.46,-365.59"/>
</g>
<!-- Node4 -->
<g id="node4" class="node">
<title>Node4</title>
<g id="a_node4"><a xlink:href="nts__types_8hpp.html" target="_top" xlink:title=": Definition of the types used by the Network Transport Stack (NTS) component of the cloudFPGA shell.">
<polygon fill="none" stroke="black" points="104.5,-280.5 104.5,-299.5 189.5,-299.5 189.5,-280.5 104.5,-280.5"/>
<text text-anchor="middle" x="147" y="-287.5" font-family="Helvetica,sans-Serif" font-size="10.00">nts_types.hpp</text>
</a>
</g>
</g>
<!-- Node3&#45;&gt;Node4 -->
<g id="edge3" class="edge">
<title>Node3&#45;&gt;Node4</title>
<path fill="none" stroke="midnightblue" d="M310.26,-336.44C277.06,-327.2 224.01,-312.44 187.44,-302.26"/>
<polygon fill="midnightblue" stroke="midnightblue" points="188.17,-298.83 177.6,-299.52 186.29,-305.57 188.17,-298.83"/>
</g>
<!-- Node16 -->
<g id="node16" class="node">
<title>Node16</title>
<g id="a_node16"><a xlink:href="nts__config_8hpp.html" target="_top" xlink:title=": Configuration parameters for the Network Transport Stack (NTS) component and sub&#45;components.">
<polygon fill="none" stroke="black" points="297.5,-280.5 297.5,-299.5 384.5,-299.5 384.5,-280.5 297.5,-280.5"/>
<text text-anchor="middle" x="341" y="-287.5" font-family="Helvetica,sans-Serif" font-size="10.00">nts_config.hpp</text>
</a>
</g>
</g>
<!-- Node3&#45;&gt;Node16 -->
<g id="edge23" class="edge">
<title>Node3&#45;&gt;Node16</title>
<path fill="none" stroke="midnightblue" d="M341,-336.08C341,-329.01 341,-318.86 341,-309.99"/>
<polygon fill="midnightblue" stroke="midnightblue" points="344.5,-309.75 341,-299.75 337.5,-309.75 344.5,-309.75"/>
</g>
<!-- Node5 -->
<g id="node5" class="node">
<title>Node5</title>
<g id="a_node5"><a xlink:title=" ">
<polygon fill="none" stroke="#bfbfbf" points="0,-0.5 0,-19.5 80,-19.5 80,-0.5 0,-0.5"/>
<text text-anchor="middle" x="40" y="-7.5" font-family="Helvetica,sans-Serif" font-size="10.00">hls_stream.h</text>
</a>
</g>
</g>
<!-- Node4&#45;&gt;Node5 -->
<g id="edge4" class="edge">
<title>Node4&#45;&gt;Node5</title>
<path fill="none" stroke="midnightblue" d="M115.75,-280.42C73.4,-266.66 3,-235.31 3,-179 3,-179 3,-179 3,-121 3,-86.89 19.18,-49.79 30.14,-28.57"/>
<polygon fill="midnightblue" stroke="midnightblue" points="33.36,-29.98 35.01,-19.51 27.19,-26.66 33.36,-29.98"/>
</g>
<!-- Node6 -->
<g id="node6" class="node">
<title>Node6</title>
<g id="a_node6"><a xlink:href="AxisEth_8hpp.html" target="_top" xlink:title=": A class to access an ETHernet data chunk transmitted over an AXI4&#45;Stream interface.">
<polygon fill="none" stroke="black" points="70,-224.5 70,-243.5 144,-243.5 144,-224.5 70,-224.5"/>
<text text-anchor="middle" x="107" y="-231.5" font-family="Helvetica,sans-Serif" font-size="10.00">AxisEth.hpp</text>
</a>
</g>
</g>
<!-- Node4&#45;&gt;Node6 -->
<g id="edge5" class="edge">
<title>Node4&#45;&gt;Node6</title>
<path fill="none" stroke="midnightblue" d="M140.39,-280.08C134.74,-272.46 126.46,-261.26 119.55,-251.94"/>
<polygon fill="midnightblue" stroke="midnightblue" points="122.25,-249.7 113.48,-243.75 116.62,-253.87 122.25,-249.7"/>
</g>
<!-- Node12 -->
<g id="node12" class="node">
<title>Node12</title>
<g id="a_node12"><a xlink:href="AxisIp4_8hpp.html" target="_top" xlink:title=": A class to access an IPv4 data chunk transmitted over an AXI4&#45;Stream interface.">
<polygon fill="none" stroke="black" points="163,-168.5 163,-187.5 237,-187.5 237,-168.5 163,-168.5"/>
<text text-anchor="middle" x="200" y="-175.5" font-family="Helvetica,sans-Serif" font-size="10.00">AxisIp4.hpp</text>
</a>
</g>
</g>
<!-- Node4&#45;&gt;Node12 -->
<g id="edge22" class="edge">
<title>Node4&#45;&gt;Node12</title>
<path fill="none" stroke="midnightblue" d="M151.16,-280.37C159.83,-262.38 179.98,-220.55 191.51,-196.63"/>
<polygon fill="midnightblue" stroke="midnightblue" points="194.67,-198.12 195.86,-187.59 188.37,-195.08 194.67,-198.12"/>
</g>
<!-- Node7 -->
<g id="node7" class="node">
<title>Node7</title>
<g id="a_node7"><a xlink:href="AxisRaw_8hpp.html" target="_top" xlink:title=": A generic class used by the Network&#45;Transport&#45;Stack (NTS) to to transfer a chunk of data over an AX...">
<polygon fill="none" stroke="black" points="112.5,-56.5 112.5,-75.5 191.5,-75.5 191.5,-56.5 112.5,-56.5"/>
<text text-anchor="middle" x="152" y="-63.5" font-family="Helvetica,sans-Serif" font-size="10.00">AxisRaw.hpp</text>
</a>
</g>
</g>
<!-- Node6&#45;&gt;Node7 -->
<g id="edge6" class="edge">
<title>Node6&#45;&gt;Node7</title>
<path fill="none" stroke="midnightblue" d="M92.92,-224.26C81.65,-216.35 66.65,-203.58 60,-188 56.51,-179.83 57.55,-176.54 60,-168 70.9,-129.99 106.62,-98.66 130.21,-81.42"/>
<polygon fill="midnightblue" stroke="midnightblue" points="132.42,-84.14 138.58,-75.52 128.39,-78.42 132.42,-84.14"/>
</g>
<!-- Node11 -->
<g id="node11" class="node">
<title>Node11</title>
<g id="a_node11"><a xlink:href="AxisArp_8hpp.html" target="_top" xlink:title=": A class to access an ARP data chunk transmitted over an AXI4&#45;Stream interface.">
<polygon fill="none" stroke="black" points="69.5,-168.5 69.5,-187.5 144.5,-187.5 144.5,-168.5 69.5,-168.5"/>
<text text-anchor="middle" x="107" y="-175.5" font-family="Helvetica,sans-Serif" font-size="10.00">AxisArp.hpp</text>
</a>
</g>
</g>
<!-- Node6&#45;&gt;Node11 -->
<g id="edge11" class="edge">
<title>Node6&#45;&gt;Node11</title>
<path fill="none" stroke="midnightblue" d="M101.83,-224.08C100.32,-216.93 99.89,-206.64 100.54,-197.69"/>
<polygon fill="midnightblue" stroke="midnightblue" points="104.02,-198.13 101.87,-187.75 97.08,-197.2 104.02,-198.13"/>
</g>
<!-- Node6&#45;&gt;Node12 -->
<g id="edge14" class="edge">
<title>Node6&#45;&gt;Node12</title>
<path fill="none" stroke="midnightblue" d="M121.94,-224.32C136.59,-215.82 159.13,-202.73 176.24,-192.8"/>
<polygon fill="midnightblue" stroke="midnightblue" points="178.2,-195.7 185.1,-187.65 174.69,-189.65 178.2,-195.7"/>
</g>
<!-- Node7&#45;&gt;Node5 -->
<g id="edge9" class="edge">
<title>Node7&#45;&gt;Node5</title>
<path fill="none" stroke="midnightblue" d="M134.01,-56.32C115.96,-47.62 87.95,-34.12 67.2,-24.11"/>
<polygon fill="midnightblue" stroke="midnightblue" points="68.48,-20.84 57.95,-19.65 65.44,-27.15 68.48,-20.84"/>
</g>
<!-- Node8 -->
<g id="node8" class="node">
<title>Node8</title>
<g id="a_node8"><a xlink:title=" ">
<polygon fill="none" stroke="#bfbfbf" points="105,-0.5 105,-19.5 157,-19.5 157,-0.5 105,-0.5"/>
<text text-anchor="middle" x="131" y="-7.5" font-family="Helvetica,sans-Serif" font-size="10.00">cassert</text>
</a>
</g>
</g>
<!-- Node7&#45;&gt;Node8 -->
<g id="edge7" class="edge">
<title>Node7&#45;&gt;Node8</title>
<path fill="none" stroke="midnightblue" d="M148.53,-56.08C145.69,-48.77 141.57,-38.18 138.04,-29.1"/>
<polygon fill="midnightblue" stroke="midnightblue" points="141.29,-27.8 134.4,-19.75 134.77,-30.34 141.29,-27.8"/>
</g>
<!-- Node9 -->
<g id="node9" class="node">
<title>Node9</title>
<g id="a_node9"><a xlink:title=" ">
<polygon fill="none" stroke="#bfbfbf" points="175,-0.5 175,-19.5 235,-19.5 235,-0.5 175,-0.5"/>
<text text-anchor="middle" x="205" y="-7.5" font-family="Helvetica,sans-Serif" font-size="10.00">iostream</text>
</a>
</g>
</g>
<!-- Node7&#45;&gt;Node9 -->
<g id="edge8" class="edge">
<title>Node7&#45;&gt;Node9</title>
<path fill="none" stroke="midnightblue" d="M160.75,-56.08C168.47,-48.22 179.9,-36.57 189.22,-27.08"/>
<polygon fill="midnightblue" stroke="midnightblue" points="191.9,-29.34 196.41,-19.75 186.91,-24.44 191.9,-29.34"/>
</g>
<!-- Node10 -->
<g id="node10" class="node">
<title>Node10</title>
<g id="a_node10"><a xlink:title=" ">
<polygon fill="none" stroke="#bfbfbf" points="257,-0.5 257,-19.5 313,-19.5 313,-0.5 257,-0.5"/>
<text text-anchor="middle" x="285" y="-7.5" font-family="Helvetica,sans-Serif" font-size="10.00">ap_int.h</text>
</a>
</g>
</g>
<!-- Node7&#45;&gt;Node10 -->
<g id="edge10" class="edge">
<title>Node7&#45;&gt;Node10</title>
<path fill="none" stroke="midnightblue" d="M173.07,-56.44C195.06,-47.52 229.73,-33.44 254.66,-23.32"/>
<polygon fill="midnightblue" stroke="midnightblue" points="256.08,-26.52 264.02,-19.52 253.44,-20.04 256.08,-26.52"/>
</g>
<!-- Node11&#45;&gt;Node6 -->
<g id="edge13" class="edge">
<title>Node11&#45;&gt;Node6</title>
<path fill="none" stroke="midnightblue" d="M112.13,-187.75C113.66,-194.86 114.1,-205.14 113.47,-214.1"/>
<polygon fill="midnightblue" stroke="midnightblue" points="109.99,-213.71 112.17,-224.08 116.93,-214.62 109.99,-213.71"/>
</g>
<!-- Node11&#45;&gt;Node7 -->
<g id="edge12" class="edge">
<title>Node11&#45;&gt;Node7</title>
<path fill="none" stroke="midnightblue" d="M103.99,-168.14C100.12,-155.2 94.81,-130.63 103,-112 108.39,-99.73 118.96,-89.34 128.9,-81.65"/>
<polygon fill="midnightblue" stroke="midnightblue" points="131.25,-84.27 137.34,-75.6 127.17,-78.58 131.25,-84.27"/>
</g>
<!-- Node12&#45;&gt;Node7 -->
<g id="edge15" class="edge">
<title>Node12&#45;&gt;Node7</title>
<path fill="none" stroke="midnightblue" d="M178.52,-168.36C163.61,-161.09 144.89,-149.12 136,-132 128.24,-117.06 134.38,-98.22 141.18,-84.67"/>
<polygon fill="midnightblue" stroke="midnightblue" points="144.27,-86.32 146.06,-75.88 138.15,-82.93 144.27,-86.32"/>
</g>
<!-- Node13 -->
<g id="node13" class="node">
<title>Node13</title>
<g id="a_node13"><a xlink:href="AxisIcmp_8hpp.html" target="_top" xlink:title=": A class to access ICMP header fields within data chunks transmitted over an AXI4&#45;Stream interface.">
<polygon fill="none" stroke="black" points="145.5,-112.5 145.5,-131.5 228.5,-131.5 228.5,-112.5 145.5,-112.5"/>
<text text-anchor="middle" x="187" y="-119.5" font-family="Helvetica,sans-Serif" font-size="10.00">AxisIcmp.hpp</text>
</a>
</g>
</g>
<!-- Node12&#45;&gt;Node13 -->
<g id="edge16" class="edge">
<title>Node12&#45;&gt;Node13</title>
<path fill="none" stroke="midnightblue" d="M197.85,-168.08C196.13,-160.93 193.65,-150.64 191.5,-141.69"/>
<polygon fill="midnightblue" stroke="midnightblue" points="194.85,-140.65 189.11,-131.75 188.04,-142.29 194.85,-140.65"/>
</g>
<!-- Node14 -->
<g id="node14" class="node">
<title>Node14</title>
<g id="a_node14"><a xlink:href="AxisTcp_8hpp.html" target="_top" xlink:title=": A class to access TCP header fields within data chunks transmitted over an AXI4&#45;Stream interface.">
<polygon fill="none" stroke="black" points="247,-112.5 247,-131.5 321,-131.5 321,-112.5 247,-112.5"/>
<text text-anchor="middle" x="284" y="-119.5" font-family="Helvetica,sans-Serif" font-size="10.00">AxisTcp.hpp</text>
</a>
</g>
</g>
<!-- Node12&#45;&gt;Node14 -->
<g id="edge18" class="edge">
<title>Node12&#45;&gt;Node14</title>
<path fill="none" stroke="midnightblue" d="M213.5,-168.32C226.6,-159.9 246.71,-146.97 262.11,-137.07"/>
<polygon fill="midnightblue" stroke="midnightblue" points="264.02,-140.01 270.54,-131.65 260.23,-134.12 264.02,-140.01"/>
</g>
<!-- Node15 -->
<g id="node15" class="node">
<title>Node15</title>
<g id="a_node15"><a xlink:href="AxisUdp_8hpp.html" target="_top" xlink:title=": A class to access UDP header fields within data chunks transmitted over an AXI4&#45;Stream interface.">
<polygon fill="none" stroke="black" points="339,-112.5 339,-131.5 417,-131.5 417,-112.5 339,-112.5"/>
<text text-anchor="middle" x="378" y="-119.5" font-family="Helvetica,sans-Serif" font-size="10.00">AxisUdp.hpp</text>
</a>
</g>
</g>
<!-- Node12&#45;&gt;Node15 -->
<g id="edge20" class="edge">
<title>Node12&#45;&gt;Node15</title>
<path fill="none" stroke="midnightblue" d="M228.2,-168.44C258.41,-159.28 306.51,-144.69 340.03,-134.52"/>
<polygon fill="midnightblue" stroke="midnightblue" points="341.37,-137.77 349.93,-131.52 339.34,-131.07 341.37,-137.77"/>
</g>
<!-- Node13&#45;&gt;Node7 -->
<g id="edge17" class="edge">
<title>Node13&#45;&gt;Node7</title>
<path fill="none" stroke="midnightblue" d="M181.22,-112.08C176.33,-104.53 169.17,-93.49 163.17,-84.23"/>
<polygon fill="midnightblue" stroke="midnightblue" points="166.05,-82.24 157.67,-75.75 160.17,-86.05 166.05,-82.24"/>
</g>
<!-- Node14&#45;&gt;Node7 -->
<g id="edge19" class="edge">
<title>Node14&#45;&gt;Node7</title>
<path fill="none" stroke="midnightblue" d="M263.08,-112.44C241.26,-103.52 206.85,-89.44 182.11,-79.32"/>
<polygon fill="midnightblue" stroke="midnightblue" points="183.4,-76.06 172.82,-75.52 180.75,-82.54 183.4,-76.06"/>
</g>
<!-- Node15&#45;&gt;Node7 -->
<g id="edge21" class="edge">
<title>Node15&#45;&gt;Node7</title>
<path fill="none" stroke="midnightblue" d="M342.19,-112.44C303.01,-103.08 240.12,-88.06 197.48,-77.87"/>
<polygon fill="midnightblue" stroke="midnightblue" points="198.18,-74.44 187.64,-75.52 196.56,-81.24 198.18,-74.44"/>
</g>
<!-- Node17 -->
<g id="node17" class="node">
<title>Node17</title>
<g id="a_node17"><a xlink:title=" ">
<polygon fill="none" stroke="#bfbfbf" points="269.5,-224.5 269.5,-243.5 322.5,-243.5 322.5,-224.5 269.5,-224.5"/>
<text text-anchor="middle" x="296" y="-231.5" font-family="Helvetica,sans-Serif" font-size="10.00">stdint.h</text>
</a>
</g>
</g>
<!-- Node16&#45;&gt;Node17 -->
<g id="edge24" class="edge">
<title>Node16&#45;&gt;Node17</title>
<path fill="none" stroke="midnightblue" d="M333.57,-280.08C327.15,-272.38 317.69,-261.03 309.88,-251.65"/>
<polygon fill="midnightblue" stroke="midnightblue" points="312.38,-249.19 303.29,-243.75 307.01,-253.67 312.38,-249.19"/>
</g>
<!-- Node18 -->
<g id="node18" class="node">
<title>Node18</title>
<g id="a_node18"><a xlink:title=" ">
<polygon fill="none" stroke="#bfbfbf" points="340.5,-224.5 340.5,-243.5 391.5,-243.5 391.5,-224.5 340.5,-224.5"/>
<text text-anchor="middle" x="366" y="-231.5" font-family="Helvetica,sans-Serif" font-size="10.00">math.h</text>
</a>
</g>
</g>
<!-- Node16&#45;&gt;Node18 -->
<g id="edge25" class="edge">
<title>Node16&#45;&gt;Node18</title>
<path fill="none" stroke="midnightblue" d="M345.13,-280.08C348.51,-272.77 353.42,-262.18 357.62,-253.1"/>
<polygon fill="midnightblue" stroke="midnightblue" points="360.92,-254.3 361.95,-243.75 354.57,-251.36 360.92,-254.3"/>
</g>
<!-- Node19&#45;&gt;Node10 -->
<g id="edge27" class="edge">
<title>Node19&#45;&gt;Node10</title>
<path fill="none" stroke="midnightblue" d="M286.67,-56.08C286.41,-49.01 286.03,-38.86 285.7,-29.99"/>
<polygon fill="midnightblue" stroke="midnightblue" points="289.19,-29.61 285.32,-19.75 282.2,-29.87 289.19,-29.61"/>
</g>
</g>
</svg>
        <g id="navigator" transform="translate(0 0)" fill="#404254">
                <rect fill="#f2f5e9" fill-opacity="0.5" stroke="#606060" stroke-width=".5" x="0" y="0" width="60" height="60"/>
                <use id="zoomplus" xlink:href="#zoomPlus" x="17" y="9" onmousedown="handleZoom(evt,'in')"/>
                <use id="zoomminus" xlink:href="#zoomMin" x="42" y="9" onmousedown="handleZoom(evt,'out')"/>
                <use id="reset" xlink:href="#resetDef" x="30" y="36" onmousedown="handleReset()"/>
                <g id="arrowUp" xlink:href="#dirArrow" transform="translate(30 24)" onmousedown="handlePan(0,-1)">
                  <use xlink:href="#rim" fill="#404040">
                        <set attributeName="fill" to="#808080" begin="arrowUp.mouseover" end="arrowUp.mouseout"/>
                  </use>
                  <path fill="none" stroke="white" stroke-width="1.5" d="M0,-3.0v7 M-2.5,-0.5L0,-3.0L2.5,-0.5"/>
                </g>
                <g id="arrowRight" xlink:href="#dirArrow" transform="rotate(90) translate(36 -43)" onmousedown="handlePan(1,0)">
                  <use xlink:href="#rim" fill="#404040">
                        <set attributeName="fill" to="#808080" begin="arrowRight.mouseover" end="arrowRight.mouseout"/>
                  </use>
                  <path fill="none" stroke="white" stroke-width="1.5" d="M0,-3.0v7 M-2.5,-0.5L0,-3.0L2.5,-0.5"/>
                </g>
                <g id="arrowDown" xlink:href="#dirArrow" transform="rotate(180) translate(-30 -48)" onmousedown="handlePan(0,1)">
                  <use xlink:href="#rim" fill="#404040">
                        <set attributeName="fill" to="#808080" begin="arrowDown.mouseover" end="arrowDown.mouseout"/>
                  </use>
                  <path fill="none" stroke="white" stroke-width="1.5" d="M0,-3.0v7 M-2.5,-0.5L0,-3.0L2.5,-0.5"/>
                </g>
                <g id="arrowLeft" xlink:href="#dirArrow" transform="rotate(270) translate(-36 17)" onmousedown="handlePan(-1,0)">
                  <use xlink:href="#rim" fill="#404040">
                        <set attributeName="fill" to="#808080" begin="arrowLeft.mouseover" end="arrowLeft.mouseout"/>
                  </use>
                  <path fill="none" stroke="white" stroke-width="1.5" d="M0,-3.0v7 M-2.5,-0.5L0,-3.0L2.5,-0.5"/>
                </g>
        </g>
        <svg viewBox="0 0 15 15" width="100%" height="30px" preserveAspectRatio="xMaxYMin meet">
         <g id="arrow_out" transform="scale(0.3 0.3)">
          <a xlink:href="dummy__memory_8cpp__incl_org.svg" target="_base">
           <rect id="button" ry="5" rx="5" y="6" x="6" height="38" width="38"
                fill="#f2f5e9" fill-opacity="0.5" stroke="#606060" stroke-width="1.0"/>
           <path id="arrow"
             d="M 11.500037,31.436501 C 11.940474,20.09759 22.043105,11.32322 32.158766,21.979434 L 37.068811,17.246167 C 37.068811,17.246167 37.088388,32 37.088388,32 L 22.160133,31.978069 C 22.160133,31.978069 26.997745,27.140456 26.997745,27.140456 C 18.528582,18.264221 13.291696,25.230495 11.500037,31.436501 z"
             style="fill:#404040;"/>
          </a>
         </g>
        </svg>
</svg>
