<?xml version="1.0" encoding="UTF-8" standalone="no"?>
<!DOCTYPE svg PUBLIC "-//W3C//DTD SVG 1.1//EN"
 "http://www.w3.org/Graphics/SVG/1.1/DTD/svg11.dtd">
<!-- Generated by graphviz version 2.43.0 (0)
 -->
<!-- Title: repos_for_Dox/cFp_Zoo/ROLE/vision/hls/gammacorrection/include/xf_gammacorrection_config.h Pages: 1 -->
<svg width="951pt" height="139pt"
 viewBox="0.00 0.00 951.00 139.00" xmlns="http://www.w3.org/2000/svg" xmlns:xlink="http://www.w3.org/1999/xlink">
<g id="graph0" class="graph" transform="scale(1 1) rotate(0) translate(4 135)">
<title>repos_for_Dox/cFp_Zoo/ROLE/vision/hls/gammacorrection/include/xf_gammacorrection_config.h</title>
<!-- Node1 -->
<g id="node1" class="node">
<title>Node1</title>
<g id="a_node1"><a xlink:title="The Gammacorrection configuration header.">
<polygon fill="#bfbfbf" stroke="black" points="302,-78.5 302,-130.5 486,-130.5 486,-78.5 302,-78.5"/>
<text text-anchor="start" x="310" y="-118.5" font-family="Helvetica,sans-Serif" font-size="10.00">repos_for_Dox/cFp_Zoo</text>
<text text-anchor="start" x="310" y="-107.5" font-family="Helvetica,sans-Serif" font-size="10.00">/ROLE/vision/hls/gammacorrection</text>
<text text-anchor="start" x="310" y="-96.5" font-family="Helvetica,sans-Serif" font-size="10.00">/include/xf_gammacorrection</text>
<text text-anchor="middle" x="394" y="-85.5" font-family="Helvetica,sans-Serif" font-size="10.00">_config.h</text>
</a>
</g>
</g>
<!-- Node2 -->
<g id="node2" class="node">
<title>Node2</title>
<g id="a_node2"><a xlink:title=" ">
<polygon fill="none" stroke="#bfbfbf" points="0,-11.5 0,-30.5 80,-30.5 80,-11.5 0,-11.5"/>
<text text-anchor="middle" x="40" y="-18.5" font-family="Helvetica,sans-Serif" font-size="10.00">hls_stream.h</text>
</a>
</g>
</g>
<!-- Node1&#45;&gt;Node2 -->
<g id="edge1" class="edge">
<title>Node1&#45;&gt;Node2</title>
<path fill="none" stroke="midnightblue" d="M301.8,-89.57C240.71,-79.21 159.2,-63.2 89,-42 82.14,-39.93 74.92,-37.27 68.19,-34.56"/>
<polygon fill="midnightblue" stroke="midnightblue" points="69.36,-31.26 58.78,-30.64 66.66,-37.72 69.36,-31.26"/>
</g>
<!-- Node3 -->
<g id="node3" class="node">
<title>Node3</title>
<g id="a_node3"><a xlink:title=" ">
<polygon fill="none" stroke="#bfbfbf" points="98,-11.5 98,-30.5 154,-30.5 154,-11.5 98,-11.5"/>
<text text-anchor="middle" x="126" y="-18.5" font-family="Helvetica,sans-Serif" font-size="10.00">ap_int.h</text>
</a>
</g>
</g>
<!-- Node1&#45;&gt;Node3 -->
<g id="edge2" class="edge">
<title>Node1&#45;&gt;Node3</title>
<path fill="none" stroke="midnightblue" d="M301.89,-84.24C258.92,-73.93 207.55,-59.68 163,-42 158.33,-40.14 153.49,-37.84 148.91,-35.46"/>
<polygon fill="midnightblue" stroke="midnightblue" points="150.48,-32.33 140.03,-30.6 147.12,-38.47 150.48,-32.33"/>
</g>
<!-- Node4 -->
<g id="node4" class="node">
<title>Node4</title>
<g id="a_node4"><a xlink:title=" ">
<polygon fill="none" stroke="#bfbfbf" points="172.5,-11.5 172.5,-30.5 313.5,-30.5 313.5,-11.5 172.5,-11.5"/>
<text text-anchor="middle" x="243" y="-18.5" font-family="Helvetica,sans-Serif" font-size="10.00">common/xf_common.hpp</text>
</a>
</g>
</g>
<!-- Node1&#45;&gt;Node4 -->
<g id="edge3" class="edge">
<title>Node1&#45;&gt;Node4</title>
<path fill="none" stroke="midnightblue" d="M347.46,-78.38C321.19,-64.2 289.41,-47.05 267.85,-35.41"/>
<polygon fill="midnightblue" stroke="midnightblue" points="269.47,-32.31 259.01,-30.64 266.14,-38.47 269.47,-32.31"/>
</g>
<!-- Node5 -->
<g id="node5" class="node">
<title>Node5</title>
<g id="a_node5"><a xlink:title=" ">
<polygon fill="none" stroke="#bfbfbf" points="331.5,-11.5 331.5,-30.5 456.5,-30.5 456.5,-11.5 331.5,-11.5"/>
<text text-anchor="middle" x="394" y="-18.5" font-family="Helvetica,sans-Serif" font-size="10.00">common/xf_utility.hpp</text>
</a>
</g>
</g>
<!-- Node1&#45;&gt;Node5 -->
<g id="edge4" class="edge">
<title>Node1&#45;&gt;Node5</title>
<path fill="none" stroke="midnightblue" d="M394,-78.16C394,-66.09 394,-51.91 394,-40.81"/>
<polygon fill="midnightblue" stroke="midnightblue" points="397.5,-40.59 394,-30.59 390.5,-40.59 397.5,-40.59"/>
</g>
<!-- Node6 -->
<g id="node6" class="node">
<title>Node6</title>
<g id="a_node6"><a xlink:href="gammacorrection_2include_2xf__config__params_8h.html" target="_top" xlink:title="The Gammacorrection IP configuration header.">
<polygon fill="none" stroke="black" points="475,-11.5 475,-30.5 587,-30.5 587,-11.5 475,-11.5"/>
<text text-anchor="middle" x="531" y="-18.5" font-family="Helvetica,sans-Serif" font-size="10.00">xf_config_params.h</text>
</a>
</g>
</g>
<!-- Node1&#45;&gt;Node6 -->
<g id="edge5" class="edge">
<title>Node1&#45;&gt;Node6</title>
<path fill="none" stroke="midnightblue" d="M436.22,-78.38C459.73,-64.39 488.12,-47.51 507.66,-35.89"/>
<polygon fill="midnightblue" stroke="midnightblue" points="509.67,-38.76 516.48,-30.64 506.09,-32.74 509.67,-38.76"/>
</g>
<!-- Node7 -->
<g id="node7" class="node">
<title>Node7</title>
<g id="a_node7"><a xlink:href="vision_2gammacorrection_2include_2config_8h.html" target="_top" xlink:title="The configuration of a Gammacorrection Example application (UDP or TCP)">
<polygon fill="none" stroke="black" points="605,-0.5 605,-41.5 743,-41.5 743,-0.5 605,-0.5"/>
<text text-anchor="start" x="613" y="-29.5" font-family="Helvetica,sans-Serif" font-size="10.00">../../../../../HOST</text>
<text text-anchor="start" x="613" y="-18.5" font-family="Helvetica,sans-Serif" font-size="10.00">/vision/gammacorrection</text>
<text text-anchor="middle" x="674" y="-7.5" font-family="Helvetica,sans-Serif" font-size="10.00">/include/config.h</text>
</a>
</g>
</g>
<!-- Node1&#45;&gt;Node7 -->
<g id="edge6" class="edge">
<title>Node1&#45;&gt;Node7</title>
<path fill="none" stroke="midnightblue" d="M479.91,-78.49C517.24,-67.63 560.62,-55 596.89,-44.44"/>
<polygon fill="midnightblue" stroke="midnightblue" points="598.3,-47.68 606.92,-41.52 596.34,-40.96 598.3,-47.68"/>
</g>
<!-- Node8 -->
<g id="node8" class="node">
<title>Node8</title>
<g id="a_node8"><a xlink:title=" ">
<polygon fill="none" stroke="#bfbfbf" points="761,-11.5 761,-30.5 943,-30.5 943,-11.5 761,-11.5"/>
<text text-anchor="middle" x="852" y="-18.5" font-family="Helvetica,sans-Serif" font-size="10.00">imgproc/xf_gammacorrection.hpp</text>
</a>
</g>
</g>
<!-- Node1&#45;&gt;Node8 -->
<g id="edge7" class="edge">
<title>Node1&#45;&gt;Node8</title>
<path fill="none" stroke="midnightblue" d="M486.1,-88.39C558.48,-76.34 661.79,-58.77 752,-42 767.85,-39.05 785.08,-35.67 800.69,-32.54"/>
<polygon fill="midnightblue" stroke="midnightblue" points="801.58,-35.93 810.69,-30.52 800.2,-29.07 801.58,-35.93"/>
</g>
</g>
</svg>
