<?xml version="1.0" encoding="UTF-8" standalone="no"?>
<!DOCTYPE svg PUBLIC "-//W3C//DTD SVG 1.1//EN"
 "http://www.w3.org/Graphics/SVG/1.1/DTD/svg11.dtd">
<!-- Generated by graphviz version 2.43.0 (0)
 -->
<!-- Title: repos_for_Dox/cFp_Zoo/HOST/vision/gammacorrection/src/gammacorrection_host.cpp Pages: 1 -->
<svg width="918pt" height="184pt"
 viewBox="0.00 0.00 917.50 184.00" xmlns="http://www.w3.org/2000/svg" xmlns:xlink="http://www.w3.org/1999/xlink">
<g id="graph0" class="graph" transform="scale(1 1) rotate(0) translate(4 180)">
<title>repos_for_Dox/cFp_Zoo/HOST/vision/gammacorrection/src/gammacorrection_host.cpp</title>
<!-- Node1 -->
<g id="node1" class="node">
<title>Node1</title>
<g id="a_node1"><a xlink:title="Gammacorrection userspace application for cF (x86, ppc64).">
<polygon fill="#bfbfbf" stroke="black" points="225,-134.5 225,-175.5 395,-175.5 395,-134.5 225,-134.5"/>
<text text-anchor="start" x="233" y="-163.5" font-family="Helvetica,sans-Serif" font-size="10.00">repos_for_Dox/cFp_Zoo</text>
<text text-anchor="start" x="233" y="-152.5" font-family="Helvetica,sans-Serif" font-size="10.00">/HOST/vision/gammacorrection</text>
<text text-anchor="middle" x="310" y="-141.5" font-family="Helvetica,sans-Serif" font-size="10.00">/src/gammacorrection_host.cpp</text>
</a>
</g>
</g>
<!-- Node2 -->
<g id="node2" class="node">
<title>Node2</title>
<g id="a_node2"><a xlink:title=" ">
<polygon fill="none" stroke="#bfbfbf" points="0,-67.5 0,-86.5 50,-86.5 50,-67.5 0,-67.5"/>
<text text-anchor="middle" x="25" y="-74.5" font-family="Helvetica,sans-Serif" font-size="10.00">stdio.h</text>
</a>
</g>
</g>
<!-- Node1&#45;&gt;Node2 -->
<g id="edge1" class="edge">
<title>Node1&#45;&gt;Node2</title>
<path fill="none" stroke="midnightblue" d="M224.95,-141.83C175.41,-133.07 112.37,-119.05 59,-98 54.65,-96.29 50.21,-94.07 46.03,-91.73"/>
<polygon fill="midnightblue" stroke="midnightblue" points="47.81,-88.72 37.43,-86.59 44.22,-94.72 47.81,-88.72"/>
</g>
<!-- Node3 -->
<g id="node3" class="node">
<title>Node3</title>
<g id="a_node3"><a xlink:title=" ">
<polygon fill="none" stroke="#bfbfbf" points="68,-67.5 68,-86.5 128,-86.5 128,-67.5 68,-67.5"/>
<text text-anchor="middle" x="98" y="-74.5" font-family="Helvetica,sans-Serif" font-size="10.00">iostream</text>
</a>
</g>
</g>
<!-- Node1&#45;&gt;Node3 -->
<g id="edge2" class="edge">
<title>Node1&#45;&gt;Node3</title>
<path fill="none" stroke="midnightblue" d="M242.18,-134.48C210.18,-124.62 171.7,-111.82 138,-98 133.01,-95.95 127.78,-93.54 122.81,-91.12"/>
<polygon fill="midnightblue" stroke="midnightblue" points="124.21,-87.91 113.71,-86.53 121.06,-94.16 124.21,-87.91"/>
</g>
<!-- Node4 -->
<g id="node4" class="node">
<title>Node4</title>
<g id="a_node4"><a xlink:title=" ">
<polygon fill="none" stroke="#bfbfbf" points="146.5,-67.5 146.5,-86.5 195.5,-86.5 195.5,-67.5 146.5,-67.5"/>
<text text-anchor="middle" x="171" y="-74.5" font-family="Helvetica,sans-Serif" font-size="10.00">cstdlib</text>
</a>
</g>
</g>
<!-- Node1&#45;&gt;Node4 -->
<g id="edge3" class="edge">
<title>Node1&#45;&gt;Node4</title>
<path fill="none" stroke="midnightblue" d="M272.38,-134.42C252.27,-123.84 227.17,-110.42 205,-98 201.41,-95.99 197.62,-93.81 193.94,-91.67"/>
<polygon fill="midnightblue" stroke="midnightblue" points="195.54,-88.55 185.15,-86.5 192,-94.59 195.54,-88.55"/>
</g>
<!-- Node5 -->
<g id="node5" class="node">
<title>Node5</title>
<g id="a_node5"><a xlink:title=" ">
<polygon fill="none" stroke="#bfbfbf" points="214,-67.5 214,-86.5 270,-86.5 270,-67.5 214,-67.5"/>
<text text-anchor="middle" x="242" y="-74.5" font-family="Helvetica,sans-Serif" font-size="10.00">assert.h</text>
</a>
</g>
</g>
<!-- Node1&#45;&gt;Node5 -->
<g id="edge4" class="edge">
<title>Node1&#45;&gt;Node5</title>
<path fill="none" stroke="midnightblue" d="M292.49,-134.43C281.34,-121.97 267.08,-106.03 256.55,-94.27"/>
<polygon fill="midnightblue" stroke="midnightblue" points="258.93,-91.67 249.65,-86.55 253.71,-96.34 258.93,-91.67"/>
</g>
<!-- Node6 -->
<g id="node6" class="node">
<title>Node6</title>
<g id="a_node6"><a xlink:title=" ">
<polygon fill="none" stroke="#bfbfbf" points="288,-67.5 288,-86.5 332,-86.5 332,-67.5 288,-67.5"/>
<text text-anchor="middle" x="310" y="-74.5" font-family="Helvetica,sans-Serif" font-size="10.00">string</text>
</a>
</g>
</g>
<!-- Node1&#45;&gt;Node6 -->
<g id="edge5" class="edge">
<title>Node1&#45;&gt;Node6</title>
<path fill="none" stroke="midnightblue" d="M310,-134.43C310,-122.82 310,-108.18 310,-96.72"/>
<polygon fill="midnightblue" stroke="midnightblue" points="313.5,-96.55 310,-86.55 306.5,-96.55 313.5,-96.55"/>
</g>
<!-- Node7 -->
<g id="node7" class="node">
<title>Node7</title>
<g id="a_node7"><a xlink:title=" ">
<polygon fill="none" stroke="#bfbfbf" points="350.5,-62 350.5,-92 475.5,-92 475.5,-62 350.5,-62"/>
<text text-anchor="start" x="358.5" y="-80" font-family="Helvetica,sans-Serif" font-size="10.00">../../../PracticalSockets</text>
<text text-anchor="middle" x="413" y="-69" font-family="Helvetica,sans-Serif" font-size="10.00">/src/PracticalSockets.h</text>
</a>
</g>
</g>
<!-- Node1&#45;&gt;Node7 -->
<g id="edge6" class="edge">
<title>Node1&#45;&gt;Node7</title>
<path fill="none" stroke="midnightblue" d="M336.53,-134.43C351.47,-123.4 370.12,-109.64 385.27,-98.46"/>
<polygon fill="midnightblue" stroke="midnightblue" points="387.75,-100.98 393.72,-92.23 383.6,-95.35 387.75,-100.98"/>
</g>
<!-- Node8 -->
<g id="node8" class="node">
<title>Node8</title>
<g id="a_node8"><a xlink:href="vision_2gammacorrection_2include_2config_8h.html" target="_top" xlink:title="The configuration of a Gammacorrection Example application (UDP or TCP)">
<polygon fill="none" stroke="black" points="494,-67.5 494,-86.5 596,-86.5 596,-67.5 494,-67.5"/>
<text text-anchor="middle" x="545" y="-74.5" font-family="Helvetica,sans-Serif" font-size="10.00">../include/config.h</text>
</a>
</g>
</g>
<!-- Node1&#45;&gt;Node8 -->
<g id="edge7" class="edge">
<title>Node1&#45;&gt;Node8</title>
<path fill="none" stroke="midnightblue" d="M371.61,-134.48C405.17,-123.8 447.4,-110.28 485,-98 493.09,-95.36 501.78,-92.48 509.96,-89.76"/>
<polygon fill="midnightblue" stroke="midnightblue" points="511.25,-93.02 519.62,-86.53 509.03,-86.38 511.25,-93.02"/>
</g>
<!-- Node9 -->
<g id="node9" class="node">
<title>Node9</title>
<g id="a_node9"><a xlink:title=" ">
<polygon fill="none" stroke="#bfbfbf" points="614,-67.5 614,-86.5 730,-86.5 730,-67.5 614,-67.5"/>
<text text-anchor="middle" x="672" y="-74.5" font-family="Helvetica,sans-Serif" font-size="10.00">opencv2/opencv.hpp</text>
</a>
</g>
</g>
<!-- Node1&#45;&gt;Node9 -->
<g id="edge8" class="edge">
<title>Node1&#45;&gt;Node9</title>
<path fill="none" stroke="midnightblue" d="M395.06,-140.23C454.26,-130.07 534.85,-115.08 605,-98 615.17,-95.52 626.1,-92.44 636.11,-89.45"/>
<polygon fill="midnightblue" stroke="midnightblue" points="637.21,-92.77 645.76,-86.51 635.17,-86.08 637.21,-92.77"/>
</g>
<!-- Node10 -->
<g id="node10" class="node">
<title>Node10</title>
<g id="a_node10"><a xlink:href="gammacorrection_2include_2xf__ocv__ref_8hpp.html" target="_top" xlink:title="The Gammacorrection reference functions used in TB.">
<polygon fill="none" stroke="black" points="748.5,-56.5 748.5,-97.5 909.5,-97.5 909.5,-56.5 748.5,-56.5"/>
<text text-anchor="start" x="756.5" y="-85.5" font-family="Helvetica,sans-Serif" font-size="10.00">../../../../ROLE/vision</text>
<text text-anchor="start" x="756.5" y="-74.5" font-family="Helvetica,sans-Serif" font-size="10.00">/hls/gammacorrection/include</text>
<text text-anchor="middle" x="829" y="-63.5" font-family="Helvetica,sans-Serif" font-size="10.00">/xf_ocv_ref.hpp</text>
</a>
</g>
</g>
<!-- Node1&#45;&gt;Node10 -->
<g id="edge9" class="edge">
<title>Node1&#45;&gt;Node10</title>
<path fill="none" stroke="midnightblue" d="M395.4,-145.12C479.93,-135.8 613.2,-119.74 738,-98.1"/>
<polygon fill="midnightblue" stroke="midnightblue" points="738.87,-101.5 748.11,-96.33 737.66,-94.61 738.87,-101.5"/>
</g>
<!-- Node11 -->
<g id="node11" class="node">
<title>Node11</title>
<g id="a_node11"><a xlink:href="gammacorrection_2include_2xf__config__params_8h.html" target="_top" xlink:title="The Gammacorrection IP configuration header.">
<polygon fill="none" stroke="black" points="773,-0.5 773,-19.5 885,-19.5 885,-0.5 773,-0.5"/>
<text text-anchor="middle" x="829" y="-7.5" font-family="Helvetica,sans-Serif" font-size="10.00">xf_config_params.h</text>
</a>
</g>
</g>
<!-- Node10&#45;&gt;Node11 -->
<g id="edge10" class="edge">
<title>Node10&#45;&gt;Node11</title>
<path fill="none" stroke="midnightblue" d="M829,-56.5C829,-48.07 829,-38.24 829,-29.87"/>
<polygon fill="midnightblue" stroke="midnightblue" points="832.5,-29.65 829,-19.65 825.5,-29.65 832.5,-29.65"/>
</g>
</g>
</svg>
