<?xml version="1.0" encoding="UTF-8" standalone="no"?>
<!DOCTYPE svg PUBLIC "-//W3C//DTD SVG 1.1//EN"
 "http://www.w3.org/Graphics/SVG/1.1/DTD/svg11.dtd">
<!-- Generated by graphviz version 2.43.0 (0)
 -->
<!-- Title: repos_for_Dox/cFp_Zoo/ROLE/vision/hls/gammacorrection/include/xf_gammacorrection_config.h Pages: 1 -->
<!--zoomable 139 -->
<svg id="main" version="1.1" xmlns="http://www.w3.org/2000/svg" xmlns:xlink="http://www.w3.org/1999/xlink" xml:space="preserve" onload="init(evt)">
<style type="text/css"><![CDATA[
.edge:hover path { stroke: red; }
.edge:hover polygon { stroke: red; fill: red; }
]]></style>
<script type="text/javascript"><![CDATA[
var edges = document.getElementsByTagName('g');
if (edges && edges.length) {
  for (var i=0;i<edges.length;i++) {
    if (edges[i].id.substr(0,4)=='edge') {
      edges[i].setAttribute('class','edge');
    }
  }
}
]]></script>
        <defs>
                <circle id="rim" cx="0" cy="0" r="7"/>
                <circle id="rim2" cx="0" cy="0" r="3.5"/>
                <g id="zoomPlus">
                        <use xlink:href="#rim" fill="#404040">
                                <set attributeName="fill" to="#808080" begin="zoomplus.mouseover" end="zoomplus.mouseout"/>
                        </use>
                        <path d="M-4,0h8M0,-4v8" fill="none" stroke="white" stroke-width="1.5" pointer-events="none"/>
                </g>
                <g id="zoomMin">
                        <use xlink:href="#rim" fill="#404040">
                                <set attributeName="fill" to="#808080" begin="zoomminus.mouseover" end="zoomminus.mouseout"/>
                        </use>
                        <path d="M-4,0h8" fill="none" stroke="white" stroke-width="1.5" pointer-events="none"/>
                </g>
                <g id="dirArrow">
                        <path fill="none" stroke="white" stroke-width="1.5" d="M0,-3.0v7 M-2.5,-0.5L0,-3.0L2.5,-0.5"/>
                </g>
               <g id="resetDef">
                       <use xlink:href="#rim2" fill="#404040">
                               <set attributeName="fill" to="#808080" begin="reset.mouseover" end="reset.mouseout"/>
                       </use>
               </g>
        </defs>

<script type="text/javascript">
var viewWidth = 951;
var viewHeight = 139;
var sectionId = 'dynsection-0';
</script>
<script xlink:href="svgpan.js"/>
<svg id="graph" class="graph">
<g id="viewport">
<title>repos_for_Dox/cFp_Zoo/ROLE/vision/hls/gammacorrection/include/xf_gammacorrection_config.h</title>
<!-- Node1 -->
<g id="node1" class="node">
<title>Node1</title>
<g id="a_node1"><a xlink:title="The Gammacorrection configuration header.">
<polygon fill="#bfbfbf" stroke="black" points="302,-78.5 302,-130.5 486,-130.5 486,-78.5 302,-78.5"/>
<text text-anchor="start" x="310" y="-118.5" font-family="Helvetica,sans-Serif" font-size="10.00">repos_for_Dox/cFp_Zoo</text>
<text text-anchor="start" x="310" y="-107.5" font-family="Helvetica,sans-Serif" font-size="10.00">/ROLE/vision/hls/gammacorrection</text>
<text text-anchor="start" x="310" y="-96.5" font-family="Helvetica,sans-Serif" font-size="10.00">/include/xf_gammacorrection</text>
<text text-anchor="middle" x="394" y="-85.5" font-family="Helvetica,sans-Serif" font-size="10.00">_config.h</text>
</a>
</g>
</g>
<!-- Node2 -->
<g id="node2" class="node">
<title>Node2</title>
<g id="a_node2"><a xlink:title=" ">
<polygon fill="none" stroke="#bfbfbf" points="0,-11.5 0,-30.5 80,-30.5 80,-11.5 0,-11.5"/>
<text text-anchor="middle" x="40" y="-18.5" font-family="Helvetica,sans-Serif" font-size="10.00">hls_stream.h</text>
</a>
</g>
</g>
<!-- Node1&#45;&gt;Node2 -->
<g id="edge1" class="edge">
<title>Node1&#45;&gt;Node2</title>
<path fill="none" stroke="midnightblue" d="M301.8,-89.57C240.71,-79.21 159.2,-63.2 89,-42 82.14,-39.93 74.92,-37.27 68.19,-34.56"/>
<polygon fill="midnightblue" stroke="midnightblue" points="69.36,-31.26 58.78,-30.64 66.66,-37.72 69.36,-31.26"/>
</g>
<!-- Node3 -->
<g id="node3" class="node">
<title>Node3</title>
<g id="a_node3"><a xlink:title=" ">
<polygon fill="none" stroke="#bfbfbf" points="98,-11.5 98,-30.5 154,-30.5 154,-11.5 98,-11.5"/>
<text text-anchor="middle" x="126" y="-18.5" font-family="Helvetica,sans-Serif" font-size="10.00">ap_int.h</text>
</a>
</g>
</g>
<!-- Node1&#45;&gt;Node3 -->
<g id="edge2" class="edge">
<title>Node1&#45;&gt;Node3</title>
<path fill="none" stroke="midnightblue" d="M301.89,-84.24C258.92,-73.93 207.55,-59.68 163,-42 158.33,-40.14 153.49,-37.84 148.91,-35.46"/>
<polygon fill="midnightblue" stroke="midnightblue" points="150.48,-32.33 140.03,-30.6 147.12,-38.47 150.48,-32.33"/>
</g>
<!-- Node4 -->
<g id="node4" class="node">
<title>Node4</title>
<g id="a_node4"><a xlink:title=" ">
<polygon fill="none" stroke="#bfbfbf" points="172.5,-11.5 172.5,-30.5 313.5,-30.5 313.5,-11.5 172.5,-11.5"/>
<text text-anchor="middle" x="243" y="-18.5" font-family="Helvetica,sans-Serif" font-size="10.00">common/xf_common.hpp</text>
</a>
</g>
</g>
<!-- Node1&#45;&gt;Node4 -->
<g id="edge3" class="edge">
<title>Node1&#45;&gt;Node4</title>
<path fill="none" stroke="midnightblue" d="M347.46,-78.38C321.19,-64.2 289.41,-47.05 267.85,-35.41"/>
<polygon fill="midnightblue" stroke="midnightblue" points="269.47,-32.31 259.01,-30.64 266.14,-38.47 269.47,-32.31"/>
</g>
<!-- Node5 -->
<g id="node5" class="node">
<title>Node5</title>
<g id="a_node5"><a xlink:title=" ">
<polygon fill="none" stroke="#bfbfbf" points="331.5,-11.5 331.5,-30.5 456.5,-30.5 456.5,-11.5 331.5,-11.5"/>
<text text-anchor="middle" x="394" y="-18.5" font-family="Helvetica,sans-Serif" font-size="10.00">common/xf_utility.hpp</text>
</a>
</g>
</g>
<!-- Node1&#45;&gt;Node5 -->
<g id="edge4" class="edge">
<title>Node1&#45;&gt;Node5</title>
<path fill="none" stroke="midnightblue" d="M394,-78.16C394,-66.09 394,-51.91 394,-40.81"/>
<polygon fill="midnightblue" stroke="midnightblue" points="397.5,-40.59 394,-30.59 390.5,-40.59 397.5,-40.59"/>
</g>
<!-- Node6 -->
<g id="node6" class="node">
<title>Node6</title>
<g id="a_node6"><a xlink:href="gammacorrection_2include_2xf__config__params_8h.html" target="_top" xlink:title="The Gammacorrection IP configuration header.">
<polygon fill="none" stroke="black" points="475,-11.5 475,-30.5 587,-30.5 587,-11.5 475,-11.5"/>
<text text-anchor="middle" x="531" y="-18.5" font-family="Helvetica,sans-Serif" font-size="10.00">xf_config_params.h</text>
</a>
</g>
</g>
<!-- Node1&#45;&gt;Node6 -->
<g id="edge5" class="edge">
<title>Node1&#45;&gt;Node6</title>
<path fill="none" stroke="midnightblue" d="M436.22,-78.38C459.73,-64.39 488.12,-47.51 507.66,-35.89"/>
<polygon fill="midnightblue" stroke="midnightblue" points="509.67,-38.76 516.48,-30.64 506.09,-32.74 509.67,-38.76"/>
</g>
<!-- Node7 -->
<g id="node7" class="node">
<title>Node7</title>
<g id="a_node7"><a xlink:href="vision_2gammacorrection_2include_2config_8h.html" target="_top" xlink:title="The configuration of a Gammacorrection Example application (UDP or TCP)">
<polygon fill="none" stroke="black" points="605,-0.5 605,-41.5 743,-41.5 743,-0.5 605,-0.5"/>
<text text-anchor="start" x="613" y="-29.5" font-family="Helvetica,sans-Serif" font-size="10.00">../../../../../HOST</text>
<text text-anchor="start" x="613" y="-18.5" font-family="Helvetica,sans-Serif" font-size="10.00">/vision/gammacorrection</text>
<text text-anchor="middle" x="674" y="-7.5" font-family="Helvetica,sans-Serif" font-size="10.00">/include/config.h</text>
</a>
</g>
</g>
<!-- Node1&#45;&gt;Node7 -->
<g id="edge6" class="edge">
<title>Node1&#45;&gt;Node7</title>
<path fill="none" stroke="midnightblue" d="M479.91,-78.49C517.24,-67.63 560.62,-55 596.89,-44.44"/>
<polygon fill="midnightblue" stroke="midnightblue" points="598.3,-47.68 606.92,-41.52 596.34,-40.96 598.3,-47.68"/>
</g>
<!-- Node8 -->
<g id="node8" class="node">
<title>Node8</title>
<g id="a_node8"><a xlink:title=" ">
<polygon fill="none" stroke="#bfbfbf" points="761,-11.5 761,-30.5 943,-30.5 943,-11.5 761,-11.5"/>
<text text-anchor="middle" x="852" y="-18.5" font-family="Helvetica,sans-Serif" font-size="10.00">imgproc/xf_gammacorrection.hpp</text>
</a>
</g>
</g>
<!-- Node1&#45;&gt;Node8 -->
<g id="edge7" class="edge">
<title>Node1&#45;&gt;Node8</title>
<path fill="none" stroke="midnightblue" d="M486.1,-88.39C558.48,-76.34 661.79,-58.77 752,-42 767.85,-39.05 785.08,-35.67 800.69,-32.54"/>
<polygon fill="midnightblue" stroke="midnightblue" points="801.58,-35.93 810.69,-30.52 800.2,-29.07 801.58,-35.93"/>
</g>
</g>
</svg>
        <g id="navigator" transform="translate(0 0)" fill="#404254">
                <rect fill="#f2f5e9" fill-opacity="0.5" stroke="#606060" stroke-width=".5" x="0" y="0" width="60" height="60"/>
                <use id="zoomplus" xlink:href="#zoomPlus" x="17" y="9" onmousedown="handleZoom(evt,'in')"/>
                <use id="zoomminus" xlink:href="#zoomMin" x="42" y="9" onmousedown="handleZoom(evt,'out')"/>
                <use id="reset" xlink:href="#resetDef" x="30" y="36" onmousedown="handleReset()"/>
                <g id="arrowUp" xlink:href="#dirArrow" transform="translate(30 24)" onmousedown="handlePan(0,-1)">
                  <use xlink:href="#rim" fill="#404040">
                        <set attributeName="fill" to="#808080" begin="arrowUp.mouseover" end="arrowUp.mouseout"/>
                  </use>
                  <path fill="none" stroke="white" stroke-width="1.5" d="M0,-3.0v7 M-2.5,-0.5L0,-3.0L2.5,-0.5"/>
                </g>
                <g id="arrowRight" xlink:href="#dirArrow" transform="rotate(90) translate(36 -43)" onmousedown="handlePan(1,0)">
                  <use xlink:href="#rim" fill="#404040">
                        <set attributeName="fill" to="#808080" begin="arrowRight.mouseover" end="arrowRight.mouseout"/>
                  </use>
                  <path fill="none" stroke="white" stroke-width="1.5" d="M0,-3.0v7 M-2.5,-0.5L0,-3.0L2.5,-0.5"/>
                </g>
                <g id="arrowDown" xlink:href="#dirArrow" transform="rotate(180) translate(-30 -48)" onmousedown="handlePan(0,1)">
                  <use xlink:href="#rim" fill="#404040">
                        <set attributeName="fill" to="#808080" begin="arrowDown.mouseover" end="arrowDown.mouseout"/>
                  </use>
                  <path fill="none" stroke="white" stroke-width="1.5" d="M0,-3.0v7 M-2.5,-0.5L0,-3.0L2.5,-0.5"/>
                </g>
                <g id="arrowLeft" xlink:href="#dirArrow" transform="rotate(270) translate(-36 17)" onmousedown="handlePan(-1,0)">
                  <use xlink:href="#rim" fill="#404040">
                        <set attributeName="fill" to="#808080" begin="arrowLeft.mouseover" end="arrowLeft.mouseout"/>
                  </use>
                  <path fill="none" stroke="white" stroke-width="1.5" d="M0,-3.0v7 M-2.5,-0.5L0,-3.0L2.5,-0.5"/>
                </g>
        </g>
        <svg viewBox="0 0 15 15" width="100%" height="30px" preserveAspectRatio="xMaxYMin meet">
         <g id="arrow_out" transform="scale(0.3 0.3)">
          <a xlink:href="gammacorrection_2include_2xf__gammacorrection__config_8h__incl_org.svg" target="_base">
           <rect id="button" ry="5" rx="5" y="6" x="6" height="38" width="38"
                fill="#f2f5e9" fill-opacity="0.5" stroke="#606060" stroke-width="1.0"/>
           <path id="arrow"
             d="M 11.500037,31.436501 C 11.940474,20.09759 22.043105,11.32322 32.158766,21.979434 L 37.068811,17.246167 C 37.068811,17.246167 37.088388,32 37.088388,32 L 22.160133,31.978069 C 22.160133,31.978069 26.997745,27.140456 26.997745,27.140456 C 18.528582,18.264221 13.291696,25.230495 11.500037,31.436501 z"
             style="fill:#404040;"/>
          </a>
         </g>
        </svg>
</svg>
