<?xml version="1.0" encoding="UTF-8" standalone="no"?>
<!DOCTYPE svg PUBLIC "-//W3C//DTD SVG 1.1//EN"
 "http://www.w3.org/Graphics/SVG/1.1/DTD/svg11.dtd">
<!-- Generated by graphviz version 2.43.0 (0)
 -->
<!-- Title: repos_for_Dox/cFp_Zoo/HOST/vision/gammacorrection/src/gammacorrection_host_fwd_tb.cpp Pages: 1 -->
<svg width="534pt" height="128pt"
 viewBox="0.00 0.00 533.50 128.00" xmlns="http://www.w3.org/2000/svg" xmlns:xlink="http://www.w3.org/1999/xlink">
<g id="graph0" class="graph" transform="scale(1 1) rotate(0) translate(4 124)">
<title>repos_for_Dox/cFp_Zoo/HOST/vision/gammacorrection/src/gammacorrection_host_fwd_tb.cpp</title>
<!-- Node1 -->
<g id="node1" class="node">
<title>Node1</title>
<g id="a_node1"><a xlink:title="Testbench for Gammacorrection userspace application for cF (x86, ppc64).">
<polygon fill="#bfbfbf" stroke="black" points="124.5,-67.5 124.5,-119.5 292.5,-119.5 292.5,-67.5 124.5,-67.5"/>
<text text-anchor="start" x="132.5" y="-107.5" font-family="Helvetica,sans-Serif" font-size="10.00">repos_for_Dox/cFp_Zoo</text>
<text text-anchor="start" x="132.5" y="-96.5" font-family="Helvetica,sans-Serif" font-size="10.00">/HOST/vision/gammacorrection</text>
<text text-anchor="start" x="132.5" y="-85.5" font-family="Helvetica,sans-Serif" font-size="10.00">/src/gammacorrection_host</text>
<text text-anchor="middle" x="208.5" y="-74.5" font-family="Helvetica,sans-Serif" font-size="10.00">_fwd_tb.cpp</text>
</a>
</g>
</g>
<!-- Node2 -->
<g id="node2" class="node">
<title>Node2</title>
<g id="a_node2"><a xlink:title=" ">
<polygon fill="none" stroke="#bfbfbf" points="0,-6 0,-25 49,-25 49,-6 0,-6"/>
<text text-anchor="middle" x="24.5" y="-13" font-family="Helvetica,sans-Serif" font-size="10.00">cstdlib</text>
</a>
</g>
</g>
<!-- Node1&#45;&gt;Node2 -->
<g id="edge1" class="edge">
<title>Node1&#45;&gt;Node2</title>
<path fill="none" stroke="midnightblue" d="M146.75,-67.41C119.64,-56.34 87.45,-43.11 58.5,-31 57.09,-30.41 55.66,-29.81 54.2,-29.2"/>
<polygon fill="midnightblue" stroke="midnightblue" points="55.19,-25.81 44.62,-25.13 52.46,-32.26 55.19,-25.81"/>
</g>
<!-- Node3 -->
<g id="node3" class="node">
<title>Node3</title>
<g id="a_node3"><a xlink:title=" ">
<polygon fill="none" stroke="#bfbfbf" points="67.5,-6 67.5,-25 127.5,-25 127.5,-6 67.5,-6"/>
<text text-anchor="middle" x="97.5" y="-13" font-family="Helvetica,sans-Serif" font-size="10.00">iostream</text>
</a>
</g>
</g>
<!-- Node1&#45;&gt;Node3 -->
<g id="edge2" class="edge">
<title>Node1&#45;&gt;Node3</title>
<path fill="none" stroke="midnightblue" d="M171.85,-67.4C154.17,-55.3 133.6,-41.22 118.59,-30.94"/>
<polygon fill="midnightblue" stroke="midnightblue" points="120.26,-27.84 110.03,-25.08 116.3,-33.62 120.26,-27.84"/>
</g>
<!-- Node4 -->
<g id="node4" class="node">
<title>Node4</title>
<g id="a_node4"><a xlink:title=" ">
<polygon fill="none" stroke="#bfbfbf" points="146,-0.5 146,-30.5 271,-30.5 271,-0.5 146,-0.5"/>
<text text-anchor="start" x="154" y="-18.5" font-family="Helvetica,sans-Serif" font-size="10.00">../../../PracticalSockets</text>
<text text-anchor="middle" x="208.5" y="-7.5" font-family="Helvetica,sans-Serif" font-size="10.00">/src/PracticalSockets.h</text>
</a>
</g>
</g>
<!-- Node1&#45;&gt;Node4 -->
<g id="edge3" class="edge">
<title>Node1&#45;&gt;Node4</title>
<path fill="none" stroke="midnightblue" d="M208.5,-67.19C208.5,-58.79 208.5,-49.44 208.5,-41.09"/>
<polygon fill="midnightblue" stroke="midnightblue" points="212,-40.85 208.5,-30.85 205,-40.85 212,-40.85"/>
</g>
<!-- Node5 -->
<g id="node5" class="node">
<title>Node5</title>
<g id="a_node5"><a xlink:href="vision_2gammacorrection_2include_2config_8h.html" target="_top" xlink:title="The configuration of a Gammacorrection Example application (UDP or TCP)">
<polygon fill="none" stroke="black" points="289.5,-6 289.5,-25 391.5,-25 391.5,-6 289.5,-6"/>
<text text-anchor="middle" x="340.5" y="-13" font-family="Helvetica,sans-Serif" font-size="10.00">../include/config.h</text>
</a>
</g>
</g>
<!-- Node1&#45;&gt;Node5 -->
<g id="edge4" class="edge">
<title>Node1&#45;&gt;Node5</title>
<path fill="none" stroke="midnightblue" d="M252.09,-67.4C273.7,-54.96 298.96,-40.42 316.93,-30.07"/>
<polygon fill="midnightblue" stroke="midnightblue" points="318.68,-33.1 325.6,-25.08 315.19,-27.03 318.68,-33.1"/>
</g>
<!-- Node6 -->
<g id="node6" class="node">
<title>Node6</title>
<g id="a_node6"><a xlink:title=" ">
<polygon fill="none" stroke="#bfbfbf" points="409.5,-6 409.5,-25 525.5,-25 525.5,-6 409.5,-6"/>
<text text-anchor="middle" x="467.5" y="-13" font-family="Helvetica,sans-Serif" font-size="10.00">opencv2/opencv.hpp</text>
</a>
</g>
</g>
<!-- Node1&#45;&gt;Node6 -->
<g id="edge5" class="edge">
<title>Node1&#45;&gt;Node6</title>
<path fill="none" stroke="midnightblue" d="M292.59,-67.82C338.16,-54.45 392.33,-38.56 428.18,-28.04"/>
<polygon fill="midnightblue" stroke="midnightblue" points="429.63,-31.26 438.24,-25.09 427.66,-24.54 429.63,-31.26"/>
</g>
</g>
</svg>
