<?xml version="1.0" encoding="UTF-8" standalone="no"?>
<!DOCTYPE svg PUBLIC "-//W3C//DTD SVG 1.1//EN"
 "http://www.w3.org/Graphics/SVG/1.1/DTD/svg11.dtd">
<!-- Generated by graphviz version 2.43.0 (0)
 -->
<!-- Title: pIcmpChecksumChecker Pages: 1 -->
<!--zoomable 712 -->
<svg id="main" version="1.1" xmlns="http://www.w3.org/2000/svg" xmlns:xlink="http://www.w3.org/1999/xlink" xml:space="preserve" onload="init(evt)">
<style type="text/css"><![CDATA[
.edge:hover path { stroke: red; }
.edge:hover polygon { stroke: red; fill: red; }
]]></style>
<script type="text/javascript"><![CDATA[
var edges = document.getElementsByTagName('g');
if (edges && edges.length) {
  for (var i=0;i<edges.length;i++) {
    if (edges[i].id.substr(0,4)=='edge') {
      edges[i].setAttribute('class','edge');
    }
  }
}
]]></script>
        <defs>
                <circle id="rim" cx="0" cy="0" r="7"/>
                <circle id="rim2" cx="0" cy="0" r="3.5"/>
                <g id="zoomPlus">
                        <use xlink:href="#rim" fill="#404040">
                                <set attributeName="fill" to="#808080" begin="zoomplus.mouseover" end="zoomplus.mouseout"/>
                        </use>
                        <path d="M-4,0h8M0,-4v8" fill="none" stroke="white" stroke-width="1.5" pointer-events="none"/>
                </g>
                <g id="zoomMin">
                        <use xlink:href="#rim" fill="#404040">
                                <set attributeName="fill" to="#808080" begin="zoomminus.mouseover" end="zoomminus.mouseout"/>
                        </use>
                        <path d="M-4,0h8" fill="none" stroke="white" stroke-width="1.5" pointer-events="none"/>
                </g>
                <g id="dirArrow">
                        <path fill="none" stroke="white" stroke-width="1.5" d="M0,-3.0v7 M-2.5,-0.5L0,-3.0L2.5,-0.5"/>
                </g>
               <g id="resetDef">
                       <use xlink:href="#rim2" fill="#404040">
                               <set attributeName="fill" to="#808080" begin="reset.mouseover" end="reset.mouseout"/>
                       </use>
               </g>
        </defs>

<script type="text/javascript">
var viewWidth = 315;
var viewHeight = 712;
var sectionId = 'dynsection-7';
</script>
<script xlink:href="svgpan.js"/>
<svg id="graph" class="graph">
<g id="viewport">
<title>pIcmpChecksumChecker</title>
<!-- Node1 -->
<g id="node1" class="node">
<title>Node1</title>
<g id="a_node1"><a xlink:title=" ">
<polygon fill="#bfbfbf" stroke="black" points="0,-342.5 0,-361.5 137,-361.5 137,-342.5 0,-342.5"/>
<text text-anchor="middle" x="68.5" y="-349.5" font-family="Helvetica,sans-Serif" font-size="10.00">pIcmpChecksumChecker</text>
</a>
</g>
</g>
<!-- Node2 -->
<g id="node2" class="node">
<title>Node2</title>
<g id="a_node2"><a xlink:href="classAxisIp4.html#adc304ce629eae22d602ba3e2841f956d" target="_top" xlink:title=" ">
<polygon fill="none" stroke="black" points="178.5,-684.5 178.5,-703.5 301.5,-703.5 301.5,-684.5 178.5,-684.5"/>
<text text-anchor="middle" x="240" y="-691.5" font-family="Helvetica,sans-Serif" font-size="10.00">AxisIp4::getIcmpCode</text>
</a>
</g>
</g>
<!-- Node1&#45;&gt;Node2 -->
<g id="edge1" class="edge">
<title>Node1&#45;&gt;Node2</title>
<path fill="none" stroke="midnightblue" d="M69.51,-361.57C70.1,-404.74 78.35,-583.13 173,-675 174.63,-676.59 176.39,-678.04 178.24,-679.38"/>
<polygon fill="midnightblue" stroke="midnightblue" points="176.51,-682.42 186.9,-684.49 180.07,-676.39 176.51,-682.42"/>
</g>
<!-- Node3 -->
<g id="node3" class="node">
<title>Node3</title>
<g id="a_node3"><a xlink:href="classAxisIp4.html#aa4d327da8c738fb0097335537142f052" target="_top" xlink:title=" ">
<polygon fill="none" stroke="black" points="177,-646.5 177,-665.5 303,-665.5 303,-646.5 177,-646.5"/>
<text text-anchor="middle" x="240" y="-653.5" font-family="Helvetica,sans-Serif" font-size="10.00">AxisIp4::getIcmpCsum</text>
</a>
</g>
</g>
<!-- Node1&#45;&gt;Node3 -->
<g id="edge2" class="edge">
<title>Node1&#45;&gt;Node3</title>
<path fill="none" stroke="midnightblue" d="M69.97,-361.52C72.48,-401.49 87.6,-557.22 173,-637 174.7,-638.59 176.52,-640.04 178.44,-641.38"/>
<polygon fill="midnightblue" stroke="midnightblue" points="176.96,-644.56 187.37,-646.49 180.43,-638.49 176.96,-644.56"/>
</g>
<!-- Node4 -->
<g id="node4" class="node">
<title>Node4</title>
<g id="a_node4"><a xlink:href="classAxisIp4.html#a10b5a3c67197ee2396e4ec61f52a6a0f" target="_top" xlink:title=" ">
<polygon fill="none" stroke="black" points="179.5,-608.5 179.5,-627.5 300.5,-627.5 300.5,-608.5 179.5,-608.5"/>
<text text-anchor="middle" x="240" y="-615.5" font-family="Helvetica,sans-Serif" font-size="10.00">AxisIp4::getIcmpType</text>
</a>
</g>
</g>
<!-- Node1&#45;&gt;Node4 -->
<g id="edge3" class="edge">
<title>Node1&#45;&gt;Node4</title>
<path fill="none" stroke="midnightblue" d="M70.59,-361.75C75.27,-398.67 96.93,-531.31 173,-599 174.77,-600.58 176.67,-602.03 178.66,-603.35"/>
<polygon fill="midnightblue" stroke="midnightblue" points="177.44,-606.68 187.89,-608.44 180.82,-600.55 177.44,-606.68"/>
</g>
<!-- Node5 -->
<g id="node5" class="node">
<title>Node5</title>
<g id="a_node5"><a xlink:href="classAxisIp4.html#a3a60d6e7c7029899907f9b88cd7b6ceb" target="_top" xlink:title=" ">
<polygon fill="none" stroke="black" points="176,-570.5 176,-589.5 304,-589.5 304,-570.5 176,-570.5"/>
<text text-anchor="middle" x="240" y="-577.5" font-family="Helvetica,sans-Serif" font-size="10.00">AxisIp4::getIp4DstAddr</text>
</a>
</g>
</g>
<!-- Node1&#45;&gt;Node5 -->
<g id="edge4" class="edge">
<title>Node1&#45;&gt;Node5</title>
<path fill="none" stroke="midnightblue" d="M71.37,-361.61C78.34,-394.69 105.86,-504.95 173,-561 175.04,-562.71 177.23,-564.26 179.52,-565.67"/>
<polygon fill="midnightblue" stroke="midnightblue" points="178.3,-568.98 188.79,-570.46 181.52,-562.76 178.3,-568.98"/>
</g>
<!-- Node6 -->
<g id="node6" class="node">
<title>Node6</title>
<g id="a_node6"><a xlink:href="classAxisIp4.html#af85fee9d6f5381b02f9d135d71a6fb24" target="_top" xlink:title=" ">
<polygon fill="none" stroke="black" points="173,-532.5 173,-551.5 307,-551.5 307,-532.5 173,-532.5"/>
<text text-anchor="middle" x="240" y="-539.5" font-family="Helvetica,sans-Serif" font-size="10.00">AxisIp4::getIp4HdrCsum</text>
</a>
</g>
</g>
<!-- Node1&#45;&gt;Node6 -->
<g id="edge5" class="edge">
<title>Node1&#45;&gt;Node6</title>
<path fill="none" stroke="midnightblue" d="M72.58,-361.87C82.25,-391.19 114.86,-478.49 173,-523 175.48,-524.9 178.14,-526.6 180.91,-528.14"/>
<polygon fill="midnightblue" stroke="midnightblue" points="179.58,-531.38 190.12,-532.49 182.58,-525.05 179.58,-531.38"/>
</g>
<!-- Node7 -->
<g id="node7" class="node">
<title>Node7</title>
<g id="a_node7"><a xlink:href="classAxisIp4.html#ac68754528b100219c3a9ee916de54828" target="_top" xlink:title=" ">
<polygon fill="none" stroke="black" points="185.5,-494.5 185.5,-513.5 294.5,-513.5 294.5,-494.5 185.5,-494.5"/>
<text text-anchor="middle" x="240" y="-501.5" font-family="Helvetica,sans-Serif" font-size="10.00">AxisIp4::getIp4Prot</text>
</a>
</g>
</g>
<!-- Node1&#45;&gt;Node7 -->
<g id="edge6" class="edge">
<title>Node1&#45;&gt;Node7</title>
<path fill="none" stroke="midnightblue" d="M74.27,-361.73C86.84,-386.32 123.32,-451.39 173,-485 175.95,-487 179.12,-488.79 182.4,-490.39"/>
<polygon fill="midnightblue" stroke="midnightblue" points="181.34,-493.74 191.91,-494.44 184.08,-487.3 181.34,-493.74"/>
</g>
<!-- Node8 -->
<g id="node8" class="node">
<title>Node8</title>
<g id="a_node8"><a xlink:href="classAxisIp4.html#ac8f3926329a514c6d64b9a5e25ee43cb" target="_top" xlink:title=" ">
<polygon fill="none" stroke="black" points="176.5,-456.5 176.5,-475.5 303.5,-475.5 303.5,-456.5 176.5,-456.5"/>
<text text-anchor="middle" x="240" y="-463.5" font-family="Helvetica,sans-Serif" font-size="10.00">AxisIp4::getIp4SrcAddr</text>
</a>
</g>
</g>
<!-- Node1&#45;&gt;Node8 -->
<g id="edge7" class="edge">
<title>Node1&#45;&gt;Node8</title>
<path fill="none" stroke="midnightblue" d="M77.26,-361.65C93.18,-380.79 131.52,-423.72 173,-447 176.91,-449.19 181.09,-451.15 185.38,-452.9"/>
<polygon fill="midnightblue" stroke="midnightblue" points="184.3,-456.23 194.89,-456.39 186.71,-449.66 184.3,-456.23"/>
</g>
<!-- Node9 -->
<g id="node9" class="node">
<title>Node9</title>
<g id="a_node9"><a xlink:href="classAxisIp4.html#a04efcb30e743243d2111546c167be29f" target="_top" xlink:title=" ">
<polygon fill="none" stroke="black" points="188,-418.5 188,-437.5 292,-437.5 292,-418.5 188,-418.5"/>
<text text-anchor="middle" x="240" y="-425.5" font-family="Helvetica,sans-Serif" font-size="10.00">AxisIp4::getIp4TtL</text>
</a>
</g>
</g>
<!-- Node1&#45;&gt;Node9 -->
<g id="edge8" class="edge">
<title>Node1&#45;&gt;Node9</title>
<path fill="none" stroke="midnightblue" d="M84.4,-361.6C104.05,-373.93 140.01,-395.37 173,-409 178.58,-411.3 184.53,-413.44 190.49,-415.38"/>
<polygon fill="midnightblue" stroke="midnightblue" points="189.87,-418.86 200.46,-418.47 191.94,-412.17 189.87,-418.86"/>
</g>
<!-- Node10 -->
<g id="node10" class="node">
<title>Node10</title>
<g id="a_node10"><a xlink:href="classAxisRaw.html#a7034bcf8cf143fb2bb9bfc46e70a7d6b" target="_top" xlink:title=" ">
<polygon fill="none" stroke="black" points="177.5,-380.5 177.5,-399.5 302.5,-399.5 302.5,-380.5 177.5,-380.5"/>
<text text-anchor="middle" x="240" y="-387.5" font-family="Helvetica,sans-Serif" font-size="10.00">AxisRaw::getLE_TData</text>
</a>
</g>
</g>
<!-- Node1&#45;&gt;Node10 -->
<g id="edge9" class="edge">
<title>Node1&#45;&gt;Node10</title>
<path fill="none" stroke="midnightblue" d="M112.27,-361.59C134.84,-366.65 162.72,-372.9 186.58,-378.25"/>
<polygon fill="midnightblue" stroke="midnightblue" points="186.01,-381.71 196.54,-380.48 187.54,-374.88 186.01,-381.71"/>
</g>
<!-- Node11 -->
<g id="node11" class="node">
<title>Node11</title>
<g id="a_node11"><a xlink:href="classAxisRaw.html#a4becd0ad3c51e3db2749e888f2f72e31" target="_top" xlink:title=" ">
<polygon fill="none" stroke="black" points="177,-342.5 177,-361.5 303,-361.5 303,-342.5 177,-342.5"/>
<text text-anchor="middle" x="240" y="-349.5" font-family="Helvetica,sans-Serif" font-size="10.00">AxisRaw::getLE_TKeep</text>
</a>
</g>
</g>
<!-- Node1&#45;&gt;Node11 -->
<g id="edge10" class="edge">
<title>Node1&#45;&gt;Node11</title>
<path fill="none" stroke="midnightblue" d="M137.47,-352C147.1,-352 157.04,-352 166.76,-352"/>
<polygon fill="midnightblue" stroke="midnightblue" points="166.78,-355.5 176.78,-352 166.78,-348.5 166.78,-355.5"/>
</g>
<!-- Node12 -->
<g id="node12" class="node">
<title>Node12</title>
<g id="a_node12"><a xlink:href="classAxisRaw.html#af8208752dcbb14911c5fda27d90a0ef4" target="_top" xlink:title=" ">
<polygon fill="none" stroke="black" points="179,-304.5 179,-323.5 301,-323.5 301,-304.5 179,-304.5"/>
<text text-anchor="middle" x="240" y="-311.5" font-family="Helvetica,sans-Serif" font-size="10.00">AxisRaw::getLE_TLast</text>
</a>
</g>
</g>
<!-- Node1&#45;&gt;Node12 -->
<g id="edge11" class="edge">
<title>Node1&#45;&gt;Node12</title>
<path fill="none" stroke="midnightblue" d="M112.27,-342.41C134.84,-337.35 162.72,-331.1 186.58,-325.75"/>
<polygon fill="midnightblue" stroke="midnightblue" points="187.54,-329.12 196.54,-323.52 186.01,-322.29 187.54,-329.12"/>
</g>
<!-- Node13 -->
<g id="node13" class="node">
<title>Node13</title>
<g id="a_node13"><a xlink:href="classAxisIp4.html#a0d15d5912bbac2a11480421f7faff90b" target="_top" xlink:title=" ">
<polygon fill="none" stroke="black" points="180,-266.5 180,-285.5 300,-285.5 300,-266.5 180,-266.5"/>
<text text-anchor="middle" x="240" y="-273.5" font-family="Helvetica,sans-Serif" font-size="10.00">AxisIp4::setIcmpType</text>
</a>
</g>
</g>
<!-- Node1&#45;&gt;Node13 -->
<g id="edge12" class="edge">
<title>Node1&#45;&gt;Node13</title>
<path fill="none" stroke="midnightblue" d="M84.4,-342.4C104.05,-330.07 140.01,-308.63 173,-295 178.58,-292.7 184.53,-290.56 190.49,-288.62"/>
<polygon fill="midnightblue" stroke="midnightblue" points="191.94,-291.83 200.46,-285.53 189.87,-285.14 191.94,-291.83"/>
</g>
<!-- Node14 -->
<g id="node14" class="node">
<title>Node14</title>
<g id="a_node14"><a xlink:href="classAxisIp4.html#a7c1ca3829d3728d6e4f90589457f90e6" target="_top" xlink:title=" ">
<polygon fill="none" stroke="black" points="176,-228.5 176,-247.5 304,-247.5 304,-228.5 176,-228.5"/>
<text text-anchor="middle" x="240" y="-235.5" font-family="Helvetica,sans-Serif" font-size="10.00">AxisIp4::setIp4DstAddr</text>
</a>
</g>
</g>
<!-- Node1&#45;&gt;Node14 -->
<g id="edge13" class="edge">
<title>Node1&#45;&gt;Node14</title>
<path fill="none" stroke="midnightblue" d="M77.26,-342.35C93.18,-323.21 131.52,-280.28 173,-257 176.91,-254.81 181.09,-252.85 185.38,-251.1"/>
<polygon fill="midnightblue" stroke="midnightblue" points="186.71,-254.34 194.89,-247.61 184.3,-247.77 186.71,-254.34"/>
</g>
<!-- Node15 -->
<g id="node15" class="node">
<title>Node15</title>
<g id="a_node15"><a xlink:href="classAxisIp4.html#a668f18a27c497e9e4861cff478b4cc0e" target="_top" xlink:title=" ">
<polygon fill="none" stroke="black" points="173,-190.5 173,-209.5 307,-209.5 307,-190.5 173,-190.5"/>
<text text-anchor="middle" x="240" y="-197.5" font-family="Helvetica,sans-Serif" font-size="10.00">AxisIp4::setIp4HdrCsum</text>
</a>
</g>
</g>
<!-- Node1&#45;&gt;Node15 -->
<g id="edge14" class="edge">
<title>Node1&#45;&gt;Node15</title>
<path fill="none" stroke="midnightblue" d="M74.27,-342.27C86.84,-317.68 123.32,-252.61 173,-219 175.95,-217 179.12,-215.21 182.4,-213.61"/>
<polygon fill="midnightblue" stroke="midnightblue" points="184.08,-216.7 191.91,-209.56 181.34,-210.26 184.08,-216.7"/>
</g>
<!-- Node16 -->
<g id="node16" class="node">
<title>Node16</title>
<g id="a_node16"><a xlink:href="classAxisIp4.html#a37cbd671be65cbaec4687cc42a9509d9" target="_top" xlink:title=" ">
<polygon fill="none" stroke="black" points="186,-152.5 186,-171.5 294,-171.5 294,-152.5 186,-152.5"/>
<text text-anchor="middle" x="240" y="-159.5" font-family="Helvetica,sans-Serif" font-size="10.00">AxisIp4::setIp4Prot</text>
</a>
</g>
</g>
<!-- Node1&#45;&gt;Node16 -->
<g id="edge15" class="edge">
<title>Node1&#45;&gt;Node16</title>
<path fill="none" stroke="midnightblue" d="M72.58,-342.13C82.25,-312.81 114.86,-225.51 173,-181 175.48,-179.1 178.14,-177.4 180.91,-175.86"/>
<polygon fill="midnightblue" stroke="midnightblue" points="182.58,-178.95 190.12,-171.51 179.58,-172.62 182.58,-178.95"/>
</g>
<!-- Node17 -->
<g id="node17" class="node">
<title>Node17</title>
<g id="a_node17"><a xlink:href="classAxisIp4.html#ae86e3b6249f8ec6a985e5947e52d4634" target="_top" xlink:title=" ">
<polygon fill="none" stroke="black" points="177,-114.5 177,-133.5 303,-133.5 303,-114.5 177,-114.5"/>
<text text-anchor="middle" x="240" y="-121.5" font-family="Helvetica,sans-Serif" font-size="10.00">AxisIp4::setIp4SrcAddr</text>
</a>
</g>
</g>
<!-- Node1&#45;&gt;Node17 -->
<g id="edge16" class="edge">
<title>Node1&#45;&gt;Node17</title>
<path fill="none" stroke="midnightblue" d="M71.37,-342.39C78.34,-309.31 105.86,-199.05 173,-143 175.04,-141.29 177.23,-139.74 179.52,-138.33"/>
<polygon fill="midnightblue" stroke="midnightblue" points="181.52,-141.24 188.79,-133.54 178.3,-135.02 181.52,-141.24"/>
</g>
<!-- Node18 -->
<g id="node18" class="node">
<title>Node18</title>
<g id="a_node18"><a xlink:href="classAxisIp4.html#aed63bc9cb891bece3348ee85d721655c" target="_top" xlink:title=" ">
<polygon fill="none" stroke="black" points="188,-76.5 188,-95.5 292,-95.5 292,-76.5 188,-76.5"/>
<text text-anchor="middle" x="240" y="-83.5" font-family="Helvetica,sans-Serif" font-size="10.00">AxisIp4::setIp4TtL</text>
</a>
</g>
</g>
<!-- Node1&#45;&gt;Node18 -->
<g id="edge17" class="edge">
<title>Node1&#45;&gt;Node18</title>
<path fill="none" stroke="midnightblue" d="M70.59,-342.25C75.27,-305.33 96.93,-172.69 173,-105 174.77,-103.42 176.67,-101.97 178.66,-100.65"/>
<polygon fill="midnightblue" stroke="midnightblue" points="180.82,-103.45 187.89,-95.56 177.44,-97.32 180.82,-103.45"/>
</g>
<!-- Node19 -->
<g id="node19" class="node">
<title>Node19</title>
<g id="a_node19"><a xlink:href="classAxisRaw.html#ae8f59ce9fd52536106de4db99df4558e" target="_top" xlink:title=" ">
<polygon fill="none" stroke="black" points="177.5,-38.5 177.5,-57.5 302.5,-57.5 302.5,-38.5 177.5,-38.5"/>
<text text-anchor="middle" x="240" y="-45.5" font-family="Helvetica,sans-Serif" font-size="10.00">AxisRaw::setLE_TKeep</text>
</a>
</g>
</g>
<!-- Node1&#45;&gt;Node19 -->
<g id="edge18" class="edge">
<title>Node1&#45;&gt;Node19</title>
<path fill="none" stroke="midnightblue" d="M69.97,-342.48C72.48,-302.51 87.6,-146.78 173,-67 174.7,-65.41 176.52,-63.96 178.44,-62.62"/>
<polygon fill="midnightblue" stroke="midnightblue" points="180.43,-65.51 187.37,-57.51 176.96,-59.44 180.43,-65.51"/>
</g>
<!-- Node20 -->
<g id="node20" class="node">
<title>Node20</title>
<g id="a_node20"><a xlink:href="classAxisRaw.html#a7fd855df91177afa363d72b3eb17af25" target="_top" xlink:title=" ">
<polygon fill="none" stroke="black" points="179,-0.5 179,-19.5 301,-19.5 301,-0.5 179,-0.5"/>
<text text-anchor="middle" x="240" y="-7.5" font-family="Helvetica,sans-Serif" font-size="10.00">AxisRaw::setLE_TLast</text>
</a>
</g>
</g>
<!-- Node1&#45;&gt;Node20 -->
<g id="edge19" class="edge">
<title>Node1&#45;&gt;Node20</title>
<path fill="none" stroke="midnightblue" d="M69.51,-342.43C70.1,-299.26 78.35,-120.87 173,-29 174.63,-27.41 176.39,-25.96 178.24,-24.62"/>
<polygon fill="midnightblue" stroke="midnightblue" points="180.07,-27.61 186.9,-19.51 176.51,-21.58 180.07,-27.61"/>
</g>
</g>
</svg>
        <g id="navigator" transform="translate(0 0)" fill="#404254">
                <rect fill="#f2f5e9" fill-opacity="0.5" stroke="#606060" stroke-width=".5" x="0" y="0" width="60" height="60"/>
                <use id="zoomplus" xlink:href="#zoomPlus" x="17" y="9" onmousedown="handleZoom(evt,'in')"/>
                <use id="zoomminus" xlink:href="#zoomMin" x="42" y="9" onmousedown="handleZoom(evt,'out')"/>
                <use id="reset" xlink:href="#resetDef" x="30" y="36" onmousedown="handleReset()"/>
                <g id="arrowUp" xlink:href="#dirArrow" transform="translate(30 24)" onmousedown="handlePan(0,-1)">
                  <use xlink:href="#rim" fill="#404040">
                        <set attributeName="fill" to="#808080" begin="arrowUp.mouseover" end="arrowUp.mouseout"/>
                  </use>
                  <path fill="none" stroke="white" stroke-width="1.5" d="M0,-3.0v7 M-2.5,-0.5L0,-3.0L2.5,-0.5"/>
                </g>
                <g id="arrowRight" xlink:href="#dirArrow" transform="rotate(90) translate(36 -43)" onmousedown="handlePan(1,0)">
                  <use xlink:href="#rim" fill="#404040">
                        <set attributeName="fill" to="#808080" begin="arrowRight.mouseover" end="arrowRight.mouseout"/>
                  </use>
                  <path fill="none" stroke="white" stroke-width="1.5" d="M0,-3.0v7 M-2.5,-0.5L0,-3.0L2.5,-0.5"/>
                </g>
                <g id="arrowDown" xlink:href="#dirArrow" transform="rotate(180) translate(-30 -48)" onmousedown="handlePan(0,1)">
                  <use xlink:href="#rim" fill="#404040">
                        <set attributeName="fill" to="#808080" begin="arrowDown.mouseover" end="arrowDown.mouseout"/>
                  </use>
                  <path fill="none" stroke="white" stroke-width="1.5" d="M0,-3.0v7 M-2.5,-0.5L0,-3.0L2.5,-0.5"/>
                </g>
                <g id="arrowLeft" xlink:href="#dirArrow" transform="rotate(270) translate(-36 17)" onmousedown="handlePan(-1,0)">
                  <use xlink:href="#rim" fill="#404040">
                        <set attributeName="fill" to="#808080" begin="arrowLeft.mouseover" end="arrowLeft.mouseout"/>
                  </use>
                  <path fill="none" stroke="white" stroke-width="1.5" d="M0,-3.0v7 M-2.5,-0.5L0,-3.0L2.5,-0.5"/>
                </g>
        </g>
        <svg viewBox="0 0 15 15" width="100%" height="30px" preserveAspectRatio="xMaxYMin meet">
         <g id="arrow_out" transform="scale(0.3 0.3)">
          <a xlink:href="group__NTS__ICMP_ga9966f6389006fa1f1ef4b06b458b081a_cgraph_org.svg" target="_base">
           <rect id="button" ry="5" rx="5" y="6" x="6" height="38" width="38"
                fill="#f2f5e9" fill-opacity="0.5" stroke="#606060" stroke-width="1.0"/>
           <path id="arrow"
             d="M 11.500037,31.436501 C 11.940474,20.09759 22.043105,11.32322 32.158766,21.979434 L 37.068811,17.246167 C 37.068811,17.246167 37.088388,32 37.088388,32 L 22.160133,31.978069 C 22.160133,31.978069 26.997745,27.140456 26.997745,27.140456 C 18.528582,18.264221 13.291696,25.230495 11.500037,31.436501 z"
             style="fill:#404040;"/>
          </a>
         </g>
        </svg>
</svg>
