<?xml version="1.0" encoding="UTF-8" standalone="no"?>
<!DOCTYPE svg PUBLIC "-//W3C//DTD SVG 1.1//EN"
 "http://www.w3.org/Graphics/SVG/1.1/DTD/svg11.dtd">
<!-- Generated by graphviz version 2.43.0 (0)
 -->
<!-- Title: tcp_shell_if_top Pages: 1 -->
<svg width="737pt" height="522pt"
 viewBox="0.00 0.00 737.00 522.00" xmlns="http://www.w3.org/2000/svg" xmlns:xlink="http://www.w3.org/1999/xlink">
<g id="graph0" class="graph" transform="scale(1 1) rotate(0) translate(4 518)">
<title>tcp_shell_if_top</title>
<!-- Node1 -->
<g id="node1" class="node">
<title>Node1</title>
<g id="a_node1"><a xlink:title="Top of TCP Shell Interface (TSIF)">
<polygon fill="#bfbfbf" stroke="black" points="0,-133.5 0,-152.5 93,-152.5 93,-133.5 0,-133.5"/>
<text text-anchor="middle" x="46.5" y="-140.5" font-family="Helvetica,sans-Serif" font-size="10.00">tcp_shell_if_top</text>
</a>
</g>
</g>
<!-- Node2 -->
<g id="node2" class="node">
<title>Node2</title>
<g id="a_node2"><a xlink:href="group__tcp__shell__if.html#ga33d275a5a280034b43adfd415c7599b0" target="_top" xlink:title="TCP Shell Interface (TSIF)">
<polygon fill="none" stroke="black" points="129,-133.5 129,-152.5 201,-152.5 201,-133.5 129,-133.5"/>
<text text-anchor="middle" x="165" y="-140.5" font-family="Helvetica,sans-Serif" font-size="10.00">tcp_shell_if</text>
</a>
</g>
</g>
<!-- Node1&#45;&gt;Node2 -->
<g id="edge1" class="edge">
<title>Node1&#45;&gt;Node2</title>
<path fill="none" stroke="midnightblue" d="M93.21,-143C101.64,-143 110.44,-143 118.85,-143"/>
<polygon fill="midnightblue" stroke="midnightblue" points="118.87,-146.5 128.87,-143 118.87,-139.5 118.87,-146.5"/>
</g>
<!-- Node3 -->
<g id="node3" class="node">
<title>Node3</title>
<g id="a_node3"><a xlink:href="group__tcp__shell__if.html#ga35098f3bf030b38ed036adb6fae4bd2d" target="_top" xlink:title="Connect (COn).">
<polygon fill="none" stroke="black" points="277,-456.5 277,-475.5 339,-475.5 339,-456.5 277,-456.5"/>
<text text-anchor="middle" x="308" y="-463.5" font-family="Helvetica,sans-Serif" font-size="10.00">pConnect</text>
</a>
</g>
</g>
<!-- Node2&#45;&gt;Node3 -->
<g id="edge2" class="edge">
<title>Node2&#45;&gt;Node3</title>
<path fill="none" stroke="midnightblue" d="M168.51,-152.88C176.44,-183.39 202.46,-278.47 237,-352 253.76,-387.68 279.07,-426.17 294.22,-448.05"/>
<polygon fill="midnightblue" stroke="midnightblue" points="291.44,-450.17 300.04,-456.36 297.17,-446.16 291.44,-450.17"/>
</g>
<!-- Node6 -->
<g id="node6" class="node">
<title>Node6</title>
<g id="a_node6"><a xlink:href="group__tcp__shell__if.html#gad30e56905ae2d6cdb65fa7d5219fece9" target="_top" xlink:title="Input Read Buffer (IRb)">
<polygon fill="none" stroke="black" points="257.5,-152.5 257.5,-171.5 358.5,-171.5 358.5,-152.5 257.5,-152.5"/>
<text text-anchor="middle" x="308" y="-159.5" font-family="Helvetica,sans-Serif" font-size="10.00">pInputReadBuffer</text>
</a>
</g>
</g>
<!-- Node2&#45;&gt;Node6 -->
<g id="edge5" class="edge">
<title>Node2&#45;&gt;Node6</title>
<path fill="none" stroke="midnightblue" d="M201.22,-147.75C215.13,-149.62 231.52,-151.83 247.19,-153.94"/>
<polygon fill="midnightblue" stroke="midnightblue" points="246.97,-157.44 257.35,-155.31 247.91,-150.51 246.97,-157.44"/>
</g>
<!-- Node7 -->
<g id="node7" class="node">
<title>Node7</title>
<g id="a_node7"><a xlink:href="group__tcp__shell__if.html#gad54c5afa4fbf0276d6f5f4dac836287d" target="_top" xlink:title="Listen(LSn)">
<polygon fill="none" stroke="black" points="282,-114.5 282,-133.5 334,-133.5 334,-114.5 282,-114.5"/>
<text text-anchor="middle" x="308" y="-121.5" font-family="Helvetica,sans-Serif" font-size="10.00">pListen</text>
</a>
</g>
</g>
<!-- Node2&#45;&gt;Node7 -->
<g id="edge6" class="edge">
<title>Node2&#45;&gt;Node7</title>
<path fill="none" stroke="midnightblue" d="M201.22,-138.25C222.81,-135.35 250.35,-131.63 271.91,-128.73"/>
<polygon fill="midnightblue" stroke="midnightblue" points="272.52,-132.18 281.97,-127.37 271.59,-125.24 272.52,-132.18"/>
</g>
<!-- Node8 -->
<g id="node8" class="node">
<title>Node8</title>
<g id="a_node8"><a xlink:href="group__tcp__shell__if.html#gab6f22cfe9ca613541da8a7f7cad5c220" target="_top" xlink:title="Read Notification Handler (RNh)">
<polygon fill="none" stroke="black" points="237,-76.5 237,-95.5 379,-95.5 379,-76.5 237,-76.5"/>
<text text-anchor="middle" x="308" y="-83.5" font-family="Helvetica,sans-Serif" font-size="10.00">pReadNotificationHandler</text>
</a>
</g>
</g>
<!-- Node2&#45;&gt;Node8 -->
<g id="edge7" class="edge">
<title>Node2&#45;&gt;Node8</title>
<path fill="none" stroke="midnightblue" d="M181.3,-133.5C195.36,-125.09 216.99,-112.95 237,-105 242.99,-102.62 249.38,-100.43 255.78,-98.45"/>
<polygon fill="midnightblue" stroke="midnightblue" points="257.16,-101.7 265.77,-95.52 255.19,-94.98 257.16,-101.7"/>
</g>
<!-- Node9 -->
<g id="node9" class="node">
<title>Node9</title>
<g id="a_node9"><a xlink:href="group__tcp__shell__if.html#ga588e42b7145e4d3aaa4b31a9f8b00505" target="_top" xlink:title="Read Path (RDp)">
<polygon fill="none" stroke="black" points="274,-323.5 274,-342.5 342,-342.5 342,-323.5 274,-323.5"/>
<text text-anchor="middle" x="308" y="-330.5" font-family="Helvetica,sans-Serif" font-size="10.00">pReadPath</text>
</a>
</g>
</g>
<!-- Node2&#45;&gt;Node9 -->
<g id="edge8" class="edge">
<title>Node2&#45;&gt;Node9</title>
<path fill="none" stroke="midnightblue" d="M173.19,-152.68C195.53,-182.79 264.02,-275.08 293.39,-314.66"/>
<polygon fill="midnightblue" stroke="midnightblue" points="290.89,-317.16 299.66,-323.11 296.51,-312.99 290.89,-317.16"/>
</g>
<!-- Node19 -->
<g id="node19" class="node">
<title>Node19</title>
<g id="a_node19"><a xlink:href="group__tcp__shell__if.html#ga2a2724c26a4fd3424abe5a62dd238946" target="_top" xlink:title="Read Request Handler (RRh)">
<polygon fill="none" stroke="black" points="245.5,-38.5 245.5,-57.5 370.5,-57.5 370.5,-38.5 245.5,-38.5"/>
<text text-anchor="middle" x="308" y="-45.5" font-family="Helvetica,sans-Serif" font-size="10.00">pReadRequestHandler</text>
</a>
</g>
</g>
<!-- Node2&#45;&gt;Node19 -->
<g id="edge20" class="edge">
<title>Node2&#45;&gt;Node19</title>
<path fill="none" stroke="midnightblue" d="M172.21,-133.47C183.26,-117.29 207.92,-84.52 237,-67 240.64,-64.81 244.54,-62.86 248.56,-61.14"/>
<polygon fill="midnightblue" stroke="midnightblue" points="250.01,-64.33 258.11,-57.5 247.52,-57.79 250.01,-64.33"/>
</g>
<!-- Node20 -->
<g id="node20" class="node">
<title>Node20</title>
<g id="a_node20"><a xlink:href="group__tcp__shell__if.html#ga1edd1f8db49482a1f9bd2c42f280258b" target="_top" xlink:title="Read Request Mover (RRm)">
<polygon fill="none" stroke="black" points="249,-0.5 249,-19.5 367,-19.5 367,-0.5 249,-0.5"/>
<text text-anchor="middle" x="308" y="-7.5" font-family="Helvetica,sans-Serif" font-size="10.00">pReadRequestMover</text>
</a>
</g>
</g>
<!-- Node2&#45;&gt;Node20 -->
<g id="edge21" class="edge">
<title>Node2&#45;&gt;Node20</title>
<path fill="none" stroke="midnightblue" d="M169.22,-133.35C177.07,-111.29 199.39,-56.97 237,-29 239.63,-27.05 242.44,-25.29 245.38,-23.72"/>
<polygon fill="midnightblue" stroke="midnightblue" points="246.88,-26.88 254.5,-19.52 243.95,-20.53 246.88,-26.88"/>
</g>
<!-- Node22 -->
<g id="node22" class="node">
<title>Node22</title>
<g id="a_node22"><a xlink:href="group__tcp__shell__if.html#ga81f5b86452aba7509074e797be6888fd" target="_top" xlink:title="Write Path (WRp)">
<polygon fill="none" stroke="black" points="273,-190.5 273,-209.5 343,-209.5 343,-190.5 273,-190.5"/>
<text text-anchor="middle" x="308" y="-197.5" font-family="Helvetica,sans-Serif" font-size="10.00">pWritePath</text>
</a>
</g>
</g>
<!-- Node2&#45;&gt;Node22 -->
<g id="edge23" class="edge">
<title>Node2&#45;&gt;Node22</title>
<path fill="none" stroke="midnightblue" d="M181.3,-152.5C195.36,-160.91 216.99,-173.05 237,-181 245.25,-184.28 254.26,-187.19 262.99,-189.69"/>
<polygon fill="midnightblue" stroke="midnightblue" points="262.1,-193.08 272.67,-192.34 263.95,-186.32 262.1,-193.08"/>
</g>
<!-- Node4 -->
<g id="node4" class="node">
<title>Node4</title>
<g id="a_node4"><a xlink:href="group__NTS.html#gaac9d45d5535b81da06899bf3d3924ab8" target="_top" xlink:title="Returns the name of an enum&#45;based TCP&#45;State as a user friendly string.">
<polygon fill="none" stroke="black" points="439.5,-494.5 439.5,-513.5 542.5,-513.5 542.5,-494.5 439.5,-494.5"/>
<text text-anchor="middle" x="491" y="-501.5" font-family="Helvetica,sans-Serif" font-size="10.00">getTcpStateName</text>
</a>
</g>
</g>
<!-- Node3&#45;&gt;Node4 -->
<g id="edge3" class="edge">
<title>Node3&#45;&gt;Node4</title>
<path fill="none" stroke="midnightblue" d="M339.3,-472.36C365.27,-477.81 403.34,-485.81 434.73,-492.4"/>
<polygon fill="midnightblue" stroke="midnightblue" points="434.15,-495.85 444.66,-494.48 435.59,-489 434.15,-495.85"/>
</g>
<!-- Node5 -->
<g id="node5" class="node">
<title>Node5</title>
<g id="a_node5"><a xlink:href="group__NTS.html#ga868a2a0831dcd26fa88eadae8f61f92c" target="_top" xlink:title="Print a socket address.">
<polygon fill="none" stroke="black" points="448.5,-456.5 448.5,-475.5 533.5,-475.5 533.5,-456.5 448.5,-456.5"/>
<text text-anchor="middle" x="491" y="-463.5" font-family="Helvetica,sans-Serif" font-size="10.00">printSockAddr</text>
</a>
</g>
</g>
<!-- Node3&#45;&gt;Node5 -->
<g id="edge4" class="edge">
<title>Node3&#45;&gt;Node5</title>
<path fill="none" stroke="midnightblue" d="M339.3,-466C366.27,-466 406.29,-466 438.32,-466"/>
<polygon fill="midnightblue" stroke="midnightblue" points="438.41,-469.5 448.41,-466 438.41,-462.5 438.41,-469.5"/>
</g>
<!-- Node9&#45;&gt;Node5 -->
<g id="edge19" class="edge">
<title>Node9&#45;&gt;Node5</title>
<path fill="none" stroke="midnightblue" d="M315.1,-342.69C329.57,-364.82 368.27,-419.31 415,-447 422.15,-451.24 430.22,-454.53 438.35,-457.1"/>
<polygon fill="midnightblue" stroke="midnightblue" points="437.67,-460.54 448.24,-459.88 439.56,-453.8 437.67,-460.54"/>
</g>
<!-- Node10 -->
<g id="node10" class="node">
<title>Node10</title>
<g id="a_node10"><a xlink:href="udp_8cpp.html#ga3179abf5c515026aad3e82047a1dd9a3" target="_top" xlink:title=" ">
<polygon fill="none" stroke="black" points="452.5,-342.5 452.5,-361.5 529.5,-361.5 529.5,-342.5 452.5,-342.5"/>
<text text-anchor="middle" x="491" y="-349.5" font-family="Helvetica,sans-Serif" font-size="10.00">byteSwap16</text>
</a>
</g>
</g>
<!-- Node9&#45;&gt;Node10 -->
<g id="edge9" class="edge">
<title>Node9&#45;&gt;Node10</title>
<path fill="none" stroke="midnightblue" d="M342.2,-336.48C370.16,-339.42 410.53,-343.66 442.02,-346.96"/>
<polygon fill="midnightblue" stroke="midnightblue" points="442.01,-350.48 452.32,-348.04 442.74,-343.52 442.01,-350.48"/>
</g>
<!-- Node11 -->
<g id="node11" class="node">
<title>Node11</title>
<g id="a_node11"><a xlink:href="udp_8cpp.html#ga2355e0cecd0576470bca0178c4c1aec2" target="_top" xlink:title=" ">
<polygon fill="none" stroke="black" points="452.5,-304.5 452.5,-323.5 529.5,-323.5 529.5,-304.5 452.5,-304.5"/>
<text text-anchor="middle" x="491" y="-311.5" font-family="Helvetica,sans-Serif" font-size="10.00">byteSwap32</text>
</a>
</g>
</g>
<!-- Node9&#45;&gt;Node11 -->
<g id="edge10" class="edge">
<title>Node9&#45;&gt;Node11</title>
<path fill="none" stroke="midnightblue" d="M342.2,-329.52C370.16,-326.58 410.53,-322.34 442.02,-319.04"/>
<polygon fill="midnightblue" stroke="midnightblue" points="442.74,-322.48 452.32,-317.96 442.01,-315.52 442.74,-322.48"/>
</g>
<!-- Node12 -->
<g id="node12" class="node">
<title>Node12</title>
<g id="a_node12"><a xlink:href="classAxisRaw.html#a7034bcf8cf143fb2bb9bfc46e70a7d6b" target="_top" xlink:title=" ">
<polygon fill="none" stroke="black" points="603.5,-342.5 603.5,-361.5 728.5,-361.5 728.5,-342.5 603.5,-342.5"/>
<text text-anchor="middle" x="666" y="-349.5" font-family="Helvetica,sans-Serif" font-size="10.00">AxisRaw::getLE_TData</text>
</a>
</g>
</g>
<!-- Node9&#45;&gt;Node12 -->
<g id="edge11" class="edge">
<title>Node9&#45;&gt;Node12</title>
<path fill="none" stroke="midnightblue" d="M329.15,-342.59C350.06,-351.97 383.99,-365.61 415,-371 481.56,-382.57 499.75,-377.46 567,-371 582.85,-369.48 599.95,-366.6 615.35,-363.54"/>
<polygon fill="midnightblue" stroke="midnightblue" points="616.11,-366.95 625.2,-361.51 614.7,-360.1 616.11,-366.95"/>
</g>
<!-- Node13 -->
<g id="node13" class="node">
<title>Node13</title>
<g id="a_node13"><a xlink:href="classAxisRaw.html#acadbd2b7e00e34417c426fa91c8d7c51" target="_top" xlink:title=" ">
<polygon fill="none" stroke="black" points="442.5,-418.5 442.5,-437.5 539.5,-437.5 539.5,-418.5 442.5,-418.5"/>
<text text-anchor="middle" x="491" y="-425.5" font-family="Helvetica,sans-Serif" font-size="10.00">AxisRaw::getLen</text>
</a>
</g>
</g>
<!-- Node9&#45;&gt;Node13 -->
<g id="edge12" class="edge">
<title>Node9&#45;&gt;Node13</title>
<path fill="none" stroke="midnightblue" d="M321.04,-342.73C340.02,-357.67 378.5,-386.37 415,-404 423.86,-408.28 433.67,-412.05 443.19,-415.26"/>
<polygon fill="midnightblue" stroke="midnightblue" points="442.37,-418.67 452.96,-418.4 444.51,-412.01 442.37,-418.67"/>
</g>
<!-- Node15 -->
<g id="node15" class="node">
<title>Node15</title>
<g id="a_node15"><a xlink:href="classAxisRaw.html#a42cd520c9b19f7c2fc6d2fc204cb30b7" target="_top" xlink:title=" ">
<polygon fill="none" stroke="black" points="438,-266.5 438,-285.5 544,-285.5 544,-266.5 438,-266.5"/>
<text text-anchor="middle" x="491" y="-273.5" font-family="Helvetica,sans-Serif" font-size="10.00">AxisRaw::getTLast</text>
</a>
</g>
</g>
<!-- Node9&#45;&gt;Node15 -->
<g id="edge14" class="edge">
<title>Node9&#45;&gt;Node15</title>
<path fill="none" stroke="midnightblue" d="M333.62,-323.41C354.96,-315.29 386.77,-303.62 415,-295 422.85,-292.6 431.24,-290.27 439.44,-288.1"/>
<polygon fill="midnightblue" stroke="midnightblue" points="440.52,-291.44 449.32,-285.55 438.76,-284.66 440.52,-291.44"/>
</g>
<!-- Node16 -->
<g id="node16" class="node">
<title>Node16</title>
<g id="a_node16"><a xlink:href="group__NTS.html#ga5560d80c548e85eb53223a5e99410b7b" target="_top" xlink:title="Prints an Axis raw data chunk (used for debugging).">
<polygon fill="none" stroke="black" points="450.5,-228.5 450.5,-247.5 531.5,-247.5 531.5,-228.5 450.5,-228.5"/>
<text text-anchor="middle" x="491" y="-235.5" font-family="Helvetica,sans-Serif" font-size="10.00">printAxisRaw</text>
</a>
</g>
</g>
<!-- Node9&#45;&gt;Node16 -->
<g id="edge15" class="edge">
<title>Node9&#45;&gt;Node16</title>
<path fill="none" stroke="midnightblue" d="M319.58,-323.3C337.74,-307.17 376.6,-274.85 415,-257 422.97,-253.3 431.75,-250.25 440.43,-247.76"/>
<polygon fill="midnightblue" stroke="midnightblue" points="441.36,-251.13 450.12,-245.18 439.56,-244.37 441.36,-251.13"/>
</g>
<!-- Node14 -->
<g id="node14" class="node">
<title>Node14</title>
<g id="a_node14"><a xlink:href="classAxisRaw.html#aec8718820338b67381cce084ba407063" target="_top" xlink:title=" ">
<polygon fill="none" stroke="black" points="608.5,-418.5 608.5,-437.5 723.5,-437.5 723.5,-418.5 608.5,-418.5"/>
<text text-anchor="middle" x="666" y="-425.5" font-family="Helvetica,sans-Serif" font-size="10.00">AxisRaw::keepToLen</text>
</a>
</g>
</g>
<!-- Node13&#45;&gt;Node14 -->
<g id="edge13" class="edge">
<title>Node13&#45;&gt;Node14</title>
<path fill="none" stroke="midnightblue" d="M539.73,-428C557.79,-428 578.68,-428 598.17,-428"/>
<polygon fill="midnightblue" stroke="midnightblue" points="598.21,-431.5 608.21,-428 598.21,-424.5 598.21,-431.5"/>
</g>
<!-- Node16&#45;&gt;Node12 -->
<g id="edge16" class="edge">
<title>Node16&#45;&gt;Node12</title>
<path fill="none" stroke="midnightblue" d="M531.62,-243.99C543.49,-246.83 556.21,-250.98 567,-257 602.46,-276.79 634.37,-312.66 651.58,-334.21"/>
<polygon fill="midnightblue" stroke="midnightblue" points="648.92,-336.49 657.83,-342.22 654.44,-332.19 648.92,-336.49"/>
</g>
<!-- Node17 -->
<g id="node17" class="node">
<title>Node17</title>
<g id="a_node17"><a xlink:href="classAxisRaw.html#a4becd0ad3c51e3db2749e888f2f72e31" target="_top" xlink:title=" ">
<polygon fill="none" stroke="black" points="603,-209.5 603,-228.5 729,-228.5 729,-209.5 603,-209.5"/>
<text text-anchor="middle" x="666" y="-216.5" font-family="Helvetica,sans-Serif" font-size="10.00">AxisRaw::getLE_TKeep</text>
</a>
</g>
</g>
<!-- Node16&#45;&gt;Node17 -->
<g id="edge17" class="edge">
<title>Node16&#45;&gt;Node17</title>
<path fill="none" stroke="midnightblue" d="M531.69,-233.64C549.78,-231.65 571.78,-229.24 592.64,-226.95"/>
<polygon fill="midnightblue" stroke="midnightblue" points="593.22,-230.4 602.78,-225.83 592.45,-223.45 593.22,-230.4"/>
</g>
<!-- Node18 -->
<g id="node18" class="node">
<title>Node18</title>
<g id="a_node18"><a xlink:href="classAxisRaw.html#af8208752dcbb14911c5fda27d90a0ef4" target="_top" xlink:title=" ">
<polygon fill="none" stroke="black" points="605,-247.5 605,-266.5 727,-266.5 727,-247.5 605,-247.5"/>
<text text-anchor="middle" x="666" y="-254.5" font-family="Helvetica,sans-Serif" font-size="10.00">AxisRaw::getLE_TLast</text>
</a>
</g>
</g>
<!-- Node16&#45;&gt;Node18 -->
<g id="edge18" class="edge">
<title>Node16&#45;&gt;Node18</title>
<path fill="none" stroke="midnightblue" d="M531.69,-242.36C550.38,-244.41 573.24,-246.92 594.71,-249.28"/>
<polygon fill="midnightblue" stroke="midnightblue" points="594.47,-252.77 604.79,-250.39 595.23,-245.82 594.47,-252.77"/>
</g>
<!-- Node21 -->
<g id="node21" class="node">
<title>Node21</title>
<g id="a_node21"><a xlink:href="group__tcp__shell__if.html#ga000f4409b3c1f62a4feb1abfe3d65898" target="_top" xlink:title="Stream Data Mover &#45; Moves data chunks from incoming stream to outgoing stream with blocking read and ...">
<polygon fill="none" stroke="black" points="435,-0.5 435,-19.5 547,-19.5 547,-0.5 435,-0.5"/>
<text text-anchor="middle" x="491" y="-7.5" font-family="Helvetica,sans-Serif" font-size="10.00">pStreamDataMover</text>
</a>
</g>
</g>
<!-- Node20&#45;&gt;Node21 -->
<g id="edge22" class="edge">
<title>Node20&#45;&gt;Node21</title>
<path fill="none" stroke="midnightblue" d="M367.27,-10C385.58,-10 405.91,-10 424.68,-10"/>
<polygon fill="midnightblue" stroke="midnightblue" points="424.92,-13.5 434.92,-10 424.92,-6.5 424.92,-13.5"/>
</g>
<!-- Node22&#45;&gt;Node15 -->
<g id="edge25" class="edge">
<title>Node22&#45;&gt;Node15</title>
<path fill="none" stroke="midnightblue" d="M323.88,-209.53C343.9,-221.98 380.92,-243.75 415,-257 421.31,-259.45 428.04,-261.68 434.78,-263.66"/>
<polygon fill="midnightblue" stroke="midnightblue" points="434.05,-267.09 444.62,-266.41 435.93,-260.35 434.05,-267.09"/>
</g>
<!-- Node22&#45;&gt;Node16 -->
<g id="edge27" class="edge">
<title>Node22&#45;&gt;Node16</title>
<path fill="none" stroke="midnightblue" d="M343.04,-207.15C370.46,-212.9 409.39,-221.08 440.29,-227.56"/>
<polygon fill="midnightblue" stroke="midnightblue" points="439.93,-231.06 450.44,-229.69 441.37,-224.21 439.93,-231.06"/>
</g>
<!-- Node23 -->
<g id="node23" class="node">
<title>Node23</title>
<g id="a_node23"><a xlink:href="classAxisRaw.html#a4e8ed9ad2072a6563870f9344c362a4e" target="_top" xlink:title=" ">
<polygon fill="none" stroke="black" points="415,-114.5 415,-133.5 567,-133.5 567,-114.5 415,-114.5"/>
<text text-anchor="middle" x="491" y="-121.5" font-family="Helvetica,sans-Serif" font-size="10.00">AxisRaw::clearUnusedBytes</text>
</a>
</g>
</g>
<!-- Node22&#45;&gt;Node23 -->
<g id="edge24" class="edge">
<title>Node22&#45;&gt;Node23</title>
<path fill="none" stroke="midnightblue" d="M343.26,-194.63C355.15,-191.77 368.19,-187.46 379,-181 398.97,-169.06 394.93,-154.77 415,-143 418.72,-140.82 422.68,-138.89 426.76,-137.18"/>
<polygon fill="midnightblue" stroke="midnightblue" points="428.32,-140.34 436.47,-133.57 425.88,-133.78 428.32,-140.34"/>
</g>
<!-- Node24 -->
<g id="node24" class="node">
<title>Node24</title>
<g id="a_node24"><a xlink:href="group__NTS.html#ga322539a2726973fd6ecf61d26e6ccbf8" target="_top" xlink:title="A function to set a number of &#39;1&#39; in an 8&#45;bit field. It is used here to set the number of valid bytes...">
<polygon fill="none" stroke="black" points="448,-76.5 448,-95.5 534,-95.5 534,-76.5 448,-76.5"/>
<text text-anchor="middle" x="491" y="-83.5" font-family="Helvetica,sans-Serif" font-size="10.00">lenToLE_tKeep</text>
</a>
</g>
</g>
<!-- Node22&#45;&gt;Node24 -->
<g id="edge26" class="edge">
<title>Node22&#45;&gt;Node24</title>
<path fill="none" stroke="midnightblue" d="M343.11,-196.75C355.52,-194.12 368.96,-189.4 379,-181 407.66,-157.02 386.13,-128.74 415,-105 421.64,-99.54 429.64,-95.63 437.91,-92.82"/>
<polygon fill="midnightblue" stroke="midnightblue" points="439.04,-96.14 447.68,-90.01 437.1,-89.41 439.04,-96.14"/>
</g>
<!-- Node25 -->
<g id="node25" class="node">
<title>Node25</title>
<g id="a_node25"><a xlink:href="classAxisRaw.html#ae8f59ce9fd52536106de4db99df4558e" target="_top" xlink:title=" ">
<polygon fill="none" stroke="black" points="428.5,-38.5 428.5,-57.5 553.5,-57.5 553.5,-38.5 428.5,-38.5"/>
<text text-anchor="middle" x="491" y="-45.5" font-family="Helvetica,sans-Serif" font-size="10.00">AxisRaw::setLE_TKeep</text>
</a>
</g>
</g>
<!-- Node22&#45;&gt;Node25 -->
<g id="edge28" class="edge">
<title>Node22&#45;&gt;Node25</title>
<path fill="none" stroke="midnightblue" d="M343.02,-197.6C355.71,-195.09 369.37,-190.24 379,-181 417.33,-144.2 376.36,-103.47 415,-67 416.67,-65.43 418.44,-63.98 420.31,-62.65"/>
<polygon fill="midnightblue" stroke="midnightblue" points="422.17,-65.62 428.99,-57.52 418.6,-59.59 422.17,-65.62"/>
</g>
<!-- Node26 -->
<g id="node26" class="node">
<title>Node26</title>
<g id="a_node26"><a xlink:href="classAxisRaw.html#a7fd855df91177afa363d72b3eb17af25" target="_top" xlink:title=" ">
<polygon fill="none" stroke="black" points="430,-190.5 430,-209.5 552,-209.5 552,-190.5 430,-190.5"/>
<text text-anchor="middle" x="491" y="-197.5" font-family="Helvetica,sans-Serif" font-size="10.00">AxisRaw::setLE_TLast</text>
</a>
</g>
</g>
<!-- Node22&#45;&gt;Node26 -->
<g id="edge29" class="edge">
<title>Node22&#45;&gt;Node26</title>
<path fill="none" stroke="midnightblue" d="M343.04,-200C364.56,-200 393.17,-200 419.42,-200"/>
<polygon fill="midnightblue" stroke="midnightblue" points="419.73,-203.5 429.73,-200 419.73,-196.5 419.73,-203.5"/>
</g>
<!-- Node27 -->
<g id="node27" class="node">
<title>Node27</title>
<g id="a_node27"><a xlink:href="classAxisRaw.html#acfbcd3fa29b19fdf650e915a01542432" target="_top" xlink:title=" ">
<polygon fill="none" stroke="black" points="437,-152.5 437,-171.5 545,-171.5 545,-152.5 437,-152.5"/>
<text text-anchor="middle" x="491" y="-159.5" font-family="Helvetica,sans-Serif" font-size="10.00">AxisRaw::setTData</text>
</a>
</g>
</g>
<!-- Node22&#45;&gt;Node27 -->
<g id="edge30" class="edge">
<title>Node22&#45;&gt;Node27</title>
<path fill="none" stroke="midnightblue" d="M343.04,-192.85C368.81,-187.44 404.73,-179.9 434.61,-173.63"/>
<polygon fill="midnightblue" stroke="midnightblue" points="435.42,-177.04 444.49,-171.56 433.98,-170.18 435.42,-177.04"/>
</g>
</g>
</svg>
