<?xml version="1.0" encoding="UTF-8" standalone="no"?>
<!DOCTYPE svg PUBLIC "-//W3C//DTD SVG 1.1//EN"
 "http://www.w3.org/Graphics/SVG/1.1/DTD/svg11.dtd">
<!-- Generated by graphviz version 2.43.0 (0)
 -->
<!-- Title: pProcPath Pages: 1 -->
<svg width="243pt" height="104pt"
 viewBox="0.00 0.00 243.00 104.00" xmlns="http://www.w3.org/2000/svg" xmlns:xlink="http://www.w3.org/1999/xlink">
<g id="graph0" class="graph" transform="scale(1 1) rotate(0) translate(4 100)">
<title>pProcPath</title>
<!-- Node1 -->
<g id="node1" class="node">
<title>Node1</title>
<g id="a_node1"><a xlink:title="Processing Path &#45; Main processing FSM for Vitis kernels.">
<polygon fill="#bfbfbf" stroke="black" points="0,-38.5 0,-57.5 65,-57.5 65,-38.5 0,-38.5"/>
<text text-anchor="middle" x="32.5" y="-45.5" font-family="Helvetica,sans-Serif" font-size="10.00">pProcPath</text>
</a>
</g>
</g>
<!-- Node2 -->
<g id="node2" class="node">
<title>Node2</title>
<g id="a_node2"><a xlink:href="group__Sobel.html#gaa1f65c1ba91ef36da570b23277f2cb2f" target="_top" xlink:title=" ">
<polygon fill="none" stroke="black" points="105,-76.5 105,-95.5 231,-95.5 231,-76.5 105,-76.5"/>
<text text-anchor="middle" x="168" y="-83.5" font-family="Helvetica,sans-Serif" font-size="10.00">fakeSobelAccelStream</text>
</a>
</g>
</g>
<!-- Node1&#45;&gt;Node2 -->
<g id="edge1" class="edge">
<title>Node1&#45;&gt;Node2</title>
<path fill="none" stroke="midnightblue" d="M65.14,-57.01C82.6,-61.98 104.55,-68.22 123.6,-73.65"/>
<polygon fill="midnightblue" stroke="midnightblue" points="122.68,-77.02 133.26,-76.39 124.6,-70.29 122.68,-77.02"/>
</g>
<!-- Node3 -->
<g id="node3" class="node">
<title>Node3</title>
<g id="a_node3"><a xlink:href="group__MedianBlur.html#gac12c7c5d7e8e32a8dcad948c6012b647" target="_top" xlink:title="Top&#45;level accelerated function of the MedianBlur Application with array I/F.">
<polygon fill="none" stroke="black" points="106,-38.5 106,-57.5 230,-57.5 230,-38.5 106,-38.5"/>
<text text-anchor="middle" x="168" y="-45.5" font-family="Helvetica,sans-Serif" font-size="10.00">medianBlurAccelMem</text>
</a>
</g>
</g>
<!-- Node1&#45;&gt;Node3 -->
<g id="edge2" class="edge">
<title>Node1&#45;&gt;Node3</title>
<path fill="none" stroke="midnightblue" d="M65.14,-48C74.43,-48 84.99,-48 95.7,-48"/>
<polygon fill="midnightblue" stroke="midnightblue" points="95.99,-51.5 105.99,-48 95.99,-44.5 95.99,-51.5"/>
</g>
<!-- Node4 -->
<g id="node4" class="node">
<title>Node4</title>
<g id="a_node4"><a xlink:href="group__MedianBlur.html#gacf1a13def036d9fa03ba5387b2d46b66" target="_top" xlink:title="Top&#45;level accelerated function of the MedianBlur Application with array I/F.">
<polygon fill="none" stroke="black" points="101,-0.5 101,-19.5 235,-19.5 235,-0.5 101,-0.5"/>
<text text-anchor="middle" x="168" y="-7.5" font-family="Helvetica,sans-Serif" font-size="10.00">medianBlurAccelStream</text>
</a>
</g>
</g>
<!-- Node1&#45;&gt;Node4 -->
<g id="edge3" class="edge">
<title>Node1&#45;&gt;Node4</title>
<path fill="none" stroke="midnightblue" d="M65.14,-38.99C82.6,-34.02 104.55,-27.78 123.6,-22.35"/>
<polygon fill="midnightblue" stroke="midnightblue" points="124.6,-25.71 133.26,-19.61 122.68,-18.98 124.6,-25.71"/>
</g>
</g>
</svg>
