<?xml version="1.0" encoding="UTF-8" standalone="no"?>
<!DOCTYPE svg PUBLIC "-//W3C//DTD SVG 1.1//EN"
 "http://www.w3.org/Graphics/SVG/1.1/DTD/svg11.dtd">
<!-- Generated by graphviz version 2.43.0 (0)
 -->
<!-- Title: readDatagramFromFile Pages: 1 -->
<!--zoomable 589 -->
<svg id="main" version="1.1" xmlns="http://www.w3.org/2000/svg" xmlns:xlink="http://www.w3.org/1999/xlink" xml:space="preserve" onload="init(evt)">
<style type="text/css"><![CDATA[
.edge:hover path { stroke: red; }
.edge:hover polygon { stroke: red; fill: red; }
]]></style>
<script type="text/javascript"><![CDATA[
var edges = document.getElementsByTagName('g');
if (edges && edges.length) {
  for (var i=0;i<edges.length;i++) {
    if (edges[i].id.substr(0,4)=='edge') {
      edges[i].setAttribute('class','edge');
    }
  }
}
]]></script>
        <defs>
                <circle id="rim" cx="0" cy="0" r="7"/>
                <circle id="rim2" cx="0" cy="0" r="3.5"/>
                <g id="zoomPlus">
                        <use xlink:href="#rim" fill="#404040">
                                <set attributeName="fill" to="#808080" begin="zoomplus.mouseover" end="zoomplus.mouseout"/>
                        </use>
                        <path d="M-4,0h8M0,-4v8" fill="none" stroke="white" stroke-width="1.5" pointer-events="none"/>
                </g>
                <g id="zoomMin">
                        <use xlink:href="#rim" fill="#404040">
                                <set attributeName="fill" to="#808080" begin="zoomminus.mouseover" end="zoomminus.mouseout"/>
                        </use>
                        <path d="M-4,0h8" fill="none" stroke="white" stroke-width="1.5" pointer-events="none"/>
                </g>
                <g id="dirArrow">
                        <path fill="none" stroke="white" stroke-width="1.5" d="M0,-3.0v7 M-2.5,-0.5L0,-3.0L2.5,-0.5"/>
                </g>
               <g id="resetDef">
                       <use xlink:href="#rim2" fill="#404040">
                               <set attributeName="fill" to="#808080" begin="reset.mouseover" end="reset.mouseout"/>
                       </use>
               </g>
        </defs>

<script type="text/javascript">
var viewWidth = 682;
var viewHeight = 589;
var sectionId = 'dynsection-16';
</script>
<script xlink:href="svgpan.js"/>
<svg id="graph" class="graph">
<g id="viewport">
<title>readDatagramFromFile</title>
<!-- Node1 -->
<g id="node1" class="node">
<title>Node1</title>
<g id="a_node1"><a xlink:title="Read a datagram from a DAT file.">
<polygon fill="#bfbfbf" stroke="black" points="0,-390.18 0,-409.18 129,-409.18 129,-390.18 0,-390.18"/>
<text text-anchor="middle" x="64.5" y="-397.18" font-family="Helvetica,sans-Serif" font-size="10.00">readDatagramFromFile</text>
</a>
</g>
</g>
<!-- Node2 -->
<g id="node2" class="node">
<title>Node2</title>
<g id="a_node2"><a xlink:href="classAxisRaw.html#a7034bcf8cf143fb2bb9bfc46e70a7d6b" target="_top" xlink:title=" ">
<polygon fill="none" stroke="black" points="184.5,-561.18 184.5,-580.18 309.5,-580.18 309.5,-561.18 184.5,-561.18"/>
<text text-anchor="middle" x="247" y="-568.18" font-family="Helvetica,sans-Serif" font-size="10.00">AxisRaw::getLE_TData</text>
</a>
</g>
</g>
<!-- Node1&#45;&gt;Node2 -->
<g id="edge1" class="edge">
<title>Node1&#45;&gt;Node2</title>
<path fill="none" stroke="midnightblue" d="M68.87,-409.34C78.85,-436.48 111,-513.87 165,-551.68 168.08,-553.83 171.37,-555.75 174.8,-557.45"/>
<polygon fill="midnightblue" stroke="midnightblue" points="173.57,-560.73 184.14,-561.46 176.33,-554.3 173.57,-560.73"/>
</g>
<!-- Node3 -->
<g id="node3" class="node">
<title>Node3</title>
<g id="a_node3"><a xlink:href="classAxisRaw.html#a4becd0ad3c51e3db2749e888f2f72e31" target="_top" xlink:title=" ">
<polygon fill="none" stroke="black" points="184,-523.18 184,-542.18 310,-542.18 310,-523.18 184,-523.18"/>
<text text-anchor="middle" x="247" y="-530.18" font-family="Helvetica,sans-Serif" font-size="10.00">AxisRaw::getLE_TKeep</text>
</a>
</g>
</g>
<!-- Node1&#45;&gt;Node3 -->
<g id="edge2" class="edge">
<title>Node1&#45;&gt;Node3</title>
<path fill="none" stroke="midnightblue" d="M71.04,-409.43C84.22,-431.7 119.76,-486.45 165,-513.68 168.62,-515.85 172.47,-517.78 176.45,-519.49"/>
<polygon fill="midnightblue" stroke="midnightblue" points="175.34,-522.81 185.93,-523.09 177.82,-516.27 175.34,-522.81"/>
</g>
<!-- Node4 -->
<g id="node4" class="node">
<title>Node4</title>
<g id="a_node4"><a xlink:href="classAxisRaw.html#af8208752dcbb14911c5fda27d90a0ef4" target="_top" xlink:title=" ">
<polygon fill="none" stroke="black" points="186,-485.18 186,-504.18 308,-504.18 308,-485.18 186,-485.18"/>
<text text-anchor="middle" x="247" y="-492.18" font-family="Helvetica,sans-Serif" font-size="10.00">AxisRaw::getLE_TLast</text>
</a>
</g>
</g>
<!-- Node1&#45;&gt;Node4 -->
<g id="edge3" class="edge">
<title>Node1&#45;&gt;Node4</title>
<path fill="none" stroke="midnightblue" d="M75.01,-409.22C91.71,-425.42 128.05,-458.22 165,-475.68 170.06,-478.07 175.45,-480.17 180.94,-482.02"/>
<polygon fill="midnightblue" stroke="midnightblue" points="180.32,-485.48 190.9,-485.07 182.37,-478.79 180.32,-485.48"/>
</g>
<!-- Node5 -->
<g id="node5" class="node">
<title>Node5</title>
<g id="a_node5"><a xlink:href="classAxisRaw.html#acadbd2b7e00e34417c426fa91c8d7c51" target="_top" xlink:title=" ">
<polygon fill="none" stroke="black" points="395.5,-485.18 395.5,-504.18 492.5,-504.18 492.5,-485.18 395.5,-485.18"/>
<text text-anchor="middle" x="444" y="-492.18" font-family="Helvetica,sans-Serif" font-size="10.00">AxisRaw::getLen</text>
</a>
</g>
</g>
<!-- Node1&#45;&gt;Node5 -->
<g id="edge4" class="edge">
<title>Node1&#45;&gt;Node5</title>
<path fill="none" stroke="midnightblue" d="M129.18,-404.04C195.77,-409.46 295.19,-420.17 329,-437.68 349.66,-448.37 344.88,-464 365,-475.68 371.3,-479.33 378.28,-482.28 385.39,-484.67"/>
<polygon fill="midnightblue" stroke="midnightblue" points="384.55,-488.07 395.13,-487.59 386.56,-481.37 384.55,-488.07"/>
</g>
<!-- Node7 -->
<g id="node7" class="node">
<title>Node7</title>
<g id="a_node7"><a xlink:href="group__NTS__SIM.html#ga25dcee3dd54a7838781e963a097cb3f6" target="_top" xlink:title="Brakes a string into tokens by using the &#39;delimiter&#39; character.">
<polygon fill="none" stroke="black" points="577.5,-124.18 577.5,-143.18 655.5,-143.18 655.5,-124.18 577.5,-124.18"/>
<text text-anchor="middle" x="616.5" y="-131.18" font-family="Helvetica,sans-Serif" font-size="10.00">myTokenizer</text>
</a>
</g>
</g>
<!-- Node1&#45;&gt;Node7 -->
<g id="edge6" class="edge">
<title>Node1&#45;&gt;Node7</title>
<path fill="none" stroke="midnightblue" d="M65.58,-390.09C66.44,-348.43 75.56,-181.33 165,-95.68 281.32,15.71 374.46,22.55 523,-39.68 559.75,-55.07 589.28,-92.97 604.42,-115.67"/>
<polygon fill="midnightblue" stroke="midnightblue" points="601.49,-117.57 609.85,-124.08 607.37,-113.78 601.49,-117.57"/>
</g>
<!-- Node8 -->
<g id="node8" class="node">
<title>Node8</title>
<g id="a_node8"><a xlink:href="group__NTS.html#ga868a2a0831dcd26fa88eadae8f61f92c" target="_top" xlink:title="Print a socket address.">
<polygon fill="none" stroke="black" points="204.5,-371.18 204.5,-390.18 289.5,-390.18 289.5,-371.18 204.5,-371.18"/>
<text text-anchor="middle" x="247" y="-378.18" font-family="Helvetica,sans-Serif" font-size="10.00">printSockAddr</text>
</a>
</g>
</g>
<!-- Node1&#45;&gt;Node8 -->
<g id="edge7" class="edge">
<title>Node1&#45;&gt;Node8</title>
<path fill="none" stroke="midnightblue" d="M129.14,-392.98C150.5,-390.73 174.04,-388.25 194.37,-386.11"/>
<polygon fill="midnightblue" stroke="midnightblue" points="194.79,-389.59 204.36,-385.06 194.05,-382.62 194.79,-389.59"/>
</g>
<!-- Node9 -->
<g id="node9" class="node">
<title>Node9</title>
<g id="a_node9"><a xlink:href="classSimUdpDatagram.html#a19f8f331cc36e9b566a1a6935a9d9e56" target="_top" xlink:title=" ">
<polygon fill="none" stroke="black" points="165,-447.18 165,-466.18 329,-466.18 329,-447.18 165,-447.18"/>
<text text-anchor="middle" x="247" y="-454.18" font-family="Helvetica,sans-Serif" font-size="10.00">SimUdpDatagram::pushChunk</text>
</a>
</g>
</g>
<!-- Node1&#45;&gt;Node9 -->
<g id="edge8" class="edge">
<title>Node1&#45;&gt;Node9</title>
<path fill="none" stroke="midnightblue" d="M93.73,-409.31C113.6,-416.02 140.86,-425.1 165,-432.68 177.37,-436.56 190.85,-440.62 203.2,-444.27"/>
<polygon fill="midnightblue" stroke="midnightblue" points="202.24,-447.64 212.82,-447.11 204.22,-440.93 202.24,-447.64"/>
</g>
<!-- Node11 -->
<g id="node11" class="node">
<title>Node11</title>
<g id="a_node11"><a xlink:href="group__NTS__SIM.html#ga1add155284d4605102a262fdc5a5657b" target="_top" xlink:title="Retrieve an AxisRaw chunk from a string.">
<polygon fill="none" stroke="black" points="184.5,-333.18 184.5,-352.18 309.5,-352.18 309.5,-333.18 184.5,-333.18"/>
<text text-anchor="middle" x="247" y="-340.18" font-family="Helvetica,sans-Serif" font-size="10.00">readAxisRawFromLine</text>
</a>
</g>
</g>
<!-- Node1&#45;&gt;Node11 -->
<g id="edge11" class="edge">
<title>Node1&#45;&gt;Node11</title>
<path fill="none" stroke="midnightblue" d="M88.12,-390.04C108.09,-381.77 138.13,-369.92 165,-361.68 173.14,-359.18 181.82,-356.83 190.37,-354.68"/>
<polygon fill="midnightblue" stroke="midnightblue" points="191.41,-358.03 200.3,-352.26 189.76,-351.23 191.41,-358.03"/>
</g>
<!-- Node18 -->
<g id="node18" class="node">
<title>Node18</title>
<g id="a_node18"><a xlink:href="group__NTS__SIM.html#ga1a0ed3b4f62e362e40c09dbebd663af0" target="_top" xlink:title="Retrieve an Fpga socket from a string.">
<polygon fill="none" stroke="black" points="177,-143.18 177,-162.18 317,-162.18 317,-143.18 177,-143.18"/>
<text text-anchor="middle" x="247" y="-150.18" font-family="Helvetica,sans-Serif" font-size="10.00">readFpgaSocketFromLine</text>
</a>
</g>
</g>
<!-- Node1&#45;&gt;Node18 -->
<g id="edge20" class="edge">
<title>Node1&#45;&gt;Node18</title>
<path fill="none" stroke="midnightblue" d="M72.58,-389.99C99.7,-352.87 197.31,-219.3 232.9,-170.6"/>
<polygon fill="midnightblue" stroke="midnightblue" points="235.9,-172.43 238.97,-162.29 230.25,-168.3 235.9,-172.43"/>
</g>
<!-- Node22 -->
<g id="node22" class="node">
<title>Node22</title>
<g id="a_node22"><a xlink:href="group__NTS__SIM.html#ga0e61d088feba9b80a8480c46a68cf8a0" target="_top" xlink:title="Retrieve a Host socket from a string.">
<polygon fill="none" stroke="black" points="178,-105.18 178,-124.18 316,-124.18 316,-105.18 178,-105.18"/>
<text text-anchor="middle" x="247" y="-112.18" font-family="Helvetica,sans-Serif" font-size="10.00">readHostSocketFromLine</text>
</a>
</g>
</g>
<!-- Node1&#45;&gt;Node22 -->
<g id="edge27" class="edge">
<title>Node1&#45;&gt;Node22</title>
<path fill="none" stroke="midnightblue" d="M65.98,-390.16C68.48,-351.6 83.2,-205.66 165,-133.68 166.76,-132.13 168.63,-130.69 170.57,-129.38"/>
<polygon fill="midnightblue" stroke="midnightblue" points="172.6,-132.25 179.58,-124.28 169.15,-126.16 172.6,-132.25"/>
</g>
<!-- Node6 -->
<g id="node6" class="node">
<title>Node6</title>
<g id="a_node6"><a xlink:href="classAxisRaw.html#aec8718820338b67381cce084ba407063" target="_top" xlink:title=" ">
<polygon fill="none" stroke="black" points="559,-466.18 559,-485.18 674,-485.18 674,-466.18 559,-466.18"/>
<text text-anchor="middle" x="616.5" y="-473.18" font-family="Helvetica,sans-Serif" font-size="10.00">AxisRaw::keepToLen</text>
</a>
</g>
</g>
<!-- Node5&#45;&gt;Node6 -->
<g id="edge5" class="edge">
<title>Node5&#45;&gt;Node6</title>
<path fill="none" stroke="midnightblue" d="M492.95,-489.33C510.23,-487.41 530.07,-485.2 548.67,-483.12"/>
<polygon fill="midnightblue" stroke="midnightblue" points="549.31,-486.57 558.86,-481.99 548.53,-479.62 549.31,-486.57"/>
</g>
<!-- Node9&#45;&gt;Node5 -->
<g id="edge9" class="edge">
<title>Node9&#45;&gt;Node5</title>
<path fill="none" stroke="midnightblue" d="M296.96,-466.22C323.78,-471.44 357.19,-477.95 385.29,-483.43"/>
<polygon fill="midnightblue" stroke="midnightblue" points="384.89,-486.92 395.37,-485.39 386.23,-480.05 384.89,-486.92"/>
</g>
<!-- Node10 -->
<g id="node10" class="node">
<title>Node10</title>
<g id="a_node10"><a xlink:href="classSimUdpDatagram.html#a5cc83610935341408f23d7a5b431d3e8" target="_top" xlink:title=" ">
<polygon fill="none" stroke="black" points="379.5,-523.18 379.5,-542.18 508.5,-542.18 508.5,-523.18 379.5,-523.18"/>
<text text-anchor="middle" x="444" y="-530.18" font-family="Helvetica,sans-Serif" font-size="10.00">SimUdpDatagram::size</text>
</a>
</g>
</g>
<!-- Node9&#45;&gt;Node10 -->
<g id="edge10" class="edge">
<title>Node9&#45;&gt;Node10</title>
<path fill="none" stroke="midnightblue" d="M307.08,-466.24C314.72,-468.7 322.24,-471.79 329,-475.68 349.17,-487.26 344.88,-502 365,-513.68 368.73,-515.84 372.7,-517.76 376.79,-519.46"/>
<polygon fill="midnightblue" stroke="midnightblue" points="375.92,-522.87 386.52,-523.04 378.34,-516.3 375.92,-522.87"/>
</g>
<!-- Node11&#45;&gt;Node7 -->
<g id="edge16" class="edge">
<title>Node11&#45;&gt;Node7</title>
<path fill="none" stroke="midnightblue" d="M257.5,-333.07C276.43,-314.38 320.87,-272.76 365,-247.68 430.03,-210.71 455.58,-222.09 523,-189.68 547.9,-177.71 574.73,-161 593.05,-148.95"/>
<polygon fill="midnightblue" stroke="midnightblue" points="595.17,-151.74 601.56,-143.29 591.29,-145.92 595.17,-151.74"/>
</g>
<!-- Node12 -->
<g id="node12" class="node">
<title>Node12</title>
<g id="a_node12"><a xlink:href="classAxisRaw.html#aeebcaf3646869bf5e2f39154cf14c499" target="_top" xlink:title=" ">
<polygon fill="none" stroke="black" points="396,-447.18 396,-466.18 492,-466.18 492,-447.18 396,-447.18"/>
<text text-anchor="middle" x="444" y="-454.18" font-family="Helvetica,sans-Serif" font-size="10.00">AxisRaw::isValid</text>
</a>
</g>
</g>
<!-- Node11&#45;&gt;Node12 -->
<g id="edge12" class="edge">
<title>Node11&#45;&gt;Node12</title>
<path fill="none" stroke="midnightblue" d="M309.61,-350.81C316.61,-353.51 323.27,-357.05 329,-361.68 358.08,-385.16 336.02,-414.07 365,-437.68 371.15,-442.69 378.43,-446.41 386.02,-449.17"/>
<polygon fill="midnightblue" stroke="midnightblue" points="385.17,-452.57 395.75,-452.18 387.23,-445.88 385.17,-452.57"/>
</g>
<!-- Node13 -->
<g id="node13" class="node">
<title>Node13</title>
<g id="a_node13"><a xlink:href="group__NTS__SIM.html#ga66df4e53b356c882279264e247a90d54" target="_top" xlink:title="Converts a string of 16 HEX characters into an UINT64.">
<polygon fill="none" stroke="black" points="390,-371.18 390,-390.18 498,-390.18 498,-371.18 390,-371.18"/>
<text text-anchor="middle" x="444" y="-378.18" font-family="Helvetica,sans-Serif" font-size="10.00">myStrHexToUint64</text>
</a>
</g>
</g>
<!-- Node11&#45;&gt;Node13 -->
<g id="edge14" class="edge">
<title>Node11&#45;&gt;Node13</title>
<path fill="none" stroke="midnightblue" d="M296.96,-352.22C323.38,-357.37 356.19,-363.76 384.02,-369.18"/>
<polygon fill="midnightblue" stroke="midnightblue" points="383.54,-372.65 394.02,-371.13 384.88,-365.78 383.54,-372.65"/>
</g>
<!-- Node14 -->
<g id="node14" class="node">
<title>Node14</title>
<g id="a_node14"><a xlink:href="group__NTS__SIM.html#gab66e0aa75993e5a780692b5b34ca44c8" target="_top" xlink:title="Converts a string of 2 HEX characters into an UINT8.">
<polygon fill="none" stroke="black" points="393,-333.18 393,-352.18 495,-352.18 495,-333.18 393,-333.18"/>
<text text-anchor="middle" x="444" y="-340.18" font-family="Helvetica,sans-Serif" font-size="10.00">myStrHexToUint8</text>
</a>
</g>
</g>
<!-- Node11&#45;&gt;Node14 -->
<g id="edge15" class="edge">
<title>Node11&#45;&gt;Node14</title>
<path fill="none" stroke="midnightblue" d="M309.7,-342.68C333.03,-342.68 359.53,-342.68 382.72,-342.68"/>
<polygon fill="midnightblue" stroke="midnightblue" points="382.78,-346.18 392.78,-342.68 382.78,-339.18 382.78,-346.18"/>
</g>
<!-- Node15 -->
<g id="node15" class="node">
<title>Node15</title>
<g id="a_node15"><a xlink:href="classAxisRaw.html#aa3f30a26f59cb6430ffd9196ab30c6d6" target="_top" xlink:title=" ">
<polygon fill="none" stroke="black" points="381.5,-295.18 381.5,-314.18 506.5,-314.18 506.5,-295.18 381.5,-295.18"/>
<text text-anchor="middle" x="444" y="-302.18" font-family="Helvetica,sans-Serif" font-size="10.00">AxisRaw::setLE_TData</text>
</a>
</g>
</g>
<!-- Node11&#45;&gt;Node15 -->
<g id="edge17" class="edge">
<title>Node11&#45;&gt;Node15</title>
<path fill="none" stroke="midnightblue" d="M296.96,-333.14C323.38,-327.99 356.19,-321.59 384.02,-316.17"/>
<polygon fill="midnightblue" stroke="midnightblue" points="384.88,-319.57 394.02,-314.22 383.54,-312.7 384.88,-319.57"/>
</g>
<!-- Node16 -->
<g id="node16" class="node">
<title>Node16</title>
<g id="a_node16"><a xlink:href="classAxisRaw.html#ae8f59ce9fd52536106de4db99df4558e" target="_top" xlink:title=" ">
<polygon fill="none" stroke="black" points="381.5,-257.18 381.5,-276.18 506.5,-276.18 506.5,-257.18 381.5,-257.18"/>
<text text-anchor="middle" x="444" y="-264.18" font-family="Helvetica,sans-Serif" font-size="10.00">AxisRaw::setLE_TKeep</text>
</a>
</g>
</g>
<!-- Node11&#45;&gt;Node16 -->
<g id="edge18" class="edge">
<title>Node11&#45;&gt;Node16</title>
<path fill="none" stroke="midnightblue" d="M264.94,-332.98C287.26,-320.55 328.02,-299.01 365,-285.68 372.02,-283.14 379.51,-280.84 386.98,-278.78"/>
<polygon fill="midnightblue" stroke="midnightblue" points="387.95,-282.14 396.73,-276.21 386.17,-275.37 387.95,-282.14"/>
</g>
<!-- Node17 -->
<g id="node17" class="node">
<title>Node17</title>
<g id="a_node17"><a xlink:href="classAxisRaw.html#a7fd855df91177afa363d72b3eb17af25" target="_top" xlink:title=" ">
<polygon fill="none" stroke="black" points="383,-409.18 383,-428.18 505,-428.18 505,-409.18 383,-409.18"/>
<text text-anchor="middle" x="444" y="-416.18" font-family="Helvetica,sans-Serif" font-size="10.00">AxisRaw::setLE_TLast</text>
</a>
</g>
</g>
<!-- Node11&#45;&gt;Node17 -->
<g id="edge19" class="edge">
<title>Node11&#45;&gt;Node17</title>
<path fill="none" stroke="midnightblue" d="M307.08,-352.24C314.72,-354.7 322.24,-357.79 329,-361.68 349.17,-373.26 344.88,-388 365,-399.68 368.73,-401.84 372.7,-403.76 376.79,-405.46"/>
<polygon fill="midnightblue" stroke="midnightblue" points="375.92,-408.87 386.52,-409.04 378.34,-402.3 375.92,-408.87"/>
</g>
<!-- Node12&#45;&gt;Node6 -->
<g id="edge13" class="edge">
<title>Node12&#45;&gt;Node6</title>
<path fill="none" stroke="midnightblue" d="M492.04,-461.92C509.59,-463.87 529.86,-466.13 548.83,-468.25"/>
<polygon fill="midnightblue" stroke="midnightblue" points="548.59,-471.74 558.92,-469.37 549.37,-464.78 548.59,-471.74"/>
</g>
<!-- Node18&#45;&gt;Node7 -->
<g id="edge26" class="edge">
<title>Node18&#45;&gt;Node7</title>
<path fill="none" stroke="midnightblue" d="M289.42,-162.24C343.62,-173.23 441.31,-187.8 523,-171.68 546.14,-167.11 570.77,-156.69 588.79,-147.91"/>
<polygon fill="midnightblue" stroke="midnightblue" points="590.7,-150.87 598.07,-143.25 587.56,-144.61 590.7,-150.87"/>
</g>
<!-- Node19 -->
<g id="node19" class="node">
<title>Node19</title>
<g id="a_node19"><a xlink:href="group__NTS__SIM.html#ga6482999e859912c3f008d202d50ecaff" target="_top" xlink:title="Checks if a string contains an IP address represented in dot&#45;decimal notation.">
<polygon fill="none" stroke="black" points="395,-143.18 395,-162.18 493,-162.18 493,-143.18 395,-143.18"/>
<text text-anchor="middle" x="444" y="-150.18" font-family="Helvetica,sans-Serif" font-size="10.00">isDottedDecimal</text>
</a>
</g>
</g>
<!-- Node18&#45;&gt;Node19 -->
<g id="edge21" class="edge">
<title>Node18&#45;&gt;Node19</title>
<path fill="none" stroke="midnightblue" d="M317.02,-152.68C339.15,-152.68 363.42,-152.68 384.7,-152.68"/>
<polygon fill="midnightblue" stroke="midnightblue" points="384.89,-156.18 394.89,-152.68 384.89,-149.18 384.89,-156.18"/>
</g>
<!-- Node20 -->
<g id="node20" class="node">
<title>Node20</title>
<g id="a_node20"><a xlink:href="group__NTS__SIM.html#gaf1e42151d0fc397a0eb27917e49ee5d9" target="_top" xlink:title="Checks if a string contains a hexadecimal number.">
<polygon fill="none" stroke="black" points="407.5,-67.18 407.5,-86.18 480.5,-86.18 480.5,-67.18 407.5,-67.18"/>
<text text-anchor="middle" x="444" y="-74.18" font-family="Helvetica,sans-Serif" font-size="10.00">isHexString</text>
</a>
</g>
</g>
<!-- Node18&#45;&gt;Node20 -->
<g id="edge23" class="edge">
<title>Node18&#45;&gt;Node20</title>
<path fill="none" stroke="midnightblue" d="M307.08,-143.11C314.72,-140.65 322.24,-137.56 329,-133.68 349.17,-122.09 344.88,-107.35 365,-95.68 374.78,-90 386.2,-86.01 397.24,-83.22"/>
<polygon fill="midnightblue" stroke="midnightblue" points="398.22,-86.58 407.21,-80.97 396.68,-79.75 398.22,-86.58"/>
</g>
<!-- Node21 -->
<g id="node21" class="node">
<title>Node21</title>
<g id="a_node21"><a xlink:href="group__NTS__SIM.html#gafbbf1f09f9d20139810e436ca5150104" target="_top" xlink:title="Converts an IPv4 address represented with a dotted&#45;decimal string into an UINT32.">
<polygon fill="none" stroke="black" points="365,-105.18 365,-124.18 523,-124.18 523,-105.18 365,-105.18"/>
<text text-anchor="middle" x="444" y="-112.18" font-family="Helvetica,sans-Serif" font-size="10.00">myDottedDecimalIpToUint32</text>
</a>
</g>
</g>
<!-- Node18&#45;&gt;Node21 -->
<g id="edge24" class="edge">
<title>Node18&#45;&gt;Node21</title>
<path fill="none" stroke="midnightblue" d="M296.96,-143.14C323.38,-137.99 356.19,-131.59 384.02,-126.17"/>
<polygon fill="midnightblue" stroke="midnightblue" points="384.88,-129.57 394.02,-124.22 383.54,-122.7 384.88,-129.57"/>
</g>
<!-- Node19&#45;&gt;Node7 -->
<g id="edge22" class="edge">
<title>Node19&#45;&gt;Node7</title>
<path fill="none" stroke="midnightblue" d="M493.4,-147.28C516.56,-144.7 544.2,-141.62 567.33,-139.04"/>
<polygon fill="midnightblue" stroke="midnightblue" points="567.72,-142.52 577.27,-137.94 566.94,-135.57 567.72,-142.52"/>
</g>
<!-- Node21&#45;&gt;Node7 -->
<g id="edge25" class="edge">
<title>Node21&#45;&gt;Node7</title>
<path fill="none" stroke="midnightblue" d="M523.26,-123.4C538.19,-125.06 553.41,-126.76 567.07,-128.28"/>
<polygon fill="midnightblue" stroke="midnightblue" points="566.85,-131.78 577.17,-129.4 567.62,-124.82 566.85,-131.78"/>
</g>
<!-- Node22&#45;&gt;Node7 -->
<g id="edge31" class="edge">
<title>Node22&#45;&gt;Node7</title>
<path fill="none" stroke="midnightblue" d="M262.33,-105C283.63,-91.28 325.37,-66.82 365,-57.68 433.43,-41.89 456.89,-34 523,-57.68 555.41,-69.28 584.6,-97.68 601.17,-116.29"/>
<polygon fill="midnightblue" stroke="midnightblue" points="598.69,-118.76 607.87,-124.05 603.99,-114.19 598.69,-118.76"/>
</g>
<!-- Node22&#45;&gt;Node19 -->
<g id="edge28" class="edge">
<title>Node22&#45;&gt;Node19</title>
<path fill="none" stroke="midnightblue" d="M296.96,-124.22C323.58,-129.4 356.69,-135.86 384.65,-141.31"/>
<polygon fill="midnightblue" stroke="midnightblue" points="384.22,-144.79 394.7,-143.26 385.55,-137.92 384.22,-144.79"/>
</g>
<!-- Node22&#45;&gt;Node20 -->
<g id="edge29" class="edge">
<title>Node22&#45;&gt;Node20</title>
<path fill="none" stroke="midnightblue" d="M296.96,-105.14C327.77,-99.13 367.27,-91.43 397.42,-85.56"/>
<polygon fill="midnightblue" stroke="midnightblue" points="398.11,-88.99 407.26,-83.64 396.77,-82.12 398.11,-88.99"/>
</g>
<!-- Node22&#45;&gt;Node21 -->
<g id="edge30" class="edge">
<title>Node22&#45;&gt;Node21</title>
<path fill="none" stroke="midnightblue" d="M316.2,-114.68C328.59,-114.68 341.68,-114.68 354.56,-114.68"/>
<polygon fill="midnightblue" stroke="midnightblue" points="354.82,-118.18 364.82,-114.68 354.82,-111.18 354.82,-118.18"/>
</g>
</g>
</svg>
        <g id="navigator" transform="translate(0 0)" fill="#404254">
                <rect fill="#f2f5e9" fill-opacity="0.5" stroke="#606060" stroke-width=".5" x="0" y="0" width="60" height="60"/>
                <use id="zoomplus" xlink:href="#zoomPlus" x="17" y="9" onmousedown="handleZoom(evt,'in')"/>
                <use id="zoomminus" xlink:href="#zoomMin" x="42" y="9" onmousedown="handleZoom(evt,'out')"/>
                <use id="reset" xlink:href="#resetDef" x="30" y="36" onmousedown="handleReset()"/>
                <g id="arrowUp" xlink:href="#dirArrow" transform="translate(30 24)" onmousedown="handlePan(0,-1)">
                  <use xlink:href="#rim" fill="#404040">
                        <set attributeName="fill" to="#808080" begin="arrowUp.mouseover" end="arrowUp.mouseout"/>
                  </use>
                  <path fill="none" stroke="white" stroke-width="1.5" d="M0,-3.0v7 M-2.5,-0.5L0,-3.0L2.5,-0.5"/>
                </g>
                <g id="arrowRight" xlink:href="#dirArrow" transform="rotate(90) translate(36 -43)" onmousedown="handlePan(1,0)">
                  <use xlink:href="#rim" fill="#404040">
                        <set attributeName="fill" to="#808080" begin="arrowRight.mouseover" end="arrowRight.mouseout"/>
                  </use>
                  <path fill="none" stroke="white" stroke-width="1.5" d="M0,-3.0v7 M-2.5,-0.5L0,-3.0L2.5,-0.5"/>
                </g>
                <g id="arrowDown" xlink:href="#dirArrow" transform="rotate(180) translate(-30 -48)" onmousedown="handlePan(0,1)">
                  <use xlink:href="#rim" fill="#404040">
                        <set attributeName="fill" to="#808080" begin="arrowDown.mouseover" end="arrowDown.mouseout"/>
                  </use>
                  <path fill="none" stroke="white" stroke-width="1.5" d="M0,-3.0v7 M-2.5,-0.5L0,-3.0L2.5,-0.5"/>
                </g>
                <g id="arrowLeft" xlink:href="#dirArrow" transform="rotate(270) translate(-36 17)" onmousedown="handlePan(-1,0)">
                  <use xlink:href="#rim" fill="#404040">
                        <set attributeName="fill" to="#808080" begin="arrowLeft.mouseover" end="arrowLeft.mouseout"/>
                  </use>
                  <path fill="none" stroke="white" stroke-width="1.5" d="M0,-3.0v7 M-2.5,-0.5L0,-3.0L2.5,-0.5"/>
                </g>
        </g>
        <svg viewBox="0 0 15 15" width="100%" height="30px" preserveAspectRatio="xMaxYMin meet">
         <g id="arrow_out" transform="scale(0.3 0.3)">
          <a xlink:href="group__udp__app__flash_ga5b6de7e53f9c6d997bcb7c5f830ba06a_cgraph_org.svg" target="_base">
           <rect id="button" ry="5" rx="5" y="6" x="6" height="38" width="38"
                fill="#f2f5e9" fill-opacity="0.5" stroke="#606060" stroke-width="1.0"/>
           <path id="arrow"
             d="M 11.500037,31.436501 C 11.940474,20.09759 22.043105,11.32322 32.158766,21.979434 L 37.068811,17.246167 C 37.068811,17.246167 37.088388,32 37.088388,32 L 22.160133,31.978069 C 22.160133,31.978069 26.997745,27.140456 26.997745,27.140456 C 18.528582,18.264221 13.291696,25.230495 11.500037,31.436501 z"
             style="fill:#404040;"/>
          </a>
         </g>
        </svg>
</svg>
