<?xml version="1.0" encoding="UTF-8" standalone="no"?>
<!DOCTYPE svg PUBLIC "-//W3C//DTD SVG 1.1//EN"
 "http://www.w3.org/Graphics/SVG/1.1/DTD/svg11.dtd">
<!-- Generated by graphviz version 2.43.0 (0)
 -->
<!-- Title: pStreamMux Pages: 1 -->
<svg width="497pt" height="66pt"
 viewBox="0.00 0.00 497.00 66.00" xmlns="http://www.w3.org/2000/svg" xmlns:xlink="http://www.w3.org/1999/xlink">
<g id="graph0" class="graph" transform="scale(1 1) rotate(0) translate(4 62)">
<title>pStreamMux</title>
<!-- Node1 -->
<g id="node1" class="node">
<title>Node1</title>
<g id="a_node1"><a xlink:title="A 2&#45;to&#45;1 generic Stream Multiplexer.">
<polygon fill="#bfbfbf" stroke="black" points="410,-19.5 410,-38.5 489,-38.5 489,-19.5 410,-19.5"/>
<text text-anchor="middle" x="449.5" y="-26.5" font-family="Helvetica,sans-Serif" font-size="10.00">pStreamMux</text>
</a>
</g>
</g>
<!-- Node2 -->
<g id="node2" class="node">
<title>Node2</title>
<g id="a_node2"><a xlink:href="group__NTS__TOE.html#ga46f4de3abe0f59a858a2b04fd871a2b2" target="_top" xlink:title="The Timers (TIm)">
<polygon fill="none" stroke="black" points="301,-38.5 301,-57.5 349,-57.5 349,-38.5 301,-38.5"/>
<text text-anchor="middle" x="325" y="-45.5" font-family="Helvetica,sans-Serif" font-size="10.00">timers</text>
</a>
</g>
</g>
<!-- Node1&#45;&gt;Node2 -->
<g id="edge1" class="edge">
<title>Node1&#45;&gt;Node2</title>
<path fill="none" stroke="midnightblue" d="M399.69,-36.57C382.27,-39.27 363.45,-42.19 349.19,-44.4"/>
<polygon fill="midnightblue" stroke="midnightblue" points="400.39,-40 409.74,-35.01 399.32,-33.09 400.39,-40"/>
</g>
<!-- Node6 -->
<g id="node6" class="node">
<title>Node6</title>
<g id="a_node6"><a xlink:href="group__NTS__TOE.html#ga62e5335de2bf31638c3ee44dba4a14f2" target="_top" xlink:title="Tx Application Interface (TAi)">
<polygon fill="none" stroke="black" points="276,-0.5 276,-19.5 374,-19.5 374,-0.5 276,-0.5"/>
<text text-anchor="middle" x="325" y="-7.5" font-family="Helvetica,sans-Serif" font-size="10.00">tx_app_interface</text>
</a>
</g>
</g>
<!-- Node1&#45;&gt;Node6 -->
<g id="edge5" class="edge">
<title>Node1&#45;&gt;Node6</title>
<path fill="none" stroke="midnightblue" d="M399.77,-21.44C391.42,-20.15 382.75,-18.8 374.42,-17.51"/>
<polygon fill="midnightblue" stroke="midnightblue" points="399.32,-24.91 409.74,-22.99 400.39,-18 399.32,-24.91"/>
</g>
<!-- Node3 -->
<g id="node3" class="node">
<title>Node3</title>
<g id="a_node3"><a xlink:href="group__NTS__TOE.html#ga1d48efdcf37aa3803a7f7444fe485c9f" target="_top" xlink:title="Main process of the TCP Offload Engine (TOE0.">
<polygon fill="none" stroke="black" points="208,-19.5 208,-38.5 240,-38.5 240,-19.5 208,-19.5"/>
<text text-anchor="middle" x="224" y="-26.5" font-family="Helvetica,sans-Serif" font-size="10.00">toe</text>
</a>
</g>
</g>
<!-- Node2&#45;&gt;Node3 -->
<g id="edge2" class="edge">
<title>Node2&#45;&gt;Node3</title>
<path fill="none" stroke="midnightblue" d="M290.58,-41.59C273.45,-38.3 253.44,-34.46 240.07,-31.89"/>
<polygon fill="midnightblue" stroke="midnightblue" points="290.31,-45.1 300.79,-43.55 291.63,-38.22 290.31,-45.1"/>
</g>
<!-- Node4 -->
<g id="node4" class="node">
<title>Node4</title>
<g id="a_node4"><a xlink:href="group__NTS__TOE.html#gab3d23260a8a037543d01f716091df7e8" target="_top" xlink:title="Top of TCP Offload Engine (TOE)">
<polygon fill="none" stroke="black" points="119,-19.5 119,-38.5 172,-38.5 172,-19.5 119,-19.5"/>
<text text-anchor="middle" x="145.5" y="-26.5" font-family="Helvetica,sans-Serif" font-size="10.00">toe_top</text>
</a>
</g>
</g>
<!-- Node3&#45;&gt;Node4 -->
<g id="edge3" class="edge">
<title>Node3&#45;&gt;Node4</title>
<path fill="none" stroke="midnightblue" d="M197.75,-29C189.52,-29 180.38,-29 172.13,-29"/>
<polygon fill="midnightblue" stroke="midnightblue" points="197.89,-32.5 207.89,-29 197.89,-25.5 197.89,-32.5"/>
</g>
<!-- Node5 -->
<g id="node5" class="node">
<title>Node5</title>
<g id="a_node5"><a xlink:href="group__NTS__TOE__TEST.html#gae95a90fdba9993f0d4e2f27cd94f22e2" target="_top" xlink:title="A wrapper for the Toplevel of the TCP Offload Engine (TOE).">
<polygon fill="none" stroke="black" points="0,-19.5 0,-38.5 83,-38.5 83,-19.5 0,-19.5"/>
<text text-anchor="middle" x="41.5" y="-26.5" font-family="Helvetica,sans-Serif" font-size="10.00">toe_top_wrap</text>
</a>
</g>
</g>
<!-- Node4&#45;&gt;Node5 -->
<g id="edge4" class="edge">
<title>Node4&#45;&gt;Node5</title>
<path fill="none" stroke="midnightblue" d="M108.74,-29C100.52,-29 91.73,-29 83.32,-29"/>
<polygon fill="midnightblue" stroke="midnightblue" points="108.76,-32.5 118.76,-29 108.76,-25.5 108.76,-32.5"/>
</g>
<!-- Node6&#45;&gt;Node3 -->
<g id="edge6" class="edge">
<title>Node6&#45;&gt;Node3</title>
<path fill="none" stroke="midnightblue" d="M265.93,-21.15C256.4,-22.97 247.31,-24.72 240.13,-26.1"/>
<polygon fill="midnightblue" stroke="midnightblue" points="266.79,-24.54 275.95,-19.22 265.47,-17.67 266.79,-24.54"/>
</g>
</g>
</svg>
