<?xml version="1.0" encoding="UTF-8" standalone="no"?>
<!DOCTYPE svg PUBLIC "-//W3C//DTD SVG 1.1//EN"
 "http://www.w3.org/Graphics/SVG/1.1/DTD/svg11.dtd">
<!-- Generated by graphviz version 2.43.0 (0)
 -->
<!-- Title: main Pages: 1 -->
<svg width="391pt" height="367pt"
 viewBox="0.00 0.00 391.00 366.71" xmlns="http://www.w3.org/2000/svg" xmlns:xlink="http://www.w3.org/1999/xlink">
<g id="graph0" class="graph" transform="scale(1 1) rotate(0) translate(4 362.71)">
<title>main</title>
<!-- Node1 -->
<g id="node1" class="node">
<title>Node1</title>
<g id="a_node1"><a xlink:title=" ">
<polygon fill="#bfbfbf" stroke="black" points="0,-171.5 0,-190.5 41,-190.5 41,-171.5 0,-171.5"/>
<text text-anchor="middle" x="20.5" y="-178.5" font-family="Helvetica,sans-Serif" font-size="10.00">main</text>
</a>
</g>
</g>
<!-- Node2 -->
<g id="node2" class="node">
<title>Node2</title>
<g id="a_node2"><a xlink:href="namespacevar_1_1common.html#a0e8c2a1201adedb395a7e08410568717" target="_top" xlink:title=" ">
<polygon fill="none" stroke="black" points="277,-247.5 277,-266.5 383,-266.5 383,-247.5 277,-247.5"/>
<text text-anchor="middle" x="330" y="-254.5" font-family="Helvetica,sans-Serif" font-size="10.00">var.common.clock</text>
</a>
</g>
</g>
<!-- Node1&#45;&gt;Node2 -->
<g id="edge1" class="edge">
<title>Node1&#45;&gt;Node2</title>
<path fill="none" stroke="midnightblue" d="M21.55,-190.68C22.28,-218.57 28.66,-299.19 77,-333 136.73,-374.78 172.69,-358.42 241,-333 272.2,-321.39 299.71,-293.21 315.35,-274.62"/>
<polygon fill="midnightblue" stroke="midnightblue" points="318.26,-276.58 321.85,-266.61 312.83,-272.17 318.26,-276.58"/>
</g>
<!-- Node3 -->
<g id="node3" class="node">
<title>Node3</title>
<g id="a_node3"><a xlink:href="group__Memtest.html#ga3017b92fe339f2011c17f453837bb92c" target="_top" xlink:title=" ">
<polygon fill="none" stroke="black" points="108,-304.5 108,-323.5 210,-323.5 210,-304.5 108,-304.5"/>
<text text-anchor="middle" x="159" y="-311.5" font-family="Helvetica,sans-Serif" font-size="10.00">createAVGLogFile</text>
</a>
</g>
</g>
<!-- Node1&#45;&gt;Node3 -->
<g id="edge2" class="edge">
<title>Node1&#45;&gt;Node3</title>
<path fill="none" stroke="midnightblue" d="M23.3,-190.7C27.93,-212.86 42.43,-267.38 77,-295 83.19,-299.94 90.44,-303.64 98.02,-306.4"/>
<polygon fill="midnightblue" stroke="midnightblue" points="97.16,-309.8 107.74,-309.42 99.23,-303.11 97.16,-309.8"/>
</g>
<!-- Node4 -->
<g id="node4" class="node">
<title>Node4</title>
<g id="a_node4"><a xlink:href="group__Memtest.html#ga8e00d74dc12ca922c4d491acf8514ced" target="_top" xlink:title=" ">
<polygon fill="none" stroke="black" points="114.5,-266.5 114.5,-285.5 203.5,-285.5 203.5,-266.5 114.5,-266.5"/>
<text text-anchor="middle" x="159" y="-273.5" font-family="Helvetica,sans-Serif" font-size="10.00">createItLogFile</text>
</a>
</g>
</g>
<!-- Node1&#45;&gt;Node4 -->
<g id="edge3" class="edge">
<title>Node1&#45;&gt;Node4</title>
<path fill="none" stroke="midnightblue" d="M25.75,-190.65C33.47,-207 51.4,-240.03 77,-257 85.13,-262.39 94.61,-266.26 104.16,-269.03"/>
<polygon fill="midnightblue" stroke="midnightblue" points="103.53,-272.48 114.08,-271.54 105.25,-265.7 103.53,-272.48"/>
</g>
<!-- Node5 -->
<g id="node5" class="node">
<title>Node5</title>
<g id="a_node5"><a xlink:href="group__Memtest.html#ga820aadaa339509c11849e0b1e72967a2" target="_top" xlink:title="Create the commands for a memory test with start/max address to test&#45;nop to execute&#45;stop.">
<polygon fill="none" stroke="black" points="85.5,-228.5 85.5,-247.5 232.5,-247.5 232.5,-228.5 85.5,-228.5"/>
<text text-anchor="middle" x="159" y="-235.5" font-family="Helvetica,sans-Serif" font-size="10.00">createMemTestCommands</text>
</a>
</g>
</g>
<!-- Node1&#45;&gt;Node5 -->
<g id="edge4" class="edge">
<title>Node1&#45;&gt;Node5</title>
<path fill="none" stroke="midnightblue" d="M33.07,-190.83C43.8,-199.47 60.55,-211.74 77,-219 82.72,-221.52 88.83,-223.74 95.02,-225.68"/>
<polygon fill="midnightblue" stroke="midnightblue" points="94.21,-229.08 104.79,-228.49 96.15,-222.36 94.21,-229.08"/>
</g>
<!-- Node6 -->
<g id="node6" class="node">
<title>Node6</title>
<g id="a_node6"><a xlink:href="group__Memtest.html#ga99f8a2336b4fd23920c4370ec843b5c9" target="_top" xlink:title=" ">
<polygon fill="none" stroke="black" points="77,-190.5 77,-209.5 241,-209.5 241,-190.5 77,-190.5"/>
<text text-anchor="middle" x="159" y="-197.5" font-family="Helvetica,sans-Serif" font-size="10.00">createMemTestStopCommand</text>
</a>
</g>
</g>
<!-- Node1&#45;&gt;Node6 -->
<g id="edge5" class="edge">
<title>Node1&#45;&gt;Node6</title>
<path fill="none" stroke="midnightblue" d="M41.06,-183.72C51.54,-185.18 65.22,-187.09 79.51,-189.07"/>
<polygon fill="midnightblue" stroke="midnightblue" points="79.08,-192.55 89.47,-190.46 80.05,-185.62 79.08,-192.55"/>
</g>
<!-- Node7 -->
<g id="node7" class="node">
<title>Node7</title>
<g id="a_node7"><a xlink:href="group__Memtest.html#ga9e7cc9f16fb9cb7de4698c16cd748f15" target="_top" xlink:title=" ">
<polygon fill="none" stroke="black" points="137,-152.5 137,-171.5 181,-171.5 181,-152.5 137,-152.5"/>
<text text-anchor="middle" x="159" y="-159.5" font-family="Helvetica,sans-Serif" font-size="10.00">delay</text>
</a>
</g>
</g>
<!-- Node1&#45;&gt;Node7 -->
<g id="edge6" class="edge">
<title>Node1&#45;&gt;Node7</title>
<path fill="none" stroke="midnightblue" d="M41.06,-178.28C63.35,-175.18 100.09,-170.06 126.44,-166.39"/>
<polygon fill="midnightblue" stroke="midnightblue" points="127.26,-169.81 136.68,-164.97 126.29,-162.88 127.26,-169.81"/>
</g>
<!-- Node8 -->
<g id="node8" class="node">
<title>Node8</title>
<g id="a_node8"><a xlink:href="group__Memtest.html#ga9c37d60ca11dffd4836f3230f9d7cc54" target="_top" xlink:title=" ">
<polygon fill="none" stroke="black" points="110,-114.5 110,-133.5 208,-133.5 208,-114.5 110,-114.5"/>
<text text-anchor="middle" x="159" y="-121.5" font-family="Helvetica,sans-Serif" font-size="10.00">logTheAvgResult</text>
</a>
</g>
</g>
<!-- Node1&#45;&gt;Node8 -->
<g id="edge8" class="edge">
<title>Node1&#45;&gt;Node8</title>
<path fill="none" stroke="midnightblue" d="M33.07,-171.17C43.8,-162.53 60.55,-150.26 77,-143 84.33,-139.77 92.28,-137.04 100.25,-134.76"/>
<polygon fill="midnightblue" stroke="midnightblue" points="101.16,-138.14 109.93,-132.19 99.36,-131.37 101.16,-138.14"/>
</g>
<!-- Node9 -->
<g id="node9" class="node">
<title>Node9</title>
<g id="a_node9"><a xlink:href="group__Memtest.html#gaa932d98714b1e4440ef32e7da6579534" target="_top" xlink:title=" ">
<polygon fill="none" stroke="black" points="104,-76.5 104,-95.5 214,-95.5 214,-76.5 104,-76.5"/>
<text text-anchor="middle" x="159" y="-83.5" font-family="Helvetica,sans-Serif" font-size="10.00">logTheSingleResult</text>
</a>
</g>
</g>
<!-- Node1&#45;&gt;Node9 -->
<g id="edge9" class="edge">
<title>Node1&#45;&gt;Node9</title>
<path fill="none" stroke="midnightblue" d="M25.75,-171.35C33.47,-155 51.4,-121.97 77,-105 82.29,-101.49 88.16,-98.63 94.24,-96.29"/>
<polygon fill="midnightblue" stroke="midnightblue" points="95.57,-99.54 103.93,-93.04 93.34,-92.9 95.57,-99.54"/>
</g>
<!-- Node10 -->
<g id="node10" class="node">
<title>Node10</title>
<g id="a_node10"><a xlink:href="group__Memtest.html#ga2c8f83c055982a3985bf224615c0c61c" target="_top" xlink:title="Parse the memory test output contained in astring with a given size.">
<polygon fill="none" stroke="black" points="90.5,-38.5 90.5,-57.5 227.5,-57.5 227.5,-38.5 90.5,-38.5"/>
<text text-anchor="middle" x="159" y="-45.5" font-family="Helvetica,sans-Serif" font-size="10.00">parseMemoryTestOutput</text>
</a>
</g>
</g>
<!-- Node1&#45;&gt;Node10 -->
<g id="edge10" class="edge">
<title>Node1&#45;&gt;Node10</title>
<path fill="none" stroke="midnightblue" d="M23.3,-171.3C27.93,-149.14 42.43,-94.62 77,-67 79.27,-65.18 81.69,-63.53 84.22,-62.04"/>
<polygon fill="midnightblue" stroke="midnightblue" points="85.82,-65.15 93.17,-57.52 82.66,-58.9 85.82,-65.15"/>
</g>
<!-- Node11 -->
<g id="node11" class="node">
<title>Node11</title>
<g id="a_node11"><a xlink:href="group__Memtest.html#gac0159b8ec20f06982f7093fe7ea8b42c" target="_top" xlink:title=" ">
<polygon fill="none" stroke="black" points="106.5,-0.5 106.5,-19.5 211.5,-19.5 211.5,-0.5 106.5,-0.5"/>
<text text-anchor="middle" x="159" y="-7.5" font-family="Helvetica,sans-Serif" font-size="10.00">print_cFpMemtest</text>
</a>
</g>
</g>
<!-- Node1&#45;&gt;Node11 -->
<g id="edge11" class="edge">
<title>Node1&#45;&gt;Node11</title>
<path fill="none" stroke="midnightblue" d="M21.98,-171.45C23.88,-144.62 33.07,-67.96 77,-29 82.65,-23.99 89.36,-20.24 96.48,-17.43"/>
<polygon fill="midnightblue" stroke="midnightblue" points="97.96,-20.63 106.36,-14.17 95.77,-13.98 97.96,-20.63"/>
</g>
<!-- Node7&#45;&gt;Node2 -->
<g id="edge7" class="edge">
<title>Node7&#45;&gt;Node2</title>
<path fill="none" stroke="midnightblue" d="M181.26,-164.16C198.18,-166.52 222.08,-171.36 241,-181 270.06,-195.81 297.49,-222.2 313.77,-239.65"/>
<polygon fill="midnightblue" stroke="midnightblue" points="311.51,-242.37 320.83,-247.41 316.69,-237.66 311.51,-242.37"/>
</g>
</g>
</svg>
