<?xml version="1.0" encoding="UTF-8" standalone="no"?>
<!DOCTYPE svg PUBLIC "-//W3C//DTD SVG 1.1//EN"
 "http://www.w3.org/Graphics/SVG/1.1/DTD/svg11.dtd">
<!-- Generated by graphviz version 2.43.0 (0)
 -->
<!-- Title: nal_main Pages: 1 -->
<!--zoomable 959 -->
<svg id="main" version="1.1" xmlns="http://www.w3.org/2000/svg" xmlns:xlink="http://www.w3.org/1999/xlink" xml:space="preserve" onload="init(evt)">
<style type="text/css"><![CDATA[
.edge:hover path { stroke: red; }
.edge:hover polygon { stroke: red; fill: red; }
]]></style>
<script type="text/javascript"><![CDATA[
var edges = document.getElementsByTagName('g');
if (edges && edges.length) {
  for (var i=0;i<edges.length;i++) {
    if (edges[i].id.substr(0,4)=='edge') {
      edges[i].setAttribute('class','edge');
    }
  }
}
]]></script>
        <defs>
                <circle id="rim" cx="0" cy="0" r="7"/>
                <circle id="rim2" cx="0" cy="0" r="3.5"/>
                <g id="zoomPlus">
                        <use xlink:href="#rim" fill="#404040">
                                <set attributeName="fill" to="#808080" begin="zoomplus.mouseover" end="zoomplus.mouseout"/>
                        </use>
                        <path d="M-4,0h8M0,-4v8" fill="none" stroke="white" stroke-width="1.5" pointer-events="none"/>
                </g>
                <g id="zoomMin">
                        <use xlink:href="#rim" fill="#404040">
                                <set attributeName="fill" to="#808080" begin="zoomminus.mouseover" end="zoomminus.mouseout"/>
                        </use>
                        <path d="M-4,0h8" fill="none" stroke="white" stroke-width="1.5" pointer-events="none"/>
                </g>
                <g id="dirArrow">
                        <path fill="none" stroke="white" stroke-width="1.5" d="M0,-3.0v7 M-2.5,-0.5L0,-3.0L2.5,-0.5"/>
                </g>
               <g id="resetDef">
                       <use xlink:href="#rim2" fill="#404040">
                               <set attributeName="fill" to="#808080" begin="reset.mouseover" end="reset.mouseout"/>
                       </use>
               </g>
        </defs>

<script type="text/javascript">
var viewWidth = 624;
var viewHeight = 959;
var sectionId = 'dynsection-23';
</script>
<script xlink:href="svgpan.js"/>
<svg id="graph" class="graph">
<g id="viewport">
<title>nal_main</title>
<!-- Node1 -->
<g id="node1" class="node">
<title>Node1</title>
<g id="a_node1"><a xlink:title="Main process of the Network Abstraction Layer (NAL)">
<polygon fill="#bfbfbf" stroke="black" points="0,-456.5 0,-475.5 62,-475.5 62,-456.5 0,-456.5"/>
<text text-anchor="middle" x="31" y="-463.5" font-family="Helvetica,sans-Serif" font-size="10.00">nal_main</text>
</a>
</g>
</g>
<!-- Node2 -->
<g id="node2" class="node">
<title>Node2</title>
<g id="a_node2"><a xlink:href="group__NAL.html#ga1f712ae254c9d7885d8d14f00c2ab286" target="_top" xlink:title="Contains the Axi4 Lite secondary endpoint and reads the MRT and configuration values from it as well ...">
<polygon fill="none" stroke="black" points="107,-931.5 107,-950.5 213,-950.5 213,-931.5 107,-931.5"/>
<text text-anchor="middle" x="160" y="-938.5" font-family="Helvetica,sans-Serif" font-size="10.00">axi4liteProcessing</text>
</a>
</g>
</g>
<!-- Node1&#45;&gt;Node2 -->
<g id="edge1" class="edge">
<title>Node1&#45;&gt;Node2</title>
<path fill="none" stroke="midnightblue" d="M32.05,-475.79C32.53,-535.62 37.91,-851.56 98,-922 99.14,-923.33 100.37,-924.58 101.68,-925.73"/>
<polygon fill="midnightblue" stroke="midnightblue" points="99.68,-928.61 109.89,-931.46 103.68,-922.87 99.68,-928.61"/>
</g>
<!-- Node4 -->
<g id="node4" class="node">
<title>Node4</title>
<g id="a_node4"><a xlink:href="group__NAL.html#ga8ec8c51318db4b33fc1948275e24920b" target="_top" xlink:title="Merges multiple fifos, where the order of the fifo represents also the priorities.">
<polygon fill="none" stroke="black" points="113.5,-893.5 113.5,-912.5 206.5,-912.5 206.5,-893.5 113.5,-893.5"/>
<text text-anchor="middle" x="160" y="-900.5" font-family="Helvetica,sans-Serif" font-size="10.00">eventFifoMerge</text>
</a>
</g>
</g>
<!-- Node1&#45;&gt;Node4 -->
<g id="edge3" class="edge">
<title>Node1&#45;&gt;Node4</title>
<path fill="none" stroke="midnightblue" d="M32.19,-475.71C33.46,-532.36 42.63,-819.94 98,-884 99.94,-886.24 102.14,-888.22 104.52,-889.97"/>
<polygon fill="midnightblue" stroke="midnightblue" points="102.82,-893.04 113.22,-895.08 106.37,-887 102.82,-893.04"/>
</g>
<!-- Node5 -->
<g id="node5" class="node">
<title>Node5</title>
<g id="a_node5"><a xlink:href="group__NAL.html#ga5a5e4247cf5a7b2544f96f553e0df6e5" target="_top" xlink:title="Detects if the caches of the USS and TSS have to be invalidated and signals this to the concerned pro...">
<polygon fill="none" stroke="black" points="98,-855.5 98,-874.5 222,-874.5 222,-855.5 98,-855.5"/>
<text text-anchor="middle" x="160" y="-862.5" font-family="Helvetica,sans-Serif" font-size="10.00">pCacheInvalDetection</text>
</a>
</g>
</g>
<!-- Node1&#45;&gt;Node5 -->
<g id="edge4" class="edge">
<title>Node1&#45;&gt;Node5</title>
<path fill="none" stroke="midnightblue" d="M32.35,-475.52C34.46,-528.64 47.31,-788.25 98,-846 99.16,-847.32 100.4,-848.55 101.73,-849.69"/>
<polygon fill="midnightblue" stroke="midnightblue" points="99.77,-852.59 110,-855.36 103.73,-846.82 99.77,-852.59"/>
</g>
<!-- Node6 -->
<g id="node6" class="node">
<title>Node6</title>
<g id="a_node6"><a xlink:href="group__NAL.html#ga23f8bb336502a0c74b34d4a8e480e16e" target="_top" xlink:title="Terminates the internal TCP RX FIFOs and forwards packets to the FMC.">
<polygon fill="none" stroke="black" points="114,-817.5 114,-836.5 206,-836.5 206,-817.5 114,-817.5"/>
<text text-anchor="middle" x="160" y="-824.5" font-family="Helvetica,sans-Serif" font-size="10.00">pFmcTcpRxDeq</text>
</a>
</g>
</g>
<!-- Node1&#45;&gt;Node6 -->
<g id="edge5" class="edge">
<title>Node1&#45;&gt;Node6</title>
<path fill="none" stroke="midnightblue" d="M32.55,-475.53C35.59,-525.48 52.04,-756.62 98,-808 100.05,-810.29 102.36,-812.3 104.86,-814.07"/>
<polygon fill="midnightblue" stroke="midnightblue" points="103.55,-817.35 113.98,-819.23 107,-811.26 103.55,-817.35"/>
</g>
<!-- Node9 -->
<g id="node9" class="node">
<title>Node9</title>
<g id="a_node9"><a xlink:href="group__NAL.html#gace2071b8e0158ce39c64cb7c16a76c9c" target="_top" xlink:title="Can access the BRAM that contains the MRT and replies to lookup requests.">
<polygon fill="none" stroke="black" points="122.5,-304.5 122.5,-323.5 197.5,-323.5 197.5,-304.5 122.5,-304.5"/>
<text text-anchor="middle" x="160" y="-311.5" font-family="Helvetica,sans-Serif" font-size="10.00">pMrtAgency</text>
</a>
</g>
</g>
<!-- Node1&#45;&gt;Node9 -->
<g id="edge8" class="edge">
<title>Node1&#45;&gt;Node9</title>
<path fill="none" stroke="midnightblue" d="M34.03,-456.35C39.66,-431.95 57.79,-367.29 98,-333 102.33,-329.31 107.36,-326.34 112.66,-323.94"/>
<polygon fill="midnightblue" stroke="midnightblue" points="114.27,-327.07 122.36,-320.22 111.77,-320.53 114.27,-327.07"/>
</g>
<!-- Node10 -->
<g id="node10" class="node">
<title>Node10</title>
<g id="a_node10"><a xlink:href="group__NAL.html#gaf7d1bf95e919402a3bb1066e10fb28ff" target="_top" xlink:title="Translates the one&#45;hot encoded open&#45;port vectors from the Role (i.e. piUdpRxPorts and piTcpRxPorts) t...">
<polygon fill="none" stroke="black" points="126,-266.5 126,-285.5 194,-285.5 194,-266.5 126,-266.5"/>
<text text-anchor="middle" x="160" y="-273.5" font-family="Helvetica,sans-Serif" font-size="10.00">pPortLogic</text>
</a>
</g>
</g>
<!-- Node1&#45;&gt;Node10 -->
<g id="edge9" class="edge">
<title>Node1&#45;&gt;Node10</title>
<path fill="none" stroke="midnightblue" d="M32.86,-456.26C35.93,-427.29 48.97,-340.88 98,-295 103.12,-290.21 109.42,-286.63 116.01,-283.95"/>
<polygon fill="midnightblue" stroke="midnightblue" points="117.44,-287.17 125.78,-280.64 115.19,-280.54 117.44,-287.17"/>
</g>
<!-- Node12 -->
<g id="node12" class="node">
<title>Node12</title>
<g id="a_node12"><a xlink:href="group__NAL.html#gaa0866a7a6625fdc97d104b8514be4b71" target="_top" xlink:title="Terminates the internal TCP RX FIFOs and forwards packets to the Role.">
<polygon fill="none" stroke="black" points="114,-779.5 114,-798.5 206,-798.5 206,-779.5 114,-779.5"/>
<text text-anchor="middle" x="160" y="-786.5" font-family="Helvetica,sans-Serif" font-size="10.00">pRoleTcpRxDeq</text>
</a>
</g>
</g>
<!-- Node1&#45;&gt;Node12 -->
<g id="edge11" class="edge">
<title>Node1&#45;&gt;Node12</title>
<path fill="none" stroke="midnightblue" d="M32.81,-475.69C36.9,-522.53 56.79,-724.99 98,-770 100.04,-772.22 102.33,-774.19 104.8,-775.93"/>
<polygon fill="midnightblue" stroke="midnightblue" points="103.34,-779.13 113.77,-781 106.79,-773.03 103.34,-779.13"/>
</g>
<!-- Node13 -->
<g id="node13" class="node">
<title>Node13</title>
<g id="a_node13"><a xlink:href="group__NAL.html#ga45a5fc73b13191ba4c8d30d3bea5fde9" target="_top" xlink:title="Terminates the internal UDP RX FIFOs and forwards packets to the Role.">
<polygon fill="none" stroke="black" points="112,-570.5 112,-589.5 208,-589.5 208,-570.5 112,-570.5"/>
<text text-anchor="middle" x="160" y="-577.5" font-family="Helvetica,sans-Serif" font-size="10.00">pRoleUdpRxDeq</text>
</a>
</g>
</g>
<!-- Node1&#45;&gt;Node13 -->
<g id="edge13" class="edge">
<title>Node1&#45;&gt;Node13</title>
<path fill="none" stroke="midnightblue" d="M36.64,-475.52C45.91,-493.61 68.38,-533.18 98,-556 103.33,-560.11 109.45,-563.6 115.72,-566.54"/>
<polygon fill="midnightblue" stroke="midnightblue" points="114.35,-569.76 124.92,-570.45 117.09,-563.32 114.35,-569.76"/>
</g>
<!-- Node14 -->
<g id="node14" class="node">
<title>Node14</title>
<g id="a_node14"><a xlink:href="group__NAL.html#ga56761f5f578bf169898726ec3b4868b8" target="_top" xlink:title=" ">
<polygon fill="none" stroke="black" points="304,-532.5 304,-551.5 382,-551.5 382,-532.5 304,-532.5"/>
<text text-anchor="middle" x="343" y="-539.5" font-family="Helvetica,sans-Serif" font-size="10.00">soUdp_meta</text>
</a>
</g>
</g>
<!-- Node1&#45;&gt;Node14 -->
<g id="edge63" class="edge">
<title>Node1&#45;&gt;Node14</title>
<path fill="none" stroke="midnightblue" d="M39.72,-475.76C50.93,-489.12 73.13,-512.63 98,-523 161.84,-549.62 243.15,-550.07 293.9,-546.86"/>
<polygon fill="midnightblue" stroke="midnightblue" points="294.21,-550.35 303.94,-546.16 293.72,-543.37 294.21,-550.35"/>
</g>
<!-- Node15 -->
<g id="node15" class="node">
<title>Node15</title>
<g id="a_node15"><a xlink:href="group__NAL.html#gae133f63849950cf20a3c372ffe42341e" target="_top" xlink:title="Maps the individual event notification of the USS/TSS processes to the status array as part of the Ax...">
<polygon fill="none" stroke="black" points="113,-228.5 113,-247.5 207,-247.5 207,-228.5 113,-228.5"/>
<text text-anchor="middle" x="160" y="-235.5" font-family="Helvetica,sans-Serif" font-size="10.00">pStatusMemory</text>
</a>
</g>
</g>
<!-- Node1&#45;&gt;Node15 -->
<g id="edge15" class="edge">
<title>Node1&#45;&gt;Node15</title>
<path fill="none" stroke="midnightblue" d="M32.08,-456.08C32.88,-422.91 40.04,-314.73 98,-257 99.86,-255.15 101.89,-253.48 104.05,-251.97"/>
<polygon fill="midnightblue" stroke="midnightblue" points="105.96,-254.91 112.92,-246.92 102.5,-248.83 105.96,-254.91"/>
</g>
<!-- Node16 -->
<g id="node16" class="node">
<title>Node16</title>
<g id="a_node16"><a xlink:href="group__NAL.html#ga614984afbfbbb905e0dfe4c6b5ee3813" target="_top" xlink:title="Contains the SessionId&#45;Triple CAM for TCP sessions. It replies to stram requests.">
<polygon fill="none" stroke="black" points="123,-190.5 123,-209.5 197,-209.5 197,-190.5 123,-190.5"/>
<text text-anchor="middle" x="160" y="-197.5" font-family="Helvetica,sans-Serif" font-size="10.00">pTcpAgency</text>
</a>
</g>
</g>
<!-- Node1&#45;&gt;Node16 -->
<g id="edge16" class="edge">
<title>Node1&#45;&gt;Node16</title>
<path fill="none" stroke="midnightblue" d="M31.52,-456.41C30.24,-420.03 30.68,-289.12 98,-219 102.23,-214.59 107.47,-211.2 113.08,-208.59"/>
<polygon fill="midnightblue" stroke="midnightblue" points="114.67,-211.73 122.77,-204.9 112.18,-205.19 114.67,-211.73"/>
</g>
<!-- Node17 -->
<g id="node17" class="node">
<title>Node17</title>
<g id="a_node17"><a xlink:href="group__NAL.html#gab46cb18e17a81d70d124d27333b8f566" target="_top" xlink:title="Asks the TOE to close Tcp connections, based on the request from pPortLogic.">
<polygon fill="none" stroke="black" points="133.5,-152.5 133.5,-171.5 186.5,-171.5 186.5,-152.5 133.5,-152.5"/>
<text text-anchor="middle" x="160" y="-159.5" font-family="Helvetica,sans-Serif" font-size="10.00">pTcpCls</text>
</a>
</g>
</g>
<!-- Node1&#45;&gt;Node17 -->
<g id="edge17" class="edge">
<title>Node1&#45;&gt;Node17</title>
<path fill="none" stroke="midnightblue" d="M32.96,-456.32C37.6,-411.3 59.13,-222.88 98,-181 104.72,-173.76 114.15,-169.26 123.59,-166.46"/>
<polygon fill="midnightblue" stroke="midnightblue" points="124.4,-169.87 133.31,-164.13 122.77,-163.06 124.4,-169.87"/>
</g>
<!-- Node18 -->
<g id="node18" class="node">
<title>Node18</title>
<g id="a_node18"><a xlink:href="group__NAL.html#ga59f8ad803ebbaed2bdaaae2577d40d2f" target="_top" xlink:title="Client connection to remote HOST or FPGA socket (COn).">
<polygon fill="none" stroke="black" points="130.5,-665.5 130.5,-684.5 189.5,-684.5 189.5,-665.5 130.5,-665.5"/>
<text text-anchor="middle" x="160" y="-672.5" font-family="Helvetica,sans-Serif" font-size="10.00">pTcpCOn</text>
</a>
</g>
</g>
<!-- Node1&#45;&gt;Node18 -->
<g id="edge18" class="edge">
<title>Node1&#45;&gt;Node18</title>
<path fill="none" stroke="midnightblue" d="M33.5,-475.59C38.28,-503.43 55.41,-585.5 98,-637 105.93,-646.59 116.95,-654.48 127.44,-660.53"/>
<polygon fill="midnightblue" stroke="midnightblue" points="125.97,-663.72 136.43,-665.38 129.29,-657.56 125.97,-663.72"/>
</g>
<!-- Node22 -->
<g id="node22" class="node">
<title>Node22</title>
<g id="a_node22"><a xlink:href="group__NAL.html#ga3a7c68954346096c0f31f1f6506c1e91" target="_top" xlink:title="Request the TOE to start listening (LSn) for incoming connections on a specific port (....">
<polygon fill="none" stroke="black" points="132.5,-114.5 132.5,-133.5 187.5,-133.5 187.5,-114.5 132.5,-114.5"/>
<text text-anchor="middle" x="160" y="-121.5" font-family="Helvetica,sans-Serif" font-size="10.00">pTcpLsn</text>
</a>
</g>
</g>
<!-- Node1&#45;&gt;Node22 -->
<g id="edge22" class="edge">
<title>Node1&#45;&gt;Node22</title>
<path fill="none" stroke="midnightblue" d="M32.67,-456.36C36.23,-407.88 54.43,-191.18 98,-143 104.39,-135.93 113.37,-131.47 122.47,-128.66"/>
<polygon fill="midnightblue" stroke="midnightblue" points="123.42,-132.02 132.28,-126.21 121.73,-125.23 123.42,-132.02"/>
</g>
<!-- Node23 -->
<g id="node23" class="node">
<title>Node23</title>
<g id="a_node23"><a xlink:href="group__NAL.html#gaf66d0b2af597c0114fc7b6c1a48e7df2" target="_top" xlink:title="Read Path (RDp) &#45; From TOE to ROLE or FMC. Process waits for a new data segment to read and forwards ...">
<polygon fill="none" stroke="black" points="130.5,-703.5 130.5,-722.5 189.5,-722.5 189.5,-703.5 130.5,-703.5"/>
<text text-anchor="middle" x="160" y="-710.5" font-family="Helvetica,sans-Serif" font-size="10.00">pTcpRDp</text>
</a>
</g>
</g>
<!-- Node1&#45;&gt;Node23 -->
<g id="edge23" class="edge">
<title>Node1&#45;&gt;Node23</title>
<path fill="none" stroke="midnightblue" d="M31.77,-475.82C31.51,-510.72 35.41,-630.13 98,-694 104.14,-700.26 112.3,-704.47 120.66,-707.29"/>
<polygon fill="midnightblue" stroke="midnightblue" points="119.87,-710.71 130.44,-710.01 121.74,-703.96 119.87,-710.71"/>
</g>
<!-- Node28 -->
<g id="node28" class="node">
<title>Node28</title>
<g id="a_node28"><a xlink:href="group__NAL.html#gab34c230b2547d737a12d494ad37d1ee3" target="_top" xlink:title="ReadRequestHandler (RRh). Waits for a notification indicating the availability of new data for the RO...">
<polygon fill="none" stroke="black" points="131,-342.5 131,-361.5 189,-361.5 189,-342.5 131,-342.5"/>
<text text-anchor="middle" x="160" y="-349.5" font-family="Helvetica,sans-Serif" font-size="10.00">pTcpRRh</text>
</a>
</g>
</g>
<!-- Node1&#45;&gt;Node28 -->
<g id="edge32" class="edge">
<title>Node1&#45;&gt;Node28</title>
<path fill="none" stroke="midnightblue" d="M36.64,-456.48C45.91,-438.39 68.38,-398.82 98,-376 104.93,-370.66 113.21,-366.36 121.39,-362.96"/>
<polygon fill="midnightblue" stroke="midnightblue" points="122.75,-366.19 130.86,-359.37 120.27,-359.64 122.75,-366.19"/>
</g>
<!-- Node35 -->
<g id="node35" class="node">
<title>Node35</title>
<g id="a_node35"><a xlink:href="group__NAL.html#ga5cf6a3963a00d4932e659927e90c06a9" target="_top" xlink:title="Enqueus the incoming notificiations from TOE into the internal buffer.">
<polygon fill="none" stroke="black" points="113.5,-76.5 113.5,-95.5 206.5,-95.5 206.5,-76.5 113.5,-76.5"/>
<text text-anchor="middle" x="160" y="-83.5" font-family="Helvetica,sans-Serif" font-size="10.00">pTcpRxNotifEnq</text>
</a>
</g>
</g>
<!-- Node1&#45;&gt;Node35 -->
<g id="edge39" class="edge">
<title>Node1&#45;&gt;Node35</title>
<path fill="none" stroke="midnightblue" d="M32.45,-456.28C35.05,-404.31 49.74,-159.49 98,-105 99.96,-102.78 102.18,-100.82 104.58,-99.08"/>
<polygon fill="midnightblue" stroke="midnightblue" points="106.43,-102.06 113.32,-94.01 102.92,-96 106.43,-102.06"/>
</g>
<!-- Node36 -->
<g id="node36" class="node">
<title>Node36</title>
<g id="a_node36"><a xlink:href="group__NAL.html#ga9b1b27cee7c9399de4366a44b203eb69" target="_top" xlink:title="Write Buffer (WBu) &#45; From WRp to TOE. Process to synchronize with TOE&#39;s TX buffer (and it&#39;s available...">
<polygon fill="none" stroke="black" points="129.5,-741.5 129.5,-760.5 190.5,-760.5 190.5,-741.5 129.5,-741.5"/>
<text text-anchor="middle" x="160" y="-748.5" font-family="Helvetica,sans-Serif" font-size="10.00">pTcpWBu</text>
</a>
</g>
</g>
<!-- Node1&#45;&gt;Node36 -->
<g id="edge40" class="edge">
<title>Node1&#45;&gt;Node36</title>
<path fill="none" stroke="midnightblue" d="M33.12,-475.61C38.33,-518.65 61.44,-693.23 98,-732 103.79,-738.14 111.52,-742.31 119.54,-745.13"/>
<polygon fill="midnightblue" stroke="midnightblue" points="118.76,-748.55 129.34,-747.96 120.7,-741.83 118.76,-748.55"/>
</g>
<!-- Node37 -->
<g id="node37" class="node">
<title>Node37</title>
<g id="a_node37"><a xlink:href="group__NAL.html#ga3bc6d248784661c835b18a0db21bce74" target="_top" xlink:title="Write Path (WRp) &#45; From ROLE or FMC to TOE. Process waits for a new data segment to write and forward...">
<polygon fill="none" stroke="black" points="129.5,-418.5 129.5,-437.5 190.5,-437.5 190.5,-418.5 129.5,-418.5"/>
<text text-anchor="middle" x="160" y="-425.5" font-family="Helvetica,sans-Serif" font-size="10.00">pTcpWRp</text>
</a>
</g>
</g>
<!-- Node1&#45;&gt;Node37 -->
<g id="edge42" class="edge">
<title>Node1&#45;&gt;Node37</title>
<path fill="none" stroke="midnightblue" d="M62.1,-456.99C79.26,-451.86 100.97,-445.36 119.49,-439.82"/>
<polygon fill="midnightblue" stroke="midnightblue" points="120.54,-443.16 129.12,-436.94 118.54,-436.45 120.54,-443.16"/>
</g>
<!-- Node38 -->
<g id="node38" class="node">
<title>Node38</title>
<g id="a_node38"><a xlink:href="group__NAL.html#ga024027e1bc71e40c8e41a8b381bb9470" target="_top" xlink:title="Asks the UOE to close UDP ports, based on the request from pPortLogic.">
<polygon fill="none" stroke="black" points="131.5,-38.5 131.5,-57.5 188.5,-57.5 188.5,-38.5 131.5,-38.5"/>
<text text-anchor="middle" x="160" y="-45.5" font-family="Helvetica,sans-Serif" font-size="10.00">pUdpCls</text>
</a>
</g>
</g>
<!-- Node1&#45;&gt;Node38 -->
<g id="edge46" class="edge">
<title>Node1&#45;&gt;Node38</title>
<path fill="none" stroke="midnightblue" d="M32.26,-456.37C33.96,-401.44 44.98,-127.9 98,-67 104.09,-60.01 112.7,-55.56 121.54,-52.73"/>
<polygon fill="midnightblue" stroke="midnightblue" points="122.67,-56.06 131.49,-50.19 120.94,-49.28 122.67,-56.06"/>
</g>
<!-- Node39 -->
<g id="node39" class="node">
<title>Node39</title>
<g id="a_node39"><a xlink:href="group__NAL.html#ga70a1388c6b23ca686bd165bcbe3b2d59" target="_top" xlink:title="Asks the UOE to open new UDP ports for listening, based on the request from pPortLogic.">
<polygon fill="none" stroke="black" points="130.5,-0.5 130.5,-19.5 189.5,-19.5 189.5,-0.5 130.5,-0.5"/>
<text text-anchor="middle" x="160" y="-7.5" font-family="Helvetica,sans-Serif" font-size="10.00">pUdpLsn</text>
</a>
</g>
</g>
<!-- Node1&#45;&gt;Node39 -->
<g id="edge47" class="edge">
<title>Node1&#45;&gt;Node39</title>
<path fill="none" stroke="midnightblue" d="M32.11,-456.24C32.99,-397.95 40.28,-96.24 98,-29 103.88,-22.15 112.18,-17.74 120.78,-14.9"/>
<polygon fill="midnightblue" stroke="midnightblue" points="121.72,-18.27 130.49,-12.32 119.93,-11.51 121.72,-18.27"/>
</g>
<!-- Node40 -->
<g id="node40" class="node">
<title>Node40</title>
<g id="a_node40"><a xlink:href="group__NAL.html#gadc2dd54f8ab1fee73a2cc7085edef945" target="_top" xlink:title="Processes the incoming UDP packets (i.e. Network &#45;&gt; ROLE ).">
<polygon fill="none" stroke="black" points="132.5,-608.5 132.5,-627.5 187.5,-627.5 187.5,-608.5 132.5,-608.5"/>
<text text-anchor="middle" x="160" y="-615.5" font-family="Helvetica,sans-Serif" font-size="10.00">pUdpRx</text>
</a>
</g>
</g>
<!-- Node1&#45;&gt;Node40 -->
<g id="edge48" class="edge">
<title>Node1&#45;&gt;Node40</title>
<path fill="none" stroke="midnightblue" d="M34.03,-475.65C39.66,-500.05 57.79,-564.71 98,-599 104.99,-604.96 113.84,-609.05 122.62,-611.86"/>
<polygon fill="midnightblue" stroke="midnightblue" points="121.83,-615.27 132.4,-614.52 123.67,-608.52 121.83,-615.27"/>
</g>
<!-- Node41 -->
<g id="node41" class="node">
<title>Node41</title>
<g id="a_node41"><a xlink:href="group__NAL.html#ga2d95d9f05166e1dfa42dfba6800c57f1" target="_top" xlink:title="Processes the outgoing UDP packets (i.e. ROLE &#45;&gt; Network).">
<polygon fill="none" stroke="black" points="132.5,-456.5 132.5,-475.5 187.5,-475.5 187.5,-456.5 132.5,-456.5"/>
<text text-anchor="middle" x="160" y="-463.5" font-family="Helvetica,sans-Serif" font-size="10.00">pUdpTX</text>
</a>
</g>
</g>
<!-- Node1&#45;&gt;Node41 -->
<g id="edge54" class="edge">
<title>Node1&#45;&gt;Node41</title>
<path fill="none" stroke="midnightblue" d="M62.1,-466C80.05,-466 102.97,-466 122.02,-466"/>
<polygon fill="midnightblue" stroke="midnightblue" points="122.14,-469.5 132.14,-466 122.14,-462.5 122.14,-469.5"/>
</g>
<!-- Node44 -->
<g id="node44" class="node">
<title>Node44</title>
<g id="a_node44"><a xlink:href="group__NAL.html#gac442a513c91820db8625042deab037ad" target="_top" xlink:title=" ">
<polygon fill="none" stroke="black" points="305.5,-418.5 305.5,-437.5 380.5,-437.5 380.5,-418.5 305.5,-418.5"/>
<text text-anchor="middle" x="343" y="-425.5" font-family="Helvetica,sans-Serif" font-size="10.00">siUdp_meta</text>
</a>
</g>
</g>
<!-- Node1&#45;&gt;Node44 -->
<g id="edge62" class="edge">
<title>Node1&#45;&gt;Node44</title>
<path fill="none" stroke="midnightblue" d="M39.24,-456.42C50.21,-442.82 72.46,-418.5 98,-409 149.65,-389.78 167.06,-404.68 222,-409 246.32,-410.91 273.17,-414.98 295.29,-418.86"/>
<polygon fill="midnightblue" stroke="midnightblue" points="294.95,-422.35 305.41,-420.68 296.19,-415.46 294.95,-422.35"/>
</g>
<!-- Node45 -->
<g id="node45" class="node">
<title>Node45</title>
<g id="a_node45"><a xlink:href="group__NAL.html#gaf973604f20e9f6cba163b44ef8cc780c" target="_top" xlink:title="Terminates the internal UDP TX FIFOs and forwards packets to the UOE.">
<polygon fill="none" stroke="black" points="113.5,-494.5 113.5,-513.5 206.5,-513.5 206.5,-494.5 113.5,-494.5"/>
<text text-anchor="middle" x="160" y="-501.5" font-family="Helvetica,sans-Serif" font-size="10.00">pUoeUdpTxDeq</text>
</a>
</g>
</g>
<!-- Node1&#45;&gt;Node45 -->
<g id="edge60" class="edge">
<title>Node1&#45;&gt;Node45</title>
<path fill="none" stroke="midnightblue" d="M62.1,-475.01C78.56,-479.93 99.21,-486.11 117.21,-491.5"/>
<polygon fill="midnightblue" stroke="midnightblue" points="116.32,-494.88 126.9,-494.39 118.32,-488.18 116.32,-494.88"/>
</g>
<!-- Node3 -->
<g id="node3" class="node">
<title>Node3</title>
<g id="a_node3"><a xlink:href="group__NAL.html#ga198e683f43fb503e6d6f27fbc87d88d0" target="_top" xlink:title=" ">
<polygon fill="none" stroke="black" points="258,-931.5 258,-950.5 428,-950.5 428,-931.5 258,-931.5"/>
<text text-anchor="middle" x="343" y="-938.5" font-family="Helvetica,sans-Serif" font-size="10.00">selectConfigUpdatePropagation</text>
</a>
</g>
</g>
<!-- Node2&#45;&gt;Node3 -->
<g id="edge2" class="edge">
<title>Node2&#45;&gt;Node3</title>
<path fill="none" stroke="midnightblue" d="M213.35,-941C224.09,-941 235.71,-941 247.42,-941"/>
<polygon fill="midnightblue" stroke="midnightblue" points="247.71,-944.5 257.71,-941 247.71,-937.5 247.71,-944.5"/>
</g>
<!-- Node7 -->
<g id="node7" class="node">
<title>Node7</title>
<g id="a_node7"><a xlink:href="group__NAL.html#ga7a8a58fedb6f1f6c4ac069f5f4889050" target="_top" xlink:title=" ">
<polygon fill="none" stroke="black" points="298,-874.5 298,-893.5 388,-893.5 388,-874.5 298,-874.5"/>
<text text-anchor="middle" x="343" y="-881.5" font-family="Helvetica,sans-Serif" font-size="10.00">extractByteCnt</text>
</a>
</g>
</g>
<!-- Node6&#45;&gt;Node7 -->
<g id="edge6" class="edge">
<title>Node6&#45;&gt;Node7</title>
<path fill="none" stroke="midnightblue" d="M195.59,-836.56C204.32,-839.31 213.6,-842.51 222,-846 238.71,-852.94 241.03,-858.73 258,-865 267.47,-868.5 277.78,-871.47 287.84,-873.96"/>
<polygon fill="midnightblue" stroke="midnightblue" points="287.23,-877.41 297.77,-876.28 288.83,-870.59 287.23,-877.41"/>
</g>
<!-- Node8 -->
<g id="node8" class="node">
<title>Node8</title>
<g id="a_node8"><a xlink:href="classAxisRaw.html#a4becd0ad3c51e3db2749e888f2f72e31" target="_top" xlink:title=" ">
<polygon fill="none" stroke="black" points="477,-798.5 477,-817.5 603,-817.5 603,-798.5 477,-798.5"/>
<text text-anchor="middle" x="540" y="-805.5" font-family="Helvetica,sans-Serif" font-size="10.00">AxisRaw::getLE_TKeep</text>
</a>
</g>
</g>
<!-- Node7&#45;&gt;Node8 -->
<g id="edge7" class="edge">
<title>Node7&#45;&gt;Node8</title>
<path fill="none" stroke="midnightblue" d="M388.2,-876.19C401.22,-873.31 415.35,-869.59 428,-865 459.18,-853.67 492.77,-835.5 514.74,-822.73"/>
<polygon fill="midnightblue" stroke="midnightblue" points="516.56,-825.72 523.4,-817.62 513.01,-819.69 516.56,-825.72"/>
</g>
<!-- Node11 -->
<g id="node11" class="node">
<title>Node11</title>
<g id="a_node11"><a xlink:href="group__NAL.html#gaae28772b10c17dbba457d930eb929617" target="_top" xlink:title=" ">
<polygon fill="none" stroke="black" points="286.5,-152.5 286.5,-171.5 399.5,-171.5 399.5,-152.5 286.5,-152.5"/>
<text text-anchor="middle" x="343" y="-159.5" font-family="Helvetica,sans-Serif" font-size="10.00">getRightmostBitPos</text>
</a>
</g>
</g>
<!-- Node10&#45;&gt;Node11 -->
<g id="edge10" class="edge">
<title>Node10&#45;&gt;Node11</title>
<path fill="none" stroke="midnightblue" d="M194.23,-270.93C204.03,-268.12 214.21,-263.76 222,-257 250.22,-232.49 228.83,-204.37 258,-181 263.49,-176.6 269.79,-173.18 276.43,-170.52"/>
<polygon fill="midnightblue" stroke="midnightblue" points="278,-173.69 286.34,-167.15 275.75,-167.06 278,-173.69"/>
</g>
<!-- Node12&#45;&gt;Node7 -->
<g id="edge12" class="edge">
<title>Node12&#45;&gt;Node7</title>
<path fill="none" stroke="midnightblue" d="M205.18,-798.61C211.18,-801.07 216.98,-804.15 222,-808 245.77,-826.25 233.53,-847.71 258,-865 266.79,-871.21 277.28,-875.43 287.82,-878.29"/>
<polygon fill="midnightblue" stroke="midnightblue" points="287.35,-881.77 297.88,-880.63 288.94,-874.95 287.35,-881.77"/>
</g>
<!-- Node13&#45;&gt;Node14 -->
<g id="edge14" class="edge">
<title>Node13&#45;&gt;Node14</title>
<path fill="none" stroke="midnightblue" d="M206.67,-570.41C233.33,-564.82 266.92,-557.76 293.96,-552.09"/>
<polygon fill="midnightblue" stroke="midnightblue" points="294.91,-555.46 303.98,-549.98 293.47,-548.61 294.91,-555.46"/>
</g>
<!-- Node19 -->
<g id="node19" class="node">
<title>Node19</title>
<g id="a_node19"><a xlink:href="group__NAL.html#gaac0fce87022d9832782060a0cd99584c" target="_top" xlink:title=" ">
<polygon fill="none" stroke="black" points="266.5,-722.5 266.5,-741.5 419.5,-741.5 419.5,-722.5 266.5,-722.5"/>
<text text-anchor="middle" x="343" y="-729.5" font-family="Helvetica,sans-Serif" font-size="10.00">getRemoteIpAddrFromTriple</text>
</a>
</g>
</g>
<!-- Node18&#45;&gt;Node19 -->
<g id="edge19" class="edge">
<title>Node18&#45;&gt;Node19</title>
<path fill="none" stroke="midnightblue" d="M189.63,-682.73C199.98,-685.84 211.65,-689.7 222,-694 238.71,-700.94 241.03,-706.73 258,-713 265.02,-715.6 272.51,-717.9 280.01,-719.93"/>
<polygon fill="midnightblue" stroke="midnightblue" points="279.29,-723.36 289.85,-722.45 281.02,-716.58 279.29,-723.36"/>
</g>
<!-- Node20 -->
<g id="node20" class="node">
<title>Node20</title>
<g id="a_node20"><a xlink:href="group__NAL.html#gab5a93906a4f604dc3c8af0afb64270e1" target="_top" xlink:title=" ">
<polygon fill="none" stroke="black" points="272.5,-760.5 272.5,-779.5 413.5,-779.5 413.5,-760.5 272.5,-760.5"/>
<text text-anchor="middle" x="343" y="-767.5" font-family="Helvetica,sans-Serif" font-size="10.00">getRemotePortFromTriple</text>
</a>
</g>
</g>
<!-- Node18&#45;&gt;Node20 -->
<g id="edge20" class="edge">
<title>Node18&#45;&gt;Node20</title>
<path fill="none" stroke="midnightblue" d="M189.68,-679.55C200.61,-682.35 212.67,-686.84 222,-694 245.77,-712.25 233.53,-733.71 258,-751 260.75,-752.94 263.66,-754.69 266.69,-756.26"/>
<polygon fill="midnightblue" stroke="midnightblue" points="265.52,-759.57 276.07,-760.47 268.38,-753.18 265.52,-759.57"/>
</g>
<!-- Node21 -->
<g id="node21" class="node">
<title>Node21</title>
<g id="a_node21"><a xlink:href="group__NTS.html#ga868a2a0831dcd26fa88eadae8f61f92c" target="_top" xlink:title="Print a socket address.">
<polygon fill="none" stroke="black" points="300.5,-684.5 300.5,-703.5 385.5,-703.5 385.5,-684.5 300.5,-684.5"/>
<text text-anchor="middle" x="343" y="-691.5" font-family="Helvetica,sans-Serif" font-size="10.00">printSockAddr</text>
</a>
</g>
</g>
<!-- Node18&#45;&gt;Node21 -->
<g id="edge21" class="edge">
<title>Node18&#45;&gt;Node21</title>
<path fill="none" stroke="midnightblue" d="M189.68,-678.01C216.57,-680.83 257.42,-685.12 290.05,-688.55"/>
<polygon fill="midnightblue" stroke="midnightblue" points="290.01,-692.06 300.32,-689.63 290.74,-685.1 290.01,-692.06"/>
</g>
<!-- Node23&#45;&gt;Node7 -->
<g id="edge24" class="edge">
<title>Node23&#45;&gt;Node7</title>
<path fill="none" stroke="midnightblue" d="M189.63,-715.92C201.08,-718.47 213.54,-723.21 222,-732 264.48,-776.11 213.8,-822.61 258,-865 266.1,-872.76 276.66,-877.61 287.56,-880.58"/>
<polygon fill="midnightblue" stroke="midnightblue" points="287.07,-884.06 297.59,-882.81 288.59,-877.22 287.07,-884.06"/>
</g>
<!-- Node23&#45;&gt;Node8 -->
<g id="edge26" class="edge">
<title>Node23&#45;&gt;Node8</title>
<path fill="none" stroke="midnightblue" d="M189.68,-717.55C200.61,-720.35 212.67,-724.84 222,-732 245.77,-750.25 232.26,-773.66 258,-789 325.2,-829.05 418.16,-826.46 478.43,-818.89"/>
<polygon fill="midnightblue" stroke="midnightblue" points="479.11,-822.33 488.56,-817.53 478.18,-815.39 479.11,-822.33"/>
</g>
<!-- Node23&#45;&gt;Node19 -->
<g id="edge29" class="edge">
<title>Node23&#45;&gt;Node19</title>
<path fill="none" stroke="midnightblue" d="M189.68,-716.01C207.73,-717.91 232.08,-720.46 256,-722.97"/>
<polygon fill="midnightblue" stroke="midnightblue" points="255.9,-726.48 266.21,-724.04 256.63,-719.52 255.9,-726.48"/>
</g>
<!-- Node23&#45;&gt;Node20 -->
<g id="edge30" class="edge">
<title>Node23&#45;&gt;Node20</title>
<path fill="none" stroke="midnightblue" d="M189.63,-720.73C199.98,-723.84 211.65,-727.7 222,-732 238.71,-738.94 241.03,-744.73 258,-751 265.02,-753.6 272.51,-755.9 280.01,-757.93"/>
<polygon fill="midnightblue" stroke="midnightblue" points="279.29,-761.36 289.85,-760.45 281.02,-754.58 279.29,-761.36"/>
</g>
<!-- Node24 -->
<g id="node24" class="node">
<title>Node24</title>
<g id="a_node24"><a xlink:href="classAxisRaw.html#a7034bcf8cf143fb2bb9bfc46e70a7d6b" target="_top" xlink:title=" ">
<polygon fill="none" stroke="black" points="280.5,-646.5 280.5,-665.5 405.5,-665.5 405.5,-646.5 280.5,-646.5"/>
<text text-anchor="middle" x="343" y="-653.5" font-family="Helvetica,sans-Serif" font-size="10.00">AxisRaw::getLE_TData</text>
</a>
</g>
</g>
<!-- Node23&#45;&gt;Node24 -->
<g id="edge25" class="edge">
<title>Node23&#45;&gt;Node24</title>
<path fill="none" stroke="midnightblue" d="M189.63,-705.27C199.98,-702.16 211.65,-698.3 222,-694 238.71,-687.06 241.03,-681.27 258,-675 265.02,-672.4 272.51,-670.1 280.01,-668.07"/>
<polygon fill="midnightblue" stroke="midnightblue" points="281.02,-671.42 289.85,-665.55 279.29,-664.64 281.02,-671.42"/>
</g>
<!-- Node25 -->
<g id="node25" class="node">
<title>Node25</title>
<g id="a_node25"><a xlink:href="classAxisRaw.html#af8208752dcbb14911c5fda27d90a0ef4" target="_top" xlink:title=" ">
<polygon fill="none" stroke="black" points="282,-608.5 282,-627.5 404,-627.5 404,-608.5 282,-608.5"/>
<text text-anchor="middle" x="343" y="-615.5" font-family="Helvetica,sans-Serif" font-size="10.00">AxisRaw::getLE_TLast</text>
</a>
</g>
</g>
<!-- Node23&#45;&gt;Node25 -->
<g id="edge27" class="edge">
<title>Node23&#45;&gt;Node25</title>
<path fill="none" stroke="midnightblue" d="M189.68,-708.45C200.61,-705.65 212.67,-701.16 222,-694 245.77,-675.75 233.53,-654.29 258,-637 262.32,-633.95 267.04,-631.38 271.98,-629.22"/>
<polygon fill="midnightblue" stroke="midnightblue" points="273.58,-632.35 281.69,-625.54 271.1,-625.81 273.58,-632.35"/>
</g>
<!-- Node26 -->
<g id="node26" class="node">
<title>Node26</title>
<g id="a_node26"><a xlink:href="group__NAL.html#ga8ea40407099580853658cad63a337a90" target="_top" xlink:title=" ">
<polygon fill="none" stroke="black" points="279,-836.5 279,-855.5 407,-855.5 407,-836.5 279,-836.5"/>
<text text-anchor="middle" x="343" y="-843.5" font-family="Helvetica,sans-Serif" font-size="10.00">getLocalPortFromTriple</text>
</a>
</g>
</g>
<!-- Node23&#45;&gt;Node26 -->
<g id="edge28" class="edge">
<title>Node23&#45;&gt;Node26</title>
<path fill="none" stroke="midnightblue" d="M189.77,-716.55C200.97,-719.22 213.2,-723.87 222,-732 253.64,-761.24 226.02,-793.13 258,-822 262.47,-826.04 267.58,-829.4 273.01,-832.2"/>
<polygon fill="midnightblue" stroke="midnightblue" points="271.86,-835.52 282.42,-836.4 274.72,-829.12 271.86,-835.52"/>
</g>
<!-- Node27 -->
<g id="node27" class="node">
<title>Node27</title>
<g id="a_node27"><a xlink:href="classAxisRaw.html#a42cd520c9b19f7c2fc6d2fc204cb30b7" target="_top" xlink:title=" ">
<polygon fill="none" stroke="black" points="290,-494.5 290,-513.5 396,-513.5 396,-494.5 290,-494.5"/>
<text text-anchor="middle" x="343" y="-501.5" font-family="Helvetica,sans-Serif" font-size="10.00">AxisRaw::getTLast</text>
</a>
</g>
</g>
<!-- Node23&#45;&gt;Node27 -->
<g id="edge31" class="edge">
<title>Node23&#45;&gt;Node27</title>
<path fill="none" stroke="midnightblue" d="M189.57,-710.38C201.15,-707.89 213.71,-703.11 222,-694 274.26,-636.55 203.49,-578.33 258,-523 264.11,-516.8 271.78,-512.44 280,-509.4"/>
<polygon fill="midnightblue" stroke="midnightblue" points="281.28,-512.66 289.82,-506.4 279.24,-505.97 281.28,-512.66"/>
</g>
<!-- Node29 -->
<g id="node29" class="node">
<title>Node29</title>
<g id="a_node29"><a xlink:href="structCam8.html#a34f386345b8172267f03fd33b31a9daf" target="_top" xlink:title="Remove a key&#45;value pair from the CAM array.">
<polygon fill="none" stroke="black" points="289.5,-190.5 289.5,-209.5 396.5,-209.5 396.5,-190.5 289.5,-190.5"/>
<text text-anchor="middle" x="343" y="-197.5" font-family="Helvetica,sans-Serif" font-size="10.00">Cam8::deleteEntry</text>
</a>
</g>
</g>
<!-- Node28&#45;&gt;Node29 -->
<g id="edge33" class="edge">
<title>Node28&#45;&gt;Node29</title>
<path fill="none" stroke="midnightblue" d="M189.14,-348.98C200.65,-346.42 213.28,-341.69 222,-333 259.64,-295.5 218.9,-254.97 258,-219 264.1,-213.39 271.5,-209.31 279.35,-206.38"/>
<polygon fill="midnightblue" stroke="midnightblue" points="280.59,-209.66 289.09,-203.33 278.5,-202.98 280.59,-209.66"/>
</g>
<!-- Node30 -->
<g id="node30" class="node">
<title>Node30</title>
<g id="a_node30"><a xlink:href="structCam8.html#a5c0ba9b0efe13e9ca1d684bb63c1d8d7" target="_top" xlink:title="Insert a new key&#45;value pair in the CAM array.">
<polygon fill="none" stroke="black" points="303.5,-342.5 303.5,-361.5 382.5,-361.5 382.5,-342.5 303.5,-342.5"/>
<text text-anchor="middle" x="343" y="-349.5" font-family="Helvetica,sans-Serif" font-size="10.00">Cam8::insert</text>
</a>
</g>
</g>
<!-- Node28&#45;&gt;Node30 -->
<g id="edge34" class="edge">
<title>Node28&#45;&gt;Node30</title>
<path fill="none" stroke="midnightblue" d="M189.28,-352C216.91,-352 259.55,-352 292.75,-352"/>
<polygon fill="midnightblue" stroke="midnightblue" points="293.17,-355.5 303.17,-352 293.17,-348.5 293.17,-355.5"/>
</g>
<!-- Node31 -->
<g id="node31" class="node">
<title>Node31</title>
<g id="a_node31"><a xlink:href="structCam8.html#a1da146a6187e99a557f1d098776f8e4f" target="_top" xlink:title="Search the CAM array for a key.">
<polygon fill="none" stroke="black" points="301.5,-304.5 301.5,-323.5 384.5,-323.5 384.5,-304.5 301.5,-304.5"/>
<text text-anchor="middle" x="343" y="-311.5" font-family="Helvetica,sans-Serif" font-size="10.00">Cam8::lookup</text>
</a>
</g>
</g>
<!-- Node28&#45;&gt;Node31 -->
<g id="edge35" class="edge">
<title>Node28&#45;&gt;Node31</title>
<path fill="none" stroke="midnightblue" d="M189.28,-346.06C216.58,-340.33 258.53,-331.52 291.56,-324.59"/>
<polygon fill="midnightblue" stroke="midnightblue" points="292.43,-327.98 301.49,-322.5 290.99,-321.13 292.43,-327.98"/>
</g>
<!-- Node32 -->
<g id="node32" class="node">
<title>Node32</title>
<g id="a_node32"><a xlink:href="group__NAL.html#ga0c5b6c9d7b558b0e6c63774cde4b863a" target="_top" xlink:title=" ">
<polygon fill="none" stroke="black" points="311.5,-380.5 311.5,-399.5 374.5,-399.5 374.5,-380.5 311.5,-380.5"/>
<text text-anchor="middle" x="343" y="-387.5" font-family="Helvetica,sans-Serif" font-size="10.00">newTriple</text>
</a>
</g>
</g>
<!-- Node28&#45;&gt;Node32 -->
<g id="edge36" class="edge">
<title>Node28&#45;&gt;Node32</title>
<path fill="none" stroke="midnightblue" d="M189.28,-357.94C219.29,-364.24 266.98,-374.25 301.08,-381.41"/>
<polygon fill="midnightblue" stroke="midnightblue" points="300.69,-384.9 311.19,-383.53 302.13,-378.05 300.69,-384.9"/>
</g>
<!-- Node33 -->
<g id="node33" class="node">
<title>Node33</title>
<g id="a_node33"><a xlink:href="structCam8.html#afe5968874a9c56cdfd757915692b8b87" target="_top" xlink:title="Invalidate all entries of the CAM array.">
<polygon fill="none" stroke="black" points="305,-266.5 305,-285.5 381,-285.5 381,-266.5 305,-266.5"/>
<text text-anchor="middle" x="343" y="-273.5" font-family="Helvetica,sans-Serif" font-size="10.00">Cam8::reset</text>
</a>
</g>
</g>
<!-- Node28&#45;&gt;Node33 -->
<g id="edge37" class="edge">
<title>Node28&#45;&gt;Node33</title>
<path fill="none" stroke="midnightblue" d="M189.01,-346.48C199.85,-343.54 212.02,-339.22 222,-333 241.75,-320.7 237.78,-306.51 258,-295 269.18,-288.64 282.32,-284.41 294.86,-281.59"/>
<polygon fill="midnightblue" stroke="midnightblue" points="295.6,-285.01 304.73,-279.63 294.24,-278.15 295.6,-285.01"/>
</g>
<!-- Node34 -->
<g id="node34" class="node">
<title>Node34</title>
<g id="a_node34"><a xlink:href="structCam8.html#a08bf08048952f41df9df26c0fbccb3bf" target="_top" xlink:title="Search the CAM array for a key and updates the corresponding value.">
<polygon fill="none" stroke="black" points="300.5,-228.5 300.5,-247.5 385.5,-247.5 385.5,-228.5 300.5,-228.5"/>
<text text-anchor="middle" x="343" y="-235.5" font-family="Helvetica,sans-Serif" font-size="10.00">Cam8::update</text>
</a>
</g>
</g>
<!-- Node28&#45;&gt;Node34 -->
<g id="edge38" class="edge">
<title>Node28&#45;&gt;Node34</title>
<path fill="none" stroke="midnightblue" d="M189.21,-348.24C200.46,-345.55 212.87,-340.93 222,-333 250.22,-308.49 228.83,-280.37 258,-257 267.21,-249.63 278.71,-244.99 290.23,-242.11"/>
<polygon fill="midnightblue" stroke="midnightblue" points="291.23,-245.48 300.3,-240 289.8,-238.63 291.23,-245.48"/>
</g>
<!-- Node36&#45;&gt;Node7 -->
<g id="edge41" class="edge">
<title>Node36&#45;&gt;Node7</title>
<path fill="none" stroke="midnightblue" d="M190.78,-754.7C201.73,-757.39 213.52,-762.02 222,-770 254.87,-800.95 223.92,-835.38 258,-865 266.38,-872.28 276.97,-876.94 287.78,-879.88"/>
<polygon fill="midnightblue" stroke="midnightblue" points="287.18,-883.34 297.71,-882.13 288.73,-876.51 287.18,-883.34"/>
</g>
<!-- Node37&#45;&gt;Node7 -->
<g id="edge43" class="edge">
<title>Node37&#45;&gt;Node7</title>
<path fill="none" stroke="midnightblue" d="M190.75,-430.28C202.24,-432.74 214.42,-437.58 222,-447 280.43,-519.65 196.73,-794.73 258,-865 265.68,-873.8 276.49,-879 287.81,-881.98"/>
<polygon fill="midnightblue" stroke="midnightblue" points="287.32,-885.45 297.82,-884.06 288.74,-878.6 287.32,-885.45"/>
</g>
<!-- Node37&#45;&gt;Node27 -->
<g id="edge44" class="edge">
<title>Node37&#45;&gt;Node27</title>
<path fill="none" stroke="midnightblue" d="M190.55,-433.95C200.99,-436.87 212.49,-441.08 222,-447 241.75,-459.3 237.78,-473.49 258,-485 264.76,-488.85 272.24,-491.92 279.88,-494.36"/>
<polygon fill="midnightblue" stroke="midnightblue" points="279,-497.75 289.58,-497.14 280.93,-491.03 279,-497.75"/>
</g>
<!-- Node37&#45;&gt;Node32 -->
<g id="edge45" class="edge">
<title>Node37&#45;&gt;Node32</title>
<path fill="none" stroke="midnightblue" d="M190.89,-421.73C221.1,-415.38 267.99,-405.54 301.52,-398.5"/>
<polygon fill="midnightblue" stroke="midnightblue" points="302.39,-401.89 311.46,-396.41 300.96,-395.04 302.39,-401.89"/>
</g>
<!-- Node40&#45;&gt;Node8 -->
<g id="edge50" class="edge">
<title>Node40&#45;&gt;Node8</title>
<path fill="none" stroke="midnightblue" d="M187.56,-611.36C206.94,-606.86 233.92,-601.34 258,-599 333.2,-591.7 363.25,-560.07 428,-599 498.29,-641.26 526.45,-744.7 535.45,-788.2"/>
<polygon fill="midnightblue" stroke="midnightblue" points="532.03,-788.98 537.38,-798.12 538.9,-787.64 532.03,-788.98"/>
</g>
<!-- Node40&#45;&gt;Node14 -->
<g id="edge53" class="edge">
<title>Node40&#45;&gt;Node14</title>
<path fill="none" stroke="midnightblue" d="M187.57,-612.45C198.67,-609.45 211.42,-605.08 222,-599 240.82,-588.18 239.06,-576.6 258,-566 268.96,-559.87 281.62,-555.19 293.73,-551.67"/>
<polygon fill="midnightblue" stroke="midnightblue" points="294.98,-554.96 303.73,-548.98 293.16,-548.2 294.98,-554.96"/>
</g>
<!-- Node40&#45;&gt;Node24 -->
<g id="edge49" class="edge">
<title>Node40&#45;&gt;Node24</title>
<path fill="none" stroke="midnightblue" d="M187.71,-623.61C213.64,-629.05 253.79,-637.48 286.64,-644.38"/>
<polygon fill="midnightblue" stroke="midnightblue" points="286.06,-647.83 296.57,-646.46 287.5,-640.98 286.06,-647.83"/>
</g>
<!-- Node40&#45;&gt;Node25 -->
<g id="edge51" class="edge">
<title>Node40&#45;&gt;Node25</title>
<path fill="none" stroke="midnightblue" d="M187.71,-618C209.79,-618 242.17,-618 271.58,-618"/>
<polygon fill="midnightblue" stroke="midnightblue" points="271.84,-621.5 281.84,-618 271.84,-614.5 271.84,-621.5"/>
</g>
<!-- Node40&#45;&gt;Node27 -->
<g id="edge52" class="edge">
<title>Node40&#45;&gt;Node27</title>
<path fill="none" stroke="midnightblue" d="M187.67,-614.6C199.31,-611.97 212.45,-607.29 222,-599 250.22,-574.49 228.83,-546.37 258,-523 264.47,-517.82 272.08,-513.99 280.03,-511.17"/>
<polygon fill="midnightblue" stroke="midnightblue" points="281.28,-514.45 289.84,-508.21 279.26,-507.74 281.28,-514.45"/>
</g>
<!-- Node41&#45;&gt;Node7 -->
<g id="edge55" class="edge">
<title>Node41&#45;&gt;Node7</title>
<path fill="none" stroke="midnightblue" d="M187.57,-467.69C199.92,-469.92 213.68,-474.75 222,-485 275.44,-550.87 201.98,-801.31 258,-865 265.71,-873.77 276.54,-878.96 287.86,-881.93"/>
<polygon fill="midnightblue" stroke="midnightblue" points="287.37,-885.4 297.88,-884.01 288.8,-878.55 287.37,-885.4"/>
</g>
<!-- Node41&#45;&gt;Node27 -->
<g id="edge56" class="edge">
<title>Node41&#45;&gt;Node27</title>
<path fill="none" stroke="midnightblue" d="M187.71,-471.61C213.64,-477.05 253.79,-485.48 286.64,-492.38"/>
<polygon fill="midnightblue" stroke="midnightblue" points="286.06,-495.83 296.57,-494.46 287.5,-488.98 286.06,-495.83"/>
</g>
<!-- Node42 -->
<g id="node42" class="node">
<title>Node42</title>
<g id="a_node42"><a xlink:href="classAxisRaw.html#a1238c47d46a7d858c542f55797dfc9f2" target="_top" xlink:title=" ">
<polygon fill="none" stroke="black" points="290.5,-456.5 290.5,-475.5 395.5,-475.5 395.5,-456.5 290.5,-456.5"/>
<text text-anchor="middle" x="343" y="-463.5" font-family="Helvetica,sans-Serif" font-size="10.00">AxisRaw::setTLast</text>
</a>
</g>
</g>
<!-- Node41&#45;&gt;Node42 -->
<g id="edge57" class="edge">
<title>Node41&#45;&gt;Node42</title>
<path fill="none" stroke="midnightblue" d="M187.71,-466C212.02,-466 248.83,-466 280.4,-466"/>
<polygon fill="midnightblue" stroke="midnightblue" points="280.44,-469.5 290.44,-466 280.44,-462.5 280.44,-469.5"/>
</g>
<!-- Node41&#45;&gt;Node44 -->
<g id="edge59" class="edge">
<title>Node41&#45;&gt;Node44</title>
<path fill="none" stroke="midnightblue" d="M187.71,-460.39C215.96,-454.46 261.08,-444.99 295.25,-437.82"/>
<polygon fill="midnightblue" stroke="midnightblue" points="296.4,-441.15 305.47,-435.67 294.96,-434.3 296.4,-441.15"/>
</g>
<!-- Node43 -->
<g id="node43" class="node">
<title>Node43</title>
<g id="a_node43"><a xlink:href="classAxisRaw.html#a4e8ed9ad2072a6563870f9344c362a4e" target="_top" xlink:title=" ">
<polygon fill="none" stroke="black" points="464,-456.5 464,-475.5 616,-475.5 616,-456.5 464,-456.5"/>
<text text-anchor="middle" x="540" y="-463.5" font-family="Helvetica,sans-Serif" font-size="10.00">AxisRaw::clearUnusedBytes</text>
</a>
</g>
</g>
<!-- Node42&#45;&gt;Node43 -->
<g id="edge58" class="edge">
<title>Node42&#45;&gt;Node43</title>
<path fill="none" stroke="midnightblue" d="M395.74,-466C413.52,-466 433.92,-466 453.64,-466"/>
<polygon fill="midnightblue" stroke="midnightblue" points="453.88,-469.5 463.88,-466 453.88,-462.5 453.88,-469.5"/>
</g>
<!-- Node45&#45;&gt;Node27 -->
<g id="edge61" class="edge">
<title>Node45&#45;&gt;Node27</title>
<path fill="none" stroke="midnightblue" d="M206.67,-504C228.85,-504 255.83,-504 279.85,-504"/>
<polygon fill="midnightblue" stroke="midnightblue" points="279.94,-507.5 289.94,-504 279.94,-500.5 279.94,-507.5"/>
</g>
</g>
</svg>
        <g id="navigator" transform="translate(0 0)" fill="#404254">
                <rect fill="#f2f5e9" fill-opacity="0.5" stroke="#606060" stroke-width=".5" x="0" y="0" width="60" height="60"/>
                <use id="zoomplus" xlink:href="#zoomPlus" x="17" y="9" onmousedown="handleZoom(evt,'in')"/>
                <use id="zoomminus" xlink:href="#zoomMin" x="42" y="9" onmousedown="handleZoom(evt,'out')"/>
                <use id="reset" xlink:href="#resetDef" x="30" y="36" onmousedown="handleReset()"/>
                <g id="arrowUp" xlink:href="#dirArrow" transform="translate(30 24)" onmousedown="handlePan(0,-1)">
                  <use xlink:href="#rim" fill="#404040">
                        <set attributeName="fill" to="#808080" begin="arrowUp.mouseover" end="arrowUp.mouseout"/>
                  </use>
                  <path fill="none" stroke="white" stroke-width="1.5" d="M0,-3.0v7 M-2.5,-0.5L0,-3.0L2.5,-0.5"/>
                </g>
                <g id="arrowRight" xlink:href="#dirArrow" transform="rotate(90) translate(36 -43)" onmousedown="handlePan(1,0)">
                  <use xlink:href="#rim" fill="#404040">
                        <set attributeName="fill" to="#808080" begin="arrowRight.mouseover" end="arrowRight.mouseout"/>
                  </use>
                  <path fill="none" stroke="white" stroke-width="1.5" d="M0,-3.0v7 M-2.5,-0.5L0,-3.0L2.5,-0.5"/>
                </g>
                <g id="arrowDown" xlink:href="#dirArrow" transform="rotate(180) translate(-30 -48)" onmousedown="handlePan(0,1)">
                  <use xlink:href="#rim" fill="#404040">
                        <set attributeName="fill" to="#808080" begin="arrowDown.mouseover" end="arrowDown.mouseout"/>
                  </use>
                  <path fill="none" stroke="white" stroke-width="1.5" d="M0,-3.0v7 M-2.5,-0.5L0,-3.0L2.5,-0.5"/>
                </g>
                <g id="arrowLeft" xlink:href="#dirArrow" transform="rotate(270) translate(-36 17)" onmousedown="handlePan(-1,0)">
                  <use xlink:href="#rim" fill="#404040">
                        <set attributeName="fill" to="#808080" begin="arrowLeft.mouseover" end="arrowLeft.mouseout"/>
                  </use>
                  <path fill="none" stroke="white" stroke-width="1.5" d="M0,-3.0v7 M-2.5,-0.5L0,-3.0L2.5,-0.5"/>
                </g>
        </g>
        <svg viewBox="0 0 15 15" width="100%" height="30px" preserveAspectRatio="xMaxYMin meet">
         <g id="arrow_out" transform="scale(0.3 0.3)">
          <a xlink:href="group__NAL_ga9087660a7942cb823c0fa5f350a10844_cgraph_org.svg" target="_base">
           <rect id="button" ry="5" rx="5" y="6" x="6" height="38" width="38"
                fill="#f2f5e9" fill-opacity="0.5" stroke="#606060" stroke-width="1.0"/>
           <path id="arrow"
             d="M 11.500037,31.436501 C 11.940474,20.09759 22.043105,11.32322 32.158766,21.979434 L 37.068811,17.246167 C 37.068811,17.246167 37.088388,32 37.088388,32 L 22.160133,31.978069 C 22.160133,31.978069 26.997745,27.140456 26.997745,27.140456 C 18.528582,18.264221 13.291696,25.230495 11.500037,31.436501 z"
             style="fill:#404040;"/>
          </a>
         </g>
        </svg>
</svg>
