<?xml version="1.0" encoding="UTF-8" standalone="no"?>
<!DOCTYPE svg PUBLIC "-//W3C//DTD SVG 1.1//EN"
 "http://www.w3.org/Graphics/SVG/1.1/DTD/svg11.dtd">
<!-- Generated by graphviz version 2.43.0 (0)
 -->
<!-- Title: pProcPath Pages: 1 -->
<svg width="380pt" height="28pt"
 viewBox="0.00 0.00 380.00 28.00" xmlns="http://www.w3.org/2000/svg" xmlns:xlink="http://www.w3.org/1999/xlink">
<g id="graph0" class="graph" transform="scale(1 1) rotate(0) translate(4 24)">
<title>pProcPath</title>
<!-- Node1 -->
<g id="node1" class="node">
<title>Node1</title>
<g id="a_node1"><a xlink:title="Processing Path &#45; Main processing FSM for Vitis kernels.">
<polygon fill="#bfbfbf" stroke="black" points="307,-0.5 307,-19.5 372,-19.5 372,-0.5 307,-0.5"/>
<text text-anchor="middle" x="339.5" y="-7.5" font-family="Helvetica,sans-Serif" font-size="10.00">pProcPath</text>
</a>
</g>
</g>
<!-- Node2 -->
<g id="node2" class="node">
<title>Node2</title>
<g id="a_node2"><a xlink:href="group__GammacorrectionHLS.html#ga88f0620e1eb0fccd5538e20d3596a2f8" target="_top" xlink:title="Main process of the Gammacorrection Application directives.">
<polygon fill="none" stroke="black" points="168,-0.5 168,-19.5 271,-19.5 271,-0.5 168,-0.5"/>
<text text-anchor="middle" x="219.5" y="-7.5" font-family="Helvetica,sans-Serif" font-size="10.00">gammacorrection</text>
</a>
</g>
</g>
<!-- Node1&#45;&gt;Node2 -->
<g id="edge1" class="edge">
<title>Node1&#45;&gt;Node2</title>
<path fill="none" stroke="midnightblue" d="M296.78,-10C288.56,-10 279.84,-10 271.36,-10"/>
<polygon fill="midnightblue" stroke="midnightblue" points="296.88,-13.5 306.88,-10 296.88,-6.5 296.88,-13.5"/>
</g>
<!-- Node3 -->
<g id="node3" class="node">
<title>Node3</title>
<g id="a_node3"><a xlink:href="group__GammacorrectionTB.html#gad0919afcfb3151dee3f8653944ea7185" target="_top" xlink:title="Run a single iteration of the DUT model.">
<polygon fill="none" stroke="black" points="77,-0.5 77,-19.5 132,-19.5 132,-0.5 77,-0.5"/>
<text text-anchor="middle" x="104.5" y="-7.5" font-family="Helvetica,sans-Serif" font-size="10.00">stepDut</text>
</a>
</g>
</g>
<!-- Node2&#45;&gt;Node3 -->
<g id="edge2" class="edge">
<title>Node2&#45;&gt;Node3</title>
<path fill="none" stroke="midnightblue" d="M157.79,-10C148.8,-10 139.96,-10 132.17,-10"/>
<polygon fill="midnightblue" stroke="midnightblue" points="157.95,-13.5 167.95,-10 157.95,-6.5 157.95,-13.5"/>
</g>
<!-- Node4 -->
<g id="node4" class="node">
<title>Node4</title>
<g id="a_node4"><a xlink:href="group__GammacorrectionTB.html#ga3c04138a5bfe5d72780bb7e82a18e627" target="_top" xlink:title="Main testbench of Hrris.">
<polygon fill="none" stroke="black" points="0,-0.5 0,-19.5 41,-19.5 41,-0.5 0,-0.5"/>
<text text-anchor="middle" x="20.5" y="-7.5" font-family="Helvetica,sans-Serif" font-size="10.00">main</text>
</a>
</g>
</g>
<!-- Node3&#45;&gt;Node4 -->
<g id="edge3" class="edge">
<title>Node3&#45;&gt;Node4</title>
<path fill="none" stroke="midnightblue" d="M66.57,-10C57.8,-10 48.77,-10 41.13,-10"/>
<polygon fill="midnightblue" stroke="midnightblue" points="66.65,-13.5 76.65,-10 66.65,-6.5 66.65,-13.5"/>
</g>
</g>
</svg>
