<?xml version="1.0" encoding="UTF-8" standalone="no"?>
<!DOCTYPE svg PUBLIC "-//W3C//DTD SVG 1.1//EN"
 "http://www.w3.org/Graphics/SVG/1.1/DTD/svg11.dtd">
<!-- Generated by graphviz version 2.43.0 (0)
 -->
<!-- Title: isDottedDecimal Pages: 1 -->
<svg width="676pt" height="256pt"
 viewBox="0.00 0.00 676.00 256.00" xmlns="http://www.w3.org/2000/svg" xmlns:xlink="http://www.w3.org/1999/xlink">
<g id="graph0" class="graph" transform="scale(1 1) rotate(0) translate(4 252)">
<title>isDottedDecimal</title>
<!-- Node1 -->
<g id="node1" class="node">
<title>Node1</title>
<g id="a_node1"><a xlink:title="Checks if a string contains an IP address represented in dot&#45;decimal notation.">
<polygon fill="#bfbfbf" stroke="black" points="570,-114.5 570,-133.5 668,-133.5 668,-114.5 570,-114.5"/>
<text text-anchor="middle" x="619" y="-121.5" font-family="Helvetica,sans-Serif" font-size="10.00">isDottedDecimal</text>
</a>
</g>
</g>
<!-- Node2 -->
<g id="node2" class="node">
<title>Node2</title>
<g id="a_node2"><a xlink:href="group__NTS__TOE__TEST.html#gaed2375a8e30d24672bafc5e85b9680af" target="_top" xlink:title="Parse and handle a &#39;COMMAND/SET&#39; request.">
<polygon fill="none" stroke="black" points="397,-228.5 397,-247.5 531,-247.5 531,-228.5 397,-228.5"/>
<text text-anchor="middle" x="464" y="-235.5" font-family="Helvetica,sans-Serif" font-size="10.00">cmdSetCommandParser</text>
</a>
</g>
</g>
<!-- Node1&#45;&gt;Node2 -->
<g id="edge1" class="edge">
<title>Node1&#45;&gt;Node2</title>
<path fill="none" stroke="midnightblue" d="M606.65,-142.31C592.33,-163.85 565.73,-199.21 534,-219 527.78,-222.88 520.76,-225.98 513.64,-228.46"/>
<polygon fill="midnightblue" stroke="midnightblue" points="609.69,-144.04 612.17,-133.74 603.81,-140.25 609.69,-144.04"/>
</g>
<!-- Node4 -->
<g id="node4" class="node">
<title>Node4</title>
<g id="a_node4"><a xlink:href="group__tcp__shell__if.html#ga0ddf1224851353fc92bfbff6f499fa97" target="_top" xlink:title="Main function for the test of the TCP Shell Interface (TSIF).">
<polygon fill="none" stroke="black" points="443.5,-190.5 443.5,-209.5 484.5,-209.5 484.5,-190.5 443.5,-190.5"/>
<text text-anchor="middle" x="464" y="-197.5" font-family="Helvetica,sans-Serif" font-size="10.00">main</text>
</a>
</g>
</g>
<!-- Node1&#45;&gt;Node4 -->
<g id="edge3" class="edge">
<title>Node1&#45;&gt;Node4</title>
<path fill="none" stroke="midnightblue" d="M598.29,-140.13C581.94,-152.81 557.63,-170.09 534,-181 518.09,-188.34 498.78,-193.36 484.63,-196.39"/>
<polygon fill="midnightblue" stroke="midnightblue" points="600.84,-142.58 606.5,-133.63 596.49,-137.09 600.84,-142.58"/>
</g>
<!-- Node5 -->
<g id="node5" class="node">
<title>Node5</title>
<g id="a_node5"><a xlink:href="group__NTS__TOE__TEST.html#ga74e69efe2106d8c4d2baa125f6b40459" target="_top" xlink:title="TCP Application Send (TAs). Emulates the Tx process of the TAIF.">
<polygon fill="none" stroke="black" points="427.5,-114.5 427.5,-133.5 500.5,-133.5 500.5,-114.5 427.5,-114.5"/>
<text text-anchor="middle" x="464" y="-121.5" font-family="Helvetica,sans-Serif" font-size="10.00">pTAIF_Send</text>
</a>
</g>
</g>
<!-- Node1&#45;&gt;Node5 -->
<g id="edge4" class="edge">
<title>Node1&#45;&gt;Node5</title>
<path fill="none" stroke="midnightblue" d="M559.47,-124C539.78,-124 518.4,-124 500.97,-124"/>
<polygon fill="midnightblue" stroke="midnightblue" points="559.59,-127.5 569.59,-124 559.59,-120.5 559.59,-127.5"/>
</g>
<!-- Node7 -->
<g id="node7" class="node">
<title>Node7</title>
<g id="a_node7"><a xlink:href="group__NTS__SIM.html#ga1a0ed3b4f62e362e40c09dbebd663af0" target="_top" xlink:title="Retrieve an Fpga socket from a string.">
<polygon fill="none" stroke="black" points="394,-76.5 394,-95.5 534,-95.5 534,-76.5 394,-76.5"/>
<text text-anchor="middle" x="464" y="-83.5" font-family="Helvetica,sans-Serif" font-size="10.00">readFpgaSocketFromLine</text>
</a>
</g>
</g>
<!-- Node1&#45;&gt;Node7 -->
<g id="edge6" class="edge">
<title>Node1&#45;&gt;Node7</title>
<path fill="none" stroke="midnightblue" d="M569.52,-111.96C548.15,-106.65 523.39,-100.5 503.33,-95.52"/>
<polygon fill="midnightblue" stroke="midnightblue" points="568.84,-115.4 579.39,-114.41 570.53,-108.6 568.84,-115.4"/>
</g>
<!-- Node10 -->
<g id="node10" class="node">
<title>Node10</title>
<g id="a_node10"><a xlink:href="group__NTS__SIM.html#ga0e61d088feba9b80a8480c46a68cf8a0" target="_top" xlink:title="Retrieve a Host socket from a string.">
<polygon fill="none" stroke="black" points="395,-38.5 395,-57.5 533,-57.5 533,-38.5 395,-38.5"/>
<text text-anchor="middle" x="464" y="-45.5" font-family="Helvetica,sans-Serif" font-size="10.00">readHostSocketFromLine</text>
</a>
</g>
</g>
<!-- Node1&#45;&gt;Node10 -->
<g id="edge9" class="edge">
<title>Node1&#45;&gt;Node10</title>
<path fill="none" stroke="midnightblue" d="M598.29,-107.87C581.94,-95.19 557.63,-77.91 534,-67 525.88,-63.25 516.87,-60.11 508.11,-57.53"/>
<polygon fill="midnightblue" stroke="midnightblue" points="596.49,-110.91 606.5,-114.37 600.84,-105.42 596.49,-110.91"/>
</g>
<!-- Node14 -->
<g id="node14" class="node">
<title>Node14</title>
<g id="a_node14"><a xlink:href="group__NTS__SIM.html#ga6b186bb74050215f24b07b1022a10b8e" target="_top" xlink:title="Retrieve a testbench parameter from a DAT file.">
<polygon fill="none" stroke="black" points="402.5,-0.5 402.5,-19.5 525.5,-19.5 525.5,-0.5 402.5,-0.5"/>
<text text-anchor="middle" x="464" y="-7.5" font-family="Helvetica,sans-Serif" font-size="10.00">readTbParamFromFile</text>
</a>
</g>
</g>
<!-- Node1&#45;&gt;Node14 -->
<g id="edge13" class="edge">
<title>Node1&#45;&gt;Node14</title>
<path fill="none" stroke="midnightblue" d="M606.65,-105.69C592.33,-84.15 565.73,-48.79 534,-29 527.78,-25.12 520.76,-22.02 513.64,-19.54"/>
<polygon fill="midnightblue" stroke="midnightblue" points="603.81,-107.75 612.17,-114.26 609.69,-103.96 603.81,-107.75"/>
</g>
<!-- Node16 -->
<g id="node16" class="node">
<title>Node16</title>
<g id="a_node16"><a xlink:href="group__NTS__TOE__TEST.html#ga1d73957534ff04ad6accee803f21ad01" target="_top" xlink:title="Parse the input test file and set the global parameters of the TB.">
<polygon fill="none" stroke="black" points="404.5,-152.5 404.5,-171.5 523.5,-171.5 523.5,-152.5 404.5,-152.5"/>
<text text-anchor="middle" x="464" y="-159.5" font-family="Helvetica,sans-Serif" font-size="10.00">setGlobalParameters</text>
</a>
</g>
</g>
<!-- Node1&#45;&gt;Node16 -->
<g id="edge15" class="edge">
<title>Node1&#45;&gt;Node16</title>
<path fill="none" stroke="midnightblue" d="M569.52,-136.04C548.15,-141.35 523.39,-147.5 503.33,-152.48"/>
<polygon fill="midnightblue" stroke="midnightblue" points="570.53,-139.4 579.39,-133.59 568.84,-132.6 570.53,-139.4"/>
</g>
<!-- Node3 -->
<g id="node3" class="node">
<title>Node3</title>
<g id="a_node3"><a xlink:href="group__NTS__TOE__TEST.html#ga19626da81d440ab83bcba2f6838ccb87" target="_top" xlink:title="Emulate the behavior of the IP Rx Path (IPRX).">
<polygon fill="none" stroke="black" points="271,-199.5 271,-218.5 316,-218.5 316,-199.5 271,-199.5"/>
<text text-anchor="middle" x="293.5" y="-206.5" font-family="Helvetica,sans-Serif" font-size="10.00">pIPRX</text>
</a>
</g>
</g>
<!-- Node2&#45;&gt;Node3 -->
<g id="edge2" class="edge">
<title>Node2&#45;&gt;Node3</title>
<path fill="none" stroke="midnightblue" d="M397.36,-226.7C368.66,-221.76 336.94,-216.3 316.41,-212.77"/>
<polygon fill="midnightblue" stroke="midnightblue" points="396.91,-230.18 407.36,-228.42 398.1,-223.28 396.91,-230.18"/>
</g>
<!-- Node6 -->
<g id="node6" class="node">
<title>Node6</title>
<g id="a_node6"><a xlink:href="group__NTS__TOE__TEST.html#ga45fdc434ab89031e3c94815b0c38a042" target="_top" xlink:title="Emulates the behavior of the TCP application interface (TAIF).">
<polygon fill="none" stroke="black" points="271.5,-133.5 271.5,-152.5 315.5,-152.5 315.5,-133.5 271.5,-133.5"/>
<text text-anchor="middle" x="293.5" y="-140.5" font-family="Helvetica,sans-Serif" font-size="10.00">pTAIF</text>
</a>
</g>
</g>
<!-- Node5&#45;&gt;Node6 -->
<g id="edge5" class="edge">
<title>Node5&#45;&gt;Node6</title>
<path fill="none" stroke="midnightblue" d="M416.94,-129.19C383.97,-132.91 341.09,-137.75 315.81,-140.6"/>
<polygon fill="midnightblue" stroke="midnightblue" points="417.72,-132.63 427.27,-128.03 416.94,-125.67 417.72,-132.63"/>
</g>
<!-- Node8 -->
<g id="node8" class="node">
<title>Node8</title>
<g id="a_node8"><a xlink:href="group__udp__app__flash.html#ga5b6de7e53f9c6d997bcb7c5f830ba06a" target="_top" xlink:title="Read a datagram from a DAT file.">
<polygon fill="none" stroke="black" points="229,-76.5 229,-95.5 358,-95.5 358,-76.5 229,-76.5"/>
<text text-anchor="middle" x="293.5" y="-83.5" font-family="Helvetica,sans-Serif" font-size="10.00">readDatagramFromFile</text>
</a>
</g>
</g>
<!-- Node7&#45;&gt;Node8 -->
<g id="edge7" class="edge">
<title>Node7&#45;&gt;Node8</title>
<path fill="none" stroke="midnightblue" d="M383.93,-86C375.33,-86 366.65,-86 358.26,-86"/>
<polygon fill="midnightblue" stroke="midnightblue" points="383.98,-89.5 393.98,-86 383.98,-82.5 383.98,-89.5"/>
</g>
<!-- Node9 -->
<g id="node9" class="node">
<title>Node9</title>
<g id="a_node9"><a xlink:href="group__udp__app__flash.html#gaed659893ff9e142d02f969213e4a501f" target="_top" xlink:title="Create the golden UDP Tx files from an input test file.">
<polygon fill="none" stroke="black" points="77,-76.5 77,-95.5 193,-95.5 193,-76.5 77,-76.5"/>
<text text-anchor="middle" x="135" y="-83.5" font-family="Helvetica,sans-Serif" font-size="10.00">createGoldenTxFiles</text>
</a>
</g>
</g>
<!-- Node8&#45;&gt;Node9 -->
<g id="edge8" class="edge">
<title>Node8&#45;&gt;Node9</title>
<path fill="none" stroke="midnightblue" d="M218.76,-86C210.13,-86 201.42,-86 193.05,-86"/>
<polygon fill="midnightblue" stroke="midnightblue" points="218.85,-89.5 228.85,-86 218.85,-82.5 218.85,-89.5"/>
</g>
<!-- Node11 -->
<g id="node11" class="node">
<title>Node11</title>
<g id="a_node11"><a xlink:href="group__NTS__UOE__TEST.html#ga401bd522a62eaf39853dcc63d7080cb8" target="_top" xlink:title="Read a datagram from a DAT file.">
<polygon fill="none" stroke="black" points="229,-38.5 229,-57.5 358,-57.5 358,-38.5 229,-38.5"/>
<text text-anchor="middle" x="293.5" y="-45.5" font-family="Helvetica,sans-Serif" font-size="10.00">readDatagramFromFile</text>
</a>
</g>
</g>
<!-- Node10&#45;&gt;Node11 -->
<g id="edge10" class="edge">
<title>Node10&#45;&gt;Node11</title>
<path fill="none" stroke="midnightblue" d="M384.9,-48C375.95,-48 366.9,-48 358.17,-48"/>
<polygon fill="midnightblue" stroke="midnightblue" points="384.95,-51.5 394.95,-48 384.95,-44.5 384.95,-51.5"/>
</g>
<!-- Node12 -->
<g id="node12" class="node">
<title>Node12</title>
<g id="a_node12"><a xlink:href="group__NTS__UOE__TEST.html#ga0aea8acea94e854cc4f5d8a5b2bb6809" target="_top" xlink:title="Create the golden IPTX reference file from an input UAIF test file.">
<polygon fill="none" stroke="black" points="77,-38.5 77,-57.5 193,-57.5 193,-38.5 77,-38.5"/>
<text text-anchor="middle" x="135" y="-45.5" font-family="Helvetica,sans-Serif" font-size="10.00">createGoldenTxFiles</text>
</a>
</g>
</g>
<!-- Node11&#45;&gt;Node12 -->
<g id="edge11" class="edge">
<title>Node11&#45;&gt;Node12</title>
<path fill="none" stroke="midnightblue" d="M218.76,-48C210.13,-48 201.42,-48 193.05,-48"/>
<polygon fill="midnightblue" stroke="midnightblue" points="218.85,-51.5 228.85,-48 218.85,-44.5 218.85,-51.5"/>
</g>
<!-- Node13 -->
<g id="node13" class="node">
<title>Node13</title>
<g id="a_node13"><a xlink:href="group__NTS__UOE__TEST.html#ga0ddf1224851353fc92bfbff6f499fa97" target="_top" xlink:title="Main function.">
<polygon fill="none" stroke="black" points="0,-38.5 0,-57.5 41,-57.5 41,-38.5 0,-38.5"/>
<text text-anchor="middle" x="20.5" y="-45.5" font-family="Helvetica,sans-Serif" font-size="10.00">main</text>
</a>
</g>
</g>
<!-- Node12&#45;&gt;Node13 -->
<g id="edge12" class="edge">
<title>Node12&#45;&gt;Node13</title>
<path fill="none" stroke="midnightblue" d="M66.62,-48C57.37,-48 48.55,-48 41.19,-48"/>
<polygon fill="midnightblue" stroke="midnightblue" points="66.76,-51.5 76.76,-48 66.76,-44.5 66.76,-51.5"/>
</g>
<!-- Node15 -->
<g id="node15" class="node">
<title>Node15</title>
<g id="a_node15"><a xlink:href="group__NTS__ARP__TEST.html#ga0ddf1224851353fc92bfbff6f499fa97" target="_top" xlink:title="Main function.">
<polygon fill="none" stroke="black" points="273,-0.5 273,-19.5 314,-19.5 314,-0.5 273,-0.5"/>
<text text-anchor="middle" x="293.5" y="-7.5" font-family="Helvetica,sans-Serif" font-size="10.00">main</text>
</a>
</g>
</g>
<!-- Node14&#45;&gt;Node15 -->
<g id="edge14" class="edge">
<title>Node14&#45;&gt;Node15</title>
<path fill="none" stroke="midnightblue" d="M391.88,-10C363.65,-10 333.4,-10 314.24,-10"/>
<polygon fill="midnightblue" stroke="midnightblue" points="392.17,-13.5 402.17,-10 392.17,-6.5 392.17,-13.5"/>
</g>
<!-- Node16&#45;&gt;Node3 -->
<g id="edge16" class="edge">
<title>Node16&#45;&gt;Node3</title>
<path fill="none" stroke="midnightblue" d="M418.49,-174.22C410.34,-176.46 401.91,-178.8 394,-181 367.2,-188.46 336.38,-197.15 316.23,-202.85"/>
<polygon fill="midnightblue" stroke="midnightblue" points="419.53,-177.56 428.24,-171.53 417.67,-170.81 419.53,-177.56"/>
</g>
<!-- Node16&#45;&gt;Node6 -->
<g id="edge17" class="edge">
<title>Node16&#45;&gt;Node6</title>
<path fill="none" stroke="midnightblue" d="M393.82,-154.2C365.67,-151.03 335.19,-147.59 315.53,-145.37"/>
<polygon fill="midnightblue" stroke="midnightblue" points="393.74,-157.71 404.07,-155.35 394.52,-150.76 393.74,-157.71"/>
</g>
</g>
</svg>
