<?xml version="1.0" encoding="UTF-8" standalone="no"?>
<!DOCTYPE svg PUBLIC "-//W3C//DTD SVG 1.1//EN"
 "http://www.w3.org/Graphics/SVG/1.1/DTD/svg11.dtd">
<!-- Generated by graphviz version 2.43.0 (0)
 -->
<!-- Title: writeAxisRawToFile Pages: 1 -->
<svg width="758pt" height="382pt"
 viewBox="0.00 0.00 758.00 382.00" xmlns="http://www.w3.org/2000/svg" xmlns:xlink="http://www.w3.org/1999/xlink">
<g id="graph0" class="graph" transform="scale(1 1) rotate(0) translate(4 378)">
<title>writeAxisRawToFile</title>
<!-- Node1 -->
<g id="node1" class="node">
<title>Node1</title>
<g id="a_node1"><a xlink:title="Dump an Axis raw data chunk to a file.">
<polygon fill="#bfbfbf" stroke="black" points="639,-202.5 639,-221.5 750,-221.5 750,-202.5 639,-202.5"/>
<text text-anchor="middle" x="694.5" y="-209.5" font-family="Helvetica,sans-Serif" font-size="10.00">writeAxisRawToFile</text>
</a>
</g>
</g>
<!-- Node2 -->
<g id="node2" class="node">
<title>Node2</title>
<g id="a_node2"><a xlink:href="group__NTS__IPTX__TEST.html#ga0ddf1224851353fc92bfbff6f499fa97" target="_top" xlink:title="Main function.">
<polygon fill="none" stroke="black" points="503.5,-354.5 503.5,-373.5 544.5,-373.5 544.5,-354.5 503.5,-354.5"/>
<text text-anchor="middle" x="524" y="-361.5" font-family="Helvetica,sans-Serif" font-size="10.00">main</text>
</a>
</g>
</g>
<!-- Node1&#45;&gt;Node2 -->
<g id="edge1" class="edge">
<title>Node1&#45;&gt;Node2</title>
<path fill="none" stroke="midnightblue" d="M685.78,-231.38C673.07,-260.69 644.91,-315.95 603,-345 585.59,-357.07 561.36,-361.5 544.54,-363.12"/>
<polygon fill="midnightblue" stroke="midnightblue" points="689.13,-232.43 689.76,-221.85 682.67,-229.73 689.13,-232.43"/>
</g>
<!-- Node3 -->
<g id="node3" class="node">
<title>Node3</title>
<g id="a_node3"><a xlink:href="group__NTS__TOE__TEST.html#ga5555b85edfa105eb62cf20f0dbdf5962" target="_top" xlink:title="Emulate the behavior of the IP Tx Handler (IPTX).">
<polygon fill="none" stroke="black" points="502,-316.5 502,-335.5 546,-335.5 546,-316.5 502,-316.5"/>
<text text-anchor="middle" x="524" y="-323.5" font-family="Helvetica,sans-Serif" font-size="10.00">pIPTX</text>
</a>
</g>
</g>
<!-- Node1&#45;&gt;Node3 -->
<g id="edge2" class="edge">
<title>Node1&#45;&gt;Node3</title>
<path fill="none" stroke="midnightblue" d="M681.48,-229.83C665.94,-251.45 636.82,-287.44 603,-307 585.38,-317.19 562.49,-321.93 546.07,-324.13"/>
<polygon fill="midnightblue" stroke="midnightblue" points="684.42,-231.73 687.29,-221.53 678.69,-227.72 684.42,-231.73"/>
</g>
<!-- Node4 -->
<g id="node4" class="node">
<title>Node4</title>
<g id="a_node4"><a xlink:href="group__tcp__shell__if.html#ga4d29cb2d828e67dfdd9c7538336b2f04" target="_top" xlink:title="Emulate behavior of the SHELL/NTS/TCP Offload Engine (TOE).">
<polygon fill="none" stroke="black" points="503,-278.5 503,-297.5 545,-297.5 545,-278.5 503,-278.5"/>
<text text-anchor="middle" x="524" y="-285.5" font-family="Helvetica,sans-Serif" font-size="10.00">pTOE</text>
</a>
</g>
</g>
<!-- Node1&#45;&gt;Node4 -->
<g id="edge3" class="edge">
<title>Node1&#45;&gt;Node4</title>
<path fill="none" stroke="midnightblue" d="M672.65,-227.89C654.96,-240.67 628.48,-258.21 603,-269 584.13,-276.99 561.21,-282.07 545.12,-284.94"/>
<polygon fill="midnightblue" stroke="midnightblue" points="675.07,-230.45 681.04,-221.7 670.91,-224.82 675.07,-230.45"/>
</g>
<!-- Node5 -->
<g id="node5" class="node">
<title>Node5</title>
<g id="a_node5"><a xlink:href="group__tcp__app__flash.html#ga9cad3ef30f9702b8e8d01d3f3bf51f81" target="_top" xlink:title="Emulate the receiving part of the TSIF process.">
<polygon fill="none" stroke="black" points="487.5,-240.5 487.5,-259.5 560.5,-259.5 560.5,-240.5 487.5,-240.5"/>
<text text-anchor="middle" x="524" y="-247.5" font-family="Helvetica,sans-Serif" font-size="10.00">pTSIF_Recv</text>
</a>
</g>
</g>
<!-- Node1&#45;&gt;Node5 -->
<g id="edge4" class="edge">
<title>Node1&#45;&gt;Node5</title>
<path fill="none" stroke="midnightblue" d="M641.22,-223.79C615.06,-229.69 584.07,-236.68 560.67,-241.96"/>
<polygon fill="midnightblue" stroke="midnightblue" points="642,-227.2 650.98,-221.59 640.46,-220.37 642,-227.2"/>
</g>
<!-- Node8 -->
<g id="node8" class="node">
<title>Node8</title>
<g id="a_node8"><a xlink:href="group__tcp__app__flash.html#ga597741237109a3f2e0956d63a3561e33" target="_top" xlink:title="Emulate the sending part of the TSIF process.">
<polygon fill="none" stroke="black" points="487.5,-202.5 487.5,-221.5 560.5,-221.5 560.5,-202.5 487.5,-202.5"/>
<text text-anchor="middle" x="524" y="-209.5" font-family="Helvetica,sans-Serif" font-size="10.00">pTSIF_Send</text>
</a>
</g>
</g>
<!-- Node1&#45;&gt;Node8 -->
<g id="edge7" class="edge">
<title>Node1&#45;&gt;Node8</title>
<path fill="none" stroke="midnightblue" d="M628.69,-212C605.56,-212 580.37,-212 560.61,-212"/>
<polygon fill="midnightblue" stroke="midnightblue" points="628.79,-215.5 638.79,-212 628.79,-208.5 628.79,-215.5"/>
</g>
<!-- Node9 -->
<g id="node9" class="node">
<title>Node9</title>
<g id="a_node9"><a xlink:href="group__udp__shell__if.html#gad2f4a79a5d25be1a5112d627ca6e3dc0" target="_top" xlink:title="Emulate behavior of the SHELL/NTS/UDP Offload Engine (UOE).">
<polygon fill="none" stroke="black" points="502,-164.5 502,-183.5 546,-183.5 546,-164.5 502,-164.5"/>
<text text-anchor="middle" x="524" y="-171.5" font-family="Helvetica,sans-Serif" font-size="10.00">pUOE</text>
</a>
</g>
</g>
<!-- Node1&#45;&gt;Node9 -->
<g id="edge9" class="edge">
<title>Node1&#45;&gt;Node9</title>
<path fill="none" stroke="midnightblue" d="M640.91,-200.14C609.03,-192.95 570.07,-184.16 546.42,-178.83"/>
<polygon fill="midnightblue" stroke="midnightblue" points="640.46,-203.63 650.98,-202.41 642,-196.8 640.46,-203.63"/>
</g>
<!-- Node11 -->
<g id="node11" class="node">
<title>Node11</title>
<g id="a_node11"><a xlink:href="classSimUdpDatagram.html#a683cd40a7c6616640250a9e20e470f7a" target="_top" xlink:title="Dump an AxisUdp chunk to a file.">
<polygon fill="none" stroke="black" points="446.5,-115 446.5,-145 601.5,-145 601.5,-115 446.5,-115"/>
<text text-anchor="start" x="454.5" y="-133" font-family="Helvetica,sans-Serif" font-size="10.00">SimUdpDatagram::writeAxis</text>
<text text-anchor="middle" x="524" y="-122" font-family="Helvetica,sans-Serif" font-size="10.00">UdpToFile</text>
</a>
</g>
</g>
<!-- Node1&#45;&gt;Node11 -->
<g id="edge11" class="edge">
<title>Node1&#45;&gt;Node11</title>
<path fill="none" stroke="midnightblue" d="M672.13,-196.37C654.33,-183.89 627.94,-166.62 603,-155 595.14,-151.34 586.59,-148 578.14,-145.04"/>
<polygon fill="midnightblue" stroke="midnightblue" points="670.43,-199.45 680.61,-202.4 674.49,-193.75 670.43,-199.45"/>
</g>
<!-- Node17 -->
<g id="node17" class="node">
<title>Node17</title>
<g id="a_node17"><a xlink:href="classSimEthFrame.html#a7d896fab267a13200aade1caf92f0058" target="_top" xlink:title="Dump this Ethernet frame as raw AxisEth chunks into a file.">
<polygon fill="none" stroke="black" points="445,-76.5 445,-95.5 603,-95.5 603,-76.5 445,-76.5"/>
<text text-anchor="middle" x="524" y="-83.5" font-family="Helvetica,sans-Serif" font-size="10.00">SimEthFrame::writeToDatFile</text>
</a>
</g>
</g>
<!-- Node1&#45;&gt;Node17 -->
<g id="edge17" class="edge">
<title>Node1&#45;&gt;Node17</title>
<path fill="none" stroke="midnightblue" d="M682.82,-193.57C668,-169.67 638.91,-128.39 603,-106 596,-101.64 588.09,-98.22 580.05,-95.55"/>
<polygon fill="midnightblue" stroke="midnightblue" points="679.96,-195.6 688.12,-202.36 685.96,-191.99 679.96,-195.6"/>
</g>
<!-- Node22 -->
<g id="node22" class="node">
<title>Node22</title>
<g id="a_node22"><a xlink:href="classSimIp4Packet.html#ae595d60bf5c4f7db527c7fd9e5058f56" target="_top" xlink:title="Dump this IP packet as AxisIp4 chunks into a file.">
<polygon fill="none" stroke="black" points="445,-38.5 445,-57.5 603,-57.5 603,-38.5 445,-38.5"/>
<text text-anchor="middle" x="524" y="-45.5" font-family="Helvetica,sans-Serif" font-size="10.00">SimIp4Packet::writeToDatFile</text>
</a>
</g>
</g>
<!-- Node1&#45;&gt;Node22 -->
<g id="edge22" class="edge">
<title>Node1&#45;&gt;Node22</title>
<path fill="none" stroke="midnightblue" d="M686.95,-192.69C675.26,-161.27 647.75,-99.34 603,-67 597.69,-63.16 591.7,-60.09 585.46,-57.64"/>
<polygon fill="midnightblue" stroke="midnightblue" points="683.77,-194.19 690.42,-202.43 690.36,-191.84 683.77,-194.19"/>
</g>
<!-- Node6 -->
<g id="node6" class="node">
<title>Node6</title>
<g id="a_node6"><a xlink:href="group__tcp__app__flash.html#gaff2d8688a7c8145511a4564cc92764de" target="_top" xlink:title="Emulate the behavior of TSIF.">
<polygon fill="none" stroke="black" points="297.5,-240.5 297.5,-259.5 341.5,-259.5 341.5,-240.5 297.5,-240.5"/>
<text text-anchor="middle" x="319.5" y="-247.5" font-family="Helvetica,sans-Serif" font-size="10.00">pTSIF</text>
</a>
</g>
</g>
<!-- Node5&#45;&gt;Node6 -->
<g id="edge5" class="edge">
<title>Node5&#45;&gt;Node6</title>
<path fill="none" stroke="midnightblue" d="M477.17,-250C434.73,-250 373.5,-250 341.61,-250"/>
<polygon fill="midnightblue" stroke="midnightblue" points="477.26,-253.5 487.26,-250 477.26,-246.5 477.26,-253.5"/>
</g>
<!-- Node7 -->
<g id="node7" class="node">
<title>Node7</title>
<g id="a_node7"><a xlink:href="group__tcp__app__flash.html#ga0ddf1224851353fc92bfbff6f499fa97" target="_top" xlink:title="Main function for the test of the TCP Application Flash (TAF).">
<polygon fill="none" stroke="black" points="115,-240.5 115,-259.5 156,-259.5 156,-240.5 115,-240.5"/>
<text text-anchor="middle" x="135.5" y="-247.5" font-family="Helvetica,sans-Serif" font-size="10.00">main</text>
</a>
</g>
</g>
<!-- Node6&#45;&gt;Node7 -->
<g id="edge6" class="edge">
<title>Node6&#45;&gt;Node7</title>
<path fill="none" stroke="midnightblue" d="M286.88,-250C249.26,-250 187.61,-250 156.21,-250"/>
<polygon fill="midnightblue" stroke="midnightblue" points="287.27,-253.5 297.27,-250 287.27,-246.5 287.27,-253.5"/>
</g>
<!-- Node8&#45;&gt;Node6 -->
<g id="edge8" class="edge">
<title>Node8&#45;&gt;Node6</title>
<path fill="none" stroke="midnightblue" d="M477.17,-220.6C434.73,-228.56 373.5,-240.05 341.61,-246.04"/>
<polygon fill="midnightblue" stroke="midnightblue" points="478.08,-223.99 487.26,-218.71 476.79,-217.11 478.08,-223.99"/>
</g>
<!-- Node10 -->
<g id="node10" class="node">
<title>Node10</title>
<g id="a_node10"><a xlink:href="group__udp__shell__if.html#ga0ddf1224851353fc92bfbff6f499fa97" target="_top" xlink:title="Main function for the test of the UDP Shell Interface (USIF).">
<polygon fill="none" stroke="black" points="299,-202.5 299,-221.5 340,-221.5 340,-202.5 299,-202.5"/>
<text text-anchor="middle" x="319.5" y="-209.5" font-family="Helvetica,sans-Serif" font-size="10.00">main</text>
</a>
</g>
</g>
<!-- Node9&#45;&gt;Node10 -->
<g id="edge10" class="edge">
<title>Node9&#45;&gt;Node10</title>
<path fill="none" stroke="midnightblue" d="M491.68,-179.88C449.35,-187.82 375.15,-201.74 340.01,-208.34"/>
<polygon fill="midnightblue" stroke="midnightblue" points="492.53,-183.28 501.71,-177.99 491.24,-176.4 492.53,-183.28"/>
</g>
<!-- Node12 -->
<g id="node12" class="node">
<title>Node12</title>
<g id="a_node12"><a xlink:href="classSimUdpDatagram.html#afd62cd4a99bab57e5c11597be65ba49b" target="_top" xlink:title="Dump the payload of this datagram as AxisUdp chunks into a file.">
<polygon fill="none" stroke="black" points="233,-153 233,-183 406,-183 406,-153 233,-153"/>
<text text-anchor="start" x="241" y="-171" font-family="Helvetica,sans-Serif" font-size="10.00">SimUdpDatagram::writePayload</text>
<text text-anchor="middle" x="319.5" y="-160" font-family="Helvetica,sans-Serif" font-size="10.00">ToDatFile</text>
</a>
</g>
</g>
<!-- Node11&#45;&gt;Node12 -->
<g id="edge12" class="edge">
<title>Node11&#45;&gt;Node12</title>
<path fill="none" stroke="midnightblue" d="M436.5,-146.23C424.56,-148.47 412.35,-150.76 400.54,-152.98"/>
<polygon fill="midnightblue" stroke="midnightblue" points="437.26,-149.65 446.44,-144.37 435.97,-142.77 437.26,-149.65"/>
</g>
<!-- Node16 -->
<g id="node16" class="node">
<title>Node16</title>
<g id="a_node16"><a xlink:href="classSimUdpDatagram.html#aab75328b19ee3c008b849046fdd25f1a" target="_top" xlink:title="Dump this UDP datagram as raw AxisUdp chunks into a file.">
<polygon fill="none" stroke="black" points="230,-114.5 230,-133.5 409,-133.5 409,-114.5 230,-114.5"/>
<text text-anchor="middle" x="319.5" y="-121.5" font-family="Helvetica,sans-Serif" font-size="10.00">SimUdpDatagram::writeToDatFile</text>
</a>
</g>
</g>
<!-- Node11&#45;&gt;Node16 -->
<g id="edge16" class="edge">
<title>Node11&#45;&gt;Node16</title>
<path fill="none" stroke="midnightblue" d="M436.33,-127.43C427.3,-127.16 418.11,-126.89 409.06,-126.62"/>
<polygon fill="midnightblue" stroke="midnightblue" points="436.34,-130.93 446.44,-127.73 436.55,-123.94 436.34,-130.93"/>
</g>
<!-- Node13 -->
<g id="node13" class="node">
<title>Node13</title>
<g id="a_node13"><a xlink:href="group__NTS__UOE__TEST.html#ga40610514eb0285c8afbe8cfe003638f6" target="_top" xlink:title="Create the golden Rx APP reference files from an input IPRX test file.">
<polygon fill="none" stroke="black" points="77,-177.5 77,-196.5 194,-196.5 194,-177.5 77,-177.5"/>
<text text-anchor="middle" x="135.5" y="-184.5" font-family="Helvetica,sans-Serif" font-size="10.00">createGoldenRxFiles</text>
</a>
</g>
</g>
<!-- Node12&#45;&gt;Node13 -->
<g id="edge13" class="edge">
<title>Node12&#45;&gt;Node13</title>
<path fill="none" stroke="midnightblue" d="M222.69,-178C212.97,-179.02 203.33,-180.02 194.2,-180.98"/>
<polygon fill="midnightblue" stroke="midnightblue" points="223.25,-181.46 232.83,-176.94 222.52,-174.5 223.25,-181.46"/>
</g>
<!-- Node15 -->
<g id="node15" class="node">
<title>Node15</title>
<g id="a_node15"><a xlink:href="group__udp__app__flash.html#gaed659893ff9e142d02f969213e4a501f" target="_top" xlink:title="Create the golden UDP Tx files from an input test file.">
<polygon fill="none" stroke="black" points="77.5,-139.5 77.5,-158.5 193.5,-158.5 193.5,-139.5 77.5,-139.5"/>
<text text-anchor="middle" x="135.5" y="-146.5" font-family="Helvetica,sans-Serif" font-size="10.00">createGoldenTxFiles</text>
</a>
</g>
</g>
<!-- Node12&#45;&gt;Node15 -->
<g id="edge15" class="edge">
<title>Node12&#45;&gt;Node15</title>
<path fill="none" stroke="midnightblue" d="M222.86,-158.02C212.9,-156.98 203.01,-155.94 193.68,-154.97"/>
<polygon fill="midnightblue" stroke="midnightblue" points="222.52,-161.5 232.83,-159.06 223.25,-154.54 222.52,-161.5"/>
</g>
<!-- Node14 -->
<g id="node14" class="node">
<title>Node14</title>
<g id="a_node14"><a xlink:href="group__NTS__UOE__TEST.html#ga0ddf1224851353fc92bfbff6f499fa97" target="_top" xlink:title="Main function.">
<polygon fill="none" stroke="black" points="0,-177.5 0,-196.5 41,-196.5 41,-177.5 0,-177.5"/>
<text text-anchor="middle" x="20.5" y="-184.5" font-family="Helvetica,sans-Serif" font-size="10.00">main</text>
</a>
</g>
</g>
<!-- Node13&#45;&gt;Node14 -->
<g id="edge14" class="edge">
<title>Node13&#45;&gt;Node14</title>
<path fill="none" stroke="midnightblue" d="M66.53,-187C57.29,-187 48.48,-187 41.14,-187"/>
<polygon fill="midnightblue" stroke="midnightblue" points="66.68,-190.5 76.68,-187 66.68,-183.5 66.68,-190.5"/>
</g>
<!-- Node18 -->
<g id="node18" class="node">
<title>Node18</title>
<g id="a_node18"><a xlink:href="group__NTS__ARP__TEST.html#ga5e15c6fbfca5524e0c76a49943f75b67" target="_top" xlink:title="Create the golden reference file from an input test file.">
<polygon fill="none" stroke="black" points="270,-76.5 270,-95.5 369,-95.5 369,-76.5 270,-76.5"/>
<text text-anchor="middle" x="319.5" y="-83.5" font-family="Helvetica,sans-Serif" font-size="10.00">createGoldenFile</text>
</a>
</g>
</g>
<!-- Node17&#45;&gt;Node18 -->
<g id="edge18" class="edge">
<title>Node17&#45;&gt;Node18</title>
<path fill="none" stroke="midnightblue" d="M434.74,-86C412.24,-86 388.87,-86 369.18,-86"/>
<polygon fill="midnightblue" stroke="midnightblue" points="435,-89.5 445,-86 435,-82.5 435,-89.5"/>
</g>
<!-- Node20 -->
<g id="node20" class="node">
<title>Node20</title>
<g id="a_node20"><a xlink:href="group__NTS__IPRX__TEST.html#ga0b909e5ea146aed33a8de139bebaab84" target="_top" xlink:title="Create the golden reference files from an input test file.">
<polygon fill="none" stroke="black" points="267.5,-38.5 267.5,-57.5 371.5,-57.5 371.5,-38.5 267.5,-38.5"/>
<text text-anchor="middle" x="319.5" y="-45.5" font-family="Helvetica,sans-Serif" font-size="10.00">createGoldenFiles</text>
</a>
</g>
</g>
<!-- Node17&#45;&gt;Node20 -->
<g id="edge20" class="edge">
<title>Node17&#45;&gt;Node20</title>
<path fill="none" stroke="midnightblue" d="M462.15,-74.58C433.18,-69.14 398.92,-62.72 371.36,-57.54"/>
<polygon fill="midnightblue" stroke="midnightblue" points="461.69,-78.06 472.16,-76.46 462.98,-71.18 461.69,-78.06"/>
</g>
<!-- Node19 -->
<g id="node19" class="node">
<title>Node19</title>
<g id="a_node19"><a xlink:href="group__NTS__ARP__TEST.html#ga0ddf1224851353fc92bfbff6f499fa97" target="_top" xlink:title="Main function.">
<polygon fill="none" stroke="black" points="115,-76.5 115,-95.5 156,-95.5 156,-76.5 115,-76.5"/>
<text text-anchor="middle" x="135.5" y="-83.5" font-family="Helvetica,sans-Serif" font-size="10.00">main</text>
</a>
</g>
</g>
<!-- Node18&#45;&gt;Node19 -->
<g id="edge19" class="edge">
<title>Node18&#45;&gt;Node19</title>
<path fill="none" stroke="midnightblue" d="M259.41,-86C223.75,-86 180.61,-86 156.08,-86"/>
<polygon fill="midnightblue" stroke="midnightblue" points="259.73,-89.5 269.73,-86 259.73,-82.5 259.73,-89.5"/>
</g>
<!-- Node21 -->
<g id="node21" class="node">
<title>Node21</title>
<g id="a_node21"><a xlink:href="group__NTS__IPRX__TEST.html#ga0ddf1224851353fc92bfbff6f499fa97" target="_top" xlink:title="Main function.">
<polygon fill="none" stroke="black" points="115,-38.5 115,-57.5 156,-57.5 156,-38.5 115,-38.5"/>
<text text-anchor="middle" x="135.5" y="-45.5" font-family="Helvetica,sans-Serif" font-size="10.00">main</text>
</a>
</g>
</g>
<!-- Node20&#45;&gt;Node21 -->
<g id="edge21" class="edge">
<title>Node20&#45;&gt;Node21</title>
<path fill="none" stroke="midnightblue" d="M257.16,-48C222.13,-48 180.52,-48 156.45,-48"/>
<polygon fill="midnightblue" stroke="midnightblue" points="257.32,-51.5 267.32,-48 257.32,-44.5 257.32,-51.5"/>
</g>
<!-- Node22&#45;&gt;Node20 -->
<g id="edge25" class="edge">
<title>Node22&#45;&gt;Node20</title>
<path fill="none" stroke="midnightblue" d="M434.81,-48C413.19,-48 390.77,-48 371.57,-48"/>
<polygon fill="midnightblue" stroke="midnightblue" points="435,-51.5 445,-48 435,-44.5 435,-51.5"/>
</g>
<!-- Node23 -->
<g id="node23" class="node">
<title>Node23</title>
<g id="a_node23"><a xlink:href="group__NTS__ICMP__TEST.html#ga652464dca3fe1c76270d52a9acdc94a5" target="_top" xlink:title="Create the golden reference file from an input test file.">
<polygon fill="none" stroke="black" points="270,-0.5 270,-19.5 369,-19.5 369,-0.5 270,-0.5"/>
<text text-anchor="middle" x="319.5" y="-7.5" font-family="Helvetica,sans-Serif" font-size="10.00">createGoldenFile</text>
</a>
</g>
</g>
<!-- Node22&#45;&gt;Node23 -->
<g id="edge23" class="edge">
<title>Node22&#45;&gt;Node23</title>
<path fill="none" stroke="midnightblue" d="M462.31,-36.61C432.56,-31.03 397.22,-24.4 369.26,-19.15"/>
<polygon fill="midnightblue" stroke="midnightblue" points="461.69,-40.06 472.16,-38.46 462.98,-33.18 461.69,-40.06"/>
</g>
<!-- Node24 -->
<g id="node24" class="node">
<title>Node24</title>
<g id="a_node24"><a xlink:href="group__NTS__ICMP__TEST.html#ga0ddf1224851353fc92bfbff6f499fa97" target="_top" xlink:title="Main function.">
<polygon fill="none" stroke="black" points="115,-0.5 115,-19.5 156,-19.5 156,-0.5 115,-0.5"/>
<text text-anchor="middle" x="135.5" y="-7.5" font-family="Helvetica,sans-Serif" font-size="10.00">main</text>
</a>
</g>
</g>
<!-- Node23&#45;&gt;Node24 -->
<g id="edge24" class="edge">
<title>Node23&#45;&gt;Node24</title>
<path fill="none" stroke="midnightblue" d="M259.41,-10C223.75,-10 180.61,-10 156.08,-10"/>
<polygon fill="midnightblue" stroke="midnightblue" points="259.73,-13.5 269.73,-10 259.73,-6.5 259.73,-13.5"/>
</g>
</g>
</svg>
