<?xml version="1.0" encoding="UTF-8" standalone="no"?>
<!DOCTYPE svg PUBLIC "-//W3C//DTD SVG 1.1//EN"
 "http://www.w3.org/Graphics/SVG/1.1/DTD/svg11.dtd">
<!-- Generated by graphviz version 2.43.0 (0)
 -->
<!-- Title: getEventName Pages: 1 -->
<svg width="665pt" height="142pt"
 viewBox="0.00 0.00 665.00 142.00" xmlns="http://www.w3.org/2000/svg" xmlns:xlink="http://www.w3.org/1999/xlink">
<g id="graph0" class="graph" transform="scale(1 1) rotate(0) translate(4 138)">
<title>getEventName</title>
<!-- Node1 -->
<g id="node1" class="node">
<title>Node1</title>
<g id="a_node1"><a xlink:title="Returns the name of an enum&#45;based event as a user friendly string.">
<polygon fill="#bfbfbf" stroke="black" points="568,-38.5 568,-57.5 657,-57.5 657,-38.5 568,-38.5"/>
<text text-anchor="middle" x="612.5" y="-45.5" font-family="Helvetica,sans-Serif" font-size="10.00">getEventName</text>
</a>
</g>
</g>
<!-- Node2 -->
<g id="node2" class="node">
<title>Node2</title>
<g id="a_node2"><a xlink:href="group__NTS__TOE.html#ga84c617e90fb4be3ad03bbfd408750bfb" target="_top" xlink:title="The Event Engine (EVe) arbitrates the incoming events and forwards them to the Tx Engine (TXe) via th...">
<polygon fill="none" stroke="black" points="429.5,-76.5 429.5,-95.5 512.5,-95.5 512.5,-76.5 429.5,-76.5"/>
<text text-anchor="middle" x="471" y="-83.5" font-family="Helvetica,sans-Serif" font-size="10.00">event_engine</text>
</a>
</g>
</g>
<!-- Node1&#45;&gt;Node2 -->
<g id="edge1" class="edge">
<title>Node1&#45;&gt;Node2</title>
<path fill="none" stroke="midnightblue" d="M566.54,-60.25C547.32,-65.48 525.2,-71.51 507.19,-76.41"/>
<polygon fill="midnightblue" stroke="midnightblue" points="567.57,-63.59 576.3,-57.59 565.73,-56.84 567.57,-63.59"/>
</g>
<!-- Node7 -->
<g id="node7" class="node">
<title>Node7</title>
<g id="a_node7"><a xlink:href="group__NTS__TOE.html#ga8b6752ebb797928b66e8041bb67b07ef" target="_top" xlink:title="Meta Data Loader (Mdl)">
<polygon fill="none" stroke="black" points="419,-38.5 419,-57.5 523,-57.5 523,-38.5 419,-38.5"/>
<text text-anchor="middle" x="471" y="-45.5" font-family="Helvetica,sans-Serif" font-size="10.00">pMetaDataLoader</text>
</a>
</g>
</g>
<!-- Node1&#45;&gt;Node7 -->
<g id="edge6" class="edge">
<title>Node1&#45;&gt;Node7</title>
<path fill="none" stroke="midnightblue" d="M557.62,-48C546.38,-48 534.56,-48 523.41,-48"/>
<polygon fill="midnightblue" stroke="midnightblue" points="557.74,-51.5 567.74,-48 557.74,-44.5 557.74,-51.5"/>
</g>
<!-- Node9 -->
<g id="node9" class="node">
<title>Node9</title>
<g id="a_node9"><a xlink:href="group__NTS__TOE.html#ga6470f6a637650ff2b912f3d4a08f60d0" target="_top" xlink:title="Tx Application Status Handler (Tash)">
<polygon fill="none" stroke="black" points="410,-0.5 410,-19.5 532,-19.5 532,-0.5 410,-0.5"/>
<text text-anchor="middle" x="471" y="-7.5" font-family="Helvetica,sans-Serif" font-size="10.00">pTxAppStatusHandler</text>
</a>
</g>
</g>
<!-- Node1&#45;&gt;Node9 -->
<g id="edge9" class="edge">
<title>Node1&#45;&gt;Node9</title>
<path fill="none" stroke="midnightblue" d="M566.54,-35.75C547.32,-30.52 525.2,-24.49 507.19,-19.59"/>
<polygon fill="midnightblue" stroke="midnightblue" points="565.73,-39.16 576.3,-38.41 567.57,-32.41 565.73,-39.16"/>
</g>
<!-- Node3 -->
<g id="node3" class="node">
<title>Node3</title>
<g id="a_node3"><a xlink:href="test__event__engine_8cpp.html#ae66f6b31b5ad750f1fe042a706a4e3d4" target="_top" xlink:title=" ">
<polygon fill="none" stroke="black" points="304.5,-114.5 304.5,-133.5 345.5,-133.5 345.5,-114.5 304.5,-114.5"/>
<text text-anchor="middle" x="325" y="-121.5" font-family="Helvetica,sans-Serif" font-size="10.00">main</text>
</a>
</g>
</g>
<!-- Node2&#45;&gt;Node3 -->
<g id="edge2" class="edge">
<title>Node2&#45;&gt;Node3</title>
<path fill="none" stroke="midnightblue" d="M423.87,-98.17C397.56,-105.11 365.94,-113.46 345.9,-118.75"/>
<polygon fill="midnightblue" stroke="midnightblue" points="424.89,-101.52 433.66,-95.59 423.1,-94.76 424.89,-101.52"/>
</g>
<!-- Node4 -->
<g id="node4" class="node">
<title>Node4</title>
<g id="a_node4"><a xlink:href="group__NTS__TOE.html#ga1d48efdcf37aa3803a7f7444fe485c9f" target="_top" xlink:title="Main process of the TCP Offload Engine (TOE0.">
<polygon fill="none" stroke="black" points="208,-38.5 208,-57.5 240,-57.5 240,-38.5 208,-38.5"/>
<text text-anchor="middle" x="224" y="-45.5" font-family="Helvetica,sans-Serif" font-size="10.00">toe</text>
</a>
</g>
</g>
<!-- Node2&#45;&gt;Node4 -->
<g id="edge3" class="edge">
<title>Node2&#45;&gt;Node4</title>
<path fill="none" stroke="midnightblue" d="M419.21,-84.62C379.73,-82.68 323.82,-78.05 276,-67 263.66,-64.15 250.27,-59.08 240.3,-54.89"/>
<polygon fill="midnightblue" stroke="midnightblue" points="419.23,-88.12 429.38,-85.07 419.55,-81.13 419.23,-88.12"/>
</g>
<!-- Node5 -->
<g id="node5" class="node">
<title>Node5</title>
<g id="a_node5"><a xlink:href="group__NTS__TOE.html#gab3d23260a8a037543d01f716091df7e8" target="_top" xlink:title="Top of TCP Offload Engine (TOE)">
<polygon fill="none" stroke="black" points="119,-38.5 119,-57.5 172,-57.5 172,-38.5 119,-38.5"/>
<text text-anchor="middle" x="145.5" y="-45.5" font-family="Helvetica,sans-Serif" font-size="10.00">toe_top</text>
</a>
</g>
</g>
<!-- Node4&#45;&gt;Node5 -->
<g id="edge4" class="edge">
<title>Node4&#45;&gt;Node5</title>
<path fill="none" stroke="midnightblue" d="M197.75,-48C189.52,-48 180.38,-48 172.13,-48"/>
<polygon fill="midnightblue" stroke="midnightblue" points="197.89,-51.5 207.89,-48 197.89,-44.5 197.89,-51.5"/>
</g>
<!-- Node6 -->
<g id="node6" class="node">
<title>Node6</title>
<g id="a_node6"><a xlink:href="group__NTS__TOE__TEST.html#gae95a90fdba9993f0d4e2f27cd94f22e2" target="_top" xlink:title="A wrapper for the Toplevel of the TCP Offload Engine (TOE).">
<polygon fill="none" stroke="black" points="0,-38.5 0,-57.5 83,-57.5 83,-38.5 0,-38.5"/>
<text text-anchor="middle" x="41.5" y="-45.5" font-family="Helvetica,sans-Serif" font-size="10.00">toe_top_wrap</text>
</a>
</g>
</g>
<!-- Node5&#45;&gt;Node6 -->
<g id="edge5" class="edge">
<title>Node5&#45;&gt;Node6</title>
<path fill="none" stroke="midnightblue" d="M108.74,-48C100.52,-48 91.73,-48 83.32,-48"/>
<polygon fill="midnightblue" stroke="midnightblue" points="108.76,-51.5 118.76,-48 108.76,-44.5 108.76,-51.5"/>
</g>
<!-- Node8 -->
<g id="node8" class="node">
<title>Node8</title>
<g id="a_node8"><a xlink:href="group__NTS__TOE.html#gab7ba01372a1e4397ba0ce6d9cbb398eb" target="_top" xlink:title="Transmit Engine (TXe)">
<polygon fill="none" stroke="black" points="292.5,-38.5 292.5,-57.5 357.5,-57.5 357.5,-38.5 292.5,-38.5"/>
<text text-anchor="middle" x="325" y="-45.5" font-family="Helvetica,sans-Serif" font-size="10.00">tx_engine</text>
</a>
</g>
</g>
<!-- Node7&#45;&gt;Node8 -->
<g id="edge7" class="edge">
<title>Node7&#45;&gt;Node8</title>
<path fill="none" stroke="midnightblue" d="M408.63,-48C391.1,-48 372.71,-48 357.74,-48"/>
<polygon fill="midnightblue" stroke="midnightblue" points="408.83,-51.5 418.83,-48 408.83,-44.5 408.83,-51.5"/>
</g>
<!-- Node8&#45;&gt;Node4 -->
<g id="edge8" class="edge">
<title>Node8&#45;&gt;Node4</title>
<path fill="none" stroke="midnightblue" d="M282.24,-48C267.23,-48 251.26,-48 240,-48"/>
<polygon fill="midnightblue" stroke="midnightblue" points="282.4,-51.5 292.4,-48 282.4,-44.5 282.4,-51.5"/>
</g>
<!-- Node10 -->
<g id="node10" class="node">
<title>Node10</title>
<g id="a_node10"><a xlink:href="group__NTS__TOE.html#ga62e5335de2bf31638c3ee44dba4a14f2" target="_top" xlink:title="Tx Application Interface (TAi)">
<polygon fill="none" stroke="black" points="276,-0.5 276,-19.5 374,-19.5 374,-0.5 276,-0.5"/>
<text text-anchor="middle" x="325" y="-7.5" font-family="Helvetica,sans-Serif" font-size="10.00">tx_app_interface</text>
</a>
</g>
</g>
<!-- Node9&#45;&gt;Node10 -->
<g id="edge10" class="edge">
<title>Node9&#45;&gt;Node10</title>
<path fill="none" stroke="midnightblue" d="M399.68,-10C391.04,-10 382.38,-10 374.18,-10"/>
<polygon fill="midnightblue" stroke="midnightblue" points="399.77,-13.5 409.77,-10 399.77,-6.5 399.77,-13.5"/>
</g>
<!-- Node10&#45;&gt;Node4 -->
<g id="edge11" class="edge">
<title>Node10&#45;&gt;Node4</title>
<path fill="none" stroke="midnightblue" d="M289.45,-23.26C272.59,-29.73 253.18,-37.18 240.1,-42.2"/>
<polygon fill="midnightblue" stroke="midnightblue" points="290.94,-26.44 299.02,-19.59 288.43,-19.9 290.94,-26.44"/>
</g>
</g>
</svg>
