<?xml version="1.0" encoding="UTF-8" standalone="no"?>
<!DOCTYPE svg PUBLIC "-//W3C//DTD SVG 1.1//EN"
 "http://www.w3.org/Graphics/SVG/1.1/DTD/svg11.dtd">
<!-- Generated by graphviz version 2.43.0 (0)
 -->
<!-- Title: isHexString Pages: 1 -->
<!--zoomable 256 -->
<svg id="main" version="1.1" xmlns="http://www.w3.org/2000/svg" xmlns:xlink="http://www.w3.org/1999/xlink" xml:space="preserve" onload="init(evt)">
<style type="text/css"><![CDATA[
.edge:hover path { stroke: red; }
.edge:hover polygon { stroke: red; fill: red; }
]]></style>
<script type="text/javascript"><![CDATA[
var edges = document.getElementsByTagName('g');
if (edges && edges.length) {
  for (var i=0;i<edges.length;i++) {
    if (edges[i].id.substr(0,4)=='edge') {
      edges[i].setAttribute('class','edge');
    }
  }
}
]]></script>
        <defs>
                <circle id="rim" cx="0" cy="0" r="7"/>
                <circle id="rim2" cx="0" cy="0" r="3.5"/>
                <g id="zoomPlus">
                        <use xlink:href="#rim" fill="#404040">
                                <set attributeName="fill" to="#808080" begin="zoomplus.mouseover" end="zoomplus.mouseout"/>
                        </use>
                        <path d="M-4,0h8M0,-4v8" fill="none" stroke="white" stroke-width="1.5" pointer-events="none"/>
                </g>
                <g id="zoomMin">
                        <use xlink:href="#rim" fill="#404040">
                                <set attributeName="fill" to="#808080" begin="zoomminus.mouseover" end="zoomminus.mouseout"/>
                        </use>
                        <path d="M-4,0h8" fill="none" stroke="white" stroke-width="1.5" pointer-events="none"/>
                </g>
                <g id="dirArrow">
                        <path fill="none" stroke="white" stroke-width="1.5" d="M0,-3.0v7 M-2.5,-0.5L0,-3.0L2.5,-0.5"/>
                </g>
               <g id="resetDef">
                       <use xlink:href="#rim2" fill="#404040">
                               <set attributeName="fill" to="#808080" begin="reset.mouseover" end="reset.mouseout"/>
                       </use>
               </g>
        </defs>

<script type="text/javascript">
var viewWidth = 656;
var viewHeight = 256;
var sectionId = 'dynsection-9';
</script>
<script xlink:href="svgpan.js"/>
<svg id="graph" class="graph">
<g id="viewport">
<title>isHexString</title>
<!-- Node1 -->
<g id="node1" class="node">
<title>Node1</title>
<g id="a_node1"><a xlink:title="Checks if a string contains a hexadecimal number.">
<polygon fill="#bfbfbf" stroke="black" points="575,-114.5 575,-133.5 648,-133.5 648,-114.5 575,-114.5"/>
<text text-anchor="middle" x="611.5" y="-121.5" font-family="Helvetica,sans-Serif" font-size="10.00">isHexString</text>
</a>
</g>
</g>
<!-- Node2 -->
<g id="node2" class="node">
<title>Node2</title>
<g id="a_node2"><a xlink:href="group__NTS__TOE__TEST.html#gaed2375a8e30d24672bafc5e85b9680af" target="_top" xlink:title="Parse and handle a &#39;COMMAND/SET&#39; request.">
<polygon fill="none" stroke="black" points="399.5,-228.5 399.5,-247.5 533.5,-247.5 533.5,-228.5 399.5,-228.5"/>
<text text-anchor="middle" x="466.5" y="-235.5" font-family="Helvetica,sans-Serif" font-size="10.00">cmdSetCommandParser</text>
</a>
</g>
</g>
<!-- Node1&#45;&gt;Node2 -->
<g id="edge1" class="edge">
<title>Node1&#45;&gt;Node2</title>
<path fill="none" stroke="midnightblue" d="M601.23,-142.96C589.66,-164.63 567.82,-199.59 539,-219 533.25,-222.87 526.74,-225.96 520.05,-228.42"/>
<polygon fill="midnightblue" stroke="midnightblue" points="604.49,-144.28 605.94,-133.78 598.26,-141.08 604.49,-144.28"/>
</g>
<!-- Node4 -->
<g id="node4" class="node">
<title>Node4</title>
<g id="a_node4"><a xlink:href="group__NTS__TOE__TEST.html#ga74e69efe2106d8c4d2baa125f6b40459" target="_top" xlink:title="TCP Application Send (TAs). Emulates the Tx process of the TAIF.">
<polygon fill="none" stroke="black" points="430,-152.5 430,-171.5 503,-171.5 503,-152.5 430,-152.5"/>
<text text-anchor="middle" x="466.5" y="-159.5" font-family="Helvetica,sans-Serif" font-size="10.00">pTAIF_Send</text>
</a>
</g>
</g>
<!-- Node1&#45;&gt;Node4 -->
<g id="edge3" class="edge">
<title>Node1&#45;&gt;Node4</title>
<path fill="none" stroke="midnightblue" d="M564.97,-136.1C545.02,-141.4 521.95,-147.53 503.26,-152.5"/>
<polygon fill="midnightblue" stroke="midnightblue" points="566.02,-139.44 574.78,-133.49 564.22,-132.68 566.02,-139.44"/>
</g>
<!-- Node6 -->
<g id="node6" class="node">
<title>Node6</title>
<g id="a_node6"><a xlink:href="group__NTS__SIM.html#gaffd54c1e5aaa02b765c92dc467f242da" target="_top" xlink:title="Retrieve an FPGA send port from a string.">
<polygon fill="none" stroke="black" points="394,-114.5 394,-133.5 539,-133.5 539,-114.5 394,-114.5"/>
<text text-anchor="middle" x="466.5" y="-121.5" font-family="Helvetica,sans-Serif" font-size="10.00">readFpgaSndPortFromLine</text>
</a>
</g>
</g>
<!-- Node1&#45;&gt;Node6 -->
<g id="edge5" class="edge">
<title>Node1&#45;&gt;Node6</title>
<path fill="none" stroke="midnightblue" d="M564.7,-124C556.49,-124 547.76,-124 539.02,-124"/>
<polygon fill="midnightblue" stroke="midnightblue" points="564.78,-127.5 574.78,-124 564.78,-120.5 564.78,-127.5"/>
</g>
<!-- Node10 -->
<g id="node10" class="node">
<title>Node10</title>
<g id="a_node10"><a xlink:href="group__NTS__SIM.html#ga1a0ed3b4f62e362e40c09dbebd663af0" target="_top" xlink:title="Retrieve an Fpga socket from a string.">
<polygon fill="none" stroke="black" points="396.5,-38.5 396.5,-57.5 536.5,-57.5 536.5,-38.5 396.5,-38.5"/>
<text text-anchor="middle" x="466.5" y="-45.5" font-family="Helvetica,sans-Serif" font-size="10.00">readFpgaSocketFromLine</text>
</a>
</g>
</g>
<!-- Node1&#45;&gt;Node10 -->
<g id="edge9" class="edge">
<title>Node1&#45;&gt;Node10</title>
<path fill="none" stroke="midnightblue" d="M593.64,-107.18C579.98,-94.44 559.67,-77.4 539,-67 531.43,-63.19 523.01,-60.08 514.68,-57.56"/>
<polygon fill="midnightblue" stroke="midnightblue" points="591.59,-110.06 601.23,-114.46 596.43,-105.01 591.59,-110.06"/>
</g>
<!-- Node13 -->
<g id="node13" class="node">
<title>Node13</title>
<g id="a_node13"><a xlink:href="group__NTS__SIM.html#ga0e61d088feba9b80a8480c46a68cf8a0" target="_top" xlink:title="Retrieve a Host socket from a string.">
<polygon fill="none" stroke="black" points="397.5,-76.5 397.5,-95.5 535.5,-95.5 535.5,-76.5 397.5,-76.5"/>
<text text-anchor="middle" x="466.5" y="-83.5" font-family="Helvetica,sans-Serif" font-size="10.00">readHostSocketFromLine</text>
</a>
</g>
</g>
<!-- Node1&#45;&gt;Node13 -->
<g id="edge12" class="edge">
<title>Node1&#45;&gt;Node13</title>
<path fill="none" stroke="midnightblue" d="M564.97,-111.9C545.02,-106.6 521.95,-100.47 503.26,-95.5"/>
<polygon fill="midnightblue" stroke="midnightblue" points="564.22,-115.32 574.78,-114.51 566.02,-108.56 564.22,-115.32"/>
</g>
<!-- Node14 -->
<g id="node14" class="node">
<title>Node14</title>
<g id="a_node14"><a xlink:href="group__NTS__SIM.html#ga6b186bb74050215f24b07b1022a10b8e" target="_top" xlink:title="Retrieve a testbench parameter from a DAT file.">
<polygon fill="none" stroke="black" points="405,-0.5 405,-19.5 528,-19.5 528,-0.5 405,-0.5"/>
<text text-anchor="middle" x="466.5" y="-7.5" font-family="Helvetica,sans-Serif" font-size="10.00">readTbParamFromFile</text>
</a>
</g>
</g>
<!-- Node1&#45;&gt;Node14 -->
<g id="edge14" class="edge">
<title>Node1&#45;&gt;Node14</title>
<path fill="none" stroke="midnightblue" d="M601.23,-105.04C589.66,-83.37 567.82,-48.41 539,-29 533.25,-25.13 526.74,-22.04 520.05,-19.58"/>
<polygon fill="midnightblue" stroke="midnightblue" points="598.26,-106.92 605.94,-114.22 604.49,-103.72 598.26,-106.92"/>
</g>
<!-- Node16 -->
<g id="node16" class="node">
<title>Node16</title>
<g id="a_node16"><a xlink:href="group__NTS__TOE__TEST.html#ga1d73957534ff04ad6accee803f21ad01" target="_top" xlink:title="Parse the input test file and set the global parameters of the TB.">
<polygon fill="none" stroke="black" points="407,-190.5 407,-209.5 526,-209.5 526,-190.5 407,-190.5"/>
<text text-anchor="middle" x="466.5" y="-197.5" font-family="Helvetica,sans-Serif" font-size="10.00">setGlobalParameters</text>
</a>
</g>
</g>
<!-- Node1&#45;&gt;Node16 -->
<g id="edge16" class="edge">
<title>Node1&#45;&gt;Node16</title>
<path fill="none" stroke="midnightblue" d="M593.64,-140.82C579.98,-153.56 559.67,-170.6 539,-181 531.43,-184.81 523.01,-187.92 514.68,-190.44"/>
<polygon fill="midnightblue" stroke="midnightblue" points="596.43,-142.99 601.23,-133.54 591.59,-137.94 596.43,-142.99"/>
</g>
<!-- Node3 -->
<g id="node3" class="node">
<title>Node3</title>
<g id="a_node3"><a xlink:href="group__NTS__TOE__TEST.html#ga19626da81d440ab83bcba2f6838ccb87" target="_top" xlink:title="Emulate the behavior of the IP Rx Path (IPRX).">
<polygon fill="none" stroke="black" points="271,-218.5 271,-237.5 316,-237.5 316,-218.5 271,-218.5"/>
<text text-anchor="middle" x="293.5" y="-225.5" font-family="Helvetica,sans-Serif" font-size="10.00">pIPRX</text>
</a>
</g>
</g>
<!-- Node2&#45;&gt;Node3 -->
<g id="edge2" class="edge">
<title>Node2&#45;&gt;Node3</title>
<path fill="none" stroke="midnightblue" d="M389.25,-233.54C362.61,-231.98 334.74,-230.35 316.19,-229.27"/>
<polygon fill="midnightblue" stroke="midnightblue" points="389.2,-237.04 399.39,-234.13 389.61,-230.06 389.2,-237.04"/>
</g>
<!-- Node5 -->
<g id="node5" class="node">
<title>Node5</title>
<g id="a_node5"><a xlink:href="group__NTS__TOE__TEST.html#ga45fdc434ab89031e3c94815b0c38a042" target="_top" xlink:title="Emulates the behavior of the TCP application interface (TAIF).">
<polygon fill="none" stroke="black" points="271.5,-171.5 271.5,-190.5 315.5,-190.5 315.5,-171.5 271.5,-171.5"/>
<text text-anchor="middle" x="293.5" y="-178.5" font-family="Helvetica,sans-Serif" font-size="10.00">pTAIF</text>
</a>
</g>
</g>
<!-- Node4&#45;&gt;Node5 -->
<g id="edge4" class="edge">
<title>Node4&#45;&gt;Node5</title>
<path fill="none" stroke="midnightblue" d="M419.55,-167.11C385.82,-170.85 341.56,-175.77 315.75,-178.64"/>
<polygon fill="midnightblue" stroke="midnightblue" points="420.1,-170.57 429.65,-165.98 419.33,-163.61 420.1,-170.57"/>
</g>
<!-- Node7 -->
<g id="node7" class="node">
<title>Node7</title>
<g id="a_node7"><a xlink:href="group__NTS__UOE__TEST.html#ga401bd522a62eaf39853dcc63d7080cb8" target="_top" xlink:title="Read a datagram from a DAT file.">
<polygon fill="none" stroke="black" points="229,-95.5 229,-114.5 358,-114.5 358,-95.5 229,-95.5"/>
<text text-anchor="middle" x="293.5" y="-102.5" font-family="Helvetica,sans-Serif" font-size="10.00">readDatagramFromFile</text>
</a>
</g>
</g>
<!-- Node6&#45;&gt;Node7 -->
<g id="edge6" class="edge">
<title>Node6&#45;&gt;Node7</title>
<path fill="none" stroke="midnightblue" d="M383.87,-114.93C375.22,-113.97 366.52,-113 358.12,-112.07"/>
<polygon fill="midnightblue" stroke="midnightblue" points="383.65,-118.43 393.97,-116.05 384.42,-111.47 383.65,-118.43"/>
</g>
<!-- Node8 -->
<g id="node8" class="node">
<title>Node8</title>
<g id="a_node8"><a xlink:href="group__NTS__UOE__TEST.html#ga0aea8acea94e854cc4f5d8a5b2bb6809" target="_top" xlink:title="Create the golden IPTX reference file from an input UAIF test file.">
<polygon fill="none" stroke="black" points="77,-95.5 77,-114.5 193,-114.5 193,-95.5 77,-95.5"/>
<text text-anchor="middle" x="135" y="-102.5" font-family="Helvetica,sans-Serif" font-size="10.00">createGoldenTxFiles</text>
</a>
</g>
</g>
<!-- Node7&#45;&gt;Node8 -->
<g id="edge7" class="edge">
<title>Node7&#45;&gt;Node8</title>
<path fill="none" stroke="midnightblue" d="M218.76,-105C210.13,-105 201.42,-105 193.05,-105"/>
<polygon fill="midnightblue" stroke="midnightblue" points="218.85,-108.5 228.85,-105 218.85,-101.5 218.85,-108.5"/>
</g>
<!-- Node9 -->
<g id="node9" class="node">
<title>Node9</title>
<g id="a_node9"><a xlink:href="group__NTS__UOE__TEST.html#ga0ddf1224851353fc92bfbff6f499fa97" target="_top" xlink:title="Main function.">
<polygon fill="none" stroke="black" points="0,-95.5 0,-114.5 41,-114.5 41,-95.5 0,-95.5"/>
<text text-anchor="middle" x="20.5" y="-102.5" font-family="Helvetica,sans-Serif" font-size="10.00">main</text>
</a>
</g>
</g>
<!-- Node8&#45;&gt;Node9 -->
<g id="edge8" class="edge">
<title>Node8&#45;&gt;Node9</title>
<path fill="none" stroke="midnightblue" d="M66.62,-105C57.37,-105 48.55,-105 41.19,-105"/>
<polygon fill="midnightblue" stroke="midnightblue" points="66.76,-108.5 76.76,-105 66.76,-101.5 66.76,-108.5"/>
</g>
<!-- Node11 -->
<g id="node11" class="node">
<title>Node11</title>
<g id="a_node11"><a xlink:href="group__udp__app__flash.html#ga5b6de7e53f9c6d997bcb7c5f830ba06a" target="_top" xlink:title="Read a datagram from a DAT file.">
<polygon fill="none" stroke="black" points="229,-38.5 229,-57.5 358,-57.5 358,-38.5 229,-38.5"/>
<text text-anchor="middle" x="293.5" y="-45.5" font-family="Helvetica,sans-Serif" font-size="10.00">readDatagramFromFile</text>
</a>
</g>
</g>
<!-- Node10&#45;&gt;Node11 -->
<g id="edge10" class="edge">
<title>Node10&#45;&gt;Node11</title>
<path fill="none" stroke="midnightblue" d="M386.24,-48C376.78,-48 367.21,-48 358.01,-48"/>
<polygon fill="midnightblue" stroke="midnightblue" points="386.44,-51.5 396.44,-48 386.44,-44.5 386.44,-51.5"/>
</g>
<!-- Node12 -->
<g id="node12" class="node">
<title>Node12</title>
<g id="a_node12"><a xlink:href="group__udp__app__flash.html#gaed659893ff9e142d02f969213e4a501f" target="_top" xlink:title="Create the golden UDP Tx files from an input test file.">
<polygon fill="none" stroke="black" points="77,-38.5 77,-57.5 193,-57.5 193,-38.5 77,-38.5"/>
<text text-anchor="middle" x="135" y="-45.5" font-family="Helvetica,sans-Serif" font-size="10.00">createGoldenTxFiles</text>
</a>
</g>
</g>
<!-- Node11&#45;&gt;Node12 -->
<g id="edge11" class="edge">
<title>Node11&#45;&gt;Node12</title>
<path fill="none" stroke="midnightblue" d="M218.76,-48C210.13,-48 201.42,-48 193.05,-48"/>
<polygon fill="midnightblue" stroke="midnightblue" points="218.85,-51.5 228.85,-48 218.85,-44.5 218.85,-51.5"/>
</g>
<!-- Node13&#45;&gt;Node7 -->
<g id="edge13" class="edge">
<title>Node13&#45;&gt;Node7</title>
<path fill="none" stroke="midnightblue" d="M387.32,-94.69C377.56,-95.77 367.68,-96.87 358.17,-97.93"/>
<polygon fill="midnightblue" stroke="midnightblue" points="387.87,-98.15 397.42,-93.56 387.1,-91.19 387.87,-98.15"/>
</g>
<!-- Node15 -->
<g id="node15" class="node">
<title>Node15</title>
<g id="a_node15"><a xlink:href="group__NTS__ARP__TEST.html#ga0ddf1224851353fc92bfbff6f499fa97" target="_top" xlink:title="Main function.">
<polygon fill="none" stroke="black" points="273,-0.5 273,-19.5 314,-19.5 314,-0.5 273,-0.5"/>
<text text-anchor="middle" x="293.5" y="-7.5" font-family="Helvetica,sans-Serif" font-size="10.00">main</text>
</a>
</g>
</g>
<!-- Node14&#45;&gt;Node15 -->
<g id="edge15" class="edge">
<title>Node14&#45;&gt;Node15</title>
<path fill="none" stroke="midnightblue" d="M394.56,-10C365.49,-10 334.09,-10 314.37,-10"/>
<polygon fill="midnightblue" stroke="midnightblue" points="394.73,-13.5 404.73,-10 394.73,-6.5 394.73,-13.5"/>
</g>
<!-- Node16&#45;&gt;Node3 -->
<g id="edge17" class="edge">
<title>Node16&#45;&gt;Node3</title>
<path fill="none" stroke="midnightblue" d="M397.05,-211.21C368.18,-215.94 336.6,-221.11 316.23,-224.44"/>
<polygon fill="midnightblue" stroke="midnightblue" points="397.83,-214.63 407.13,-209.56 396.7,-207.72 397.83,-214.63"/>
</g>
<!-- Node16&#45;&gt;Node5 -->
<g id="edge18" class="edge">
<title>Node16&#45;&gt;Node5</title>
<path fill="none" stroke="midnightblue" d="M396.53,-192.34C367.54,-189.12 335.92,-185.6 315.68,-183.35"/>
<polygon fill="midnightblue" stroke="midnightblue" points="396.33,-195.84 406.65,-193.46 397.1,-188.88 396.33,-195.84"/>
</g>
</g>
</svg>
        <g id="navigator" transform="translate(0 0)" fill="#404254">
                <rect fill="#f2f5e9" fill-opacity="0.5" stroke="#606060" stroke-width=".5" x="0" y="0" width="60" height="60"/>
                <use id="zoomplus" xlink:href="#zoomPlus" x="17" y="9" onmousedown="handleZoom(evt,'in')"/>
                <use id="zoomminus" xlink:href="#zoomMin" x="42" y="9" onmousedown="handleZoom(evt,'out')"/>
                <use id="reset" xlink:href="#resetDef" x="30" y="36" onmousedown="handleReset()"/>
                <g id="arrowUp" xlink:href="#dirArrow" transform="translate(30 24)" onmousedown="handlePan(0,-1)">
                  <use xlink:href="#rim" fill="#404040">
                        <set attributeName="fill" to="#808080" begin="arrowUp.mouseover" end="arrowUp.mouseout"/>
                  </use>
                  <path fill="none" stroke="white" stroke-width="1.5" d="M0,-3.0v7 M-2.5,-0.5L0,-3.0L2.5,-0.5"/>
                </g>
                <g id="arrowRight" xlink:href="#dirArrow" transform="rotate(90) translate(36 -43)" onmousedown="handlePan(1,0)">
                  <use xlink:href="#rim" fill="#404040">
                        <set attributeName="fill" to="#808080" begin="arrowRight.mouseover" end="arrowRight.mouseout"/>
                  </use>
                  <path fill="none" stroke="white" stroke-width="1.5" d="M0,-3.0v7 M-2.5,-0.5L0,-3.0L2.5,-0.5"/>
                </g>
                <g id="arrowDown" xlink:href="#dirArrow" transform="rotate(180) translate(-30 -48)" onmousedown="handlePan(0,1)">
                  <use xlink:href="#rim" fill="#404040">
                        <set attributeName="fill" to="#808080" begin="arrowDown.mouseover" end="arrowDown.mouseout"/>
                  </use>
                  <path fill="none" stroke="white" stroke-width="1.5" d="M0,-3.0v7 M-2.5,-0.5L0,-3.0L2.5,-0.5"/>
                </g>
                <g id="arrowLeft" xlink:href="#dirArrow" transform="rotate(270) translate(-36 17)" onmousedown="handlePan(-1,0)">
                  <use xlink:href="#rim" fill="#404040">
                        <set attributeName="fill" to="#808080" begin="arrowLeft.mouseover" end="arrowLeft.mouseout"/>
                  </use>
                  <path fill="none" stroke="white" stroke-width="1.5" d="M0,-3.0v7 M-2.5,-0.5L0,-3.0L2.5,-0.5"/>
                </g>
        </g>
        <svg viewBox="0 0 15 15" width="100%" height="30px" preserveAspectRatio="xMaxYMin meet">
         <g id="arrow_out" transform="scale(0.3 0.3)">
          <a xlink:href="group__NTS__SIM_gaf1e42151d0fc397a0eb27917e49ee5d9_icgraph_org.svg" target="_base">
           <rect id="button" ry="5" rx="5" y="6" x="6" height="38" width="38"
                fill="#f2f5e9" fill-opacity="0.5" stroke="#606060" stroke-width="1.0"/>
           <path id="arrow"
             d="M 11.500037,31.436501 C 11.940474,20.09759 22.043105,11.32322 32.158766,21.979434 L 37.068811,17.246167 C 37.068811,17.246167 37.088388,32 37.088388,32 L 22.160133,31.978069 C 22.160133,31.978069 26.997745,27.140456 26.997745,27.140456 C 18.528582,18.264221 13.291696,25.230495 11.500037,31.436501 z"
             style="fill:#404040;"/>
          </a>
         </g>
        </svg>
</svg>
