<?xml version="1.0" encoding="UTF-8" standalone="no"?>
<!DOCTYPE svg PUBLIC "-//W3C//DTD SVG 1.1//EN"
 "http://www.w3.org/Graphics/SVG/1.1/DTD/svg11.dtd">
<!-- Generated by graphviz version 2.43.0 (0)
 -->
<!-- Title: setInputDataStream Pages: 1 -->
<svg width="473pt" height="218pt"
 viewBox="0.00 0.00 473.00 218.00" xmlns="http://www.w3.org/2000/svg" xmlns:xlink="http://www.w3.org/1999/xlink">
<g id="graph0" class="graph" transform="scale(1 1) rotate(0) translate(4 214)">
<title>setInputDataStream</title>
<!-- Node1 -->
<g id="node1" class="node">
<title>Node1</title>
<g id="a_node1"><a xlink:title=" ">
<polygon fill="#bfbfbf" stroke="black" points="0,-95.5 0,-114.5 115,-114.5 115,-95.5 0,-95.5"/>
<text text-anchor="middle" x="57.5" y="-102.5" font-family="Helvetica,sans-Serif" font-size="10.00">setInputDataStream</text>
</a>
</g>
</g>
<!-- Node2 -->
<g id="node2" class="node">
<title>Node2</title>
<g id="a_node2"><a xlink:href="classAxisRaw.html#a7034bcf8cf143fb2bb9bfc46e70a7d6b" target="_top" xlink:title=" ">
<polygon fill="none" stroke="black" points="151.5,-190.5 151.5,-209.5 276.5,-209.5 276.5,-190.5 151.5,-190.5"/>
<text text-anchor="middle" x="214" y="-197.5" font-family="Helvetica,sans-Serif" font-size="10.00">AxisRaw::getLE_TData</text>
</a>
</g>
</g>
<!-- Node1&#45;&gt;Node2 -->
<g id="edge1" class="edge">
<title>Node1&#45;&gt;Node2</title>
<path fill="none" stroke="midnightblue" d="M67.57,-114.58C83.18,-130.54 116.75,-162.62 151,-181 155.18,-183.24 159.67,-185.26 164.24,-187.07"/>
<polygon fill="midnightblue" stroke="midnightblue" points="163.1,-190.38 173.7,-190.5 165.48,-183.8 163.1,-190.38"/>
</g>
<!-- Node3 -->
<g id="node3" class="node">
<title>Node3</title>
<g id="a_node3"><a xlink:href="classAxisRaw.html#a4becd0ad3c51e3db2749e888f2f72e31" target="_top" xlink:title=" ">
<polygon fill="none" stroke="black" points="151,-152.5 151,-171.5 277,-171.5 277,-152.5 151,-152.5"/>
<text text-anchor="middle" x="214" y="-159.5" font-family="Helvetica,sans-Serif" font-size="10.00">AxisRaw::getLE_TKeep</text>
</a>
</g>
</g>
<!-- Node1&#45;&gt;Node3 -->
<g id="edge2" class="edge">
<title>Node1&#45;&gt;Node3</title>
<path fill="none" stroke="midnightblue" d="M80.33,-114.64C98.94,-122.69 126.48,-134.23 151,-143 157.05,-145.17 163.49,-147.31 169.84,-149.33"/>
<polygon fill="midnightblue" stroke="midnightblue" points="169.08,-152.77 179.67,-152.41 171.17,-146.08 169.08,-152.77"/>
</g>
<!-- Node4 -->
<g id="node4" class="node">
<title>Node4</title>
<g id="a_node4"><a xlink:href="classAxisRaw.html#af8208752dcbb14911c5fda27d90a0ef4" target="_top" xlink:title=" ">
<polygon fill="none" stroke="black" points="153,-114.5 153,-133.5 275,-133.5 275,-114.5 153,-114.5"/>
<text text-anchor="middle" x="214" y="-121.5" font-family="Helvetica,sans-Serif" font-size="10.00">AxisRaw::getLE_TLast</text>
</a>
</g>
</g>
<!-- Node1&#45;&gt;Node4 -->
<g id="edge3" class="edge">
<title>Node1&#45;&gt;Node4</title>
<path fill="none" stroke="midnightblue" d="M115.15,-111.97C124.2,-113.08 133.65,-114.24 142.96,-115.39"/>
<polygon fill="midnightblue" stroke="midnightblue" points="142.63,-118.87 152.98,-116.62 143.48,-111.92 142.63,-118.87"/>
</g>
<!-- Node5 -->
<g id="node5" class="node">
<title>Node5</title>
<g id="a_node5"><a xlink:href="classAxisRaw.html#acfbcd3fa29b19fdf650e915a01542432" target="_top" xlink:title=" ">
<polygon fill="none" stroke="black" points="160,-76.5 160,-95.5 268,-95.5 268,-76.5 160,-76.5"/>
<text text-anchor="middle" x="214" y="-83.5" font-family="Helvetica,sans-Serif" font-size="10.00">AxisRaw::setTData</text>
</a>
</g>
</g>
<!-- Node1&#45;&gt;Node5 -->
<g id="edge4" class="edge">
<title>Node1&#45;&gt;Node5</title>
<path fill="none" stroke="midnightblue" d="M115.15,-98.03C126.48,-96.64 138.44,-95.17 149.96,-93.75"/>
<polygon fill="midnightblue" stroke="midnightblue" points="150.45,-97.22 159.95,-92.52 149.6,-90.27 150.45,-97.22"/>
</g>
<!-- Node6 -->
<g id="node6" class="node">
<title>Node6</title>
<g id="a_node6"><a xlink:href="classAxisRaw.html#aa856c8e559a50d2e7bbdbbfd51b76ba9" target="_top" xlink:title=" ">
<polygon fill="none" stroke="black" points="159.5,-38.5 159.5,-57.5 268.5,-57.5 268.5,-38.5 159.5,-38.5"/>
<text text-anchor="middle" x="214" y="-45.5" font-family="Helvetica,sans-Serif" font-size="10.00">AxisRaw::setTKeep</text>
</a>
</g>
</g>
<!-- Node1&#45;&gt;Node6 -->
<g id="edge5" class="edge">
<title>Node1&#45;&gt;Node6</title>
<path fill="none" stroke="midnightblue" d="M80.33,-95.36C98.94,-87.31 126.48,-75.77 151,-67 157.05,-64.83 163.49,-62.69 169.84,-60.67"/>
<polygon fill="midnightblue" stroke="midnightblue" points="171.17,-63.92 179.67,-57.59 169.08,-57.23 171.17,-63.92"/>
</g>
<!-- Node7 -->
<g id="node7" class="node">
<title>Node7</title>
<g id="a_node7"><a xlink:href="classAxisRaw.html#a1238c47d46a7d858c542f55797dfc9f2" target="_top" xlink:title=" ">
<polygon fill="none" stroke="black" points="161.5,-0.5 161.5,-19.5 266.5,-19.5 266.5,-0.5 161.5,-0.5"/>
<text text-anchor="middle" x="214" y="-7.5" font-family="Helvetica,sans-Serif" font-size="10.00">AxisRaw::setTLast</text>
</a>
</g>
</g>
<!-- Node1&#45;&gt;Node7 -->
<g id="edge6" class="edge">
<title>Node1&#45;&gt;Node7</title>
<path fill="none" stroke="midnightblue" d="M67.57,-95.42C83.18,-79.46 116.75,-47.38 151,-29 155.18,-26.76 159.67,-24.74 164.24,-22.93"/>
<polygon fill="midnightblue" stroke="midnightblue" points="165.48,-26.2 173.7,-19.5 163.1,-19.62 165.48,-26.2"/>
</g>
<!-- Node8 -->
<g id="node8" class="node">
<title>Node8</title>
<g id="a_node8"><a xlink:href="classAxisRaw.html#a4e8ed9ad2072a6563870f9344c362a4e" target="_top" xlink:title=" ">
<polygon fill="none" stroke="black" points="313,-0.5 313,-19.5 465,-19.5 465,-0.5 313,-0.5"/>
<text text-anchor="middle" x="389" y="-7.5" font-family="Helvetica,sans-Serif" font-size="10.00">AxisRaw::clearUnusedBytes</text>
</a>
</g>
</g>
<!-- Node7&#45;&gt;Node8 -->
<g id="edge7" class="edge">
<title>Node7&#45;&gt;Node8</title>
<path fill="none" stroke="midnightblue" d="M266.91,-10C278.18,-10 290.39,-10 302.58,-10"/>
<polygon fill="midnightblue" stroke="midnightblue" points="302.79,-13.5 312.79,-10 302.79,-6.5 302.79,-13.5"/>
</g>
</g>
</svg>
