<?xml version="1.0" encoding="UTF-8" standalone="no"?>
<!DOCTYPE svg PUBLIC "-//W3C//DTD SVG 1.1//EN"
 "http://www.w3.org/Graphics/SVG/1.1/DTD/svg11.dtd">
<!-- Generated by graphviz version 2.43.0 (0)
 -->
<!-- Title: pArpPacketSender Pages: 1 -->
<!--zoomable 636 -->
<svg id="main" version="1.1" xmlns="http://www.w3.org/2000/svg" xmlns:xlink="http://www.w3.org/1999/xlink" xml:space="preserve" onload="init(evt)">
<style type="text/css"><![CDATA[
.edge:hover path { stroke: red; }
.edge:hover polygon { stroke: red; fill: red; }
]]></style>
<script type="text/javascript"><![CDATA[
var edges = document.getElementsByTagName('g');
if (edges && edges.length) {
  for (var i=0;i<edges.length;i++) {
    if (edges[i].id.substr(0,4)=='edge') {
      edges[i].setAttribute('class','edge');
    }
  }
}
]]></script>
        <defs>
                <circle id="rim" cx="0" cy="0" r="7"/>
                <circle id="rim2" cx="0" cy="0" r="3.5"/>
                <g id="zoomPlus">
                        <use xlink:href="#rim" fill="#404040">
                                <set attributeName="fill" to="#808080" begin="zoomplus.mouseover" end="zoomplus.mouseout"/>
                        </use>
                        <path d="M-4,0h8M0,-4v8" fill="none" stroke="white" stroke-width="1.5" pointer-events="none"/>
                </g>
                <g id="zoomMin">
                        <use xlink:href="#rim" fill="#404040">
                                <set attributeName="fill" to="#808080" begin="zoomminus.mouseover" end="zoomminus.mouseout"/>
                        </use>
                        <path d="M-4,0h8" fill="none" stroke="white" stroke-width="1.5" pointer-events="none"/>
                </g>
                <g id="dirArrow">
                        <path fill="none" stroke="white" stroke-width="1.5" d="M0,-3.0v7 M-2.5,-0.5L0,-3.0L2.5,-0.5"/>
                </g>
               <g id="resetDef">
                       <use xlink:href="#rim2" fill="#404040">
                               <set attributeName="fill" to="#808080" begin="reset.mouseover" end="reset.mouseout"/>
                       </use>
               </g>
        </defs>

<script type="text/javascript">
var viewWidth = 287;
var viewHeight = 636;
var sectionId = 'dynsection-9';
</script>
<script xlink:href="svgpan.js"/>
<svg id="graph" class="graph">
<g id="viewport">
<title>pArpPacketSender</title>
<!-- Node1 -->
<g id="node1" class="node">
<title>Node1</title>
<g id="a_node1"><a xlink:title=" ">
<polygon fill="#bfbfbf" stroke="black" points="0,-304.5 0,-323.5 104,-323.5 104,-304.5 0,-304.5"/>
<text text-anchor="middle" x="52" y="-311.5" font-family="Helvetica,sans-Serif" font-size="10.00">pArpPacketSender</text>
</a>
</g>
</g>
<!-- Node2 -->
<g id="node2" class="node">
<title>Node2</title>
<g id="a_node2"><a xlink:href="classAxisEth.html#ac7dbb43311a8bb510a9920bd5bbc481d" target="_top" xlink:title=" ">
<polygon fill="none" stroke="black" points="147.5,-608.5 147.5,-627.5 271.5,-627.5 271.5,-608.5 147.5,-608.5"/>
<text text-anchor="middle" x="209.5" y="-615.5" font-family="Helvetica,sans-Serif" font-size="10.00">AxisEth::setArpHwLen</text>
</a>
</g>
</g>
<!-- Node1&#45;&gt;Node2 -->
<g id="edge1" class="edge">
<title>Node1&#45;&gt;Node2</title>
<path fill="none" stroke="midnightblue" d="M52.84,-323.5C52.73,-363.38 57.75,-518.84 140,-599 141.49,-600.45 143.08,-601.8 144.76,-603.04"/>
<polygon fill="midnightblue" stroke="midnightblue" points="143.34,-606.28 153.71,-608.45 146.96,-600.29 143.34,-606.28"/>
</g>
<!-- Node3 -->
<g id="node3" class="node">
<title>Node3</title>
<g id="a_node3"><a xlink:href="classAxisEth.html#ad0cb533703d0da29488ced9e19cebbea" target="_top" xlink:title=" ">
<polygon fill="none" stroke="black" points="145,-570.5 145,-589.5 274,-589.5 274,-570.5 145,-570.5"/>
<text text-anchor="middle" x="209.5" y="-577.5" font-family="Helvetica,sans-Serif" font-size="10.00">AxisEth::setArpHwType</text>
</a>
</g>
</g>
<!-- Node1&#45;&gt;Node3 -->
<g id="edge2" class="edge">
<title>Node1&#45;&gt;Node3</title>
<path fill="none" stroke="midnightblue" d="M53.37,-323.73C55.3,-360.59 67.24,-493.03 140,-561 141.69,-562.57 143.49,-564.02 145.39,-565.35"/>
<polygon fill="midnightblue" stroke="midnightblue" points="143.8,-568.48 154.22,-570.44 147.3,-562.41 143.8,-568.48"/>
</g>
<!-- Node4 -->
<g id="node4" class="node">
<title>Node4</title>
<g id="a_node4"><a xlink:href="classAxisEth.html#a73ade49b8d7106cd19ad9bc610e4e420" target="_top" xlink:title=" ">
<polygon fill="none" stroke="black" points="152.5,-532.5 152.5,-551.5 266.5,-551.5 266.5,-532.5 152.5,-532.5"/>
<text text-anchor="middle" x="209.5" y="-539.5" font-family="Helvetica,sans-Serif" font-size="10.00">AxisEth::setArpOper</text>
</a>
</g>
</g>
<!-- Node1&#45;&gt;Node4 -->
<g id="edge3" class="edge">
<title>Node1&#45;&gt;Node4</title>
<path fill="none" stroke="midnightblue" d="M54.05,-323.6C58.18,-356.65 76.37,-466.8 140,-523 141.77,-524.56 143.65,-525.99 145.62,-527.31"/>
<polygon fill="midnightblue" stroke="midnightblue" points="144.33,-530.59 154.77,-532.36 147.71,-524.46 144.33,-530.59"/>
</g>
<!-- Node5 -->
<g id="node5" class="node">
<title>Node5</title>
<g id="a_node5"><a xlink:href="classAxisEth.html#a2db52369f979159a5e60b3aad831afa6" target="_top" xlink:title=" ">
<polygon fill="none" stroke="black" points="145.5,-494.5 145.5,-513.5 273.5,-513.5 273.5,-494.5 145.5,-494.5"/>
<text text-anchor="middle" x="209.5" y="-501.5" font-family="Helvetica,sans-Serif" font-size="10.00">AxisEth::setArpProtLen</text>
</a>
</g>
</g>
<!-- Node1&#45;&gt;Node5 -->
<g id="edge4" class="edge">
<title>Node1&#45;&gt;Node5</title>
<path fill="none" stroke="midnightblue" d="M55.08,-323.87C61.77,-353.19 85.59,-440.51 140,-485 142.24,-486.83 144.64,-488.49 147.16,-489.98"/>
<polygon fill="midnightblue" stroke="midnightblue" points="145.59,-493.11 156.1,-494.48 148.74,-486.86 145.59,-493.11"/>
</g>
<!-- Node6 -->
<g id="node6" class="node">
<title>Node6</title>
<g id="a_node6"><a xlink:href="classAxisEth.html#a63f14a03ea22149927a8ba00cf5b64c5" target="_top" xlink:title=" ">
<polygon fill="none" stroke="black" points="143,-456.5 143,-475.5 276,-475.5 276,-456.5 143,-456.5"/>
<text text-anchor="middle" x="209.5" y="-463.5" font-family="Helvetica,sans-Serif" font-size="10.00">AxisEth::setArpProtType</text>
</a>
</g>
</g>
<!-- Node1&#45;&gt;Node6 -->
<g id="edge5" class="edge">
<title>Node1&#45;&gt;Node6</title>
<path fill="none" stroke="midnightblue" d="M56.55,-323.76C66.01,-348.42 94.33,-413.63 140,-447 142.64,-448.93 145.47,-450.66 148.42,-452.22"/>
<polygon fill="midnightblue" stroke="midnightblue" points="147,-455.42 157.55,-456.39 149.91,-449.05 147,-455.42"/>
</g>
<!-- Node7 -->
<g id="node7" class="node">
<title>Node7</title>
<g id="a_node7"><a xlink:href="classAxisEth.html#ab053cb411e65319d5691bc7ba0e99427" target="_top" xlink:title=" ">
<polygon fill="none" stroke="black" points="150,-418.5 150,-437.5 269,-437.5 269,-418.5 150,-418.5"/>
<text text-anchor="middle" x="209.5" y="-425.5" font-family="Helvetica,sans-Serif" font-size="10.00">AxisEth::setArpShaHi</text>
</a>
</g>
</g>
<!-- Node1&#45;&gt;Node7 -->
<g id="edge6" class="edge">
<title>Node1&#45;&gt;Node7</title>
<path fill="none" stroke="midnightblue" d="M59.13,-323.73C71.8,-343.02 102.82,-386.21 140,-409 143.55,-411.18 147.36,-413.11 151.29,-414.83"/>
<polygon fill="midnightblue" stroke="midnightblue" points="150.04,-418.1 160.63,-418.45 152.57,-411.57 150.04,-418.1"/>
</g>
<!-- Node8 -->
<g id="node8" class="node">
<title>Node8</title>
<g id="a_node8"><a xlink:href="classAxisEth.html#a9072a06e6649c9e84fb11612913886fd" target="_top" xlink:title=" ">
<polygon fill="none" stroke="black" points="149.5,-380.5 149.5,-399.5 269.5,-399.5 269.5,-380.5 149.5,-380.5"/>
<text text-anchor="middle" x="209.5" y="-387.5" font-family="Helvetica,sans-Serif" font-size="10.00">AxisEth::setArpShaLo</text>
</a>
</g>
</g>
<!-- Node1&#45;&gt;Node8 -->
<g id="edge7" class="edge">
<title>Node1&#45;&gt;Node8</title>
<path fill="none" stroke="midnightblue" d="M64.97,-323.59C81.13,-336.11 111.21,-357.96 140,-371 145.26,-373.38 150.88,-375.53 156.56,-377.44"/>
<polygon fill="midnightblue" stroke="midnightblue" points="155.52,-380.79 166.11,-380.45 157.63,-374.11 155.52,-380.79"/>
</g>
<!-- Node9 -->
<g id="node9" class="node">
<title>Node9</title>
<g id="a_node9"><a xlink:href="classAxisEth.html#a41f6381854f15d3fd77511dcfc3109f9" target="_top" xlink:title=" ">
<polygon fill="none" stroke="black" points="155,-342.5 155,-361.5 264,-361.5 264,-342.5 155,-342.5"/>
<text text-anchor="middle" x="209.5" y="-349.5" font-family="Helvetica,sans-Serif" font-size="10.00">AxisEth::setArpSpa</text>
</a>
</g>
</g>
<!-- Node1&#45;&gt;Node9 -->
<g id="edge8" class="edge">
<title>Node1&#45;&gt;Node9</title>
<path fill="none" stroke="midnightblue" d="M92.24,-323.59C112.76,-328.6 138.07,-334.79 159.83,-340.11"/>
<polygon fill="midnightblue" stroke="midnightblue" points="159,-343.51 169.54,-342.48 160.66,-336.71 159,-343.51"/>
</g>
<!-- Node10 -->
<g id="node10" class="node">
<title>Node10</title>
<g id="a_node10"><a xlink:href="classAxisEth.html#ad49caf535cbc7b1f43d051186ecc2d25" target="_top" xlink:title=" ">
<polygon fill="none" stroke="black" points="155,-304.5 155,-323.5 264,-323.5 264,-304.5 155,-304.5"/>
<text text-anchor="middle" x="209.5" y="-311.5" font-family="Helvetica,sans-Serif" font-size="10.00">AxisEth::setArpTha</text>
</a>
</g>
</g>
<!-- Node1&#45;&gt;Node10 -->
<g id="edge9" class="edge">
<title>Node1&#45;&gt;Node10</title>
<path fill="none" stroke="midnightblue" d="M104.35,-314C117.25,-314 131.25,-314 144.68,-314"/>
<polygon fill="midnightblue" stroke="midnightblue" points="144.81,-317.5 154.81,-314 144.81,-310.5 144.81,-317.5"/>
</g>
<!-- Node11 -->
<g id="node11" class="node">
<title>Node11</title>
<g id="a_node11"><a xlink:href="classAxisEth.html#a132c8070ff950ab539fe1ea859914973" target="_top" xlink:title=" ">
<polygon fill="none" stroke="black" points="150,-266.5 150,-285.5 269,-285.5 269,-266.5 150,-266.5"/>
<text text-anchor="middle" x="209.5" y="-273.5" font-family="Helvetica,sans-Serif" font-size="10.00">AxisEth::setArpTpaHi</text>
</a>
</g>
</g>
<!-- Node1&#45;&gt;Node11 -->
<g id="edge10" class="edge">
<title>Node1&#45;&gt;Node11</title>
<path fill="none" stroke="midnightblue" d="M92.24,-304.41C112.76,-299.4 138.07,-293.21 159.83,-287.89"/>
<polygon fill="midnightblue" stroke="midnightblue" points="160.66,-291.29 169.54,-285.52 159,-284.49 160.66,-291.29"/>
</g>
<!-- Node12 -->
<g id="node12" class="node">
<title>Node12</title>
<g id="a_node12"><a xlink:href="classAxisEth.html#aa6ce35467a751affe92450c4e205785a" target="_top" xlink:title=" ">
<polygon fill="none" stroke="black" points="149.5,-228.5 149.5,-247.5 269.5,-247.5 269.5,-228.5 149.5,-228.5"/>
<text text-anchor="middle" x="209.5" y="-235.5" font-family="Helvetica,sans-Serif" font-size="10.00">AxisEth::setArpTpaLo</text>
</a>
</g>
</g>
<!-- Node1&#45;&gt;Node12 -->
<g id="edge11" class="edge">
<title>Node1&#45;&gt;Node12</title>
<path fill="none" stroke="midnightblue" d="M64.97,-304.41C81.13,-291.89 111.21,-270.04 140,-257 145.26,-254.62 150.88,-252.47 156.56,-250.56"/>
<polygon fill="midnightblue" stroke="midnightblue" points="157.63,-253.89 166.11,-247.55 155.52,-247.21 157.63,-253.89"/>
</g>
<!-- Node13 -->
<g id="node13" class="node">
<title>Node13</title>
<g id="a_node13"><a xlink:href="classAxisEth.html#a0c01abdff820f452a86c5f02a6be8ae5" target="_top" xlink:title=" ">
<polygon fill="none" stroke="black" points="145,-190.5 145,-209.5 274,-209.5 274,-190.5 145,-190.5"/>
<text text-anchor="middle" x="209.5" y="-197.5" font-family="Helvetica,sans-Serif" font-size="10.00">AxisEth::setEthDstAddr</text>
</a>
</g>
</g>
<!-- Node1&#45;&gt;Node13 -->
<g id="edge12" class="edge">
<title>Node1&#45;&gt;Node13</title>
<path fill="none" stroke="midnightblue" d="M59.13,-304.27C71.8,-284.98 102.82,-241.79 140,-219 143.55,-216.82 147.36,-214.89 151.29,-213.17"/>
<polygon fill="midnightblue" stroke="midnightblue" points="152.57,-216.43 160.63,-209.55 150.04,-209.9 152.57,-216.43"/>
</g>
<!-- Node14 -->
<g id="node14" class="node">
<title>Node14</title>
<g id="a_node14"><a xlink:href="classAxisEth.html#a2eb2a5da1175542dd8b47b4b0bba2cf3" target="_top" xlink:title=" ">
<polygon fill="none" stroke="black" points="146.5,-152.5 146.5,-171.5 272.5,-171.5 272.5,-152.5 146.5,-152.5"/>
<text text-anchor="middle" x="209.5" y="-159.5" font-family="Helvetica,sans-Serif" font-size="10.00">AxisEth::setEthertType</text>
</a>
</g>
</g>
<!-- Node1&#45;&gt;Node14 -->
<g id="edge13" class="edge">
<title>Node1&#45;&gt;Node14</title>
<path fill="none" stroke="midnightblue" d="M56.55,-304.24C66.01,-279.58 94.33,-214.37 140,-181 142.64,-179.07 145.47,-177.34 148.42,-175.78"/>
<polygon fill="midnightblue" stroke="midnightblue" points="149.91,-178.95 157.55,-171.61 147,-172.58 149.91,-178.95"/>
</g>
<!-- Node15 -->
<g id="node15" class="node">
<title>Node15</title>
<g id="a_node15"><a xlink:href="classAxisEth.html#aaadf3f58e70db3f42491bff1a19cb509" target="_top" xlink:title=" ">
<polygon fill="none" stroke="black" points="140.5,-114.5 140.5,-133.5 278.5,-133.5 278.5,-114.5 140.5,-114.5"/>
<text text-anchor="middle" x="209.5" y="-121.5" font-family="Helvetica,sans-Serif" font-size="10.00">AxisEth::setEthSrcAddrHi</text>
</a>
</g>
</g>
<!-- Node1&#45;&gt;Node15 -->
<g id="edge14" class="edge">
<title>Node1&#45;&gt;Node15</title>
<path fill="none" stroke="midnightblue" d="M55.08,-304.13C61.77,-274.81 85.59,-187.49 140,-143 142.24,-141.17 144.64,-139.51 147.16,-138.02"/>
<polygon fill="midnightblue" stroke="midnightblue" points="148.74,-141.14 156.1,-133.52 145.59,-134.89 148.74,-141.14"/>
</g>
<!-- Node16 -->
<g id="node16" class="node">
<title>Node16</title>
<g id="a_node16"><a xlink:href="classAxisEth.html#aad83e3d433ae775c3ec6035643e7e293" target="_top" xlink:title=" ">
<polygon fill="none" stroke="black" points="140,-76.5 140,-95.5 279,-95.5 279,-76.5 140,-76.5"/>
<text text-anchor="middle" x="209.5" y="-83.5" font-family="Helvetica,sans-Serif" font-size="10.00">AxisEth::setEthSrcAddrLo</text>
</a>
</g>
</g>
<!-- Node1&#45;&gt;Node16 -->
<g id="edge15" class="edge">
<title>Node1&#45;&gt;Node16</title>
<path fill="none" stroke="midnightblue" d="M54.05,-304.4C58.18,-271.35 76.37,-161.2 140,-105 141.77,-103.44 143.65,-102.01 145.62,-100.69"/>
<polygon fill="midnightblue" stroke="midnightblue" points="147.71,-103.54 154.77,-95.64 144.33,-97.41 147.71,-103.54"/>
</g>
<!-- Node17 -->
<g id="node17" class="node">
<title>Node17</title>
<g id="a_node17"><a xlink:href="classAxisRaw.html#ae8f59ce9fd52536106de4db99df4558e" target="_top" xlink:title=" ">
<polygon fill="none" stroke="black" points="147,-38.5 147,-57.5 272,-57.5 272,-38.5 147,-38.5"/>
<text text-anchor="middle" x="209.5" y="-45.5" font-family="Helvetica,sans-Serif" font-size="10.00">AxisRaw::setLE_TKeep</text>
</a>
</g>
</g>
<!-- Node1&#45;&gt;Node17 -->
<g id="edge16" class="edge">
<title>Node1&#45;&gt;Node17</title>
<path fill="none" stroke="midnightblue" d="M53.37,-304.27C55.3,-267.41 67.24,-134.97 140,-67 141.69,-65.43 143.49,-63.98 145.39,-62.65"/>
<polygon fill="midnightblue" stroke="midnightblue" points="147.3,-65.59 154.22,-57.56 143.8,-59.52 147.3,-65.59"/>
</g>
<!-- Node18 -->
<g id="node18" class="node">
<title>Node18</title>
<g id="a_node18"><a xlink:href="classAxisRaw.html#a7fd855df91177afa363d72b3eb17af25" target="_top" xlink:title=" ">
<polygon fill="none" stroke="black" points="148.5,-0.5 148.5,-19.5 270.5,-19.5 270.5,-0.5 148.5,-0.5"/>
<text text-anchor="middle" x="209.5" y="-7.5" font-family="Helvetica,sans-Serif" font-size="10.00">AxisRaw::setLE_TLast</text>
</a>
</g>
</g>
<!-- Node1&#45;&gt;Node18 -->
<g id="edge17" class="edge">
<title>Node1&#45;&gt;Node18</title>
<path fill="none" stroke="midnightblue" d="M52.84,-304.5C52.73,-264.62 57.75,-109.16 140,-29 141.49,-27.55 143.08,-26.2 144.76,-24.96"/>
<polygon fill="midnightblue" stroke="midnightblue" points="146.96,-27.71 153.71,-19.55 143.34,-21.72 146.96,-27.71"/>
</g>
</g>
</svg>
        <g id="navigator" transform="translate(0 0)" fill="#404254">
                <rect fill="#f2f5e9" fill-opacity="0.5" stroke="#606060" stroke-width=".5" x="0" y="0" width="60" height="60"/>
                <use id="zoomplus" xlink:href="#zoomPlus" x="17" y="9" onmousedown="handleZoom(evt,'in')"/>
                <use id="zoomminus" xlink:href="#zoomMin" x="42" y="9" onmousedown="handleZoom(evt,'out')"/>
                <use id="reset" xlink:href="#resetDef" x="30" y="36" onmousedown="handleReset()"/>
                <g id="arrowUp" xlink:href="#dirArrow" transform="translate(30 24)" onmousedown="handlePan(0,-1)">
                  <use xlink:href="#rim" fill="#404040">
                        <set attributeName="fill" to="#808080" begin="arrowUp.mouseover" end="arrowUp.mouseout"/>
                  </use>
                  <path fill="none" stroke="white" stroke-width="1.5" d="M0,-3.0v7 M-2.5,-0.5L0,-3.0L2.5,-0.5"/>
                </g>
                <g id="arrowRight" xlink:href="#dirArrow" transform="rotate(90) translate(36 -43)" onmousedown="handlePan(1,0)">
                  <use xlink:href="#rim" fill="#404040">
                        <set attributeName="fill" to="#808080" begin="arrowRight.mouseover" end="arrowRight.mouseout"/>
                  </use>
                  <path fill="none" stroke="white" stroke-width="1.5" d="M0,-3.0v7 M-2.5,-0.5L0,-3.0L2.5,-0.5"/>
                </g>
                <g id="arrowDown" xlink:href="#dirArrow" transform="rotate(180) translate(-30 -48)" onmousedown="handlePan(0,1)">
                  <use xlink:href="#rim" fill="#404040">
                        <set attributeName="fill" to="#808080" begin="arrowDown.mouseover" end="arrowDown.mouseout"/>
                  </use>
                  <path fill="none" stroke="white" stroke-width="1.5" d="M0,-3.0v7 M-2.5,-0.5L0,-3.0L2.5,-0.5"/>
                </g>
                <g id="arrowLeft" xlink:href="#dirArrow" transform="rotate(270) translate(-36 17)" onmousedown="handlePan(-1,0)">
                  <use xlink:href="#rim" fill="#404040">
                        <set attributeName="fill" to="#808080" begin="arrowLeft.mouseover" end="arrowLeft.mouseout"/>
                  </use>
                  <path fill="none" stroke="white" stroke-width="1.5" d="M0,-3.0v7 M-2.5,-0.5L0,-3.0L2.5,-0.5"/>
                </g>
        </g>
        <svg viewBox="0 0 15 15" width="100%" height="30px" preserveAspectRatio="xMaxYMin meet">
         <g id="arrow_out" transform="scale(0.3 0.3)">
          <a xlink:href="group__NTS__ARP_gadcedb12ae0b1f1c08d445c045b24bb9c_cgraph_org.svg" target="_base">
           <rect id="button" ry="5" rx="5" y="6" x="6" height="38" width="38"
                fill="#f2f5e9" fill-opacity="0.5" stroke="#606060" stroke-width="1.0"/>
           <path id="arrow"
             d="M 11.500037,31.436501 C 11.940474,20.09759 22.043105,11.32322 32.158766,21.979434 L 37.068811,17.246167 C 37.068811,17.246167 37.088388,32 37.088388,32 L 22.160133,31.978069 C 22.160133,31.978069 26.997745,27.140456 26.997745,27.140456 C 18.528582,18.264221 13.291696,25.230495 11.500037,31.436501 z"
             style="fill:#404040;"/>
          </a>
         </g>
        </svg>
</svg>
