<?xml version="1.0" encoding="UTF-8" standalone="no"?>
<!DOCTYPE svg PUBLIC "-//W3C//DTD SVG 1.1//EN"
 "http://www.w3.org/Graphics/SVG/1.1/DTD/svg11.dtd">
<!-- Generated by graphviz version 2.43.0 (0)
 -->
<!-- Title: TOECAM Pages: 1 -->
<svg width="328pt" height="64pt"
 viewBox="0.00 0.00 328.00 64.00" xmlns="http://www.w3.org/2000/svg" xmlns:xlink="http://www.w3.org/1999/xlink">
<g id="graph0" class="graph" transform="scale(1 1) rotate(0) translate(4 60)">
<title>TOECAM</title>
<!-- Node2 -->
<g id="node1" class="node">
<title>Node2</title>
<g id="a_node1"><a xlink:href="group__NTS.html" target="_top" xlink:title="Network Transport Stack (NTS). This component implements the TCP/IP Network and Transport Stack used ...">
<polygon fill="none" stroke="black" points="36,-37 0,-37 0,-18 36,-18 36,-37"/>
<text text-anchor="middle" x="18" y="-25" font-family="Helvetica,sans-Serif" font-size="10.00">NTS</text>
</a>
</g>
</g>
<!-- Node1 -->
<g id="node3" class="node">
<title>Node1</title>
<g id="a_node3"><a xlink:title="Content&#45;Addressable Memory (CAM) for the TCP Offload Engine (TOE) of the Network Transport Stack (NTS...">
<polygon fill="#bfbfbf" stroke="black" points="132,-37 73,-37 73,-18 132,-18 132,-37"/>
<text text-anchor="middle" x="102.5" y="-25" font-family="Helvetica,sans-Serif" font-size="10.00">TOECAM</text>
</a>
</g>
</g>
<!-- Node2&#45;&gt;Node1 -->
<g id="edge1" class="edge">
<title>Node2&#45;&gt;Node1</title>
<path fill="none" stroke="black" d="M46.25,-27.5C54.74,-27.5 64.14,-27.5 72.73,-27.5"/>
<polygon fill="black" stroke="black" points="46.09,-24 36.09,-27.5 46.09,-31 46.09,-24"/>
</g>
<!-- Node3 -->
<g id="node2" class="node">
<title>Node3</title>
<g id="a_node2"><a xlink:href="group__NTS__TOECAM__TEST.html" target="_top" xlink:title="Testbench for the Content&#45;Addressable Memory (CAM) for the TCP Offload Engine (TOE) of the Network Tr...">
<polygon fill="none" stroke="black" points="320,-56 232,-56 232,-37 320,-37 320,-56"/>
<text text-anchor="middle" x="276" y="-44" font-family="Helvetica,sans-Serif" font-size="10.00">TOECAM_TEST</text>
</a>
</g>
</g>
<!-- Node1&#45;&gt;Node3 -->
<g id="edge2" class="edge">
<title>Node1&#45;&gt;Node3</title>
<path fill="none" stroke="black" d="M142.3,-31.8C168.89,-34.74 204.2,-38.66 231.71,-41.7"/>
<polygon fill="black" stroke="black" points="142.53,-28.3 132.21,-30.68 141.76,-35.26 142.53,-28.3"/>
</g>
<!-- Node4 -->
<g id="node4" class="node">
<title>Node4</title>
<g id="a_node4"><a xlink:href="group__NAL.html" target="_top" xlink:title="Network Abstraction Layer (NAL). The NAL separates the privileged management traffic from the unprivi...">
<polygon fill="none" stroke="black" points="294,-19 258,-19 258,0 294,0 294,-19"/>
<text text-anchor="middle" x="276" y="-7" font-family="Helvetica,sans-Serif" font-size="10.00">NAL</text>
</a>
</g>
</g>
<!-- Node1&#45;&gt;Node4 -->
<g id="edge3" class="edge">
<title>Node1&#45;&gt;Node4</title>
<path fill="none" stroke="orange" stroke-dasharray="5,2" d="M132.01,-23.67C137.95,-22.92 144.18,-22.16 150,-21.5 188.56,-17.16 233.93,-13.06 258,-10.96"/>
<text text-anchor="middle" x="182" y="-24.5" font-family="Helvetica,sans-Serif" font-size="10.00">KeyValuePair</text>
</g>
</g>
</svg>
