<?xml version="1.0" encoding="UTF-8" standalone="no"?>
<!DOCTYPE svg PUBLIC "-//W3C//DTD SVG 1.1//EN"
 "http://www.w3.org/Graphics/SVG/1.1/DTD/svg11.dtd">
<!-- Generated by graphviz version 2.43.0 (0)
 -->
<!-- Title: sSHL_Rol_Mem_WrStsP0 Pages: 1 -->
<svg width="313pt" height="47pt"
 viewBox="0.00 0.00 313.00 47.00" xmlns="http://www.w3.org/2000/svg" xmlns:xlink="http://www.w3.org/1999/xlink">
<g id="graph0" class="graph" transform="scale(1 1) rotate(0) translate(4 43)">
<title>sSHL_Rol_Mem_WrStsP0</title>
<!-- Node1 -->
<g id="node1" class="node">
<title>Node1</title>
<g id="a_node1"><a xlink:title=" ">
<polygon fill="#bfbfbf" stroke="black" points="168,-19.5 168,-38.5 305,-38.5 305,-19.5 168,-19.5"/>
<text text-anchor="middle" x="236.5" y="-26.5" font-family="Helvetica,sans-Serif" font-size="10.00">sSHL_Rol_Mem_WrStsP0</text>
</a>
</g>
</g>
<!-- Node2 -->
<g id="node2" class="node">
<title>Node2</title>
<g id="a_node2"><a xlink:href="group__HarrisTB.html#ga3c04138a5bfe5d72780bb7e82a18e627" target="_top" xlink:title="Main testbench of Hrris.">
<polygon fill="none" stroke="black" points="0,-19.5 0,-38.5 41,-38.5 41,-19.5 0,-19.5"/>
<text text-anchor="middle" x="20.5" y="-26.5" font-family="Helvetica,sans-Serif" font-size="10.00">main</text>
</a>
</g>
</g>
<!-- Node1&#45;&gt;Node2 -->
<g id="edge1" class="edge">
<title>Node1&#45;&gt;Node2</title>
<path fill="none" stroke="midnightblue" d="M157.61,-29C115.86,-29 67.72,-29 41.34,-29"/>
<polygon fill="midnightblue" stroke="midnightblue" points="157.79,-32.5 167.79,-29 157.79,-25.5 157.79,-32.5"/>
</g>
<!-- Node3 -->
<g id="node3" class="node">
<title>Node3</title>
<g id="a_node3"><a xlink:href="group__HarrisTB.html#gad0919afcfb3151dee3f8653944ea7185" target="_top" xlink:title="Run a single iteration of the DUT model.">
<polygon fill="none" stroke="black" points="77,-0.5 77,-19.5 132,-19.5 132,-0.5 77,-0.5"/>
<text text-anchor="middle" x="104.5" y="-7.5" font-family="Helvetica,sans-Serif" font-size="10.00">stepDut</text>
</a>
</g>
</g>
<!-- Node1&#45;&gt;Node3 -->
<g id="edge2" class="edge">
<title>Node1&#45;&gt;Node3</title>
<path fill="none" stroke="midnightblue" d="M160.11,-17.98C150.17,-16.53 140.56,-15.12 132.25,-13.91"/>
<polygon fill="midnightblue" stroke="midnightblue" points="159.72,-21.46 170.12,-19.44 160.73,-14.53 159.72,-21.46"/>
</g>
<!-- Node3&#45;&gt;Node2 -->
<g id="edge3" class="edge">
<title>Node3&#45;&gt;Node2</title>
<path fill="none" stroke="midnightblue" d="M66.85,-18.49C57.99,-20.54 48.86,-22.66 41.13,-24.45"/>
<polygon fill="midnightblue" stroke="midnightblue" points="67.7,-21.89 76.65,-16.22 66.12,-15.07 67.7,-21.89"/>
</g>
</g>
</svg>
