<?xml version="1.0" encoding="UTF-8" standalone="no"?>
<!DOCTYPE svg PUBLIC "-//W3C//DTD SVG 1.1//EN"
 "http://www.w3.org/Graphics/SVG/1.1/DTD/svg11.dtd">
<!-- Generated by graphviz version 2.43.0 (0)
 -->
<!-- Title: stepDut Pages: 1 -->
<svg width="600pt" height="370pt"
 viewBox="0.00 0.00 600.00 370.00" xmlns="http://www.w3.org/2000/svg" xmlns:xlink="http://www.w3.org/1999/xlink">
<g id="graph0" class="graph" transform="scale(1 1) rotate(0) translate(4 366)">
<title>stepDut</title>
<!-- Node1 -->
<g id="node1" class="node">
<title>Node1</title>
<g id="a_node1"><a xlink:title="Run a single iteration of the DUT model.">
<polygon fill="#bfbfbf" stroke="black" points="0,-133.5 0,-152.5 55,-152.5 55,-133.5 0,-133.5"/>
<text text-anchor="middle" x="27.5" y="-140.5" font-family="Helvetica,sans-Serif" font-size="10.00">stepDut</text>
</a>
</g>
</g>
<!-- Node2 -->
<g id="node2" class="node">
<title>Node2</title>
<g id="a_node2"><a xlink:href="group__HarrisHLS.html#ga2320d835ca337e5e9f75f2bd2b7dcea6" target="_top" xlink:title="Main process of the Harris Application directives.">
<polygon fill="none" stroke="black" points="141.5,-266.5 141.5,-285.5 185.5,-285.5 185.5,-266.5 141.5,-266.5"/>
<text text-anchor="middle" x="163.5" y="-273.5" font-family="Helvetica,sans-Serif" font-size="10.00">harris</text>
</a>
</g>
</g>
<!-- Node1&#45;&gt;Node2 -->
<g id="edge1" class="edge">
<title>Node1&#45;&gt;Node2</title>
<path fill="none" stroke="midnightblue" d="M30.97,-152.65C37.12,-174.7 55.29,-229.02 91,-257 102.52,-266.03 117.95,-270.78 131.53,-273.28"/>
<polygon fill="midnightblue" stroke="midnightblue" points="131.05,-276.75 141.46,-274.78 132.09,-269.82 131.05,-276.75"/>
</g>
<!-- Node11 -->
<g id="node11" class="node">
<title>Node11</title>
<g id="a_node11"><a xlink:href="group__HarrisTB.html#ga1bd90367e11713ef24b45044d439bd4f" target="_top" xlink:title=" ">
<polygon fill="none" stroke="black" points="126,-228.5 126,-247.5 201,-247.5 201,-228.5 126,-228.5"/>
<text text-anchor="middle" x="163.5" y="-235.5" font-family="Helvetica,sans-Serif" font-size="10.00">siUdp_meta</text>
</a>
</g>
</g>
<!-- Node1&#45;&gt;Node11 -->
<g id="edge10" class="edge">
<title>Node1&#45;&gt;Node11</title>
<path fill="none" stroke="midnightblue" d="M33.67,-152.56C42.94,-168.79 63.98,-201.64 91,-219 98.54,-223.84 107.27,-227.46 116,-230.15"/>
<polygon fill="midnightblue" stroke="midnightblue" points="115.21,-233.57 125.78,-232.82 117.05,-226.81 115.21,-233.57"/>
</g>
<!-- Node12 -->
<g id="node12" class="node">
<title>Node12</title>
<g id="a_node12"><a xlink:href="group__HarrisTB.html#ga3d0879e41b3498ec3683524c4380fbca" target="_top" xlink:title=" ">
<polygon fill="none" stroke="black" points="124.5,-190.5 124.5,-209.5 202.5,-209.5 202.5,-190.5 124.5,-190.5"/>
<text text-anchor="middle" x="163.5" y="-197.5" font-family="Helvetica,sans-Serif" font-size="10.00">soUdp_meta</text>
</a>
</g>
</g>
<!-- Node1&#45;&gt;Node12 -->
<g id="edge11" class="edge">
<title>Node1&#45;&gt;Node12</title>
<path fill="none" stroke="midnightblue" d="M41.79,-152.64C54.05,-161.14 73.01,-173.33 91,-181 98.48,-184.19 106.62,-186.96 114.66,-189.33"/>
<polygon fill="midnightblue" stroke="midnightblue" points="113.77,-192.71 124.34,-192.02 115.64,-185.97 113.77,-192.71"/>
</g>
<!-- Node13 -->
<g id="node13" class="node">
<title>Node13</title>
<g id="a_node13"><a xlink:href="group__MedianBlurTB.html#ga8a91d08b41f63ada548b50fc96fe9f96" target="_top" xlink:title=" ">
<polygon fill="none" stroke="black" points="91,-152.5 91,-171.5 236,-171.5 236,-152.5 91,-152.5"/>
<text text-anchor="middle" x="163.5" y="-159.5" font-family="Helvetica,sans-Serif" font-size="10.00">sROL_Shl_Mem_WrCmdP0</text>
</a>
</g>
</g>
<!-- Node1&#45;&gt;Node13 -->
<g id="edge12" class="edge">
<title>Node1&#45;&gt;Node13</title>
<path fill="none" stroke="midnightblue" d="M55.29,-146.8C64.18,-148.06 74.57,-149.53 85.31,-151.06"/>
<polygon fill="midnightblue" stroke="midnightblue" points="84.86,-154.53 95.25,-152.46 85.84,-147.6 84.86,-154.53"/>
</g>
<!-- Node14 -->
<g id="node14" class="node">
<title>Node14</title>
<g id="a_node14"><a xlink:href="group__MedianBlurTB.html#ga58a07924671463ff5a1942de04237ed8" target="_top" xlink:title=" ">
<polygon fill="none" stroke="black" points="96,-114.5 96,-133.5 231,-133.5 231,-114.5 96,-114.5"/>
<text text-anchor="middle" x="163.5" y="-121.5" font-family="Helvetica,sans-Serif" font-size="10.00">sROL_Shl_Mem_WriteP0</text>
</a>
</g>
</g>
<!-- Node1&#45;&gt;Node14 -->
<g id="edge13" class="edge">
<title>Node1&#45;&gt;Node14</title>
<path fill="none" stroke="midnightblue" d="M55.29,-139.2C64.3,-137.92 74.84,-136.43 85.74,-134.88"/>
<polygon fill="midnightblue" stroke="midnightblue" points="86.4,-138.33 95.81,-133.46 85.42,-131.39 86.4,-138.33"/>
</g>
<!-- Node15 -->
<g id="node15" class="node">
<title>Node15</title>
<g id="a_node15"><a xlink:href="group__MedianBlurTB.html#gae20cf33eedc99be1153c93100d484642" target="_top" xlink:title=" ">
<polygon fill="none" stroke="black" points="95,-76.5 95,-95.5 232,-95.5 232,-76.5 95,-76.5"/>
<text text-anchor="middle" x="163.5" y="-83.5" font-family="Helvetica,sans-Serif" font-size="10.00">sSHL_Rol_Mem_WrStsP0</text>
</a>
</g>
</g>
<!-- Node1&#45;&gt;Node15 -->
<g id="edge14" class="edge">
<title>Node1&#45;&gt;Node15</title>
<path fill="none" stroke="midnightblue" d="M41.79,-133.36C54.05,-124.86 73.01,-112.67 91,-105 96.74,-102.55 102.87,-100.35 109.04,-98.39"/>
<polygon fill="midnightblue" stroke="midnightblue" points="110.14,-101.71 118.73,-95.5 108.14,-95.01 110.14,-101.71"/>
</g>
<!-- Node16 -->
<g id="node16" class="node">
<title>Node16</title>
<g id="a_node16"><a xlink:href="group__HarrisTB.html#gae01425342f3c967f16486d71040bab38" target="_top" xlink:title=" ">
<polygon fill="none" stroke="black" points="117.5,-38.5 117.5,-57.5 209.5,-57.5 209.5,-38.5 117.5,-38.5"/>
<text text-anchor="middle" x="163.5" y="-45.5" font-family="Helvetica,sans-Serif" font-size="10.00">sSHL_Uaf_Data</text>
</a>
</g>
</g>
<!-- Node1&#45;&gt;Node16 -->
<g id="edge15" class="edge">
<title>Node1&#45;&gt;Node16</title>
<path fill="none" stroke="midnightblue" d="M33.67,-133.44C42.94,-117.21 63.98,-84.36 91,-67 96.05,-63.75 101.65,-61.06 107.41,-58.82"/>
<polygon fill="midnightblue" stroke="midnightblue" points="108.88,-62.02 117.22,-55.48 106.62,-55.39 108.88,-62.02"/>
</g>
<!-- Node17 -->
<g id="node17" class="node">
<title>Node17</title>
<g id="a_node17"><a xlink:href="group__HarrisTB.html#ga8b8509e7c91f567d4ad11ff426aabb7f" target="_top" xlink:title=" ">
<polygon fill="none" stroke="black" points="118,-0.5 118,-19.5 209,-19.5 209,-0.5 118,-0.5"/>
<text text-anchor="middle" x="163.5" y="-7.5" font-family="Helvetica,sans-Serif" font-size="10.00">sUAF_Shl_Data</text>
</a>
</g>
</g>
<!-- Node1&#45;&gt;Node17 -->
<g id="edge16" class="edge">
<title>Node1&#45;&gt;Node17</title>
<path fill="none" stroke="midnightblue" d="M30.97,-133.35C37.12,-111.3 55.29,-56.98 91,-29 96.11,-25 101.99,-21.83 108.13,-19.34"/>
<polygon fill="midnightblue" stroke="midnightblue" points="109.64,-22.52 117.93,-15.93 107.34,-15.91 109.64,-22.52"/>
</g>
<!-- Node3 -->
<g id="node3" class="node">
<title>Node3</title>
<g id="a_node3"><a xlink:href="group__HarrisHLS.html#ga033fd36668741325cf3c111416e82131" target="_top" xlink:title=" ">
<polygon fill="none" stroke="black" points="272,-323.5 272,-342.5 395,-342.5 395,-323.5 272,-323.5"/>
<text text-anchor="middle" x="333.5" y="-330.5" font-family="Helvetica,sans-Serif" font-size="10.00">pPortAndDestionation</text>
</a>
</g>
</g>
<!-- Node2&#45;&gt;Node3 -->
<g id="edge2" class="edge">
<title>Node2&#45;&gt;Node3</title>
<path fill="none" stroke="midnightblue" d="M185.84,-283.79C207.48,-291.64 241.96,-303.98 272,-314 278.39,-316.13 285.17,-318.33 291.8,-320.44"/>
<polygon fill="midnightblue" stroke="midnightblue" points="290.75,-323.78 301.34,-323.45 292.86,-317.1 290.75,-323.78"/>
</g>
<!-- Node4 -->
<g id="node4" class="node">
<title>Node4</title>
<g id="a_node4"><a xlink:href="group__HarrisHLS.html#gaf6f6c885ab1cf5a03d2a885e36b11646" target="_top" xlink:title="Processing Path &#45; Main processing FSM for Vitis kernels.">
<polygon fill="none" stroke="black" points="301,-285.5 301,-304.5 366,-304.5 366,-285.5 301,-285.5"/>
<text text-anchor="middle" x="333.5" y="-292.5" font-family="Helvetica,sans-Serif" font-size="10.00">pProcPath</text>
</a>
</g>
</g>
<!-- Node2&#45;&gt;Node4 -->
<g id="edge3" class="edge">
<title>Node2&#45;&gt;Node4</title>
<path fill="none" stroke="midnightblue" d="M185.78,-278.41C211.99,-281.37 257.13,-286.48 290.44,-290.24"/>
<polygon fill="midnightblue" stroke="midnightblue" points="290.47,-293.77 300.8,-291.41 291.26,-286.81 290.47,-293.77"/>
</g>
<!-- Node8 -->
<g id="node8" class="node">
<title>Node8</title>
<g id="a_node8"><a xlink:href="group__HarrisHLS.html#gab56f18d51141b003c6922297dbbd8f3f" target="_top" xlink:title="Receive Path &#45; From SHELL to THIS.">
<polygon fill="none" stroke="black" points="305,-247.5 305,-266.5 362,-266.5 362,-247.5 305,-247.5"/>
<text text-anchor="middle" x="333.5" y="-254.5" font-family="Helvetica,sans-Serif" font-size="10.00">pRXPath</text>
</a>
</g>
</g>
<!-- Node2&#45;&gt;Node8 -->
<g id="edge7" class="edge">
<title>Node2&#45;&gt;Node8</title>
<path fill="none" stroke="midnightblue" d="M185.78,-273.59C213.1,-270.5 261.01,-265.09 294.63,-261.28"/>
<polygon fill="midnightblue" stroke="midnightblue" points="295.45,-264.71 304.99,-260.11 294.66,-257.76 295.45,-264.71"/>
</g>
<!-- Node10 -->
<g id="node10" class="node">
<title>Node10</title>
<g id="a_node10"><a xlink:href="group__HarrisHLS.html#ga9d1564b4d97a13a350b52bb1a7ef663f" target="_top" xlink:title="Transmit Path &#45; From THIS to SHELL.">
<polygon fill="none" stroke="black" points="305.5,-209.5 305.5,-228.5 361.5,-228.5 361.5,-209.5 305.5,-209.5"/>
<text text-anchor="middle" x="333.5" y="-216.5" font-family="Helvetica,sans-Serif" font-size="10.00">pTXPath</text>
</a>
</g>
</g>
<!-- Node2&#45;&gt;Node10 -->
<g id="edge9" class="edge">
<title>Node2&#45;&gt;Node10</title>
<path fill="none" stroke="midnightblue" d="M185.55,-271.72C200,-268.47 219.49,-263.45 236,-257 252.85,-250.41 255.3,-244.96 272,-238 279.5,-234.87 287.71,-231.97 295.59,-229.42"/>
<polygon fill="midnightblue" stroke="midnightblue" points="296.81,-232.7 305.32,-226.39 294.73,-226.02 296.81,-232.7"/>
</g>
<!-- Node5 -->
<g id="node5" class="node">
<title>Node5</title>
<g id="a_node5"><a xlink:href="group__Harris.html#ga18169291e42ed3c9fa1f0a2c3c399fd1" target="_top" xlink:title="Top&#45;level accelerated function of the Harris Application with array I/F.">
<polygon fill="none" stroke="black" points="447.5,-342.5 447.5,-361.5 575.5,-361.5 575.5,-342.5 447.5,-342.5"/>
<text text-anchor="middle" x="511.5" y="-349.5" font-family="Helvetica,sans-Serif" font-size="10.00">cornerHarrisAccelMem</text>
</a>
</g>
</g>
<!-- Node4&#45;&gt;Node5 -->
<g id="edge4" class="edge">
<title>Node4&#45;&gt;Node5</title>
<path fill="none" stroke="midnightblue" d="M366.29,-303.8C375.66,-306.71 385.85,-310.19 395,-314 411.7,-320.96 414.07,-326.62 431,-333 437.76,-335.54 444.97,-337.83 452.19,-339.85"/>
<polygon fill="midnightblue" stroke="midnightblue" points="451.43,-343.27 461.99,-342.46 453.22,-336.51 451.43,-343.27"/>
</g>
<!-- Node6 -->
<g id="node6" class="node">
<title>Node6</title>
<g id="a_node6"><a xlink:href="group__Harris.html#gadecc1be53142987c5ae20263346c6505" target="_top" xlink:title="Top&#45;level accelerated function of the Harris Application with array I/F.">
<polygon fill="none" stroke="black" points="442.5,-304.5 442.5,-323.5 580.5,-323.5 580.5,-304.5 442.5,-304.5"/>
<text text-anchor="middle" x="511.5" y="-311.5" font-family="Helvetica,sans-Serif" font-size="10.00">cornerHarrisAccelStream</text>
</a>
</g>
</g>
<!-- Node4&#45;&gt;Node6 -->
<g id="edge5" class="edge">
<title>Node4&#45;&gt;Node6</title>
<path fill="none" stroke="midnightblue" d="M366.37,-298.44C384.84,-300.43 408.96,-303.04 432.18,-305.54"/>
<polygon fill="midnightblue" stroke="midnightblue" points="432.09,-309.06 442.4,-306.65 432.84,-302.1 432.09,-309.06"/>
</g>
<!-- Node7 -->
<g id="node7" class="node">
<title>Node7</title>
<g id="a_node7"><a xlink:href="group__Harris.html#gac20a6b7de4cc39e7961572f67044c648" target="_top" xlink:title=" ">
<polygon fill="none" stroke="black" points="431,-266.5 431,-285.5 592,-285.5 592,-266.5 431,-266.5"/>
<text text-anchor="middle" x="511.5" y="-273.5" font-family="Helvetica,sans-Serif" font-size="10.00">fakeCornerHarrisAccelStream</text>
</a>
</g>
</g>
<!-- Node4&#45;&gt;Node7 -->
<g id="edge6" class="edge">
<title>Node4&#45;&gt;Node7</title>
<path fill="none" stroke="midnightblue" d="M366.37,-291.56C381.81,-289.89 401.2,-287.8 420.71,-285.69"/>
<polygon fill="midnightblue" stroke="midnightblue" points="421.34,-289.15 430.9,-284.59 420.58,-282.19 421.34,-289.15"/>
</g>
<!-- Node9 -->
<g id="node9" class="node">
<title>Node9</title>
<g id="a_node9"><a xlink:href="group__HarrisHLS.html#ga689189915fbd23b534a675692924ec11" target="_top" xlink:title="Store a net word to a local AXI stream.">
<polygon fill="none" stroke="black" points="447.5,-228.5 447.5,-247.5 575.5,-247.5 575.5,-228.5 447.5,-228.5"/>
<text text-anchor="middle" x="511.5" y="-235.5" font-family="Helvetica,sans-Serif" font-size="10.00">storeWordToAxiStream</text>
</a>
</g>
</g>
<!-- Node8&#45;&gt;Node9 -->
<g id="edge8" class="edge">
<title>Node8&#45;&gt;Node9</title>
<path fill="none" stroke="midnightblue" d="M362.39,-253.99C382.59,-251.81 410.88,-248.75 437.33,-245.9"/>
<polygon fill="midnightblue" stroke="midnightblue" points="437.79,-249.37 447.35,-244.82 437.04,-242.41 437.79,-249.37"/>
</g>
</g>
</svg>
