<?xml version="1.0" encoding="UTF-8" standalone="no"?>
<!DOCTYPE svg PUBLIC "-//W3C//DTD SVG 1.1//EN"
 "http://www.w3.org/Graphics/SVG/1.1/DTD/svg11.dtd">
<!-- Generated by graphviz version 2.43.0 (0)
 -->
<!-- Title: pProcPath Pages: 1 -->
<svg width="270pt" height="104pt"
 viewBox="0.00 0.00 270.00 104.00" xmlns="http://www.w3.org/2000/svg" xmlns:xlink="http://www.w3.org/1999/xlink">
<g id="graph0" class="graph" transform="scale(1 1) rotate(0) translate(4 100)">
<title>pProcPath</title>
<!-- Node1 -->
<g id="node1" class="node">
<title>Node1</title>
<g id="a_node1"><a xlink:title="Processing Path &#45; Main processing FSM for Vitis kernels.">
<polygon fill="#bfbfbf" stroke="black" points="0,-38.5 0,-57.5 65,-57.5 65,-38.5 0,-38.5"/>
<text text-anchor="middle" x="32.5" y="-45.5" font-family="Helvetica,sans-Serif" font-size="10.00">pProcPath</text>
</a>
</g>
</g>
<!-- Node2 -->
<g id="node2" class="node">
<title>Node2</title>
<g id="a_node2"><a xlink:href="group__Harris.html#ga18169291e42ed3c9fa1f0a2c3c399fd1" target="_top" xlink:title="Top&#45;level accelerated function of the Harris Application with array I/F.">
<polygon fill="none" stroke="black" points="117.5,-76.5 117.5,-95.5 245.5,-95.5 245.5,-76.5 117.5,-76.5"/>
<text text-anchor="middle" x="181.5" y="-83.5" font-family="Helvetica,sans-Serif" font-size="10.00">cornerHarrisAccelMem</text>
</a>
</g>
</g>
<!-- Node1&#45;&gt;Node2 -->
<g id="edge1" class="edge">
<title>Node1&#45;&gt;Node2</title>
<path fill="none" stroke="midnightblue" d="M65.02,-57.15C76.34,-60.37 89.22,-63.94 101,-67 110.08,-69.36 119.77,-71.77 129.15,-74.04"/>
<polygon fill="midnightblue" stroke="midnightblue" points="128.62,-77.52 139.16,-76.45 130.25,-70.71 128.62,-77.52"/>
</g>
<!-- Node3 -->
<g id="node3" class="node">
<title>Node3</title>
<g id="a_node3"><a xlink:href="group__Harris.html#gadecc1be53142987c5ae20263346c6505" target="_top" xlink:title="Top&#45;level accelerated function of the Harris Application with array I/F.">
<polygon fill="none" stroke="black" points="112.5,-38.5 112.5,-57.5 250.5,-57.5 250.5,-38.5 112.5,-38.5"/>
<text text-anchor="middle" x="181.5" y="-45.5" font-family="Helvetica,sans-Serif" font-size="10.00">cornerHarrisAccelStream</text>
</a>
</g>
</g>
<!-- Node1&#45;&gt;Node3 -->
<g id="edge2" class="edge">
<title>Node1&#45;&gt;Node3</title>
<path fill="none" stroke="midnightblue" d="M65.04,-48C76.13,-48 89.14,-48 102.35,-48"/>
<polygon fill="midnightblue" stroke="midnightblue" points="102.46,-51.5 112.46,-48 102.46,-44.5 102.46,-51.5"/>
</g>
<!-- Node4 -->
<g id="node4" class="node">
<title>Node4</title>
<g id="a_node4"><a xlink:href="group__Harris.html#gac20a6b7de4cc39e7961572f67044c648" target="_top" xlink:title=" ">
<polygon fill="none" stroke="black" points="101,-0.5 101,-19.5 262,-19.5 262,-0.5 101,-0.5"/>
<text text-anchor="middle" x="181.5" y="-7.5" font-family="Helvetica,sans-Serif" font-size="10.00">fakeCornerHarrisAccelStream</text>
</a>
</g>
</g>
<!-- Node1&#45;&gt;Node4 -->
<g id="edge3" class="edge">
<title>Node1&#45;&gt;Node4</title>
<path fill="none" stroke="midnightblue" d="M65.02,-38.85C76.34,-35.63 89.22,-32.06 101,-29 110.08,-26.64 119.77,-24.23 129.15,-21.96"/>
<polygon fill="midnightblue" stroke="midnightblue" points="130.25,-25.29 139.16,-19.55 128.62,-18.48 130.25,-25.29"/>
</g>
</g>
</svg>
