<?xml version="1.0" encoding="UTF-8" standalone="no"?>
<!DOCTYPE svg PUBLIC "-//W3C//DTD SVG 1.1//EN"
 "http://www.w3.org/Graphics/SVG/1.1/DTD/svg11.dtd">
<!-- Generated by graphviz version 2.43.0 (0)
 -->
<!-- Title: NAL Pages: 1 -->
<svg width="323pt" height="29pt"
 viewBox="0.00 0.00 323.00 28.50" xmlns="http://www.w3.org/2000/svg" xmlns:xlink="http://www.w3.org/1999/xlink">
<g id="graph0" class="graph" transform="scale(1 1) rotate(0) translate(4 24.5)">
<title>NAL</title>
<!-- Node3 -->
<g id="node1" class="node">
<title>Node3</title>
<g id="a_node1"><a xlink:href="group__NTS__TOECAM.html" target="_top" xlink:title="Content&#45;Addressable Memory (CAM) for the TCP Offload Engine (TOE) of the Network Transport Stack (NTS...">
<polygon fill="none" stroke="black" points="315,-19 256,-19 256,0 315,0 315,-19"/>
<text text-anchor="middle" x="285.5" y="-7" font-family="Helvetica,sans-Serif" font-size="10.00">TOECAM</text>
</a>
</g>
</g>
<!-- Node2 -->
<g id="node2" class="node">
<title>Node2</title>
<g id="a_node2"><a xlink:href="group__ShellLib.html" target="_top" xlink:title="This is the SHELL library of cloudFPGA platform with its three basic components, i....">
<polygon fill="none" stroke="black" points="83,-19 0,-19 0,0 83,0 83,-19"/>
<text text-anchor="middle" x="41.5" y="-7" font-family="Helvetica,sans-Serif" font-size="10.00">SHELL Library</text>
</a>
</g>
</g>
<!-- Node1 -->
<g id="node3" class="node">
<title>Node1</title>
<g id="a_node3"><a xlink:title="Network Abstraction Layer (NAL). The NAL separates the privileged management traffic from the unprivi...">
<polygon fill="#bfbfbf" stroke="black" points="156,-19 120,-19 120,0 156,0 156,-19"/>
<text text-anchor="middle" x="138" y="-7" font-family="Helvetica,sans-Serif" font-size="10.00">NAL</text>
</a>
</g>
</g>
<!-- Node2&#45;&gt;Node1 -->
<g id="edge1" class="edge">
<title>Node2&#45;&gt;Node1</title>
<path fill="none" stroke="black" d="M93.4,-9.5C102.86,-9.5 112.13,-9.5 119.67,-9.5"/>
<polygon fill="black" stroke="black" points="93.12,-6 83.12,-9.5 93.12,-13 93.12,-6"/>
</g>
<!-- Node1&#45;&gt;Node3 -->
<g id="edge2" class="edge">
<title>Node1&#45;&gt;Node3</title>
<path fill="none" stroke="orange" stroke-dasharray="5,2" d="M156.26,-9.5C180.8,-9.5 226.08,-9.5 255.74,-9.5"/>
<text text-anchor="middle" x="206" y="-12.5" font-family="Helvetica,sans-Serif" font-size="10.00">KeyValuePair</text>
</g>
</g>
</svg>
