<?xml version="1.0" encoding="UTF-8" standalone="no"?>
<!DOCTYPE svg PUBLIC "-//W3C//DTD SVG 1.1//EN"
 "http://www.w3.org/Graphics/SVG/1.1/DTD/svg11.dtd">
<!-- Generated by graphviz version 2.43.0 (0)
 -->
<!-- Title: pReadPath Pages: 1 -->
<svg width="359pt" height="218pt"
 viewBox="0.00 0.00 359.00 218.00" xmlns="http://www.w3.org/2000/svg" xmlns:xlink="http://www.w3.org/1999/xlink">
<g id="graph0" class="graph" transform="scale(1 1) rotate(0) translate(4 214)">
<title>pReadPath</title>
<!-- Node1 -->
<g id="node1" class="node">
<title>Node1</title>
<g id="a_node1"><a xlink:title="Read Path (RDp) &#45; From SHELL/UOE to ROLE/UAF.">
<polygon fill="#bfbfbf" stroke="black" points="0,-95.5 0,-114.5 68,-114.5 68,-95.5 0,-95.5"/>
<text text-anchor="middle" x="34" y="-102.5" font-family="Helvetica,sans-Serif" font-size="10.00">pReadPath</text>
</a>
</g>
</g>
<!-- Node2 -->
<g id="node2" class="node">
<title>Node2</title>
<g id="a_node2"><a xlink:href="udp_8cpp.html#ga3179abf5c515026aad3e82047a1dd9a3" target="_top" xlink:title=" ">
<polygon fill="none" stroke="black" points="108,-190.5 108,-209.5 185,-209.5 185,-190.5 108,-190.5"/>
<text text-anchor="middle" x="146.5" y="-197.5" font-family="Helvetica,sans-Serif" font-size="10.00">byteSwap16</text>
</a>
</g>
</g>
<!-- Node1&#45;&gt;Node2 -->
<g id="edge1" class="edge">
<title>Node1&#45;&gt;Node2</title>
<path fill="none" stroke="midnightblue" d="M41.65,-114.55C52.94,-130.18 77.25,-161.43 104,-181 106.2,-182.61 108.56,-184.13 111,-185.56"/>
<polygon fill="midnightblue" stroke="midnightblue" points="109.53,-188.74 120.01,-190.3 112.79,-182.55 109.53,-188.74"/>
</g>
<!-- Node3 -->
<g id="node3" class="node">
<title>Node3</title>
<g id="a_node3"><a xlink:href="udp_8cpp.html#ga2355e0cecd0576470bca0178c4c1aec2" target="_top" xlink:title=" ">
<polygon fill="none" stroke="black" points="108,-152.5 108,-171.5 185,-171.5 185,-152.5 108,-152.5"/>
<text text-anchor="middle" x="146.5" y="-159.5" font-family="Helvetica,sans-Serif" font-size="10.00">byteSwap32</text>
</a>
</g>
</g>
<!-- Node1&#45;&gt;Node3 -->
<g id="edge2" class="edge">
<title>Node1&#45;&gt;Node3</title>
<path fill="none" stroke="midnightblue" d="M53.74,-114.67C71.39,-123.77 98.03,-137.52 118.07,-147.85"/>
<polygon fill="midnightblue" stroke="midnightblue" points="116.54,-151 127.03,-152.47 119.75,-144.78 116.54,-151"/>
</g>
<!-- Node4 -->
<g id="node4" class="node">
<title>Node4</title>
<g id="a_node4"><a xlink:href="classAxisRaw.html#a7034bcf8cf143fb2bb9bfc46e70a7d6b" target="_top" xlink:title=" ">
<polygon fill="none" stroke="black" points="225.5,-114.5 225.5,-133.5 350.5,-133.5 350.5,-114.5 225.5,-114.5"/>
<text text-anchor="middle" x="288" y="-121.5" font-family="Helvetica,sans-Serif" font-size="10.00">AxisRaw::getLE_TData</text>
</a>
</g>
</g>
<!-- Node1&#45;&gt;Node4 -->
<g id="edge3" class="edge">
<title>Node1&#45;&gt;Node4</title>
<path fill="none" stroke="midnightblue" d="M68.2,-107.5C105.39,-110.31 166.76,-114.93 215.06,-118.58"/>
<polygon fill="midnightblue" stroke="midnightblue" points="214.92,-122.08 225.16,-119.34 215.45,-115.1 214.92,-122.08"/>
</g>
<!-- Node5 -->
<g id="node5" class="node">
<title>Node5</title>
<g id="a_node5"><a xlink:href="classAxisRaw.html#af8208752dcbb14911c5fda27d90a0ef4" target="_top" xlink:title=" ">
<polygon fill="none" stroke="black" points="227,-38.5 227,-57.5 349,-57.5 349,-38.5 227,-38.5"/>
<text text-anchor="middle" x="288" y="-45.5" font-family="Helvetica,sans-Serif" font-size="10.00">AxisRaw::getLE_TLast</text>
</a>
</g>
</g>
<!-- Node1&#45;&gt;Node5 -->
<g id="edge4" class="edge">
<title>Node1&#45;&gt;Node5</title>
<path fill="none" stroke="midnightblue" d="M48.53,-95.4C61.93,-86.42 83.38,-73.46 104,-67 140.21,-55.66 182.21,-50.76 216.84,-48.75"/>
<polygon fill="midnightblue" stroke="midnightblue" points="217.05,-52.25 226.86,-48.24 216.7,-45.26 217.05,-52.25"/>
</g>
<!-- Node6 -->
<g id="node6" class="node">
<title>Node6</title>
<g id="a_node6"><a xlink:href="group__NTS.html#ga5560d80c548e85eb53223a5e99410b7b" target="_top" xlink:title="Prints an Axis raw data chunk (used for debugging).">
<polygon fill="none" stroke="black" points="106,-76.5 106,-95.5 187,-95.5 187,-76.5 106,-76.5"/>
<text text-anchor="middle" x="146.5" y="-83.5" font-family="Helvetica,sans-Serif" font-size="10.00">printAxisRaw</text>
</a>
</g>
</g>
<!-- Node1&#45;&gt;Node6 -->
<g id="edge5" class="edge">
<title>Node1&#45;&gt;Node6</title>
<path fill="none" stroke="midnightblue" d="M68.15,-99.3C76.84,-97.81 86.39,-96.16 95.74,-94.56"/>
<polygon fill="midnightblue" stroke="midnightblue" points="96.48,-97.98 105.74,-92.84 95.29,-91.08 96.48,-97.98"/>
</g>
<!-- Node8 -->
<g id="node8" class="node">
<title>Node8</title>
<g id="a_node8"><a xlink:href="group__NTS.html#ga868a2a0831dcd26fa88eadae8f61f92c" target="_top" xlink:title="Print a socket address.">
<polygon fill="none" stroke="black" points="104,-0.5 104,-19.5 189,-19.5 189,-0.5 104,-0.5"/>
<text text-anchor="middle" x="146.5" y="-7.5" font-family="Helvetica,sans-Serif" font-size="10.00">printSockAddr</text>
</a>
</g>
</g>
<!-- Node1&#45;&gt;Node8 -->
<g id="edge9" class="edge">
<title>Node1&#45;&gt;Node8</title>
<path fill="none" stroke="midnightblue" d="M42.78,-95.45C54.86,-81 79.33,-53.23 104,-34 108.16,-30.76 112.8,-27.65 117.44,-24.81"/>
<polygon fill="midnightblue" stroke="midnightblue" points="119.32,-27.76 126.2,-19.71 115.8,-21.71 119.32,-27.76"/>
</g>
<!-- Node6&#45;&gt;Node4 -->
<g id="edge6" class="edge">
<title>Node6&#45;&gt;Node4</title>
<path fill="none" stroke="midnightblue" d="M182.7,-95.59C200.71,-100.49 222.83,-106.52 242.06,-111.76"/>
<polygon fill="midnightblue" stroke="midnightblue" points="241.24,-115.16 251.81,-114.41 243.08,-108.41 241.24,-115.16"/>
</g>
<!-- Node6&#45;&gt;Node5 -->
<g id="edge8" class="edge">
<title>Node6&#45;&gt;Node5</title>
<path fill="none" stroke="midnightblue" d="M182.7,-76.41C200.71,-71.51 222.83,-65.48 242.06,-60.24"/>
<polygon fill="midnightblue" stroke="midnightblue" points="243.08,-63.59 251.81,-57.59 241.24,-56.84 243.08,-63.59"/>
</g>
<!-- Node7 -->
<g id="node7" class="node">
<title>Node7</title>
<g id="a_node7"><a xlink:href="classAxisRaw.html#a4becd0ad3c51e3db2749e888f2f72e31" target="_top" xlink:title=" ">
<polygon fill="none" stroke="black" points="225,-76.5 225,-95.5 351,-95.5 351,-76.5 225,-76.5"/>
<text text-anchor="middle" x="288" y="-83.5" font-family="Helvetica,sans-Serif" font-size="10.00">AxisRaw::getLE_TKeep</text>
</a>
</g>
</g>
<!-- Node6&#45;&gt;Node7 -->
<g id="edge7" class="edge">
<title>Node6&#45;&gt;Node7</title>
<path fill="none" stroke="midnightblue" d="M187.1,-86C195.74,-86 205.14,-86 214.6,-86"/>
<polygon fill="midnightblue" stroke="midnightblue" points="214.87,-89.5 224.87,-86 214.87,-82.5 214.87,-89.5"/>
</g>
</g>
</svg>
