<?xml version="1.0" encoding="UTF-8" standalone="no"?>
<!DOCTYPE svg PUBLIC "-//W3C//DTD SVG 1.1//EN"
 "http://www.w3.org/Graphics/SVG/1.1/DTD/svg11.dtd">
<!-- Generated by graphviz version 2.43.0 (0)
 -->
<!-- Title: readAxisRawFromFile Pages: 1 -->
<!--zoomable 180 -->
<svg id="main" version="1.1" xmlns="http://www.w3.org/2000/svg" xmlns:xlink="http://www.w3.org/1999/xlink" xml:space="preserve" onload="init(evt)">
<style type="text/css"><![CDATA[
.edge:hover path { stroke: red; }
.edge:hover polygon { stroke: red; fill: red; }
]]></style>
<script type="text/javascript"><![CDATA[
var edges = document.getElementsByTagName('g');
if (edges && edges.length) {
  for (var i=0;i<edges.length;i++) {
    if (edges[i].id.substr(0,4)=='edge') {
      edges[i].setAttribute('class','edge');
    }
  }
}
]]></script>
        <defs>
                <circle id="rim" cx="0" cy="0" r="7"/>
                <circle id="rim2" cx="0" cy="0" r="3.5"/>
                <g id="zoomPlus">
                        <use xlink:href="#rim" fill="#404040">
                                <set attributeName="fill" to="#808080" begin="zoomplus.mouseover" end="zoomplus.mouseout"/>
                        </use>
                        <path d="M-4,0h8M0,-4v8" fill="none" stroke="white" stroke-width="1.5" pointer-events="none"/>
                </g>
                <g id="zoomMin">
                        <use xlink:href="#rim" fill="#404040">
                                <set attributeName="fill" to="#808080" begin="zoomminus.mouseover" end="zoomminus.mouseout"/>
                        </use>
                        <path d="M-4,0h8" fill="none" stroke="white" stroke-width="1.5" pointer-events="none"/>
                </g>
                <g id="dirArrow">
                        <path fill="none" stroke="white" stroke-width="1.5" d="M0,-3.0v7 M-2.5,-0.5L0,-3.0L2.5,-0.5"/>
                </g>
               <g id="resetDef">
                       <use xlink:href="#rim2" fill="#404040">
                               <set attributeName="fill" to="#808080" begin="reset.mouseover" end="reset.mouseout"/>
                       </use>
               </g>
        </defs>

<script type="text/javascript">
var viewWidth = 505;
var viewHeight = 180;
var sectionId = 'dynsection-18';
</script>
<script xlink:href="svgpan.js"/>
<svg id="graph" class="graph">
<g id="viewport">
<title>readAxisRawFromFile</title>
<!-- Node1 -->
<g id="node1" class="node">
<title>Node1</title>
<g id="a_node1"><a xlink:title="Retrieve an Axis raw data chunk from a file.">
<polygon fill="#bfbfbf" stroke="black" points="375,-114.5 375,-133.5 497,-133.5 497,-114.5 375,-114.5"/>
<text text-anchor="middle" x="436" y="-121.5" font-family="Helvetica,sans-Serif" font-size="10.00">readAxisRawFromFile</text>
</a>
</g>
</g>
<!-- Node2 -->
<g id="node2" class="node">
<title>Node2</title>
<g id="a_node2"><a xlink:href="group__NTS__ARP__TEST.html#ga5e15c6fbfca5524e0c76a49943f75b67" target="_top" xlink:title="Create the golden reference file from an input test file.">
<polygon fill="none" stroke="black" points="231,-152.5 231,-171.5 330,-171.5 330,-152.5 231,-152.5"/>
<text text-anchor="middle" x="280.5" y="-159.5" font-family="Helvetica,sans-Serif" font-size="10.00">createGoldenFile</text>
</a>
</g>
</g>
<!-- Node1&#45;&gt;Node2 -->
<g id="edge1" class="edge">
<title>Node1&#45;&gt;Node2</title>
<path fill="none" stroke="midnightblue" d="M386.36,-136.04C364.92,-141.35 340.08,-147.5 319.96,-152.48"/>
<polygon fill="midnightblue" stroke="midnightblue" points="387.4,-139.39 396.27,-133.59 385.72,-132.59 387.4,-139.39"/>
</g>
<!-- Node4 -->
<g id="node4" class="node">
<title>Node4</title>
<g id="a_node4"><a xlink:href="group__NTS__UOE__TEST.html#ga40610514eb0285c8afbe8cfe003638f6" target="_top" xlink:title="Create the golden Rx APP reference files from an input IPRX test file.">
<polygon fill="none" stroke="black" points="222,-114.5 222,-133.5 339,-133.5 339,-114.5 222,-114.5"/>
<text text-anchor="middle" x="280.5" y="-121.5" font-family="Helvetica,sans-Serif" font-size="10.00">createGoldenRxFiles</text>
</a>
</g>
</g>
<!-- Node1&#45;&gt;Node4 -->
<g id="edge3" class="edge">
<title>Node1&#45;&gt;Node4</title>
<path fill="none" stroke="midnightblue" d="M364.75,-124C356.14,-124 347.43,-124 339.04,-124"/>
<polygon fill="midnightblue" stroke="midnightblue" points="364.77,-127.5 374.77,-124 364.77,-120.5 364.77,-127.5"/>
</g>
<!-- Node6 -->
<g id="node6" class="node">
<title>Node6</title>
<g id="a_node6"><a xlink:href="group__NTS__SIM.html#ga6ca80140c75da871abab47ecc16ecada" target="_top" xlink:title="Initialize an Axi4&#45;Stream (Axis) from a DAT file.">
<polygon fill="none" stroke="black" points="230,-57.5 230,-76.5 331,-76.5 331,-57.5 230,-57.5"/>
<text text-anchor="middle" x="280.5" y="-64.5" font-family="Helvetica,sans-Serif" font-size="10.00">feedAxisFromFile</text>
</a>
</g>
</g>
<!-- Node1&#45;&gt;Node6 -->
<g id="edge5" class="edge">
<title>Node1&#45;&gt;Node6</title>
<path fill="none" stroke="midnightblue" d="M399.81,-110.93C371.6,-100.46 332.65,-85.99 307.28,-76.57"/>
<polygon fill="midnightblue" stroke="midnightblue" points="398.71,-114.26 409.31,-114.46 401.15,-107.7 398.71,-114.26"/>
</g>
<!-- Node3 -->
<g id="node3" class="node">
<title>Node3</title>
<g id="a_node3"><a xlink:href="group__NTS__ARP__TEST.html#ga0ddf1224851353fc92bfbff6f499fa97" target="_top" xlink:title="Main function.">
<polygon fill="none" stroke="black" points="111,-152.5 111,-171.5 152,-171.5 152,-152.5 111,-152.5"/>
<text text-anchor="middle" x="131.5" y="-159.5" font-family="Helvetica,sans-Serif" font-size="10.00">main</text>
</a>
</g>
</g>
<!-- Node2&#45;&gt;Node3 -->
<g id="edge2" class="edge">
<title>Node2&#45;&gt;Node3</title>
<path fill="none" stroke="midnightblue" d="M220.72,-162C196.44,-162 169.92,-162 152.36,-162"/>
<polygon fill="midnightblue" stroke="midnightblue" points="220.96,-165.5 230.96,-162 220.96,-158.5 220.96,-165.5"/>
</g>
<!-- Node5 -->
<g id="node5" class="node">
<title>Node5</title>
<g id="a_node5"><a xlink:href="group__NTS__UOE__TEST.html#ga0ddf1224851353fc92bfbff6f499fa97" target="_top" xlink:title="Main function.">
<polygon fill="none" stroke="black" points="0,-76.5 0,-95.5 41,-95.5 41,-76.5 0,-76.5"/>
<text text-anchor="middle" x="20.5" y="-83.5" font-family="Helvetica,sans-Serif" font-size="10.00">main</text>
</a>
</g>
</g>
<!-- Node4&#45;&gt;Node5 -->
<g id="edge4" class="edge">
<title>Node4&#45;&gt;Node5</title>
<path fill="none" stroke="midnightblue" d="M211.9,-114.04C154.96,-105.66 77.19,-94.2 41.23,-88.91"/>
<polygon fill="midnightblue" stroke="midnightblue" points="211.52,-117.52 221.92,-115.52 212.54,-110.6 211.52,-117.52"/>
</g>
<!-- Node6&#45;&gt;Node5 -->
<g id="edge10" class="edge">
<title>Node6&#45;&gt;Node5</title>
<path fill="none" stroke="midnightblue" d="M219.71,-71.4C162.33,-75.63 78.98,-81.77 41.3,-84.54"/>
<polygon fill="midnightblue" stroke="midnightblue" points="220.04,-74.89 229.76,-70.66 219.52,-67.91 220.04,-74.89"/>
</g>
<!-- Node7 -->
<g id="node7" class="node">
<title>Node7</title>
<g id="a_node7"><a xlink:href="group__udp__app__flash.html#ga8cd87b3a5a21f18fbd5bd9649a66e05c" target="_top" xlink:title="Create the UDP Rx traffic as streams from an input test file.">
<polygon fill="none" stroke="black" points="77,-0.5 77,-19.5 186,-19.5 186,-0.5 77,-0.5"/>
<text text-anchor="middle" x="131.5" y="-7.5" font-family="Helvetica,sans-Serif" font-size="10.00">createUdpRxTraffic</text>
</a>
</g>
</g>
<!-- Node6&#45;&gt;Node7 -->
<g id="edge6" class="edge">
<title>Node6&#45;&gt;Node7</title>
<path fill="none" stroke="midnightblue" d="M247.13,-53.43C229.2,-46.01 206.45,-36.78 186,-29 177.62,-25.81 168.43,-22.49 160.08,-19.53"/>
<polygon fill="midnightblue" stroke="midnightblue" points="245.98,-56.74 256.56,-57.34 248.66,-50.28 245.98,-56.74"/>
</g>
<!-- Node9 -->
<g id="node9" class="node">
<title>Node9</title>
<g id="a_node9"><a xlink:href="group__NTS__UOE__TEST.html#gaf5979b45ae23c07cf9c78c6377fec346" target="_top" xlink:title="Create the UDP Tx traffic as streams from an input test file.">
<polygon fill="none" stroke="black" points="77.5,-38.5 77.5,-57.5 185.5,-57.5 185.5,-38.5 77.5,-38.5"/>
<text text-anchor="middle" x="131.5" y="-45.5" font-family="Helvetica,sans-Serif" font-size="10.00">createUdpTxTraffic</text>
</a>
</g>
</g>
<!-- Node6&#45;&gt;Node9 -->
<g id="edge8" class="edge">
<title>Node6&#45;&gt;Node9</title>
<path fill="none" stroke="midnightblue" d="M219.59,-59.26C208.38,-57.81 196.73,-56.3 185.74,-54.88"/>
<polygon fill="midnightblue" stroke="midnightblue" points="219.37,-62.76 229.73,-60.57 220.26,-55.81 219.37,-62.76"/>
</g>
<!-- Node8 -->
<g id="node8" class="node">
<title>Node8</title>
<g id="a_node8"><a xlink:href="group__udp__app__flash.html#ga0ddf1224851353fc92bfbff6f499fa97" target="_top" xlink:title="Main function for the test of the UDP Application Flash (UAF).">
<polygon fill="none" stroke="black" points="0,-0.5 0,-19.5 41,-19.5 41,-0.5 0,-0.5"/>
<text text-anchor="middle" x="20.5" y="-7.5" font-family="Helvetica,sans-Serif" font-size="10.00">main</text>
</a>
</g>
</g>
<!-- Node7&#45;&gt;Node8 -->
<g id="edge7" class="edge">
<title>Node7&#45;&gt;Node8</title>
<path fill="none" stroke="midnightblue" d="M66.79,-10C57.49,-10 48.57,-10 41.14,-10"/>
<polygon fill="midnightblue" stroke="midnightblue" points="66.96,-13.5 76.96,-10 66.96,-6.5 66.96,-13.5"/>
</g>
<!-- Node9&#45;&gt;Node5 -->
<g id="edge9" class="edge">
<title>Node9&#45;&gt;Node5</title>
<path fill="none" stroke="midnightblue" d="M93.07,-61.05C75.6,-67.14 55.52,-74.14 41.09,-79.17"/>
<polygon fill="midnightblue" stroke="midnightblue" points="94.7,-64.19 102.99,-57.59 92.4,-57.58 94.7,-64.19"/>
</g>
</g>
</svg>
        <g id="navigator" transform="translate(0 0)" fill="#404254">
                <rect fill="#f2f5e9" fill-opacity="0.5" stroke="#606060" stroke-width=".5" x="0" y="0" width="60" height="60"/>
                <use id="zoomplus" xlink:href="#zoomPlus" x="17" y="9" onmousedown="handleZoom(evt,'in')"/>
                <use id="zoomminus" xlink:href="#zoomMin" x="42" y="9" onmousedown="handleZoom(evt,'out')"/>
                <use id="reset" xlink:href="#resetDef" x="30" y="36" onmousedown="handleReset()"/>
                <g id="arrowUp" xlink:href="#dirArrow" transform="translate(30 24)" onmousedown="handlePan(0,-1)">
                  <use xlink:href="#rim" fill="#404040">
                        <set attributeName="fill" to="#808080" begin="arrowUp.mouseover" end="arrowUp.mouseout"/>
                  </use>
                  <path fill="none" stroke="white" stroke-width="1.5" d="M0,-3.0v7 M-2.5,-0.5L0,-3.0L2.5,-0.5"/>
                </g>
                <g id="arrowRight" xlink:href="#dirArrow" transform="rotate(90) translate(36 -43)" onmousedown="handlePan(1,0)">
                  <use xlink:href="#rim" fill="#404040">
                        <set attributeName="fill" to="#808080" begin="arrowRight.mouseover" end="arrowRight.mouseout"/>
                  </use>
                  <path fill="none" stroke="white" stroke-width="1.5" d="M0,-3.0v7 M-2.5,-0.5L0,-3.0L2.5,-0.5"/>
                </g>
                <g id="arrowDown" xlink:href="#dirArrow" transform="rotate(180) translate(-30 -48)" onmousedown="handlePan(0,1)">
                  <use xlink:href="#rim" fill="#404040">
                        <set attributeName="fill" to="#808080" begin="arrowDown.mouseover" end="arrowDown.mouseout"/>
                  </use>
                  <path fill="none" stroke="white" stroke-width="1.5" d="M0,-3.0v7 M-2.5,-0.5L0,-3.0L2.5,-0.5"/>
                </g>
                <g id="arrowLeft" xlink:href="#dirArrow" transform="rotate(270) translate(-36 17)" onmousedown="handlePan(-1,0)">
                  <use xlink:href="#rim" fill="#404040">
                        <set attributeName="fill" to="#808080" begin="arrowLeft.mouseover" end="arrowLeft.mouseout"/>
                  </use>
                  <path fill="none" stroke="white" stroke-width="1.5" d="M0,-3.0v7 M-2.5,-0.5L0,-3.0L2.5,-0.5"/>
                </g>
        </g>
        <svg viewBox="0 0 15 15" width="100%" height="30px" preserveAspectRatio="xMaxYMin meet">
         <g id="arrow_out" transform="scale(0.3 0.3)">
          <a xlink:href="group__NTS__SIM_gad3c7d60ad2a2645c46baa9f996b7645e_icgraph_org.svg" target="_base">
           <rect id="button" ry="5" rx="5" y="6" x="6" height="38" width="38"
                fill="#f2f5e9" fill-opacity="0.5" stroke="#606060" stroke-width="1.0"/>
           <path id="arrow"
             d="M 11.500037,31.436501 C 11.940474,20.09759 22.043105,11.32322 32.158766,21.979434 L 37.068811,17.246167 C 37.068811,17.246167 37.088388,32 37.088388,32 L 22.160133,31.978069 C 22.160133,31.978069 26.997745,27.140456 26.997745,27.140456 C 18.528582,18.264221 13.291696,25.230495 11.500037,31.436501 z"
             style="fill:#404040;"/>
          </a>
         </g>
        </svg>
</svg>
