<?xml version="1.0" encoding="UTF-8" standalone="no"?>
<!DOCTYPE svg PUBLIC "-//W3C//DTD SVG 1.1//EN"
 "http://www.w3.org/Graphics/SVG/1.1/DTD/svg11.dtd">
<!-- Generated by graphviz version 2.43.0 (0)
 -->
<!-- Title: pArpCamController Pages: 1 -->
<svg width="249pt" height="104pt"
 viewBox="0.00 0.00 249.00 104.00" xmlns="http://www.w3.org/2000/svg" xmlns:xlink="http://www.w3.org/1999/xlink">
<g id="graph0" class="graph" transform="scale(1 1) rotate(0) translate(4 100)">
<title>pArpCamController</title>
<!-- Node1 -->
<g id="node1" class="node">
<title>Node1</title>
<g id="a_node1"><a xlink:title=" ">
<polygon fill="#bfbfbf" stroke="black" points="0,-38.5 0,-57.5 110,-57.5 110,-38.5 0,-38.5"/>
<text text-anchor="middle" x="55" y="-45.5" font-family="Helvetica,sans-Serif" font-size="10.00">pArpCamController</text>
</a>
</g>
</g>
<!-- Node2 -->
<g id="node2" class="node">
<title>Node2</title>
<g id="a_node2"><a xlink:href="group__NTS.html#ga3e6d810dabc458857df489da0a161bf7" target="_top" xlink:title="Print an ARP binding pair association.">
<polygon fill="none" stroke="black" points="146,-76.5 146,-95.5 241,-95.5 241,-76.5 146,-76.5"/>
<text text-anchor="middle" x="193.5" y="-83.5" font-family="Helvetica,sans-Serif" font-size="10.00">printArpBindPair</text>
</a>
</g>
</g>
<!-- Node1&#45;&gt;Node2 -->
<g id="edge1" class="edge">
<title>Node1&#45;&gt;Node2</title>
<path fill="none" stroke="midnightblue" d="M90.44,-57.59C107.98,-62.47 129.51,-68.46 148.26,-73.68"/>
<polygon fill="midnightblue" stroke="midnightblue" points="147.49,-77.1 158.07,-76.41 149.37,-70.36 147.49,-77.1"/>
</g>
<!-- Node3 -->
<g id="node3" class="node">
<title>Node3</title>
<g id="a_node3"><a xlink:href="group__NTS.html#gae56926bb64a6c420796d5af64af3d87c" target="_top" xlink:title="Print an ETHERNET MAC address prepended with a message (for debug).">
<polygon fill="none" stroke="black" points="155,-38.5 155,-57.5 232,-57.5 232,-38.5 155,-38.5"/>
<text text-anchor="middle" x="193.5" y="-45.5" font-family="Helvetica,sans-Serif" font-size="10.00">printEthAddr</text>
</a>
</g>
</g>
<!-- Node1&#45;&gt;Node3 -->
<g id="edge2" class="edge">
<title>Node1&#45;&gt;Node3</title>
<path fill="none" stroke="midnightblue" d="M110.34,-48C121.61,-48 133.41,-48 144.43,-48"/>
<polygon fill="midnightblue" stroke="midnightblue" points="144.72,-51.5 154.72,-48 144.72,-44.5 144.72,-51.5"/>
</g>
<!-- Node4 -->
<g id="node4" class="node">
<title>Node4</title>
<g id="a_node4"><a xlink:href="group__NTS.html#gac49ba2411b0441ae9fe6e7aa706773c0" target="_top" xlink:title="Print an IPv4 address prepended with a message (used for debugging).">
<polygon fill="none" stroke="black" points="155,-0.5 155,-19.5 232,-19.5 232,-0.5 155,-0.5"/>
<text text-anchor="middle" x="193.5" y="-7.5" font-family="Helvetica,sans-Serif" font-size="10.00">printIp4Addr</text>
</a>
</g>
</g>
<!-- Node1&#45;&gt;Node4 -->
<g id="edge3" class="edge">
<title>Node1&#45;&gt;Node4</title>
<path fill="none" stroke="midnightblue" d="M90.44,-38.41C107.98,-33.53 129.51,-27.54 148.26,-22.32"/>
<polygon fill="midnightblue" stroke="midnightblue" points="149.37,-25.64 158.07,-19.59 147.49,-18.9 149.37,-25.64"/>
</g>
</g>
</svg>
