<?xml version="1.0" encoding="UTF-8" standalone="no"?>
<!DOCTYPE svg PUBLIC "-//W3C//DTD SVG 1.1//EN"
 "http://www.w3.org/Graphics/SVG/1.1/DTD/svg11.dtd">
<!-- Generated by graphviz version 2.43.0 (0)
 -->
<!-- Title: timers Pages: 1 -->
<svg width="197pt" height="142pt"
 viewBox="0.00 0.00 197.00 142.00" xmlns="http://www.w3.org/2000/svg" xmlns:xlink="http://www.w3.org/1999/xlink">
<g id="graph0" class="graph" transform="scale(1 1) rotate(0) translate(4 138)">
<title>timers</title>
<!-- Node1 -->
<g id="node1" class="node">
<title>Node1</title>
<g id="a_node1"><a xlink:title="The Timers (TIm)">
<polygon fill="#bfbfbf" stroke="black" points="0,-57.5 0,-76.5 48,-76.5 48,-57.5 0,-57.5"/>
<text text-anchor="middle" x="24" y="-64.5" font-family="Helvetica,sans-Serif" font-size="10.00">timers</text>
</a>
</g>
</g>
<!-- Node2 -->
<g id="node2" class="node">
<title>Node2</title>
<g id="a_node2"><a xlink:href="group__NTS__TOE.html#gad791ee80094db3de3a46522b1ede51d8" target="_top" xlink:title="Close Timer (Clt) process.">
<polygon fill="none" stroke="black" points="97.5,-114.5 97.5,-133.5 175.5,-133.5 175.5,-114.5 97.5,-114.5"/>
<text text-anchor="middle" x="136.5" y="-121.5" font-family="Helvetica,sans-Serif" font-size="10.00">pCloseTimer</text>
</a>
</g>
</g>
<!-- Node1&#45;&gt;Node2 -->
<g id="edge1" class="edge">
<title>Node1&#45;&gt;Node2</title>
<path fill="none" stroke="midnightblue" d="M38.1,-76.63C49.74,-84.89 67.43,-96.73 84,-105 88.04,-107.02 92.35,-108.94 96.7,-110.73"/>
<polygon fill="midnightblue" stroke="midnightblue" points="95.57,-114.05 106.16,-114.43 98.12,-107.53 95.57,-114.05"/>
</g>
<!-- Node3 -->
<g id="node3" class="node">
<title>Node3</title>
<g id="a_node3"><a xlink:href="group__NTS__TOE.html#gaf4d743509351bdaf8af2c9509c9ec972" target="_top" xlink:title="Probe Timer (Prb) process.">
<polygon fill="none" stroke="black" points="97,-76.5 97,-95.5 176,-95.5 176,-76.5 97,-76.5"/>
<text text-anchor="middle" x="136.5" y="-83.5" font-family="Helvetica,sans-Serif" font-size="10.00">pProbeTimer</text>
</a>
</g>
</g>
<!-- Node1&#45;&gt;Node3 -->
<g id="edge2" class="edge">
<title>Node1&#45;&gt;Node3</title>
<path fill="none" stroke="midnightblue" d="M48.16,-70.98C59.36,-72.91 73.25,-75.3 86.63,-77.6"/>
<polygon fill="midnightblue" stroke="midnightblue" points="86.26,-81.08 96.71,-79.33 87.44,-74.19 86.26,-81.08"/>
</g>
<!-- Node4 -->
<g id="node4" class="node">
<title>Node4</title>
<g id="a_node4"><a xlink:href="group__NTS__TOE.html#gab2f7f16329f49a0cb24431c57660f164" target="_top" xlink:title="ReTransmit Timer (Rtt) process.">
<polygon fill="none" stroke="black" points="84,-38.5 84,-57.5 189,-57.5 189,-38.5 84,-38.5"/>
<text text-anchor="middle" x="136.5" y="-45.5" font-family="Helvetica,sans-Serif" font-size="10.00">pRetransmitTimer</text>
</a>
</g>
</g>
<!-- Node1&#45;&gt;Node4 -->
<g id="edge3" class="edge">
<title>Node1&#45;&gt;Node4</title>
<path fill="none" stroke="midnightblue" d="M48.16,-63.02C55.79,-61.71 64.66,-60.18 73.76,-58.62"/>
<polygon fill="midnightblue" stroke="midnightblue" points="74.43,-62.05 83.69,-56.91 73.24,-55.15 74.43,-62.05"/>
</g>
<!-- Node5 -->
<g id="node5" class="node">
<title>Node5</title>
<g id="a_node5"><a xlink:href="group__NTS__TOE.html#ga09ce8a117773d13e39cc1ed8f6557fc8" target="_top" xlink:title="A 2&#45;to&#45;1 generic Stream Multiplexer.">
<polygon fill="none" stroke="black" points="97,-0.5 97,-19.5 176,-19.5 176,-0.5 97,-0.5"/>
<text text-anchor="middle" x="136.5" y="-7.5" font-family="Helvetica,sans-Serif" font-size="10.00">pStreamMux</text>
</a>
</g>
</g>
<!-- Node1&#45;&gt;Node5 -->
<g id="edge4" class="edge">
<title>Node1&#45;&gt;Node5</title>
<path fill="none" stroke="midnightblue" d="M38.1,-57.37C49.74,-49.11 67.43,-37.27 84,-29 88.04,-26.98 92.35,-25.06 96.7,-23.27"/>
<polygon fill="midnightblue" stroke="midnightblue" points="98.12,-26.47 106.16,-19.57 95.57,-19.95 98.12,-26.47"/>
</g>
</g>
</svg>
