<?xml version="1.0" encoding="UTF-8" standalone="no"?>
<!DOCTYPE svg PUBLIC "-//W3C//DTD SVG 1.1//EN"
 "http://www.w3.org/Graphics/SVG/1.1/DTD/svg11.dtd">
<!-- Generated by graphviz version 2.43.0 (0)
 -->
<!-- Title: feedAxisFromFile Pages: 1 -->
<svg width="740pt" height="322pt"
 viewBox="0.00 0.00 740.00 322.00" xmlns="http://www.w3.org/2000/svg" xmlns:xlink="http://www.w3.org/1999/xlink">
<g id="graph0" class="graph" transform="scale(1 1) rotate(0) translate(4 318)">
<title>feedAxisFromFile</title>
<!-- Node1 -->
<g id="node1" class="node">
<title>Node1</title>
<g id="a_node1"><a xlink:title="Initialize an Axi4&#45;Stream (Axis) from a DAT file.">
<polygon fill="#bfbfbf" stroke="black" points="0,-237.5 0,-256.5 101,-256.5 101,-237.5 0,-237.5"/>
<text text-anchor="middle" x="50.5" y="-244.5" font-family="Helvetica,sans-Serif" font-size="10.00">feedAxisFromFile</text>
</a>
</g>
</g>
<!-- Node2 -->
<g id="node2" class="node">
<title>Node2</title>
<g id="a_node2"><a xlink:href="classAxisRaw.html#af8208752dcbb14911c5fda27d90a0ef4" target="_top" xlink:title=" ">
<polygon fill="none" stroke="black" points="137,-294.5 137,-313.5 259,-313.5 259,-294.5 137,-294.5"/>
<text text-anchor="middle" x="198" y="-301.5" font-family="Helvetica,sans-Serif" font-size="10.00">AxisRaw::getLE_TLast</text>
</a>
</g>
</g>
<!-- Node1&#45;&gt;Node2 -->
<g id="edge1" class="edge">
<title>Node1&#45;&gt;Node2</title>
<path fill="none" stroke="midnightblue" d="M75.85,-256.54C99.77,-265.91 136.47,-280.29 163.21,-290.76"/>
<polygon fill="midnightblue" stroke="midnightblue" points="161.98,-294.04 172.57,-294.43 164.53,-287.52 161.98,-294.04"/>
</g>
<!-- Node3 -->
<g id="node3" class="node">
<title>Node3</title>
<g id="a_node3"><a xlink:href="classAxisRaw.html#acadbd2b7e00e34417c426fa91c8d7c51" target="_top" xlink:title=" ">
<polygon fill="none" stroke="black" points="309,-261.5 309,-280.5 406,-280.5 406,-261.5 309,-261.5"/>
<text text-anchor="middle" x="357.5" y="-268.5" font-family="Helvetica,sans-Serif" font-size="10.00">AxisRaw::getLen</text>
</a>
</g>
</g>
<!-- Node1&#45;&gt;Node3 -->
<g id="edge2" class="edge">
<title>Node1&#45;&gt;Node3</title>
<path fill="none" stroke="midnightblue" d="M101.18,-250.91C155.21,-255.16 241.47,-261.95 298.55,-266.44"/>
<polygon fill="midnightblue" stroke="midnightblue" points="298.61,-269.96 308.85,-267.25 299.15,-262.98 298.61,-269.96"/>
</g>
<!-- Node5 -->
<g id="node5" class="node">
<title>Node5</title>
<g id="a_node5"><a xlink:href="group__NTS__SIM.html#ga398d1af1dfb28534249e0705860c440d" target="_top" xlink:title="Checks if a file has a &quot;.dat&quot; extension.">
<polygon fill="none" stroke="black" points="168.5,-218.5 168.5,-237.5 227.5,-237.5 227.5,-218.5 168.5,-218.5"/>
<text text-anchor="middle" x="198" y="-225.5" font-family="Helvetica,sans-Serif" font-size="10.00">isDatFile</text>
</a>
</g>
</g>
<!-- Node1&#45;&gt;Node5 -->
<g id="edge4" class="edge">
<title>Node1&#45;&gt;Node5</title>
<path fill="none" stroke="midnightblue" d="M101.17,-240.51C119.71,-238.09 140.49,-235.38 157.94,-233.1"/>
<polygon fill="midnightblue" stroke="midnightblue" points="158.87,-236.51 168.33,-231.74 157.96,-229.57 158.87,-236.51"/>
</g>
<!-- Node6 -->
<g id="node6" class="node">
<title>Node6</title>
<g id="a_node6"><a xlink:href="group__NTS__SIM.html#gad3c7d60ad2a2645c46baa9f996b7645e" target="_top" xlink:title="Retrieve an Axis raw data chunk from a file.">
<polygon fill="none" stroke="black" points="137,-161.5 137,-180.5 259,-180.5 259,-161.5 137,-161.5"/>
<text text-anchor="middle" x="198" y="-168.5" font-family="Helvetica,sans-Serif" font-size="10.00">readAxisRawFromFile</text>
</a>
</g>
</g>
<!-- Node1&#45;&gt;Node6 -->
<g id="edge5" class="edge">
<title>Node1&#45;&gt;Node6</title>
<path fill="none" stroke="midnightblue" d="M69.93,-237.37C95.07,-224.24 140.33,-200.6 169.5,-185.36"/>
<polygon fill="midnightblue" stroke="midnightblue" points="171.48,-188.28 178.72,-180.55 168.24,-182.07 171.48,-188.28"/>
</g>
<!-- Node4 -->
<g id="node4" class="node">
<title>Node4</title>
<g id="a_node4"><a xlink:href="classAxisRaw.html#aec8718820338b67381cce084ba407063" target="_top" xlink:title=" ">
<polygon fill="none" stroke="black" points="617,-247.5 617,-266.5 732,-266.5 732,-247.5 617,-247.5"/>
<text text-anchor="middle" x="674.5" y="-254.5" font-family="Helvetica,sans-Serif" font-size="10.00">AxisRaw::keepToLen</text>
</a>
</g>
</g>
<!-- Node3&#45;&gt;Node4 -->
<g id="edge3" class="edge">
<title>Node3&#45;&gt;Node4</title>
<path fill="none" stroke="midnightblue" d="M406.34,-268.87C459.79,-266.5 546.68,-262.64 606.78,-259.97"/>
<polygon fill="midnightblue" stroke="midnightblue" points="607.1,-263.45 616.94,-259.51 606.79,-256.46 607.1,-263.45"/>
</g>
<!-- Node7 -->
<g id="node7" class="node">
<title>Node7</title>
<g id="a_node7"><a xlink:href="group__NTS__SIM.html#ga1add155284d4605102a262fdc5a5657b" target="_top" xlink:title="Retrieve an AxisRaw chunk from a string.">
<polygon fill="none" stroke="black" points="295,-123.5 295,-142.5 420,-142.5 420,-123.5 295,-123.5"/>
<text text-anchor="middle" x="357.5" y="-130.5" font-family="Helvetica,sans-Serif" font-size="10.00">readAxisRawFromLine</text>
</a>
</g>
</g>
<!-- Node6&#45;&gt;Node7 -->
<g id="edge6" class="edge">
<title>Node6&#45;&gt;Node7</title>
<path fill="none" stroke="midnightblue" d="M238.74,-161.41C259.53,-156.4 285.16,-150.21 307.2,-144.89"/>
<polygon fill="midnightblue" stroke="midnightblue" points="308.14,-148.27 317.04,-142.52 306.5,-141.46 308.14,-148.27"/>
</g>
<!-- Node8 -->
<g id="node8" class="node">
<title>Node8</title>
<g id="a_node8"><a xlink:href="classAxisRaw.html#aeebcaf3646869bf5e2f39154cf14c499" target="_top" xlink:title=" ">
<polygon fill="none" stroke="black" points="470.5,-228.5 470.5,-247.5 566.5,-247.5 566.5,-228.5 470.5,-228.5"/>
<text text-anchor="middle" x="518.5" y="-235.5" font-family="Helvetica,sans-Serif" font-size="10.00">AxisRaw::isValid</text>
</a>
</g>
</g>
<!-- Node7&#45;&gt;Node8 -->
<g id="edge7" class="edge">
<title>Node7&#45;&gt;Node8</title>
<path fill="none" stroke="midnightblue" d="M366.89,-142.74C382.63,-160.42 418.4,-197.91 456,-219 459.89,-221.18 464.06,-223.14 468.33,-224.9"/>
<polygon fill="midnightblue" stroke="midnightblue" points="467.17,-228.21 477.76,-228.44 469.62,-221.65 467.17,-228.21"/>
</g>
<!-- Node9 -->
<g id="node9" class="node">
<title>Node9</title>
<g id="a_node9"><a xlink:href="group__NTS__SIM.html#ga66df4e53b356c882279264e247a90d54" target="_top" xlink:title="Converts a string of 16 HEX characters into an UINT64.">
<polygon fill="none" stroke="black" points="464.5,-190.5 464.5,-209.5 572.5,-209.5 572.5,-190.5 464.5,-190.5"/>
<text text-anchor="middle" x="518.5" y="-197.5" font-family="Helvetica,sans-Serif" font-size="10.00">myStrHexToUint64</text>
</a>
</g>
</g>
<!-- Node7&#45;&gt;Node9 -->
<g id="edge9" class="edge">
<title>Node7&#45;&gt;Node9</title>
<path fill="none" stroke="midnightblue" d="M375.74,-142.52C394.93,-152.88 427.07,-169.49 456,-181 461.59,-183.22 467.54,-185.35 473.47,-187.32"/>
<polygon fill="midnightblue" stroke="midnightblue" points="472.74,-190.77 483.33,-190.49 474.88,-184.1 472.74,-190.77"/>
</g>
<!-- Node10 -->
<g id="node10" class="node">
<title>Node10</title>
<g id="a_node10"><a xlink:href="group__NTS__SIM.html#gab66e0aa75993e5a780692b5b34ca44c8" target="_top" xlink:title="Converts a string of 2 HEX characters into an UINT8.">
<polygon fill="none" stroke="black" points="467.5,-152.5 467.5,-171.5 569.5,-171.5 569.5,-152.5 467.5,-152.5"/>
<text text-anchor="middle" x="518.5" y="-159.5" font-family="Helvetica,sans-Serif" font-size="10.00">myStrHexToUint8</text>
</a>
</g>
</g>
<!-- Node7&#45;&gt;Node10 -->
<g id="edge10" class="edge">
<title>Node7&#45;&gt;Node10</title>
<path fill="none" stroke="midnightblue" d="M411,-142.58C425.92,-145.3 442.27,-148.28 457.59,-151.07"/>
<polygon fill="midnightblue" stroke="midnightblue" points="457.01,-154.53 467.48,-152.88 458.27,-147.64 457.01,-154.53"/>
</g>
<!-- Node11 -->
<g id="node11" class="node">
<title>Node11</title>
<g id="a_node11"><a xlink:href="group__NTS__SIM.html#ga25dcee3dd54a7838781e963a097cb3f6" target="_top" xlink:title="Brakes a string into tokens by using the &#39;delimiter&#39; character.">
<polygon fill="none" stroke="black" points="479.5,-114.5 479.5,-133.5 557.5,-133.5 557.5,-114.5 479.5,-114.5"/>
<text text-anchor="middle" x="518.5" y="-121.5" font-family="Helvetica,sans-Serif" font-size="10.00">myTokenizer</text>
</a>
</g>
</g>
<!-- Node7&#45;&gt;Node11 -->
<g id="edge11" class="edge">
<title>Node7&#45;&gt;Node11</title>
<path fill="none" stroke="midnightblue" d="M420.43,-129.49C436.58,-128.58 453.75,-127.61 469.09,-126.74"/>
<polygon fill="midnightblue" stroke="midnightblue" points="469.6,-130.22 479.38,-126.16 469.2,-123.23 469.6,-130.22"/>
</g>
<!-- Node12 -->
<g id="node12" class="node">
<title>Node12</title>
<g id="a_node12"><a xlink:href="classAxisRaw.html#aa3f30a26f59cb6430ffd9196ab30c6d6" target="_top" xlink:title=" ">
<polygon fill="none" stroke="black" points="456,-76.5 456,-95.5 581,-95.5 581,-76.5 456,-76.5"/>
<text text-anchor="middle" x="518.5" y="-83.5" font-family="Helvetica,sans-Serif" font-size="10.00">AxisRaw::setLE_TData</text>
</a>
</g>
</g>
<!-- Node7&#45;&gt;Node12 -->
<g id="edge12" class="edge">
<title>Node7&#45;&gt;Node12</title>
<path fill="none" stroke="midnightblue" d="M390.68,-123.49C415.06,-116.28 448.77,-106.32 475.31,-98.47"/>
<polygon fill="midnightblue" stroke="midnightblue" points="476.5,-101.77 485.1,-95.58 474.52,-95.06 476.5,-101.77"/>
</g>
<!-- Node13 -->
<g id="node13" class="node">
<title>Node13</title>
<g id="a_node13"><a xlink:href="classAxisRaw.html#ae8f59ce9fd52536106de4db99df4558e" target="_top" xlink:title=" ">
<polygon fill="none" stroke="black" points="456,-38.5 456,-57.5 581,-57.5 581,-38.5 456,-38.5"/>
<text text-anchor="middle" x="518.5" y="-45.5" font-family="Helvetica,sans-Serif" font-size="10.00">AxisRaw::setLE_TKeep</text>
</a>
</g>
</g>
<!-- Node7&#45;&gt;Node13 -->
<g id="edge13" class="edge">
<title>Node7&#45;&gt;Node13</title>
<path fill="none" stroke="midnightblue" d="M370.11,-123.45C387.72,-109.37 422.64,-83 456,-67 460.67,-64.76 465.66,-62.71 470.7,-60.85"/>
<polygon fill="midnightblue" stroke="midnightblue" points="472.08,-64.08 480.4,-57.52 469.8,-57.46 472.08,-64.08"/>
</g>
<!-- Node14 -->
<g id="node14" class="node">
<title>Node14</title>
<g id="a_node14"><a xlink:href="classAxisRaw.html#a7fd855df91177afa363d72b3eb17af25" target="_top" xlink:title=" ">
<polygon fill="none" stroke="black" points="457.5,-0.5 457.5,-19.5 579.5,-19.5 579.5,-0.5 457.5,-0.5"/>
<text text-anchor="middle" x="518.5" y="-7.5" font-family="Helvetica,sans-Serif" font-size="10.00">AxisRaw::setLE_TLast</text>
</a>
</g>
</g>
<!-- Node7&#45;&gt;Node14 -->
<g id="edge14" class="edge">
<title>Node7&#45;&gt;Node14</title>
<path fill="none" stroke="midnightblue" d="M364.85,-123.4C378.85,-102.98 414.45,-54.97 456,-29 459.37,-26.89 462.99,-25.01 466.72,-23.32"/>
<polygon fill="midnightblue" stroke="midnightblue" points="468.2,-26.5 476.17,-19.52 465.58,-20 468.2,-26.5"/>
</g>
<!-- Node8&#45;&gt;Node4 -->
<g id="edge8" class="edge">
<title>Node8&#45;&gt;Node4</title>
<path fill="none" stroke="midnightblue" d="M566.54,-243.8C579.23,-245.37 593.2,-247.09 606.75,-248.76"/>
<polygon fill="midnightblue" stroke="midnightblue" points="606.64,-252.28 616.99,-250.03 607.49,-245.33 606.64,-252.28"/>
</g>
</g>
</svg>
