<?xml version="1.0" encoding="UTF-8" standalone="no"?>
<!DOCTYPE svg PUBLIC "-//W3C//DTD SVG 1.1//EN"
 "http://www.w3.org/Graphics/SVG/1.1/DTD/svg11.dtd">
<!-- Generated by graphviz version 2.43.0 (0)
 -->
<!-- Title: pTcpCOn Pages: 1 -->
<svg width="256pt" height="104pt"
 viewBox="0.00 0.00 256.00 104.00" xmlns="http://www.w3.org/2000/svg" xmlns:xlink="http://www.w3.org/1999/xlink">
<g id="graph0" class="graph" transform="scale(1 1) rotate(0) translate(4 100)">
<title>pTcpCOn</title>
<!-- Node1 -->
<g id="node1" class="node">
<title>Node1</title>
<g id="a_node1"><a xlink:title="Client connection to remote HOST or FPGA socket (COn).">
<polygon fill="#bfbfbf" stroke="black" points="0,-38.5 0,-57.5 59,-57.5 59,-38.5 0,-38.5"/>
<text text-anchor="middle" x="29.5" y="-45.5" font-family="Helvetica,sans-Serif" font-size="10.00">pTcpCOn</text>
</a>
</g>
</g>
<!-- Node2 -->
<g id="node2" class="node">
<title>Node2</title>
<g id="a_node2"><a xlink:href="group__NAL.html#gaac0fce87022d9832782060a0cd99584c" target="_top" xlink:title=" ">
<polygon fill="none" stroke="black" points="95,-76.5 95,-95.5 248,-95.5 248,-76.5 95,-76.5"/>
<text text-anchor="middle" x="171.5" y="-83.5" font-family="Helvetica,sans-Serif" font-size="10.00">getRemoteIpAddrFromTriple</text>
</a>
</g>
</g>
<!-- Node1&#45;&gt;Node2 -->
<g id="edge1" class="edge">
<title>Node1&#45;&gt;Node2</title>
<path fill="none" stroke="midnightblue" d="M59.01,-56.66C70.2,-60 83.18,-63.77 95,-67 103.53,-69.33 112.62,-71.71 121.44,-73.96"/>
<polygon fill="midnightblue" stroke="midnightblue" points="120.68,-77.38 131.24,-76.43 122.4,-70.59 120.68,-77.38"/>
</g>
<!-- Node3 -->
<g id="node3" class="node">
<title>Node3</title>
<g id="a_node3"><a xlink:href="group__NAL.html#gab5a93906a4f604dc3c8af0afb64270e1" target="_top" xlink:title=" ">
<polygon fill="none" stroke="black" points="101,-38.5 101,-57.5 242,-57.5 242,-38.5 101,-38.5"/>
<text text-anchor="middle" x="171.5" y="-45.5" font-family="Helvetica,sans-Serif" font-size="10.00">getRemotePortFromTriple</text>
</a>
</g>
</g>
<!-- Node1&#45;&gt;Node3 -->
<g id="edge2" class="edge">
<title>Node1&#45;&gt;Node3</title>
<path fill="none" stroke="midnightblue" d="M59.17,-48C68.48,-48 79.31,-48 90.49,-48"/>
<polygon fill="midnightblue" stroke="midnightblue" points="90.81,-51.5 100.81,-48 90.81,-44.5 90.81,-51.5"/>
</g>
<!-- Node4 -->
<g id="node4" class="node">
<title>Node4</title>
<g id="a_node4"><a xlink:href="group__NTS.html#ga868a2a0831dcd26fa88eadae8f61f92c" target="_top" xlink:title="Print a socket address.">
<polygon fill="none" stroke="black" points="129,-0.5 129,-19.5 214,-19.5 214,-0.5 129,-0.5"/>
<text text-anchor="middle" x="171.5" y="-7.5" font-family="Helvetica,sans-Serif" font-size="10.00">printSockAddr</text>
</a>
</g>
</g>
<!-- Node1&#45;&gt;Node4 -->
<g id="edge3" class="edge">
<title>Node1&#45;&gt;Node4</title>
<path fill="none" stroke="midnightblue" d="M59.01,-39.34C70.2,-36 83.18,-32.23 95,-29 103.53,-26.67 112.62,-24.29 121.44,-22.04"/>
<polygon fill="midnightblue" stroke="midnightblue" points="122.4,-25.41 131.24,-19.57 120.68,-18.62 122.4,-25.41"/>
</g>
</g>
</svg>
