<?xml version="1.0" encoding="UTF-8" standalone="no"?>
<!DOCTYPE svg PUBLIC "-//W3C//DTD SVG 1.1//EN"
 "http://www.w3.org/Graphics/SVG/1.1/DTD/svg11.dtd">
<!-- Generated by graphviz version 2.43.0 (0)
 -->
<!-- Title: writeSocketPairToFile Pages: 1 -->
<svg width="389pt" height="142pt"
 viewBox="0.00 0.00 389.00 142.00" xmlns="http://www.w3.org/2000/svg" xmlns:xlink="http://www.w3.org/1999/xlink">
<g id="graph0" class="graph" transform="scale(1 1) rotate(0) translate(4 138)">
<title>writeSocketPairToFile</title>
<!-- Node1 -->
<g id="node1" class="node">
<title>Node1</title>
<g id="a_node1"><a xlink:title="Dump a SocketPair to a file.">
<polygon fill="#bfbfbf" stroke="black" points="262,-57.5 262,-76.5 381,-76.5 381,-57.5 262,-57.5"/>
<text text-anchor="middle" x="321.5" y="-64.5" font-family="Helvetica,sans-Serif" font-size="10.00">writeSocketPairToFile</text>
</a>
</g>
</g>
<!-- Node2 -->
<g id="node2" class="node">
<title>Node2</title>
<g id="a_node2"><a xlink:href="group__NTS__UOE__TEST.html#ga40610514eb0285c8afbe8cfe003638f6" target="_top" xlink:title="Create the golden Rx APP reference files from an input IPRX test file.">
<polygon fill="none" stroke="black" points="93,-114.5 93,-133.5 210,-133.5 210,-114.5 93,-114.5"/>
<text text-anchor="middle" x="151.5" y="-121.5" font-family="Helvetica,sans-Serif" font-size="10.00">createGoldenRxFiles</text>
</a>
</g>
</g>
<!-- Node1&#45;&gt;Node2 -->
<g id="edge1" class="edge">
<title>Node1&#45;&gt;Node2</title>
<path fill="none" stroke="midnightblue" d="M289.74,-80.55C271.44,-88.31 247.64,-97.88 226,-105 215.48,-108.46 203.95,-111.69 193.21,-114.48"/>
<polygon fill="midnightblue" stroke="midnightblue" points="291.21,-83.72 299.03,-76.56 288.46,-77.29 291.21,-83.72"/>
</g>
<!-- Node4 -->
<g id="node4" class="node">
<title>Node4</title>
<g id="a_node4"><a xlink:href="group__udp__app__flash.html#gaed659893ff9e142d02f969213e4a501f" target="_top" xlink:title="Create the golden UDP Tx files from an input test file.">
<polygon fill="none" stroke="black" points="93.5,-76.5 93.5,-95.5 209.5,-95.5 209.5,-76.5 93.5,-76.5"/>
<text text-anchor="middle" x="151.5" y="-83.5" font-family="Helvetica,sans-Serif" font-size="10.00">createGoldenTxFiles</text>
</a>
</g>
</g>
<!-- Node1&#45;&gt;Node4 -->
<g id="edge3" class="edge">
<title>Node1&#45;&gt;Node4</title>
<path fill="none" stroke="midnightblue" d="M251.67,-74.78C237.66,-76.37 223.07,-78.02 209.53,-79.55"/>
<polygon fill="midnightblue" stroke="midnightblue" points="252.2,-78.25 261.74,-73.65 251.41,-71.29 252.2,-78.25"/>
</g>
<!-- Node5 -->
<g id="node5" class="node">
<title>Node5</title>
<g id="a_node5"><a xlink:href="group__NTS__UOE__TEST.html#gaade9ca57b9afc3b09367953829101ba0" target="_top" xlink:title="Empty an UdpMeta stream to a DAT file.">
<polygon fill="none" stroke="black" points="77,-38.5 77,-57.5 226,-57.5 226,-38.5 77,-38.5"/>
<text text-anchor="middle" x="151.5" y="-45.5" font-family="Helvetica,sans-Serif" font-size="10.00">drainUdpMetaStreamToFile</text>
</a>
</g>
</g>
<!-- Node1&#45;&gt;Node5 -->
<g id="edge4" class="edge">
<title>Node1&#45;&gt;Node5</title>
<path fill="none" stroke="midnightblue" d="M251.66,-59.21C243.3,-58.27 234.72,-57.3 226.29,-56.35"/>
<polygon fill="midnightblue" stroke="midnightblue" points="251.41,-62.71 261.74,-60.35 252.2,-55.75 251.41,-62.71"/>
</g>
<!-- Node6 -->
<g id="node6" class="node">
<title>Node6</title>
<g id="a_node6"><a xlink:href="group__udp__shell__if.html#gad2f4a79a5d25be1a5112d627ca6e3dc0" target="_top" xlink:title="Emulate behavior of the SHELL/NTS/UDP Offload Engine (UOE).">
<polygon fill="none" stroke="black" points="129.5,-0.5 129.5,-19.5 173.5,-19.5 173.5,-0.5 129.5,-0.5"/>
<text text-anchor="middle" x="151.5" y="-7.5" font-family="Helvetica,sans-Serif" font-size="10.00">pUOE</text>
</a>
</g>
</g>
<!-- Node1&#45;&gt;Node6 -->
<g id="edge6" class="edge">
<title>Node1&#45;&gt;Node6</title>
<path fill="none" stroke="midnightblue" d="M289.74,-53.45C271.44,-45.69 247.64,-36.12 226,-29 208.6,-23.28 188.42,-18.17 173.62,-14.69"/>
<polygon fill="midnightblue" stroke="midnightblue" points="288.46,-56.71 299.03,-57.44 291.21,-50.28 288.46,-56.71"/>
</g>
<!-- Node3 -->
<g id="node3" class="node">
<title>Node3</title>
<g id="a_node3"><a xlink:href="group__NTS__UOE__TEST.html#ga0ddf1224851353fc92bfbff6f499fa97" target="_top" xlink:title="Main function.">
<polygon fill="none" stroke="black" points="0,-76.5 0,-95.5 41,-95.5 41,-76.5 0,-76.5"/>
<text text-anchor="middle" x="20.5" y="-83.5" font-family="Helvetica,sans-Serif" font-size="10.00">main</text>
</a>
</g>
</g>
<!-- Node2&#45;&gt;Node3 -->
<g id="edge2" class="edge">
<title>Node2&#45;&gt;Node3</title>
<path fill="none" stroke="midnightblue" d="M101.55,-111.91C93.33,-109.71 84.9,-107.37 77,-105 65,-101.4 51.72,-96.87 41.16,-93.14"/>
<polygon fill="midnightblue" stroke="midnightblue" points="100.88,-115.35 111.44,-114.5 102.65,-108.58 100.88,-115.35"/>
</g>
<!-- Node5&#45;&gt;Node3 -->
<g id="edge5" class="edge">
<title>Node5&#45;&gt;Node3</title>
<path fill="none" stroke="midnightblue" d="M101.55,-60.09C93.33,-62.29 84.9,-64.63 77,-67 65,-70.6 51.72,-75.13 41.16,-78.86"/>
<polygon fill="midnightblue" stroke="midnightblue" points="102.65,-63.42 111.44,-57.5 100.88,-56.65 102.65,-63.42"/>
</g>
<!-- Node7 -->
<g id="node7" class="node">
<title>Node7</title>
<g id="a_node7"><a xlink:href="group__udp__shell__if.html#ga0ddf1224851353fc92bfbff6f499fa97" target="_top" xlink:title="Main function for the test of the UDP Shell Interface (USIF).">
<polygon fill="none" stroke="black" points="0,-0.5 0,-19.5 41,-19.5 41,-0.5 0,-0.5"/>
<text text-anchor="middle" x="20.5" y="-7.5" font-family="Helvetica,sans-Serif" font-size="10.00">main</text>
</a>
</g>
</g>
<!-- Node6&#45;&gt;Node7 -->
<g id="edge7" class="edge">
<title>Node6&#45;&gt;Node7</title>
<path fill="none" stroke="midnightblue" d="M119.34,-10C95.03,-10 62.02,-10 41.23,-10"/>
<polygon fill="midnightblue" stroke="midnightblue" points="119.49,-13.5 129.49,-10 119.49,-6.5 119.49,-13.5"/>
</g>
</g>
</svg>
