<?xml version="1.0" encoding="UTF-8" standalone="no"?>
<!DOCTYPE svg PUBLIC "-//W3C//DTD SVG 1.1//EN"
 "http://www.w3.org/Graphics/SVG/1.1/DTD/svg11.dtd">
<!-- Generated by graphviz version 2.43.0 (0)
 -->
<!-- Title: readAxisRawFromLine Pages: 1 -->
<svg width="445pt" height="256pt"
 viewBox="0.00 0.00 445.00 256.00" xmlns="http://www.w3.org/2000/svg" xmlns:xlink="http://www.w3.org/1999/xlink">
<g id="graph0" class="graph" transform="scale(1 1) rotate(0) translate(4 252)">
<title>readAxisRawFromLine</title>
<!-- Node1 -->
<g id="node1" class="node">
<title>Node1</title>
<g id="a_node1"><a xlink:title="Retrieve an AxisRaw chunk from a string.">
<polygon fill="#bfbfbf" stroke="black" points="0,-114.5 0,-133.5 125,-133.5 125,-114.5 0,-114.5"/>
<text text-anchor="middle" x="62.5" y="-121.5" font-family="Helvetica,sans-Serif" font-size="10.00">readAxisRawFromLine</text>
</a>
</g>
</g>
<!-- Node2 -->
<g id="node2" class="node">
<title>Node2</title>
<g id="a_node2"><a xlink:href="classAxisRaw.html#aeebcaf3646869bf5e2f39154cf14c499" target="_top" xlink:title=" ">
<polygon fill="none" stroke="black" points="175.5,-228.5 175.5,-247.5 271.5,-247.5 271.5,-228.5 175.5,-228.5"/>
<text text-anchor="middle" x="223.5" y="-235.5" font-family="Helvetica,sans-Serif" font-size="10.00">AxisRaw::isValid</text>
</a>
</g>
</g>
<!-- Node1&#45;&gt;Node2 -->
<g id="edge1" class="edge">
<title>Node1&#45;&gt;Node2</title>
<path fill="none" stroke="midnightblue" d="M70.72,-133.6C85.55,-152.66 121.38,-195.46 161,-219 164.62,-221.15 168.51,-223.08 172.51,-224.81"/>
<polygon fill="midnightblue" stroke="midnightblue" points="171.37,-228.12 181.96,-228.48 173.9,-221.59 171.37,-228.12"/>
</g>
<!-- Node4 -->
<g id="node4" class="node">
<title>Node4</title>
<g id="a_node4"><a xlink:href="group__NTS__SIM.html#ga66df4e53b356c882279264e247a90d54" target="_top" xlink:title="Converts a string of 16 HEX characters into an UINT64.">
<polygon fill="none" stroke="black" points="169.5,-190.5 169.5,-209.5 277.5,-209.5 277.5,-190.5 169.5,-190.5"/>
<text text-anchor="middle" x="223.5" y="-197.5" font-family="Helvetica,sans-Serif" font-size="10.00">myStrHexToUint64</text>
</a>
</g>
</g>
<!-- Node1&#45;&gt;Node4 -->
<g id="edge3" class="edge">
<title>Node1&#45;&gt;Node4</title>
<path fill="none" stroke="midnightblue" d="M77.49,-133.57C95.95,-145.87 129.77,-167.27 161,-181 166.05,-183.22 171.44,-185.29 176.85,-187.19"/>
<polygon fill="midnightblue" stroke="midnightblue" points="175.95,-190.58 186.54,-190.41 178.16,-183.93 175.95,-190.58"/>
</g>
<!-- Node5 -->
<g id="node5" class="node">
<title>Node5</title>
<g id="a_node5"><a xlink:href="group__NTS__SIM.html#gab66e0aa75993e5a780692b5b34ca44c8" target="_top" xlink:title="Converts a string of 2 HEX characters into an UINT8.">
<polygon fill="none" stroke="black" points="172.5,-152.5 172.5,-171.5 274.5,-171.5 274.5,-152.5 172.5,-152.5"/>
<text text-anchor="middle" x="223.5" y="-159.5" font-family="Helvetica,sans-Serif" font-size="10.00">myStrHexToUint8</text>
</a>
</g>
</g>
<!-- Node1&#45;&gt;Node5 -->
<g id="edge4" class="edge">
<title>Node1&#45;&gt;Node5</title>
<path fill="none" stroke="midnightblue" d="M103.62,-133.59C124.6,-138.6 150.48,-144.79 172.73,-150.11"/>
<polygon fill="midnightblue" stroke="midnightblue" points="172.13,-153.56 182.67,-152.48 173.75,-146.75 172.13,-153.56"/>
</g>
<!-- Node6 -->
<g id="node6" class="node">
<title>Node6</title>
<g id="a_node6"><a xlink:href="group__NTS__SIM.html#ga25dcee3dd54a7838781e963a097cb3f6" target="_top" xlink:title="Brakes a string into tokens by using the &#39;delimiter&#39; character.">
<polygon fill="none" stroke="black" points="184.5,-114.5 184.5,-133.5 262.5,-133.5 262.5,-114.5 184.5,-114.5"/>
<text text-anchor="middle" x="223.5" y="-121.5" font-family="Helvetica,sans-Serif" font-size="10.00">myTokenizer</text>
</a>
</g>
</g>
<!-- Node1&#45;&gt;Node6 -->
<g id="edge5" class="edge">
<title>Node1&#45;&gt;Node6</title>
<path fill="none" stroke="midnightblue" d="M125.43,-124C141.58,-124 158.75,-124 174.09,-124"/>
<polygon fill="midnightblue" stroke="midnightblue" points="174.38,-127.5 184.38,-124 174.38,-120.5 174.38,-127.5"/>
</g>
<!-- Node7 -->
<g id="node7" class="node">
<title>Node7</title>
<g id="a_node7"><a xlink:href="classAxisRaw.html#aa3f30a26f59cb6430ffd9196ab30c6d6" target="_top" xlink:title=" ">
<polygon fill="none" stroke="black" points="161,-76.5 161,-95.5 286,-95.5 286,-76.5 161,-76.5"/>
<text text-anchor="middle" x="223.5" y="-83.5" font-family="Helvetica,sans-Serif" font-size="10.00">AxisRaw::setLE_TData</text>
</a>
</g>
</g>
<!-- Node1&#45;&gt;Node7 -->
<g id="edge6" class="edge">
<title>Node1&#45;&gt;Node7</title>
<path fill="none" stroke="midnightblue" d="M103.62,-114.41C124.6,-109.4 150.48,-103.21 172.73,-97.89"/>
<polygon fill="midnightblue" stroke="midnightblue" points="173.75,-101.25 182.67,-95.52 172.13,-94.44 173.75,-101.25"/>
</g>
<!-- Node8 -->
<g id="node8" class="node">
<title>Node8</title>
<g id="a_node8"><a xlink:href="classAxisRaw.html#ae8f59ce9fd52536106de4db99df4558e" target="_top" xlink:title=" ">
<polygon fill="none" stroke="black" points="161,-38.5 161,-57.5 286,-57.5 286,-38.5 161,-38.5"/>
<text text-anchor="middle" x="223.5" y="-45.5" font-family="Helvetica,sans-Serif" font-size="10.00">AxisRaw::setLE_TKeep</text>
</a>
</g>
</g>
<!-- Node1&#45;&gt;Node8 -->
<g id="edge7" class="edge">
<title>Node1&#45;&gt;Node8</title>
<path fill="none" stroke="midnightblue" d="M77.49,-114.43C95.95,-102.13 129.77,-80.73 161,-67 166.05,-64.78 171.44,-62.71 176.85,-60.81"/>
<polygon fill="midnightblue" stroke="midnightblue" points="178.16,-64.07 186.54,-57.59 175.95,-57.42 178.16,-64.07"/>
</g>
<!-- Node9 -->
<g id="node9" class="node">
<title>Node9</title>
<g id="a_node9"><a xlink:href="classAxisRaw.html#a7fd855df91177afa363d72b3eb17af25" target="_top" xlink:title=" ">
<polygon fill="none" stroke="black" points="162.5,-0.5 162.5,-19.5 284.5,-19.5 284.5,-0.5 162.5,-0.5"/>
<text text-anchor="middle" x="223.5" y="-7.5" font-family="Helvetica,sans-Serif" font-size="10.00">AxisRaw::setLE_TLast</text>
</a>
</g>
</g>
<!-- Node1&#45;&gt;Node9 -->
<g id="edge8" class="edge">
<title>Node1&#45;&gt;Node9</title>
<path fill="none" stroke="midnightblue" d="M70.72,-114.4C85.55,-95.34 121.38,-52.54 161,-29 164.62,-26.85 168.51,-24.92 172.51,-23.19"/>
<polygon fill="midnightblue" stroke="midnightblue" points="173.9,-26.41 181.96,-19.52 171.37,-19.88 173.9,-26.41"/>
</g>
<!-- Node3 -->
<g id="node3" class="node">
<title>Node3</title>
<g id="a_node3"><a xlink:href="classAxisRaw.html#aec8718820338b67381cce084ba407063" target="_top" xlink:title=" ">
<polygon fill="none" stroke="black" points="322,-228.5 322,-247.5 437,-247.5 437,-228.5 322,-228.5"/>
<text text-anchor="middle" x="379.5" y="-235.5" font-family="Helvetica,sans-Serif" font-size="10.00">AxisRaw::keepToLen</text>
</a>
</g>
</g>
<!-- Node2&#45;&gt;Node3 -->
<g id="edge2" class="edge">
<title>Node2&#45;&gt;Node3</title>
<path fill="none" stroke="midnightblue" d="M271.54,-238C284.23,-238 298.2,-238 311.75,-238"/>
<polygon fill="midnightblue" stroke="midnightblue" points="311.99,-241.5 321.99,-238 311.99,-234.5 311.99,-241.5"/>
</g>
</g>
</svg>
