<?xml version="1.0" encoding="UTF-8" standalone="no"?>
<!DOCTYPE svg PUBLIC "-//W3C//DTD SVG 1.1//EN"
 "http://www.w3.org/Graphics/SVG/1.1/DTD/svg11.dtd">
<!-- Generated by graphviz version 2.43.0 (0)
 -->
<!-- Title: pReadPath Pages: 1 -->
<svg width="380pt" height="256pt"
 viewBox="0.00 0.00 380.00 256.00" xmlns="http://www.w3.org/2000/svg" xmlns:xlink="http://www.w3.org/1999/xlink">
<g id="graph0" class="graph" transform="scale(1 1) rotate(0) translate(4 252)">
<title>pReadPath</title>
<!-- Node1 -->
<g id="node1" class="node">
<title>Node1</title>
<g id="a_node1"><a xlink:title="Read Path (RDp)">
<polygon fill="#bfbfbf" stroke="black" points="0,-114.5 0,-133.5 68,-133.5 68,-114.5 0,-114.5"/>
<text text-anchor="middle" x="34" y="-121.5" font-family="Helvetica,sans-Serif" font-size="10.00">pReadPath</text>
</a>
</g>
</g>
<!-- Node2 -->
<g id="node2" class="node">
<title>Node2</title>
<g id="a_node2"><a xlink:href="udp_8cpp.html#ga3179abf5c515026aad3e82047a1dd9a3" target="_top" xlink:title=" ">
<polygon fill="none" stroke="black" points="118.5,-228.5 118.5,-247.5 195.5,-247.5 195.5,-228.5 118.5,-228.5"/>
<text text-anchor="middle" x="157" y="-235.5" font-family="Helvetica,sans-Serif" font-size="10.00">byteSwap16</text>
</a>
</g>
</g>
<!-- Node1&#45;&gt;Node2 -->
<g id="edge1" class="edge">
<title>Node1&#45;&gt;Node2</title>
<path fill="none" stroke="midnightblue" d="M39.48,-133.53C48.84,-152.47 72.27,-195.06 104,-219 106.45,-220.85 109.1,-222.54 111.87,-224.07"/>
<polygon fill="midnightblue" stroke="midnightblue" points="110.43,-227.26 120.95,-228.45 113.47,-220.95 110.43,-227.26"/>
</g>
<!-- Node3 -->
<g id="node3" class="node">
<title>Node3</title>
<g id="a_node3"><a xlink:href="udp_8cpp.html#ga2355e0cecd0576470bca0178c4c1aec2" target="_top" xlink:title=" ">
<polygon fill="none" stroke="black" points="118.5,-190.5 118.5,-209.5 195.5,-209.5 195.5,-190.5 118.5,-190.5"/>
<text text-anchor="middle" x="157" y="-197.5" font-family="Helvetica,sans-Serif" font-size="10.00">byteSwap32</text>
</a>
</g>
</g>
<!-- Node1&#45;&gt;Node3 -->
<g id="edge2" class="edge">
<title>Node1&#45;&gt;Node3</title>
<path fill="none" stroke="midnightblue" d="M44.48,-133.66C57.1,-146.06 80.54,-167.56 104,-181 107.47,-182.99 111.18,-184.83 114.96,-186.52"/>
<polygon fill="midnightblue" stroke="midnightblue" points="113.85,-189.85 124.43,-190.42 116.51,-183.37 113.85,-189.85"/>
</g>
<!-- Node4 -->
<g id="node4" class="node">
<title>Node4</title>
<g id="a_node4"><a xlink:href="classAxisRaw.html#a7034bcf8cf143fb2bb9bfc46e70a7d6b" target="_top" xlink:title=" ">
<polygon fill="none" stroke="black" points="246.5,-104.5 246.5,-123.5 371.5,-123.5 371.5,-104.5 246.5,-104.5"/>
<text text-anchor="middle" x="309" y="-111.5" font-family="Helvetica,sans-Serif" font-size="10.00">AxisRaw::getLE_TData</text>
</a>
</g>
</g>
<!-- Node1&#45;&gt;Node4 -->
<g id="edge3" class="edge">
<title>Node1&#45;&gt;Node4</title>
<path fill="none" stroke="midnightblue" d="M68.2,-122.78C109.65,-121.27 181.71,-118.63 236.04,-116.64"/>
<polygon fill="midnightblue" stroke="midnightblue" points="236.45,-120.12 246.31,-116.26 236.19,-113.13 236.45,-120.12"/>
</g>
<!-- Node5 -->
<g id="node5" class="node">
<title>Node5</title>
<g id="a_node5"><a xlink:href="classAxisRaw.html#acadbd2b7e00e34417c426fa91c8d7c51" target="_top" xlink:title=" ">
<polygon fill="none" stroke="black" points="108.5,-152.5 108.5,-171.5 205.5,-171.5 205.5,-152.5 108.5,-152.5"/>
<text text-anchor="middle" x="157" y="-159.5" font-family="Helvetica,sans-Serif" font-size="10.00">AxisRaw::getLen</text>
</a>
</g>
</g>
<!-- Node1&#45;&gt;Node5 -->
<g id="edge4" class="edge">
<title>Node1&#45;&gt;Node5</title>
<path fill="none" stroke="midnightblue" d="M65.53,-133.59C80.72,-138.36 99.29,-144.19 115.63,-149.32"/>
<polygon fill="midnightblue" stroke="midnightblue" points="114.89,-152.76 125.48,-152.41 116.98,-146.08 114.89,-152.76"/>
</g>
<!-- Node7 -->
<g id="node7" class="node">
<title>Node7</title>
<g id="a_node7"><a xlink:href="classAxisRaw.html#a42cd520c9b19f7c2fc6d2fc204cb30b7" target="_top" xlink:title=" ">
<polygon fill="none" stroke="black" points="104,-76.5 104,-95.5 210,-95.5 210,-76.5 104,-76.5"/>
<text text-anchor="middle" x="157" y="-83.5" font-family="Helvetica,sans-Serif" font-size="10.00">AxisRaw::getTLast</text>
</a>
</g>
</g>
<!-- Node1&#45;&gt;Node7 -->
<g id="edge6" class="edge">
<title>Node1&#45;&gt;Node7</title>
<path fill="none" stroke="midnightblue" d="M65.53,-114.41C80.72,-109.64 99.29,-103.81 115.63,-98.68"/>
<polygon fill="midnightblue" stroke="midnightblue" points="116.98,-101.92 125.48,-95.59 114.89,-95.24 116.98,-101.92"/>
</g>
<!-- Node8 -->
<g id="node8" class="node">
<title>Node8</title>
<g id="a_node8"><a xlink:href="group__NTS.html#ga5560d80c548e85eb53223a5e99410b7b" target="_top" xlink:title="Prints an Axis raw data chunk (used for debugging).">
<polygon fill="none" stroke="black" points="116.5,-38.5 116.5,-57.5 197.5,-57.5 197.5,-38.5 116.5,-38.5"/>
<text text-anchor="middle" x="157" y="-45.5" font-family="Helvetica,sans-Serif" font-size="10.00">printAxisRaw</text>
</a>
</g>
</g>
<!-- Node1&#45;&gt;Node8 -->
<g id="edge7" class="edge">
<title>Node1&#45;&gt;Node8</title>
<path fill="none" stroke="midnightblue" d="M44.48,-114.34C57.1,-101.94 80.54,-80.44 104,-67 107.47,-65.01 111.18,-63.17 114.96,-61.48"/>
<polygon fill="midnightblue" stroke="midnightblue" points="116.51,-64.63 124.43,-57.58 113.85,-58.15 116.51,-64.63"/>
</g>
<!-- Node11 -->
<g id="node11" class="node">
<title>Node11</title>
<g id="a_node11"><a xlink:href="group__NTS.html#ga868a2a0831dcd26fa88eadae8f61f92c" target="_top" xlink:title="Print a socket address.">
<polygon fill="none" stroke="black" points="114.5,-0.5 114.5,-19.5 199.5,-19.5 199.5,-0.5 114.5,-0.5"/>
<text text-anchor="middle" x="157" y="-7.5" font-family="Helvetica,sans-Serif" font-size="10.00">printSockAddr</text>
</a>
</g>
</g>
<!-- Node1&#45;&gt;Node11 -->
<g id="edge11" class="edge">
<title>Node1&#45;&gt;Node11</title>
<path fill="none" stroke="midnightblue" d="M39.48,-114.47C48.84,-95.53 72.27,-52.94 104,-29 106.45,-27.15 109.1,-25.46 111.87,-23.93"/>
<polygon fill="midnightblue" stroke="midnightblue" points="113.47,-27.05 120.95,-19.55 110.43,-20.74 113.47,-27.05"/>
</g>
<!-- Node6 -->
<g id="node6" class="node">
<title>Node6</title>
<g id="a_node6"><a xlink:href="classAxisRaw.html#aec8718820338b67381cce084ba407063" target="_top" xlink:title=" ">
<polygon fill="none" stroke="black" points="251.5,-152.5 251.5,-171.5 366.5,-171.5 366.5,-152.5 251.5,-152.5"/>
<text text-anchor="middle" x="309" y="-159.5" font-family="Helvetica,sans-Serif" font-size="10.00">AxisRaw::keepToLen</text>
</a>
</g>
</g>
<!-- Node5&#45;&gt;Node6 -->
<g id="edge5" class="edge">
<title>Node5&#45;&gt;Node6</title>
<path fill="none" stroke="midnightblue" d="M205.87,-162C217.08,-162 229.22,-162 241.09,-162"/>
<polygon fill="midnightblue" stroke="midnightblue" points="241.42,-165.5 251.42,-162 241.42,-158.5 241.42,-165.5"/>
</g>
<!-- Node8&#45;&gt;Node4 -->
<g id="edge8" class="edge">
<title>Node8&#45;&gt;Node4</title>
<path fill="none" stroke="midnightblue" d="M185.72,-57.57C193.63,-60.44 202.21,-63.72 210,-67 234.1,-77.15 260.83,-90.09 280.27,-99.82"/>
<polygon fill="midnightblue" stroke="midnightblue" points="278.95,-103.07 289.46,-104.44 282.1,-96.82 278.95,-103.07"/>
</g>
<!-- Node9 -->
<g id="node9" class="node">
<title>Node9</title>
<g id="a_node9"><a xlink:href="classAxisRaw.html#a4becd0ad3c51e3db2749e888f2f72e31" target="_top" xlink:title=" ">
<polygon fill="none" stroke="black" points="246,-47.5 246,-66.5 372,-66.5 372,-47.5 246,-47.5"/>
<text text-anchor="middle" x="309" y="-54.5" font-family="Helvetica,sans-Serif" font-size="10.00">AxisRaw::getLE_TKeep</text>
</a>
</g>
</g>
<!-- Node8&#45;&gt;Node9 -->
<g id="edge9" class="edge">
<title>Node8&#45;&gt;Node9</title>
<path fill="none" stroke="midnightblue" d="M197.8,-50.39C209.56,-51.09 222.81,-51.89 235.94,-52.68"/>
<polygon fill="midnightblue" stroke="midnightblue" points="235.74,-56.17 245.93,-53.28 236.16,-49.18 235.74,-56.17"/>
</g>
<!-- Node10 -->
<g id="node10" class="node">
<title>Node10</title>
<g id="a_node10"><a xlink:href="classAxisRaw.html#af8208752dcbb14911c5fda27d90a0ef4" target="_top" xlink:title=" ">
<polygon fill="none" stroke="black" points="248,-9.5 248,-28.5 370,-28.5 370,-9.5 248,-9.5"/>
<text text-anchor="middle" x="309" y="-16.5" font-family="Helvetica,sans-Serif" font-size="10.00">AxisRaw::getLE_TLast</text>
</a>
</g>
</g>
<!-- Node8&#45;&gt;Node10 -->
<g id="edge10" class="edge">
<title>Node8&#45;&gt;Node10</title>
<path fill="none" stroke="midnightblue" d="M197.8,-40.3C213.4,-37.29 231.63,-33.77 248.72,-30.46"/>
<polygon fill="midnightblue" stroke="midnightblue" points="249.46,-33.88 258.62,-28.55 248.13,-27.01 249.46,-33.88"/>
</g>
</g>
</svg>
