<?xml version="1.0" encoding="UTF-8" standalone="no"?>
<!DOCTYPE svg PUBLIC "-//W3C//DTD SVG 1.1//EN"
 "http://www.w3.org/Graphics/SVG/1.1/DTD/svg11.dtd">
<!-- Generated by graphviz version 2.43.0 (0)
 -->
<!-- Title: toecam Pages: 1 -->
<svg width="177pt" height="142pt"
 viewBox="0.00 0.00 177.00 142.00" xmlns="http://www.w3.org/2000/svg" xmlns:xlink="http://www.w3.org/1999/xlink">
<g id="graph0" class="graph" transform="scale(1 1) rotate(0) translate(4 138)">
<title>toecam</title>
<!-- Node1 -->
<g id="node1" class="node">
<title>Node1</title>
<g id="a_node1"><a xlink:title="Main process of the Content&#45;Addressable Memory (TOECAM).">
<polygon fill="#bfbfbf" stroke="black" points="0,-57.5 0,-76.5 53,-76.5 53,-57.5 0,-57.5"/>
<text text-anchor="middle" x="26.5" y="-64.5" font-family="Helvetica,sans-Serif" font-size="10.00">toecam</text>
</a>
</g>
</g>
<!-- Node2 -->
<g id="node2" class="node">
<title>Node2</title>
<g id="a_node2"><a xlink:href="group__NTS__TOECAM.html#ga640c19125981e37bc8bbb100ba244e80" target="_top" xlink:title="Remove a key&#45;value pair from the CAM array.">
<polygon fill="none" stroke="black" points="94,-114.5 94,-133.5 164,-133.5 164,-114.5 94,-114.5"/>
<text text-anchor="middle" x="129" y="-121.5" font-family="Helvetica,sans-Serif" font-size="10.00">camDelete</text>
</a>
</g>
</g>
<!-- Node1&#45;&gt;Node2 -->
<g id="edge1" class="edge">
<title>Node1&#45;&gt;Node2</title>
<path fill="none" stroke="midnightblue" d="M42.41,-76.8C54.72,-84.74 72.73,-96.04 89,-105 91.9,-106.6 94.96,-108.21 98.03,-109.78"/>
<polygon fill="midnightblue" stroke="midnightblue" points="96.65,-113 107.16,-114.32 99.77,-106.73 96.65,-113"/>
</g>
<!-- Node3 -->
<g id="node3" class="node">
<title>Node3</title>
<g id="a_node3"><a xlink:href="group__NTS__TOECAM.html#gaab14953c7d9c3e896e942b55635bcd06" target="_top" xlink:title="Insert a new key&#45;value pair in the CAM array.">
<polygon fill="none" stroke="black" points="96.5,-76.5 96.5,-95.5 161.5,-95.5 161.5,-76.5 96.5,-76.5"/>
<text text-anchor="middle" x="129" y="-83.5" font-family="Helvetica,sans-Serif" font-size="10.00">camInsert</text>
</a>
</g>
</g>
<!-- Node1&#45;&gt;Node3 -->
<g id="edge2" class="edge">
<title>Node1&#45;&gt;Node3</title>
<path fill="none" stroke="midnightblue" d="M53.12,-71.84C63.18,-73.75 75,-75.98 86.23,-78.1"/>
<polygon fill="midnightblue" stroke="midnightblue" points="85.84,-81.59 96.31,-80.01 87.14,-74.71 85.84,-81.59"/>
</g>
<!-- Node4 -->
<g id="node4" class="node">
<title>Node4</title>
<g id="a_node4"><a xlink:href="group__NTS__TOECAM.html#ga0fba212f03a16f6eb584e6b13d231e29" target="_top" xlink:title="Search the CAM array for a key.">
<polygon fill="none" stroke="black" points="93,-38.5 93,-57.5 165,-57.5 165,-38.5 93,-38.5"/>
<text text-anchor="middle" x="129" y="-45.5" font-family="Helvetica,sans-Serif" font-size="10.00">camLookup</text>
</a>
</g>
</g>
<!-- Node1&#45;&gt;Node4 -->
<g id="edge3" class="edge">
<title>Node1&#45;&gt;Node4</title>
<path fill="none" stroke="midnightblue" d="M53.12,-62.16C62.19,-60.44 72.69,-58.46 82.9,-56.53"/>
<polygon fill="midnightblue" stroke="midnightblue" points="83.77,-59.92 92.95,-54.63 82.47,-53.05 83.77,-59.92"/>
</g>
<!-- Node5 -->
<g id="node5" class="node">
<title>Node5</title>
<g id="a_node5"><a xlink:href="group__NTS.html#gae526d64d204c4ad86d5383b82df63eaf" target="_top" xlink:title="Print a socket pair association.">
<polygon fill="none" stroke="black" points="89,-0.5 89,-19.5 169,-19.5 169,-0.5 89,-0.5"/>
<text text-anchor="middle" x="129" y="-7.5" font-family="Helvetica,sans-Serif" font-size="10.00">printSockPair</text>
</a>
</g>
</g>
<!-- Node1&#45;&gt;Node5 -->
<g id="edge4" class="edge">
<title>Node1&#45;&gt;Node5</title>
<path fill="none" stroke="midnightblue" d="M42.41,-57.2C54.72,-49.26 72.73,-37.96 89,-29 91.9,-27.4 94.96,-25.79 98.03,-24.22"/>
<polygon fill="midnightblue" stroke="midnightblue" points="99.77,-27.27 107.16,-19.68 96.65,-21 99.77,-27.27"/>
</g>
</g>
</svg>
