<?xml version="1.0" encoding="UTF-8" standalone="no"?>
<!DOCTYPE svg PUBLIC "-//W3C//DTD SVG 1.1//EN"
 "http://www.w3.org/Graphics/SVG/1.1/DTD/svg11.dtd">
<!-- Generated by graphviz version 2.43.0 (0)
 -->
<!-- Title: cFp Pages: 1 -->
<svg width="253pt" height="101pt"
 viewBox="0.00 0.00 253.00 101.00" xmlns="http://www.w3.org/2000/svg" xmlns:xlink="http://www.w3.org/1999/xlink">
<g id="graph0" class="graph" transform="scale(1 1) rotate(0) translate(4 97)">
<title>cFp</title>
<!-- Node4 -->
<g id="node1" class="node">
<title>Node4</title>
<g id="a_node1"><a xlink:href="group__cFp__HelloThemisto.html" target="_top" xlink:title="This is the root of the current &#39;cFp_HelloThemisto&#39; project.">
<polygon fill="none" stroke="black" points="245,-93 135,-93 135,-74 245,-74 245,-93"/>
<text text-anchor="middle" x="190" y="-81" font-family="Helvetica,sans-Serif" font-size="10.00">cFp_HelloThemisto</text>
</a>
</g>
</g>
<!-- Node3 -->
<g id="node2" class="node">
<title>Node3</title>
<g id="a_node2"><a xlink:href="group__cFp__Zoo.html" target="_top" xlink:title="This project is based on Themisto Shell and it features several domain&#45;specific accelerators.">
<polygon fill="none" stroke="black" points="219,-56 161,-56 161,-37 219,-37 219,-56"/>
<text text-anchor="middle" x="190" y="-44" font-family="Helvetica,sans-Serif" font-size="10.00">cFp_Zoo</text>
</a>
</g>
</g>
<!-- Node1 -->
<g id="node3" class="node">
<title>Node1</title>
<g id="a_node3"><a xlink:title="cloudFPGA Projects (cFp). This is a group with existing projects developed with cFDK and can be used ...">
<polygon fill="#bfbfbf" stroke="black" points="99,-56 65,-56 65,-37 99,-37 99,-56"/>
<text text-anchor="middle" x="82" y="-44" font-family="Helvetica,sans-Serif" font-size="10.00">cFp</text>
</a>
</g>
</g>
<!-- Node1&#45;&gt;Node4 -->
<g id="edge3" class="edge">
<title>Node1&#45;&gt;Node4</title>
<path fill="none" stroke="black" d="M108.91,-56.13C117.22,-59.18 126.48,-62.53 135,-65.5 143.02,-68.3 151.75,-71.25 159.8,-73.94"/>
<polygon fill="black" stroke="black" points="109.94,-52.78 99.35,-52.61 107.52,-59.35 109.94,-52.78"/>
</g>
<!-- Node1&#45;&gt;Node3 -->
<g id="edge2" class="edge">
<title>Node1&#45;&gt;Node3</title>
<path fill="none" stroke="black" d="M109.16,-46.5C124.83,-46.5 144.74,-46.5 160.76,-46.5"/>
<polygon fill="black" stroke="black" points="109.1,-43 99.1,-46.5 109.1,-50 109.1,-43"/>
</g>
<!-- Node5 -->
<g id="node4" class="node">
<title>Node5</title>
<g id="a_node4"><a xlink:href="group__cFp__HelloKale.html" target="_top" xlink:title="This is the root of the current &#39;cFp_HelloKale&#39; project.">
<polygon fill="none" stroke="black" points="233,-19 147,-19 147,0 233,0 233,-19"/>
<text text-anchor="middle" x="190" y="-7" font-family="Helvetica,sans-Serif" font-size="10.00">cFp_HelloKale</text>
</a>
</g>
</g>
<!-- Node1&#45;&gt;Node5 -->
<g id="edge4" class="edge">
<title>Node1&#45;&gt;Node5</title>
<path fill="none" stroke="black" d="M108.91,-36.87C117.22,-33.82 126.48,-30.47 135,-27.5 143.02,-24.7 151.75,-21.75 159.8,-19.06"/>
<polygon fill="black" stroke="black" points="107.52,-33.65 99.35,-40.39 109.94,-40.22 107.52,-33.65"/>
</g>
<!-- Node2 -->
<g id="node5" class="node">
<title>Node2</title>
<g id="a_node5"><a xlink:href="group__cF.html" target="_top" xlink:title="This is the main cloudFPGA module.">
<polygon fill="none" stroke="black" points="29,-56 0,-56 0,-37 29,-37 29,-56"/>
<text text-anchor="middle" x="14.5" y="-44" font-family="Helvetica,sans-Serif" font-size="10.00">cF</text>
</a>
</g>
</g>
<!-- Node2&#45;&gt;Node1 -->
<g id="edge1" class="edge">
<title>Node2&#45;&gt;Node1</title>
<path fill="none" stroke="black" d="M39.13,-46.5C47.6,-46.5 56.95,-46.5 64.66,-46.5"/>
<polygon fill="black" stroke="black" points="39.07,-43 29.07,-46.5 39.07,-50 39.07,-43"/>
</g>
</g>
</svg>
