<?xml version="1.0" encoding="UTF-8" standalone="no"?>
<!DOCTYPE svg PUBLIC "-//W3C//DTD SVG 1.1//EN"
 "http://www.w3.org/Graphics/SVG/1.1/DTD/svg11.dtd">
<!-- Generated by graphviz version 2.43.0 (0)
 -->
<!-- Title: dumpImgToFile Pages: 1 -->
<svg width="239pt" height="66pt"
 viewBox="0.00 0.00 239.00 66.00" xmlns="http://www.w3.org/2000/svg" xmlns:xlink="http://www.w3.org/1999/xlink">
<g id="graph0" class="graph" transform="scale(1 1) rotate(0) translate(4 62)">
<title>dumpImgToFile</title>
<!-- Node1 -->
<g id="node1" class="node">
<title>Node1</title>
<g id="a_node1"><a xlink:title="Fill an output file with data from an image.">
<polygon fill="#bfbfbf" stroke="black" points="0,-19.5 0,-38.5 91,-38.5 91,-19.5 0,-19.5"/>
<text text-anchor="middle" x="45.5" y="-26.5" font-family="Helvetica,sans-Serif" font-size="10.00">dumpImgToFile</text>
</a>
</g>
</g>
<!-- Node2 -->
<g id="node2" class="node">
<title>Node2</title>
<g id="a_node2"><a xlink:href="group__IBMZRL.html#ga91d7257cae6f2ddf59285edd4ec3f7d8" target="_top" xlink:title="Dump a data word to a file.">
<polygon fill="none" stroke="black" points="131.5,-38.5 131.5,-57.5 226.5,-57.5 226.5,-38.5 131.5,-38.5"/>
<text text-anchor="middle" x="179" y="-45.5" font-family="Helvetica,sans-Serif" font-size="10.00">dumpDataToFile</text>
</a>
</g>
</g>
<!-- Node1&#45;&gt;Node2 -->
<g id="edge1" class="edge">
<title>Node1&#45;&gt;Node2</title>
<path fill="none" stroke="midnightblue" d="M91.02,-35.43C100.74,-36.84 111.16,-38.34 121.29,-39.81"/>
<polygon fill="midnightblue" stroke="midnightblue" points="120.88,-43.28 131.28,-41.25 121.88,-36.36 120.88,-43.28"/>
</g>
<!-- Node3 -->
<g id="node3" class="node">
<title>Node3</title>
<g id="a_node3"><a xlink:href="group__IBMZRL.html#ga1ac70fd75b329fc5283664fe6a497715" target="_top" xlink:title="Pack an array of 8 x ap_uint&lt;8&gt; into a ap_uint&lt;64&gt; word.">
<polygon fill="none" stroke="black" points="127,-0.5 127,-19.5 231,-19.5 231,-0.5 127,-0.5"/>
<text text-anchor="middle" x="179" y="-7.5" font-family="Helvetica,sans-Serif" font-size="10.00">pack_ap_uint_64_</text>
</a>
</g>
</g>
<!-- Node1&#45;&gt;Node3 -->
<g id="edge2" class="edge">
<title>Node1&#45;&gt;Node3</title>
<path fill="none" stroke="midnightblue" d="M91.02,-22.57C99.27,-21.38 108.01,-20.11 116.66,-18.86"/>
<polygon fill="midnightblue" stroke="midnightblue" points="117.33,-22.3 126.72,-17.41 116.33,-15.37 117.33,-22.3"/>
</g>
</g>
</svg>
