<?xml version="1.0" encoding="UTF-8" standalone="no"?>
<!DOCTYPE svg PUBLIC "-//W3C//DTD SVG 1.1//EN"
 "http://www.w3.org/Graphics/SVG/1.1/DTD/svg11.dtd">
<!-- Generated by graphviz version 2.43.0 (0)
 -->
<!-- Title: pPseudoHeaderConstructor Pages: 1 -->
<svg width="530pt" height="1092pt"
 viewBox="0.00 0.00 530.00 1092.00" xmlns="http://www.w3.org/2000/svg" xmlns:xlink="http://www.w3.org/1999/xlink">
<g id="graph0" class="graph" transform="scale(1 1) rotate(0) translate(4 1088)">
<title>pPseudoHeaderConstructor</title>
<!-- Node1 -->
<g id="node1" class="node">
<title>Node1</title>
<g id="a_node1"><a xlink:title="Pseudo Header Constructor (Phc)">
<polygon fill="#bfbfbf" stroke="black" points="0,-513.5 0,-532.5 149,-532.5 149,-513.5 0,-513.5"/>
<text text-anchor="middle" x="74.5" y="-520.5" font-family="Helvetica,sans-Serif" font-size="10.00">pPseudoHeaderConstructor</text>
</a>
</g>
</g>
<!-- Node2 -->
<g id="node2" class="node">
<title>Node2</title>
<g id="a_node2"><a xlink:href="group__NTS.html#ga5560d80c548e85eb53223a5e99410b7b" target="_top" xlink:title="Prints an Axis raw data chunk (used for debugging).">
<polygon fill="none" stroke="black" points="219,-1026.5 219,-1045.5 300,-1045.5 300,-1026.5 219,-1026.5"/>
<text text-anchor="middle" x="259.5" y="-1033.5" font-family="Helvetica,sans-Serif" font-size="10.00">printAxisRaw</text>
</a>
</g>
</g>
<!-- Node1&#45;&gt;Node2 -->
<g id="edge1" class="edge">
<title>Node1&#45;&gt;Node2</title>
<path fill="none" stroke="midnightblue" d="M76.31,-532.87C81.66,-596.05 114.06,-943.54 185,-1017 191.52,-1023.75 200.11,-1028.22 209.1,-1031.15"/>
<polygon fill="midnightblue" stroke="midnightblue" points="208.38,-1034.58 218.94,-1033.76 210.17,-1027.81 208.38,-1034.58"/>
</g>
<!-- Node6 -->
<g id="node6" class="node">
<title>Node6</title>
<g id="a_node6"><a xlink:href="classAxisPsd4.html#a3f72c6310b9bd6d6609b1d7df58d336e" target="_top" xlink:title=" ">
<polygon fill="none" stroke="black" points="187.5,-988.5 187.5,-1007.5 331.5,-1007.5 331.5,-988.5 187.5,-988.5"/>
<text text-anchor="middle" x="259.5" y="-995.5" font-family="Helvetica,sans-Serif" font-size="10.00">AxisPsd4::setPsd4DstAddr</text>
</a>
</g>
</g>
<!-- Node1&#45;&gt;Node6 -->
<g id="edge5" class="edge">
<title>Node1&#45;&gt;Node6</title>
<path fill="none" stroke="midnightblue" d="M76.5,-532.88C82.81,-593.24 118.94,-911.79 185,-979 186.42,-980.45 187.94,-981.79 189.53,-983.03"/>
<polygon fill="midnightblue" stroke="midnightblue" points="187.75,-986.05 198.07,-988.46 191.51,-980.14 187.75,-986.05"/>
</g>
<!-- Node7 -->
<g id="node7" class="node">
<title>Node7</title>
<g id="a_node7"><a xlink:href="classAxisPsd4.html#a3d50fda71574f0ad04ce4e10d6f298ae" target="_top" xlink:title=" ">
<polygon fill="none" stroke="black" points="198.5,-950.5 198.5,-969.5 320.5,-969.5 320.5,-950.5 198.5,-950.5"/>
<text text-anchor="middle" x="259.5" y="-957.5" font-family="Helvetica,sans-Serif" font-size="10.00">AxisPsd4::setPsd4Len</text>
</a>
</g>
</g>
<!-- Node1&#45;&gt;Node7 -->
<g id="edge6" class="edge">
<title>Node1&#45;&gt;Node7</title>
<path fill="none" stroke="midnightblue" d="M76.72,-532.8C84.03,-589.97 123.77,-879.96 185,-941 186.44,-942.43 187.96,-943.76 189.57,-944.99"/>
<polygon fill="midnightblue" stroke="midnightblue" points="187.82,-948.02 198.15,-950.38 191.54,-942.1 187.82,-948.02"/>
</g>
<!-- Node8 -->
<g id="node8" class="node">
<title>Node8</title>
<g id="a_node8"><a xlink:href="classAxisPsd4.html#ab26cf6b796a4166d8aca34e28009e1a3" target="_top" xlink:title=" ">
<polygon fill="none" stroke="black" points="197,-912.5 197,-931.5 322,-931.5 322,-912.5 197,-912.5"/>
<text text-anchor="middle" x="259.5" y="-919.5" font-family="Helvetica,sans-Serif" font-size="10.00">AxisPsd4::setPsd4Prot</text>
</a>
</g>
</g>
<!-- Node1&#45;&gt;Node8 -->
<g id="edge7" class="edge">
<title>Node1&#45;&gt;Node8</title>
<path fill="none" stroke="midnightblue" d="M75.09,-532.66C73.59,-580.54 73.53,-794.57 185,-903 186.49,-904.45 188.07,-905.79 189.73,-907.03"/>
<polygon fill="midnightblue" stroke="midnightblue" points="188.25,-910.23 198.6,-912.46 191.9,-904.25 188.25,-910.23"/>
</g>
<!-- Node9 -->
<g id="node9" class="node">
<title>Node9</title>
<g id="a_node9"><a xlink:href="classAxisPsd4.html#a8e957d8cef2b7c8eac21138316848a9c" target="_top" xlink:title=" ">
<polygon fill="none" stroke="black" points="188.5,-874.5 188.5,-893.5 330.5,-893.5 330.5,-874.5 188.5,-874.5"/>
<text text-anchor="middle" x="259.5" y="-881.5" font-family="Helvetica,sans-Serif" font-size="10.00">AxisPsd4::setPsd4ResBits</text>
</a>
</g>
</g>
<!-- Node1&#45;&gt;Node9 -->
<g id="edge8" class="edge">
<title>Node1&#45;&gt;Node9</title>
<path fill="none" stroke="midnightblue" d="M75.44,-532.59C75.72,-577.48 83.03,-768.67 185,-865 186.51,-866.43 188.11,-867.75 189.79,-868.97"/>
<polygon fill="midnightblue" stroke="midnightblue" points="188.35,-872.19 198.72,-874.34 191.95,-866.19 188.35,-872.19"/>
</g>
<!-- Node10 -->
<g id="node10" class="node">
<title>Node10</title>
<g id="a_node10"><a xlink:href="classAxisPsd4.html#afadba132309036c08f46a7f960727e3d" target="_top" xlink:title=" ">
<polygon fill="none" stroke="black" points="188,-836.5 188,-855.5 331,-855.5 331,-836.5 188,-836.5"/>
<text text-anchor="middle" x="259.5" y="-843.5" font-family="Helvetica,sans-Serif" font-size="10.00">AxisPsd4::setPsd4SrcAddr</text>
</a>
</g>
</g>
<!-- Node1&#45;&gt;Node10 -->
<g id="edge9" class="edge">
<title>Node1&#45;&gt;Node10</title>
<path fill="none" stroke="midnightblue" d="M75.88,-532.65C78.07,-574.6 92.54,-742.74 185,-827 186.7,-828.55 188.51,-829.98 190.41,-831.29"/>
<polygon fill="midnightblue" stroke="midnightblue" points="188.81,-834.41 199.22,-836.36 192.3,-828.34 188.81,-834.41"/>
</g>
<!-- Node11 -->
<g id="node11" class="node">
<title>Node11</title>
<g id="a_node11"><a xlink:href="classAxisPsd4.html#a812dff9e291268f61f7213bb1db901d0" target="_top" xlink:title=" ">
<polygon fill="none" stroke="black" points="190,-798.5 190,-817.5 329,-817.5 329,-798.5 190,-798.5"/>
<text text-anchor="middle" x="259.5" y="-805.5" font-family="Helvetica,sans-Serif" font-size="10.00">AxisPsd4::setTcpAckNum</text>
</a>
</g>
</g>
<!-- Node1&#45;&gt;Node11 -->
<g id="edge10" class="edge">
<title>Node1&#45;&gt;Node11</title>
<path fill="none" stroke="midnightblue" d="M76.44,-532.75C80.73,-571.6 101.97,-716.67 185,-789 186.96,-790.7 189.05,-792.26 191.24,-793.68"/>
<polygon fill="midnightblue" stroke="midnightblue" points="189.67,-796.81 200.13,-798.49 193,-790.65 189.67,-796.81"/>
</g>
<!-- Node12 -->
<g id="node12" class="node">
<title>Node12</title>
<g id="a_node12"><a xlink:href="classAxisPsd4.html#a2db1928a68c24acbd80a464e6bdcf9d1" target="_top" xlink:title=" ">
<polygon fill="none" stroke="black" points="185,-760.5 185,-779.5 334,-779.5 334,-760.5 185,-760.5"/>
<text text-anchor="middle" x="259.5" y="-767.5" font-family="Helvetica,sans-Serif" font-size="10.00">AxisPsd4::setTcpChecksum</text>
</a>
</g>
</g>
<!-- Node1&#45;&gt;Node12 -->
<g id="edge11" class="edge">
<title>Node1&#45;&gt;Node12</title>
<path fill="none" stroke="midnightblue" d="M77.13,-532.56C83.64,-567.62 111.05,-690.21 185,-751 187.05,-752.68 189.23,-754.22 191.51,-755.62"/>
<polygon fill="midnightblue" stroke="midnightblue" points="190.23,-758.9 200.72,-760.39 193.45,-752.69 190.23,-758.9"/>
</g>
<!-- Node13 -->
<g id="node13" class="node">
<title>Node13</title>
<g id="a_node13"><a xlink:href="classAxisPsd4.html#a498e348754c146e7de22642724911f89" target="_top" xlink:title=" ">
<polygon fill="none" stroke="black" points="193,-722.5 193,-741.5 326,-741.5 326,-722.5 193,-722.5"/>
<text text-anchor="middle" x="259.5" y="-729.5" font-family="Helvetica,sans-Serif" font-size="10.00">AxisPsd4::setTcpCtrlAck</text>
</a>
</g>
</g>
<!-- Node1&#45;&gt;Node13 -->
<g id="edge12" class="edge">
<title>Node1&#45;&gt;Node13</title>
<path fill="none" stroke="midnightblue" d="M78.14,-532.68C87.21,-564.04 120.16,-663.66 185,-713 187.49,-714.89 190.15,-716.6 192.93,-718.14"/>
<polygon fill="midnightblue" stroke="midnightblue" points="191.59,-721.38 202.13,-722.49 194.59,-715.05 191.59,-721.38"/>
</g>
<!-- Node14 -->
<g id="node14" class="node">
<title>Node14</title>
<g id="a_node14"><a xlink:href="classAxisPsd4.html#ad97ce233098428cf24c02179d6f0c2d0" target="_top" xlink:title=" ">
<polygon fill="none" stroke="black" points="192.5,-684.5 192.5,-703.5 326.5,-703.5 326.5,-684.5 192.5,-684.5"/>
<text text-anchor="middle" x="259.5" y="-691.5" font-family="Helvetica,sans-Serif" font-size="10.00">AxisPsd4::setTcpCtrlCwr</text>
</a>
</g>
</g>
<!-- Node1&#45;&gt;Node14 -->
<g id="edge13" class="edge">
<title>Node1&#45;&gt;Node14</title>
<path fill="none" stroke="midnightblue" d="M79.54,-532.61C91.41,-559.6 128.89,-636.63 185,-675 187.92,-676.99 191.03,-678.78 194.26,-680.38"/>
<polygon fill="midnightblue" stroke="midnightblue" points="193.07,-683.68 203.64,-684.4 195.83,-677.24 193.07,-683.68"/>
</g>
<!-- Node15 -->
<g id="node15" class="node">
<title>Node15</title>
<g id="a_node15"><a xlink:href="classAxisPsd4.html#a4cb1355bbf9e6d6d7181929a954b9f23" target="_top" xlink:title=" ">
<polygon fill="none" stroke="black" points="193.5,-646.5 193.5,-665.5 325.5,-665.5 325.5,-646.5 193.5,-646.5"/>
<text text-anchor="middle" x="259.5" y="-653.5" font-family="Helvetica,sans-Serif" font-size="10.00">AxisPsd4::setTcpCtrlEce</text>
</a>
</g>
</g>
<!-- Node1&#45;&gt;Node15 -->
<g id="edge14" class="edge">
<title>Node1&#45;&gt;Node15</title>
<path fill="none" stroke="midnightblue" d="M81.9,-532.67C97.04,-554.76 137.39,-609.15 185,-637 188.71,-639.17 192.67,-641.1 196.75,-642.81"/>
<polygon fill="midnightblue" stroke="midnightblue" points="195.86,-646.21 206.45,-646.41 198.3,-639.65 195.86,-646.21"/>
</g>
<!-- Node16 -->
<g id="node16" class="node">
<title>Node16</title>
<g id="a_node16"><a xlink:href="classAxisPsd4.html#a96793e191eba7db55aaaa425b813e941" target="_top" xlink:title=" ">
<polygon fill="none" stroke="black" points="195,-608.5 195,-627.5 324,-627.5 324,-608.5 195,-608.5"/>
<text text-anchor="middle" x="259.5" y="-615.5" font-family="Helvetica,sans-Serif" font-size="10.00">AxisPsd4::setTcpCtrlFin</text>
</a>
</g>
</g>
<!-- Node1&#45;&gt;Node16 -->
<g id="edge15" class="edge">
<title>Node1&#45;&gt;Node16</title>
<path fill="none" stroke="midnightblue" d="M86.5,-532.66C105.37,-548.73 145.66,-580.97 185,-599 190.3,-601.43 195.95,-603.58 201.69,-605.49"/>
<polygon fill="midnightblue" stroke="midnightblue" points="200.79,-608.87 211.37,-608.46 202.84,-602.18 200.79,-608.87"/>
</g>
<!-- Node17 -->
<g id="node17" class="node">
<title>Node17</title>
<g id="a_node17"><a xlink:href="classAxisPsd4.html#ad6aad8a9b4a5497eaacfcb3ac3b6464e" target="_top" xlink:title=" ">
<polygon fill="none" stroke="black" points="195.5,-570.5 195.5,-589.5 323.5,-589.5 323.5,-570.5 195.5,-570.5"/>
<text text-anchor="middle" x="259.5" y="-577.5" font-family="Helvetica,sans-Serif" font-size="10.00">AxisPsd4::setTcpCtrlNs</text>
</a>
</g>
</g>
<!-- Node1&#45;&gt;Node17 -->
<g id="edge16" class="edge">
<title>Node1&#45;&gt;Node17</title>
<path fill="none" stroke="midnightblue" d="M101.41,-532.66C123.48,-540.72 156.11,-552.27 185,-561 192.8,-563.36 201.13,-565.69 209.26,-567.86"/>
<polygon fill="midnightblue" stroke="midnightblue" points="208.49,-571.28 219.05,-570.43 210.26,-564.5 208.49,-571.28"/>
</g>
<!-- Node18 -->
<g id="node18" class="node">
<title>Node18</title>
<g id="a_node18"><a xlink:href="classAxisPsd4.html#a20ae363df52b23bc9efd2294833e13ed" target="_top" xlink:title=" ">
<polygon fill="none" stroke="black" points="193.5,-532.5 193.5,-551.5 325.5,-551.5 325.5,-532.5 193.5,-532.5"/>
<text text-anchor="middle" x="259.5" y="-539.5" font-family="Helvetica,sans-Serif" font-size="10.00">AxisPsd4::setTcpCtrlPsh</text>
</a>
</g>
</g>
<!-- Node1&#45;&gt;Node18 -->
<g id="edge17" class="edge">
<title>Node1&#45;&gt;Node18</title>
<path fill="none" stroke="midnightblue" d="M149.14,-530.65C160.32,-531.81 171.87,-533.01 183.08,-534.17"/>
<polygon fill="midnightblue" stroke="midnightblue" points="182.96,-537.68 193.27,-535.23 183.68,-530.71 182.96,-537.68"/>
</g>
<!-- Node19 -->
<g id="node19" class="node">
<title>Node19</title>
<g id="a_node19"><a xlink:href="classAxisPsd4.html#a98ab2b4bec482cc6599a4032f7645e79" target="_top" xlink:title=" ">
<polygon fill="none" stroke="black" points="194,-494.5 194,-513.5 325,-513.5 325,-494.5 194,-494.5"/>
<text text-anchor="middle" x="259.5" y="-501.5" font-family="Helvetica,sans-Serif" font-size="10.00">AxisPsd4::setTcpCtrlRst</text>
</a>
</g>
</g>
<!-- Node1&#45;&gt;Node19 -->
<g id="edge18" class="edge">
<title>Node1&#45;&gt;Node19</title>
<path fill="none" stroke="midnightblue" d="M149.14,-515.35C160.59,-514.17 172.42,-512.94 183.89,-511.75"/>
<polygon fill="midnightblue" stroke="midnightblue" points="184.27,-515.23 193.85,-510.71 183.54,-508.26 184.27,-515.23"/>
</g>
<!-- Node20 -->
<g id="node20" class="node">
<title>Node20</title>
<g id="a_node20"><a xlink:href="classAxisPsd4.html#a7d29513886d2fa0452b21729c95e9da4" target="_top" xlink:title=" ">
<polygon fill="none" stroke="black" points="193,-456.5 193,-475.5 326,-475.5 326,-456.5 193,-456.5"/>
<text text-anchor="middle" x="259.5" y="-463.5" font-family="Helvetica,sans-Serif" font-size="10.00">AxisPsd4::setTcpCtrlSyn</text>
</a>
</g>
</g>
<!-- Node1&#45;&gt;Node20 -->
<g id="edge19" class="edge">
<title>Node1&#45;&gt;Node20</title>
<path fill="none" stroke="midnightblue" d="M101.41,-513.34C123.48,-505.28 156.11,-493.73 185,-485 192.8,-482.64 201.13,-480.31 209.26,-478.14"/>
<polygon fill="midnightblue" stroke="midnightblue" points="210.26,-481.5 219.05,-475.57 208.49,-474.72 210.26,-481.5"/>
</g>
<!-- Node21 -->
<g id="node21" class="node">
<title>Node21</title>
<g id="a_node21"><a xlink:href="classAxisPsd4.html#a7a9f9738810e40700ddd7c75b9f50396" target="_top" xlink:title=" ">
<polygon fill="none" stroke="black" points="193.5,-418.5 193.5,-437.5 325.5,-437.5 325.5,-418.5 193.5,-418.5"/>
<text text-anchor="middle" x="259.5" y="-425.5" font-family="Helvetica,sans-Serif" font-size="10.00">AxisPsd4::setTcpCtrlUrg</text>
</a>
</g>
</g>
<!-- Node1&#45;&gt;Node21 -->
<g id="edge20" class="edge">
<title>Node1&#45;&gt;Node21</title>
<path fill="none" stroke="midnightblue" d="M86.5,-513.34C105.37,-497.27 145.66,-465.03 185,-447 190.3,-444.57 195.95,-442.42 201.69,-440.51"/>
<polygon fill="midnightblue" stroke="midnightblue" points="202.84,-443.82 211.37,-437.54 200.79,-437.13 202.84,-443.82"/>
</g>
<!-- Node22 -->
<g id="node22" class="node">
<title>Node22</title>
<g id="a_node22"><a xlink:href="classAxisPsd4.html#a92c6eac1aef0616b5ebd2ccb98ecb3d1" target="_top" xlink:title=" ">
<polygon fill="none" stroke="black" points="192,-380.5 192,-399.5 327,-399.5 327,-380.5 192,-380.5"/>
<text text-anchor="middle" x="259.5" y="-387.5" font-family="Helvetica,sans-Serif" font-size="10.00">AxisPsd4::setTcpDataOff</text>
</a>
</g>
</g>
<!-- Node1&#45;&gt;Node22 -->
<g id="edge21" class="edge">
<title>Node1&#45;&gt;Node22</title>
<path fill="none" stroke="midnightblue" d="M81.9,-513.33C97.04,-491.24 137.39,-436.85 185,-409 188.71,-406.83 192.67,-404.9 196.75,-403.19"/>
<polygon fill="midnightblue" stroke="midnightblue" points="198.3,-406.35 206.45,-399.59 195.86,-399.79 198.3,-406.35"/>
</g>
<!-- Node23 -->
<g id="node23" class="node">
<title>Node23</title>
<g id="a_node23"><a xlink:href="classAxisPsd4.html#a38c1aa822239ea63ca08d8efc3b4af24" target="_top" xlink:title=" ">
<polygon fill="none" stroke="black" points="192.5,-342.5 192.5,-361.5 326.5,-361.5 326.5,-342.5 192.5,-342.5"/>
<text text-anchor="middle" x="259.5" y="-349.5" font-family="Helvetica,sans-Serif" font-size="10.00">AxisPsd4::setTcpDstPort</text>
</a>
</g>
</g>
<!-- Node1&#45;&gt;Node23 -->
<g id="edge22" class="edge">
<title>Node1&#45;&gt;Node23</title>
<path fill="none" stroke="midnightblue" d="M79.54,-513.39C91.41,-486.4 128.89,-409.37 185,-371 187.92,-369.01 191.03,-367.22 194.26,-365.62"/>
<polygon fill="midnightblue" stroke="midnightblue" points="195.83,-368.76 203.64,-361.6 193.07,-362.32 195.83,-368.76"/>
</g>
<!-- Node24 -->
<g id="node24" class="node">
<title>Node24</title>
<g id="a_node24"><a xlink:href="classAxisPsd4.html#a7a804836052329612df9f674a838fad5" target="_top" xlink:title=" ">
<polygon fill="none" stroke="black" points="191,-304.5 191,-323.5 328,-323.5 328,-304.5 191,-304.5"/>
<text text-anchor="middle" x="259.5" y="-311.5" font-family="Helvetica,sans-Serif" font-size="10.00">AxisPsd4::setTcpOptKind</text>
</a>
</g>
</g>
<!-- Node1&#45;&gt;Node24 -->
<g id="edge23" class="edge">
<title>Node1&#45;&gt;Node24</title>
<path fill="none" stroke="midnightblue" d="M78.14,-513.32C87.21,-481.96 120.16,-382.34 185,-333 187.49,-331.11 190.15,-329.4 192.93,-327.86"/>
<polygon fill="midnightblue" stroke="midnightblue" points="194.59,-330.95 202.13,-323.51 191.59,-324.62 194.59,-330.95"/>
</g>
<!-- Node25 -->
<g id="node25" class="node">
<title>Node25</title>
<g id="a_node25"><a xlink:href="classAxisPsd4.html#af5e9fe5ba451cb18f1d14a34c718bbe1" target="_top" xlink:title=" ">
<polygon fill="none" stroke="black" points="193.5,-266.5 193.5,-285.5 325.5,-285.5 325.5,-266.5 193.5,-266.5"/>
<text text-anchor="middle" x="259.5" y="-273.5" font-family="Helvetica,sans-Serif" font-size="10.00">AxisPsd4::setTcpOptLen</text>
</a>
</g>
</g>
<!-- Node1&#45;&gt;Node25 -->
<g id="edge24" class="edge">
<title>Node1&#45;&gt;Node25</title>
<path fill="none" stroke="midnightblue" d="M77.13,-513.44C83.64,-478.38 111.05,-355.79 185,-295 187.05,-293.32 189.23,-291.78 191.51,-290.38"/>
<polygon fill="midnightblue" stroke="midnightblue" points="193.45,-293.31 200.72,-285.61 190.23,-287.1 193.45,-293.31"/>
</g>
<!-- Node26 -->
<g id="node26" class="node">
<title>Node26</title>
<g id="a_node26"><a xlink:href="classAxisPsd4.html#a85029689ed2709f284a712aa8efe4208" target="_top" xlink:title=" ">
<polygon fill="none" stroke="black" points="192.5,-228.5 192.5,-247.5 326.5,-247.5 326.5,-228.5 192.5,-228.5"/>
<text text-anchor="middle" x="259.5" y="-235.5" font-family="Helvetica,sans-Serif" font-size="10.00">AxisPsd4::setTcpOptMss</text>
</a>
</g>
</g>
<!-- Node1&#45;&gt;Node26 -->
<g id="edge25" class="edge">
<title>Node1&#45;&gt;Node26</title>
<path fill="none" stroke="midnightblue" d="M76.44,-513.25C80.73,-474.4 101.97,-329.33 185,-257 186.96,-255.3 189.05,-253.74 191.24,-252.32"/>
<polygon fill="midnightblue" stroke="midnightblue" points="193,-255.35 200.13,-247.51 189.67,-249.19 193,-255.35"/>
</g>
<!-- Node27 -->
<g id="node27" class="node">
<title>Node27</title>
<g id="a_node27"><a xlink:href="classAxisPsd4.html#a1f8a8e758e19160321c599c80844a702" target="_top" xlink:title=" ">
<polygon fill="none" stroke="black" points="192.5,-190.5 192.5,-209.5 326.5,-209.5 326.5,-190.5 192.5,-190.5"/>
<text text-anchor="middle" x="259.5" y="-197.5" font-family="Helvetica,sans-Serif" font-size="10.00">AxisPsd4::setTcpResBits</text>
</a>
</g>
</g>
<!-- Node1&#45;&gt;Node27 -->
<g id="edge26" class="edge">
<title>Node1&#45;&gt;Node27</title>
<path fill="none" stroke="midnightblue" d="M75.88,-513.35C78.07,-471.4 92.54,-303.26 185,-219 186.7,-217.45 188.51,-216.02 190.41,-214.71"/>
<polygon fill="midnightblue" stroke="midnightblue" points="192.3,-217.66 199.22,-209.64 188.81,-211.59 192.3,-217.66"/>
</g>
<!-- Node28 -->
<g id="node28" class="node">
<title>Node28</title>
<g id="a_node28"><a xlink:href="classAxisPsd4.html#ad49aad9de0366ba16c21a918c8d92662" target="_top" xlink:title=" ">
<polygon fill="none" stroke="black" points="190,-152.5 190,-171.5 329,-171.5 329,-152.5 190,-152.5"/>
<text text-anchor="middle" x="259.5" y="-159.5" font-family="Helvetica,sans-Serif" font-size="10.00">AxisPsd4::setTcpSeqNum</text>
</a>
</g>
</g>
<!-- Node1&#45;&gt;Node28 -->
<g id="edge27" class="edge">
<title>Node1&#45;&gt;Node28</title>
<path fill="none" stroke="midnightblue" d="M75.44,-513.41C75.72,-468.52 83.03,-277.33 185,-181 186.51,-179.57 188.11,-178.25 189.79,-177.03"/>
<polygon fill="midnightblue" stroke="midnightblue" points="191.95,-179.81 198.72,-171.66 188.35,-173.81 191.95,-179.81"/>
</g>
<!-- Node29 -->
<g id="node29" class="node">
<title>Node29</title>
<g id="a_node29"><a xlink:href="classAxisPsd4.html#a510245fb1972fcf7b8a6b3c6f500a5d2" target="_top" xlink:title=" ">
<polygon fill="none" stroke="black" points="193.5,-114.5 193.5,-133.5 325.5,-133.5 325.5,-114.5 193.5,-114.5"/>
<text text-anchor="middle" x="259.5" y="-121.5" font-family="Helvetica,sans-Serif" font-size="10.00">AxisPsd4::setTcpSrcPort</text>
</a>
</g>
</g>
<!-- Node1&#45;&gt;Node29 -->
<g id="edge28" class="edge">
<title>Node1&#45;&gt;Node29</title>
<path fill="none" stroke="midnightblue" d="M75.09,-513.34C73.59,-465.46 73.53,-251.43 185,-143 186.49,-141.55 188.07,-140.21 189.73,-138.97"/>
<polygon fill="midnightblue" stroke="midnightblue" points="191.9,-141.75 198.6,-133.54 188.25,-135.77 191.9,-141.75"/>
</g>
<!-- Node30 -->
<g id="node30" class="node">
<title>Node30</title>
<g id="a_node30"><a xlink:href="classAxisPsd4.html#a2522b9570f97f6e4c0eb529df9c93f8b" target="_top" xlink:title=" ">
<polygon fill="none" stroke="black" points="195.5,-76.5 195.5,-95.5 323.5,-95.5 323.5,-76.5 195.5,-76.5"/>
<text text-anchor="middle" x="259.5" y="-83.5" font-family="Helvetica,sans-Serif" font-size="10.00">AxisPsd4::setTcpUrgPtr</text>
</a>
</g>
</g>
<!-- Node1&#45;&gt;Node30 -->
<g id="edge29" class="edge">
<title>Node1&#45;&gt;Node30</title>
<path fill="none" stroke="midnightblue" d="M76.72,-513.2C84.03,-456.03 123.77,-166.04 185,-105 186.44,-103.57 187.96,-102.24 189.57,-101.01"/>
<polygon fill="midnightblue" stroke="midnightblue" points="191.54,-103.9 198.15,-95.62 187.82,-97.98 191.54,-103.9"/>
</g>
<!-- Node31 -->
<g id="node31" class="node">
<title>Node31</title>
<g id="a_node31"><a xlink:href="classAxisPsd4.html#a067334ae54474415f3af5db880b510d3" target="_top" xlink:title=" ">
<polygon fill="none" stroke="black" points="191,-38.5 191,-57.5 328,-57.5 328,-38.5 191,-38.5"/>
<text text-anchor="middle" x="259.5" y="-45.5" font-family="Helvetica,sans-Serif" font-size="10.00">AxisPsd4::setTcpWindow</text>
</a>
</g>
</g>
<!-- Node1&#45;&gt;Node31 -->
<g id="edge30" class="edge">
<title>Node1&#45;&gt;Node31</title>
<path fill="none" stroke="midnightblue" d="M76.5,-513.12C82.81,-452.76 118.94,-134.21 185,-67 186.42,-65.55 187.94,-64.21 189.53,-62.97"/>
<polygon fill="midnightblue" stroke="midnightblue" points="191.51,-65.86 198.07,-57.54 187.75,-59.95 191.51,-65.86"/>
</g>
<!-- Node32 -->
<g id="node32" class="node">
<title>Node32</title>
<g id="a_node32"><a xlink:href="classAxisRaw.html#a1238c47d46a7d858c542f55797dfc9f2" target="_top" xlink:title=" ">
<polygon fill="none" stroke="black" points="207,-0.5 207,-19.5 312,-19.5 312,-0.5 207,-0.5"/>
<text text-anchor="middle" x="259.5" y="-7.5" font-family="Helvetica,sans-Serif" font-size="10.00">AxisRaw::setTLast</text>
</a>
</g>
</g>
<!-- Node1&#45;&gt;Node32 -->
<g id="edge31" class="edge">
<title>Node1&#45;&gt;Node32</title>
<path fill="none" stroke="midnightblue" d="M76.31,-513.13C81.66,-449.95 114.06,-102.46 185,-29 188.63,-25.24 192.89,-22.2 197.51,-19.73"/>
<polygon fill="midnightblue" stroke="midnightblue" points="199.01,-22.89 206.75,-15.66 196.19,-16.49 199.01,-22.89"/>
</g>
<!-- Node3 -->
<g id="node3" class="node">
<title>Node3</title>
<g id="a_node3"><a xlink:href="classAxisRaw.html#a7034bcf8cf143fb2bb9bfc46e70a7d6b" target="_top" xlink:title=" ">
<polygon fill="none" stroke="black" points="383.5,-1064.5 383.5,-1083.5 508.5,-1083.5 508.5,-1064.5 383.5,-1064.5"/>
<text text-anchor="middle" x="446" y="-1071.5" font-family="Helvetica,sans-Serif" font-size="10.00">AxisRaw::getLE_TData</text>
</a>
</g>
</g>
<!-- Node2&#45;&gt;Node3 -->
<g id="edge2" class="edge">
<title>Node2&#45;&gt;Node3</title>
<path fill="none" stroke="midnightblue" d="M300.08,-1044.15C325.94,-1049.48 360.1,-1056.51 388.76,-1062.42"/>
<polygon fill="midnightblue" stroke="midnightblue" points="388.14,-1065.86 398.64,-1064.45 389.55,-1059.01 388.14,-1065.86"/>
</g>
<!-- Node4 -->
<g id="node4" class="node">
<title>Node4</title>
<g id="a_node4"><a xlink:href="classAxisRaw.html#a4becd0ad3c51e3db2749e888f2f72e31" target="_top" xlink:title=" ">
<polygon fill="none" stroke="black" points="383,-1026.5 383,-1045.5 509,-1045.5 509,-1026.5 383,-1026.5"/>
<text text-anchor="middle" x="446" y="-1033.5" font-family="Helvetica,sans-Serif" font-size="10.00">AxisRaw::getLE_TKeep</text>
</a>
</g>
</g>
<!-- Node2&#45;&gt;Node4 -->
<g id="edge3" class="edge">
<title>Node2&#45;&gt;Node4</title>
<path fill="none" stroke="midnightblue" d="M300.08,-1036C321.3,-1036 348.11,-1036 372.88,-1036"/>
<polygon fill="midnightblue" stroke="midnightblue" points="372.98,-1039.5 382.98,-1036 372.98,-1032.5 372.98,-1039.5"/>
</g>
<!-- Node5 -->
<g id="node5" class="node">
<title>Node5</title>
<g id="a_node5"><a xlink:href="classAxisRaw.html#af8208752dcbb14911c5fda27d90a0ef4" target="_top" xlink:title=" ">
<polygon fill="none" stroke="black" points="385,-988.5 385,-1007.5 507,-1007.5 507,-988.5 385,-988.5"/>
<text text-anchor="middle" x="446" y="-995.5" font-family="Helvetica,sans-Serif" font-size="10.00">AxisRaw::getLE_TLast</text>
</a>
</g>
</g>
<!-- Node2&#45;&gt;Node5 -->
<g id="edge4" class="edge">
<title>Node2&#45;&gt;Node5</title>
<path fill="none" stroke="midnightblue" d="M300.08,-1027.85C325.94,-1022.52 360.1,-1015.49 388.76,-1009.58"/>
<polygon fill="midnightblue" stroke="midnightblue" points="389.55,-1012.99 398.64,-1007.55 388.14,-1006.14 389.55,-1012.99"/>
</g>
<!-- Node33 -->
<g id="node33" class="node">
<title>Node33</title>
<g id="a_node33"><a xlink:href="classAxisRaw.html#a4e8ed9ad2072a6563870f9344c362a4e" target="_top" xlink:title=" ">
<polygon fill="none" stroke="black" points="370,-0.5 370,-19.5 522,-19.5 522,-0.5 370,-0.5"/>
<text text-anchor="middle" x="446" y="-7.5" font-family="Helvetica,sans-Serif" font-size="10.00">AxisRaw::clearUnusedBytes</text>
</a>
</g>
</g>
<!-- Node32&#45;&gt;Node33 -->
<g id="edge32" class="edge">
<title>Node32&#45;&gt;Node33</title>
<path fill="none" stroke="midnightblue" d="M312.38,-10C327.12,-10 343.58,-10 359.74,-10"/>
<polygon fill="midnightblue" stroke="midnightblue" points="359.75,-13.5 369.75,-10 359.75,-6.5 359.75,-13.5"/>
</g>
</g>
</svg>
