<?xml version="1.0" encoding="UTF-8" standalone="no"?>
<!DOCTYPE svg PUBLIC "-//W3C//DTD SVG 1.1//EN"
 "http://www.w3.org/Graphics/SVG/1.1/DTD/svg11.dtd">
<!-- Generated by graphviz version 2.43.0 (0)
 -->
<!-- Title: getRemotePortFromTriple Pages: 1 -->
<svg width="510pt" height="66pt"
 viewBox="0.00 0.00 510.00 66.00" xmlns="http://www.w3.org/2000/svg" xmlns:xlink="http://www.w3.org/1999/xlink">
<g id="graph0" class="graph" transform="scale(1 1) rotate(0) translate(4 62)">
<title>getRemotePortFromTriple</title>
<!-- Node1 -->
<g id="node1" class="node">
<title>Node1</title>
<g id="a_node1"><a xlink:title=" ">
<polygon fill="#bfbfbf" stroke="black" points="361,-19.5 361,-38.5 502,-38.5 502,-19.5 361,-19.5"/>
<text text-anchor="middle" x="431.5" y="-26.5" font-family="Helvetica,sans-Serif" font-size="10.00">getRemotePortFromTriple</text>
</a>
</g>
</g>
<!-- Node2 -->
<g id="node2" class="node">
<title>Node2</title>
<g id="a_node2"><a xlink:href="group__NAL.html#ga59f8ad803ebbaed2bdaaae2577d40d2f" target="_top" xlink:title="Client connection to remote HOST or FPGA socket (COn).">
<polygon fill="none" stroke="black" points="266,-38.5 266,-57.5 325,-57.5 325,-38.5 266,-38.5"/>
<text text-anchor="middle" x="295.5" y="-45.5" font-family="Helvetica,sans-Serif" font-size="10.00">pTcpCOn</text>
</a>
</g>
</g>
<!-- Node1&#45;&gt;Node2 -->
<g id="edge1" class="edge">
<title>Node1&#45;&gt;Node2</title>
<path fill="none" stroke="midnightblue" d="M353.08,-39.98C343.12,-41.39 333.47,-42.76 325.05,-43.95"/>
<polygon fill="midnightblue" stroke="midnightblue" points="353.7,-43.42 363.11,-38.56 352.72,-36.49 353.7,-43.42"/>
</g>
<!-- Node6 -->
<g id="node6" class="node">
<title>Node6</title>
<g id="a_node6"><a xlink:href="group__NAL.html#gaf66d0b2af597c0114fc7b6c1a48e7df2" target="_top" xlink:title="Read Path (RDp) &#45; From TOE to ROLE or FMC. Process waits for a new data segment to read and forwards ...">
<polygon fill="none" stroke="black" points="266,-0.5 266,-19.5 325,-19.5 325,-0.5 266,-0.5"/>
<text text-anchor="middle" x="295.5" y="-7.5" font-family="Helvetica,sans-Serif" font-size="10.00">pTcpRDp</text>
</a>
</g>
</g>
<!-- Node1&#45;&gt;Node6 -->
<g id="edge5" class="edge">
<title>Node1&#45;&gt;Node6</title>
<path fill="none" stroke="midnightblue" d="M353.08,-18.02C343.12,-16.61 333.47,-15.24 325.05,-14.05"/>
<polygon fill="midnightblue" stroke="midnightblue" points="352.72,-21.51 363.11,-19.44 353.7,-14.58 352.72,-21.51"/>
</g>
<!-- Node3 -->
<g id="node3" class="node">
<title>Node3</title>
<g id="a_node3"><a xlink:href="group__NAL.html#ga9087660a7942cb823c0fa5f350a10844" target="_top" xlink:title="Main process of the Network Abstraction Layer (NAL)">
<polygon fill="none" stroke="black" points="168,-19.5 168,-38.5 230,-38.5 230,-19.5 168,-19.5"/>
<text text-anchor="middle" x="199" y="-26.5" font-family="Helvetica,sans-Serif" font-size="10.00">nal_main</text>
</a>
</g>
</g>
<!-- Node2&#45;&gt;Node3 -->
<g id="edge2" class="edge">
<title>Node2&#45;&gt;Node3</title>
<path fill="none" stroke="midnightblue" d="M256.03,-40.26C247.4,-38.53 238.38,-36.72 230.15,-35.06"/>
<polygon fill="midnightblue" stroke="midnightblue" points="255.4,-43.71 265.89,-42.25 256.78,-36.85 255.4,-43.71"/>
</g>
<!-- Node4 -->
<g id="node4" class="node">
<title>Node4</title>
<g id="a_node4"><a xlink:href="group__NAL.html#gad0919afcfb3151dee3f8653944ea7185" target="_top" xlink:title="Run a single iteration of the DUT model.">
<polygon fill="none" stroke="black" points="77,-19.5 77,-38.5 132,-38.5 132,-19.5 77,-19.5"/>
<text text-anchor="middle" x="104.5" y="-26.5" font-family="Helvetica,sans-Serif" font-size="10.00">stepDut</text>
</a>
</g>
</g>
<!-- Node3&#45;&gt;Node4 -->
<g id="edge3" class="edge">
<title>Node3&#45;&gt;Node4</title>
<path fill="none" stroke="midnightblue" d="M157.69,-29C149.09,-29 140.21,-29 132.26,-29"/>
<polygon fill="midnightblue" stroke="midnightblue" points="157.97,-32.5 167.97,-29 157.97,-25.5 157.97,-32.5"/>
</g>
<!-- Node5 -->
<g id="node5" class="node">
<title>Node5</title>
<g id="a_node5"><a xlink:href="group__NAL.html#gae66f6b31b5ad750f1fe042a706a4e3d4" target="_top" xlink:title="Main Testbench Loop; Emulates also the behavior of the UDP Offload Engine (UOE).">
<polygon fill="none" stroke="black" points="0,-19.5 0,-38.5 41,-38.5 41,-19.5 0,-19.5"/>
<text text-anchor="middle" x="20.5" y="-26.5" font-family="Helvetica,sans-Serif" font-size="10.00">main</text>
</a>
</g>
</g>
<!-- Node4&#45;&gt;Node5 -->
<g id="edge4" class="edge">
<title>Node4&#45;&gt;Node5</title>
<path fill="none" stroke="midnightblue" d="M66.57,-29C57.8,-29 48.77,-29 41.13,-29"/>
<polygon fill="midnightblue" stroke="midnightblue" points="66.65,-32.5 76.65,-29 66.65,-25.5 66.65,-32.5"/>
</g>
<!-- Node6&#45;&gt;Node3 -->
<g id="edge6" class="edge">
<title>Node6&#45;&gt;Node3</title>
<path fill="none" stroke="midnightblue" d="M256.03,-17.74C247.4,-19.47 238.38,-21.28 230.15,-22.94"/>
<polygon fill="midnightblue" stroke="midnightblue" points="256.78,-21.15 265.89,-15.75 255.4,-14.29 256.78,-21.15"/>
</g>
</g>
</svg>
