<?xml version="1.0" encoding="UTF-8" standalone="no"?>
<!DOCTYPE svg PUBLIC "-//W3C//DTD SVG 1.1//EN"
 "http://www.w3.org/Graphics/SVG/1.1/DTD/svg11.dtd">
<!-- Generated by graphviz version 2.43.0 (0)
 -->
<!-- Title: tx_app_interface Pages: 1 -->
<svg width="403pt" height="218pt"
 viewBox="0.00 0.00 403.00 218.00" xmlns="http://www.w3.org/2000/svg" xmlns:xlink="http://www.w3.org/1999/xlink">
<g id="graph0" class="graph" transform="scale(1 1) rotate(0) translate(4 214)">
<title>tx_app_interface</title>
<!-- Node1 -->
<g id="node1" class="node">
<title>Node1</title>
<g id="a_node1"><a xlink:title="Tx Application Interface (TAi)">
<polygon fill="#bfbfbf" stroke="black" points="0,-95.5 0,-114.5 98,-114.5 98,-95.5 0,-95.5"/>
<text text-anchor="middle" x="49" y="-102.5" font-family="Helvetica,sans-Serif" font-size="10.00">tx_app_interface</text>
</a>
</g>
</g>
<!-- Node2 -->
<g id="node2" class="node">
<title>Node2</title>
<g id="a_node2"><a xlink:href="group__NTS__TOE.html#ga2a3b672922ecb85036be9b6869d3f5c4" target="_top" xlink:title="Stream Metadata Loader (Sml)">
<polygon fill="none" stroke="black" points="137,-190.5 137,-209.5 253,-209.5 253,-190.5 137,-190.5"/>
<text text-anchor="middle" x="195" y="-197.5" font-family="Helvetica,sans-Serif" font-size="10.00">pStreamMetaLoader</text>
</a>
</g>
</g>
<!-- Node1&#45;&gt;Node2 -->
<g id="edge1" class="edge">
<title>Node1&#45;&gt;Node2</title>
<path fill="none" stroke="midnightblue" d="M58.07,-114.6C71.99,-130.58 102.1,-162.69 134,-181 137.68,-183.11 141.62,-185.02 145.66,-186.74"/>
<polygon fill="midnightblue" stroke="midnightblue" points="144.6,-190.08 155.19,-190.4 147.12,-183.55 144.6,-190.08"/>
</g>
<!-- Node4 -->
<g id="node4" class="node">
<title>Node4</title>
<g id="a_node4"><a xlink:href="group__NTS__TOE.html#ga09ce8a117773d13e39cc1ed8f6557fc8" target="_top" xlink:title="A 2&#45;to&#45;1 generic Stream Multiplexer.">
<polygon fill="none" stroke="black" points="155.5,-152.5 155.5,-171.5 234.5,-171.5 234.5,-152.5 155.5,-152.5"/>
<text text-anchor="middle" x="195" y="-159.5" font-family="Helvetica,sans-Serif" font-size="10.00">pStreamMux</text>
</a>
</g>
</g>
<!-- Node1&#45;&gt;Node4 -->
<g id="edge3" class="edge">
<title>Node1&#45;&gt;Node4</title>
<path fill="none" stroke="midnightblue" d="M69.41,-114.57C86.26,-122.69 111.43,-134.36 134,-143 139.62,-145.15 145.6,-147.26 151.53,-149.24"/>
<polygon fill="midnightblue" stroke="midnightblue" points="150.78,-152.68 161.37,-152.44 152.94,-146.02 150.78,-152.68"/>
</g>
<!-- Node5 -->
<g id="node5" class="node">
<title>Node5</title>
<g id="a_node5"><a xlink:href="group__NTS__TOE.html#ga4c13d36e4851fa4849db600932af0650" target="_top" xlink:title="Tx Application Connect (Tac)">
<polygon fill="none" stroke="black" points="148.5,-114.5 148.5,-133.5 241.5,-133.5 241.5,-114.5 148.5,-114.5"/>
<text text-anchor="middle" x="195" y="-121.5" font-family="Helvetica,sans-Serif" font-size="10.00">pTxAppConnect</text>
</a>
</g>
</g>
<!-- Node1&#45;&gt;Node5 -->
<g id="edge4" class="edge">
<title>Node1&#45;&gt;Node5</title>
<path fill="none" stroke="midnightblue" d="M98.35,-111.38C111.24,-113.08 125.27,-114.93 138.51,-116.68"/>
<polygon fill="midnightblue" stroke="midnightblue" points="138.08,-120.15 148.45,-117.99 139,-113.21 138.08,-120.15"/>
</g>
<!-- Node6 -->
<g id="node6" class="node">
<title>Node6</title>
<g id="a_node6"><a xlink:href="group__NTS__TOE.html#ga6470f6a637650ff2b912f3d4a08f60d0" target="_top" xlink:title="Tx Application Status Handler (Tash)">
<polygon fill="none" stroke="black" points="134,-76.5 134,-95.5 256,-95.5 256,-76.5 134,-76.5"/>
<text text-anchor="middle" x="195" y="-83.5" font-family="Helvetica,sans-Serif" font-size="10.00">pTxAppStatusHandler</text>
</a>
</g>
</g>
<!-- Node1&#45;&gt;Node6 -->
<g id="edge5" class="edge">
<title>Node1&#45;&gt;Node6</title>
<path fill="none" stroke="midnightblue" d="M98.35,-98.62C106.51,-97.54 115.13,-96.41 123.72,-95.27"/>
<polygon fill="midnightblue" stroke="midnightblue" points="124.3,-98.73 133.75,-93.95 123.38,-91.79 124.3,-98.73"/>
</g>
<!-- Node8 -->
<g id="node8" class="node">
<title>Node8</title>
<g id="a_node8"><a xlink:href="group__NTS__TOE.html#gae724589622b3836701bb29573c2cc95d" target="_top" xlink:title="Tx Application Table (Tat)">
<polygon fill="none" stroke="black" points="155.5,-38.5 155.5,-57.5 234.5,-57.5 234.5,-38.5 155.5,-38.5"/>
<text text-anchor="middle" x="195" y="-45.5" font-family="Helvetica,sans-Serif" font-size="10.00">pTxAppTable</text>
</a>
</g>
</g>
<!-- Node1&#45;&gt;Node8 -->
<g id="edge7" class="edge">
<title>Node1&#45;&gt;Node8</title>
<path fill="none" stroke="midnightblue" d="M69.41,-95.43C86.26,-87.31 111.43,-75.64 134,-67 139.62,-64.85 145.6,-62.74 151.53,-60.76"/>
<polygon fill="midnightblue" stroke="midnightblue" points="152.94,-63.98 161.37,-57.56 150.78,-57.32 152.94,-63.98"/>
</g>
<!-- Node9 -->
<g id="node9" class="node">
<title>Node9</title>
<g id="a_node9"><a xlink:href="group__NTS__TOE.html#gab9684cc3bacf1d0a64c215ad5640e2e5" target="_top" xlink:title="Tx Memory Writer (Mwr)">
<polygon fill="none" stroke="black" points="142.5,-0.5 142.5,-19.5 247.5,-19.5 247.5,-0.5 142.5,-0.5"/>
<text text-anchor="middle" x="195" y="-7.5" font-family="Helvetica,sans-Serif" font-size="10.00">pTxMemoryWriter</text>
</a>
</g>
</g>
<!-- Node1&#45;&gt;Node9 -->
<g id="edge8" class="edge">
<title>Node1&#45;&gt;Node9</title>
<path fill="none" stroke="midnightblue" d="M58.07,-95.4C71.99,-79.42 102.1,-47.31 134,-29 137.68,-26.89 141.62,-24.98 145.66,-23.26"/>
<polygon fill="midnightblue" stroke="midnightblue" points="147.12,-26.45 155.19,-19.6 144.6,-19.92 147.12,-26.45"/>
</g>
<!-- Node3 -->
<g id="node3" class="node">
<title>Node3</title>
<g id="a_node3"><a xlink:href="group__NTS.html#gaac9d45d5535b81da06899bf3d3924ab8" target="_top" xlink:title="Returns the name of an enum&#45;based TCP&#45;State as a user friendly string.">
<polygon fill="none" stroke="black" points="292,-190.5 292,-209.5 395,-209.5 395,-190.5 292,-190.5"/>
<text text-anchor="middle" x="343.5" y="-197.5" font-family="Helvetica,sans-Serif" font-size="10.00">getTcpStateName</text>
</a>
</g>
</g>
<!-- Node2&#45;&gt;Node3 -->
<g id="edge2" class="edge">
<title>Node2&#45;&gt;Node3</title>
<path fill="none" stroke="midnightblue" d="M253.06,-200C262.38,-200 272.07,-200 281.49,-200"/>
<polygon fill="midnightblue" stroke="midnightblue" points="281.56,-203.5 291.56,-200 281.56,-196.5 281.56,-203.5"/>
</g>
<!-- Node7 -->
<g id="node7" class="node">
<title>Node7</title>
<g id="a_node7"><a xlink:href="group__NTS__TOE.html#ga5e6007e5ed6815ea1956ce32d588c07a" target="_top" xlink:title="Returns the name of an enum&#45;based event as a user friendly string.">
<polygon fill="none" stroke="black" points="299,-76.5 299,-95.5 388,-95.5 388,-76.5 299,-76.5"/>
<text text-anchor="middle" x="343.5" y="-83.5" font-family="Helvetica,sans-Serif" font-size="10.00">getEventName</text>
</a>
</g>
</g>
<!-- Node6&#45;&gt;Node7 -->
<g id="edge6" class="edge">
<title>Node6&#45;&gt;Node7</title>
<path fill="none" stroke="midnightblue" d="M256.01,-86C266.91,-86 278.21,-86 288.91,-86"/>
<polygon fill="midnightblue" stroke="midnightblue" points="288.95,-89.5 298.95,-86 288.95,-82.5 288.95,-89.5"/>
</g>
</g>
</svg>
