<?xml version="1.0" encoding="UTF-8" standalone="no"?>
<!DOCTYPE svg PUBLIC "-//W3C//DTD SVG 1.1//EN"
 "http://www.w3.org/Graphics/SVG/1.1/DTD/svg11.dtd">
<!-- Generated by graphviz version 2.43.0 (0)
 -->
<!-- Title: createUdpRxTraffic Pages: 1 -->
<svg width="885pt" height="322pt"
 viewBox="0.00 0.00 885.00 322.00" xmlns="http://www.w3.org/2000/svg" xmlns:xlink="http://www.w3.org/1999/xlink">
<g id="graph0" class="graph" transform="scale(1 1) rotate(0) translate(4 318)">
<title>createUdpRxTraffic</title>
<!-- Node1 -->
<g id="node1" class="node">
<title>Node1</title>
<g id="a_node1"><a xlink:title="Create the UDP Rx traffic as streams from an input test file.">
<polygon fill="#bfbfbf" stroke="black" points="0,-237.5 0,-256.5 109,-256.5 109,-237.5 0,-237.5"/>
<text text-anchor="middle" x="54.5" y="-244.5" font-family="Helvetica,sans-Serif" font-size="10.00">createUdpRxTraffic</text>
</a>
</g>
</g>
<!-- Node2 -->
<g id="node2" class="node">
<title>Node2</title>
<g id="a_node2"><a xlink:href="group__NTS__SIM.html#ga6ca80140c75da871abab47ecc16ecada" target="_top" xlink:title="Initialize an Axi4&#45;Stream (Axis) from a DAT file.">
<polygon fill="none" stroke="black" points="145,-237.5 145,-256.5 246,-256.5 246,-237.5 145,-237.5"/>
<text text-anchor="middle" x="195.5" y="-244.5" font-family="Helvetica,sans-Serif" font-size="10.00">feedAxisFromFile</text>
</a>
</g>
</g>
<!-- Node1&#45;&gt;Node2 -->
<g id="edge1" class="edge">
<title>Node1&#45;&gt;Node2</title>
<path fill="none" stroke="midnightblue" d="M109.24,-247C117.61,-247 126.29,-247 134.78,-247"/>
<polygon fill="midnightblue" stroke="midnightblue" points="135,-250.5 145,-247 135,-243.5 135,-250.5"/>
</g>
<!-- Node3 -->
<g id="node3" class="node">
<title>Node3</title>
<g id="a_node3"><a xlink:href="classAxisRaw.html#af8208752dcbb14911c5fda27d90a0ef4" target="_top" xlink:title=" ">
<polygon fill="none" stroke="black" points="282,-294.5 282,-313.5 404,-313.5 404,-294.5 282,-294.5"/>
<text text-anchor="middle" x="343" y="-301.5" font-family="Helvetica,sans-Serif" font-size="10.00">AxisRaw::getLE_TLast</text>
</a>
</g>
</g>
<!-- Node2&#45;&gt;Node3 -->
<g id="edge2" class="edge">
<title>Node2&#45;&gt;Node3</title>
<path fill="none" stroke="midnightblue" d="M220.85,-256.54C244.77,-265.91 281.47,-280.29 308.21,-290.76"/>
<polygon fill="midnightblue" stroke="midnightblue" points="306.98,-294.04 317.57,-294.43 309.53,-287.52 306.98,-294.04"/>
</g>
<!-- Node4 -->
<g id="node4" class="node">
<title>Node4</title>
<g id="a_node4"><a xlink:href="classAxisRaw.html#acadbd2b7e00e34417c426fa91c8d7c51" target="_top" xlink:title=" ">
<polygon fill="none" stroke="black" points="454,-261.5 454,-280.5 551,-280.5 551,-261.5 454,-261.5"/>
<text text-anchor="middle" x="502.5" y="-268.5" font-family="Helvetica,sans-Serif" font-size="10.00">AxisRaw::getLen</text>
</a>
</g>
</g>
<!-- Node2&#45;&gt;Node4 -->
<g id="edge3" class="edge">
<title>Node2&#45;&gt;Node4</title>
<path fill="none" stroke="midnightblue" d="M246.18,-250.91C300.21,-255.16 386.47,-261.95 443.55,-266.44"/>
<polygon fill="midnightblue" stroke="midnightblue" points="443.61,-269.96 453.85,-267.25 444.15,-262.98 443.61,-269.96"/>
</g>
<!-- Node6 -->
<g id="node6" class="node">
<title>Node6</title>
<g id="a_node6"><a xlink:href="group__NTS__SIM.html#ga398d1af1dfb28534249e0705860c440d" target="_top" xlink:title="Checks if a file has a &quot;.dat&quot; extension.">
<polygon fill="none" stroke="black" points="313.5,-218.5 313.5,-237.5 372.5,-237.5 372.5,-218.5 313.5,-218.5"/>
<text text-anchor="middle" x="343" y="-225.5" font-family="Helvetica,sans-Serif" font-size="10.00">isDatFile</text>
</a>
</g>
</g>
<!-- Node2&#45;&gt;Node6 -->
<g id="edge5" class="edge">
<title>Node2&#45;&gt;Node6</title>
<path fill="none" stroke="midnightblue" d="M246.17,-240.51C264.71,-238.09 285.49,-235.38 302.94,-233.1"/>
<polygon fill="midnightblue" stroke="midnightblue" points="303.87,-236.51 313.33,-231.74 302.96,-229.57 303.87,-236.51"/>
</g>
<!-- Node7 -->
<g id="node7" class="node">
<title>Node7</title>
<g id="a_node7"><a xlink:href="group__NTS__SIM.html#gad3c7d60ad2a2645c46baa9f996b7645e" target="_top" xlink:title="Retrieve an Axis raw data chunk from a file.">
<polygon fill="none" stroke="black" points="282,-161.5 282,-180.5 404,-180.5 404,-161.5 282,-161.5"/>
<text text-anchor="middle" x="343" y="-168.5" font-family="Helvetica,sans-Serif" font-size="10.00">readAxisRawFromFile</text>
</a>
</g>
</g>
<!-- Node2&#45;&gt;Node7 -->
<g id="edge6" class="edge">
<title>Node2&#45;&gt;Node7</title>
<path fill="none" stroke="midnightblue" d="M214.93,-237.37C240.07,-224.24 285.33,-200.6 314.5,-185.36"/>
<polygon fill="midnightblue" stroke="midnightblue" points="316.48,-188.28 323.72,-180.55 313.24,-182.07 316.48,-188.28"/>
</g>
<!-- Node5 -->
<g id="node5" class="node">
<title>Node5</title>
<g id="a_node5"><a xlink:href="classAxisRaw.html#aec8718820338b67381cce084ba407063" target="_top" xlink:title=" ">
<polygon fill="none" stroke="black" points="762,-247.5 762,-266.5 877,-266.5 877,-247.5 762,-247.5"/>
<text text-anchor="middle" x="819.5" y="-254.5" font-family="Helvetica,sans-Serif" font-size="10.00">AxisRaw::keepToLen</text>
</a>
</g>
</g>
<!-- Node4&#45;&gt;Node5 -->
<g id="edge4" class="edge">
<title>Node4&#45;&gt;Node5</title>
<path fill="none" stroke="midnightblue" d="M551.34,-268.87C604.79,-266.5 691.68,-262.64 751.78,-259.97"/>
<polygon fill="midnightblue" stroke="midnightblue" points="752.1,-263.45 761.94,-259.51 751.79,-256.46 752.1,-263.45"/>
</g>
<!-- Node8 -->
<g id="node8" class="node">
<title>Node8</title>
<g id="a_node8"><a xlink:href="group__NTS__SIM.html#ga1add155284d4605102a262fdc5a5657b" target="_top" xlink:title="Retrieve an AxisRaw chunk from a string.">
<polygon fill="none" stroke="black" points="440,-123.5 440,-142.5 565,-142.5 565,-123.5 440,-123.5"/>
<text text-anchor="middle" x="502.5" y="-130.5" font-family="Helvetica,sans-Serif" font-size="10.00">readAxisRawFromLine</text>
</a>
</g>
</g>
<!-- Node7&#45;&gt;Node8 -->
<g id="edge7" class="edge">
<title>Node7&#45;&gt;Node8</title>
<path fill="none" stroke="midnightblue" d="M383.74,-161.41C404.53,-156.4 430.16,-150.21 452.2,-144.89"/>
<polygon fill="midnightblue" stroke="midnightblue" points="453.14,-148.27 462.04,-142.52 451.5,-141.46 453.14,-148.27"/>
</g>
<!-- Node9 -->
<g id="node9" class="node">
<title>Node9</title>
<g id="a_node9"><a xlink:href="classAxisRaw.html#aeebcaf3646869bf5e2f39154cf14c499" target="_top" xlink:title=" ">
<polygon fill="none" stroke="black" points="615.5,-228.5 615.5,-247.5 711.5,-247.5 711.5,-228.5 615.5,-228.5"/>
<text text-anchor="middle" x="663.5" y="-235.5" font-family="Helvetica,sans-Serif" font-size="10.00">AxisRaw::isValid</text>
</a>
</g>
</g>
<!-- Node8&#45;&gt;Node9 -->
<g id="edge8" class="edge">
<title>Node8&#45;&gt;Node9</title>
<path fill="none" stroke="midnightblue" d="M511.89,-142.74C527.63,-160.42 563.4,-197.91 601,-219 604.89,-221.18 609.06,-223.14 613.33,-224.9"/>
<polygon fill="midnightblue" stroke="midnightblue" points="612.17,-228.21 622.76,-228.44 614.62,-221.65 612.17,-228.21"/>
</g>
<!-- Node10 -->
<g id="node10" class="node">
<title>Node10</title>
<g id="a_node10"><a xlink:href="group__NTS__SIM.html#ga66df4e53b356c882279264e247a90d54" target="_top" xlink:title="Converts a string of 16 HEX characters into an UINT64.">
<polygon fill="none" stroke="black" points="609.5,-190.5 609.5,-209.5 717.5,-209.5 717.5,-190.5 609.5,-190.5"/>
<text text-anchor="middle" x="663.5" y="-197.5" font-family="Helvetica,sans-Serif" font-size="10.00">myStrHexToUint64</text>
</a>
</g>
</g>
<!-- Node8&#45;&gt;Node10 -->
<g id="edge10" class="edge">
<title>Node8&#45;&gt;Node10</title>
<path fill="none" stroke="midnightblue" d="M520.74,-142.52C539.93,-152.88 572.07,-169.49 601,-181 606.59,-183.22 612.54,-185.35 618.47,-187.32"/>
<polygon fill="midnightblue" stroke="midnightblue" points="617.74,-190.77 628.33,-190.49 619.88,-184.1 617.74,-190.77"/>
</g>
<!-- Node11 -->
<g id="node11" class="node">
<title>Node11</title>
<g id="a_node11"><a xlink:href="group__NTS__SIM.html#gab66e0aa75993e5a780692b5b34ca44c8" target="_top" xlink:title="Converts a string of 2 HEX characters into an UINT8.">
<polygon fill="none" stroke="black" points="612.5,-152.5 612.5,-171.5 714.5,-171.5 714.5,-152.5 612.5,-152.5"/>
<text text-anchor="middle" x="663.5" y="-159.5" font-family="Helvetica,sans-Serif" font-size="10.00">myStrHexToUint8</text>
</a>
</g>
</g>
<!-- Node8&#45;&gt;Node11 -->
<g id="edge11" class="edge">
<title>Node8&#45;&gt;Node11</title>
<path fill="none" stroke="midnightblue" d="M556,-142.58C570.92,-145.3 587.27,-148.28 602.59,-151.07"/>
<polygon fill="midnightblue" stroke="midnightblue" points="602.01,-154.53 612.48,-152.88 603.27,-147.64 602.01,-154.53"/>
</g>
<!-- Node12 -->
<g id="node12" class="node">
<title>Node12</title>
<g id="a_node12"><a xlink:href="group__NTS__SIM.html#ga25dcee3dd54a7838781e963a097cb3f6" target="_top" xlink:title="Brakes a string into tokens by using the &#39;delimiter&#39; character.">
<polygon fill="none" stroke="black" points="624.5,-114.5 624.5,-133.5 702.5,-133.5 702.5,-114.5 624.5,-114.5"/>
<text text-anchor="middle" x="663.5" y="-121.5" font-family="Helvetica,sans-Serif" font-size="10.00">myTokenizer</text>
</a>
</g>
</g>
<!-- Node8&#45;&gt;Node12 -->
<g id="edge12" class="edge">
<title>Node8&#45;&gt;Node12</title>
<path fill="none" stroke="midnightblue" d="M565.43,-129.49C581.58,-128.58 598.75,-127.61 614.09,-126.74"/>
<polygon fill="midnightblue" stroke="midnightblue" points="614.6,-130.22 624.38,-126.16 614.2,-123.23 614.6,-130.22"/>
</g>
<!-- Node13 -->
<g id="node13" class="node">
<title>Node13</title>
<g id="a_node13"><a xlink:href="classAxisRaw.html#aa3f30a26f59cb6430ffd9196ab30c6d6" target="_top" xlink:title=" ">
<polygon fill="none" stroke="black" points="601,-76.5 601,-95.5 726,-95.5 726,-76.5 601,-76.5"/>
<text text-anchor="middle" x="663.5" y="-83.5" font-family="Helvetica,sans-Serif" font-size="10.00">AxisRaw::setLE_TData</text>
</a>
</g>
</g>
<!-- Node8&#45;&gt;Node13 -->
<g id="edge13" class="edge">
<title>Node8&#45;&gt;Node13</title>
<path fill="none" stroke="midnightblue" d="M535.68,-123.49C560.06,-116.28 593.77,-106.32 620.31,-98.47"/>
<polygon fill="midnightblue" stroke="midnightblue" points="621.5,-101.77 630.1,-95.58 619.52,-95.06 621.5,-101.77"/>
</g>
<!-- Node14 -->
<g id="node14" class="node">
<title>Node14</title>
<g id="a_node14"><a xlink:href="classAxisRaw.html#ae8f59ce9fd52536106de4db99df4558e" target="_top" xlink:title=" ">
<polygon fill="none" stroke="black" points="601,-38.5 601,-57.5 726,-57.5 726,-38.5 601,-38.5"/>
<text text-anchor="middle" x="663.5" y="-45.5" font-family="Helvetica,sans-Serif" font-size="10.00">AxisRaw::setLE_TKeep</text>
</a>
</g>
</g>
<!-- Node8&#45;&gt;Node14 -->
<g id="edge14" class="edge">
<title>Node8&#45;&gt;Node14</title>
<path fill="none" stroke="midnightblue" d="M515.11,-123.45C532.72,-109.37 567.64,-83 601,-67 605.67,-64.76 610.66,-62.71 615.7,-60.85"/>
<polygon fill="midnightblue" stroke="midnightblue" points="617.08,-64.08 625.4,-57.52 614.8,-57.46 617.08,-64.08"/>
</g>
<!-- Node15 -->
<g id="node15" class="node">
<title>Node15</title>
<g id="a_node15"><a xlink:href="classAxisRaw.html#a7fd855df91177afa363d72b3eb17af25" target="_top" xlink:title=" ">
<polygon fill="none" stroke="black" points="602.5,-0.5 602.5,-19.5 724.5,-19.5 724.5,-0.5 602.5,-0.5"/>
<text text-anchor="middle" x="663.5" y="-7.5" font-family="Helvetica,sans-Serif" font-size="10.00">AxisRaw::setLE_TLast</text>
</a>
</g>
</g>
<!-- Node8&#45;&gt;Node15 -->
<g id="edge15" class="edge">
<title>Node8&#45;&gt;Node15</title>
<path fill="none" stroke="midnightblue" d="M509.85,-123.4C523.85,-102.98 559.45,-54.97 601,-29 604.37,-26.89 607.99,-25.01 611.72,-23.32"/>
<polygon fill="midnightblue" stroke="midnightblue" points="613.2,-26.5 621.17,-19.52 610.58,-20 613.2,-26.5"/>
</g>
<!-- Node9&#45;&gt;Node5 -->
<g id="edge9" class="edge">
<title>Node9&#45;&gt;Node5</title>
<path fill="none" stroke="midnightblue" d="M711.54,-243.8C724.23,-245.37 738.2,-247.09 751.75,-248.76"/>
<polygon fill="midnightblue" stroke="midnightblue" points="751.64,-252.28 761.99,-250.03 752.49,-245.33 751.64,-252.28"/>
</g>
</g>
</svg>
