<?xml version="1.0" encoding="UTF-8" standalone="no"?>
<!DOCTYPE svg PUBLIC "-//W3C//DTD SVG 1.1//EN"
 "http://www.w3.org/Graphics/SVG/1.1/DTD/svg11.dtd">
<!-- Generated by graphviz version 2.43.0 (0)
 -->
<!-- Title: pTSIF_Recv Pages: 1 -->
<svg width="549pt" height="256pt"
 viewBox="0.00 0.00 549.00 256.00" xmlns="http://www.w3.org/2000/svg" xmlns:xlink="http://www.w3.org/1999/xlink">
<g id="graph0" class="graph" transform="scale(1 1) rotate(0) translate(4 252)">
<title>pTSIF_Recv</title>
<!-- Node1 -->
<g id="node1" class="node">
<title>Node1</title>
<g id="a_node1"><a xlink:title="Emulate the receiving part of the TSIF process.">
<polygon fill="#bfbfbf" stroke="black" points="0,-152.5 0,-171.5 73,-171.5 73,-152.5 0,-152.5"/>
<text text-anchor="middle" x="36.5" y="-159.5" font-family="Helvetica,sans-Serif" font-size="10.00">pTSIF_Recv</text>
</a>
</g>
</g>
<!-- Node2 -->
<g id="node2" class="node">
<title>Node2</title>
<g id="a_node2"><a xlink:href="classAxisRaw.html#a42cd520c9b19f7c2fc6d2fc204cb30b7" target="_top" xlink:title=" ">
<polygon fill="none" stroke="black" points="266,-228.5 266,-247.5 372,-247.5 372,-228.5 266,-228.5"/>
<text text-anchor="middle" x="319" y="-235.5" font-family="Helvetica,sans-Serif" font-size="10.00">AxisRaw::getTLast</text>
</a>
</g>
</g>
<!-- Node1&#45;&gt;Node2 -->
<g id="edge1" class="edge">
<title>Node1&#45;&gt;Node2</title>
<path fill="none" stroke="midnightblue" d="M52.22,-171.57C66.26,-180.27 88.28,-192.81 109,-200 156.8,-216.59 213.39,-226.32 255.62,-231.77"/>
<polygon fill="midnightblue" stroke="midnightblue" points="255.4,-235.27 265.76,-233.03 256.27,-228.32 255.4,-235.27"/>
</g>
<!-- Node3 -->
<g id="node3" class="node">
<title>Node3</title>
<g id="a_node3"><a xlink:href="group__NTS.html#ga5560d80c548e85eb53223a5e99410b7b" target="_top" xlink:title="Prints an Axis raw data chunk (used for debugging).">
<polygon fill="none" stroke="black" points="124,-133.5 124,-152.5 205,-152.5 205,-133.5 124,-133.5"/>
<text text-anchor="middle" x="164.5" y="-140.5" font-family="Helvetica,sans-Serif" font-size="10.00">printAxisRaw</text>
</a>
</g>
</g>
<!-- Node1&#45;&gt;Node3 -->
<g id="edge2" class="edge">
<title>Node1&#45;&gt;Node3</title>
<path fill="none" stroke="midnightblue" d="M73.27,-156.61C85.79,-154.72 100.09,-152.56 113.56,-150.53"/>
<polygon fill="midnightblue" stroke="midnightblue" points="114.29,-153.96 123.65,-149.01 113.24,-147.04 114.29,-153.96"/>
</g>
<!-- Node7 -->
<g id="node7" class="node">
<title>Node7</title>
<g id="a_node7"><a xlink:href="group__NTS__SIM.html#gaa3e64334cd72190d26fba010106f9de0" target="_top" xlink:title="Dump a TCP or UDP application data chunk into a file. The data are stored as a stream of bytes which ...">
<polygon fill="none" stroke="black" points="110,-171.5 110,-190.5 219,-190.5 219,-171.5 110,-171.5"/>
<text text-anchor="middle" x="164.5" y="-178.5" font-family="Helvetica,sans-Serif" font-size="10.00">writeAxisAppToFile</text>
</a>
</g>
</g>
<!-- Node1&#45;&gt;Node7 -->
<g id="edge6" class="edge">
<title>Node1&#45;&gt;Node7</title>
<path fill="none" stroke="midnightblue" d="M73.27,-167.39C81.6,-168.65 90.73,-170.03 99.87,-171.4"/>
<polygon fill="midnightblue" stroke="midnightblue" points="99.35,-174.87 109.76,-172.9 100.39,-167.94 99.35,-174.87"/>
</g>
<!-- Node9 -->
<g id="node9" class="node">
<title>Node9</title>
<g id="a_node9"><a xlink:href="group__NTS__SIM.html#ga3fa45716710c0aeab2d9c48492828087" target="_top" xlink:title="Dump an Axis raw data chunk to a file.">
<polygon fill="none" stroke="black" points="109,-95.5 109,-114.5 220,-114.5 220,-95.5 109,-95.5"/>
<text text-anchor="middle" x="164.5" y="-102.5" font-family="Helvetica,sans-Serif" font-size="10.00">writeAxisRawToFile</text>
</a>
</g>
</g>
<!-- Node1&#45;&gt;Node9 -->
<g id="edge11" class="edge">
<title>Node1&#45;&gt;Node9</title>
<path fill="none" stroke="midnightblue" d="M53.9,-152.36C68.17,-144.19 89.55,-132.5 109,-124 113.76,-121.92 118.82,-119.91 123.87,-118.01"/>
<polygon fill="midnightblue" stroke="midnightblue" points="125.27,-121.23 133.48,-114.54 122.89,-114.65 125.27,-121.23"/>
</g>
<!-- Node4 -->
<g id="node4" class="node">
<title>Node4</title>
<g id="a_node4"><a xlink:href="classAxisRaw.html#a7034bcf8cf143fb2bb9bfc46e70a7d6b" target="_top" xlink:title=" ">
<polygon fill="none" stroke="black" points="256.5,-152.5 256.5,-171.5 381.5,-171.5 381.5,-152.5 256.5,-152.5"/>
<text text-anchor="middle" x="319" y="-159.5" font-family="Helvetica,sans-Serif" font-size="10.00">AxisRaw::getLE_TData</text>
</a>
</g>
</g>
<!-- Node3&#45;&gt;Node4 -->
<g id="edge3" class="edge">
<title>Node3&#45;&gt;Node4</title>
<path fill="none" stroke="midnightblue" d="M205.17,-147.94C217.74,-149.51 232.05,-151.29 246.15,-153.05"/>
<polygon fill="midnightblue" stroke="midnightblue" points="246.01,-156.56 256.36,-154.32 246.87,-149.61 246.01,-156.56"/>
</g>
<!-- Node5 -->
<g id="node5" class="node">
<title>Node5</title>
<g id="a_node5"><a xlink:href="classAxisRaw.html#a4becd0ad3c51e3db2749e888f2f72e31" target="_top" xlink:title=" ">
<polygon fill="none" stroke="black" points="256,-114.5 256,-133.5 382,-133.5 382,-114.5 256,-114.5"/>
<text text-anchor="middle" x="319" y="-121.5" font-family="Helvetica,sans-Serif" font-size="10.00">AxisRaw::getLE_TKeep</text>
</a>
</g>
</g>
<!-- Node3&#45;&gt;Node5 -->
<g id="edge4" class="edge">
<title>Node3&#45;&gt;Node5</title>
<path fill="none" stroke="midnightblue" d="M205.17,-138.06C217.6,-136.51 231.72,-134.75 245.67,-133.01"/>
<polygon fill="midnightblue" stroke="midnightblue" points="246.29,-136.46 255.78,-131.75 245.42,-129.52 246.29,-136.46"/>
</g>
<!-- Node6 -->
<g id="node6" class="node">
<title>Node6</title>
<g id="a_node6"><a xlink:href="classAxisRaw.html#af8208752dcbb14911c5fda27d90a0ef4" target="_top" xlink:title=" ">
<polygon fill="none" stroke="black" points="258,-76.5 258,-95.5 380,-95.5 380,-76.5 258,-76.5"/>
<text text-anchor="middle" x="319" y="-83.5" font-family="Helvetica,sans-Serif" font-size="10.00">AxisRaw::getLE_TLast</text>
</a>
</g>
</g>
<!-- Node3&#45;&gt;Node6 -->
<g id="edge5" class="edge">
<title>Node3&#45;&gt;Node6</title>
<path fill="none" stroke="midnightblue" d="M195.51,-133.44C203.56,-130.64 212.19,-127.4 220,-124 236.59,-116.78 239.28,-111.9 256,-105 261.47,-102.74 267.3,-100.61 273.12,-98.65"/>
<polygon fill="midnightblue" stroke="midnightblue" points="274.39,-101.92 282.83,-95.52 272.24,-95.26 274.39,-101.92"/>
</g>
<!-- Node7&#45;&gt;Node2 -->
<g id="edge9" class="edge">
<title>Node7&#45;&gt;Node2</title>
<path fill="none" stroke="midnightblue" d="M186.47,-190.51C204.67,-198.59 231.81,-210.24 256,-219 262.04,-221.19 268.48,-223.35 274.82,-225.38"/>
<polygon fill="midnightblue" stroke="midnightblue" points="274.07,-228.81 284.66,-228.45 276.16,-222.13 274.07,-228.81"/>
</g>
<!-- Node7&#45;&gt;Node4 -->
<g id="edge7" class="edge">
<title>Node7&#45;&gt;Node4</title>
<path fill="none" stroke="midnightblue" d="M219.27,-174.3C227.99,-173.21 237.14,-172.07 246.21,-170.94"/>
<polygon fill="midnightblue" stroke="midnightblue" points="246.9,-174.39 256.39,-169.68 246.03,-167.44 246.9,-174.39"/>
</g>
<!-- Node7&#45;&gt;Node5 -->
<g id="edge8" class="edge">
<title>Node7&#45;&gt;Node5</title>
<path fill="none" stroke="midnightblue" d="M195.51,-171.44C203.56,-168.64 212.19,-165.4 220,-162 236.59,-154.78 239.28,-149.9 256,-143 261.47,-140.74 267.3,-138.61 273.12,-136.65"/>
<polygon fill="midnightblue" stroke="midnightblue" points="274.39,-139.92 282.83,-133.52 272.24,-133.26 274.39,-139.92"/>
</g>
<!-- Node8 -->
<g id="node8" class="node">
<title>Node8</title>
<g id="a_node8"><a xlink:href="group__NTS__SIM.html#ga23351fea2192ce82bbb836404a52973b" target="_top" xlink:title="Converts an UINT8 into a string of 2 HEX characters.">
<polygon fill="none" stroke="black" points="268,-190.5 268,-209.5 370,-209.5 370,-190.5 268,-190.5"/>
<text text-anchor="middle" x="319" y="-197.5" font-family="Helvetica,sans-Serif" font-size="10.00">myUint8ToStrHex</text>
</a>
</g>
</g>
<!-- Node7&#45;&gt;Node8 -->
<g id="edge10" class="edge">
<title>Node7&#45;&gt;Node8</title>
<path fill="none" stroke="midnightblue" d="M219.27,-187.7C231.72,-189.25 245.04,-190.91 257.75,-192.49"/>
<polygon fill="midnightblue" stroke="midnightblue" points="257.43,-195.98 267.78,-193.74 258.29,-189.03 257.43,-195.98"/>
</g>
<!-- Node9&#45;&gt;Node4 -->
<g id="edge12" class="edge">
<title>Node9&#45;&gt;Node4</title>
<path fill="none" stroke="midnightblue" d="M195.51,-114.56C203.56,-117.36 212.19,-120.6 220,-124 236.59,-131.22 239.28,-136.1 256,-143 261.47,-145.26 267.3,-147.39 273.12,-149.35"/>
<polygon fill="midnightblue" stroke="midnightblue" points="272.24,-152.74 282.83,-152.48 274.39,-146.08 272.24,-152.74"/>
</g>
<!-- Node9&#45;&gt;Node5 -->
<g id="edge13" class="edge">
<title>Node9&#45;&gt;Node5</title>
<path fill="none" stroke="midnightblue" d="M220.13,-111.81C228.48,-112.85 237.21,-113.93 245.87,-115.01"/>
<polygon fill="midnightblue" stroke="midnightblue" points="245.62,-118.51 255.98,-116.27 246.49,-111.56 245.62,-118.51"/>
</g>
<!-- Node9&#45;&gt;Node6 -->
<g id="edge14" class="edge">
<title>Node9&#45;&gt;Node6</title>
<path fill="none" stroke="midnightblue" d="M220.13,-98.19C229.1,-97.08 238.51,-95.9 247.8,-94.75"/>
<polygon fill="midnightblue" stroke="midnightblue" points="248.32,-98.21 257.81,-93.5 247.45,-91.26 248.32,-98.21"/>
</g>
<!-- Node10 -->
<g id="node10" class="node">
<title>Node10</title>
<g id="a_node10"><a xlink:href="group__UppercaseHLS.html#gae061e0acc4f8984634689d549fdae11b" target="_top" xlink:title="Main process of the Uppercase Application directives.">
<polygon fill="none" stroke="black" points="285.5,-38.5 285.5,-57.5 352.5,-57.5 352.5,-38.5 285.5,-38.5"/>
<text text-anchor="middle" x="319" y="-45.5" font-family="Helvetica,sans-Serif" font-size="10.00">uppercase</text>
</a>
</g>
</g>
<!-- Node9&#45;&gt;Node10 -->
<g id="edge15" class="edge">
<title>Node9&#45;&gt;Node10</title>
<path fill="none" stroke="midnightblue" d="M186.47,-95.49C204.67,-87.41 231.81,-75.76 256,-67 262.33,-64.71 269.09,-62.45 275.72,-60.34"/>
<polygon fill="midnightblue" stroke="midnightblue" points="276.79,-63.67 285.3,-57.35 274.71,-56.98 276.79,-63.67"/>
</g>
<!-- Node11 -->
<g id="node11" class="node">
<title>Node11</title>
<g id="a_node11"><a xlink:href="group__UppercaseHLS.html#ga033fd36668741325cf3c111416e82131" target="_top" xlink:title="pPortAndDestionation &#45; Setup the port and the destination rank.">
<polygon fill="none" stroke="black" points="418,-76.5 418,-95.5 541,-95.5 541,-76.5 418,-76.5"/>
<text text-anchor="middle" x="479.5" y="-83.5" font-family="Helvetica,sans-Serif" font-size="10.00">pPortAndDestionation</text>
</a>
</g>
</g>
<!-- Node10&#45;&gt;Node11 -->
<g id="edge16" class="edge">
<title>Node10&#45;&gt;Node11</title>
<path fill="none" stroke="midnightblue" d="M352.84,-55.87C374.76,-61.13 403.98,-68.14 428.74,-74.07"/>
<polygon fill="midnightblue" stroke="midnightblue" points="428.14,-77.53 438.68,-76.45 429.77,-70.72 428.14,-77.53"/>
</g>
<!-- Node12 -->
<g id="node12" class="node">
<title>Node12</title>
<g id="a_node12"><a xlink:href="group__UppercaseHLS.html#ga5241239d0335747a6f0ee418cbc7d5a9" target="_top" xlink:title="Receive Path &#45; From SHELL to THIS.">
<polygon fill="none" stroke="black" points="451,-38.5 451,-57.5 508,-57.5 508,-38.5 451,-38.5"/>
<text text-anchor="middle" x="479.5" y="-45.5" font-family="Helvetica,sans-Serif" font-size="10.00">pRXPath</text>
</a>
</g>
</g>
<!-- Node10&#45;&gt;Node12 -->
<g id="edge17" class="edge">
<title>Node10&#45;&gt;Node12</title>
<path fill="none" stroke="midnightblue" d="M352.84,-48C378.46,-48 414.06,-48 440.83,-48"/>
<polygon fill="midnightblue" stroke="midnightblue" points="440.98,-51.5 450.98,-48 440.98,-44.5 440.98,-51.5"/>
</g>
<!-- Node13 -->
<g id="node13" class="node">
<title>Node13</title>
<g id="a_node13"><a xlink:href="group__UppercaseHLS.html#ga6ac5a71b18876a813d752ff488f94c45" target="_top" xlink:title="Transmit Path &#45; From THIS to SHELL.">
<polygon fill="none" stroke="black" points="451.5,-0.5 451.5,-19.5 507.5,-19.5 507.5,-0.5 451.5,-0.5"/>
<text text-anchor="middle" x="479.5" y="-7.5" font-family="Helvetica,sans-Serif" font-size="10.00">pTXPath</text>
</a>
</g>
</g>
<!-- Node10&#45;&gt;Node13 -->
<g id="edge18" class="edge">
<title>Node10&#45;&gt;Node13</title>
<path fill="none" stroke="midnightblue" d="M352.84,-40.13C378.73,-33.92 414.82,-25.27 441.69,-18.83"/>
<polygon fill="midnightblue" stroke="midnightblue" points="442.58,-22.21 451.49,-16.48 440.95,-15.4 442.58,-22.21"/>
</g>
</g>
</svg>
