<?xml version="1.0" encoding="UTF-8" standalone="no"?>
<!DOCTYPE svg PUBLIC "-//W3C//DTD SVG 1.1//EN"
 "http://www.w3.org/Graphics/SVG/1.1/DTD/svg11.dtd">
<!-- Generated by graphviz version 2.43.0 (0)
 -->
<!-- Title: printSockPair Pages: 1 -->
<svg width="936pt" height="544pt"
 viewBox="0.00 0.00 936.00 543.78" xmlns="http://www.w3.org/2000/svg" xmlns:xlink="http://www.w3.org/1999/xlink">
<g id="graph0" class="graph" transform="scale(1 1) rotate(0) translate(4 539.78)">
<title>printSockPair</title>
<!-- Node1 -->
<g id="node1" class="node">
<title>Node1</title>
<g id="a_node1"><a xlink:title="Print a socket pair association.">
<polygon fill="#bfbfbf" stroke="black" points="848,-247.5 848,-266.5 928,-266.5 928,-247.5 848,-247.5"/>
<text text-anchor="middle" x="888" y="-254.5" font-family="Helvetica,sans-Serif" font-size="10.00">printSockPair</text>
</a>
</g>
</g>
<!-- Node2 -->
<g id="node2" class="node">
<title>Node2</title>
<g id="a_node2"><a xlink:href="group__NTS__UOE__TEST.html#ga40610514eb0285c8afbe8cfe003638f6" target="_top" xlink:title="Create the golden Rx APP reference files from an input IPRX test file.">
<polygon fill="none" stroke="black" points="262,-446.5 262,-465.5 379,-465.5 379,-446.5 262,-446.5"/>
<text text-anchor="middle" x="320.5" y="-453.5" font-family="Helvetica,sans-Serif" font-size="10.00">createGoldenRxFiles</text>
</a>
</g>
</g>
<!-- Node1&#45;&gt;Node2 -->
<g id="edge1" class="edge">
<title>Node1&#45;&gt;Node2</title>
<path fill="none" stroke="midnightblue" d="M887.5,-276.64C887.46,-322.35 880.15,-435.67 812,-485 662.39,-593.28 415.02,-497.67 342.24,-465.59"/>
<polygon fill="midnightblue" stroke="midnightblue" points="891,-276.52 887.39,-266.56 884,-276.6 891,-276.52"/>
</g>
<!-- Node4 -->
<g id="node4" class="node">
<title>Node4</title>
<g id="a_node4"><a xlink:href="group__udp__app__flash.html#gaed659893ff9e142d02f969213e4a501f" target="_top" xlink:title="Create the golden UDP Tx files from an input test file.">
<polygon fill="none" stroke="black" points="686,-456.5 686,-475.5 802,-475.5 802,-456.5 686,-456.5"/>
<text text-anchor="middle" x="744" y="-463.5" font-family="Helvetica,sans-Serif" font-size="10.00">createGoldenTxFiles</text>
</a>
</g>
</g>
<!-- Node1&#45;&gt;Node4 -->
<g id="edge3" class="edge">
<title>Node1&#45;&gt;Node4</title>
<path fill="none" stroke="midnightblue" d="M884.9,-276.95C879.77,-315.58 862.99,-400.85 812,-447 807.7,-450.89 802.65,-454 797.3,-456.47"/>
<polygon fill="midnightblue" stroke="midnightblue" points="888.44,-276.9 886.15,-266.55 881.49,-276.06 888.44,-276.9"/>
</g>
<!-- Node5 -->
<g id="node5" class="node">
<title>Node5</title>
<g id="a_node5"><a xlink:href="group__NTS__UOE__TEST.html#gaade9ca57b9afc3b09367953829101ba0" target="_top" xlink:title="Empty an UdpMeta stream to a DAT file.">
<polygon fill="none" stroke="black" points="77,-124.5 77,-143.5 226,-143.5 226,-124.5 77,-124.5"/>
<text text-anchor="middle" x="151.5" y="-131.5" font-family="Helvetica,sans-Serif" font-size="10.00">drainUdpMetaStreamToFile</text>
</a>
</g>
</g>
<!-- Node1&#45;&gt;Node5 -->
<g id="edge4" class="edge">
<title>Node1&#45;&gt;Node5</title>
<path fill="none" stroke="midnightblue" d="M880.36,-237.51C870.21,-211.04 848.12,-164.55 812,-143 728.67,-93.28 691.53,-124 594.5,-124 594.5,-124 594.5,-124 462,-124 381.36,-124 288.96,-127.43 226.27,-130.28"/>
<polygon fill="midnightblue" stroke="midnightblue" points="877.18,-238.99 883.88,-247.2 883.75,-236.6 877.18,-238.99"/>
</g>
<!-- Node6 -->
<g id="node6" class="node">
<title>Node6</title>
<g id="a_node6"><a xlink:href="group__NTS__TOE.html#gad78e6dd5ce1bf5f5b9de484b12d7bf81" target="_top" xlink:title="TCP checksum accumulator (Csa)">
<polygon fill="none" stroke="black" points="676,-418.5 676,-437.5 812,-437.5 812,-418.5 676,-418.5"/>
<text text-anchor="middle" x="744" y="-425.5" font-family="Helvetica,sans-Serif" font-size="10.00">pCheckSumAccumulator</text>
</a>
</g>
</g>
<!-- Node1&#45;&gt;Node6 -->
<g id="edge6" class="edge">
<title>Node1&#45;&gt;Node6</title>
<path fill="none" stroke="midnightblue" d="M882.8,-276.52C874.8,-308.94 854.28,-373.8 812,-409 807.35,-412.87 801.97,-415.95 796.31,-418.41"/>
<polygon fill="midnightblue" stroke="midnightblue" points="886.27,-277.04 885.12,-266.51 879.46,-275.46 886.27,-277.04"/>
</g>
<!-- Node11 -->
<g id="node11" class="node">
<title>Node11</title>
<g id="a_node11"><a xlink:href="group__NTS__TOE__TEST.html#ga1c5c20696afed462358c80faea6e8494" target="_top" xlink:title="Take the ACK number of a session and inject it into the sequence number field of the current packet.">
<polygon fill="none" stroke="black" points="677,-304.5 677,-323.5 811,-323.5 811,-304.5 677,-304.5"/>
<text text-anchor="middle" x="744" y="-311.5" font-family="Helvetica,sans-Serif" font-size="10.00">pIPRX_InjectAckNumber</text>
</a>
</g>
</g>
<!-- Node1&#45;&gt;Node11 -->
<g id="edge11" class="edge">
<title>Node1&#45;&gt;Node11</title>
<path fill="none" stroke="midnightblue" d="M861.3,-271.58C847.07,-279.24 828.9,-288.39 812,-295 802.99,-298.52 793.07,-301.7 783.69,-304.4"/>
<polygon fill="midnightblue" stroke="midnightblue" points="863.36,-274.43 870.45,-266.56 860,-268.3 863.36,-274.43"/>
</g>
<!-- Node14 -->
<g id="node14" class="node">
<title>Node14</title>
<g id="a_node14"><a xlink:href="group__NTS__TOE__TEST.html#ga9a2995ad064c9297d100faa61cd553a9" target="_top" xlink:title="Parse the TCP/IP packets generated by the TOE.">
<polygon fill="none" stroke="black" points="706,-266.5 706,-285.5 782,-285.5 782,-266.5 706,-266.5"/>
<text text-anchor="middle" x="744" y="-273.5" font-family="Helvetica,sans-Serif" font-size="10.00">pIPTX_Parse</text>
</a>
</g>
</g>
<!-- Node1&#45;&gt;Node14 -->
<g id="edge14" class="edge">
<title>Node1&#45;&gt;Node14</title>
<path fill="none" stroke="midnightblue" d="M837.91,-263.57C819.6,-266.02 799.15,-268.76 782.1,-271.04"/>
<polygon fill="midnightblue" stroke="midnightblue" points="838.37,-267.04 847.82,-262.24 837.45,-260.1 838.37,-267.04"/>
</g>
<!-- Node16 -->
<g id="node16" class="node">
<title>Node16</title>
<g id="a_node16"><a xlink:href="group__NTS__TOE.html#ga8662fb114e539be4f8947dccc7d04eb5" target="_top" xlink:title="MetaData Handler (Mdh)">
<polygon fill="none" stroke="black" points="689.5,-380.5 689.5,-399.5 798.5,-399.5 798.5,-380.5 689.5,-380.5"/>
<text text-anchor="middle" x="744" y="-387.5" font-family="Helvetica,sans-Serif" font-size="10.00">pMetaDataHandler</text>
</a>
</g>
</g>
<!-- Node1&#45;&gt;Node16 -->
<g id="edge16" class="edge">
<title>Node1&#45;&gt;Node16</title>
<path fill="none" stroke="midnightblue" d="M879.58,-275.93C868.64,-301.37 845.75,-346.25 812,-371 806.73,-374.86 800.71,-377.94 794.48,-380.39"/>
<polygon fill="midnightblue" stroke="midnightblue" points="882.84,-277.21 883.42,-266.63 876.37,-274.54 882.84,-277.21"/>
</g>
<!-- Node17 -->
<g id="node17" class="node">
<title>Node17</title>
<g id="a_node17"><a xlink:href="group__NTS__TOE.html#ga211a909ee900030824ab98148898c9d1" target="_top" xlink:title="Print a socket pair association from an internal FourTuple encoding.">
<polygon fill="none" stroke="black" points="701,-228.5 701,-247.5 787,-247.5 787,-228.5 701,-228.5"/>
<text text-anchor="middle" x="744" y="-235.5" font-family="Helvetica,sans-Serif" font-size="10.00">printFourTuple</text>
</a>
</g>
</g>
<!-- Node1&#45;&gt;Node17 -->
<g id="edge18" class="edge">
<title>Node1&#45;&gt;Node17</title>
<path fill="none" stroke="midnightblue" d="M837.79,-250.42C821.25,-248.2 802.97,-245.76 787.03,-243.62"/>
<polygon fill="midnightblue" stroke="midnightblue" points="837.45,-253.9 847.82,-251.76 838.37,-246.96 837.45,-253.9"/>
</g>
<!-- Node19 -->
<g id="node19" class="node">
<title>Node19</title>
<g id="a_node19"><a xlink:href="group__NTS__TOE.html#gaec2014c0d41b0e8e0bdf3b08c039388f" target="_top" xlink:title=" ">
<polygon fill="none" stroke="black" points="690,-342.5 690,-361.5 798,-361.5 798,-342.5 690,-342.5"/>
<text text-anchor="middle" x="744" y="-349.5" font-family="Helvetica,sans-Serif" font-size="10.00">pSocketPairSplitter</text>
</a>
</g>
</g>
<!-- Node1&#45;&gt;Node19 -->
<g id="edge20" class="edge">
<title>Node1&#45;&gt;Node19</title>
<path fill="none" stroke="midnightblue" d="M873.85,-274.92C860.23,-292.23 837.41,-317.97 812,-333 805.44,-336.88 798.06,-340 790.65,-342.5"/>
<polygon fill="midnightblue" stroke="midnightblue" points="876.81,-276.81 880.09,-266.74 871.24,-272.56 876.81,-276.81"/>
</g>
<!-- Node21 -->
<g id="node21" class="node">
<title>Node21</title>
<g id="a_node21"><a xlink:href="group__NTS__TOE__TEST.html#ga113b5da1f12695b148ba5d01254028c4" target="_top" xlink:title="TCP Application Connect (Tac). Requests TOE to open a new connection to a HOST socket.">
<polygon fill="none" stroke="black" points="695.5,-152.5 695.5,-171.5 792.5,-171.5 792.5,-152.5 695.5,-152.5"/>
<text text-anchor="middle" x="744" y="-159.5" font-family="Helvetica,sans-Serif" font-size="10.00">pTcpAppConnect</text>
</a>
</g>
</g>
<!-- Node1&#45;&gt;Node21 -->
<g id="edge23" class="edge">
<title>Node1&#45;&gt;Node21</title>
<path fill="none" stroke="midnightblue" d="M873.85,-239.08C860.23,-221.77 837.41,-196.03 812,-181 805.44,-177.12 798.06,-174 790.65,-171.5"/>
<polygon fill="midnightblue" stroke="midnightblue" points="871.24,-241.44 880.09,-247.26 876.81,-237.19 871.24,-241.44"/>
</g>
<!-- Node24 -->
<g id="node24" class="node">
<title>Node24</title>
<g id="a_node24"><a xlink:href="group__NTS__UOE.html#gac7019e2dca00657e45cc22122fe8c23e" target="_top" xlink:title=" ">
<polygon fill="none" stroke="black" points="683,-190.5 683,-209.5 805,-209.5 805,-190.5 683,-190.5"/>
<text text-anchor="middle" x="744" y="-197.5" font-family="Helvetica,sans-Serif" font-size="10.00">pTxDatagramHandler</text>
</a>
</g>
</g>
<!-- Node1&#45;&gt;Node24 -->
<g id="edge26" class="edge">
<title>Node1&#45;&gt;Node24</title>
<path fill="none" stroke="midnightblue" d="M861.3,-242.42C847.07,-234.76 828.9,-225.61 812,-219 802.99,-215.48 793.07,-212.3 783.69,-209.6"/>
<polygon fill="midnightblue" stroke="midnightblue" points="860,-245.7 870.45,-247.44 863.36,-239.57 860,-245.7"/>
</g>
<!-- Node29 -->
<g id="node29" class="node">
<title>Node29</title>
<g id="a_node29"><a xlink:href="group__udp__shell__if.html#gad2f4a79a5d25be1a5112d627ca6e3dc0" target="_top" xlink:title="Emulate behavior of the SHELL/NTS/UDP Offload Engine (UOE).">
<polygon fill="none" stroke="black" points="571.5,-76.5 571.5,-95.5 615.5,-95.5 615.5,-76.5 571.5,-76.5"/>
<text text-anchor="middle" x="593.5" y="-83.5" font-family="Helvetica,sans-Serif" font-size="10.00">pUOE</text>
</a>
</g>
</g>
<!-- Node1&#45;&gt;Node29 -->
<g id="edge33" class="edge">
<title>Node1&#45;&gt;Node29</title>
<path fill="none" stroke="midnightblue" d="M883.19,-237.33C875.77,-204.82 856.07,-140.44 812,-110 751.2,-68.01 657.24,-75.97 615.6,-82.22"/>
<polygon fill="midnightblue" stroke="midnightblue" points="879.83,-238.34 885.33,-247.4 886.68,-236.89 879.83,-238.34"/>
</g>
<!-- Node31 -->
<g id="node31" class="node">
<title>Node31</title>
<g id="a_node31"><a xlink:href="group__udp__shell__if.html#ga8d1842fd15e269a579ebdf54923d4366" target="_top" xlink:title="Write Path (WRp) &#45; From ROLE/UAF to SHELL/NTS/UOE.">
<polygon fill="none" stroke="black" points="709,-38.5 709,-57.5 779,-57.5 779,-38.5 709,-38.5"/>
<text text-anchor="middle" x="744" y="-45.5" font-family="Helvetica,sans-Serif" font-size="10.00">pWritePath</text>
</a>
</g>
</g>
<!-- Node1&#45;&gt;Node31 -->
<g id="edge35" class="edge">
<title>Node1&#45;&gt;Node31</title>
<path fill="none" stroke="midnightblue" d="M884.38,-237.34C878.39,-199.97 860.27,-118.32 812,-72 803,-63.36 790.67,-57.8 779.04,-54.24"/>
<polygon fill="midnightblue" stroke="midnightblue" points="880.95,-238.04 885.87,-247.42 887.87,-237.02 880.95,-238.04"/>
</g>
<!-- Node34 -->
<g id="node34" class="node">
<title>Node34</title>
<g id="a_node34"><a xlink:href="group__NTS__TOECAM.html#gad2da241eccaa85d08953c187613644ee" target="_top" xlink:title="Main process of the Content&#45;Addressable Memory (TOECAM).">
<polygon fill="none" stroke="black" points="717.5,-0.5 717.5,-19.5 770.5,-19.5 770.5,-0.5 717.5,-0.5"/>
<text text-anchor="middle" x="744" y="-7.5" font-family="Helvetica,sans-Serif" font-size="10.00">toecam</text>
</a>
</g>
</g>
<!-- Node1&#45;&gt;Node34 -->
<g id="edge39" class="edge">
<title>Node1&#45;&gt;Node34</title>
<path fill="none" stroke="midnightblue" d="M886.42,-237.08C884.04,-193 872.03,-86.59 812,-29 801.01,-18.45 784.6,-13.69 770.78,-11.56"/>
<polygon fill="midnightblue" stroke="midnightblue" points="882.93,-237.25 886.85,-247.1 889.92,-236.96 882.93,-237.25"/>
</g>
<!-- Node3 -->
<g id="node3" class="node">
<title>Node3</title>
<g id="a_node3"><a xlink:href="group__NTS__UOE__TEST.html#ga0ddf1224851353fc92bfbff6f499fa97" target="_top" xlink:title="Main function.">
<polygon fill="none" stroke="black" points="0,-190.5 0,-209.5 41,-209.5 41,-190.5 0,-190.5"/>
<text text-anchor="middle" x="20.5" y="-197.5" font-family="Helvetica,sans-Serif" font-size="10.00">main</text>
</a>
</g>
</g>
<!-- Node2&#45;&gt;Node3 -->
<g id="edge2" class="edge">
<title>Node2&#45;&gt;Node3</title>
<path fill="none" stroke="midnightblue" d="M251.77,-454.89C197.6,-450.36 123.29,-435.44 77,-390 24.52,-338.48 21,-240.33 21.25,-209.5"/>
<polygon fill="midnightblue" stroke="midnightblue" points="251.75,-458.4 261.98,-455.64 252.27,-451.41 251.75,-458.4"/>
</g>
<!-- Node5&#45;&gt;Node3 -->
<g id="edge5" class="edge">
<title>Node5&#45;&gt;Node3</title>
<path fill="none" stroke="midnightblue" d="M110.9,-147.13C99.71,-151.36 87.67,-156.42 77,-162 61.27,-170.23 44.66,-182.08 33.75,-190.36"/>
<polygon fill="midnightblue" stroke="midnightblue" points="112.29,-150.35 120.48,-143.62 109.88,-143.77 112.29,-150.35"/>
</g>
<!-- Node7 -->
<g id="node7" class="node">
<title>Node7</title>
<g id="a_node7"><a xlink:href="group__NTS__TOE.html#ga1682a5e1b442e8347cda40bb8c695487" target="_top" xlink:title="Receive Engine (RXe)">
<polygon fill="none" stroke="black" points="561,-380.5 561,-399.5 626,-399.5 626,-380.5 561,-380.5"/>
<text text-anchor="middle" x="593.5" y="-387.5" font-family="Helvetica,sans-Serif" font-size="10.00">rx_engine</text>
</a>
</g>
</g>
<!-- Node6&#45;&gt;Node7 -->
<g id="edge7" class="edge">
<title>Node6&#45;&gt;Node7</title>
<path fill="none" stroke="midnightblue" d="M695.77,-415.91C673.14,-410.12 646.64,-403.34 626.43,-398.17"/>
<polygon fill="midnightblue" stroke="midnightblue" points="694.97,-419.32 705.53,-418.41 696.71,-412.54 694.97,-419.32"/>
</g>
<!-- Node8 -->
<g id="node8" class="node">
<title>Node8</title>
<g id="a_node8"><a xlink:href="group__NTS__TOE.html#ga1d48efdcf37aa3803a7f7444fe485c9f" target="_top" xlink:title="Main process of the TCP Offload Engine (TOE0.">
<polygon fill="none" stroke="black" points="447,-361.5 447,-380.5 479,-380.5 479,-361.5 447,-361.5"/>
<text text-anchor="middle" x="463" y="-368.5" font-family="Helvetica,sans-Serif" font-size="10.00">toe</text>
</a>
</g>
</g>
<!-- Node7&#45;&gt;Node8 -->
<g id="edge8" class="edge">
<title>Node7&#45;&gt;Node8</title>
<path fill="none" stroke="midnightblue" d="M550.58,-383.8C526.06,-380.18 496.58,-375.82 479.11,-373.23"/>
<polygon fill="midnightblue" stroke="midnightblue" points="550.33,-387.3 560.74,-385.3 551.36,-380.38 550.33,-387.3"/>
</g>
<!-- Node9 -->
<g id="node9" class="node">
<title>Node9</title>
<g id="a_node9"><a xlink:href="group__NTS__TOE.html#gab3d23260a8a037543d01f716091df7e8" target="_top" xlink:title="Top of TCP Offload Engine (TOE)">
<polygon fill="none" stroke="black" points="294,-361.5 294,-380.5 347,-380.5 347,-361.5 294,-361.5"/>
<text text-anchor="middle" x="320.5" y="-368.5" font-family="Helvetica,sans-Serif" font-size="10.00">toe_top</text>
</a>
</g>
</g>
<!-- Node8&#45;&gt;Node9 -->
<g id="edge9" class="edge">
<title>Node8&#45;&gt;Node9</title>
<path fill="none" stroke="midnightblue" d="M436.68,-371C411.33,-371 372.54,-371 347.09,-371"/>
<polygon fill="midnightblue" stroke="midnightblue" points="436.96,-374.5 446.96,-371 436.96,-367.5 436.96,-374.5"/>
</g>
<!-- Node10 -->
<g id="node10" class="node">
<title>Node10</title>
<g id="a_node10"><a xlink:href="group__NTS__TOE__TEST.html#gae95a90fdba9993f0d4e2f27cd94f22e2" target="_top" xlink:title="A wrapper for the Toplevel of the TCP Offload Engine (TOE).">
<polygon fill="none" stroke="black" points="110,-361.5 110,-380.5 193,-380.5 193,-361.5 110,-361.5"/>
<text text-anchor="middle" x="151.5" y="-368.5" font-family="Helvetica,sans-Serif" font-size="10.00">toe_top_wrap</text>
</a>
</g>
</g>
<!-- Node9&#45;&gt;Node10 -->
<g id="edge10" class="edge">
<title>Node9&#45;&gt;Node10</title>
<path fill="none" stroke="midnightblue" d="M283.75,-371C257.18,-371 220.9,-371 193.22,-371"/>
<polygon fill="midnightblue" stroke="midnightblue" points="283.77,-374.5 293.77,-371 283.77,-367.5 283.77,-374.5"/>
</g>
<!-- Node12 -->
<g id="node12" class="node">
<title>Node12</title>
<g id="a_node12"><a xlink:href="group__NTS__TOE__TEST.html#ga117d84af693cae78b0f7f615942c8db8" target="_top" xlink:title="Feed TOE with an IP packet.">
<polygon fill="none" stroke="black" points="547,-304.5 547,-323.5 640,-323.5 640,-304.5 547,-304.5"/>
<text text-anchor="middle" x="593.5" y="-311.5" font-family="Helvetica,sans-Serif" font-size="10.00">pIPRX_FeedTOE</text>
</a>
</g>
</g>
<!-- Node11&#45;&gt;Node12 -->
<g id="edge12" class="edge">
<title>Node11&#45;&gt;Node12</title>
<path fill="none" stroke="midnightblue" d="M666.4,-314C657.38,-314 648.41,-314 640.01,-314"/>
<polygon fill="midnightblue" stroke="midnightblue" points="666.57,-317.5 676.57,-314 666.57,-310.5 666.57,-317.5"/>
</g>
<!-- Node13 -->
<g id="node13" class="node">
<title>Node13</title>
<g id="a_node13"><a xlink:href="group__NTS__TOE__TEST.html#ga19626da81d440ab83bcba2f6838ccb87" target="_top" xlink:title="Emulate the behavior of the IP Rx Path (IPRX).">
<polygon fill="none" stroke="black" points="440.5,-304.5 440.5,-323.5 485.5,-323.5 485.5,-304.5 440.5,-304.5"/>
<text text-anchor="middle" x="463" y="-311.5" font-family="Helvetica,sans-Serif" font-size="10.00">pIPRX</text>
</a>
</g>
</g>
<!-- Node12&#45;&gt;Node13 -->
<g id="edge13" class="edge">
<title>Node12&#45;&gt;Node13</title>
<path fill="none" stroke="midnightblue" d="M536.67,-314C518.67,-314 499.77,-314 485.76,-314"/>
<polygon fill="midnightblue" stroke="midnightblue" points="536.83,-317.5 546.83,-314 536.83,-310.5 536.83,-317.5"/>
</g>
<!-- Node15 -->
<g id="node15" class="node">
<title>Node15</title>
<g id="a_node15"><a xlink:href="group__NTS__TOE__TEST.html#ga5555b85edfa105eb62cf20f0dbdf5962" target="_top" xlink:title="Emulate the behavior of the IP Tx Handler (IPTX).">
<polygon fill="none" stroke="black" points="571.5,-266.5 571.5,-285.5 615.5,-285.5 615.5,-266.5 571.5,-266.5"/>
<text text-anchor="middle" x="593.5" y="-273.5" font-family="Helvetica,sans-Serif" font-size="10.00">pIPTX</text>
</a>
</g>
</g>
<!-- Node14&#45;&gt;Node15 -->
<g id="edge15" class="edge">
<title>Node14&#45;&gt;Node15</title>
<path fill="none" stroke="midnightblue" d="M695.87,-276C668.89,-276 636.35,-276 615.55,-276"/>
<polygon fill="midnightblue" stroke="midnightblue" points="695.91,-279.5 705.91,-276 695.91,-272.5 695.91,-279.5"/>
</g>
<!-- Node16&#45;&gt;Node7 -->
<g id="edge17" class="edge">
<title>Node16&#45;&gt;Node7</title>
<path fill="none" stroke="midnightblue" d="M679.35,-390C661.06,-390 641.9,-390 626.43,-390"/>
<polygon fill="midnightblue" stroke="midnightblue" points="679.39,-393.5 689.39,-390 679.39,-386.5 679.39,-393.5"/>
</g>
<!-- Node18 -->
<g id="node18" class="node">
<title>Node18</title>
<g id="a_node18"><a xlink:href="group__NTS__TOE__TEST.html#ga656ce2d824cae491ba91d81572eb0f08" target="_top" xlink:title="Emulate the behavior of the Content Addressable Memory (TOECAM).">
<polygon fill="none" stroke="black" points="550.5,-228.5 550.5,-247.5 636.5,-247.5 636.5,-228.5 550.5,-228.5"/>
<text text-anchor="middle" x="593.5" y="-235.5" font-family="Helvetica,sans-Serif" font-size="10.00">pEmulateCam</text>
</a>
</g>
</g>
<!-- Node17&#45;&gt;Node18 -->
<g id="edge19" class="edge">
<title>Node17&#45;&gt;Node18</title>
<path fill="none" stroke="midnightblue" d="M690.64,-238C672.9,-238 653.33,-238 636.51,-238"/>
<polygon fill="midnightblue" stroke="midnightblue" points="690.84,-241.5 700.84,-238 690.84,-234.5 690.84,-241.5"/>
</g>
<!-- Node20 -->
<g id="node20" class="node">
<title>Node20</title>
<g id="a_node20"><a xlink:href="group__NTS__TOE.html#gab7ba01372a1e4397ba0ce6d9cbb398eb" target="_top" xlink:title="Transmit Engine (TXe)">
<polygon fill="none" stroke="black" points="561,-342.5 561,-361.5 626,-361.5 626,-342.5 561,-342.5"/>
<text text-anchor="middle" x="593.5" y="-349.5" font-family="Helvetica,sans-Serif" font-size="10.00">tx_engine</text>
</a>
</g>
</g>
<!-- Node19&#45;&gt;Node20 -->
<g id="edge21" class="edge">
<title>Node19&#45;&gt;Node20</title>
<path fill="none" stroke="midnightblue" d="M679.67,-352C661.19,-352 641.78,-352 626.17,-352"/>
<polygon fill="midnightblue" stroke="midnightblue" points="679.81,-355.5 689.81,-352 679.81,-348.5 679.81,-355.5"/>
</g>
<!-- Node20&#45;&gt;Node8 -->
<g id="edge22" class="edge">
<title>Node20&#45;&gt;Node8</title>
<path fill="none" stroke="midnightblue" d="M550.58,-358.2C526.06,-361.82 496.58,-366.18 479.11,-368.77"/>
<polygon fill="midnightblue" stroke="midnightblue" points="551.36,-361.62 560.74,-356.7 550.33,-354.7 551.36,-361.62"/>
</g>
<!-- Node22 -->
<g id="node22" class="node">
<title>Node22</title>
<g id="a_node22"><a xlink:href="group__NTS__TOE__TEST.html#ga74e69efe2106d8c4d2baa125f6b40459" target="_top" xlink:title="TCP Application Send (TAs). Emulates the Tx process of the TAIF.">
<polygon fill="none" stroke="black" points="557,-152.5 557,-171.5 630,-171.5 630,-152.5 557,-152.5"/>
<text text-anchor="middle" x="593.5" y="-159.5" font-family="Helvetica,sans-Serif" font-size="10.00">pTAIF_Send</text>
</a>
</g>
</g>
<!-- Node21&#45;&gt;Node22 -->
<g id="edge24" class="edge">
<title>Node21&#45;&gt;Node22</title>
<path fill="none" stroke="midnightblue" d="M685.13,-162C666.7,-162 646.85,-162 630.44,-162"/>
<polygon fill="midnightblue" stroke="midnightblue" points="685.2,-165.5 695.2,-162 685.2,-158.5 685.2,-165.5"/>
</g>
<!-- Node23 -->
<g id="node23" class="node">
<title>Node23</title>
<g id="a_node23"><a xlink:href="group__NTS__TOE__TEST.html#ga45fdc434ab89031e3c94815b0c38a042" target="_top" xlink:title="Emulates the behavior of the TCP application interface (TAIF).">
<polygon fill="none" stroke="black" points="441,-152.5 441,-171.5 485,-171.5 485,-152.5 441,-152.5"/>
<text text-anchor="middle" x="463" y="-159.5" font-family="Helvetica,sans-Serif" font-size="10.00">pTAIF</text>
</a>
</g>
</g>
<!-- Node22&#45;&gt;Node23 -->
<g id="edge25" class="edge">
<title>Node22&#45;&gt;Node23</title>
<path fill="none" stroke="midnightblue" d="M546.68,-162C525.68,-162 501.83,-162 485.15,-162"/>
<polygon fill="midnightblue" stroke="midnightblue" points="546.71,-165.5 556.71,-162 546.71,-158.5 546.71,-165.5"/>
</g>
<!-- Node25 -->
<g id="node25" class="node">
<title>Node25</title>
<g id="a_node25"><a xlink:href="group__NTS__UOE.html#ga857a71b260dfd52bf76ffdcd4260aeae" target="_top" xlink:title=" ">
<polygon fill="none" stroke="black" points="559.5,-190.5 559.5,-209.5 627.5,-209.5 627.5,-190.5 559.5,-190.5"/>
<text text-anchor="middle" x="593.5" y="-197.5" font-family="Helvetica,sans-Serif" font-size="10.00">pTxEngine</text>
</a>
</g>
</g>
<!-- Node24&#45;&gt;Node25 -->
<g id="edge27" class="edge">
<title>Node24&#45;&gt;Node25</title>
<path fill="none" stroke="midnightblue" d="M672.38,-200C656.74,-200 640.88,-200 627.6,-200"/>
<polygon fill="midnightblue" stroke="midnightblue" points="672.6,-203.5 682.6,-200 672.6,-196.5 672.6,-203.5"/>
</g>
<!-- Node26 -->
<g id="node26" class="node">
<title>Node26</title>
<g id="a_node26"><a xlink:href="group__NTS__UOE.html#ga84101607ce156850e4f7426c8be83a2b" target="_top" xlink:title="Main process of the UDP Offload Engine (UOE).">
<polygon fill="none" stroke="black" points="445.5,-190.5 445.5,-209.5 480.5,-209.5 480.5,-190.5 445.5,-190.5"/>
<text text-anchor="middle" x="463" y="-197.5" font-family="Helvetica,sans-Serif" font-size="10.00">uoe</text>
</a>
</g>
</g>
<!-- Node25&#45;&gt;Node26 -->
<g id="edge28" class="edge">
<title>Node25&#45;&gt;Node26</title>
<path fill="none" stroke="midnightblue" d="M549.26,-200C525.65,-200 497.79,-200 480.51,-200"/>
<polygon fill="midnightblue" stroke="midnightblue" points="549.41,-203.5 559.41,-200 549.41,-196.5 549.41,-203.5"/>
</g>
<!-- Node27 -->
<g id="node27" class="node">
<title>Node27</title>
<g id="a_node27"><a xlink:href="group__NTS__UOE.html#ga5d9bd6d46b41ba8787888e1e6bfb0d41" target="_top" xlink:title="Top of UDP Offload Engine (UOE)">
<polygon fill="none" stroke="black" points="292.5,-190.5 292.5,-209.5 348.5,-209.5 348.5,-190.5 292.5,-190.5"/>
<text text-anchor="middle" x="320.5" y="-197.5" font-family="Helvetica,sans-Serif" font-size="10.00">uoe_top</text>
</a>
</g>
</g>
<!-- Node26&#45;&gt;Node27 -->
<g id="edge29" class="edge">
<title>Node26&#45;&gt;Node27</title>
<path fill="none" stroke="midnightblue" d="M435.18,-200C410.37,-200 373.68,-200 348.75,-200"/>
<polygon fill="midnightblue" stroke="midnightblue" points="435.33,-203.5 445.33,-200 435.33,-196.5 435.33,-203.5"/>
</g>
<!-- Node27&#45;&gt;Node3 -->
<g id="edge30" class="edge">
<title>Node27&#45;&gt;Node3</title>
<path fill="none" stroke="midnightblue" d="M282.23,-200C218.43,-200 90.4,-200 41.3,-200"/>
<polygon fill="midnightblue" stroke="midnightblue" points="282.26,-203.5 292.26,-200 282.26,-196.5 282.26,-203.5"/>
</g>
<!-- Node28 -->
<g id="node28" class="node">
<title>Node28</title>
<g id="a_node28"><a xlink:href="group__NTS__UOE__TEST.html#ga0bfd8cabf14df12bd23594b44ea70b16" target="_top" xlink:title="A wrapper for the Toplevel of the UDP Offload Engine (UOE)">
<polygon fill="none" stroke="black" points="109,-171.5 109,-190.5 194,-190.5 194,-171.5 109,-171.5"/>
<text text-anchor="middle" x="151.5" y="-178.5" font-family="Helvetica,sans-Serif" font-size="10.00">uoe_top_wrap</text>
</a>
</g>
</g>
<!-- Node27&#45;&gt;Node28 -->
<g id="edge31" class="edge">
<title>Node27&#45;&gt;Node28</title>
<path fill="none" stroke="midnightblue" d="M282.04,-195.74C255.92,-192.77 221.06,-188.8 194.08,-185.73"/>
<polygon fill="midnightblue" stroke="midnightblue" points="281.97,-199.25 292.3,-196.91 282.76,-192.3 281.97,-199.25"/>
</g>
<!-- Node28&#45;&gt;Node3 -->
<g id="edge32" class="edge">
<title>Node28&#45;&gt;Node3</title>
<path fill="none" stroke="midnightblue" d="M98.9,-188.6C78.66,-191.58 56.65,-194.82 41.29,-197.09"/>
<polygon fill="midnightblue" stroke="midnightblue" points="99.59,-192.04 108.97,-187.12 98.57,-185.11 99.59,-192.04"/>
</g>
<!-- Node30 -->
<g id="node30" class="node">
<title>Node30</title>
<g id="a_node30"><a xlink:href="group__udp__shell__if.html#ga0ddf1224851353fc92bfbff6f499fa97" target="_top" xlink:title="Main function for the test of the UDP Shell Interface (USIF).">
<polygon fill="none" stroke="black" points="442.5,-76.5 442.5,-95.5 483.5,-95.5 483.5,-76.5 442.5,-76.5"/>
<text text-anchor="middle" x="463" y="-83.5" font-family="Helvetica,sans-Serif" font-size="10.00">main</text>
</a>
</g>
</g>
<!-- Node29&#45;&gt;Node30 -->
<g id="edge34" class="edge">
<title>Node29&#45;&gt;Node30</title>
<path fill="none" stroke="midnightblue" d="M561.16,-86C536.94,-86 504.17,-86 483.56,-86"/>
<polygon fill="midnightblue" stroke="midnightblue" points="561.28,-89.5 571.28,-86 561.28,-82.5 561.28,-89.5"/>
</g>
<!-- Node32 -->
<g id="node32" class="node">
<title>Node32</title>
<g id="a_node32"><a xlink:href="group__udp__shell__if.html#ga94fda91d828678128c64d17924bab3d4" target="_top" xlink:title="Main process of the UDP Shell Interface (USIF).">
<polygon fill="none" stroke="black" points="556,-38.5 556,-57.5 631,-57.5 631,-38.5 556,-38.5"/>
<text text-anchor="middle" x="593.5" y="-45.5" font-family="Helvetica,sans-Serif" font-size="10.00">udp_shell_if</text>
</a>
</g>
</g>
<!-- Node31&#45;&gt;Node32 -->
<g id="edge36" class="edge">
<title>Node31&#45;&gt;Node32</title>
<path fill="none" stroke="midnightblue" d="M698.7,-48C677.11,-48 651.45,-48 631.01,-48"/>
<polygon fill="midnightblue" stroke="midnightblue" points="698.93,-51.5 708.93,-48 698.93,-44.5 698.93,-51.5"/>
</g>
<!-- Node32&#45;&gt;Node30 -->
<g id="edge37" class="edge">
<title>Node32&#45;&gt;Node30</title>
<path fill="none" stroke="midnightblue" d="M550.4,-60.45C527.91,-67.1 501.29,-74.97 483.6,-80.2"/>
<polygon fill="midnightblue" stroke="midnightblue" points="551.48,-63.78 560.07,-57.59 549.49,-57.07 551.48,-63.78"/>
</g>
<!-- Node33 -->
<g id="node33" class="node">
<title>Node33</title>
<g id="a_node33"><a xlink:href="group__udp__shell__if.html#ga6a7fb3ecad3fd07b031fb1d3e4dae060" target="_top" xlink:title="Top of UDP Shell Interface (USIF)">
<polygon fill="none" stroke="black" points="415,-38.5 415,-57.5 511,-57.5 511,-38.5 415,-38.5"/>
<text text-anchor="middle" x="463" y="-45.5" font-family="Helvetica,sans-Serif" font-size="10.00">udp_shell_if_top</text>
</a>
</g>
</g>
<!-- Node32&#45;&gt;Node33 -->
<g id="edge38" class="edge">
<title>Node32&#45;&gt;Node33</title>
<path fill="none" stroke="midnightblue" d="M545.34,-48C534.27,-48 522.47,-48 511.39,-48"/>
<polygon fill="midnightblue" stroke="midnightblue" points="545.68,-51.5 555.68,-48 545.68,-44.5 545.68,-51.5"/>
</g>
<!-- Node35 -->
<g id="node35" class="node">
<title>Node35</title>
<g id="a_node35"><a xlink:href="group__NTS__TOECAM.html#gaea07c63f14267cecb00871e9756e6a82" target="_top" xlink:title="Top of Content&#45;Addressable Memory (TOECAM).">
<polygon fill="none" stroke="black" points="556.5,-0.5 556.5,-19.5 630.5,-19.5 630.5,-0.5 556.5,-0.5"/>
<text text-anchor="middle" x="593.5" y="-7.5" font-family="Helvetica,sans-Serif" font-size="10.00">toecam_top</text>
</a>
</g>
</g>
<!-- Node34&#45;&gt;Node35 -->
<g id="edge40" class="edge">
<title>Node34&#45;&gt;Node35</title>
<path fill="none" stroke="midnightblue" d="M707.33,-10C684.08,-10 653.84,-10 630.52,-10"/>
<polygon fill="midnightblue" stroke="midnightblue" points="707.47,-13.5 717.47,-10 707.47,-6.5 707.47,-13.5"/>
</g>
<!-- Node36 -->
<g id="node36" class="node">
<title>Node36</title>
<g id="a_node36"><a xlink:href="group__NTS__TOECAM__TEST.html#ga0ddf1224851353fc92bfbff6f499fa97" target="_top" xlink:title="Main function.">
<polygon fill="none" stroke="black" points="442.5,-0.5 442.5,-19.5 483.5,-19.5 483.5,-0.5 442.5,-0.5"/>
<text text-anchor="middle" x="463" y="-7.5" font-family="Helvetica,sans-Serif" font-size="10.00">main</text>
</a>
</g>
</g>
<!-- Node35&#45;&gt;Node36 -->
<g id="edge41" class="edge">
<title>Node35&#45;&gt;Node36</title>
<path fill="none" stroke="midnightblue" d="M546.08,-10C524.55,-10 500.13,-10 483.57,-10"/>
<polygon fill="midnightblue" stroke="midnightblue" points="546.36,-13.5 556.36,-10 546.36,-6.5 546.36,-13.5"/>
</g>
</g>
</svg>
