<?xml version="1.0" encoding="UTF-8" standalone="no"?>
<!DOCTYPE svg PUBLIC "-//W3C//DTD SVG 1.1//EN"
 "http://www.w3.org/Graphics/SVG/1.1/DTD/svg11.dtd">
<!-- Generated by graphviz version 2.43.0 (0)
 -->
<!-- Title: pProcPath Pages: 1 -->
<svg width="467pt" height="104pt"
 viewBox="0.00 0.00 467.00 104.00" xmlns="http://www.w3.org/2000/svg" xmlns:xlink="http://www.w3.org/1999/xlink">
<g id="graph0" class="graph" transform="scale(1 1) rotate(0) translate(4 100)">
<title>pProcPath</title>
<!-- Node1 -->
<g id="node1" class="node">
<title>Node1</title>
<g id="a_node1"><a xlink:title="Processing Path &#45; Main processing FSM for Vitis kernels.">
<polygon fill="#bfbfbf" stroke="black" points="0,-38.5 0,-57.5 65,-57.5 65,-38.5 0,-38.5"/>
<text text-anchor="middle" x="32.5" y="-45.5" font-family="Helvetica,sans-Serif" font-size="10.00">pProcPath</text>
</a>
</g>
</g>
<!-- Node2 -->
<g id="node2" class="node">
<title>Node2</title>
<g id="a_node2"><a xlink:href="group__WarpTransform.html#ga9511436e3d26edad7c4c1ecaf9cfaae1" target="_top" xlink:title=" ">
<polygon fill="none" stroke="black" points="101,-76.5 101,-95.5 274,-95.5 274,-76.5 101,-76.5"/>
<text text-anchor="middle" x="187.5" y="-83.5" font-family="Helvetica,sans-Serif" font-size="10.00">fakeWarpTransformAccelStream</text>
</a>
</g>
</g>
<!-- Node1&#45;&gt;Node2 -->
<g id="edge1" class="edge">
<title>Node1&#45;&gt;Node2</title>
<path fill="none" stroke="midnightblue" d="M65.34,-57.35C76.57,-60.55 89.31,-64.06 101,-67 110.73,-69.45 121.13,-71.9 131.2,-74.18"/>
<polygon fill="midnightblue" stroke="midnightblue" points="130.61,-77.64 141.13,-76.41 132.14,-70.81 130.61,-77.64"/>
</g>
<!-- Node3 -->
<g id="node3" class="node">
<title>Node3</title>
<g id="a_node3"><a xlink:href="group__WarpTransform.html#ga53d2901616724801215336028aa11b08" target="_top" xlink:title="Top&#45;level accelerated function of the WarpTransform Application with memory mapped interfaces.">
<polygon fill="none" stroke="black" points="115,-38.5 115,-57.5 260,-57.5 260,-38.5 115,-38.5"/>
<text text-anchor="middle" x="187.5" y="-45.5" font-family="Helvetica,sans-Serif" font-size="10.00">warp_transformAccelMem</text>
</a>
</g>
</g>
<!-- Node1&#45;&gt;Node3 -->
<g id="edge2" class="edge">
<title>Node1&#45;&gt;Node3</title>
<path fill="none" stroke="midnightblue" d="M65.2,-48C76.82,-48 90.57,-48 104.57,-48"/>
<polygon fill="midnightblue" stroke="midnightblue" points="104.78,-51.5 114.78,-48 104.78,-44.5 104.78,-51.5"/>
</g>
<!-- Node5 -->
<g id="node5" class="node">
<title>Node5</title>
<g id="a_node5"><a xlink:href="group__WarpTransform.html#gaa5d22379cb01e908fbdfcc82499d007e" target="_top" xlink:title="Top&#45;level accelerated function of the WarpTransform Application with array I/Fadd WARPTRANSFORM.">
<polygon fill="none" stroke="black" points="112,-0.5 112,-19.5 263,-19.5 263,-0.5 112,-0.5"/>
<text text-anchor="middle" x="187.5" y="-7.5" font-family="Helvetica,sans-Serif" font-size="10.00">warpTransformAccelStream</text>
</a>
</g>
</g>
<!-- Node1&#45;&gt;Node5 -->
<g id="edge4" class="edge">
<title>Node1&#45;&gt;Node5</title>
<path fill="none" stroke="midnightblue" d="M65.34,-38.65C76.57,-35.45 89.31,-31.94 101,-29 110.73,-26.55 121.13,-24.1 131.2,-21.82"/>
<polygon fill="midnightblue" stroke="midnightblue" points="132.14,-25.19 141.13,-19.59 130.61,-18.36 132.14,-25.19"/>
</g>
<!-- Node4 -->
<g id="node4" class="node">
<title>Node4</title>
<g id="a_node4"><a xlink:href="group__WarpTransformHLS.html#ga5e82a4c054a1e0a4409227a931389fc5" target="_top" xlink:title=" ">
<polygon fill="none" stroke="black" points="310,-38.5 310,-57.5 459,-57.5 459,-38.5 310,-38.5"/>
<text text-anchor="middle" x="384.5" y="-45.5" font-family="Helvetica,sans-Serif" font-size="10.00">setUpTxMatrixFromStream</text>
</a>
</g>
</g>
<!-- Node3&#45;&gt;Node4 -->
<g id="edge3" class="edge">
<title>Node3&#45;&gt;Node4</title>
<path fill="none" stroke="midnightblue" d="M260,-48C272.91,-48 286.47,-48 299.69,-48"/>
<polygon fill="midnightblue" stroke="midnightblue" points="299.72,-51.5 309.72,-48 299.72,-44.5 299.72,-51.5"/>
</g>
</g>
</svg>
