<?xml version="1.0" encoding="UTF-8" standalone="no"?>
<!DOCTYPE svg PUBLIC "-//W3C//DTD SVG 1.1//EN"
 "http://www.w3.org/Graphics/SVG/1.1/DTD/svg11.dtd">
<!-- Generated by graphviz version 2.43.0 (0)
 -->
<!-- Title: cF Vitis Quantitative Finance Pages: 1 -->
<svg width="365pt" height="38pt"
 viewBox="0.00 0.00 365.00 38.00" xmlns="http://www.w3.org/2000/svg" xmlns:xlink="http://www.w3.org/1999/xlink">
<g id="graph0" class="graph" transform="scale(1 1) rotate(0) translate(4 34)">
<title>cF Vitis Quantitative Finance</title>
<!-- Node3 -->
<g id="node1" class="node">
<title>Node3</title>
<g id="a_node1"><a xlink:href="group__MCEuropeanEngine.html" target="_top" xlink:title="This is the MCEuropeanEngine accelerated function from Vitis Quantitative Finance Open Source Library...">
<polygon fill="none" stroke="black" points="357,-24.5 246,-24.5 246,-5.5 357,-5.5 357,-24.5"/>
<text text-anchor="middle" x="301.5" y="-12.5" font-family="Helvetica,sans-Serif" font-size="10.00">MCEuropeanEngine</text>
</a>
</g>
</g>
<!-- Node2 -->
<g id="node2" class="node">
<title>Node2</title>
<g id="a_node2"><a xlink:href="group__cFp__Zoo.html" target="_top" xlink:title="This project is based on Themisto Shell and it features several domain&#45;specific accelerators.">
<polygon fill="none" stroke="black" points="58,-24.5 0,-24.5 0,-5.5 58,-5.5 58,-24.5"/>
<text text-anchor="middle" x="29" y="-12.5" font-family="Helvetica,sans-Serif" font-size="10.00">cFp_Zoo</text>
</a>
</g>
</g>
<!-- Node1 -->
<g id="node3" class="node">
<title>Node1</title>
<g id="a_node3"><a xlink:title="This is the accelerated functions of Vitis Quantitative Finance sub&#45;library from Vitis Open Source Li...">
<polygon fill="#bfbfbf" stroke="black" points="210,-30 94,-30 94,0 210,0 210,-30"/>
<text text-anchor="start" x="102" y="-18" font-family="Helvetica,sans-Serif" font-size="10.00">cF Vitis Quantitative</text>
<text text-anchor="middle" x="152" y="-7" font-family="Helvetica,sans-Serif" font-size="10.00"> Finance</text>
</a>
</g>
</g>
<!-- Node2&#45;&gt;Node1 -->
<g id="edge1" class="edge">
<title>Node2&#45;&gt;Node1</title>
<path fill="none" stroke="black" d="M68.1,-15C76.33,-15 85.22,-15 94,-15"/>
<polygon fill="black" stroke="black" points="68.06,-11.5 58.06,-15 68.06,-18.5 68.06,-11.5"/>
</g>
<!-- Node1&#45;&gt;Node3 -->
<g id="edge2" class="edge">
<title>Node1&#45;&gt;Node3</title>
<path fill="none" stroke="black" d="M220.27,-15C228.74,-15 237.32,-15 245.56,-15"/>
<polygon fill="black" stroke="black" points="220.03,-11.5 210.03,-15 220.03,-18.5 220.03,-11.5"/>
</g>
</g>
</svg>
