<?xml version="1.0" encoding="UTF-8" standalone="no"?>
<!DOCTYPE svg PUBLIC "-//W3C//DTD SVG 1.1//EN"
 "http://www.w3.org/Graphics/SVG/1.1/DTD/svg11.dtd">
<!-- Generated by graphviz version 2.43.0 (0)
 -->
<!-- Title: main Pages: 1 -->
<!--zoomable 598 -->
<svg id="main" version="1.1" xmlns="http://www.w3.org/2000/svg" xmlns:xlink="http://www.w3.org/1999/xlink" xml:space="preserve" onload="init(evt)">
<style type="text/css"><![CDATA[
.edge:hover path { stroke: red; }
.edge:hover polygon { stroke: red; fill: red; }
]]></style>
<script type="text/javascript"><![CDATA[
var edges = document.getElementsByTagName('g');
if (edges && edges.length) {
  for (var i=0;i<edges.length;i++) {
    if (edges[i].id.substr(0,4)=='edge') {
      edges[i].setAttribute('class','edge');
    }
  }
}
]]></script>
        <defs>
                <circle id="rim" cx="0" cy="0" r="7"/>
                <circle id="rim2" cx="0" cy="0" r="3.5"/>
                <g id="zoomPlus">
                        <use xlink:href="#rim" fill="#404040">
                                <set attributeName="fill" to="#808080" begin="zoomplus.mouseover" end="zoomplus.mouseout"/>
                        </use>
                        <path d="M-4,0h8M0,-4v8" fill="none" stroke="white" stroke-width="1.5" pointer-events="none"/>
                </g>
                <g id="zoomMin">
                        <use xlink:href="#rim" fill="#404040">
                                <set attributeName="fill" to="#808080" begin="zoomminus.mouseover" end="zoomminus.mouseout"/>
                        </use>
                        <path d="M-4,0h8" fill="none" stroke="white" stroke-width="1.5" pointer-events="none"/>
                </g>
                <g id="dirArrow">
                        <path fill="none" stroke="white" stroke-width="1.5" d="M0,-3.0v7 M-2.5,-0.5L0,-3.0L2.5,-0.5"/>
                </g>
               <g id="resetDef">
                       <use xlink:href="#rim2" fill="#404040">
                               <set attributeName="fill" to="#808080" begin="reset.mouseover" end="reset.mouseout"/>
                       </use>
               </g>
        </defs>

<script type="text/javascript">
var viewWidth = 914;
var viewHeight = 598;
var sectionId = 'dynsection-21';
</script>
<script xlink:href="svgpan.js"/>
<svg id="graph" class="graph">
<g id="viewport">
<title>main</title>
<!-- Node1 -->
<g id="node1" class="node">
<title>Node1</title>
<g id="a_node1"><a xlink:title=" ">
<polygon fill="#bfbfbf" stroke="black" points="0,-285.5 0,-304.5 41,-304.5 41,-285.5 0,-285.5"/>
<text text-anchor="middle" x="20.5" y="-292.5" font-family="Helvetica,sans-Serif" font-size="10.00">main</text>
</a>
</g>
</g>
<!-- Node2 -->
<g id="node2" class="node">
<title>Node2</title>
<g id="a_node2"><a xlink:href="group__FMC.html#gab7f34528b18f9eefda61be82db39718b" target="_top" xlink:title=" ">
<polygon fill="none" stroke="black" points="96.5,-570.5 96.5,-589.5 172.5,-589.5 172.5,-570.5 96.5,-570.5"/>
<text text-anchor="middle" x="134.5" y="-577.5" font-family="Helvetica,sans-Serif" font-size="10.00">checkResult</text>
</a>
</g>
</g>
<!-- Node1&#45;&gt;Node2 -->
<g id="edge1" class="edge">
<title>Node1&#45;&gt;Node2</title>
<path fill="none" stroke="midnightblue" d="M22.24,-304.58C25.74,-347.47 41.92,-521.49 77,-561 79.9,-564.26 83.38,-566.97 87.16,-569.21"/>
<polygon fill="midnightblue" stroke="midnightblue" points="85.9,-572.49 96.43,-573.64 88.92,-566.17 85.9,-572.49"/>
</g>
<!-- Node3 -->
<g id="node3" class="node">
<title>Node3</title>
<g id="a_node3"><a xlink:href="group__FMC.html#ga658055e37d9f1f14a9ed07bb13e73e82" target="_top" xlink:title=" ">
<polygon fill="none" stroke="black" points="85,-532.5 85,-551.5 184,-551.5 184,-532.5 85,-532.5"/>
<text text-anchor="middle" x="134.5" y="-539.5" font-family="Helvetica,sans-Serif" font-size="10.00">checkSeqHwicap</text>
</a>
</g>
</g>
<!-- Node1&#45;&gt;Node3 -->
<g id="edge2" class="edge">
<title>Node1&#45;&gt;Node3</title>
<path fill="none" stroke="midnightblue" d="M22.62,-304.76C27.31,-344.01 46.56,-489.84 77,-523 78.23,-524.34 79.55,-525.58 80.95,-526.73"/>
<polygon fill="midnightblue" stroke="midnightblue" points="79.41,-529.91 89.7,-532.44 83.24,-524.05 79.41,-529.91"/>
</g>
<!-- Node4 -->
<g id="node4" class="node">
<title>Node4</title>
<g id="a_node4"><a xlink:href="group__FMC.html#gae3166bb556ecab9db536e15707072e4f" target="_top" xlink:title=" ">
<polygon fill="none" stroke="black" points="77,-494.5 77,-513.5 192,-513.5 192,-494.5 77,-494.5"/>
<text text-anchor="middle" x="134.5" y="-501.5" font-family="Helvetica,sans-Serif" font-size="10.00">copyBufferToStream</text>
</a>
</g>
</g>
<!-- Node1&#45;&gt;Node4 -->
<g id="edge3" class="edge">
<title>Node1&#45;&gt;Node4</title>
<path fill="none" stroke="midnightblue" d="M21.38,-304.81C21.54,-335.73 26.29,-432.21 77,-485 78.4,-486.46 79.91,-487.8 81.51,-489.04"/>
<polygon fill="midnightblue" stroke="midnightblue" points="79.81,-492.1 90.15,-494.43 83.52,-486.16 79.81,-492.1"/>
</g>
<!-- Node5 -->
<g id="node5" class="node">
<title>Node5</title>
<g id="a_node5"><a xlink:href="group__FMC.html#ga333565ecb27112ada0f101468712bbd5" target="_top" xlink:title=" ">
<polygon fill="none" stroke="black" points="78.5,-456.5 78.5,-475.5 190.5,-475.5 190.5,-456.5 78.5,-456.5"/>
<text text-anchor="middle" x="134.5" y="-463.5" font-family="Helvetica,sans-Serif" font-size="10.00">copyBufferToXmem</text>
</a>
</g>
</g>
<!-- Node1&#45;&gt;Node5 -->
<g id="edge4" class="edge">
<title>Node1&#45;&gt;Node5</title>
<path fill="none" stroke="midnightblue" d="M22.52,-304.62C25.74,-330.29 37.89,-401.27 77,-442 80.64,-445.79 84.98,-449.02 89.61,-451.75"/>
<polygon fill="midnightblue" stroke="midnightblue" points="88.27,-454.99 98.77,-456.42 91.45,-448.76 88.27,-454.99"/>
</g>
<!-- Node6 -->
<g id="node6" class="node">
<title>Node6</title>
<g id="a_node6"><a xlink:href="group__FMC.html#gacc2e9d58b04fdb6a1a9c6c8ab9be6ca9" target="_top" xlink:title=" ">
<polygon fill="none" stroke="black" points="230.5,-437.5 230.5,-456.5 350.5,-456.5 350.5,-437.5 230.5,-437.5"/>
<text text-anchor="middle" x="290.5" y="-444.5" font-family="Helvetica,sans-Serif" font-size="10.00">Debug_FMC_Pyrolink</text>
</a>
</g>
</g>
<!-- Node1&#45;&gt;Node6 -->
<g id="edge5" class="edge">
<title>Node1&#45;&gt;Node6</title>
<path fill="none" stroke="midnightblue" d="M24.07,-304.6C29.91,-324.52 46.15,-370.44 77,-394 118.07,-425.36 175.43,-438.36 220.2,-443.66"/>
<polygon fill="midnightblue" stroke="midnightblue" points="220.11,-447.17 230.42,-444.76 220.86,-440.21 220.11,-447.17"/>
</g>
<!-- Node7 -->
<g id="node7" class="node">
<title>Node7</title>
<g id="a_node7"><a xlink:href="group__FMC.html#ga77d1adc7fb2eb994540b6621a35f23f4" target="_top" xlink:title=" ">
<polygon fill="none" stroke="black" points="96,-152.5 96,-171.5 173,-171.5 173,-152.5 96,-152.5"/>
<text text-anchor="middle" x="134.5" y="-159.5" font-family="Helvetica,sans-Serif" font-size="10.00">drainStream</text>
</a>
</g>
</g>
<!-- Node1&#45;&gt;Node7 -->
<g id="edge6" class="edge">
<title>Node1&#45;&gt;Node7</title>
<path fill="none" stroke="midnightblue" d="M23.93,-285.48C29.7,-264.7 46.1,-214.83 77,-186 81.14,-182.14 85.99,-178.84 91.09,-176.05"/>
<polygon fill="midnightblue" stroke="midnightblue" points="92.93,-179.05 100.42,-171.55 89.89,-172.74 92.93,-179.05"/>
</g>
<!-- Node8 -->
<g id="node8" class="node">
<title>Node8</title>
<g id="a_node8"><a xlink:href="group__FMC.html#ga69eed91277cdc155bf38949e4185c158" target="_top" xlink:title=" ">
<polygon fill="none" stroke="black" points="230.5,-399.5 230.5,-418.5 350.5,-418.5 350.5,-399.5 230.5,-399.5"/>
<text text-anchor="middle" x="290.5" y="-406.5" font-family="Helvetica,sans-Serif" font-size="10.00">FMC_Debug_Pyrolink</text>
</a>
</g>
</g>
<!-- Node1&#45;&gt;Node8 -->
<g id="edge7" class="edge">
<title>Node1&#45;&gt;Node8</title>
<path fill="none" stroke="midnightblue" d="M26.9,-304.8C35.49,-319.45 53.73,-346.83 77,-361 120.31,-387.37 176.53,-399.28 220.27,-404.65"/>
<polygon fill="midnightblue" stroke="midnightblue" points="219.91,-408.13 230.25,-405.79 220.71,-401.18 219.91,-408.13"/>
</g>
<!-- Node9 -->
<g id="node9" class="node">
<title>Node9</title>
<g id="a_node9"><a xlink:href="structAxis.html#a2b7052e4c4e4d37502145154e7268453" target="_top" xlink:title=" ">
<polygon fill="none" stroke="black" points="90,-114.5 90,-133.5 179,-133.5 179,-114.5 90,-114.5"/>
<text text-anchor="middle" x="134.5" y="-121.5" font-family="Helvetica,sans-Serif" font-size="10.00">Axis::getTData</text>
</a>
</g>
</g>
<!-- Node1&#45;&gt;Node9 -->
<g id="edge8" class="edge">
<title>Node1&#45;&gt;Node9</title>
<path fill="none" stroke="midnightblue" d="M22.21,-285.27C24.67,-258.64 35.15,-183.78 77,-143 78.63,-141.42 80.39,-139.96 82.25,-138.63"/>
<polygon fill="midnightblue" stroke="midnightblue" points="84.09,-141.61 90.96,-133.53 80.56,-135.57 84.09,-141.61"/>
</g>
<!-- Node10 -->
<g id="node10" class="node">
<title>Node10</title>
<g id="a_node10"><a xlink:href="group__FMC.html#ga81116042f175e42ef912342cf87e5893" target="_top" xlink:title=" ">
<polygon fill="none" stroke="black" points="103.5,-76.5 103.5,-95.5 165.5,-95.5 165.5,-76.5 103.5,-76.5"/>
<text text-anchor="middle" x="134.5" y="-83.5" font-family="Helvetica,sans-Serif" font-size="10.00">initBuffer</text>
</a>
</g>
</g>
<!-- Node1&#45;&gt;Node10 -->
<g id="edge9" class="edge">
<title>Node1&#45;&gt;Node10</title>
<path fill="none" stroke="midnightblue" d="M21.38,-285.19C21.54,-254.27 26.29,-157.79 77,-105 81.56,-100.25 87.35,-96.69 93.47,-94.01"/>
<polygon fill="midnightblue" stroke="midnightblue" points="95.01,-97.18 103.24,-90.51 92.64,-90.59 95.01,-97.18"/>
</g>
<!-- Node11 -->
<g id="node11" class="node">
<title>Node11</title>
<g id="a_node11"><a xlink:href="group__FMC.html#gad33c10c56af6a931e4a6135e89a3d3e8" target="_top" xlink:title=" ">
<polygon fill="none" stroke="black" points="100.5,-38.5 100.5,-57.5 168.5,-57.5 168.5,-38.5 100.5,-38.5"/>
<text text-anchor="middle" x="134.5" y="-45.5" font-family="Helvetica,sans-Serif" font-size="10.00">printBuffer</text>
</a>
</g>
</g>
<!-- Node1&#45;&gt;Node11 -->
<g id="edge10" class="edge">
<title>Node1&#45;&gt;Node11</title>
<path fill="none" stroke="midnightblue" d="M22.62,-285.24C27.31,-245.99 46.56,-100.16 77,-67 80.85,-62.81 85.65,-59.54 90.82,-56.99"/>
<polygon fill="midnightblue" stroke="midnightblue" points="92.42,-60.12 100.4,-53.14 89.81,-53.62 92.42,-60.12"/>
</g>
<!-- Node12 -->
<g id="node12" class="node">
<title>Node12</title>
<g id="a_node12"><a xlink:href="structAxis.html#a42de3dc437e03756c7764fb9d3afb964" target="_top" xlink:title=" ">
<polygon fill="none" stroke="black" points="92,-0.5 92,-19.5 177,-19.5 177,-0.5 92,-0.5"/>
<text text-anchor="middle" x="134.5" y="-7.5" font-family="Helvetica,sans-Serif" font-size="10.00">Axis::setTLast</text>
</a>
</g>
</g>
<!-- Node1&#45;&gt;Node12 -->
<g id="edge11" class="edge">
<title>Node1&#45;&gt;Node12</title>
<path fill="none" stroke="midnightblue" d="M22.24,-285.42C25.74,-242.53 41.92,-68.51 77,-29 78.77,-27 80.76,-25.21 82.91,-23.61"/>
<polygon fill="midnightblue" stroke="midnightblue" points="85.01,-26.44 91.82,-18.33 81.44,-20.42 85.01,-26.44"/>
</g>
<!-- Node13 -->
<g id="node13" class="node">
<title>Node13</title>
<g id="a_node13"><a xlink:href="group__FMC.html#ga6cd13fef60e4b12127207d99b59e84e0" target="_top" xlink:title=" ">
<polygon fill="none" stroke="black" points="232.5,-361.5 232.5,-380.5 348.5,-380.5 348.5,-361.5 232.5,-361.5"/>
<text text-anchor="middle" x="290.5" y="-368.5" font-family="Helvetica,sans-Serif" font-size="10.00">sFMC_NAL_Tcp_data</text>
</a>
</g>
</g>
<!-- Node1&#45;&gt;Node13 -->
<g id="edge12" class="edge">
<title>Node1&#45;&gt;Node13</title>
<path fill="none" stroke="midnightblue" d="M32.57,-304.7C43.22,-313.5 60.14,-326.1 77,-333 123.4,-352 179.33,-361.52 222.16,-366.28"/>
<polygon fill="midnightblue" stroke="midnightblue" points="221.89,-369.77 232.2,-367.33 222.62,-362.81 221.89,-369.77"/>
</g>
<!-- Node14 -->
<g id="node14" class="node">
<title>Node14</title>
<g id="a_node14"><a xlink:href="group__FMC.html#gac058b0e3624e38f7a5964b3b564e93d1" target="_top" xlink:title=" ">
<polygon fill="none" stroke="black" points="228,-247.5 228,-266.5 353,-266.5 353,-247.5 228,-247.5"/>
<text text-anchor="middle" x="290.5" y="-254.5" font-family="Helvetica,sans-Serif" font-size="10.00">sFMC_NAL_Tcp_sessId</text>
</a>
</g>
</g>
<!-- Node1&#45;&gt;Node14 -->
<g id="edge13" class="edge">
<title>Node1&#45;&gt;Node14</title>
<path fill="none" stroke="midnightblue" d="M41.21,-292.21C77.89,-287 158.3,-275.6 217.73,-267.18"/>
<polygon fill="midnightblue" stroke="midnightblue" points="218.41,-270.62 227.82,-265.75 217.43,-263.68 218.41,-270.62"/>
</g>
<!-- Node15 -->
<g id="node15" class="node">
<title>Node15</title>
<g id="a_node15"><a xlink:href="group__FMC.html#gab5ca070bab29f312f5c3be654e205c38" target="_top" xlink:title=" ">
<polygon fill="none" stroke="black" points="232.5,-209.5 232.5,-228.5 348.5,-228.5 348.5,-209.5 232.5,-209.5"/>
<text text-anchor="middle" x="290.5" y="-216.5" font-family="Helvetica,sans-Serif" font-size="10.00">sNAL_FMC_Tcp_data</text>
</a>
</g>
</g>
<!-- Node1&#45;&gt;Node15 -->
<g id="edge14" class="edge">
<title>Node1&#45;&gt;Node15</title>
<path fill="none" stroke="midnightblue" d="M38.03,-285.31C48.82,-279.33 63.39,-271.89 77,-267 124.29,-250.02 179.73,-237.74 222.12,-229.85"/>
<polygon fill="midnightblue" stroke="midnightblue" points="222.84,-233.28 232.05,-228.04 221.58,-226.39 222.84,-233.28"/>
</g>
<!-- Node16 -->
<g id="node16" class="node">
<title>Node16</title>
<g id="a_node16"><a xlink:href="group__FMC.html#gab0b0ca4570b8e6a11212b8477995a46f" target="_top" xlink:title=" ">
<polygon fill="none" stroke="black" points="228,-171.5 228,-190.5 353,-190.5 353,-171.5 228,-171.5"/>
<text text-anchor="middle" x="290.5" y="-178.5" font-family="Helvetica,sans-Serif" font-size="10.00">sNAL_FMC_Tcp_sessId</text>
</a>
</g>
</g>
<!-- Node1&#45;&gt;Node16 -->
<g id="edge15" class="edge">
<title>Node1&#45;&gt;Node16</title>
<path fill="none" stroke="midnightblue" d="M27.28,-285.05C36.11,-270.77 54.35,-244.7 77,-231 119.49,-205.31 174.14,-192.82 217.37,-186.75"/>
<polygon fill="midnightblue" stroke="midnightblue" points="218.08,-190.19 227.54,-185.41 217.17,-183.25 218.08,-190.19"/>
</g>
<!-- Node17 -->
<g id="node17" class="node">
<title>Node17</title>
<g id="a_node17"><a xlink:href="group__FMC.html#gad0919afcfb3151dee3f8653944ea7185" target="_top" xlink:title="Run a single iteration of the DUT model.">
<polygon fill="none" stroke="black" points="107,-304.5 107,-323.5 162,-323.5 162,-304.5 107,-304.5"/>
<text text-anchor="middle" x="134.5" y="-311.5" font-family="Helvetica,sans-Serif" font-size="10.00">stepDut</text>
</a>
</g>
</g>
<!-- Node1&#45;&gt;Node17 -->
<g id="edge16" class="edge">
<title>Node1&#45;&gt;Node17</title>
<path fill="none" stroke="midnightblue" d="M41.01,-298.31C56.34,-300.91 78.15,-304.61 96.73,-307.76"/>
<polygon fill="midnightblue" stroke="midnightblue" points="96.22,-311.23 106.66,-309.45 97.39,-304.32 96.22,-311.23"/>
</g>
<!-- Node17&#45;&gt;Node6 -->
<g id="edge17" class="edge">
<title>Node17&#45;&gt;Node6</title>
<path fill="none" stroke="midnightblue" d="M140.6,-323.55C152.74,-345.4 185.56,-399.31 228,-428 231.05,-430.06 234.33,-431.91 237.74,-433.56"/>
<polygon fill="midnightblue" stroke="midnightblue" points="236.39,-436.79 246.96,-437.49 239.14,-430.35 236.39,-436.79"/>
</g>
<!-- Node17&#45;&gt;Node8 -->
<g id="edge42" class="edge">
<title>Node17&#45;&gt;Node8</title>
<path fill="none" stroke="midnightblue" d="M144.58,-323.57C160.19,-339.52 193.77,-371.58 228,-390 232.04,-392.17 236.36,-394.14 240.78,-395.91"/>
<polygon fill="midnightblue" stroke="midnightblue" points="239.92,-399.32 250.51,-399.46 242.32,-392.74 239.92,-399.32"/>
</g>
<!-- Node17&#45;&gt;Node13 -->
<g id="edge44" class="edge">
<title>Node17&#45;&gt;Node13</title>
<path fill="none" stroke="midnightblue" d="M157.98,-323.51C180.82,-333.12 214.68,-347.22 228,-352 234.07,-354.18 240.54,-356.34 246.9,-358.39"/>
<polygon fill="midnightblue" stroke="midnightblue" points="246.17,-361.83 256.76,-361.49 248.27,-355.15 246.17,-361.83"/>
</g>
<!-- Node17&#45;&gt;Node14 -->
<g id="edge45" class="edge">
<title>Node17&#45;&gt;Node14</title>
<path fill="none" stroke="midnightblue" d="M157.98,-304.49C180.82,-294.88 214.68,-280.78 228,-276 234.07,-273.82 240.54,-271.66 246.9,-269.61"/>
<polygon fill="midnightblue" stroke="midnightblue" points="248.27,-272.85 256.76,-266.51 246.17,-266.17 248.27,-272.85"/>
</g>
<!-- Node17&#45;&gt;Node15 -->
<g id="edge46" class="edge">
<title>Node17&#45;&gt;Node15</title>
<path fill="none" stroke="midnightblue" d="M144.58,-304.43C160.19,-288.48 193.77,-256.42 228,-238 232.04,-235.83 236.36,-233.86 240.78,-232.09"/>
<polygon fill="midnightblue" stroke="midnightblue" points="242.32,-235.26 250.51,-228.54 239.92,-228.68 242.32,-235.26"/>
</g>
<!-- Node17&#45;&gt;Node16 -->
<g id="edge47" class="edge">
<title>Node17&#45;&gt;Node16</title>
<path fill="none" stroke="midnightblue" d="M140.6,-304.45C152.74,-282.6 185.56,-228.69 228,-200 231.05,-197.94 234.33,-196.09 237.74,-194.44"/>
<polygon fill="midnightblue" stroke="midnightblue" points="239.14,-197.65 246.96,-190.51 236.39,-191.21 239.14,-197.65"/>
</g>
<!-- Node18 -->
<g id="node18" class="node">
<title>Node18</title>
<g id="a_node18"><a xlink:href="group__FMC.html#ga949f51f8922275846c126b31ce4dd7b7" target="_top" xlink:title=" ">
<polygon fill="none" stroke="black" points="273,-323.5 273,-342.5 308,-342.5 308,-323.5 273,-323.5"/>
<text text-anchor="middle" x="290.5" y="-330.5" font-family="Helvetica,sans-Serif" font-size="10.00">fmc</text>
</a>
</g>
</g>
<!-- Node17&#45;&gt;Node18 -->
<g id="edge18" class="edge">
<title>Node17&#45;&gt;Node18</title>
<path fill="none" stroke="midnightblue" d="M162.32,-317.31C190.6,-320.8 234.86,-326.26 263,-329.73"/>
<polygon fill="midnightblue" stroke="midnightblue" points="262.58,-333.21 272.94,-330.96 263.44,-326.26 262.58,-333.21"/>
</g>
<!-- Node38 -->
<g id="node38" class="node">
<title>Node38</title>
<g id="a_node38"><a xlink:href="group__FMC.html#gad843b96b87f03a0880557ddc3b2a7bd1" target="_top" xlink:title=" ">
<polygon fill="none" stroke="black" points="235,-285.5 235,-304.5 346,-304.5 346,-285.5 235,-285.5"/>
<text text-anchor="middle" x="290.5" y="-292.5" font-family="Helvetica,sans-Serif" font-size="10.00">reverse_byte_order</text>
</a>
</g>
</g>
<!-- Node17&#45;&gt;Node38 -->
<g id="edge43" class="edge">
<title>Node17&#45;&gt;Node38</title>
<path fill="none" stroke="midnightblue" d="M162.32,-310.69C179.66,-308.55 203.01,-305.67 224.97,-302.96"/>
<polygon fill="midnightblue" stroke="midnightblue" points="225.44,-306.43 234.93,-301.73 224.58,-299.48 225.44,-306.43"/>
</g>
<!-- Node19 -->
<g id="node19" class="node">
<title>Node19</title>
<g id="a_node19"><a xlink:href="group__FMC.html#gad05fabf72f4d339c28d2c8a3dec52c07" target="_top" xlink:title=" ">
<polygon fill="none" stroke="black" points="404.5,-513.5 404.5,-532.5 487.5,-532.5 487.5,-513.5 404.5,-513.5"/>
<text text-anchor="middle" x="446" y="-520.5" font-family="Helvetica,sans-Serif" font-size="10.00">bytesToPages</text>
</a>
</g>
</g>
<!-- Node18&#45;&gt;Node19 -->
<g id="edge19" class="edge">
<title>Node18&#45;&gt;Node19</title>
<path fill="none" stroke="midnightblue" d="M308.23,-333.75C322.15,-335.28 341.47,-339.67 353,-352 400.42,-402.71 342.28,-452.64 389,-504 390.98,-506.17 393.21,-508.1 395.62,-509.8"/>
<polygon fill="midnightblue" stroke="midnightblue" points="393.94,-512.87 404.36,-514.79 397.41,-506.79 393.94,-512.87"/>
</g>
<!-- Node20 -->
<g id="node20" class="node">
<title>Node20</title>
<g id="a_node20"><a xlink:href="group__FMC.html#ga2671e7cba9e70eecd98c6ac5dac2bf3c" target="_top" xlink:title=" ">
<polygon fill="none" stroke="black" points="389,-475.5 389,-494.5 503,-494.5 503,-475.5 389,-475.5"/>
<text text-anchor="middle" x="446" y="-482.5" font-family="Helvetica,sans-Serif" font-size="10.00">copyAndCheckBurst</text>
</a>
</g>
</g>
<!-- Node18&#45;&gt;Node20 -->
<g id="edge20" class="edge">
<title>Node18&#45;&gt;Node20</title>
<path fill="none" stroke="midnightblue" d="M308.01,-333.96C321.78,-335.63 341.03,-340.11 353,-352 390.69,-389.45 351.83,-428.03 389,-466 390.43,-467.46 391.97,-468.8 393.6,-470.05"/>
<polygon fill="midnightblue" stroke="midnightblue" points="392.03,-473.19 402.39,-475.44 395.7,-467.23 392.03,-473.19"/>
</g>
<!-- Node21 -->
<g id="node21" class="node">
<title>Node21</title>
<g id="a_node21"><a xlink:href="group__FMC.html#ga1b9884ac3074de802c918670db21f246" target="_top" xlink:title=" ">
<polygon fill="none" stroke="black" points="403,-437.5 403,-456.5 489,-456.5 489,-437.5 403,-437.5"/>
<text text-anchor="middle" x="446" y="-444.5" font-family="Helvetica,sans-Serif" font-size="10.00">copyOutBuffer</text>
</a>
</g>
</g>
<!-- Node18&#45;&gt;Node21 -->
<g id="edge21" class="edge">
<title>Node18&#45;&gt;Node21</title>
<path fill="none" stroke="midnightblue" d="M308.08,-334.56C321.53,-336.59 340.27,-341.27 353,-352 380.05,-374.81 363.19,-398.8 389,-423 393.1,-426.84 397.91,-430.13 402.96,-432.91"/>
<polygon fill="midnightblue" stroke="midnightblue" points="401.68,-436.18 412.2,-437.41 404.74,-429.89 401.68,-436.18"/>
</g>
<!-- Node22 -->
<g id="node22" class="node">
<title>Node22</title>
<g id="a_node22"><a xlink:href="group__FMC.html#ga646eca58ec4baddf24c2fa7fb6b7752c" target="_top" xlink:title=" ">
<polygon fill="none" stroke="black" points="403,-361.5 403,-380.5 489,-380.5 489,-361.5 403,-361.5"/>
<text text-anchor="middle" x="446" y="-368.5" font-family="Helvetica,sans-Serif" font-size="10.00">emptyInBuffer</text>
</a>
</g>
</g>
<!-- Node18&#45;&gt;Node22 -->
<g id="edge22" class="edge">
<title>Node18&#45;&gt;Node22</title>
<path fill="none" stroke="midnightblue" d="M308.22,-337.14C329.23,-342.34 366.21,-351.49 396.42,-358.97"/>
<polygon fill="midnightblue" stroke="midnightblue" points="395.83,-362.43 406.37,-361.44 397.51,-355.64 395.83,-362.43"/>
</g>
<!-- Node23 -->
<g id="node23" class="node">
<title>Node23</title>
<g id="a_node23"><a xlink:href="group__FMC.html#ga3a50c22d6958dbc6fb31716727a91186" target="_top" xlink:title=" ">
<polygon fill="none" stroke="black" points="554.5,-380.5 554.5,-399.5 663.5,-399.5 663.5,-380.5 554.5,-380.5"/>
<text text-anchor="middle" x="609" y="-387.5" font-family="Helvetica,sans-Serif" font-size="10.00">icap_hangover_fifo</text>
</a>
</g>
</g>
<!-- Node18&#45;&gt;Node23 -->
<g id="edge26" class="edge">
<title>Node18&#45;&gt;Node23</title>
<path fill="none" stroke="midnightblue" d="M308.13,-335.74C321.09,-338.42 339.14,-343.39 353,-352 372.76,-364.28 367.63,-380.81 389,-390 442.25,-412.91 509.76,-408.53 555.65,-401.24"/>
<polygon fill="midnightblue" stroke="midnightblue" points="556.39,-404.66 565.67,-399.55 555.23,-397.76 556.39,-404.66"/>
</g>
<!-- Node24 -->
<g id="node24" class="node">
<title>Node24</title>
<g id="a_node24"><a xlink:href="group__FMC.html#ga911f968f92ccfc14e084b87c6505034a" target="_top" xlink:title=" ">
<polygon fill="none" stroke="black" points="558.5,-323.5 558.5,-342.5 659.5,-342.5 659.5,-323.5 558.5,-323.5"/>
<text text-anchor="middle" x="609" y="-330.5" font-family="Helvetica,sans-Serif" font-size="10.00">internal_icap_fifo</text>
</a>
</g>
</g>
<!-- Node18&#45;&gt;Node24 -->
<g id="edge27" class="edge">
<title>Node18&#45;&gt;Node24</title>
<path fill="none" stroke="midnightblue" d="M308.07,-333C352.17,-333 474.07,-333 548.18,-333"/>
<polygon fill="midnightblue" stroke="midnightblue" points="548.31,-336.5 558.31,-333 548.31,-329.5 548.31,-336.5"/>
</g>
<!-- Node25 -->
<g id="node25" class="node">
<title>Node25</title>
<g id="a_node25"><a xlink:href="group__FMC.html#gae331622bf7beaaf99cfda5ca083e8aeb" target="_top" xlink:title=" ">
<polygon fill="none" stroke="black" points="398.5,-285.5 398.5,-304.5 493.5,-304.5 493.5,-285.5 398.5,-285.5"/>
<text text-anchor="middle" x="446" y="-292.5" font-family="Helvetica,sans-Serif" font-size="10.00">emptyOutBuffer</text>
</a>
</g>
</g>
<!-- Node18&#45;&gt;Node25 -->
<g id="edge25" class="edge">
<title>Node18&#45;&gt;Node25</title>
<path fill="none" stroke="midnightblue" d="M308.22,-328.86C329.23,-323.66 366.21,-314.51 396.42,-307.03"/>
<polygon fill="midnightblue" stroke="midnightblue" points="397.51,-310.36 406.37,-304.56 395.83,-303.57 397.51,-310.36"/>
</g>
<!-- Node26 -->
<g id="node26" class="node">
<title>Node26</title>
<g id="a_node26"><a xlink:href="group__FMC.html#ga63c2ab610747767fafb46f6f94d457e9" target="_top" xlink:title=" ">
<polygon fill="none" stroke="black" points="418,-247.5 418,-266.5 474,-266.5 474,-247.5 418,-247.5"/>
<text text-anchor="middle" x="446" y="-254.5" font-family="Helvetica,sans-Serif" font-size="10.00">my_atoi</text>
</a>
</g>
</g>
<!-- Node18&#45;&gt;Node26 -->
<g id="edge28" class="edge">
<title>Node18&#45;&gt;Node26</title>
<path fill="none" stroke="midnightblue" d="M308.13,-330.26C321.09,-327.58 339.14,-322.61 353,-314 372.76,-301.72 369.41,-288.55 389,-276 394.87,-272.24 401.56,-269.14 408.22,-266.61"/>
<polygon fill="midnightblue" stroke="midnightblue" points="409.55,-269.86 417.87,-263.31 407.28,-263.24 409.55,-269.86"/>
</g>
<!-- Node27 -->
<g id="node27" class="node">
<title>Node27</title>
<g id="a_node27"><a xlink:href="group__FMC.html#ga0b67f9e9ee35c1a5eb72fc8408bd2d86" target="_top" xlink:title=" ">
<polygon fill="none" stroke="black" points="407.5,-209.5 407.5,-228.5 484.5,-228.5 484.5,-209.5 407.5,-209.5"/>
<text text-anchor="middle" x="446" y="-216.5" font-family="Helvetica,sans-Serif" font-size="10.00">my_wordlen</text>
</a>
</g>
</g>
<!-- Node18&#45;&gt;Node27 -->
<g id="edge29" class="edge">
<title>Node18&#45;&gt;Node27</title>
<path fill="none" stroke="midnightblue" d="M308.16,-331.53C321.65,-329.55 340.42,-324.9 353,-314 381.25,-289.52 361.09,-262.86 389,-238 391.81,-235.5 394.96,-233.32 398.3,-231.43"/>
<polygon fill="midnightblue" stroke="midnightblue" points="399.96,-234.52 407.48,-227.06 396.95,-228.2 399.96,-234.52"/>
</g>
<!-- Node28 -->
<g id="node28" class="node">
<title>Node28</title>
<g id="a_node28"><a xlink:href="group__FMC.html#ga8019f8bf8f3d4c93ab02b2ee9458f324" target="_top" xlink:title=" ">
<polygon fill="none" stroke="black" points="401.5,-171.5 401.5,-190.5 490.5,-190.5 490.5,-171.5 401.5,-171.5"/>
<text text-anchor="middle" x="446" y="-178.5" font-family="Helvetica,sans-Serif" font-size="10.00">parseHttpInput</text>
</a>
</g>
</g>
<!-- Node18&#45;&gt;Node28 -->
<g id="edge30" class="edge">
<title>Node18&#45;&gt;Node28</title>
<path fill="none" stroke="midnightblue" d="M308.01,-332.04C321.78,-330.37 341.03,-325.89 353,-314 390.69,-276.55 351.83,-237.97 389,-200 390.43,-198.54 391.97,-197.2 393.6,-195.95"/>
<polygon fill="midnightblue" stroke="midnightblue" points="395.7,-198.77 402.39,-190.56 392.03,-192.81 395.7,-198.77"/>
</g>
<!-- Node32 -->
<g id="node32" class="node">
<title>Node32</title>
<g id="a_node32"><a xlink:href="group__FMC.html#gad3b00f43dd9313387e155ce20f4616be" target="_top" xlink:title=" ">
<polygon fill="none" stroke="black" points="733,-95.5 733,-114.5 807,-114.5 807,-95.5 733,-95.5"/>
<text text-anchor="middle" x="770" y="-102.5" font-family="Helvetica,sans-Serif" font-size="10.00">request_len</text>
</a>
</g>
</g>
<!-- Node18&#45;&gt;Node32 -->
<g id="edge41" class="edge">
<title>Node18&#45;&gt;Node32</title>
<path fill="none" stroke="midnightblue" d="M308.23,-332.25C322.15,-330.72 341.47,-326.33 353,-314 400.42,-263.29 340.29,-211.47 389,-162 477.35,-72.26 642.03,-83.88 722.43,-96.16"/>
<polygon fill="midnightblue" stroke="midnightblue" points="722.3,-99.69 732.73,-97.81 723.41,-92.78 722.3,-99.69"/>
</g>
<!-- Node22&#45;&gt;Node23 -->
<g id="edge23" class="edge">
<title>Node22&#45;&gt;Node23</title>
<path fill="none" stroke="midnightblue" d="M489.3,-375.99C506.12,-377.98 525.84,-380.3 544.32,-382.49"/>
<polygon fill="midnightblue" stroke="midnightblue" points="544.1,-385.98 554.44,-383.68 544.92,-379.03 544.1,-385.98"/>
</g>
<!-- Node22&#45;&gt;Node24 -->
<g id="edge24" class="edge">
<title>Node22&#45;&gt;Node24</title>
<path fill="none" stroke="midnightblue" d="M487.63,-361.41C508.97,-356.37 535.31,-350.16 557.91,-344.82"/>
<polygon fill="midnightblue" stroke="midnightblue" points="558.74,-348.22 567.67,-342.52 557.13,-341.41 558.74,-348.22"/>
</g>
<!-- Node29 -->
<g id="node29" class="node">
<title>Node29</title>
<g id="a_node29"><a xlink:href="group__FMC.html#gacf521d6803610f51cda0ed27ecd1ac23" target="_top" xlink:title=" ">
<polygon fill="none" stroke="black" points="570,-133.5 570,-152.5 648,-152.5 648,-133.5 570,-133.5"/>
<text text-anchor="middle" x="609" y="-140.5" font-family="Helvetica,sans-Serif" font-size="10.00">extract_path</text>
</a>
</g>
</g>
<!-- Node28&#45;&gt;Node29 -->
<g id="edge31" class="edge">
<title>Node28&#45;&gt;Node29</title>
<path fill="none" stroke="midnightblue" d="M487.63,-171.41C509.62,-166.22 536.92,-159.78 559.96,-154.34"/>
<polygon fill="midnightblue" stroke="midnightblue" points="560.95,-157.7 569.88,-152 559.34,-150.89 560.95,-157.7"/>
</g>
<!-- Node33 -->
<g id="node33" class="node">
<title>Node33</title>
<g id="a_node33"><a xlink:href="group__FMC.html#gac5887047a1654023dced5f677a9a7423" target="_top" xlink:title=" ">
<polygon fill="none" stroke="black" points="539,-209.5 539,-228.5 679,-228.5 679,-209.5 539,-209.5"/>
<text text-anchor="middle" x="609" y="-216.5" font-family="Helvetica,sans-Serif" font-size="10.00">writeDisplaysToOutBuffer</text>
</a>
</g>
</g>
<!-- Node28&#45;&gt;Node33 -->
<g id="edge35" class="edge">
<title>Node28&#45;&gt;Node33</title>
<path fill="none" stroke="midnightblue" d="M487.63,-190.59C508.97,-195.63 535.31,-201.84 557.91,-207.18"/>
<polygon fill="midnightblue" stroke="midnightblue" points="557.13,-210.59 567.67,-209.48 558.74,-203.78 557.13,-210.59"/>
</g>
<!-- Node34 -->
<g id="node34" class="node">
<title>Node34</title>
<g id="a_node34"><a xlink:href="group__FMC.html#ga8dda00b601c9fbda46ecb10243feb089" target="_top" xlink:title=" ">
<polygon fill="none" stroke="black" points="735,-209.5 735,-228.5 805,-228.5 805,-209.5 735,-209.5"/>
<text text-anchor="middle" x="770" y="-216.5" font-family="Helvetica,sans-Serif" font-size="10.00">writeString</text>
</a>
</g>
</g>
<!-- Node28&#45;&gt;Node34 -->
<g id="edge40" class="edge">
<title>Node28&#45;&gt;Node34</title>
<path fill="none" stroke="midnightblue" d="M490.8,-182.94C537.59,-185.39 613.82,-190.49 679,-200 694.15,-202.21 710.58,-205.43 725.2,-208.59"/>
<polygon fill="midnightblue" stroke="midnightblue" points="724.47,-212.02 734.99,-210.76 725.98,-205.18 724.47,-212.02"/>
</g>
<!-- Node37 -->
<g id="node37" class="node">
<title>Node37</title>
<g id="a_node37"><a xlink:href="group__FMC.html#ga5329b70725ba9b345ba299631105d891" target="_top" xlink:title=" ">
<polygon fill="none" stroke="black" points="562.5,-247.5 562.5,-266.5 655.5,-266.5 655.5,-247.5 562.5,-247.5"/>
<text text-anchor="middle" x="609" y="-254.5" font-family="Helvetica,sans-Serif" font-size="10.00">writeHttpStatus</text>
</a>
</g>
</g>
<!-- Node28&#45;&gt;Node37 -->
<g id="edge39" class="edge">
<title>Node28&#45;&gt;Node37</title>
<path fill="none" stroke="midnightblue" d="M483.73,-190.6C490.41,-193.13 497.12,-196.23 503,-200 522.59,-212.55 519.05,-226.03 539,-238 543.35,-240.61 548.07,-242.87 552.92,-244.83"/>
<polygon fill="midnightblue" stroke="midnightblue" points="551.78,-248.14 562.38,-248.23 554.15,-241.55 551.78,-248.14"/>
</g>
<!-- Node30 -->
<g id="node30" class="node">
<title>Node30</title>
<g id="a_node30"><a xlink:href="group__FMC.html#ga9d48782b4811f4f14720654d1e4eeb2a" target="_top" xlink:title=" ">
<polygon fill="none" stroke="black" points="734.5,-171.5 734.5,-190.5 805.5,-190.5 805.5,-171.5 734.5,-171.5"/>
<text text-anchor="middle" x="770" y="-178.5" font-family="Helvetica,sans-Serif" font-size="10.00">my_strcmp</text>
</a>
</g>
</g>
<!-- Node29&#45;&gt;Node30 -->
<g id="edge32" class="edge">
<title>Node29&#45;&gt;Node30</title>
<path fill="none" stroke="midnightblue" d="M648.08,-152.1C671.08,-157.6 700.48,-164.62 724.53,-170.37"/>
<polygon fill="midnightblue" stroke="midnightblue" points="723.94,-173.83 734.48,-172.75 725.57,-167.02 723.94,-173.83"/>
</g>
<!-- Node31 -->
<g id="node31" class="node">
<title>Node31</title>
<g id="a_node31"><a xlink:href="group__FMC.html#ga81eeab4feccbdd3c70dc3e38beca12ba" target="_top" xlink:title=" ">
<polygon fill="none" stroke="black" points="737.5,-133.5 737.5,-152.5 802.5,-152.5 802.5,-133.5 737.5,-133.5"/>
<text text-anchor="middle" x="770" y="-140.5" font-family="Helvetica,sans-Serif" font-size="10.00">my_strlen</text>
</a>
</g>
</g>
<!-- Node29&#45;&gt;Node31 -->
<g id="edge33" class="edge">
<title>Node29&#45;&gt;Node31</title>
<path fill="none" stroke="midnightblue" d="M648.08,-143C671.96,-143 702.75,-143 727.28,-143"/>
<polygon fill="midnightblue" stroke="midnightblue" points="727.38,-146.5 737.38,-143 727.38,-139.5 727.38,-146.5"/>
</g>
<!-- Node29&#45;&gt;Node32 -->
<g id="edge34" class="edge">
<title>Node29&#45;&gt;Node32</title>
<path fill="none" stroke="midnightblue" d="M648.08,-133.9C670.59,-128.52 699.25,-121.67 723.01,-115.99"/>
<polygon fill="midnightblue" stroke="midnightblue" points="723.95,-119.36 732.86,-113.64 722.32,-112.56 723.95,-119.36"/>
</g>
<!-- Node33&#45;&gt;Node34 -->
<g id="edge36" class="edge">
<title>Node33&#45;&gt;Node34</title>
<path fill="none" stroke="midnightblue" d="M679.28,-219C694.62,-219 710.47,-219 724.5,-219"/>
<polygon fill="midnightblue" stroke="midnightblue" points="724.84,-222.5 734.84,-219 724.84,-215.5 724.84,-222.5"/>
</g>
<!-- Node35 -->
<g id="node35" class="node">
<title>Node35</title>
<g id="a_node35"><a xlink:href="group__FMC.html#ga94b1de96d6a040ca1c609deb6c4b8f8a" target="_top" xlink:title=" ">
<polygon fill="none" stroke="black" points="715,-247.5 715,-266.5 825,-266.5 825,-247.5 715,-247.5"/>
<text text-anchor="middle" x="770" y="-254.5" font-family="Helvetica,sans-Serif" font-size="10.00">writeUnsignedLong</text>
</a>
</g>
</g>
<!-- Node33&#45;&gt;Node35 -->
<g id="edge37" class="edge">
<title>Node33&#45;&gt;Node35</title>
<path fill="none" stroke="midnightblue" d="M650.12,-228.59C671.1,-233.6 696.98,-239.79 719.23,-245.11"/>
<polygon fill="midnightblue" stroke="midnightblue" points="718.63,-248.56 729.17,-247.48 720.25,-241.75 718.63,-248.56"/>
</g>
<!-- Node36 -->
<g id="node36" class="node">
<title>Node36</title>
<g id="a_node36"><a xlink:href="group__FMC.html#gaed6ac4ab1b984e6d04322d925311c413" target="_top" xlink:title=" ">
<polygon fill="none" stroke="black" points="861,-247.5 861,-266.5 906,-266.5 906,-247.5 861,-247.5"/>
<text text-anchor="middle" x="883.5" y="-254.5" font-family="Helvetica,sans-Serif" font-size="10.00">strrev</text>
</a>
</g>
</g>
<!-- Node35&#45;&gt;Node36 -->
<g id="edge38" class="edge">
<title>Node35&#45;&gt;Node36</title>
<path fill="none" stroke="midnightblue" d="M825.12,-257C833.91,-257 842.76,-257 850.79,-257"/>
<polygon fill="midnightblue" stroke="midnightblue" points="850.8,-260.5 860.8,-257 850.8,-253.5 850.8,-260.5"/>
</g>
</g>
</svg>
        <g id="navigator" transform="translate(0 0)" fill="#404254">
                <rect fill="#f2f5e9" fill-opacity="0.5" stroke="#606060" stroke-width=".5" x="0" y="0" width="60" height="60"/>
                <use id="zoomplus" xlink:href="#zoomPlus" x="17" y="9" onmousedown="handleZoom(evt,'in')"/>
                <use id="zoomminus" xlink:href="#zoomMin" x="42" y="9" onmousedown="handleZoom(evt,'out')"/>
                <use id="reset" xlink:href="#resetDef" x="30" y="36" onmousedown="handleReset()"/>
                <g id="arrowUp" xlink:href="#dirArrow" transform="translate(30 24)" onmousedown="handlePan(0,-1)">
                  <use xlink:href="#rim" fill="#404040">
                        <set attributeName="fill" to="#808080" begin="arrowUp.mouseover" end="arrowUp.mouseout"/>
                  </use>
                  <path fill="none" stroke="white" stroke-width="1.5" d="M0,-3.0v7 M-2.5,-0.5L0,-3.0L2.5,-0.5"/>
                </g>
                <g id="arrowRight" xlink:href="#dirArrow" transform="rotate(90) translate(36 -43)" onmousedown="handlePan(1,0)">
                  <use xlink:href="#rim" fill="#404040">
                        <set attributeName="fill" to="#808080" begin="arrowRight.mouseover" end="arrowRight.mouseout"/>
                  </use>
                  <path fill="none" stroke="white" stroke-width="1.5" d="M0,-3.0v7 M-2.5,-0.5L0,-3.0L2.5,-0.5"/>
                </g>
                <g id="arrowDown" xlink:href="#dirArrow" transform="rotate(180) translate(-30 -48)" onmousedown="handlePan(0,1)">
                  <use xlink:href="#rim" fill="#404040">
                        <set attributeName="fill" to="#808080" begin="arrowDown.mouseover" end="arrowDown.mouseout"/>
                  </use>
                  <path fill="none" stroke="white" stroke-width="1.5" d="M0,-3.0v7 M-2.5,-0.5L0,-3.0L2.5,-0.5"/>
                </g>
                <g id="arrowLeft" xlink:href="#dirArrow" transform="rotate(270) translate(-36 17)" onmousedown="handlePan(-1,0)">
                  <use xlink:href="#rim" fill="#404040">
                        <set attributeName="fill" to="#808080" begin="arrowLeft.mouseover" end="arrowLeft.mouseout"/>
                  </use>
                  <path fill="none" stroke="white" stroke-width="1.5" d="M0,-3.0v7 M-2.5,-0.5L0,-3.0L2.5,-0.5"/>
                </g>
        </g>
        <svg viewBox="0 0 15 15" width="100%" height="30px" preserveAspectRatio="xMaxYMin meet">
         <g id="arrow_out" transform="scale(0.3 0.3)">
          <a xlink:href="group__FMC_gae66f6b31b5ad750f1fe042a706a4e3d4_cgraph_org.svg" target="_base">
           <rect id="button" ry="5" rx="5" y="6" x="6" height="38" width="38"
                fill="#f2f5e9" fill-opacity="0.5" stroke="#606060" stroke-width="1.0"/>
           <path id="arrow"
             d="M 11.500037,31.436501 C 11.940474,20.09759 22.043105,11.32322 32.158766,21.979434 L 37.068811,17.246167 C 37.068811,17.246167 37.088388,32 37.088388,32 L 22.160133,31.978069 C 22.160133,31.978069 26.997745,27.140456 26.997745,27.140456 C 18.528582,18.264221 13.291696,25.230495 11.500037,31.436501 z"
             style="fill:#404040;"/>
          </a>
         </g>
        </svg>
</svg>
