<?xml version="1.0" encoding="UTF-8" standalone="no"?>
<!DOCTYPE svg PUBLIC "-//W3C//DTD SVG 1.1//EN"
 "http://www.w3.org/Graphics/SVG/1.1/DTD/svg11.dtd">
<!-- Generated by graphviz version 2.43.0 (0)
 -->
<!-- Title: pIpHeaderStripper Pages: 1 -->
<!--zoomable 902 -->
<svg id="main" version="1.1" xmlns="http://www.w3.org/2000/svg" xmlns:xlink="http://www.w3.org/1999/xlink" xml:space="preserve" onload="init(evt)">
<style type="text/css"><![CDATA[
.edge:hover path { stroke: red; }
.edge:hover polygon { stroke: red; fill: red; }
]]></style>
<script type="text/javascript"><![CDATA[
var edges = document.getElementsByTagName('g');
if (edges && edges.length) {
  for (var i=0;i<edges.length;i++) {
    if (edges[i].id.substr(0,4)=='edge') {
      edges[i].setAttribute('class','edge');
    }
  }
}
]]></script>
        <defs>
                <circle id="rim" cx="0" cy="0" r="7"/>
                <circle id="rim2" cx="0" cy="0" r="3.5"/>
                <g id="zoomPlus">
                        <use xlink:href="#rim" fill="#404040">
                                <set attributeName="fill" to="#808080" begin="zoomplus.mouseover" end="zoomplus.mouseout"/>
                        </use>
                        <path d="M-4,0h8M0,-4v8" fill="none" stroke="white" stroke-width="1.5" pointer-events="none"/>
                </g>
                <g id="zoomMin">
                        <use xlink:href="#rim" fill="#404040">
                                <set attributeName="fill" to="#808080" begin="zoomminus.mouseover" end="zoomminus.mouseout"/>
                        </use>
                        <path d="M-4,0h8" fill="none" stroke="white" stroke-width="1.5" pointer-events="none"/>
                </g>
                <g id="dirArrow">
                        <path fill="none" stroke="white" stroke-width="1.5" d="M0,-3.0v7 M-2.5,-0.5L0,-3.0L2.5,-0.5"/>
                </g>
               <g id="resetDef">
                       <use xlink:href="#rim2" fill="#404040">
                               <set attributeName="fill" to="#808080" begin="reset.mouseover" end="reset.mouseout"/>
                       </use>
               </g>
        </defs>

<script type="text/javascript">
var viewWidth = 482;
var viewHeight = 902;
var sectionId = 'dynsection-3';
</script>
<script xlink:href="svgpan.js"/>
<svg id="graph" class="graph">
<g id="viewport">
<title>pIpHeaderStripper</title>
<!-- Node1 -->
<g id="node1" class="node">
<title>Node1</title>
<g id="a_node1"><a xlink:title=" ">
<polygon fill="#bfbfbf" stroke="black" points="0,-437.5 0,-456.5 105,-456.5 105,-437.5 0,-437.5"/>
<text text-anchor="middle" x="52.5" y="-444.5" font-family="Helvetica,sans-Serif" font-size="10.00">pIpHeaderStripper</text>
</a>
</g>
</g>
<!-- Node2 -->
<g id="node2" class="node">
<title>Node2</title>
<g id="a_node2"><a xlink:href="classAxisIp4.html#a3a60d6e7c7029899907f9b88cd7b6ceb" target="_top" xlink:title=" ">
<polygon fill="none" stroke="black" points="149.5,-874.5 149.5,-893.5 277.5,-893.5 277.5,-874.5 149.5,-874.5"/>
<text text-anchor="middle" x="213.5" y="-881.5" font-family="Helvetica,sans-Serif" font-size="10.00">AxisIp4::getIp4DstAddr</text>
</a>
</g>
</g>
<!-- Node1&#45;&gt;Node2 -->
<g id="edge1" class="edge">
<title>Node1&#45;&gt;Node2</title>
<path fill="none" stroke="midnightblue" d="M54.18,-456.77C58.35,-513.77 82.21,-802.99 141,-865 142.25,-866.31 143.57,-867.54 144.96,-868.69"/>
<polygon fill="midnightblue" stroke="midnightblue" points="143.31,-871.79 153.58,-874.39 147.18,-865.95 143.31,-871.79"/>
</g>
<!-- Node3 -->
<g id="node3" class="node">
<title>Node3</title>
<g id="a_node3"><a xlink:href="classAxisIp4.html#ac18435a2d8d3a7d27b64c52477218977" target="_top" xlink:title=" ">
<polygon fill="none" stroke="black" points="151.5,-836.5 151.5,-855.5 275.5,-855.5 275.5,-836.5 151.5,-836.5"/>
<text text-anchor="middle" x="213.5" y="-843.5" font-family="Helvetica,sans-Serif" font-size="10.00">AxisIp4::getIp4HdrLen</text>
</a>
</g>
</g>
<!-- Node1&#45;&gt;Node3 -->
<g id="edge2" class="edge">
<title>Node1&#45;&gt;Node3</title>
<path fill="none" stroke="midnightblue" d="M54.38,-456.58C59.5,-510.04 86.99,-771.16 141,-827 142.41,-828.45 143.91,-829.8 145.49,-831.05"/>
<polygon fill="midnightblue" stroke="midnightblue" points="143.69,-834.05 154,-836.5 147.47,-828.16 143.69,-834.05"/>
</g>
<!-- Node4 -->
<g id="node4" class="node">
<title>Node4</title>
<g id="a_node4"><a xlink:href="classAxisIp4.html#ac68754528b100219c3a9ee916de54828" target="_top" xlink:title=" ">
<polygon fill="none" stroke="black" points="159,-798.5 159,-817.5 268,-817.5 268,-798.5 159,-798.5"/>
<text text-anchor="middle" x="213.5" y="-805.5" font-family="Helvetica,sans-Serif" font-size="10.00">AxisIp4::getIp4Prot</text>
</a>
</g>
</g>
<!-- Node1&#45;&gt;Node4 -->
<g id="edge3" class="edge">
<title>Node1&#45;&gt;Node4</title>
<path fill="none" stroke="midnightblue" d="M54.65,-456.6C60.84,-506.86 91.83,-739.37 141,-789 143.56,-791.59 146.44,-793.83 149.52,-795.79"/>
<polygon fill="midnightblue" stroke="midnightblue" points="148.19,-799.04 158.68,-800.53 151.41,-792.82 148.19,-799.04"/>
</g>
<!-- Node5 -->
<g id="node5" class="node">
<title>Node5</title>
<g id="a_node5"><a xlink:href="classAxisIp4.html#ac8f3926329a514c6d64b9a5e25ee43cb" target="_top" xlink:title=" ">
<polygon fill="none" stroke="black" points="150,-760.5 150,-779.5 277,-779.5 277,-760.5 150,-760.5"/>
<text text-anchor="middle" x="213.5" y="-767.5" font-family="Helvetica,sans-Serif" font-size="10.00">AxisIp4::getIp4SrcAddr</text>
</a>
</g>
</g>
<!-- Node1&#45;&gt;Node5 -->
<g id="edge4" class="edge">
<title>Node1&#45;&gt;Node5</title>
<path fill="none" stroke="midnightblue" d="M53.13,-456.58C52.05,-498.23 53.51,-665.29 141,-751 142.48,-752.45 144.06,-753.79 145.71,-755.03"/>
<polygon fill="midnightblue" stroke="midnightblue" points="144.21,-758.22 154.57,-760.46 147.87,-752.25 144.21,-758.22"/>
</g>
<!-- Node6 -->
<g id="node6" class="node">
<title>Node6</title>
<g id="a_node6"><a xlink:href="classAxisIp4.html#a4ce83bf0ddbd41a460ba25fecf894a95" target="_top" xlink:title=" ">
<polygon fill="none" stroke="black" points="148.5,-722.5 148.5,-741.5 278.5,-741.5 278.5,-722.5 148.5,-722.5"/>
<text text-anchor="middle" x="213.5" y="-729.5" font-family="Helvetica,sans-Serif" font-size="10.00">AxisIp4::getIp4TotalLen</text>
</a>
</g>
</g>
<!-- Node1&#45;&gt;Node6 -->
<g id="edge5" class="edge">
<title>Node1&#45;&gt;Node6</title>
<path fill="none" stroke="midnightblue" d="M53.58,-456.68C54.46,-495.26 63.03,-639.43 141,-713 142.67,-714.58 144.46,-716.02 146.33,-717.35"/>
<polygon fill="midnightblue" stroke="midnightblue" points="144.67,-720.44 155.07,-722.47 148.21,-714.4 144.67,-720.44"/>
</g>
<!-- Node7 -->
<g id="node7" class="node">
<title>Node7</title>
<g id="a_node7"><a xlink:href="classAxisIp4.html#ac0f54d8eabebeddfdcb7c6df84b77cf7" target="_top" xlink:title=" ">
<polygon fill="none" stroke="black" points="141,-684.5 141,-703.5 286,-703.5 286,-684.5 141,-684.5"/>
<text text-anchor="middle" x="213.5" y="-691.5" font-family="Helvetica,sans-Serif" font-size="10.00">AxisIp4::getLE_Ip4DstAddr</text>
</a>
</g>
</g>
<!-- Node1&#45;&gt;Node7 -->
<g id="edge6" class="edge">
<title>Node1&#45;&gt;Node7</title>
<path fill="none" stroke="midnightblue" d="M54.42,-456.62C58.21,-490.82 75.61,-607.8 141,-670 145.25,-674.05 150.21,-677.41 155.5,-680.21"/>
<polygon fill="midnightblue" stroke="midnightblue" points="154.08,-683.41 164.63,-684.41 157.01,-677.05 154.08,-683.41"/>
</g>
<!-- Node8 -->
<g id="node8" class="node">
<title>Node8</title>
<g id="a_node8"><a xlink:href="classAxisRaw.html#a7034bcf8cf143fb2bb9bfc46e70a7d6b" target="_top" xlink:title=" ">
<polygon fill="none" stroke="black" points="335.5,-608.5 335.5,-627.5 460.5,-627.5 460.5,-608.5 335.5,-608.5"/>
<text text-anchor="middle" x="398" y="-615.5" font-family="Helvetica,sans-Serif" font-size="10.00">AxisRaw::getLE_TData</text>
</a>
</g>
</g>
<!-- Node1&#45;&gt;Node8 -->
<g id="edge7" class="edge">
<title>Node1&#45;&gt;Node8</title>
<path fill="none" stroke="midnightblue" d="M54.45,-456.82C58.22,-489.5 75.25,-594.89 141,-637 211.02,-681.84 314.94,-651.23 366.17,-631.33"/>
<polygon fill="midnightblue" stroke="midnightblue" points="367.7,-634.49 375.69,-627.52 365.1,-627.99 367.7,-634.49"/>
</g>
<!-- Node9 -->
<g id="node9" class="node">
<title>Node9</title>
<g id="a_node9"><a xlink:href="classAxisRaw.html#ab8f254eb6a82b91c64b8579c9a114f58" target="_top" xlink:title=" ">
<polygon fill="none" stroke="black" points="145.5,-608.5 145.5,-627.5 281.5,-627.5 281.5,-608.5 145.5,-608.5"/>
<text text-anchor="middle" x="213.5" y="-615.5" font-family="Helvetica,sans-Serif" font-size="10.00">AxisRaw::getLE_TDataHi</text>
</a>
</g>
</g>
<!-- Node1&#45;&gt;Node9 -->
<g id="edge8" class="edge">
<title>Node1&#45;&gt;Node9</title>
<path fill="none" stroke="midnightblue" d="M56.16,-456.57C64.14,-483.47 90.5,-560.28 141,-599 143.47,-600.89 146.11,-602.6 148.87,-604.13"/>
<polygon fill="midnightblue" stroke="midnightblue" points="147.48,-607.35 158.02,-608.48 150.49,-601.03 147.48,-607.35"/>
</g>
<!-- Node10 -->
<g id="node10" class="node">
<title>Node10</title>
<g id="a_node10"><a xlink:href="classAxisRaw.html#a4becd0ad3c51e3db2749e888f2f72e31" target="_top" xlink:title=" ">
<polygon fill="none" stroke="black" points="335,-532.5 335,-551.5 461,-551.5 461,-532.5 335,-532.5"/>
<text text-anchor="middle" x="398" y="-539.5" font-family="Helvetica,sans-Serif" font-size="10.00">AxisRaw::getLE_TKeep</text>
</a>
</g>
</g>
<!-- Node1&#45;&gt;Node10 -->
<g id="edge10" class="edge">
<title>Node1&#45;&gt;Node10</title>
<path fill="none" stroke="midnightblue" d="M60.91,-456.62C74.6,-473.56 105.71,-508.3 141,-523 199.34,-547.3 271.59,-550.51 324.44,-548.54"/>
<polygon fill="midnightblue" stroke="midnightblue" points="324.91,-552.02 334.75,-548.08 324.6,-545.03 324.91,-552.02"/>
</g>
<!-- Node11 -->
<g id="node11" class="node">
<title>Node11</title>
<g id="a_node11"><a xlink:href="classAxisRaw.html#ad9de3735705f840155f6df0226230b01" target="_top" xlink:title=" ">
<polygon fill="none" stroke="black" points="154,-494.5 154,-513.5 273,-513.5 273,-494.5 154,-494.5"/>
<text text-anchor="middle" x="213.5" y="-501.5" font-family="Helvetica,sans-Serif" font-size="10.00">AxisRaw::getTDataHi</text>
</a>
</g>
</g>
<!-- Node1&#45;&gt;Node11 -->
<g id="edge11" class="edge">
<title>Node1&#45;&gt;Node11</title>
<path fill="none" stroke="midnightblue" d="M73.32,-456.62C90.83,-464.88 117.22,-476.73 141,-485 147.92,-487.41 155.31,-489.69 162.61,-491.77"/>
<polygon fill="midnightblue" stroke="midnightblue" points="161.9,-495.21 172.47,-494.49 163.76,-488.46 161.9,-495.21"/>
</g>
<!-- Node13 -->
<g id="node13" class="node">
<title>Node13</title>
<g id="a_node13"><a xlink:href="classAxisRaw.html#a48f8284ad60d96e2d2764ef2eefc4a64" target="_top" xlink:title=" ">
<polygon fill="none" stroke="black" points="153.5,-456.5 153.5,-475.5 273.5,-475.5 273.5,-456.5 153.5,-456.5"/>
<text text-anchor="middle" x="213.5" y="-463.5" font-family="Helvetica,sans-Serif" font-size="10.00">AxisRaw::getTDataLo</text>
</a>
</g>
</g>
<!-- Node1&#45;&gt;Node13 -->
<g id="edge13" class="edge">
<title>Node1&#45;&gt;Node13</title>
<path fill="none" stroke="midnightblue" d="M105.12,-453.17C117.29,-454.62 130.45,-456.19 143.25,-457.72"/>
<polygon fill="midnightblue" stroke="midnightblue" points="143.06,-461.23 153.41,-458.94 143.89,-454.28 143.06,-461.23"/>
</g>
<!-- Node14 -->
<g id="node14" class="node">
<title>Node14</title>
<g id="a_node14"><a xlink:href="classAxisRaw.html#acb10d569e10f95bdd0be0af34ce605bd" target="_top" xlink:title=" ">
<polygon fill="none" stroke="black" points="343,-380.5 343,-399.5 453,-399.5 453,-380.5 343,-380.5"/>
<text text-anchor="middle" x="398" y="-387.5" font-family="Helvetica,sans-Serif" font-size="10.00">AxisRaw::getTKeep</text>
</a>
</g>
</g>
<!-- Node1&#45;&gt;Node14 -->
<g id="edge15" class="edge">
<title>Node1&#45;&gt;Node14</title>
<path fill="none" stroke="midnightblue" d="M105.23,-438.66C152.36,-431.03 223.88,-419.39 286,-409 301.19,-406.46 317.53,-403.68 332.89,-401.06"/>
<polygon fill="midnightblue" stroke="midnightblue" points="333.55,-404.5 342.81,-399.36 332.37,-397.6 333.55,-404.5"/>
</g>
<!-- Node15 -->
<g id="node15" class="node">
<title>Node15</title>
<g id="a_node15"><a xlink:href="classAxisRaw.html#a58b8357553e87b35d4841c9f0bcdb08d" target="_top" xlink:title=" ">
<polygon fill="none" stroke="black" points="153.5,-380.5 153.5,-399.5 273.5,-399.5 273.5,-380.5 153.5,-380.5"/>
<text text-anchor="middle" x="213.5" y="-387.5" font-family="Helvetica,sans-Serif" font-size="10.00">AxisRaw::getTKeepHi</text>
</a>
</g>
</g>
<!-- Node1&#45;&gt;Node15 -->
<g id="edge16" class="edge">
<title>Node1&#45;&gt;Node15</title>
<path fill="none" stroke="midnightblue" d="M78.3,-437.37C95.77,-430.65 119.74,-421.57 141,-414 151.47,-410.27 162.86,-406.38 173.4,-402.84"/>
<polygon fill="midnightblue" stroke="midnightblue" points="174.82,-406.05 183.19,-399.57 172.6,-399.41 174.82,-406.05"/>
</g>
<!-- Node16 -->
<g id="node16" class="node">
<title>Node16</title>
<g id="a_node16"><a xlink:href="classAxisRaw.html#af7dcf20294a3d8853042af971f19c4a6" target="_top" xlink:title=" ">
<polygon fill="none" stroke="black" points="153,-342.5 153,-361.5 274,-361.5 274,-342.5 153,-342.5"/>
<text text-anchor="middle" x="213.5" y="-349.5" font-family="Helvetica,sans-Serif" font-size="10.00">AxisRaw::getTKeepLo</text>
</a>
</g>
</g>
<!-- Node1&#45;&gt;Node16 -->
<g id="edge18" class="edge">
<title>Node1&#45;&gt;Node16</title>
<path fill="none" stroke="midnightblue" d="M61.9,-437.25C76.39,-421.05 107.76,-388.62 141,-371 145.31,-368.71 149.92,-366.69 154.64,-364.9"/>
<polygon fill="midnightblue" stroke="midnightblue" points="156.11,-368.09 164.43,-361.53 153.83,-361.47 156.11,-368.09"/>
</g>
<!-- Node17 -->
<g id="node17" class="node">
<title>Node17</title>
<g id="a_node17"><a xlink:href="classAxisRaw.html#a42cd520c9b19f7c2fc6d2fc204cb30b7" target="_top" xlink:title=" ">
<polygon fill="none" stroke="black" points="160.5,-304.5 160.5,-323.5 266.5,-323.5 266.5,-304.5 160.5,-304.5"/>
<text text-anchor="middle" x="213.5" y="-311.5" font-family="Helvetica,sans-Serif" font-size="10.00">AxisRaw::getTLast</text>
</a>
</g>
</g>
<!-- Node1&#45;&gt;Node17 -->
<g id="edge20" class="edge">
<title>Node1&#45;&gt;Node17</title>
<path fill="none" stroke="midnightblue" d="M58.1,-437.33C69.13,-415.23 99.27,-360.81 141,-333 144.12,-330.92 147.46,-329.06 150.93,-327.41"/>
<polygon fill="midnightblue" stroke="midnightblue" points="152.46,-330.57 160.35,-323.5 149.78,-324.1 152.46,-330.57"/>
</g>
<!-- Node18 -->
<g id="node18" class="node">
<title>Node18</title>
<g id="a_node18"><a xlink:href="classAxisUdp.html#af2601784b2a0b17dc10c1c816fc1e815" target="_top" xlink:title=" ">
<polygon fill="none" stroke="black" points="155.5,-266.5 155.5,-285.5 271.5,-285.5 271.5,-266.5 155.5,-266.5"/>
<text text-anchor="middle" x="213.5" y="-273.5" font-family="Helvetica,sans-Serif" font-size="10.00">AxisUdp::getUdpLen</text>
</a>
</g>
</g>
<!-- Node1&#45;&gt;Node18 -->
<g id="edge21" class="edge">
<title>Node1&#45;&gt;Node18</title>
<path fill="none" stroke="midnightblue" d="M56.16,-437.43C64.14,-410.53 90.5,-333.72 141,-295 143.47,-293.11 146.11,-291.4 148.87,-289.87"/>
<polygon fill="midnightblue" stroke="midnightblue" points="150.49,-292.97 158.02,-285.52 147.48,-286.65 150.49,-292.97"/>
</g>
<!-- Node19 -->
<g id="node19" class="node">
<title>Node19</title>
<g id="a_node19"><a xlink:href="classAxisIp4.html#a2d327e217cd1a957bc3709e978cad167" target="_top" xlink:title=" ">
<polygon fill="none" stroke="black" points="158,-228.5 158,-247.5 269,-247.5 269,-228.5 158,-228.5"/>
<text text-anchor="middle" x="213.5" y="-235.5" font-family="Helvetica,sans-Serif" font-size="10.00">AxisIp4::getUdpLen</text>
</a>
</g>
</g>
<!-- Node1&#45;&gt;Node19 -->
<g id="edge22" class="edge">
<title>Node1&#45;&gt;Node19</title>
<path fill="none" stroke="midnightblue" d="M54.99,-437.38C60.34,-406.19 81.53,-307.04 141,-257 143.38,-255 145.95,-253.2 148.65,-251.6"/>
<polygon fill="midnightblue" stroke="midnightblue" points="150.29,-254.69 157.66,-247.08 147.16,-248.43 150.29,-254.69"/>
</g>
<!-- Node20 -->
<g id="node20" class="node">
<title>Node20</title>
<g id="a_node20"><a xlink:href="group__NTS.html#ga5560d80c548e85eb53223a5e99410b7b" target="_top" xlink:title="Prints an Axis raw data chunk (used for debugging).">
<polygon fill="none" stroke="black" points="173,-570.5 173,-589.5 254,-589.5 254,-570.5 173,-570.5"/>
<text text-anchor="middle" x="213.5" y="-577.5" font-family="Helvetica,sans-Serif" font-size="10.00">printAxisRaw</text>
</a>
</g>
</g>
<!-- Node1&#45;&gt;Node20 -->
<g id="edge23" class="edge">
<title>Node1&#45;&gt;Node20</title>
<path fill="none" stroke="midnightblue" d="M58.69,-456.7C70.49,-477.83 101.39,-528.37 141,-556 147.72,-560.69 155.42,-564.52 163.23,-567.63"/>
<polygon fill="midnightblue" stroke="midnightblue" points="162.15,-570.96 172.75,-571.08 164.54,-564.38 162.15,-570.96"/>
</g>
<!-- Node22 -->
<g id="node22" class="node">
<title>Node22</title>
<g id="a_node22"><a xlink:href="classAxisRaw.html#a1a7e2a69edc7b522df061409e3f79441" target="_top" xlink:title=" ">
<polygon fill="none" stroke="black" points="154,-190.5 154,-209.5 273,-209.5 273,-190.5 154,-190.5"/>
<text text-anchor="middle" x="213.5" y="-197.5" font-family="Helvetica,sans-Serif" font-size="10.00">AxisRaw::setTDataHi</text>
</a>
</g>
</g>
<!-- Node1&#45;&gt;Node22 -->
<g id="edge27" class="edge">
<title>Node1&#45;&gt;Node22</title>
<path fill="none" stroke="midnightblue" d="M54.21,-437.02C57.28,-401.56 72.57,-280.49 141,-219 142.75,-217.43 144.61,-215.99 146.56,-214.66"/>
<polygon fill="midnightblue" stroke="midnightblue" points="148.61,-217.52 155.61,-209.57 145.18,-211.42 148.61,-217.52"/>
</g>
<!-- Node23 -->
<g id="node23" class="node">
<title>Node23</title>
<g id="a_node23"><a xlink:href="classAxisRaw.html#a1af3fe5faeab03875a0e654190f598de" target="_top" xlink:title=" ">
<polygon fill="none" stroke="black" points="154,-152.5 154,-171.5 273,-171.5 273,-152.5 154,-152.5"/>
<text text-anchor="middle" x="213.5" y="-159.5" font-family="Helvetica,sans-Serif" font-size="10.00">AxisRaw::setTDataLo</text>
</a>
</g>
</g>
<!-- Node1&#45;&gt;Node23 -->
<g id="edge28" class="edge">
<title>Node1&#45;&gt;Node23</title>
<path fill="none" stroke="midnightblue" d="M53.58,-437.32C54.46,-398.74 63.03,-254.57 141,-181 142.67,-179.42 144.46,-177.98 146.33,-176.65"/>
<polygon fill="midnightblue" stroke="midnightblue" points="148.21,-179.6 155.07,-171.53 144.67,-173.56 148.21,-179.6"/>
</g>
<!-- Node24 -->
<g id="node24" class="node">
<title>Node24</title>
<g id="a_node24"><a xlink:href="classAxisRaw.html#aa856c8e559a50d2e7bbdbbfd51b76ba9" target="_top" xlink:title=" ">
<polygon fill="none" stroke="black" points="159,-114.5 159,-133.5 268,-133.5 268,-114.5 159,-114.5"/>
<text text-anchor="middle" x="213.5" y="-121.5" font-family="Helvetica,sans-Serif" font-size="10.00">AxisRaw::setTKeep</text>
</a>
</g>
</g>
<!-- Node1&#45;&gt;Node24 -->
<g id="edge29" class="edge">
<title>Node1&#45;&gt;Node24</title>
<path fill="none" stroke="midnightblue" d="M53.13,-437.42C52.05,-395.77 53.51,-228.71 141,-143 143.68,-140.37 146.68,-138.1 149.89,-136.13"/>
<polygon fill="midnightblue" stroke="midnightblue" points="151.48,-139.25 158.82,-131.6 148.31,-133.01 151.48,-139.25"/>
</g>
<!-- Node25 -->
<g id="node25" class="node">
<title>Node25</title>
<g id="a_node25"><a xlink:href="classAxisRaw.html#a9d6431f0204bddaa17277cea807dc804" target="_top" xlink:title=" ">
<polygon fill="none" stroke="black" points="154,-76.5 154,-95.5 273,-95.5 273,-76.5 154,-76.5"/>
<text text-anchor="middle" x="213.5" y="-83.5" font-family="Helvetica,sans-Serif" font-size="10.00">AxisRaw::setTKeepHi</text>
</a>
</g>
</g>
<!-- Node1&#45;&gt;Node25 -->
<g id="edge30" class="edge">
<title>Node1&#45;&gt;Node25</title>
<path fill="none" stroke="midnightblue" d="M54.65,-437.4C60.84,-387.14 91.83,-154.63 141,-105 142.42,-103.56 143.94,-102.23 145.54,-101"/>
<polygon fill="midnightblue" stroke="midnightblue" points="147.51,-103.89 154.1,-95.6 143.78,-97.97 147.51,-103.89"/>
</g>
<!-- Node26 -->
<g id="node26" class="node">
<title>Node26</title>
<g id="a_node26"><a xlink:href="classAxisRaw.html#a4cbc05f7d44b163c8a2f09881b3764df" target="_top" xlink:title=" ">
<polygon fill="none" stroke="black" points="153.5,-38.5 153.5,-57.5 273.5,-57.5 273.5,-38.5 153.5,-38.5"/>
<text text-anchor="middle" x="213.5" y="-45.5" font-family="Helvetica,sans-Serif" font-size="10.00">AxisRaw::setTKeepLo</text>
</a>
</g>
</g>
<!-- Node1&#45;&gt;Node26 -->
<g id="edge31" class="edge">
<title>Node1&#45;&gt;Node26</title>
<path fill="none" stroke="midnightblue" d="M54.38,-437.42C59.5,-383.96 86.99,-122.84 141,-67 142.41,-65.55 143.91,-64.2 145.49,-62.95"/>
<polygon fill="midnightblue" stroke="midnightblue" points="147.47,-65.84 154,-57.5 143.69,-59.95 147.47,-65.84"/>
</g>
<!-- Node27 -->
<g id="node27" class="node">
<title>Node27</title>
<g id="a_node27"><a xlink:href="classAxisRaw.html#a1238c47d46a7d858c542f55797dfc9f2" target="_top" xlink:title=" ">
<polygon fill="none" stroke="black" points="161,-0.5 161,-19.5 266,-19.5 266,-0.5 161,-0.5"/>
<text text-anchor="middle" x="213.5" y="-7.5" font-family="Helvetica,sans-Serif" font-size="10.00">AxisRaw::setTLast</text>
</a>
</g>
</g>
<!-- Node1&#45;&gt;Node27 -->
<g id="edge32" class="edge">
<title>Node1&#45;&gt;Node27</title>
<path fill="none" stroke="midnightblue" d="M54.18,-437.23C58.35,-380.23 82.21,-91.01 141,-29 144.17,-25.66 147.85,-22.88 151.84,-20.57"/>
<polygon fill="midnightblue" stroke="midnightblue" points="153.45,-23.68 160.99,-16.24 150.45,-17.36 153.45,-23.68"/>
</g>
<!-- Node9&#45;&gt;Node8 -->
<g id="edge9" class="edge">
<title>Node9&#45;&gt;Node8</title>
<path fill="none" stroke="midnightblue" d="M281.68,-618C295.83,-618 310.81,-618 325.12,-618"/>
<polygon fill="midnightblue" stroke="midnightblue" points="325.4,-621.5 335.4,-618 325.4,-614.5 325.4,-621.5"/>
</g>
<!-- Node12 -->
<g id="node12" class="node">
<title>Node12</title>
<g id="a_node12"><a xlink:href="classAxisRaw.html#a208a8bf67decab3e92139c8afc9aa149" target="_top" xlink:title=" ">
<polygon fill="none" stroke="black" points="343.5,-475.5 343.5,-494.5 452.5,-494.5 452.5,-475.5 343.5,-475.5"/>
<text text-anchor="middle" x="398" y="-482.5" font-family="Helvetica,sans-Serif" font-size="10.00">AxisRaw::getTData</text>
</a>
</g>
</g>
<!-- Node11&#45;&gt;Node12 -->
<g id="edge12" class="edge">
<title>Node11&#45;&gt;Node12</title>
<path fill="none" stroke="midnightblue" d="M273.25,-497.88C292.42,-495.89 313.78,-493.66 333.29,-491.63"/>
<polygon fill="midnightblue" stroke="midnightblue" points="333.72,-495.11 343.31,-490.59 333,-488.14 333.72,-495.11"/>
</g>
<!-- Node13&#45;&gt;Node12 -->
<g id="edge14" class="edge">
<title>Node13&#45;&gt;Node12</title>
<path fill="none" stroke="midnightblue" d="M273.5,-472.14C292.66,-474.14 313.99,-476.36 333.46,-478.38"/>
<polygon fill="midnightblue" stroke="midnightblue" points="333.14,-481.87 343.45,-479.42 333.87,-474.91 333.14,-481.87"/>
</g>
<!-- Node15&#45;&gt;Node14 -->
<g id="edge17" class="edge">
<title>Node15&#45;&gt;Node14</title>
<path fill="none" stroke="midnightblue" d="M273.5,-390C292.39,-390 313.4,-390 332.65,-390"/>
<polygon fill="midnightblue" stroke="midnightblue" points="332.84,-393.5 342.84,-390 332.84,-386.5 332.84,-393.5"/>
</g>
<!-- Node16&#45;&gt;Node14 -->
<g id="edge19" class="edge">
<title>Node16&#45;&gt;Node14</title>
<path fill="none" stroke="midnightblue" d="M260.55,-361.59C285.07,-366.69 315.41,-373.01 341.25,-378.39"/>
<polygon fill="midnightblue" stroke="midnightblue" points="340.78,-381.87 351.28,-380.48 342.2,-375.01 340.78,-381.87"/>
</g>
<!-- Node20&#45;&gt;Node8 -->
<g id="edge24" class="edge">
<title>Node20&#45;&gt;Node8</title>
<path fill="none" stroke="midnightblue" d="M254.1,-588.25C279.59,-593.55 313.1,-600.53 341.26,-606.39"/>
<polygon fill="midnightblue" stroke="midnightblue" points="340.86,-609.89 351.37,-608.5 342.29,-603.03 340.86,-609.89"/>
</g>
<!-- Node20&#45;&gt;Node10 -->
<g id="edge25" class="edge">
<title>Node20&#45;&gt;Node10</title>
<path fill="none" stroke="midnightblue" d="M254.1,-571.75C279.59,-566.45 313.1,-559.47 341.26,-553.61"/>
<polygon fill="midnightblue" stroke="midnightblue" points="342.29,-556.97 351.37,-551.5 340.86,-550.11 342.29,-556.97"/>
</g>
<!-- Node21 -->
<g id="node21" class="node">
<title>Node21</title>
<g id="a_node21"><a xlink:href="classAxisRaw.html#af8208752dcbb14911c5fda27d90a0ef4" target="_top" xlink:title=" ">
<polygon fill="none" stroke="black" points="337,-570.5 337,-589.5 459,-589.5 459,-570.5 337,-570.5"/>
<text text-anchor="middle" x="398" y="-577.5" font-family="Helvetica,sans-Serif" font-size="10.00">AxisRaw::getLE_TLast</text>
</a>
</g>
</g>
<!-- Node20&#45;&gt;Node21 -->
<g id="edge26" class="edge">
<title>Node20&#45;&gt;Node21</title>
<path fill="none" stroke="midnightblue" d="M254.1,-580C275.38,-580 302.26,-580 326.94,-580"/>
<polygon fill="midnightblue" stroke="midnightblue" points="327,-583.5 337,-580 327,-576.5 327,-583.5"/>
</g>
<!-- Node28 -->
<g id="node28" class="node">
<title>Node28</title>
<g id="a_node28"><a xlink:href="classAxisRaw.html#a4e8ed9ad2072a6563870f9344c362a4e" target="_top" xlink:title=" ">
<polygon fill="none" stroke="black" points="322,-0.5 322,-19.5 474,-19.5 474,-0.5 322,-0.5"/>
<text text-anchor="middle" x="398" y="-7.5" font-family="Helvetica,sans-Serif" font-size="10.00">AxisRaw::clearUnusedBytes</text>
</a>
</g>
</g>
<!-- Node27&#45;&gt;Node28 -->
<g id="edge33" class="edge">
<title>Node27&#45;&gt;Node28</title>
<path fill="none" stroke="midnightblue" d="M266.31,-10C280.49,-10 296.24,-10 311.75,-10"/>
<polygon fill="midnightblue" stroke="midnightblue" points="311.9,-13.5 321.9,-10 311.9,-6.5 311.9,-13.5"/>
</g>
</g>
</svg>
        <g id="navigator" transform="translate(0 0)" fill="#404254">
                <rect fill="#f2f5e9" fill-opacity="0.5" stroke="#606060" stroke-width=".5" x="0" y="0" width="60" height="60"/>
                <use id="zoomplus" xlink:href="#zoomPlus" x="17" y="9" onmousedown="handleZoom(evt,'in')"/>
                <use id="zoomminus" xlink:href="#zoomMin" x="42" y="9" onmousedown="handleZoom(evt,'out')"/>
                <use id="reset" xlink:href="#resetDef" x="30" y="36" onmousedown="handleReset()"/>
                <g id="arrowUp" xlink:href="#dirArrow" transform="translate(30 24)" onmousedown="handlePan(0,-1)">
                  <use xlink:href="#rim" fill="#404040">
                        <set attributeName="fill" to="#808080" begin="arrowUp.mouseover" end="arrowUp.mouseout"/>
                  </use>
                  <path fill="none" stroke="white" stroke-width="1.5" d="M0,-3.0v7 M-2.5,-0.5L0,-3.0L2.5,-0.5"/>
                </g>
                <g id="arrowRight" xlink:href="#dirArrow" transform="rotate(90) translate(36 -43)" onmousedown="handlePan(1,0)">
                  <use xlink:href="#rim" fill="#404040">
                        <set attributeName="fill" to="#808080" begin="arrowRight.mouseover" end="arrowRight.mouseout"/>
                  </use>
                  <path fill="none" stroke="white" stroke-width="1.5" d="M0,-3.0v7 M-2.5,-0.5L0,-3.0L2.5,-0.5"/>
                </g>
                <g id="arrowDown" xlink:href="#dirArrow" transform="rotate(180) translate(-30 -48)" onmousedown="handlePan(0,1)">
                  <use xlink:href="#rim" fill="#404040">
                        <set attributeName="fill" to="#808080" begin="arrowDown.mouseover" end="arrowDown.mouseout"/>
                  </use>
                  <path fill="none" stroke="white" stroke-width="1.5" d="M0,-3.0v7 M-2.5,-0.5L0,-3.0L2.5,-0.5"/>
                </g>
                <g id="arrowLeft" xlink:href="#dirArrow" transform="rotate(270) translate(-36 17)" onmousedown="handlePan(-1,0)">
                  <use xlink:href="#rim" fill="#404040">
                        <set attributeName="fill" to="#808080" begin="arrowLeft.mouseover" end="arrowLeft.mouseout"/>
                  </use>
                  <path fill="none" stroke="white" stroke-width="1.5" d="M0,-3.0v7 M-2.5,-0.5L0,-3.0L2.5,-0.5"/>
                </g>
        </g>
        <svg viewBox="0 0 15 15" width="100%" height="30px" preserveAspectRatio="xMaxYMin meet">
         <g id="arrow_out" transform="scale(0.3 0.3)">
          <a xlink:href="group__NTS__UOE_gaf298ae8ed051de648f02f4b2ab238ded_cgraph_org.svg" target="_base">
           <rect id="button" ry="5" rx="5" y="6" x="6" height="38" width="38"
                fill="#f2f5e9" fill-opacity="0.5" stroke="#606060" stroke-width="1.0"/>
           <path id="arrow"
             d="M 11.500037,31.436501 C 11.940474,20.09759 22.043105,11.32322 32.158766,21.979434 L 37.068811,17.246167 C 37.068811,17.246167 37.088388,32 37.088388,32 L 22.160133,31.978069 C 22.160133,31.978069 26.997745,27.140456 26.997745,27.140456 C 18.528582,18.264221 13.291696,25.230495 11.500037,31.436501 z"
             style="fill:#404040;"/>
          </a>
         </g>
        </svg>
</svg>
