<?xml version="1.0" encoding="UTF-8" standalone="no"?>
<!DOCTYPE svg PUBLIC "-//W3C//DTD SVG 1.1//EN"
 "http://www.w3.org/Graphics/SVG/1.1/DTD/svg11.dtd">
<!-- Generated by graphviz version 2.43.0 (0)
 -->
<!-- Title: dumpFileToStringRawDataString Pages: 1 -->
<svg width="366pt" height="28pt"
 viewBox="0.00 0.00 366.00 28.00" xmlns="http://www.w3.org/2000/svg" xmlns:xlink="http://www.w3.org/1999/xlink">
<g id="graph0" class="graph" transform="scale(1 1) rotate(0) translate(4 24)">
<title>dumpFileToStringRawDataString</title>
<!-- Node1 -->
<g id="node1" class="node">
<title>Node1</title>
<g id="a_node1"><a xlink:title="Initialize an input data stream from a file with only data.">
<polygon fill="#bfbfbf" stroke="black" points="0,-0.5 0,-19.5 173,-19.5 173,-0.5 0,-0.5"/>
<text text-anchor="middle" x="86.5" y="-7.5" font-family="Helvetica,sans-Serif" font-size="10.00">dumpFileToStringRawDataString</text>
</a>
</g>
</g>
<!-- Node2 -->
<g id="node2" class="node">
<title>Node2</title>
<g id="a_node2"><a xlink:href="group__Memtest.html#gae9c965133be1777981977fa6eea44bfd" target="_top" xlink:title="Convert a hexadecimal string to a ascii string.">
<polygon fill="none" stroke="black" points="209,-0.5 209,-19.5 272,-19.5 272,-0.5 209,-0.5"/>
<text text-anchor="middle" x="240.5" y="-7.5" font-family="Helvetica,sans-Serif" font-size="10.00">hex2ascii</text>
</a>
</g>
</g>
<!-- Node1&#45;&gt;Node2 -->
<g id="edge1" class="edge">
<title>Node1&#45;&gt;Node2</title>
<path fill="none" stroke="midnightblue" d="M173.27,-10C182.08,-10 190.7,-10 198.66,-10"/>
<polygon fill="midnightblue" stroke="midnightblue" points="198.71,-13.5 208.71,-10 198.71,-6.5 198.71,-13.5"/>
</g>
<!-- Node3 -->
<g id="node3" class="node">
<title>Node3</title>
<g id="a_node3"><a xlink:href="group__Memtest.html#ga0eb36a7f681c535b75a6af5b5f7ca257" target="_top" xlink:title="convert a char to its hexadecimal representation.">
<polygon fill="none" stroke="black" points="308,-0.5 308,-19.5 358,-19.5 358,-0.5 308,-0.5"/>
<text text-anchor="middle" x="333" y="-7.5" font-family="Helvetica,sans-Serif" font-size="10.00">hexval</text>
</a>
</g>
</g>
<!-- Node2&#45;&gt;Node3 -->
<g id="edge2" class="edge">
<title>Node2&#45;&gt;Node3</title>
<path fill="none" stroke="midnightblue" d="M272.14,-10C280.36,-10 289.3,-10 297.71,-10"/>
<polygon fill="midnightblue" stroke="midnightblue" points="297.97,-13.5 307.97,-10 297.97,-6.5 297.97,-13.5"/>
</g>
</g>
</svg>
