<?xml version="1.0" encoding="UTF-8" standalone="no"?>
<!DOCTYPE svg PUBLIC "-//W3C//DTD SVG 1.1//EN"
 "http://www.w3.org/Graphics/SVG/1.1/DTD/svg11.dtd">
<!-- Generated by graphviz version 2.43.0 (0)
 -->
<!-- Title: udp_shell_if Pages: 1 -->
<svg width="539pt" height="475pt"
 viewBox="0.00 0.00 539.00 474.72" xmlns="http://www.w3.org/2000/svg" xmlns:xlink="http://www.w3.org/1999/xlink">
<g id="graph0" class="graph" transform="scale(1 1) rotate(0) translate(4 470.72)">
<title>udp_shell_if</title>
<!-- Node1 -->
<g id="node1" class="node">
<title>Node1</title>
<g id="a_node1"><a xlink:title="Main process of the UDP Shell Interface (USIF).">
<polygon fill="#bfbfbf" stroke="black" points="0,-361.5 0,-380.5 75,-380.5 75,-361.5 0,-361.5"/>
<text text-anchor="middle" x="37.5" y="-368.5" font-family="Helvetica,sans-Serif" font-size="10.00">udp_shell_if</text>
</a>
</g>
</g>
<!-- Node2 -->
<g id="node2" class="node">
<title>Node2</title>
<g id="a_node2"><a xlink:href="group__udp__shell__if.html#gab40dfe618cadf8af6d3e14de25ac99ca" target="_top" xlink:title="Request the SHELL/NTS/UOE to close a previously opened port.">
<polygon fill="none" stroke="black" points="121,-418.5 121,-437.5 171,-437.5 171,-418.5 121,-418.5"/>
<text text-anchor="middle" x="146" y="-425.5" font-family="Helvetica,sans-Serif" font-size="10.00">pClose</text>
</a>
</g>
</g>
<!-- Node1&#45;&gt;Node2 -->
<g id="edge1" class="edge">
<title>Node1&#45;&gt;Node2</title>
<path fill="none" stroke="midnightblue" d="M56.57,-380.67C73.5,-389.73 99.02,-403.39 118.3,-413.71"/>
<polygon fill="midnightblue" stroke="midnightblue" points="116.73,-416.84 127.2,-418.47 120.04,-410.67 116.73,-416.84"/>
</g>
<!-- Node3 -->
<g id="node3" class="node">
<title>Node3</title>
<g id="a_node3"><a xlink:href="group__udp__shell__if.html#gac3c350a4a0c4304687acadf81c4ad50b" target="_top" xlink:title="Listen(LSn)">
<polygon fill="none" stroke="black" points="120,-380.5 120,-399.5 172,-399.5 172,-380.5 120,-380.5"/>
<text text-anchor="middle" x="146" y="-387.5" font-family="Helvetica,sans-Serif" font-size="10.00">pListen</text>
</a>
</g>
</g>
<!-- Node1&#45;&gt;Node3 -->
<g id="edge2" class="edge">
<title>Node1&#45;&gt;Node3</title>
<path fill="none" stroke="midnightblue" d="M75.15,-377.54C86.28,-379.52 98.48,-381.7 109.52,-383.67"/>
<polygon fill="midnightblue" stroke="midnightblue" points="109.23,-387.17 119.69,-385.48 110.46,-380.28 109.23,-387.17"/>
</g>
<!-- Node4 -->
<g id="node4" class="node">
<title>Node4</title>
<g id="a_node4"><a xlink:href="group__udp__shell__if.html#gaaa2f8d23a8ed553895212d3a61ab0d66" target="_top" xlink:title="Read Path (RDp) &#45; From SHELL/UOE to ROLE/UAF.">
<polygon fill="none" stroke="black" points="112,-342.5 112,-361.5 180,-361.5 180,-342.5 112,-342.5"/>
<text text-anchor="middle" x="146" y="-349.5" font-family="Helvetica,sans-Serif" font-size="10.00">pReadPath</text>
</a>
</g>
</g>
<!-- Node1&#45;&gt;Node4 -->
<g id="edge3" class="edge">
<title>Node1&#45;&gt;Node4</title>
<path fill="none" stroke="midnightblue" d="M75.15,-364.46C83.71,-362.93 92.91,-361.29 101.73,-359.72"/>
<polygon fill="midnightblue" stroke="midnightblue" points="102.62,-363.12 111.85,-357.91 101.39,-356.22 102.62,-363.12"/>
</g>
<!-- Node12 -->
<g id="node12" class="node">
<title>Node12</title>
<g id="a_node12"><a xlink:href="group__udp__shell__if.html#ga8d1842fd15e269a579ebdf54923d4366" target="_top" xlink:title="Write Path (WRp) &#45; From ROLE/UAF to SHELL/NTS/UOE.">
<polygon fill="none" stroke="black" points="111,-152.5 111,-171.5 181,-171.5 181,-152.5 111,-152.5"/>
<text text-anchor="middle" x="146" y="-159.5" font-family="Helvetica,sans-Serif" font-size="10.00">pWritePath</text>
</a>
</g>
</g>
<!-- Node1&#45;&gt;Node12 -->
<g id="edge13" class="edge">
<title>Node1&#45;&gt;Node12</title>
<path fill="none" stroke="midnightblue" d="M43.35,-361.48C59.78,-329.24 113.48,-223.86 135.48,-180.69"/>
<polygon fill="midnightblue" stroke="midnightblue" points="138.7,-182.08 140.12,-171.58 132.46,-178.9 138.7,-182.08"/>
</g>
<!-- Node5 -->
<g id="node5" class="node">
<title>Node5</title>
<g id="a_node5"><a xlink:href="udp_8cpp.html#ga3179abf5c515026aad3e82047a1dd9a3" target="_top" xlink:title=" ">
<polygon fill="none" stroke="black" points="254.5,-380.5 254.5,-399.5 331.5,-399.5 331.5,-380.5 254.5,-380.5"/>
<text text-anchor="middle" x="293" y="-387.5" font-family="Helvetica,sans-Serif" font-size="10.00">byteSwap16</text>
</a>
</g>
</g>
<!-- Node4&#45;&gt;Node5 -->
<g id="edge4" class="edge">
<title>Node4&#45;&gt;Node5</title>
<path fill="none" stroke="midnightblue" d="M180.08,-361.1C191.74,-364.28 204.94,-367.84 217,-371 225.87,-373.33 235.35,-375.77 244.48,-378.09"/>
<polygon fill="midnightblue" stroke="midnightblue" points="243.64,-381.49 254.2,-380.56 245.37,-374.7 243.64,-381.49"/>
</g>
<!-- Node6 -->
<g id="node6" class="node">
<title>Node6</title>
<g id="a_node6"><a xlink:href="udp_8cpp.html#ga2355e0cecd0576470bca0178c4c1aec2" target="_top" xlink:title=" ">
<polygon fill="none" stroke="black" points="254.5,-342.5 254.5,-361.5 331.5,-361.5 331.5,-342.5 254.5,-342.5"/>
<text text-anchor="middle" x="293" y="-349.5" font-family="Helvetica,sans-Serif" font-size="10.00">byteSwap32</text>
</a>
</g>
</g>
<!-- Node4&#45;&gt;Node6 -->
<g id="edge5" class="edge">
<title>Node4&#45;&gt;Node6</title>
<path fill="none" stroke="midnightblue" d="M180.27,-352C199.15,-352 223.11,-352 244,-352"/>
<polygon fill="midnightblue" stroke="midnightblue" points="244.29,-355.5 254.29,-352 244.29,-348.5 244.29,-355.5"/>
</g>
<!-- Node7 -->
<g id="node7" class="node">
<title>Node7</title>
<g id="a_node7"><a xlink:href="classAxisRaw.html#a7034bcf8cf143fb2bb9bfc46e70a7d6b" target="_top" xlink:title=" ">
<polygon fill="none" stroke="black" points="405.5,-304.5 405.5,-323.5 530.5,-323.5 530.5,-304.5 405.5,-304.5"/>
<text text-anchor="middle" x="468" y="-311.5" font-family="Helvetica,sans-Serif" font-size="10.00">AxisRaw::getLE_TData</text>
</a>
</g>
</g>
<!-- Node4&#45;&gt;Node7 -->
<g id="edge6" class="edge">
<title>Node4&#45;&gt;Node7</title>
<path fill="none" stroke="midnightblue" d="M177.39,-342.41C189.58,-338.91 203.85,-335.26 217,-333 276.6,-322.74 345.14,-318.02 395.36,-315.85"/>
<polygon fill="midnightblue" stroke="midnightblue" points="395.62,-319.34 405.47,-315.44 395.34,-312.35 395.62,-319.34"/>
</g>
<!-- Node8 -->
<g id="node8" class="node">
<title>Node8</title>
<g id="a_node8"><a xlink:href="classAxisRaw.html#af8208752dcbb14911c5fda27d90a0ef4" target="_top" xlink:title=" ">
<polygon fill="none" stroke="black" points="407,-399.5 407,-418.5 529,-418.5 529,-399.5 407,-399.5"/>
<text text-anchor="middle" x="468" y="-406.5" font-family="Helvetica,sans-Serif" font-size="10.00">AxisRaw::getLE_TLast</text>
</a>
</g>
</g>
<!-- Node4&#45;&gt;Node8 -->
<g id="edge7" class="edge">
<title>Node4&#45;&gt;Node8</title>
<path fill="none" stroke="midnightblue" d="M168.94,-361.61C173.3,-364.22 177.58,-367.34 181,-371 206.53,-398.3 185.42,-427.01 217,-447 288.15,-492.02 393.01,-448.26 441.13,-423.47"/>
<polygon fill="midnightblue" stroke="midnightblue" points="443.04,-426.42 450.24,-418.65 439.77,-420.23 443.04,-426.42"/>
</g>
<!-- Node9 -->
<g id="node9" class="node">
<title>Node9</title>
<g id="a_node9"><a xlink:href="group__NTS.html#ga5560d80c548e85eb53223a5e99410b7b" target="_top" xlink:title="Prints an Axis raw data chunk (used for debugging).">
<polygon fill="none" stroke="black" points="252.5,-266.5 252.5,-285.5 333.5,-285.5 333.5,-266.5 252.5,-266.5"/>
<text text-anchor="middle" x="293" y="-273.5" font-family="Helvetica,sans-Serif" font-size="10.00">printAxisRaw</text>
</a>
</g>
</g>
<!-- Node4&#45;&gt;Node9 -->
<g id="edge8" class="edge">
<title>Node4&#45;&gt;Node9</title>
<path fill="none" stroke="midnightblue" d="M157.64,-342.32C170.75,-330.83 194.1,-311.75 217,-300 225.4,-295.69 234.72,-291.96 243.85,-288.81"/>
<polygon fill="midnightblue" stroke="midnightblue" points="245.22,-292.04 253.64,-285.62 243.05,-285.39 245.22,-292.04"/>
</g>
<!-- Node11 -->
<g id="node11" class="node">
<title>Node11</title>
<g id="a_node11"><a xlink:href="group__NTS.html#ga868a2a0831dcd26fa88eadae8f61f92c" target="_top" xlink:title="Print a socket address.">
<polygon fill="none" stroke="black" points="250.5,-418.5 250.5,-437.5 335.5,-437.5 335.5,-418.5 250.5,-418.5"/>
<text text-anchor="middle" x="293" y="-425.5" font-family="Helvetica,sans-Serif" font-size="10.00">printSockAddr</text>
</a>
</g>
</g>
<!-- Node4&#45;&gt;Node11 -->
<g id="edge12" class="edge">
<title>Node4&#45;&gt;Node11</title>
<path fill="none" stroke="midnightblue" d="M166.7,-361.68C171.56,-364.42 176.62,-367.6 181,-371 199.36,-385.28 196.93,-397.23 217,-409 224.17,-413.2 232.25,-416.48 240.39,-419.04"/>
<polygon fill="midnightblue" stroke="midnightblue" points="239.71,-422.49 250.28,-421.82 241.6,-415.75 239.71,-422.49"/>
</g>
<!-- Node9&#45;&gt;Node7 -->
<g id="edge9" class="edge">
<title>Node9&#45;&gt;Node7</title>
<path fill="none" stroke="midnightblue" d="M333.69,-284.72C357.38,-289.92 387.77,-296.6 413.55,-302.26"/>
<polygon fill="midnightblue" stroke="midnightblue" points="413.03,-305.73 423.55,-304.46 414.54,-298.89 413.03,-305.73"/>
</g>
<!-- Node9&#45;&gt;Node8 -->
<g id="edge11" class="edge">
<title>Node9&#45;&gt;Node8</title>
<path fill="none" stroke="midnightblue" d="M306.77,-285.64C321.72,-296.95 347.21,-316.27 369,-333 395.93,-353.67 426.86,-377.71 446.65,-393.12"/>
<polygon fill="midnightblue" stroke="midnightblue" points="444.61,-395.98 454.65,-399.36 448.92,-390.46 444.61,-395.98"/>
</g>
<!-- Node10 -->
<g id="node10" class="node">
<title>Node10</title>
<g id="a_node10"><a xlink:href="classAxisRaw.html#a4becd0ad3c51e3db2749e888f2f72e31" target="_top" xlink:title=" ">
<polygon fill="none" stroke="black" points="405,-266.5 405,-285.5 531,-285.5 531,-266.5 405,-266.5"/>
<text text-anchor="middle" x="468" y="-273.5" font-family="Helvetica,sans-Serif" font-size="10.00">AxisRaw::getLE_TKeep</text>
</a>
</g>
</g>
<!-- Node9&#45;&gt;Node10 -->
<g id="edge10" class="edge">
<title>Node9&#45;&gt;Node10</title>
<path fill="none" stroke="midnightblue" d="M333.69,-276C351.78,-276 373.78,-276 394.64,-276"/>
<polygon fill="midnightblue" stroke="midnightblue" points="394.78,-279.5 404.78,-276 394.78,-272.5 394.78,-279.5"/>
</g>
<!-- Node12&#45;&gt;Node9 -->
<g id="edge17" class="edge">
<title>Node12&#45;&gt;Node9</title>
<path fill="none" stroke="midnightblue" d="M151.24,-171.52C160.35,-190.81 183.68,-234.6 217,-257 224.69,-262.17 233.69,-265.94 242.73,-268.68"/>
<polygon fill="midnightblue" stroke="midnightblue" points="241.93,-272.09 252.5,-271.27 243.73,-265.32 241.93,-272.09"/>
</g>
<!-- Node13 -->
<g id="node13" class="node">
<title>Node13</title>
<g id="a_node13"><a xlink:href="classAxisRaw.html#a4e8ed9ad2072a6563870f9344c362a4e" target="_top" xlink:title=" ">
<polygon fill="none" stroke="black" points="217,-76.5 217,-95.5 369,-95.5 369,-76.5 217,-76.5"/>
<text text-anchor="middle" x="293" y="-83.5" font-family="Helvetica,sans-Serif" font-size="10.00">AxisRaw::clearUnusedBytes</text>
</a>
</g>
</g>
<!-- Node12&#45;&gt;Node13 -->
<g id="edge14" class="edge">
<title>Node12&#45;&gt;Node13</title>
<path fill="none" stroke="midnightblue" d="M156.02,-152.41C168.51,-139.68 192.35,-117.39 217,-105 221.68,-102.65 226.68,-100.57 231.78,-98.74"/>
<polygon fill="midnightblue" stroke="midnightblue" points="233.26,-101.94 241.68,-95.52 231.09,-95.29 233.26,-101.94"/>
</g>
<!-- Node14 -->
<g id="node14" class="node">
<title>Node14</title>
<g id="a_node14"><a xlink:href="classAxisRaw.html#a42cd520c9b19f7c2fc6d2fc204cb30b7" target="_top" xlink:title=" ">
<polygon fill="none" stroke="black" points="240,-38.5 240,-57.5 346,-57.5 346,-38.5 240,-38.5"/>
<text text-anchor="middle" x="293" y="-45.5" font-family="Helvetica,sans-Serif" font-size="10.00">AxisRaw::getTLast</text>
</a>
</g>
</g>
<!-- Node12&#45;&gt;Node14 -->
<g id="edge15" class="edge">
<title>Node12&#45;&gt;Node14</title>
<path fill="none" stroke="midnightblue" d="M151.24,-152.48C160.35,-133.19 183.68,-89.4 217,-67 221.21,-64.17 225.81,-61.76 230.6,-59.71"/>
<polygon fill="midnightblue" stroke="midnightblue" points="231.84,-62.98 239.97,-56.19 229.38,-56.43 231.84,-62.98"/>
</g>
<!-- Node15 -->
<g id="node15" class="node">
<title>Node15</title>
<g id="a_node15"><a xlink:href="group__NTS.html#ga322539a2726973fd6ecf61d26e6ccbf8" target="_top" xlink:title="A function to set a number of &#39;1&#39; in an 8&#45;bit field. It is used here to set the number of valid bytes...">
<polygon fill="none" stroke="black" points="250,-0.5 250,-19.5 336,-19.5 336,-0.5 250,-0.5"/>
<text text-anchor="middle" x="293" y="-7.5" font-family="Helvetica,sans-Serif" font-size="10.00">lenToLE_tKeep</text>
</a>
</g>
</g>
<!-- Node12&#45;&gt;Node15 -->
<g id="edge16" class="edge">
<title>Node12&#45;&gt;Node15</title>
<path fill="none" stroke="midnightblue" d="M149.22,-152.21C155.37,-127.47 174.98,-62.1 217,-29 223.75,-23.68 231.81,-19.84 240.1,-17.06"/>
<polygon fill="midnightblue" stroke="midnightblue" points="241.23,-20.38 249.88,-14.26 239.3,-13.65 241.23,-20.38"/>
</g>
<!-- Node16 -->
<g id="node16" class="node">
<title>Node16</title>
<g id="a_node16"><a xlink:href="group__NTS.html#gae526d64d204c4ad86d5383b82df63eaf" target="_top" xlink:title="Print a socket pair association.">
<polygon fill="none" stroke="black" points="253,-228.5 253,-247.5 333,-247.5 333,-228.5 253,-228.5"/>
<text text-anchor="middle" x="293" y="-235.5" font-family="Helvetica,sans-Serif" font-size="10.00">printSockPair</text>
</a>
</g>
</g>
<!-- Node12&#45;&gt;Node16 -->
<g id="edge18" class="edge">
<title>Node12&#45;&gt;Node16</title>
<path fill="none" stroke="midnightblue" d="M156.02,-171.59C168.51,-184.32 192.35,-206.61 217,-219 225.02,-223.03 233.97,-226.25 242.81,-228.81"/>
<polygon fill="midnightblue" stroke="midnightblue" points="242.13,-232.25 252.69,-231.43 243.92,-225.49 242.13,-232.25"/>
</g>
<!-- Node17 -->
<g id="node17" class="node">
<title>Node17</title>
<g id="a_node17"><a xlink:href="classAxisRaw.html#ae8f59ce9fd52536106de4db99df4558e" target="_top" xlink:title=" ">
<polygon fill="none" stroke="black" points="230.5,-190.5 230.5,-209.5 355.5,-209.5 355.5,-190.5 230.5,-190.5"/>
<text text-anchor="middle" x="293" y="-197.5" font-family="Helvetica,sans-Serif" font-size="10.00">AxisRaw::setLE_TKeep</text>
</a>
</g>
</g>
<!-- Node12&#45;&gt;Node17 -->
<g id="edge19" class="edge">
<title>Node12&#45;&gt;Node17</title>
<path fill="none" stroke="midnightblue" d="M181.15,-171.39C192.54,-174.49 205.31,-177.93 217,-181 225.68,-183.28 234.95,-185.66 243.89,-187.94"/>
<polygon fill="midnightblue" stroke="midnightblue" points="243.26,-191.39 253.81,-190.46 244.98,-184.61 243.26,-191.39"/>
</g>
<!-- Node18 -->
<g id="node18" class="node">
<title>Node18</title>
<g id="a_node18"><a xlink:href="classAxisRaw.html#a7fd855df91177afa363d72b3eb17af25" target="_top" xlink:title=" ">
<polygon fill="none" stroke="black" points="232,-152.5 232,-171.5 354,-171.5 354,-152.5 232,-152.5"/>
<text text-anchor="middle" x="293" y="-159.5" font-family="Helvetica,sans-Serif" font-size="10.00">AxisRaw::setLE_TLast</text>
</a>
</g>
</g>
<!-- Node12&#45;&gt;Node18 -->
<g id="edge20" class="edge">
<title>Node12&#45;&gt;Node18</title>
<path fill="none" stroke="midnightblue" d="M181.36,-162C193.49,-162 207.61,-162 221.63,-162"/>
<polygon fill="midnightblue" stroke="midnightblue" points="221.79,-165.5 231.79,-162 221.79,-158.5 221.79,-165.5"/>
</g>
<!-- Node19 -->
<g id="node19" class="node">
<title>Node19</title>
<g id="a_node19"><a xlink:href="classAxisRaw.html#acfbcd3fa29b19fdf650e915a01542432" target="_top" xlink:title=" ">
<polygon fill="none" stroke="black" points="239,-114.5 239,-133.5 347,-133.5 347,-114.5 239,-114.5"/>
<text text-anchor="middle" x="293" y="-121.5" font-family="Helvetica,sans-Serif" font-size="10.00">AxisRaw::setTData</text>
</a>
</g>
</g>
<!-- Node12&#45;&gt;Node19 -->
<g id="edge21" class="edge">
<title>Node12&#45;&gt;Node19</title>
<path fill="none" stroke="midnightblue" d="M181.15,-152.61C192.54,-149.51 205.31,-146.07 217,-143 225.68,-140.72 234.95,-138.34 243.89,-136.06"/>
<polygon fill="midnightblue" stroke="midnightblue" points="244.98,-139.39 253.81,-133.54 243.26,-132.61 244.98,-139.39"/>
</g>
</g>
</svg>
