<?xml version="1.0" encoding="UTF-8" standalone="no"?>
<!DOCTYPE svg PUBLIC "-//W3C//DTD SVG 1.1//EN"
 "http://www.w3.org/Graphics/SVG/1.1/DTD/svg11.dtd">
<!-- Generated by graphviz version 2.43.0 (0)
 -->
<!-- Title: main Pages: 1 -->
<svg width="249pt" height="180pt"
 viewBox="0.00 0.00 249.00 180.00" xmlns="http://www.w3.org/2000/svg" xmlns:xlink="http://www.w3.org/1999/xlink">
<g id="graph0" class="graph" transform="scale(1 1) rotate(0) translate(4 176)">
<title>main</title>
<!-- Node1 -->
<g id="node1" class="node">
<title>Node1</title>
<g id="a_node1"><a xlink:title=" ">
<polygon fill="#bfbfbf" stroke="black" points="0,-76.5 0,-95.5 41,-95.5 41,-76.5 0,-76.5"/>
<text text-anchor="middle" x="20.5" y="-83.5" font-family="Helvetica,sans-Serif" font-size="10.00">main</text>
</a>
</g>
</g>
<!-- Node2 -->
<g id="node2" class="node">
<title>Node2</title>
<g id="a_node2"><a xlink:href="group__Memtest.html#ga7f7a00c22156734fa2b1ae7a693ae946" target="_top" xlink:title="Convert a ascii string to a hexadecimal string.">
<polygon fill="none" stroke="black" points="106,-152.5 106,-171.5 212,-171.5 212,-152.5 106,-152.5"/>
<text text-anchor="middle" x="159" y="-159.5" font-family="Helvetica,sans-Serif" font-size="10.00">ascii2hexWithSize</text>
</a>
</g>
</g>
<!-- Node1&#45;&gt;Node2 -->
<g id="edge1" class="edge">
<title>Node1&#45;&gt;Node2</title>
<path fill="none" stroke="midnightblue" d="M28.17,-95.72C37.54,-108.58 55.84,-131.04 77,-143 82.91,-146.34 89.39,-149.1 96.02,-151.37"/>
<polygon fill="midnightblue" stroke="midnightblue" points="95.21,-154.78 105.8,-154.37 97.26,-148.09 95.21,-154.78"/>
</g>
<!-- Node3 -->
<g id="node3" class="node">
<title>Node3</title>
<g id="a_node3"><a xlink:href="namespacevar_1_1common.html#a0e8c2a1201adedb395a7e08410568717" target="_top" xlink:title=" ">
<polygon fill="none" stroke="black" points="106,-114.5 106,-133.5 212,-133.5 212,-114.5 106,-114.5"/>
<text text-anchor="middle" x="159" y="-121.5" font-family="Helvetica,sans-Serif" font-size="10.00">var.common.clock</text>
</a>
</g>
</g>
<!-- Node1&#45;&gt;Node3 -->
<g id="edge2" class="edge">
<title>Node1&#45;&gt;Node3</title>
<path fill="none" stroke="midnightblue" d="M41.13,-93.25C51.68,-97.02 64.96,-101.54 77,-105 85.57,-107.47 94.72,-109.85 103.67,-112.04"/>
<polygon fill="midnightblue" stroke="midnightblue" points="103.11,-115.51 113.65,-114.44 104.75,-108.7 103.11,-115.51"/>
</g>
<!-- Node4 -->
<g id="node4" class="node">
<title>Node4</title>
<g id="a_node4"><a xlink:href="group__Memtest.html#ga99f8a2336b4fd23920c4370ec843b5c9" target="_top" xlink:title=" ">
<polygon fill="none" stroke="black" points="77,-76.5 77,-95.5 241,-95.5 241,-76.5 77,-76.5"/>
<text text-anchor="middle" x="159" y="-83.5" font-family="Helvetica,sans-Serif" font-size="10.00">createMemTestStopCommand</text>
</a>
</g>
</g>
<!-- Node1&#45;&gt;Node4 -->
<g id="edge3" class="edge">
<title>Node1&#45;&gt;Node4</title>
<path fill="none" stroke="midnightblue" d="M41.06,-86C48.33,-86 57.15,-86 66.65,-86"/>
<polygon fill="midnightblue" stroke="midnightblue" points="66.75,-89.5 76.75,-86 66.75,-82.5 66.75,-89.5"/>
</g>
<!-- Node5 -->
<g id="node5" class="node">
<title>Node5</title>
<g id="a_node5"><a xlink:href="group__Memtest.html#gad7d7861fdcc6bc3da92d6e28c3649a85" target="_top" xlink:title=" ">
<polygon fill="none" stroke="black" points="112,-38.5 112,-57.5 206,-57.5 206,-38.5 112,-38.5"/>
<text text-anchor="middle" x="159" y="-45.5" font-family="Helvetica,sans-Serif" font-size="10.00">findCharNullPos</text>
</a>
</g>
</g>
<!-- Node1&#45;&gt;Node5 -->
<g id="edge4" class="edge">
<title>Node1&#45;&gt;Node5</title>
<path fill="none" stroke="midnightblue" d="M41.13,-78.75C51.68,-74.98 64.96,-70.46 77,-67 85.57,-64.53 94.72,-62.15 103.67,-59.96"/>
<polygon fill="midnightblue" stroke="midnightblue" points="104.75,-63.3 113.65,-57.56 103.11,-56.49 104.75,-63.3"/>
</g>
<!-- Node6 -->
<g id="node6" class="node">
<title>Node6</title>
<g id="a_node6"><a xlink:href="group__Memtest.html#ga553dc49f84a0874f09d55f9e84fb31d2" target="_top" xlink:title="print the binary representation of a target pointer buffer of a given size. Assumes little endian.">
<polygon fill="none" stroke="black" points="130,-0.5 130,-19.5 188,-19.5 188,-0.5 130,-0.5"/>
<text text-anchor="middle" x="159" y="-7.5" font-family="Helvetica,sans-Serif" font-size="10.00">printBits</text>
</a>
</g>
</g>
<!-- Node1&#45;&gt;Node6 -->
<g id="edge5" class="edge">
<title>Node1&#45;&gt;Node6</title>
<path fill="none" stroke="midnightblue" d="M28.17,-76.28C37.54,-63.42 55.84,-40.96 77,-29 90.05,-21.62 105.84,-17.1 119.99,-14.34"/>
<polygon fill="midnightblue" stroke="midnightblue" points="120.69,-17.77 129.95,-12.62 119.5,-10.87 120.69,-17.77"/>
</g>
</g>
</svg>
