<?xml version="1.0" encoding="UTF-8" standalone="no"?>
<!DOCTYPE svg PUBLIC "-//W3C//DTD SVG 1.1//EN"
 "http://www.w3.org/Graphics/SVG/1.1/DTD/svg11.dtd">
<!-- Generated by graphviz version 2.43.0 (0)
 -->
<!-- Title: main Pages: 1 -->
<svg width="740pt" height="678pt"
 viewBox="0.00 0.00 740.00 678.50" xmlns="http://www.w3.org/2000/svg" xmlns:xlink="http://www.w3.org/1999/xlink">
<g id="graph0" class="graph" transform="scale(1 1) rotate(0) translate(4 674.5)">
<title>main</title>
<!-- Node1 -->
<g id="node1" class="node">
<title>Node1</title>
<g id="a_node1"><a xlink:title="Main testbench of Hrris.">
<polygon fill="#bfbfbf" stroke="black" points="0,-266.5 0,-285.5 41,-285.5 41,-266.5 0,-266.5"/>
<text text-anchor="middle" x="20.5" y="-273.5" font-family="Helvetica,sans-Serif" font-size="10.00">main</text>
</a>
</g>
</g>
<!-- Node2 -->
<g id="node2" class="node">
<title>Node2</title>
<g id="a_node2"><a xlink:href="group__VitisVision.html#ga48cfbcafe76452fc9d6c49a6ca07624c" target="_top" xlink:title="Fill an output file with data from an image.">
<polygon fill="none" stroke="black" points="94,-570.5 94,-589.5 185,-589.5 185,-570.5 94,-570.5"/>
<text text-anchor="middle" x="139.5" y="-577.5" font-family="Helvetica,sans-Serif" font-size="10.00">dumpImgToFile</text>
</a>
</g>
</g>
<!-- Node1&#45;&gt;Node2 -->
<g id="edge1" class="edge">
<title>Node1&#45;&gt;Node2</title>
<path fill="none" stroke="midnightblue" d="M22.08,-285.67C24.95,-330.63 39.11,-518.81 77,-561 79.28,-563.54 81.89,-565.74 84.71,-567.65"/>
<polygon fill="midnightblue" stroke="midnightblue" points="83.28,-570.85 93.74,-572.55 86.62,-564.7 83.28,-570.85"/>
</g>
<!-- Node3 -->
<g id="node3" class="node">
<title>Node3</title>
<g id="a_node3"><a xlink:href="group__NAL.html#gaf9e0eed561df3f2066eefef642f250d0" target="_top" xlink:title="Fill an output file with data from an output stream.">
<polygon fill="none" stroke="black" points="77.5,-532.5 77.5,-551.5 201.5,-551.5 201.5,-532.5 77.5,-532.5"/>
<text text-anchor="middle" x="139.5" y="-539.5" font-family="Helvetica,sans-Serif" font-size="10.00">getOutputDataStream</text>
</a>
</g>
</g>
<!-- Node1&#45;&gt;Node3 -->
<g id="edge2" class="edge">
<title>Node1&#45;&gt;Node3</title>
<path fill="none" stroke="midnightblue" d="M22.36,-285.6C25.45,-316.03 37.92,-412.29 77,-480 87.42,-498.05 104.38,-514.59 117.86,-526.04"/>
<polygon fill="midnightblue" stroke="midnightblue" points="115.75,-528.85 125.71,-532.48 120.19,-523.43 115.75,-528.85"/>
</g>
<!-- Node13 -->
<g id="node13" class="node">
<title>Node13</title>
<g id="a_node13"><a xlink:href="group__MedianBlur.html#ga269daed8bf1621fbfd1132e947d4040d" target="_top" xlink:title="Top&#45;level accelerated function of the MedianBlur Application with array I/F.">
<polygon fill="none" stroke="black" points="77,-418.5 77,-437.5 202,-437.5 202,-418.5 77,-418.5"/>
<text text-anchor="middle" x="139.5" y="-425.5" font-family="Helvetica,sans-Serif" font-size="10.00">medianBlurAccelArray</text>
</a>
</g>
</g>
<!-- Node1&#45;&gt;Node13 -->
<g id="edge15" class="edge">
<title>Node1&#45;&gt;Node13</title>
<path fill="none" stroke="midnightblue" d="M22.71,-285.63C26.29,-309.97 39.04,-374.51 77,-409 78.75,-410.59 80.62,-412.04 82.6,-413.38"/>
<polygon fill="midnightblue" stroke="midnightblue" points="81.33,-416.68 91.77,-418.48 84.74,-410.56 81.33,-416.68"/>
</g>
<!-- Node14 -->
<g id="node14" class="node">
<title>Node14</title>
<g id="a_node14"><a xlink:href="group__GammacorrectionTB.html#ga51e78292d5f0884fd708eb6a0abab07c" target="_top" xlink:title=" ">
<polygon fill="none" stroke="black" points="113,-380.5 113,-399.5 166,-399.5 166,-380.5 113,-380.5"/>
<text text-anchor="middle" x="139.5" y="-387.5" font-family="Helvetica,sans-Serif" font-size="10.00">ocv_ref</text>
</a>
</g>
</g>
<!-- Node1&#45;&gt;Node14 -->
<g id="edge16" class="edge">
<title>Node1&#45;&gt;Node14</title>
<path fill="none" stroke="midnightblue" d="M24.48,-285.67C30.89,-304.84 47.82,-347.84 77,-371 84.52,-376.97 93.92,-381.07 103.09,-383.89"/>
<polygon fill="midnightblue" stroke="midnightblue" points="102.29,-387.3 112.85,-386.47 104.08,-380.53 102.29,-387.3"/>
</g>
<!-- Node19 -->
<g id="node19" class="node">
<title>Node19</title>
<g id="a_node19"><a xlink:href="group__NAL.html#ga003bb1ba6dbd173c93b519ed3f899959" target="_top" xlink:title="Initialize an input data stream from a file.">
<polygon fill="none" stroke="black" points="253,-456.5 253,-475.5 368,-475.5 368,-456.5 253,-456.5"/>
<text text-anchor="middle" x="310.5" y="-463.5" font-family="Helvetica,sans-Serif" font-size="10.00">setInputDataStream</text>
</a>
</g>
</g>
<!-- Node1&#45;&gt;Node19 -->
<g id="edge21" class="edge">
<title>Node1&#45;&gt;Node19</title>
<path fill="none" stroke="midnightblue" d="M21.26,-285.78C21.1,-315.62 25.1,-405.95 77,-447 127.47,-486.93 204.87,-484.61 256.32,-477.1"/>
<polygon fill="midnightblue" stroke="midnightblue" points="256.91,-480.55 266.24,-475.55 255.82,-473.64 256.91,-480.55"/>
</g>
<!-- Node24 -->
<g id="node24" class="node">
<title>Node24</title>
<g id="a_node24"><a xlink:href="group__VitisVision.html#gaa36b83f82599b6b61d585c8df3245502" target="_top" xlink:title="Initialize an input array from a file with format &quot;tdata tkeep tlast&quot;.">
<polygon fill="none" stroke="black" points="84.5,-342.5 84.5,-361.5 194.5,-361.5 194.5,-342.5 84.5,-342.5"/>
<text text-anchor="middle" x="139.5" y="-349.5" font-family="Helvetica,sans-Serif" font-size="10.00">setInputFileToArray</text>
</a>
</g>
</g>
<!-- Node1&#45;&gt;Node24 -->
<g id="edge29" class="edge">
<title>Node1&#45;&gt;Node24</title>
<path fill="none" stroke="midnightblue" d="M29.65,-285.61C39.77,-297.03 58.01,-316.03 77,-328 83.4,-332.03 90.59,-335.58 97.73,-338.63"/>
<polygon fill="midnightblue" stroke="midnightblue" points="96.78,-342.02 107.37,-342.47 99.37,-335.52 96.78,-342.02"/>
</g>
<!-- Node25 -->
<g id="node25" class="node">
<title>Node25</title>
<g id="a_node25"><a xlink:href="group__SobelTB.html#ga1bd90367e11713ef24b45044d439bd4f" target="_top" xlink:title=" ">
<polygon fill="none" stroke="black" points="273,-304.5 273,-323.5 348,-323.5 348,-304.5 273,-304.5"/>
<text text-anchor="middle" x="310.5" y="-311.5" font-family="Helvetica,sans-Serif" font-size="10.00">siUdp_meta</text>
</a>
</g>
</g>
<!-- Node1&#45;&gt;Node25 -->
<g id="edge30" class="edge">
<title>Node1&#45;&gt;Node25</title>
<path fill="none" stroke="midnightblue" d="M41.13,-281.69C51.68,-284.56 64.96,-287.87 77,-290 140.71,-301.26 215.25,-307.81 262.41,-311.14"/>
<polygon fill="midnightblue" stroke="midnightblue" points="262.41,-314.65 272.63,-311.84 262.89,-307.66 262.41,-314.65"/>
</g>
<!-- Node26 -->
<g id="node26" class="node">
<title>Node26</title>
<g id="a_node26"><a xlink:href="group__Sobel.html#gafb81b8af3dd40a0bba2628ce26901cae" target="_top" xlink:title=" ">
<polygon fill="none" stroke="black" points="102.5,-0.5 102.5,-19.5 176.5,-19.5 176.5,-0.5 102.5,-0.5"/>
<text text-anchor="middle" x="139.5" y="-7.5" font-family="Helvetica,sans-Serif" font-size="10.00">sobel_accel</text>
</a>
</g>
</g>
<!-- Node1&#45;&gt;Node26 -->
<g id="edge31" class="edge">
<title>Node1&#45;&gt;Node26</title>
<path fill="none" stroke="midnightblue" d="M22.52,-266.24C26.96,-225.61 45.74,-70.22 77,-34 81.43,-28.87 87.09,-24.83 93.18,-21.65"/>
<polygon fill="midnightblue" stroke="midnightblue" points="94.61,-24.84 102.32,-17.58 91.76,-18.45 94.61,-24.84"/>
</g>
<!-- Node27 -->
<g id="node27" class="node">
<title>Node27</title>
<g id="a_node27"><a xlink:href="group__SobelTB.html#ga3d0879e41b3498ec3683524c4380fbca" target="_top" xlink:title=" ">
<polygon fill="none" stroke="black" points="271.5,-266.5 271.5,-285.5 349.5,-285.5 349.5,-266.5 271.5,-266.5"/>
<text text-anchor="middle" x="310.5" y="-273.5" font-family="Helvetica,sans-Serif" font-size="10.00">soUdp_meta</text>
</a>
</g>
</g>
<!-- Node1&#45;&gt;Node27 -->
<g id="edge32" class="edge">
<title>Node1&#45;&gt;Node27</title>
<path fill="none" stroke="midnightblue" d="M41.3,-276C86.2,-276 196.85,-276 261.13,-276"/>
<polygon fill="midnightblue" stroke="midnightblue" points="261.41,-279.5 271.41,-276 261.41,-272.5 261.41,-279.5"/>
</g>
<!-- Node28 -->
<g id="node28" class="node">
<title>Node28</title>
<g id="a_node28"><a xlink:href="group__SobelTB.html#ga8a91d08b41f63ada548b50fc96fe9f96" target="_top" xlink:title=" ">
<polygon fill="none" stroke="black" points="238,-228.5 238,-247.5 383,-247.5 383,-228.5 238,-228.5"/>
<text text-anchor="middle" x="310.5" y="-235.5" font-family="Helvetica,sans-Serif" font-size="10.00">sROL_Shl_Mem_WrCmdP0</text>
</a>
</g>
</g>
<!-- Node1&#45;&gt;Node28 -->
<g id="edge33" class="edge">
<title>Node1&#45;&gt;Node28</title>
<path fill="none" stroke="midnightblue" d="M41.3,-273.39C79.11,-268.4 163.57,-257.25 227.68,-248.8"/>
<polygon fill="midnightblue" stroke="midnightblue" points="228.33,-252.24 237.78,-247.46 227.41,-245.3 228.33,-252.24"/>
</g>
<!-- Node29 -->
<g id="node29" class="node">
<title>Node29</title>
<g id="a_node29"><a xlink:href="group__SobelTB.html#ga58a07924671463ff5a1942de04237ed8" target="_top" xlink:title=" ">
<polygon fill="none" stroke="black" points="243,-152.5 243,-171.5 378,-171.5 378,-152.5 243,-152.5"/>
<text text-anchor="middle" x="310.5" y="-159.5" font-family="Helvetica,sans-Serif" font-size="10.00">sROL_Shl_Mem_WriteP0</text>
</a>
</g>
</g>
<!-- Node1&#45;&gt;Node29 -->
<g id="edge34" class="edge">
<title>Node1&#45;&gt;Node29</title>
<path fill="none" stroke="midnightblue" d="M23.91,-266.38C29.46,-246.5 45.15,-201.05 77,-181 125.16,-150.69 190.49,-147.92 239.64,-151.6"/>
<polygon fill="midnightblue" stroke="midnightblue" points="239.61,-155.11 249.87,-152.48 240.2,-148.14 239.61,-155.11"/>
</g>
<!-- Node30 -->
<g id="node30" class="node">
<title>Node30</title>
<g id="a_node30"><a xlink:href="group__SobelTB.html#gae20cf33eedc99be1153c93100d484642" target="_top" xlink:title=" ">
<polygon fill="none" stroke="black" points="242,-114.5 242,-133.5 379,-133.5 379,-114.5 242,-114.5"/>
<text text-anchor="middle" x="310.5" y="-121.5" font-family="Helvetica,sans-Serif" font-size="10.00">sSHL_Rol_Mem_WrStsP0</text>
</a>
</g>
</g>
<!-- Node1&#45;&gt;Node30 -->
<g id="edge35" class="edge">
<title>Node1&#45;&gt;Node30</title>
<path fill="none" stroke="midnightblue" d="M22.35,-266.47C25.12,-241.82 36.18,-175.82 77,-146 125.09,-110.88 194.53,-108.81 245,-113.44"/>
<polygon fill="midnightblue" stroke="midnightblue" points="244.84,-116.94 255.14,-114.48 245.55,-109.98 244.84,-116.94"/>
</g>
<!-- Node31 -->
<g id="node31" class="node">
<title>Node31</title>
<g id="a_node31"><a xlink:href="group__SobelTB.html#gae01425342f3c967f16486d71040bab38" target="_top" xlink:title=" ">
<polygon fill="none" stroke="black" points="264.5,-76.5 264.5,-95.5 356.5,-95.5 356.5,-76.5 264.5,-76.5"/>
<text text-anchor="middle" x="310.5" y="-83.5" font-family="Helvetica,sans-Serif" font-size="10.00">sSHL_Uaf_Data</text>
</a>
</g>
</g>
<!-- Node1&#45;&gt;Node31 -->
<g id="edge36" class="edge">
<title>Node1&#45;&gt;Node31</title>
<path fill="none" stroke="midnightblue" d="M21.31,-266.35C21.32,-236.91 25.76,-147.75 77,-107 126.81,-67.39 203,-68.47 254.46,-75.23"/>
<polygon fill="midnightblue" stroke="midnightblue" points="254.01,-78.7 264.4,-76.65 255,-71.77 254.01,-78.7"/>
</g>
<!-- Node32 -->
<g id="node32" class="node">
<title>Node32</title>
<g id="a_node32"><a xlink:href="group__SobelTB.html#gad0919afcfb3151dee3f8653944ea7185" target="_top" xlink:title="Run a single iteration of the DUT model.">
<polygon fill="none" stroke="black" points="112,-190.5 112,-209.5 167,-209.5 167,-190.5 112,-190.5"/>
<text text-anchor="middle" x="139.5" y="-197.5" font-family="Helvetica,sans-Serif" font-size="10.00">stepDut</text>
</a>
</g>
</g>
<!-- Node1&#45;&gt;Node32 -->
<g id="edge37" class="edge">
<title>Node1&#45;&gt;Node32</title>
<path fill="none" stroke="midnightblue" d="M29.65,-266.39C39.77,-254.97 58.01,-235.97 77,-224 84.75,-219.12 93.65,-214.94 102.24,-211.51"/>
<polygon fill="midnightblue" stroke="midnightblue" points="103.58,-214.74 111.71,-207.95 101.12,-208.19 103.58,-214.74"/>
</g>
<!-- Node41 -->
<g id="node41" class="node">
<title>Node41</title>
<g id="a_node41"><a xlink:href="group__SobelTB.html#ga8b8509e7c91f567d4ad11ff426aabb7f" target="_top" xlink:title=" ">
<polygon fill="none" stroke="black" points="265,-38.5 265,-57.5 356,-57.5 356,-38.5 265,-38.5"/>
<text text-anchor="middle" x="310.5" y="-45.5" font-family="Helvetica,sans-Serif" font-size="10.00">sUAF_Shl_Data</text>
</a>
</g>
</g>
<!-- Node1&#45;&gt;Node41 -->
<g id="edge53" class="edge">
<title>Node1&#45;&gt;Node41</title>
<path fill="none" stroke="midnightblue" d="M22.62,-266.38C27.15,-229.04 45.5,-94.42 77,-68 126.76,-26.26 205.38,-28.96 257.19,-36.8"/>
<polygon fill="midnightblue" stroke="midnightblue" points="256.75,-40.27 267.18,-38.43 257.87,-33.36 256.75,-40.27"/>
</g>
<!-- Node4 -->
<g id="node4" class="node">
<title>Node4</title>
<g id="a_node4"><a xlink:href="group__NAL.html#ga67785887c17c5aa83fd0fb9ec80da92f" target="_top" xlink:title="Dump a data word to a file.">
<polygon fill="none" stroke="black" points="263,-608.5 263,-627.5 358,-627.5 358,-608.5 263,-608.5"/>
<text text-anchor="middle" x="310.5" y="-615.5" font-family="Helvetica,sans-Serif" font-size="10.00">dumpDataToFile</text>
</a>
</g>
</g>
<!-- Node3&#45;&gt;Node4 -->
<g id="edge3" class="edge">
<title>Node3&#45;&gt;Node4</title>
<path fill="none" stroke="midnightblue" d="M181.82,-551.54C188.83,-554.05 195.83,-557.17 202,-561 221.76,-573.28 218,-587.12 238,-599 242.76,-601.83 247.95,-604.24 253.28,-606.3"/>
<polygon fill="midnightblue" stroke="midnightblue" points="252.38,-609.7 262.98,-609.64 254.66,-603.08 252.38,-609.7"/>
</g>
<!-- Node5 -->
<g id="node5" class="node">
<title>Node5</title>
<g id="a_node5"><a xlink:href="classAxisRaw.html#a208a8bf67decab3e92139c8afc9aa149" target="_top" xlink:title=" ">
<polygon fill="none" stroke="black" points="427,-646.5 427,-665.5 536,-665.5 536,-646.5 427,-646.5"/>
<text text-anchor="middle" x="481.5" y="-653.5" font-family="Helvetica,sans-Serif" font-size="10.00">AxisRaw::getTData</text>
</a>
</g>
</g>
<!-- Node3&#45;&gt;Node5 -->
<g id="edge11" class="edge">
<title>Node3&#45;&gt;Node5</title>
<path fill="none" stroke="midnightblue" d="M186.74,-551.58C192.27,-554.03 197.52,-557.12 202,-561 230.25,-585.48 207.22,-615.79 238,-637 291.63,-673.95 368.65,-673.28 421.41,-666.9"/>
<polygon fill="midnightblue" stroke="midnightblue" points="422.17,-670.33 431.63,-665.56 421.26,-663.39 422.17,-670.33"/>
</g>
<!-- Node6 -->
<g id="node6" class="node">
<title>Node6</title>
<g id="a_node6"><a xlink:href="classAxisRaw.html#acb10d569e10f95bdd0be0af34ce605bd" target="_top" xlink:title=" ">
<polygon fill="none" stroke="black" points="426.5,-570.5 426.5,-589.5 536.5,-589.5 536.5,-570.5 426.5,-570.5"/>
<text text-anchor="middle" x="481.5" y="-577.5" font-family="Helvetica,sans-Serif" font-size="10.00">AxisRaw::getTKeep</text>
</a>
</g>
</g>
<!-- Node3&#45;&gt;Node6 -->
<g id="edge12" class="edge">
<title>Node3&#45;&gt;Node6</title>
<path fill="none" stroke="midnightblue" d="M201.75,-544.86C250.9,-547.62 321.59,-552.64 383,-561 397.3,-562.95 412.67,-565.65 426.88,-568.41"/>
<polygon fill="midnightblue" stroke="midnightblue" points="426.5,-571.9 437,-570.42 427.87,-565.04 426.5,-571.9"/>
</g>
<!-- Node7 -->
<g id="node7" class="node">
<title>Node7</title>
<g id="a_node7"><a xlink:href="classAxisRaw.html#a42cd520c9b19f7c2fc6d2fc204cb30b7" target="_top" xlink:title=" ">
<polygon fill="none" stroke="black" points="428.5,-532.5 428.5,-551.5 534.5,-551.5 534.5,-532.5 428.5,-532.5"/>
<text text-anchor="middle" x="481.5" y="-539.5" font-family="Helvetica,sans-Serif" font-size="10.00">AxisRaw::getTLast</text>
</a>
</g>
</g>
<!-- Node3&#45;&gt;Node7 -->
<g id="edge13" class="edge">
<title>Node3&#45;&gt;Node7</title>
<path fill="none" stroke="midnightblue" d="M197.06,-532.49C210.45,-530.62 224.7,-528.95 238,-528 302.28,-523.41 318.72,-523.41 383,-528 394.41,-528.82 406.52,-530.16 418.18,-531.7"/>
<polygon fill="midnightblue" stroke="midnightblue" points="417.89,-535.2 428.28,-533.1 418.85,-528.26 417.89,-535.2"/>
</g>
<!-- Node12 -->
<g id="node12" class="node">
<title>Node12</title>
<g id="a_node12"><a xlink:href="group__NAL.html#ga4b8680d6345f091fe9bf4c0e0ef4fb13" target="_top" xlink:title="Read data from a stream.">
<polygon fill="none" stroke="black" points="262,-570.5 262,-589.5 359,-589.5 359,-570.5 262,-570.5"/>
<text text-anchor="middle" x="310.5" y="-577.5" font-family="Helvetica,sans-Serif" font-size="10.00">readDataStream</text>
</a>
</g>
</g>
<!-- Node3&#45;&gt;Node12 -->
<g id="edge14" class="edge">
<title>Node3&#45;&gt;Node12</title>
<path fill="none" stroke="midnightblue" d="M183.15,-551.59C205.65,-556.65 233.45,-562.9 257.24,-568.25"/>
<polygon fill="midnightblue" stroke="midnightblue" points="256.64,-571.7 267.16,-570.48 258.17,-564.87 256.64,-571.7"/>
</g>
<!-- Node4&#45;&gt;Node5 -->
<g id="edge4" class="edge">
<title>Node4&#45;&gt;Node5</title>
<path fill="none" stroke="midnightblue" d="M354.15,-627.59C376.65,-632.65 404.45,-638.9 428.24,-644.25"/>
<polygon fill="midnightblue" stroke="midnightblue" points="427.64,-647.7 438.16,-646.48 429.17,-640.87 427.64,-647.7"/>
</g>
<!-- Node4&#45;&gt;Node6 -->
<g id="edge5" class="edge">
<title>Node4&#45;&gt;Node6</title>
<path fill="none" stroke="midnightblue" d="M354.15,-608.41C376.65,-603.35 404.45,-597.1 428.24,-591.75"/>
<polygon fill="midnightblue" stroke="midnightblue" points="429.17,-595.13 438.16,-589.52 427.64,-588.3 429.17,-595.13"/>
</g>
<!-- Node4&#45;&gt;Node7 -->
<g id="edge6" class="edge">
<title>Node4&#45;&gt;Node7</title>
<path fill="none" stroke="midnightblue" d="M358.02,-609.64C366.67,-606.99 375.38,-603.53 383,-599 403,-587.12 399.24,-573.28 419,-561 422.37,-558.9 426,-557.02 429.73,-555.34"/>
<polygon fill="midnightblue" stroke="midnightblue" points="431.21,-558.52 439.18,-551.54 428.6,-552.02 431.21,-558.52"/>
</g>
<!-- Node8 -->
<g id="node8" class="node">
<title>Node8</title>
<g id="a_node8"><a xlink:href="group__UppercaseHLS.html#gae061e0acc4f8984634689d549fdae11b" target="_top" xlink:title="Main process of the Uppercase Application directives.">
<polygon fill="none" stroke="black" points="448,-608.5 448,-627.5 515,-627.5 515,-608.5 448,-608.5"/>
<text text-anchor="middle" x="481.5" y="-615.5" font-family="Helvetica,sans-Serif" font-size="10.00">uppercase</text>
</a>
</g>
</g>
<!-- Node4&#45;&gt;Node8 -->
<g id="edge7" class="edge">
<title>Node4&#45;&gt;Node8</title>
<path fill="none" stroke="midnightblue" d="M358.13,-618C383.09,-618 413.61,-618 437.93,-618"/>
<polygon fill="midnightblue" stroke="midnightblue" points="437.94,-621.5 447.94,-618 437.94,-614.5 437.94,-621.5"/>
</g>
<!-- Node9 -->
<g id="node9" class="node">
<title>Node9</title>
<g id="a_node9"><a xlink:href="group__UppercaseHLS.html#ga033fd36668741325cf3c111416e82131" target="_top" xlink:title="pPortAndDestionation &#45; Setup the port and the destination rank.">
<polygon fill="none" stroke="black" points="594.5,-646.5 594.5,-665.5 717.5,-665.5 717.5,-646.5 594.5,-646.5"/>
<text text-anchor="middle" x="656" y="-653.5" font-family="Helvetica,sans-Serif" font-size="10.00">pPortAndDestionation</text>
</a>
</g>
</g>
<!-- Node8&#45;&gt;Node9 -->
<g id="edge8" class="edge">
<title>Node8&#45;&gt;Node9</title>
<path fill="none" stroke="midnightblue" d="M515.35,-625.24C539.73,-630.61 573.49,-638.04 601.71,-644.26"/>
<polygon fill="midnightblue" stroke="midnightblue" points="601.31,-647.76 611.83,-646.49 602.81,-640.92 601.31,-647.76"/>
</g>
<!-- Node10 -->
<g id="node10" class="node">
<title>Node10</title>
<g id="a_node10"><a xlink:href="group__UppercaseHLS.html#ga5241239d0335747a6f0ee418cbc7d5a9" target="_top" xlink:title="Receive Path &#45; From SHELL to THIS.">
<polygon fill="none" stroke="black" points="627.5,-608.5 627.5,-627.5 684.5,-627.5 684.5,-608.5 627.5,-608.5"/>
<text text-anchor="middle" x="656" y="-615.5" font-family="Helvetica,sans-Serif" font-size="10.00">pRXPath</text>
</a>
</g>
</g>
<!-- Node8&#45;&gt;Node10 -->
<g id="edge9" class="edge">
<title>Node8&#45;&gt;Node10</title>
<path fill="none" stroke="midnightblue" d="M515.35,-618C544.38,-618 586.72,-618 617.16,-618"/>
<polygon fill="midnightblue" stroke="midnightblue" points="617.39,-621.5 627.39,-618 617.39,-614.5 617.39,-621.5"/>
</g>
<!-- Node11 -->
<g id="node11" class="node">
<title>Node11</title>
<g id="a_node11"><a xlink:href="group__UppercaseHLS.html#ga6ac5a71b18876a813d752ff488f94c45" target="_top" xlink:title="Transmit Path &#45; From THIS to SHELL.">
<polygon fill="none" stroke="black" points="628,-570.5 628,-589.5 684,-589.5 684,-570.5 628,-570.5"/>
<text text-anchor="middle" x="656" y="-577.5" font-family="Helvetica,sans-Serif" font-size="10.00">pTXPath</text>
</a>
</g>
</g>
<!-- Node8&#45;&gt;Node11 -->
<g id="edge10" class="edge">
<title>Node8&#45;&gt;Node11</title>
<path fill="none" stroke="midnightblue" d="M515.35,-610.76C544.69,-604.3 587.6,-594.85 618.11,-588.13"/>
<polygon fill="midnightblue" stroke="midnightblue" points="618.93,-591.53 627.94,-585.96 617.42,-584.69 618.93,-591.53"/>
</g>
<!-- Node15 -->
<g id="node15" class="node">
<title>Node15</title>
<g id="a_node15"><a xlink:href="group__GammacorrectionTB.html#ga822ec8fca3f87a6e55a9e5f4795d5c0c" target="_top" xlink:title=" ">
<polygon fill="none" stroke="black" points="248.5,-380.5 248.5,-399.5 372.5,-399.5 372.5,-380.5 248.5,-380.5"/>
<text text-anchor="middle" x="310.5" y="-387.5" font-family="Helvetica,sans-Serif" font-size="10.00">OCVMaxSuppression1</text>
</a>
</g>
</g>
<!-- Node14&#45;&gt;Node15 -->
<g id="edge17" class="edge">
<title>Node14&#45;&gt;Node15</title>
<path fill="none" stroke="midnightblue" d="M166.17,-390C185.41,-390 212.72,-390 238.35,-390"/>
<polygon fill="midnightblue" stroke="midnightblue" points="238.45,-393.5 248.45,-390 238.45,-386.5 238.45,-393.5"/>
</g>
<!-- Node17 -->
<g id="node17" class="node">
<title>Node17</title>
<g id="a_node17"><a xlink:href="group__GammacorrectionTB.html#ga4be9749f424865cefe7a2ba10c8d8450" target="_top" xlink:title=" ">
<polygon fill="none" stroke="black" points="248.5,-342.5 248.5,-361.5 372.5,-361.5 372.5,-342.5 248.5,-342.5"/>
<text text-anchor="middle" x="310.5" y="-349.5" font-family="Helvetica,sans-Serif" font-size="10.00">OCVMaxSuppression2</text>
</a>
</g>
</g>
<!-- Node14&#45;&gt;Node17 -->
<g id="edge19" class="edge">
<title>Node14&#45;&gt;Node17</title>
<path fill="none" stroke="midnightblue" d="M166.17,-384.23C190.23,-378.82 226.92,-370.57 257.15,-363.77"/>
<polygon fill="midnightblue" stroke="midnightblue" points="258.14,-367.14 267.13,-361.53 256.61,-360.31 258.14,-367.14"/>
</g>
<!-- Node16 -->
<g id="node16" class="node">
<title>Node16</title>
<g id="a_node16"><a xlink:href="group__GammacorrectionTB.html#ga5f1e7f9c115d3f6aa0fa47cfdb4783b2" target="_top" xlink:title=" ">
<polygon fill="none" stroke="black" points="425,-380.5 425,-399.5 538,-399.5 538,-380.5 425,-380.5"/>
<text text-anchor="middle" x="481.5" y="-387.5" font-family="Helvetica,sans-Serif" font-size="10.00">OCVFindMaximum1</text>
</a>
</g>
</g>
<!-- Node15&#45;&gt;Node16 -->
<g id="edge18" class="edge">
<title>Node15&#45;&gt;Node16</title>
<path fill="none" stroke="midnightblue" d="M372.51,-390C386.28,-390 400.96,-390 414.91,-390"/>
<polygon fill="midnightblue" stroke="midnightblue" points="414.91,-393.5 424.91,-390 414.91,-386.5 414.91,-393.5"/>
</g>
<!-- Node18 -->
<g id="node18" class="node">
<title>Node18</title>
<g id="a_node18"><a xlink:href="group__GammacorrectionTB.html#ga3c33190c70546d42870e2be3f91ff7c4" target="_top" xlink:title=" ">
<polygon fill="none" stroke="black" points="425,-342.5 425,-361.5 538,-361.5 538,-342.5 425,-342.5"/>
<text text-anchor="middle" x="481.5" y="-349.5" font-family="Helvetica,sans-Serif" font-size="10.00">OCVFindMaximum2</text>
</a>
</g>
</g>
<!-- Node17&#45;&gt;Node18 -->
<g id="edge20" class="edge">
<title>Node17&#45;&gt;Node18</title>
<path fill="none" stroke="midnightblue" d="M372.51,-352C386.28,-352 400.96,-352 414.91,-352"/>
<polygon fill="midnightblue" stroke="midnightblue" points="414.91,-355.5 424.91,-352 414.91,-348.5 414.91,-355.5"/>
</g>
<!-- Node19&#45;&gt;Node5 -->
<g id="edge22" class="edge">
<title>Node19&#45;&gt;Node5</title>
<path fill="none" stroke="midnightblue" d="M319.7,-475.52C333.77,-492.12 362.92,-527.79 383,-561 402.34,-592.98 390.75,-612.52 419,-637 420.96,-638.7 423.07,-640.24 425.28,-641.65"/>
<polygon fill="midnightblue" stroke="midnightblue" points="423.79,-644.82 434.26,-646.42 427.07,-638.64 423.79,-644.82"/>
</g>
<!-- Node19&#45;&gt;Node6 -->
<g id="edge23" class="edge">
<title>Node19&#45;&gt;Node6</title>
<path fill="none" stroke="midnightblue" d="M322.73,-475.57C336.88,-487.67 361.91,-509.19 383,-528 399.2,-542.44 400.17,-550.2 419,-561 422.71,-563.13 426.68,-565.04 430.76,-566.76"/>
<polygon fill="midnightblue" stroke="midnightblue" points="429.79,-570.14 440.38,-570.43 432.28,-563.6 429.79,-570.14"/>
</g>
<!-- Node19&#45;&gt;Node7 -->
<g id="edge24" class="edge">
<title>Node19&#45;&gt;Node7</title>
<path fill="none" stroke="midnightblue" d="M349.53,-475.51C360.74,-479.16 372.74,-483.95 383,-490 401.7,-501.03 400.17,-512.2 419,-523 422.71,-525.13 426.68,-527.04 430.76,-528.76"/>
<polygon fill="midnightblue" stroke="midnightblue" points="429.79,-532.14 440.38,-532.43 432.28,-525.6 429.79,-532.14"/>
</g>
<!-- Node20 -->
<g id="node20" class="node">
<title>Node20</title>
<g id="a_node20"><a xlink:href="classAxisRaw.html#acfbcd3fa29b19fdf650e915a01542432" target="_top" xlink:title=" ">
<polygon fill="none" stroke="black" points="427.5,-418.5 427.5,-437.5 535.5,-437.5 535.5,-418.5 427.5,-418.5"/>
<text text-anchor="middle" x="481.5" y="-425.5" font-family="Helvetica,sans-Serif" font-size="10.00">AxisRaw::setTData</text>
</a>
</g>
</g>
<!-- Node19&#45;&gt;Node20 -->
<g id="edge25" class="edge">
<title>Node19&#45;&gt;Node20</title>
<path fill="none" stroke="midnightblue" d="M354.15,-456.41C376.65,-451.35 404.45,-445.1 428.24,-439.75"/>
<polygon fill="midnightblue" stroke="midnightblue" points="429.17,-443.13 438.16,-437.52 427.64,-436.3 429.17,-443.13"/>
</g>
<!-- Node21 -->
<g id="node21" class="node">
<title>Node21</title>
<g id="a_node21"><a xlink:href="classAxisRaw.html#aa856c8e559a50d2e7bbdbbfd51b76ba9" target="_top" xlink:title=" ">
<polygon fill="none" stroke="black" points="427,-494.5 427,-513.5 536,-513.5 536,-494.5 427,-494.5"/>
<text text-anchor="middle" x="481.5" y="-501.5" font-family="Helvetica,sans-Serif" font-size="10.00">AxisRaw::setTKeep</text>
</a>
</g>
</g>
<!-- Node19&#45;&gt;Node21 -->
<g id="edge26" class="edge">
<title>Node19&#45;&gt;Node21</title>
<path fill="none" stroke="midnightblue" d="M354.15,-475.59C376.65,-480.65 404.45,-486.9 428.24,-492.25"/>
<polygon fill="midnightblue" stroke="midnightblue" points="427.64,-495.7 438.16,-494.48 429.17,-488.87 427.64,-495.7"/>
</g>
<!-- Node22 -->
<g id="node22" class="node">
<title>Node22</title>
<g id="a_node22"><a xlink:href="classAxisRaw.html#a1238c47d46a7d858c542f55797dfc9f2" target="_top" xlink:title=" ">
<polygon fill="none" stroke="black" points="429,-456.5 429,-475.5 534,-475.5 534,-456.5 429,-456.5"/>
<text text-anchor="middle" x="481.5" y="-463.5" font-family="Helvetica,sans-Serif" font-size="10.00">AxisRaw::setTLast</text>
</a>
</g>
</g>
<!-- Node19&#45;&gt;Node22 -->
<g id="edge27" class="edge">
<title>Node19&#45;&gt;Node22</title>
<path fill="none" stroke="midnightblue" d="M368.24,-466C384.44,-466 402.17,-466 418.66,-466"/>
<polygon fill="midnightblue" stroke="midnightblue" points="418.74,-469.5 428.74,-466 418.74,-462.5 418.74,-469.5"/>
</g>
<!-- Node23 -->
<g id="node23" class="node">
<title>Node23</title>
<g id="a_node23"><a xlink:href="classAxisRaw.html#a4e8ed9ad2072a6563870f9344c362a4e" target="_top" xlink:title=" ">
<polygon fill="none" stroke="black" points="580,-456.5 580,-475.5 732,-475.5 732,-456.5 580,-456.5"/>
<text text-anchor="middle" x="656" y="-463.5" font-family="Helvetica,sans-Serif" font-size="10.00">AxisRaw::clearUnusedBytes</text>
</a>
</g>
</g>
<!-- Node22&#45;&gt;Node23 -->
<g id="edge28" class="edge">
<title>Node22&#45;&gt;Node23</title>
<path fill="none" stroke="midnightblue" d="M534.26,-466C545.42,-466 557.51,-466 569.57,-466"/>
<polygon fill="midnightblue" stroke="midnightblue" points="569.68,-469.5 579.68,-466 569.68,-462.5 569.68,-469.5"/>
</g>
<!-- Node32&#45;&gt;Node25 -->
<g id="edge38" class="edge">
<title>Node32&#45;&gt;Node25</title>
<path fill="none" stroke="midnightblue" d="M147.64,-209.74C162.33,-229.04 197.92,-272.26 238,-295 245.71,-299.37 254.46,-302.77 263.13,-305.4"/>
<polygon fill="midnightblue" stroke="midnightblue" points="262.25,-308.79 272.82,-308.05 264.1,-302.04 262.25,-308.79"/>
</g>
<!-- Node32&#45;&gt;Node27 -->
<g id="edge47" class="edge">
<title>Node32&#45;&gt;Node27</title>
<path fill="none" stroke="midnightblue" d="M154.09,-209.55C172.39,-222.02 206.32,-243.82 238,-257 245.5,-260.12 253.66,-262.86 261.7,-265.22"/>
<polygon fill="midnightblue" stroke="midnightblue" points="260.82,-268.6 271.39,-267.9 262.69,-261.86 260.82,-268.6"/>
</g>
<!-- Node32&#45;&gt;Node28 -->
<g id="edge48" class="edge">
<title>Node32&#45;&gt;Node28</title>
<path fill="none" stroke="midnightblue" d="M167.28,-206.02C191.36,-211.44 227.43,-219.55 257.21,-226.24"/>
<polygon fill="midnightblue" stroke="midnightblue" points="256.52,-229.67 267.05,-228.45 258.06,-222.85 256.52,-229.67"/>
</g>
<!-- Node32&#45;&gt;Node29 -->
<g id="edge49" class="edge">
<title>Node32&#45;&gt;Node29</title>
<path fill="none" stroke="midnightblue" d="M167.28,-193.98C191.36,-188.56 227.43,-180.45 257.21,-173.76"/>
<polygon fill="midnightblue" stroke="midnightblue" points="258.06,-177.15 267.05,-171.55 256.52,-170.33 258.06,-177.15"/>
</g>
<!-- Node32&#45;&gt;Node30 -->
<g id="edge50" class="edge">
<title>Node32&#45;&gt;Node30</title>
<path fill="none" stroke="midnightblue" d="M154.09,-190.45C172.39,-177.98 206.32,-156.18 238,-143 243.84,-140.57 250.07,-138.37 256.34,-136.41"/>
<polygon fill="midnightblue" stroke="midnightblue" points="257.55,-139.7 266.15,-133.51 255.57,-132.99 257.55,-139.7"/>
</g>
<!-- Node32&#45;&gt;Node31 -->
<g id="edge51" class="edge">
<title>Node32&#45;&gt;Node31</title>
<path fill="none" stroke="midnightblue" d="M147.64,-190.26C162.33,-170.96 197.92,-127.74 238,-105 243.15,-102.08 248.77,-99.59 254.52,-97.48"/>
<polygon fill="midnightblue" stroke="midnightblue" points="255.85,-100.72 264.25,-94.26 253.66,-94.07 255.85,-100.72"/>
</g>
<!-- Node33 -->
<g id="node33" class="node">
<title>Node33</title>
<g id="a_node33"><a xlink:href="group__SobelHLS.html#gae2400f612ea70da70714be60afc52630" target="_top" xlink:title="Main process of the Sobel Application directives.">
<polygon fill="none" stroke="black" points="289,-190.5 289,-209.5 332,-209.5 332,-190.5 289,-190.5"/>
<text text-anchor="middle" x="310.5" y="-197.5" font-family="Helvetica,sans-Serif" font-size="10.00">sobel</text>
</a>
</g>
</g>
<!-- Node32&#45;&gt;Node33 -->
<g id="edge39" class="edge">
<title>Node32&#45;&gt;Node33</title>
<path fill="none" stroke="midnightblue" d="M167.28,-200C197.63,-200 247.02,-200 278.88,-200"/>
<polygon fill="midnightblue" stroke="midnightblue" points="278.96,-203.5 288.96,-200 278.96,-196.5 278.96,-203.5"/>
</g>
<!-- Node32&#45;&gt;Node41 -->
<g id="edge52" class="edge">
<title>Node32&#45;&gt;Node41</title>
<path fill="none" stroke="midnightblue" d="M144.8,-190.21C156.16,-165.47 189.53,-100.09 238,-67 243.22,-63.44 249.08,-60.54 255.13,-58.19"/>
<polygon fill="midnightblue" stroke="midnightblue" points="256.41,-61.45 264.75,-54.92 254.15,-54.82 256.41,-61.45"/>
</g>
<!-- Node34 -->
<g id="node34" class="node">
<title>Node34</title>
<g id="a_node34"><a xlink:href="group__MemtestHLS.html#ga033fd36668741325cf3c111416e82131" target="_top" xlink:title="pPortAndDestionation &#45; Setup the port and the destination rank.">
<polygon fill="none" stroke="black" points="420,-171.5 420,-190.5 543,-190.5 543,-171.5 420,-171.5"/>
<text text-anchor="middle" x="481.5" y="-178.5" font-family="Helvetica,sans-Serif" font-size="10.00">pPortAndDestionation</text>
</a>
</g>
</g>
<!-- Node33&#45;&gt;Node34 -->
<g id="edge40" class="edge">
<title>Node33&#45;&gt;Node34</title>
<path fill="none" stroke="midnightblue" d="M332.22,-197.67C351.61,-195.49 381.71,-192.11 409.74,-188.96"/>
<polygon fill="midnightblue" stroke="midnightblue" points="410.4,-192.4 419.95,-187.81 409.62,-185.45 410.4,-192.4"/>
</g>
<!-- Node35 -->
<g id="node35" class="node">
<title>Node35</title>
<g id="a_node35"><a xlink:href="group__MCEuropeanEngineHLS.html#ga17d58313a1e5e59dcce3d0ee9f6ba7f4" target="_top" xlink:title="Processing Path &#45; Main processing FSM for Vitis kernels.">
<polygon fill="none" stroke="black" points="449,-133.5 449,-152.5 514,-152.5 514,-133.5 449,-133.5"/>
<text text-anchor="middle" x="481.5" y="-140.5" font-family="Helvetica,sans-Serif" font-size="10.00">pProcPath</text>
</a>
</g>
</g>
<!-- Node33&#45;&gt;Node35 -->
<g id="edge41" class="edge">
<title>Node33&#45;&gt;Node35</title>
<path fill="none" stroke="midnightblue" d="M332.23,-195.8C346.72,-192.54 366.37,-187.5 383,-181 399.85,-174.41 402.29,-168.92 419,-162 425.38,-159.36 432.27,-156.88 439.04,-154.65"/>
<polygon fill="midnightblue" stroke="midnightblue" points="440.33,-157.91 448.81,-151.56 438.22,-151.24 440.33,-157.91"/>
</g>
<!-- Node37 -->
<g id="node37" class="node">
<title>Node37</title>
<g id="a_node37"><a xlink:href="group__MemtestHLS.html#ga3bece8b45019894cb93d4c2127e66daf" target="_top" xlink:title="Receive Path &#45; From SHELL to THIS.">
<polygon fill="none" stroke="black" points="453,-95.5 453,-114.5 510,-114.5 510,-95.5 453,-95.5"/>
<text text-anchor="middle" x="481.5" y="-102.5" font-family="Helvetica,sans-Serif" font-size="10.00">pRXPath</text>
</a>
</g>
</g>
<!-- Node33&#45;&gt;Node37 -->
<g id="edge43" class="edge">
<title>Node33&#45;&gt;Node37</title>
<path fill="none" stroke="midnightblue" d="M332.02,-198.56C347.33,-196.59 368.09,-191.95 383,-181 407.15,-163.26 395.21,-142.22 419,-124 426.01,-118.63 434.56,-114.76 443.03,-111.98"/>
<polygon fill="midnightblue" stroke="midnightblue" points="444.17,-115.3 452.83,-109.2 442.25,-108.57 444.17,-115.3"/>
</g>
<!-- Node38 -->
<g id="node38" class="node">
<title>Node38</title>
<g id="a_node38"><a xlink:href="group__MedianBlurHLS.html#gac3e890765121e9a873b7a3a0aea95646" target="_top" xlink:title="Receive Path &#45; From SHELL to THIS.">
<polygon fill="none" stroke="black" points="421.5,-285.5 421.5,-304.5 541.5,-304.5 541.5,-285.5 421.5,-285.5"/>
<text text-anchor="middle" x="481.5" y="-292.5" font-family="Helvetica,sans-Serif" font-size="10.00">pRXPathNetToStream</text>
</a>
</g>
</g>
<!-- Node33&#45;&gt;Node38 -->
<g id="edge44" class="edge">
<title>Node33&#45;&gt;Node38</title>
<path fill="none" stroke="midnightblue" d="M332.02,-201.44C347.33,-203.41 368.09,-208.05 383,-219 407.15,-236.74 395.21,-257.78 419,-276 421.45,-277.88 424.09,-279.57 426.84,-281.09"/>
<polygon fill="midnightblue" stroke="midnightblue" points="425.42,-284.3 435.96,-285.43 428.43,-277.97 425.42,-284.3"/>
</g>
<!-- Node39 -->
<g id="node39" class="node">
<title>Node39</title>
<g id="a_node39"><a xlink:href="group__MedianBlurHLS.html#gafde53db5d12c864e5515e989b059d909" target="_top" xlink:title="Receive Path &#45; From SHELL to THIS.">
<polygon fill="none" stroke="black" points="419,-247.5 419,-266.5 544,-266.5 544,-247.5 419,-247.5"/>
<text text-anchor="middle" x="481.5" y="-254.5" font-family="Helvetica,sans-Serif" font-size="10.00">pRXPathStreamToDDR</text>
</a>
</g>
</g>
<!-- Node33&#45;&gt;Node39 -->
<g id="edge45" class="edge">
<title>Node33&#45;&gt;Node39</title>
<path fill="none" stroke="midnightblue" d="M332.23,-204.2C346.72,-207.46 366.37,-212.5 383,-219 399.85,-225.59 402.29,-231.08 419,-238 424.42,-240.25 430.21,-242.37 435.98,-244.33"/>
<polygon fill="midnightblue" stroke="midnightblue" points="435.03,-247.7 445.62,-247.46 437.19,-241.04 435.03,-247.7"/>
</g>
<!-- Node40 -->
<g id="node40" class="node">
<title>Node40</title>
<g id="a_node40"><a xlink:href="group__MemtestHLS.html#ga7d6c5ba26d71af2ade72df4e1033f326" target="_top" xlink:title="Transmit Path &#45; From THIS to SHELL.">
<polygon fill="none" stroke="black" points="453.5,-209.5 453.5,-228.5 509.5,-228.5 509.5,-209.5 453.5,-209.5"/>
<text text-anchor="middle" x="481.5" y="-216.5" font-family="Helvetica,sans-Serif" font-size="10.00">pTXPath</text>
</a>
</g>
</g>
<!-- Node33&#45;&gt;Node40 -->
<g id="edge46" class="edge">
<title>Node33&#45;&gt;Node40</title>
<path fill="none" stroke="midnightblue" d="M332.22,-202.33C359.86,-205.44 409.26,-210.99 443.4,-214.83"/>
<polygon fill="midnightblue" stroke="midnightblue" points="443.14,-218.32 453.46,-215.96 443.92,-211.37 443.14,-218.32"/>
</g>
<!-- Node36 -->
<g id="node36" class="node">
<title>Node36</title>
<g id="a_node36"><a xlink:href="kernel__mceuropeanengine_8hpp.html#a70ec22f5d35d42f5c8acfcc54fb0a383" target="_top" xlink:title=" ">
<polygon fill="none" stroke="black" points="622.5,-133.5 622.5,-152.5 689.5,-152.5 689.5,-133.5 622.5,-133.5"/>
<text text-anchor="middle" x="656" y="-140.5" font-family="Helvetica,sans-Serif" font-size="10.00">kernel_mc</text>
</a>
</g>
</g>
<!-- Node35&#45;&gt;Node36 -->
<g id="edge42" class="edge">
<title>Node35&#45;&gt;Node36</title>
<path fill="none" stroke="midnightblue" d="M514.14,-143C541.63,-143 581.7,-143 612.08,-143"/>
<polygon fill="midnightblue" stroke="midnightblue" points="612.39,-146.5 622.39,-143 612.39,-139.5 612.39,-146.5"/>
</g>
</g>
</svg>
