<?xml version="1.0" encoding="UTF-8" standalone="no"?>
<!DOCTYPE svg PUBLIC "-//W3C//DTD SVG 1.1//EN"
 "http://www.w3.org/Graphics/SVG/1.1/DTD/svg11.dtd">
<!-- Generated by graphviz version 2.43.0 (0)
 -->
<!-- Title: getOutputMetaStream Pages: 1 -->
<svg width="267pt" height="66pt"
 viewBox="0.00 0.00 267.00 66.00" xmlns="http://www.w3.org/2000/svg" xmlns:xlink="http://www.w3.org/1999/xlink">
<g id="graph0" class="graph" transform="scale(1 1) rotate(0) translate(4 62)">
<title>getOutputMetaStream</title>
<!-- Node1 -->
<g id="node1" class="node">
<title>Node1</title>
<g id="a_node1"><a xlink:title="Fill an output file with metadata from an output stream.">
<polygon fill="#bfbfbf" stroke="black" points="0,-19.5 0,-38.5 125,-38.5 125,-19.5 0,-19.5"/>
<text text-anchor="middle" x="62.5" y="-26.5" font-family="Helvetica,sans-Serif" font-size="10.00">getOutputMetaStream</text>
</a>
</g>
</g>
<!-- Node2 -->
<g id="node2" class="node">
<title>Node2</title>
<g id="a_node2"><a xlink:href="group__NAL.html#ga42db295b1eb9548a664a21932b776e47" target="_top" xlink:title="Dump a metadata information to a file.">
<polygon fill="none" stroke="black" points="161.5,-38.5 161.5,-57.5 258.5,-57.5 258.5,-38.5 161.5,-38.5"/>
<text text-anchor="middle" x="210" y="-45.5" font-family="Helvetica,sans-Serif" font-size="10.00">dumpMetaToFile</text>
</a>
</g>
</g>
<!-- Node1&#45;&gt;Node2 -->
<g id="edge1" class="edge">
<title>Node1&#45;&gt;Node2</title>
<path fill="none" stroke="midnightblue" d="M125.21,-37.06C133.89,-38.19 142.79,-39.35 151.39,-40.48"/>
<polygon fill="midnightblue" stroke="midnightblue" points="150.96,-43.95 161.33,-41.77 151.86,-37.01 150.96,-43.95"/>
</g>
<!-- Node3 -->
<g id="node3" class="node">
<title>Node3</title>
<g id="a_node3"><a xlink:href="group__NAL.html#ga02c9359d7f6ab428060b0ba2dc8d57b9" target="_top" xlink:title="Read an output metadata stream from the DUT.">
<polygon fill="none" stroke="black" points="161,-0.5 161,-19.5 259,-19.5 259,-0.5 161,-0.5"/>
<text text-anchor="middle" x="210" y="-7.5" font-family="Helvetica,sans-Serif" font-size="10.00">readMetaStream</text>
</a>
</g>
</g>
<!-- Node1&#45;&gt;Node3 -->
<g id="edge2" class="edge">
<title>Node1&#45;&gt;Node3</title>
<path fill="none" stroke="midnightblue" d="M125.21,-20.94C133.69,-19.83 142.37,-18.7 150.78,-17.6"/>
<polygon fill="midnightblue" stroke="midnightblue" points="151.42,-21.05 160.88,-16.28 150.51,-14.11 151.42,-21.05"/>
</g>
</g>
</svg>
