<?xml version="1.0" encoding="UTF-8" standalone="no"?>
<!DOCTYPE svg PUBLIC "-//W3C//DTD SVG 1.1//EN"
 "http://www.w3.org/Graphics/SVG/1.1/DTD/svg11.dtd">
<!-- Generated by graphviz version 2.43.0 (0)
 -->
<!-- Title: pTcpEchoStoreAndForward Pages: 1 -->
<svg width="412pt" height="66pt"
 viewBox="0.00 0.00 412.00 66.00" xmlns="http://www.w3.org/2000/svg" xmlns:xlink="http://www.w3.org/1999/xlink">
<g id="graph0" class="graph" transform="scale(1 1) rotate(0) translate(4 62)">
<title>pTcpEchoStoreAndForward</title>
<!-- Node1 -->
<g id="node1" class="node">
<title>Node1</title>
<g id="a_node1"><a xlink:title="Echo Store and Forward (ESf)">
<polygon fill="#bfbfbf" stroke="black" points="259,-19.5 259,-38.5 404,-38.5 404,-19.5 259,-19.5"/>
<text text-anchor="middle" x="331.5" y="-26.5" font-family="Helvetica,sans-Serif" font-size="10.00">pTcpEchoStoreAndForward</text>
</a>
</g>
</g>
<!-- Node2 -->
<g id="node2" class="node">
<title>Node2</title>
<g id="a_node2"><a xlink:href="group__tcp__app__flash.html#gab63766b8ae0bdc7bec62e81ce0a54591" target="_top" xlink:title="Main process of the TCP Application Flash (TAF)">
<polygon fill="none" stroke="black" points="140,-19.5 140,-38.5 223,-38.5 223,-19.5 140,-19.5"/>
<text text-anchor="middle" x="181.5" y="-26.5" font-family="Helvetica,sans-Serif" font-size="10.00">tcp_app_flash</text>
</a>
</g>
</g>
<!-- Node1&#45;&gt;Node2 -->
<g id="edge1" class="edge">
<title>Node1&#45;&gt;Node2</title>
<path fill="none" stroke="midnightblue" d="M248.65,-29C239.81,-29 231.12,-29 223.09,-29"/>
<polygon fill="midnightblue" stroke="midnightblue" points="248.67,-32.5 258.67,-29 248.67,-25.5 248.67,-32.5"/>
</g>
<!-- Node3 -->
<g id="node3" class="node">
<title>Node3</title>
<g id="a_node3"><a xlink:href="group__tcp__app__flash.html#ga0ddf1224851353fc92bfbff6f499fa97" target="_top" xlink:title="Main function for the test of the TCP Application Flash (TAF).">
<polygon fill="none" stroke="black" points="31.5,-38.5 31.5,-57.5 72.5,-57.5 72.5,-38.5 31.5,-38.5"/>
<text text-anchor="middle" x="52" y="-45.5" font-family="Helvetica,sans-Serif" font-size="10.00">main</text>
</a>
</g>
</g>
<!-- Node2&#45;&gt;Node3 -->
<g id="edge2" class="edge">
<title>Node2&#45;&gt;Node3</title>
<path fill="none" stroke="midnightblue" d="M129.84,-36.55C109.79,-39.54 87.93,-42.79 72.67,-45.07"/>
<polygon fill="midnightblue" stroke="midnightblue" points="130.43,-40 139.81,-35.06 129.4,-33.08 130.43,-40"/>
</g>
<!-- Node4 -->
<g id="node4" class="node">
<title>Node4</title>
<g id="a_node4"><a xlink:href="group__tcp__app__flash.html#ga077ff0a410ea6bf2a6fca7a4ba91e81e" target="_top" xlink:title="Top of TCP Application Flash (TAF)">
<polygon fill="none" stroke="black" points="0,-0.5 0,-19.5 104,-19.5 104,-0.5 0,-0.5"/>
<text text-anchor="middle" x="52" y="-7.5" font-family="Helvetica,sans-Serif" font-size="10.00">tcp_app_flash_top</text>
</a>
</g>
</g>
<!-- Node2&#45;&gt;Node4 -->
<g id="edge3" class="edge">
<title>Node2&#45;&gt;Node4</title>
<path fill="none" stroke="midnightblue" d="M129.71,-21.43C121.26,-20.17 112.5,-18.87 104.05,-17.61"/>
<polygon fill="midnightblue" stroke="midnightblue" points="129.4,-24.92 139.81,-22.94 130.43,-18 129.4,-24.92"/>
</g>
</g>
</svg>
