<?xml version="1.0" encoding="UTF-8" standalone="no"?>
<!DOCTYPE svg PUBLIC "-//W3C//DTD SVG 1.1//EN"
 "http://www.w3.org/Graphics/SVG/1.1/DTD/svg11.dtd">
<!-- Generated by graphviz version 2.43.0 (0)
 -->
<!-- Title: printEthAddr Pages: 1 -->
<svg width="651pt" height="142pt"
 viewBox="0.00 0.00 651.00 142.00" xmlns="http://www.w3.org/2000/svg" xmlns:xlink="http://www.w3.org/1999/xlink">
<g id="graph0" class="graph" transform="scale(1 1) rotate(0) translate(4 138)">
<title>printEthAddr</title>
<!-- Node1 -->
<g id="node1" class="node">
<title>Node1</title>
<g id="a_node1"><a xlink:title="Print an ETHERNET MAC address prepended with a message (for debug).">
<polygon fill="#bfbfbf" stroke="black" points="566,-76.5 566,-95.5 643,-95.5 643,-76.5 566,-76.5"/>
<text text-anchor="middle" x="604.5" y="-83.5" font-family="Helvetica,sans-Serif" font-size="10.00">printEthAddr</text>
</a>
</g>
</g>
<!-- Node2 -->
<g id="node2" class="node">
<title>Node2</title>
<g id="a_node2"><a xlink:href="group__NTS__ARP__TEST.html#ga5e15c6fbfca5524e0c76a49943f75b67" target="_top" xlink:title="Create the golden reference file from an input test file.">
<polygon fill="none" stroke="black" points="285,-114.5 285,-133.5 384,-133.5 384,-114.5 285,-114.5"/>
<text text-anchor="middle" x="334.5" y="-121.5" font-family="Helvetica,sans-Serif" font-size="10.00">createGoldenFile</text>
</a>
</g>
</g>
<!-- Node1&#45;&gt;Node2 -->
<g id="edge1" class="edge">
<title>Node1&#45;&gt;Node2</title>
<path fill="none" stroke="midnightblue" d="M555.9,-95.54C547.3,-97.13 538.39,-98.68 530,-100 480.59,-107.75 423.79,-114.51 384.38,-118.86"/>
<polygon fill="midnightblue" stroke="midnightblue" points="556.63,-98.96 565.81,-93.67 555.34,-92.08 556.63,-98.96"/>
</g>
<!-- Node3 -->
<g id="node3" class="node">
<title>Node3</title>
<g id="a_node3"><a xlink:href="group__NTS__ARP__TEST.html#ga0ddf1224851353fc92bfbff6f499fa97" target="_top" xlink:title="Main function.">
<polygon fill="none" stroke="black" points="0,-57.5 0,-76.5 41,-76.5 41,-57.5 0,-57.5"/>
<text text-anchor="middle" x="20.5" y="-64.5" font-family="Helvetica,sans-Serif" font-size="10.00">main</text>
</a>
</g>
</g>
<!-- Node1&#45;&gt;Node3 -->
<g id="edge3" class="edge">
<title>Node1&#45;&gt;Node3</title>
<path fill="none" stroke="midnightblue" d="M555.54,-86C501.92,-86 412.49,-86 335.5,-86 335.5,-86 335.5,-86 221.5,-86 155.06,-86 76.75,-75.48 41.03,-70.09"/>
<polygon fill="midnightblue" stroke="midnightblue" points="555.77,-89.5 565.77,-86 555.77,-82.5 555.77,-89.5"/>
</g>
<!-- Node4 -->
<g id="node4" class="node">
<title>Node4</title>
<g id="a_node4"><a xlink:href="group__NTS__ARP.html#ga0d50fa3c571af3481726aa1d33a94af7" target="_top" xlink:title=" ">
<polygon fill="none" stroke="black" points="420,-38.5 420,-57.5 530,-57.5 530,-38.5 420,-38.5"/>
<text text-anchor="middle" x="475" y="-45.5" font-family="Helvetica,sans-Serif" font-size="10.00">pArpCamController</text>
</a>
</g>
</g>
<!-- Node1&#45;&gt;Node4 -->
<g id="edge4" class="edge">
<title>Node1&#45;&gt;Node4</title>
<path fill="none" stroke="midnightblue" d="M561.44,-73.46C544.1,-68.3 524.32,-62.4 508.16,-57.59"/>
<polygon fill="midnightblue" stroke="midnightblue" points="560.74,-76.91 571.33,-76.41 562.74,-70.2 560.74,-76.91"/>
</g>
<!-- Node2&#45;&gt;Node3 -->
<g id="edge2" class="edge">
<title>Node2&#45;&gt;Node3</title>
<path fill="none" stroke="midnightblue" d="M274.72,-125.76C221.75,-125.67 142.39,-121.3 77,-100 61.01,-94.79 44.71,-84.36 33.94,-76.61"/>
<polygon fill="midnightblue" stroke="midnightblue" points="274.96,-129.26 284.95,-125.73 274.94,-122.26 274.96,-129.26"/>
</g>
<!-- Node5 -->
<g id="node5" class="node">
<title>Node5</title>
<g id="a_node5"><a xlink:href="group__NTS__ARP.html#gab9ccf22b359d207c21e293d6489ff5a1" target="_top" xlink:title="Main process of the Address Resolution Protocol (ARP) Server.">
<polygon fill="none" stroke="black" points="318.5,-38.5 318.5,-57.5 350.5,-57.5 350.5,-38.5 318.5,-38.5"/>
<text text-anchor="middle" x="334.5" y="-45.5" font-family="Helvetica,sans-Serif" font-size="10.00">arp</text>
</a>
</g>
</g>
<!-- Node4&#45;&gt;Node5 -->
<g id="edge5" class="edge">
<title>Node4&#45;&gt;Node5</title>
<path fill="none" stroke="midnightblue" d="M409.64,-48C387.68,-48 365.05,-48 350.66,-48"/>
<polygon fill="midnightblue" stroke="midnightblue" points="409.66,-51.5 419.66,-48 409.66,-44.5 409.66,-51.5"/>
</g>
<!-- Node6 -->
<g id="node6" class="node">
<title>Node6</title>
<g id="a_node6"><a xlink:href="group__NTS__ARP.html#ga5ca02cb7318b37b61b46b739269784f4" target="_top" xlink:title="Top of Address Resolution Protocol (ARP) Server.">
<polygon fill="none" stroke="black" points="196,-38.5 196,-57.5 249,-57.5 249,-38.5 196,-38.5"/>
<text text-anchor="middle" x="222.5" y="-45.5" font-family="Helvetica,sans-Serif" font-size="10.00">arp_top</text>
</a>
</g>
</g>
<!-- Node5&#45;&gt;Node6 -->
<g id="edge6" class="edge">
<title>Node5&#45;&gt;Node6</title>
<path fill="none" stroke="midnightblue" d="M308.06,-48C290.4,-48 266.95,-48 249.23,-48"/>
<polygon fill="midnightblue" stroke="midnightblue" points="308.21,-51.5 318.2,-48 308.2,-44.5 308.21,-51.5"/>
</g>
<!-- Node6&#45;&gt;Node3 -->
<g id="edge9" class="edge">
<title>Node6&#45;&gt;Node3</title>
<path fill="none" stroke="midnightblue" d="M185.62,-51.41C143.35,-55.42 74.64,-61.95 41.13,-65.13"/>
<polygon fill="midnightblue" stroke="midnightblue" points="186.14,-54.88 195.76,-50.45 185.48,-47.91 186.14,-54.88"/>
</g>
<!-- Node7 -->
<g id="node7" class="node">
<title>Node7</title>
<g id="a_node7"><a xlink:href="group__NTS__ARP__TEST.html#gac439322ef10ff13fdfd743b41dd080df" target="_top" xlink:title="A wrapper for the Toplevel of the Address Resolution Protocol (ARP) Server.">
<polygon fill="none" stroke="black" points="77,-0.5 77,-19.5 160,-19.5 160,-0.5 77,-0.5"/>
<text text-anchor="middle" x="118.5" y="-7.5" font-family="Helvetica,sans-Serif" font-size="10.00">arp_top_wrap</text>
</a>
</g>
</g>
<!-- Node6&#45;&gt;Node7 -->
<g id="edge7" class="edge">
<title>Node6&#45;&gt;Node7</title>
<path fill="none" stroke="midnightblue" d="M186.29,-34.88C172.8,-29.86 157.67,-24.22 145.23,-19.59"/>
<polygon fill="midnightblue" stroke="midnightblue" points="185.17,-38.2 195.76,-38.41 187.61,-31.64 185.17,-38.2"/>
</g>
<!-- Node7&#45;&gt;Node3 -->
<g id="edge8" class="edge">
<title>Node7&#45;&gt;Node3</title>
<path fill="none" stroke="midnightblue" d="M92.49,-24.81C87.36,-27.85 82.01,-31.03 77,-34 63.7,-41.9 48.61,-50.87 37.53,-57.46"/>
<polygon fill="midnightblue" stroke="midnightblue" points="94.52,-27.68 101.34,-19.57 90.95,-21.66 94.52,-27.68"/>
</g>
</g>
</svg>
