<?xml version="1.0" encoding="UTF-8" standalone="no"?>
<!DOCTYPE svg PUBLIC "-//W3C//DTD SVG 1.1//EN"
 "http://www.w3.org/Graphics/SVG/1.1/DTD/svg11.dtd">
<!-- Generated by graphviz version 2.43.0 (0)
 -->
<!-- Title: newTriple Pages: 1 -->
<svg width="434pt" height="66pt"
 viewBox="0.00 0.00 434.00 66.00" xmlns="http://www.w3.org/2000/svg" xmlns:xlink="http://www.w3.org/1999/xlink">
<g id="graph0" class="graph" transform="scale(1 1) rotate(0) translate(4 62)">
<title>newTriple</title>
<!-- Node1 -->
<g id="node1" class="node">
<title>Node1</title>
<g id="a_node1"><a xlink:title=" ">
<polygon fill="#bfbfbf" stroke="black" points="363,-19.5 363,-38.5 426,-38.5 426,-19.5 363,-19.5"/>
<text text-anchor="middle" x="394.5" y="-26.5" font-family="Helvetica,sans-Serif" font-size="10.00">newTriple</text>
</a>
</g>
</g>
<!-- Node2 -->
<g id="node2" class="node">
<title>Node2</title>
<g id="a_node2"><a xlink:href="group__NAL.html#gab34c230b2547d737a12d494ad37d1ee3" target="_top" xlink:title="ReadRequestHandler (RRh). Waits for a notification indicating the availability of new data for the RO...">
<polygon fill="none" stroke="black" points="267.5,-38.5 267.5,-57.5 325.5,-57.5 325.5,-38.5 267.5,-38.5"/>
<text text-anchor="middle" x="296.5" y="-45.5" font-family="Helvetica,sans-Serif" font-size="10.00">pTcpRRh</text>
</a>
</g>
</g>
<!-- Node1&#45;&gt;Node2 -->
<g id="edge1" class="edge">
<title>Node1&#45;&gt;Node2</title>
<path fill="none" stroke="midnightblue" d="M353.04,-37.01C343.8,-38.84 334.17,-40.74 325.57,-42.44"/>
<polygon fill="midnightblue" stroke="midnightblue" points="353.73,-40.44 362.86,-35.06 352.37,-33.57 353.73,-40.44"/>
</g>
<!-- Node6 -->
<g id="node6" class="node">
<title>Node6</title>
<g id="a_node6"><a xlink:href="group__NAL.html#ga3bc6d248784661c835b18a0db21bce74" target="_top" xlink:title="Write Path (WRp) &#45; From ROLE or FMC to TOE. Process waits for a new data segment to write and forward...">
<polygon fill="none" stroke="black" points="266,-0.5 266,-19.5 327,-19.5 327,-0.5 266,-0.5"/>
<text text-anchor="middle" x="296.5" y="-7.5" font-family="Helvetica,sans-Serif" font-size="10.00">pTcpWRp</text>
</a>
</g>
</g>
<!-- Node1&#45;&gt;Node6 -->
<g id="edge5" class="edge">
<title>Node1&#45;&gt;Node6</title>
<path fill="none" stroke="midnightblue" d="M352.94,-20.97C344.3,-19.26 335.33,-17.49 327.19,-15.88"/>
<polygon fill="midnightblue" stroke="midnightblue" points="352.37,-24.43 362.86,-22.94 353.73,-17.56 352.37,-24.43"/>
</g>
<!-- Node3 -->
<g id="node3" class="node">
<title>Node3</title>
<g id="a_node3"><a xlink:href="group__NAL.html#ga9087660a7942cb823c0fa5f350a10844" target="_top" xlink:title="Main process of the Network Abstraction Layer (NAL)">
<polygon fill="none" stroke="black" points="168,-19.5 168,-38.5 230,-38.5 230,-19.5 168,-19.5"/>
<text text-anchor="middle" x="199" y="-26.5" font-family="Helvetica,sans-Serif" font-size="10.00">nal_main</text>
</a>
</g>
</g>
<!-- Node2&#45;&gt;Node3 -->
<g id="edge2" class="edge">
<title>Node2&#45;&gt;Node3</title>
<path fill="none" stroke="midnightblue" d="M257.44,-40.43C248.41,-38.63 238.9,-36.74 230.27,-35.02"/>
<polygon fill="midnightblue" stroke="midnightblue" points="256.87,-43.88 267.36,-42.4 258.24,-37.02 256.87,-43.88"/>
</g>
<!-- Node4 -->
<g id="node4" class="node">
<title>Node4</title>
<g id="a_node4"><a xlink:href="group__NAL.html#gad0919afcfb3151dee3f8653944ea7185" target="_top" xlink:title="Run a single iteration of the DUT model.">
<polygon fill="none" stroke="black" points="77,-19.5 77,-38.5 132,-38.5 132,-19.5 77,-19.5"/>
<text text-anchor="middle" x="104.5" y="-26.5" font-family="Helvetica,sans-Serif" font-size="10.00">stepDut</text>
</a>
</g>
</g>
<!-- Node3&#45;&gt;Node4 -->
<g id="edge3" class="edge">
<title>Node3&#45;&gt;Node4</title>
<path fill="none" stroke="midnightblue" d="M157.69,-29C149.09,-29 140.21,-29 132.26,-29"/>
<polygon fill="midnightblue" stroke="midnightblue" points="157.97,-32.5 167.97,-29 157.97,-25.5 157.97,-32.5"/>
</g>
<!-- Node5 -->
<g id="node5" class="node">
<title>Node5</title>
<g id="a_node5"><a xlink:href="group__NAL.html#gae66f6b31b5ad750f1fe042a706a4e3d4" target="_top" xlink:title="Main Testbench Loop; Emulates also the behavior of the UDP Offload Engine (UOE).">
<polygon fill="none" stroke="black" points="0,-19.5 0,-38.5 41,-38.5 41,-19.5 0,-19.5"/>
<text text-anchor="middle" x="20.5" y="-26.5" font-family="Helvetica,sans-Serif" font-size="10.00">main</text>
</a>
</g>
</g>
<!-- Node4&#45;&gt;Node5 -->
<g id="edge4" class="edge">
<title>Node4&#45;&gt;Node5</title>
<path fill="none" stroke="midnightblue" d="M66.57,-29C57.8,-29 48.77,-29 41.13,-29"/>
<polygon fill="midnightblue" stroke="midnightblue" points="66.65,-32.5 76.65,-29 66.65,-25.5 66.65,-32.5"/>
</g>
<!-- Node6&#45;&gt;Node3 -->
<g id="edge6" class="edge">
<title>Node6&#45;&gt;Node3</title>
<path fill="none" stroke="midnightblue" d="M255.89,-17.88C247.23,-19.6 238.21,-21.4 230,-23.03"/>
<polygon fill="midnightblue" stroke="midnightblue" points="256.68,-21.29 265.81,-15.91 255.32,-14.43 256.68,-21.29"/>
</g>
</g>
</svg>
