<?xml version="1.0" encoding="UTF-8" standalone="no"?>
<!DOCTYPE svg PUBLIC "-//W3C//DTD SVG 1.1//EN"
 "http://www.w3.org/Graphics/SVG/1.1/DTD/svg11.dtd">
<!-- Generated by graphviz version 2.43.0 (0)
 -->
<!-- Title: dumpStringToFileWithLastSetEveryGnoPackets Pages: 1 -->
<svg width="291pt" height="66pt"
 viewBox="0.00 0.00 291.00 66.00" xmlns="http://www.w3.org/2000/svg" xmlns:xlink="http://www.w3.org/1999/xlink">
<g id="graph0" class="graph" transform="scale(1 1) rotate(0) translate(4 62)">
<title>dumpStringToFileWithLastSetEveryGnoPackets</title>
<!-- Node1 -->
<g id="node1" class="node">
<title>Node1</title>
<g id="a_node1"><a xlink:title="Fill an output file with data from a string and set the tlast every gno packets.">
<polygon fill="#bfbfbf" stroke="black" points="0,-14 0,-44 143,-44 143,-14 0,-14"/>
<text text-anchor="start" x="8" y="-32" font-family="Helvetica,sans-Serif" font-size="10.00">dumpStringToFileWithLast</text>
<text text-anchor="middle" x="71.5" y="-21" font-family="Helvetica,sans-Serif" font-size="10.00">SetEveryGnoPackets</text>
</a>
</g>
</g>
<!-- Node2 -->
<g id="node2" class="node">
<title>Node2</title>
<g id="a_node2"><a xlink:href="group__IBMZRL.html#ga91d7257cae6f2ddf59285edd4ec3f7d8" target="_top" xlink:title="Dump a data word to a file.">
<polygon fill="none" stroke="black" points="183.5,-38.5 183.5,-57.5 278.5,-57.5 278.5,-38.5 183.5,-38.5"/>
<text text-anchor="middle" x="231" y="-45.5" font-family="Helvetica,sans-Serif" font-size="10.00">dumpDataToFile</text>
</a>
</g>
</g>
<!-- Node1&#45;&gt;Node2 -->
<g id="edge1" class="edge">
<title>Node1&#45;&gt;Node2</title>
<path fill="none" stroke="midnightblue" d="M143.42,-37.56C153.48,-38.77 163.71,-40 173.45,-41.18"/>
<polygon fill="midnightblue" stroke="midnightblue" points="173.04,-44.65 183.39,-42.38 173.88,-37.7 173.04,-44.65"/>
</g>
<!-- Node3 -->
<g id="node3" class="node">
<title>Node3</title>
<g id="a_node3"><a xlink:href="group__IBMZRL.html#ga1ac70fd75b329fc5283664fe6a497715" target="_top" xlink:title="Pack an array of 8 x ap_uint&lt;8&gt; into a ap_uint&lt;64&gt; word.">
<polygon fill="none" stroke="black" points="179,-0.5 179,-19.5 283,-19.5 283,-0.5 179,-0.5"/>
<text text-anchor="middle" x="231" y="-7.5" font-family="Helvetica,sans-Serif" font-size="10.00">pack_ap_uint_64_</text>
</a>
</g>
</g>
<!-- Node1&#45;&gt;Node3 -->
<g id="edge2" class="edge">
<title>Node1&#45;&gt;Node3</title>
<path fill="none" stroke="midnightblue" d="M143.42,-20.44C151.89,-19.42 160.49,-18.39 168.81,-17.38"/>
<polygon fill="midnightblue" stroke="midnightblue" points="169.29,-20.85 178.8,-16.18 168.45,-13.9 169.29,-20.85"/>
</g>
</g>
</svg>
