<?xml version="1.0" encoding="UTF-8" standalone="no"?>
<!DOCTYPE svg PUBLIC "-//W3C//DTD SVG 1.1//EN"
 "http://www.w3.org/Graphics/SVG/1.1/DTD/svg11.dtd">
<!-- Generated by graphviz version 2.43.0 (0)
 -->
<!-- Title: harris Pages: 1 -->
<svg width="408pt" height="161pt"
 viewBox="0.00 0.00 408.00 161.00" xmlns="http://www.w3.org/2000/svg" xmlns:xlink="http://www.w3.org/1999/xlink">
<g id="graph0" class="graph" transform="scale(1 1) rotate(0) translate(4 157)">
<title>harris</title>
<!-- Node1 -->
<g id="node1" class="node">
<title>Node1</title>
<g id="a_node1"><a xlink:title="Main process of the Harris Application directives.">
<polygon fill="#bfbfbf" stroke="black" points="0,-57.5 0,-76.5 44,-76.5 44,-57.5 0,-57.5"/>
<text text-anchor="middle" x="22" y="-64.5" font-family="Helvetica,sans-Serif" font-size="10.00">harris</text>
</a>
</g>
</g>
<!-- Node2 -->
<g id="node2" class="node">
<title>Node2</title>
<g id="a_node2"><a xlink:href="group__HarrisHLS.html#ga033fd36668741325cf3c111416e82131" target="_top" xlink:title=" ">
<polygon fill="none" stroke="black" points="80,-114.5 80,-133.5 203,-133.5 203,-114.5 80,-114.5"/>
<text text-anchor="middle" x="141.5" y="-121.5" font-family="Helvetica,sans-Serif" font-size="10.00">pPortAndDestionation</text>
</a>
</g>
</g>
<!-- Node1&#45;&gt;Node2 -->
<g id="edge1" class="edge">
<title>Node1&#45;&gt;Node2</title>
<path fill="none" stroke="midnightblue" d="M35.07,-76.53C46.21,-84.95 63.48,-97.1 80,-105 84.66,-107.23 89.64,-109.28 94.68,-111.14"/>
<polygon fill="midnightblue" stroke="midnightblue" points="93.75,-114.52 104.34,-114.49 96.04,-107.91 93.75,-114.52"/>
</g>
<!-- Node3 -->
<g id="node3" class="node">
<title>Node3</title>
<g id="a_node3"><a xlink:href="group__HarrisHLS.html#gaf6f6c885ab1cf5a03d2a885e36b11646" target="_top" xlink:title="Processing Path &#45; Main processing FSM for Vitis kernels.">
<polygon fill="none" stroke="black" points="109,-76.5 109,-95.5 174,-95.5 174,-76.5 109,-76.5"/>
<text text-anchor="middle" x="141.5" y="-83.5" font-family="Helvetica,sans-Serif" font-size="10.00">pProcPath</text>
</a>
</g>
</g>
<!-- Node1&#45;&gt;Node3 -->
<g id="edge2" class="edge">
<title>Node1&#45;&gt;Node3</title>
<path fill="none" stroke="midnightblue" d="M44.01,-70.4C59.16,-72.85 80.11,-76.24 98.62,-79.23"/>
<polygon fill="midnightblue" stroke="midnightblue" points="98.18,-82.7 108.61,-80.84 99.29,-75.79 98.18,-82.7"/>
</g>
<!-- Node7 -->
<g id="node7" class="node">
<title>Node7</title>
<g id="a_node7"><a xlink:href="group__HarrisHLS.html#gab56f18d51141b003c6922297dbbd8f3f" target="_top" xlink:title="Receive Path &#45; From SHELL to THIS.">
<polygon fill="none" stroke="black" points="113,-38.5 113,-57.5 170,-57.5 170,-38.5 113,-38.5"/>
<text text-anchor="middle" x="141.5" y="-45.5" font-family="Helvetica,sans-Serif" font-size="10.00">pRXPath</text>
</a>
</g>
</g>
<!-- Node1&#45;&gt;Node7 -->
<g id="edge6" class="edge">
<title>Node1&#45;&gt;Node7</title>
<path fill="none" stroke="midnightblue" d="M44.01,-63.6C60.23,-60.98 83.12,-57.28 102.53,-54.14"/>
<polygon fill="midnightblue" stroke="midnightblue" points="103.29,-57.56 112.61,-52.51 102.17,-50.65 103.29,-57.56"/>
</g>
<!-- Node9 -->
<g id="node9" class="node">
<title>Node9</title>
<g id="a_node9"><a xlink:href="group__HarrisHLS.html#ga9d1564b4d97a13a350b52bb1a7ef663f" target="_top" xlink:title="Transmit Path &#45; From THIS to SHELL.">
<polygon fill="none" stroke="black" points="113.5,-0.5 113.5,-19.5 169.5,-19.5 169.5,-0.5 113.5,-0.5"/>
<text text-anchor="middle" x="141.5" y="-7.5" font-family="Helvetica,sans-Serif" font-size="10.00">pTXPath</text>
</a>
</g>
</g>
<!-- Node1&#45;&gt;Node9 -->
<g id="edge8" class="edge">
<title>Node1&#45;&gt;Node9</title>
<path fill="none" stroke="midnightblue" d="M35.07,-57.47C46.21,-49.05 63.48,-36.9 80,-29 87.4,-25.46 95.62,-22.37 103.56,-19.77"/>
<polygon fill="midnightblue" stroke="midnightblue" points="104.85,-23.03 113.37,-16.74 102.78,-16.34 104.85,-23.03"/>
</g>
<!-- Node4 -->
<g id="node4" class="node">
<title>Node4</title>
<g id="a_node4"><a xlink:href="group__Harris.html#ga18169291e42ed3c9fa1f0a2c3c399fd1" target="_top" xlink:title="Top&#45;level accelerated function of the Harris Application with array I/F.">
<polygon fill="none" stroke="black" points="255.5,-133.5 255.5,-152.5 383.5,-152.5 383.5,-133.5 255.5,-133.5"/>
<text text-anchor="middle" x="319.5" y="-140.5" font-family="Helvetica,sans-Serif" font-size="10.00">cornerHarrisAccelMem</text>
</a>
</g>
</g>
<!-- Node3&#45;&gt;Node4 -->
<g id="edge3" class="edge">
<title>Node3&#45;&gt;Node4</title>
<path fill="none" stroke="midnightblue" d="M174.29,-94.8C183.66,-97.71 193.85,-101.19 203,-105 219.7,-111.96 222.07,-117.62 239,-124 245.76,-126.54 252.97,-128.83 260.19,-130.85"/>
<polygon fill="midnightblue" stroke="midnightblue" points="259.43,-134.27 269.99,-133.46 261.22,-127.51 259.43,-134.27"/>
</g>
<!-- Node5 -->
<g id="node5" class="node">
<title>Node5</title>
<g id="a_node5"><a xlink:href="group__Harris.html#gadecc1be53142987c5ae20263346c6505" target="_top" xlink:title="Top&#45;level accelerated function of the Harris Application with array I/F.">
<polygon fill="none" stroke="black" points="250.5,-95.5 250.5,-114.5 388.5,-114.5 388.5,-95.5 250.5,-95.5"/>
<text text-anchor="middle" x="319.5" y="-102.5" font-family="Helvetica,sans-Serif" font-size="10.00">cornerHarrisAccelStream</text>
</a>
</g>
</g>
<!-- Node3&#45;&gt;Node5 -->
<g id="edge4" class="edge">
<title>Node3&#45;&gt;Node5</title>
<path fill="none" stroke="midnightblue" d="M174.37,-89.44C192.84,-91.43 216.96,-94.04 240.18,-96.54"/>
<polygon fill="midnightblue" stroke="midnightblue" points="240.09,-100.06 250.4,-97.65 240.84,-93.1 240.09,-100.06"/>
</g>
<!-- Node6 -->
<g id="node6" class="node">
<title>Node6</title>
<g id="a_node6"><a xlink:href="group__Harris.html#gac20a6b7de4cc39e7961572f67044c648" target="_top" xlink:title=" ">
<polygon fill="none" stroke="black" points="239,-57.5 239,-76.5 400,-76.5 400,-57.5 239,-57.5"/>
<text text-anchor="middle" x="319.5" y="-64.5" font-family="Helvetica,sans-Serif" font-size="10.00">fakeCornerHarrisAccelStream</text>
</a>
</g>
</g>
<!-- Node3&#45;&gt;Node6 -->
<g id="edge5" class="edge">
<title>Node3&#45;&gt;Node6</title>
<path fill="none" stroke="midnightblue" d="M174.37,-82.56C189.81,-80.89 209.2,-78.8 228.71,-76.69"/>
<polygon fill="midnightblue" stroke="midnightblue" points="229.34,-80.15 238.9,-75.59 228.58,-73.19 229.34,-80.15"/>
</g>
<!-- Node8 -->
<g id="node8" class="node">
<title>Node8</title>
<g id="a_node8"><a xlink:href="group__HarrisHLS.html#ga689189915fbd23b534a675692924ec11" target="_top" xlink:title="Store a net word to a local AXI stream.">
<polygon fill="none" stroke="black" points="255.5,-19.5 255.5,-38.5 383.5,-38.5 383.5,-19.5 255.5,-19.5"/>
<text text-anchor="middle" x="319.5" y="-26.5" font-family="Helvetica,sans-Serif" font-size="10.00">storeWordToAxiStream</text>
</a>
</g>
</g>
<!-- Node7&#45;&gt;Node8 -->
<g id="edge7" class="edge">
<title>Node7&#45;&gt;Node8</title>
<path fill="none" stroke="midnightblue" d="M170.39,-44.99C190.59,-42.81 218.88,-39.75 245.33,-36.9"/>
<polygon fill="midnightblue" stroke="midnightblue" points="245.79,-40.37 255.35,-35.82 245.04,-33.41 245.79,-40.37"/>
</g>
</g>
</svg>
