<?xml version="1.0" encoding="UTF-8" standalone="no"?>
<!DOCTYPE svg PUBLIC "-//W3C//DTD SVG 1.1//EN"
 "http://www.w3.org/Graphics/SVG/1.1/DTD/svg11.dtd">
<!-- Generated by graphviz version 2.43.0 (0)
 -->
<!-- Title: ARP Pages: 1 -->
<svg width="217pt" height="27pt"
 viewBox="0.00 0.00 217.00 27.00" xmlns="http://www.w3.org/2000/svg" xmlns:xlink="http://www.w3.org/1999/xlink">
<g id="graph0" class="graph" transform="scale(1 1) rotate(0) translate(4 23)">
<title>ARP</title>
<!-- Node1 -->
<g id="node1" class="node">
<title>Node1</title>
<g id="a_node1"><a xlink:title="Address Resolution Protocol (ARS) server of the Network Transport Stack (NTS).">
<polygon fill="#bfbfbf" stroke="black" points="108,-19 72,-19 72,0 108,0 108,-19"/>
<text text-anchor="middle" x="90" y="-7" font-family="Helvetica,sans-Serif" font-size="10.00">ARP</text>
</a>
</g>
</g>
<!-- Node3 -->
<g id="node3" class="node">
<title>Node3</title>
<g id="a_node3"><a xlink:href="group__NTS__ARP__TEST.html" target="_top" xlink:title="Testbench for the Address Resolution Protocol (ARS) server of the Network Transport Stack (NTS).">
<polygon fill="none" stroke="black" points="209,-19 144,-19 144,0 209,0 209,-19"/>
<text text-anchor="middle" x="176.5" y="-7" font-family="Helvetica,sans-Serif" font-size="10.00">ARP_TEST</text>
</a>
</g>
</g>
<!-- Node1&#45;&gt;Node3 -->
<g id="edge2" class="edge">
<title>Node1&#45;&gt;Node3</title>
<path fill="none" stroke="black" d="M118.18,-9.5C126.32,-9.5 135.32,-9.5 143.73,-9.5"/>
<polygon fill="black" stroke="black" points="118.1,-6 108.1,-9.5 118.1,-13 118.1,-6"/>
</g>
<!-- Node2 -->
<g id="node2" class="node">
<title>Node2</title>
<g id="a_node2"><a xlink:href="group__NTS.html" target="_top" xlink:title="Network Transport Stack (NTS). This component implements the TCP/IP Network and Transport Stack used ...">
<polygon fill="none" stroke="black" points="36,-19 0,-19 0,0 36,0 36,-19"/>
<text text-anchor="middle" x="18" y="-7" font-family="Helvetica,sans-Serif" font-size="10.00">NTS</text>
</a>
</g>
</g>
<!-- Node2&#45;&gt;Node1 -->
<g id="edge1" class="edge">
<title>Node2&#45;&gt;Node1</title>
<path fill="none" stroke="black" d="M46.33,-9.5C54.95,-9.5 64.21,-9.5 71.9,-9.5"/>
<polygon fill="black" stroke="black" points="46.3,-6 36.3,-9.5 46.3,-13 46.3,-6"/>
</g>
</g>
</svg>
