<?xml version="1.0" encoding="UTF-8" standalone="no"?>
<!DOCTYPE svg PUBLIC "-//W3C//DTD SVG 1.1//EN"
 "http://www.w3.org/Graphics/SVG/1.1/DTD/svg11.dtd">
<!-- Generated by graphviz version 2.43.0 (0)
 -->
<!-- Title: drainAxisToFile Pages: 1 -->
<svg width="360pt" height="104pt"
 viewBox="0.00 0.00 360.00 104.00" xmlns="http://www.w3.org/2000/svg" xmlns:xlink="http://www.w3.org/1999/xlink">
<g id="graph0" class="graph" transform="scale(1 1) rotate(0) translate(4 100)">
<title>drainAxisToFile</title>
<!-- Node1 -->
<g id="node1" class="node">
<title>Node1</title>
<g id="a_node1"><a xlink:title="Empty an Axi4&#45;Stream (Axis) to a DAT file.">
<polygon fill="#bfbfbf" stroke="black" points="0,-38.5 0,-57.5 90,-57.5 90,-38.5 0,-38.5"/>
<text text-anchor="middle" x="45" y="-45.5" font-family="Helvetica,sans-Serif" font-size="10.00">drainAxisToFile</text>
</a>
</g>
</g>
<!-- Node2 -->
<g id="node2" class="node">
<title>Node2</title>
<g id="a_node2"><a xlink:href="group__UppercaseHLS.html#gae061e0acc4f8984634689d549fdae11b" target="_top" xlink:title="Main process of the Uppercase Application directives.">
<polygon fill="none" stroke="black" points="126,-38.5 126,-57.5 193,-57.5 193,-38.5 126,-38.5"/>
<text text-anchor="middle" x="159.5" y="-45.5" font-family="Helvetica,sans-Serif" font-size="10.00">uppercase</text>
</a>
</g>
</g>
<!-- Node1&#45;&gt;Node2 -->
<g id="edge1" class="edge">
<title>Node1&#45;&gt;Node2</title>
<path fill="none" stroke="midnightblue" d="M90.14,-48C98.63,-48 107.51,-48 115.95,-48"/>
<polygon fill="midnightblue" stroke="midnightblue" points="115.97,-51.5 125.97,-48 115.97,-44.5 115.97,-51.5"/>
</g>
<!-- Node3 -->
<g id="node3" class="node">
<title>Node3</title>
<g id="a_node3"><a xlink:href="group__UppercaseHLS.html#ga033fd36668741325cf3c111416e82131" target="_top" xlink:title="pPortAndDestionation &#45; Setup the port and the destination rank.">
<polygon fill="none" stroke="black" points="229,-76.5 229,-95.5 352,-95.5 352,-76.5 229,-76.5"/>
<text text-anchor="middle" x="290.5" y="-83.5" font-family="Helvetica,sans-Serif" font-size="10.00">pPortAndDestionation</text>
</a>
</g>
</g>
<!-- Node2&#45;&gt;Node3 -->
<g id="edge2" class="edge">
<title>Node2&#45;&gt;Node3</title>
<path fill="none" stroke="midnightblue" d="M193.05,-57.59C209.4,-62.4 229.41,-68.3 246.96,-73.47"/>
<polygon fill="midnightblue" stroke="midnightblue" points="246.38,-76.95 256.96,-76.41 248.35,-70.23 246.38,-76.95"/>
</g>
<!-- Node4 -->
<g id="node4" class="node">
<title>Node4</title>
<g id="a_node4"><a xlink:href="group__UppercaseHLS.html#ga5241239d0335747a6f0ee418cbc7d5a9" target="_top" xlink:title="Receive Path &#45; From SHELL to THIS.">
<polygon fill="none" stroke="black" points="262,-38.5 262,-57.5 319,-57.5 319,-38.5 262,-38.5"/>
<text text-anchor="middle" x="290.5" y="-45.5" font-family="Helvetica,sans-Serif" font-size="10.00">pRXPath</text>
</a>
</g>
</g>
<!-- Node2&#45;&gt;Node4 -->
<g id="edge3" class="edge">
<title>Node2&#45;&gt;Node4</title>
<path fill="none" stroke="midnightblue" d="M193.05,-48C210.85,-48 233,-48 251.58,-48"/>
<polygon fill="midnightblue" stroke="midnightblue" points="251.77,-51.5 261.77,-48 251.77,-44.5 251.77,-51.5"/>
</g>
<!-- Node5 -->
<g id="node5" class="node">
<title>Node5</title>
<g id="a_node5"><a xlink:href="group__UppercaseHLS.html#ga6ac5a71b18876a813d752ff488f94c45" target="_top" xlink:title="Transmit Path &#45; From THIS to SHELL.">
<polygon fill="none" stroke="black" points="262.5,-0.5 262.5,-19.5 318.5,-19.5 318.5,-0.5 262.5,-0.5"/>
<text text-anchor="middle" x="290.5" y="-7.5" font-family="Helvetica,sans-Serif" font-size="10.00">pTXPath</text>
</a>
</g>
</g>
<!-- Node2&#45;&gt;Node5 -->
<g id="edge4" class="edge">
<title>Node2&#45;&gt;Node5</title>
<path fill="none" stroke="midnightblue" d="M193.05,-38.41C211.15,-33.08 233.73,-26.43 252.49,-20.9"/>
<polygon fill="midnightblue" stroke="midnightblue" points="253.59,-24.23 262.19,-18.04 251.61,-17.51 253.59,-24.23"/>
</g>
</g>
</svg>
