<?xml version="1.0" encoding="UTF-8" standalone="no"?>
<!DOCTYPE svg PUBLIC "-//W3C//DTD SVG 1.1//EN"
 "http://www.w3.org/Graphics/SVG/1.1/DTD/svg11.dtd">
<!-- Generated by graphviz version 2.43.0 (0)
 -->
<!-- Title: pIpHeaderConstructor Pages: 1 -->
<!--zoomable 598 -->
<svg id="main" version="1.1" xmlns="http://www.w3.org/2000/svg" xmlns:xlink="http://www.w3.org/1999/xlink" xml:space="preserve" onload="init(evt)">
<style type="text/css"><![CDATA[
.edge:hover path { stroke: red; }
.edge:hover polygon { stroke: red; fill: red; }
]]></style>
<script type="text/javascript"><![CDATA[
var edges = document.getElementsByTagName('g');
if (edges && edges.length) {
  for (var i=0;i<edges.length;i++) {
    if (edges[i].id.substr(0,4)=='edge') {
      edges[i].setAttribute('class','edge');
    }
  }
}
]]></script>
        <defs>
                <circle id="rim" cx="0" cy="0" r="7"/>
                <circle id="rim2" cx="0" cy="0" r="3.5"/>
                <g id="zoomPlus">
                        <use xlink:href="#rim" fill="#404040">
                                <set attributeName="fill" to="#808080" begin="zoomplus.mouseover" end="zoomplus.mouseout"/>
                        </use>
                        <path d="M-4,0h8M0,-4v8" fill="none" stroke="white" stroke-width="1.5" pointer-events="none"/>
                </g>
                <g id="zoomMin">
                        <use xlink:href="#rim" fill="#404040">
                                <set attributeName="fill" to="#808080" begin="zoomminus.mouseover" end="zoomminus.mouseout"/>
                        </use>
                        <path d="M-4,0h8" fill="none" stroke="white" stroke-width="1.5" pointer-events="none"/>
                </g>
                <g id="dirArrow">
                        <path fill="none" stroke="white" stroke-width="1.5" d="M0,-3.0v7 M-2.5,-0.5L0,-3.0L2.5,-0.5"/>
                </g>
               <g id="resetDef">
                       <use xlink:href="#rim2" fill="#404040">
                               <set attributeName="fill" to="#808080" begin="reset.mouseover" end="reset.mouseout"/>
                       </use>
               </g>
        </defs>

<script type="text/javascript">
var viewWidth = 463;
var viewHeight = 598;
var sectionId = 'dynsection-16';
</script>
<script xlink:href="svgpan.js"/>
<svg id="graph" class="graph">
<g id="viewport">
<title>pIpHeaderConstructor</title>
<!-- Node1 -->
<g id="node1" class="node">
<title>Node1</title>
<g id="a_node1"><a xlink:title="IPv4 Header Constructor (Ihc)">
<polygon fill="#bfbfbf" stroke="black" points="0,-266.5 0,-285.5 123,-285.5 123,-266.5 0,-266.5"/>
<text text-anchor="middle" x="61.5" y="-273.5" font-family="Helvetica,sans-Serif" font-size="10.00">pIpHeaderConstructor</text>
</a>
</g>
</g>
<!-- Node2 -->
<g id="node2" class="node">
<title>Node2</title>
<g id="a_node2"><a xlink:href="group__NTS.html#ga5560d80c548e85eb53223a5e99410b7b" target="_top" xlink:title="Prints an Axis raw data chunk (used for debugging).">
<polygon fill="none" stroke="black" points="185.5,-532.5 185.5,-551.5 266.5,-551.5 266.5,-532.5 185.5,-532.5"/>
<text text-anchor="middle" x="226" y="-539.5" font-family="Helvetica,sans-Serif" font-size="10.00">printAxisRaw</text>
</a>
</g>
</g>
<!-- Node1&#45;&gt;Node2 -->
<g id="edge1" class="edge">
<title>Node1&#45;&gt;Node2</title>
<path fill="none" stroke="midnightblue" d="M63.3,-285.73C66.84,-322.6 84.5,-455.07 159,-523 163.8,-527.38 169.54,-530.75 175.61,-533.35"/>
<polygon fill="midnightblue" stroke="midnightblue" points="174.74,-536.75 185.33,-536.83 177.1,-530.16 174.74,-536.75"/>
</g>
<!-- Node6 -->
<g id="node6" class="node">
<title>Node6</title>
<g id="a_node6"><a xlink:href="classAxisIp4.html#a7c1ca3829d3728d6e4f90589457f90e6" target="_top" xlink:title=" ">
<polygon fill="none" stroke="black" points="162,-494.5 162,-513.5 290,-513.5 290,-494.5 162,-494.5"/>
<text text-anchor="middle" x="226" y="-501.5" font-family="Helvetica,sans-Serif" font-size="10.00">AxisIp4::setIp4DstAddr</text>
</a>
</g>
</g>
<!-- Node1&#45;&gt;Node6 -->
<g id="edge5" class="edge">
<title>Node1&#45;&gt;Node6</title>
<path fill="none" stroke="midnightblue" d="M64.03,-285.6C69.83,-318.64 93.49,-428.78 159,-485 160.98,-486.7 163.1,-488.25 165.33,-489.65"/>
<polygon fill="midnightblue" stroke="midnightblue" points="163.88,-492.85 174.36,-494.43 167.16,-486.66 163.88,-492.85"/>
</g>
<!-- Node7 -->
<g id="node7" class="node">
<title>Node7</title>
<g id="a_node7"><a xlink:href="classAxisIp4.html#ab248dc64f59f17c71fbdcb816fdd258c" target="_top" xlink:title=" ">
<polygon fill="none" stroke="black" points="168.5,-456.5 168.5,-475.5 283.5,-475.5 283.5,-456.5 168.5,-456.5"/>
<text text-anchor="middle" x="226" y="-463.5" font-family="Helvetica,sans-Serif" font-size="10.00">AxisIp4::setIp4Flags</text>
</a>
</g>
</g>
<!-- Node1&#45;&gt;Node7 -->
<g id="edge6" class="edge">
<title>Node1&#45;&gt;Node7</title>
<path fill="none" stroke="midnightblue" d="M65.17,-285.86C73.6,-315.16 102.56,-402.41 159,-447 161.32,-448.84 163.82,-450.5 166.43,-451.99"/>
<polygon fill="midnightblue" stroke="midnightblue" points="165.15,-455.26 175.67,-456.5 168.21,-448.97 165.15,-455.26"/>
</g>
<!-- Node8 -->
<g id="node8" class="node">
<title>Node8</title>
<g id="a_node8"><a xlink:href="classAxisIp4.html#a34644f50cf5297bf1334151b3568a77a" target="_top" xlink:title=" ">
<polygon fill="none" stroke="black" points="164,-418.5 164,-437.5 288,-437.5 288,-418.5 164,-418.5"/>
<text text-anchor="middle" x="226" y="-425.5" font-family="Helvetica,sans-Serif" font-size="10.00">AxisIp4::setIp4FragOff</text>
</a>
</g>
</g>
<!-- Node1&#45;&gt;Node8 -->
<g id="edge7" class="edge">
<title>Node1&#45;&gt;Node8</title>
<path fill="none" stroke="midnightblue" d="M66.76,-285.73C78.04,-310.33 111.12,-375.42 159,-409 161.87,-411.01 164.95,-412.81 168.15,-414.42"/>
<polygon fill="midnightblue" stroke="midnightblue" points="166.88,-417.69 177.45,-418.48 169.68,-411.27 166.88,-417.69"/>
</g>
<!-- Node9 -->
<g id="node9" class="node">
<title>Node9</title>
<g id="a_node9"><a xlink:href="classAxisIp4.html#a668f18a27c497e9e4861cff478b4cc0e" target="_top" xlink:title=" ">
<polygon fill="none" stroke="black" points="159,-380.5 159,-399.5 293,-399.5 293,-380.5 159,-380.5"/>
<text text-anchor="middle" x="226" y="-387.5" font-family="Helvetica,sans-Serif" font-size="10.00">AxisIp4::setIp4HdrCsum</text>
</a>
</g>
</g>
<!-- Node1&#45;&gt;Node9 -->
<g id="edge8" class="edge">
<title>Node1&#45;&gt;Node9</title>
<path fill="none" stroke="midnightblue" d="M69.58,-285.67C84.15,-304.86 119.42,-347.87 159,-371 162.71,-373.17 166.67,-375.1 170.76,-376.82"/>
<polygon fill="midnightblue" stroke="midnightblue" points="169.84,-380.21 180.43,-380.47 172.31,-373.66 169.84,-380.21"/>
</g>
<!-- Node10 -->
<g id="node10" class="node">
<title>Node10</title>
<g id="a_node10"><a xlink:href="classAxisIp4.html#a3dcbc94aead2a9afd8b66bd373c5d93a" target="_top" xlink:title=" ">
<polygon fill="none" stroke="black" points="164.5,-342.5 164.5,-361.5 287.5,-361.5 287.5,-342.5 164.5,-342.5"/>
<text text-anchor="middle" x="226" y="-349.5" font-family="Helvetica,sans-Serif" font-size="10.00">AxisIp4::setIp4HdrLen</text>
</a>
</g>
</g>
<!-- Node1&#45;&gt;Node10 -->
<g id="edge9" class="edge">
<title>Node1&#45;&gt;Node10</title>
<path fill="none" stroke="midnightblue" d="M76.29,-285.67C94.5,-298.08 127.91,-319.6 159,-333 164.4,-335.33 170.17,-337.46 175.97,-339.4"/>
<polygon fill="midnightblue" stroke="midnightblue" points="175.1,-342.79 185.69,-342.45 177.2,-336.11 175.1,-342.79"/>
</g>
<!-- Node11 -->
<g id="node11" class="node">
<title>Node11</title>
<g id="a_node11"><a xlink:href="classAxisIp4.html#ac9d3f62ac937ed20a58893078eadce50" target="_top" xlink:title=" ">
<polygon fill="none" stroke="black" points="169.5,-304.5 169.5,-323.5 282.5,-323.5 282.5,-304.5 169.5,-304.5"/>
<text text-anchor="middle" x="226" y="-311.5" font-family="Helvetica,sans-Serif" font-size="10.00">AxisIp4::setIp4Ident</text>
</a>
</g>
</g>
<!-- Node1&#45;&gt;Node11 -->
<g id="edge10" class="edge">
<title>Node1&#45;&gt;Node11</title>
<path fill="none" stroke="midnightblue" d="M103.51,-285.59C125.05,-290.63 151.63,-296.84 174.44,-302.18"/>
<polygon fill="midnightblue" stroke="midnightblue" points="173.75,-305.61 184.29,-304.48 175.35,-298.79 173.75,-305.61"/>
</g>
<!-- Node12 -->
<g id="node12" class="node">
<title>Node12</title>
<g id="a_node12"><a xlink:href="classAxisIp4.html#a37cbd671be65cbaec4687cc42a9509d9" target="_top" xlink:title=" ">
<polygon fill="none" stroke="black" points="172,-266.5 172,-285.5 280,-285.5 280,-266.5 172,-266.5"/>
<text text-anchor="middle" x="226" y="-273.5" font-family="Helvetica,sans-Serif" font-size="10.00">AxisIp4::setIp4Prot</text>
</a>
</g>
</g>
<!-- Node1&#45;&gt;Node12 -->
<g id="edge11" class="edge">
<title>Node1&#45;&gt;Node12</title>
<path fill="none" stroke="midnightblue" d="M123.01,-276C135.68,-276 149.08,-276 161.85,-276"/>
<polygon fill="midnightblue" stroke="midnightblue" points="161.92,-279.5 171.92,-276 161.92,-272.5 161.92,-279.5"/>
</g>
<!-- Node13 -->
<g id="node13" class="node">
<title>Node13</title>
<g id="a_node13"><a xlink:href="classAxisIp4.html#ae86e3b6249f8ec6a985e5947e52d4634" target="_top" xlink:title=" ">
<polygon fill="none" stroke="black" points="163,-228.5 163,-247.5 289,-247.5 289,-228.5 163,-228.5"/>
<text text-anchor="middle" x="226" y="-235.5" font-family="Helvetica,sans-Serif" font-size="10.00">AxisIp4::setIp4SrcAddr</text>
</a>
</g>
</g>
<!-- Node1&#45;&gt;Node13 -->
<g id="edge12" class="edge">
<title>Node1&#45;&gt;Node13</title>
<path fill="none" stroke="midnightblue" d="M103.51,-266.41C125.05,-261.37 151.63,-255.16 174.44,-249.82"/>
<polygon fill="midnightblue" stroke="midnightblue" points="175.35,-253.21 184.29,-247.52 173.75,-246.39 175.35,-253.21"/>
</g>
<!-- Node14 -->
<g id="node14" class="node">
<title>Node14</title>
<g id="a_node14"><a xlink:href="classAxisIp4.html#ae4765ba482d5082db2865d8f6743ac8b" target="_top" xlink:title=" ">
<polygon fill="none" stroke="black" points="173.5,-190.5 173.5,-209.5 278.5,-209.5 278.5,-190.5 173.5,-190.5"/>
<text text-anchor="middle" x="226" y="-197.5" font-family="Helvetica,sans-Serif" font-size="10.00">AxisIp4::setIp4ToS</text>
</a>
</g>
</g>
<!-- Node1&#45;&gt;Node14 -->
<g id="edge13" class="edge">
<title>Node1&#45;&gt;Node14</title>
<path fill="none" stroke="midnightblue" d="M76.29,-266.33C94.5,-253.92 127.91,-232.4 159,-219 164.4,-216.67 170.17,-214.54 175.97,-212.6"/>
<polygon fill="midnightblue" stroke="midnightblue" points="177.2,-215.89 185.69,-209.55 175.1,-209.21 177.2,-215.89"/>
</g>
<!-- Node15 -->
<g id="node15" class="node">
<title>Node15</title>
<g id="a_node15"><a xlink:href="classAxisIp4.html#a88aa6b72c8593baed8f6c4837d7b394f" target="_top" xlink:title=" ">
<polygon fill="none" stroke="black" points="161.5,-152.5 161.5,-171.5 290.5,-171.5 290.5,-152.5 161.5,-152.5"/>
<text text-anchor="middle" x="226" y="-159.5" font-family="Helvetica,sans-Serif" font-size="10.00">AxisIp4::setIp4TotalLen</text>
</a>
</g>
</g>
<!-- Node1&#45;&gt;Node15 -->
<g id="edge14" class="edge">
<title>Node1&#45;&gt;Node15</title>
<path fill="none" stroke="midnightblue" d="M69.58,-266.33C84.15,-247.14 119.42,-204.13 159,-181 162.71,-178.83 166.67,-176.9 170.76,-175.18"/>
<polygon fill="midnightblue" stroke="midnightblue" points="172.31,-178.34 180.43,-171.53 169.84,-171.79 172.31,-178.34"/>
</g>
<!-- Node16 -->
<g id="node16" class="node">
<title>Node16</title>
<g id="a_node16"><a xlink:href="classAxisIp4.html#aed63bc9cb891bece3348ee85d721655c" target="_top" xlink:title=" ">
<polygon fill="none" stroke="black" points="174,-114.5 174,-133.5 278,-133.5 278,-114.5 174,-114.5"/>
<text text-anchor="middle" x="226" y="-121.5" font-family="Helvetica,sans-Serif" font-size="10.00">AxisIp4::setIp4TtL</text>
</a>
</g>
</g>
<!-- Node1&#45;&gt;Node16 -->
<g id="edge15" class="edge">
<title>Node1&#45;&gt;Node16</title>
<path fill="none" stroke="midnightblue" d="M66.76,-266.27C78.04,-241.67 111.12,-176.58 159,-143 161.87,-140.99 164.95,-139.19 168.15,-137.58"/>
<polygon fill="midnightblue" stroke="midnightblue" points="169.68,-140.73 177.45,-133.52 166.88,-134.31 169.68,-140.73"/>
</g>
<!-- Node17 -->
<g id="node17" class="node">
<title>Node17</title>
<g id="a_node17"><a xlink:href="classAxisIp4.html#abfc2dd4c1274feae1080243a21717cf4" target="_top" xlink:title=" ">
<polygon fill="none" stroke="black" points="163.5,-76.5 163.5,-95.5 288.5,-95.5 288.5,-76.5 163.5,-76.5"/>
<text text-anchor="middle" x="226" y="-83.5" font-family="Helvetica,sans-Serif" font-size="10.00">AxisIp4::setIp4Version</text>
</a>
</g>
</g>
<!-- Node1&#45;&gt;Node17 -->
<g id="edge16" class="edge">
<title>Node1&#45;&gt;Node17</title>
<path fill="none" stroke="midnightblue" d="M65.17,-266.14C73.6,-236.84 102.56,-149.59 159,-105 161.32,-103.16 163.82,-101.5 166.43,-100.01"/>
<polygon fill="midnightblue" stroke="midnightblue" points="168.21,-103.03 175.67,-95.5 165.15,-96.74 168.21,-103.03"/>
</g>
<!-- Node18 -->
<g id="node18" class="node">
<title>Node18</title>
<g id="a_node18"><a xlink:href="classAxisRaw.html#ae8f59ce9fd52536106de4db99df4558e" target="_top" xlink:title=" ">
<polygon fill="none" stroke="black" points="163.5,-38.5 163.5,-57.5 288.5,-57.5 288.5,-38.5 163.5,-38.5"/>
<text text-anchor="middle" x="226" y="-45.5" font-family="Helvetica,sans-Serif" font-size="10.00">AxisRaw::setLE_TKeep</text>
</a>
</g>
</g>
<!-- Node1&#45;&gt;Node18 -->
<g id="edge17" class="edge">
<title>Node1&#45;&gt;Node18</title>
<path fill="none" stroke="midnightblue" d="M64.03,-266.4C69.83,-233.36 93.49,-123.22 159,-67 160.98,-65.3 163.1,-63.75 165.33,-62.35"/>
<polygon fill="midnightblue" stroke="midnightblue" points="167.16,-65.34 174.36,-57.57 163.88,-59.15 167.16,-65.34"/>
</g>
<!-- Node19 -->
<g id="node19" class="node">
<title>Node19</title>
<g id="a_node19"><a xlink:href="classAxisRaw.html#a7fd855df91177afa363d72b3eb17af25" target="_top" xlink:title=" ">
<polygon fill="none" stroke="black" points="165,-0.5 165,-19.5 287,-19.5 287,-0.5 165,-0.5"/>
<text text-anchor="middle" x="226" y="-7.5" font-family="Helvetica,sans-Serif" font-size="10.00">AxisRaw::setLE_TLast</text>
</a>
</g>
</g>
<!-- Node1&#45;&gt;Node19 -->
<g id="edge18" class="edge">
<title>Node1&#45;&gt;Node19</title>
<path fill="none" stroke="midnightblue" d="M63.3,-266.27C66.84,-229.4 84.5,-96.93 159,-29 160.72,-27.43 162.56,-26 164.49,-24.67"/>
<polygon fill="midnightblue" stroke="midnightblue" points="166.48,-27.57 173.47,-19.61 163.04,-21.48 166.48,-27.57"/>
</g>
<!-- Node3 -->
<g id="node3" class="node">
<title>Node3</title>
<g id="a_node3"><a xlink:href="classAxisRaw.html#a7034bcf8cf143fb2bb9bfc46e70a7d6b" target="_top" xlink:title=" ">
<polygon fill="none" stroke="black" points="329.5,-570.5 329.5,-589.5 454.5,-589.5 454.5,-570.5 329.5,-570.5"/>
<text text-anchor="middle" x="392" y="-577.5" font-family="Helvetica,sans-Serif" font-size="10.00">AxisRaw::getLE_TData</text>
</a>
</g>
</g>
<!-- Node2&#45;&gt;Node3 -->
<g id="edge2" class="edge">
<title>Node2&#45;&gt;Node3</title>
<path fill="none" stroke="midnightblue" d="M266.7,-551.2C288.76,-556.31 316.45,-562.73 340.1,-568.21"/>
<polygon fill="midnightblue" stroke="midnightblue" points="339.42,-571.64 349.95,-570.49 341,-564.82 339.42,-571.64"/>
</g>
<!-- Node4 -->
<g id="node4" class="node">
<title>Node4</title>
<g id="a_node4"><a xlink:href="classAxisRaw.html#a4becd0ad3c51e3db2749e888f2f72e31" target="_top" xlink:title=" ">
<polygon fill="none" stroke="black" points="329,-532.5 329,-551.5 455,-551.5 455,-532.5 329,-532.5"/>
<text text-anchor="middle" x="392" y="-539.5" font-family="Helvetica,sans-Serif" font-size="10.00">AxisRaw::getLE_TKeep</text>
</a>
</g>
</g>
<!-- Node2&#45;&gt;Node4 -->
<g id="edge3" class="edge">
<title>Node2&#45;&gt;Node4</title>
<path fill="none" stroke="midnightblue" d="M266.7,-542C282.31,-542 300.74,-542 318.56,-542"/>
<polygon fill="midnightblue" stroke="midnightblue" points="318.95,-545.5 328.95,-542 318.95,-538.5 318.95,-545.5"/>
</g>
<!-- Node5 -->
<g id="node5" class="node">
<title>Node5</title>
<g id="a_node5"><a xlink:href="classAxisRaw.html#af8208752dcbb14911c5fda27d90a0ef4" target="_top" xlink:title=" ">
<polygon fill="none" stroke="black" points="331,-494.5 331,-513.5 453,-513.5 453,-494.5 331,-494.5"/>
<text text-anchor="middle" x="392" y="-501.5" font-family="Helvetica,sans-Serif" font-size="10.00">AxisRaw::getLE_TLast</text>
</a>
</g>
</g>
<!-- Node2&#45;&gt;Node5 -->
<g id="edge4" class="edge">
<title>Node2&#45;&gt;Node5</title>
<path fill="none" stroke="midnightblue" d="M266.7,-532.8C288.76,-527.69 316.45,-521.27 340.1,-515.79"/>
<polygon fill="midnightblue" stroke="midnightblue" points="341,-519.18 349.95,-513.51 339.42,-512.36 341,-519.18"/>
</g>
</g>
</svg>
        <g id="navigator" transform="translate(0 0)" fill="#404254">
                <rect fill="#f2f5e9" fill-opacity="0.5" stroke="#606060" stroke-width=".5" x="0" y="0" width="60" height="60"/>
                <use id="zoomplus" xlink:href="#zoomPlus" x="17" y="9" onmousedown="handleZoom(evt,'in')"/>
                <use id="zoomminus" xlink:href="#zoomMin" x="42" y="9" onmousedown="handleZoom(evt,'out')"/>
                <use id="reset" xlink:href="#resetDef" x="30" y="36" onmousedown="handleReset()"/>
                <g id="arrowUp" xlink:href="#dirArrow" transform="translate(30 24)" onmousedown="handlePan(0,-1)">
                  <use xlink:href="#rim" fill="#404040">
                        <set attributeName="fill" to="#808080" begin="arrowUp.mouseover" end="arrowUp.mouseout"/>
                  </use>
                  <path fill="none" stroke="white" stroke-width="1.5" d="M0,-3.0v7 M-2.5,-0.5L0,-3.0L2.5,-0.5"/>
                </g>
                <g id="arrowRight" xlink:href="#dirArrow" transform="rotate(90) translate(36 -43)" onmousedown="handlePan(1,0)">
                  <use xlink:href="#rim" fill="#404040">
                        <set attributeName="fill" to="#808080" begin="arrowRight.mouseover" end="arrowRight.mouseout"/>
                  </use>
                  <path fill="none" stroke="white" stroke-width="1.5" d="M0,-3.0v7 M-2.5,-0.5L0,-3.0L2.5,-0.5"/>
                </g>
                <g id="arrowDown" xlink:href="#dirArrow" transform="rotate(180) translate(-30 -48)" onmousedown="handlePan(0,1)">
                  <use xlink:href="#rim" fill="#404040">
                        <set attributeName="fill" to="#808080" begin="arrowDown.mouseover" end="arrowDown.mouseout"/>
                  </use>
                  <path fill="none" stroke="white" stroke-width="1.5" d="M0,-3.0v7 M-2.5,-0.5L0,-3.0L2.5,-0.5"/>
                </g>
                <g id="arrowLeft" xlink:href="#dirArrow" transform="rotate(270) translate(-36 17)" onmousedown="handlePan(-1,0)">
                  <use xlink:href="#rim" fill="#404040">
                        <set attributeName="fill" to="#808080" begin="arrowLeft.mouseover" end="arrowLeft.mouseout"/>
                  </use>
                  <path fill="none" stroke="white" stroke-width="1.5" d="M0,-3.0v7 M-2.5,-0.5L0,-3.0L2.5,-0.5"/>
                </g>
        </g>
        <svg viewBox="0 0 15 15" width="100%" height="30px" preserveAspectRatio="xMaxYMin meet">
         <g id="arrow_out" transform="scale(0.3 0.3)">
          <a xlink:href="group__NTS__TOE_ga9cec5277fb0152a5f683ca830e84fc2e_cgraph_org.svg" target="_base">
           <rect id="button" ry="5" rx="5" y="6" x="6" height="38" width="38"
                fill="#f2f5e9" fill-opacity="0.5" stroke="#606060" stroke-width="1.0"/>
           <path id="arrow"
             d="M 11.500037,31.436501 C 11.940474,20.09759 22.043105,11.32322 32.158766,21.979434 L 37.068811,17.246167 C 37.068811,17.246167 37.088388,32 37.088388,32 L 22.160133,31.978069 C 22.160133,31.978069 26.997745,27.140456 26.997745,27.140456 C 18.528582,18.264221 13.291696,25.230495 11.500037,31.436501 z"
             style="fill:#404040;"/>
          </a>
         </g>
        </svg>
</svg>
