<?xml version="1.0" encoding="UTF-8" standalone="no"?>
<!DOCTYPE svg PUBLIC "-//W3C//DTD SVG 1.1//EN"
 "http://www.w3.org/Graphics/SVG/1.1/DTD/svg11.dtd">
<!-- Generated by graphviz version 2.43.0 (0)
 -->
<!-- Title: WarpTransform Pages: 1 -->
<svg width="398pt" height="101pt"
 viewBox="0.00 0.00 398.00 101.00" xmlns="http://www.w3.org/2000/svg" xmlns:xlink="http://www.w3.org/1999/xlink">
<g id="graph0" class="graph" transform="scale(1 1) rotate(0) translate(4 97)">
<title>WarpTransform</title>
<!-- Node2 -->
<g id="node1" class="node">
<title>Node2</title>
<g id="a_node1"><a xlink:href="group__VitisVision.html" target="_top" xlink:title="This is the accelerated functions of Vitis Vision sub&#45;library from Vitis Open Source Library.">
<polygon fill="none" stroke="black" points="86,-56 0,-56 0,-37 86,-37 86,-56"/>
<text text-anchor="middle" x="43" y="-44" font-family="Helvetica,sans-Serif" font-size="10.00">cF Vitis Vision</text>
</a>
</g>
</g>
<!-- Node1 -->
<g id="node2" class="node">
<title>Node1</title>
<g id="a_node2"><a xlink:title="This is the WarpTransform accelerated function from Vitis Vision Open Source Library.">
<polygon fill="#bfbfbf" stroke="black" points="212,-56 122,-56 122,-37 212,-37 212,-56"/>
<text text-anchor="middle" x="167" y="-44" font-family="Helvetica,sans-Serif" font-size="10.00">WarpTransform</text>
</a>
</g>
</g>
<!-- Node2&#45;&gt;Node1 -->
<g id="edge1" class="edge">
<title>Node2&#45;&gt;Node1</title>
<path fill="none" stroke="black" d="M96.43,-46.5C104.84,-46.5 113.48,-46.5 121.67,-46.5"/>
<polygon fill="black" stroke="black" points="96.33,-43 86.33,-46.5 96.33,-50 96.33,-43"/>
</g>
<!-- Node3 -->
<g id="node3" class="node">
<title>Node3</title>
<g id="a_node3"><a xlink:href="group__WarpTransformTB.html" target="_top" xlink:title="This is a subgroup of WarpTransform accelerated function with only testbench&#45;related functions/classe...">
<polygon fill="none" stroke="black" points="390,-93 248,-93 248,-74 390,-74 390,-93"/>
<text text-anchor="middle" x="319" y="-81" font-family="Helvetica,sans-Serif" font-size="10.00">WarpTransform Testbench</text>
</a>
</g>
</g>
<!-- Node1&#45;&gt;Node3 -->
<g id="edge2" class="edge">
<title>Node1&#45;&gt;Node3</title>
<path fill="none" stroke="black" d="M216.34,-58.43C236.69,-63.44 260.05,-69.21 279.24,-73.94"/>
<polygon fill="black" stroke="black" points="217.18,-55.03 206.63,-56.03 215.5,-61.82 217.18,-55.03"/>
</g>
<!-- Node4 -->
<g id="node4" class="node">
<title>Node4</title>
<g id="a_node4"><a xlink:href="group__WarpTransformHLS.html" target="_top" xlink:title="This is a subgroup of WarpTransform accelerated function with only synthesizable (HLS) functions/clas...">
<polygon fill="none" stroke="black" points="375,-56 263,-56 263,-37 375,-37 375,-56"/>
<text text-anchor="middle" x="319" y="-44" font-family="Helvetica,sans-Serif" font-size="10.00">WarpTransform HLS</text>
</a>
</g>
</g>
<!-- Node1&#45;&gt;Node4 -->
<g id="edge3" class="edge">
<title>Node1&#45;&gt;Node4</title>
<path fill="none" stroke="black" d="M222.52,-46.5C235.68,-46.5 249.76,-46.5 262.94,-46.5"/>
<polygon fill="black" stroke="black" points="222.19,-43 212.19,-46.5 222.19,-50 222.19,-43"/>
</g>
<!-- Node5 -->
<g id="node5" class="node">
<title>Node5</title>
<g id="a_node5"><a xlink:href="group__WarpTransformHost.html" target="_top" xlink:title="This is a subgroup of WarpTransform accelerated function with only host code software.">
<polygon fill="none" stroke="black" points="377,-19 261,-19 261,0 377,0 377,-19"/>
<text text-anchor="middle" x="319" y="-7" font-family="Helvetica,sans-Serif" font-size="10.00">WarpTransform Host</text>
</a>
</g>
</g>
<!-- Node1&#45;&gt;Node5 -->
<g id="edge4" class="edge">
<title>Node1&#45;&gt;Node5</title>
<path fill="none" stroke="black" d="M216.34,-34.57C236.69,-29.56 260.05,-23.79 279.24,-19.06"/>
<polygon fill="black" stroke="black" points="215.5,-31.18 206.63,-36.97 217.18,-37.97 215.5,-31.18"/>
</g>
</g>
</svg>
