<?xml version="1.0" encoding="UTF-8" standalone="no"?>
<!DOCTYPE svg PUBLIC "-//W3C//DTD SVG 1.1//EN"
 "http://www.w3.org/Graphics/SVG/1.1/DTD/svg11.dtd">
<!-- Generated by graphviz version 2.43.0 (0)
 -->
<!-- Title: pTcpRRh Pages: 1 -->
<svg width="209pt" height="218pt"
 viewBox="0.00 0.00 209.00 218.00" xmlns="http://www.w3.org/2000/svg" xmlns:xlink="http://www.w3.org/1999/xlink">
<g id="graph0" class="graph" transform="scale(1 1) rotate(0) translate(4 214)">
<title>pTcpRRh</title>
<!-- Node1 -->
<g id="node1" class="node">
<title>Node1</title>
<g id="a_node1"><a xlink:title="ReadRequestHandler (RRh). Waits for a notification indicating the availability of new data for the RO...">
<polygon fill="#bfbfbf" stroke="black" points="0,-95.5 0,-114.5 58,-114.5 58,-95.5 0,-95.5"/>
<text text-anchor="middle" x="29" y="-102.5" font-family="Helvetica,sans-Serif" font-size="10.00">pTcpRRh</text>
</a>
</g>
</g>
<!-- Node2 -->
<g id="node2" class="node">
<title>Node2</title>
<g id="a_node2"><a xlink:href="structCam8.html#a34f386345b8172267f03fd33b31a9daf" target="_top" xlink:title="Remove a key&#45;value pair from the CAM array.">
<polygon fill="none" stroke="black" points="94,-190.5 94,-209.5 201,-209.5 201,-190.5 94,-190.5"/>
<text text-anchor="middle" x="147.5" y="-197.5" font-family="Helvetica,sans-Serif" font-size="10.00">Cam8::deleteEntry</text>
</a>
</g>
</g>
<!-- Node1&#45;&gt;Node2 -->
<g id="edge1" class="edge">
<title>Node1&#45;&gt;Node2</title>
<path fill="none" stroke="midnightblue" d="M35.68,-114.57C45.59,-130.5 67.54,-162.55 94,-181 96.7,-182.89 99.61,-184.61 102.63,-186.17"/>
<polygon fill="midnightblue" stroke="midnightblue" points="101.34,-189.43 111.89,-190.41 104.26,-183.07 101.34,-189.43"/>
</g>
<!-- Node3 -->
<g id="node3" class="node">
<title>Node3</title>
<g id="a_node3"><a xlink:href="structCam8.html#a5c0ba9b0efe13e9ca1d684bb63c1d8d7" target="_top" xlink:title="Insert a new key&#45;value pair in the CAM array.">
<polygon fill="none" stroke="black" points="108,-152.5 108,-171.5 187,-171.5 187,-152.5 108,-152.5"/>
<text text-anchor="middle" x="147.5" y="-159.5" font-family="Helvetica,sans-Serif" font-size="10.00">Cam8::insert</text>
</a>
</g>
</g>
<!-- Node1&#45;&gt;Node3 -->
<g id="edge2" class="edge">
<title>Node1&#45;&gt;Node3</title>
<path fill="none" stroke="midnightblue" d="M44.31,-114.56C57.01,-122.78 76.24,-134.61 94,-143 98.32,-145.04 102.92,-147 107.54,-148.83"/>
<polygon fill="midnightblue" stroke="midnightblue" points="106.35,-152.13 116.94,-152.41 108.84,-145.58 106.35,-152.13"/>
</g>
<!-- Node4 -->
<g id="node4" class="node">
<title>Node4</title>
<g id="a_node4"><a xlink:href="structCam8.html#a1da146a6187e99a557f1d098776f8e4f" target="_top" xlink:title="Search the CAM array for a key.">
<polygon fill="none" stroke="black" points="106,-114.5 106,-133.5 189,-133.5 189,-114.5 106,-114.5"/>
<text text-anchor="middle" x="147.5" y="-121.5" font-family="Helvetica,sans-Serif" font-size="10.00">Cam8::lookup</text>
</a>
</g>
</g>
<!-- Node1&#45;&gt;Node4 -->
<g id="edge3" class="edge">
<title>Node1&#45;&gt;Node4</title>
<path fill="none" stroke="midnightblue" d="M58.2,-109.6C69.47,-111.44 82.8,-113.61 95.64,-115.7"/>
<polygon fill="midnightblue" stroke="midnightblue" points="95.35,-119.2 105.78,-117.36 96.48,-112.3 95.35,-119.2"/>
</g>
<!-- Node5 -->
<g id="node5" class="node">
<title>Node5</title>
<g id="a_node5"><a xlink:href="group__NAL.html#ga0c5b6c9d7b558b0e6c63774cde4b863a" target="_top" xlink:title=" ">
<polygon fill="none" stroke="black" points="116,-76.5 116,-95.5 179,-95.5 179,-76.5 116,-76.5"/>
<text text-anchor="middle" x="147.5" y="-83.5" font-family="Helvetica,sans-Serif" font-size="10.00">newTriple</text>
</a>
</g>
</g>
<!-- Node1&#45;&gt;Node5 -->
<g id="edge4" class="edge">
<title>Node1&#45;&gt;Node5</title>
<path fill="none" stroke="midnightblue" d="M58.2,-100.4C72.45,-98.08 90.01,-95.21 105.7,-92.65"/>
<polygon fill="midnightblue" stroke="midnightblue" points="106.39,-96.09 115.7,-91.02 105.26,-89.18 106.39,-96.09"/>
</g>
<!-- Node6 -->
<g id="node6" class="node">
<title>Node6</title>
<g id="a_node6"><a xlink:href="structCam8.html#afe5968874a9c56cdfd757915692b8b87" target="_top" xlink:title="Invalidate all entries of the CAM array.">
<polygon fill="none" stroke="black" points="109.5,-38.5 109.5,-57.5 185.5,-57.5 185.5,-38.5 109.5,-38.5"/>
<text text-anchor="middle" x="147.5" y="-45.5" font-family="Helvetica,sans-Serif" font-size="10.00">Cam8::reset</text>
</a>
</g>
</g>
<!-- Node1&#45;&gt;Node6 -->
<g id="edge5" class="edge">
<title>Node1&#45;&gt;Node6</title>
<path fill="none" stroke="midnightblue" d="M44.31,-95.44C57.01,-87.22 76.24,-75.39 94,-67 98.32,-64.96 102.92,-63 107.54,-61.17"/>
<polygon fill="midnightblue" stroke="midnightblue" points="108.84,-64.42 116.94,-57.59 106.35,-57.87 108.84,-64.42"/>
</g>
<!-- Node7 -->
<g id="node7" class="node">
<title>Node7</title>
<g id="a_node7"><a xlink:href="structCam8.html#a08bf08048952f41df9df26c0fbccb3bf" target="_top" xlink:title="Search the CAM array for a key and updates the corresponding value.">
<polygon fill="none" stroke="black" points="105,-0.5 105,-19.5 190,-19.5 190,-0.5 105,-0.5"/>
<text text-anchor="middle" x="147.5" y="-7.5" font-family="Helvetica,sans-Serif" font-size="10.00">Cam8::update</text>
</a>
</g>
</g>
<!-- Node1&#45;&gt;Node7 -->
<g id="edge6" class="edge">
<title>Node1&#45;&gt;Node7</title>
<path fill="none" stroke="midnightblue" d="M35.68,-95.43C45.59,-79.5 67.54,-47.45 94,-29 96.7,-27.11 99.61,-25.39 102.63,-23.83"/>
<polygon fill="midnightblue" stroke="midnightblue" points="104.26,-26.93 111.89,-19.59 101.34,-20.57 104.26,-26.93"/>
</g>
</g>
</svg>
