<?xml version="1.0" encoding="UTF-8" standalone="no"?>
<!DOCTYPE svg PUBLIC "-//W3C//DTD SVG 1.1//EN"
 "http://www.w3.org/Graphics/SVG/1.1/DTD/svg11.dtd">
<!-- Generated by graphviz version 2.43.0 (0)
 -->
<!-- Title: pMetaDataHandler Pages: 1 -->
<svg width="233pt" height="104pt"
 viewBox="0.00 0.00 233.00 104.00" xmlns="http://www.w3.org/2000/svg" xmlns:xlink="http://www.w3.org/1999/xlink">
<g id="graph0" class="graph" transform="scale(1 1) rotate(0) translate(4 100)">
<title>pMetaDataHandler</title>
<!-- Node1 -->
<g id="node1" class="node">
<title>Node1</title>
<g id="a_node1"><a xlink:title="MetaData Handler (Mdh)">
<polygon fill="#bfbfbf" stroke="black" points="0,-38.5 0,-57.5 109,-57.5 109,-38.5 0,-38.5"/>
<text text-anchor="middle" x="54.5" y="-45.5" font-family="Helvetica,sans-Serif" font-size="10.00">pMetaDataHandler</text>
</a>
</g>
</g>
<!-- Node2 -->
<g id="node2" class="node">
<title>Node2</title>
<g id="a_node2"><a xlink:href="udp_8cpp.html#ga3179abf5c515026aad3e82047a1dd9a3" target="_top" xlink:title=" ">
<polygon fill="none" stroke="black" points="146.5,-76.5 146.5,-95.5 223.5,-95.5 223.5,-76.5 146.5,-76.5"/>
<text text-anchor="middle" x="185" y="-83.5" font-family="Helvetica,sans-Serif" font-size="10.00">byteSwap16</text>
</a>
</g>
</g>
<!-- Node1&#45;&gt;Node2 -->
<g id="edge1" class="edge">
<title>Node1&#45;&gt;Node2</title>
<path fill="none" stroke="midnightblue" d="M87.93,-57.59C104.21,-62.4 124.14,-68.3 141.62,-73.47"/>
<polygon fill="midnightblue" stroke="midnightblue" points="141,-76.93 151.58,-76.41 142.99,-70.22 141,-76.93"/>
</g>
<!-- Node3 -->
<g id="node3" class="node">
<title>Node3</title>
<g id="a_node3"><a xlink:href="udp_8cpp.html#ga2355e0cecd0576470bca0178c4c1aec2" target="_top" xlink:title=" ">
<polygon fill="none" stroke="black" points="146.5,-38.5 146.5,-57.5 223.5,-57.5 223.5,-38.5 146.5,-38.5"/>
<text text-anchor="middle" x="185" y="-45.5" font-family="Helvetica,sans-Serif" font-size="10.00">byteSwap32</text>
</a>
</g>
</g>
<!-- Node1&#45;&gt;Node3 -->
<g id="edge2" class="edge">
<title>Node1&#45;&gt;Node3</title>
<path fill="none" stroke="midnightblue" d="M109.25,-48C118.25,-48 127.53,-48 136.36,-48"/>
<polygon fill="midnightblue" stroke="midnightblue" points="136.47,-51.5 146.47,-48 136.47,-44.5 136.47,-51.5"/>
</g>
<!-- Node4 -->
<g id="node4" class="node">
<title>Node4</title>
<g id="a_node4"><a xlink:href="group__NTS.html#gae526d64d204c4ad86d5383b82df63eaf" target="_top" xlink:title="Print a socket pair association.">
<polygon fill="none" stroke="black" points="145,-0.5 145,-19.5 225,-19.5 225,-0.5 145,-0.5"/>
<text text-anchor="middle" x="185" y="-7.5" font-family="Helvetica,sans-Serif" font-size="10.00">printSockPair</text>
</a>
</g>
</g>
<!-- Node1&#45;&gt;Node4 -->
<g id="edge3" class="edge">
<title>Node1&#45;&gt;Node4</title>
<path fill="none" stroke="midnightblue" d="M87.93,-38.41C104.21,-33.6 124.14,-27.7 141.62,-22.53"/>
<polygon fill="midnightblue" stroke="midnightblue" points="142.99,-25.78 151.58,-19.59 141,-19.07 142.99,-25.78"/>
</g>
</g>
</svg>
