<?xml version="1.0" encoding="UTF-8" standalone="no"?>
<!DOCTYPE svg PUBLIC "-//W3C//DTD SVG 1.1//EN"
 "http://www.w3.org/Graphics/SVG/1.1/DTD/svg11.dtd">
<!-- Generated by graphviz version 2.43.0 (0)
 -->
<!-- Title: pTcpWRp Pages: 1 -->
<svg width="373pt" height="104pt"
 viewBox="0.00 0.00 373.00 104.00" xmlns="http://www.w3.org/2000/svg" xmlns:xlink="http://www.w3.org/1999/xlink">
<g id="graph0" class="graph" transform="scale(1 1) rotate(0) translate(4 100)">
<title>pTcpWRp</title>
<!-- Node1 -->
<g id="node1" class="node">
<title>Node1</title>
<g id="a_node1"><a xlink:title="Write Path (WRp) &#45; From ROLE or FMC to TOE. Process waits for a new data segment to write and forward...">
<polygon fill="#bfbfbf" stroke="black" points="0,-38.5 0,-57.5 61,-57.5 61,-38.5 0,-38.5"/>
<text text-anchor="middle" x="30.5" y="-45.5" font-family="Helvetica,sans-Serif" font-size="10.00">pTcpWRp</text>
</a>
</g>
</g>
<!-- Node2 -->
<g id="node2" class="node">
<title>Node2</title>
<g id="a_node2"><a xlink:href="group__NAL.html#ga7a8a58fedb6f1f6c4ac069f5f4889050" target="_top" xlink:title=" ">
<polygon fill="none" stroke="black" points="105,-76.5 105,-95.5 195,-95.5 195,-76.5 105,-76.5"/>
<text text-anchor="middle" x="150" y="-83.5" font-family="Helvetica,sans-Serif" font-size="10.00">extractByteCnt</text>
</a>
</g>
</g>
<!-- Node1&#45;&gt;Node2 -->
<g id="edge1" class="edge">
<title>Node1&#45;&gt;Node2</title>
<path fill="none" stroke="midnightblue" d="M61.15,-57.59C75.9,-62.36 93.93,-68.19 109.8,-73.32"/>
<polygon fill="midnightblue" stroke="midnightblue" points="108.77,-76.67 119.36,-76.41 110.92,-70.01 108.77,-76.67"/>
</g>
<!-- Node4 -->
<g id="node4" class="node">
<title>Node4</title>
<g id="a_node4"><a xlink:href="classAxisRaw.html#a42cd520c9b19f7c2fc6d2fc204cb30b7" target="_top" xlink:title=" ">
<polygon fill="none" stroke="black" points="97,-38.5 97,-57.5 203,-57.5 203,-38.5 97,-38.5"/>
<text text-anchor="middle" x="150" y="-45.5" font-family="Helvetica,sans-Serif" font-size="10.00">AxisRaw::getTLast</text>
</a>
</g>
</g>
<!-- Node1&#45;&gt;Node4 -->
<g id="edge3" class="edge">
<title>Node1&#45;&gt;Node4</title>
<path fill="none" stroke="midnightblue" d="M61.15,-48C69.05,-48 77.9,-48 86.85,-48"/>
<polygon fill="midnightblue" stroke="midnightblue" points="86.95,-51.5 96.95,-48 86.95,-44.5 86.95,-51.5"/>
</g>
<!-- Node5 -->
<g id="node5" class="node">
<title>Node5</title>
<g id="a_node5"><a xlink:href="group__NAL.html#ga0c5b6c9d7b558b0e6c63774cde4b863a" target="_top" xlink:title=" ">
<polygon fill="none" stroke="black" points="118.5,-0.5 118.5,-19.5 181.5,-19.5 181.5,-0.5 118.5,-0.5"/>
<text text-anchor="middle" x="150" y="-7.5" font-family="Helvetica,sans-Serif" font-size="10.00">newTriple</text>
</a>
</g>
</g>
<!-- Node1&#45;&gt;Node5 -->
<g id="edge4" class="edge">
<title>Node1&#45;&gt;Node5</title>
<path fill="none" stroke="midnightblue" d="M61.15,-38.41C75.9,-33.64 93.93,-27.81 109.8,-22.68"/>
<polygon fill="midnightblue" stroke="midnightblue" points="110.92,-25.99 119.36,-19.59 108.77,-19.33 110.92,-25.99"/>
</g>
<!-- Node3 -->
<g id="node3" class="node">
<title>Node3</title>
<g id="a_node3"><a xlink:href="classAxisRaw.html#a4becd0ad3c51e3db2749e888f2f72e31" target="_top" xlink:title=" ">
<polygon fill="none" stroke="black" points="239,-76.5 239,-95.5 365,-95.5 365,-76.5 239,-76.5"/>
<text text-anchor="middle" x="302" y="-83.5" font-family="Helvetica,sans-Serif" font-size="10.00">AxisRaw::getLE_TKeep</text>
</a>
</g>
</g>
<!-- Node2&#45;&gt;Node3 -->
<g id="edge2" class="edge">
<title>Node2&#45;&gt;Node3</title>
<path fill="none" stroke="midnightblue" d="M195.19,-86C205.75,-86 217.3,-86 228.76,-86"/>
<polygon fill="midnightblue" stroke="midnightblue" points="228.78,-89.5 238.78,-86 228.78,-82.5 228.78,-89.5"/>
</g>
</g>
</svg>
