<?xml version="1.0" encoding="UTF-8" standalone="no"?>
<!DOCTYPE svg PUBLIC "-//W3C//DTD SVG 1.1//EN"
 "http://www.w3.org/Graphics/SVG/1.1/DTD/svg11.dtd">
<!-- Generated by graphviz version 2.43.0 (0)
 -->
<!-- Title: pUdpRxPath Pages: 1 -->
<svg width="349pt" height="66pt"
 viewBox="0.00 0.00 349.00 66.00" xmlns="http://www.w3.org/2000/svg" xmlns:xlink="http://www.w3.org/1999/xlink">
<g id="graph0" class="graph" transform="scale(1 1) rotate(0) translate(4 62)">
<title>pUdpRxPath</title>
<!-- Node1 -->
<g id="node1" class="node">
<title>Node1</title>
<g id="a_node1"><a xlink:title="UDP Receive Path (RXp) &#45; From SHELL&#45;&gt;ROLE/USIF to THIS.">
<polygon fill="#bfbfbf" stroke="black" points="265,-19.5 265,-38.5 341,-38.5 341,-19.5 265,-19.5"/>
<text text-anchor="middle" x="303" y="-26.5" font-family="Helvetica,sans-Serif" font-size="10.00">pUdpRxPath</text>
</a>
</g>
</g>
<!-- Node2 -->
<g id="node2" class="node">
<title>Node2</title>
<g id="a_node2"><a xlink:href="group__udp__app__flash.html#gabd8dcd90a31358421775df43b750ab8e" target="_top" xlink:title="Main process of the UDP Application Flash (UAF)">
<polygon fill="none" stroke="black" points="143,-19.5 143,-38.5 229,-38.5 229,-19.5 143,-19.5"/>
<text text-anchor="middle" x="186" y="-26.5" font-family="Helvetica,sans-Serif" font-size="10.00">udp_app_flash</text>
</a>
</g>
</g>
<!-- Node1&#45;&gt;Node2 -->
<g id="edge1" class="edge">
<title>Node1&#45;&gt;Node2</title>
<path fill="none" stroke="midnightblue" d="M254.81,-29C246.31,-29 237.49,-29 229.15,-29"/>
<polygon fill="midnightblue" stroke="midnightblue" points="254.98,-32.5 264.98,-29 254.98,-25.5 254.98,-32.5"/>
</g>
<!-- Node3 -->
<g id="node3" class="node">
<title>Node3</title>
<g id="a_node3"><a xlink:href="group__udp__app__flash.html#ga0ddf1224851353fc92bfbff6f499fa97" target="_top" xlink:title="Main function for the test of the UDP Application Flash (UAF).">
<polygon fill="none" stroke="black" points="33,-38.5 33,-57.5 74,-57.5 74,-38.5 33,-38.5"/>
<text text-anchor="middle" x="53.5" y="-45.5" font-family="Helvetica,sans-Serif" font-size="10.00">main</text>
</a>
</g>
</g>
<!-- Node2&#45;&gt;Node3 -->
<g id="edge2" class="edge">
<title>Node2&#45;&gt;Node3</title>
<path fill="none" stroke="midnightblue" d="M133.02,-36.57C112.33,-39.58 89.77,-42.86 74.17,-45.14"/>
<polygon fill="midnightblue" stroke="midnightblue" points="133.6,-40.02 142.99,-35.12 132.59,-33.09 133.6,-40.02"/>
</g>
<!-- Node4 -->
<g id="node4" class="node">
<title>Node4</title>
<g id="a_node4"><a xlink:href="group__udp__app__flash.html#gae749a13be85eae98d8cf6a08802a8b0e" target="_top" xlink:title="Top of UDP Application Flash (UAF)">
<polygon fill="none" stroke="black" points="0,-0.5 0,-19.5 107,-19.5 107,-0.5 0,-0.5"/>
<text text-anchor="middle" x="53.5" y="-7.5" font-family="Helvetica,sans-Serif" font-size="10.00">udp_app_flash_top</text>
</a>
</g>
</g>
<!-- Node2&#45;&gt;Node4 -->
<g id="edge3" class="edge">
<title>Node2&#45;&gt;Node4</title>
<path fill="none" stroke="midnightblue" d="M132.94,-21.42C124.54,-20.2 115.84,-18.93 107.43,-17.71"/>
<polygon fill="midnightblue" stroke="midnightblue" points="132.59,-24.91 142.99,-22.88 133.6,-17.98 132.59,-24.91"/>
</g>
</g>
</svg>
