<?xml version="1.0" encoding="UTF-8" standalone="no"?>
<!DOCTYPE svg PUBLIC "-//W3C//DTD SVG 1.1//EN"
 "http://www.w3.org/Graphics/SVG/1.1/DTD/svg11.dtd">
<!-- Generated by graphviz version 2.43.0 (0)
 -->
<!-- Title: pListen Pages: 1 -->
<svg width="297pt" height="66pt"
 viewBox="0.00 0.00 297.00 66.00" xmlns="http://www.w3.org/2000/svg" xmlns:xlink="http://www.w3.org/1999/xlink">
<g id="graph0" class="graph" transform="scale(1 1) rotate(0) translate(4 62)">
<title>pListen</title>
<!-- Node1 -->
<g id="node1" class="node">
<title>Node1</title>
<g id="a_node1"><a xlink:title="Listen(LSn)">
<polygon fill="#bfbfbf" stroke="black" points="237,-19.5 237,-38.5 289,-38.5 289,-19.5 237,-19.5"/>
<text text-anchor="middle" x="263" y="-26.5" font-family="Helvetica,sans-Serif" font-size="10.00">pListen</text>
</a>
</g>
</g>
<!-- Node2 -->
<g id="node2" class="node">
<title>Node2</title>
<g id="a_node2"><a xlink:href="group__tcp__shell__if.html#ga33d275a5a280034b43adfd415c7599b0" target="_top" xlink:title="TCP Shell Interface (TSIF)">
<polygon fill="none" stroke="black" points="129,-19.5 129,-38.5 201,-38.5 201,-19.5 129,-19.5"/>
<text text-anchor="middle" x="165" y="-26.5" font-family="Helvetica,sans-Serif" font-size="10.00">tcp_shell_if</text>
</a>
</g>
</g>
<!-- Node1&#45;&gt;Node2 -->
<g id="edge1" class="edge">
<title>Node1&#45;&gt;Node2</title>
<path fill="none" stroke="midnightblue" d="M226.62,-29C218.31,-29 209.46,-29 201.16,-29"/>
<polygon fill="midnightblue" stroke="midnightblue" points="226.78,-32.5 236.78,-29 226.78,-25.5 226.78,-32.5"/>
</g>
<!-- Node3 -->
<g id="node3" class="node">
<title>Node3</title>
<g id="a_node3"><a xlink:href="group__tcp__shell__if.html#ga0ddf1224851353fc92bfbff6f499fa97" target="_top" xlink:title="Main function for the test of the TCP Shell Interface (TSIF).">
<polygon fill="none" stroke="black" points="26,-38.5 26,-57.5 67,-57.5 67,-38.5 26,-38.5"/>
<text text-anchor="middle" x="46.5" y="-45.5" font-family="Helvetica,sans-Serif" font-size="10.00">main</text>
</a>
</g>
</g>
<!-- Node2&#45;&gt;Node3 -->
<g id="edge2" class="edge">
<title>Node2&#45;&gt;Node3</title>
<path fill="none" stroke="midnightblue" d="M118.72,-36.38C100.82,-39.3 81.19,-42.51 67.08,-44.81"/>
<polygon fill="midnightblue" stroke="midnightblue" points="119.42,-39.82 128.73,-34.75 118.3,-32.91 119.42,-39.82"/>
</g>
<!-- Node4 -->
<g id="node4" class="node">
<title>Node4</title>
<g id="a_node4"><a xlink:href="group__tcp__shell__if.html#gacb6dcd3aa444269175772a0373dc4d56" target="_top" xlink:title="Top of TCP Shell Interface (TSIF)">
<polygon fill="none" stroke="black" points="0,-0.5 0,-19.5 93,-19.5 93,-0.5 0,-0.5"/>
<text text-anchor="middle" x="46.5" y="-7.5" font-family="Helvetica,sans-Serif" font-size="10.00">tcp_shell_if_top</text>
</a>
</g>
</g>
<!-- Node2&#45;&gt;Node4 -->
<g id="edge3" class="edge">
<title>Node2&#45;&gt;Node4</title>
<path fill="none" stroke="midnightblue" d="M118.81,-21.63C110.48,-20.27 101.77,-18.85 93.42,-17.49"/>
<polygon fill="midnightblue" stroke="midnightblue" points="118.3,-25.09 128.73,-23.25 119.42,-18.18 118.3,-25.09"/>
</g>
</g>
</svg>
