<?xml version="1.0" encoding="UTF-8" standalone="no"?>
<!DOCTYPE svg PUBLIC "-//W3C//DTD SVG 1.1//EN"
 "http://www.w3.org/Graphics/SVG/1.1/DTD/svg11.dtd">
<!-- Generated by graphviz version 2.43.0 (0)
 -->
<!-- Title: storeWordToStruct Pages: 1 -->
<svg width="443pt" height="28pt"
 viewBox="0.00 0.00 443.00 28.00" xmlns="http://www.w3.org/2000/svg" xmlns:xlink="http://www.w3.org/1999/xlink">
<g id="graph0" class="graph" transform="scale(1 1) rotate(0) translate(4 24)">
<title>storeWordToStruct</title>
<!-- Node1 -->
<g id="node1" class="node">
<title>Node1</title>
<g id="a_node1"><a xlink:title="Store a word from ethernet to a local AXI stream.">
<polygon fill="#bfbfbf" stroke="black" points="330,-0.5 330,-19.5 435,-19.5 435,-0.5 330,-0.5"/>
<text text-anchor="middle" x="382.5" y="-7.5" font-family="Helvetica,sans-Serif" font-size="10.00">storeWordToStruct</text>
</a>
</g>
</g>
<!-- Node2 -->
<g id="node2" class="node">
<title>Node2</title>
<g id="a_node2"><a xlink:href="group__MCEuropeanEngineHLS.html#ga81f20942b4c5b024dcbec822dee5f1ab" target="_top" xlink:title="Receive Path &#45; From SHELL to THIS.">
<polygon fill="none" stroke="black" points="237,-0.5 237,-19.5 294,-19.5 294,-0.5 237,-0.5"/>
<text text-anchor="middle" x="265.5" y="-7.5" font-family="Helvetica,sans-Serif" font-size="10.00">pRXPath</text>
</a>
</g>
</g>
<!-- Node1&#45;&gt;Node2 -->
<g id="edge1" class="edge">
<title>Node1&#45;&gt;Node2</title>
<path fill="none" stroke="midnightblue" d="M319.61,-10C310.67,-10 301.88,-10 294.09,-10"/>
<polygon fill="midnightblue" stroke="midnightblue" points="319.72,-13.5 329.72,-10 319.72,-6.5 319.72,-13.5"/>
</g>
<!-- Node3 -->
<g id="node3" class="node">
<title>Node3</title>
<g id="a_node3"><a xlink:href="group__MCEuropeanEngineHLS.html#ga2a7f2438aec58df4fca9f58a8de66fbb" target="_top" xlink:title="Main process of the MCEuropeanEngine Application directives.">
<polygon fill="none" stroke="black" points="91,-0.5 91,-19.5 201,-19.5 201,-0.5 91,-0.5"/>
<text text-anchor="middle" x="146" y="-7.5" font-family="Helvetica,sans-Serif" font-size="10.00">mceuropeanengine</text>
</a>
</g>
</g>
<!-- Node2&#45;&gt;Node3 -->
<g id="edge2" class="edge">
<title>Node2&#45;&gt;Node3</title>
<path fill="none" stroke="midnightblue" d="M226.95,-10C218.74,-10 209.89,-10 201.17,-10"/>
<polygon fill="midnightblue" stroke="midnightblue" points="226.95,-13.5 236.95,-10 226.95,-6.5 226.95,-13.5"/>
</g>
<!-- Node4 -->
<g id="node4" class="node">
<title>Node4</title>
<g id="a_node4"><a xlink:href="group__MCEuropeanEngineTB.html#gad0919afcfb3151dee3f8653944ea7185" target="_top" xlink:title="Run a single iteration of the DUT model.">
<polygon fill="none" stroke="black" points="0,-0.5 0,-19.5 55,-19.5 55,-0.5 0,-0.5"/>
<text text-anchor="middle" x="27.5" y="-7.5" font-family="Helvetica,sans-Serif" font-size="10.00">stepDut</text>
</a>
</g>
</g>
<!-- Node3&#45;&gt;Node4 -->
<g id="edge3" class="edge">
<title>Node3&#45;&gt;Node4</title>
<path fill="none" stroke="midnightblue" d="M80.69,-10C71.74,-10 62.97,-10 55.26,-10"/>
<polygon fill="midnightblue" stroke="midnightblue" points="80.84,-13.5 90.84,-10 80.84,-6.5 80.84,-13.5"/>
</g>
</g>
</svg>
