<?xml version="1.0" encoding="UTF-8" standalone="no"?>
<!DOCTYPE svg PUBLIC "-//W3C//DTD SVG 1.1//EN"
 "http://www.w3.org/Graphics/SVG/1.1/DTD/svg11.dtd">
<!-- Generated by graphviz version 2.43.0 (0)
 -->
<!-- Title: pack_ap_uint_64_ Pages: 1 -->
<svg width="392pt" height="192pt"
 viewBox="0.00 0.00 392.00 191.50" xmlns="http://www.w3.org/2000/svg" xmlns:xlink="http://www.w3.org/1999/xlink">
<g id="graph0" class="graph" transform="scale(1 1) rotate(0) translate(4 187.5)">
<title>pack_ap_uint_64_</title>
<!-- Node1 -->
<g id="node1" class="node">
<title>Node1</title>
<g id="a_node1"><a xlink:title="Pack an array of 8 x ap_uint&lt;8&gt; into a ap_uint&lt;64&gt; word.">
<polygon fill="#bfbfbf" stroke="black" points="280,-88 280,-107 384,-107 384,-88 280,-88"/>
<text text-anchor="middle" x="332" y="-95" font-family="Helvetica,sans-Serif" font-size="10.00">pack_ap_uint_64_</text>
</a>
</g>
</g>
<!-- Node2 -->
<g id="node2" class="node">
<title>Node2</title>
<g id="a_node2"><a xlink:href="group__VitisVision.html#ga024968650e6bf4a28b4ca91d468d9d2d" target="_top" xlink:title="Fill an output file with data from an image.">
<polygon fill="none" stroke="black" points="115,-164 115,-183 206,-183 206,-164 115,-164"/>
<text text-anchor="middle" x="160.5" y="-171" font-family="Helvetica,sans-Serif" font-size="10.00">dumpImgToFile</text>
</a>
</g>
</g>
<!-- Node1&#45;&gt;Node2 -->
<g id="edge1" class="edge">
<title>Node1&#45;&gt;Node2</title>
<path fill="none" stroke="midnightblue" d="M311.38,-113.29C294.46,-126.16 268.89,-143.88 244,-154.5 232.1,-159.57 218.64,-163.41 206.09,-166.25"/>
<polygon fill="midnightblue" stroke="midnightblue" points="313.64,-115.97 319.39,-107.07 309.34,-110.44 313.64,-115.97"/>
</g>
<!-- Node3 -->
<g id="node3" class="node">
<title>Node3</title>
<g id="a_node3"><a xlink:href="group__VitisVision.html#ga2bde20477f7fe502735f28560fad7a9d" target="_top" xlink:title="Fill an output file with data from an image.">
<polygon fill="none" stroke="black" points="78.5,-126 78.5,-145 242.5,-145 242.5,-126 78.5,-126"/>
<text text-anchor="middle" x="160.5" y="-133" font-family="Helvetica,sans-Serif" font-size="10.00">dumpImgToFileWarpTransform</text>
</a>
</g>
</g>
<!-- Node1&#45;&gt;Node3 -->
<g id="edge2" class="edge">
<title>Node1&#45;&gt;Node3</title>
<path fill="none" stroke="midnightblue" d="M278.26,-109.32C254.36,-114.68 226.48,-120.93 203.96,-125.98"/>
<polygon fill="midnightblue" stroke="midnightblue" points="279.24,-112.69 288.23,-107.09 277.7,-105.86 279.24,-112.69"/>
</g>
<!-- Node5 -->
<g id="node5" class="node">
<title>Node5</title>
<g id="a_node5"><a xlink:href="group__IBMZRL.html#ga128d46f75e0d98c81d4f6dc814ee8bc5" target="_top" xlink:title="Fill an output file with data from an image.">
<polygon fill="none" stroke="black" points="110,-88 110,-107 211,-107 211,-88 110,-88"/>
<text text-anchor="middle" x="160.5" y="-95" font-family="Helvetica,sans-Serif" font-size="10.00">dumpStringToFile</text>
</a>
</g>
</g>
<!-- Node1&#45;&gt;Node5 -->
<g id="edge4" class="edge">
<title>Node1&#45;&gt;Node5</title>
<path fill="none" stroke="midnightblue" d="M269.54,-97.5C250.36,-97.5 229.45,-97.5 211.19,-97.5"/>
<polygon fill="midnightblue" stroke="midnightblue" points="269.68,-101 279.68,-97.5 269.68,-94 269.68,-101"/>
</g>
<!-- Node6 -->
<g id="node6" class="node">
<title>Node6</title>
<g id="a_node6"><a xlink:href="group__IBMZRL.html#gaf01e707a97805e28c7580ae32a86a047" target="_top" xlink:title="Fill an output file with data from an image.">
<polygon fill="none" stroke="black" points="77,-50 77,-69 244,-69 244,-50 77,-50"/>
<text text-anchor="middle" x="160.5" y="-57" font-family="Helvetica,sans-Serif" font-size="10.00">dumpStringToFileOnlyRawData</text>
</a>
</g>
</g>
<!-- Node1&#45;&gt;Node6 -->
<g id="edge5" class="edge">
<title>Node1&#45;&gt;Node6</title>
<path fill="none" stroke="midnightblue" d="M278.26,-85.68C254.36,-80.32 226.48,-74.07 203.96,-69.02"/>
<polygon fill="midnightblue" stroke="midnightblue" points="277.7,-89.14 288.23,-87.91 279.24,-82.31 277.7,-89.14"/>
</g>
<!-- Node7 -->
<g id="node7" class="node">
<title>Node7</title>
<g id="a_node7"><a xlink:href="group__IBMZRL.html#ga2ce50547bb06ee7a17c211a8b807a2b0" target="_top" xlink:title="Fill an output file with data from a string and set the tlast every gno packets.">
<polygon fill="none" stroke="black" points="89,-0.5 89,-30.5 232,-30.5 232,-0.5 89,-0.5"/>
<text text-anchor="start" x="97" y="-18.5" font-family="Helvetica,sans-Serif" font-size="10.00">dumpStringToFileWithLast</text>
<text text-anchor="middle" x="160.5" y="-7.5" font-family="Helvetica,sans-Serif" font-size="10.00">SetEveryGnoPackets</text>
</a>
</g>
</g>
<!-- Node1&#45;&gt;Node7 -->
<g id="edge6" class="edge">
<title>Node1&#45;&gt;Node7</title>
<path fill="none" stroke="midnightblue" d="M310.6,-81.71C293.57,-69.14 268.24,-51.83 244,-40.5 236.14,-36.83 227.6,-33.53 219.1,-30.64"/>
<polygon fill="midnightblue" stroke="midnightblue" points="308.6,-84.59 318.7,-87.8 312.81,-78.99 308.6,-84.59"/>
</g>
<!-- Node4 -->
<g id="node4" class="node">
<title>Node4</title>
<g id="a_node4"><a xlink:href="group__WarpTransformTB.html#ga3c04138a5bfe5d72780bb7e82a18e627" target="_top" xlink:title="Main testbench of Hrris.">
<polygon fill="none" stroke="black" points="0,-126 0,-145 41,-145 41,-126 0,-126"/>
<text text-anchor="middle" x="20.5" y="-133" font-family="Helvetica,sans-Serif" font-size="10.00">main</text>
</a>
</g>
</g>
<!-- Node3&#45;&gt;Node4 -->
<g id="edge3" class="edge">
<title>Node3&#45;&gt;Node4</title>
<path fill="none" stroke="midnightblue" d="M68.2,-135.5C58.18,-135.5 48.86,-135.5 41.22,-135.5"/>
<polygon fill="midnightblue" stroke="midnightblue" points="68.43,-139 78.43,-135.5 68.43,-132 68.43,-139"/>
</g>
</g>
</svg>
