<?xml version="1.0" encoding="UTF-8" standalone="no"?>
<!DOCTYPE svg PUBLIC "-//W3C//DTD SVG 1.1//EN"
 "http://www.w3.org/Graphics/SVG/1.1/DTD/svg11.dtd">
<!-- Generated by graphviz version 2.43.0 (0)
 -->
<!-- Title: myDottedDecimalIpToUint32 Pages: 1 -->
<!--zoomable 256 -->
<svg id="main" version="1.1" xmlns="http://www.w3.org/2000/svg" xmlns:xlink="http://www.w3.org/1999/xlink" xml:space="preserve" onload="init(evt)">
<style type="text/css"><![CDATA[
.edge:hover path { stroke: red; }
.edge:hover polygon { stroke: red; fill: red; }
]]></style>
<script type="text/javascript"><![CDATA[
var edges = document.getElementsByTagName('g');
if (edges && edges.length) {
  for (var i=0;i<edges.length;i++) {
    if (edges[i].id.substr(0,4)=='edge') {
      edges[i].setAttribute('class','edge');
    }
  }
}
]]></script>
        <defs>
                <circle id="rim" cx="0" cy="0" r="7"/>
                <circle id="rim2" cx="0" cy="0" r="3.5"/>
                <g id="zoomPlus">
                        <use xlink:href="#rim" fill="#404040">
                                <set attributeName="fill" to="#808080" begin="zoomplus.mouseover" end="zoomplus.mouseout"/>
                        </use>
                        <path d="M-4,0h8M0,-4v8" fill="none" stroke="white" stroke-width="1.5" pointer-events="none"/>
                </g>
                <g id="zoomMin">
                        <use xlink:href="#rim" fill="#404040">
                                <set attributeName="fill" to="#808080" begin="zoomminus.mouseover" end="zoomminus.mouseout"/>
                        </use>
                        <path d="M-4,0h8" fill="none" stroke="white" stroke-width="1.5" pointer-events="none"/>
                </g>
                <g id="dirArrow">
                        <path fill="none" stroke="white" stroke-width="1.5" d="M0,-3.0v7 M-2.5,-0.5L0,-3.0L2.5,-0.5"/>
                </g>
               <g id="resetDef">
                       <use xlink:href="#rim2" fill="#404040">
                               <set attributeName="fill" to="#808080" begin="reset.mouseover" end="reset.mouseout"/>
                       </use>
               </g>
        </defs>

<script type="text/javascript">
var viewWidth = 736;
var viewHeight = 256;
var sectionId = 'dynsection-12';
</script>
<script xlink:href="svgpan.js"/>
<svg id="graph" class="graph">
<g id="viewport">
<title>myDottedDecimalIpToUint32</title>
<!-- Node1 -->
<g id="node1" class="node">
<title>Node1</title>
<g id="a_node1"><a xlink:title="Converts an IPv4 address represented with a dotted&#45;decimal string into an UINT32.">
<polygon fill="#bfbfbf" stroke="black" points="570,-114.5 570,-133.5 728,-133.5 728,-114.5 570,-114.5"/>
<text text-anchor="middle" x="649" y="-121.5" font-family="Helvetica,sans-Serif" font-size="10.00">myDottedDecimalIpToUint32</text>
</a>
</g>
</g>
<!-- Node2 -->
<g id="node2" class="node">
<title>Node2</title>
<g id="a_node2"><a xlink:href="group__NTS__TOE__TEST.html#gaed2375a8e30d24672bafc5e85b9680af" target="_top" xlink:title="Parse and handle a &#39;COMMAND/SET&#39; request.">
<polygon fill="none" stroke="black" points="397,-228.5 397,-247.5 531,-247.5 531,-228.5 397,-228.5"/>
<text text-anchor="middle" x="464" y="-235.5" font-family="Helvetica,sans-Serif" font-size="10.00">cmdSetCommandParser</text>
</a>
</g>
</g>
<!-- Node1&#45;&gt;Node2 -->
<g id="edge1" class="edge">
<title>Node1&#45;&gt;Node2</title>
<path fill="none" stroke="midnightblue" d="M632.24,-141C611.63,-162.26 573.48,-198.36 534,-219 526.73,-222.8 518.63,-225.9 510.6,-228.42"/>
<polygon fill="midnightblue" stroke="midnightblue" points="634.89,-143.3 639.25,-133.65 629.82,-138.48 634.89,-143.3"/>
</g>
<!-- Node4 -->
<g id="node4" class="node">
<title>Node4</title>
<g id="a_node4"><a xlink:href="group__tcp__shell__if.html#ga0ddf1224851353fc92bfbff6f499fa97" target="_top" xlink:title="Main function for the test of the TCP Shell Interface (TSIF).">
<polygon fill="none" stroke="black" points="443.5,-190.5 443.5,-209.5 484.5,-209.5 484.5,-190.5 443.5,-190.5"/>
<text text-anchor="middle" x="464" y="-197.5" font-family="Helvetica,sans-Serif" font-size="10.00">main</text>
</a>
</g>
</g>
<!-- Node1&#45;&gt;Node4 -->
<g id="edge3" class="edge">
<title>Node1&#45;&gt;Node4</title>
<path fill="none" stroke="midnightblue" d="M622.5,-138.55C599.82,-151.06 565.46,-168.94 534,-181 517.76,-187.23 498.64,-192.33 484.66,-195.67"/>
<polygon fill="midnightblue" stroke="midnightblue" points="624.44,-141.48 631.47,-133.55 621.03,-135.37 624.44,-141.48"/>
</g>
<!-- Node5 -->
<g id="node5" class="node">
<title>Node5</title>
<g id="a_node5"><a xlink:href="group__NTS__TOE__TEST.html#ga74e69efe2106d8c4d2baa125f6b40459" target="_top" xlink:title="TCP Application Send (TAs). Emulates the Tx process of the TAIF.">
<polygon fill="none" stroke="black" points="427.5,-114.5 427.5,-133.5 500.5,-133.5 500.5,-114.5 427.5,-114.5"/>
<text text-anchor="middle" x="464" y="-121.5" font-family="Helvetica,sans-Serif" font-size="10.00">pTAIF_Send</text>
</a>
</g>
</g>
<!-- Node1&#45;&gt;Node5 -->
<g id="edge4" class="edge">
<title>Node1&#45;&gt;Node5</title>
<path fill="none" stroke="midnightblue" d="M559.64,-124C538.75,-124 517.64,-124 500.67,-124"/>
<polygon fill="midnightblue" stroke="midnightblue" points="559.86,-127.5 569.86,-124 559.86,-120.5 559.86,-127.5"/>
</g>
<!-- Node7 -->
<g id="node7" class="node">
<title>Node7</title>
<g id="a_node7"><a xlink:href="group__NTS__SIM.html#ga1a0ed3b4f62e362e40c09dbebd663af0" target="_top" xlink:title="Retrieve an Fpga socket from a string.">
<polygon fill="none" stroke="black" points="394,-76.5 394,-95.5 534,-95.5 534,-76.5 394,-76.5"/>
<text text-anchor="middle" x="464" y="-83.5" font-family="Helvetica,sans-Serif" font-size="10.00">readFpgaSocketFromLine</text>
</a>
</g>
</g>
<!-- Node1&#45;&gt;Node7 -->
<g id="edge6" class="edge">
<title>Node1&#45;&gt;Node7</title>
<path fill="none" stroke="midnightblue" d="M591.75,-112.32C565.79,-106.93 535.38,-100.61 510.85,-95.52"/>
<polygon fill="midnightblue" stroke="midnightblue" points="591.32,-115.8 601.82,-114.41 592.74,-108.95 591.32,-115.8"/>
</g>
<!-- Node10 -->
<g id="node10" class="node">
<title>Node10</title>
<g id="a_node10"><a xlink:href="group__NTS__SIM.html#ga0e61d088feba9b80a8480c46a68cf8a0" target="_top" xlink:title="Retrieve a Host socket from a string.">
<polygon fill="none" stroke="black" points="395,-38.5 395,-57.5 533,-57.5 533,-38.5 395,-38.5"/>
<text text-anchor="middle" x="464" y="-45.5" font-family="Helvetica,sans-Serif" font-size="10.00">readHostSocketFromLine</text>
</a>
</g>
</g>
<!-- Node1&#45;&gt;Node10 -->
<g id="edge9" class="edge">
<title>Node1&#45;&gt;Node10</title>
<path fill="none" stroke="midnightblue" d="M622.5,-109.45C599.82,-96.94 565.46,-79.06 534,-67 524.72,-63.44 514.5,-60.25 504.84,-57.55"/>
<polygon fill="midnightblue" stroke="midnightblue" points="621.03,-112.63 631.47,-114.45 624.44,-106.52 621.03,-112.63"/>
</g>
<!-- Node14 -->
<g id="node14" class="node">
<title>Node14</title>
<g id="a_node14"><a xlink:href="group__NTS__SIM.html#ga6b186bb74050215f24b07b1022a10b8e" target="_top" xlink:title="Retrieve a testbench parameter from a DAT file.">
<polygon fill="none" stroke="black" points="402.5,-0.5 402.5,-19.5 525.5,-19.5 525.5,-0.5 402.5,-0.5"/>
<text text-anchor="middle" x="464" y="-7.5" font-family="Helvetica,sans-Serif" font-size="10.00">readTbParamFromFile</text>
</a>
</g>
</g>
<!-- Node1&#45;&gt;Node14 -->
<g id="edge13" class="edge">
<title>Node1&#45;&gt;Node14</title>
<path fill="none" stroke="midnightblue" d="M632.24,-107C611.63,-85.74 573.48,-49.64 534,-29 526.73,-25.2 518.63,-22.1 510.6,-19.58"/>
<polygon fill="midnightblue" stroke="midnightblue" points="629.82,-109.52 639.25,-114.35 634.89,-104.7 629.82,-109.52"/>
</g>
<!-- Node16 -->
<g id="node16" class="node">
<title>Node16</title>
<g id="a_node16"><a xlink:href="group__NTS__TOE__TEST.html#ga1d73957534ff04ad6accee803f21ad01" target="_top" xlink:title="Parse the input test file and set the global parameters of the TB.">
<polygon fill="none" stroke="black" points="404.5,-152.5 404.5,-171.5 523.5,-171.5 523.5,-152.5 404.5,-152.5"/>
<text text-anchor="middle" x="464" y="-159.5" font-family="Helvetica,sans-Serif" font-size="10.00">setGlobalParameters</text>
</a>
</g>
</g>
<!-- Node1&#45;&gt;Node16 -->
<g id="edge15" class="edge">
<title>Node1&#45;&gt;Node16</title>
<path fill="none" stroke="midnightblue" d="M591.75,-135.68C565.79,-141.07 535.38,-147.39 510.85,-152.48"/>
<polygon fill="midnightblue" stroke="midnightblue" points="592.74,-139.05 601.82,-133.59 591.32,-132.2 592.74,-139.05"/>
</g>
<!-- Node3 -->
<g id="node3" class="node">
<title>Node3</title>
<g id="a_node3"><a xlink:href="group__NTS__TOE__TEST.html#ga19626da81d440ab83bcba2f6838ccb87" target="_top" xlink:title="Emulate the behavior of the IP Rx Path (IPRX).">
<polygon fill="none" stroke="black" points="271,-199.5 271,-218.5 316,-218.5 316,-199.5 271,-199.5"/>
<text text-anchor="middle" x="293.5" y="-206.5" font-family="Helvetica,sans-Serif" font-size="10.00">pIPRX</text>
</a>
</g>
</g>
<!-- Node2&#45;&gt;Node3 -->
<g id="edge2" class="edge">
<title>Node2&#45;&gt;Node3</title>
<path fill="none" stroke="midnightblue" d="M397.36,-226.7C368.66,-221.76 336.94,-216.3 316.41,-212.77"/>
<polygon fill="midnightblue" stroke="midnightblue" points="396.91,-230.18 407.36,-228.42 398.1,-223.28 396.91,-230.18"/>
</g>
<!-- Node6 -->
<g id="node6" class="node">
<title>Node6</title>
<g id="a_node6"><a xlink:href="group__NTS__TOE__TEST.html#ga45fdc434ab89031e3c94815b0c38a042" target="_top" xlink:title="Emulates the behavior of the TCP application interface (TAIF).">
<polygon fill="none" stroke="black" points="271.5,-133.5 271.5,-152.5 315.5,-152.5 315.5,-133.5 271.5,-133.5"/>
<text text-anchor="middle" x="293.5" y="-140.5" font-family="Helvetica,sans-Serif" font-size="10.00">pTAIF</text>
</a>
</g>
</g>
<!-- Node5&#45;&gt;Node6 -->
<g id="edge5" class="edge">
<title>Node5&#45;&gt;Node6</title>
<path fill="none" stroke="midnightblue" d="M416.94,-129.19C383.97,-132.91 341.09,-137.75 315.81,-140.6"/>
<polygon fill="midnightblue" stroke="midnightblue" points="417.72,-132.63 427.27,-128.03 416.94,-125.67 417.72,-132.63"/>
</g>
<!-- Node8 -->
<g id="node8" class="node">
<title>Node8</title>
<g id="a_node8"><a xlink:href="group__udp__app__flash.html#ga5b6de7e53f9c6d997bcb7c5f830ba06a" target="_top" xlink:title="Read a datagram from a DAT file.">
<polygon fill="none" stroke="black" points="229,-76.5 229,-95.5 358,-95.5 358,-76.5 229,-76.5"/>
<text text-anchor="middle" x="293.5" y="-83.5" font-family="Helvetica,sans-Serif" font-size="10.00">readDatagramFromFile</text>
</a>
</g>
</g>
<!-- Node7&#45;&gt;Node8 -->
<g id="edge7" class="edge">
<title>Node7&#45;&gt;Node8</title>
<path fill="none" stroke="midnightblue" d="M383.93,-86C375.33,-86 366.65,-86 358.26,-86"/>
<polygon fill="midnightblue" stroke="midnightblue" points="383.98,-89.5 393.98,-86 383.98,-82.5 383.98,-89.5"/>
</g>
<!-- Node9 -->
<g id="node9" class="node">
<title>Node9</title>
<g id="a_node9"><a xlink:href="group__udp__app__flash.html#gaed659893ff9e142d02f969213e4a501f" target="_top" xlink:title="Create the golden UDP Tx files from an input test file.">
<polygon fill="none" stroke="black" points="77,-76.5 77,-95.5 193,-95.5 193,-76.5 77,-76.5"/>
<text text-anchor="middle" x="135" y="-83.5" font-family="Helvetica,sans-Serif" font-size="10.00">createGoldenTxFiles</text>
</a>
</g>
</g>
<!-- Node8&#45;&gt;Node9 -->
<g id="edge8" class="edge">
<title>Node8&#45;&gt;Node9</title>
<path fill="none" stroke="midnightblue" d="M218.76,-86C210.13,-86 201.42,-86 193.05,-86"/>
<polygon fill="midnightblue" stroke="midnightblue" points="218.85,-89.5 228.85,-86 218.85,-82.5 218.85,-89.5"/>
</g>
<!-- Node11 -->
<g id="node11" class="node">
<title>Node11</title>
<g id="a_node11"><a xlink:href="group__NTS__UOE__TEST.html#ga401bd522a62eaf39853dcc63d7080cb8" target="_top" xlink:title="Read a datagram from a DAT file.">
<polygon fill="none" stroke="black" points="229,-38.5 229,-57.5 358,-57.5 358,-38.5 229,-38.5"/>
<text text-anchor="middle" x="293.5" y="-45.5" font-family="Helvetica,sans-Serif" font-size="10.00">readDatagramFromFile</text>
</a>
</g>
</g>
<!-- Node10&#45;&gt;Node11 -->
<g id="edge10" class="edge">
<title>Node10&#45;&gt;Node11</title>
<path fill="none" stroke="midnightblue" d="M384.9,-48C375.95,-48 366.9,-48 358.17,-48"/>
<polygon fill="midnightblue" stroke="midnightblue" points="384.95,-51.5 394.95,-48 384.95,-44.5 384.95,-51.5"/>
</g>
<!-- Node12 -->
<g id="node12" class="node">
<title>Node12</title>
<g id="a_node12"><a xlink:href="group__NTS__UOE__TEST.html#ga0aea8acea94e854cc4f5d8a5b2bb6809" target="_top" xlink:title="Create the golden IPTX reference file from an input UAIF test file.">
<polygon fill="none" stroke="black" points="77,-38.5 77,-57.5 193,-57.5 193,-38.5 77,-38.5"/>
<text text-anchor="middle" x="135" y="-45.5" font-family="Helvetica,sans-Serif" font-size="10.00">createGoldenTxFiles</text>
</a>
</g>
</g>
<!-- Node11&#45;&gt;Node12 -->
<g id="edge11" class="edge">
<title>Node11&#45;&gt;Node12</title>
<path fill="none" stroke="midnightblue" d="M218.76,-48C210.13,-48 201.42,-48 193.05,-48"/>
<polygon fill="midnightblue" stroke="midnightblue" points="218.85,-51.5 228.85,-48 218.85,-44.5 218.85,-51.5"/>
</g>
<!-- Node13 -->
<g id="node13" class="node">
<title>Node13</title>
<g id="a_node13"><a xlink:href="group__NTS__UOE__TEST.html#ga0ddf1224851353fc92bfbff6f499fa97" target="_top" xlink:title="Main function.">
<polygon fill="none" stroke="black" points="0,-38.5 0,-57.5 41,-57.5 41,-38.5 0,-38.5"/>
<text text-anchor="middle" x="20.5" y="-45.5" font-family="Helvetica,sans-Serif" font-size="10.00">main</text>
</a>
</g>
</g>
<!-- Node12&#45;&gt;Node13 -->
<g id="edge12" class="edge">
<title>Node12&#45;&gt;Node13</title>
<path fill="none" stroke="midnightblue" d="M66.62,-48C57.37,-48 48.55,-48 41.19,-48"/>
<polygon fill="midnightblue" stroke="midnightblue" points="66.76,-51.5 76.76,-48 66.76,-44.5 66.76,-51.5"/>
</g>
<!-- Node15 -->
<g id="node15" class="node">
<title>Node15</title>
<g id="a_node15"><a xlink:href="group__NTS__ARP__TEST.html#ga0ddf1224851353fc92bfbff6f499fa97" target="_top" xlink:title="Main function.">
<polygon fill="none" stroke="black" points="273,-0.5 273,-19.5 314,-19.5 314,-0.5 273,-0.5"/>
<text text-anchor="middle" x="293.5" y="-7.5" font-family="Helvetica,sans-Serif" font-size="10.00">main</text>
</a>
</g>
</g>
<!-- Node14&#45;&gt;Node15 -->
<g id="edge14" class="edge">
<title>Node14&#45;&gt;Node15</title>
<path fill="none" stroke="midnightblue" d="M391.88,-10C363.65,-10 333.4,-10 314.24,-10"/>
<polygon fill="midnightblue" stroke="midnightblue" points="392.17,-13.5 402.17,-10 392.17,-6.5 392.17,-13.5"/>
</g>
<!-- Node16&#45;&gt;Node3 -->
<g id="edge16" class="edge">
<title>Node16&#45;&gt;Node3</title>
<path fill="none" stroke="midnightblue" d="M418.49,-174.22C410.34,-176.46 401.91,-178.8 394,-181 367.2,-188.46 336.38,-197.15 316.23,-202.85"/>
<polygon fill="midnightblue" stroke="midnightblue" points="419.53,-177.56 428.24,-171.53 417.67,-170.81 419.53,-177.56"/>
</g>
<!-- Node16&#45;&gt;Node6 -->
<g id="edge17" class="edge">
<title>Node16&#45;&gt;Node6</title>
<path fill="none" stroke="midnightblue" d="M393.82,-154.2C365.67,-151.03 335.19,-147.59 315.53,-145.37"/>
<polygon fill="midnightblue" stroke="midnightblue" points="393.74,-157.71 404.07,-155.35 394.52,-150.76 393.74,-157.71"/>
</g>
</g>
</svg>
        <g id="navigator" transform="translate(0 0)" fill="#404254">
                <rect fill="#f2f5e9" fill-opacity="0.5" stroke="#606060" stroke-width=".5" x="0" y="0" width="60" height="60"/>
                <use id="zoomplus" xlink:href="#zoomPlus" x="17" y="9" onmousedown="handleZoom(evt,'in')"/>
                <use id="zoomminus" xlink:href="#zoomMin" x="42" y="9" onmousedown="handleZoom(evt,'out')"/>
                <use id="reset" xlink:href="#resetDef" x="30" y="36" onmousedown="handleReset()"/>
                <g id="arrowUp" xlink:href="#dirArrow" transform="translate(30 24)" onmousedown="handlePan(0,-1)">
                  <use xlink:href="#rim" fill="#404040">
                        <set attributeName="fill" to="#808080" begin="arrowUp.mouseover" end="arrowUp.mouseout"/>
                  </use>
                  <path fill="none" stroke="white" stroke-width="1.5" d="M0,-3.0v7 M-2.5,-0.5L0,-3.0L2.5,-0.5"/>
                </g>
                <g id="arrowRight" xlink:href="#dirArrow" transform="rotate(90) translate(36 -43)" onmousedown="handlePan(1,0)">
                  <use xlink:href="#rim" fill="#404040">
                        <set attributeName="fill" to="#808080" begin="arrowRight.mouseover" end="arrowRight.mouseout"/>
                  </use>
                  <path fill="none" stroke="white" stroke-width="1.5" d="M0,-3.0v7 M-2.5,-0.5L0,-3.0L2.5,-0.5"/>
                </g>
                <g id="arrowDown" xlink:href="#dirArrow" transform="rotate(180) translate(-30 -48)" onmousedown="handlePan(0,1)">
                  <use xlink:href="#rim" fill="#404040">
                        <set attributeName="fill" to="#808080" begin="arrowDown.mouseover" end="arrowDown.mouseout"/>
                  </use>
                  <path fill="none" stroke="white" stroke-width="1.5" d="M0,-3.0v7 M-2.5,-0.5L0,-3.0L2.5,-0.5"/>
                </g>
                <g id="arrowLeft" xlink:href="#dirArrow" transform="rotate(270) translate(-36 17)" onmousedown="handlePan(-1,0)">
                  <use xlink:href="#rim" fill="#404040">
                        <set attributeName="fill" to="#808080" begin="arrowLeft.mouseover" end="arrowLeft.mouseout"/>
                  </use>
                  <path fill="none" stroke="white" stroke-width="1.5" d="M0,-3.0v7 M-2.5,-0.5L0,-3.0L2.5,-0.5"/>
                </g>
        </g>
        <svg viewBox="0 0 15 15" width="100%" height="30px" preserveAspectRatio="xMaxYMin meet">
         <g id="arrow_out" transform="scale(0.3 0.3)">
          <a xlink:href="group__NTS__SIM_gafbbf1f09f9d20139810e436ca5150104_icgraph_org.svg" target="_base">
           <rect id="button" ry="5" rx="5" y="6" x="6" height="38" width="38"
                fill="#f2f5e9" fill-opacity="0.5" stroke="#606060" stroke-width="1.0"/>
           <path id="arrow"
             d="M 11.500037,31.436501 C 11.940474,20.09759 22.043105,11.32322 32.158766,21.979434 L 37.068811,17.246167 C 37.068811,17.246167 37.088388,32 37.088388,32 L 22.160133,31.978069 C 22.160133,31.978069 26.997745,27.140456 26.997745,27.140456 C 18.528582,18.264221 13.291696,25.230495 11.500037,31.436501 z"
             style="fill:#404040;"/>
          </a>
         </g>
        </svg>
</svg>
