<?xml version="1.0" encoding="UTF-8" standalone="no"?>
<!DOCTYPE svg PUBLIC "-//W3C//DTD SVG 1.1//EN"
 "http://www.w3.org/Graphics/SVG/1.1/DTD/svg11.dtd">
<!-- Generated by graphviz version 2.43.0 (0)
 -->
<!-- Title: extract_path Pages: 1 -->
<svg width="596pt" height="66pt"
 viewBox="0.00 0.00 596.00 66.00" xmlns="http://www.w3.org/2000/svg" xmlns:xlink="http://www.w3.org/1999/xlink">
<g id="graph0" class="graph" transform="scale(1 1) rotate(0) translate(4 62)">
<title>extract_path</title>
<!-- Node1 -->
<g id="node1" class="node">
<title>Node1</title>
<g id="a_node1"><a xlink:title=" ">
<polygon fill="#bfbfbf" stroke="black" points="510,-19.5 510,-38.5 588,-38.5 588,-19.5 510,-19.5"/>
<text text-anchor="middle" x="549" y="-26.5" font-family="Helvetica,sans-Serif" font-size="10.00">extract_path</text>
</a>
</g>
</g>
<!-- Node2 -->
<g id="node2" class="node">
<title>Node2</title>
<g id="a_node2"><a xlink:href="group__FMC.html#ga8019f8bf8f3d4c93ab02b2ee9458f324" target="_top" xlink:title=" ">
<polygon fill="none" stroke="black" points="385,-19.5 385,-38.5 474,-38.5 474,-19.5 385,-19.5"/>
<text text-anchor="middle" x="429.5" y="-26.5" font-family="Helvetica,sans-Serif" font-size="10.00">parseHttpInput</text>
</a>
</g>
</g>
<!-- Node1&#45;&gt;Node2 -->
<g id="edge1" class="edge">
<title>Node1&#45;&gt;Node2</title>
<path fill="none" stroke="midnightblue" d="M499.73,-29C491.26,-29 482.5,-29 474.17,-29"/>
<polygon fill="midnightblue" stroke="midnightblue" points="499.85,-32.5 509.85,-29 499.85,-25.5 499.85,-32.5"/>
</g>
<!-- Node3 -->
<g id="node3" class="node">
<title>Node3</title>
<g id="a_node3"><a xlink:href="group__FMC.html#ga949f51f8922275846c126b31ce4dd7b7" target="_top" xlink:title=" ">
<polygon fill="none" stroke="black" points="314,-19.5 314,-38.5 349,-38.5 349,-19.5 314,-19.5"/>
<text text-anchor="middle" x="331.5" y="-26.5" font-family="Helvetica,sans-Serif" font-size="10.00">fmc</text>
</a>
</g>
</g>
<!-- Node2&#45;&gt;Node3 -->
<g id="edge2" class="edge">
<title>Node2&#45;&gt;Node3</title>
<path fill="none" stroke="midnightblue" d="M374.85,-29C365.55,-29 356.53,-29 349.22,-29"/>
<polygon fill="midnightblue" stroke="midnightblue" points="374.99,-32.5 384.99,-29 374.99,-25.5 374.99,-32.5"/>
</g>
<!-- Node4 -->
<g id="node4" class="node">
<title>Node4</title>
<g id="a_node4"><a xlink:href="group__FMC.html#gad0919afcfb3151dee3f8653944ea7185" target="_top" xlink:title="Run a single iteration of the DUT model.">
<polygon fill="none" stroke="black" points="223,-19.5 223,-38.5 278,-38.5 278,-19.5 223,-19.5"/>
<text text-anchor="middle" x="250.5" y="-26.5" font-family="Helvetica,sans-Serif" font-size="10.00">stepDut</text>
</a>
</g>
</g>
<!-- Node3&#45;&gt;Node4 -->
<g id="edge3" class="edge">
<title>Node3&#45;&gt;Node4</title>
<path fill="none" stroke="midnightblue" d="M303.57,-29C295.37,-29 286.36,-29 278.18,-29"/>
<polygon fill="midnightblue" stroke="midnightblue" points="303.75,-32.5 313.75,-29 303.75,-25.5 303.75,-32.5"/>
</g>
<!-- Node5 -->
<g id="node5" class="node">
<title>Node5</title>
<g id="a_node5"><a xlink:href="group__FMC.html#gae66f6b31b5ad750f1fe042a706a4e3d4" target="_top" xlink:title=" ">
<polygon fill="none" stroke="black" points="146,-19.5 146,-38.5 187,-38.5 187,-19.5 146,-19.5"/>
<text text-anchor="middle" x="166.5" y="-26.5" font-family="Helvetica,sans-Serif" font-size="10.00">main</text>
</a>
</g>
</g>
<!-- Node4&#45;&gt;Node5 -->
<g id="edge4" class="edge">
<title>Node4&#45;&gt;Node5</title>
<path fill="none" stroke="midnightblue" d="M212.57,-29C203.8,-29 194.77,-29 187.13,-29"/>
<polygon fill="midnightblue" stroke="midnightblue" points="212.65,-32.5 222.65,-29 212.65,-25.5 212.65,-32.5"/>
</g>
<!-- Node6 -->
<g id="node6" class="node">
<title>Node6</title>
<g id="a_node6"><a xlink:href="namespacevision.html#a2f83e805a237a36b72e6d8abba89cff0" target="_top" xlink:title=" ">
<polygon fill="none" stroke="black" points="0,-38.5 0,-57.5 110,-57.5 110,-38.5 0,-38.5"/>
<text text-anchor="middle" x="55" y="-45.5" font-family="Helvetica,sans-Serif" font-size="10.00">vision.median_blur</text>
</a>
</g>
</g>
<!-- Node5&#45;&gt;Node6 -->
<g id="edge5" class="edge">
<title>Node5&#45;&gt;Node6</title>
<path fill="none" stroke="midnightblue" d="M136.01,-34.12C128.01,-35.51 119.08,-37.05 110.17,-38.6"/>
<polygon fill="midnightblue" stroke="midnightblue" points="136.67,-37.55 145.92,-32.4 135.47,-30.66 136.67,-37.55"/>
</g>
<!-- Node7 -->
<g id="node7" class="node">
<title>Node7</title>
<g id="a_node7"><a xlink:href="namespacecustom.html#a5765ed90d0428e046050888cd34cf2b7" target="_top" xlink:title=" ">
<polygon fill="none" stroke="black" points="2,-0.5 2,-19.5 108,-19.5 108,-0.5 2,-0.5"/>
<text text-anchor="middle" x="55" y="-7.5" font-family="Helvetica,sans-Serif" font-size="10.00">custom.uppercase</text>
</a>
</g>
</g>
<!-- Node5&#45;&gt;Node7 -->
<g id="edge6" class="edge">
<title>Node5&#45;&gt;Node7</title>
<path fill="none" stroke="midnightblue" d="M136.06,-23.89C127.49,-22.4 117.84,-20.73 108.3,-19.07"/>
<polygon fill="midnightblue" stroke="midnightblue" points="135.47,-27.34 145.92,-25.6 136.67,-20.45 135.47,-27.34"/>
</g>
</g>
</svg>
