<?xml version="1.0" encoding="UTF-8" standalone="no"?>
<!DOCTYPE svg PUBLIC "-//W3C//DTD SVG 1.1//EN"
 "http://www.w3.org/Graphics/SVG/1.1/DTD/svg11.dtd">
<!-- Generated by graphviz version 2.43.0 (0)
 -->
<!-- Title: rx_app_interface Pages: 1 -->
<!--zoomable 369 -->
<svg id="main" version="1.1" xmlns="http://www.w3.org/2000/svg" xmlns:xlink="http://www.w3.org/1999/xlink" xml:space="preserve" onload="init(evt)">
<style type="text/css"><![CDATA[
.edge:hover path { stroke: red; }
.edge:hover polygon { stroke: red; fill: red; }
]]></style>
<script type="text/javascript"><![CDATA[
var edges = document.getElementsByTagName('g');
if (edges && edges.length) {
  for (var i=0;i<edges.length;i++) {
    if (edges[i].id.substr(0,4)=='edge') {
      edges[i].setAttribute('class','edge');
    }
  }
}
]]></script>
        <defs>
                <circle id="rim" cx="0" cy="0" r="7"/>
                <circle id="rim2" cx="0" cy="0" r="3.5"/>
                <g id="zoomPlus">
                        <use xlink:href="#rim" fill="#404040">
                                <set attributeName="fill" to="#808080" begin="zoomplus.mouseover" end="zoomplus.mouseout"/>
                        </use>
                        <path d="M-4,0h8M0,-4v8" fill="none" stroke="white" stroke-width="1.5" pointer-events="none"/>
                </g>
                <g id="zoomMin">
                        <use xlink:href="#rim" fill="#404040">
                                <set attributeName="fill" to="#808080" begin="zoomminus.mouseover" end="zoomminus.mouseout"/>
                        </use>
                        <path d="M-4,0h8" fill="none" stroke="white" stroke-width="1.5" pointer-events="none"/>
                </g>
                <g id="dirArrow">
                        <path fill="none" stroke="white" stroke-width="1.5" d="M0,-3.0v7 M-2.5,-0.5L0,-3.0L2.5,-0.5"/>
                </g>
               <g id="resetDef">
                       <use xlink:href="#rim2" fill="#404040">
                               <set attributeName="fill" to="#808080" begin="reset.mouseover" end="reset.mouseout"/>
                       </use>
               </g>
        </defs>

<script type="text/javascript">
var viewWidth = 613;
var viewHeight = 369;
var sectionId = 'dynsection-73';
</script>
<script xlink:href="svgpan.js"/>
<svg id="graph" class="graph">
<g id="viewport">
<title>rx_app_interface</title>
<!-- Node1 -->
<g id="node1" class="node">
<title>Node1</title>
<g id="a_node1"><a xlink:title="Rx Application Interface (RAi)">
<polygon fill="#bfbfbf" stroke="black" points="0,-95.5 0,-114.5 98,-114.5 98,-95.5 0,-95.5"/>
<text text-anchor="middle" x="49" y="-102.5" font-family="Helvetica,sans-Serif" font-size="10.00">rx_app_interface</text>
</a>
</g>
</g>
<!-- Node2 -->
<g id="node2" class="node">
<title>Node2</title>
<g id="a_node2"><a xlink:href="group__NTS__TOE.html#gae9c5ef779baf69d1ea4713cdd085f3e0" target="_top" xlink:title="Application Segment Stitcher (Ass)">
<polygon fill="none" stroke="black" points="134,-171.5 134,-190.5 256,-190.5 256,-171.5 134,-171.5"/>
<text text-anchor="middle" x="195" y="-178.5" font-family="Helvetica,sans-Serif" font-size="10.00">pAppSegmentStitcher</text>
</a>
</g>
</g>
<!-- Node1&#45;&gt;Node2 -->
<g id="edge1" class="edge">
<title>Node1&#45;&gt;Node2</title>
<path fill="none" stroke="midnightblue" d="M61.84,-114.68C77.52,-127.1 106.41,-148.62 134,-162 138.55,-164.21 143.42,-166.24 148.35,-168.08"/>
<polygon fill="midnightblue" stroke="midnightblue" points="147.21,-171.4 157.81,-171.4 149.53,-164.79 147.21,-171.4"/>
</g>
<!-- Node15 -->
<g id="node15" class="node">
<title>Node15</title>
<g id="a_node15"><a xlink:href="group__NTS__TOE.html#gac85951c14e4dc9f6bca17faba5d97d36" target="_top" xlink:title="Listen Application Interface (Lai)">
<polygon fill="none" stroke="black" points="144.5,-133.5 144.5,-152.5 245.5,-152.5 245.5,-133.5 144.5,-133.5"/>
<text text-anchor="middle" x="195" y="-140.5" font-family="Helvetica,sans-Serif" font-size="10.00">pLsnAppInterface</text>
</a>
</g>
</g>
<!-- Node1&#45;&gt;Node15 -->
<g id="edge17" class="edge">
<title>Node1&#45;&gt;Node15</title>
<path fill="none" stroke="midnightblue" d="M86.34,-114.59C105.08,-119.54 128.14,-125.62 148.11,-130.89"/>
<polygon fill="midnightblue" stroke="midnightblue" points="147.36,-134.31 157.92,-133.48 149.15,-127.54 147.36,-134.31"/>
</g>
<!-- Node16 -->
<g id="node16" class="node">
<title>Node16</title>
<g id="a_node16"><a xlink:href="group__NTS__TOE.html#ga623d2fbaf10970a15e33d3d1146970a2" target="_top" xlink:title="Rx Notification Multiplexer (Nmx)">
<polygon fill="none" stroke="black" points="145,-95.5 145,-114.5 245,-114.5 245,-95.5 145,-95.5"/>
<text text-anchor="middle" x="195" y="-102.5" font-family="Helvetica,sans-Serif" font-size="10.00">pNotificationMux</text>
</a>
</g>
</g>
<!-- Node1&#45;&gt;Node16 -->
<g id="edge18" class="edge">
<title>Node1&#45;&gt;Node16</title>
<path fill="none" stroke="midnightblue" d="M98.35,-105C109.85,-105 122.26,-105 134.2,-105"/>
<polygon fill="midnightblue" stroke="midnightblue" points="134.55,-108.5 144.55,-105 134.55,-101.5 134.55,-108.5"/>
</g>
<!-- Node17 -->
<g id="node17" class="node">
<title>Node17</title>
<g id="a_node17"><a xlink:href="group__NTS__TOE.html#gade183c10c8a43bdc21b5a2625b01ff9c" target="_top" xlink:title="Rx Application Stream (RAs)">
<polygon fill="none" stroke="black" points="150.5,-57.5 150.5,-76.5 239.5,-76.5 239.5,-57.5 150.5,-57.5"/>
<text text-anchor="middle" x="195" y="-64.5" font-family="Helvetica,sans-Serif" font-size="10.00">pRxAppStream</text>
</a>
</g>
</g>
<!-- Node1&#45;&gt;Node17 -->
<g id="edge19" class="edge">
<title>Node1&#45;&gt;Node17</title>
<path fill="none" stroke="midnightblue" d="M86.34,-95.41C105.08,-90.46 128.14,-84.38 148.11,-79.11"/>
<polygon fill="midnightblue" stroke="midnightblue" points="149.15,-82.46 157.92,-76.52 147.36,-75.69 149.15,-82.46"/>
</g>
<!-- Node18 -->
<g id="node18" class="node">
<title>Node18</title>
<g id="a_node18"><a xlink:href="group__NTS__TOE.html#ga1ed9401f37523e6519f504777c42e3a2" target="_top" xlink:title="Rx Memory Reader (Mrd)">
<polygon fill="none" stroke="black" points="140,-19.5 140,-38.5 250,-38.5 250,-19.5 140,-19.5"/>
<text text-anchor="middle" x="195" y="-26.5" font-family="Helvetica,sans-Serif" font-size="10.00">pRxMemoryReader</text>
</a>
</g>
</g>
<!-- Node1&#45;&gt;Node18 -->
<g id="edge20" class="edge">
<title>Node1&#45;&gt;Node18</title>
<path fill="none" stroke="midnightblue" d="M61.84,-95.32C77.52,-82.9 106.41,-61.38 134,-48 138.55,-45.79 143.42,-43.76 148.35,-41.92"/>
<polygon fill="midnightblue" stroke="midnightblue" points="149.53,-45.21 157.81,-38.6 147.21,-38.6 149.53,-45.21"/>
</g>
<!-- Node3 -->
<g id="node3" class="node">
<title>Node3</title>
<g id="a_node3"><a xlink:href="classAxisRaw.html#a7034bcf8cf143fb2bb9bfc46e70a7d6b" target="_top" xlink:title=" ">
<polygon fill="none" stroke="black" points="466.5,-337.5 466.5,-356.5 591.5,-356.5 591.5,-337.5 466.5,-337.5"/>
<text text-anchor="middle" x="529" y="-344.5" font-family="Helvetica,sans-Serif" font-size="10.00">AxisRaw::getLE_TData</text>
</a>
</g>
</g>
<!-- Node2&#45;&gt;Node3 -->
<g id="edge2" class="edge">
<title>Node2&#45;&gt;Node3</title>
<path fill="none" stroke="midnightblue" d="M198.72,-190.73C207.12,-218.74 235.56,-299.68 292,-333 345.24,-364.43 417.52,-363.72 468.02,-357.81"/>
<polygon fill="midnightblue" stroke="midnightblue" points="468.65,-361.26 478.13,-356.53 467.77,-354.32 468.65,-361.26"/>
</g>
<!-- Node4 -->
<g id="node4" class="node">
<title>Node4</title>
<g id="a_node4"><a xlink:href="classAxisRaw.html#a4becd0ad3c51e3db2749e888f2f72e31" target="_top" xlink:title=" ">
<polygon fill="none" stroke="black" points="466,-294.5 466,-313.5 592,-313.5 592,-294.5 466,-294.5"/>
<text text-anchor="middle" x="529" y="-301.5" font-family="Helvetica,sans-Serif" font-size="10.00">AxisRaw::getLE_TKeep</text>
</a>
</g>
</g>
<!-- Node2&#45;&gt;Node4 -->
<g id="edge3" class="edge">
<title>Node2&#45;&gt;Node4</title>
<path fill="none" stroke="midnightblue" d="M207.64,-190.72C224.96,-204.7 259.03,-230.41 292,-245 344.64,-268.29 408.13,-283.5 455.99,-292.64"/>
<polygon fill="midnightblue" stroke="midnightblue" points="455.49,-296.11 465.96,-294.5 456.77,-289.22 455.49,-296.11"/>
</g>
<!-- Node5 -->
<g id="node5" class="node">
<title>Node5</title>
<g id="a_node5"><a xlink:href="classAxisRaw.html#af8208752dcbb14911c5fda27d90a0ef4" target="_top" xlink:title=" ">
<polygon fill="none" stroke="black" points="468,-247.5 468,-266.5 590,-266.5 590,-247.5 468,-247.5"/>
<text text-anchor="middle" x="529" y="-254.5" font-family="Helvetica,sans-Serif" font-size="10.00">AxisRaw::getLE_TLast</text>
</a>
</g>
</g>
<!-- Node2&#45;&gt;Node5 -->
<g id="edge4" class="edge">
<title>Node2&#45;&gt;Node5</title>
<path fill="none" stroke="midnightblue" d="M216.53,-190.64C235.67,-199.26 265.21,-211.64 292,-219 346.62,-234.01 410.08,-243.82 457.43,-249.7"/>
<polygon fill="midnightblue" stroke="midnightblue" points="457.23,-253.21 467.58,-250.94 458.07,-246.26 457.23,-253.21"/>
</g>
<!-- Node6 -->
<g id="node6" class="node">
<title>Node6</title>
<g id="a_node6"><a xlink:href="classAxisRaw.html#acadbd2b7e00e34417c426fa91c8d7c51" target="_top" xlink:title=" ">
<polygon fill="none" stroke="black" points="306,-190.5 306,-209.5 403,-209.5 403,-190.5 306,-190.5"/>
<text text-anchor="middle" x="354.5" y="-197.5" font-family="Helvetica,sans-Serif" font-size="10.00">AxisRaw::getLen</text>
</a>
</g>
</g>
<!-- Node2&#45;&gt;Node6 -->
<g id="edge5" class="edge">
<title>Node2&#45;&gt;Node6</title>
<path fill="none" stroke="midnightblue" d="M256.44,-188.29C269.31,-189.84 282.87,-191.48 295.64,-193.02"/>
<polygon fill="midnightblue" stroke="midnightblue" points="295.34,-196.51 305.68,-194.23 296.17,-189.56 295.34,-196.51"/>
</g>
<!-- Node8 -->
<g id="node8" class="node">
<title>Node8</title>
<g id="a_node8"><a xlink:href="classAxisRaw.html#a42cd520c9b19f7c2fc6d2fc204cb30b7" target="_top" xlink:title=" ">
<polygon fill="none" stroke="black" points="301.5,-152.5 301.5,-171.5 407.5,-171.5 407.5,-152.5 301.5,-152.5"/>
<text text-anchor="middle" x="354.5" y="-159.5" font-family="Helvetica,sans-Serif" font-size="10.00">AxisRaw::getTLast</text>
</a>
</g>
</g>
<!-- Node2&#45;&gt;Node8 -->
<g id="edge7" class="edge">
<title>Node2&#45;&gt;Node8</title>
<path fill="none" stroke="midnightblue" d="M256.44,-173.71C267.92,-172.32 279.94,-170.87 291.46,-169.48"/>
<polygon fill="midnightblue" stroke="midnightblue" points="291.92,-172.95 301.43,-168.28 291.08,-166 291.92,-172.95"/>
</g>
<!-- Node9 -->
<g id="node9" class="node">
<title>Node9</title>
<g id="a_node9"><a xlink:href="group__NTS.html#ga5560d80c548e85eb53223a5e99410b7b" target="_top" xlink:title="Prints an Axis raw data chunk (used for debugging).">
<polygon fill="none" stroke="black" points="314,-304.5 314,-323.5 395,-323.5 395,-304.5 314,-304.5"/>
<text text-anchor="middle" x="354.5" y="-311.5" font-family="Helvetica,sans-Serif" font-size="10.00">printAxisRaw</text>
</a>
</g>
</g>
<!-- Node2&#45;&gt;Node9 -->
<g id="edge8" class="edge">
<title>Node2&#45;&gt;Node9</title>
<path fill="none" stroke="midnightblue" d="M202.04,-190.53C215.68,-211.33 250.88,-261.24 292,-290 297.74,-294.02 304.25,-297.48 310.83,-300.43"/>
<polygon fill="midnightblue" stroke="midnightblue" points="309.86,-303.82 320.44,-304.39 312.53,-297.35 309.86,-303.82"/>
</g>
<!-- Node10 -->
<g id="node10" class="node">
<title>Node10</title>
<g id="a_node10"><a xlink:href="classAxisRaw.html#aa3f30a26f59cb6430ffd9196ab30c6d6" target="_top" xlink:title=" ">
<polygon fill="none" stroke="black" points="292,-114.5 292,-133.5 417,-133.5 417,-114.5 292,-114.5"/>
<text text-anchor="middle" x="354.5" y="-121.5" font-family="Helvetica,sans-Serif" font-size="10.00">AxisRaw::setLE_TData</text>
</a>
</g>
</g>
<!-- Node2&#45;&gt;Node10 -->
<g id="edge12" class="edge">
<title>Node2&#45;&gt;Node10</title>
<path fill="none" stroke="midnightblue" d="M229.71,-171.49C238.38,-168.73 247.63,-165.5 256,-162 272.69,-155.02 275.29,-149.92 292,-143 297.42,-140.75 303.21,-138.63 308.98,-136.67"/>
<polygon fill="midnightblue" stroke="midnightblue" points="310.19,-139.96 318.62,-133.54 308.03,-133.3 310.19,-139.96"/>
</g>
<!-- Node11 -->
<g id="node11" class="node">
<title>Node11</title>
<g id="a_node11"><a xlink:href="classAxisRaw.html#ae8f59ce9fd52536106de4db99df4558e" target="_top" xlink:title=" ">
<polygon fill="none" stroke="black" points="292,-76.5 292,-95.5 417,-95.5 417,-76.5 292,-76.5"/>
<text text-anchor="middle" x="354.5" y="-83.5" font-family="Helvetica,sans-Serif" font-size="10.00">AxisRaw::setLE_TKeep</text>
</a>
</g>
</g>
<!-- Node2&#45;&gt;Node11 -->
<g id="edge13" class="edge">
<title>Node2&#45;&gt;Node11</title>
<path fill="none" stroke="midnightblue" d="M239.15,-171.43C245.16,-168.96 250.98,-165.87 256,-162 279.72,-143.7 268.21,-123.22 292,-105 294.45,-103.12 297.09,-101.43 299.84,-99.91"/>
<polygon fill="midnightblue" stroke="midnightblue" points="301.43,-103.03 308.96,-95.57 298.42,-96.7 301.43,-103.03"/>
</g>
<!-- Node12 -->
<g id="node12" class="node">
<title>Node12</title>
<g id="a_node12"><a xlink:href="classAxisRaw.html#a7fd855df91177afa363d72b3eb17af25" target="_top" xlink:title=" ">
<polygon fill="none" stroke="black" points="293.5,-38.5 293.5,-57.5 415.5,-57.5 415.5,-38.5 293.5,-38.5"/>
<text text-anchor="middle" x="354.5" y="-45.5" font-family="Helvetica,sans-Serif" font-size="10.00">AxisRaw::setLE_TLast</text>
</a>
</g>
</g>
<!-- Node2&#45;&gt;Node12 -->
<g id="edge14" class="edge">
<title>Node2&#45;&gt;Node12</title>
<path fill="none" stroke="midnightblue" d="M241.72,-171.47C246.95,-169.01 251.87,-165.9 256,-162 288.8,-130.97 259.09,-97.91 292,-67 293.69,-65.41 295.5,-63.96 297.42,-62.63"/>
<polygon fill="midnightblue" stroke="midnightblue" points="299.4,-65.53 306.34,-57.53 295.92,-59.45 299.4,-65.53"/>
</g>
<!-- Node13 -->
<g id="node13" class="node">
<title>Node13</title>
<g id="a_node13"><a xlink:href="classAxisRaw.html#a1238c47d46a7d858c542f55797dfc9f2" target="_top" xlink:title=" ">
<polygon fill="none" stroke="black" points="302,-0.5 302,-19.5 407,-19.5 407,-0.5 302,-0.5"/>
<text text-anchor="middle" x="354.5" y="-7.5" font-family="Helvetica,sans-Serif" font-size="10.00">AxisRaw::setTLast</text>
</a>
</g>
</g>
<!-- Node2&#45;&gt;Node13 -->
<g id="edge15" class="edge">
<title>Node2&#45;&gt;Node13</title>
<path fill="none" stroke="midnightblue" d="M242.98,-171.4C247.81,-168.95 252.3,-165.87 256,-162 298.38,-117.79 249.47,-73.06 292,-29 293.4,-27.55 294.9,-26.22 296.49,-24.98"/>
<polygon fill="midnightblue" stroke="midnightblue" points="298.45,-27.88 305.05,-19.6 294.72,-21.96 298.45,-27.88"/>
</g>
<!-- Node7 -->
<g id="node7" class="node">
<title>Node7</title>
<g id="a_node7"><a xlink:href="classAxisRaw.html#aec8718820338b67381cce084ba407063" target="_top" xlink:title=" ">
<polygon fill="none" stroke="black" points="471.5,-190.5 471.5,-209.5 586.5,-209.5 586.5,-190.5 471.5,-190.5"/>
<text text-anchor="middle" x="529" y="-197.5" font-family="Helvetica,sans-Serif" font-size="10.00">AxisRaw::keepToLen</text>
</a>
</g>
</g>
<!-- Node6&#45;&gt;Node7 -->
<g id="edge6" class="edge">
<title>Node6&#45;&gt;Node7</title>
<path fill="none" stroke="midnightblue" d="M403.09,-200C421.1,-200 441.93,-200 461.37,-200"/>
<polygon fill="midnightblue" stroke="midnightblue" points="461.38,-203.5 471.38,-200 461.38,-196.5 461.38,-203.5"/>
</g>
<!-- Node9&#45;&gt;Node3 -->
<g id="edge9" class="edge">
<title>Node9&#45;&gt;Node3</title>
<path fill="none" stroke="midnightblue" d="M395.07,-321.57C416.66,-325.7 443.83,-330.9 467.96,-335.51"/>
<polygon fill="midnightblue" stroke="midnightblue" points="467.62,-339.01 478.1,-337.45 468.93,-332.14 467.62,-339.01"/>
</g>
<!-- Node9&#45;&gt;Node4 -->
<g id="edge10" class="edge">
<title>Node9&#45;&gt;Node4</title>
<path fill="none" stroke="midnightblue" d="M395.07,-311.71C413.11,-310.66 435.04,-309.39 455.85,-308.18"/>
<polygon fill="midnightblue" stroke="midnightblue" points="456.17,-311.67 465.95,-307.6 455.77,-304.68 456.17,-311.67"/>
</g>
<!-- Node9&#45;&gt;Node5 -->
<g id="edge11" class="edge">
<title>Node9&#45;&gt;Node5</title>
<path fill="none" stroke="midnightblue" d="M384.37,-304.46C413.11,-294.97 457.39,-280.33 489.18,-269.83"/>
<polygon fill="midnightblue" stroke="midnightblue" points="490.64,-273.03 499.03,-266.57 488.44,-266.39 490.64,-273.03"/>
</g>
<!-- Node14 -->
<g id="node14" class="node">
<title>Node14</title>
<g id="a_node14"><a xlink:href="classAxisRaw.html#a4e8ed9ad2072a6563870f9344c362a4e" target="_top" xlink:title=" ">
<polygon fill="none" stroke="black" points="453,-0.5 453,-19.5 605,-19.5 605,-0.5 453,-0.5"/>
<text text-anchor="middle" x="529" y="-7.5" font-family="Helvetica,sans-Serif" font-size="10.00">AxisRaw::clearUnusedBytes</text>
</a>
</g>
</g>
<!-- Node13&#45;&gt;Node14 -->
<g id="edge16" class="edge">
<title>Node13&#45;&gt;Node14</title>
<path fill="none" stroke="midnightblue" d="M407.26,-10C418.42,-10 430.51,-10 442.57,-10"/>
<polygon fill="midnightblue" stroke="midnightblue" points="442.68,-13.5 452.68,-10 442.68,-6.5 442.68,-13.5"/>
</g>
</g>
</svg>
        <g id="navigator" transform="translate(0 0)" fill="#404254">
                <rect fill="#f2f5e9" fill-opacity="0.5" stroke="#606060" stroke-width=".5" x="0" y="0" width="60" height="60"/>
                <use id="zoomplus" xlink:href="#zoomPlus" x="17" y="9" onmousedown="handleZoom(evt,'in')"/>
                <use id="zoomminus" xlink:href="#zoomMin" x="42" y="9" onmousedown="handleZoom(evt,'out')"/>
                <use id="reset" xlink:href="#resetDef" x="30" y="36" onmousedown="handleReset()"/>
                <g id="arrowUp" xlink:href="#dirArrow" transform="translate(30 24)" onmousedown="handlePan(0,-1)">
                  <use xlink:href="#rim" fill="#404040">
                        <set attributeName="fill" to="#808080" begin="arrowUp.mouseover" end="arrowUp.mouseout"/>
                  </use>
                  <path fill="none" stroke="white" stroke-width="1.5" d="M0,-3.0v7 M-2.5,-0.5L0,-3.0L2.5,-0.5"/>
                </g>
                <g id="arrowRight" xlink:href="#dirArrow" transform="rotate(90) translate(36 -43)" onmousedown="handlePan(1,0)">
                  <use xlink:href="#rim" fill="#404040">
                        <set attributeName="fill" to="#808080" begin="arrowRight.mouseover" end="arrowRight.mouseout"/>
                  </use>
                  <path fill="none" stroke="white" stroke-width="1.5" d="M0,-3.0v7 M-2.5,-0.5L0,-3.0L2.5,-0.5"/>
                </g>
                <g id="arrowDown" xlink:href="#dirArrow" transform="rotate(180) translate(-30 -48)" onmousedown="handlePan(0,1)">
                  <use xlink:href="#rim" fill="#404040">
                        <set attributeName="fill" to="#808080" begin="arrowDown.mouseover" end="arrowDown.mouseout"/>
                  </use>
                  <path fill="none" stroke="white" stroke-width="1.5" d="M0,-3.0v7 M-2.5,-0.5L0,-3.0L2.5,-0.5"/>
                </g>
                <g id="arrowLeft" xlink:href="#dirArrow" transform="rotate(270) translate(-36 17)" onmousedown="handlePan(-1,0)">
                  <use xlink:href="#rim" fill="#404040">
                        <set attributeName="fill" to="#808080" begin="arrowLeft.mouseover" end="arrowLeft.mouseout"/>
                  </use>
                  <path fill="none" stroke="white" stroke-width="1.5" d="M0,-3.0v7 M-2.5,-0.5L0,-3.0L2.5,-0.5"/>
                </g>
        </g>
        <svg viewBox="0 0 15 15" width="100%" height="30px" preserveAspectRatio="xMaxYMin meet">
         <g id="arrow_out" transform="scale(0.3 0.3)">
          <a xlink:href="group__NTS__TOE_gab4f7446f871fb2d6ef4ff4abf028af96_cgraph_org.svg" target="_base">
           <rect id="button" ry="5" rx="5" y="6" x="6" height="38" width="38"
                fill="#f2f5e9" fill-opacity="0.5" stroke="#606060" stroke-width="1.0"/>
           <path id="arrow"
             d="M 11.500037,31.436501 C 11.940474,20.09759 22.043105,11.32322 32.158766,21.979434 L 37.068811,17.246167 C 37.068811,17.246167 37.088388,32 37.088388,32 L 22.160133,31.978069 C 22.160133,31.978069 26.997745,27.140456 26.997745,27.140456 C 18.528582,18.264221 13.291696,25.230495 11.500037,31.436501 z"
             style="fill:#404040;"/>
          </a>
         </g>
        </svg>
</svg>
