<?xml version="1.0" encoding="UTF-8" standalone="no"?>
<!DOCTYPE svg PUBLIC "-//W3C//DTD SVG 1.1//EN"
 "http://www.w3.org/Graphics/SVG/1.1/DTD/svg11.dtd">
<!-- Generated by graphviz version 2.43.0 (0)
 -->
<!-- Title: pTXPath Pages: 1 -->
<svg width="362pt" height="104pt"
 viewBox="0.00 0.00 362.00 104.00" xmlns="http://www.w3.org/2000/svg" xmlns:xlink="http://www.w3.org/1999/xlink">
<g id="graph0" class="graph" transform="scale(1 1) rotate(0) translate(4 100)">
<title>pTXPath</title>
<!-- Node1 -->
<g id="node1" class="node">
<title>Node1</title>
<g id="a_node1"><a xlink:title="Transmit Path &#45; From THIS to SHELL.">
<polygon fill="#bfbfbf" stroke="black" points="298,-38.5 298,-57.5 354,-57.5 354,-38.5 298,-38.5"/>
<text text-anchor="middle" x="326" y="-45.5" font-family="Helvetica,sans-Serif" font-size="10.00">pTXPath</text>
</a>
</g>
</g>
<!-- Node2 -->
<g id="node2" class="node">
<title>Node2</title>
<g id="a_node2"><a xlink:href="group__MemtestHLS.html#ga4d940b4971567418b1b4af9f20656a11" target="_top" xlink:title="Main process of the Memtest Application directives.">
<polygon fill="none" stroke="black" points="184.5,-76.5 184.5,-95.5 245.5,-95.5 245.5,-76.5 184.5,-76.5"/>
<text text-anchor="middle" x="215" y="-83.5" font-family="Helvetica,sans-Serif" font-size="10.00">memtest</text>
</a>
</g>
</g>
<!-- Node1&#45;&gt;Node2 -->
<g id="edge1" class="edge">
<title>Node1&#45;&gt;Node2</title>
<path fill="none" stroke="midnightblue" d="M287.99,-60.9C273.33,-66.01 256.79,-71.78 243.25,-76.5"/>
<polygon fill="midnightblue" stroke="midnightblue" points="289.49,-64.09 297.78,-57.49 287.18,-57.48 289.49,-64.09"/>
</g>
<!-- Node5 -->
<g id="node5" class="node">
<title>Node5</title>
<g id="a_node5"><a xlink:href="group__SobelHLS.html#gae2400f612ea70da70714be60afc52630" target="_top" xlink:title="Main process of the Sobel Application directives.">
<polygon fill="none" stroke="black" points="193.5,-38.5 193.5,-57.5 236.5,-57.5 236.5,-38.5 193.5,-38.5"/>
<text text-anchor="middle" x="215" y="-45.5" font-family="Helvetica,sans-Serif" font-size="10.00">sobel</text>
</a>
</g>
</g>
<!-- Node1&#45;&gt;Node5 -->
<g id="edge4" class="edge">
<title>Node1&#45;&gt;Node5</title>
<path fill="none" stroke="midnightblue" d="M287.57,-48C270.55,-48 251.06,-48 236.72,-48"/>
<polygon fill="midnightblue" stroke="midnightblue" points="287.78,-51.5 297.78,-48 287.78,-44.5 287.78,-51.5"/>
</g>
<!-- Node8 -->
<g id="node8" class="node">
<title>Node8</title>
<g id="a_node8"><a xlink:href="group__WarpTransformHLS.html#ga629580531a041ab97320a4e4c73f20e0" target="_top" xlink:title="Main process of the WarpTransform Application directives.">
<polygon fill="none" stroke="black" points="168,-0.5 168,-19.5 262,-19.5 262,-0.5 168,-0.5"/>
<text text-anchor="middle" x="215" y="-7.5" font-family="Helvetica,sans-Serif" font-size="10.00">warp_transform</text>
</a>
</g>
</g>
<!-- Node1&#45;&gt;Node8 -->
<g id="edge7" class="edge">
<title>Node1&#45;&gt;Node8</title>
<path fill="none" stroke="midnightblue" d="M287.99,-35.1C273.33,-29.99 256.79,-24.22 243.25,-19.5"/>
<polygon fill="midnightblue" stroke="midnightblue" points="287.18,-38.52 297.78,-38.51 289.49,-31.91 287.18,-38.52"/>
</g>
<!-- Node3 -->
<g id="node3" class="node">
<title>Node3</title>
<g id="a_node3"><a xlink:href="group__MemtestTB.html#gad0919afcfb3151dee3f8653944ea7185" target="_top" xlink:title="Run a single iteration of the DUT model.">
<polygon fill="none" stroke="black" points="77,-76.5 77,-95.5 132,-95.5 132,-76.5 77,-76.5"/>
<text text-anchor="middle" x="104.5" y="-83.5" font-family="Helvetica,sans-Serif" font-size="10.00">stepDut</text>
</a>
</g>
</g>
<!-- Node2&#45;&gt;Node3 -->
<g id="edge2" class="edge">
<title>Node2&#45;&gt;Node3</title>
<path fill="none" stroke="midnightblue" d="M174.01,-86C160.06,-86 144.75,-86 132.15,-86"/>
<polygon fill="midnightblue" stroke="midnightblue" points="174.35,-89.5 184.35,-86 174.35,-82.5 174.35,-89.5"/>
</g>
<!-- Node4 -->
<g id="node4" class="node">
<title>Node4</title>
<g id="a_node4"><a xlink:href="group__MemtestTB.html#ga3c04138a5bfe5d72780bb7e82a18e627" target="_top" xlink:title="Main testbench of Hrris.">
<polygon fill="none" stroke="black" points="0,-76.5 0,-95.5 41,-95.5 41,-76.5 0,-76.5"/>
<text text-anchor="middle" x="20.5" y="-83.5" font-family="Helvetica,sans-Serif" font-size="10.00">main</text>
</a>
</g>
</g>
<!-- Node3&#45;&gt;Node4 -->
<g id="edge3" class="edge">
<title>Node3&#45;&gt;Node4</title>
<path fill="none" stroke="midnightblue" d="M66.57,-86C57.8,-86 48.77,-86 41.13,-86"/>
<polygon fill="midnightblue" stroke="midnightblue" points="66.65,-89.5 76.65,-86 66.65,-82.5 66.65,-89.5"/>
</g>
<!-- Node6 -->
<g id="node6" class="node">
<title>Node6</title>
<g id="a_node6"><a xlink:href="group__SobelTB.html#gad0919afcfb3151dee3f8653944ea7185" target="_top" xlink:title="Run a single iteration of the DUT model.">
<polygon fill="none" stroke="black" points="77,-38.5 77,-57.5 132,-57.5 132,-38.5 77,-38.5"/>
<text text-anchor="middle" x="104.5" y="-45.5" font-family="Helvetica,sans-Serif" font-size="10.00">stepDut</text>
</a>
</g>
</g>
<!-- Node5&#45;&gt;Node6 -->
<g id="edge5" class="edge">
<title>Node5&#45;&gt;Node6</title>
<path fill="none" stroke="midnightblue" d="M182.88,-48C166.88,-48 147.58,-48 132.25,-48"/>
<polygon fill="midnightblue" stroke="midnightblue" points="183.34,-51.5 193.34,-48 183.34,-44.5 183.34,-51.5"/>
</g>
<!-- Node7 -->
<g id="node7" class="node">
<title>Node7</title>
<g id="a_node7"><a xlink:href="group__SobelTB.html#ga3c04138a5bfe5d72780bb7e82a18e627" target="_top" xlink:title="Main testbench of Hrris.">
<polygon fill="none" stroke="black" points="0,-38.5 0,-57.5 41,-57.5 41,-38.5 0,-38.5"/>
<text text-anchor="middle" x="20.5" y="-45.5" font-family="Helvetica,sans-Serif" font-size="10.00">main</text>
</a>
</g>
</g>
<!-- Node6&#45;&gt;Node7 -->
<g id="edge6" class="edge">
<title>Node6&#45;&gt;Node7</title>
<path fill="none" stroke="midnightblue" d="M66.57,-48C57.8,-48 48.77,-48 41.13,-48"/>
<polygon fill="midnightblue" stroke="midnightblue" points="66.65,-51.5 76.65,-48 66.65,-44.5 66.65,-51.5"/>
</g>
</g>
</svg>
