<?xml version="1.0" encoding="UTF-8" standalone="no"?>
<!DOCTYPE svg PUBLIC "-//W3C//DTD SVG 1.1//EN"
 "http://www.w3.org/Graphics/SVG/1.1/DTD/svg11.dtd">
<!-- Generated by graphviz version 2.43.0 (0)
 -->
<!-- Title: mceuropeanengine Pages: 1 -->
<svg width="360pt" height="104pt"
 viewBox="0.00 0.00 360.00 104.00" xmlns="http://www.w3.org/2000/svg" xmlns:xlink="http://www.w3.org/1999/xlink">
<g id="graph0" class="graph" transform="scale(1 1) rotate(0) translate(4 100)">
<title>mceuropeanengine</title>
<!-- Node1 -->
<g id="node1" class="node">
<title>Node1</title>
<g id="a_node1"><a xlink:title="Main process of the MCEuropeanEngine Application directives.">
<polygon fill="#bfbfbf" stroke="black" points="0,-38.5 0,-57.5 110,-57.5 110,-38.5 0,-38.5"/>
<text text-anchor="middle" x="55" y="-45.5" font-family="Helvetica,sans-Serif" font-size="10.00">mceuropeanengine</text>
</a>
</g>
</g>
<!-- Node2 -->
<g id="node2" class="node">
<title>Node2</title>
<g id="a_node2"><a xlink:href="group__MCEuropeanEngineHLS.html#ga17d58313a1e5e59dcce3d0ee9f6ba7f4" target="_top" xlink:title="Processing Path &#45; Main processing FSM for Vitis kernels.">
<polygon fill="none" stroke="black" points="146,-76.5 146,-95.5 211,-95.5 211,-76.5 146,-76.5"/>
<text text-anchor="middle" x="178.5" y="-83.5" font-family="Helvetica,sans-Serif" font-size="10.00">pProcPath</text>
</a>
</g>
</g>
<!-- Node1&#45;&gt;Node2 -->
<g id="edge1" class="edge">
<title>Node1&#45;&gt;Node2</title>
<path fill="none" stroke="midnightblue" d="M86.66,-57.59C101.91,-62.36 120.55,-68.19 136.97,-73.32"/>
<polygon fill="midnightblue" stroke="midnightblue" points="136.26,-76.77 146.85,-76.41 138.35,-70.09 136.26,-76.77"/>
</g>
<!-- Node4 -->
<g id="node4" class="node">
<title>Node4</title>
<g id="a_node4"><a xlink:href="group__MCEuropeanEngineHLS.html#ga81f20942b4c5b024dcbec822dee5f1ab" target="_top" xlink:title="Receive Path &#45; From SHELL to THIS.">
<polygon fill="none" stroke="black" points="150,-38.5 150,-57.5 207,-57.5 207,-38.5 150,-38.5"/>
<text text-anchor="middle" x="178.5" y="-45.5" font-family="Helvetica,sans-Serif" font-size="10.00">pRXPath</text>
</a>
</g>
</g>
<!-- Node1&#45;&gt;Node4 -->
<g id="edge3" class="edge">
<title>Node1&#45;&gt;Node4</title>
<path fill="none" stroke="midnightblue" d="M110.35,-48C120.27,-48 130.41,-48 139.72,-48"/>
<polygon fill="midnightblue" stroke="midnightblue" points="139.81,-51.5 149.81,-48 139.81,-44.5 139.81,-51.5"/>
</g>
<!-- Node6 -->
<g id="node6" class="node">
<title>Node6</title>
<g id="a_node6"><a xlink:href="group__MCEuropeanEngineHLS.html#ga36dbd8dd4fba2a1cbb6e8e36ccc1a33b" target="_top" xlink:title="Transmit Path &#45; From THIS to SHELL.">
<polygon fill="none" stroke="black" points="150.5,-0.5 150.5,-19.5 206.5,-19.5 206.5,-0.5 150.5,-0.5"/>
<text text-anchor="middle" x="178.5" y="-7.5" font-family="Helvetica,sans-Serif" font-size="10.00">pTXPath</text>
</a>
</g>
</g>
<!-- Node1&#45;&gt;Node6 -->
<g id="edge5" class="edge">
<title>Node1&#45;&gt;Node6</title>
<path fill="none" stroke="midnightblue" d="M86.66,-38.41C103,-33.3 123.22,-26.98 140.43,-21.59"/>
<polygon fill="midnightblue" stroke="midnightblue" points="141.67,-24.87 150.17,-18.55 139.58,-18.19 141.67,-24.87"/>
</g>
<!-- Node3 -->
<g id="node3" class="node">
<title>Node3</title>
<g id="a_node3"><a xlink:href="kernel__mceuropeanengine_8hpp.html#a70ec22f5d35d42f5c8acfcc54fb0a383" target="_top" xlink:title=" ">
<polygon fill="none" stroke="black" points="266,-76.5 266,-95.5 333,-95.5 333,-76.5 266,-76.5"/>
<text text-anchor="middle" x="299.5" y="-83.5" font-family="Helvetica,sans-Serif" font-size="10.00">kernel_mc</text>
</a>
</g>
</g>
<!-- Node2&#45;&gt;Node3 -->
<g id="edge2" class="edge">
<title>Node2&#45;&gt;Node3</title>
<path fill="none" stroke="midnightblue" d="M211.08,-86C224.71,-86 240.87,-86 255.56,-86"/>
<polygon fill="midnightblue" stroke="midnightblue" points="255.94,-89.5 265.94,-86 255.94,-82.5 255.94,-89.5"/>
</g>
<!-- Node5 -->
<g id="node5" class="node">
<title>Node5</title>
<g id="a_node5"><a xlink:href="group__MCEuropeanEngineHLS.html#ga45342caab7d0a86f0de72cec3dfe900e" target="_top" xlink:title="Store a word from ethernet to a local AXI stream.">
<polygon fill="none" stroke="black" points="247,-38.5 247,-57.5 352,-57.5 352,-38.5 247,-38.5"/>
<text text-anchor="middle" x="299.5" y="-45.5" font-family="Helvetica,sans-Serif" font-size="10.00">storeWordToStruct</text>
</a>
</g>
</g>
<!-- Node4&#45;&gt;Node5 -->
<g id="edge4" class="edge">
<title>Node4&#45;&gt;Node5</title>
<path fill="none" stroke="midnightblue" d="M207.1,-48C215.96,-48 226.15,-48 236.45,-48"/>
<polygon fill="midnightblue" stroke="midnightblue" points="236.74,-51.5 246.74,-48 236.74,-44.5 236.74,-51.5"/>
</g>
</g>
</svg>
