<?xml version="1.0" encoding="UTF-8" standalone="no"?>
<!DOCTYPE svg PUBLIC "-//W3C//DTD SVG 1.1//EN"
 "http://www.w3.org/Graphics/SVG/1.1/DTD/svg11.dtd">
<!-- Generated by graphviz version 2.43.0 (0)
 -->
<!-- Title: gammacorrection Pages: 1 -->
<svg width="414pt" height="104pt"
 viewBox="0.00 0.00 414.00 104.00" xmlns="http://www.w3.org/2000/svg" xmlns:xlink="http://www.w3.org/1999/xlink">
<g id="graph0" class="graph" transform="scale(1 1) rotate(0) translate(4 100)">
<title>gammacorrection</title>
<!-- Node1 -->
<g id="node1" class="node">
<title>Node1</title>
<g id="a_node1"><a xlink:title="Main process of the Gammacorrection Application directives.">
<polygon fill="#bfbfbf" stroke="black" points="0,-38.5 0,-57.5 103,-57.5 103,-38.5 0,-38.5"/>
<text text-anchor="middle" x="51.5" y="-45.5" font-family="Helvetica,sans-Serif" font-size="10.00">gammacorrection</text>
</a>
</g>
</g>
<!-- Node2 -->
<g id="node2" class="node">
<title>Node2</title>
<g id="a_node2"><a xlink:href="group__GammacorrectionHLS.html#ga8ce0086632f2b2f5fd06f5775d92264d" target="_top" xlink:title="Processing Path &#45; Main processing FSM for Vitis kernels.">
<polygon fill="none" stroke="black" points="139,-76.5 139,-95.5 204,-95.5 204,-76.5 139,-76.5"/>
<text text-anchor="middle" x="171.5" y="-83.5" font-family="Helvetica,sans-Serif" font-size="10.00">pProcPath</text>
</a>
</g>
</g>
<!-- Node1&#45;&gt;Node2 -->
<g id="edge1" class="edge">
<title>Node1&#45;&gt;Node2</title>
<path fill="none" stroke="midnightblue" d="M82.28,-57.59C97.09,-62.36 115.19,-68.19 131.13,-73.32"/>
<polygon fill="midnightblue" stroke="midnightblue" points="130.14,-76.68 140.73,-76.41 132.29,-70.02 130.14,-76.68"/>
</g>
<!-- Node4 -->
<g id="node4" class="node">
<title>Node4</title>
<g id="a_node4"><a xlink:href="group__GammacorrectionHLS.html#gad0c6ef7d0f836621c715638b0b2d4d6b" target="_top" xlink:title="Receive Path &#45; From SHELL to THIS.">
<polygon fill="none" stroke="black" points="143,-38.5 143,-57.5 200,-57.5 200,-38.5 143,-38.5"/>
<text text-anchor="middle" x="171.5" y="-45.5" font-family="Helvetica,sans-Serif" font-size="10.00">pRXPath</text>
</a>
</g>
</g>
<!-- Node1&#45;&gt;Node4 -->
<g id="edge3" class="edge">
<title>Node1&#45;&gt;Node4</title>
<path fill="none" stroke="midnightblue" d="M103.23,-48C113.12,-48 123.33,-48 132.72,-48"/>
<polygon fill="midnightblue" stroke="midnightblue" points="132.9,-51.5 142.9,-48 132.9,-44.5 132.9,-51.5"/>
</g>
<!-- Node6 -->
<g id="node6" class="node">
<title>Node6</title>
<g id="a_node6"><a xlink:href="group__GammacorrectionHLS.html#ga36dbd8dd4fba2a1cbb6e8e36ccc1a33b" target="_top" xlink:title="Transmit Path &#45; From THIS to SHELL.">
<polygon fill="none" stroke="black" points="143.5,-0.5 143.5,-19.5 199.5,-19.5 199.5,-0.5 143.5,-0.5"/>
<text text-anchor="middle" x="171.5" y="-7.5" font-family="Helvetica,sans-Serif" font-size="10.00">pTXPath</text>
</a>
</g>
</g>
<!-- Node1&#45;&gt;Node6 -->
<g id="edge5" class="edge">
<title>Node1&#45;&gt;Node6</title>
<path fill="none" stroke="midnightblue" d="M82.28,-38.41C97.77,-33.42 116.86,-27.28 133.31,-21.98"/>
<polygon fill="midnightblue" stroke="midnightblue" points="134.71,-25.2 143.16,-18.8 132.57,-18.54 134.71,-25.2"/>
</g>
<!-- Node3 -->
<g id="node3" class="node">
<title>Node3</title>
<g id="a_node3"><a xlink:href="group__Gammacorrection.html#gaf8db16b692e6bf19fa473529b4ff3219" target="_top" xlink:title="Top&#45;level accelerated function of the Gammacorrection Application with array I/F.">
<polygon fill="none" stroke="black" points="240,-76.5 240,-95.5 406,-95.5 406,-76.5 240,-76.5"/>
<text text-anchor="middle" x="323" y="-83.5" font-family="Helvetica,sans-Serif" font-size="10.00">GammacorrectionAccelStream</text>
</a>
</g>
</g>
<!-- Node2&#45;&gt;Node3 -->
<g id="edge2" class="edge">
<title>Node2&#45;&gt;Node3</title>
<path fill="none" stroke="midnightblue" d="M204.21,-86C212.01,-86 220.77,-86 229.89,-86"/>
<polygon fill="midnightblue" stroke="midnightblue" points="229.9,-89.5 239.9,-86 229.9,-82.5 229.9,-89.5"/>
</g>
<!-- Node5 -->
<g id="node5" class="node">
<title>Node5</title>
<g id="a_node5"><a xlink:href="group__GammacorrectionHLS.html#ga67afe9eeccbc79474d7f8b3a4abc8d44" target="_top" xlink:title="Store a word from ethernet to a local AXI stream.">
<polygon fill="none" stroke="black" points="259,-38.5 259,-57.5 387,-57.5 387,-38.5 259,-38.5"/>
<text text-anchor="middle" x="323" y="-45.5" font-family="Helvetica,sans-Serif" font-size="10.00">storeWordToAxiStream</text>
</a>
</g>
</g>
<!-- Node4&#45;&gt;Node5 -->
<g id="edge4" class="edge">
<title>Node4&#45;&gt;Node5</title>
<path fill="none" stroke="midnightblue" d="M200.27,-48C214.03,-48 231.37,-48 248.62,-48"/>
<polygon fill="midnightblue" stroke="midnightblue" points="248.73,-51.5 258.73,-48 248.73,-44.5 248.73,-51.5"/>
</g>
</g>
</svg>
