<?xml version="1.0" encoding="UTF-8" standalone="no"?>
<!DOCTYPE svg PUBLIC "-//W3C//DTD SVG 1.1//EN"
 "http://www.w3.org/Graphics/SVG/1.1/DTD/svg11.dtd">
<!-- Generated by graphviz version 2.43.0 (0)
 -->
<!-- Title: pRxEngine Pages: 1 -->
<svg width="613pt" height="1240pt"
 viewBox="0.00 0.00 613.00 1240.11" xmlns="http://www.w3.org/2000/svg" xmlns:xlink="http://www.w3.org/1999/xlink">
<g id="graph0" class="graph" transform="scale(1 1) rotate(0) translate(4 1236.11)">
<title>pRxEngine</title>
<!-- Node1 -->
<g id="node1" class="node">
<title>Node1</title>
<g id="a_node1"><a xlink:title=" ">
<polygon fill="#bfbfbf" stroke="black" points="0,-243.61 0,-262.61 68,-262.61 68,-243.61 0,-243.61"/>
<text text-anchor="middle" x="34" y="-250.61" font-family="Helvetica,sans-Serif" font-size="10.00">pRxEngine</text>
</a>
</g>
</g>
<!-- Node2 -->
<g id="node2" class="node">
<title>Node2</title>
<g id="a_node2"><a xlink:href="group__NTS__UOE.html#gaf298ae8ed051de648f02f4b2ab238ded" target="_top" xlink:title=" ">
<polygon fill="none" stroke="black" points="117.5,-756.61 117.5,-775.61 222.5,-775.61 222.5,-756.61 117.5,-756.61"/>
<text text-anchor="middle" x="170" y="-763.61" font-family="Helvetica,sans-Serif" font-size="10.00">pIpHeaderStripper</text>
</a>
</g>
</g>
<!-- Node1&#45;&gt;Node2 -->
<g id="edge1" class="edge">
<title>Node1&#45;&gt;Node2</title>
<path fill="none" stroke="midnightblue" d="M37.56,-262.9C53.71,-324.74 141.63,-661.32 163.88,-746.51"/>
<polygon fill="midnightblue" stroke="midnightblue" points="160.5,-747.43 166.42,-756.22 167.27,-745.66 160.5,-747.43"/>
</g>
<!-- Node30 -->
<g id="node30" class="node">
<title>Node30</title>
<g id="a_node30"><a xlink:href="group__NTS__UOE.html#ga167bf3d28da8dec6aa2e94ca84f42131" target="_top" xlink:title=" ">
<polygon fill="none" stroke="black" points="117.5,-300.61 117.5,-319.61 222.5,-319.61 222.5,-300.61 117.5,-300.61"/>
<text text-anchor="middle" x="170" y="-307.61" font-family="Helvetica,sans-Serif" font-size="10.00">pRxPacketHandler</text>
</a>
</g>
</g>
<!-- Node1&#45;&gt;Node30 -->
<g id="edge35" class="edge">
<title>Node1&#45;&gt;Node30</title>
<path fill="none" stroke="midnightblue" d="M57.43,-262.65C79.27,-271.94 112.66,-286.15 137.23,-296.6"/>
<polygon fill="midnightblue" stroke="midnightblue" points="135.93,-299.84 146.5,-300.54 138.67,-293.4 135.93,-299.84"/>
</g>
<!-- Node33 -->
<g id="node33" class="node">
<title>Node33</title>
<g id="a_node33"><a xlink:href="group__NTS__UOE.html#ga2a359e091f9f35fcd4f5564574eafc6c" target="_top" xlink:title=" ">
<polygon fill="none" stroke="black" points="104,-205.61 104,-224.61 236,-224.61 236,-205.61 104,-205.61"/>
<text text-anchor="middle" x="170" y="-212.61" font-family="Helvetica,sans-Serif" font-size="10.00">pUdpChecksumChecker</text>
</a>
</g>
</g>
<!-- Node1&#45;&gt;Node33 -->
<g id="edge44" class="edge">
<title>Node1&#45;&gt;Node33</title>
<path fill="none" stroke="midnightblue" d="M68.12,-243.72C85.47,-238.8 106.92,-232.71 125.58,-227.42"/>
<polygon fill="midnightblue" stroke="midnightblue" points="126.66,-230.75 135.33,-224.66 124.75,-224.02 126.66,-230.75"/>
</g>
<!-- Node36 -->
<g id="node36" class="node">
<title>Node36</title>
<g id="a_node36"><a xlink:href="group__NTS__UOE.html#ga097bb0a9ace9c9535590721a8151a979" target="_top" xlink:title=" ">
<polygon fill="none" stroke="black" points="126.5,-167.61 126.5,-186.61 213.5,-186.61 213.5,-167.61 126.5,-167.61"/>
<text text-anchor="middle" x="170" y="-174.61" font-family="Helvetica,sans-Serif" font-size="10.00">pUdpPortTable</text>
</a>
</g>
</g>
<!-- Node1&#45;&gt;Node36 -->
<g id="edge55" class="edge">
<title>Node1&#45;&gt;Node36</title>
<path fill="none" stroke="midnightblue" d="M44.35,-243.21C56.82,-230.55 80.11,-208.77 104,-196.11 108.26,-193.85 112.81,-191.83 117.47,-190.03"/>
<polygon fill="midnightblue" stroke="midnightblue" points="118.83,-193.26 127.09,-186.63 116.5,-186.66 118.83,-193.26"/>
</g>
<!-- Node3 -->
<g id="node3" class="node">
<title>Node3</title>
<g id="a_node3"><a xlink:href="classAxisIp4.html#a3a60d6e7c7029899907f9b88cd7b6ceb" target="_top" xlink:title=" ">
<polygon fill="none" stroke="black" points="280.5,-452.61 280.5,-471.61 408.5,-471.61 408.5,-452.61 280.5,-452.61"/>
<text text-anchor="middle" x="344.5" y="-459.61" font-family="Helvetica,sans-Serif" font-size="10.00">AxisIp4::getIp4DstAddr</text>
</a>
</g>
</g>
<!-- Node2&#45;&gt;Node3 -->
<g id="edge2" class="edge">
<title>Node2&#45;&gt;Node3</title>
<path fill="none" stroke="midnightblue" d="M171.34,-756.54C173.29,-716.42 186.33,-560.12 272,-481.11 273.69,-479.55 275.49,-478.12 277.38,-476.8"/>
<polygon fill="midnightblue" stroke="midnightblue" points="279.25,-479.77 286.16,-471.74 275.75,-473.7 279.25,-479.77"/>
</g>
<!-- Node4 -->
<g id="node4" class="node">
<title>Node4</title>
<g id="a_node4"><a xlink:href="classAxisIp4.html#ac18435a2d8d3a7d27b64c52477218977" target="_top" xlink:title=" ">
<polygon fill="none" stroke="black" points="282.5,-1098.61 282.5,-1117.61 406.5,-1117.61 406.5,-1098.61 282.5,-1098.61"/>
<text text-anchor="middle" x="344.5" y="-1105.61" font-family="Helvetica,sans-Serif" font-size="10.00">AxisIp4::getIp4HdrLen</text>
</a>
</g>
</g>
<!-- Node2&#45;&gt;Node4 -->
<g id="edge3" class="edge">
<title>Node2&#45;&gt;Node4</title>
<path fill="none" stroke="midnightblue" d="M170.88,-775.72C170.91,-819.06 176.94,-998.09 272,-1089.11 273.5,-1090.54 275.09,-1091.87 276.76,-1093.1"/>
<polygon fill="midnightblue" stroke="midnightblue" points="275.29,-1096.3 285.66,-1098.47 278.9,-1090.31 275.29,-1096.3"/>
</g>
<!-- Node5 -->
<g id="node5" class="node">
<title>Node5</title>
<g id="a_node5"><a xlink:href="classAxisIp4.html#ac68754528b100219c3a9ee916de54828" target="_top" xlink:title=" ">
<polygon fill="none" stroke="black" points="290,-1060.61 290,-1079.61 399,-1079.61 399,-1060.61 290,-1060.61"/>
<text text-anchor="middle" x="344.5" y="-1067.61" font-family="Helvetica,sans-Serif" font-size="10.00">AxisIp4::getIp4Prot</text>
</a>
</g>
</g>
<!-- Node2&#45;&gt;Node5 -->
<g id="edge4" class="edge">
<title>Node2&#45;&gt;Node5</title>
<path fill="none" stroke="midnightblue" d="M171.34,-775.67C173.29,-815.8 186.33,-972.1 272,-1051.11 274.63,-1053.53 277.53,-1055.66 280.62,-1057.51"/>
<polygon fill="midnightblue" stroke="midnightblue" points="279.22,-1060.72 289.73,-1062.07 282.35,-1054.47 279.22,-1060.72"/>
</g>
<!-- Node6 -->
<g id="node6" class="node">
<title>Node6</title>
<g id="a_node6"><a xlink:href="classAxisIp4.html#ac8f3926329a514c6d64b9a5e25ee43cb" target="_top" xlink:title=" ">
<polygon fill="none" stroke="black" points="281,-490.61 281,-509.61 408,-509.61 408,-490.61 281,-490.61"/>
<text text-anchor="middle" x="344.5" y="-497.61" font-family="Helvetica,sans-Serif" font-size="10.00">AxisIp4::getIp4SrcAddr</text>
</a>
</g>
</g>
<!-- Node2&#45;&gt;Node6 -->
<g id="edge5" class="edge">
<title>Node2&#45;&gt;Node6</title>
<path fill="none" stroke="midnightblue" d="M172.21,-756.17C177.19,-719.67 199.36,-591.73 272,-524.11 276.36,-520.05 281.43,-516.68 286.81,-513.87"/>
<polygon fill="midnightblue" stroke="midnightblue" points="288.44,-516.98 296.11,-509.67 285.56,-510.6 288.44,-516.98"/>
</g>
<!-- Node7 -->
<g id="node7" class="node">
<title>Node7</title>
<g id="a_node7"><a xlink:href="classAxisIp4.html#a4ce83bf0ddbd41a460ba25fecf894a95" target="_top" xlink:title=" ">
<polygon fill="none" stroke="black" points="279.5,-1022.61 279.5,-1041.61 409.5,-1041.61 409.5,-1022.61 279.5,-1022.61"/>
<text text-anchor="middle" x="344.5" y="-1029.61" font-family="Helvetica,sans-Serif" font-size="10.00">AxisIp4::getIp4TotalLen</text>
</a>
</g>
</g>
<!-- Node2&#45;&gt;Node7 -->
<g id="edge6" class="edge">
<title>Node2&#45;&gt;Node7</title>
<path fill="none" stroke="midnightblue" d="M171.92,-775.65C175.97,-812.38 195.63,-945.97 272,-1013.11 273.94,-1014.82 276.02,-1016.37 278.2,-1017.79"/>
<polygon fill="midnightblue" stroke="midnightblue" points="276.6,-1020.9 287.05,-1022.6 279.94,-1014.75 276.6,-1020.9"/>
</g>
<!-- Node8 -->
<g id="node8" class="node">
<title>Node8</title>
<g id="a_node8"><a xlink:href="classAxisIp4.html#ac0f54d8eabebeddfdcb7c6df84b77cf7" target="_top" xlink:title=" ">
<polygon fill="none" stroke="black" points="272,-984.61 272,-1003.61 417,-1003.61 417,-984.61 272,-984.61"/>
<text text-anchor="middle" x="344.5" y="-991.61" font-family="Helvetica,sans-Serif" font-size="10.00">AxisIp4::getLE_Ip4DstAddr</text>
</a>
</g>
</g>
<!-- Node2&#45;&gt;Node8 -->
<g id="edge7" class="edge">
<title>Node2&#45;&gt;Node8</title>
<path fill="none" stroke="midnightblue" d="M172.71,-775.76C179.12,-809 204.88,-919.69 272,-975.11 274.04,-976.79 276.21,-978.32 278.48,-979.72"/>
<polygon fill="midnightblue" stroke="midnightblue" points="277.16,-982.99 287.65,-984.48 280.39,-976.77 277.16,-982.99"/>
</g>
<!-- Node9 -->
<g id="node9" class="node">
<title>Node9</title>
<g id="a_node9"><a xlink:href="classAxisRaw.html#a7034bcf8cf143fb2bb9bfc46e70a7d6b" target="_top" xlink:title=" ">
<polygon fill="none" stroke="black" points="466.5,-414.61 466.5,-433.61 591.5,-433.61 591.5,-414.61 466.5,-414.61"/>
<text text-anchor="middle" x="529" y="-421.61" font-family="Helvetica,sans-Serif" font-size="10.00">AxisRaw::getLE_TData</text>
</a>
</g>
</g>
<!-- Node2&#45;&gt;Node9 -->
<g id="edge8" class="edge">
<title>Node2&#45;&gt;Node9</title>
<path fill="none" stroke="midnightblue" d="M185.13,-756.58C204.14,-744.12 239.34,-722.34 272,-709.11 333.74,-684.09 366.15,-714.15 417,-671.11 489.77,-609.52 516.9,-490.52 525.04,-443.71"/>
<polygon fill="midnightblue" stroke="midnightblue" points="528.52,-444.11 526.68,-433.68 521.61,-442.98 528.52,-444.11"/>
</g>
<!-- Node10 -->
<g id="node10" class="node">
<title>Node10</title>
<g id="a_node10"><a xlink:href="classAxisRaw.html#ab8f254eb6a82b91c64b8579c9a114f58" target="_top" xlink:title=" ">
<polygon fill="none" stroke="black" points="276.5,-718.61 276.5,-737.61 412.5,-737.61 412.5,-718.61 276.5,-718.61"/>
<text text-anchor="middle" x="344.5" y="-725.61" font-family="Helvetica,sans-Serif" font-size="10.00">AxisRaw::getLE_TDataHi</text>
</a>
</g>
</g>
<!-- Node2&#45;&gt;Node10 -->
<g id="edge9" class="edge">
<title>Node2&#45;&gt;Node10</title>
<path fill="none" stroke="midnightblue" d="M214.53,-756.52C237.6,-751.44 266.13,-745.15 290.48,-739.79"/>
<polygon fill="midnightblue" stroke="midnightblue" points="291.27,-743.2 300.28,-737.63 289.77,-736.36 291.27,-743.2"/>
</g>
<!-- Node11 -->
<g id="node11" class="node">
<title>Node11</title>
<g id="a_node11"><a xlink:href="classAxisRaw.html#a4becd0ad3c51e3db2749e888f2f72e31" target="_top" xlink:title=" ">
<polygon fill="none" stroke="black" points="466,-338.61 466,-357.61 592,-357.61 592,-338.61 466,-338.61"/>
<text text-anchor="middle" x="529" y="-345.61" font-family="Helvetica,sans-Serif" font-size="10.00">AxisRaw::getLE_TKeep</text>
</a>
</g>
</g>
<!-- Node2&#45;&gt;Node11 -->
<g id="edge11" class="edge">
<title>Node2&#45;&gt;Node11</title>
<path fill="none" stroke="midnightblue" d="M172.7,-756.45C179.09,-723.18 204.78,-612.42 272,-557.11 323.45,-514.78 368.74,-565.04 417,-519.11 455.49,-482.48 422.41,-448.56 453,-405.11 465.36,-387.56 484.75,-373.02 500.73,-363.02"/>
<polygon fill="midnightblue" stroke="midnightblue" points="502.88,-365.81 509.66,-357.67 499.28,-359.81 502.88,-365.81"/>
</g>
<!-- Node12 -->
<g id="node12" class="node">
<title>Node12</title>
<g id="a_node12"><a xlink:href="classAxisRaw.html#ad9de3735705f840155f6df0226230b01" target="_top" xlink:title=" ">
<polygon fill="none" stroke="black" points="285,-832.61 285,-851.61 404,-851.61 404,-832.61 285,-832.61"/>
<text text-anchor="middle" x="344.5" y="-839.61" font-family="Helvetica,sans-Serif" font-size="10.00">AxisRaw::getTDataHi</text>
</a>
</g>
</g>
<!-- Node2&#45;&gt;Node12 -->
<g id="edge12" class="edge">
<title>Node2&#45;&gt;Node12</title>
<path fill="none" stroke="midnightblue" d="M185.13,-775.63C204.15,-788.06 239.37,-809.82 272,-823.11 277.93,-825.53 284.27,-827.72 290.62,-829.69"/>
<polygon fill="midnightblue" stroke="midnightblue" points="289.99,-833.15 300.57,-832.6 291.96,-826.43 289.99,-833.15"/>
</g>
<!-- Node14 -->
<g id="node14" class="node">
<title>Node14</title>
<g id="a_node14"><a xlink:href="classAxisRaw.html#a48f8284ad60d96e2d2764ef2eefc4a64" target="_top" xlink:title=" ">
<polygon fill="none" stroke="black" points="284.5,-794.61 284.5,-813.61 404.5,-813.61 404.5,-794.61 284.5,-794.61"/>
<text text-anchor="middle" x="344.5" y="-801.61" font-family="Helvetica,sans-Serif" font-size="10.00">AxisRaw::getTDataLo</text>
</a>
</g>
</g>
<!-- Node2&#45;&gt;Node14 -->
<g id="edge14" class="edge">
<title>Node2&#45;&gt;Node14</title>
<path fill="none" stroke="midnightblue" d="M214.53,-775.7C237.6,-780.78 266.13,-787.06 290.48,-792.43"/>
<polygon fill="midnightblue" stroke="midnightblue" points="289.77,-795.86 300.28,-794.59 291.27,-789.02 289.77,-795.86"/>
</g>
<!-- Node15 -->
<g id="node15" class="node">
<title>Node15</title>
<g id="a_node15"><a xlink:href="classAxisRaw.html#acb10d569e10f95bdd0be0af34ce605bd" target="_top" xlink:title=" ">
<polygon fill="none" stroke="black" points="474,-908.61 474,-927.61 584,-927.61 584,-908.61 474,-908.61"/>
<text text-anchor="middle" x="529" y="-915.61" font-family="Helvetica,sans-Serif" font-size="10.00">AxisRaw::getTKeep</text>
</a>
</g>
</g>
<!-- Node2&#45;&gt;Node15 -->
<g id="edge16" class="edge">
<title>Node2&#45;&gt;Node15</title>
<path fill="none" stroke="midnightblue" d="M178.17,-775.68C193.25,-795.07 230.3,-839.03 272,-861.11 289.26,-870.25 398.36,-892.74 468.45,-906.58"/>
<polygon fill="midnightblue" stroke="midnightblue" points="468.01,-910.06 478.5,-908.56 469.36,-903.19 468.01,-910.06"/>
</g>
<!-- Node16 -->
<g id="node16" class="node">
<title>Node16</title>
<g id="a_node16"><a xlink:href="classAxisRaw.html#a58b8357553e87b35d4841c9f0bcdb08d" target="_top" xlink:title=" ">
<polygon fill="none" stroke="black" points="284.5,-946.61 284.5,-965.61 404.5,-965.61 404.5,-946.61 284.5,-946.61"/>
<text text-anchor="middle" x="344.5" y="-953.61" font-family="Helvetica,sans-Serif" font-size="10.00">AxisRaw::getTKeepHi</text>
</a>
</g>
</g>
<!-- Node2&#45;&gt;Node16 -->
<g id="edge17" class="edge">
<title>Node2&#45;&gt;Node16</title>
<path fill="none" stroke="midnightblue" d="M173.76,-775.61C182.71,-804.66 213.74,-892.96 272,-937.11 274.48,-938.99 277.13,-940.68 279.9,-942.21"/>
<polygon fill="midnightblue" stroke="midnightblue" points="278.52,-945.43 289.06,-946.54 281.51,-939.1 278.52,-945.43"/>
</g>
<!-- Node17 -->
<g id="node17" class="node">
<title>Node17</title>
<g id="a_node17"><a xlink:href="classAxisRaw.html#af7dcf20294a3d8853042af971f19c4a6" target="_top" xlink:title=" ">
<polygon fill="none" stroke="black" points="284,-908.61 284,-927.61 405,-927.61 405,-908.61 284,-908.61"/>
<text text-anchor="middle" x="344.5" y="-915.61" font-family="Helvetica,sans-Serif" font-size="10.00">AxisRaw::getTKeepLo</text>
</a>
</g>
</g>
<!-- Node2&#45;&gt;Node17 -->
<g id="edge19" class="edge">
<title>Node2&#45;&gt;Node17</title>
<path fill="none" stroke="midnightblue" d="M175.96,-775.69C188.68,-799.33 224.78,-860.87 272,-894.11 278.04,-898.36 284.88,-901.9 291.89,-904.84"/>
<polygon fill="midnightblue" stroke="midnightblue" points="290.89,-908.2 301.48,-908.48 293.37,-901.66 290.89,-908.2"/>
</g>
<!-- Node18 -->
<g id="node18" class="node">
<title>Node18</title>
<g id="a_node18"><a xlink:href="classAxisRaw.html#a42cd520c9b19f7c2fc6d2fc204cb30b7" target="_top" xlink:title=" ">
<polygon fill="none" stroke="black" points="291.5,-262.61 291.5,-281.61 397.5,-281.61 397.5,-262.61 291.5,-262.61"/>
<text text-anchor="middle" x="344.5" y="-269.61" font-family="Helvetica,sans-Serif" font-size="10.00">AxisRaw::getTLast</text>
</a>
</g>
</g>
<!-- Node2&#45;&gt;Node18 -->
<g id="edge21" class="edge">
<title>Node2&#45;&gt;Node18</title>
<path fill="none" stroke="midnightblue" d="M170.97,-756.31C171.23,-706.59 177.74,-478.64 272,-329.11 283.11,-311.48 301.62,-296.95 317.02,-286.97"/>
<polygon fill="midnightblue" stroke="midnightblue" points="318.99,-289.87 325.65,-281.63 315.31,-283.91 318.99,-289.87"/>
</g>
<!-- Node19 -->
<g id="node19" class="node">
<title>Node19</title>
<g id="a_node19"><a xlink:href="classAxisUdp.html#af2601784b2a0b17dc10c1c816fc1e815" target="_top" xlink:title=" ">
<polygon fill="none" stroke="black" points="286.5,-338.61 286.5,-357.61 402.5,-357.61 402.5,-338.61 286.5,-338.61"/>
<text text-anchor="middle" x="344.5" y="-345.61" font-family="Helvetica,sans-Serif" font-size="10.00">AxisUdp::getUdpLen</text>
</a>
</g>
</g>
<!-- Node2&#45;&gt;Node19 -->
<g id="edge22" class="edge">
<title>Node2&#45;&gt;Node19</title>
<path fill="none" stroke="midnightblue" d="M172.13,-756.41C178.74,-701.05 214.24,-425.56 272,-367.11 273.69,-365.4 275.51,-363.84 277.44,-362.42"/>
<polygon fill="midnightblue" stroke="midnightblue" points="279.7,-365.15 286.48,-357.01 276.1,-359.14 279.7,-365.15"/>
</g>
<!-- Node20 -->
<g id="node20" class="node">
<title>Node20</title>
<g id="a_node20"><a xlink:href="classAxisIp4.html#a2d327e217cd1a957bc3709e978cad167" target="_top" xlink:title=" ">
<polygon fill="none" stroke="black" points="289,-642.61 289,-661.61 400,-661.61 400,-642.61 289,-642.61"/>
<text text-anchor="middle" x="344.5" y="-649.61" font-family="Helvetica,sans-Serif" font-size="10.00">AxisIp4::getUdpLen</text>
</a>
</g>
</g>
<!-- Node2&#45;&gt;Node20 -->
<g id="edge23" class="edge">
<title>Node2&#45;&gt;Node20</title>
<path fill="none" stroke="midnightblue" d="M179.22,-756.57C195.3,-738.46 232.8,-698.86 272,-676.11 279.41,-671.81 287.7,-668.14 295.93,-665.06"/>
<polygon fill="midnightblue" stroke="midnightblue" points="297.24,-668.31 305.52,-661.71 294.93,-661.71 297.24,-668.31"/>
</g>
<!-- Node21 -->
<g id="node21" class="node">
<title>Node21</title>
<g id="a_node21"><a xlink:href="group__NTS.html#ga5560d80c548e85eb53223a5e99410b7b" target="_top" xlink:title="Prints an Axis raw data chunk (used for debugging).">
<polygon fill="none" stroke="black" points="304,-376.61 304,-395.61 385,-395.61 385,-376.61 304,-376.61"/>
<text text-anchor="middle" x="344.5" y="-383.61" font-family="Helvetica,sans-Serif" font-size="10.00">printAxisRaw</text>
</a>
</g>
</g>
<!-- Node2&#45;&gt;Node21 -->
<g id="edge24" class="edge">
<title>Node2&#45;&gt;Node21</title>
<path fill="none" stroke="midnightblue" d="M171.94,-756.5C176.37,-715.34 198.14,-550.97 272,-443.11 283.85,-425.81 302.5,-411.19 317.79,-401.09"/>
<polygon fill="midnightblue" stroke="midnightblue" points="319.75,-403.99 326.32,-395.67 316,-398.07 319.75,-403.99"/>
</g>
<!-- Node23 -->
<g id="node23" class="node">
<title>Node23</title>
<g id="a_node23"><a xlink:href="classAxisRaw.html#a1a7e2a69edc7b522df061409e3f79441" target="_top" xlink:title=" ">
<polygon fill="none" stroke="black" points="285,-604.61 285,-623.61 404,-623.61 404,-604.61 285,-604.61"/>
<text text-anchor="middle" x="344.5" y="-611.61" font-family="Helvetica,sans-Serif" font-size="10.00">AxisRaw::setTDataHi</text>
</a>
</g>
</g>
<!-- Node2&#45;&gt;Node23 -->
<g id="edge28" class="edge">
<title>Node2&#45;&gt;Node23</title>
<path fill="none" stroke="midnightblue" d="M175.55,-756.32C187.56,-731.58 222.63,-666.2 272,-633.11 275.06,-631.06 278.33,-629.23 281.73,-627.59"/>
<polygon fill="midnightblue" stroke="midnightblue" points="283.1,-630.82 290.96,-623.72 280.39,-624.36 283.1,-630.82"/>
</g>
<!-- Node24 -->
<g id="node24" class="node">
<title>Node24</title>
<g id="a_node24"><a xlink:href="classAxisRaw.html#a1af3fe5faeab03875a0e654190f598de" target="_top" xlink:title=" ">
<polygon fill="none" stroke="black" points="285,-566.61 285,-585.61 404,-585.61 404,-566.61 285,-566.61"/>
<text text-anchor="middle" x="344.5" y="-573.61" font-family="Helvetica,sans-Serif" font-size="10.00">AxisRaw::setTDataLo</text>
</a>
</g>
</g>
<!-- Node2&#45;&gt;Node24 -->
<g id="edge29" class="edge">
<title>Node2&#45;&gt;Node24</title>
<path fill="none" stroke="midnightblue" d="M173.76,-756.6C182.71,-727.56 213.74,-639.26 272,-595.11 274.48,-593.23 277.13,-591.54 279.9,-590.01"/>
<polygon fill="midnightblue" stroke="midnightblue" points="281.51,-593.12 289.06,-585.68 278.52,-586.79 281.51,-593.12"/>
</g>
<!-- Node25 -->
<g id="node25" class="node">
<title>Node25</title>
<g id="a_node25"><a xlink:href="classAxisRaw.html#aa856c8e559a50d2e7bbdbbfd51b76ba9" target="_top" xlink:title=" ">
<polygon fill="none" stroke="black" points="290,-1212.61 290,-1231.61 399,-1231.61 399,-1212.61 290,-1212.61"/>
<text text-anchor="middle" x="344.5" y="-1219.61" font-family="Helvetica,sans-Serif" font-size="10.00">AxisRaw::setTKeep</text>
</a>
</g>
</g>
<!-- Node2&#45;&gt;Node25 -->
<g id="edge30" class="edge">
<title>Node2&#45;&gt;Node25</title>
<path fill="none" stroke="midnightblue" d="M171.91,-775.95C177.55,-834.67 209.45,-1138.49 272,-1203.11 274.66,-1205.86 277.66,-1208.22 280.9,-1210.25"/>
<polygon fill="midnightblue" stroke="midnightblue" points="279.43,-1213.44 289.93,-1214.9 282.64,-1207.21 279.43,-1213.44"/>
</g>
<!-- Node26 -->
<g id="node26" class="node">
<title>Node26</title>
<g id="a_node26"><a xlink:href="classAxisRaw.html#a9d6431f0204bddaa17277cea807dc804" target="_top" xlink:title=" ">
<polygon fill="none" stroke="black" points="285,-1174.61 285,-1193.61 404,-1193.61 404,-1174.61 285,-1174.61"/>
<text text-anchor="middle" x="344.5" y="-1181.61" font-family="Helvetica,sans-Serif" font-size="10.00">AxisRaw::setTKeepHi</text>
</a>
</g>
</g>
<!-- Node2&#45;&gt;Node26 -->
<g id="edge31" class="edge">
<title>Node2&#45;&gt;Node26</title>
<path fill="none" stroke="midnightblue" d="M172.13,-775.81C178.74,-831.17 214.24,-1106.66 272,-1165.11 273.42,-1166.55 274.94,-1167.88 276.54,-1169.12"/>
<polygon fill="midnightblue" stroke="midnightblue" points="274.77,-1172.14 285.09,-1174.52 278.5,-1166.22 274.77,-1172.14"/>
</g>
<!-- Node27 -->
<g id="node27" class="node">
<title>Node27</title>
<g id="a_node27"><a xlink:href="classAxisRaw.html#a4cbc05f7d44b163c8a2f09881b3764df" target="_top" xlink:title=" ">
<polygon fill="none" stroke="black" points="284.5,-1136.61 284.5,-1155.61 404.5,-1155.61 404.5,-1136.61 284.5,-1136.61"/>
<text text-anchor="middle" x="344.5" y="-1143.61" font-family="Helvetica,sans-Serif" font-size="10.00">AxisRaw::setTKeepLo</text>
</a>
</g>
</g>
<!-- Node2&#45;&gt;Node27 -->
<g id="edge32" class="edge">
<title>Node2&#45;&gt;Node27</title>
<path fill="none" stroke="midnightblue" d="M170.51,-775.87C168.74,-822.44 167.55,-1024.02 272,-1127.11 273.47,-1128.56 275.05,-1129.91 276.7,-1131.16"/>
<polygon fill="midnightblue" stroke="midnightblue" points="275.19,-1134.34 285.54,-1136.59 278.85,-1128.37 275.19,-1134.34"/>
</g>
<!-- Node28 -->
<g id="node28" class="node">
<title>Node28</title>
<g id="a_node28"><a xlink:href="classAxisRaw.html#a1238c47d46a7d858c542f55797dfc9f2" target="_top" xlink:title=" ">
<polygon fill="none" stroke="black" points="292,-756.61 292,-775.61 397,-775.61 397,-756.61 292,-756.61"/>
<text text-anchor="middle" x="344.5" y="-763.61" font-family="Helvetica,sans-Serif" font-size="10.00">AxisRaw::setTLast</text>
</a>
</g>
</g>
<!-- Node2&#45;&gt;Node28 -->
<g id="edge33" class="edge">
<title>Node2&#45;&gt;Node28</title>
<path fill="none" stroke="midnightblue" d="M222.76,-766.11C241.26,-766.11 262.31,-766.11 281.58,-766.11"/>
<polygon fill="midnightblue" stroke="midnightblue" points="281.78,-769.61 291.78,-766.11 281.78,-762.61 281.78,-769.61"/>
</g>
<!-- Node10&#45;&gt;Node9 -->
<g id="edge10" class="edge">
<title>Node10&#45;&gt;Node9</title>
<path fill="none" stroke="midnightblue" d="M393.35,-718.5C401.99,-715.07 410.35,-710.41 417,-704.11 494.99,-630.19 519.3,-494.53 525.85,-443.87"/>
<polygon fill="midnightblue" stroke="midnightblue" points="529.36,-444 527.08,-433.65 522.41,-443.17 529.36,-444"/>
</g>
<!-- Node13 -->
<g id="node13" class="node">
<title>Node13</title>
<g id="a_node13"><a xlink:href="classAxisRaw.html#a208a8bf67decab3e92139c8afc9aa149" target="_top" xlink:title=" ">
<polygon fill="none" stroke="black" points="474.5,-813.61 474.5,-832.61 583.5,-832.61 583.5,-813.61 474.5,-813.61"/>
<text text-anchor="middle" x="529" y="-820.61" font-family="Helvetica,sans-Serif" font-size="10.00">AxisRaw::getTData</text>
</a>
</g>
</g>
<!-- Node12&#45;&gt;Node13 -->
<g id="edge13" class="edge">
<title>Node12&#45;&gt;Node13</title>
<path fill="none" stroke="midnightblue" d="M404.25,-835.99C423.42,-834 444.78,-831.77 464.29,-829.74"/>
<polygon fill="midnightblue" stroke="midnightblue" points="464.72,-833.22 474.31,-828.7 464,-826.25 464.72,-833.22"/>
</g>
<!-- Node14&#45;&gt;Node13 -->
<g id="edge15" class="edge">
<title>Node14&#45;&gt;Node13</title>
<path fill="none" stroke="midnightblue" d="M404.5,-810.25C423.66,-812.25 444.99,-814.47 464.46,-816.49"/>
<polygon fill="midnightblue" stroke="midnightblue" points="464.14,-819.98 474.45,-817.53 464.87,-813.02 464.14,-819.98"/>
</g>
<!-- Node16&#45;&gt;Node15 -->
<g id="edge18" class="edge">
<title>Node16&#45;&gt;Node15</title>
<path fill="none" stroke="midnightblue" d="M391.55,-946.52C416.07,-941.42 446.41,-935.1 472.25,-929.72"/>
<polygon fill="midnightblue" stroke="midnightblue" points="473.2,-933.09 482.28,-927.63 471.78,-926.24 473.2,-933.09"/>
</g>
<!-- Node17&#45;&gt;Node15 -->
<g id="edge20" class="edge">
<title>Node17&#45;&gt;Node15</title>
<path fill="none" stroke="midnightblue" d="M405,-918.11C423.79,-918.11 444.62,-918.11 463.71,-918.11"/>
<polygon fill="midnightblue" stroke="midnightblue" points="463.82,-921.61 473.82,-918.11 463.82,-914.61 463.82,-921.61"/>
</g>
<!-- Node21&#45;&gt;Node9 -->
<g id="edge25" class="edge">
<title>Node21&#45;&gt;Node9</title>
<path fill="none" stroke="midnightblue" d="M385.1,-394.35C410.59,-399.66 444.1,-406.64 472.26,-412.5"/>
<polygon fill="midnightblue" stroke="midnightblue" points="471.86,-416 482.37,-414.61 473.29,-409.14 471.86,-416"/>
</g>
<!-- Node21&#45;&gt;Node11 -->
<g id="edge26" class="edge">
<title>Node21&#45;&gt;Node11</title>
<path fill="none" stroke="midnightblue" d="M385.1,-377.86C410.59,-372.56 444.1,-365.58 472.26,-359.72"/>
<polygon fill="midnightblue" stroke="midnightblue" points="473.29,-363.08 482.37,-357.61 471.86,-356.22 473.29,-363.08"/>
</g>
<!-- Node22 -->
<g id="node22" class="node">
<title>Node22</title>
<g id="a_node22"><a xlink:href="classAxisRaw.html#af8208752dcbb14911c5fda27d90a0ef4" target="_top" xlink:title=" ">
<polygon fill="none" stroke="black" points="468,-129.61 468,-148.61 590,-148.61 590,-129.61 468,-129.61"/>
<text text-anchor="middle" x="529" y="-136.61" font-family="Helvetica,sans-Serif" font-size="10.00">AxisRaw::getLE_TLast</text>
</a>
</g>
</g>
<!-- Node21&#45;&gt;Node22 -->
<g id="edge27" class="edge">
<title>Node21&#45;&gt;Node22</title>
<path fill="none" stroke="midnightblue" d="M385.07,-381.86C396.33,-379.09 407.98,-374.54 417,-367.11 485.16,-311 514.65,-202.88 524.23,-158.67"/>
<polygon fill="midnightblue" stroke="midnightblue" points="527.7,-159.16 526.29,-148.66 520.84,-157.75 527.7,-159.16"/>
</g>
<!-- Node29 -->
<g id="node29" class="node">
<title>Node29</title>
<g id="a_node29"><a xlink:href="classAxisRaw.html#a4e8ed9ad2072a6563870f9344c362a4e" target="_top" xlink:title=" ">
<polygon fill="none" stroke="black" points="453,-756.61 453,-775.61 605,-775.61 605,-756.61 453,-756.61"/>
<text text-anchor="middle" x="529" y="-763.61" font-family="Helvetica,sans-Serif" font-size="10.00">AxisRaw::clearUnusedBytes</text>
</a>
</g>
</g>
<!-- Node28&#45;&gt;Node29 -->
<g id="edge34" class="edge">
<title>Node28&#45;&gt;Node29</title>
<path fill="none" stroke="midnightblue" d="M397.31,-766.11C411.49,-766.11 427.24,-766.11 442.75,-766.11"/>
<polygon fill="midnightblue" stroke="midnightblue" points="442.9,-769.61 452.9,-766.11 442.9,-762.61 442.9,-769.61"/>
</g>
<!-- Node30&#45;&gt;Node3 -->
<g id="edge36" class="edge">
<title>Node30&#45;&gt;Node3</title>
<path fill="none" stroke="midnightblue" d="M175.96,-319.69C188.68,-343.33 224.78,-404.87 272,-438.11 278.04,-442.36 284.88,-445.9 291.89,-448.84"/>
<polygon fill="midnightblue" stroke="midnightblue" points="290.89,-452.2 301.48,-452.48 293.37,-445.66 290.89,-452.2"/>
</g>
<!-- Node30&#45;&gt;Node6 -->
<g id="edge37" class="edge">
<title>Node30&#45;&gt;Node6</title>
<path fill="none" stroke="midnightblue" d="M173.76,-319.61C182.71,-348.66 213.74,-436.96 272,-481.11 274.48,-482.99 277.13,-484.68 279.9,-486.21"/>
<polygon fill="midnightblue" stroke="midnightblue" points="278.52,-489.43 289.06,-490.54 281.51,-483.1 278.52,-489.43"/>
</g>
<!-- Node30&#45;&gt;Node9 -->
<g id="edge38" class="edge">
<title>Node30&#45;&gt;Node9</title>
<path fill="none" stroke="midnightblue" d="M177.7,-319.88C192.18,-340.05 228.59,-386.01 272,-405.11 330.25,-430.74 403.17,-433.69 456.27,-431.28"/>
<polygon fill="midnightblue" stroke="midnightblue" points="456.48,-434.78 466.28,-430.76 456.11,-427.79 456.48,-434.78"/>
</g>
<!-- Node30&#45;&gt;Node11 -->
<g id="edge39" class="edge">
<title>Node30&#45;&gt;Node11</title>
<path fill="none" stroke="midnightblue" d="M222.97,-312.73C272.86,-315.57 350.26,-320.84 417,-329.11 433.63,-331.17 451.57,-333.98 468.07,-336.81"/>
<polygon fill="midnightblue" stroke="midnightblue" points="467.69,-340.29 478.14,-338.56 468.89,-333.4 467.69,-340.29"/>
</g>
<!-- Node30&#45;&gt;Node18 -->
<g id="edge40" class="edge">
<title>Node30&#45;&gt;Node18</title>
<path fill="none" stroke="midnightblue" d="M214.53,-300.52C237.6,-295.44 266.13,-289.15 290.48,-283.79"/>
<polygon fill="midnightblue" stroke="midnightblue" points="291.27,-287.2 300.28,-281.63 289.77,-280.36 291.27,-287.2"/>
</g>
<!-- Node30&#45;&gt;Node19 -->
<g id="edge42" class="edge">
<title>Node30&#45;&gt;Node19</title>
<path fill="none" stroke="midnightblue" d="M214.53,-319.7C237.6,-324.78 266.13,-331.06 290.48,-336.43"/>
<polygon fill="midnightblue" stroke="midnightblue" points="289.77,-339.86 300.28,-338.59 291.27,-333.02 289.77,-339.86"/>
</g>
<!-- Node31 -->
<g id="node31" class="node">
<title>Node31</title>
<g id="a_node31"><a xlink:href="classAxisUdp.html#a461be53e623846a93250a75085499289" target="_top" xlink:title=" ">
<polygon fill="none" stroke="black" points="277.5,-224.61 277.5,-243.61 411.5,-243.61 411.5,-224.61 277.5,-224.61"/>
<text text-anchor="middle" x="344.5" y="-231.61" font-family="Helvetica,sans-Serif" font-size="10.00">AxisUdp::getUdpDstPort</text>
</a>
</g>
</g>
<!-- Node30&#45;&gt;Node31 -->
<g id="edge41" class="edge">
<title>Node30&#45;&gt;Node31</title>
<path fill="none" stroke="midnightblue" d="M185.13,-300.59C204.15,-288.16 239.37,-266.4 272,-253.11 277.93,-250.69 284.27,-248.5 290.62,-246.53"/>
<polygon fill="midnightblue" stroke="midnightblue" points="291.96,-249.78 300.57,-243.62 289.99,-243.07 291.96,-249.78"/>
</g>
<!-- Node32 -->
<g id="node32" class="node">
<title>Node32</title>
<g id="a_node32"><a xlink:href="classAxisUdp.html#a7232c7d04b1c7c53dd05600085aeee0c" target="_top" xlink:title=" ">
<polygon fill="none" stroke="black" points="278,-186.61 278,-205.61 411,-205.61 411,-186.61 278,-186.61"/>
<text text-anchor="middle" x="344.5" y="-193.61" font-family="Helvetica,sans-Serif" font-size="10.00">AxisUdp::getUdpSrcPort</text>
</a>
</g>
</g>
<!-- Node30&#45;&gt;Node32 -->
<g id="edge43" class="edge">
<title>Node30&#45;&gt;Node32</title>
<path fill="none" stroke="midnightblue" d="M178.48,-300.38C193.84,-281.1 230.97,-237.91 272,-215.11 276.13,-212.81 280.56,-210.78 285.1,-208.99"/>
<polygon fill="midnightblue" stroke="midnightblue" points="286.29,-212.28 294.54,-205.64 283.95,-205.69 286.29,-212.28"/>
</g>
<!-- Node33&#45;&gt;Node9 -->
<g id="edge46" class="edge">
<title>Node33&#45;&gt;Node9</title>
<path fill="none" stroke="midnightblue" d="M208.56,-205.52C217.67,-202.82 227.28,-199.64 236,-196.11 252.77,-189.31 254.44,-181.46 272,-177.11 334.55,-161.61 367.37,-136 417,-177.11 483.19,-231.94 407.78,-294.02 453,-367.11 464.15,-385.13 483.23,-399.51 499.35,-409.32"/>
<polygon fill="midnightblue" stroke="midnightblue" points="498.01,-412.59 508.42,-414.56 501.51,-406.53 498.01,-412.59"/>
</g>
<!-- Node33&#45;&gt;Node11 -->
<g id="edge47" class="edge">
<title>Node33&#45;&gt;Node11</title>
<path fill="none" stroke="midnightblue" d="M218.25,-205.49C224.55,-203.04 230.66,-199.96 236,-196.11 258.8,-179.67 247.1,-157.16 272,-144.11 329.08,-114.2 361.6,-111.18 417,-144.11 486.04,-185.14 514.85,-285.84 524.23,-328.5"/>
<polygon fill="midnightblue" stroke="midnightblue" points="520.84,-329.38 526.29,-338.46 527.69,-327.96 520.84,-329.38"/>
</g>
<!-- Node33&#45;&gt;Node18 -->
<g id="edge49" class="edge">
<title>Node33&#45;&gt;Node18</title>
<path fill="none" stroke="midnightblue" d="M194.44,-224.69C214.76,-232.81 245.06,-244.49 272,-253.11 279.4,-255.48 287.29,-257.79 295.03,-259.93"/>
<polygon fill="midnightblue" stroke="midnightblue" points="294.14,-263.32 304.7,-262.56 295.97,-256.56 294.14,-263.32"/>
</g>
<!-- Node33&#45;&gt;Node19 -->
<g id="edge52" class="edge">
<title>Node33&#45;&gt;Node19</title>
<path fill="none" stroke="midnightblue" d="M183.41,-224.67C212.73,-247.28 286.56,-304.21 322.79,-332.15"/>
<polygon fill="midnightblue" stroke="midnightblue" points="320.68,-334.94 330.74,-338.27 324.96,-329.39 320.68,-334.94"/>
</g>
<!-- Node33&#45;&gt;Node21 -->
<g id="edge54" class="edge">
<title>Node33&#45;&gt;Node21</title>
<path fill="none" stroke="midnightblue" d="M180.75,-224.75C194.33,-238.56 219.19,-265.17 236,-291.11 256.32,-322.48 243.27,-343.2 272,-367.11 278.39,-372.42 286.11,-376.27 294.09,-379.04"/>
<polygon fill="midnightblue" stroke="midnightblue" points="293.3,-382.46 303.88,-381.92 295.27,-375.74 293.3,-382.46"/>
</g>
<!-- Node33&#45;&gt;Node22 -->
<g id="edge48" class="edge">
<title>Node33&#45;&gt;Node22</title>
<path fill="none" stroke="midnightblue" d="M223.36,-205.58C228.07,-203.1 232.41,-199.99 236,-196.11 288.77,-139.12 211.69,-74.04 272,-25.11 322.04,15.5 357.63,-0.05 417,-25.11 463.21,-44.61 499.72,-93.81 517.03,-120.76"/>
<polygon fill="midnightblue" stroke="midnightblue" points="514.08,-122.64 522.34,-129.28 520.02,-118.94 514.08,-122.64"/>
</g>
<!-- Node33&#45;&gt;Node31 -->
<g id="edge51" class="edge">
<title>Node33&#45;&gt;Node31</title>
<path fill="none" stroke="midnightblue" d="M236.21,-222.29C246.3,-223.4 256.8,-224.56 267.11,-225.7"/>
<polygon fill="midnightblue" stroke="midnightblue" points="267.01,-229.21 277.33,-226.82 267.78,-222.25 267.01,-229.21"/>
</g>
<!-- Node33&#45;&gt;Node32 -->
<g id="edge53" class="edge">
<title>Node33&#45;&gt;Node32</title>
<path fill="none" stroke="midnightblue" d="M236.21,-207.93C246.55,-206.79 257.32,-205.6 267.88,-204.44"/>
<polygon fill="midnightblue" stroke="midnightblue" points="268.35,-207.91 277.91,-203.33 267.58,-200.95 268.35,-207.91"/>
</g>
<!-- Node34 -->
<g id="node34" class="node">
<title>Node34</title>
<g id="a_node34"><a xlink:href="udp_8cpp.html#ga3179abf5c515026aad3e82047a1dd9a3" target="_top" xlink:title=" ">
<polygon fill="none" stroke="black" points="306,-72.61 306,-91.61 383,-91.61 383,-72.61 306,-72.61"/>
<text text-anchor="middle" x="344.5" y="-79.61" font-family="Helvetica,sans-Serif" font-size="10.00">byteSwap16</text>
</a>
</g>
</g>
<!-- Node33&#45;&gt;Node34 -->
<g id="edge45" class="edge">
<title>Node33&#45;&gt;Node34</title>
<path fill="none" stroke="midnightblue" d="M221.4,-205.53C226.72,-203.07 231.74,-199.98 236,-196.11 267.89,-167.15 240.69,-135.7 272,-106.11 278.78,-99.7 287.32,-95 296.12,-91.56"/>
<polygon fill="midnightblue" stroke="midnightblue" points="297.37,-94.83 305.7,-88.29 295.11,-88.21 297.37,-94.83"/>
</g>
<!-- Node35 -->
<g id="node35" class="node">
<title>Node35</title>
<g id="a_node35"><a xlink:href="classAxisUdp.html#a9fdb0cba987e990c51ed23f837f79746" target="_top" xlink:title=" ">
<polygon fill="none" stroke="black" points="281.5,-34.61 281.5,-53.61 407.5,-53.61 407.5,-34.61 281.5,-34.61"/>
<text text-anchor="middle" x="344.5" y="-41.61" font-family="Helvetica,sans-Serif" font-size="10.00">AxisUdp::getUdpCsum</text>
</a>
</g>
</g>
<!-- Node33&#45;&gt;Node35 -->
<g id="edge50" class="edge">
<title>Node33&#45;&gt;Node35</title>
<path fill="none" stroke="midnightblue" d="M222.82,-205.53C227.69,-203.06 232.21,-199.97 236,-196.11 278.87,-152.38 228.6,-106.31 272,-63.11 273.43,-61.68 274.96,-60.36 276.57,-59.13"/>
<polygon fill="midnightblue" stroke="midnightblue" points="278.53,-62.03 285.16,-53.76 274.82,-56.1 278.53,-62.03"/>
</g>
</g>
</svg>
