<?xml version="1.0" encoding="UTF-8" standalone="no"?>
<!DOCTYPE svg PUBLIC "-//W3C//DTD SVG 1.1//EN"
 "http://www.w3.org/Graphics/SVG/1.1/DTD/svg11.dtd">
<!-- Generated by graphviz version 2.43.0 (0)
 -->
<!-- Title: readAxisRawFromLine Pages: 1 -->
<!--zoomable 284 -->
<svg id="main" version="1.1" xmlns="http://www.w3.org/2000/svg" xmlns:xlink="http://www.w3.org/1999/xlink" xml:space="preserve" onload="init(evt)">
<style type="text/css"><![CDATA[
.edge:hover path { stroke: red; }
.edge:hover polygon { stroke: red; fill: red; }
]]></style>
<script type="text/javascript"><![CDATA[
var edges = document.getElementsByTagName('g');
if (edges && edges.length) {
  for (var i=0;i<edges.length;i++) {
    if (edges[i].id.substr(0,4)=='edge') {
      edges[i].setAttribute('class','edge');
    }
  }
}
]]></script>
        <defs>
                <circle id="rim" cx="0" cy="0" r="7"/>
                <circle id="rim2" cx="0" cy="0" r="3.5"/>
                <g id="zoomPlus">
                        <use xlink:href="#rim" fill="#404040">
                                <set attributeName="fill" to="#808080" begin="zoomplus.mouseover" end="zoomplus.mouseout"/>
                        </use>
                        <path d="M-4,0h8M0,-4v8" fill="none" stroke="white" stroke-width="1.5" pointer-events="none"/>
                </g>
                <g id="zoomMin">
                        <use xlink:href="#rim" fill="#404040">
                                <set attributeName="fill" to="#808080" begin="zoomminus.mouseover" end="zoomminus.mouseout"/>
                        </use>
                        <path d="M-4,0h8" fill="none" stroke="white" stroke-width="1.5" pointer-events="none"/>
                </g>
                <g id="dirArrow">
                        <path fill="none" stroke="white" stroke-width="1.5" d="M0,-3.0v7 M-2.5,-0.5L0,-3.0L2.5,-0.5"/>
                </g>
               <g id="resetDef">
                       <use xlink:href="#rim2" fill="#404040">
                               <set attributeName="fill" to="#808080" begin="reset.mouseover" end="reset.mouseout"/>
                       </use>
               </g>
        </defs>

<script type="text/javascript">
var viewWidth = 665;
var viewHeight = 284;
var sectionId = 'dynsection-20';
</script>
<script xlink:href="svgpan.js"/>
<svg id="graph" class="graph">
<g id="viewport">
<title>readAxisRawFromLine</title>
<!-- Node1 -->
<g id="node1" class="node">
<title>Node1</title>
<g id="a_node1"><a xlink:title="Retrieve an AxisRaw chunk from a string.">
<polygon fill="#bfbfbf" stroke="black" points="532,-161.5 532,-180.5 657,-180.5 657,-161.5 532,-161.5"/>
<text text-anchor="middle" x="594.5" y="-168.5" font-family="Helvetica,sans-Serif" font-size="10.00">readAxisRawFromLine</text>
</a>
</g>
</g>
<!-- Node2 -->
<g id="node2" class="node">
<title>Node2</title>
<g id="a_node2"><a xlink:href="group__NTS__IPRX__TEST.html#ga0b909e5ea146aed33a8de139bebaab84" target="_top" xlink:title="Create the golden reference files from an input test file.">
<polygon fill="none" stroke="black" points="379.5,-256.5 379.5,-275.5 483.5,-275.5 483.5,-256.5 379.5,-256.5"/>
<text text-anchor="middle" x="431.5" y="-263.5" font-family="Helvetica,sans-Serif" font-size="10.00">createGoldenFiles</text>
</a>
</g>
</g>
<!-- Node1&#45;&gt;Node2 -->
<g id="edge1" class="edge">
<title>Node1&#45;&gt;Node2</title>
<path fill="none" stroke="midnightblue" d="M576.52,-187.48C558.07,-204.57 527.07,-230.97 496,-247 488.74,-250.75 480.62,-253.88 472.68,-256.44"/>
<polygon fill="midnightblue" stroke="midnightblue" points="578.97,-189.98 583.84,-180.58 574.17,-184.89 578.97,-189.98"/>
</g>
<!-- Node4 -->
<g id="node4" class="node">
<title>Node4</title>
<g id="a_node4"><a xlink:href="group__NTS__TOE__TEST.html#ga19626da81d440ab83bcba2f6838ccb87" target="_top" xlink:title="Emulate the behavior of the IP Rx Path (IPRX).">
<polygon fill="none" stroke="black" points="409,-218.5 409,-237.5 454,-237.5 454,-218.5 409,-218.5"/>
<text text-anchor="middle" x="431.5" y="-225.5" font-family="Helvetica,sans-Serif" font-size="10.00">pIPRX</text>
</a>
</g>
</g>
<!-- Node1&#45;&gt;Node4 -->
<g id="edge3" class="edge">
<title>Node1&#45;&gt;Node4</title>
<path fill="none" stroke="midnightblue" d="M561.13,-184.38C542.26,-191.98 517.94,-201.45 496,-209 482.18,-213.75 466.44,-218.47 454.09,-222.01"/>
<polygon fill="midnightblue" stroke="midnightblue" points="562.5,-187.6 570.45,-180.59 559.87,-181.11 562.5,-187.6"/>
</g>
<!-- Node5 -->
<g id="node5" class="node">
<title>Node5</title>
<g id="a_node5"><a xlink:href="group__NTS__TOE__TEST.html#ga74e69efe2106d8c4d2baa125f6b40459" target="_top" xlink:title="TCP Application Send (TAs). Emulates the Tx process of the TAIF.">
<polygon fill="none" stroke="black" points="395,-180.5 395,-199.5 468,-199.5 468,-180.5 395,-180.5"/>
<text text-anchor="middle" x="431.5" y="-187.5" font-family="Helvetica,sans-Serif" font-size="10.00">pTAIF_Send</text>
</a>
</g>
</g>
<!-- Node1&#45;&gt;Node5 -->
<g id="edge4" class="edge">
<title>Node1&#45;&gt;Node5</title>
<path fill="none" stroke="midnightblue" d="M521.54,-179.49C503.08,-181.67 484,-183.92 468.27,-185.78"/>
<polygon fill="midnightblue" stroke="midnightblue" points="522.19,-182.94 531.71,-178.29 521.37,-175.99 522.19,-182.94"/>
</g>
<!-- Node7 -->
<g id="node7" class="node">
<title>Node7</title>
<g id="a_node7"><a xlink:href="group__tcp__app__flash.html#ga597741237109a3f2e0956d63a3561e33" target="_top" xlink:title="Emulate the sending part of the TSIF process.">
<polygon fill="none" stroke="black" points="395,-142.5 395,-161.5 468,-161.5 468,-142.5 395,-142.5"/>
<text text-anchor="middle" x="431.5" y="-149.5" font-family="Helvetica,sans-Serif" font-size="10.00">pTSIF_Send</text>
</a>
</g>
</g>
<!-- Node1&#45;&gt;Node7 -->
<g id="edge6" class="edge">
<title>Node1&#45;&gt;Node7</title>
<path fill="none" stroke="midnightblue" d="M521.54,-162.51C503.08,-160.33 484,-158.08 468.27,-156.22"/>
<polygon fill="midnightblue" stroke="midnightblue" points="521.37,-166.01 531.71,-163.71 522.19,-159.06 521.37,-166.01"/>
</g>
<!-- Node10 -->
<g id="node10" class="node">
<title>Node10</title>
<g id="a_node10"><a xlink:href="group__NTS__SIM.html#gad3c7d60ad2a2645c46baa9f996b7645e" target="_top" xlink:title="Retrieve an Axis raw data chunk from a file.">
<polygon fill="none" stroke="black" points="370.5,-95.5 370.5,-114.5 492.5,-114.5 492.5,-95.5 370.5,-95.5"/>
<text text-anchor="middle" x="431.5" y="-102.5" font-family="Helvetica,sans-Serif" font-size="10.00">readAxisRawFromFile</text>
</a>
</g>
</g>
<!-- Node1&#45;&gt;Node10 -->
<g id="edge9" class="edge">
<title>Node1&#45;&gt;Node10</title>
<path fill="none" stroke="midnightblue" d="M560.51,-157.48C529.28,-144.68 483.2,-125.78 455.68,-114.5"/>
<polygon fill="midnightblue" stroke="midnightblue" points="559.51,-160.85 570.09,-161.4 562.16,-154.37 559.51,-160.85"/>
</g>
<!-- Node19 -->
<g id="node19" class="node">
<title>Node19</title>
<g id="a_node19"><a xlink:href="group__NTS__UOE__TEST.html#ga401bd522a62eaf39853dcc63d7080cb8" target="_top" xlink:title="Read a datagram from a DAT file.">
<polygon fill="none" stroke="black" points="367,-38.5 367,-57.5 496,-57.5 496,-38.5 367,-38.5"/>
<text text-anchor="middle" x="431.5" y="-45.5" font-family="Helvetica,sans-Serif" font-size="10.00">readDatagramFromFile</text>
</a>
</g>
</g>
<!-- Node1&#45;&gt;Node19 -->
<g id="edge20" class="edge">
<title>Node1&#45;&gt;Node19</title>
<path fill="none" stroke="midnightblue" d="M576.49,-154.51C557.62,-136.61 525.89,-107.71 496,-86 481.24,-75.28 463.32,-64.76 450.28,-57.52"/>
<polygon fill="midnightblue" stroke="midnightblue" points="574.1,-157.06 583.75,-161.45 578.94,-152 574.1,-157.06"/>
</g>
<!-- Node3 -->
<g id="node3" class="node">
<title>Node3</title>
<g id="a_node3"><a xlink:href="group__NTS__IPRX__TEST.html#ga0ddf1224851353fc92bfbff6f499fa97" target="_top" xlink:title="Main function.">
<polygon fill="none" stroke="black" points="260,-256.5 260,-275.5 301,-275.5 301,-256.5 260,-256.5"/>
<text text-anchor="middle" x="280.5" y="-263.5" font-family="Helvetica,sans-Serif" font-size="10.00">main</text>
</a>
</g>
</g>
<!-- Node2&#45;&gt;Node3 -->
<g id="edge2" class="edge">
<title>Node2&#45;&gt;Node3</title>
<path fill="none" stroke="midnightblue" d="M368.94,-266C344.61,-266 318.37,-266 301.06,-266"/>
<polygon fill="midnightblue" stroke="midnightblue" points="369.22,-269.5 379.22,-266 369.22,-262.5 369.22,-269.5"/>
</g>
<!-- Node6 -->
<g id="node6" class="node">
<title>Node6</title>
<g id="a_node6"><a xlink:href="group__NTS__TOE__TEST.html#ga45fdc434ab89031e3c94815b0c38a042" target="_top" xlink:title="Emulates the behavior of the TCP application interface (TAIF).">
<polygon fill="none" stroke="black" points="258.5,-190.5 258.5,-209.5 302.5,-209.5 302.5,-190.5 258.5,-190.5"/>
<text text-anchor="middle" x="280.5" y="-197.5" font-family="Helvetica,sans-Serif" font-size="10.00">pTAIF</text>
</a>
</g>
</g>
<!-- Node5&#45;&gt;Node6 -->
<g id="edge5" class="edge">
<title>Node5&#45;&gt;Node6</title>
<path fill="none" stroke="midnightblue" d="M384.66,-193.08C357.31,-194.91 323.88,-197.16 302.64,-198.58"/>
<polygon fill="midnightblue" stroke="midnightblue" points="385.07,-196.56 394.81,-192.4 384.6,-189.57 385.07,-196.56"/>
</g>
<!-- Node8 -->
<g id="node8" class="node">
<title>Node8</title>
<g id="a_node8"><a xlink:href="group__tcp__app__flash.html#gaff2d8688a7c8145511a4564cc92764de" target="_top" xlink:title="Emulate the behavior of TSIF.">
<polygon fill="none" stroke="black" points="258.5,-152.5 258.5,-171.5 302.5,-171.5 302.5,-152.5 258.5,-152.5"/>
<text text-anchor="middle" x="280.5" y="-159.5" font-family="Helvetica,sans-Serif" font-size="10.00">pTSIF</text>
</a>
</g>
</g>
<!-- Node7&#45;&gt;Node8 -->
<g id="edge7" class="edge">
<title>Node7&#45;&gt;Node8</title>
<path fill="none" stroke="midnightblue" d="M384.66,-155.08C357.31,-156.91 323.88,-159.16 302.64,-160.58"/>
<polygon fill="midnightblue" stroke="midnightblue" points="385.07,-158.56 394.81,-154.4 384.6,-151.57 385.07,-158.56"/>
</g>
<!-- Node9 -->
<g id="node9" class="node">
<title>Node9</title>
<g id="a_node9"><a xlink:href="group__tcp__app__flash.html#ga0ddf1224851353fc92bfbff6f499fa97" target="_top" xlink:title="Main function for the test of the TCP Application Flash (TAF).">
<polygon fill="none" stroke="black" points="115,-228.5 115,-247.5 156,-247.5 156,-228.5 115,-228.5"/>
<text text-anchor="middle" x="135.5" y="-235.5" font-family="Helvetica,sans-Serif" font-size="10.00">main</text>
</a>
</g>
</g>
<!-- Node8&#45;&gt;Node9 -->
<g id="edge8" class="edge">
<title>Node8&#45;&gt;Node9</title>
<path fill="none" stroke="midnightblue" d="M248.47,-171.47C242.1,-174.07 235.62,-177.24 230,-181 210.66,-193.93 213.64,-206.53 194,-219 182.46,-226.33 167.81,-231.11 156.19,-234.05"/>
<polygon fill="midnightblue" stroke="midnightblue" points="250.11,-174.59 258.27,-167.83 247.68,-168.03 250.11,-174.59"/>
</g>
<!-- Node11 -->
<g id="node11" class="node">
<title>Node11</title>
<g id="a_node11"><a xlink:href="group__NTS__ARP__TEST.html#ga5e15c6fbfca5524e0c76a49943f75b67" target="_top" xlink:title="Create the golden reference file from an input test file.">
<polygon fill="none" stroke="black" points="231,-76.5 231,-95.5 330,-95.5 330,-76.5 231,-76.5"/>
<text text-anchor="middle" x="280.5" y="-83.5" font-family="Helvetica,sans-Serif" font-size="10.00">createGoldenFile</text>
</a>
</g>
</g>
<!-- Node10&#45;&gt;Node11 -->
<g id="edge10" class="edge">
<title>Node10&#45;&gt;Node11</title>
<path fill="none" stroke="midnightblue" d="M360.3,-96.05C350.21,-94.76 340.02,-93.46 330.47,-92.24"/>
<polygon fill="midnightblue" stroke="midnightblue" points="359.96,-99.53 370.33,-97.33 360.85,-92.59 359.96,-99.53"/>
</g>
<!-- Node13 -->
<g id="node13" class="node">
<title>Node13</title>
<g id="a_node13"><a xlink:href="group__NTS__UOE__TEST.html#ga40610514eb0285c8afbe8cfe003638f6" target="_top" xlink:title="Create the golden Rx APP reference files from an input IPRX test file.">
<polygon fill="none" stroke="black" points="77,-38.5 77,-57.5 194,-57.5 194,-38.5 77,-38.5"/>
<text text-anchor="middle" x="135.5" y="-45.5" font-family="Helvetica,sans-Serif" font-size="10.00">createGoldenRxFiles</text>
</a>
</g>
</g>
<!-- Node10&#45;&gt;Node13 -->
<g id="edge12" class="edge">
<title>Node10&#45;&gt;Node13</title>
<path fill="none" stroke="midnightblue" d="M401.18,-91.42C381.7,-83 355.33,-72.72 331,-67 285.75,-56.35 233.23,-51.66 194.18,-49.6"/>
<polygon fill="midnightblue" stroke="midnightblue" points="399.86,-94.66 410.42,-95.5 402.69,-88.26 399.86,-94.66"/>
</g>
<!-- Node15 -->
<g id="node15" class="node">
<title>Node15</title>
<g id="a_node15"><a xlink:href="group__NTS__SIM.html#ga6ca80140c75da871abab47ecc16ecada" target="_top" xlink:title="Initialize an Axi4&#45;Stream (Axis) from a DAT file.">
<polygon fill="none" stroke="black" points="230,-114.5 230,-133.5 331,-133.5 331,-114.5 230,-114.5"/>
<text text-anchor="middle" x="280.5" y="-121.5" font-family="Helvetica,sans-Serif" font-size="10.00">feedAxisFromFile</text>
</a>
</g>
</g>
<!-- Node10&#45;&gt;Node15 -->
<g id="edge14" class="edge">
<title>Node10&#45;&gt;Node15</title>
<path fill="none" stroke="midnightblue" d="M360.24,-113.96C350.5,-115.2 340.66,-116.46 331.4,-117.64"/>
<polygon fill="midnightblue" stroke="midnightblue" points="360.85,-117.41 370.33,-112.67 359.96,-110.47 360.85,-117.41"/>
</g>
<!-- Node12 -->
<g id="node12" class="node">
<title>Node12</title>
<g id="a_node12"><a xlink:href="group__NTS__ARP__TEST.html#ga0ddf1224851353fc92bfbff6f499fa97" target="_top" xlink:title="Main function.">
<polygon fill="none" stroke="black" points="115,-76.5 115,-95.5 156,-95.5 156,-76.5 115,-76.5"/>
<text text-anchor="middle" x="135.5" y="-83.5" font-family="Helvetica,sans-Serif" font-size="10.00">main</text>
</a>
</g>
</g>
<!-- Node11&#45;&gt;Node12 -->
<g id="edge11" class="edge">
<title>Node11&#45;&gt;Node12</title>
<path fill="none" stroke="midnightblue" d="M220.62,-86C197.59,-86 172.77,-86 156.1,-86"/>
<polygon fill="midnightblue" stroke="midnightblue" points="220.69,-89.5 230.69,-86 220.69,-82.5 220.69,-89.5"/>
</g>
<!-- Node14 -->
<g id="node14" class="node">
<title>Node14</title>
<g id="a_node14"><a xlink:href="group__NTS__UOE__TEST.html#ga0ddf1224851353fc92bfbff6f499fa97" target="_top" xlink:title="Main function.">
<polygon fill="none" stroke="black" points="0,-76.5 0,-95.5 41,-95.5 41,-76.5 0,-76.5"/>
<text text-anchor="middle" x="20.5" y="-83.5" font-family="Helvetica,sans-Serif" font-size="10.00">main</text>
</a>
</g>
</g>
<!-- Node13&#45;&gt;Node14 -->
<g id="edge13" class="edge">
<title>Node13&#45;&gt;Node14</title>
<path fill="none" stroke="midnightblue" d="M95.83,-60.72C89.53,-62.8 83.08,-64.95 77,-67 65.03,-71.03 51.63,-75.61 41,-79.27"/>
<polygon fill="midnightblue" stroke="midnightblue" points="97.13,-63.97 105.52,-57.51 94.93,-57.33 97.13,-63.97"/>
</g>
<!-- Node15&#45;&gt;Node14 -->
<g id="edge19" class="edge">
<title>Node15&#45;&gt;Node14</title>
<path fill="none" stroke="midnightblue" d="M245.35,-136.79C203.83,-150.22 132.45,-166.4 77,-143 54.09,-133.33 35.96,-109.08 27.21,-95.53"/>
<polygon fill="midnightblue" stroke="midnightblue" points="246.62,-140.05 254.98,-133.55 244.39,-133.42 246.62,-140.05"/>
</g>
<!-- Node16 -->
<g id="node16" class="node">
<title>Node16</title>
<g id="a_node16"><a xlink:href="group__udp__app__flash.html#ga8cd87b3a5a21f18fbd5bd9649a66e05c" target="_top" xlink:title="Create the UDP Rx traffic as streams from an input test file.">
<polygon fill="none" stroke="black" points="81,-190.5 81,-209.5 190,-209.5 190,-190.5 81,-190.5"/>
<text text-anchor="middle" x="135.5" y="-197.5" font-family="Helvetica,sans-Serif" font-size="10.00">createUdpRxTraffic</text>
</a>
</g>
</g>
<!-- Node15&#45;&gt;Node16 -->
<g id="edge15" class="edge">
<title>Node15&#45;&gt;Node16</title>
<path fill="none" stroke="midnightblue" d="M240.03,-137.57C236.55,-139.23 233.16,-141.04 230,-143 211.54,-154.42 212.29,-164.31 194,-176 184.98,-181.77 174.33,-186.66 164.67,-190.5"/>
<polygon fill="midnightblue" stroke="midnightblue" points="241.56,-140.72 249.32,-133.51 238.76,-134.31 241.56,-140.72"/>
</g>
<!-- Node18 -->
<g id="node18" class="node">
<title>Node18</title>
<g id="a_node18"><a xlink:href="group__NTS__UOE__TEST.html#gaf5979b45ae23c07cf9c78c6377fec346" target="_top" xlink:title="Create the UDP Tx traffic as streams from an input test file.">
<polygon fill="none" stroke="black" points="81.5,-114.5 81.5,-133.5 189.5,-133.5 189.5,-114.5 81.5,-114.5"/>
<text text-anchor="middle" x="135.5" y="-121.5" font-family="Helvetica,sans-Serif" font-size="10.00">createUdpTxTraffic</text>
</a>
</g>
</g>
<!-- Node15&#45;&gt;Node18 -->
<g id="edge17" class="edge">
<title>Node15&#45;&gt;Node18</title>
<path fill="none" stroke="midnightblue" d="M219.73,-124C209.84,-124 199.64,-124 189.93,-124"/>
<polygon fill="midnightblue" stroke="midnightblue" points="219.89,-127.5 229.89,-124 219.89,-120.5 219.89,-127.5"/>
</g>
<!-- Node17 -->
<g id="node17" class="node">
<title>Node17</title>
<g id="a_node17"><a xlink:href="group__udp__app__flash.html#ga0ddf1224851353fc92bfbff6f499fa97" target="_top" xlink:title="Main function for the test of the UDP Application Flash (UAF).">
<polygon fill="none" stroke="black" points="0,-190.5 0,-209.5 41,-209.5 41,-190.5 0,-190.5"/>
<text text-anchor="middle" x="20.5" y="-197.5" font-family="Helvetica,sans-Serif" font-size="10.00">main</text>
</a>
</g>
</g>
<!-- Node16&#45;&gt;Node17 -->
<g id="edge16" class="edge">
<title>Node16&#45;&gt;Node17</title>
<path fill="none" stroke="midnightblue" d="M70.96,-200C60.1,-200 49.6,-200 41.08,-200"/>
<polygon fill="midnightblue" stroke="midnightblue" points="70.98,-203.5 80.98,-200 70.98,-196.5 70.98,-203.5"/>
</g>
<!-- Node18&#45;&gt;Node14 -->
<g id="edge18" class="edge">
<title>Node18&#45;&gt;Node14</title>
<path fill="none" stroke="midnightblue" d="M95.83,-111.28C89.53,-109.2 83.08,-107.05 77,-105 65.03,-100.97 51.63,-96.39 41,-92.73"/>
<polygon fill="midnightblue" stroke="midnightblue" points="94.93,-114.67 105.52,-114.49 97.13,-108.03 94.93,-114.67"/>
</g>
<!-- Node20 -->
<g id="node20" class="node">
<title>Node20</title>
<g id="a_node20"><a xlink:href="group__NTS__UOE__TEST.html#ga0aea8acea94e854cc4f5d8a5b2bb6809" target="_top" xlink:title="Create the golden IPTX reference file from an input UAIF test file.">
<polygon fill="none" stroke="black" points="77.5,-0.5 77.5,-19.5 193.5,-19.5 193.5,-0.5 77.5,-0.5"/>
<text text-anchor="middle" x="135.5" y="-7.5" font-family="Helvetica,sans-Serif" font-size="10.00">createGoldenTxFiles</text>
</a>
</g>
</g>
<!-- Node19&#45;&gt;Node20 -->
<g id="edge21" class="edge">
<title>Node19&#45;&gt;Node20</title>
<path fill="none" stroke="midnightblue" d="M356.71,-37.47C348.04,-36.28 339.33,-35.1 331,-34 284.79,-27.9 232.33,-21.45 193.55,-16.78"/>
<polygon fill="midnightblue" stroke="midnightblue" points="356.44,-40.97 366.83,-38.88 357.4,-34.04 356.44,-40.97"/>
</g>
<!-- Node20&#45;&gt;Node14 -->
<g id="edge22" class="edge">
<title>Node20&#45;&gt;Node14</title>
<path fill="none" stroke="midnightblue" d="M87.55,-23.37C83.88,-25.05 80.31,-26.93 77,-29 56.62,-41.74 38.31,-63.5 28.66,-76.12"/>
<polygon fill="midnightblue" stroke="midnightblue" points="88.91,-26.6 96.82,-19.56 86.24,-20.12 88.91,-26.6"/>
</g>
</g>
</svg>
        <g id="navigator" transform="translate(0 0)" fill="#404254">
                <rect fill="#f2f5e9" fill-opacity="0.5" stroke="#606060" stroke-width=".5" x="0" y="0" width="60" height="60"/>
                <use id="zoomplus" xlink:href="#zoomPlus" x="17" y="9" onmousedown="handleZoom(evt,'in')"/>
                <use id="zoomminus" xlink:href="#zoomMin" x="42" y="9" onmousedown="handleZoom(evt,'out')"/>
                <use id="reset" xlink:href="#resetDef" x="30" y="36" onmousedown="handleReset()"/>
                <g id="arrowUp" xlink:href="#dirArrow" transform="translate(30 24)" onmousedown="handlePan(0,-1)">
                  <use xlink:href="#rim" fill="#404040">
                        <set attributeName="fill" to="#808080" begin="arrowUp.mouseover" end="arrowUp.mouseout"/>
                  </use>
                  <path fill="none" stroke="white" stroke-width="1.5" d="M0,-3.0v7 M-2.5,-0.5L0,-3.0L2.5,-0.5"/>
                </g>
                <g id="arrowRight" xlink:href="#dirArrow" transform="rotate(90) translate(36 -43)" onmousedown="handlePan(1,0)">
                  <use xlink:href="#rim" fill="#404040">
                        <set attributeName="fill" to="#808080" begin="arrowRight.mouseover" end="arrowRight.mouseout"/>
                  </use>
                  <path fill="none" stroke="white" stroke-width="1.5" d="M0,-3.0v7 M-2.5,-0.5L0,-3.0L2.5,-0.5"/>
                </g>
                <g id="arrowDown" xlink:href="#dirArrow" transform="rotate(180) translate(-30 -48)" onmousedown="handlePan(0,1)">
                  <use xlink:href="#rim" fill="#404040">
                        <set attributeName="fill" to="#808080" begin="arrowDown.mouseover" end="arrowDown.mouseout"/>
                  </use>
                  <path fill="none" stroke="white" stroke-width="1.5" d="M0,-3.0v7 M-2.5,-0.5L0,-3.0L2.5,-0.5"/>
                </g>
                <g id="arrowLeft" xlink:href="#dirArrow" transform="rotate(270) translate(-36 17)" onmousedown="handlePan(-1,0)">
                  <use xlink:href="#rim" fill="#404040">
                        <set attributeName="fill" to="#808080" begin="arrowLeft.mouseover" end="arrowLeft.mouseout"/>
                  </use>
                  <path fill="none" stroke="white" stroke-width="1.5" d="M0,-3.0v7 M-2.5,-0.5L0,-3.0L2.5,-0.5"/>
                </g>
        </g>
        <svg viewBox="0 0 15 15" width="100%" height="30px" preserveAspectRatio="xMaxYMin meet">
         <g id="arrow_out" transform="scale(0.3 0.3)">
          <a xlink:href="group__NTS__SIM_ga1add155284d4605102a262fdc5a5657b_icgraph_org.svg" target="_base">
           <rect id="button" ry="5" rx="5" y="6" x="6" height="38" width="38"
                fill="#f2f5e9" fill-opacity="0.5" stroke="#606060" stroke-width="1.0"/>
           <path id="arrow"
             d="M 11.500037,31.436501 C 11.940474,20.09759 22.043105,11.32322 32.158766,21.979434 L 37.068811,17.246167 C 37.068811,17.246167 37.088388,32 37.088388,32 L 22.160133,31.978069 C 22.160133,31.978069 26.997745,27.140456 26.997745,27.140456 C 18.528582,18.264221 13.291696,25.230495 11.500037,31.436501 z"
             style="fill:#404040;"/>
          </a>
         </g>
        </svg>
</svg>
