<?xml version="1.0" encoding="UTF-8" standalone="no"?>
<!DOCTYPE svg PUBLIC "-//W3C//DTD SVG 1.1//EN"
 "http://www.w3.org/Graphics/SVG/1.1/DTD/svg11.dtd">
<!-- Generated by graphviz version 2.43.0 (0)
 -->
<!-- Title: soUdp_meta Pages: 1 -->
<svg width="484pt" height="125pt"
 viewBox="0.00 0.00 484.00 125.35" xmlns="http://www.w3.org/2000/svg" xmlns:xlink="http://www.w3.org/1999/xlink">
<g id="graph0" class="graph" transform="scale(1 1) rotate(0) translate(4 121.35)">
<title>soUdp_meta</title>
<!-- Node1 -->
<g id="node1" class="node">
<title>Node1</title>
<g id="a_node1"><a xlink:title=" ">
<polygon fill="#bfbfbf" stroke="black" points="398,-56.64 398,-75.64 476,-75.64 476,-56.64 398,-56.64"/>
<text text-anchor="middle" x="437" y="-63.64" font-family="Helvetica,sans-Serif" font-size="10.00">soUdp_meta</text>
</a>
</g>
</g>
<!-- Node2 -->
<g id="node2" class="node">
<title>Node2</title>
<g id="a_node2"><a xlink:href="group__NAL.html#gae66f6b31b5ad750f1fe042a706a4e3d4" target="_top" xlink:title="Main Testbench Loop; Emulates also the behavior of the UDP Offload Engine (UOE).">
<polygon fill="none" stroke="black" points="0,-94.64 0,-113.64 41,-113.64 41,-94.64 0,-94.64"/>
<text text-anchor="middle" x="20.5" y="-101.64" font-family="Helvetica,sans-Serif" font-size="10.00">main</text>
</a>
</g>
</g>
<!-- Node1&#45;&gt;Node2 -->
<g id="edge1" class="edge">
<title>Node1&#45;&gt;Node2</title>
<path fill="none" stroke="midnightblue" d="M411.89,-80.82C397.87,-88.5 379.56,-97.12 362,-101.14 242.72,-128.48 93.71,-113.57 41.04,-106.86"/>
<polygon fill="midnightblue" stroke="midnightblue" points="413.88,-83.72 420.84,-75.73 410.42,-77.63 413.88,-83.72"/>
</g>
<!-- Node3 -->
<g id="node3" class="node">
<title>Node3</title>
<g id="a_node3"><a xlink:href="group__NAL.html#ga9087660a7942cb823c0fa5f350a10844" target="_top" xlink:title="Main process of the Network Abstraction Layer (NAL)">
<polygon fill="none" stroke="black" points="168,-56.64 168,-75.64 230,-75.64 230,-56.64 168,-56.64"/>
<text text-anchor="middle" x="199" y="-63.64" font-family="Helvetica,sans-Serif" font-size="10.00">nal_main</text>
</a>
</g>
</g>
<!-- Node1&#45;&gt;Node3 -->
<g id="edge2" class="edge">
<title>Node1&#45;&gt;Node3</title>
<path fill="none" stroke="midnightblue" d="M396.32,-78.29C385.31,-81.12 373.28,-83.72 362,-85.14 319.67,-90.49 308.25,-91.1 266,-85.14 252.78,-83.28 238.49,-79.41 226.6,-75.65"/>
<polygon fill="midnightblue" stroke="midnightblue" points="397.35,-81.63 406.09,-75.65 395.52,-74.88 397.35,-81.63"/>
</g>
<!-- Node4 -->
<g id="node4" class="node">
<title>Node4</title>
<g id="a_node4"><a xlink:href="group__NAL.html#gad0919afcfb3151dee3f8653944ea7185" target="_top" xlink:title="Run a single iteration of the DUT model.">
<polygon fill="none" stroke="black" points="77,-56.64 77,-75.64 132,-75.64 132,-56.64 77,-56.64"/>
<text text-anchor="middle" x="104.5" y="-63.64" font-family="Helvetica,sans-Serif" font-size="10.00">stepDut</text>
</a>
</g>
</g>
<!-- Node1&#45;&gt;Node4 -->
<g id="edge9" class="edge">
<title>Node1&#45;&gt;Node4</title>
<path fill="none" stroke="midnightblue" d="M420.42,-49.08C406.61,-35.32 385.1,-17.01 362,-9.14 273.69,20.92 162.79,-33.42 121.74,-56.5"/>
<polygon fill="midnightblue" stroke="midnightblue" points="418.15,-51.77 427.61,-56.54 423.19,-46.92 418.15,-51.77"/>
</g>
<!-- Node5 -->
<g id="node5" class="node">
<title>Node5</title>
<g id="a_node5"><a xlink:href="group__NAL.html#ga45a5fc73b13191ba4c8d30d3bea5fde9" target="_top" xlink:title="Terminates the internal UDP RX FIFOs and forwards packets to the Role.">
<polygon fill="none" stroke="black" points="266,-56.64 266,-75.64 362,-75.64 362,-56.64 266,-56.64"/>
<text text-anchor="middle" x="314" y="-63.64" font-family="Helvetica,sans-Serif" font-size="10.00">pRoleUdpRxDeq</text>
</a>
</g>
</g>
<!-- Node1&#45;&gt;Node5 -->
<g id="edge5" class="edge">
<title>Node1&#45;&gt;Node5</title>
<path fill="none" stroke="midnightblue" d="M387.46,-66.14C379.2,-66.14 370.62,-66.14 362.39,-66.14"/>
<polygon fill="midnightblue" stroke="midnightblue" points="387.71,-69.64 397.71,-66.14 387.71,-62.64 387.71,-69.64"/>
</g>
<!-- Node6 -->
<g id="node6" class="node">
<title>Node6</title>
<g id="a_node6"><a xlink:href="group__NAL.html#gadc2dd54f8ab1fee73a2cc7085edef945" target="_top" xlink:title="Processes the incoming UDP packets (i.e. Network &#45;&gt; ROLE ).">
<polygon fill="none" stroke="black" points="286.5,-18.64 286.5,-37.64 341.5,-37.64 341.5,-18.64 286.5,-18.64"/>
<text text-anchor="middle" x="314" y="-25.64" font-family="Helvetica,sans-Serif" font-size="10.00">pUdpRx</text>
</a>
</g>
</g>
<!-- Node1&#45;&gt;Node6 -->
<g id="edge7" class="edge">
<title>Node1&#45;&gt;Node6</title>
<path fill="none" stroke="midnightblue" d="M395.91,-53.56C378.14,-47.97 357.7,-41.56 341.82,-36.57"/>
<polygon fill="midnightblue" stroke="midnightblue" points="394.88,-56.9 405.47,-56.56 396.97,-50.22 394.88,-56.9"/>
</g>
<!-- Node3&#45;&gt;Node4 -->
<g id="edge3" class="edge">
<title>Node3&#45;&gt;Node4</title>
<path fill="none" stroke="midnightblue" d="M157.69,-66.14C149.09,-66.14 140.21,-66.14 132.26,-66.14"/>
<polygon fill="midnightblue" stroke="midnightblue" points="157.97,-69.64 167.97,-66.14 157.97,-62.64 157.97,-69.64"/>
</g>
<!-- Node4&#45;&gt;Node2 -->
<g id="edge4" class="edge">
<title>Node4&#45;&gt;Node2</title>
<path fill="none" stroke="midnightblue" d="M73.64,-79.98C62.78,-85.01 50.8,-90.57 41.06,-95.08"/>
<polygon fill="midnightblue" stroke="midnightblue" points="75.21,-83.11 82.81,-75.73 72.26,-76.76 75.21,-83.11"/>
</g>
<!-- Node5&#45;&gt;Node3 -->
<g id="edge6" class="edge">
<title>Node5&#45;&gt;Node3</title>
<path fill="none" stroke="midnightblue" d="M255.73,-66.14C246.83,-66.14 237.96,-66.14 230,-66.14"/>
<polygon fill="midnightblue" stroke="midnightblue" points="255.73,-69.64 265.73,-66.14 255.73,-62.64 255.73,-69.64"/>
</g>
<!-- Node6&#45;&gt;Node3 -->
<g id="edge8" class="edge">
<title>Node6&#45;&gt;Node3</title>
<path fill="none" stroke="midnightblue" d="M276.41,-40.45C260.9,-45.67 243.09,-51.66 228.56,-56.54"/>
<polygon fill="midnightblue" stroke="midnightblue" points="277.86,-43.66 286.22,-37.15 275.63,-37.02 277.86,-43.66"/>
</g>
</g>
</svg>
