<?xml version="1.0" encoding="UTF-8" standalone="no"?>
<!DOCTYPE svg PUBLIC "-//W3C//DTD SVG 1.1//EN"
 "http://www.w3.org/Graphics/SVG/1.1/DTD/svg11.dtd">
<!-- Generated by graphviz version 2.43.0 (0)
 -->
<!-- Title: pIpChecksumAccumulator Pages: 1 -->
<svg width="328pt" height="370pt"
 viewBox="0.00 0.00 328.00 370.00" xmlns="http://www.w3.org/2000/svg" xmlns:xlink="http://www.w3.org/1999/xlink">
<g id="graph0" class="graph" transform="scale(1 1) rotate(0) translate(4 366)">
<title>pIpChecksumAccumulator</title>
<!-- Node1 -->
<g id="node1" class="node">
<title>Node1</title>
<g id="a_node1"><a xlink:title=" ">
<polygon fill="#bfbfbf" stroke="black" points="0,-171.5 0,-190.5 144,-190.5 144,-171.5 0,-171.5"/>
<text text-anchor="middle" x="72" y="-178.5" font-family="Helvetica,sans-Serif" font-size="10.00">pIpChecksumAccumulator</text>
</a>
</g>
</g>
<!-- Node2 -->
<g id="node2" class="node">
<title>Node2</title>
<g id="a_node2"><a xlink:href="udp_8cpp.html#ga3179abf5c515026aad3e82047a1dd9a3" target="_top" xlink:title=" ">
<polygon fill="none" stroke="black" points="211.5,-342.5 211.5,-361.5 288.5,-361.5 288.5,-342.5 211.5,-342.5"/>
<text text-anchor="middle" x="250" y="-349.5" font-family="Helvetica,sans-Serif" font-size="10.00">byteSwap16</text>
</a>
</g>
</g>
<!-- Node1&#45;&gt;Node2 -->
<g id="edge1" class="edge">
<title>Node1&#45;&gt;Node2</title>
<path fill="none" stroke="midnightblue" d="M76.92,-190.56C88.43,-217.44 124.84,-294.19 180,-333 186.5,-337.57 194.06,-341.05 201.75,-343.69"/>
<polygon fill="midnightblue" stroke="midnightblue" points="200.9,-347.09 211.48,-346.6 202.91,-340.38 200.9,-347.09"/>
</g>
<!-- Node3 -->
<g id="node3" class="node">
<title>Node3</title>
<g id="a_node3"><a xlink:href="classAxisEth.html#a26cf5a74fe4bbd9c19ee63dab3f31ca1" target="_top" xlink:title=" ">
<polygon fill="none" stroke="black" points="180,-304.5 180,-323.5 320,-323.5 320,-304.5 180,-304.5"/>
<text text-anchor="middle" x="250" y="-311.5" font-family="Helvetica,sans-Serif" font-size="10.00">AxisEth::getIp4DstAddrHi</text>
</a>
</g>
</g>
<!-- Node1&#45;&gt;Node3 -->
<g id="edge2" class="edge">
<title>Node1&#45;&gt;Node3</title>
<path fill="none" stroke="midnightblue" d="M79.23,-190.62C93.96,-212.61 133.29,-266.81 180,-295 183.59,-297.17 187.43,-299.09 191.4,-300.8"/>
<polygon fill="midnightblue" stroke="midnightblue" points="190.23,-304.1 200.82,-304.41 192.74,-297.57 190.23,-304.1"/>
</g>
<!-- Node4 -->
<g id="node4" class="node">
<title>Node4</title>
<g id="a_node4"><a xlink:href="classAxisEth.html#a4501a17df4c9fcc5fdb945cfc1165886" target="_top" xlink:title=" ">
<polygon fill="none" stroke="black" points="180,-266.5 180,-285.5 320,-285.5 320,-266.5 180,-266.5"/>
<text text-anchor="middle" x="250" y="-273.5" font-family="Helvetica,sans-Serif" font-size="10.00">AxisEth::getIp4DstAddrLo</text>
</a>
</g>
</g>
<!-- Node1&#45;&gt;Node4 -->
<g id="edge3" class="edge">
<title>Node1&#45;&gt;Node4</title>
<path fill="none" stroke="midnightblue" d="M83.74,-190.61C102.16,-206.6 141.51,-238.73 180,-257 184.91,-259.33 190.16,-261.42 195.48,-263.28"/>
<polygon fill="midnightblue" stroke="midnightblue" points="194.51,-266.64 205.1,-266.39 196.66,-259.98 194.51,-266.64"/>
</g>
<!-- Node5 -->
<g id="node5" class="node">
<title>Node5</title>
<g id="a_node5"><a xlink:href="classAxisEth.html#a0a9928cf79acb520792e21838d5cf4db" target="_top" xlink:title=" ">
<polygon fill="none" stroke="black" points="187.5,-228.5 187.5,-247.5 312.5,-247.5 312.5,-228.5 187.5,-228.5"/>
<text text-anchor="middle" x="250" y="-235.5" font-family="Helvetica,sans-Serif" font-size="10.00">AxisEth::getIp4HdrLen</text>
</a>
</g>
</g>
<!-- Node1&#45;&gt;Node5 -->
<g id="edge4" class="edge">
<title>Node1&#45;&gt;Node5</title>
<path fill="none" stroke="midnightblue" d="M98.34,-190.58C119.91,-198.6 151.79,-210.12 180,-219 187.25,-221.28 194.98,-223.56 202.54,-225.7"/>
<polygon fill="midnightblue" stroke="midnightblue" points="201.76,-229.12 212.33,-228.43 203.64,-222.38 201.76,-229.12"/>
</g>
<!-- Node6 -->
<g id="node6" class="node">
<title>Node6</title>
<g id="a_node6"><a xlink:href="classAxisEth.html#afb920b84ddc82b2ae2c3d9f94b967fab" target="_top" xlink:title=" ">
<polygon fill="none" stroke="black" points="196.5,-190.5 196.5,-209.5 303.5,-209.5 303.5,-190.5 196.5,-190.5"/>
<text text-anchor="middle" x="250" y="-197.5" font-family="Helvetica,sans-Serif" font-size="10.00">AxisEth::getIp4ToS</text>
</a>
</g>
</g>
<!-- Node1&#45;&gt;Node6 -->
<g id="edge5" class="edge">
<title>Node1&#45;&gt;Node6</title>
<path fill="none" stroke="midnightblue" d="M144.08,-188.67C157.99,-190.18 172.49,-191.74 186.11,-193.21"/>
<polygon fill="midnightblue" stroke="midnightblue" points="186.02,-196.72 196.33,-194.31 186.77,-189.76 186.02,-196.72"/>
</g>
<!-- Node7 -->
<g id="node7" class="node">
<title>Node7</title>
<g id="a_node7"><a xlink:href="classAxisEth.html#a3c3220070506a7b5b669b4c037b9291d" target="_top" xlink:title=" ">
<polygon fill="none" stroke="black" points="187,-152.5 187,-171.5 313,-171.5 313,-152.5 187,-152.5"/>
<text text-anchor="middle" x="250" y="-159.5" font-family="Helvetica,sans-Serif" font-size="10.00">AxisEth::getIp4Version</text>
</a>
</g>
</g>
<!-- Node1&#45;&gt;Node7 -->
<g id="edge6" class="edge">
<title>Node1&#45;&gt;Node7</title>
<path fill="none" stroke="midnightblue" d="M144.08,-173.33C154.78,-172.17 165.83,-170.98 176.55,-169.82"/>
<polygon fill="midnightblue" stroke="midnightblue" points="177.15,-173.28 186.72,-168.72 176.4,-166.32 177.15,-173.28"/>
</g>
<!-- Node8 -->
<g id="node8" class="node">
<title>Node8</title>
<g id="a_node8"><a xlink:href="classAxisRaw.html#a7034bcf8cf143fb2bb9bfc46e70a7d6b" target="_top" xlink:title=" ">
<polygon fill="none" stroke="black" points="187.5,-114.5 187.5,-133.5 312.5,-133.5 312.5,-114.5 187.5,-114.5"/>
<text text-anchor="middle" x="250" y="-121.5" font-family="Helvetica,sans-Serif" font-size="10.00">AxisRaw::getLE_TData</text>
</a>
</g>
</g>
<!-- Node1&#45;&gt;Node8 -->
<g id="edge7" class="edge">
<title>Node1&#45;&gt;Node8</title>
<path fill="none" stroke="midnightblue" d="M98.34,-171.42C119.91,-163.4 151.79,-151.88 180,-143 187.25,-140.72 194.98,-138.44 202.54,-136.3"/>
<polygon fill="midnightblue" stroke="midnightblue" points="203.64,-139.62 212.33,-133.57 201.76,-132.88 203.64,-139.62"/>
</g>
<!-- Node9 -->
<g id="node9" class="node">
<title>Node9</title>
<g id="a_node9"><a xlink:href="classAxisRaw.html#a4becd0ad3c51e3db2749e888f2f72e31" target="_top" xlink:title=" ">
<polygon fill="none" stroke="black" points="187,-76.5 187,-95.5 313,-95.5 313,-76.5 187,-76.5"/>
<text text-anchor="middle" x="250" y="-83.5" font-family="Helvetica,sans-Serif" font-size="10.00">AxisRaw::getLE_TKeep</text>
</a>
</g>
</g>
<!-- Node1&#45;&gt;Node9 -->
<g id="edge8" class="edge">
<title>Node1&#45;&gt;Node9</title>
<path fill="none" stroke="midnightblue" d="M83.74,-171.39C102.16,-155.4 141.51,-123.27 180,-105 184.91,-102.67 190.16,-100.58 195.48,-98.72"/>
<polygon fill="midnightblue" stroke="midnightblue" points="196.66,-102.02 205.1,-95.61 194.51,-95.36 196.66,-102.02"/>
</g>
<!-- Node10 -->
<g id="node10" class="node">
<title>Node10</title>
<g id="a_node10"><a xlink:href="classAxisRaw.html#af8208752dcbb14911c5fda27d90a0ef4" target="_top" xlink:title=" ">
<polygon fill="none" stroke="black" points="189,-38.5 189,-57.5 311,-57.5 311,-38.5 189,-38.5"/>
<text text-anchor="middle" x="250" y="-45.5" font-family="Helvetica,sans-Serif" font-size="10.00">AxisRaw::getLE_TLast</text>
</a>
</g>
</g>
<!-- Node1&#45;&gt;Node10 -->
<g id="edge9" class="edge">
<title>Node1&#45;&gt;Node10</title>
<path fill="none" stroke="midnightblue" d="M79.23,-171.38C93.96,-149.39 133.29,-95.19 180,-67 183.59,-64.83 187.43,-62.91 191.4,-61.2"/>
<polygon fill="midnightblue" stroke="midnightblue" points="192.74,-64.43 200.82,-57.59 190.23,-57.9 192.74,-64.43"/>
</g>
<!-- Node11 -->
<g id="node11" class="node">
<title>Node11</title>
<g id="a_node11"><a xlink:href="classAxisRaw.html#a7fd855df91177afa363d72b3eb17af25" target="_top" xlink:title=" ">
<polygon fill="none" stroke="black" points="189,-0.5 189,-19.5 311,-19.5 311,-0.5 189,-0.5"/>
<text text-anchor="middle" x="250" y="-7.5" font-family="Helvetica,sans-Serif" font-size="10.00">AxisRaw::setLE_TLast</text>
</a>
</g>
</g>
<!-- Node1&#45;&gt;Node11 -->
<g id="edge10" class="edge">
<title>Node1&#45;&gt;Node11</title>
<path fill="none" stroke="midnightblue" d="M76.92,-171.44C88.43,-144.56 124.84,-67.81 180,-29 182.74,-27.07 185.68,-25.34 188.73,-23.78"/>
<polygon fill="midnightblue" stroke="midnightblue" points="190.43,-26.85 198.17,-19.61 187.6,-20.45 190.43,-26.85"/>
</g>
</g>
</svg>
