<?xml version="1.0" encoding="UTF-8" standalone="no"?>
<!DOCTYPE svg PUBLIC "-//W3C//DTD SVG 1.1//EN"
 "http://www.w3.org/Graphics/SVG/1.1/DTD/svg11.dtd">
<!-- Generated by graphviz version 2.43.0 (0)
 -->
<!-- Title: getTcpStateName Pages: 1 -->
<svg width="734pt" height="104pt"
 viewBox="0.00 0.00 734.00 104.00" xmlns="http://www.w3.org/2000/svg" xmlns:xlink="http://www.w3.org/1999/xlink">
<g id="graph0" class="graph" transform="scale(1 1) rotate(0) translate(4 100)">
<title>getTcpStateName</title>
<!-- Node1 -->
<g id="node1" class="node">
<title>Node1</title>
<g id="a_node1"><a xlink:title="Returns the name of an enum&#45;based TCP&#45;State as a user friendly string.">
<polygon fill="#bfbfbf" stroke="black" points="623,-19.5 623,-38.5 726,-38.5 726,-19.5 623,-19.5"/>
<text text-anchor="middle" x="674.5" y="-26.5" font-family="Helvetica,sans-Serif" font-size="10.00">getTcpStateName</text>
</a>
</g>
</g>
<!-- Node2 -->
<g id="node2" class="node">
<title>Node2</title>
<g id="a_node2"><a xlink:href="group__tcp__shell__if.html#ga35098f3bf030b38ed036adb6fae4bd2d" target="_top" xlink:title="Connect (COn).">
<polygon fill="none" stroke="black" points="498,-38.5 498,-57.5 560,-57.5 560,-38.5 498,-38.5"/>
<text text-anchor="middle" x="529" y="-45.5" font-family="Helvetica,sans-Serif" font-size="10.00">pConnect</text>
</a>
</g>
</g>
<!-- Node1&#45;&gt;Node2 -->
<g id="edge1" class="edge">
<title>Node1&#45;&gt;Node2</title>
<path fill="none" stroke="midnightblue" d="M612.91,-37.02C594.68,-39.44 575.46,-41.98 560.12,-44.01"/>
<polygon fill="midnightblue" stroke="midnightblue" points="613.45,-40.48 622.91,-35.7 612.53,-33.54 613.45,-40.48"/>
</g>
<!-- Node6 -->
<g id="node6" class="node">
<title>Node6</title>
<g id="a_node6"><a xlink:href="group__NTS__TOE.html#ga2a3b672922ecb85036be9b6869d3f5c4" target="_top" xlink:title="Stream Metadata Loader (Sml)">
<polygon fill="none" stroke="black" points="471,-0.5 471,-19.5 587,-19.5 587,-0.5 471,-0.5"/>
<text text-anchor="middle" x="529" y="-7.5" font-family="Helvetica,sans-Serif" font-size="10.00">pStreamMetaLoader</text>
</a>
</g>
</g>
<!-- Node1&#45;&gt;Node6 -->
<g id="edge5" class="edge">
<title>Node1&#45;&gt;Node6</title>
<path fill="none" stroke="midnightblue" d="M612.8,-20.96C604.41,-19.85 595.81,-18.71 587.48,-17.61"/>
<polygon fill="midnightblue" stroke="midnightblue" points="612.53,-24.46 622.91,-22.3 613.45,-17.52 612.53,-24.46"/>
</g>
<!-- Node3 -->
<g id="node3" class="node">
<title>Node3</title>
<g id="a_node3"><a xlink:href="group__tcp__shell__if.html#ga33d275a5a280034b43adfd415c7599b0" target="_top" xlink:title="TCP Shell Interface (TSIF)">
<polygon fill="none" stroke="black" points="350,-38.5 350,-57.5 422,-57.5 422,-38.5 350,-38.5"/>
<text text-anchor="middle" x="386" y="-45.5" font-family="Helvetica,sans-Serif" font-size="10.00">tcp_shell_if</text>
</a>
</g>
</g>
<!-- Node2&#45;&gt;Node3 -->
<g id="edge2" class="edge">
<title>Node2&#45;&gt;Node3</title>
<path fill="none" stroke="midnightblue" d="M487.68,-48C467.01,-48 442.06,-48 422.17,-48"/>
<polygon fill="midnightblue" stroke="midnightblue" points="487.75,-51.5 497.75,-48 487.75,-44.5 487.75,-51.5"/>
</g>
<!-- Node4 -->
<g id="node4" class="node">
<title>Node4</title>
<g id="a_node4"><a xlink:href="group__tcp__shell__if.html#ga0ddf1224851353fc92bfbff6f499fa97" target="_top" xlink:title="Main function for the test of the TCP Shell Interface (TSIF).">
<polygon fill="none" stroke="black" points="234,-76.5 234,-95.5 275,-95.5 275,-76.5 234,-76.5"/>
<text text-anchor="middle" x="254.5" y="-83.5" font-family="Helvetica,sans-Serif" font-size="10.00">main</text>
</a>
</g>
</g>
<!-- Node3&#45;&gt;Node4 -->
<g id="edge3" class="edge">
<title>Node3&#45;&gt;Node4</title>
<path fill="none" stroke="midnightblue" d="M342.57,-60.45C319.91,-67.1 293.08,-74.97 275.26,-80.2"/>
<polygon fill="midnightblue" stroke="midnightblue" points="343.71,-63.76 352.32,-57.59 341.74,-57.05 343.71,-63.76"/>
</g>
<!-- Node5 -->
<g id="node5" class="node">
<title>Node5</title>
<g id="a_node5"><a xlink:href="group__tcp__shell__if.html#gacb6dcd3aa444269175772a0373dc4d56" target="_top" xlink:title="Top of TCP Shell Interface (TSIF)">
<polygon fill="none" stroke="black" points="208,-38.5 208,-57.5 301,-57.5 301,-38.5 208,-38.5"/>
<text text-anchor="middle" x="254.5" y="-45.5" font-family="Helvetica,sans-Serif" font-size="10.00">tcp_shell_if_top</text>
</a>
</g>
</g>
<!-- Node3&#45;&gt;Node5 -->
<g id="edge4" class="edge">
<title>Node3&#45;&gt;Node5</title>
<path fill="none" stroke="midnightblue" d="M339.78,-48C327.32,-48 313.79,-48 301.29,-48"/>
<polygon fill="midnightblue" stroke="midnightblue" points="339.96,-51.5 349.96,-48 339.96,-44.5 339.96,-51.5"/>
</g>
<!-- Node7 -->
<g id="node7" class="node">
<title>Node7</title>
<g id="a_node7"><a xlink:href="group__NTS__TOE.html#ga62e5335de2bf31638c3ee44dba4a14f2" target="_top" xlink:title="Tx Application Interface (TAi)">
<polygon fill="none" stroke="black" points="337,-0.5 337,-19.5 435,-19.5 435,-0.5 337,-0.5"/>
<text text-anchor="middle" x="386" y="-7.5" font-family="Helvetica,sans-Serif" font-size="10.00">tx_app_interface</text>
</a>
</g>
</g>
<!-- Node6&#45;&gt;Node7 -->
<g id="edge6" class="edge">
<title>Node6&#45;&gt;Node7</title>
<path fill="none" stroke="midnightblue" d="M460.37,-10C451.9,-10 443.37,-10 435.28,-10"/>
<polygon fill="midnightblue" stroke="midnightblue" points="460.65,-13.5 470.65,-10 460.65,-6.5 460.65,-13.5"/>
</g>
<!-- Node8 -->
<g id="node8" class="node">
<title>Node8</title>
<g id="a_node8"><a xlink:href="group__NTS__TOE.html#ga1d48efdcf37aa3803a7f7444fe485c9f" target="_top" xlink:title="Main process of the TCP Offload Engine (TOE0.">
<polygon fill="none" stroke="black" points="238.5,-0.5 238.5,-19.5 270.5,-19.5 270.5,-0.5 238.5,-0.5"/>
<text text-anchor="middle" x="254.5" y="-7.5" font-family="Helvetica,sans-Serif" font-size="10.00">toe</text>
</a>
</g>
</g>
<!-- Node7&#45;&gt;Node8 -->
<g id="edge7" class="edge">
<title>Node7&#45;&gt;Node8</title>
<path fill="none" stroke="midnightblue" d="M326.74,-10C306.08,-10 284.52,-10 270.6,-10"/>
<polygon fill="midnightblue" stroke="midnightblue" points="326.78,-13.5 336.78,-10 326.78,-6.5 326.78,-13.5"/>
</g>
<!-- Node9 -->
<g id="node9" class="node">
<title>Node9</title>
<g id="a_node9"><a xlink:href="group__NTS__TOE.html#gab3d23260a8a037543d01f716091df7e8" target="_top" xlink:title="Top of TCP Offload Engine (TOE)">
<polygon fill="none" stroke="black" points="119,-0.5 119,-19.5 172,-19.5 172,-0.5 119,-0.5"/>
<text text-anchor="middle" x="145.5" y="-7.5" font-family="Helvetica,sans-Serif" font-size="10.00">toe_top</text>
</a>
</g>
</g>
<!-- Node8&#45;&gt;Node9 -->
<g id="edge8" class="edge">
<title>Node8&#45;&gt;Node9</title>
<path fill="none" stroke="midnightblue" d="M227.93,-10C211.05,-10 189.02,-10 172.13,-10"/>
<polygon fill="midnightblue" stroke="midnightblue" points="228.17,-13.5 238.17,-10 228.17,-6.5 228.17,-13.5"/>
</g>
<!-- Node10 -->
<g id="node10" class="node">
<title>Node10</title>
<g id="a_node10"><a xlink:href="group__NTS__TOE__TEST.html#gae95a90fdba9993f0d4e2f27cd94f22e2" target="_top" xlink:title="A wrapper for the Toplevel of the TCP Offload Engine (TOE).">
<polygon fill="none" stroke="black" points="0,-0.5 0,-19.5 83,-19.5 83,-0.5 0,-0.5"/>
<text text-anchor="middle" x="41.5" y="-7.5" font-family="Helvetica,sans-Serif" font-size="10.00">toe_top_wrap</text>
</a>
</g>
</g>
<!-- Node9&#45;&gt;Node10 -->
<g id="edge9" class="edge">
<title>Node9&#45;&gt;Node10</title>
<path fill="none" stroke="midnightblue" d="M108.74,-10C100.52,-10 91.73,-10 83.32,-10"/>
<polygon fill="midnightblue" stroke="midnightblue" points="108.76,-13.5 118.76,-10 108.76,-6.5 108.76,-13.5"/>
</g>
</g>
</svg>
