<?xml version="1.0" encoding="UTF-8" standalone="no"?>
<!DOCTYPE svg PUBLIC "-//W3C//DTD SVG 1.1//EN"
 "http://www.w3.org/Graphics/SVG/1.1/DTD/svg11.dtd">
<!-- Generated by graphviz version 2.43.0 (0)
 -->
<!-- Title: pIp4HeaderAdder Pages: 1 -->
<!--zoomable 978 -->
<svg id="main" version="1.1" xmlns="http://www.w3.org/2000/svg" xmlns:xlink="http://www.w3.org/1999/xlink" xml:space="preserve" onload="init(evt)">
<style type="text/css"><![CDATA[
.edge:hover path { stroke: red; }
.edge:hover polygon { stroke: red; fill: red; }
]]></style>
<script type="text/javascript"><![CDATA[
var edges = document.getElementsByTagName('g');
if (edges && edges.length) {
  for (var i=0;i<edges.length;i++) {
    if (edges[i].id.substr(0,4)=='edge') {
      edges[i].setAttribute('class','edge');
    }
  }
}
]]></script>
        <defs>
                <circle id="rim" cx="0" cy="0" r="7"/>
                <circle id="rim2" cx="0" cy="0" r="3.5"/>
                <g id="zoomPlus">
                        <use xlink:href="#rim" fill="#404040">
                                <set attributeName="fill" to="#808080" begin="zoomplus.mouseover" end="zoomplus.mouseout"/>
                        </use>
                        <path d="M-4,0h8M0,-4v8" fill="none" stroke="white" stroke-width="1.5" pointer-events="none"/>
                </g>
                <g id="zoomMin">
                        <use xlink:href="#rim" fill="#404040">
                                <set attributeName="fill" to="#808080" begin="zoomminus.mouseover" end="zoomminus.mouseout"/>
                        </use>
                        <path d="M-4,0h8" fill="none" stroke="white" stroke-width="1.5" pointer-events="none"/>
                </g>
                <g id="dirArrow">
                        <path fill="none" stroke="white" stroke-width="1.5" d="M0,-3.0v7 M-2.5,-0.5L0,-3.0L2.5,-0.5"/>
                </g>
               <g id="resetDef">
                       <use xlink:href="#rim2" fill="#404040">
                               <set attributeName="fill" to="#808080" begin="reset.mouseover" end="reset.mouseout"/>
                       </use>
               </g>
        </defs>

<script type="text/javascript">
var viewWidth = 467;
var viewHeight = 978;
var sectionId = 'dynsection-1';
</script>
<script xlink:href="svgpan.js"/>
<svg id="graph" class="graph">
<g id="viewport">
<title>pIp4HeaderAdder</title>
<!-- Node1 -->
<g id="node1" class="node">
<title>Node1</title>
<g id="a_node1"><a xlink:title=" ">
<polygon fill="#bfbfbf" stroke="black" points="0,-475.5 0,-494.5 101,-494.5 101,-475.5 0,-475.5"/>
<text text-anchor="middle" x="50.5" y="-482.5" font-family="Helvetica,sans-Serif" font-size="10.00">pIp4HeaderAdder</text>
</a>
</g>
</g>
<!-- Node2 -->
<g id="node2" class="node">
<title>Node2</title>
<g id="a_node2"><a xlink:href="classAxisRaw.html#ad9de3735705f840155f6df0226230b01" target="_top" xlink:title=" ">
<polygon fill="none" stroke="black" points="144.5,-950.5 144.5,-969.5 263.5,-969.5 263.5,-950.5 144.5,-950.5"/>
<text text-anchor="middle" x="204" y="-957.5" font-family="Helvetica,sans-Serif" font-size="10.00">AxisRaw::getTDataHi</text>
</a>
</g>
</g>
<!-- Node1&#45;&gt;Node2 -->
<g id="edge1" class="edge">
<title>Node1&#45;&gt;Node2</title>
<path fill="none" stroke="midnightblue" d="M51.98,-494.83C55.08,-554.9 74.28,-872.02 137,-941 138.21,-942.33 139.51,-943.58 140.89,-944.74"/>
<polygon fill="midnightblue" stroke="midnightblue" points="139.19,-947.81 149.44,-950.48 143.09,-942 139.19,-947.81"/>
</g>
<!-- Node4 -->
<g id="node4" class="node">
<title>Node4</title>
<g id="a_node4"><a xlink:href="classAxisRaw.html#a48f8284ad60d96e2d2764ef2eefc4a64" target="_top" xlink:title=" ">
<polygon fill="none" stroke="black" points="144,-912.5 144,-931.5 264,-931.5 264,-912.5 144,-912.5"/>
<text text-anchor="middle" x="204" y="-919.5" font-family="Helvetica,sans-Serif" font-size="10.00">AxisRaw::getTDataLo</text>
</a>
</g>
</g>
<!-- Node1&#45;&gt;Node4 -->
<g id="edge3" class="edge">
<title>Node1&#45;&gt;Node4</title>
<path fill="none" stroke="midnightblue" d="M52.15,-494.75C56.14,-551.64 79.05,-840.31 137,-903 138.22,-904.32 139.53,-905.56 140.92,-906.71"/>
<polygon fill="midnightblue" stroke="midnightblue" points="139.24,-909.8 149.51,-912.42 143.11,-903.97 139.24,-909.8"/>
</g>
<!-- Node5 -->
<g id="node5" class="node">
<title>Node5</title>
<g id="a_node5"><a xlink:href="classAxisRaw.html#a58b8357553e87b35d4841c9f0bcdb08d" target="_top" xlink:title=" ">
<polygon fill="none" stroke="black" points="144,-874.5 144,-893.5 264,-893.5 264,-874.5 144,-874.5"/>
<text text-anchor="middle" x="204" y="-881.5" font-family="Helvetica,sans-Serif" font-size="10.00">AxisRaw::getTKeepHi</text>
</a>
</g>
</g>
<!-- Node1&#45;&gt;Node5 -->
<g id="edge5" class="edge">
<title>Node1&#45;&gt;Node5</title>
<path fill="none" stroke="midnightblue" d="M52.35,-494.56C57.27,-547.91 83.77,-808.54 137,-865 138.24,-866.31 139.56,-867.54 140.95,-868.68"/>
<polygon fill="midnightblue" stroke="midnightblue" points="139.3,-871.78 149.58,-874.35 143.14,-865.93 139.3,-871.78"/>
</g>
<!-- Node7 -->
<g id="node7" class="node">
<title>Node7</title>
<g id="a_node7"><a xlink:href="classAxisRaw.html#af7dcf20294a3d8853042af971f19c4a6" target="_top" xlink:title=" ">
<polygon fill="none" stroke="black" points="143.5,-836.5 143.5,-855.5 264.5,-855.5 264.5,-836.5 143.5,-836.5"/>
<text text-anchor="middle" x="204" y="-843.5" font-family="Helvetica,sans-Serif" font-size="10.00">AxisRaw::getTKeepLo</text>
</a>
</g>
</g>
<!-- Node1&#45;&gt;Node7 -->
<g id="edge7" class="edge">
<title>Node1&#45;&gt;Node7</title>
<path fill="none" stroke="midnightblue" d="M52.61,-494.58C58.58,-544.74 88.54,-776.8 137,-827 138.4,-828.45 139.9,-829.79 141.48,-831.03"/>
<polygon fill="midnightblue" stroke="midnightblue" points="139.68,-834.03 150,-836.42 143.42,-828.11 139.68,-834.03"/>
</g>
<!-- Node8 -->
<g id="node8" class="node">
<title>Node8</title>
<g id="a_node8"><a xlink:href="classAxisRaw.html#a42cd520c9b19f7c2fc6d2fc204cb30b7" target="_top" xlink:title=" ">
<polygon fill="none" stroke="black" points="151,-798.5 151,-817.5 257,-817.5 257,-798.5 151,-798.5"/>
<text text-anchor="middle" x="204" y="-805.5" font-family="Helvetica,sans-Serif" font-size="10.00">AxisRaw::getTLast</text>
</a>
</g>
</g>
<!-- Node1&#45;&gt;Node8 -->
<g id="edge9" class="edge">
<title>Node1&#45;&gt;Node8</title>
<path fill="none" stroke="midnightblue" d="M51.1,-494.53C49.9,-535.97 50.81,-702.28 137,-789 138.6,-790.61 140.34,-792.09 142.17,-793.45"/>
<polygon fill="midnightblue" stroke="midnightblue" points="140.39,-796.46 150.76,-798.63 144,-790.47 140.39,-796.46"/>
</g>
<!-- Node9 -->
<g id="node9" class="node">
<title>Node9</title>
<g id="a_node9"><a xlink:href="classAxisUdp.html#a461be53e623846a93250a75085499289" target="_top" xlink:title=" ">
<polygon fill="none" stroke="black" points="137,-760.5 137,-779.5 271,-779.5 271,-760.5 137,-760.5"/>
<text text-anchor="middle" x="204" y="-767.5" font-family="Helvetica,sans-Serif" font-size="10.00">AxisUdp::getUdpDstPort</text>
</a>
</g>
</g>
<!-- Node1&#45;&gt;Node9 -->
<g id="edge10" class="edge">
<title>Node1&#45;&gt;Node9</title>
<path fill="none" stroke="midnightblue" d="M51.55,-494.63C52.27,-533.01 60.22,-676.54 137,-751 138.63,-752.58 140.39,-754.04 142.25,-755.37"/>
<polygon fill="midnightblue" stroke="midnightblue" points="140.51,-758.41 150.9,-760.49 144.07,-752.39 140.51,-758.41"/>
</g>
<!-- Node10 -->
<g id="node10" class="node">
<title>Node10</title>
<g id="a_node10"><a xlink:href="classAxisUdp.html#a7232c7d04b1c7c53dd05600085aeee0c" target="_top" xlink:title=" ">
<polygon fill="none" stroke="black" points="137.5,-722.5 137.5,-741.5 270.5,-741.5 270.5,-722.5 137.5,-722.5"/>
<text text-anchor="middle" x="204" y="-729.5" font-family="Helvetica,sans-Serif" font-size="10.00">AxisUdp::getUdpSrcPort</text>
</a>
</g>
</g>
<!-- Node1&#45;&gt;Node10 -->
<g id="edge11" class="edge">
<title>Node1&#45;&gt;Node10</title>
<path fill="none" stroke="midnightblue" d="M52.16,-494.93C55.04,-530.2 69.64,-650.73 137,-713 138.71,-714.58 140.54,-716.03 142.46,-717.36"/>
<polygon fill="midnightblue" stroke="midnightblue" points="140.99,-720.55 151.41,-722.45 144.45,-714.46 140.99,-720.55"/>
</g>
<!-- Node11 -->
<g id="node11" class="node">
<title>Node11</title>
<g id="a_node11"><a xlink:href="classAxisIp4.html#a7c1ca3829d3728d6e4f90589457f90e6" target="_top" xlink:title=" ">
<polygon fill="none" stroke="black" points="140,-684.5 140,-703.5 268,-703.5 268,-684.5 140,-684.5"/>
<text text-anchor="middle" x="204" y="-691.5" font-family="Helvetica,sans-Serif" font-size="10.00">AxisIp4::setIp4DstAddr</text>
</a>
</g>
</g>
<!-- Node1&#45;&gt;Node11 -->
<g id="edge12" class="edge">
<title>Node1&#45;&gt;Node11</title>
<path fill="none" stroke="midnightblue" d="M52.93,-494.57C58.06,-525.59 78.5,-624.3 137,-675 138.97,-676.71 141.09,-678.26 143.31,-679.68"/>
<polygon fill="midnightblue" stroke="midnightblue" points="141.85,-682.87 152.32,-684.48 145.14,-676.69 141.85,-682.87"/>
</g>
<!-- Node12 -->
<g id="node12" class="node">
<title>Node12</title>
<g id="a_node12"><a xlink:href="classAxisIp4.html#ab248dc64f59f17c71fbdcb816fdd258c" target="_top" xlink:title=" ">
<polygon fill="none" stroke="black" points="146.5,-646.5 146.5,-665.5 261.5,-665.5 261.5,-646.5 146.5,-646.5"/>
<text text-anchor="middle" x="204" y="-653.5" font-family="Helvetica,sans-Serif" font-size="10.00">AxisIp4::setIp4Flags</text>
</a>
</g>
</g>
<!-- Node1&#45;&gt;Node12 -->
<g id="edge13" class="edge">
<title>Node1&#45;&gt;Node12</title>
<path fill="none" stroke="midnightblue" d="M54.07,-494.52C61.79,-521.27 87.37,-597.74 137,-637 139.28,-638.8 141.72,-640.44 144.28,-641.91"/>
<polygon fill="midnightblue" stroke="midnightblue" points="142.81,-645.09 153.33,-646.36 145.9,-638.81 142.81,-645.09"/>
</g>
<!-- Node13 -->
<g id="node13" class="node">
<title>Node13</title>
<g id="a_node13"><a xlink:href="classAxisIp4.html#a34644f50cf5297bf1334151b3568a77a" target="_top" xlink:title=" ">
<polygon fill="none" stroke="black" points="142,-608.5 142,-627.5 266,-627.5 266,-608.5 142,-608.5"/>
<text text-anchor="middle" x="204" y="-615.5" font-family="Helvetica,sans-Serif" font-size="10.00">AxisIp4::setIp4FragOff</text>
</a>
</g>
</g>
<!-- Node1&#45;&gt;Node13 -->
<g id="edge14" class="edge">
<title>Node1&#45;&gt;Node13</title>
<path fill="none" stroke="midnightblue" d="M55.98,-494.62C66.7,-516.59 96.07,-570.77 137,-599 139.88,-600.99 142.98,-602.77 146.19,-604.37"/>
<polygon fill="midnightblue" stroke="midnightblue" points="144.93,-607.64 155.5,-608.4 147.71,-601.22 144.93,-607.64"/>
</g>
<!-- Node14 -->
<g id="node14" class="node">
<title>Node14</title>
<g id="a_node14"><a xlink:href="classAxisIp4.html#a668f18a27c497e9e4861cff478b4cc0e" target="_top" xlink:title=" ">
<polygon fill="none" stroke="black" points="137,-570.5 137,-589.5 271,-589.5 271,-570.5 137,-570.5"/>
<text text-anchor="middle" x="204" y="-577.5" font-family="Helvetica,sans-Serif" font-size="10.00">AxisIp4::setIp4HdrCsum</text>
</a>
</g>
</g>
<!-- Node1&#45;&gt;Node14 -->
<g id="edge15" class="edge">
<title>Node1&#45;&gt;Node14</title>
<path fill="none" stroke="midnightblue" d="M59.7,-494.68C73.84,-510.79 104.47,-543.08 137,-561 140.99,-563.2 145.25,-565.16 149.62,-566.91"/>
<polygon fill="midnightblue" stroke="midnightblue" points="148.7,-570.3 159.29,-570.41 151.08,-563.72 148.7,-570.3"/>
</g>
<!-- Node15 -->
<g id="node15" class="node">
<title>Node15</title>
<g id="a_node15"><a xlink:href="classAxisIp4.html#a3dcbc94aead2a9afd8b66bd373c5d93a" target="_top" xlink:title=" ">
<polygon fill="none" stroke="black" points="142.5,-532.5 142.5,-551.5 265.5,-551.5 265.5,-532.5 142.5,-532.5"/>
<text text-anchor="middle" x="204" y="-539.5" font-family="Helvetica,sans-Serif" font-size="10.00">AxisIp4::setIp4HdrLen</text>
</a>
</g>
</g>
<!-- Node1&#45;&gt;Node15 -->
<g id="edge16" class="edge">
<title>Node1&#45;&gt;Node15</title>
<path fill="none" stroke="midnightblue" d="M70.88,-494.54C88.01,-502.74 113.8,-514.55 137,-523 143.32,-525.3 150.07,-527.51 156.74,-529.56"/>
<polygon fill="midnightblue" stroke="midnightblue" points="155.82,-532.94 166.4,-532.44 157.81,-526.23 155.82,-532.94"/>
</g>
<!-- Node16 -->
<g id="node16" class="node">
<title>Node16</title>
<g id="a_node16"><a xlink:href="classAxisIp4.html#ac9d3f62ac937ed20a58893078eadce50" target="_top" xlink:title=" ">
<polygon fill="none" stroke="black" points="147.5,-494.5 147.5,-513.5 260.5,-513.5 260.5,-494.5 147.5,-494.5"/>
<text text-anchor="middle" x="204" y="-501.5" font-family="Helvetica,sans-Serif" font-size="10.00">AxisIp4::setIp4Ident</text>
</a>
</g>
</g>
<!-- Node1&#45;&gt;Node16 -->
<g id="edge17" class="edge">
<title>Node1&#45;&gt;Node16</title>
<path fill="none" stroke="midnightblue" d="M101.11,-491.22C112.64,-492.67 125.08,-494.23 137.19,-495.75"/>
<polygon fill="midnightblue" stroke="midnightblue" points="136.89,-499.24 147.25,-497.01 137.76,-492.29 136.89,-499.24"/>
</g>
<!-- Node17 -->
<g id="node17" class="node">
<title>Node17</title>
<g id="a_node17"><a xlink:href="classAxisIp4.html#a37cbd671be65cbaec4687cc42a9509d9" target="_top" xlink:title=" ">
<polygon fill="none" stroke="black" points="150,-456.5 150,-475.5 258,-475.5 258,-456.5 150,-456.5"/>
<text text-anchor="middle" x="204" y="-463.5" font-family="Helvetica,sans-Serif" font-size="10.00">AxisIp4::setIp4Prot</text>
</a>
</g>
</g>
<!-- Node1&#45;&gt;Node17 -->
<g id="edge18" class="edge">
<title>Node1&#45;&gt;Node17</title>
<path fill="none" stroke="midnightblue" d="M101.11,-478.78C113.43,-477.23 126.81,-475.56 139.69,-473.94"/>
<polygon fill="midnightblue" stroke="midnightblue" points="140.4,-477.38 149.89,-472.66 139.53,-470.43 140.4,-477.38"/>
</g>
<!-- Node18 -->
<g id="node18" class="node">
<title>Node18</title>
<g id="a_node18"><a xlink:href="classAxisIp4.html#ae86e3b6249f8ec6a985e5947e52d4634" target="_top" xlink:title=" ">
<polygon fill="none" stroke="black" points="141,-418.5 141,-437.5 267,-437.5 267,-418.5 141,-418.5"/>
<text text-anchor="middle" x="204" y="-425.5" font-family="Helvetica,sans-Serif" font-size="10.00">AxisIp4::setIp4SrcAddr</text>
</a>
</g>
</g>
<!-- Node1&#45;&gt;Node18 -->
<g id="edge19" class="edge">
<title>Node1&#45;&gt;Node18</title>
<path fill="none" stroke="midnightblue" d="M70.88,-475.46C88.01,-467.26 113.8,-455.45 137,-447 143.32,-444.7 150.07,-442.49 156.74,-440.44"/>
<polygon fill="midnightblue" stroke="midnightblue" points="157.81,-443.77 166.4,-437.56 155.82,-437.06 157.81,-443.77"/>
</g>
<!-- Node19 -->
<g id="node19" class="node">
<title>Node19</title>
<g id="a_node19"><a xlink:href="classAxisIp4.html#ae4765ba482d5082db2865d8f6743ac8b" target="_top" xlink:title=" ">
<polygon fill="none" stroke="black" points="151.5,-380.5 151.5,-399.5 256.5,-399.5 256.5,-380.5 151.5,-380.5"/>
<text text-anchor="middle" x="204" y="-387.5" font-family="Helvetica,sans-Serif" font-size="10.00">AxisIp4::setIp4ToS</text>
</a>
</g>
</g>
<!-- Node1&#45;&gt;Node19 -->
<g id="edge20" class="edge">
<title>Node1&#45;&gt;Node19</title>
<path fill="none" stroke="midnightblue" d="M59.7,-475.32C73.84,-459.21 104.47,-426.92 137,-409 140.99,-406.8 145.25,-404.84 149.62,-403.09"/>
<polygon fill="midnightblue" stroke="midnightblue" points="151.08,-406.28 159.29,-399.59 148.7,-399.7 151.08,-406.28"/>
</g>
<!-- Node20 -->
<g id="node20" class="node">
<title>Node20</title>
<g id="a_node20"><a xlink:href="classAxisIp4.html#a88aa6b72c8593baed8f6c4837d7b394f" target="_top" xlink:title=" ">
<polygon fill="none" stroke="black" points="139.5,-342.5 139.5,-361.5 268.5,-361.5 268.5,-342.5 139.5,-342.5"/>
<text text-anchor="middle" x="204" y="-349.5" font-family="Helvetica,sans-Serif" font-size="10.00">AxisIp4::setIp4TotalLen</text>
</a>
</g>
</g>
<!-- Node1&#45;&gt;Node20 -->
<g id="edge21" class="edge">
<title>Node1&#45;&gt;Node20</title>
<path fill="none" stroke="midnightblue" d="M55.98,-475.38C66.7,-453.41 96.07,-399.23 137,-371 139.88,-369.01 142.98,-367.23 146.19,-365.63"/>
<polygon fill="midnightblue" stroke="midnightblue" points="147.71,-368.78 155.5,-361.6 144.93,-362.36 147.71,-368.78"/>
</g>
<!-- Node21 -->
<g id="node21" class="node">
<title>Node21</title>
<g id="a_node21"><a xlink:href="classAxisIp4.html#aed63bc9cb891bece3348ee85d721655c" target="_top" xlink:title=" ">
<polygon fill="none" stroke="black" points="152,-304.5 152,-323.5 256,-323.5 256,-304.5 152,-304.5"/>
<text text-anchor="middle" x="204" y="-311.5" font-family="Helvetica,sans-Serif" font-size="10.00">AxisIp4::setIp4TtL</text>
</a>
</g>
</g>
<!-- Node1&#45;&gt;Node21 -->
<g id="edge22" class="edge">
<title>Node1&#45;&gt;Node21</title>
<path fill="none" stroke="midnightblue" d="M54.07,-475.48C61.79,-448.73 87.37,-372.26 137,-333 139.28,-331.2 141.72,-329.56 144.28,-328.09"/>
<polygon fill="midnightblue" stroke="midnightblue" points="145.9,-331.19 153.33,-323.64 142.81,-324.91 145.9,-331.19"/>
</g>
<!-- Node22 -->
<g id="node22" class="node">
<title>Node22</title>
<g id="a_node22"><a xlink:href="classAxisIp4.html#abfc2dd4c1274feae1080243a21717cf4" target="_top" xlink:title=" ">
<polygon fill="none" stroke="black" points="141.5,-266.5 141.5,-285.5 266.5,-285.5 266.5,-266.5 141.5,-266.5"/>
<text text-anchor="middle" x="204" y="-273.5" font-family="Helvetica,sans-Serif" font-size="10.00">AxisIp4::setIp4Version</text>
</a>
</g>
</g>
<!-- Node1&#45;&gt;Node22 -->
<g id="edge23" class="edge">
<title>Node1&#45;&gt;Node22</title>
<path fill="none" stroke="midnightblue" d="M52.93,-475.43C58.06,-444.41 78.5,-345.7 137,-295 138.97,-293.29 141.09,-291.74 143.31,-290.32"/>
<polygon fill="midnightblue" stroke="midnightblue" points="145.14,-293.31 152.32,-285.52 141.85,-287.13 145.14,-293.31"/>
</g>
<!-- Node23 -->
<g id="node23" class="node">
<title>Node23</title>
<g id="a_node23"><a xlink:href="classAxisRaw.html#a1a7e2a69edc7b522df061409e3f79441" target="_top" xlink:title=" ">
<polygon fill="none" stroke="black" points="144.5,-228.5 144.5,-247.5 263.5,-247.5 263.5,-228.5 144.5,-228.5"/>
<text text-anchor="middle" x="204" y="-235.5" font-family="Helvetica,sans-Serif" font-size="10.00">AxisRaw::setTDataHi</text>
</a>
</g>
</g>
<!-- Node1&#45;&gt;Node23 -->
<g id="edge24" class="edge">
<title>Node1&#45;&gt;Node23</title>
<path fill="none" stroke="midnightblue" d="M52.16,-475.07C55.04,-439.8 69.64,-319.27 137,-257 138.71,-255.42 140.54,-253.97 142.46,-252.64"/>
<polygon fill="midnightblue" stroke="midnightblue" points="144.45,-255.54 151.41,-247.55 140.99,-249.45 144.45,-255.54"/>
</g>
<!-- Node24 -->
<g id="node24" class="node">
<title>Node24</title>
<g id="a_node24"><a xlink:href="classAxisRaw.html#a1af3fe5faeab03875a0e654190f598de" target="_top" xlink:title=" ">
<polygon fill="none" stroke="black" points="144.5,-190.5 144.5,-209.5 263.5,-209.5 263.5,-190.5 144.5,-190.5"/>
<text text-anchor="middle" x="204" y="-197.5" font-family="Helvetica,sans-Serif" font-size="10.00">AxisRaw::setTDataLo</text>
</a>
</g>
</g>
<!-- Node1&#45;&gt;Node24 -->
<g id="edge25" class="edge">
<title>Node1&#45;&gt;Node24</title>
<path fill="none" stroke="midnightblue" d="M51.55,-475.37C52.27,-436.99 60.22,-293.46 137,-219 138.63,-217.42 140.39,-215.96 142.25,-214.63"/>
<polygon fill="midnightblue" stroke="midnightblue" points="144.07,-217.61 150.9,-209.51 140.51,-211.59 144.07,-217.61"/>
</g>
<!-- Node25 -->
<g id="node25" class="node">
<title>Node25</title>
<g id="a_node25"><a xlink:href="classAxisRaw.html#a9d6431f0204bddaa17277cea807dc804" target="_top" xlink:title=" ">
<polygon fill="none" stroke="black" points="144.5,-152.5 144.5,-171.5 263.5,-171.5 263.5,-152.5 144.5,-152.5"/>
<text text-anchor="middle" x="204" y="-159.5" font-family="Helvetica,sans-Serif" font-size="10.00">AxisRaw::setTKeepHi</text>
</a>
</g>
</g>
<!-- Node1&#45;&gt;Node25 -->
<g id="edge26" class="edge">
<title>Node1&#45;&gt;Node25</title>
<path fill="none" stroke="midnightblue" d="M51.1,-475.47C49.9,-434.03 50.81,-267.72 137,-181 138.45,-179.54 140,-178.19 141.64,-176.95"/>
<polygon fill="midnightblue" stroke="midnightblue" points="143.76,-179.75 150.43,-171.53 140.08,-173.8 143.76,-179.75"/>
</g>
<!-- Node26 -->
<g id="node26" class="node">
<title>Node26</title>
<g id="a_node26"><a xlink:href="classAxisRaw.html#a4cbc05f7d44b163c8a2f09881b3764df" target="_top" xlink:title=" ">
<polygon fill="none" stroke="black" points="144,-114.5 144,-133.5 264,-133.5 264,-114.5 144,-114.5"/>
<text text-anchor="middle" x="204" y="-121.5" font-family="Helvetica,sans-Serif" font-size="10.00">AxisRaw::setTKeepLo</text>
</a>
</g>
</g>
<!-- Node1&#45;&gt;Node26 -->
<g id="edge27" class="edge">
<title>Node1&#45;&gt;Node26</title>
<path fill="none" stroke="midnightblue" d="M52.61,-475.42C58.58,-425.26 88.54,-193.2 137,-143 138.4,-141.55 139.9,-140.21 141.48,-138.97"/>
<polygon fill="midnightblue" stroke="midnightblue" points="143.42,-141.89 150,-133.58 139.68,-135.97 143.42,-141.89"/>
</g>
<!-- Node27 -->
<g id="node27" class="node">
<title>Node27</title>
<g id="a_node27"><a xlink:href="classAxisRaw.html#a1238c47d46a7d858c542f55797dfc9f2" target="_top" xlink:title=" ">
<polygon fill="none" stroke="black" points="151.5,-76.5 151.5,-95.5 256.5,-95.5 256.5,-76.5 151.5,-76.5"/>
<text text-anchor="middle" x="204" y="-83.5" font-family="Helvetica,sans-Serif" font-size="10.00">AxisRaw::setTLast</text>
</a>
</g>
</g>
<!-- Node1&#45;&gt;Node27 -->
<g id="edge28" class="edge">
<title>Node1&#45;&gt;Node27</title>
<path fill="none" stroke="midnightblue" d="M52.35,-475.44C57.27,-422.09 83.77,-161.46 137,-105 138.63,-103.27 140.4,-101.7 142.29,-100.27"/>
<polygon fill="midnightblue" stroke="midnightblue" points="144.47,-103.03 151.19,-94.84 140.83,-97.06 144.47,-103.03"/>
</g>
<!-- Node29 -->
<g id="node29" class="node">
<title>Node29</title>
<g id="a_node29"><a xlink:href="classAxisIp4.html#afb8114a3d4a264fa8b36cc1b4b049e5d" target="_top" xlink:title=" ">
<polygon fill="none" stroke="black" points="139.5,-38.5 139.5,-57.5 268.5,-57.5 268.5,-38.5 139.5,-38.5"/>
<text text-anchor="middle" x="204" y="-45.5" font-family="Helvetica,sans-Serif" font-size="10.00">AxisIp4::setUdpDstPort</text>
</a>
</g>
</g>
<!-- Node1&#45;&gt;Node29 -->
<g id="edge30" class="edge">
<title>Node1&#45;&gt;Node29</title>
<path fill="none" stroke="midnightblue" d="M52.15,-475.25C56.14,-418.36 79.05,-129.69 137,-67 138.22,-65.68 139.53,-64.44 140.92,-63.29"/>
<polygon fill="midnightblue" stroke="midnightblue" points="143.11,-66.03 149.51,-57.58 139.24,-60.2 143.11,-66.03"/>
</g>
<!-- Node30 -->
<g id="node30" class="node">
<title>Node30</title>
<g id="a_node30"><a xlink:href="classAxisIp4.html#a762fedab81eebfa37d4fcc8590154d09" target="_top" xlink:title=" ">
<polygon fill="none" stroke="black" points="140,-0.5 140,-19.5 268,-19.5 268,-0.5 140,-0.5"/>
<text text-anchor="middle" x="204" y="-7.5" font-family="Helvetica,sans-Serif" font-size="10.00">AxisIp4::setUdpSrcPort</text>
</a>
</g>
</g>
<!-- Node1&#45;&gt;Node30 -->
<g id="edge31" class="edge">
<title>Node1&#45;&gt;Node30</title>
<path fill="none" stroke="midnightblue" d="M51.98,-475.17C55.08,-415.1 74.28,-97.98 137,-29 138.21,-27.67 139.51,-26.42 140.89,-25.26"/>
<polygon fill="midnightblue" stroke="midnightblue" points="143.09,-28 149.44,-19.52 139.19,-22.19 143.09,-28"/>
</g>
<!-- Node3 -->
<g id="node3" class="node">
<title>Node3</title>
<g id="a_node3"><a xlink:href="classAxisRaw.html#a208a8bf67decab3e92139c8afc9aa149" target="_top" xlink:title=" ">
<polygon fill="none" stroke="black" points="328.5,-921.5 328.5,-940.5 437.5,-940.5 437.5,-921.5 328.5,-921.5"/>
<text text-anchor="middle" x="383" y="-928.5" font-family="Helvetica,sans-Serif" font-size="10.00">AxisRaw::getTData</text>
</a>
</g>
</g>
<!-- Node2&#45;&gt;Node3 -->
<g id="edge2" class="edge">
<title>Node2&#45;&gt;Node3</title>
<path fill="none" stroke="midnightblue" d="M263.45,-950.42C281.04,-947.54 300.42,-944.37 318.34,-941.43"/>
<polygon fill="midnightblue" stroke="midnightblue" points="319.1,-944.85 328.4,-939.78 317.96,-937.95 319.1,-944.85"/>
</g>
<!-- Node4&#45;&gt;Node3 -->
<g id="edge4" class="edge">
<title>Node4&#45;&gt;Node3</title>
<path fill="none" stroke="midnightblue" d="M264.43,-925.02C281.73,-925.9 300.69,-926.87 318.24,-927.76"/>
<polygon fill="midnightblue" stroke="midnightblue" points="318.22,-931.26 328.38,-928.27 318.57,-924.27 318.22,-931.26"/>
</g>
<!-- Node6 -->
<g id="node6" class="node">
<title>Node6</title>
<g id="a_node6"><a xlink:href="classAxisRaw.html#acb10d569e10f95bdd0be0af34ce605bd" target="_top" xlink:title=" ">
<polygon fill="none" stroke="black" points="328,-864.5 328,-883.5 438,-883.5 438,-864.5 328,-864.5"/>
<text text-anchor="middle" x="383" y="-871.5" font-family="Helvetica,sans-Serif" font-size="10.00">AxisRaw::getTKeep</text>
</a>
</g>
</g>
<!-- Node5&#45;&gt;Node6 -->
<g id="edge6" class="edge">
<title>Node5&#45;&gt;Node6</title>
<path fill="none" stroke="midnightblue" d="M264.43,-880.64C281.56,-879.67 300.32,-878.61 317.72,-877.63"/>
<polygon fill="midnightblue" stroke="midnightblue" points="318.01,-881.12 327.79,-877.06 317.61,-874.13 318.01,-881.12"/>
</g>
<!-- Node7&#45;&gt;Node6 -->
<g id="edge8" class="edge">
<title>Node7&#45;&gt;Node6</title>
<path fill="none" stroke="midnightblue" d="M264.92,-855.48C281.94,-858.17 300.54,-861.11 317.8,-863.84"/>
<polygon fill="midnightblue" stroke="midnightblue" points="317.37,-867.32 327.79,-865.42 318.46,-860.4 317.37,-867.32"/>
</g>
<!-- Node28 -->
<g id="node28" class="node">
<title>Node28</title>
<g id="a_node28"><a xlink:href="classAxisRaw.html#a4e8ed9ad2072a6563870f9344c362a4e" target="_top" xlink:title=" ">
<polygon fill="none" stroke="black" points="307,-76.5 307,-95.5 459,-95.5 459,-76.5 307,-76.5"/>
<text text-anchor="middle" x="383" y="-83.5" font-family="Helvetica,sans-Serif" font-size="10.00">AxisRaw::clearUnusedBytes</text>
</a>
</g>
</g>
<!-- Node27&#45;&gt;Node28 -->
<g id="edge29" class="edge">
<title>Node27&#45;&gt;Node28</title>
<path fill="none" stroke="midnightblue" d="M256.67,-86C269.19,-86 282.91,-86 296.54,-86"/>
<polygon fill="midnightblue" stroke="midnightblue" points="296.91,-89.5 306.91,-86 296.91,-82.5 296.91,-89.5"/>
</g>
</g>
</svg>
        <g id="navigator" transform="translate(0 0)" fill="#404254">
                <rect fill="#f2f5e9" fill-opacity="0.5" stroke="#606060" stroke-width=".5" x="0" y="0" width="60" height="60"/>
                <use id="zoomplus" xlink:href="#zoomPlus" x="17" y="9" onmousedown="handleZoom(evt,'in')"/>
                <use id="zoomminus" xlink:href="#zoomMin" x="42" y="9" onmousedown="handleZoom(evt,'out')"/>
                <use id="reset" xlink:href="#resetDef" x="30" y="36" onmousedown="handleReset()"/>
                <g id="arrowUp" xlink:href="#dirArrow" transform="translate(30 24)" onmousedown="handlePan(0,-1)">
                  <use xlink:href="#rim" fill="#404040">
                        <set attributeName="fill" to="#808080" begin="arrowUp.mouseover" end="arrowUp.mouseout"/>
                  </use>
                  <path fill="none" stroke="white" stroke-width="1.5" d="M0,-3.0v7 M-2.5,-0.5L0,-3.0L2.5,-0.5"/>
                </g>
                <g id="arrowRight" xlink:href="#dirArrow" transform="rotate(90) translate(36 -43)" onmousedown="handlePan(1,0)">
                  <use xlink:href="#rim" fill="#404040">
                        <set attributeName="fill" to="#808080" begin="arrowRight.mouseover" end="arrowRight.mouseout"/>
                  </use>
                  <path fill="none" stroke="white" stroke-width="1.5" d="M0,-3.0v7 M-2.5,-0.5L0,-3.0L2.5,-0.5"/>
                </g>
                <g id="arrowDown" xlink:href="#dirArrow" transform="rotate(180) translate(-30 -48)" onmousedown="handlePan(0,1)">
                  <use xlink:href="#rim" fill="#404040">
                        <set attributeName="fill" to="#808080" begin="arrowDown.mouseover" end="arrowDown.mouseout"/>
                  </use>
                  <path fill="none" stroke="white" stroke-width="1.5" d="M0,-3.0v7 M-2.5,-0.5L0,-3.0L2.5,-0.5"/>
                </g>
                <g id="arrowLeft" xlink:href="#dirArrow" transform="rotate(270) translate(-36 17)" onmousedown="handlePan(-1,0)">
                  <use xlink:href="#rim" fill="#404040">
                        <set attributeName="fill" to="#808080" begin="arrowLeft.mouseover" end="arrowLeft.mouseout"/>
                  </use>
                  <path fill="none" stroke="white" stroke-width="1.5" d="M0,-3.0v7 M-2.5,-0.5L0,-3.0L2.5,-0.5"/>
                </g>
        </g>
        <svg viewBox="0 0 15 15" width="100%" height="30px" preserveAspectRatio="xMaxYMin meet">
         <g id="arrow_out" transform="scale(0.3 0.3)">
          <a xlink:href="group__NTS__UOE_ga2bfd00650e9f0cc4d8440d60e013f8be_cgraph_org.svg" target="_base">
           <rect id="button" ry="5" rx="5" y="6" x="6" height="38" width="38"
                fill="#f2f5e9" fill-opacity="0.5" stroke="#606060" stroke-width="1.0"/>
           <path id="arrow"
             d="M 11.500037,31.436501 C 11.940474,20.09759 22.043105,11.32322 32.158766,21.979434 L 37.068811,17.246167 C 37.068811,17.246167 37.088388,32 37.088388,32 L 22.160133,31.978069 C 22.160133,31.978069 26.997745,27.140456 26.997745,27.140456 C 18.528582,18.264221 13.291696,25.230495 11.500037,31.436501 z"
             style="fill:#404040;"/>
          </a>
         </g>
        </svg>
</svg>
