<?xml version="1.0" encoding="UTF-8" standalone="no"?>
<!DOCTYPE svg PUBLIC "-//W3C//DTD SVG 1.1//EN"
 "http://www.w3.org/Graphics/SVG/1.1/DTD/svg11.dtd">
<!-- Generated by graphviz version 2.43.0 (0)
 -->
<!-- Title: stepDut Pages: 1 -->
<svg width="508pt" height="351pt"
 viewBox="0.00 0.00 508.00 351.00" xmlns="http://www.w3.org/2000/svg" xmlns:xlink="http://www.w3.org/1999/xlink">
<g id="graph0" class="graph" transform="scale(1 1) rotate(0) translate(4 347)">
<title>stepDut</title>
<!-- Node1 -->
<g id="node1" class="node">
<title>Node1</title>
<g id="a_node1"><a xlink:title="Run a single iteration of the DUT model.">
<polygon fill="#bfbfbf" stroke="black" points="0,-133.5 0,-152.5 55,-152.5 55,-133.5 0,-133.5"/>
<text text-anchor="middle" x="27.5" y="-140.5" font-family="Helvetica,sans-Serif" font-size="10.00">stepDut</text>
</a>
</g>
</g>
<!-- Node2 -->
<g id="node2" class="node">
<title>Node2</title>
<g id="a_node2"><a xlink:href="group__SobelTB.html#ga1bd90367e11713ef24b45044d439bd4f" target="_top" xlink:title=" ">
<polygon fill="none" stroke="black" points="126,-266.5 126,-285.5 201,-285.5 201,-266.5 126,-266.5"/>
<text text-anchor="middle" x="163.5" y="-273.5" font-family="Helvetica,sans-Serif" font-size="10.00">siUdp_meta</text>
</a>
</g>
</g>
<!-- Node1&#45;&gt;Node2 -->
<g id="edge1" class="edge">
<title>Node1&#45;&gt;Node2</title>
<path fill="none" stroke="midnightblue" d="M30.97,-152.65C37.12,-174.7 55.29,-229.02 91,-257 98.28,-262.7 107.11,-266.7 116.06,-269.5"/>
<polygon fill="midnightblue" stroke="midnightblue" points="115.17,-272.88 125.74,-272.09 116.98,-266.12 115.17,-272.88"/>
</g>
<!-- Node3 -->
<g id="node3" class="node">
<title>Node3</title>
<g id="a_node3"><a xlink:href="group__SobelHLS.html#gae2400f612ea70da70714be60afc52630" target="_top" xlink:title="Main process of the Sobel Application directives.">
<polygon fill="none" stroke="black" points="142,-228.5 142,-247.5 185,-247.5 185,-228.5 142,-228.5"/>
<text text-anchor="middle" x="163.5" y="-235.5" font-family="Helvetica,sans-Serif" font-size="10.00">sobel</text>
</a>
</g>
</g>
<!-- Node1&#45;&gt;Node3 -->
<g id="edge2" class="edge">
<title>Node1&#45;&gt;Node3</title>
<path fill="none" stroke="midnightblue" d="M33.67,-152.56C42.94,-168.79 63.98,-201.64 91,-219 103.11,-226.78 118.31,-231.39 131.59,-234.11"/>
<polygon fill="midnightblue" stroke="midnightblue" points="131.26,-237.61 141.72,-235.92 132.49,-230.72 131.26,-237.61"/>
</g>
<!-- Node11 -->
<g id="node11" class="node">
<title>Node11</title>
<g id="a_node11"><a xlink:href="group__SobelTB.html#ga3d0879e41b3498ec3683524c4380fbca" target="_top" xlink:title=" ">
<polygon fill="none" stroke="black" points="124.5,-190.5 124.5,-209.5 202.5,-209.5 202.5,-190.5 124.5,-190.5"/>
<text text-anchor="middle" x="163.5" y="-197.5" font-family="Helvetica,sans-Serif" font-size="10.00">soUdp_meta</text>
</a>
</g>
</g>
<!-- Node1&#45;&gt;Node11 -->
<g id="edge10" class="edge">
<title>Node1&#45;&gt;Node11</title>
<path fill="none" stroke="midnightblue" d="M41.79,-152.64C54.05,-161.14 73.01,-173.33 91,-181 98.48,-184.19 106.62,-186.96 114.66,-189.33"/>
<polygon fill="midnightblue" stroke="midnightblue" points="113.77,-192.71 124.34,-192.02 115.64,-185.97 113.77,-192.71"/>
</g>
<!-- Node12 -->
<g id="node12" class="node">
<title>Node12</title>
<g id="a_node12"><a xlink:href="group__SobelTB.html#ga8a91d08b41f63ada548b50fc96fe9f96" target="_top" xlink:title=" ">
<polygon fill="none" stroke="black" points="91,-152.5 91,-171.5 236,-171.5 236,-152.5 91,-152.5"/>
<text text-anchor="middle" x="163.5" y="-159.5" font-family="Helvetica,sans-Serif" font-size="10.00">sROL_Shl_Mem_WrCmdP0</text>
</a>
</g>
</g>
<!-- Node1&#45;&gt;Node12 -->
<g id="edge11" class="edge">
<title>Node1&#45;&gt;Node12</title>
<path fill="none" stroke="midnightblue" d="M55.29,-146.8C64.18,-148.06 74.57,-149.53 85.31,-151.06"/>
<polygon fill="midnightblue" stroke="midnightblue" points="84.86,-154.53 95.25,-152.46 85.84,-147.6 84.86,-154.53"/>
</g>
<!-- Node13 -->
<g id="node13" class="node">
<title>Node13</title>
<g id="a_node13"><a xlink:href="group__SobelTB.html#ga58a07924671463ff5a1942de04237ed8" target="_top" xlink:title=" ">
<polygon fill="none" stroke="black" points="96,-114.5 96,-133.5 231,-133.5 231,-114.5 96,-114.5"/>
<text text-anchor="middle" x="163.5" y="-121.5" font-family="Helvetica,sans-Serif" font-size="10.00">sROL_Shl_Mem_WriteP0</text>
</a>
</g>
</g>
<!-- Node1&#45;&gt;Node13 -->
<g id="edge12" class="edge">
<title>Node1&#45;&gt;Node13</title>
<path fill="none" stroke="midnightblue" d="M55.29,-139.2C64.3,-137.92 74.84,-136.43 85.74,-134.88"/>
<polygon fill="midnightblue" stroke="midnightblue" points="86.4,-138.33 95.81,-133.46 85.42,-131.39 86.4,-138.33"/>
</g>
<!-- Node14 -->
<g id="node14" class="node">
<title>Node14</title>
<g id="a_node14"><a xlink:href="group__SobelTB.html#gae20cf33eedc99be1153c93100d484642" target="_top" xlink:title=" ">
<polygon fill="none" stroke="black" points="95,-76.5 95,-95.5 232,-95.5 232,-76.5 95,-76.5"/>
<text text-anchor="middle" x="163.5" y="-83.5" font-family="Helvetica,sans-Serif" font-size="10.00">sSHL_Rol_Mem_WrStsP0</text>
</a>
</g>
</g>
<!-- Node1&#45;&gt;Node14 -->
<g id="edge13" class="edge">
<title>Node1&#45;&gt;Node14</title>
<path fill="none" stroke="midnightblue" d="M41.79,-133.36C54.05,-124.86 73.01,-112.67 91,-105 96.74,-102.55 102.87,-100.35 109.04,-98.39"/>
<polygon fill="midnightblue" stroke="midnightblue" points="110.14,-101.71 118.73,-95.5 108.14,-95.01 110.14,-101.71"/>
</g>
<!-- Node15 -->
<g id="node15" class="node">
<title>Node15</title>
<g id="a_node15"><a xlink:href="group__SobelTB.html#gae01425342f3c967f16486d71040bab38" target="_top" xlink:title=" ">
<polygon fill="none" stroke="black" points="117.5,-38.5 117.5,-57.5 209.5,-57.5 209.5,-38.5 117.5,-38.5"/>
<text text-anchor="middle" x="163.5" y="-45.5" font-family="Helvetica,sans-Serif" font-size="10.00">sSHL_Uaf_Data</text>
</a>
</g>
</g>
<!-- Node1&#45;&gt;Node15 -->
<g id="edge14" class="edge">
<title>Node1&#45;&gt;Node15</title>
<path fill="none" stroke="midnightblue" d="M33.67,-133.44C42.94,-117.21 63.98,-84.36 91,-67 96.05,-63.75 101.65,-61.06 107.41,-58.82"/>
<polygon fill="midnightblue" stroke="midnightblue" points="108.88,-62.02 117.22,-55.48 106.62,-55.39 108.88,-62.02"/>
</g>
<!-- Node16 -->
<g id="node16" class="node">
<title>Node16</title>
<g id="a_node16"><a xlink:href="group__SobelTB.html#ga8b8509e7c91f567d4ad11ff426aabb7f" target="_top" xlink:title=" ">
<polygon fill="none" stroke="black" points="118,-0.5 118,-19.5 209,-19.5 209,-0.5 118,-0.5"/>
<text text-anchor="middle" x="163.5" y="-7.5" font-family="Helvetica,sans-Serif" font-size="10.00">sUAF_Shl_Data</text>
</a>
</g>
</g>
<!-- Node1&#45;&gt;Node16 -->
<g id="edge15" class="edge">
<title>Node1&#45;&gt;Node16</title>
<path fill="none" stroke="midnightblue" d="M30.97,-133.35C37.12,-111.3 55.29,-56.98 91,-29 96.11,-25 101.99,-21.83 108.13,-19.34"/>
<polygon fill="midnightblue" stroke="midnightblue" points="109.64,-22.52 117.93,-15.93 107.34,-15.91 109.64,-22.52"/>
</g>
<!-- Node4 -->
<g id="node4" class="node">
<title>Node4</title>
<g id="a_node4"><a xlink:href="group__MemtestHLS.html#ga033fd36668741325cf3c111416e82131" target="_top" xlink:title="pPortAndDestionation &#45; Setup the port and the destination rank.">
<polygon fill="none" stroke="black" points="273,-323.5 273,-342.5 396,-342.5 396,-323.5 273,-323.5"/>
<text text-anchor="middle" x="334.5" y="-330.5" font-family="Helvetica,sans-Serif" font-size="10.00">pPortAndDestionation</text>
</a>
</g>
</g>
<!-- Node3&#45;&gt;Node4 -->
<g id="edge3" class="edge">
<title>Node3&#45;&gt;Node4</title>
<path fill="none" stroke="midnightblue" d="M185.02,-239.44C200.33,-241.41 221.09,-246.05 236,-257 260.15,-274.74 248.21,-295.78 272,-314 274.45,-315.88 277.09,-317.57 279.84,-319.09"/>
<polygon fill="midnightblue" stroke="midnightblue" points="278.42,-322.3 288.96,-323.43 281.43,-315.97 278.42,-322.3"/>
</g>
<!-- Node5 -->
<g id="node5" class="node">
<title>Node5</title>
<g id="a_node5"><a xlink:href="group__MCEuropeanEngineHLS.html#ga17d58313a1e5e59dcce3d0ee9f6ba7f4" target="_top" xlink:title="Processing Path &#45; Main processing FSM for Vitis kernels.">
<polygon fill="none" stroke="black" points="302,-285.5 302,-304.5 367,-304.5 367,-285.5 302,-285.5"/>
<text text-anchor="middle" x="334.5" y="-292.5" font-family="Helvetica,sans-Serif" font-size="10.00">pProcPath</text>
</a>
</g>
</g>
<!-- Node3&#45;&gt;Node5 -->
<g id="edge4" class="edge">
<title>Node3&#45;&gt;Node5</title>
<path fill="none" stroke="midnightblue" d="M185.23,-242.2C199.72,-245.46 219.37,-250.5 236,-257 252.85,-263.59 255.29,-269.08 272,-276 278.38,-278.64 285.27,-281.12 292.04,-283.35"/>
<polygon fill="midnightblue" stroke="midnightblue" points="291.22,-286.76 301.81,-286.44 293.33,-280.09 291.22,-286.76"/>
</g>
<!-- Node7 -->
<g id="node7" class="node">
<title>Node7</title>
<g id="a_node7"><a xlink:href="group__MemtestHLS.html#ga3bece8b45019894cb93d4c2127e66daf" target="_top" xlink:title="Receive Path &#45; From SHELL to THIS.">
<polygon fill="none" stroke="black" points="306,-247.5 306,-266.5 363,-266.5 363,-247.5 306,-247.5"/>
<text text-anchor="middle" x="334.5" y="-254.5" font-family="Helvetica,sans-Serif" font-size="10.00">pRXPath</text>
</a>
</g>
</g>
<!-- Node3&#45;&gt;Node7 -->
<g id="edge6" class="edge">
<title>Node3&#45;&gt;Node7</title>
<path fill="none" stroke="midnightblue" d="M185.22,-240.33C212.7,-243.42 261.69,-248.93 295.81,-252.76"/>
<polygon fill="midnightblue" stroke="midnightblue" points="295.55,-256.26 305.88,-253.89 296.33,-249.3 295.55,-256.26"/>
</g>
<!-- Node8 -->
<g id="node8" class="node">
<title>Node8</title>
<g id="a_node8"><a xlink:href="group__MedianBlurHLS.html#gac3e890765121e9a873b7a3a0aea95646" target="_top" xlink:title="Receive Path &#45; From SHELL to THIS.">
<polygon fill="none" stroke="black" points="274.5,-209.5 274.5,-228.5 394.5,-228.5 394.5,-209.5 274.5,-209.5"/>
<text text-anchor="middle" x="334.5" y="-216.5" font-family="Helvetica,sans-Serif" font-size="10.00">pRXPathNetToStream</text>
</a>
</g>
</g>
<!-- Node3&#45;&gt;Node8 -->
<g id="edge7" class="edge">
<title>Node3&#45;&gt;Node8</title>
<path fill="none" stroke="midnightblue" d="M185.22,-235.67C205.01,-233.45 235.96,-229.97 264.47,-226.76"/>
<polygon fill="midnightblue" stroke="midnightblue" points="264.89,-230.24 274.44,-225.64 264.11,-223.28 264.89,-230.24"/>
</g>
<!-- Node9 -->
<g id="node9" class="node">
<title>Node9</title>
<g id="a_node9"><a xlink:href="group__MedianBlurHLS.html#gafde53db5d12c864e5515e989b059d909" target="_top" xlink:title="Receive Path &#45; From SHELL to THIS.">
<polygon fill="none" stroke="black" points="272,-171.5 272,-190.5 397,-190.5 397,-171.5 272,-171.5"/>
<text text-anchor="middle" x="334.5" y="-178.5" font-family="Helvetica,sans-Serif" font-size="10.00">pRXPathStreamToDDR</text>
</a>
</g>
</g>
<!-- Node3&#45;&gt;Node9 -->
<g id="edge8" class="edge">
<title>Node3&#45;&gt;Node9</title>
<path fill="none" stroke="midnightblue" d="M185.23,-233.8C199.72,-230.54 219.37,-225.5 236,-219 252.85,-212.41 255.29,-206.92 272,-200 277.42,-197.75 283.21,-195.63 288.98,-193.67"/>
<polygon fill="midnightblue" stroke="midnightblue" points="290.19,-196.96 298.62,-190.54 288.03,-190.3 290.19,-196.96"/>
</g>
<!-- Node10 -->
<g id="node10" class="node">
<title>Node10</title>
<g id="a_node10"><a xlink:href="group__MemtestHLS.html#ga7d6c5ba26d71af2ade72df4e1033f326" target="_top" xlink:title="Transmit Path &#45; From THIS to SHELL.">
<polygon fill="none" stroke="black" points="306.5,-133.5 306.5,-152.5 362.5,-152.5 362.5,-133.5 306.5,-133.5"/>
<text text-anchor="middle" x="334.5" y="-140.5" font-family="Helvetica,sans-Serif" font-size="10.00">pTXPath</text>
</a>
</g>
</g>
<!-- Node3&#45;&gt;Node10 -->
<g id="edge9" class="edge">
<title>Node3&#45;&gt;Node10</title>
<path fill="none" stroke="midnightblue" d="M185.02,-236.56C200.33,-234.59 221.09,-229.95 236,-219 260.15,-201.26 248.21,-180.22 272,-162 279.22,-156.47 288.06,-152.54 296.77,-149.74"/>
<polygon fill="midnightblue" stroke="midnightblue" points="297.75,-153.1 306.45,-147.05 295.87,-146.36 297.75,-153.1"/>
</g>
<!-- Node6 -->
<g id="node6" class="node">
<title>Node6</title>
<g id="a_node6"><a xlink:href="kernel__mceuropeanengine_8hpp.html#a70ec22f5d35d42f5c8acfcc54fb0a383" target="_top" xlink:title=" ">
<polygon fill="none" stroke="black" points="433,-285.5 433,-304.5 500,-304.5 500,-285.5 433,-285.5"/>
<text text-anchor="middle" x="466.5" y="-292.5" font-family="Helvetica,sans-Serif" font-size="10.00">kernel_mc</text>
</a>
</g>
</g>
<!-- Node5&#45;&gt;Node6 -->
<g id="edge5" class="edge">
<title>Node5&#45;&gt;Node6</title>
<path fill="none" stroke="midnightblue" d="M367.3,-295C383.97,-295 404.61,-295 422.67,-295"/>
<polygon fill="midnightblue" stroke="midnightblue" points="422.67,-298.5 432.67,-295 422.67,-291.5 422.67,-298.5"/>
</g>
</g>
</svg>
