<?xml version="1.0" encoding="UTF-8" standalone="no"?>
<!DOCTYPE svg PUBLIC "-//W3C//DTD SVG 1.1//EN"
 "http://www.w3.org/Graphics/SVG/1.1/DTD/svg11.dtd">
<!-- Generated by graphviz version 2.43.0 (0)
 -->
<!-- Title: SRA Pages: 1 -->
<svg width="220pt" height="64pt"
 viewBox="0.00 0.00 220.00 64.00" xmlns="http://www.w3.org/2000/svg" xmlns:xlink="http://www.w3.org/1999/xlink">
<g id="graph0" class="graph" transform="scale(1 1) rotate(0) translate(4 60)">
<title>SRA</title>
<!-- Node3 -->
<g id="node1" class="node">
<title>Node3</title>
<g id="a_node1"><a xlink:href="group__Themisto.html" target="_top" xlink:title="This SRA type enables node2node communication within cloudFPGA. The network data streams have now a p...">
<polygon fill="none" stroke="black" points="212,-56 150,-56 150,-37 212,-37 212,-56"/>
<text text-anchor="middle" x="181" y="-44" font-family="Helvetica,sans-Serif" font-size="10.00">Themisto</text>
</a>
</g>
</g>
<!-- Node1 -->
<g id="node2" class="node">
<title>Node1</title>
<g id="a_node2"><a xlink:title="Shell&#45;Role&#45;Architecture (SRA). To abstract the details of the hardware from the user and to assert ce...">
<polygon fill="#bfbfbf" stroke="black" points="114,-37 78,-37 78,-18 114,-18 114,-37"/>
<text text-anchor="middle" x="96" y="-25" font-family="Helvetica,sans-Serif" font-size="10.00">SRA</text>
</a>
</g>
</g>
<!-- Node1&#45;&gt;Node3 -->
<g id="edge2" class="edge">
<title>Node1&#45;&gt;Node3</title>
<path fill="none" stroke="black" d="M124.03,-33.69C132.24,-35.57 141.32,-37.65 149.73,-39.57"/>
<polygon fill="black" stroke="black" points="124.73,-30.26 114.2,-31.44 123.16,-37.08 124.73,-30.26"/>
</g>
<!-- Node4 -->
<g id="node4" class="node">
<title>Node4</title>
<g id="a_node4"><a xlink:href="group__Kale.html" target="_top" xlink:title="This version of the cF shell is used for the testing and the bring&#45;up of a cloudFPGA (cF) module....">
<polygon fill="none" stroke="black" points="200,-19 162,-19 162,0 200,0 200,-19"/>
<text text-anchor="middle" x="181" y="-7" font-family="Helvetica,sans-Serif" font-size="10.00">Kale</text>
</a>
</g>
</g>
<!-- Node1&#45;&gt;Node4 -->
<g id="edge3" class="edge">
<title>Node1&#45;&gt;Node4</title>
<path fill="none" stroke="black" d="M124.06,-21.63C136.48,-18.94 150.88,-15.81 161.96,-13.41"/>
<polygon fill="black" stroke="black" points="123.23,-18.23 114.2,-23.77 124.71,-25.07 123.23,-18.23"/>
</g>
<!-- Node2 -->
<g id="node3" class="node">
<title>Node2</title>
<g id="a_node3"><a xlink:href="group__cFDK.html" target="_top" xlink:title="This is the cloudFPGA Development Kit (cFDK). The documentation of cFDK is available at https://pages...">
<polygon fill="none" stroke="black" points="42,-37 0,-37 0,-18 42,-18 42,-37"/>
<text text-anchor="middle" x="21" y="-25" font-family="Helvetica,sans-Serif" font-size="10.00">cFDK</text>
</a>
</g>
</g>
<!-- Node2&#45;&gt;Node1 -->
<g id="edge1" class="edge">
<title>Node2&#45;&gt;Node1</title>
<path fill="none" stroke="black" d="M52.49,-27.5C61.11,-27.5 70.19,-27.5 77.74,-27.5"/>
<polygon fill="black" stroke="black" points="52.33,-24 42.33,-27.5 52.33,-31 52.33,-24"/>
</g>
</g>
</svg>
