<?xml version="1.0" encoding="UTF-8" standalone="no"?>
<!DOCTYPE svg PUBLIC "-//W3C//DTD SVG 1.1//EN"
 "http://www.w3.org/Graphics/SVG/1.1/DTD/svg11.dtd">
<!-- Generated by graphviz version 2.43.0 (0)
 -->
<!-- Title: Sobel HLS Pages: 1 -->
<svg width="324pt" height="101pt"
 viewBox="0.00 0.00 324.00 101.00" xmlns="http://www.w3.org/2000/svg" xmlns:xlink="http://www.w3.org/1999/xlink">
<g id="graph0" class="graph" transform="scale(1 1) rotate(0) translate(4 97)">
<title>Sobel HLS</title>
<!-- Node2 -->
<g id="node1" class="node">
<title>Node2</title>
<g id="a_node1"><a xlink:href="group__Sobel.html" target="_top" xlink:title="This is the Sobel accelerated function from Vitis Vision Open Source Library.">
<polygon fill="none" stroke="black" points="44,-56 0,-56 0,-37 44,-37 44,-56"/>
<text text-anchor="middle" x="22" y="-44" font-family="Helvetica,sans-Serif" font-size="10.00">Sobel</text>
</a>
</g>
</g>
<!-- Node1 -->
<g id="node5" class="node">
<title>Node1</title>
<g id="a_node5"><a xlink:title="This is a subgroup of Sobel accelerated function with only synthesizable (HLS) functions/classes.">
<polygon fill="#bfbfbf" stroke="black" points="146,-56 81,-56 81,-37 146,-37 146,-56"/>
<text text-anchor="middle" x="113.5" y="-44" font-family="Helvetica,sans-Serif" font-size="10.00">Sobel HLS</text>
</a>
</g>
</g>
<!-- Node2&#45;&gt;Node1 -->
<g id="edge1" class="edge">
<title>Node2&#45;&gt;Node1</title>
<path fill="none" stroke="black" d="M54.28,-46.5C62.91,-46.5 72.28,-46.5 80.93,-46.5"/>
<polygon fill="black" stroke="black" points="54.21,-43 44.21,-46.5 54.21,-50 54.21,-43"/>
</g>
<!-- Node3 -->
<g id="node2" class="node">
<title>Node3</title>
<g id="a_node2"><a xlink:href="group__HarrisHLS.html" target="_top" xlink:title="This is a subgroup of Harris accelerated function with only synthesizable (Vivado HLS) functions/clas...">
<polygon fill="none" stroke="black" points="312,-93 208,-93 208,-74 312,-74 312,-93"/>
<text text-anchor="middle" x="260" y="-81" font-family="Helvetica,sans-Serif" font-size="10.00">Harris Vivado HLS</text>
</a>
</g>
</g>
<!-- Node4 -->
<g id="node3" class="node">
<title>Node4</title>
<g id="a_node3"><a xlink:href="group__MedianBlurHLS.html" target="_top" xlink:title="This is a subgroup of MedianBlur accelerated function with only synthesizable (HLS) functions/classes...">
<polygon fill="none" stroke="black" points="308.5,-56 211.5,-56 211.5,-37 308.5,-37 308.5,-56"/>
<text text-anchor="middle" x="260" y="-44" font-family="Helvetica,sans-Serif" font-size="10.00">MedianBlur &#160;HLS</text>
</a>
</g>
</g>
<!-- Node5 -->
<g id="node4" class="node">
<title>Node5</title>
<g id="a_node4"><a xlink:href="group__WarpTransformHLS.html" target="_top" xlink:title="This is a subgroup of WarpTransform accelerated function with only synthesizable (HLS) functions/clas...">
<polygon fill="none" stroke="black" points="316,-19 204,-19 204,0 316,0 316,-19"/>
<text text-anchor="middle" x="260" y="-7" font-family="Helvetica,sans-Serif" font-size="10.00">WarpTransform HLS</text>
</a>
</g>
</g>
<!-- Node1&#45;&gt;Node3 -->
<g id="edge2" class="edge">
<title>Node1&#45;&gt;Node3</title>
<path fill="none" stroke="orange" stroke-dasharray="5,2" d="M144.77,-56.02C151.11,-57.92 157.75,-59.83 164,-61.5 180.52,-65.91 198.79,-70.27 214.86,-73.92"/>
<text text-anchor="middle" x="175" y="-69.5" font-family="Helvetica,sans-Serif" font-size="10.00">Axis</text>
</g>
<!-- Node1&#45;&gt;Node4 -->
<g id="edge3" class="edge">
<title>Node1&#45;&gt;Node4</title>
<path fill="none" stroke="orange" stroke-dasharray="5,2" d="M146.21,-46.5C165.32,-46.5 190.02,-46.5 211.43,-46.5"/>
<text text-anchor="middle" x="175" y="-49.5" font-family="Helvetica,sans-Serif" font-size="10.00">Axis</text>
</g>
<!-- Node1&#45;&gt;Node5 -->
<g id="edge4" class="edge">
<title>Node1&#45;&gt;Node5</title>
<path fill="none" stroke="orange" stroke-dasharray="5,2" d="M144.77,-36.98C151.11,-35.08 157.75,-33.17 164,-31.5 180.52,-27.09 198.79,-22.73 214.86,-19.08"/>
<text text-anchor="middle" x="175" y="-34.5" font-family="Helvetica,sans-Serif" font-size="10.00">Axis</text>
</g>
</g>
</svg>
