<?xml version="1.0" encoding="UTF-8" standalone="no"?>
<!DOCTYPE svg PUBLIC "-//W3C//DTD SVG 1.1//EN"
 "http://www.w3.org/Graphics/SVG/1.1/DTD/svg11.dtd">
<!-- Generated by graphviz version 2.43.0 (0)
 -->
<!-- Title: pTOE Pages: 1 -->
<svg width="317pt" height="104pt"
 viewBox="0.00 0.00 317.00 104.00" xmlns="http://www.w3.org/2000/svg" xmlns:xlink="http://www.w3.org/1999/xlink">
<g id="graph0" class="graph" transform="scale(1 1) rotate(0) translate(4 100)">
<title>pTOE</title>
<!-- Node1 -->
<g id="node1" class="node">
<title>Node1</title>
<g id="a_node1"><a xlink:title=" ">
<polygon fill="#bfbfbf" stroke="black" points="0,-38.5 0,-57.5 42,-57.5 42,-38.5 0,-38.5"/>
<text text-anchor="middle" x="21" y="-45.5" font-family="Helvetica,sans-Serif" font-size="10.00">pTOE</text>
</a>
</g>
</g>
<!-- Node2 -->
<g id="node2" class="node">
<title>Node2</title>
<g id="a_node2"><a xlink:href="classAxisRaw.html#a42cd520c9b19f7c2fc6d2fc204cb30b7" target="_top" xlink:title=" ">
<polygon fill="none" stroke="black" points="201,-76.5 201,-95.5 307,-95.5 307,-76.5 201,-76.5"/>
<text text-anchor="middle" x="254" y="-83.5" font-family="Helvetica,sans-Serif" font-size="10.00">AxisRaw::getTLast</text>
</a>
</g>
</g>
<!-- Node1&#45;&gt;Node2 -->
<g id="edge1" class="edge">
<title>Node1&#45;&gt;Node2</title>
<path fill="none" stroke="midnightblue" d="M42.18,-56.04C52.7,-59.93 65.87,-64.32 78,-67 114.91,-75.16 157.01,-79.87 190.67,-82.56"/>
<polygon fill="midnightblue" stroke="midnightblue" points="190.59,-86.07 200.83,-83.33 191.12,-79.09 190.59,-86.07"/>
</g>
<!-- Node3 -->
<g id="node3" class="node">
<title>Node3</title>
<g id="a_node3"><a xlink:href="simulation__utils_8cpp.html#a61409c0a9f0cc53a8133e2250889a0b5" target="_top" xlink:title="Prints one chunk of a data stream (used for debugging).">
<polygon fill="none" stroke="black" points="80.5,-38.5 80.5,-57.5 160.5,-57.5 160.5,-38.5 80.5,-38.5"/>
<text text-anchor="middle" x="120.5" y="-45.5" font-family="Helvetica,sans-Serif" font-size="10.00">printAxiWord</text>
</a>
</g>
</g>
<!-- Node1&#45;&gt;Node3 -->
<g id="edge2" class="edge">
<title>Node1&#45;&gt;Node3</title>
<path fill="none" stroke="midnightblue" d="M42.2,-48C50.4,-48 60.26,-48 70.15,-48"/>
<polygon fill="midnightblue" stroke="midnightblue" points="70.4,-51.5 80.4,-48 70.4,-44.5 70.4,-51.5"/>
</g>
<!-- Node6 -->
<g id="node6" class="node">
<title>Node6</title>
<g id="a_node6"><a xlink:href="group__NTS.html#ga868a2a0831dcd26fa88eadae8f61f92c" target="_top" xlink:title="Print a socket address.">
<polygon fill="none" stroke="black" points="78,-0.5 78,-19.5 163,-19.5 163,-0.5 78,-0.5"/>
<text text-anchor="middle" x="120.5" y="-7.5" font-family="Helvetica,sans-Serif" font-size="10.00">printSockAddr</text>
</a>
</g>
</g>
<!-- Node1&#45;&gt;Node6 -->
<g id="edge6" class="edge">
<title>Node1&#45;&gt;Node6</title>
<path fill="none" stroke="midnightblue" d="M42.2,-40.13C54.62,-35.29 70.85,-28.96 85.24,-23.35"/>
<polygon fill="midnightblue" stroke="midnightblue" points="86.78,-26.51 94.83,-19.62 84.24,-19.99 86.78,-26.51"/>
</g>
<!-- Node3&#45;&gt;Node2 -->
<g id="edge5" class="edge">
<title>Node3&#45;&gt;Node2</title>
<path fill="none" stroke="midnightblue" d="M154.68,-57.59C171.5,-62.45 192.13,-68.41 210.13,-73.61"/>
<polygon fill="midnightblue" stroke="midnightblue" points="209.25,-77 219.83,-76.41 211.19,-70.28 209.25,-77"/>
</g>
<!-- Node4 -->
<g id="node4" class="node">
<title>Node4</title>
<g id="a_node4"><a xlink:href="classAxisRaw.html#a208a8bf67decab3e92139c8afc9aa149" target="_top" xlink:title=" ">
<polygon fill="none" stroke="black" points="199.5,-38.5 199.5,-57.5 308.5,-57.5 308.5,-38.5 199.5,-38.5"/>
<text text-anchor="middle" x="254" y="-45.5" font-family="Helvetica,sans-Serif" font-size="10.00">AxisRaw::getTData</text>
</a>
</g>
</g>
<!-- Node3&#45;&gt;Node4 -->
<g id="edge3" class="edge">
<title>Node3&#45;&gt;Node4</title>
<path fill="none" stroke="midnightblue" d="M160.6,-48C169.59,-48 179.38,-48 189.12,-48"/>
<polygon fill="midnightblue" stroke="midnightblue" points="189.21,-51.5 199.21,-48 189.21,-44.5 189.21,-51.5"/>
</g>
<!-- Node5 -->
<g id="node5" class="node">
<title>Node5</title>
<g id="a_node5"><a xlink:href="classAxisRaw.html#acb10d569e10f95bdd0be0af34ce605bd" target="_top" xlink:title=" ">
<polygon fill="none" stroke="black" points="199,-0.5 199,-19.5 309,-19.5 309,-0.5 199,-0.5"/>
<text text-anchor="middle" x="254" y="-7.5" font-family="Helvetica,sans-Serif" font-size="10.00">AxisRaw::getTKeep</text>
</a>
</g>
</g>
<!-- Node3&#45;&gt;Node5 -->
<g id="edge4" class="edge">
<title>Node3&#45;&gt;Node5</title>
<path fill="none" stroke="midnightblue" d="M154.68,-38.41C171.5,-33.55 192.13,-27.59 210.13,-22.39"/>
<polygon fill="midnightblue" stroke="midnightblue" points="211.19,-25.72 219.83,-19.59 209.25,-19 211.19,-25.72"/>
</g>
</g>
</svg>
