<?xml version="1.0" encoding="UTF-8" standalone="no"?>
<!DOCTYPE svg PUBLIC "-//W3C//DTD SVG 1.1//EN"
 "http://www.w3.org/Graphics/SVG/1.1/DTD/svg11.dtd">
<!-- Generated by graphviz version 2.43.0 (0)
 -->
<!-- Title: fmc Pages: 1 -->
<svg width="596pt" height="452pt"
 viewBox="0.00 0.00 596.00 451.84" xmlns="http://www.w3.org/2000/svg" xmlns:xlink="http://www.w3.org/1999/xlink">
<g id="graph0" class="graph" transform="scale(1 1) rotate(0) translate(4 447.84)">
<title>fmc</title>
<!-- Node1 -->
<g id="node1" class="node">
<title>Node1</title>
<g id="a_node1"><a xlink:title=" ">
<polygon fill="#bfbfbf" stroke="black" points="0,-234.34 0,-253.34 35,-253.34 35,-234.34 0,-234.34"/>
<text text-anchor="middle" x="17.5" y="-241.34" font-family="Helvetica,sans-Serif" font-size="10.00">fmc</text>
</a>
</g>
</g>
<!-- Node2 -->
<g id="node2" class="node">
<title>Node2</title>
<g id="a_node2"><a xlink:href="group__FMC.html#gad05fabf72f4d339c28d2c8a3dec52c07" target="_top" xlink:title=" ">
<polygon fill="none" stroke="black" points="86.5,-424.34 86.5,-443.34 169.5,-443.34 169.5,-424.34 86.5,-424.34"/>
<text text-anchor="middle" x="128" y="-431.34" font-family="Helvetica,sans-Serif" font-size="10.00">bytesToPages</text>
</a>
</g>
</g>
<!-- Node1&#45;&gt;Node2 -->
<g id="edge1" class="edge">
<title>Node1&#45;&gt;Node2</title>
<path fill="none" stroke="midnightblue" d="M18.56,-253.48C19.29,-282.15 25.35,-367.83 71,-414.84 72.88,-416.77 74.96,-418.51 77.18,-420.07"/>
<polygon fill="midnightblue" stroke="midnightblue" points="75.91,-423.37 86.33,-425.25 79.36,-417.28 75.91,-423.37"/>
</g>
<!-- Node3 -->
<g id="node3" class="node">
<title>Node3</title>
<g id="a_node3"><a xlink:href="group__FMC.html#ga2671e7cba9e70eecd98c6ac5dac2bf3c" target="_top" xlink:title=" ">
<polygon fill="none" stroke="black" points="71,-386.34 71,-405.34 185,-405.34 185,-386.34 71,-386.34"/>
<text text-anchor="middle" x="128" y="-393.34" font-family="Helvetica,sans-Serif" font-size="10.00">copyAndCheckBurst</text>
</a>
</g>
</g>
<!-- Node1&#45;&gt;Node3 -->
<g id="edge2" class="edge">
<title>Node1&#45;&gt;Node3</title>
<path fill="none" stroke="midnightblue" d="M19.53,-253.39C22.65,-277.57 34.15,-341.75 71,-376.84 72.66,-378.42 74.46,-379.87 76.36,-381.2"/>
<polygon fill="midnightblue" stroke="midnightblue" points="74.79,-384.34 85.21,-386.3 78.29,-378.27 74.79,-384.34"/>
</g>
<!-- Node4 -->
<g id="node4" class="node">
<title>Node4</title>
<g id="a_node4"><a xlink:href="group__FMC.html#ga1b9884ac3074de802c918670db21f246" target="_top" xlink:title=" ">
<polygon fill="none" stroke="black" points="85,-348.34 85,-367.34 171,-367.34 171,-348.34 85,-348.34"/>
<text text-anchor="middle" x="128" y="-355.34" font-family="Helvetica,sans-Serif" font-size="10.00">copyOutBuffer</text>
</a>
</g>
</g>
<!-- Node1&#45;&gt;Node4 -->
<g id="edge3" class="edge">
<title>Node1&#45;&gt;Node4</title>
<path fill="none" stroke="midnightblue" d="M21.82,-253.59C28.46,-271.72 44.98,-310.84 71,-333.84 75.42,-337.74 80.57,-341.09 85.92,-343.93"/>
<polygon fill="midnightblue" stroke="midnightblue" points="84.49,-347.12 95.02,-348.24 87.48,-340.79 84.49,-347.12"/>
</g>
<!-- Node5 -->
<g id="node5" class="node">
<title>Node5</title>
<g id="a_node5"><a xlink:href="group__FMC.html#ga646eca58ec4baddf24c2fa7fb6b7752c" target="_top" xlink:title=" ">
<polygon fill="none" stroke="black" points="85,-272.34 85,-291.34 171,-291.34 171,-272.34 85,-272.34"/>
<text text-anchor="middle" x="128" y="-279.34" font-family="Helvetica,sans-Serif" font-size="10.00">emptyInBuffer</text>
</a>
</g>
</g>
<!-- Node1&#45;&gt;Node5 -->
<g id="edge4" class="edge">
<title>Node1&#45;&gt;Node5</title>
<path fill="none" stroke="midnightblue" d="M35.45,-249.78C50,-254.87 71.49,-262.4 89.99,-268.88"/>
<polygon fill="midnightblue" stroke="midnightblue" points="89.03,-272.25 99.62,-272.25 91.34,-265.64 89.03,-272.25"/>
</g>
<!-- Node6 -->
<g id="node6" class="node">
<title>Node6</title>
<g id="a_node6"><a xlink:href="group__FMC.html#ga3a50c22d6958dbc6fb31716727a91186" target="_top" xlink:title=" ">
<polygon fill="none" stroke="black" points="236.5,-300.34 236.5,-319.34 345.5,-319.34 345.5,-300.34 236.5,-300.34"/>
<text text-anchor="middle" x="291" y="-307.34" font-family="Helvetica,sans-Serif" font-size="10.00">icap_hangover_fifo</text>
</a>
</g>
</g>
<!-- Node1&#45;&gt;Node6 -->
<g id="edge8" class="edge">
<title>Node1&#45;&gt;Node6</title>
<path fill="none" stroke="midnightblue" d="M24.1,-253.69C32.38,-267.15 49.27,-290.78 71,-300.84 119.63,-323.37 181.04,-323.83 226.45,-319.69"/>
<polygon fill="midnightblue" stroke="midnightblue" points="226.87,-323.16 236.47,-318.68 226.17,-316.2 226.87,-323.16"/>
</g>
<!-- Node7 -->
<g id="node7" class="node">
<title>Node7</title>
<g id="a_node7"><a xlink:href="group__FMC.html#ga911f968f92ccfc14e084b87c6505034a" target="_top" xlink:title=" ">
<polygon fill="none" stroke="black" points="240.5,-253.34 240.5,-272.34 341.5,-272.34 341.5,-253.34 240.5,-253.34"/>
<text text-anchor="middle" x="291" y="-260.34" font-family="Helvetica,sans-Serif" font-size="10.00">internal_icap_fifo</text>
</a>
</g>
</g>
<!-- Node1&#45;&gt;Node7 -->
<g id="edge9" class="edge">
<title>Node1&#45;&gt;Node7</title>
<path fill="none" stroke="midnightblue" d="M35.07,-245C72.97,-247.65 167.51,-254.27 230.2,-258.66"/>
<polygon fill="midnightblue" stroke="midnightblue" points="230.13,-262.16 240.35,-259.37 230.62,-255.18 230.13,-262.16"/>
</g>
<!-- Node8 -->
<g id="node8" class="node">
<title>Node8</title>
<g id="a_node8"><a xlink:href="group__FMC.html#gae331622bf7beaaf99cfda5ca083e8aeb" target="_top" xlink:title=" ">
<polygon fill="none" stroke="black" points="80.5,-196.34 80.5,-215.34 175.5,-215.34 175.5,-196.34 80.5,-196.34"/>
<text text-anchor="middle" x="128" y="-203.34" font-family="Helvetica,sans-Serif" font-size="10.00">emptyOutBuffer</text>
</a>
</g>
</g>
<!-- Node1&#45;&gt;Node8 -->
<g id="edge7" class="edge">
<title>Node1&#45;&gt;Node8</title>
<path fill="none" stroke="midnightblue" d="M35.45,-237.9C50,-232.81 71.49,-225.28 89.99,-218.8"/>
<polygon fill="midnightblue" stroke="midnightblue" points="91.34,-222.04 99.62,-215.43 89.03,-215.43 91.34,-222.04"/>
</g>
<!-- Node9 -->
<g id="node9" class="node">
<title>Node9</title>
<g id="a_node9"><a xlink:href="group__FMC.html#ga63c2ab610747767fafb46f6f94d457e9" target="_top" xlink:title=" ">
<polygon fill="none" stroke="black" points="100,-158.34 100,-177.34 156,-177.34 156,-158.34 100,-158.34"/>
<text text-anchor="middle" x="128" y="-165.34" font-family="Helvetica,sans-Serif" font-size="10.00">my_atoi</text>
</a>
</g>
</g>
<!-- Node1&#45;&gt;Node9 -->
<g id="edge10" class="edge">
<title>Node1&#45;&gt;Node9</title>
<path fill="none" stroke="midnightblue" d="M25.17,-233.97C34.18,-221.35 51.38,-199.61 71,-186.84 76.84,-183.04 83.52,-179.92 90.18,-177.39"/>
<polygon fill="midnightblue" stroke="midnightblue" points="91.5,-180.63 99.83,-174.08 89.24,-174.01 91.5,-180.63"/>
</g>
<!-- Node10 -->
<g id="node10" class="node">
<title>Node10</title>
<g id="a_node10"><a xlink:href="group__FMC.html#ga0b67f9e9ee35c1a5eb72fc8408bd2d86" target="_top" xlink:title=" ">
<polygon fill="none" stroke="black" points="89.5,-120.34 89.5,-139.34 166.5,-139.34 166.5,-120.34 89.5,-120.34"/>
<text text-anchor="middle" x="128" y="-127.34" font-family="Helvetica,sans-Serif" font-size="10.00">my_wordlen</text>
</a>
</g>
</g>
<!-- Node1&#45;&gt;Node10 -->
<g id="edge11" class="edge">
<title>Node1&#45;&gt;Node10</title>
<path fill="none" stroke="midnightblue" d="M21.22,-234.24C27.11,-215.2 42.81,-172.41 71,-148.84 73.84,-146.46 77,-144.37 80.33,-142.55"/>
<polygon fill="midnightblue" stroke="midnightblue" points="81.85,-145.7 89.42,-138.28 78.88,-139.36 81.85,-145.7"/>
</g>
<!-- Node11 -->
<g id="node11" class="node">
<title>Node11</title>
<g id="a_node11"><a xlink:href="group__FMC.html#ga8019f8bf8f3d4c93ab02b2ee9458f324" target="_top" xlink:title=" ">
<polygon fill="none" stroke="black" points="83.5,-82.34 83.5,-101.34 172.5,-101.34 172.5,-82.34 83.5,-82.34"/>
<text text-anchor="middle" x="128" y="-89.34" font-family="Helvetica,sans-Serif" font-size="10.00">parseHttpInput</text>
</a>
</g>
</g>
<!-- Node1&#45;&gt;Node11 -->
<g id="edge12" class="edge">
<title>Node1&#45;&gt;Node11</title>
<path fill="none" stroke="midnightblue" d="M19.53,-234.29C22.65,-210.11 34.15,-145.93 71,-110.84 72.66,-109.26 74.46,-107.81 76.36,-106.48"/>
<polygon fill="midnightblue" stroke="midnightblue" points="78.29,-109.41 85.21,-101.38 74.79,-103.34 78.29,-109.41"/>
</g>
<!-- Node15 -->
<g id="node15" class="node">
<title>Node15</title>
<g id="a_node15"><a xlink:href="group__FMC.html#gad3b00f43dd9313387e155ce20f4616be" target="_top" xlink:title=" ">
<polygon fill="none" stroke="black" points="415,-6.34 415,-25.34 489,-25.34 489,-6.34 415,-6.34"/>
<text text-anchor="middle" x="452" y="-13.34" font-family="Helvetica,sans-Serif" font-size="10.00">request_len</text>
</a>
</g>
</g>
<!-- Node1&#45;&gt;Node15 -->
<g id="edge23" class="edge">
<title>Node1&#45;&gt;Node15</title>
<path fill="none" stroke="midnightblue" d="M18.4,-234.03C18.65,-204.89 23.53,-118.01 71,-72.84 162.12,13.85 325.13,3.77 404.72,-7.57"/>
<polygon fill="midnightblue" stroke="midnightblue" points="404.52,-11.08 414.92,-9.09 405.55,-4.15 404.52,-11.08"/>
</g>
<!-- Node5&#45;&gt;Node6 -->
<g id="edge5" class="edge">
<title>Node5&#45;&gt;Node6</title>
<path fill="none" stroke="midnightblue" d="M171.3,-289.2C188.2,-292.14 208.03,-295.58 226.58,-298.81"/>
<polygon fill="midnightblue" stroke="midnightblue" points="225.99,-302.26 236.44,-300.53 227.19,-295.36 225.99,-302.26"/>
</g>
<!-- Node5&#45;&gt;Node7 -->
<g id="edge6" class="edge">
<title>Node5&#45;&gt;Node7</title>
<path fill="none" stroke="midnightblue" d="M171.3,-276.85C189.31,-274.72 210.64,-272.21 230.22,-269.9"/>
<polygon fill="midnightblue" stroke="midnightblue" points="230.75,-273.36 240.27,-268.71 229.93,-266.41 230.75,-273.36"/>
</g>
<!-- Node12 -->
<g id="node12" class="node">
<title>Node12</title>
<g id="a_node12"><a xlink:href="group__FMC.html#gacf521d6803610f51cda0ed27ecd1ac23" target="_top" xlink:title=" ">
<polygon fill="none" stroke="black" points="252,-44.34 252,-63.34 330,-63.34 330,-44.34 252,-44.34"/>
<text text-anchor="middle" x="291" y="-51.34" font-family="Helvetica,sans-Serif" font-size="10.00">extract_path</text>
</a>
</g>
</g>
<!-- Node11&#45;&gt;Node12 -->
<g id="edge13" class="edge">
<title>Node11&#45;&gt;Node12</title>
<path fill="none" stroke="midnightblue" d="M169.63,-82.25C191.62,-77.06 218.92,-70.62 241.96,-65.18"/>
<polygon fill="midnightblue" stroke="midnightblue" points="242.95,-68.54 251.88,-62.84 241.34,-61.73 242.95,-68.54"/>
</g>
<!-- Node16 -->
<g id="node16" class="node">
<title>Node16</title>
<g id="a_node16"><a xlink:href="group__FMC.html#gac5887047a1654023dced5f677a9a7423" target="_top" xlink:title=" ">
<polygon fill="none" stroke="black" points="221,-120.34 221,-139.34 361,-139.34 361,-120.34 221,-120.34"/>
<text text-anchor="middle" x="291" y="-127.34" font-family="Helvetica,sans-Serif" font-size="10.00">writeDisplaysToOutBuffer</text>
</a>
</g>
</g>
<!-- Node11&#45;&gt;Node16 -->
<g id="edge17" class="edge">
<title>Node11&#45;&gt;Node16</title>
<path fill="none" stroke="midnightblue" d="M169.63,-101.43C190.97,-106.47 217.31,-112.68 239.91,-118.02"/>
<polygon fill="midnightblue" stroke="midnightblue" points="239.13,-121.43 249.67,-120.32 240.74,-114.62 239.13,-121.43"/>
</g>
<!-- Node17 -->
<g id="node17" class="node">
<title>Node17</title>
<g id="a_node17"><a xlink:href="group__FMC.html#ga8dda00b601c9fbda46ecb10243feb089" target="_top" xlink:title=" ">
<polygon fill="none" stroke="black" points="417,-158.34 417,-177.34 487,-177.34 487,-158.34 417,-158.34"/>
<text text-anchor="middle" x="452" y="-165.34" font-family="Helvetica,sans-Serif" font-size="10.00">writeString</text>
</a>
</g>
</g>
<!-- Node11&#45;&gt;Node17 -->
<g id="edge22" class="edge">
<title>Node11&#45;&gt;Node17</title>
<path fill="none" stroke="midnightblue" d="M165.73,-101.44C172.41,-103.97 179.12,-107.07 185,-110.84 204.59,-123.39 200.03,-138.78 221,-148.84 280.4,-177.34 358.38,-177.07 406.57,-173.23"/>
<polygon fill="midnightblue" stroke="midnightblue" points="407.03,-176.7 416.68,-172.33 406.41,-169.73 407.03,-176.7"/>
</g>
<!-- Node20 -->
<g id="node20" class="node">
<title>Node20</title>
<g id="a_node20"><a xlink:href="group__FMC.html#ga5329b70725ba9b345ba299631105d891" target="_top" xlink:title=" ">
<polygon fill="none" stroke="black" points="244.5,-82.34 244.5,-101.34 337.5,-101.34 337.5,-82.34 244.5,-82.34"/>
<text text-anchor="middle" x="291" y="-89.34" font-family="Helvetica,sans-Serif" font-size="10.00">writeHttpStatus</text>
</a>
</g>
</g>
<!-- Node11&#45;&gt;Node20 -->
<g id="edge21" class="edge">
<title>Node11&#45;&gt;Node20</title>
<path fill="none" stroke="midnightblue" d="M172.57,-91.84C191.61,-91.84 214.17,-91.84 234.4,-91.84"/>
<polygon fill="midnightblue" stroke="midnightblue" points="234.43,-95.34 244.43,-91.84 234.43,-88.34 234.43,-95.34"/>
</g>
<!-- Node13 -->
<g id="node13" class="node">
<title>Node13</title>
<g id="a_node13"><a xlink:href="group__FMC.html#ga9d48782b4811f4f14720654d1e4eeb2a" target="_top" xlink:title=" ">
<polygon fill="none" stroke="black" points="416.5,-44.34 416.5,-63.34 487.5,-63.34 487.5,-44.34 416.5,-44.34"/>
<text text-anchor="middle" x="452" y="-51.34" font-family="Helvetica,sans-Serif" font-size="10.00">my_strcmp</text>
</a>
</g>
</g>
<!-- Node12&#45;&gt;Node13 -->
<g id="edge14" class="edge">
<title>Node12&#45;&gt;Node13</title>
<path fill="none" stroke="midnightblue" d="M330.08,-53.84C352.97,-53.84 382.22,-53.84 406.21,-53.84"/>
<polygon fill="midnightblue" stroke="midnightblue" points="406.48,-57.34 416.48,-53.84 406.48,-50.34 406.48,-57.34"/>
</g>
<!-- Node14 -->
<g id="node14" class="node">
<title>Node14</title>
<g id="a_node14"><a xlink:href="group__FMC.html#ga81eeab4feccbdd3c70dc3e38beca12ba" target="_top" xlink:title=" ">
<polygon fill="none" stroke="black" points="419.5,-82.34 419.5,-101.34 484.5,-101.34 484.5,-82.34 419.5,-82.34"/>
<text text-anchor="middle" x="452" y="-89.34" font-family="Helvetica,sans-Serif" font-size="10.00">my_strlen</text>
</a>
</g>
</g>
<!-- Node12&#45;&gt;Node14 -->
<g id="edge15" class="edge">
<title>Node12&#45;&gt;Node14</title>
<path fill="none" stroke="midnightblue" d="M330.08,-62.94C354.07,-68.67 385.02,-76.07 409.61,-81.95"/>
<polygon fill="midnightblue" stroke="midnightblue" points="408.84,-85.36 419.38,-84.28 410.46,-78.55 408.84,-85.36"/>
</g>
<!-- Node12&#45;&gt;Node15 -->
<g id="edge16" class="edge">
<title>Node12&#45;&gt;Node15</title>
<path fill="none" stroke="midnightblue" d="M330.08,-44.74C352.59,-39.36 381.25,-32.51 405.01,-26.83"/>
<polygon fill="midnightblue" stroke="midnightblue" points="405.95,-30.21 414.86,-24.48 404.32,-23.4 405.95,-30.21"/>
</g>
<!-- Node16&#45;&gt;Node17 -->
<g id="edge18" class="edge">
<title>Node16&#45;&gt;Node17</title>
<path fill="none" stroke="midnightblue" d="M332.12,-139.43C354.88,-144.87 383.4,-151.68 406.8,-157.28"/>
<polygon fill="midnightblue" stroke="midnightblue" points="406.28,-160.75 416.82,-159.67 407.9,-153.94 406.28,-160.75"/>
</g>
<!-- Node18 -->
<g id="node18" class="node">
<title>Node18</title>
<g id="a_node18"><a xlink:href="group__FMC.html#ga94b1de96d6a040ca1c609deb6c4b8f8a" target="_top" xlink:title=" ">
<polygon fill="none" stroke="black" points="397,-120.34 397,-139.34 507,-139.34 507,-120.34 397,-120.34"/>
<text text-anchor="middle" x="452" y="-127.34" font-family="Helvetica,sans-Serif" font-size="10.00">writeUnsignedLong</text>
</a>
</g>
</g>
<!-- Node16&#45;&gt;Node18 -->
<g id="edge19" class="edge">
<title>Node16&#45;&gt;Node18</title>
<path fill="none" stroke="midnightblue" d="M361.28,-129.84C369.73,-129.84 378.33,-129.84 386.7,-129.84"/>
<polygon fill="midnightblue" stroke="midnightblue" points="386.77,-133.34 396.77,-129.84 386.77,-126.34 386.77,-133.34"/>
</g>
<!-- Node19 -->
<g id="node19" class="node">
<title>Node19</title>
<g id="a_node19"><a xlink:href="group__FMC.html#gaed6ac4ab1b984e6d04322d925311c413" target="_top" xlink:title=" ">
<polygon fill="none" stroke="black" points="543,-120.34 543,-139.34 588,-139.34 588,-120.34 543,-120.34"/>
<text text-anchor="middle" x="565.5" y="-127.34" font-family="Helvetica,sans-Serif" font-size="10.00">strrev</text>
</a>
</g>
</g>
<!-- Node18&#45;&gt;Node19 -->
<g id="edge20" class="edge">
<title>Node18&#45;&gt;Node19</title>
<path fill="none" stroke="midnightblue" d="M507.12,-129.84C515.91,-129.84 524.76,-129.84 532.79,-129.84"/>
<polygon fill="midnightblue" stroke="midnightblue" points="532.8,-133.34 542.8,-129.84 532.8,-126.34 532.8,-133.34"/>
</g>
</g>
</svg>
