<?xml version="1.0" encoding="UTF-8" standalone="no"?>
<!DOCTYPE svg PUBLIC "-//W3C//DTD SVG 1.1//EN"
 "http://www.w3.org/Graphics/SVG/1.1/DTD/svg11.dtd">
<!-- Generated by graphviz version 2.43.0 (0)
 -->
<!-- Title: main Pages: 1 -->
<!--zoomable 208 -->
<svg id="main" version="1.1" xmlns="http://www.w3.org/2000/svg" xmlns:xlink="http://www.w3.org/1999/xlink" xml:space="preserve" onload="init(evt)">
<style type="text/css"><![CDATA[
.edge:hover path { stroke: red; }
.edge:hover polygon { stroke: red; fill: red; }
]]></style>
<script type="text/javascript"><![CDATA[
var edges = document.getElementsByTagName('g');
if (edges && edges.length) {
  for (var i=0;i<edges.length;i++) {
    if (edges[i].id.substr(0,4)=='edge') {
      edges[i].setAttribute('class','edge');
    }
  }
}
]]></script>
        <defs>
                <circle id="rim" cx="0" cy="0" r="7"/>
                <circle id="rim2" cx="0" cy="0" r="3.5"/>
                <g id="zoomPlus">
                        <use xlink:href="#rim" fill="#404040">
                                <set attributeName="fill" to="#808080" begin="zoomplus.mouseover" end="zoomplus.mouseout"/>
                        </use>
                        <path d="M-4,0h8M0,-4v8" fill="none" stroke="white" stroke-width="1.5" pointer-events="none"/>
                </g>
                <g id="zoomMin">
                        <use xlink:href="#rim" fill="#404040">
                                <set attributeName="fill" to="#808080" begin="zoomminus.mouseover" end="zoomminus.mouseout"/>
                        </use>
                        <path d="M-4,0h8" fill="none" stroke="white" stroke-width="1.5" pointer-events="none"/>
                </g>
                <g id="dirArrow">
                        <path fill="none" stroke="white" stroke-width="1.5" d="M0,-3.0v7 M-2.5,-0.5L0,-3.0L2.5,-0.5"/>
                </g>
               <g id="resetDef">
                       <use xlink:href="#rim2" fill="#404040">
                               <set attributeName="fill" to="#808080" begin="reset.mouseover" end="reset.mouseout"/>
                       </use>
               </g>
        </defs>

<script type="text/javascript">
var viewWidth = 510;
var viewHeight = 208;
var sectionId = 'dynsection-6';
</script>
<script xlink:href="svgpan.js"/>
<svg id="graph" class="graph">
<g id="viewport">
<title>main</title>
<!-- Node1 -->
<g id="node1" class="node">
<title>Node1</title>
<g id="a_node1"><a xlink:title=" ">
<polygon fill="#bfbfbf" stroke="black" points="0,-95.5 0,-114.5 41,-114.5 41,-95.5 0,-95.5"/>
<text text-anchor="middle" x="20.5" y="-102.5" font-family="Helvetica,sans-Serif" font-size="10.00">main</text>
</a>
</g>
</g>
<!-- Node2 -->
<g id="node2" class="node">
<title>Node2</title>
<g id="a_node2"><a xlink:href="namespacevar_1_1common.html#a0e8c2a1201adedb395a7e08410568717" target="_top" xlink:title=" ">
<polygon fill="none" stroke="black" points="238,-171.5 238,-190.5 344,-190.5 344,-171.5 238,-171.5"/>
<text text-anchor="middle" x="291" y="-178.5" font-family="Helvetica,sans-Serif" font-size="10.00">var.common.clock</text>
</a>
</g>
</g>
<!-- Node1&#45;&gt;Node2 -->
<g id="edge1" class="edge">
<title>Node1&#45;&gt;Node2</title>
<path fill="none" stroke="midnightblue" d="M25.15,-114.75C32.16,-131.89 49.32,-166.94 77,-181 129.26,-207.55 198.46,-201.22 243.59,-192.55"/>
<polygon fill="midnightblue" stroke="midnightblue" points="244.3,-195.98 253.4,-190.56 242.91,-189.12 244.3,-195.98"/>
</g>
<!-- Node3 -->
<g id="node3" class="node">
<title>Node3</title>
<g id="a_node3"><a xlink:href="group__Gammacorrection.html#ga9e7cc9f16fb9cb7de4698c16cd748f15" target="_top" xlink:title=" ">
<polygon fill="none" stroke="black" points="113,-152.5 113,-171.5 157,-171.5 157,-152.5 113,-152.5"/>
<text text-anchor="middle" x="135" y="-159.5" font-family="Helvetica,sans-Serif" font-size="10.00">delay</text>
</a>
</g>
</g>
<!-- Node1&#45;&gt;Node3 -->
<g id="edge2" class="edge">
<title>Node1&#45;&gt;Node3</title>
<path fill="none" stroke="midnightblue" d="M33.67,-114.81C44.52,-123.19 61.1,-135.1 77,-143 85.19,-147.07 94.46,-150.58 103.1,-153.44"/>
<polygon fill="midnightblue" stroke="midnightblue" points="102.28,-156.85 112.87,-156.49 104.36,-150.16 102.28,-156.85"/>
</g>
<!-- Node4 -->
<g id="node4" class="node">
<title>Node4</title>
<g id="a_node4"><a xlink:href="group__Gammacorrection.html#gaac1445f0dd25f8594229f856bb996ead" target="_top" xlink:title="Mark the points found by Gammacorrection into the image.">
<polygon fill="none" stroke="black" points="77,-114.5 77,-133.5 193,-133.5 193,-114.5 77,-114.5"/>
<text text-anchor="middle" x="135" y="-121.5" font-family="Helvetica,sans-Serif" font-size="10.00">markPointsOnImage</text>
</a>
</g>
</g>
<!-- Node1&#45;&gt;Node4 -->
<g id="edge4" class="edge">
<title>Node1&#45;&gt;Node4</title>
<path fill="none" stroke="midnightblue" d="M41.1,-108.31C48.67,-109.59 57.8,-111.13 67.35,-112.74"/>
<polygon fill="midnightblue" stroke="midnightblue" points="66.97,-116.23 77.41,-114.44 68.13,-109.33 66.97,-116.23"/>
</g>
<!-- Node5 -->
<g id="node5" class="node">
<title>Node5</title>
<g id="a_node5"><a xlink:href="group__GammacorrectionTB.html#ga51e78292d5f0884fd708eb6a0abab07c" target="_top" xlink:title=" ">
<polygon fill="none" stroke="black" points="108.5,-76.5 108.5,-95.5 161.5,-95.5 161.5,-76.5 108.5,-76.5"/>
<text text-anchor="middle" x="135" y="-83.5" font-family="Helvetica,sans-Serif" font-size="10.00">ocv_ref</text>
</a>
</g>
</g>
<!-- Node1&#45;&gt;Node5 -->
<g id="edge5" class="edge">
<title>Node1&#45;&gt;Node5</title>
<path fill="none" stroke="midnightblue" d="M41.1,-101.69C56.82,-99.04 79.31,-95.24 98.22,-92.04"/>
<polygon fill="midnightblue" stroke="midnightblue" points="99.02,-95.46 108.3,-90.34 97.85,-88.56 99.02,-95.46"/>
</g>
<!-- Node10 -->
<g id="node10" class="node">
<title>Node10</title>
<g id="a_node10"><a xlink:href="group__Gammacorrection.html#ga123aada9d6b9d7b1929099735471e728" target="_top" xlink:title=" ">
<polygon fill="none" stroke="black" points="95,-38.5 95,-57.5 175,-57.5 175,-38.5 95,-38.5"/>
<text text-anchor="middle" x="135" y="-45.5" font-family="Helvetica,sans-Serif" font-size="10.00">print_cFpZoo</text>
</a>
</g>
</g>
<!-- Node1&#45;&gt;Node10 -->
<g id="edge10" class="edge">
<title>Node1&#45;&gt;Node10</title>
<path fill="none" stroke="midnightblue" d="M33.67,-95.19C44.52,-86.81 61.1,-74.9 77,-67 81.33,-64.85 85.95,-62.86 90.63,-61.03"/>
<polygon fill="midnightblue" stroke="midnightblue" points="92.03,-64.25 100.22,-57.53 89.62,-57.67 92.03,-64.25"/>
</g>
<!-- Node11 -->
<g id="node11" class="node">
<title>Node11</title>
<g id="a_node11"><a xlink:href="namespacecFSPlib_1_1comm.html#adec4a4ac6b144142658c0c5e4c3ab19b" target="_top" xlink:title=" ">
<polygon fill="none" stroke="black" points="79.5,-0.5 79.5,-19.5 190.5,-19.5 190.5,-0.5 79.5,-0.5"/>
<text text-anchor="middle" x="135" y="-7.5" font-family="Helvetica,sans-Serif" font-size="10.00">cFSPlib.comm.send</text>
</a>
</g>
</g>
<!-- Node1&#45;&gt;Node11 -->
<g id="edge11" class="edge">
<title>Node1&#45;&gt;Node11</title>
<path fill="none" stroke="midnightblue" d="M26.05,-95.34C34.09,-79.27 52.33,-47.02 77,-29 79.65,-27.06 82.52,-25.31 85.5,-23.74"/>
<polygon fill="midnightblue" stroke="midnightblue" points="87.08,-26.86 94.71,-19.5 84.16,-20.5 87.08,-26.86"/>
</g>
<!-- Node3&#45;&gt;Node2 -->
<g id="edge3" class="edge">
<title>Node3&#45;&gt;Node2</title>
<path fill="none" stroke="midnightblue" d="M157.09,-164.6C175.26,-166.84 202.45,-170.2 227.51,-173.29"/>
<polygon fill="midnightblue" stroke="midnightblue" points="227.36,-176.8 237.72,-174.55 228.22,-169.85 227.36,-176.8"/>
</g>
<!-- Node6 -->
<g id="node6" class="node">
<title>Node6</title>
<g id="a_node6"><a xlink:href="group__GammacorrectionTB.html#ga822ec8fca3f87a6e55a9e5f4795d5c0c" target="_top" xlink:title=" ">
<polygon fill="none" stroke="black" points="229,-95.5 229,-114.5 353,-114.5 353,-95.5 229,-95.5"/>
<text text-anchor="middle" x="291" y="-102.5" font-family="Helvetica,sans-Serif" font-size="10.00">OCVMaxSuppression1</text>
</a>
</g>
</g>
<!-- Node5&#45;&gt;Node6 -->
<g id="edge6" class="edge">
<title>Node5&#45;&gt;Node6</title>
<path fill="none" stroke="midnightblue" d="M161.78,-89.18C177.52,-91.12 198.5,-93.71 218.92,-96.23"/>
<polygon fill="midnightblue" stroke="midnightblue" points="218.52,-99.71 228.87,-97.46 219.38,-92.76 218.52,-99.71"/>
</g>
<!-- Node8 -->
<g id="node8" class="node">
<title>Node8</title>
<g id="a_node8"><a xlink:href="group__GammacorrectionTB.html#ga4be9749f424865cefe7a2ba10c8d8450" target="_top" xlink:title=" ">
<polygon fill="none" stroke="black" points="229,-57.5 229,-76.5 353,-76.5 353,-57.5 229,-57.5"/>
<text text-anchor="middle" x="291" y="-64.5" font-family="Helvetica,sans-Serif" font-size="10.00">OCVMaxSuppression2</text>
</a>
</g>
</g>
<!-- Node5&#45;&gt;Node8 -->
<g id="edge8" class="edge">
<title>Node5&#45;&gt;Node8</title>
<path fill="none" stroke="midnightblue" d="M161.78,-82.82C177.52,-80.88 198.5,-78.29 218.92,-75.77"/>
<polygon fill="midnightblue" stroke="midnightblue" points="219.38,-79.24 228.87,-74.54 218.52,-72.29 219.38,-79.24"/>
</g>
<!-- Node7 -->
<g id="node7" class="node">
<title>Node7</title>
<g id="a_node7"><a xlink:href="group__GammacorrectionTB.html#ga5f1e7f9c115d3f6aa0fa47cfdb4783b2" target="_top" xlink:title=" ">
<polygon fill="none" stroke="black" points="389,-95.5 389,-114.5 502,-114.5 502,-95.5 389,-95.5"/>
<text text-anchor="middle" x="445.5" y="-102.5" font-family="Helvetica,sans-Serif" font-size="10.00">OCVFindMaximum1</text>
</a>
</g>
</g>
<!-- Node6&#45;&gt;Node7 -->
<g id="edge7" class="edge">
<title>Node6&#45;&gt;Node7</title>
<path fill="none" stroke="midnightblue" d="M353.15,-105C361.51,-105 370.13,-105 378.58,-105"/>
<polygon fill="midnightblue" stroke="midnightblue" points="378.77,-108.5 388.77,-105 378.77,-101.5 378.77,-108.5"/>
</g>
<!-- Node9 -->
<g id="node9" class="node">
<title>Node9</title>
<g id="a_node9"><a xlink:href="group__GammacorrectionTB.html#ga3c33190c70546d42870e2be3f91ff7c4" target="_top" xlink:title=" ">
<polygon fill="none" stroke="black" points="389,-57.5 389,-76.5 502,-76.5 502,-57.5 389,-57.5"/>
<text text-anchor="middle" x="445.5" y="-64.5" font-family="Helvetica,sans-Serif" font-size="10.00">OCVFindMaximum2</text>
</a>
</g>
</g>
<!-- Node8&#45;&gt;Node9 -->
<g id="edge9" class="edge">
<title>Node8&#45;&gt;Node9</title>
<path fill="none" stroke="midnightblue" d="M353.15,-67C361.51,-67 370.13,-67 378.58,-67"/>
<polygon fill="midnightblue" stroke="midnightblue" points="378.77,-70.5 388.77,-67 378.77,-63.5 378.77,-70.5"/>
</g>
</g>
</svg>
        <g id="navigator" transform="translate(0 0)" fill="#404254">
                <rect fill="#f2f5e9" fill-opacity="0.5" stroke="#606060" stroke-width=".5" x="0" y="0" width="60" height="60"/>
                <use id="zoomplus" xlink:href="#zoomPlus" x="17" y="9" onmousedown="handleZoom(evt,'in')"/>
                <use id="zoomminus" xlink:href="#zoomMin" x="42" y="9" onmousedown="handleZoom(evt,'out')"/>
                <use id="reset" xlink:href="#resetDef" x="30" y="36" onmousedown="handleReset()"/>
                <g id="arrowUp" xlink:href="#dirArrow" transform="translate(30 24)" onmousedown="handlePan(0,-1)">
                  <use xlink:href="#rim" fill="#404040">
                        <set attributeName="fill" to="#808080" begin="arrowUp.mouseover" end="arrowUp.mouseout"/>
                  </use>
                  <path fill="none" stroke="white" stroke-width="1.5" d="M0,-3.0v7 M-2.5,-0.5L0,-3.0L2.5,-0.5"/>
                </g>
                <g id="arrowRight" xlink:href="#dirArrow" transform="rotate(90) translate(36 -43)" onmousedown="handlePan(1,0)">
                  <use xlink:href="#rim" fill="#404040">
                        <set attributeName="fill" to="#808080" begin="arrowRight.mouseover" end="arrowRight.mouseout"/>
                  </use>
                  <path fill="none" stroke="white" stroke-width="1.5" d="M0,-3.0v7 M-2.5,-0.5L0,-3.0L2.5,-0.5"/>
                </g>
                <g id="arrowDown" xlink:href="#dirArrow" transform="rotate(180) translate(-30 -48)" onmousedown="handlePan(0,1)">
                  <use xlink:href="#rim" fill="#404040">
                        <set attributeName="fill" to="#808080" begin="arrowDown.mouseover" end="arrowDown.mouseout"/>
                  </use>
                  <path fill="none" stroke="white" stroke-width="1.5" d="M0,-3.0v7 M-2.5,-0.5L0,-3.0L2.5,-0.5"/>
                </g>
                <g id="arrowLeft" xlink:href="#dirArrow" transform="rotate(270) translate(-36 17)" onmousedown="handlePan(-1,0)">
                  <use xlink:href="#rim" fill="#404040">
                        <set attributeName="fill" to="#808080" begin="arrowLeft.mouseover" end="arrowLeft.mouseout"/>
                  </use>
                  <path fill="none" stroke="white" stroke-width="1.5" d="M0,-3.0v7 M-2.5,-0.5L0,-3.0L2.5,-0.5"/>
                </g>
        </g>
        <svg viewBox="0 0 15 15" width="100%" height="30px" preserveAspectRatio="xMaxYMin meet">
         <g id="arrow_out" transform="scale(0.3 0.3)">
          <a xlink:href="group__Gammacorrection_ga0ddf1224851353fc92bfbff6f499fa97_cgraph_org.svg" target="_base">
           <rect id="button" ry="5" rx="5" y="6" x="6" height="38" width="38"
                fill="#f2f5e9" fill-opacity="0.5" stroke="#606060" stroke-width="1.0"/>
           <path id="arrow"
             d="M 11.500037,31.436501 C 11.940474,20.09759 22.043105,11.32322 32.158766,21.979434 L 37.068811,17.246167 C 37.068811,17.246167 37.088388,32 37.088388,32 L 22.160133,31.978069 C 22.160133,31.978069 26.997745,27.140456 26.997745,27.140456 C 18.528582,18.264221 13.291696,25.230495 11.500037,31.436501 z"
             style="fill:#404040;"/>
          </a>
         </g>
        </svg>
</svg>
