<?xml version="1.0" encoding="UTF-8" standalone="no"?>
<!DOCTYPE svg PUBLIC "-//W3C//DTD SVG 1.1//EN"
 "http://www.w3.org/Graphics/SVG/1.1/DTD/svg11.dtd">
<!-- Generated by graphviz version 2.43.0 (0)
 -->
<!-- Title: toecam_top Pages: 1 -->
<svg width="287pt" height="142pt"
 viewBox="0.00 0.00 287.00 142.00" xmlns="http://www.w3.org/2000/svg" xmlns:xlink="http://www.w3.org/1999/xlink">
<g id="graph0" class="graph" transform="scale(1 1) rotate(0) translate(4 138)">
<title>toecam_top</title>
<!-- Node1 -->
<g id="node1" class="node">
<title>Node1</title>
<g id="a_node1"><a xlink:title="Top of Content&#45;Addressable Memory (TOECAM).">
<polygon fill="#bfbfbf" stroke="black" points="0,-57.5 0,-76.5 74,-76.5 74,-57.5 0,-57.5"/>
<text text-anchor="middle" x="37" y="-64.5" font-family="Helvetica,sans-Serif" font-size="10.00">toecam_top</text>
</a>
</g>
</g>
<!-- Node2 -->
<g id="node2" class="node">
<title>Node2</title>
<g id="a_node2"><a xlink:href="group__NTS__TOECAM.html#gad2da241eccaa85d08953c187613644ee" target="_top" xlink:title="Main process of the Content&#45;Addressable Memory (TOECAM).">
<polygon fill="none" stroke="black" points="110,-57.5 110,-76.5 163,-76.5 163,-57.5 110,-57.5"/>
<text text-anchor="middle" x="136.5" y="-64.5" font-family="Helvetica,sans-Serif" font-size="10.00">toecam</text>
</a>
</g>
</g>
<!-- Node1&#45;&gt;Node2 -->
<g id="edge1" class="edge">
<title>Node1&#45;&gt;Node2</title>
<path fill="none" stroke="midnightblue" d="M74.03,-67C82.42,-67 91.35,-67 99.73,-67"/>
<polygon fill="midnightblue" stroke="midnightblue" points="99.97,-70.5 109.97,-67 99.97,-63.5 99.97,-70.5"/>
</g>
<!-- Node3 -->
<g id="node3" class="node">
<title>Node3</title>
<g id="a_node3"><a xlink:href="group__NTS__TOECAM.html#ga640c19125981e37bc8bbb100ba244e80" target="_top" xlink:title="Remove a key&#45;value pair from the CAM array.">
<polygon fill="none" stroke="black" points="204,-114.5 204,-133.5 274,-133.5 274,-114.5 204,-114.5"/>
<text text-anchor="middle" x="239" y="-121.5" font-family="Helvetica,sans-Serif" font-size="10.00">camDelete</text>
</a>
</g>
</g>
<!-- Node2&#45;&gt;Node3 -->
<g id="edge2" class="edge">
<title>Node2&#45;&gt;Node3</title>
<path fill="none" stroke="midnightblue" d="M152.41,-76.8C164.72,-84.74 182.73,-96.04 199,-105 201.9,-106.6 204.96,-108.21 208.03,-109.78"/>
<polygon fill="midnightblue" stroke="midnightblue" points="206.65,-113 217.16,-114.32 209.77,-106.73 206.65,-113"/>
</g>
<!-- Node4 -->
<g id="node4" class="node">
<title>Node4</title>
<g id="a_node4"><a xlink:href="group__NTS__TOECAM.html#gaab14953c7d9c3e896e942b55635bcd06" target="_top" xlink:title="Insert a new key&#45;value pair in the CAM array.">
<polygon fill="none" stroke="black" points="206.5,-76.5 206.5,-95.5 271.5,-95.5 271.5,-76.5 206.5,-76.5"/>
<text text-anchor="middle" x="239" y="-83.5" font-family="Helvetica,sans-Serif" font-size="10.00">camInsert</text>
</a>
</g>
</g>
<!-- Node2&#45;&gt;Node4 -->
<g id="edge3" class="edge">
<title>Node2&#45;&gt;Node4</title>
<path fill="none" stroke="midnightblue" d="M163.12,-71.84C173.18,-73.75 185,-75.98 196.23,-78.1"/>
<polygon fill="midnightblue" stroke="midnightblue" points="195.84,-81.59 206.31,-80.01 197.14,-74.71 195.84,-81.59"/>
</g>
<!-- Node5 -->
<g id="node5" class="node">
<title>Node5</title>
<g id="a_node5"><a xlink:href="group__NTS__TOECAM.html#ga0fba212f03a16f6eb584e6b13d231e29" target="_top" xlink:title="Search the CAM array for a key.">
<polygon fill="none" stroke="black" points="203,-38.5 203,-57.5 275,-57.5 275,-38.5 203,-38.5"/>
<text text-anchor="middle" x="239" y="-45.5" font-family="Helvetica,sans-Serif" font-size="10.00">camLookup</text>
</a>
</g>
</g>
<!-- Node2&#45;&gt;Node5 -->
<g id="edge4" class="edge">
<title>Node2&#45;&gt;Node5</title>
<path fill="none" stroke="midnightblue" d="M163.12,-62.16C172.19,-60.44 182.69,-58.46 192.9,-56.53"/>
<polygon fill="midnightblue" stroke="midnightblue" points="193.77,-59.92 202.95,-54.63 192.47,-53.05 193.77,-59.92"/>
</g>
<!-- Node6 -->
<g id="node6" class="node">
<title>Node6</title>
<g id="a_node6"><a xlink:href="group__NTS.html#gae526d64d204c4ad86d5383b82df63eaf" target="_top" xlink:title="Print a socket pair association.">
<polygon fill="none" stroke="black" points="199,-0.5 199,-19.5 279,-19.5 279,-0.5 199,-0.5"/>
<text text-anchor="middle" x="239" y="-7.5" font-family="Helvetica,sans-Serif" font-size="10.00">printSockPair</text>
</a>
</g>
</g>
<!-- Node2&#45;&gt;Node6 -->
<g id="edge5" class="edge">
<title>Node2&#45;&gt;Node6</title>
<path fill="none" stroke="midnightblue" d="M152.41,-57.2C164.72,-49.26 182.73,-37.96 199,-29 201.9,-27.4 204.96,-25.79 208.03,-24.22"/>
<polygon fill="midnightblue" stroke="midnightblue" points="209.77,-27.27 217.16,-19.68 206.65,-21 209.77,-27.27"/>
</g>
</g>
</svg>
