<?xml version="1.0" encoding="UTF-8" standalone="no"?>
<!DOCTYPE svg PUBLIC "-//W3C//DTD SVG 1.1//EN"
 "http://www.w3.org/Graphics/SVG/1.1/DTD/svg11.dtd">
<!-- Generated by graphviz version 2.43.0 (0)
 -->
<!-- Title: dumpStringToFile Pages: 1 -->
<svg width="249pt" height="66pt"
 viewBox="0.00 0.00 249.00 66.00" xmlns="http://www.w3.org/2000/svg" xmlns:xlink="http://www.w3.org/1999/xlink">
<g id="graph0" class="graph" transform="scale(1 1) rotate(0) translate(4 62)">
<title>dumpStringToFile</title>
<!-- Node1 -->
<g id="node1" class="node">
<title>Node1</title>
<g id="a_node1"><a xlink:title="Fill an output file with data from an image.">
<polygon fill="#bfbfbf" stroke="black" points="0,-19.5 0,-38.5 101,-38.5 101,-19.5 0,-19.5"/>
<text text-anchor="middle" x="50.5" y="-26.5" font-family="Helvetica,sans-Serif" font-size="10.00">dumpStringToFile</text>
</a>
</g>
</g>
<!-- Node2 -->
<g id="node2" class="node">
<title>Node2</title>
<g id="a_node2"><a xlink:href="group__IBMZRL.html#ga91d7257cae6f2ddf59285edd4ec3f7d8" target="_top" xlink:title="Dump a data word to a file.">
<polygon fill="none" stroke="black" points="141.5,-38.5 141.5,-57.5 236.5,-57.5 236.5,-38.5 141.5,-38.5"/>
<text text-anchor="middle" x="189" y="-45.5" font-family="Helvetica,sans-Serif" font-size="10.00">dumpDataToFile</text>
</a>
</g>
</g>
<!-- Node1&#45;&gt;Node2 -->
<g id="edge1" class="edge">
<title>Node1&#45;&gt;Node2</title>
<path fill="none" stroke="midnightblue" d="M101.17,-35.91C110.9,-37.27 121.17,-38.7 131.12,-40.08"/>
<polygon fill="midnightblue" stroke="midnightblue" points="130.94,-43.59 141.33,-41.5 131.9,-36.66 130.94,-43.59"/>
</g>
<!-- Node3 -->
<g id="node3" class="node">
<title>Node3</title>
<g id="a_node3"><a xlink:href="group__IBMZRL.html#ga1ac70fd75b329fc5283664fe6a497715" target="_top" xlink:title="Pack an array of 8 x ap_uint&lt;8&gt; into a ap_uint&lt;64&gt; word.">
<polygon fill="none" stroke="black" points="137,-0.5 137,-19.5 241,-19.5 241,-0.5 137,-0.5"/>
<text text-anchor="middle" x="189" y="-7.5" font-family="Helvetica,sans-Serif" font-size="10.00">pack_ap_uint_64_</text>
</a>
</g>
</g>
<!-- Node1&#45;&gt;Node3 -->
<g id="edge2" class="edge">
<title>Node1&#45;&gt;Node3</title>
<path fill="none" stroke="midnightblue" d="M101.17,-22.09C109.49,-20.93 118.22,-19.71 126.8,-18.52"/>
<polygon fill="midnightblue" stroke="midnightblue" points="127.34,-21.98 136.77,-17.13 126.38,-15.04 127.34,-21.98"/>
</g>
</g>
</svg>
