<?xml version="1.0" encoding="UTF-8" standalone="no"?>
<!DOCTYPE svg PUBLIC "-//W3C//DTD SVG 1.1//EN"
 "http://www.w3.org/Graphics/SVG/1.1/DTD/svg11.dtd">
<!-- Generated by graphviz version 2.43.0 (0)
 -->
<!-- Title: pTSIF Pages: 1 -->
<!--zoomable 522 -->
<svg id="main" version="1.1" xmlns="http://www.w3.org/2000/svg" xmlns:xlink="http://www.w3.org/1999/xlink" xml:space="preserve" onload="init(evt)">
<style type="text/css"><![CDATA[
.edge:hover path { stroke: red; }
.edge:hover polygon { stroke: red; fill: red; }
]]></style>
<script type="text/javascript"><![CDATA[
var edges = document.getElementsByTagName('g');
if (edges && edges.length) {
  for (var i=0;i<edges.length;i++) {
    if (edges[i].id.substr(0,4)=='edge') {
      edges[i].setAttribute('class','edge');
    }
  }
}
]]></script>
        <defs>
                <circle id="rim" cx="0" cy="0" r="7"/>
                <circle id="rim2" cx="0" cy="0" r="3.5"/>
                <g id="zoomPlus">
                        <use xlink:href="#rim" fill="#404040">
                                <set attributeName="fill" to="#808080" begin="zoomplus.mouseover" end="zoomplus.mouseout"/>
                        </use>
                        <path d="M-4,0h8M0,-4v8" fill="none" stroke="white" stroke-width="1.5" pointer-events="none"/>
                </g>
                <g id="zoomMin">
                        <use xlink:href="#rim" fill="#404040">
                                <set attributeName="fill" to="#808080" begin="zoomminus.mouseover" end="zoomminus.mouseout"/>
                        </use>
                        <path d="M-4,0h8" fill="none" stroke="white" stroke-width="1.5" pointer-events="none"/>
                </g>
                <g id="dirArrow">
                        <path fill="none" stroke="white" stroke-width="1.5" d="M0,-3.0v7 M-2.5,-0.5L0,-3.0L2.5,-0.5"/>
                </g>
               <g id="resetDef">
                       <use xlink:href="#rim2" fill="#404040">
                               <set attributeName="fill" to="#808080" begin="reset.mouseover" end="reset.mouseout"/>
                       </use>
               </g>
        </defs>

<script type="text/javascript">
var viewWidth = 655;
var viewHeight = 522;
var sectionId = 'dynsection-9';
</script>
<script xlink:href="svgpan.js"/>
<svg id="graph" class="graph">
<g id="viewport">
<title>pTSIF</title>
<!-- Node1 -->
<g id="node1" class="node">
<title>Node1</title>
<g id="a_node1"><a xlink:title="Emulate the behavior of TSIF.">
<polygon fill="#bfbfbf" stroke="black" points="0,-323.5 0,-342.5 44,-342.5 44,-323.5 0,-323.5"/>
<text text-anchor="middle" x="22" y="-330.5" font-family="Helvetica,sans-Serif" font-size="10.00">pTSIF</text>
</a>
</g>
</g>
<!-- Node2 -->
<g id="node2" class="node">
<title>Node2</title>
<g id="a_node2"><a xlink:href="group__tcp__app__flash.html#ga9cad3ef30f9702b8e8d01d3f3bf51f81" target="_top" xlink:title="Emulate the receiving part of the TSIF process.">
<polygon fill="none" stroke="black" points="80,-380.5 80,-399.5 153,-399.5 153,-380.5 80,-380.5"/>
<text text-anchor="middle" x="116.5" y="-387.5" font-family="Helvetica,sans-Serif" font-size="10.00">pTSIF_Recv</text>
</a>
</g>
</g>
<!-- Node1&#45;&gt;Node2 -->
<g id="edge1" class="edge">
<title>Node1&#45;&gt;Node2</title>
<path fill="none" stroke="midnightblue" d="M38.69,-342.67C53.13,-351.57 74.76,-364.9 91.39,-375.14"/>
<polygon fill="midnightblue" stroke="midnightblue" points="89.69,-378.21 100.04,-380.47 93.36,-372.25 89.69,-378.21"/>
</g>
<!-- Node15 -->
<g id="node15" class="node">
<title>Node15</title>
<g id="a_node15"><a xlink:href="group__tcp__app__flash.html#ga597741237109a3f2e0956d63a3561e33" target="_top" xlink:title="Emulate the sending part of the TSIF process.">
<polygon fill="none" stroke="black" points="80,-266.5 80,-285.5 153,-285.5 153,-266.5 80,-266.5"/>
<text text-anchor="middle" x="116.5" y="-273.5" font-family="Helvetica,sans-Serif" font-size="10.00">pTSIF_Send</text>
</a>
</g>
</g>
<!-- Node1&#45;&gt;Node15 -->
<g id="edge20" class="edge">
<title>Node1&#45;&gt;Node15</title>
<path fill="none" stroke="midnightblue" d="M38.69,-323.33C53.13,-314.43 74.76,-301.1 91.39,-290.86"/>
<polygon fill="midnightblue" stroke="midnightblue" points="93.36,-293.75 100.04,-285.53 89.69,-287.79 93.36,-293.75"/>
</g>
<!-- Node3 -->
<g id="node3" class="node">
<title>Node3</title>
<g id="a_node3"><a xlink:href="classAxisRaw.html#a42cd520c9b19f7c2fc6d2fc204cb30b7" target="_top" xlink:title=" ">
<polygon fill="none" stroke="black" points="372,-494.5 372,-513.5 478,-513.5 478,-494.5 372,-494.5"/>
<text text-anchor="middle" x="425" y="-501.5" font-family="Helvetica,sans-Serif" font-size="10.00">AxisRaw::getTLast</text>
</a>
</g>
</g>
<!-- Node2&#45;&gt;Node3 -->
<g id="edge2" class="edge">
<title>Node2&#45;&gt;Node3</title>
<path fill="none" stroke="midnightblue" d="M121.93,-399.71C131.25,-418.88 154.86,-461.32 189,-480 241.9,-508.94 311.56,-512.56 361.28,-510.39"/>
<polygon fill="midnightblue" stroke="midnightblue" points="361.77,-513.87 371.57,-509.84 361.4,-506.88 361.77,-513.87"/>
</g>
<!-- Node4 -->
<g id="node4" class="node">
<title>Node4</title>
<g id="a_node4"><a xlink:href="group__NTS.html#ga5560d80c548e85eb53223a5e99410b7b" target="_top" xlink:title="Prints an Axis raw data chunk (used for debugging).">
<polygon fill="none" stroke="black" points="217,-380.5 217,-399.5 298,-399.5 298,-380.5 217,-380.5"/>
<text text-anchor="middle" x="257.5" y="-387.5" font-family="Helvetica,sans-Serif" font-size="10.00">printAxisRaw</text>
</a>
</g>
</g>
<!-- Node2&#45;&gt;Node4 -->
<g id="edge3" class="edge">
<title>Node2&#45;&gt;Node4</title>
<path fill="none" stroke="midnightblue" d="M153.3,-390C169.57,-390 189.09,-390 206.76,-390"/>
<polygon fill="midnightblue" stroke="midnightblue" points="206.91,-393.5 216.91,-390 206.91,-386.5 206.91,-393.5"/>
</g>
<!-- Node8 -->
<g id="node8" class="node">
<title>Node8</title>
<g id="a_node8"><a xlink:href="group__NTS__SIM.html#gaa3e64334cd72190d26fba010106f9de0" target="_top" xlink:title="Dump a TCP or UDP application data chunk into a file. The data are stored as a stream of bytes which ...">
<polygon fill="none" stroke="black" points="203,-418.5 203,-437.5 312,-437.5 312,-418.5 203,-418.5"/>
<text text-anchor="middle" x="257.5" y="-425.5" font-family="Helvetica,sans-Serif" font-size="10.00">writeAxisAppToFile</text>
</a>
</g>
</g>
<!-- Node2&#45;&gt;Node8 -->
<g id="edge7" class="edge">
<title>Node2&#45;&gt;Node8</title>
<path fill="none" stroke="midnightblue" d="M152.58,-399.59C170.52,-404.49 192.56,-410.52 211.72,-415.76"/>
<polygon fill="midnightblue" stroke="midnightblue" points="210.87,-419.15 221.44,-418.41 212.71,-412.4 210.87,-419.15"/>
</g>
<!-- Node10 -->
<g id="node10" class="node">
<title>Node10</title>
<g id="a_node10"><a xlink:href="group__NTS__SIM.html#ga3fa45716710c0aeab2d9c48492828087" target="_top" xlink:title="Dump an Axis raw data chunk to a file.">
<polygon fill="none" stroke="black" points="202,-342.5 202,-361.5 313,-361.5 313,-342.5 202,-342.5"/>
<text text-anchor="middle" x="257.5" y="-349.5" font-family="Helvetica,sans-Serif" font-size="10.00">writeAxisRawToFile</text>
</a>
</g>
</g>
<!-- Node2&#45;&gt;Node10 -->
<g id="edge12" class="edge">
<title>Node2&#45;&gt;Node10</title>
<path fill="none" stroke="midnightblue" d="M152.58,-380.41C170.52,-375.51 192.56,-369.48 211.72,-364.24"/>
<polygon fill="midnightblue" stroke="midnightblue" points="212.71,-367.6 221.44,-361.59 210.87,-360.85 212.71,-367.6"/>
</g>
<!-- Node5 -->
<g id="node5" class="node">
<title>Node5</title>
<g id="a_node5"><a xlink:href="classAxisRaw.html#a7034bcf8cf143fb2bb9bfc46e70a7d6b" target="_top" xlink:title=" ">
<polygon fill="none" stroke="black" points="362.5,-380.5 362.5,-399.5 487.5,-399.5 487.5,-380.5 362.5,-380.5"/>
<text text-anchor="middle" x="425" y="-387.5" font-family="Helvetica,sans-Serif" font-size="10.00">AxisRaw::getLE_TData</text>
</a>
</g>
</g>
<!-- Node4&#45;&gt;Node5 -->
<g id="edge4" class="edge">
<title>Node4&#45;&gt;Node5</title>
<path fill="none" stroke="midnightblue" d="M298.14,-390C314.36,-390 333.64,-390 352.18,-390"/>
<polygon fill="midnightblue" stroke="midnightblue" points="352.38,-393.5 362.38,-390 352.38,-386.5 352.38,-393.5"/>
</g>
<!-- Node6 -->
<g id="node6" class="node">
<title>Node6</title>
<g id="a_node6"><a xlink:href="classAxisRaw.html#a4becd0ad3c51e3db2749e888f2f72e31" target="_top" xlink:title=" ">
<polygon fill="none" stroke="black" points="362,-418.5 362,-437.5 488,-437.5 488,-418.5 362,-418.5"/>
<text text-anchor="middle" x="425" y="-425.5" font-family="Helvetica,sans-Serif" font-size="10.00">AxisRaw::getLE_TKeep</text>
</a>
</g>
</g>
<!-- Node4&#45;&gt;Node6 -->
<g id="edge5" class="edge">
<title>Node4&#45;&gt;Node6</title>
<path fill="none" stroke="midnightblue" d="M298.14,-399.1C320.4,-404.21 348.43,-410.65 372.38,-416.15"/>
<polygon fill="midnightblue" stroke="midnightblue" points="371.84,-419.62 382.37,-418.44 373.41,-412.79 371.84,-419.62"/>
</g>
<!-- Node7 -->
<g id="node7" class="node">
<title>Node7</title>
<g id="a_node7"><a xlink:href="classAxisRaw.html#af8208752dcbb14911c5fda27d90a0ef4" target="_top" xlink:title=" ">
<polygon fill="none" stroke="black" points="364,-342.5 364,-361.5 486,-361.5 486,-342.5 364,-342.5"/>
<text text-anchor="middle" x="425" y="-349.5" font-family="Helvetica,sans-Serif" font-size="10.00">AxisRaw::getLE_TLast</text>
</a>
</g>
</g>
<!-- Node4&#45;&gt;Node7 -->
<g id="edge6" class="edge">
<title>Node4&#45;&gt;Node7</title>
<path fill="none" stroke="midnightblue" d="M298.14,-380.9C320.4,-375.79 348.43,-369.35 372.38,-363.85"/>
<polygon fill="midnightblue" stroke="midnightblue" points="373.41,-367.21 382.37,-361.56 371.84,-360.38 373.41,-367.21"/>
</g>
<!-- Node8&#45;&gt;Node3 -->
<g id="edge10" class="edge">
<title>Node8&#45;&gt;Node3</title>
<path fill="none" stroke="midnightblue" d="M293.69,-437.54C304.47,-441.24 316.09,-446.04 326,-452 344.6,-463.19 343.16,-474.22 362,-485 365.74,-487.14 369.74,-489.06 373.85,-490.79"/>
<polygon fill="midnightblue" stroke="midnightblue" points="372.96,-494.19 383.55,-494.46 375.44,-487.65 372.96,-494.19"/>
</g>
<!-- Node8&#45;&gt;Node5 -->
<g id="edge8" class="edge">
<title>Node8&#45;&gt;Node5</title>
<path fill="none" stroke="midnightblue" d="M300.26,-418.41C322.2,-413.37 349.28,-407.16 372.51,-401.82"/>
<polygon fill="midnightblue" stroke="midnightblue" points="373.57,-405.17 382.54,-399.52 372.01,-398.35 373.57,-405.17"/>
</g>
<!-- Node8&#45;&gt;Node6 -->
<g id="edge9" class="edge">
<title>Node8&#45;&gt;Node6</title>
<path fill="none" stroke="midnightblue" d="M312.23,-428C324.87,-428 338.54,-428 351.84,-428"/>
<polygon fill="midnightblue" stroke="midnightblue" points="351.91,-431.5 361.91,-428 351.91,-424.5 351.91,-431.5"/>
</g>
<!-- Node9 -->
<g id="node9" class="node">
<title>Node9</title>
<g id="a_node9"><a xlink:href="group__NTS__SIM.html#ga23351fea2192ce82bbb836404a52973b" target="_top" xlink:title="Converts an UINT8 into a string of 2 HEX characters.">
<polygon fill="none" stroke="black" points="374,-456.5 374,-475.5 476,-475.5 476,-456.5 374,-456.5"/>
<text text-anchor="middle" x="425" y="-463.5" font-family="Helvetica,sans-Serif" font-size="10.00">myUint8ToStrHex</text>
</a>
</g>
</g>
<!-- Node8&#45;&gt;Node9 -->
<g id="edge11" class="edge">
<title>Node8&#45;&gt;Node9</title>
<path fill="none" stroke="midnightblue" d="M300.26,-437.59C322.2,-442.63 349.28,-448.84 372.51,-454.18"/>
<polygon fill="midnightblue" stroke="midnightblue" points="372.01,-457.65 382.54,-456.48 373.57,-450.83 372.01,-457.65"/>
</g>
<!-- Node10&#45;&gt;Node5 -->
<g id="edge13" class="edge">
<title>Node10&#45;&gt;Node5</title>
<path fill="none" stroke="midnightblue" d="M300.26,-361.59C322.2,-366.63 349.28,-372.84 372.51,-378.18"/>
<polygon fill="midnightblue" stroke="midnightblue" points="372.01,-381.65 382.54,-380.48 373.57,-374.83 372.01,-381.65"/>
</g>
<!-- Node10&#45;&gt;Node6 -->
<g id="edge14" class="edge">
<title>Node10&#45;&gt;Node6</title>
<path fill="none" stroke="midnightblue" d="M305.26,-361.59C312.48,-364.07 319.64,-367.16 326,-371 345.91,-383.03 342.23,-396.74 362,-409 365.4,-411.11 369.05,-413 372.82,-414.69"/>
<polygon fill="midnightblue" stroke="midnightblue" points="371.76,-418.03 382.35,-418.49 374.36,-411.53 371.76,-418.03"/>
</g>
<!-- Node10&#45;&gt;Node7 -->
<g id="edge15" class="edge">
<title>Node10&#45;&gt;Node7</title>
<path fill="none" stroke="midnightblue" d="M313.15,-352C326.13,-352 340.16,-352 353.72,-352"/>
<polygon fill="midnightblue" stroke="midnightblue" points="353.99,-355.5 363.99,-352 353.99,-348.5 353.99,-355.5"/>
</g>
<!-- Node11 -->
<g id="node11" class="node">
<title>Node11</title>
<g id="a_node11"><a xlink:href="group__UppercaseHLS.html#gae061e0acc4f8984634689d549fdae11b" target="_top" xlink:title="Main process of the Uppercase Application directives.">
<polygon fill="none" stroke="black" points="391.5,-304.5 391.5,-323.5 458.5,-323.5 458.5,-304.5 391.5,-304.5"/>
<text text-anchor="middle" x="425" y="-311.5" font-family="Helvetica,sans-Serif" font-size="10.00">uppercase</text>
</a>
</g>
</g>
<!-- Node10&#45;&gt;Node11 -->
<g id="edge16" class="edge">
<title>Node10&#45;&gt;Node11</title>
<path fill="none" stroke="midnightblue" d="M300.26,-342.41C325.09,-336.71 356.5,-329.5 381.47,-323.77"/>
<polygon fill="midnightblue" stroke="midnightblue" points="382.42,-327.14 391.38,-321.49 380.85,-320.32 382.42,-327.14"/>
</g>
<!-- Node12 -->
<g id="node12" class="node">
<title>Node12</title>
<g id="a_node12"><a xlink:href="group__UppercaseHLS.html#ga033fd36668741325cf3c111416e82131" target="_top" xlink:title="pPortAndDestionation &#45; Setup the port and the destination rank.">
<polygon fill="none" stroke="black" points="524,-342.5 524,-361.5 647,-361.5 647,-342.5 524,-342.5"/>
<text text-anchor="middle" x="585.5" y="-349.5" font-family="Helvetica,sans-Serif" font-size="10.00">pPortAndDestionation</text>
</a>
</g>
</g>
<!-- Node11&#45;&gt;Node12 -->
<g id="edge17" class="edge">
<title>Node11&#45;&gt;Node12</title>
<path fill="none" stroke="midnightblue" d="M458.84,-321.87C480.76,-327.13 509.98,-334.14 534.74,-340.07"/>
<polygon fill="midnightblue" stroke="midnightblue" points="534.14,-343.53 544.68,-342.45 535.77,-336.72 534.14,-343.53"/>
</g>
<!-- Node13 -->
<g id="node13" class="node">
<title>Node13</title>
<g id="a_node13"><a xlink:href="group__UppercaseHLS.html#ga5241239d0335747a6f0ee418cbc7d5a9" target="_top" xlink:title="Receive Path &#45; From SHELL to THIS.">
<polygon fill="none" stroke="black" points="557,-304.5 557,-323.5 614,-323.5 614,-304.5 557,-304.5"/>
<text text-anchor="middle" x="585.5" y="-311.5" font-family="Helvetica,sans-Serif" font-size="10.00">pRXPath</text>
</a>
</g>
</g>
<!-- Node11&#45;&gt;Node13 -->
<g id="edge18" class="edge">
<title>Node11&#45;&gt;Node13</title>
<path fill="none" stroke="midnightblue" d="M458.84,-314C484.46,-314 520.06,-314 546.83,-314"/>
<polygon fill="midnightblue" stroke="midnightblue" points="546.98,-317.5 556.98,-314 546.98,-310.5 546.98,-317.5"/>
</g>
<!-- Node14 -->
<g id="node14" class="node">
<title>Node14</title>
<g id="a_node14"><a xlink:href="group__UppercaseHLS.html#ga6ac5a71b18876a813d752ff488f94c45" target="_top" xlink:title="Transmit Path &#45; From THIS to SHELL.">
<polygon fill="none" stroke="black" points="557.5,-266.5 557.5,-285.5 613.5,-285.5 613.5,-266.5 557.5,-266.5"/>
<text text-anchor="middle" x="585.5" y="-273.5" font-family="Helvetica,sans-Serif" font-size="10.00">pTXPath</text>
</a>
</g>
</g>
<!-- Node11&#45;&gt;Node14 -->
<g id="edge19" class="edge">
<title>Node11&#45;&gt;Node14</title>
<path fill="none" stroke="midnightblue" d="M458.84,-306.13C484.73,-299.92 520.82,-291.27 547.69,-284.83"/>
<polygon fill="midnightblue" stroke="midnightblue" points="548.58,-288.21 557.49,-282.48 546.95,-281.4 548.58,-288.21"/>
</g>
<!-- Node15&#45;&gt;Node3 -->
<g id="edge21" class="edge">
<title>Node15&#45;&gt;Node3</title>
<path fill="none" stroke="midnightblue" d="M121.05,-285.91C133.58,-320.68 175.71,-435.68 189,-447 236.68,-487.61 265.14,-465.22 326,-480 341.92,-483.87 359.28,-488.11 374.92,-491.94"/>
<polygon fill="midnightblue" stroke="midnightblue" points="374.36,-495.41 384.9,-494.39 376.03,-488.61 374.36,-495.41"/>
</g>
<!-- Node15&#45;&gt;Node4 -->
<g id="edge25" class="edge">
<title>Node15&#45;&gt;Node4</title>
<path fill="none" stroke="midnightblue" d="M122.09,-285.74C131.68,-305.05 155.78,-348.27 189,-371 194.54,-374.79 200.82,-377.82 207.26,-380.26"/>
<polygon fill="midnightblue" stroke="midnightblue" points="206.17,-383.58 216.76,-383.41 208.37,-376.94 206.17,-383.58"/>
</g>
<!-- Node15&#45;&gt;Node10 -->
<g id="edge41" class="edge">
<title>Node15&#45;&gt;Node10</title>
<path fill="none" stroke="midnightblue" d="M127.24,-285.92C140.22,-298.59 164.42,-320.4 189,-333 193.49,-335.3 198.29,-337.36 203.19,-339.18"/>
<polygon fill="midnightblue" stroke="midnightblue" points="202.08,-342.5 212.68,-342.42 204.34,-335.88 202.08,-342.5"/>
</g>
<!-- Node16 -->
<g id="node16" class="node">
<title>Node16</title>
<g id="a_node16"><a xlink:href="group__tcp__app__flash.html#ga9b61fd701181a68a0513b1f9aa474cec" target="_top" xlink:title="Increase the simulation time of the testbench.">
<polygon fill="none" stroke="black" points="207,-114.5 207,-133.5 308,-133.5 308,-114.5 207,-114.5"/>
<text text-anchor="middle" x="257.5" y="-121.5" font-family="Helvetica,sans-Serif" font-size="10.00">increaseSimTime</text>
</a>
</g>
</g>
<!-- Node15&#45;&gt;Node16 -->
<g id="edge22" class="edge">
<title>Node15&#45;&gt;Node16</title>
<path fill="none" stroke="midnightblue" d="M119.89,-266.27C126.45,-241.68 147.08,-176.62 189,-143 191.61,-140.91 194.44,-139.04 197.41,-137.38"/>
<polygon fill="midnightblue" stroke="midnightblue" points="199.13,-140.44 206.67,-133 196.13,-134.12 199.13,-140.44"/>
</g>
<!-- Node17 -->
<g id="node17" class="node">
<title>Node17</title>
<g id="a_node17"><a xlink:href="classSimAppData.html#a00824df779bab8d56ab746829b09aca7" target="_top" xlink:title=" ">
<polygon fill="none" stroke="black" points="200.5,-76.5 200.5,-95.5 314.5,-95.5 314.5,-76.5 200.5,-76.5"/>
<text text-anchor="middle" x="257.5" y="-83.5" font-family="Helvetica,sans-Serif" font-size="10.00">SimAppData::length</text>
</a>
</g>
</g>
<!-- Node15&#45;&gt;Node17 -->
<g id="edge23" class="edge">
<title>Node15&#45;&gt;Node17</title>
<path fill="none" stroke="midnightblue" d="M118.64,-266.18C122.55,-236.99 138.16,-150 189,-105 190.78,-103.43 192.68,-101.98 194.67,-100.66"/>
<polygon fill="midnightblue" stroke="midnightblue" points="196.82,-103.47 203.89,-95.58 193.45,-97.33 196.82,-103.47"/>
</g>
<!-- Node18 -->
<g id="node18" class="node">
<title>Node18</title>
<g id="a_node18"><a xlink:href="group__NTS__SIM.html#ga25dcee3dd54a7838781e963a097cb3f6" target="_top" xlink:title="Brakes a string into tokens by using the &#39;delimiter&#39; character.">
<polygon fill="none" stroke="black" points="386,-228.5 386,-247.5 464,-247.5 464,-228.5 386,-228.5"/>
<text text-anchor="middle" x="425" y="-235.5" font-family="Helvetica,sans-Serif" font-size="10.00">myTokenizer</text>
</a>
</g>
</g>
<!-- Node15&#45;&gt;Node18 -->
<g id="edge24" class="edge">
<title>Node15&#45;&gt;Node18</title>
<path fill="none" stroke="midnightblue" d="M148.56,-266.45C161.02,-262.96 175.58,-259.31 189,-257 253.08,-245.99 328.11,-241.33 375.84,-239.37"/>
<polygon fill="midnightblue" stroke="midnightblue" points="376.03,-242.87 385.89,-238.99 375.76,-235.87 376.03,-242.87"/>
</g>
<!-- Node19 -->
<g id="node19" class="node">
<title>Node19</title>
<g id="a_node19"><a xlink:href="classSimAppData.html#a647590722559f29a98b2e50044583d73" target="_top" xlink:title=" ">
<polygon fill="none" stroke="black" points="191.5,-304.5 191.5,-323.5 323.5,-323.5 323.5,-304.5 191.5,-304.5"/>
<text text-anchor="middle" x="257.5" y="-311.5" font-family="Helvetica,sans-Serif" font-size="10.00">SimAppData::pullChunk</text>
</a>
</g>
</g>
<!-- Node15&#45;&gt;Node19 -->
<g id="edge26" class="edge">
<title>Node15&#45;&gt;Node19</title>
<path fill="none" stroke="midnightblue" d="M152.58,-285.59C170.52,-290.49 192.56,-296.52 211.72,-301.76"/>
<polygon fill="midnightblue" stroke="midnightblue" points="210.87,-305.15 221.44,-304.41 212.71,-298.4 210.87,-305.15"/>
</g>
<!-- Node22 -->
<g id="node22" class="node">
<title>Node22</title>
<g id="a_node22"><a xlink:href="classSimAppData.html#a09f76bef9bef2def2a5ce6b28f2820ae" target="_top" xlink:title=" ">
<polygon fill="none" stroke="black" points="189,-266.5 189,-285.5 326,-285.5 326,-266.5 189,-266.5"/>
<text text-anchor="middle" x="257.5" y="-273.5" font-family="Helvetica,sans-Serif" font-size="10.00">SimAppData::pushChunk</text>
</a>
</g>
</g>
<!-- Node15&#45;&gt;Node22 -->
<g id="edge29" class="edge">
<title>Node15&#45;&gt;Node22</title>
<path fill="none" stroke="midnightblue" d="M153.3,-276C161.24,-276 169.97,-276 178.87,-276"/>
<polygon fill="midnightblue" stroke="midnightblue" points="178.97,-279.5 188.97,-276 178.97,-272.5 178.97,-279.5"/>
</g>
<!-- Node23 -->
<g id="node23" class="node">
<title>Node23</title>
<g id="a_node23"><a xlink:href="group__NTS__SIM.html#ga1add155284d4605102a262fdc5a5657b" target="_top" xlink:title="Retrieve an AxisRaw chunk from a string.">
<polygon fill="none" stroke="black" points="195,-190.5 195,-209.5 320,-209.5 320,-190.5 195,-190.5"/>
<text text-anchor="middle" x="257.5" y="-197.5" font-family="Helvetica,sans-Serif" font-size="10.00">readAxisRawFromLine</text>
</a>
</g>
</g>
<!-- Node15&#45;&gt;Node23 -->
<g id="edge31" class="edge">
<title>Node15&#45;&gt;Node23</title>
<path fill="none" stroke="midnightblue" d="M128.47,-266.46C141.96,-255.11 165.92,-236.17 189,-224 196.91,-219.83 205.71,-216.11 214.27,-212.91"/>
<polygon fill="midnightblue" stroke="midnightblue" points="215.52,-216.18 223.77,-209.53 213.17,-209.58 215.52,-216.18"/>
</g>
<!-- Node30 -->
<g id="node30" class="node">
<title>Node30</title>
<g id="a_node30"><a xlink:href="classSimAppData.html#a00a1516228a74cfcbe0b9069cd375be5" target="_top" xlink:title=" ">
<polygon fill="none" stroke="black" points="206,-152.5 206,-171.5 309,-171.5 309,-152.5 206,-152.5"/>
<text text-anchor="middle" x="257.5" y="-159.5" font-family="Helvetica,sans-Serif" font-size="10.00">SimAppData::size</text>
</a>
</g>
</g>
<!-- Node15&#45;&gt;Node30 -->
<g id="edge40" class="edge">
<title>Node15&#45;&gt;Node30</title>
<path fill="none" stroke="midnightblue" d="M122.09,-266.26C131.68,-246.95 155.78,-203.73 189,-181 191.9,-179.02 195.01,-177.24 198.23,-175.64"/>
<polygon fill="midnightblue" stroke="midnightblue" points="199.78,-178.79 207.58,-171.62 197.01,-172.36 199.78,-178.79"/>
</g>
<!-- Node20 -->
<g id="node20" class="node">
<title>Node20</title>
<g id="a_node20"><a xlink:href="classAxisRaw.html#acadbd2b7e00e34417c426fa91c8d7c51" target="_top" xlink:title=" ">
<polygon fill="none" stroke="black" points="376.5,-266.5 376.5,-285.5 473.5,-285.5 473.5,-266.5 376.5,-266.5"/>
<text text-anchor="middle" x="425" y="-273.5" font-family="Helvetica,sans-Serif" font-size="10.00">AxisRaw::getLen</text>
</a>
</g>
</g>
<!-- Node19&#45;&gt;Node20 -->
<g id="edge27" class="edge">
<title>Node19&#45;&gt;Node20</title>
<path fill="none" stroke="midnightblue" d="M300.26,-304.41C322.2,-299.37 349.28,-293.16 372.51,-287.82"/>
<polygon fill="midnightblue" stroke="midnightblue" points="373.57,-291.17 382.54,-285.52 372.01,-284.35 373.57,-291.17"/>
</g>
<!-- Node21 -->
<g id="node21" class="node">
<title>Node21</title>
<g id="a_node21"><a xlink:href="classAxisRaw.html#aec8718820338b67381cce084ba407063" target="_top" xlink:title=" ">
<polygon fill="none" stroke="black" points="528,-114.5 528,-133.5 643,-133.5 643,-114.5 528,-114.5"/>
<text text-anchor="middle" x="585.5" y="-121.5" font-family="Helvetica,sans-Serif" font-size="10.00">AxisRaw::keepToLen</text>
</a>
</g>
</g>
<!-- Node20&#45;&gt;Node21 -->
<g id="edge28" class="edge">
<title>Node20&#45;&gt;Node21</title>
<path fill="none" stroke="midnightblue" d="M470.04,-266.42C476.39,-263.95 482.59,-260.86 488,-257 530.38,-226.73 561.4,-171.98 575.7,-143.07"/>
<polygon fill="midnightblue" stroke="midnightblue" points="579.03,-144.22 580.2,-133.69 572.72,-141.19 579.03,-144.22"/>
</g>
<!-- Node22&#45;&gt;Node20 -->
<g id="edge30" class="edge">
<title>Node22&#45;&gt;Node20</title>
<path fill="none" stroke="midnightblue" d="M326.29,-276C339.54,-276 353.31,-276 366.19,-276"/>
<polygon fill="midnightblue" stroke="midnightblue" points="366.3,-279.5 376.3,-276 366.3,-272.5 366.3,-279.5"/>
</g>
<!-- Node23&#45;&gt;Node18 -->
<g id="edge36" class="edge">
<title>Node23&#45;&gt;Node18</title>
<path fill="none" stroke="midnightblue" d="M300.26,-209.59C323.3,-214.88 352.02,-221.47 375.98,-226.98"/>
<polygon fill="midnightblue" stroke="midnightblue" points="375.4,-230.43 385.93,-229.26 376.97,-223.61 375.4,-230.43"/>
</g>
<!-- Node24 -->
<g id="node24" class="node">
<title>Node24</title>
<g id="a_node24"><a xlink:href="classAxisRaw.html#aeebcaf3646869bf5e2f39154cf14c499" target="_top" xlink:title=" ">
<polygon fill="none" stroke="black" points="377,-0.5 377,-19.5 473,-19.5 473,-0.5 377,-0.5"/>
<text text-anchor="middle" x="425" y="-7.5" font-family="Helvetica,sans-Serif" font-size="10.00">AxisRaw::isValid</text>
</a>
</g>
</g>
<!-- Node23&#45;&gt;Node24 -->
<g id="edge32" class="edge">
<title>Node23&#45;&gt;Node24</title>
<path fill="none" stroke="midnightblue" d="M313.08,-190.44C317.87,-187.96 322.29,-184.87 326,-181 374.05,-130.89 314.53,-79.66 362,-29 363.82,-27.06 365.83,-25.32 367.98,-23.75"/>
<polygon fill="midnightblue" stroke="midnightblue" points="370.02,-26.61 376.88,-18.54 366.48,-20.57 370.02,-26.61"/>
</g>
<!-- Node25 -->
<g id="node25" class="node">
<title>Node25</title>
<g id="a_node25"><a xlink:href="group__NTS__SIM.html#ga66df4e53b356c882279264e247a90d54" target="_top" xlink:title="Converts a string of 16 HEX characters into an UINT64.">
<polygon fill="none" stroke="black" points="371,-190.5 371,-209.5 479,-209.5 479,-190.5 371,-190.5"/>
<text text-anchor="middle" x="425" y="-197.5" font-family="Helvetica,sans-Serif" font-size="10.00">myStrHexToUint64</text>
</a>
</g>
</g>
<!-- Node23&#45;&gt;Node25 -->
<g id="edge34" class="edge">
<title>Node23&#45;&gt;Node25</title>
<path fill="none" stroke="midnightblue" d="M320.13,-200C333.38,-200 347.41,-200 360.73,-200"/>
<polygon fill="midnightblue" stroke="midnightblue" points="360.75,-203.5 370.75,-200 360.75,-196.5 360.75,-203.5"/>
</g>
<!-- Node26 -->
<g id="node26" class="node">
<title>Node26</title>
<g id="a_node26"><a xlink:href="group__NTS__SIM.html#gab66e0aa75993e5a780692b5b34ca44c8" target="_top" xlink:title="Converts a string of 2 HEX characters into an UINT8.">
<polygon fill="none" stroke="black" points="374,-152.5 374,-171.5 476,-171.5 476,-152.5 374,-152.5"/>
<text text-anchor="middle" x="425" y="-159.5" font-family="Helvetica,sans-Serif" font-size="10.00">myStrHexToUint8</text>
</a>
</g>
</g>
<!-- Node23&#45;&gt;Node26 -->
<g id="edge35" class="edge">
<title>Node23&#45;&gt;Node26</title>
<path fill="none" stroke="midnightblue" d="M300.26,-190.41C322.2,-185.37 349.28,-179.16 372.51,-173.82"/>
<polygon fill="midnightblue" stroke="midnightblue" points="373.57,-177.17 382.54,-171.52 372.01,-170.35 373.57,-177.17"/>
</g>
<!-- Node27 -->
<g id="node27" class="node">
<title>Node27</title>
<g id="a_node27"><a xlink:href="classAxisRaw.html#aa3f30a26f59cb6430ffd9196ab30c6d6" target="_top" xlink:title=" ">
<polygon fill="none" stroke="black" points="362.5,-114.5 362.5,-133.5 487.5,-133.5 487.5,-114.5 362.5,-114.5"/>
<text text-anchor="middle" x="425" y="-121.5" font-family="Helvetica,sans-Serif" font-size="10.00">AxisRaw::setLE_TData</text>
</a>
</g>
</g>
<!-- Node23&#45;&gt;Node27 -->
<g id="edge37" class="edge">
<title>Node23&#45;&gt;Node27</title>
<path fill="none" stroke="midnightblue" d="M305.26,-190.41C312.48,-187.93 319.64,-184.84 326,-181 345.91,-168.97 342.23,-155.26 362,-143 365.4,-140.89 369.05,-139 372.82,-137.31"/>
<polygon fill="midnightblue" stroke="midnightblue" points="374.36,-140.47 382.35,-133.51 371.76,-133.97 374.36,-140.47"/>
</g>
<!-- Node28 -->
<g id="node28" class="node">
<title>Node28</title>
<g id="a_node28"><a xlink:href="classAxisRaw.html#ae8f59ce9fd52536106de4db99df4558e" target="_top" xlink:title=" ">
<polygon fill="none" stroke="black" points="362.5,-76.5 362.5,-95.5 487.5,-95.5 487.5,-76.5 362.5,-76.5"/>
<text text-anchor="middle" x="425" y="-83.5" font-family="Helvetica,sans-Serif" font-size="10.00">AxisRaw::setLE_TKeep</text>
</a>
</g>
</g>
<!-- Node23&#45;&gt;Node28 -->
<g id="edge38" class="edge">
<title>Node23&#45;&gt;Node28</title>
<path fill="none" stroke="midnightblue" d="M310.59,-190.37C316.16,-187.92 321.44,-184.85 326,-181 354.55,-156.88 333.73,-129.44 362,-105 363.97,-103.29 366.1,-101.74 368.33,-100.32"/>
<polygon fill="midnightblue" stroke="midnightblue" points="370.19,-103.3 377.39,-95.53 366.91,-97.12 370.19,-103.3"/>
</g>
<!-- Node29 -->
<g id="node29" class="node">
<title>Node29</title>
<g id="a_node29"><a xlink:href="classAxisRaw.html#a7fd855df91177afa363d72b3eb17af25" target="_top" xlink:title=" ">
<polygon fill="none" stroke="black" points="364,-38.5 364,-57.5 486,-57.5 486,-38.5 364,-38.5"/>
<text text-anchor="middle" x="425" y="-45.5" font-family="Helvetica,sans-Serif" font-size="10.00">AxisRaw::setLE_TLast</text>
</a>
</g>
</g>
<!-- Node23&#45;&gt;Node29 -->
<g id="edge39" class="edge">
<title>Node23&#45;&gt;Node29</title>
<path fill="none" stroke="midnightblue" d="M312.13,-190.49C317.22,-188.01 321.98,-184.9 326,-181 364.16,-144.03 324.27,-104.41 362,-67 363.47,-65.54 365.05,-64.2 366.71,-62.96"/>
<polygon fill="midnightblue" stroke="midnightblue" points="368.88,-65.73 375.63,-57.56 365.26,-59.74 368.88,-65.73"/>
</g>
<!-- Node24&#45;&gt;Node21 -->
<g id="edge33" class="edge">
<title>Node24&#45;&gt;Node21</title>
<path fill="none" stroke="midnightblue" d="M467.21,-19.58C474.4,-22.09 481.62,-25.2 488,-29 522.61,-49.63 554.13,-85.22 571.19,-106.49"/>
<polygon fill="midnightblue" stroke="midnightblue" points="568.46,-108.68 577.38,-114.39 573.96,-104.36 568.46,-108.68"/>
</g>
</g>
</svg>
        <g id="navigator" transform="translate(0 0)" fill="#404254">
                <rect fill="#f2f5e9" fill-opacity="0.5" stroke="#606060" stroke-width=".5" x="0" y="0" width="60" height="60"/>
                <use id="zoomplus" xlink:href="#zoomPlus" x="17" y="9" onmousedown="handleZoom(evt,'in')"/>
                <use id="zoomminus" xlink:href="#zoomMin" x="42" y="9" onmousedown="handleZoom(evt,'out')"/>
                <use id="reset" xlink:href="#resetDef" x="30" y="36" onmousedown="handleReset()"/>
                <g id="arrowUp" xlink:href="#dirArrow" transform="translate(30 24)" onmousedown="handlePan(0,-1)">
                  <use xlink:href="#rim" fill="#404040">
                        <set attributeName="fill" to="#808080" begin="arrowUp.mouseover" end="arrowUp.mouseout"/>
                  </use>
                  <path fill="none" stroke="white" stroke-width="1.5" d="M0,-3.0v7 M-2.5,-0.5L0,-3.0L2.5,-0.5"/>
                </g>
                <g id="arrowRight" xlink:href="#dirArrow" transform="rotate(90) translate(36 -43)" onmousedown="handlePan(1,0)">
                  <use xlink:href="#rim" fill="#404040">
                        <set attributeName="fill" to="#808080" begin="arrowRight.mouseover" end="arrowRight.mouseout"/>
                  </use>
                  <path fill="none" stroke="white" stroke-width="1.5" d="M0,-3.0v7 M-2.5,-0.5L0,-3.0L2.5,-0.5"/>
                </g>
                <g id="arrowDown" xlink:href="#dirArrow" transform="rotate(180) translate(-30 -48)" onmousedown="handlePan(0,1)">
                  <use xlink:href="#rim" fill="#404040">
                        <set attributeName="fill" to="#808080" begin="arrowDown.mouseover" end="arrowDown.mouseout"/>
                  </use>
                  <path fill="none" stroke="white" stroke-width="1.5" d="M0,-3.0v7 M-2.5,-0.5L0,-3.0L2.5,-0.5"/>
                </g>
                <g id="arrowLeft" xlink:href="#dirArrow" transform="rotate(270) translate(-36 17)" onmousedown="handlePan(-1,0)">
                  <use xlink:href="#rim" fill="#404040">
                        <set attributeName="fill" to="#808080" begin="arrowLeft.mouseover" end="arrowLeft.mouseout"/>
                  </use>
                  <path fill="none" stroke="white" stroke-width="1.5" d="M0,-3.0v7 M-2.5,-0.5L0,-3.0L2.5,-0.5"/>
                </g>
        </g>
        <svg viewBox="0 0 15 15" width="100%" height="30px" preserveAspectRatio="xMaxYMin meet">
         <g id="arrow_out" transform="scale(0.3 0.3)">
          <a xlink:href="group__tcp__app__flash_gaff2d8688a7c8145511a4564cc92764de_cgraph_org.svg" target="_base">
           <rect id="button" ry="5" rx="5" y="6" x="6" height="38" width="38"
                fill="#f2f5e9" fill-opacity="0.5" stroke="#606060" stroke-width="1.0"/>
           <path id="arrow"
             d="M 11.500037,31.436501 C 11.940474,20.09759 22.043105,11.32322 32.158766,21.979434 L 37.068811,17.246167 C 37.068811,17.246167 37.088388,32 37.088388,32 L 22.160133,31.978069 C 22.160133,31.978069 26.997745,27.140456 26.997745,27.140456 C 18.528582,18.264221 13.291696,25.230495 11.500037,31.436501 z"
             style="fill:#404040;"/>
          </a>
         </g>
        </svg>
</svg>
