<?xml version="1.0" encoding="UTF-8" standalone="no"?>
<!DOCTYPE svg PUBLIC "-//W3C//DTD SVG 1.1//EN"
 "http://www.w3.org/Graphics/SVG/1.1/DTD/svg11.dtd">
<!-- Generated by graphviz version 2.43.0 (0)
 -->
<!-- Title: pTxEngine Pages: 1 -->
<svg width="635pt" height="1725pt"
 viewBox="0.00 0.00 635.00 1724.50" xmlns="http://www.w3.org/2000/svg" xmlns:xlink="http://www.w3.org/1999/xlink">
<g id="graph0" class="graph" transform="scale(1 1) rotate(0) translate(4 1720.5)">
<title>pTxEngine</title>
<!-- Node1 -->
<g id="node1" class="node">
<title>Node1</title>
<g id="a_node1"><a xlink:title=" ">
<polygon fill="#bfbfbf" stroke="black" points="0,-1007.5 0,-1026.5 68,-1026.5 68,-1007.5 0,-1007.5"/>
<text text-anchor="middle" x="34" y="-1014.5" font-family="Helvetica,sans-Serif" font-size="10.00">pTxEngine</text>
</a>
</g>
</g>
<!-- Node2 -->
<g id="node2" class="node">
<title>Node2</title>
<g id="a_node2"><a xlink:href="group__NTS__UOE.html#ga2bfd00650e9f0cc4d8440d60e013f8be" target="_top" xlink:title=" ">
<polygon fill="none" stroke="black" points="131,-532.5 131,-551.5 232,-551.5 232,-532.5 131,-532.5"/>
<text text-anchor="middle" x="181.5" y="-539.5" font-family="Helvetica,sans-Serif" font-size="10.00">pIp4HeaderAdder</text>
</a>
</g>
</g>
<!-- Node1&#45;&gt;Node2 -->
<g id="edge1" class="edge">
<title>Node1&#45;&gt;Node2</title>
<path fill="none" stroke="midnightblue" d="M38.04,-1007.08C56.12,-948.04 149.63,-642.78 174.45,-561.76"/>
<polygon fill="midnightblue" stroke="midnightblue" points="177.9,-562.45 177.48,-551.87 171.2,-560.4 177.9,-562.45"/>
</g>
<!-- Node32 -->
<g id="node30" class="node">
<title>Node32</title>
<g id="a_node30"><a xlink:href="group__NTS__UOE.html#ga4d0245b447990d0689a8a76e6ac88923" target="_top" xlink:title=" ">
<polygon fill="none" stroke="black" points="115,-247.5 115,-266.5 248,-266.5 248,-247.5 115,-247.5"/>
<text text-anchor="middle" x="181.5" y="-254.5" font-family="Helvetica,sans-Serif" font-size="10.00">pTxApplicationInterface</text>
</a>
</g>
</g>
<!-- Node1&#45;&gt;Node32 -->
<g id="edge29" class="edge">
<title>Node1&#45;&gt;Node32</title>
<path fill="none" stroke="midnightblue" d="M35.82,-1007.49C40.29,-957.09 62.96,-716.13 104,-523 123.98,-428.97 159.45,-319.47 174,-276.09"/>
<polygon fill="midnightblue" stroke="midnightblue" points="177.34,-277.13 177.22,-266.54 170.71,-274.89 177.34,-277.13"/>
</g>
<!-- Node35 -->
<g id="node32" class="node">
<title>Node35</title>
<g id="a_node32"><a xlink:href="group__NTS__UOE.html#gac7019e2dca00657e45cc22122fe8c23e" target="_top" xlink:title=" ">
<polygon fill="none" stroke="black" points="120.5,-1007.5 120.5,-1026.5 242.5,-1026.5 242.5,-1007.5 120.5,-1007.5"/>
<text text-anchor="middle" x="181.5" y="-1014.5" font-family="Helvetica,sans-Serif" font-size="10.00">pTxDatagramHandler</text>
</a>
</g>
</g>
<!-- Node1&#45;&gt;Node35 -->
<g id="edge31" class="edge">
<title>Node1&#45;&gt;Node35</title>
<path fill="none" stroke="midnightblue" d="M68.02,-1017C80.62,-1017 95.52,-1017 110.28,-1017"/>
<polygon fill="midnightblue" stroke="midnightblue" points="110.44,-1020.5 120.44,-1017 110.44,-1013.5 110.44,-1020.5"/>
</g>
<!-- Node45 -->
<g id="node42" class="node">
<title>Node45</title>
<g id="a_node42"><a xlink:href="group__NTS__UOE.html#ga049dc0a8894b4489363d6e958fab1332" target="_top" xlink:title=" ">
<polygon fill="none" stroke="black" points="104,-1577.5 104,-1596.5 259,-1596.5 259,-1577.5 104,-1577.5"/>
<text text-anchor="middle" x="181.5" y="-1584.5" font-family="Helvetica,sans-Serif" font-size="10.00">pUdpChecksumAccumulator</text>
</a>
</g>
</g>
<!-- Node1&#45;&gt;Node45 -->
<g id="edge52" class="edge">
<title>Node1&#45;&gt;Node45</title>
<path fill="none" stroke="midnightblue" d="M35.23,-1026.54C36.64,-1074.1 46.1,-1289.95 104,-1454 119.56,-1498.1 149.76,-1544.27 167.2,-1568.92"/>
<polygon fill="midnightblue" stroke="midnightblue" points="164.52,-1571.2 173.2,-1577.27 170.21,-1567.11 164.52,-1571.2"/>
</g>
<!-- Node51 -->
<g id="node48" class="node">
<title>Node51</title>
<g id="a_node48"><a xlink:href="group__NTS__UOE.html#gad1c2336f90888c5efb87c411af0eb26c" target="_top" xlink:title=" ">
<polygon fill="none" stroke="red" points="128.5,-1425.5 128.5,-1444.5 234.5,-1444.5 234.5,-1425.5 128.5,-1425.5"/>
<text text-anchor="middle" x="181.5" y="-1432.5" font-family="Helvetica,sans-Serif" font-size="10.00">pUdpHeaderAdder</text>
</a>
</g>
</g>
<!-- Node1&#45;&gt;Node51 -->
<g id="edge61" class="edge">
<title>Node1&#45;&gt;Node51</title>
<path fill="none" stroke="midnightblue" d="M38.31,-1026.52C56.86,-1079.8 147.93,-1341.43 173.7,-1415.45"/>
<polygon fill="midnightblue" stroke="midnightblue" points="170.54,-1417.02 177.13,-1425.32 177.15,-1414.72 170.54,-1417.02"/>
</g>
<!-- Node3 -->
<g id="node3" class="node">
<title>Node3</title>
<g id="a_node3"><a xlink:href="classAxisRaw.html#ad9de3735705f840155f6df0226230b01" target="_top" xlink:title=" ">
<polygon fill="none" stroke="red" points="307.5,-798.5 307.5,-817.5 426.5,-817.5 426.5,-798.5 307.5,-798.5"/>
<text text-anchor="middle" x="367" y="-805.5" font-family="Helvetica,sans-Serif" font-size="10.00">AxisRaw::getTDataHi</text>
</a>
</g>
</g>
<!-- Node2&#45;&gt;Node3 -->
<g id="edge2" class="edge">
<title>Node2&#45;&gt;Node3</title>
<path fill="none" stroke="midnightblue" d="M183.89,-551.56C189.78,-588.36 216.06,-722.18 295,-789 297,-790.7 299.14,-792.24 301.38,-793.65"/>
<polygon fill="midnightblue" stroke="midnightblue" points="299.98,-796.86 310.45,-798.43 303.24,-790.67 299.98,-796.86"/>
</g>
<!-- Node5 -->
<g id="node4" class="node">
<title>Node5</title>
<g id="a_node4"><a xlink:href="classAxisRaw.html#a48f8284ad60d96e2d2764ef2eefc4a64" target="_top" xlink:title=" ">
<polygon fill="none" stroke="red" points="307,-760.5 307,-779.5 427,-779.5 427,-760.5 307,-760.5"/>
<text text-anchor="middle" x="367" y="-767.5" font-family="Helvetica,sans-Serif" font-size="10.00">AxisRaw::getTDataLo</text>
</a>
</g>
</g>
<!-- Node2&#45;&gt;Node5 -->
<g id="edge3" class="edge">
<title>Node2&#45;&gt;Node5</title>
<path fill="none" stroke="midnightblue" d="M184.77,-551.67C193.09,-584.95 225.19,-695.78 295,-751 297.3,-752.82 299.76,-754.46 302.33,-755.95"/>
<polygon fill="midnightblue" stroke="midnightblue" points="300.91,-759.15 311.43,-760.43 304,-752.87 300.91,-759.15"/>
</g>
<!-- Node6 -->
<g id="node5" class="node">
<title>Node6</title>
<g id="a_node5"><a xlink:href="classAxisRaw.html#a58b8357553e87b35d4841c9f0bcdb08d" target="_top" xlink:title=" ">
<polygon fill="none" stroke="red" points="307,-722.5 307,-741.5 427,-741.5 427,-722.5 307,-722.5"/>
<text text-anchor="middle" x="367" y="-729.5" font-family="Helvetica,sans-Serif" font-size="10.00">AxisRaw::getTKeepHi</text>
</a>
</g>
</g>
<!-- Node2&#45;&gt;Node6 -->
<g id="edge4" class="edge">
<title>Node2&#45;&gt;Node6</title>
<path fill="none" stroke="midnightblue" d="M185.91,-551.51C196.85,-580.57 233.91,-668.91 295,-713 297.69,-714.94 300.57,-716.68 303.56,-718.25"/>
<polygon fill="midnightblue" stroke="midnightblue" points="302.29,-721.52 312.85,-722.43 305.17,-715.13 302.29,-721.52"/>
</g>
<!-- Node8 -->
<g id="node6" class="node">
<title>Node8</title>
<g id="a_node6"><a xlink:href="classAxisRaw.html#af7dcf20294a3d8853042af971f19c4a6" target="_top" xlink:title=" ">
<polygon fill="none" stroke="red" points="306.5,-684.5 306.5,-703.5 427.5,-703.5 427.5,-684.5 306.5,-684.5"/>
<text text-anchor="middle" x="367" y="-691.5" font-family="Helvetica,sans-Serif" font-size="10.00">AxisRaw::getTKeepLo</text>
</a>
</g>
</g>
<!-- Node2&#45;&gt;Node8 -->
<g id="edge5" class="edge">
<title>Node2&#45;&gt;Node8</title>
<path fill="none" stroke="midnightblue" d="M187.88,-551.78C202,-576.49 242.64,-641.8 295,-675 298.36,-677.13 301.95,-679.02 305.67,-680.71"/>
<polygon fill="midnightblue" stroke="midnightblue" points="304.54,-684.02 315.13,-684.47 307.13,-677.52 304.54,-684.02"/>
</g>
<!-- Node9 -->
<g id="node7" class="node">
<title>Node9</title>
<g id="a_node7"><a xlink:href="classAxisRaw.html#a42cd520c9b19f7c2fc6d2fc204cb30b7" target="_top" xlink:title=" ">
<polygon fill="none" stroke="black" points="314,-1368.5 314,-1387.5 420,-1387.5 420,-1368.5 314,-1368.5"/>
<text text-anchor="middle" x="367" y="-1375.5" font-family="Helvetica,sans-Serif" font-size="10.00">AxisRaw::getTLast</text>
</a>
</g>
</g>
<!-- Node2&#45;&gt;Node9 -->
<g id="edge6" class="edge">
<title>Node2&#45;&gt;Node9</title>
<path fill="none" stroke="midnightblue" d="M184.35,-551.59C193.57,-599.5 234.92,-817.78 259,-998 269.68,-1077.91 242.79,-1297.57 295,-1359 297.84,-1362.34 301.19,-1365.12 304.86,-1367.44"/>
<polygon fill="midnightblue" stroke="midnightblue" points="303.44,-1370.64 313.95,-1372.05 306.61,-1364.4 303.44,-1370.64"/>
</g>
<!-- Node10 -->
<g id="node8" class="node">
<title>Node10</title>
<g id="a_node8"><a xlink:href="classAxisUdp.html#a461be53e623846a93250a75085499289" target="_top" xlink:title=" ">
<polygon fill="none" stroke="black" points="300,-152.5 300,-171.5 434,-171.5 434,-152.5 300,-152.5"/>
<text text-anchor="middle" x="367" y="-159.5" font-family="Helvetica,sans-Serif" font-size="10.00">AxisUdp::getUdpDstPort</text>
</a>
</g>
</g>
<!-- Node2&#45;&gt;Node10 -->
<g id="edge7" class="edge">
<title>Node2&#45;&gt;Node10</title>
<path fill="none" stroke="midnightblue" d="M185.22,-532.36C201.08,-476.27 281.36,-194.1 295,-181 296.65,-179.42 298.41,-177.97 300.26,-176.63"/>
<polygon fill="midnightblue" stroke="midnightblue" points="302.09,-179.62 308.9,-171.51 298.52,-173.6 302.09,-179.62"/>
</g>
<!-- Node11 -->
<g id="node9" class="node">
<title>Node11</title>
<g id="a_node9"><a xlink:href="classAxisUdp.html#a7232c7d04b1c7c53dd05600085aeee0c" target="_top" xlink:title=" ">
<polygon fill="none" stroke="black" points="300.5,-114.5 300.5,-133.5 433.5,-133.5 433.5,-114.5 300.5,-114.5"/>
<text text-anchor="middle" x="367" y="-121.5" font-family="Helvetica,sans-Serif" font-size="10.00">AxisUdp::getUdpSrcPort</text>
</a>
</g>
</g>
<!-- Node2&#45;&gt;Node11 -->
<g id="edge8" class="edge">
<title>Node2&#45;&gt;Node11</title>
<path fill="none" stroke="midnightblue" d="M185.33,-532.35C195.49,-497.73 230.97,-376.43 259,-276 275.46,-217.02 251.64,-186.24 295,-143 296.46,-141.55 298.01,-140.2 299.65,-138.96"/>
<polygon fill="midnightblue" stroke="midnightblue" points="301.75,-141.77 308.41,-133.53 298.06,-135.82 301.75,-141.77"/>
</g>
<!-- Node12 -->
<g id="node10" class="node">
<title>Node12</title>
<g id="a_node10"><a xlink:href="classAxisIp4.html#a7c1ca3829d3728d6e4f90589457f90e6" target="_top" xlink:title=" ">
<polygon fill="none" stroke="black" points="303,-76.5 303,-95.5 431,-95.5 431,-76.5 303,-76.5"/>
<text text-anchor="middle" x="367" y="-83.5" font-family="Helvetica,sans-Serif" font-size="10.00">AxisIp4::setIp4DstAddr</text>
</a>
</g>
</g>
<!-- Node2&#45;&gt;Node12 -->
<g id="edge9" class="edge">
<title>Node2&#45;&gt;Node12</title>
<path fill="none" stroke="midnightblue" d="M185.53,-532.41C196.36,-497.96 233.83,-377.19 259,-276 277.75,-200.63 241.58,-161.38 295,-105 296.24,-103.69 297.55,-102.48 298.94,-101.34"/>
<polygon fill="midnightblue" stroke="midnightblue" points="301.1,-104.1 307.49,-95.66 297.23,-98.27 301.1,-104.1"/>
</g>
<!-- Node13 -->
<g id="node11" class="node">
<title>Node13</title>
<g id="a_node11"><a xlink:href="classAxisIp4.html#ab248dc64f59f17c71fbdcb816fdd258c" target="_top" xlink:title=" ">
<polygon fill="none" stroke="black" points="309.5,-38.5 309.5,-57.5 424.5,-57.5 424.5,-38.5 309.5,-38.5"/>
<text text-anchor="middle" x="367" y="-45.5" font-family="Helvetica,sans-Serif" font-size="10.00">AxisIp4::setIp4Flags</text>
</a>
</g>
</g>
<!-- Node2&#45;&gt;Node13 -->
<g id="edge10" class="edge">
<title>Node2&#45;&gt;Node13</title>
<path fill="none" stroke="midnightblue" d="M185.66,-532.44C196.94,-498.09 235.7,-377.64 259,-276 280.06,-184.13 231.45,-136.61 295,-67 296.77,-65.06 298.71,-63.31 300.79,-61.74"/>
<polygon fill="midnightblue" stroke="midnightblue" points="302.7,-64.67 309.39,-56.46 299.03,-58.71 302.7,-64.67"/>
</g>
<!-- Node14 -->
<g id="node12" class="node">
<title>Node14</title>
<g id="a_node12"><a xlink:href="classAxisIp4.html#a34644f50cf5297bf1334151b3568a77a" target="_top" xlink:title=" ">
<polygon fill="none" stroke="black" points="305,-608.5 305,-627.5 429,-627.5 429,-608.5 305,-608.5"/>
<text text-anchor="middle" x="367" y="-615.5" font-family="Helvetica,sans-Serif" font-size="10.00">AxisIp4::setIp4FragOff</text>
</a>
</g>
</g>
<!-- Node2&#45;&gt;Node14 -->
<g id="edge11" class="edge">
<title>Node2&#45;&gt;Node14</title>
<path fill="none" stroke="midnightblue" d="M198.78,-551.61C220.23,-563.95 259.42,-585.39 295,-599 301.33,-601.42 308.08,-603.65 314.82,-605.67"/>
<polygon fill="midnightblue" stroke="midnightblue" points="314.04,-609.09 324.61,-608.47 315.96,-602.36 314.04,-609.09"/>
</g>
<!-- Node15 -->
<g id="node13" class="node">
<title>Node15</title>
<g id="a_node13"><a xlink:href="classAxisIp4.html#a668f18a27c497e9e4861cff478b4cc0e" target="_top" xlink:title=" ">
<polygon fill="none" stroke="black" points="300,-570.5 300,-589.5 434,-589.5 434,-570.5 300,-570.5"/>
<text text-anchor="middle" x="367" y="-577.5" font-family="Helvetica,sans-Serif" font-size="10.00">AxisIp4::setIp4HdrCsum</text>
</a>
</g>
</g>
<!-- Node2&#45;&gt;Node15 -->
<g id="edge12" class="edge">
<title>Node2&#45;&gt;Node15</title>
<path fill="none" stroke="midnightblue" d="M228.8,-551.59C253.46,-556.69 283.96,-563.01 309.94,-568.39"/>
<polygon fill="midnightblue" stroke="midnightblue" points="309.53,-571.88 320.03,-570.48 310.95,-565.02 309.53,-571.88"/>
</g>
<!-- Node16 -->
<g id="node14" class="node">
<title>Node16</title>
<g id="a_node14"><a xlink:href="classAxisIp4.html#a3dcbc94aead2a9afd8b66bd373c5d93a" target="_top" xlink:title=" ">
<polygon fill="none" stroke="black" points="305.5,-532.5 305.5,-551.5 428.5,-551.5 428.5,-532.5 305.5,-532.5"/>
<text text-anchor="middle" x="367" y="-539.5" font-family="Helvetica,sans-Serif" font-size="10.00">AxisIp4::setIp4HdrLen</text>
</a>
</g>
</g>
<!-- Node2&#45;&gt;Node16 -->
<g id="edge13" class="edge">
<title>Node2&#45;&gt;Node16</title>
<path fill="none" stroke="midnightblue" d="M232.16,-542C251.5,-542 274.02,-542 295.01,-542"/>
<polygon fill="midnightblue" stroke="midnightblue" points="295.17,-545.5 305.17,-542 295.17,-538.5 295.17,-545.5"/>
</g>
<!-- Node17 -->
<g id="node15" class="node">
<title>Node17</title>
<g id="a_node15"><a xlink:href="classAxisIp4.html#ac9d3f62ac937ed20a58893078eadce50" target="_top" xlink:title=" ">
<polygon fill="none" stroke="black" points="310.5,-494.5 310.5,-513.5 423.5,-513.5 423.5,-494.5 310.5,-494.5"/>
<text text-anchor="middle" x="367" y="-501.5" font-family="Helvetica,sans-Serif" font-size="10.00">AxisIp4::setIp4Ident</text>
</a>
</g>
</g>
<!-- Node2&#45;&gt;Node17 -->
<g id="edge14" class="edge">
<title>Node2&#45;&gt;Node17</title>
<path fill="none" stroke="midnightblue" d="M228.8,-532.41C253.46,-527.31 283.96,-520.99 309.94,-515.61"/>
<polygon fill="midnightblue" stroke="midnightblue" points="310.95,-518.98 320.03,-513.52 309.53,-512.12 310.95,-518.98"/>
</g>
<!-- Node18 -->
<g id="node16" class="node">
<title>Node18</title>
<g id="a_node16"><a xlink:href="classAxisIp4.html#a37cbd671be65cbaec4687cc42a9509d9" target="_top" xlink:title=" ">
<polygon fill="none" stroke="black" points="313,-456.5 313,-475.5 421,-475.5 421,-456.5 313,-456.5"/>
<text text-anchor="middle" x="367" y="-463.5" font-family="Helvetica,sans-Serif" font-size="10.00">AxisIp4::setIp4Prot</text>
</a>
</g>
</g>
<!-- Node2&#45;&gt;Node18 -->
<g id="edge15" class="edge">
<title>Node2&#45;&gt;Node18</title>
<path fill="none" stroke="midnightblue" d="M198.78,-532.39C220.23,-520.05 259.42,-498.61 295,-485 301.33,-482.58 308.08,-480.35 314.82,-478.33"/>
<polygon fill="midnightblue" stroke="midnightblue" points="315.96,-481.64 324.61,-475.53 314.04,-474.91 315.96,-481.64"/>
</g>
<!-- Node19 -->
<g id="node17" class="node">
<title>Node19</title>
<g id="a_node17"><a xlink:href="classAxisIp4.html#ae86e3b6249f8ec6a985e5947e52d4634" target="_top" xlink:title=" ">
<polygon fill="none" stroke="black" points="304,-418.5 304,-437.5 430,-437.5 430,-418.5 304,-418.5"/>
<text text-anchor="middle" x="367" y="-425.5" font-family="Helvetica,sans-Serif" font-size="10.00">AxisIp4::setIp4SrcAddr</text>
</a>
</g>
</g>
<!-- Node2&#45;&gt;Node19 -->
<g id="edge16" class="edge">
<title>Node2&#45;&gt;Node19</title>
<path fill="none" stroke="midnightblue" d="M191.09,-532.32C208.67,-513.12 250.82,-470.08 295,-447 299.48,-444.66 304.27,-442.59 309.18,-440.76"/>
<polygon fill="midnightblue" stroke="midnightblue" points="310.34,-444.06 318.68,-437.53 308.09,-437.43 310.34,-444.06"/>
</g>
<!-- Node20 -->
<g id="node18" class="node">
<title>Node20</title>
<g id="a_node18"><a xlink:href="classAxisIp4.html#ae4765ba482d5082db2865d8f6743ac8b" target="_top" xlink:title=" ">
<polygon fill="none" stroke="black" points="314.5,-380.5 314.5,-399.5 419.5,-399.5 419.5,-380.5 314.5,-380.5"/>
<text text-anchor="middle" x="367" y="-387.5" font-family="Helvetica,sans-Serif" font-size="10.00">AxisIp4::setIp4ToS</text>
</a>
</g>
</g>
<!-- Node2&#45;&gt;Node20 -->
<g id="edge17" class="edge">
<title>Node2&#45;&gt;Node20</title>
<path fill="none" stroke="midnightblue" d="M187.88,-532.22C202,-507.51 242.64,-442.2 295,-409 298.36,-406.87 301.95,-404.98 305.67,-403.29"/>
<polygon fill="midnightblue" stroke="midnightblue" points="307.13,-406.48 315.13,-399.53 304.54,-399.98 307.13,-406.48"/>
</g>
<!-- Node21 -->
<g id="node19" class="node">
<title>Node21</title>
<g id="a_node19"><a xlink:href="classAxisIp4.html#a88aa6b72c8593baed8f6c4837d7b394f" target="_top" xlink:title=" ">
<polygon fill="none" stroke="black" points="302.5,-342.5 302.5,-361.5 431.5,-361.5 431.5,-342.5 302.5,-342.5"/>
<text text-anchor="middle" x="367" y="-349.5" font-family="Helvetica,sans-Serif" font-size="10.00">AxisIp4::setIp4TotalLen</text>
</a>
</g>
</g>
<!-- Node2&#45;&gt;Node21 -->
<g id="edge18" class="edge">
<title>Node2&#45;&gt;Node21</title>
<path fill="none" stroke="midnightblue" d="M185.91,-532.49C196.85,-503.43 233.91,-415.09 295,-371 297.69,-369.06 300.57,-367.32 303.56,-365.75"/>
<polygon fill="midnightblue" stroke="midnightblue" points="305.17,-368.87 312.85,-361.57 302.29,-362.48 305.17,-368.87"/>
</g>
<!-- Node22 -->
<g id="node20" class="node">
<title>Node22</title>
<g id="a_node20"><a xlink:href="classAxisIp4.html#aed63bc9cb891bece3348ee85d721655c" target="_top" xlink:title=" ">
<polygon fill="none" stroke="black" points="315,-304.5 315,-323.5 419,-323.5 419,-304.5 315,-304.5"/>
<text text-anchor="middle" x="367" y="-311.5" font-family="Helvetica,sans-Serif" font-size="10.00">AxisIp4::setIp4TtL</text>
</a>
</g>
</g>
<!-- Node2&#45;&gt;Node22 -->
<g id="edge19" class="edge">
<title>Node2&#45;&gt;Node22</title>
<path fill="none" stroke="midnightblue" d="M184.77,-532.33C193.09,-499.05 225.19,-388.22 295,-333 298.17,-330.49 301.65,-328.31 305.31,-326.42"/>
<polygon fill="midnightblue" stroke="midnightblue" points="306.96,-329.51 314.7,-322.28 304.14,-323.11 306.96,-329.51"/>
</g>
<!-- Node23 -->
<g id="node21" class="node">
<title>Node23</title>
<g id="a_node21"><a xlink:href="classAxisIp4.html#abfc2dd4c1274feae1080243a21717cf4" target="_top" xlink:title=" ">
<polygon fill="none" stroke="black" points="304.5,-266.5 304.5,-285.5 429.5,-285.5 429.5,-266.5 304.5,-266.5"/>
<text text-anchor="middle" x="367" y="-273.5" font-family="Helvetica,sans-Serif" font-size="10.00">AxisIp4::setIp4Version</text>
</a>
</g>
</g>
<!-- Node2&#45;&gt;Node23 -->
<g id="edge20" class="edge">
<title>Node2&#45;&gt;Node23</title>
<path fill="none" stroke="midnightblue" d="M183.89,-532.44C189.78,-495.64 216.06,-361.82 295,-295 297,-293.3 299.14,-291.76 301.38,-290.35"/>
<polygon fill="midnightblue" stroke="midnightblue" points="303.24,-293.33 310.45,-285.57 299.98,-287.14 303.24,-293.33"/>
</g>
<!-- Node24 -->
<g id="node22" class="node">
<title>Node24</title>
<g id="a_node22"><a xlink:href="classAxisRaw.html#a1a7e2a69edc7b522df061409e3f79441" target="_top" xlink:title=" ">
<polygon fill="none" stroke="black" points="307.5,-646.5 307.5,-665.5 426.5,-665.5 426.5,-646.5 307.5,-646.5"/>
<text text-anchor="middle" x="367" y="-653.5" font-family="Helvetica,sans-Serif" font-size="10.00">AxisRaw::setTDataHi</text>
</a>
</g>
</g>
<!-- Node2&#45;&gt;Node24 -->
<g id="edge21" class="edge">
<title>Node2&#45;&gt;Node24</title>
<path fill="none" stroke="midnightblue" d="M191.09,-551.68C208.67,-570.88 250.82,-613.92 295,-637 299.48,-639.34 304.27,-641.41 309.18,-643.24"/>
<polygon fill="midnightblue" stroke="midnightblue" points="308.09,-646.57 318.68,-646.47 310.34,-639.94 308.09,-646.57"/>
</g>
<!-- Node25 -->
<g id="node23" class="node">
<title>Node25</title>
<g id="a_node23"><a xlink:href="classAxisRaw.html#a1af3fe5faeab03875a0e654190f598de" target="_top" xlink:title=" ">
<polygon fill="none" stroke="black" points="307.5,-912.5 307.5,-931.5 426.5,-931.5 426.5,-912.5 307.5,-912.5"/>
<text text-anchor="middle" x="367" y="-919.5" font-family="Helvetica,sans-Serif" font-size="10.00">AxisRaw::setTDataLo</text>
</a>
</g>
</g>
<!-- Node2&#45;&gt;Node25 -->
<g id="edge22" class="edge">
<title>Node2&#45;&gt;Node25</title>
<path fill="none" stroke="midnightblue" d="M182.36,-551.79C182.27,-598.46 188.22,-800.47 295,-903 296.65,-904.58 298.41,-906.03 300.26,-907.37"/>
<polygon fill="midnightblue" stroke="midnightblue" points="298.52,-910.4 308.9,-912.49 302.09,-904.38 298.52,-910.4"/>
</g>
<!-- Node26 -->
<g id="node24" class="node">
<title>Node26</title>
<g id="a_node24"><a xlink:href="classAxisRaw.html#a9d6431f0204bddaa17277cea807dc804" target="_top" xlink:title=" ">
<polygon fill="none" stroke="black" points="307.5,-874.5 307.5,-893.5 426.5,-893.5 426.5,-874.5 307.5,-874.5"/>
<text text-anchor="middle" x="367" y="-881.5" font-family="Helvetica,sans-Serif" font-size="10.00">AxisRaw::setTKeepHi</text>
</a>
</g>
</g>
<!-- Node2&#45;&gt;Node26 -->
<g id="edge23" class="edge">
<title>Node2&#45;&gt;Node26</title>
<path fill="none" stroke="midnightblue" d="M182.77,-551.64C184.5,-595.07 197.55,-774.47 295,-865 296.67,-866.55 298.46,-867.98 300.33,-869.29"/>
<polygon fill="midnightblue" stroke="midnightblue" points="298.63,-872.36 309.03,-874.35 302.15,-866.3 298.63,-872.36"/>
</g>
<!-- Node27 -->
<g id="node25" class="node">
<title>Node27</title>
<g id="a_node25"><a xlink:href="classAxisRaw.html#a4cbc05f7d44b163c8a2f09881b3764df" target="_top" xlink:title=" ">
<polygon fill="none" stroke="black" points="307,-836.5 307,-855.5 427,-855.5 427,-836.5 307,-836.5"/>
<text text-anchor="middle" x="367" y="-843.5" font-family="Helvetica,sans-Serif" font-size="10.00">AxisRaw::setTKeepLo</text>
</a>
</g>
</g>
<!-- Node2&#45;&gt;Node27 -->
<g id="edge24" class="edge">
<title>Node2&#45;&gt;Node27</title>
<path fill="none" stroke="midnightblue" d="M183.26,-551.59C186.99,-591.8 206.86,-748.41 295,-827 296.74,-828.55 298.6,-829.98 300.54,-831.29"/>
<polygon fill="midnightblue" stroke="midnightblue" points="299.11,-834.5 309.54,-836.34 302.53,-828.4 299.11,-834.5"/>
</g>
<!-- Node28 -->
<g id="node26" class="node">
<title>Node28</title>
<g id="a_node26"><a xlink:href="classAxisRaw.html#a1238c47d46a7d858c542f55797dfc9f2" target="_top" xlink:title=" ">
<polygon fill="none" stroke="black" points="314.5,-1216.5 314.5,-1235.5 419.5,-1235.5 419.5,-1216.5 314.5,-1216.5"/>
<text text-anchor="middle" x="367" y="-1223.5" font-family="Helvetica,sans-Serif" font-size="10.00">AxisRaw::setTLast</text>
</a>
</g>
</g>
<!-- Node2&#45;&gt;Node28 -->
<g id="edge25" class="edge">
<title>Node2&#45;&gt;Node28</title>
<path fill="none" stroke="midnightblue" d="M184.11,-551.63C197.76,-633.21 293.54,-1205.39 295,-1207 297.95,-1210.24 301.38,-1212.95 305.11,-1215.22"/>
<polygon fill="midnightblue" stroke="midnightblue" points="303.78,-1218.46 314.29,-1219.74 306.87,-1212.18 303.78,-1218.46"/>
</g>
<!-- Node30 -->
<g id="node28" class="node">
<title>Node30</title>
<g id="a_node28"><a xlink:href="classAxisIp4.html#afb8114a3d4a264fa8b36cc1b4b049e5d" target="_top" xlink:title=" ">
<polygon fill="none" stroke="black" points="302.5,-228.5 302.5,-247.5 431.5,-247.5 431.5,-228.5 302.5,-228.5"/>
<text text-anchor="middle" x="367" y="-235.5" font-family="Helvetica,sans-Serif" font-size="10.00">AxisIp4::setUdpDstPort</text>
</a>
</g>
</g>
<!-- Node2&#45;&gt;Node30 -->
<g id="edge27" class="edge">
<title>Node2&#45;&gt;Node30</title>
<path fill="none" stroke="midnightblue" d="M183.26,-532.41C186.99,-492.2 206.86,-335.59 295,-257 296.74,-255.45 298.6,-254.02 300.54,-252.71"/>
<polygon fill="midnightblue" stroke="midnightblue" points="302.53,-255.6 309.54,-247.66 299.11,-249.5 302.53,-255.6"/>
</g>
<!-- Node31 -->
<g id="node29" class="node">
<title>Node31</title>
<g id="a_node29"><a xlink:href="classAxisIp4.html#a762fedab81eebfa37d4fcc8590154d09" target="_top" xlink:title=" ">
<polygon fill="none" stroke="black" points="303,-190.5 303,-209.5 431,-209.5 431,-190.5 303,-190.5"/>
<text text-anchor="middle" x="367" y="-197.5" font-family="Helvetica,sans-Serif" font-size="10.00">AxisIp4::setUdpSrcPort</text>
</a>
</g>
</g>
<!-- Node2&#45;&gt;Node31 -->
<g id="edge28" class="edge">
<title>Node2&#45;&gt;Node31</title>
<path fill="none" stroke="midnightblue" d="M184.6,-532.27C195.36,-483.36 245.62,-264.87 295,-219 296.67,-217.45 298.46,-216.02 300.33,-214.71"/>
<polygon fill="midnightblue" stroke="midnightblue" points="302.15,-217.7 309.03,-209.65 298.63,-211.64 302.15,-217.7"/>
</g>
<!-- Node29 -->
<g id="node27" class="node">
<title>Node29</title>
<g id="a_node27"><a xlink:href="classAxisRaw.html#a4e8ed9ad2072a6563870f9344c362a4e" target="_top" xlink:title=" ">
<polygon fill="none" stroke="black" points="475,-1216.5 475,-1235.5 627,-1235.5 627,-1216.5 475,-1216.5"/>
<text text-anchor="middle" x="551" y="-1223.5" font-family="Helvetica,sans-Serif" font-size="10.00">AxisRaw::clearUnusedBytes</text>
</a>
</g>
</g>
<!-- Node28&#45;&gt;Node29 -->
<g id="edge26" class="edge">
<title>Node28&#45;&gt;Node29</title>
<path fill="none" stroke="midnightblue" d="M419.67,-1226C433.72,-1226 449.32,-1226 464.7,-1226"/>
<polygon fill="midnightblue" stroke="midnightblue" points="464.76,-1229.5 474.76,-1226 464.76,-1222.5 464.76,-1229.5"/>
</g>
<!-- Node33 -->
<g id="node31" class="node">
<title>Node33</title>
<g id="a_node31"><a xlink:href="classAxisRaw.html#acadbd2b7e00e34417c426fa91c8d7c51" target="_top" xlink:title=" ">
<polygon fill="none" stroke="red" points="318.5,-0.5 318.5,-19.5 415.5,-19.5 415.5,-0.5 318.5,-0.5"/>
<text text-anchor="middle" x="367" y="-7.5" font-family="Helvetica,sans-Serif" font-size="10.00">AxisRaw::getLen</text>
</a>
</g>
</g>
<!-- Node32&#45;&gt;Node33 -->
<g id="edge30" class="edge">
<title>Node32&#45;&gt;Node33</title>
<path fill="none" stroke="midnightblue" d="M184.28,-247.45C191.33,-212.45 220.6,-90.02 295,-29 299.09,-25.65 303.71,-22.88 308.59,-20.6"/>
<polygon fill="midnightblue" stroke="midnightblue" points="310.21,-23.72 318.22,-16.79 307.64,-17.22 310.21,-23.72"/>
</g>
<!-- Node35&#45;&gt;Node3 -->
<g id="edge33" class="edge">
<title>Node35&#45;&gt;Node3</title>
<path fill="none" stroke="midnightblue" d="M185.31,-1007.34C194.94,-976.04 229.63,-876.57 295,-827 297.46,-825.13 300.09,-823.45 302.84,-821.93"/>
<polygon fill="midnightblue" stroke="midnightblue" points="304.4,-825.06 311.94,-817.62 301.41,-818.74 304.4,-825.06"/>
</g>
<!-- Node35&#45;&gt;Node5 -->
<g id="edge34" class="edge">
<title>Node35&#45;&gt;Node5</title>
<path fill="none" stroke="midnightblue" d="M184.28,-1007.45C191.33,-972.45 220.6,-850.02 295,-789 297.07,-787.3 299.28,-785.75 301.59,-784.34"/>
<polygon fill="midnightblue" stroke="midnightblue" points="303.63,-787.23 310.93,-779.55 300.44,-781 303.63,-787.23"/>
</g>
<!-- Node35&#45;&gt;Node6 -->
<g id="edge35" class="edge">
<title>Node35&#45;&gt;Node6</title>
<path fill="none" stroke="midnightblue" d="M183.58,-1007.26C188.41,-968.47 211.59,-823.58 295,-751 296.94,-749.31 299.01,-747.78 301.18,-746.37"/>
<polygon fill="midnightblue" stroke="midnightblue" points="302.87,-749.44 309.99,-741.6 299.53,-743.29 302.87,-749.44"/>
</g>
<!-- Node35&#45;&gt;Node8 -->
<g id="edge36" class="edge">
<title>Node35&#45;&gt;Node8</title>
<path fill="none" stroke="midnightblue" d="M183,-1007.36C185.72,-965.47 202.23,-797.52 295,-713 296.72,-711.43 298.56,-709.99 300.5,-708.66"/>
<polygon fill="midnightblue" stroke="midnightblue" points="302.5,-711.55 309.46,-703.56 299.04,-705.46 302.5,-711.55"/>
</g>
<!-- Node35&#45;&gt;Node9 -->
<g id="edge37" class="edge">
<title>Node35&#45;&gt;Node9</title>
<path fill="none" stroke="midnightblue" d="M182.55,-1026.58C183.34,-1071.42 192.79,-1262.39 295,-1359 297.94,-1361.78 301.24,-1364.16 304.77,-1366.2"/>
<polygon fill="midnightblue" stroke="midnightblue" points="303.41,-1369.43 313.93,-1370.61 306.44,-1363.12 303.41,-1369.43"/>
</g>
<!-- Node35&#45;&gt;Node24 -->
<g id="edge43" class="edge">
<title>Node35&#45;&gt;Node24</title>
<path fill="none" stroke="midnightblue" d="M182.55,-1007.42C183.34,-962.58 192.79,-771.61 295,-675 296.66,-673.43 298.43,-671.99 300.29,-670.67"/>
<polygon fill="midnightblue" stroke="midnightblue" points="302.12,-673.66 308.97,-665.57 298.57,-667.62 302.12,-673.66"/>
</g>
<!-- Node35&#45;&gt;Node25 -->
<g id="edge44" class="edge">
<title>Node35&#45;&gt;Node25</title>
<path fill="none" stroke="midnightblue" d="M193.87,-1007.4C213.35,-991.41 254.9,-959.29 295,-941 300.28,-938.59 305.93,-936.44 311.64,-934.53"/>
<polygon fill="midnightblue" stroke="midnightblue" points="312.76,-937.85 321.27,-931.54 310.68,-931.16 312.76,-937.85"/>
</g>
<!-- Node35&#45;&gt;Node26 -->
<g id="edge45" class="edge">
<title>Node35&#45;&gt;Node26</title>
<path fill="none" stroke="midnightblue" d="M189.16,-1007.37C204.89,-985.35 246.69,-931.1 295,-903 298.72,-900.83 302.7,-898.91 306.79,-897.2"/>
<polygon fill="midnightblue" stroke="midnightblue" points="308.36,-900.35 316.51,-893.59 305.92,-893.79 308.36,-900.35"/>
</g>
<!-- Node35&#45;&gt;Node27 -->
<g id="edge46" class="edge">
<title>Node35&#45;&gt;Node27</title>
<path fill="none" stroke="midnightblue" d="M186.75,-1007.41C199.19,-980.49 238.27,-903.61 295,-865 297.94,-863 301.08,-861.21 304.34,-859.61"/>
<polygon fill="midnightblue" stroke="midnightblue" points="305.96,-862.72 313.78,-855.58 303.21,-856.29 305.96,-862.72"/>
</g>
<!-- Node35&#45;&gt;Node28 -->
<g id="edge47" class="edge">
<title>Node35&#45;&gt;Node28</title>
<path fill="none" stroke="midnightblue" d="M185.31,-1026.66C194.94,-1057.96 229.63,-1157.43 295,-1207 298.17,-1209.4 301.62,-1211.5 305.24,-1213.34"/>
<polygon fill="midnightblue" stroke="midnightblue" points="303.93,-1216.59 314.5,-1217.37 306.73,-1210.17 303.93,-1216.59"/>
</g>
<!-- Node35&#45;&gt;Node29 -->
<g id="edge32" class="edge">
<title>Node35&#45;&gt;Node29</title>
<path fill="none" stroke="midnightblue" d="M242.78,-1020.24C308.15,-1024.73 407.42,-1034.71 439,-1055 496.46,-1091.91 530.36,-1170.33 543.57,-1206.71"/>
<polygon fill="midnightblue" stroke="midnightblue" points="540.28,-1207.89 546.88,-1216.18 546.89,-1205.58 540.28,-1207.89"/>
</g>
<!-- Node36 -->
<g id="node33" class="node">
<title>Node36</title>
<g id="a_node33"><a xlink:href="group__NTS.html#gae526d64d204c4ad86d5383b82df63eaf" target="_top" xlink:title="Print a socket pair association.">
<polygon fill="none" stroke="black" points="327,-1064.5 327,-1083.5 407,-1083.5 407,-1064.5 327,-1064.5"/>
<text text-anchor="middle" x="367" y="-1071.5" font-family="Helvetica,sans-Serif" font-size="10.00">printSockPair</text>
</a>
</g>
</g>
<!-- Node35&#45;&gt;Node36 -->
<g id="edge38" class="edge">
<title>Node35&#45;&gt;Node36</title>
<path fill="none" stroke="midnightblue" d="M213.21,-1026.54C244.04,-1036.12 291.7,-1050.92 325.58,-1061.45"/>
<polygon fill="midnightblue" stroke="midnightblue" points="324.6,-1064.8 335.19,-1064.43 326.67,-1058.12 324.6,-1064.8"/>
</g>
<!-- Node37 -->
<g id="node34" class="node">
<title>Node37</title>
<g id="a_node34"><a xlink:href="classAxisPsd4.html#a3f72c6310b9bd6d6609b1d7df58d336e" target="_top" xlink:title=" ">
<polygon fill="none" stroke="black" points="295,-988.5 295,-1007.5 439,-1007.5 439,-988.5 295,-988.5"/>
<text text-anchor="middle" x="367" y="-995.5" font-family="Helvetica,sans-Serif" font-size="10.00">AxisPsd4::setPsd4DstAddr</text>
</a>
</g>
</g>
<!-- Node35&#45;&gt;Node37 -->
<g id="edge39" class="edge">
<title>Node35&#45;&gt;Node37</title>
<path fill="none" stroke="midnightblue" d="M242.58,-1010.78C256.04,-1009.39 270.54,-1007.88 284.69,-1006.42"/>
<polygon fill="midnightblue" stroke="midnightblue" points="285.34,-1009.87 294.92,-1005.36 284.62,-1002.91 285.34,-1009.87"/>
</g>
<!-- Node38 -->
<g id="node35" class="node">
<title>Node38</title>
<g id="a_node35"><a xlink:href="classAxisPsd4.html#a3d50fda71574f0ad04ce4e10d6f298ae" target="_top" xlink:title=" ">
<polygon fill="none" stroke="black" points="306,-950.5 306,-969.5 428,-969.5 428,-950.5 306,-950.5"/>
<text text-anchor="middle" x="367" y="-957.5" font-family="Helvetica,sans-Serif" font-size="10.00">AxisPsd4::setPsd4Len</text>
</a>
</g>
</g>
<!-- Node35&#45;&gt;Node38 -->
<g id="edge40" class="edge">
<title>Node35&#45;&gt;Node38</title>
<path fill="none" stroke="midnightblue" d="M209.17,-1007.45C231.86,-999.46 265.4,-987.95 295,-979 302.64,-976.69 310.79,-974.37 318.74,-972.19"/>
<polygon fill="midnightblue" stroke="midnightblue" points="319.92,-975.5 328.66,-969.51 318.09,-968.74 319.92,-975.5"/>
</g>
<!-- Node39 -->
<g id="node36" class="node">
<title>Node39</title>
<g id="a_node36"><a xlink:href="classAxisPsd4.html#ab26cf6b796a4166d8aca34e28009e1a3" target="_top" xlink:title=" ">
<polygon fill="none" stroke="black" points="304.5,-1330.5 304.5,-1349.5 429.5,-1349.5 429.5,-1330.5 304.5,-1330.5"/>
<text text-anchor="middle" x="367" y="-1337.5" font-family="Helvetica,sans-Serif" font-size="10.00">AxisPsd4::setPsd4Prot</text>
</a>
</g>
</g>
<!-- Node35&#45;&gt;Node39 -->
<g id="edge41" class="edge">
<title>Node35&#45;&gt;Node39</title>
<path fill="none" stroke="midnightblue" d="M183,-1026.64C185.72,-1068.53 202.23,-1236.48 295,-1321 296.72,-1322.57 298.56,-1324.01 300.5,-1325.34"/>
<polygon fill="midnightblue" stroke="midnightblue" points="299.04,-1328.54 309.46,-1330.44 302.5,-1322.45 299.04,-1328.54"/>
</g>
<!-- Node40 -->
<g id="node37" class="node">
<title>Node40</title>
<g id="a_node37"><a xlink:href="classAxisPsd4.html#afadba132309036c08f46a7f960727e3d" target="_top" xlink:title=" ">
<polygon fill="none" stroke="black" points="295.5,-1292.5 295.5,-1311.5 438.5,-1311.5 438.5,-1292.5 295.5,-1292.5"/>
<text text-anchor="middle" x="367" y="-1299.5" font-family="Helvetica,sans-Serif" font-size="10.00">AxisPsd4::setPsd4SrcAddr</text>
</a>
</g>
</g>
<!-- Node35&#45;&gt;Node40 -->
<g id="edge42" class="edge">
<title>Node35&#45;&gt;Node40</title>
<path fill="none" stroke="midnightblue" d="M183.58,-1026.74C188.41,-1065.53 211.59,-1210.42 295,-1283 296.94,-1284.69 299.01,-1286.22 301.18,-1287.63"/>
<polygon fill="midnightblue" stroke="midnightblue" points="299.53,-1290.71 309.99,-1292.4 302.87,-1284.56 299.53,-1290.71"/>
</g>
<!-- Node41 -->
<g id="node38" class="node">
<title>Node41</title>
<g id="a_node38"><a xlink:href="classAxisPsd4.html#a7ddf3facea8f4a31245f5a267b88baa6" target="_top" xlink:title=" ">
<polygon fill="none" stroke="black" points="302.5,-1254.5 302.5,-1273.5 431.5,-1273.5 431.5,-1254.5 302.5,-1254.5"/>
<text text-anchor="middle" x="367" y="-1261.5" font-family="Helvetica,sans-Serif" font-size="10.00">AxisPsd4::setUdpCsum</text>
</a>
</g>
</g>
<!-- Node35&#45;&gt;Node41 -->
<g id="edge48" class="edge">
<title>Node35&#45;&gt;Node41</title>
<path fill="none" stroke="midnightblue" d="M184.28,-1026.55C191.33,-1061.55 220.6,-1183.98 295,-1245 297.07,-1246.7 299.28,-1248.25 301.59,-1249.66"/>
<polygon fill="midnightblue" stroke="midnightblue" points="300.44,-1253 310.93,-1254.45 303.63,-1246.77 300.44,-1253"/>
</g>
<!-- Node42 -->
<g id="node39" class="node">
<title>Node42</title>
<g id="a_node39"><a xlink:href="classAxisPsd4.html#a3abe68a3dfbe0184a1609cac83235317" target="_top" xlink:title=" ">
<polygon fill="none" stroke="black" points="298.5,-1178.5 298.5,-1197.5 435.5,-1197.5 435.5,-1178.5 298.5,-1178.5"/>
<text text-anchor="middle" x="367" y="-1185.5" font-family="Helvetica,sans-Serif" font-size="10.00">AxisPsd4::setUdpDstPort</text>
</a>
</g>
</g>
<!-- Node35&#45;&gt;Node42 -->
<g id="edge49" class="edge">
<title>Node35&#45;&gt;Node42</title>
<path fill="none" stroke="midnightblue" d="M186.75,-1026.59C199.19,-1053.51 238.27,-1130.39 295,-1169 297.94,-1171 301.08,-1172.79 304.34,-1174.39"/>
<polygon fill="midnightblue" stroke="midnightblue" points="303.21,-1177.71 313.78,-1178.42 305.96,-1171.28 303.21,-1177.71"/>
</g>
<!-- Node43 -->
<g id="node40" class="node">
<title>Node43</title>
<g id="a_node40"><a xlink:href="classAxisPsd4.html#a5114591119ae4d14904c2bf855846962" target="_top" xlink:title=" ">
<polygon fill="none" stroke="black" points="307.5,-1140.5 307.5,-1159.5 426.5,-1159.5 426.5,-1140.5 307.5,-1140.5"/>
<text text-anchor="middle" x="367" y="-1147.5" font-family="Helvetica,sans-Serif" font-size="10.00">AxisPsd4::setUdpLen</text>
</a>
</g>
</g>
<!-- Node35&#45;&gt;Node43 -->
<g id="edge50" class="edge">
<title>Node35&#45;&gt;Node43</title>
<path fill="none" stroke="midnightblue" d="M189.16,-1026.63C204.89,-1048.65 246.69,-1102.9 295,-1131 298.72,-1133.17 302.7,-1135.09 306.79,-1136.8"/>
<polygon fill="midnightblue" stroke="midnightblue" points="305.92,-1140.21 316.51,-1140.41 308.36,-1133.65 305.92,-1140.21"/>
</g>
<!-- Node44 -->
<g id="node41" class="node">
<title>Node44</title>
<g id="a_node41"><a xlink:href="classAxisPsd4.html#af678a9dc50e64e9d31e885604146f0c0" target="_top" xlink:title=" ">
<polygon fill="none" stroke="black" points="299,-1102.5 299,-1121.5 435,-1121.5 435,-1102.5 299,-1102.5"/>
<text text-anchor="middle" x="367" y="-1109.5" font-family="Helvetica,sans-Serif" font-size="10.00">AxisPsd4::setUdpSrcPort</text>
</a>
</g>
</g>
<!-- Node35&#45;&gt;Node44 -->
<g id="edge51" class="edge">
<title>Node35&#45;&gt;Node44</title>
<path fill="none" stroke="midnightblue" d="M193.87,-1026.6C213.35,-1042.59 254.9,-1074.71 295,-1093 300.28,-1095.41 305.93,-1097.56 311.64,-1099.47"/>
<polygon fill="midnightblue" stroke="midnightblue" points="310.68,-1102.84 321.27,-1102.46 312.76,-1096.15 310.68,-1102.84"/>
</g>
<!-- Node45&#45;&gt;Node9 -->
<g id="edge56" class="edge">
<title>Node45&#45;&gt;Node9</title>
<path fill="none" stroke="midnightblue" d="M188,-1577.5C210.01,-1539.47 290.78,-1400.2 295,-1397 297.97,-1394.75 301.19,-1392.76 304.56,-1391.01"/>
<polygon fill="midnightblue" stroke="midnightblue" points="306.06,-1394.17 313.77,-1386.9 303.21,-1387.78 306.06,-1394.17"/>
</g>
<!-- Node45&#45;&gt;Node29 -->
<g id="edge54" class="edge">
<title>Node45&#45;&gt;Node29</title>
<path fill="none" stroke="midnightblue" d="M227.55,-1577.46C283.68,-1563.46 379.44,-1532.32 439,-1473 506.09,-1406.19 536.32,-1291.63 546.16,-1245.8"/>
<polygon fill="midnightblue" stroke="midnightblue" points="549.6,-1246.43 548.19,-1235.93 542.75,-1245.02 549.6,-1246.43"/>
</g>
<!-- Node46 -->
<g id="node43" class="node">
<title>Node46</title>
<g id="a_node43"><a xlink:href="udp_8cpp.html#ga3179abf5c515026aad3e82047a1dd9a3" target="_top" xlink:title=" ">
<polygon fill="none" stroke="black" points="328.5,-1672.5 328.5,-1691.5 405.5,-1691.5 405.5,-1672.5 328.5,-1672.5"/>
<text text-anchor="middle" x="367" y="-1679.5" font-family="Helvetica,sans-Serif" font-size="10.00">byteSwap16</text>
</a>
</g>
</g>
<!-- Node45&#45;&gt;Node46 -->
<g id="edge53" class="edge">
<title>Node45&#45;&gt;Node46</title>
<path fill="none" stroke="midnightblue" d="M195.42,-1596.59C215.75,-1611.35 256.84,-1639.83 295,-1658 303.81,-1662.19 313.54,-1665.99 322.91,-1669.26"/>
<polygon fill="midnightblue" stroke="midnightblue" points="321.89,-1672.61 332.48,-1672.47 324.12,-1665.97 321.89,-1672.61"/>
</g>
<!-- Node47 -->
<g id="node44" class="node">
<title>Node47</title>
<g id="a_node44"><a xlink:href="classAxisRaw.html#a7034bcf8cf143fb2bb9bfc46e70a7d6b" target="_top" xlink:title=" ">
<polygon fill="none" stroke="black" points="488.5,-1634.5 488.5,-1653.5 613.5,-1653.5 613.5,-1634.5 488.5,-1634.5"/>
<text text-anchor="middle" x="551" y="-1641.5" font-family="Helvetica,sans-Serif" font-size="10.00">AxisRaw::getLE_TData</text>
</a>
</g>
</g>
<!-- Node45&#45;&gt;Node47 -->
<g id="edge55" class="edge">
<title>Node45&#45;&gt;Node47</title>
<path fill="none" stroke="midnightblue" d="M188.27,-1596.84C202.7,-1620.3 242.92,-1679.23 295,-1701 354.05,-1725.69 376.79,-1716.04 439,-1701 472.16,-1692.98 506.54,-1673.26 528.08,-1659.26"/>
<polygon fill="midnightblue" stroke="midnightblue" points="530.1,-1662.12 536.48,-1653.67 526.22,-1656.29 530.1,-1662.12"/>
</g>
<!-- Node48 -->
<g id="node45" class="node">
<title>Node48</title>
<g id="a_node45"><a xlink:href="group__NTS.html#ga5560d80c548e85eb53223a5e99410b7b" target="_top" xlink:title="Prints an Axis raw data chunk (used for debugging).">
<polygon fill="none" stroke="black" points="326.5,-1596.5 326.5,-1615.5 407.5,-1615.5 407.5,-1596.5 326.5,-1596.5"/>
<text text-anchor="middle" x="367" y="-1603.5" font-family="Helvetica,sans-Serif" font-size="10.00">printAxisRaw</text>
</a>
</g>
</g>
<!-- Node45&#45;&gt;Node48 -->
<g id="edge57" class="edge">
<title>Node45&#45;&gt;Node48</title>
<path fill="none" stroke="midnightblue" d="M259.26,-1594.95C278.55,-1596.95 298.75,-1599.04 316.33,-1600.86"/>
<polygon fill="midnightblue" stroke="midnightblue" points="316.03,-1604.35 326.34,-1601.89 316.76,-1597.38 316.03,-1604.35"/>
</g>
<!-- Node48&#45;&gt;Node47 -->
<g id="edge58" class="edge">
<title>Node48&#45;&gt;Node47</title>
<path fill="none" stroke="midnightblue" d="M407.94,-1614.34C433.29,-1619.63 466.45,-1626.56 494.36,-1632.38"/>
<polygon fill="midnightblue" stroke="midnightblue" points="493.88,-1635.86 504.38,-1634.48 495.31,-1629.01 493.88,-1635.86"/>
</g>
<!-- Node49 -->
<g id="node46" class="node">
<title>Node49</title>
<g id="a_node46"><a xlink:href="classAxisRaw.html#a4becd0ad3c51e3db2749e888f2f72e31" target="_top" xlink:title=" ">
<polygon fill="none" stroke="black" points="488,-1501.5 488,-1520.5 614,-1520.5 614,-1501.5 488,-1501.5"/>
<text text-anchor="middle" x="551" y="-1508.5" font-family="Helvetica,sans-Serif" font-size="10.00">AxisRaw::getLE_TKeep</text>
</a>
</g>
</g>
<!-- Node48&#45;&gt;Node49 -->
<g id="edge59" class="edge">
<title>Node48&#45;&gt;Node49</title>
<path fill="none" stroke="midnightblue" d="M401.89,-1596.4C413.87,-1592.52 427.27,-1587.63 439,-1582 472.17,-1566.08 507.48,-1542.14 529.14,-1526.54"/>
<polygon fill="midnightblue" stroke="midnightblue" points="531.26,-1529.33 537.28,-1520.61 527.13,-1523.67 531.26,-1529.33"/>
</g>
<!-- Node50 -->
<g id="node47" class="node">
<title>Node50</title>
<g id="a_node47"><a xlink:href="classAxisRaw.html#af8208752dcbb14911c5fda27d90a0ef4" target="_top" xlink:title=" ">
<polygon fill="none" stroke="black" points="490,-1577.5 490,-1596.5 612,-1596.5 612,-1577.5 490,-1577.5"/>
<text text-anchor="middle" x="551" y="-1584.5" font-family="Helvetica,sans-Serif" font-size="10.00">AxisRaw::getLE_TLast</text>
</a>
</g>
</g>
<!-- Node48&#45;&gt;Node50 -->
<g id="edge60" class="edge">
<title>Node48&#45;&gt;Node50</title>
<path fill="none" stroke="midnightblue" d="M407.94,-1601.83C428.91,-1599.64 455.22,-1596.89 479.49,-1594.36"/>
<polygon fill="midnightblue" stroke="midnightblue" points="480.15,-1597.81 489.74,-1593.29 479.43,-1590.85 480.15,-1597.81"/>
</g>
<!-- Node51&#45;&gt;Node9 -->
<g id="edge65" class="edge">
<title>Node51&#45;&gt;Node9</title>
<path fill="none" stroke="midnightblue" d="M209.17,-1425.45C231.86,-1417.46 265.4,-1405.95 295,-1397 302.64,-1394.69 310.79,-1392.37 318.74,-1390.19"/>
<polygon fill="midnightblue" stroke="midnightblue" points="319.92,-1393.5 328.66,-1387.51 318.09,-1386.74 319.92,-1393.5"/>
</g>
<!-- Node51&#45;&gt;Node28 -->
<g id="edge66" class="edge">
<title>Node51&#45;&gt;Node28</title>
<path fill="none" stroke="midnightblue" d="M185.31,-1425.34C194.94,-1394.04 229.63,-1294.57 295,-1245 298.17,-1242.6 301.62,-1240.5 305.24,-1238.66"/>
<polygon fill="midnightblue" stroke="midnightblue" points="306.73,-1241.83 314.5,-1234.63 303.93,-1235.41 306.73,-1241.83"/>
</g>
<!-- Node51&#45;&gt;Node47 -->
<g id="edge62" class="edge">
<title>Node51&#45;&gt;Node47</title>
<path fill="none" stroke="midnightblue" d="M187.98,-1444.53C209.93,-1482.64 290.5,-1622.21 295,-1625 352.53,-1660.69 432.01,-1660.6 486.88,-1654.69"/>
<polygon fill="midnightblue" stroke="midnightblue" points="487.3,-1658.17 496.82,-1653.53 486.49,-1651.22 487.3,-1658.17"/>
</g>
<!-- Node51&#45;&gt;Node49 -->
<g id="edge63" class="edge">
<title>Node51&#45;&gt;Node49</title>
<path fill="none" stroke="midnightblue" d="M206.71,-1444.58C229.25,-1453.15 263.94,-1465.5 295,-1473 355.88,-1487.69 426.39,-1497.68 477.81,-1503.71"/>
<polygon fill="midnightblue" stroke="midnightblue" points="477.5,-1507.2 487.83,-1504.86 478.3,-1500.24 477.5,-1507.2"/>
</g>
<!-- Node51&#45;&gt;Node50 -->
<g id="edge64" class="edge">
<title>Node51&#45;&gt;Node50</title>
<path fill="none" stroke="midnightblue" d="M197.32,-1444.61C218.4,-1458.01 258.56,-1482.52 295,-1499 366.81,-1531.48 454.4,-1559.28 505.99,-1574.52"/>
<polygon fill="midnightblue" stroke="midnightblue" points="505.23,-1577.95 515.82,-1577.4 507.2,-1571.23 505.23,-1577.95"/>
</g>
<!-- Node52 -->
<g id="node49" class="node">
<title>Node52</title>
<g id="a_node49"><a xlink:href="classAxisUdp.html#aaed0c16becb29f6e77c06fc702f14536" target="_top" xlink:title=" ">
<polygon fill="none" stroke="black" points="304.5,-1444.5 304.5,-1463.5 429.5,-1463.5 429.5,-1444.5 304.5,-1444.5"/>
<text text-anchor="middle" x="367" y="-1451.5" font-family="Helvetica,sans-Serif" font-size="10.00">AxisUdp::setUdpCsum</text>
</a>
</g>
</g>
<!-- Node51&#45;&gt;Node52 -->
<g id="edge67" class="edge">
<title>Node51&#45;&gt;Node52</title>
<path fill="none" stroke="midnightblue" d="M234.59,-1440.39C253.17,-1442.32 274.44,-1444.52 294.38,-1446.58"/>
<polygon fill="midnightblue" stroke="midnightblue" points="294.04,-1450.07 304.35,-1447.62 294.76,-1443.11 294.04,-1450.07"/>
</g>
<!-- Node53 -->
<g id="node50" class="node">
<title>Node53</title>
<g id="a_node50"><a xlink:href="classAxisUdp.html#a84463759fd6bbdf2ae98457acf861ca5" target="_top" xlink:title=" ">
<polygon fill="none" stroke="black" points="300,-1406.5 300,-1425.5 434,-1425.5 434,-1406.5 300,-1406.5"/>
<text text-anchor="middle" x="367" y="-1413.5" font-family="Helvetica,sans-Serif" font-size="10.00">AxisUdp::setUdpDstPort</text>
</a>
</g>
</g>
<!-- Node51&#45;&gt;Node53 -->
<g id="edge68" class="edge">
<title>Node51&#45;&gt;Node53</title>
<path fill="none" stroke="midnightblue" d="M234.59,-1429.61C251.67,-1427.84 271.01,-1425.84 289.51,-1423.92"/>
<polygon fill="midnightblue" stroke="midnightblue" points="290.09,-1427.38 299.68,-1422.87 289.37,-1420.42 290.09,-1427.38"/>
</g>
</g>
</svg>
