<?xml version="1.0" encoding="UTF-8" standalone="no"?>
<!DOCTYPE svg PUBLIC "-//W3C//DTD SVG 1.1//EN"
 "http://www.w3.org/Graphics/SVG/1.1/DTD/svg11.dtd">
<!-- Generated by graphviz version 2.43.0 (0)
 -->
<!-- Title: stepDut Pages: 1 -->
<!--zoomable 408 -->
<svg id="main" version="1.1" xmlns="http://www.w3.org/2000/svg" xmlns:xlink="http://www.w3.org/1999/xlink" xml:space="preserve" onload="init(evt)">
<style type="text/css"><![CDATA[
.edge:hover path { stroke: red; }
.edge:hover polygon { stroke: red; fill: red; }
]]></style>
<script type="text/javascript"><![CDATA[
var edges = document.getElementsByTagName('g');
if (edges && edges.length) {
  for (var i=0;i<edges.length;i++) {
    if (edges[i].id.substr(0,4)=='edge') {
      edges[i].setAttribute('class','edge');
    }
  }
}
]]></script>
        <defs>
                <circle id="rim" cx="0" cy="0" r="7"/>
                <circle id="rim2" cx="0" cy="0" r="3.5"/>
                <g id="zoomPlus">
                        <use xlink:href="#rim" fill="#404040">
                                <set attributeName="fill" to="#808080" begin="zoomplus.mouseover" end="zoomplus.mouseout"/>
                        </use>
                        <path d="M-4,0h8M0,-4v8" fill="none" stroke="white" stroke-width="1.5" pointer-events="none"/>
                </g>
                <g id="zoomMin">
                        <use xlink:href="#rim" fill="#404040">
                                <set attributeName="fill" to="#808080" begin="zoomminus.mouseover" end="zoomminus.mouseout"/>
                        </use>
                        <path d="M-4,0h8" fill="none" stroke="white" stroke-width="1.5" pointer-events="none"/>
                </g>
                <g id="dirArrow">
                        <path fill="none" stroke="white" stroke-width="1.5" d="M0,-3.0v7 M-2.5,-0.5L0,-3.0L2.5,-0.5"/>
                </g>
               <g id="resetDef">
                       <use xlink:href="#rim2" fill="#404040">
                               <set attributeName="fill" to="#808080" begin="reset.mouseover" end="reset.mouseout"/>
                       </use>
               </g>
        </defs>

<script type="text/javascript">
var viewWidth = 596;
var viewHeight = 408;
var sectionId = 'dynsection-12';
</script>
<script xlink:href="svgpan.js"/>
<svg id="graph" class="graph">
<g id="viewport">
<title>stepDut</title>
<!-- Node1 -->
<g id="node1" class="node">
<title>Node1</title>
<g id="a_node1"><a xlink:title="Run a single iteration of the DUT model.">
<polygon fill="#bfbfbf" stroke="black" points="0,-133.5 0,-152.5 55,-152.5 55,-133.5 0,-133.5"/>
<text text-anchor="middle" x="27.5" y="-140.5" font-family="Helvetica,sans-Serif" font-size="10.00">stepDut</text>
</a>
</g>
</g>
<!-- Node2 -->
<g id="node2" class="node">
<title>Node2</title>
<g id="a_node2"><a xlink:href="group__MedianBlurHLS.html#gad801d8fc1658819e5e311e9698c97e65" target="_top" xlink:title="Main process of the MedianBlur Application directives.">
<polygon fill="none" stroke="black" points="125,-266.5 125,-285.5 202,-285.5 202,-266.5 125,-266.5"/>
<text text-anchor="middle" x="163.5" y="-273.5" font-family="Helvetica,sans-Serif" font-size="10.00">median_blur</text>
</a>
</g>
</g>
<!-- Node1&#45;&gt;Node2 -->
<g id="edge1" class="edge">
<title>Node1&#45;&gt;Node2</title>
<path fill="none" stroke="midnightblue" d="M30.97,-152.65C37.12,-174.7 55.29,-229.02 91,-257 98.05,-262.52 106.57,-266.45 115.23,-269.24"/>
<polygon fill="midnightblue" stroke="midnightblue" points="114.43,-272.64 125,-271.92 116.28,-265.9 114.43,-272.64"/>
</g>
<!-- Node13 -->
<g id="node13" class="node">
<title>Node13</title>
<g id="a_node13"><a xlink:href="group__MedianBlurTB.html#ga1bd90367e11713ef24b45044d439bd4f" target="_top" xlink:title=" ">
<polygon fill="none" stroke="black" points="126,-228.5 126,-247.5 201,-247.5 201,-228.5 126,-228.5"/>
<text text-anchor="middle" x="163.5" y="-235.5" font-family="Helvetica,sans-Serif" font-size="10.00">siUdp_meta</text>
</a>
</g>
</g>
<!-- Node1&#45;&gt;Node13 -->
<g id="edge12" class="edge">
<title>Node1&#45;&gt;Node13</title>
<path fill="none" stroke="midnightblue" d="M33.67,-152.56C42.94,-168.79 63.98,-201.64 91,-219 98.54,-223.84 107.27,-227.46 116,-230.15"/>
<polygon fill="midnightblue" stroke="midnightblue" points="115.21,-233.57 125.78,-232.82 117.05,-226.81 115.21,-233.57"/>
</g>
<!-- Node14 -->
<g id="node14" class="node">
<title>Node14</title>
<g id="a_node14"><a xlink:href="group__MedianBlurTB.html#ga3d0879e41b3498ec3683524c4380fbca" target="_top" xlink:title=" ">
<polygon fill="none" stroke="black" points="124.5,-190.5 124.5,-209.5 202.5,-209.5 202.5,-190.5 124.5,-190.5"/>
<text text-anchor="middle" x="163.5" y="-197.5" font-family="Helvetica,sans-Serif" font-size="10.00">soUdp_meta</text>
</a>
</g>
</g>
<!-- Node1&#45;&gt;Node14 -->
<g id="edge13" class="edge">
<title>Node1&#45;&gt;Node14</title>
<path fill="none" stroke="midnightblue" d="M41.79,-152.64C54.05,-161.14 73.01,-173.33 91,-181 98.48,-184.19 106.62,-186.96 114.66,-189.33"/>
<polygon fill="midnightblue" stroke="midnightblue" points="113.77,-192.71 124.34,-192.02 115.64,-185.97 113.77,-192.71"/>
</g>
<!-- Node15 -->
<g id="node15" class="node">
<title>Node15</title>
<g id="a_node15"><a xlink:href="group__MedianBlurTB.html#ga8a91d08b41f63ada548b50fc96fe9f96" target="_top" xlink:title=" ">
<polygon fill="none" stroke="black" points="91,-152.5 91,-171.5 236,-171.5 236,-152.5 91,-152.5"/>
<text text-anchor="middle" x="163.5" y="-159.5" font-family="Helvetica,sans-Serif" font-size="10.00">sROL_Shl_Mem_WrCmdP0</text>
</a>
</g>
</g>
<!-- Node1&#45;&gt;Node15 -->
<g id="edge14" class="edge">
<title>Node1&#45;&gt;Node15</title>
<path fill="none" stroke="midnightblue" d="M55.29,-146.8C64.18,-148.06 74.57,-149.53 85.31,-151.06"/>
<polygon fill="midnightblue" stroke="midnightblue" points="84.86,-154.53 95.25,-152.46 85.84,-147.6 84.86,-154.53"/>
</g>
<!-- Node16 -->
<g id="node16" class="node">
<title>Node16</title>
<g id="a_node16"><a xlink:href="group__MedianBlurTB.html#ga58a07924671463ff5a1942de04237ed8" target="_top" xlink:title=" ">
<polygon fill="none" stroke="black" points="96,-114.5 96,-133.5 231,-133.5 231,-114.5 96,-114.5"/>
<text text-anchor="middle" x="163.5" y="-121.5" font-family="Helvetica,sans-Serif" font-size="10.00">sROL_Shl_Mem_WriteP0</text>
</a>
</g>
</g>
<!-- Node1&#45;&gt;Node16 -->
<g id="edge15" class="edge">
<title>Node1&#45;&gt;Node16</title>
<path fill="none" stroke="midnightblue" d="M55.29,-139.2C64.3,-137.92 74.84,-136.43 85.74,-134.88"/>
<polygon fill="midnightblue" stroke="midnightblue" points="86.4,-138.33 95.81,-133.46 85.42,-131.39 86.4,-138.33"/>
</g>
<!-- Node17 -->
<g id="node17" class="node">
<title>Node17</title>
<g id="a_node17"><a xlink:href="group__MedianBlurTB.html#gae20cf33eedc99be1153c93100d484642" target="_top" xlink:title=" ">
<polygon fill="none" stroke="black" points="95,-76.5 95,-95.5 232,-95.5 232,-76.5 95,-76.5"/>
<text text-anchor="middle" x="163.5" y="-83.5" font-family="Helvetica,sans-Serif" font-size="10.00">sSHL_Rol_Mem_WrStsP0</text>
</a>
</g>
</g>
<!-- Node1&#45;&gt;Node17 -->
<g id="edge16" class="edge">
<title>Node1&#45;&gt;Node17</title>
<path fill="none" stroke="midnightblue" d="M41.79,-133.36C54.05,-124.86 73.01,-112.67 91,-105 96.74,-102.55 102.87,-100.35 109.04,-98.39"/>
<polygon fill="midnightblue" stroke="midnightblue" points="110.14,-101.71 118.73,-95.5 108.14,-95.01 110.14,-101.71"/>
</g>
<!-- Node18 -->
<g id="node18" class="node">
<title>Node18</title>
<g id="a_node18"><a xlink:href="group__MedianBlurTB.html#gae01425342f3c967f16486d71040bab38" target="_top" xlink:title=" ">
<polygon fill="none" stroke="black" points="117.5,-38.5 117.5,-57.5 209.5,-57.5 209.5,-38.5 117.5,-38.5"/>
<text text-anchor="middle" x="163.5" y="-45.5" font-family="Helvetica,sans-Serif" font-size="10.00">sSHL_Uaf_Data</text>
</a>
</g>
</g>
<!-- Node1&#45;&gt;Node18 -->
<g id="edge17" class="edge">
<title>Node1&#45;&gt;Node18</title>
<path fill="none" stroke="midnightblue" d="M33.67,-133.44C42.94,-117.21 63.98,-84.36 91,-67 96.05,-63.75 101.65,-61.06 107.41,-58.82"/>
<polygon fill="midnightblue" stroke="midnightblue" points="108.88,-62.02 117.22,-55.48 106.62,-55.39 108.88,-62.02"/>
</g>
<!-- Node19 -->
<g id="node19" class="node">
<title>Node19</title>
<g id="a_node19"><a xlink:href="group__MedianBlurTB.html#ga8b8509e7c91f567d4ad11ff426aabb7f" target="_top" xlink:title=" ">
<polygon fill="none" stroke="black" points="118,-0.5 118,-19.5 209,-19.5 209,-0.5 118,-0.5"/>
<text text-anchor="middle" x="163.5" y="-7.5" font-family="Helvetica,sans-Serif" font-size="10.00">sUAF_Shl_Data</text>
</a>
</g>
</g>
<!-- Node1&#45;&gt;Node19 -->
<g id="edge18" class="edge">
<title>Node1&#45;&gt;Node19</title>
<path fill="none" stroke="midnightblue" d="M30.97,-133.35C37.12,-111.3 55.29,-56.98 91,-29 96.11,-25 101.99,-21.83 108.13,-19.34"/>
<polygon fill="midnightblue" stroke="midnightblue" points="109.64,-22.52 117.93,-15.93 107.34,-15.91 109.64,-22.52"/>
</g>
<!-- Node3 -->
<g id="node3" class="node">
<title>Node3</title>
<g id="a_node3"><a xlink:href="group__MedianBlurHLS.html#ga05d9d03e07364c23812d86e221c3abe7" target="_top" xlink:title=" ">
<polygon fill="none" stroke="black" points="273,-361.5 273,-380.5 396,-380.5 396,-361.5 273,-361.5"/>
<text text-anchor="middle" x="334.5" y="-368.5" font-family="Helvetica,sans-Serif" font-size="10.00">pPortAndDestionation</text>
</a>
</g>
</g>
<!-- Node2&#45;&gt;Node3 -->
<g id="edge2" class="edge">
<title>Node2&#45;&gt;Node3</title>
<path fill="none" stroke="midnightblue" d="M175.66,-285.73C194.39,-301.61 233.86,-333.22 272,-352 276.58,-354.26 281.49,-356.31 286.46,-358.17"/>
<polygon fill="midnightblue" stroke="midnightblue" points="285.42,-361.51 296.02,-361.49 287.72,-354.9 285.42,-361.51"/>
</g>
<!-- Node4 -->
<g id="node4" class="node">
<title>Node4</title>
<g id="a_node4"><a xlink:href="group__MedianBlurHLS.html#gad981b74bfbff471cc005440ad4f073ad" target="_top" xlink:title="Processing Path &#45; Main processing FSM for Vitis kernels.">
<polygon fill="none" stroke="black" points="302,-323.5 302,-342.5 367,-342.5 367,-323.5 302,-323.5"/>
<text text-anchor="middle" x="334.5" y="-330.5" font-family="Helvetica,sans-Serif" font-size="10.00">pProcPath</text>
</a>
</g>
</g>
<!-- Node2&#45;&gt;Node4 -->
<g id="edge3" class="edge">
<title>Node2&#45;&gt;Node4</title>
<path fill="none" stroke="midnightblue" d="M190.47,-285.51C212.18,-293.38 244,-304.73 272,-314 278.49,-316.15 285.38,-318.35 292.12,-320.47"/>
<polygon fill="midnightblue" stroke="midnightblue" points="291.23,-323.85 301.82,-323.48 293.31,-317.17 291.23,-323.85"/>
</g>
<!-- Node8 -->
<g id="node8" class="node">
<title>Node8</title>
<g id="a_node8"><a xlink:href="group__MedianBlurHLS.html#gab56f18d51141b003c6922297dbbd8f3f" target="_top" xlink:title="Receive Path &#45; From SHELL to THIS.">
<polygon fill="none" stroke="black" points="306,-285.5 306,-304.5 363,-304.5 363,-285.5 306,-285.5"/>
<text text-anchor="middle" x="334.5" y="-292.5" font-family="Helvetica,sans-Serif" font-size="10.00">pRXPath</text>
</a>
</g>
</g>
<!-- Node2&#45;&gt;Node8 -->
<g id="edge7" class="edge">
<title>Node2&#45;&gt;Node8</title>
<path fill="none" stroke="midnightblue" d="M202.01,-280.22C229.86,-283.35 267.7,-287.6 295.63,-290.74"/>
<polygon fill="midnightblue" stroke="midnightblue" points="295.49,-294.25 305.81,-291.89 296.27,-287.29 295.49,-294.25"/>
</g>
<!-- Node10 -->
<g id="node10" class="node">
<title>Node10</title>
<g id="a_node10"><a xlink:href="group__MedianBlurHLS.html#gac3e890765121e9a873b7a3a0aea95646" target="_top" xlink:title="Receive Path &#45; From SHELL to THIS.">
<polygon fill="none" stroke="black" points="274.5,-247.5 274.5,-266.5 394.5,-266.5 394.5,-247.5 274.5,-247.5"/>
<text text-anchor="middle" x="334.5" y="-254.5" font-family="Helvetica,sans-Serif" font-size="10.00">pRXPathNetToStream</text>
</a>
</g>
</g>
<!-- Node2&#45;&gt;Node10 -->
<g id="edge9" class="edge">
<title>Node2&#45;&gt;Node10</title>
<path fill="none" stroke="midnightblue" d="M202.01,-271.78C220.31,-269.73 242.92,-267.18 264.2,-264.79"/>
<polygon fill="midnightblue" stroke="midnightblue" points="264.65,-268.26 274.19,-263.67 263.86,-261.31 264.65,-268.26"/>
</g>
<!-- Node11 -->
<g id="node11" class="node">
<title>Node11</title>
<g id="a_node11"><a xlink:href="group__MedianBlurHLS.html#gafde53db5d12c864e5515e989b059d909" target="_top" xlink:title="Receive Path &#45; From SHELL to THIS.">
<polygon fill="none" stroke="black" points="272,-209.5 272,-228.5 397,-228.5 397,-209.5 272,-209.5"/>
<text text-anchor="middle" x="334.5" y="-216.5" font-family="Helvetica,sans-Serif" font-size="10.00">pRXPathStreamToDDR</text>
</a>
</g>
</g>
<!-- Node2&#45;&gt;Node11 -->
<g id="edge10" class="edge">
<title>Node2&#45;&gt;Node11</title>
<path fill="none" stroke="midnightblue" d="M202.12,-267.7C213.2,-264.81 225.23,-261.21 236,-257 252.85,-250.41 255.29,-244.92 272,-238 277.42,-235.75 283.21,-233.63 288.98,-231.67"/>
<polygon fill="midnightblue" stroke="midnightblue" points="290.19,-234.96 298.62,-228.54 288.03,-228.3 290.19,-234.96"/>
</g>
<!-- Node12 -->
<g id="node12" class="node">
<title>Node12</title>
<g id="a_node12"><a xlink:href="group__MedianBlurHLS.html#ga36dbd8dd4fba2a1cbb6e8e36ccc1a33b" target="_top" xlink:title="Transmit Path &#45; From THIS to SHELL.">
<polygon fill="none" stroke="black" points="306.5,-171.5 306.5,-190.5 362.5,-190.5 362.5,-171.5 306.5,-171.5"/>
<text text-anchor="middle" x="334.5" y="-178.5" font-family="Helvetica,sans-Serif" font-size="10.00">pTXPath</text>
</a>
</g>
</g>
<!-- Node2&#45;&gt;Node12 -->
<g id="edge11" class="edge">
<title>Node2&#45;&gt;Node12</title>
<path fill="none" stroke="midnightblue" d="M202.1,-271.48C213.79,-268.7 226.17,-264.22 236,-257 260.15,-239.26 248.21,-218.22 272,-200 279.22,-194.47 288.06,-190.54 296.77,-187.74"/>
<polygon fill="midnightblue" stroke="midnightblue" points="297.75,-191.1 306.45,-185.05 295.87,-184.36 297.75,-191.1"/>
</g>
<!-- Node5 -->
<g id="node5" class="node">
<title>Node5</title>
<g id="a_node5"><a xlink:href="group__MedianBlur.html#ga4515c088b823a7b94789560377729c5a" target="_top" xlink:title=" ">
<polygon fill="none" stroke="black" points="433,-380.5 433,-399.5 588,-399.5 588,-380.5 433,-380.5"/>
<text text-anchor="middle" x="510.5" y="-387.5" font-family="Helvetica,sans-Serif" font-size="10.00">fakeMedianBlurAccelStream</text>
</a>
</g>
</g>
<!-- Node4&#45;&gt;Node5 -->
<g id="edge4" class="edge">
<title>Node4&#45;&gt;Node5</title>
<path fill="none" stroke="midnightblue" d="M367.19,-341.56C376.89,-344.51 387.5,-348.07 397,-352 413.71,-358.92 416.1,-364.55 433,-371 439.44,-373.46 446.31,-375.69 453.19,-377.68"/>
<polygon fill="midnightblue" stroke="midnightblue" points="452.66,-381.16 463.23,-380.42 454.51,-374.41 452.66,-381.16"/>
</g>
<!-- Node6 -->
<g id="node6" class="node">
<title>Node6</title>
<g id="a_node6"><a xlink:href="group__MedianBlur.html#gac12c7c5d7e8e32a8dcad948c6012b647" target="_top" xlink:title="Top&#45;level accelerated function of the MedianBlur Application with array I/F.">
<polygon fill="none" stroke="black" points="448.5,-342.5 448.5,-361.5 572.5,-361.5 572.5,-342.5 448.5,-342.5"/>
<text text-anchor="middle" x="510.5" y="-349.5" font-family="Helvetica,sans-Serif" font-size="10.00">medianBlurAccelMem</text>
</a>
</g>
</g>
<!-- Node4&#45;&gt;Node6 -->
<g id="edge5" class="edge">
<title>Node4&#45;&gt;Node6</title>
<path fill="none" stroke="midnightblue" d="M367.01,-336.44C386.89,-338.61 413.41,-341.51 438.18,-344.21"/>
<polygon fill="midnightblue" stroke="midnightblue" points="437.97,-347.71 448.29,-345.32 438.73,-340.75 437.97,-347.71"/>
</g>
<!-- Node7 -->
<g id="node7" class="node">
<title>Node7</title>
<g id="a_node7"><a xlink:href="group__MedianBlur.html#gacf1a13def036d9fa03ba5387b2d46b66" target="_top" xlink:title="Top&#45;level accelerated function of the MedianBlur Application with array I/F.">
<polygon fill="none" stroke="black" points="443.5,-304.5 443.5,-323.5 577.5,-323.5 577.5,-304.5 443.5,-304.5"/>
<text text-anchor="middle" x="510.5" y="-311.5" font-family="Helvetica,sans-Serif" font-size="10.00">medianBlurAccelStream</text>
</a>
</g>
</g>
<!-- Node4&#45;&gt;Node7 -->
<g id="edge6" class="edge">
<title>Node4&#45;&gt;Node7</title>
<path fill="none" stroke="midnightblue" d="M367.01,-329.56C385.52,-327.54 409.79,-324.89 433.03,-322.35"/>
<polygon fill="midnightblue" stroke="midnightblue" points="433.7,-325.8 443.27,-321.23 432.94,-318.84 433.7,-325.8"/>
</g>
<!-- Node9 -->
<g id="node9" class="node">
<title>Node9</title>
<g id="a_node9"><a xlink:href="group__MedianBlurHLS.html#ga689189915fbd23b534a675692924ec11" target="_top" xlink:title="Store a net word to a local AXI stream.">
<polygon fill="none" stroke="black" points="446.5,-266.5 446.5,-285.5 574.5,-285.5 574.5,-266.5 446.5,-266.5"/>
<text text-anchor="middle" x="510.5" y="-273.5" font-family="Helvetica,sans-Serif" font-size="10.00">storeWordToAxiStream</text>
</a>
</g>
</g>
<!-- Node8&#45;&gt;Node9 -->
<g id="edge8" class="edge">
<title>Node8&#45;&gt;Node9</title>
<path fill="none" stroke="midnightblue" d="M363.07,-291.99C382.78,-289.84 410.29,-286.83 436.15,-284.01"/>
<polygon fill="midnightblue" stroke="midnightblue" points="436.77,-287.46 446.34,-282.9 436.01,-280.5 436.77,-287.46"/>
</g>
</g>
</svg>
        <g id="navigator" transform="translate(0 0)" fill="#404254">
                <rect fill="#f2f5e9" fill-opacity="0.5" stroke="#606060" stroke-width=".5" x="0" y="0" width="60" height="60"/>
                <use id="zoomplus" xlink:href="#zoomPlus" x="17" y="9" onmousedown="handleZoom(evt,'in')"/>
                <use id="zoomminus" xlink:href="#zoomMin" x="42" y="9" onmousedown="handleZoom(evt,'out')"/>
                <use id="reset" xlink:href="#resetDef" x="30" y="36" onmousedown="handleReset()"/>
                <g id="arrowUp" xlink:href="#dirArrow" transform="translate(30 24)" onmousedown="handlePan(0,-1)">
                  <use xlink:href="#rim" fill="#404040">
                        <set attributeName="fill" to="#808080" begin="arrowUp.mouseover" end="arrowUp.mouseout"/>
                  </use>
                  <path fill="none" stroke="white" stroke-width="1.5" d="M0,-3.0v7 M-2.5,-0.5L0,-3.0L2.5,-0.5"/>
                </g>
                <g id="arrowRight" xlink:href="#dirArrow" transform="rotate(90) translate(36 -43)" onmousedown="handlePan(1,0)">
                  <use xlink:href="#rim" fill="#404040">
                        <set attributeName="fill" to="#808080" begin="arrowRight.mouseover" end="arrowRight.mouseout"/>
                  </use>
                  <path fill="none" stroke="white" stroke-width="1.5" d="M0,-3.0v7 M-2.5,-0.5L0,-3.0L2.5,-0.5"/>
                </g>
                <g id="arrowDown" xlink:href="#dirArrow" transform="rotate(180) translate(-30 -48)" onmousedown="handlePan(0,1)">
                  <use xlink:href="#rim" fill="#404040">
                        <set attributeName="fill" to="#808080" begin="arrowDown.mouseover" end="arrowDown.mouseout"/>
                  </use>
                  <path fill="none" stroke="white" stroke-width="1.5" d="M0,-3.0v7 M-2.5,-0.5L0,-3.0L2.5,-0.5"/>
                </g>
                <g id="arrowLeft" xlink:href="#dirArrow" transform="rotate(270) translate(-36 17)" onmousedown="handlePan(-1,0)">
                  <use xlink:href="#rim" fill="#404040">
                        <set attributeName="fill" to="#808080" begin="arrowLeft.mouseover" end="arrowLeft.mouseout"/>
                  </use>
                  <path fill="none" stroke="white" stroke-width="1.5" d="M0,-3.0v7 M-2.5,-0.5L0,-3.0L2.5,-0.5"/>
                </g>
        </g>
        <svg viewBox="0 0 15 15" width="100%" height="30px" preserveAspectRatio="xMaxYMin meet">
         <g id="arrow_out" transform="scale(0.3 0.3)">
          <a xlink:href="group__MedianBlurTB_gad0919afcfb3151dee3f8653944ea7185_cgraph_org.svg" target="_base">
           <rect id="button" ry="5" rx="5" y="6" x="6" height="38" width="38"
                fill="#f2f5e9" fill-opacity="0.5" stroke="#606060" stroke-width="1.0"/>
           <path id="arrow"
             d="M 11.500037,31.436501 C 11.940474,20.09759 22.043105,11.32322 32.158766,21.979434 L 37.068811,17.246167 C 37.068811,17.246167 37.088388,32 37.088388,32 L 22.160133,31.978069 C 22.160133,31.978069 26.997745,27.140456 26.997745,27.140456 C 18.528582,18.264221 13.291696,25.230495 11.500037,31.436501 z"
             style="fill:#404040;"/>
          </a>
         </g>
        </svg>
</svg>
