<?xml version="1.0" encoding="UTF-8" standalone="no"?>
<!DOCTYPE svg PUBLIC "-//W3C//DTD SVG 1.1//EN"
 "http://www.w3.org/Graphics/SVG/1.1/DTD/svg11.dtd">
<!-- Generated by graphviz version 2.43.0 (0)
 -->
<!-- Title: cFp_HelloKale Pages: 1 -->
<svg width="286pt" height="138pt"
 viewBox="0.00 0.00 286.00 138.00" xmlns="http://www.w3.org/2000/svg" xmlns:xlink="http://www.w3.org/1999/xlink">
<g id="graph0" class="graph" transform="scale(1 1) rotate(0) translate(4 134)">
<title>cFp_HelloKale</title>
<!-- Node6 -->
<g id="node1" class="node">
<title>Node6</title>
<g id="a_node1"><a xlink:href="group__udp__shell__if.html" target="_top" xlink:title="This module handles the control flow interface between the SHELL and the ROLE.">
<polygon fill="none" stroke="black" points="272.5,-130 197.5,-130 197.5,-111 272.5,-111 272.5,-130"/>
<text text-anchor="middle" x="235" y="-118" font-family="Helvetica,sans-Serif" font-size="10.00">udp_shell_if</text>
</a>
</g>
</g>
<!-- Node2 -->
<g id="node2" class="node">
<title>Node2</title>
<g id="a_node2"><a xlink:href="group__cFp.html" target="_top" xlink:title="cloudFPGA Projects (cFp). This is a group with existing projects developed with cFDK and can be used ...">
<polygon fill="none" stroke="black" points="34,-74 0,-74 0,-55 34,-55 34,-74"/>
<text text-anchor="middle" x="17" y="-62" font-family="Helvetica,sans-Serif" font-size="10.00">cFp</text>
</a>
</g>
</g>
<!-- Node1 -->
<g id="node5" class="node">
<title>Node1</title>
<g id="a_node5"><a xlink:title="This is the root of the current &#39;cFp_HelloKale&#39; project.">
<polygon fill="#bfbfbf" stroke="black" points="156,-74 70,-74 70,-55 156,-55 156,-74"/>
<text text-anchor="middle" x="113" y="-62" font-family="Helvetica,sans-Serif" font-size="10.00">cFp_HelloKale</text>
</a>
</g>
</g>
<!-- Node2&#45;&gt;Node1 -->
<g id="edge1" class="edge">
<title>Node2&#45;&gt;Node1</title>
<path fill="none" stroke="black" d="M44.47,-64.5C52.4,-64.5 61.3,-64.5 69.97,-64.5"/>
<polygon fill="black" stroke="black" points="44.37,-61 34.37,-64.5 44.37,-68 44.37,-61"/>
</g>
<!-- Node3 -->
<g id="node3" class="node">
<title>Node3</title>
<g id="a_node3"><a xlink:href="group__tcp__app__flash.html" target="_top" xlink:title="This module implements a set of TCP&#45;oriented tests and functions.">
<polygon fill="none" stroke="black" points="276.5,-93 193.5,-93 193.5,-74 276.5,-74 276.5,-93"/>
<text text-anchor="middle" x="235" y="-81" font-family="Helvetica,sans-Serif" font-size="10.00">tcp_app_flash</text>
</a>
</g>
</g>
<!-- Node4 -->
<g id="node4" class="node">
<title>Node4</title>
<g id="a_node4"><a xlink:href="group__tcp__shell__if.html" target="_top" xlink:title="This module handles the control flow interface between the SHELL and the ROLE.">
<polygon fill="none" stroke="black" points="271,-56 199,-56 199,-37 271,-37 271,-56"/>
<text text-anchor="middle" x="235" y="-44" font-family="Helvetica,sans-Serif" font-size="10.00">tcp_shell_if</text>
</a>
</g>
</g>
<!-- Node1&#45;&gt;Node6 -->
<g id="edge5" class="edge">
<title>Node1&#45;&gt;Node6</title>
<path fill="none" stroke="black" d="M142.22,-78.66C156.97,-85.95 175.37,-94.89 192,-102.5 198.2,-105.34 204.98,-108.3 211.24,-110.98"/>
<polygon fill="black" stroke="black" points="143.62,-75.45 133.11,-74.13 140.51,-81.71 143.62,-75.45"/>
</g>
<!-- Node1&#45;&gt;Node3 -->
<g id="edge2" class="edge">
<title>Node1&#45;&gt;Node3</title>
<path fill="none" stroke="black" d="M166.35,-72.79C175.37,-74.22 184.63,-75.68 193.28,-77.05"/>
<polygon fill="black" stroke="black" points="166.73,-69.31 156.31,-71.2 165.64,-76.22 166.73,-69.31"/>
</g>
<!-- Node1&#45;&gt;Node4 -->
<g id="edge3" class="edge">
<title>Node1&#45;&gt;Node4</title>
<path fill="none" stroke="black" d="M166.27,-56.66C177.27,-55.01 188.62,-53.31 198.81,-51.78"/>
<polygon fill="black" stroke="black" points="165.68,-53.21 156.31,-58.15 166.72,-60.13 165.68,-53.21"/>
</g>
<!-- Node5 -->
<g id="node6" class="node">
<title>Node5</title>
<g id="a_node6"><a xlink:href="group__udp__app__flash.html" target="_top" xlink:title="This module implements a set of UDP&#45;oriented tests and functions.">
<polygon fill="none" stroke="black" points="278,-19 192,-19 192,0 278,0 278,-19"/>
<text text-anchor="middle" x="235" y="-7" font-family="Helvetica,sans-Serif" font-size="10.00">udp_app_flash</text>
</a>
</g>
</g>
<!-- Node1&#45;&gt;Node5 -->
<g id="edge4" class="edge">
<title>Node1&#45;&gt;Node5</title>
<path fill="none" stroke="black" d="M142.86,-50.49C157.51,-43.46 175.64,-34.88 192,-27.5 198.22,-24.69 205,-21.74 211.26,-19.06"/>
<polygon fill="black" stroke="black" points="141.27,-47.37 133.78,-54.86 144.31,-53.68 141.27,-47.37"/>
</g>
</g>
</svg>
