<?xml version="1.0" encoding="UTF-8" standalone="no"?>
<!DOCTYPE svg PUBLIC "-//W3C//DTD SVG 1.1//EN"
 "http://www.w3.org/Graphics/SVG/1.1/DTD/svg11.dtd">
<!-- Generated by graphviz version 2.43.0 (0)
 -->
<!-- Title: cFDK Pages: 1 -->
<svg width="266pt" height="64pt"
 viewBox="0.00 0.00 266.00 64.00" xmlns="http://www.w3.org/2000/svg" xmlns:xlink="http://www.w3.org/1999/xlink">
<g id="graph0" class="graph" transform="scale(1 1) rotate(0) translate(4 60)">
<title>cFDK</title>
<!-- Node3 -->
<g id="node1" class="node">
<title>Node3</title>
<g id="a_node1"><a xlink:href="group__ShellLib.html" target="_top" xlink:title="This is the SHELL library of cloudFPGA platform with its three basic components, i....">
<polygon fill="none" stroke="black" points="258,-56 175,-56 175,-37 258,-37 258,-56"/>
<text text-anchor="middle" x="216.5" y="-44" font-family="Helvetica,sans-Serif" font-size="10.00">SHELL Library</text>
</a>
</g>
</g>
<!-- Node4 -->
<g id="node2" class="node">
<title>Node4</title>
<g id="a_node2"><a xlink:href="group__SRA.html" target="_top" xlink:title="Shell&#45;Role&#45;Architecture (SRA). To abstract the details of the hardware from the user and to assert ce...">
<polygon fill="none" stroke="black" points="234.5,-19 198.5,-19 198.5,0 234.5,0 234.5,-19"/>
<text text-anchor="middle" x="216.5" y="-7" font-family="Helvetica,sans-Serif" font-size="10.00">SRA</text>
</a>
</g>
</g>
<!-- Node2 -->
<g id="node3" class="node">
<title>Node2</title>
<g id="a_node3"><a xlink:href="group__cFSphere.html" target="_top" xlink:title="The cloudFPGA Sphere or cFSphere is what constitutes the core of a cloudFPGA system....">
<polygon fill="none" stroke="black" points="61,-37 0,-37 0,-18 61,-18 61,-37"/>
<text text-anchor="middle" x="30.5" y="-25" font-family="Helvetica,sans-Serif" font-size="10.00">cFSphere</text>
</a>
</g>
</g>
<!-- Node1 -->
<g id="node4" class="node">
<title>Node1</title>
<g id="a_node4"><a xlink:title="This is the cloudFPGA Development Kit (cFDK). The documentation of cFDK is available at https://pages...">
<polygon fill="#bfbfbf" stroke="black" points="139,-37 97,-37 97,-18 139,-18 139,-37"/>
<text text-anchor="middle" x="118" y="-25" font-family="Helvetica,sans-Serif" font-size="10.00">cFDK</text>
</a>
</g>
</g>
<!-- Node2&#45;&gt;Node1 -->
<g id="edge1" class="edge">
<title>Node2&#45;&gt;Node1</title>
<path fill="none" stroke="black" d="M71.57,-27.5C80.36,-27.5 89.31,-27.5 96.91,-27.5"/>
<polygon fill="black" stroke="black" points="71.4,-24 61.4,-27.5 71.4,-31 71.4,-24"/>
</g>
<!-- Node1&#45;&gt;Node3 -->
<g id="edge2" class="edge">
<title>Node1&#45;&gt;Node3</title>
<path fill="none" stroke="black" d="M149.49,-33.5C157.52,-35.09 166.32,-36.82 174.79,-38.49"/>
<polygon fill="black" stroke="black" points="149.95,-30.03 139.47,-31.53 148.6,-36.9 149.95,-30.03"/>
</g>
<!-- Node1&#45;&gt;Node4 -->
<g id="edge3" class="edge">
<title>Node1&#45;&gt;Node4</title>
<path fill="none" stroke="black" d="M149.51,-21.81C165.61,-18.81 184.77,-15.23 198.29,-12.71"/>
<polygon fill="black" stroke="black" points="148.65,-18.41 139.47,-23.68 149.94,-25.29 148.65,-18.41"/>
</g>
</g>
</svg>
