<?xml version="1.0" encoding="UTF-8" standalone="no"?>
<!DOCTYPE svg PUBLIC "-//W3C//DTD SVG 1.1//EN"
 "http://www.w3.org/Graphics/SVG/1.1/DTD/svg11.dtd">
<!-- Generated by graphviz version 2.43.0 (0)
 -->
<!-- Title: toe_top Pages: 1 -->
<!--zoomable 1243 -->
<svg id="main" version="1.1" xmlns="http://www.w3.org/2000/svg" xmlns:xlink="http://www.w3.org/1999/xlink" xml:space="preserve" onload="init(evt)">
<style type="text/css"><![CDATA[
.edge:hover path { stroke: red; }
.edge:hover polygon { stroke: red; fill: red; }
]]></style>
<script type="text/javascript"><![CDATA[
var edges = document.getElementsByTagName('g');
if (edges && edges.length) {
  for (var i=0;i<edges.length;i++) {
    if (edges[i].id.substr(0,4)=='edge') {
      edges[i].setAttribute('class','edge');
    }
  }
}
]]></script>
        <defs>
                <circle id="rim" cx="0" cy="0" r="7"/>
                <circle id="rim2" cx="0" cy="0" r="3.5"/>
                <g id="zoomPlus">
                        <use xlink:href="#rim" fill="#404040">
                                <set attributeName="fill" to="#808080" begin="zoomplus.mouseover" end="zoomplus.mouseout"/>
                        </use>
                        <path d="M-4,0h8M0,-4v8" fill="none" stroke="white" stroke-width="1.5" pointer-events="none"/>
                </g>
                <g id="zoomMin">
                        <use xlink:href="#rim" fill="#404040">
                                <set attributeName="fill" to="#808080" begin="zoomminus.mouseover" end="zoomminus.mouseout"/>
                        </use>
                        <path d="M-4,0h8" fill="none" stroke="white" stroke-width="1.5" pointer-events="none"/>
                </g>
                <g id="dirArrow">
                        <path fill="none" stroke="white" stroke-width="1.5" d="M0,-3.0v7 M-2.5,-0.5L0,-3.0L2.5,-0.5"/>
                </g>
               <g id="resetDef">
                       <use xlink:href="#rim2" fill="#404040">
                               <set attributeName="fill" to="#808080" begin="reset.mouseover" end="reset.mouseout"/>
                       </use>
               </g>
        </defs>

<script type="text/javascript">
var viewWidth = 661;
var viewHeight = 1243;
var sectionId = 'dynsection-87';
</script>
<script xlink:href="svgpan.js"/>
<svg id="graph" class="graph">
<g id="viewport">
<title>toe_top</title>
<!-- Node1 -->
<g id="node1" class="node">
<title>Node1</title>
<g id="a_node1"><a xlink:title="Top of TCP Offload Engine (TOE)">
<polygon fill="#bfbfbf" stroke="black" points="0,-627.5 0,-646.5 53,-646.5 53,-627.5 0,-627.5"/>
<text text-anchor="middle" x="26.5" y="-634.5" font-family="Helvetica,sans-Serif" font-size="10.00">toe_top</text>
</a>
</g>
</g>
<!-- Node2 -->
<g id="node2" class="node">
<title>Node2</title>
<g id="a_node2"><a xlink:href="group__NTS.html#ga74e23a2961eb9096ea37ab7c06d3fa7e" target="_top" xlink:title="AxisRaw cast &#45; Casts an AxisRaw stream to/from an AxisRaw derived class.">
<polygon fill="none" stroke="black" points="89,-646.5 89,-665.5 175,-665.5 175,-646.5 89,-646.5"/>
<text text-anchor="middle" x="132" y="-653.5" font-family="Helvetica,sans-Serif" font-size="10.00">pAxisRawCast</text>
</a>
</g>
</g>
<!-- Node1&#45;&gt;Node2 -->
<g id="edge1" class="edge">
<title>Node1&#45;&gt;Node2</title>
<path fill="none" stroke="midnightblue" d="M53.08,-641.7C60.91,-643.13 69.83,-644.77 78.76,-646.41"/>
<polygon fill="midnightblue" stroke="midnightblue" points="78.33,-649.89 88.8,-648.25 79.59,-643 78.33,-649.89"/>
</g>
<!-- Node3 -->
<g id="node3" class="node">
<title>Node3</title>
<g id="a_node3"><a xlink:href="group__NTS__TOE.html#ga1d48efdcf37aa3803a7f7444fe485c9f" target="_top" xlink:title="Main process of the TCP Offload Engine (TOE0.">
<polygon fill="none" stroke="black" points="116,-608.5 116,-627.5 148,-627.5 148,-608.5 116,-608.5"/>
<text text-anchor="middle" x="132" y="-615.5" font-family="Helvetica,sans-Serif" font-size="10.00">toe</text>
</a>
</g>
</g>
<!-- Node1&#45;&gt;Node3 -->
<g id="edge2" class="edge">
<title>Node1&#45;&gt;Node3</title>
<path fill="none" stroke="midnightblue" d="M53.08,-632.3C69.13,-629.36 89.74,-625.57 105.73,-622.64"/>
<polygon fill="midnightblue" stroke="midnightblue" points="106.75,-626.01 115.95,-620.76 105.48,-619.13 106.75,-626.01"/>
</g>
<!-- Node4 -->
<g id="node4" class="node">
<title>Node4</title>
<g id="a_node4"><a xlink:href="group__NTS__TOE.html#ga3a408fda17a277caf8dd290876661eee" target="_top" xlink:title="ACK Delayer (AKd)">
<polygon fill="none" stroke="black" points="249.5,-1140.5 249.5,-1159.5 315.5,-1159.5 315.5,-1140.5 249.5,-1140.5"/>
<text text-anchor="middle" x="282.5" y="-1147.5" font-family="Helvetica,sans-Serif" font-size="10.00">ack_delay</text>
</a>
</g>
</g>
<!-- Node3&#45;&gt;Node4 -->
<g id="edge3" class="edge">
<title>Node3&#45;&gt;Node4</title>
<path fill="none" stroke="midnightblue" d="M148.34,-620.84C157.64,-623.41 168.86,-628.21 175,-637 238,-727.26 140.92,-1046.12 211,-1131 218.11,-1139.61 228.66,-1144.54 239.46,-1147.31"/>
<polygon fill="midnightblue" stroke="midnightblue" points="238.85,-1150.76 249.34,-1149.29 240.23,-1143.89 238.85,-1150.76"/>
</g>
<!-- Node5 -->
<g id="node5" class="node">
<title>Node5</title>
<g id="a_node5"><a xlink:href="group__NTS__TOE.html#ga84c617e90fb4be3ad03bbfd408750bfb" target="_top" xlink:title="The Event Engine (EVe) arbitrates the incoming events and forwards them to the Tx Engine (TXe) via th...">
<polygon fill="none" stroke="black" points="241,-1102.5 241,-1121.5 324,-1121.5 324,-1102.5 241,-1102.5"/>
<text text-anchor="middle" x="282.5" y="-1109.5" font-family="Helvetica,sans-Serif" font-size="10.00">event_engine</text>
</a>
</g>
</g>
<!-- Node3&#45;&gt;Node5 -->
<g id="edge4" class="edge">
<title>Node3&#45;&gt;Node5</title>
<path fill="none" stroke="midnightblue" d="M148.32,-620.85C157.62,-623.43 168.84,-628.22 175,-637 233.43,-720.18 146.05,-1014.81 211,-1093 216.3,-1099.38 223.49,-1103.74 231.26,-1106.69"/>
<polygon fill="midnightblue" stroke="midnightblue" points="230.36,-1110.08 240.95,-1109.64 232.4,-1103.38 230.36,-1110.08"/>
</g>
<!-- Node7 -->
<g id="node7" class="node">
<title>Node7</title>
<g id="a_node7"><a xlink:href="group__NTS__TOE.html#ga65e60a548cb3c1d1b77ea2a17b1520f5" target="_top" xlink:title="Port Table (PRt)">
<polygon fill="none" stroke="black" points="249.5,-1064.5 249.5,-1083.5 315.5,-1083.5 315.5,-1064.5 249.5,-1064.5"/>
<text text-anchor="middle" x="282.5" y="-1071.5" font-family="Helvetica,sans-Serif" font-size="10.00">port_table</text>
</a>
</g>
</g>
<!-- Node3&#45;&gt;Node7 -->
<g id="edge6" class="edge">
<title>Node3&#45;&gt;Node7</title>
<path fill="none" stroke="midnightblue" d="M148.23,-620.92C157.48,-623.53 168.7,-628.33 175,-637 217.46,-695.42 187.43,-891.73 211,-960 223.82,-997.15 250.41,-1034.89 267.02,-1056.28"/>
<polygon fill="midnightblue" stroke="midnightblue" points="264.5,-1058.74 273.46,-1064.4 269.98,-1054.39 264.5,-1058.74"/>
</g>
<!-- Node13 -->
<g id="node13" class="node">
<title>Node13</title>
<g id="a_node13"><a xlink:href="group__NTS__TOE.html#ga96db63910d6e9a9e97b70c6e8ce8aac9" target="_top" xlink:title="Ready (Rdy)">
<polygon fill="none" stroke="black" points="256,-931.5 256,-950.5 309,-950.5 309,-931.5 256,-931.5"/>
<text text-anchor="middle" x="282.5" y="-938.5" font-family="Helvetica,sans-Serif" font-size="10.00">pReady</text>
</a>
</g>
</g>
<!-- Node3&#45;&gt;Node13 -->
<g id="edge12" class="edge">
<title>Node3&#45;&gt;Node13</title>
<path fill="none" stroke="midnightblue" d="M148.19,-620.95C157.42,-623.57 168.63,-628.37 175,-637 250.82,-739.72 127.14,-825.73 211,-922 219.74,-932.03 233.16,-937.03 245.96,-939.44"/>
<polygon fill="midnightblue" stroke="midnightblue" points="245.59,-942.92 255.98,-940.86 246.57,-935.99 245.59,-942.92"/>
</g>
<!-- Node14 -->
<g id="node14" class="node">
<title>Node14</title>
<g id="a_node14"><a xlink:href="group__NTS__TOE.html#gac93356e0c255a102be508c0aa7d25907" target="_top" xlink:title="Testbench Simulation Counter.">
<polygon fill="none" stroke="black" points="241.5,-893.5 241.5,-912.5 323.5,-912.5 323.5,-893.5 241.5,-893.5"/>
<text text-anchor="middle" x="282.5" y="-900.5" font-family="Helvetica,sans-Serif" font-size="10.00">pTbSimCount</text>
</a>
</g>
</g>
<!-- Node3&#45;&gt;Node14 -->
<g id="edge13" class="edge">
<title>Node3&#45;&gt;Node14</title>
<path fill="none" stroke="midnightblue" d="M148.13,-621C157.34,-623.63 168.55,-628.43 175,-637 241.73,-725.63 137.34,-801.05 211,-884 216.51,-890.2 223.8,-894.47 231.61,-897.4"/>
<polygon fill="midnightblue" stroke="midnightblue" points="230.72,-900.78 241.3,-900.33 232.75,-894.08 230.72,-900.78"/>
</g>
<!-- Node15 -->
<g id="node15" class="node">
<title>Node15</title>
<g id="a_node15"><a xlink:href="group__NTS__TOE.html#gab4f7446f871fb2d6ef4ff4abf028af96" target="_top" xlink:title="Rx Application Interface (RAi)">
<polygon fill="none" stroke="black" points="233.5,-855.5 233.5,-874.5 331.5,-874.5 331.5,-855.5 233.5,-855.5"/>
<text text-anchor="middle" x="282.5" y="-862.5" font-family="Helvetica,sans-Serif" font-size="10.00">rx_app_interface</text>
</a>
</g>
</g>
<!-- Node3&#45;&gt;Node15 -->
<g id="edge14" class="edge">
<title>Node3&#45;&gt;Node15</title>
<path fill="none" stroke="midnightblue" d="M148.13,-621.96C156.88,-624.9 167.6,-629.69 175,-637 237.04,-698.29 267.08,-802.63 277.31,-845.62"/>
<polygon fill="midnightblue" stroke="midnightblue" points="273.9,-846.41 279.53,-855.38 280.72,-844.85 273.9,-846.41"/>
</g>
<!-- Node33 -->
<g id="node21" class="node">
<title>Node33</title>
<g id="a_node21"><a xlink:href="group__NTS__TOE.html#ga1682a5e1b442e8347cda40bb8c695487" target="_top" xlink:title="Receive Engine (RXe)">
<polygon fill="none" stroke="black" points="250,-627.5 250,-646.5 315,-646.5 315,-627.5 250,-627.5"/>
<text text-anchor="middle" x="282.5" y="-634.5" font-family="Helvetica,sans-Serif" font-size="10.00">rx_engine</text>
</a>
</g>
</g>
<!-- Node3&#45;&gt;Node33 -->
<g id="edge20" class="edge">
<title>Node3&#45;&gt;Node33</title>
<path fill="none" stroke="midnightblue" d="M148.06,-619.93C169.39,-622.66 209.22,-627.75 239.83,-631.67"/>
<polygon fill="midnightblue" stroke="midnightblue" points="239.45,-635.15 249.82,-632.95 240.34,-628.21 239.45,-635.15"/>
</g>
<!-- Node70 -->
<g id="node32" class="node">
<title>Node70</title>
<g id="a_node32"><a xlink:href="group__NTS__TOE.html#ga3a134dee2618bebffe94b46d846ac2dc" target="_top" xlink:title="Rx SAR Table (RSt)">
<polygon fill="none" stroke="black" points="244,-589.5 244,-608.5 321,-608.5 321,-589.5 244,-589.5"/>
<text text-anchor="middle" x="282.5" y="-596.5" font-family="Helvetica,sans-Serif" font-size="10.00">rx_sar_table</text>
</a>
</g>
</g>
<!-- Node3&#45;&gt;Node70 -->
<g id="edge31" class="edge">
<title>Node3&#45;&gt;Node70</title>
<path fill="none" stroke="midnightblue" d="M148.06,-616.07C167.98,-613.52 204.03,-608.91 233.64,-605.12"/>
<polygon fill="midnightblue" stroke="midnightblue" points="234.33,-608.56 243.81,-603.82 233.44,-601.62 234.33,-608.56"/>
</g>
<!-- Node71 -->
<g id="node33" class="node">
<title>Node71</title>
<g id="a_node33"><a xlink:href="group__NTS__TOE.html#ga444b23bab1124865117f8f6404e52be6" target="_top" xlink:title="Session Lookup Controller (SLc)">
<polygon fill="none" stroke="black" points="211,-380.5 211,-399.5 354,-399.5 354,-380.5 211,-380.5"/>
<text text-anchor="middle" x="282.5" y="-387.5" font-family="Helvetica,sans-Serif" font-size="10.00">session_lookup_controller</text>
</a>
</g>
</g>
<!-- Node3&#45;&gt;Node71 -->
<g id="edge32" class="edge">
<title>Node3&#45;&gt;Node71</title>
<path fill="none" stroke="midnightblue" d="M139.19,-608.49C161.74,-573.87 239.71,-454.16 269.66,-408.18"/>
<polygon fill="midnightblue" stroke="midnightblue" points="272.76,-409.84 275.28,-399.55 266.89,-406.02 272.76,-409.84"/>
</g>
<!-- Node77 -->
<g id="node39" class="node">
<title>Node77</title>
<g id="a_node39"><a xlink:href="group__NTS__TOE.html#ga698e23779719b1a14f4c117d33dd9e40" target="_top" xlink:title="State Table (STt)">
<polygon fill="none" stroke="black" points="247,-342.5 247,-361.5 318,-361.5 318,-342.5 247,-342.5"/>
<text text-anchor="middle" x="282.5" y="-349.5" font-family="Helvetica,sans-Serif" font-size="10.00">state_table</text>
</a>
</g>
</g>
<!-- Node3&#45;&gt;Node77 -->
<g id="edge38" class="edge">
<title>Node3&#45;&gt;Node77</title>
<path fill="none" stroke="midnightblue" d="M132.96,-608.28C133.36,-571.46 139.89,-439.14 211,-371 218.13,-364.17 227.46,-359.73 236.97,-356.87"/>
<polygon fill="midnightblue" stroke="midnightblue" points="238.01,-360.22 246.88,-354.42 236.33,-353.42 238.01,-360.22"/>
</g>
<!-- Node78 -->
<g id="node40" class="node">
<title>Node78</title>
<g id="a_node40"><a xlink:href="group__NTS__TOE.html#ga46f4de3abe0f59a858a2b04fd871a2b2" target="_top" xlink:title="The Timers (TIm)">
<polygon fill="none" stroke="black" points="258.5,-190.5 258.5,-209.5 306.5,-209.5 306.5,-190.5 258.5,-190.5"/>
<text text-anchor="middle" x="282.5" y="-197.5" font-family="Helvetica,sans-Serif" font-size="10.00">timers</text>
</a>
</g>
</g>
<!-- Node3&#45;&gt;Node78 -->
<g id="edge39" class="edge">
<title>Node3&#45;&gt;Node78</title>
<path fill="none" stroke="midnightblue" d="M134.82,-608.41C141.95,-571.76 169.61,-437.44 211,-333 227.91,-290.32 254.81,-243.58 270.03,-218.46"/>
<polygon fill="midnightblue" stroke="midnightblue" points="273.18,-220.01 275.42,-209.65 267.21,-216.35 273.18,-220.01"/>
</g>
<!-- Node83 -->
<g id="node45" class="node">
<title>Node83</title>
<g id="a_node45"><a xlink:href="group__NTS__TOE.html#ga62e5335de2bf31638c3ee44dba4a14f2" target="_top" xlink:title="Tx Application Interface (TAi)">
<polygon fill="none" stroke="red" points="233.5,-114.5 233.5,-133.5 331.5,-133.5 331.5,-114.5 233.5,-114.5"/>
<text text-anchor="middle" x="282.5" y="-121.5" font-family="Helvetica,sans-Serif" font-size="10.00">tx_app_interface</text>
</a>
</g>
</g>
<!-- Node3&#45;&gt;Node83 -->
<g id="edge44" class="edge">
<title>Node3&#45;&gt;Node83</title>
<path fill="none" stroke="midnightblue" d="M133.82,-608.13C138.76,-550.51 165.81,-257.47 211,-181 221.44,-163.33 239.54,-148.87 254.78,-138.94"/>
<polygon fill="midnightblue" stroke="midnightblue" points="256.7,-141.87 263.35,-133.62 253.01,-135.92 256.7,-141.87"/>
</g>
<!-- Node90 -->
<g id="node49" class="node">
<title>Node90</title>
<g id="a_node49"><a xlink:href="group__NTS__TOE.html#gab7ba01372a1e4397ba0ce6d9cbb398eb" target="_top" xlink:title="Transmit Engine (TXe)">
<polygon fill="none" stroke="red" points="250,-76.5 250,-95.5 315,-95.5 315,-76.5 250,-76.5"/>
<text text-anchor="middle" x="282.5" y="-83.5" font-family="Helvetica,sans-Serif" font-size="10.00">tx_engine</text>
</a>
</g>
</g>
<!-- Node3&#45;&gt;Node90 -->
<g id="edge50" class="edge">
<title>Node3&#45;&gt;Node90</title>
<path fill="none" stroke="midnightblue" d="M133.08,-608.22C133.82,-544.02 141.07,-183.26 211,-105 218.44,-96.68 229.1,-91.83 239.88,-89.06"/>
<polygon fill="midnightblue" stroke="midnightblue" points="240.64,-92.48 249.74,-87.05 239.24,-85.62 240.64,-92.48"/>
</g>
<!-- Node140 -->
<g id="node50" class="node">
<title>Node140</title>
<g id="a_node50"><a xlink:href="group__NTS__TOE.html#ga481496040191df9d843cc941e9152671" target="_top" xlink:title="Tx Sar Table (TSt). Stores the data structures for managing the TCP Tx buffer and Tx sliding window.">
<polygon fill="none" stroke="black" points="244,-38.5 244,-57.5 321,-57.5 321,-38.5 244,-38.5"/>
<text text-anchor="middle" x="282.5" y="-45.5" font-family="Helvetica,sans-Serif" font-size="10.00">tx_sar_table</text>
</a>
</g>
</g>
<!-- Node3&#45;&gt;Node140 -->
<g id="edge51" class="edge">
<title>Node3&#45;&gt;Node140</title>
<path fill="none" stroke="midnightblue" d="M132.97,-608.37C132.96,-541.92 136.12,-151.68 211,-67 217.04,-60.17 225.25,-55.68 233.94,-52.75"/>
<polygon fill="midnightblue" stroke="midnightblue" points="235.12,-56.06 243.86,-50.07 233.29,-49.3 235.12,-56.06"/>
</g>
<!-- Node6 -->
<g id="node6" class="node">
<title>Node6</title>
<g id="a_node6"><a xlink:href="group__NTS__TOE.html#ga5e6007e5ed6815ea1956ce32d588c07a" target="_top" xlink:title="Returns the name of an enum&#45;based event as a user friendly string.">
<polygon fill="none" stroke="black" points="564,-608.5 564,-627.5 653,-627.5 653,-608.5 564,-608.5"/>
<text text-anchor="middle" x="608.5" y="-615.5" font-family="Helvetica,sans-Serif" font-size="10.00">getEventName</text>
</a>
</g>
</g>
<!-- Node5&#45;&gt;Node6 -->
<g id="edge5" class="edge">
<title>Node5&#45;&gt;Node6</title>
<path fill="none" stroke="midnightblue" d="M324.04,-1116.67C334.68,-1119.47 345.54,-1123.93 354,-1131 382.69,-1154.96 358.42,-1187.01 390,-1207 441.83,-1239.8 481.82,-1247.36 528,-1207 572,-1168.54 600.38,-736.95 606.33,-638.09"/>
<polygon fill="midnightblue" stroke="midnightblue" points="609.83,-638.15 606.93,-627.96 602.85,-637.73 609.83,-638.15"/>
</g>
<!-- Node8 -->
<g id="node8" class="node">
<title>Node8</title>
<g id="a_node8"><a xlink:href="group__NTS__TOE.html#gae5817c1d635ab4f37fac1c12e110166d" target="_top" xlink:title="Free Port Table (Fpt)">
<polygon fill="none" stroke="black" points="414.5,-1178.5 414.5,-1197.5 503.5,-1197.5 503.5,-1178.5 414.5,-1178.5"/>
<text text-anchor="middle" x="459" y="-1185.5" font-family="Helvetica,sans-Serif" font-size="10.00">pFreePortTable</text>
</a>
</g>
</g>
<!-- Node7&#45;&gt;Node8 -->
<g id="edge7" class="edge">
<title>Node7&#45;&gt;Node8</title>
<path fill="none" stroke="midnightblue" d="M315.69,-1076.77C328.78,-1079.3 343.3,-1084.06 354,-1093 382.69,-1116.96 361.42,-1144.91 390,-1169 394.33,-1172.65 399.32,-1175.61 404.59,-1178"/>
<polygon fill="midnightblue" stroke="midnightblue" points="403.69,-1181.4 414.28,-1181.71 406.19,-1174.86 403.69,-1181.4"/>
</g>
<!-- Node9 -->
<g id="node9" class="node">
<title>Node9</title>
<g id="a_node9"><a xlink:href="group__NTS__TOE.html#gaad58c7f3c010ba344f14b86fbb21d747" target="_top" xlink:title="Input Request Router (Irr)">
<polygon fill="none" stroke="black" points="399.5,-1140.5 399.5,-1159.5 518.5,-1159.5 518.5,-1140.5 399.5,-1140.5"/>
<text text-anchor="middle" x="459" y="-1147.5" font-family="Helvetica,sans-Serif" font-size="10.00">pInputRequestRouter</text>
</a>
</g>
</g>
<!-- Node7&#45;&gt;Node9 -->
<g id="edge8" class="edge">
<title>Node7&#45;&gt;Node9</title>
<path fill="none" stroke="midnightblue" d="M315.51,-1078.76C328.12,-1081.59 342.35,-1086.05 354,-1093 373.98,-1104.92 370.08,-1118.99 390,-1131 393.6,-1133.17 397.46,-1135.1 401.44,-1136.82"/>
<polygon fill="midnightblue" stroke="midnightblue" points="400.3,-1140.13 410.89,-1140.44 402.81,-1133.59 400.3,-1140.13"/>
</g>
<!-- Node10 -->
<g id="node10" class="node">
<title>Node10</title>
<g id="a_node10"><a xlink:href="group__NTS__TOE.html#ga52f3c07f340c764adbeede59f6de2576" target="_top" xlink:title="Listening Port Table (Lpt)">
<polygon fill="none" stroke="black" points="403,-1102.5 403,-1121.5 515,-1121.5 515,-1102.5 403,-1102.5"/>
<text text-anchor="middle" x="459" y="-1109.5" font-family="Helvetica,sans-Serif" font-size="10.00">pListeningPortTable</text>
</a>
</g>
</g>
<!-- Node7&#45;&gt;Node10 -->
<g id="edge9" class="edge">
<title>Node7&#45;&gt;Node10</title>
<path fill="none" stroke="midnightblue" d="M315.51,-1080.97C340.33,-1086.37 375.28,-1093.99 404.35,-1100.32"/>
<polygon fill="midnightblue" stroke="midnightblue" points="403.85,-1103.79 414.37,-1102.5 405.34,-1096.95 403.85,-1103.79"/>
</g>
<!-- Node11 -->
<g id="node11" class="node">
<title>Node11</title>
<g id="a_node11"><a xlink:href="group__NTS__TOE.html#ga023f599b79d7b58c6dacb110bb7ce938" target="_top" xlink:title="Output Reply Multiplexer (Orm)">
<polygon fill="none" stroke="black" points="390,-1064.5 390,-1083.5 528,-1083.5 528,-1064.5 390,-1064.5"/>
<text text-anchor="middle" x="459" y="-1071.5" font-family="Helvetica,sans-Serif" font-size="10.00">pOutputReplyMultiplexer</text>
</a>
</g>
</g>
<!-- Node7&#45;&gt;Node11 -->
<g id="edge10" class="edge">
<title>Node7&#45;&gt;Node11</title>
<path fill="none" stroke="midnightblue" d="M315.51,-1074C333.51,-1074 356.84,-1074 379.4,-1074"/>
<polygon fill="midnightblue" stroke="midnightblue" points="379.69,-1077.5 389.69,-1074 379.69,-1070.5 379.69,-1077.5"/>
</g>
<!-- Node12 -->
<g id="node12" class="node">
<title>Node12</title>
<g id="a_node12"><a xlink:href="group__NTS__TOE.html#ga928a1cd7afdad43915c9dacd7a944bc7" target="_top" xlink:title="Ready Logic (Rdy)">
<polygon fill="none" stroke="black" points="432.5,-1026.5 432.5,-1045.5 485.5,-1045.5 485.5,-1026.5 432.5,-1026.5"/>
<text text-anchor="middle" x="459" y="-1033.5" font-family="Helvetica,sans-Serif" font-size="10.00">pReady</text>
</a>
</g>
</g>
<!-- Node7&#45;&gt;Node12 -->
<g id="edge11" class="edge">
<title>Node7&#45;&gt;Node12</title>
<path fill="none" stroke="midnightblue" d="M315.51,-1067.03C345.74,-1060.45 391,-1050.59 422.37,-1043.76"/>
<polygon fill="midnightblue" stroke="midnightblue" points="423.41,-1047.12 432.43,-1041.57 421.92,-1040.28 423.41,-1047.12"/>
</g>
<!-- Node16 -->
<g id="node16" class="node">
<title>Node16</title>
<g id="a_node16"><a xlink:href="group__NTS__TOE.html#gae9c5ef779baf69d1ea4713cdd085f3e0" target="_top" xlink:title="Application Segment Stitcher (Ass)">
<polygon fill="none" stroke="red" points="398,-988.5 398,-1007.5 520,-1007.5 520,-988.5 398,-988.5"/>
<text text-anchor="middle" x="459" y="-995.5" font-family="Helvetica,sans-Serif" font-size="10.00">pAppSegmentStitcher</text>
</a>
</g>
</g>
<!-- Node15&#45;&gt;Node16 -->
<g id="edge15" class="edge">
<title>Node15&#45;&gt;Node16</title>
<path fill="none" stroke="midnightblue" d="M331.75,-871.45C339.88,-874.28 347.7,-878.3 354,-884 387.47,-914.31 356.67,-948.54 390,-979 391.73,-980.58 393.58,-982.03 395.52,-983.36"/>
<polygon fill="midnightblue" stroke="midnightblue" points="394.11,-986.58 404.54,-988.46 397.55,-980.49 394.11,-986.58"/>
</g>
<!-- Node29 -->
<g id="node17" class="node">
<title>Node29</title>
<g id="a_node17"><a xlink:href="group__NTS__TOE.html#gac85951c14e4dc9f6bca17faba5d97d36" target="_top" xlink:title="Listen Application Interface (Lai)">
<polygon fill="none" stroke="black" points="408.5,-950.5 408.5,-969.5 509.5,-969.5 509.5,-950.5 408.5,-950.5"/>
<text text-anchor="middle" x="459" y="-957.5" font-family="Helvetica,sans-Serif" font-size="10.00">pLsnAppInterface</text>
</a>
</g>
</g>
<!-- Node15&#45;&gt;Node29 -->
<g id="edge16" class="edge">
<title>Node15&#45;&gt;Node29</title>
<path fill="none" stroke="midnightblue" d="M331.6,-872.78C339.56,-875.48 347.37,-879.11 354,-884 378.12,-901.78 365.97,-923.11 390,-941 392.84,-943.11 395.9,-944.99 399.1,-946.66"/>
<polygon fill="midnightblue" stroke="midnightblue" points="397.86,-949.94 408.42,-950.84 400.73,-943.55 397.86,-949.94"/>
</g>
<!-- Node30 -->
<g id="node18" class="node">
<title>Node30</title>
<g id="a_node18"><a xlink:href="group__NTS__TOE.html#ga623d2fbaf10970a15e33d3d1146970a2" target="_top" xlink:title="Rx Notification Multiplexer (Nmx)">
<polygon fill="none" stroke="black" points="409,-912.5 409,-931.5 509,-931.5 509,-912.5 409,-912.5"/>
<text text-anchor="middle" x="459" y="-919.5" font-family="Helvetica,sans-Serif" font-size="10.00">pNotificationMux</text>
</a>
</g>
</g>
<!-- Node15&#45;&gt;Node30 -->
<g id="edge17" class="edge">
<title>Node15&#45;&gt;Node30</title>
<path fill="none" stroke="midnightblue" d="M325.01,-874.54C334.66,-877.21 344.8,-880.38 354,-884 370.84,-890.62 373.19,-896.31 390,-903 395.9,-905.35 402.21,-907.53 408.5,-909.51"/>
<polygon fill="midnightblue" stroke="midnightblue" points="407.75,-912.94 418.33,-912.45 409.76,-906.23 407.75,-912.94"/>
</g>
<!-- Node31 -->
<g id="node19" class="node">
<title>Node31</title>
<g id="a_node19"><a xlink:href="group__NTS__TOE.html#gade183c10c8a43bdc21b5a2625b01ff9c" target="_top" xlink:title="Rx Application Stream (RAs)">
<polygon fill="none" stroke="black" points="414.5,-874.5 414.5,-893.5 503.5,-893.5 503.5,-874.5 414.5,-874.5"/>
<text text-anchor="middle" x="459" y="-881.5" font-family="Helvetica,sans-Serif" font-size="10.00">pRxAppStream</text>
</a>
</g>
</g>
<!-- Node15&#45;&gt;Node31 -->
<g id="edge18" class="edge">
<title>Node15&#45;&gt;Node31</title>
<path fill="none" stroke="midnightblue" d="M331.64,-870.24C354.23,-872.7 381.22,-875.64 404.45,-878.17"/>
<polygon fill="midnightblue" stroke="midnightblue" points="404.17,-881.66 414.49,-879.26 404.92,-874.7 404.17,-881.66"/>
</g>
<!-- Node32 -->
<g id="node20" class="node">
<title>Node32</title>
<g id="a_node20"><a xlink:href="group__NTS__TOE.html#ga1ed9401f37523e6519f504777c42e3a2" target="_top" xlink:title="Rx Memory Reader (Mrd)">
<polygon fill="none" stroke="black" points="404,-836.5 404,-855.5 514,-855.5 514,-836.5 404,-836.5"/>
<text text-anchor="middle" x="459" y="-843.5" font-family="Helvetica,sans-Serif" font-size="10.00">pRxMemoryReader</text>
</a>
</g>
</g>
<!-- Node15&#45;&gt;Node32 -->
<g id="edge19" class="edge">
<title>Node15&#45;&gt;Node32</title>
<path fill="none" stroke="midnightblue" d="M331.64,-859.76C350.8,-857.67 373.13,-855.24 393.65,-853.01"/>
<polygon fill="midnightblue" stroke="midnightblue" points="394.3,-856.46 403.86,-851.89 393.54,-849.5 394.3,-856.46"/>
</g>
<!-- Node34 -->
<g id="node22" class="node">
<title>Node34</title>
<g id="a_node22"><a xlink:href="group__NTS__TOE.html#gad78e6dd5ce1bf5f5b9de484b12d7bf81" target="_top" xlink:title="TCP checksum accumulator (Csa)">
<polygon fill="none" stroke="red" points="391,-798.5 391,-817.5 527,-817.5 527,-798.5 391,-798.5"/>
<text text-anchor="middle" x="459" y="-805.5" font-family="Helvetica,sans-Serif" font-size="10.00">pCheckSumAccumulator</text>
</a>
</g>
</g>
<!-- Node33&#45;&gt;Node34 -->
<g id="edge21" class="edge">
<title>Node33&#45;&gt;Node34</title>
<path fill="none" stroke="midnightblue" d="M287.39,-646.55C298.83,-673.4 335.04,-750.09 390,-789 392.84,-791.01 395.88,-792.81 399.05,-794.41"/>
<polygon fill="midnightblue" stroke="midnightblue" points="397.68,-797.63 408.24,-798.46 400.5,-791.23 397.68,-797.63"/>
</g>
<!-- Node52 -->
<g id="node23" class="node">
<title>Node52</title>
<g id="a_node23"><a xlink:href="group__NTS__TOE.html#gada2752b8afd814db589ba0fcc01339de" target="_top" xlink:title="Event Multiplexer (Evm)">
<polygon fill="none" stroke="black" points="406.5,-760.5 406.5,-779.5 511.5,-779.5 511.5,-760.5 406.5,-760.5"/>
<text text-anchor="middle" x="459" y="-767.5" font-family="Helvetica,sans-Serif" font-size="10.00">pEventMultiplexer</text>
</a>
</g>
</g>
<!-- Node33&#45;&gt;Node52 -->
<g id="edge22" class="edge">
<title>Node33&#45;&gt;Node52</title>
<path fill="none" stroke="midnightblue" d="M289.69,-646.61C304.35,-668.58 343.47,-722.73 390,-751 393.59,-753.18 397.45,-755.12 401.42,-756.85"/>
<polygon fill="midnightblue" stroke="midnightblue" points="400.28,-760.15 410.87,-760.48 402.79,-753.62 400.28,-760.15"/>
</g>
<!-- Node53 -->
<g id="node24" class="node">
<title>Node53</title>
<g id="a_node24"><a xlink:href="group__NTS__TOE.html#ga9c954ddab323ec135d6c2bbae5f48882" target="_top" xlink:title="Finite State machine (Fsm)">
<polygon fill="none" stroke="black" points="401,-722.5 401,-741.5 517,-741.5 517,-722.5 401,-722.5"/>
<text text-anchor="middle" x="459" y="-729.5" font-family="Helvetica,sans-Serif" font-size="10.00">pFiniteStateMachine</text>
</a>
</g>
</g>
<!-- Node33&#45;&gt;Node53 -->
<g id="edge23" class="edge">
<title>Node33&#45;&gt;Node53</title>
<path fill="none" stroke="midnightblue" d="M294.19,-646.59C312.52,-662.57 351.68,-694.67 390,-713 394.91,-715.35 400.16,-717.45 405.48,-719.33"/>
<polygon fill="midnightblue" stroke="midnightblue" points="404.5,-722.69 415.09,-722.46 406.67,-716.03 404.5,-722.69"/>
</g>
<!-- Node54 -->
<g id="node25" class="node">
<title>Node54</title>
<g id="a_node25"><a xlink:href="group__NTS__TOE.html#gaa0e03c71d906be782ee98e91d2f073a9" target="_top" xlink:title="Insert pseudo header (Iph)">
<polygon fill="none" stroke="red" points="398.5,-684.5 398.5,-703.5 519.5,-703.5 519.5,-684.5 398.5,-684.5"/>
<text text-anchor="middle" x="459" y="-691.5" font-family="Helvetica,sans-Serif" font-size="10.00">pInsertPseudoHeader</text>
</a>
</g>
</g>
<!-- Node33&#45;&gt;Node54 -->
<g id="edge24" class="edge">
<title>Node33&#45;&gt;Node54</title>
<path fill="none" stroke="midnightblue" d="M308.72,-646.56C330.19,-654.57 361.94,-666.08 390,-675 397.15,-677.27 404.76,-679.54 412.22,-681.68"/>
<polygon fill="midnightblue" stroke="midnightblue" points="411.29,-685.06 421.86,-684.41 413.19,-678.32 411.29,-685.06"/>
</g>
<!-- Node61 -->
<g id="node26" class="node">
<title>Node61</title>
<g id="a_node26"><a xlink:href="group__NTS__TOE.html#ga8662fb114e539be4f8947dccc7d04eb5" target="_top" xlink:title="MetaData Handler (Mdh)">
<polygon fill="none" stroke="red" points="404.5,-646.5 404.5,-665.5 513.5,-665.5 513.5,-646.5 404.5,-646.5"/>
<text text-anchor="middle" x="459" y="-653.5" font-family="Helvetica,sans-Serif" font-size="10.00">pMetaDataHandler</text>
</a>
</g>
</g>
<!-- Node33&#45;&gt;Node61 -->
<g id="edge25" class="edge">
<title>Node33&#45;&gt;Node61</title>
<path fill="none" stroke="midnightblue" d="M315.1,-640.44C337.13,-642.84 367.29,-646.12 394.23,-649.06"/>
<polygon fill="midnightblue" stroke="midnightblue" points="394.05,-652.56 404.37,-650.16 394.81,-645.6 394.05,-652.56"/>
</g>
<!-- Node63 -->
<g id="node27" class="node">
<title>Node63</title>
<g id="a_node27"><a xlink:href="group__NTS__TOE.html#ga24823e68aa920b75400f0f65776c40bd" target="_top" xlink:title="Rx Application Notifier (Ran)">
<polygon fill="none" stroke="black" points="414,-608.5 414,-627.5 504,-627.5 504,-608.5 414,-608.5"/>
<text text-anchor="middle" x="459" y="-615.5" font-family="Helvetica,sans-Serif" font-size="10.00">pRxAppNotifier</text>
</a>
</g>
</g>
<!-- Node33&#45;&gt;Node63 -->
<g id="edge26" class="edge">
<title>Node33&#45;&gt;Node63</title>
<path fill="none" stroke="midnightblue" d="M315.1,-633.56C339.79,-630.87 374.68,-627.07 403.8,-623.9"/>
<polygon fill="midnightblue" stroke="midnightblue" points="404.27,-627.37 413.84,-622.81 403.52,-620.41 404.27,-627.37"/>
</g>
<!-- Node64 -->
<g id="node28" class="node">
<title>Node64</title>
<g id="a_node28"><a xlink:href="group__NTS__TOE.html#ga34ed235487396f362d8f184acefdc2ff" target="_top" xlink:title="Rx Memory Writer (Mwr)">
<polygon fill="none" stroke="black" points="406,-570.5 406,-589.5 512,-589.5 512,-570.5 406,-570.5"/>
<text text-anchor="middle" x="459" y="-577.5" font-family="Helvetica,sans-Serif" font-size="10.00">pRxMemoryWriter</text>
</a>
</g>
</g>
<!-- Node33&#45;&gt;Node64 -->
<g id="edge27" class="edge">
<title>Node33&#45;&gt;Node64</title>
<path fill="none" stroke="midnightblue" d="M315.22,-630.05C327.53,-626.94 341.61,-622.87 354,-618 370.84,-611.38 373.19,-605.69 390,-599 395.9,-596.65 402.21,-594.47 408.5,-592.49"/>
<polygon fill="midnightblue" stroke="midnightblue" points="409.76,-595.77 418.33,-589.55 407.75,-589.06 409.76,-595.77"/>
</g>
<!-- Node65 -->
<g id="node29" class="node">
<title>Node65</title>
<g id="a_node29"><a xlink:href="group__NTS__TOE.html#ga8488576e3bfaf7fd1cefbcfe48604d50" target="_top" xlink:title="TCP Invalid checksum Dropper (Tid)">
<polygon fill="none" stroke="red" points="404,-532.5 404,-551.5 514,-551.5 514,-532.5 404,-532.5"/>
<text text-anchor="middle" x="459" y="-539.5" font-family="Helvetica,sans-Serif" font-size="10.00">pTcpInvalidDropper</text>
</a>
</g>
</g>
<!-- Node33&#45;&gt;Node65 -->
<g id="edge28" class="edge">
<title>Node33&#45;&gt;Node65</title>
<path fill="none" stroke="midnightblue" d="M315.19,-633.58C328.18,-630.95 342.78,-626.28 354,-618 378.12,-600.22 365.97,-578.89 390,-561 392.52,-559.12 395.23,-557.43 398.04,-555.9"/>
<polygon fill="midnightblue" stroke="midnightblue" points="399.77,-558.96 407.37,-551.58 396.82,-552.61 399.77,-558.96"/>
</g>
<!-- Node66 -->
<g id="node30" class="node">
<title>Node66</title>
<g id="a_node30"><a xlink:href="group__NTS__TOE.html#ga7a3cf01f249aca02d5f6ccdaab6564e9" target="_top" xlink:title="TCP Length Extraction (Tle)">
<polygon fill="none" stroke="red" points="401,-494.5 401,-513.5 517,-513.5 517,-494.5 401,-494.5"/>
<text text-anchor="middle" x="459" y="-501.5" font-family="Helvetica,sans-Serif" font-size="10.00">pTcpLengthExtractor</text>
</a>
</g>
</g>
<!-- Node33&#45;&gt;Node66 -->
<g id="edge29" class="edge">
<title>Node33&#45;&gt;Node66</title>
<path fill="none" stroke="midnightblue" d="M315.34,-634.77C328.67,-632.36 343.48,-627.53 354,-618 387.47,-587.69 356.67,-553.46 390,-523 391.73,-521.42 393.58,-519.97 395.52,-518.64"/>
<polygon fill="midnightblue" stroke="midnightblue" points="397.55,-521.51 404.54,-513.54 394.11,-515.42 397.55,-521.51"/>
</g>
<!-- Node69 -->
<g id="node31" class="node">
<title>Node69</title>
<g id="a_node31"><a xlink:href="group__NTS__TOE.html#ga4e5377580fdbd7262c2e11dd08d8e885" target="_top" xlink:title="TCP Segment Dropper (Tsd)">
<polygon fill="none" stroke="red" points="398.5,-456.5 398.5,-475.5 519.5,-475.5 519.5,-456.5 398.5,-456.5"/>
<text text-anchor="middle" x="459" y="-463.5" font-family="Helvetica,sans-Serif" font-size="10.00">pTcpSegmentDropper</text>
</a>
</g>
</g>
<!-- Node33&#45;&gt;Node69 -->
<g id="edge30" class="edge">
<title>Node33&#45;&gt;Node69</title>
<path fill="none" stroke="midnightblue" d="M315.07,-635.37C328.68,-633.1 343.78,-628.21 354,-618 397.33,-574.72 346.87,-528.48 390,-485 391.42,-483.56 392.95,-482.23 394.55,-481"/>
<polygon fill="midnightblue" stroke="midnightblue" points="396.52,-483.9 403.15,-475.63 392.81,-477.96 396.52,-483.9"/>
</g>
<!-- Node72 -->
<g id="node34" class="node">
<title>Node72</title>
<g id="a_node34"><a xlink:href="group__NTS__TOE.html#ga57d2070956ed6cfb2c6a787c77b63f5a" target="_top" xlink:title="Lookup Reply Handler (Lrh)">
<polygon fill="none" stroke="red" points="397.5,-418.5 397.5,-437.5 520.5,-437.5 520.5,-418.5 397.5,-418.5"/>
<text text-anchor="middle" x="459" y="-425.5" font-family="Helvetica,sans-Serif" font-size="10.00">pLookupReplyHandler</text>
</a>
</g>
</g>
<!-- Node71&#45;&gt;Node72 -->
<g id="edge33" class="edge">
<title>Node71&#45;&gt;Node72</title>
<path fill="none" stroke="midnightblue" d="M327.53,-399.59C350.87,-404.67 379.73,-410.96 404.37,-416.32"/>
<polygon fill="midnightblue" stroke="midnightblue" points="403.77,-419.77 414.28,-418.48 405.26,-412.93 403.77,-419.77"/>
</g>
<!-- Node73 -->
<g id="node35" class="node">
<title>Node73</title>
<g id="a_node35"><a xlink:href="group__NTS__TOE.html#ga4614f97ba05a600dbd277ae3b43622e5" target="_top" xlink:title="Reverse Lookup Table (Rlt)">
<polygon fill="none" stroke="black" points="398,-380.5 398,-399.5 520,-399.5 520,-380.5 398,-380.5"/>
<text text-anchor="middle" x="459" y="-387.5" font-family="Helvetica,sans-Serif" font-size="10.00">pReverseLookupTable</text>
</a>
</g>
</g>
<!-- Node71&#45;&gt;Node73 -->
<g id="edge34" class="edge">
<title>Node71&#45;&gt;Node73</title>
<path fill="none" stroke="midnightblue" d="M354.22,-390C365.29,-390 376.73,-390 387.78,-390"/>
<polygon fill="midnightblue" stroke="midnightblue" points="387.81,-393.5 397.81,-390 387.81,-386.5 387.81,-393.5"/>
</g>
<!-- Node74 -->
<g id="node36" class="node">
<title>Node74</title>
<g id="a_node36"><a xlink:href="group__NTS__TOE.html#ga49b029f62f5a00be0e69e08bc59da0b7" target="_top" xlink:title="Session Id Manager (Sim)">
<polygon fill="none" stroke="black" points="403,-342.5 403,-361.5 515,-361.5 515,-342.5 403,-342.5"/>
<text text-anchor="middle" x="459" y="-349.5" font-family="Helvetica,sans-Serif" font-size="10.00">pSessionIdManager</text>
</a>
</g>
</g>
<!-- Node71&#45;&gt;Node74 -->
<g id="edge35" class="edge">
<title>Node71&#45;&gt;Node74</title>
<path fill="none" stroke="midnightblue" d="M327.53,-380.41C350.87,-375.33 379.73,-369.04 404.37,-363.68"/>
<polygon fill="midnightblue" stroke="midnightblue" points="405.26,-367.07 414.28,-361.52 403.77,-360.23 405.26,-367.07"/>
</g>
<!-- Node75 -->
<g id="node37" class="node">
<title>Node75</title>
<g id="a_node37"><a xlink:href="group__NTS__TOE.html#gaa2590af8cce31ae3a0327af350d5d484" target="_top" xlink:title="Update Reply Handler (Urh)">
<polygon fill="none" stroke="black" points="397,-304.5 397,-323.5 521,-323.5 521,-304.5 397,-304.5"/>
<text text-anchor="middle" x="459" y="-311.5" font-family="Helvetica,sans-Serif" font-size="10.00">pUpdateReplyHandler</text>
</a>
</g>
</g>
<!-- Node71&#45;&gt;Node75 -->
<g id="edge36" class="edge">
<title>Node71&#45;&gt;Node75</title>
<path fill="none" stroke="midnightblue" d="M332.71,-380.49C340.13,-378.01 347.47,-374.9 354,-371 373.98,-359.08 370.08,-345.01 390,-333 393.6,-330.83 397.46,-328.9 401.44,-327.18"/>
<polygon fill="midnightblue" stroke="midnightblue" points="402.81,-330.41 410.89,-323.56 400.3,-323.87 402.81,-330.41"/>
</g>
<!-- Node76 -->
<g id="node38" class="node">
<title>Node76</title>
<g id="a_node38"><a xlink:href="group__NTS__TOE.html#gac2e3e5de69bda9610c7ef47775ca2ac1" target="_top" xlink:title="Update Request Sender (Urs)">
<polygon fill="none" stroke="black" points="393.5,-266.5 393.5,-285.5 524.5,-285.5 524.5,-266.5 393.5,-266.5"/>
<text text-anchor="middle" x="459" y="-273.5" font-family="Helvetica,sans-Serif" font-size="10.00">pUpdateRequestSender</text>
</a>
</g>
</g>
<!-- Node71&#45;&gt;Node76 -->
<g id="edge37" class="edge">
<title>Node71&#45;&gt;Node76</title>
<path fill="none" stroke="midnightblue" d="M338.24,-380.48C343.93,-378.01 349.33,-374.9 354,-371 382.69,-347.04 361.42,-319.09 390,-295 392.01,-293.31 394.16,-291.76 396.41,-290.36"/>
<polygon fill="midnightblue" stroke="midnightblue" points="398.29,-293.32 405.53,-285.58 395.04,-287.12 398.29,-293.32"/>
</g>
<!-- Node79 -->
<g id="node41" class="node">
<title>Node79</title>
<g id="a_node41"><a xlink:href="group__NTS__TOE.html#gad791ee80094db3de3a46522b1ede51d8" target="_top" xlink:title="Close Timer (Clt) process.">
<polygon fill="none" stroke="black" points="420,-228.5 420,-247.5 498,-247.5 498,-228.5 420,-228.5"/>
<text text-anchor="middle" x="459" y="-235.5" font-family="Helvetica,sans-Serif" font-size="10.00">pCloseTimer</text>
</a>
</g>
</g>
<!-- Node78&#45;&gt;Node79 -->
<g id="edge40" class="edge">
<title>Node78&#45;&gt;Node79</title>
<path fill="none" stroke="midnightblue" d="M306.67,-205.05C332.8,-210.74 376.02,-220.15 409.6,-227.46"/>
<polygon fill="midnightblue" stroke="midnightblue" points="409.16,-230.95 419.68,-229.65 410.65,-224.11 409.16,-230.95"/>
</g>
<!-- Node80 -->
<g id="node42" class="node">
<title>Node80</title>
<g id="a_node42"><a xlink:href="group__NTS__TOE.html#gaf4d743509351bdaf8af2c9509c9ec972" target="_top" xlink:title="Probe Timer (Prb) process.">
<polygon fill="none" stroke="black" points="419.5,-190.5 419.5,-209.5 498.5,-209.5 498.5,-190.5 419.5,-190.5"/>
<text text-anchor="middle" x="459" y="-197.5" font-family="Helvetica,sans-Serif" font-size="10.00">pProbeTimer</text>
</a>
</g>
</g>
<!-- Node78&#45;&gt;Node80 -->
<g id="edge41" class="edge">
<title>Node78&#45;&gt;Node80</title>
<path fill="none" stroke="midnightblue" d="M306.67,-200C332.72,-200 375.74,-200 409.27,-200"/>
<polygon fill="midnightblue" stroke="midnightblue" points="409.34,-203.5 419.34,-200 409.34,-196.5 409.34,-203.5"/>
</g>
<!-- Node81 -->
<g id="node43" class="node">
<title>Node81</title>
<g id="a_node43"><a xlink:href="group__NTS__TOE.html#gab2f7f16329f49a0cb24431c57660f164" target="_top" xlink:title="ReTransmit Timer (Rtt) process.">
<polygon fill="none" stroke="black" points="406.5,-152.5 406.5,-171.5 511.5,-171.5 511.5,-152.5 406.5,-152.5"/>
<text text-anchor="middle" x="459" y="-159.5" font-family="Helvetica,sans-Serif" font-size="10.00">pRetransmitTimer</text>
</a>
</g>
</g>
<!-- Node78&#45;&gt;Node81 -->
<g id="edge42" class="edge">
<title>Node78&#45;&gt;Node81</title>
<path fill="none" stroke="midnightblue" d="M306.67,-194.95C331.46,-189.56 371.62,-180.81 404.34,-173.69"/>
<polygon fill="midnightblue" stroke="midnightblue" points="405.2,-177.08 414.23,-171.53 403.72,-170.24 405.2,-177.08"/>
</g>
<!-- Node82 -->
<g id="node44" class="node">
<title>Node82</title>
<g id="a_node44"><a xlink:href="group__NTS__TOE.html#ga09ce8a117773d13e39cc1ed8f6557fc8" target="_top" xlink:title="A 2&#45;to&#45;1 generic Stream Multiplexer.">
<polygon fill="none" stroke="black" points="419.5,-114.5 419.5,-133.5 498.5,-133.5 498.5,-114.5 419.5,-114.5"/>
<text text-anchor="middle" x="459" y="-121.5" font-family="Helvetica,sans-Serif" font-size="10.00">pStreamMux</text>
</a>
</g>
</g>
<!-- Node78&#45;&gt;Node82 -->
<g id="edge43" class="edge">
<title>Node78&#45;&gt;Node82</title>
<path fill="none" stroke="midnightblue" d="M298.86,-190.39C319.11,-178.05 356.14,-156.6 390,-143 396.27,-140.48 402.99,-138.17 409.67,-136.09"/>
<polygon fill="midnightblue" stroke="midnightblue" points="410.79,-139.41 419.39,-133.21 408.81,-132.69 410.79,-139.41"/>
</g>
<!-- Node83&#45;&gt;Node82 -->
<g id="edge46" class="edge">
<title>Node83&#45;&gt;Node82</title>
<path fill="none" stroke="midnightblue" d="M331.64,-124C355.83,-124 385.07,-124 409.33,-124"/>
<polygon fill="midnightblue" stroke="midnightblue" points="409.39,-127.5 419.39,-124 409.39,-120.5 409.39,-127.5"/>
</g>
<!-- Node84 -->
<g id="node46" class="node">
<title>Node84</title>
<g id="a_node46"><a xlink:href="group__NTS__TOE.html#ga2a3b672922ecb85036be9b6869d3f5c4" target="_top" xlink:title="Stream Metadata Loader (Sml)">
<polygon fill="none" stroke="red" points="401,-76.5 401,-95.5 517,-95.5 517,-76.5 401,-76.5"/>
<text text-anchor="middle" x="459" y="-83.5" font-family="Helvetica,sans-Serif" font-size="10.00">pStreamMetaLoader</text>
</a>
</g>
</g>
<!-- Node83&#45;&gt;Node84 -->
<g id="edge45" class="edge">
<title>Node83&#45;&gt;Node84</title>
<path fill="none" stroke="midnightblue" d="M327.53,-114.41C350.87,-109.33 379.73,-103.04 404.37,-97.68"/>
<polygon fill="midnightblue" stroke="midnightblue" points="405.26,-101.07 414.28,-95.52 403.77,-94.23 405.26,-101.07"/>
</g>
<!-- Node86 -->
<g id="node47" class="node">
<title>Node86</title>
<g id="a_node47"><a xlink:href="group__NTS__TOE.html#ga4c13d36e4851fa4849db600932af0650" target="_top" xlink:title="Tx Application Connect (Tac)">
<polygon fill="none" stroke="black" points="412.5,-38.5 412.5,-57.5 505.5,-57.5 505.5,-38.5 412.5,-38.5"/>
<text text-anchor="middle" x="459" y="-45.5" font-family="Helvetica,sans-Serif" font-size="10.00">pTxAppConnect</text>
</a>
</g>
</g>
<!-- Node83&#45;&gt;Node86 -->
<g id="edge47" class="edge">
<title>Node83&#45;&gt;Node86</title>
<path fill="none" stroke="midnightblue" d="M331.6,-114.86C339.39,-112.32 347.14,-109.09 354,-105 373.98,-93.08 370.08,-79.01 390,-67 394.05,-64.56 398.43,-62.42 402.94,-60.55"/>
<polygon fill="midnightblue" stroke="midnightblue" points="404.16,-63.83 412.32,-57.08 401.73,-57.27 404.16,-63.83"/>
</g>
<!-- Node87 -->
<g id="node48" class="node">
<title>Node87</title>
<g id="a_node48"><a xlink:href="group__NTS__TOE.html#ga6470f6a637650ff2b912f3d4a08f60d0" target="_top" xlink:title="Tx Application Status Handler (Tash)">
<polygon fill="none" stroke="black" points="398,-0.5 398,-19.5 520,-19.5 520,-0.5 398,-0.5"/>
<text text-anchor="middle" x="459" y="-7.5" font-family="Helvetica,sans-Serif" font-size="10.00">pTxAppStatusHandler</text>
</a>
</g>
</g>
<!-- Node83&#45;&gt;Node87 -->
<g id="edge48" class="edge">
<title>Node83&#45;&gt;Node87</title>
<path fill="none" stroke="midnightblue" d="M331.75,-117C339.78,-114.22 347.58,-110.36 354,-105 382.69,-81.04 361.42,-53.09 390,-29 392.01,-27.31 394.16,-25.76 396.41,-24.36"/>
<polygon fill="midnightblue" stroke="midnightblue" points="398.29,-27.32 405.53,-19.58 395.04,-21.12 398.29,-27.32"/>
</g>
<!-- Node87&#45;&gt;Node6 -->
<g id="edge49" class="edge">
<title>Node87&#45;&gt;Node6</title>
<path fill="none" stroke="midnightblue" d="M516.34,-19.67C520.71,-22.15 524.7,-25.21 528,-29 604.17,-116.51 607.87,-504.79 607.64,-597.89"/>
<polygon fill="midnightblue" stroke="midnightblue" points="604.14,-598.15 607.59,-608.17 611.14,-598.18 604.14,-598.15"/>
</g>
</g>
</svg>
        <g id="navigator" transform="translate(0 0)" fill="#404254">
                <rect fill="#f2f5e9" fill-opacity="0.5" stroke="#606060" stroke-width=".5" x="0" y="0" width="60" height="60"/>
                <use id="zoomplus" xlink:href="#zoomPlus" x="17" y="9" onmousedown="handleZoom(evt,'in')"/>
                <use id="zoomminus" xlink:href="#zoomMin" x="42" y="9" onmousedown="handleZoom(evt,'out')"/>
                <use id="reset" xlink:href="#resetDef" x="30" y="36" onmousedown="handleReset()"/>
                <g id="arrowUp" xlink:href="#dirArrow" transform="translate(30 24)" onmousedown="handlePan(0,-1)">
                  <use xlink:href="#rim" fill="#404040">
                        <set attributeName="fill" to="#808080" begin="arrowUp.mouseover" end="arrowUp.mouseout"/>
                  </use>
                  <path fill="none" stroke="white" stroke-width="1.5" d="M0,-3.0v7 M-2.5,-0.5L0,-3.0L2.5,-0.5"/>
                </g>
                <g id="arrowRight" xlink:href="#dirArrow" transform="rotate(90) translate(36 -43)" onmousedown="handlePan(1,0)">
                  <use xlink:href="#rim" fill="#404040">
                        <set attributeName="fill" to="#808080" begin="arrowRight.mouseover" end="arrowRight.mouseout"/>
                  </use>
                  <path fill="none" stroke="white" stroke-width="1.5" d="M0,-3.0v7 M-2.5,-0.5L0,-3.0L2.5,-0.5"/>
                </g>
                <g id="arrowDown" xlink:href="#dirArrow" transform="rotate(180) translate(-30 -48)" onmousedown="handlePan(0,1)">
                  <use xlink:href="#rim" fill="#404040">
                        <set attributeName="fill" to="#808080" begin="arrowDown.mouseover" end="arrowDown.mouseout"/>
                  </use>
                  <path fill="none" stroke="white" stroke-width="1.5" d="M0,-3.0v7 M-2.5,-0.5L0,-3.0L2.5,-0.5"/>
                </g>
                <g id="arrowLeft" xlink:href="#dirArrow" transform="rotate(270) translate(-36 17)" onmousedown="handlePan(-1,0)">
                  <use xlink:href="#rim" fill="#404040">
                        <set attributeName="fill" to="#808080" begin="arrowLeft.mouseover" end="arrowLeft.mouseout"/>
                  </use>
                  <path fill="none" stroke="white" stroke-width="1.5" d="M0,-3.0v7 M-2.5,-0.5L0,-3.0L2.5,-0.5"/>
                </g>
        </g>
        <svg viewBox="0 0 15 15" width="100%" height="30px" preserveAspectRatio="xMaxYMin meet">
         <g id="arrow_out" transform="scale(0.3 0.3)">
          <a xlink:href="group__NTS__TOE_gab3d23260a8a037543d01f716091df7e8_cgraph_org.svg" target="_base">
           <rect id="button" ry="5" rx="5" y="6" x="6" height="38" width="38"
                fill="#f2f5e9" fill-opacity="0.5" stroke="#606060" stroke-width="1.0"/>
           <path id="arrow"
             d="M 11.500037,31.436501 C 11.940474,20.09759 22.043105,11.32322 32.158766,21.979434 L 37.068811,17.246167 C 37.068811,17.246167 37.088388,32 37.088388,32 L 22.160133,31.978069 C 22.160133,31.978069 26.997745,27.140456 26.997745,27.140456 C 18.528582,18.264221 13.291696,25.230495 11.500037,31.436501 z"
             style="fill:#404040;"/>
          </a>
         </g>
        </svg>
</svg>
