<?xml version="1.0" encoding="UTF-8" standalone="no"?>
<!DOCTYPE svg PUBLIC "-//W3C//DTD SVG 1.1//EN"
 "http://www.w3.org/Graphics/SVG/1.1/DTD/svg11.dtd">
<!-- Generated by graphviz version 2.43.0 (0)
 -->
<!-- Title: pUdpChecksumChecker Pages: 1 -->
<svg width="472pt" height="370pt"
 viewBox="0.00 0.00 472.00 370.00" xmlns="http://www.w3.org/2000/svg" xmlns:xlink="http://www.w3.org/1999/xlink">
<g id="graph0" class="graph" transform="scale(1 1) rotate(0) translate(4 366)">
<title>pUdpChecksumChecker</title>
<!-- Node1 -->
<g id="node1" class="node">
<title>Node1</title>
<g id="a_node1"><a xlink:title=" ">
<polygon fill="#bfbfbf" stroke="black" points="0,-171.5 0,-190.5 132,-190.5 132,-171.5 0,-171.5"/>
<text text-anchor="middle" x="66" y="-178.5" font-family="Helvetica,sans-Serif" font-size="10.00">pUdpChecksumChecker</text>
</a>
</g>
</g>
<!-- Node2 -->
<g id="node2" class="node">
<title>Node2</title>
<g id="a_node2"><a xlink:href="udp_8cpp.html#ga3179abf5c515026aad3e82047a1dd9a3" target="_top" xlink:title=" ">
<polygon fill="none" stroke="black" points="196.5,-342.5 196.5,-361.5 273.5,-361.5 273.5,-342.5 196.5,-342.5"/>
<text text-anchor="middle" x="235" y="-349.5" font-family="Helvetica,sans-Serif" font-size="10.00">byteSwap16</text>
</a>
</g>
</g>
<!-- Node1&#45;&gt;Node2 -->
<g id="edge1" class="edge">
<title>Node1&#45;&gt;Node2</title>
<path fill="none" stroke="midnightblue" d="M71.11,-190.78C82.56,-216.87 117.32,-288.76 168,-328 173.57,-332.31 179.99,-335.9 186.59,-338.87"/>
<polygon fill="midnightblue" stroke="midnightblue" points="185.73,-342.3 196.31,-342.8 188.35,-335.81 185.73,-342.3"/>
</g>
<!-- Node3 -->
<g id="node3" class="node">
<title>Node3</title>
<g id="a_node3"><a xlink:href="classAxisRaw.html#a7034bcf8cf143fb2bb9bfc46e70a7d6b" target="_top" xlink:title=" ">
<polygon fill="none" stroke="black" points="338.5,-294.5 338.5,-313.5 463.5,-313.5 463.5,-294.5 338.5,-294.5"/>
<text text-anchor="middle" x="401" y="-301.5" font-family="Helvetica,sans-Serif" font-size="10.00">AxisRaw::getLE_TData</text>
</a>
</g>
</g>
<!-- Node1&#45;&gt;Node3 -->
<g id="edge2" class="edge">
<title>Node1&#45;&gt;Node3</title>
<path fill="none" stroke="midnightblue" d="M71.96,-190.68C84.4,-213.8 119.49,-272.03 168,-295 220.38,-319.8 287.1,-319.59 335.53,-314.63"/>
<polygon fill="midnightblue" stroke="midnightblue" points="336.03,-318.09 345.58,-313.51 335.25,-311.14 336.03,-318.09"/>
</g>
<!-- Node4 -->
<g id="node4" class="node">
<title>Node4</title>
<g id="a_node4"><a xlink:href="classAxisRaw.html#a4becd0ad3c51e3db2749e888f2f72e31" target="_top" xlink:title=" ">
<polygon fill="none" stroke="black" points="338,-247.5 338,-266.5 464,-266.5 464,-247.5 338,-247.5"/>
<text text-anchor="middle" x="401" y="-254.5" font-family="Helvetica,sans-Serif" font-size="10.00">AxisRaw::getLE_TKeep</text>
</a>
</g>
</g>
<!-- Node1&#45;&gt;Node4 -->
<g id="edge3" class="edge">
<title>Node1&#45;&gt;Node4</title>
<path fill="none" stroke="midnightblue" d="M92.88,-190.51C113.12,-197.68 142.08,-207.39 168,-214 221.07,-227.52 281.98,-238.65 328.07,-246.19"/>
<polygon fill="midnightblue" stroke="midnightblue" points="327.54,-249.65 337.97,-247.8 328.66,-242.74 327.54,-249.65"/>
</g>
<!-- Node5 -->
<g id="node5" class="node">
<title>Node5</title>
<g id="a_node5"><a xlink:href="classAxisRaw.html#af8208752dcbb14911c5fda27d90a0ef4" target="_top" xlink:title=" ">
<polygon fill="none" stroke="black" points="340,-209.5 340,-228.5 462,-228.5 462,-209.5 340,-209.5"/>
<text text-anchor="middle" x="401" y="-216.5" font-family="Helvetica,sans-Serif" font-size="10.00">AxisRaw::getLE_TLast</text>
</a>
</g>
</g>
<!-- Node1&#45;&gt;Node5 -->
<g id="edge4" class="edge">
<title>Node1&#45;&gt;Node5</title>
<path fill="none" stroke="midnightblue" d="M132.39,-188.46C189.21,-194.95 271.32,-204.32 329.57,-210.96"/>
<polygon fill="midnightblue" stroke="midnightblue" points="329.46,-214.47 339.8,-212.13 330.26,-207.52 329.46,-214.47"/>
</g>
<!-- Node6 -->
<g id="node6" class="node">
<title>Node6</title>
<g id="a_node6"><a xlink:href="classAxisRaw.html#a42cd520c9b19f7c2fc6d2fc204cb30b7" target="_top" xlink:title=" ">
<polygon fill="none" stroke="black" points="182,-152.5 182,-171.5 288,-171.5 288,-152.5 182,-152.5"/>
<text text-anchor="middle" x="235" y="-159.5" font-family="Helvetica,sans-Serif" font-size="10.00">AxisRaw::getTLast</text>
</a>
</g>
</g>
<!-- Node1&#45;&gt;Node6 -->
<g id="edge5" class="edge">
<title>Node1&#45;&gt;Node6</title>
<path fill="none" stroke="midnightblue" d="M132.04,-173.6C145.05,-172.12 158.69,-170.57 171.6,-169.1"/>
<polygon fill="midnightblue" stroke="midnightblue" points="172.24,-172.55 181.78,-167.94 171.45,-165.59 172.24,-172.55"/>
</g>
<!-- Node7 -->
<g id="node7" class="node">
<title>Node7</title>
<g id="a_node7"><a xlink:href="classAxisUdp.html#a9fdb0cba987e990c51ed23f837f79746" target="_top" xlink:title=" ">
<polygon fill="none" stroke="black" points="172,-114.5 172,-133.5 298,-133.5 298,-114.5 172,-114.5"/>
<text text-anchor="middle" x="235" y="-121.5" font-family="Helvetica,sans-Serif" font-size="10.00">AxisUdp::getUdpCsum</text>
</a>
</g>
</g>
<!-- Node1&#45;&gt;Node7 -->
<g id="edge6" class="edge">
<title>Node1&#45;&gt;Node7</title>
<path fill="none" stroke="midnightblue" d="M90.89,-171.4C111.23,-163.37 141.33,-151.84 168,-143 174.85,-140.73 182.14,-138.47 189.3,-136.35"/>
<polygon fill="midnightblue" stroke="midnightblue" points="190.28,-139.7 198.9,-133.54 188.32,-132.99 190.28,-139.7"/>
</g>
<!-- Node8 -->
<g id="node8" class="node">
<title>Node8</title>
<g id="a_node8"><a xlink:href="classAxisUdp.html#a461be53e623846a93250a75085499289" target="_top" xlink:title=" ">
<polygon fill="none" stroke="black" points="168,-76.5 168,-95.5 302,-95.5 302,-76.5 168,-76.5"/>
<text text-anchor="middle" x="235" y="-83.5" font-family="Helvetica,sans-Serif" font-size="10.00">AxisUdp::getUdpDstPort</text>
</a>
</g>
</g>
<!-- Node1&#45;&gt;Node8 -->
<g id="edge7" class="edge">
<title>Node1&#45;&gt;Node8</title>
<path fill="none" stroke="midnightblue" d="M77.05,-171.4C94.31,-155.43 131.28,-123.32 168,-105 172.62,-102.7 177.56,-100.63 182.58,-98.78"/>
<polygon fill="midnightblue" stroke="midnightblue" points="183.93,-102.02 192.28,-95.51 181.69,-95.39 183.93,-102.02"/>
</g>
<!-- Node9 -->
<g id="node9" class="node">
<title>Node9</title>
<g id="a_node9"><a xlink:href="classAxisUdp.html#af2601784b2a0b17dc10c1c816fc1e815" target="_top" xlink:title=" ">
<polygon fill="none" stroke="black" points="177,-38.5 177,-57.5 293,-57.5 293,-38.5 177,-38.5"/>
<text text-anchor="middle" x="235" y="-45.5" font-family="Helvetica,sans-Serif" font-size="10.00">AxisUdp::getUdpLen</text>
</a>
</g>
</g>
<!-- Node1&#45;&gt;Node9 -->
<g id="edge8" class="edge">
<title>Node1&#45;&gt;Node9</title>
<path fill="none" stroke="midnightblue" d="M72.76,-171.4C86.42,-149.47 123.06,-95.37 168,-67 171.36,-64.88 174.97,-62.98 178.7,-61.3"/>
<polygon fill="midnightblue" stroke="midnightblue" points="180.17,-64.48 188.16,-57.52 177.58,-57.98 180.17,-64.48"/>
</g>
<!-- Node10 -->
<g id="node10" class="node">
<title>Node10</title>
<g id="a_node10"><a xlink:href="classAxisUdp.html#a7232c7d04b1c7c53dd05600085aeee0c" target="_top" xlink:title=" ">
<polygon fill="none" stroke="black" points="168.5,-0.5 168.5,-19.5 301.5,-19.5 301.5,-0.5 168.5,-0.5"/>
<text text-anchor="middle" x="235" y="-7.5" font-family="Helvetica,sans-Serif" font-size="10.00">AxisUdp::getUdpSrcPort</text>
</a>
</g>
</g>
<!-- Node1&#45;&gt;Node10 -->
<g id="edge9" class="edge">
<title>Node1&#45;&gt;Node10</title>
<path fill="none" stroke="midnightblue" d="M70.56,-171.47C81.07,-144.68 114.58,-68.14 168,-29 170.65,-27.06 173.48,-25.32 176.44,-23.76"/>
<polygon fill="midnightblue" stroke="midnightblue" points="177.97,-26.91 185.61,-19.58 175.06,-20.54 177.97,-26.91"/>
</g>
<!-- Node11 -->
<g id="node11" class="node">
<title>Node11</title>
<g id="a_node11"><a xlink:href="group__NTS.html#ga5560d80c548e85eb53223a5e99410b7b" target="_top" xlink:title="Prints an Axis raw data chunk (used for debugging).">
<polygon fill="none" stroke="black" points="194.5,-266.5 194.5,-285.5 275.5,-285.5 275.5,-266.5 194.5,-266.5"/>
<text text-anchor="middle" x="235" y="-273.5" font-family="Helvetica,sans-Serif" font-size="10.00">printAxisRaw</text>
</a>
</g>
</g>
<!-- Node1&#45;&gt;Node11 -->
<g id="edge10" class="edge">
<title>Node1&#45;&gt;Node11</title>
<path fill="none" stroke="midnightblue" d="M78.47,-190.6C96.55,-205.37 133.22,-233.86 168,-252 175.77,-256.05 184.38,-259.72 192.74,-262.9"/>
<polygon fill="midnightblue" stroke="midnightblue" points="191.79,-266.28 202.39,-266.41 194.18,-259.7 191.79,-266.28"/>
</g>
<!-- Node11&#45;&gt;Node3 -->
<g id="edge11" class="edge">
<title>Node11&#45;&gt;Node3</title>
<path fill="none" stroke="midnightblue" d="M275.7,-282.78C293.3,-285.78 314.47,-289.4 334.32,-292.79"/>
<polygon fill="midnightblue" stroke="midnightblue" points="333.8,-296.25 344.24,-294.48 334.98,-289.35 333.8,-296.25"/>
</g>
<!-- Node11&#45;&gt;Node4 -->
<g id="edge12" class="edge">
<title>Node11&#45;&gt;Node4</title>
<path fill="none" stroke="midnightblue" d="M275.7,-271.4C291.31,-269.59 309.74,-267.46 327.56,-265.39"/>
<polygon fill="midnightblue" stroke="midnightblue" points="328.42,-268.82 337.95,-264.19 327.61,-261.86 328.42,-268.82"/>
</g>
<!-- Node11&#45;&gt;Node5 -->
<g id="edge13" class="edge">
<title>Node11&#45;&gt;Node5</title>
<path fill="none" stroke="midnightblue" d="M260.59,-266.37C281.16,-258.43 311.33,-247.04 338,-238 344.45,-235.81 351.31,-233.6 358.03,-231.49"/>
<polygon fill="midnightblue" stroke="midnightblue" points="359.18,-234.8 367.7,-228.5 357.12,-228.11 359.18,-234.8"/>
</g>
</g>
</svg>
