<?xml version="1.0" encoding="UTF-8" standalone="no"?>
<!DOCTYPE svg PUBLIC "-//W3C//DTD SVG 1.1//EN"
 "http://www.w3.org/Graphics/SVG/1.1/DTD/svg11.dtd">
<!-- Generated by graphviz version 2.43.0 (0)
 -->
<!-- Title: IPRX Pages: 1 -->
<svg width="223pt" height="27pt"
 viewBox="0.00 0.00 223.00 27.00" xmlns="http://www.w3.org/2000/svg" xmlns:xlink="http://www.w3.org/1999/xlink">
<g id="graph0" class="graph" transform="scale(1 1) rotate(0) translate(4 23)">
<title>IPRX</title>
<!-- Node2 -->
<g id="node1" class="node">
<title>Node2</title>
<g id="a_node1"><a xlink:href="group__NTS.html" target="_top" xlink:title="Network Transport Stack (NTS). This component implements the TCP/IP Network and Transport Stack used ...">
<polygon fill="none" stroke="black" points="36,-19 0,-19 0,0 36,0 36,-19"/>
<text text-anchor="middle" x="18" y="-7" font-family="Helvetica,sans-Serif" font-size="10.00">NTS</text>
</a>
</g>
</g>
<!-- Node1 -->
<g id="node3" class="node">
<title>Node1</title>
<g id="a_node3"><a xlink:title="IP Receiver packet handler (IPRX) of the Network Transport Stack (NTS).">
<polygon fill="#bfbfbf" stroke="black" points="111,-19 72,-19 72,0 111,0 111,-19"/>
<text text-anchor="middle" x="91.5" y="-7" font-family="Helvetica,sans-Serif" font-size="10.00">IPRX</text>
</a>
</g>
</g>
<!-- Node2&#45;&gt;Node1 -->
<g id="edge1" class="edge">
<title>Node2&#45;&gt;Node1</title>
<path fill="none" stroke="black" d="M46.53,-9.5C55,-9.5 64.12,-9.5 71.85,-9.5"/>
<polygon fill="black" stroke="black" points="46.31,-6 36.31,-9.5 46.31,-13 46.31,-6"/>
</g>
<!-- Node3 -->
<g id="node2" class="node">
<title>Node3</title>
<g id="a_node2"><a xlink:href="group__NTS__IPRX__TEST.html" target="_top" xlink:title="Testbench for the IP Receiver packet handler (IPRX) of the Network Transport Stack (NTS).">
<polygon fill="none" stroke="black" points="215,-19 147,-19 147,0 215,0 215,-19"/>
<text text-anchor="middle" x="181" y="-7" font-family="Helvetica,sans-Serif" font-size="10.00">IPRX_TEST</text>
</a>
</g>
</g>
<!-- Node1&#45;&gt;Node3 -->
<g id="edge2" class="edge">
<title>Node1&#45;&gt;Node3</title>
<path fill="none" stroke="black" d="M121.29,-9.5C129.51,-9.5 138.53,-9.5 146.98,-9.5"/>
<polygon fill="black" stroke="black" points="121.06,-6 111.06,-9.5 121.06,-13 121.06,-6"/>
</g>
</g>
</svg>
