<?xml version="1.0" encoding="UTF-8" standalone="no"?>
<!DOCTYPE svg PUBLIC "-//W3C//DTD SVG 1.1//EN"
 "http://www.w3.org/Graphics/SVG/1.1/DTD/svg11.dtd">
<!-- Generated by graphviz version 2.43.0 (0)
 -->
<!-- Title: pIpPktStitcher Pages: 1 -->
<!--zoomable 484 -->
<svg id="main" version="1.1" xmlns="http://www.w3.org/2000/svg" xmlns:xlink="http://www.w3.org/1999/xlink" xml:space="preserve" onload="init(evt)">
<style type="text/css"><![CDATA[
.edge:hover path { stroke: red; }
.edge:hover polygon { stroke: red; fill: red; }
]]></style>
<script type="text/javascript"><![CDATA[
var edges = document.getElementsByTagName('g');
if (edges && edges.length) {
  for (var i=0;i<edges.length;i++) {
    if (edges[i].id.substr(0,4)=='edge') {
      edges[i].setAttribute('class','edge');
    }
  }
}
]]></script>
        <defs>
                <circle id="rim" cx="0" cy="0" r="7"/>
                <circle id="rim2" cx="0" cy="0" r="3.5"/>
                <g id="zoomPlus">
                        <use xlink:href="#rim" fill="#404040">
                                <set attributeName="fill" to="#808080" begin="zoomplus.mouseover" end="zoomplus.mouseout"/>
                        </use>
                        <path d="M-4,0h8M0,-4v8" fill="none" stroke="white" stroke-width="1.5" pointer-events="none"/>
                </g>
                <g id="zoomMin">
                        <use xlink:href="#rim" fill="#404040">
                                <set attributeName="fill" to="#808080" begin="zoomminus.mouseover" end="zoomminus.mouseout"/>
                        </use>
                        <path d="M-4,0h8" fill="none" stroke="white" stroke-width="1.5" pointer-events="none"/>
                </g>
                <g id="dirArrow">
                        <path fill="none" stroke="white" stroke-width="1.5" d="M0,-3.0v7 M-2.5,-0.5L0,-3.0L2.5,-0.5"/>
                </g>
               <g id="resetDef">
                       <use xlink:href="#rim2" fill="#404040">
                               <set attributeName="fill" to="#808080" begin="reset.mouseover" end="reset.mouseout"/>
                       </use>
               </g>
        </defs>

<script type="text/javascript">
var viewWidth = 431;
var viewHeight = 484;
var sectionId = 'dynsection-18';
</script>
<script xlink:href="svgpan.js"/>
<svg id="graph" class="graph">
<g id="viewport">
<title>pIpPktStitcher</title>
<!-- Node1 -->
<g id="node1" class="node">
<title>Node1</title>
<g id="a_node1"><a xlink:title="IPv4 Packet Stitcher (Ips)">
<polygon fill="#bfbfbf" stroke="black" points="0,-228.5 0,-247.5 85,-247.5 85,-228.5 0,-228.5"/>
<text text-anchor="middle" x="42.5" y="-235.5" font-family="Helvetica,sans-Serif" font-size="10.00">pIpPktStitcher</text>
</a>
</g>
</g>
<!-- Node2 -->
<g id="node2" class="node">
<title>Node2</title>
<g id="a_node2"><a xlink:href="classAxisIp4.html#a3a60d6e7c7029899907f9b88cd7b6ceb" target="_top" xlink:title=" ">
<polygon fill="none" stroke="black" points="127,-456.5 127,-475.5 255,-475.5 255,-456.5 127,-456.5"/>
<text text-anchor="middle" x="191" y="-463.5" font-family="Helvetica,sans-Serif" font-size="10.00">AxisIp4::getIp4DstAddr</text>
</a>
</g>
</g>
<!-- Node1&#45;&gt;Node2 -->
<g id="edge1" class="edge">
<title>Node1&#45;&gt;Node2</title>
<path fill="none" stroke="midnightblue" d="M44.07,-247.57C46.58,-280.55 59.4,-390.5 121,-447 122.71,-448.57 124.54,-450.01 126.46,-451.33"/>
<polygon fill="midnightblue" stroke="midnightblue" points="124.96,-454.51 135.39,-456.42 128.43,-448.43 124.96,-454.51"/>
</g>
<!-- Node3 -->
<g id="node3" class="node">
<title>Node3</title>
<g id="a_node3"><a xlink:href="classAxisPsd4.html#a9d98f14cbdecfa1bf6a2f7ae12ff656b" target="_top" xlink:title=" ">
<polygon fill="none" stroke="black" points="121,-418.5 121,-437.5 261,-437.5 261,-418.5 121,-418.5"/>
<text text-anchor="middle" x="191" y="-425.5" font-family="Helvetica,sans-Serif" font-size="10.00">AxisPsd4::getTcpAckNum</text>
</a>
</g>
</g>
<!-- Node1&#45;&gt;Node3 -->
<g id="edge2" class="edge">
<title>Node1&#45;&gt;Node3</title>
<path fill="none" stroke="midnightblue" d="M44.99,-247.85C49.97,-277.13 68.71,-364.33 121,-409 122.98,-410.69 125.11,-412.24 127.33,-413.65"/>
<polygon fill="midnightblue" stroke="midnightblue" points="125.87,-416.84 136.35,-418.43 129.15,-410.65 125.87,-416.84"/>
</g>
<!-- Node4 -->
<g id="node4" class="node">
<title>Node4</title>
<g id="a_node4"><a xlink:href="classAxisPsd4.html#a03b6be5d871bf97d7e3a0c27bcb65bc5" target="_top" xlink:title=" ">
<polygon fill="none" stroke="black" points="124,-380.5 124,-399.5 258,-399.5 258,-380.5 124,-380.5"/>
<text text-anchor="middle" x="191" y="-387.5" font-family="Helvetica,sans-Serif" font-size="10.00">AxisPsd4::getTcpDstPort</text>
</a>
</g>
</g>
<!-- Node1&#45;&gt;Node4 -->
<g id="edge3" class="edge">
<title>Node1&#45;&gt;Node4</title>
<path fill="none" stroke="midnightblue" d="M46.33,-247.75C54,-272.4 77.58,-337.59 121,-371 123.43,-372.87 126.04,-374.56 128.76,-376.08"/>
<polygon fill="midnightblue" stroke="midnightblue" points="127.25,-379.24 137.78,-380.4 130.27,-372.93 127.25,-379.24"/>
</g>
<!-- Node5 -->
<g id="node5" class="node">
<title>Node5</title>
<g id="a_node5"><a xlink:href="classAxisPsd4.html#a0e578945c28d7f7c61f7dda25df37b9d" target="_top" xlink:title=" ">
<polygon fill="none" stroke="black" points="121,-342.5 121,-361.5 261,-361.5 261,-342.5 121,-342.5"/>
<text text-anchor="middle" x="191" y="-349.5" font-family="Helvetica,sans-Serif" font-size="10.00">AxisPsd4::getTcpSeqNum</text>
</a>
</g>
</g>
<!-- Node1&#45;&gt;Node5 -->
<g id="edge4" class="edge">
<title>Node1&#45;&gt;Node5</title>
<path fill="none" stroke="midnightblue" d="M48.68,-247.75C59.46,-267.08 86.23,-310.34 121,-333 124.15,-335.05 127.52,-336.89 131.02,-338.53"/>
<polygon fill="midnightblue" stroke="midnightblue" points="129.91,-341.86 140.49,-342.42 132.57,-335.38 129.91,-341.86"/>
</g>
<!-- Node6 -->
<g id="node6" class="node">
<title>Node6</title>
<g id="a_node6"><a xlink:href="classAxisPsd4.html#a723199c5a1b2bea0f16401569036e730" target="_top" xlink:title=" ">
<polygon fill="none" stroke="black" points="124.5,-304.5 124.5,-323.5 257.5,-323.5 257.5,-304.5 124.5,-304.5"/>
<text text-anchor="middle" x="191" y="-311.5" font-family="Helvetica,sans-Serif" font-size="10.00">AxisPsd4::getTcpSrcPort</text>
</a>
</g>
</g>
<!-- Node1&#45;&gt;Node6 -->
<g id="edge5" class="edge">
<title>Node1&#45;&gt;Node6</title>
<path fill="none" stroke="midnightblue" d="M54.21,-247.9C68.44,-260.55 94.85,-282.32 121,-295 125.89,-297.37 131.13,-299.49 136.44,-301.37"/>
<polygon fill="midnightblue" stroke="midnightblue" points="135.46,-304.73 146.05,-304.49 137.63,-298.07 135.46,-304.73"/>
</g>
<!-- Node7 -->
<g id="node7" class="node">
<title>Node7</title>
<g id="a_node7"><a xlink:href="classAxisRaw.html#a42cd520c9b19f7c2fc6d2fc204cb30b7" target="_top" xlink:title=" ">
<polygon fill="none" stroke="black" points="138,-266.5 138,-285.5 244,-285.5 244,-266.5 138,-266.5"/>
<text text-anchor="middle" x="191" y="-273.5" font-family="Helvetica,sans-Serif" font-size="10.00">AxisRaw::getTLast</text>
</a>
</g>
</g>
<!-- Node1&#45;&gt;Node7 -->
<g id="edge6" class="edge">
<title>Node1&#45;&gt;Node7</title>
<path fill="none" stroke="midnightblue" d="M80.47,-247.59C99.63,-252.56 123.21,-258.68 143.59,-263.96"/>
<polygon fill="midnightblue" stroke="midnightblue" points="142.74,-267.36 153.3,-266.48 144.5,-260.58 142.74,-267.36"/>
</g>
<!-- Node8 -->
<g id="node8" class="node">
<title>Node8</title>
<g id="a_node8"><a xlink:href="group__NTS.html#ga5560d80c548e85eb53223a5e99410b7b" target="_top" xlink:title="Prints an Axis raw data chunk (used for debugging).">
<polygon fill="none" stroke="black" points="150.5,-228.5 150.5,-247.5 231.5,-247.5 231.5,-228.5 150.5,-228.5"/>
<text text-anchor="middle" x="191" y="-235.5" font-family="Helvetica,sans-Serif" font-size="10.00">printAxisRaw</text>
</a>
</g>
</g>
<!-- Node1&#45;&gt;Node8 -->
<g id="edge7" class="edge">
<title>Node1&#45;&gt;Node8</title>
<path fill="none" stroke="midnightblue" d="M85.09,-238C102.28,-238 122.36,-238 140.32,-238"/>
<polygon fill="midnightblue" stroke="midnightblue" points="140.32,-241.5 150.32,-238 140.32,-234.5 140.32,-241.5"/>
</g>
<!-- Node12 -->
<g id="node12" class="node">
<title>Node12</title>
<g id="a_node12"><a xlink:href="classAxisIp4.html#a7c1ca3829d3728d6e4f90589457f90e6" target="_top" xlink:title=" ">
<polygon fill="none" stroke="black" points="127,-190.5 127,-209.5 255,-209.5 255,-190.5 127,-190.5"/>
<text text-anchor="middle" x="191" y="-197.5" font-family="Helvetica,sans-Serif" font-size="10.00">AxisIp4::setIp4DstAddr</text>
</a>
</g>
</g>
<!-- Node1&#45;&gt;Node12 -->
<g id="edge11" class="edge">
<title>Node1&#45;&gt;Node12</title>
<path fill="none" stroke="midnightblue" d="M80.47,-228.41C99.63,-223.44 123.21,-217.32 143.59,-212.04"/>
<polygon fill="midnightblue" stroke="midnightblue" points="144.5,-215.42 153.3,-209.52 142.74,-208.64 144.5,-215.42"/>
</g>
<!-- Node13 -->
<g id="node13" class="node">
<title>Node13</title>
<g id="a_node13"><a xlink:href="classAxisIp4.html#a085796dd408f708015a75dad9dfb7a23" target="_top" xlink:title=" ">
<polygon fill="none" stroke="black" points="125.5,-152.5 125.5,-171.5 256.5,-171.5 256.5,-152.5 125.5,-152.5"/>
<text text-anchor="middle" x="191" y="-159.5" font-family="Helvetica,sans-Serif" font-size="10.00">AxisIp4::setTcpAckNum</text>
</a>
</g>
</g>
<!-- Node1&#45;&gt;Node13 -->
<g id="edge12" class="edge">
<title>Node1&#45;&gt;Node13</title>
<path fill="none" stroke="midnightblue" d="M54.21,-228.1C68.44,-215.45 94.85,-193.68 121,-181 125.89,-178.63 131.13,-176.51 136.44,-174.63"/>
<polygon fill="midnightblue" stroke="midnightblue" points="137.63,-177.93 146.05,-171.51 135.46,-171.27 137.63,-177.93"/>
</g>
<!-- Node14 -->
<g id="node14" class="node">
<title>Node14</title>
<g id="a_node14"><a xlink:href="classAxisIp4.html#a773dbaaf7fc24692a71366db9339ed0d" target="_top" xlink:title=" ">
<polygon fill="none" stroke="black" points="121,-114.5 121,-133.5 261,-133.5 261,-114.5 121,-114.5"/>
<text text-anchor="middle" x="191" y="-121.5" font-family="Helvetica,sans-Serif" font-size="10.00">AxisIp4::setTcpChecksum</text>
</a>
</g>
</g>
<!-- Node1&#45;&gt;Node14 -->
<g id="edge13" class="edge">
<title>Node1&#45;&gt;Node14</title>
<path fill="none" stroke="midnightblue" d="M48.68,-228.25C59.46,-208.92 86.23,-165.66 121,-143 124.15,-140.95 127.52,-139.11 131.02,-137.47"/>
<polygon fill="midnightblue" stroke="midnightblue" points="132.57,-140.62 140.49,-133.58 129.91,-134.14 132.57,-140.62"/>
</g>
<!-- Node15 -->
<g id="node15" class="node">
<title>Node15</title>
<g id="a_node15"><a xlink:href="classAxisIp4.html#a3f7d39759a52d0d395a6e07fd175b32d" target="_top" xlink:title=" ">
<polygon fill="none" stroke="black" points="128.5,-76.5 128.5,-95.5 253.5,-95.5 253.5,-76.5 128.5,-76.5"/>
<text text-anchor="middle" x="191" y="-83.5" font-family="Helvetica,sans-Serif" font-size="10.00">AxisIp4::setTcpDstPort</text>
</a>
</g>
</g>
<!-- Node1&#45;&gt;Node15 -->
<g id="edge14" class="edge">
<title>Node1&#45;&gt;Node15</title>
<path fill="none" stroke="midnightblue" d="M46.33,-228.25C54,-203.6 77.58,-138.41 121,-105 123.43,-103.13 126.04,-101.44 128.76,-99.92"/>
<polygon fill="midnightblue" stroke="midnightblue" points="130.27,-103.07 137.78,-95.6 127.25,-96.76 130.27,-103.07"/>
</g>
<!-- Node16 -->
<g id="node16" class="node">
<title>Node16</title>
<g id="a_node16"><a xlink:href="classAxisIp4.html#a34da42aab1856e54c6dda4936552a530" target="_top" xlink:title=" ">
<polygon fill="none" stroke="black" points="125.5,-38.5 125.5,-57.5 256.5,-57.5 256.5,-38.5 125.5,-38.5"/>
<text text-anchor="middle" x="191" y="-45.5" font-family="Helvetica,sans-Serif" font-size="10.00">AxisIp4::setTcpSeqNum</text>
</a>
</g>
</g>
<!-- Node1&#45;&gt;Node16 -->
<g id="edge15" class="edge">
<title>Node1&#45;&gt;Node16</title>
<path fill="none" stroke="midnightblue" d="M44.99,-228.15C49.97,-198.87 68.71,-111.67 121,-67 122.98,-65.31 125.11,-63.76 127.33,-62.35"/>
<polygon fill="midnightblue" stroke="midnightblue" points="129.15,-65.35 136.35,-57.57 125.87,-59.16 129.15,-65.35"/>
</g>
<!-- Node17 -->
<g id="node17" class="node">
<title>Node17</title>
<g id="a_node17"><a xlink:href="classAxisIp4.html#ac6192813f68d91a06e23dca65723dd03" target="_top" xlink:title=" ">
<polygon fill="none" stroke="black" points="129,-0.5 129,-19.5 253,-19.5 253,-0.5 129,-0.5"/>
<text text-anchor="middle" x="191" y="-7.5" font-family="Helvetica,sans-Serif" font-size="10.00">AxisIp4::setTcpSrcPort</text>
</a>
</g>
</g>
<!-- Node1&#45;&gt;Node17 -->
<g id="edge16" class="edge">
<title>Node1&#45;&gt;Node17</title>
<path fill="none" stroke="midnightblue" d="M44.07,-228.43C46.58,-195.45 59.4,-85.5 121,-29 122.71,-27.43 124.54,-25.99 126.46,-24.67"/>
<polygon fill="midnightblue" stroke="midnightblue" points="128.43,-27.57 135.39,-19.58 124.96,-21.49 128.43,-27.57"/>
</g>
<!-- Node9 -->
<g id="node9" class="node">
<title>Node9</title>
<g id="a_node9"><a xlink:href="classAxisRaw.html#a7034bcf8cf143fb2bb9bfc46e70a7d6b" target="_top" xlink:title=" ">
<polygon fill="none" stroke="black" points="297.5,-266.5 297.5,-285.5 422.5,-285.5 422.5,-266.5 297.5,-266.5"/>
<text text-anchor="middle" x="360" y="-273.5" font-family="Helvetica,sans-Serif" font-size="10.00">AxisRaw::getLE_TData</text>
</a>
</g>
</g>
<!-- Node8&#45;&gt;Node9 -->
<g id="edge8" class="edge">
<title>Node8&#45;&gt;Node9</title>
<path fill="none" stroke="midnightblue" d="M231.58,-247.01C254.21,-252.16 282.87,-258.68 307.27,-264.23"/>
<polygon fill="midnightblue" stroke="midnightblue" points="306.56,-267.66 317.08,-266.46 308.11,-260.83 306.56,-267.66"/>
</g>
<!-- Node10 -->
<g id="node10" class="node">
<title>Node10</title>
<g id="a_node10"><a xlink:href="classAxisRaw.html#a4becd0ad3c51e3db2749e888f2f72e31" target="_top" xlink:title=" ">
<polygon fill="none" stroke="black" points="297,-228.5 297,-247.5 423,-247.5 423,-228.5 297,-228.5"/>
<text text-anchor="middle" x="360" y="-235.5" font-family="Helvetica,sans-Serif" font-size="10.00">AxisRaw::getLE_TKeep</text>
</a>
</g>
</g>
<!-- Node8&#45;&gt;Node10 -->
<g id="edge9" class="edge">
<title>Node8&#45;&gt;Node10</title>
<path fill="none" stroke="midnightblue" d="M231.58,-238C248.09,-238 267.81,-238 286.75,-238"/>
<polygon fill="midnightblue" stroke="midnightblue" points="286.86,-241.5 296.86,-238 286.86,-234.5 286.86,-241.5"/>
</g>
<!-- Node11 -->
<g id="node11" class="node">
<title>Node11</title>
<g id="a_node11"><a xlink:href="classAxisRaw.html#af8208752dcbb14911c5fda27d90a0ef4" target="_top" xlink:title=" ">
<polygon fill="none" stroke="black" points="299,-190.5 299,-209.5 421,-209.5 421,-190.5 299,-190.5"/>
<text text-anchor="middle" x="360" y="-197.5" font-family="Helvetica,sans-Serif" font-size="10.00">AxisRaw::getLE_TLast</text>
</a>
</g>
</g>
<!-- Node8&#45;&gt;Node11 -->
<g id="edge10" class="edge">
<title>Node8&#45;&gt;Node11</title>
<path fill="none" stroke="midnightblue" d="M231.58,-228.99C254.21,-223.84 282.87,-217.32 307.27,-211.77"/>
<polygon fill="midnightblue" stroke="midnightblue" points="308.11,-215.17 317.08,-209.54 306.56,-208.34 308.11,-215.17"/>
</g>
</g>
</svg>
        <g id="navigator" transform="translate(0 0)" fill="#404254">
                <rect fill="#f2f5e9" fill-opacity="0.5" stroke="#606060" stroke-width=".5" x="0" y="0" width="60" height="60"/>
                <use id="zoomplus" xlink:href="#zoomPlus" x="17" y="9" onmousedown="handleZoom(evt,'in')"/>
                <use id="zoomminus" xlink:href="#zoomMin" x="42" y="9" onmousedown="handleZoom(evt,'out')"/>
                <use id="reset" xlink:href="#resetDef" x="30" y="36" onmousedown="handleReset()"/>
                <g id="arrowUp" xlink:href="#dirArrow" transform="translate(30 24)" onmousedown="handlePan(0,-1)">
                  <use xlink:href="#rim" fill="#404040">
                        <set attributeName="fill" to="#808080" begin="arrowUp.mouseover" end="arrowUp.mouseout"/>
                  </use>
                  <path fill="none" stroke="white" stroke-width="1.5" d="M0,-3.0v7 M-2.5,-0.5L0,-3.0L2.5,-0.5"/>
                </g>
                <g id="arrowRight" xlink:href="#dirArrow" transform="rotate(90) translate(36 -43)" onmousedown="handlePan(1,0)">
                  <use xlink:href="#rim" fill="#404040">
                        <set attributeName="fill" to="#808080" begin="arrowRight.mouseover" end="arrowRight.mouseout"/>
                  </use>
                  <path fill="none" stroke="white" stroke-width="1.5" d="M0,-3.0v7 M-2.5,-0.5L0,-3.0L2.5,-0.5"/>
                </g>
                <g id="arrowDown" xlink:href="#dirArrow" transform="rotate(180) translate(-30 -48)" onmousedown="handlePan(0,1)">
                  <use xlink:href="#rim" fill="#404040">
                        <set attributeName="fill" to="#808080" begin="arrowDown.mouseover" end="arrowDown.mouseout"/>
                  </use>
                  <path fill="none" stroke="white" stroke-width="1.5" d="M0,-3.0v7 M-2.5,-0.5L0,-3.0L2.5,-0.5"/>
                </g>
                <g id="arrowLeft" xlink:href="#dirArrow" transform="rotate(270) translate(-36 17)" onmousedown="handlePan(-1,0)">
                  <use xlink:href="#rim" fill="#404040">
                        <set attributeName="fill" to="#808080" begin="arrowLeft.mouseover" end="arrowLeft.mouseout"/>
                  </use>
                  <path fill="none" stroke="white" stroke-width="1.5" d="M0,-3.0v7 M-2.5,-0.5L0,-3.0L2.5,-0.5"/>
                </g>
        </g>
        <svg viewBox="0 0 15 15" width="100%" height="30px" preserveAspectRatio="xMaxYMin meet">
         <g id="arrow_out" transform="scale(0.3 0.3)">
          <a xlink:href="group__NTS__TOE_gac0201792cfc1cc0e1f4ac174c5ff71ec_cgraph_org.svg" target="_base">
           <rect id="button" ry="5" rx="5" y="6" x="6" height="38" width="38"
                fill="#f2f5e9" fill-opacity="0.5" stroke="#606060" stroke-width="1.0"/>
           <path id="arrow"
             d="M 11.500037,31.436501 C 11.940474,20.09759 22.043105,11.32322 32.158766,21.979434 L 37.068811,17.246167 C 37.068811,17.246167 37.088388,32 37.088388,32 L 22.160133,31.978069 C 22.160133,31.978069 26.997745,27.140456 26.997745,27.140456 C 18.528582,18.264221 13.291696,25.230495 11.500037,31.436501 z"
             style="fill:#404040;"/>
          </a>
         </g>
        </svg>
</svg>
