<?xml version="1.0" encoding="UTF-8" standalone="no"?>
<!DOCTYPE svg PUBLIC "-//W3C//DTD SVG 1.1//EN"
 "http://www.w3.org/Graphics/SVG/1.1/DTD/svg11.dtd">
<!-- Generated by graphviz version 2.43.0 (0)
 -->
<!-- Title: setInputDataStream Pages: 1 -->
<svg width="457pt" height="218pt"
 viewBox="0.00 0.00 457.00 218.00" xmlns="http://www.w3.org/2000/svg" xmlns:xlink="http://www.w3.org/1999/xlink">
<g id="graph0" class="graph" transform="scale(1 1) rotate(0) translate(4 214)">
<title>setInputDataStream</title>
<!-- Node1 -->
<g id="node1" class="node">
<title>Node1</title>
<g id="a_node1"><a xlink:title="Initialize an input data stream from a file.">
<polygon fill="#bfbfbf" stroke="black" points="0,-95.5 0,-114.5 115,-114.5 115,-95.5 0,-95.5"/>
<text text-anchor="middle" x="57.5" y="-102.5" font-family="Helvetica,sans-Serif" font-size="10.00">setInputDataStream</text>
</a>
</g>
</g>
<!-- Node2 -->
<g id="node2" class="node">
<title>Node2</title>
<g id="a_node2"><a xlink:href="classAxisRaw.html#a208a8bf67decab3e92139c8afc9aa149" target="_top" xlink:title=" ">
<polygon fill="none" stroke="black" points="151.5,-190.5 151.5,-209.5 260.5,-209.5 260.5,-190.5 151.5,-190.5"/>
<text text-anchor="middle" x="206" y="-197.5" font-family="Helvetica,sans-Serif" font-size="10.00">AxisRaw::getTData</text>
</a>
</g>
</g>
<!-- Node1&#45;&gt;Node2 -->
<g id="edge1" class="edge">
<title>Node1&#45;&gt;Node2</title>
<path fill="none" stroke="midnightblue" d="M67.91,-114.68C83.75,-130.5 117.32,-162.02 151,-181 154.65,-183.06 158.57,-184.95 162.56,-186.68"/>
<polygon fill="midnightblue" stroke="midnightblue" points="161.34,-189.97 171.93,-190.42 163.94,-183.47 161.34,-189.97"/>
</g>
<!-- Node3 -->
<g id="node3" class="node">
<title>Node3</title>
<g id="a_node3"><a xlink:href="classAxisRaw.html#acb10d569e10f95bdd0be0af34ce605bd" target="_top" xlink:title=" ">
<polygon fill="none" stroke="black" points="151,-152.5 151,-171.5 261,-171.5 261,-152.5 151,-152.5"/>
<text text-anchor="middle" x="206" y="-159.5" font-family="Helvetica,sans-Serif" font-size="10.00">AxisRaw::getTKeep</text>
</a>
</g>
</g>
<!-- Node1&#45;&gt;Node3 -->
<g id="edge2" class="edge">
<title>Node1&#45;&gt;Node3</title>
<path fill="none" stroke="midnightblue" d="M80.8,-114.54C99.46,-122.43 126.83,-133.79 151,-143 156.22,-144.99 161.76,-147.02 167.22,-148.98"/>
<polygon fill="midnightblue" stroke="midnightblue" points="166.28,-152.37 176.87,-152.41 168.62,-145.77 166.28,-152.37"/>
</g>
<!-- Node4 -->
<g id="node4" class="node">
<title>Node4</title>
<g id="a_node4"><a xlink:href="classAxisRaw.html#a42cd520c9b19f7c2fc6d2fc204cb30b7" target="_top" xlink:title=" ">
<polygon fill="none" stroke="black" points="153,-114.5 153,-133.5 259,-133.5 259,-114.5 153,-114.5"/>
<text text-anchor="middle" x="206" y="-121.5" font-family="Helvetica,sans-Serif" font-size="10.00">AxisRaw::getTLast</text>
</a>
</g>
</g>
<!-- Node1&#45;&gt;Node4 -->
<g id="edge3" class="edge">
<title>Node1&#45;&gt;Node4</title>
<path fill="none" stroke="midnightblue" d="M115.14,-112.35C124.15,-113.51 133.51,-114.73 142.64,-115.91"/>
<polygon fill="midnightblue" stroke="midnightblue" points="142.46,-119.42 152.83,-117.23 143.36,-112.48 142.46,-119.42"/>
</g>
<!-- Node5 -->
<g id="node5" class="node">
<title>Node5</title>
<g id="a_node5"><a xlink:href="classAxisRaw.html#acfbcd3fa29b19fdf650e915a01542432" target="_top" xlink:title=" ">
<polygon fill="none" stroke="black" points="152,-76.5 152,-95.5 260,-95.5 260,-76.5 152,-76.5"/>
<text text-anchor="middle" x="206" y="-83.5" font-family="Helvetica,sans-Serif" font-size="10.00">AxisRaw::setTData</text>
</a>
</g>
</g>
<!-- Node1&#45;&gt;Node5 -->
<g id="edge4" class="edge">
<title>Node1&#45;&gt;Node5</title>
<path fill="none" stroke="midnightblue" d="M115.14,-97.65C123.92,-96.52 133.03,-95.33 141.93,-94.18"/>
<polygon fill="midnightblue" stroke="midnightblue" points="142.41,-97.65 151.87,-92.89 141.51,-90.71 142.41,-97.65"/>
</g>
<!-- Node6 -->
<g id="node6" class="node">
<title>Node6</title>
<g id="a_node6"><a xlink:href="classAxisRaw.html#aa856c8e559a50d2e7bbdbbfd51b76ba9" target="_top" xlink:title=" ">
<polygon fill="none" stroke="black" points="151.5,-38.5 151.5,-57.5 260.5,-57.5 260.5,-38.5 151.5,-38.5"/>
<text text-anchor="middle" x="206" y="-45.5" font-family="Helvetica,sans-Serif" font-size="10.00">AxisRaw::setTKeep</text>
</a>
</g>
</g>
<!-- Node1&#45;&gt;Node6 -->
<g id="edge5" class="edge">
<title>Node1&#45;&gt;Node6</title>
<path fill="none" stroke="midnightblue" d="M80.8,-95.46C99.46,-87.57 126.83,-76.21 151,-67 156.22,-65.01 161.76,-62.98 167.22,-61.02"/>
<polygon fill="midnightblue" stroke="midnightblue" points="168.62,-64.23 176.87,-57.59 166.28,-57.63 168.62,-64.23"/>
</g>
<!-- Node7 -->
<g id="node7" class="node">
<title>Node7</title>
<g id="a_node7"><a xlink:href="classAxisRaw.html#a1238c47d46a7d858c542f55797dfc9f2" target="_top" xlink:title=" ">
<polygon fill="none" stroke="black" points="153.5,-0.5 153.5,-19.5 258.5,-19.5 258.5,-0.5 153.5,-0.5"/>
<text text-anchor="middle" x="206" y="-7.5" font-family="Helvetica,sans-Serif" font-size="10.00">AxisRaw::setTLast</text>
</a>
</g>
</g>
<!-- Node1&#45;&gt;Node7 -->
<g id="edge6" class="edge">
<title>Node1&#45;&gt;Node7</title>
<path fill="none" stroke="midnightblue" d="M67.91,-95.32C83.75,-79.5 117.32,-47.98 151,-29 154.65,-26.94 158.57,-25.05 162.56,-23.32"/>
<polygon fill="midnightblue" stroke="midnightblue" points="163.94,-26.53 171.93,-19.58 161.34,-20.03 163.94,-26.53"/>
</g>
<!-- Node8 -->
<g id="node8" class="node">
<title>Node8</title>
<g id="a_node8"><a xlink:href="classAxisRaw.html#a4e8ed9ad2072a6563870f9344c362a4e" target="_top" xlink:title=" ">
<polygon fill="none" stroke="black" points="297,-0.5 297,-19.5 449,-19.5 449,-0.5 297,-0.5"/>
<text text-anchor="middle" x="373" y="-7.5" font-family="Helvetica,sans-Serif" font-size="10.00">AxisRaw::clearUnusedBytes</text>
</a>
</g>
</g>
<!-- Node7&#45;&gt;Node8 -->
<g id="edge7" class="edge">
<title>Node7&#45;&gt;Node8</title>
<path fill="none" stroke="midnightblue" d="M258.75,-10C267.64,-10 277.08,-10 286.57,-10"/>
<polygon fill="midnightblue" stroke="midnightblue" points="286.86,-13.5 296.86,-10 286.86,-6.5 286.86,-13.5"/>
</g>
</g>
</svg>
