<?xml version="1.0" encoding="UTF-8" standalone="no"?>
<!DOCTYPE svg PUBLIC "-//W3C//DTD SVG 1.1//EN"
 "http://www.w3.org/Graphics/SVG/1.1/DTD/svg11.dtd">
<!-- Generated by graphviz version 2.43.0 (0)
 -->
<!-- Title: pTOE Pages: 1 -->
<!--zoomable 484 -->
<svg id="main" version="1.1" xmlns="http://www.w3.org/2000/svg" xmlns:xlink="http://www.w3.org/1999/xlink" xml:space="preserve" onload="init(evt)">
<style type="text/css"><![CDATA[
.edge:hover path { stroke: red; }
.edge:hover polygon { stroke: red; fill: red; }
]]></style>
<script type="text/javascript"><![CDATA[
var edges = document.getElementsByTagName('g');
if (edges && edges.length) {
  for (var i=0;i<edges.length;i++) {
    if (edges[i].id.substr(0,4)=='edge') {
      edges[i].setAttribute('class','edge');
    }
  }
}
]]></script>
        <defs>
                <circle id="rim" cx="0" cy="0" r="7"/>
                <circle id="rim2" cx="0" cy="0" r="3.5"/>
                <g id="zoomPlus">
                        <use xlink:href="#rim" fill="#404040">
                                <set attributeName="fill" to="#808080" begin="zoomplus.mouseover" end="zoomplus.mouseout"/>
                        </use>
                        <path d="M-4,0h8M0,-4v8" fill="none" stroke="white" stroke-width="1.5" pointer-events="none"/>
                </g>
                <g id="zoomMin">
                        <use xlink:href="#rim" fill="#404040">
                                <set attributeName="fill" to="#808080" begin="zoomminus.mouseover" end="zoomminus.mouseout"/>
                        </use>
                        <path d="M-4,0h8" fill="none" stroke="white" stroke-width="1.5" pointer-events="none"/>
                </g>
                <g id="dirArrow">
                        <path fill="none" stroke="white" stroke-width="1.5" d="M0,-3.0v7 M-2.5,-0.5L0,-3.0L2.5,-0.5"/>
                </g>
               <g id="resetDef">
                       <use xlink:href="#rim2" fill="#404040">
                               <set attributeName="fill" to="#808080" begin="reset.mouseover" end="reset.mouseout"/>
                       </use>
               </g>
        </defs>

<script type="text/javascript">
var viewWidth = 558;
var viewHeight = 484;
var sectionId = 'dynsection-18';
</script>
<script xlink:href="svgpan.js"/>
<svg id="graph" class="graph">
<g id="viewport">
<title>pTOE</title>
<!-- Node1 -->
<g id="node1" class="node">
<title>Node1</title>
<g id="a_node1"><a xlink:title="Emulate behavior of the SHELL/NTS/TCP Offload Engine (TOE).">
<polygon fill="#bfbfbf" stroke="black" points="0,-228.5 0,-247.5 42,-247.5 42,-228.5 0,-228.5"/>
<text text-anchor="middle" x="21" y="-235.5" font-family="Helvetica,sans-Serif" font-size="10.00">pTOE</text>
</a>
</g>
</g>
<!-- Node2 -->
<g id="node2" class="node">
<title>Node2</title>
<g id="a_node2"><a xlink:href="udp_8cpp.html#ga3179abf5c515026aad3e82047a1dd9a3" target="_top" xlink:title=" ">
<polygon fill="none" stroke="black" points="102,-456.5 102,-475.5 179,-475.5 179,-456.5 102,-456.5"/>
<text text-anchor="middle" x="140.5" y="-463.5" font-family="Helvetica,sans-Serif" font-size="10.00">byteSwap16</text>
</a>
</g>
</g>
<!-- Node1&#45;&gt;Node2 -->
<g id="edge1" class="edge">
<title>Node1&#45;&gt;Node2</title>
<path fill="none" stroke="midnightblue" d="M21.54,-247.89C20.56,-280.95 21.98,-388.82 78,-447 81.97,-451.13 86.82,-454.36 92.03,-456.9"/>
<polygon fill="midnightblue" stroke="midnightblue" points="91.11,-460.3 101.7,-460.75 93.7,-453.8 91.11,-460.3"/>
</g>
<!-- Node3 -->
<g id="node3" class="node">
<title>Node3</title>
<g id="a_node3"><a xlink:href="udp_8cpp.html#ga2355e0cecd0576470bca0178c4c1aec2" target="_top" xlink:title=" ">
<polygon fill="none" stroke="black" points="102,-418.5 102,-437.5 179,-437.5 179,-418.5 102,-418.5"/>
<text text-anchor="middle" x="140.5" y="-425.5" font-family="Helvetica,sans-Serif" font-size="10.00">byteSwap32</text>
</a>
</g>
</g>
<!-- Node1&#45;&gt;Node3 -->
<g id="edge2" class="edge">
<title>Node1&#45;&gt;Node3</title>
<path fill="none" stroke="midnightblue" d="M22.23,-247.71C23.43,-276.59 31,-362.79 78,-409 82.08,-413.02 87,-416.18 92.24,-418.69"/>
<polygon fill="midnightblue" stroke="midnightblue" points="91.36,-422.1 101.94,-422.5 93.92,-415.58 91.36,-422.1"/>
</g>
<!-- Node4 -->
<g id="node4" class="node">
<title>Node4</title>
<g id="a_node4"><a xlink:href="group__NTS.html#gaad9a84ad2c6d3af643cc126ae4704744" target="_top" xlink:title="A function to set a number of &#39;1&#39; in an 8&#45;bit field. It is used here to set the number of valid bytes...">
<polygon fill="none" stroke="black" points="105.5,-380.5 105.5,-399.5 175.5,-399.5 175.5,-380.5 105.5,-380.5"/>
<text text-anchor="middle" x="140.5" y="-387.5" font-family="Helvetica,sans-Serif" font-size="10.00">lenTotKeep</text>
</a>
</g>
</g>
<!-- Node1&#45;&gt;Node4 -->
<g id="edge3" class="edge">
<title>Node1&#45;&gt;Node4</title>
<path fill="none" stroke="midnightblue" d="M23.25,-247.63C26.92,-271.98 39.93,-336.52 78,-371 83.06,-375.59 89.22,-379.07 95.65,-381.71"/>
<polygon fill="midnightblue" stroke="midnightblue" points="94.59,-385.04 105.18,-385 96.88,-378.43 94.59,-385.04"/>
</g>
<!-- Node5 -->
<g id="node5" class="node">
<title>Node5</title>
<g id="a_node5"><a xlink:href="group__NTS.html#ga5560d80c548e85eb53223a5e99410b7b" target="_top" xlink:title="Prints an Axis raw data chunk (used for debugging).">
<polygon fill="none" stroke="black" points="100,-304.5 100,-323.5 181,-323.5 181,-304.5 100,-304.5"/>
<text text-anchor="middle" x="140.5" y="-311.5" font-family="Helvetica,sans-Serif" font-size="10.00">printAxisRaw</text>
</a>
</g>
</g>
<!-- Node1&#45;&gt;Node5 -->
<g id="edge4" class="edge">
<title>Node1&#45;&gt;Node5</title>
<path fill="none" stroke="midnightblue" d="M28.88,-247.5C38.5,-260.12 57.15,-282.3 78,-295 81.86,-297.35 86.04,-299.44 90.34,-301.28"/>
<polygon fill="midnightblue" stroke="midnightblue" points="89.27,-304.61 99.86,-304.93 91.78,-298.08 89.27,-304.61"/>
</g>
<!-- Node9 -->
<g id="node9" class="node">
<title>Node9</title>
<g id="a_node9"><a xlink:href="group__NTS.html#ga868a2a0831dcd26fa88eadae8f61f92c" target="_top" xlink:title="Print a socket address.">
<polygon fill="none" stroke="black" points="98,-228.5 98,-247.5 183,-247.5 183,-228.5 98,-228.5"/>
<text text-anchor="middle" x="140.5" y="-235.5" font-family="Helvetica,sans-Serif" font-size="10.00">printSockAddr</text>
</a>
</g>
</g>
<!-- Node1&#45;&gt;Node9 -->
<g id="edge8" class="edge">
<title>Node1&#45;&gt;Node9</title>
<path fill="none" stroke="midnightblue" d="M42.2,-238C54.69,-238 71.33,-238 87.32,-238"/>
<polygon fill="midnightblue" stroke="midnightblue" points="87.69,-241.5 97.69,-238 87.69,-234.5 87.69,-241.5"/>
</g>
<!-- Node10 -->
<g id="node10" class="node">
<title>Node10</title>
<g id="a_node10"><a xlink:href="classAxisRaw.html#aa3f30a26f59cb6430ffd9196ab30c6d6" target="_top" xlink:title=" ">
<polygon fill="none" stroke="black" points="78,-190.5 78,-209.5 203,-209.5 203,-190.5 78,-190.5"/>
<text text-anchor="middle" x="140.5" y="-197.5" font-family="Helvetica,sans-Serif" font-size="10.00">AxisRaw::setLE_TData</text>
</a>
</g>
</g>
<!-- Node1&#45;&gt;Node10 -->
<g id="edge9" class="edge">
<title>Node1&#45;&gt;Node10</title>
<path fill="none" stroke="midnightblue" d="M42.17,-231.01C52.81,-227.36 66.08,-222.86 78,-219 84.57,-216.87 91.55,-214.66 98.37,-212.54"/>
<polygon fill="midnightblue" stroke="midnightblue" points="99.65,-215.8 108.16,-209.5 97.57,-209.12 99.65,-215.8"/>
</g>
<!-- Node11 -->
<g id="node11" class="node">
<title>Node11</title>
<g id="a_node11"><a xlink:href="classAxisRaw.html#ae8f59ce9fd52536106de4db99df4558e" target="_top" xlink:title=" ">
<polygon fill="none" stroke="black" points="78,-152.5 78,-171.5 203,-171.5 203,-152.5 78,-152.5"/>
<text text-anchor="middle" x="140.5" y="-159.5" font-family="Helvetica,sans-Serif" font-size="10.00">AxisRaw::setLE_TKeep</text>
</a>
</g>
</g>
<!-- Node1&#45;&gt;Node11 -->
<g id="edge10" class="edge">
<title>Node1&#45;&gt;Node11</title>
<path fill="none" stroke="midnightblue" d="M28.88,-228.5C38.5,-215.88 57.15,-193.7 78,-181 81.45,-178.9 85.14,-177.02 88.95,-175.33"/>
<polygon fill="midnightblue" stroke="midnightblue" points="90.56,-178.46 98.57,-171.52 87.98,-171.95 90.56,-178.46"/>
</g>
<!-- Node12 -->
<g id="node12" class="node">
<title>Node12</title>
<g id="a_node12"><a xlink:href="classAxisRaw.html#a7fd855df91177afa363d72b3eb17af25" target="_top" xlink:title=" ">
<polygon fill="none" stroke="black" points="79.5,-114.5 79.5,-133.5 201.5,-133.5 201.5,-114.5 79.5,-114.5"/>
<text text-anchor="middle" x="140.5" y="-121.5" font-family="Helvetica,sans-Serif" font-size="10.00">AxisRaw::setLE_TLast</text>
</a>
</g>
</g>
<!-- Node1&#45;&gt;Node12 -->
<g id="edge11" class="edge">
<title>Node1&#45;&gt;Node12</title>
<path fill="none" stroke="midnightblue" d="M25.03,-228.33C31.55,-209.15 48.71,-166.15 78,-143 80.3,-141.18 82.78,-139.54 85.37,-138.05"/>
<polygon fill="midnightblue" stroke="midnightblue" points="87.09,-141.1 94.53,-133.56 84.01,-134.81 87.09,-141.1"/>
</g>
<!-- Node13 -->
<g id="node13" class="node">
<title>Node13</title>
<g id="a_node13"><a xlink:href="classAxisRaw.html#acfbcd3fa29b19fdf650e915a01542432" target="_top" xlink:title=" ">
<polygon fill="none" stroke="black" points="86.5,-76.5 86.5,-95.5 194.5,-95.5 194.5,-76.5 86.5,-76.5"/>
<text text-anchor="middle" x="140.5" y="-83.5" font-family="Helvetica,sans-Serif" font-size="10.00">AxisRaw::setTData</text>
</a>
</g>
</g>
<!-- Node1&#45;&gt;Node13 -->
<g id="edge12" class="edge">
<title>Node1&#45;&gt;Node13</title>
<path fill="none" stroke="midnightblue" d="M23.25,-228.37C26.92,-204.02 39.93,-139.48 78,-105 79.75,-103.42 81.63,-101.96 83.61,-100.63"/>
<polygon fill="midnightblue" stroke="midnightblue" points="85.74,-103.45 92.79,-95.54 82.34,-97.33 85.74,-103.45"/>
</g>
<!-- Node14 -->
<g id="node14" class="node">
<title>Node14</title>
<g id="a_node14"><a xlink:href="classAxisRaw.html#aa856c8e559a50d2e7bbdbbfd51b76ba9" target="_top" xlink:title=" ">
<polygon fill="none" stroke="black" points="86,-38.5 86,-57.5 195,-57.5 195,-38.5 86,-38.5"/>
<text text-anchor="middle" x="140.5" y="-45.5" font-family="Helvetica,sans-Serif" font-size="10.00">AxisRaw::setTKeep</text>
</a>
</g>
</g>
<!-- Node1&#45;&gt;Node14 -->
<g id="edge13" class="edge">
<title>Node1&#45;&gt;Node14</title>
<path fill="none" stroke="midnightblue" d="M22.23,-228.29C23.43,-199.41 31,-113.21 78,-67 79.46,-65.56 81.03,-64.23 82.69,-63"/>
<polygon fill="midnightblue" stroke="midnightblue" points="84.8,-65.81 91.56,-57.65 81.19,-59.82 84.8,-65.81"/>
</g>
<!-- Node15 -->
<g id="node15" class="node">
<title>Node15</title>
<g id="a_node15"><a xlink:href="classAxisRaw.html#a1238c47d46a7d858c542f55797dfc9f2" target="_top" xlink:title=" ">
<polygon fill="none" stroke="black" points="88,-0.5 88,-19.5 193,-19.5 193,-0.5 88,-0.5"/>
<text text-anchor="middle" x="140.5" y="-7.5" font-family="Helvetica,sans-Serif" font-size="10.00">AxisRaw::setTLast</text>
</a>
</g>
</g>
<!-- Node1&#45;&gt;Node15 -->
<g id="edge14" class="edge">
<title>Node1&#45;&gt;Node15</title>
<path fill="none" stroke="midnightblue" d="M21.54,-228.11C20.56,-195.05 21.98,-87.18 78,-29 79.4,-27.55 80.9,-26.21 82.49,-24.97"/>
<polygon fill="midnightblue" stroke="midnightblue" points="84.44,-27.88 91.04,-19.59 80.72,-21.95 84.44,-27.88"/>
</g>
<!-- Node17 -->
<g id="node17" class="node">
<title>Node17</title>
<g id="a_node17"><a xlink:href="group__NTS__SIM.html#gaa3e64334cd72190d26fba010106f9de0" target="_top" xlink:title="Dump a TCP or UDP application data chunk into a file. The data are stored as a stream of bytes which ...">
<polygon fill="none" stroke="black" points="86,-266.5 86,-285.5 195,-285.5 195,-266.5 86,-266.5"/>
<text text-anchor="middle" x="140.5" y="-273.5" font-family="Helvetica,sans-Serif" font-size="10.00">writeAxisAppToFile</text>
</a>
</g>
</g>
<!-- Node1&#45;&gt;Node17 -->
<g id="edge16" class="edge">
<title>Node1&#45;&gt;Node17</title>
<path fill="none" stroke="midnightblue" d="M42.17,-244.99C52.81,-248.64 66.08,-253.14 78,-257 84.57,-259.13 91.55,-261.34 98.37,-263.46"/>
<polygon fill="midnightblue" stroke="midnightblue" points="97.57,-266.88 108.16,-266.5 99.65,-260.2 97.57,-266.88"/>
</g>
<!-- Node20 -->
<g id="node20" class="node">
<title>Node20</title>
<g id="a_node20"><a xlink:href="group__NTS__SIM.html#ga3fa45716710c0aeab2d9c48492828087" target="_top" xlink:title="Dump an Axis raw data chunk to a file.">
<polygon fill="none" stroke="black" points="85,-342.5 85,-361.5 196,-361.5 196,-342.5 85,-342.5"/>
<text text-anchor="middle" x="140.5" y="-349.5" font-family="Helvetica,sans-Serif" font-size="10.00">writeAxisRawToFile</text>
</a>
</g>
</g>
<!-- Node1&#45;&gt;Node20 -->
<g id="edge21" class="edge">
<title>Node1&#45;&gt;Node20</title>
<path fill="none" stroke="midnightblue" d="M25.03,-247.67C31.55,-266.85 48.71,-309.85 78,-333 80.3,-334.82 82.78,-336.46 85.37,-337.95"/>
<polygon fill="midnightblue" stroke="midnightblue" points="84.01,-341.19 94.53,-342.44 87.09,-334.9 84.01,-341.19"/>
</g>
<!-- Node6 -->
<g id="node6" class="node">
<title>Node6</title>
<g id="a_node6"><a xlink:href="classAxisRaw.html#a7034bcf8cf143fb2bb9bfc46e70a7d6b" target="_top" xlink:title=" ">
<polygon fill="none" stroke="black" points="252.5,-304.5 252.5,-323.5 377.5,-323.5 377.5,-304.5 252.5,-304.5"/>
<text text-anchor="middle" x="315" y="-311.5" font-family="Helvetica,sans-Serif" font-size="10.00">AxisRaw::getLE_TData</text>
</a>
</g>
</g>
<!-- Node5&#45;&gt;Node6 -->
<g id="edge5" class="edge">
<title>Node5&#45;&gt;Node6</title>
<path fill="none" stroke="midnightblue" d="M181.07,-314C199.2,-314 221.25,-314 242.15,-314"/>
<polygon fill="midnightblue" stroke="midnightblue" points="242.29,-317.5 252.29,-314 242.29,-310.5 242.29,-317.5"/>
</g>
<!-- Node7 -->
<g id="node7" class="node">
<title>Node7</title>
<g id="a_node7"><a xlink:href="classAxisRaw.html#a4becd0ad3c51e3db2749e888f2f72e31" target="_top" xlink:title=" ">
<polygon fill="none" stroke="black" points="252,-266.5 252,-285.5 378,-285.5 378,-266.5 252,-266.5"/>
<text text-anchor="middle" x="315" y="-273.5" font-family="Helvetica,sans-Serif" font-size="10.00">AxisRaw::getLE_TKeep</text>
</a>
</g>
</g>
<!-- Node5&#45;&gt;Node7 -->
<g id="edge6" class="edge">
<title>Node5&#45;&gt;Node7</title>
<path fill="none" stroke="midnightblue" d="M181.07,-305.28C204.7,-300.08 235,-293.4 260.71,-287.74"/>
<polygon fill="midnightblue" stroke="midnightblue" points="261.66,-291.11 270.68,-285.54 260.16,-284.28 261.66,-291.11"/>
</g>
<!-- Node8 -->
<g id="node8" class="node">
<title>Node8</title>
<g id="a_node8"><a xlink:href="classAxisRaw.html#af8208752dcbb14911c5fda27d90a0ef4" target="_top" xlink:title=" ">
<polygon fill="none" stroke="black" points="254,-342.5 254,-361.5 376,-361.5 376,-342.5 254,-342.5"/>
<text text-anchor="middle" x="315" y="-349.5" font-family="Helvetica,sans-Serif" font-size="10.00">AxisRaw::getLE_TLast</text>
</a>
</g>
</g>
<!-- Node5&#45;&gt;Node8 -->
<g id="edge7" class="edge">
<title>Node5&#45;&gt;Node8</title>
<path fill="none" stroke="midnightblue" d="M181.07,-322.72C204.7,-327.92 235,-334.6 260.71,-340.26"/>
<polygon fill="midnightblue" stroke="midnightblue" points="260.16,-343.72 270.68,-342.46 261.66,-336.89 260.16,-343.72"/>
</g>
<!-- Node16 -->
<g id="node16" class="node">
<title>Node16</title>
<g id="a_node16"><a xlink:href="classAxisRaw.html#a4e8ed9ad2072a6563870f9344c362a4e" target="_top" xlink:title=" ">
<polygon fill="none" stroke="black" points="239,-0.5 239,-19.5 391,-19.5 391,-0.5 239,-0.5"/>
<text text-anchor="middle" x="315" y="-7.5" font-family="Helvetica,sans-Serif" font-size="10.00">AxisRaw::clearUnusedBytes</text>
</a>
</g>
</g>
<!-- Node15&#45;&gt;Node16 -->
<g id="edge15" class="edge">
<title>Node15&#45;&gt;Node16</title>
<path fill="none" stroke="midnightblue" d="M193.26,-10C204.42,-10 216.51,-10 228.57,-10"/>
<polygon fill="midnightblue" stroke="midnightblue" points="228.68,-13.5 238.68,-10 228.68,-6.5 228.68,-13.5"/>
</g>
<!-- Node17&#45;&gt;Node6 -->
<g id="edge17" class="edge">
<title>Node17&#45;&gt;Node6</title>
<path fill="none" stroke="midnightblue" d="M185.03,-285.59C208.1,-290.67 236.63,-296.96 260.98,-302.32"/>
<polygon fill="midnightblue" stroke="midnightblue" points="260.27,-305.75 270.78,-304.48 261.77,-298.91 260.27,-305.75"/>
</g>
<!-- Node17&#45;&gt;Node7 -->
<g id="edge18" class="edge">
<title>Node17&#45;&gt;Node7</title>
<path fill="none" stroke="midnightblue" d="M195.13,-276C209.9,-276 226.16,-276 241.79,-276"/>
<polygon fill="midnightblue" stroke="midnightblue" points="241.95,-279.5 251.95,-276 241.95,-272.5 241.95,-279.5"/>
</g>
<!-- Node18 -->
<g id="node18" class="node">
<title>Node18</title>
<g id="a_node18"><a xlink:href="classAxisRaw.html#a42cd520c9b19f7c2fc6d2fc204cb30b7" target="_top" xlink:title=" ">
<polygon fill="none" stroke="black" points="262,-190.5 262,-209.5 368,-209.5 368,-190.5 262,-190.5"/>
<text text-anchor="middle" x="315" y="-197.5" font-family="Helvetica,sans-Serif" font-size="10.00">AxisRaw::getTLast</text>
</a>
</g>
</g>
<!-- Node17&#45;&gt;Node18 -->
<g id="edge19" class="edge">
<title>Node17&#45;&gt;Node18</title>
<path fill="none" stroke="midnightblue" d="M182.82,-266.46C189.83,-263.95 196.83,-260.83 203,-257 222.76,-244.72 218.93,-230.77 239,-219 243.13,-216.58 247.56,-214.47 252.13,-212.62"/>
<polygon fill="midnightblue" stroke="midnightblue" points="253.43,-215.87 261.65,-209.19 251.06,-209.28 253.43,-215.87"/>
</g>
<!-- Node19 -->
<g id="node19" class="node">
<title>Node19</title>
<g id="a_node19"><a xlink:href="group__NTS__SIM.html#ga23351fea2192ce82bbb836404a52973b" target="_top" xlink:title="Converts an UINT8 into a string of 2 HEX characters.">
<polygon fill="none" stroke="black" points="264,-228.5 264,-247.5 366,-247.5 366,-228.5 264,-228.5"/>
<text text-anchor="middle" x="315" y="-235.5" font-family="Helvetica,sans-Serif" font-size="10.00">myUint8ToStrHex</text>
</a>
</g>
</g>
<!-- Node17&#45;&gt;Node19 -->
<g id="edge20" class="edge">
<title>Node17&#45;&gt;Node19</title>
<path fill="none" stroke="midnightblue" d="M185.03,-266.41C208.1,-261.33 236.63,-255.04 260.98,-249.68"/>
<polygon fill="midnightblue" stroke="midnightblue" points="261.77,-253.09 270.78,-247.52 260.27,-246.25 261.77,-253.09"/>
</g>
<!-- Node20&#45;&gt;Node6 -->
<g id="edge22" class="edge">
<title>Node20&#45;&gt;Node6</title>
<path fill="none" stroke="midnightblue" d="M185.03,-342.41C208.1,-337.33 236.63,-331.04 260.98,-325.68"/>
<polygon fill="midnightblue" stroke="midnightblue" points="261.77,-329.09 270.78,-323.52 260.27,-322.25 261.77,-329.09"/>
</g>
<!-- Node20&#45;&gt;Node7 -->
<g id="edge23" class="edge">
<title>Node20&#45;&gt;Node7</title>
<path fill="none" stroke="midnightblue" d="M182.82,-342.46C189.83,-339.95 196.83,-336.83 203,-333 222.76,-320.72 218.93,-306.77 239,-295 242.72,-292.82 246.68,-290.89 250.76,-289.18"/>
<polygon fill="midnightblue" stroke="midnightblue" points="252.32,-292.34 260.47,-285.57 249.88,-285.78 252.32,-292.34"/>
</g>
<!-- Node20&#45;&gt;Node8 -->
<g id="edge24" class="edge">
<title>Node20&#45;&gt;Node8</title>
<path fill="none" stroke="midnightblue" d="M196.08,-352C211.14,-352 227.7,-352 243.52,-352"/>
<polygon fill="midnightblue" stroke="midnightblue" points="243.79,-355.5 253.79,-352 243.79,-348.5 243.79,-355.5"/>
</g>
<!-- Node21 -->
<g id="node21" class="node">
<title>Node21</title>
<g id="a_node21"><a xlink:href="group__UppercaseHLS.html#gae061e0acc4f8984634689d549fdae11b" target="_top" xlink:title="Main process of the Uppercase Application directives.">
<polygon fill="none" stroke="black" points="281.5,-380.5 281.5,-399.5 348.5,-399.5 348.5,-380.5 281.5,-380.5"/>
<text text-anchor="middle" x="315" y="-387.5" font-family="Helvetica,sans-Serif" font-size="10.00">uppercase</text>
</a>
</g>
</g>
<!-- Node20&#45;&gt;Node21 -->
<g id="edge25" class="edge">
<title>Node20&#45;&gt;Node21</title>
<path fill="none" stroke="midnightblue" d="M185.03,-361.59C211.46,-367.41 245.06,-374.81 271.33,-380.6"/>
<polygon fill="midnightblue" stroke="midnightblue" points="270.86,-384.08 281.38,-382.81 272.36,-377.24 270.86,-384.08"/>
</g>
<!-- Node22 -->
<g id="node22" class="node">
<title>Node22</title>
<g id="a_node22"><a xlink:href="group__UppercaseHLS.html#ga033fd36668741325cf3c111416e82131" target="_top" xlink:title="pPortAndDestionation &#45; Setup the port and the destination rank.">
<polygon fill="none" stroke="black" points="427,-418.5 427,-437.5 550,-437.5 550,-418.5 427,-418.5"/>
<text text-anchor="middle" x="488.5" y="-425.5" font-family="Helvetica,sans-Serif" font-size="10.00">pPortAndDestionation</text>
</a>
</g>
</g>
<!-- Node21&#45;&gt;Node22 -->
<g id="edge26" class="edge">
<title>Node21&#45;&gt;Node22</title>
<path fill="none" stroke="midnightblue" d="M348.66,-397.24C372.9,-402.61 406.46,-410.04 434.52,-416.26"/>
<polygon fill="midnightblue" stroke="midnightblue" points="434.06,-419.74 444.58,-418.49 435.57,-412.91 434.06,-419.74"/>
</g>
<!-- Node23 -->
<g id="node23" class="node">
<title>Node23</title>
<g id="a_node23"><a xlink:href="group__UppercaseHLS.html#ga5241239d0335747a6f0ee418cbc7d5a9" target="_top" xlink:title="Receive Path &#45; From SHELL to THIS.">
<polygon fill="none" stroke="black" points="460,-380.5 460,-399.5 517,-399.5 517,-380.5 460,-380.5"/>
<text text-anchor="middle" x="488.5" y="-387.5" font-family="Helvetica,sans-Serif" font-size="10.00">pRXPath</text>
</a>
</g>
</g>
<!-- Node21&#45;&gt;Node23 -->
<g id="edge27" class="edge">
<title>Node21&#45;&gt;Node23</title>
<path fill="none" stroke="midnightblue" d="M348.66,-390C377.44,-390 419.36,-390 449.61,-390"/>
<polygon fill="midnightblue" stroke="midnightblue" points="449.78,-393.5 459.78,-390 449.78,-386.5 449.78,-393.5"/>
</g>
<!-- Node24 -->
<g id="node24" class="node">
<title>Node24</title>
<g id="a_node24"><a xlink:href="group__UppercaseHLS.html#ga6ac5a71b18876a813d752ff488f94c45" target="_top" xlink:title="Transmit Path &#45; From THIS to SHELL.">
<polygon fill="none" stroke="black" points="460.5,-342.5 460.5,-361.5 516.5,-361.5 516.5,-342.5 460.5,-342.5"/>
<text text-anchor="middle" x="488.5" y="-349.5" font-family="Helvetica,sans-Serif" font-size="10.00">pTXPath</text>
</a>
</g>
</g>
<!-- Node21&#45;&gt;Node24 -->
<g id="edge28" class="edge">
<title>Node21&#45;&gt;Node24</title>
<path fill="none" stroke="midnightblue" d="M348.66,-382.76C377.74,-376.32 420.24,-366.9 450.55,-360.19"/>
<polygon fill="midnightblue" stroke="midnightblue" points="451.32,-363.6 460.32,-358.02 449.8,-356.77 451.32,-363.6"/>
</g>
</g>
</svg>
        <g id="navigator" transform="translate(0 0)" fill="#404254">
                <rect fill="#f2f5e9" fill-opacity="0.5" stroke="#606060" stroke-width=".5" x="0" y="0" width="60" height="60"/>
                <use id="zoomplus" xlink:href="#zoomPlus" x="17" y="9" onmousedown="handleZoom(evt,'in')"/>
                <use id="zoomminus" xlink:href="#zoomMin" x="42" y="9" onmousedown="handleZoom(evt,'out')"/>
                <use id="reset" xlink:href="#resetDef" x="30" y="36" onmousedown="handleReset()"/>
                <g id="arrowUp" xlink:href="#dirArrow" transform="translate(30 24)" onmousedown="handlePan(0,-1)">
                  <use xlink:href="#rim" fill="#404040">
                        <set attributeName="fill" to="#808080" begin="arrowUp.mouseover" end="arrowUp.mouseout"/>
                  </use>
                  <path fill="none" stroke="white" stroke-width="1.5" d="M0,-3.0v7 M-2.5,-0.5L0,-3.0L2.5,-0.5"/>
                </g>
                <g id="arrowRight" xlink:href="#dirArrow" transform="rotate(90) translate(36 -43)" onmousedown="handlePan(1,0)">
                  <use xlink:href="#rim" fill="#404040">
                        <set attributeName="fill" to="#808080" begin="arrowRight.mouseover" end="arrowRight.mouseout"/>
                  </use>
                  <path fill="none" stroke="white" stroke-width="1.5" d="M0,-3.0v7 M-2.5,-0.5L0,-3.0L2.5,-0.5"/>
                </g>
                <g id="arrowDown" xlink:href="#dirArrow" transform="rotate(180) translate(-30 -48)" onmousedown="handlePan(0,1)">
                  <use xlink:href="#rim" fill="#404040">
                        <set attributeName="fill" to="#808080" begin="arrowDown.mouseover" end="arrowDown.mouseout"/>
                  </use>
                  <path fill="none" stroke="white" stroke-width="1.5" d="M0,-3.0v7 M-2.5,-0.5L0,-3.0L2.5,-0.5"/>
                </g>
                <g id="arrowLeft" xlink:href="#dirArrow" transform="rotate(270) translate(-36 17)" onmousedown="handlePan(-1,0)">
                  <use xlink:href="#rim" fill="#404040">
                        <set attributeName="fill" to="#808080" begin="arrowLeft.mouseover" end="arrowLeft.mouseout"/>
                  </use>
                  <path fill="none" stroke="white" stroke-width="1.5" d="M0,-3.0v7 M-2.5,-0.5L0,-3.0L2.5,-0.5"/>
                </g>
        </g>
        <svg viewBox="0 0 15 15" width="100%" height="30px" preserveAspectRatio="xMaxYMin meet">
         <g id="arrow_out" transform="scale(0.3 0.3)">
          <a xlink:href="group__tcp__shell__if_ga4d29cb2d828e67dfdd9c7538336b2f04_cgraph_org.svg" target="_base">
           <rect id="button" ry="5" rx="5" y="6" x="6" height="38" width="38"
                fill="#f2f5e9" fill-opacity="0.5" stroke="#606060" stroke-width="1.0"/>
           <path id="arrow"
             d="M 11.500037,31.436501 C 11.940474,20.09759 22.043105,11.32322 32.158766,21.979434 L 37.068811,17.246167 C 37.068811,17.246167 37.088388,32 37.088388,32 L 22.160133,31.978069 C 22.160133,31.978069 26.997745,27.140456 26.997745,27.140456 C 18.528582,18.264221 13.291696,25.230495 11.500037,31.436501 z"
             style="fill:#404040;"/>
          </a>
         </g>
        </svg>
</svg>
