<?xml version="1.0" encoding="UTF-8" standalone="no"?>
<!DOCTYPE svg PUBLIC "-//W3C//DTD SVG 1.1//EN"
 "http://www.w3.org/Graphics/SVG/1.1/DTD/svg11.dtd">
<!-- Generated by graphviz version 2.43.0 (0)
 -->
<!-- Title: arp Pages: 1 -->
<!--zoomable 1282 -->
<svg id="main" version="1.1" xmlns="http://www.w3.org/2000/svg" xmlns:xlink="http://www.w3.org/1999/xlink" xml:space="preserve" onload="init(evt)">
<style type="text/css"><![CDATA[
.edge:hover path { stroke: red; }
.edge:hover polygon { stroke: red; fill: red; }
]]></style>
<script type="text/javascript"><![CDATA[
var edges = document.getElementsByTagName('g');
if (edges && edges.length) {
  for (var i=0;i<edges.length;i++) {
    if (edges[i].id.substr(0,4)=='edge') {
      edges[i].setAttribute('class','edge');
    }
  }
}
]]></script>
        <defs>
                <circle id="rim" cx="0" cy="0" r="7"/>
                <circle id="rim2" cx="0" cy="0" r="3.5"/>
                <g id="zoomPlus">
                        <use xlink:href="#rim" fill="#404040">
                                <set attributeName="fill" to="#808080" begin="zoomplus.mouseover" end="zoomplus.mouseout"/>
                        </use>
                        <path d="M-4,0h8M0,-4v8" fill="none" stroke="white" stroke-width="1.5" pointer-events="none"/>
                </g>
                <g id="zoomMin">
                        <use xlink:href="#rim" fill="#404040">
                                <set attributeName="fill" to="#808080" begin="zoomminus.mouseover" end="zoomminus.mouseout"/>
                        </use>
                        <path d="M-4,0h8" fill="none" stroke="white" stroke-width="1.5" pointer-events="none"/>
                </g>
                <g id="dirArrow">
                        <path fill="none" stroke="white" stroke-width="1.5" d="M0,-3.0v7 M-2.5,-0.5L0,-3.0L2.5,-0.5"/>
                </g>
               <g id="resetDef">
                       <use xlink:href="#rim2" fill="#404040">
                               <set attributeName="fill" to="#808080" begin="reset.mouseover" end="reset.mouseout"/>
                       </use>
               </g>
        </defs>

<script type="text/javascript">
var viewWidth = 365;
var viewHeight = 1282;
var sectionId = 'dynsection-1';
</script>
<script xlink:href="svgpan.js"/>
<svg id="graph" class="graph">
<g id="viewport">
<title>arp</title>
<!-- Node1 -->
<g id="node1" class="node">
<title>Node1</title>
<g id="a_node1"><a xlink:title="Main process of the Address Resolution Protocol (ARP) Server.">
<polygon fill="#bfbfbf" stroke="black" points="0,-893.5 0,-912.5 32,-912.5 32,-893.5 0,-893.5"/>
<text text-anchor="middle" x="16" y="-900.5" font-family="Helvetica,sans-Serif" font-size="10.00">arp</text>
</a>
</g>
</g>
<!-- Node2 -->
<g id="node2" class="node">
<title>Node2</title>
<g id="a_node2"><a xlink:href="group__NTS__ARP.html#ga0d50fa3c571af3481726aa1d33a94af7" target="_top" xlink:title=" ">
<polygon fill="none" stroke="black" points="69.5,-1197.5 69.5,-1216.5 179.5,-1216.5 179.5,-1197.5 69.5,-1197.5"/>
<text text-anchor="middle" x="124.5" y="-1204.5" font-family="Helvetica,sans-Serif" font-size="10.00">pArpCamController</text>
</a>
</g>
</g>
<!-- Node1&#45;&gt;Node2 -->
<g id="edge1" class="edge">
<title>Node1&#45;&gt;Node2</title>
<path fill="none" stroke="midnightblue" d="M20.42,-912.77C35.54,-955.92 96.47,-1129.83 116.83,-1187.97"/>
<polygon fill="midnightblue" stroke="midnightblue" points="113.53,-1189.14 120.14,-1197.42 120.14,-1186.82 113.53,-1189.14"/>
</g>
<!-- Node6 -->
<g id="node6" class="node">
<title>Node6</title>
<g id="a_node6"><a xlink:href="group__NTS__ARP.html#ga316ceee71331361619788df27c0b3ec7" target="_top" xlink:title=" ">
<polygon fill="none" stroke="black" points="68,-893.5 68,-912.5 181,-912.5 181,-893.5 68,-893.5"/>
<text text-anchor="middle" x="124.5" y="-900.5" font-family="Helvetica,sans-Serif" font-size="10.00">pArpPacketReceiver</text>
</a>
</g>
</g>
<!-- Node1&#45;&gt;Node6 -->
<g id="edge5" class="edge">
<title>Node1&#45;&gt;Node6</title>
<path fill="none" stroke="midnightblue" d="M32.26,-903C39.35,-903 48.3,-903 57.82,-903"/>
<polygon fill="midnightblue" stroke="midnightblue" points="57.89,-906.5 67.89,-903 57.89,-899.5 57.89,-906.5"/>
</g>
<!-- Node21 -->
<g id="node21" class="node">
<title>Node21</title>
<g id="a_node21"><a xlink:href="group__NTS__ARP.html#gadcedb12ae0b1f1c08d445c045b24bb9c" target="_top" xlink:title=" ">
<polygon fill="none" stroke="black" points="72.5,-323.5 72.5,-342.5 176.5,-342.5 176.5,-323.5 72.5,-323.5"/>
<text text-anchor="middle" x="124.5" y="-330.5" font-family="Helvetica,sans-Serif" font-size="10.00">pArpPacketSender</text>
</a>
</g>
</g>
<!-- Node1&#45;&gt;Node21 -->
<g id="edge20" class="edge">
<title>Node1&#45;&gt;Node21</title>
<path fill="none" stroke="midnightblue" d="M18.85,-893.11C31.28,-826.55 102.77,-443.95 119.84,-352.59"/>
<polygon fill="midnightblue" stroke="midnightblue" points="123.29,-353.19 121.68,-342.72 116.41,-351.91 123.29,-353.19"/>
</g>
<!-- Node3 -->
<g id="node3" class="node">
<title>Node3</title>
<g id="a_node3"><a xlink:href="group__NTS.html#ga3e6d810dabc458857df489da0a161bf7" target="_top" xlink:title="Print an ARP binding pair association.">
<polygon fill="none" stroke="black" points="239.5,-1254.5 239.5,-1273.5 334.5,-1273.5 334.5,-1254.5 239.5,-1254.5"/>
<text text-anchor="middle" x="287" y="-1261.5" font-family="Helvetica,sans-Serif" font-size="10.00">printArpBindPair</text>
</a>
</g>
</g>
<!-- Node2&#45;&gt;Node3 -->
<g id="edge2" class="edge">
<title>Node2&#45;&gt;Node3</title>
<path fill="none" stroke="midnightblue" d="M146.29,-1216.51C164.65,-1224.7 192.28,-1236.5 217,-1245 223.87,-1247.36 231.19,-1249.63 238.41,-1251.74"/>
<polygon fill="midnightblue" stroke="midnightblue" points="237.56,-1255.13 248.14,-1254.49 239.47,-1248.4 237.56,-1255.13"/>
</g>
<!-- Node4 -->
<g id="node4" class="node">
<title>Node4</title>
<g id="a_node4"><a xlink:href="group__NTS.html#gae56926bb64a6c420796d5af64af3d87c" target="_top" xlink:title="Print an ETHERNET MAC address prepended with a message (for debug).">
<polygon fill="none" stroke="black" points="248.5,-1216.5 248.5,-1235.5 325.5,-1235.5 325.5,-1216.5 248.5,-1216.5"/>
<text text-anchor="middle" x="287" y="-1223.5" font-family="Helvetica,sans-Serif" font-size="10.00">printEthAddr</text>
</a>
</g>
</g>
<!-- Node2&#45;&gt;Node4 -->
<g id="edge3" class="edge">
<title>Node2&#45;&gt;Node4</title>
<path fill="none" stroke="midnightblue" d="M179.84,-1213.43C198.78,-1215.67 219.88,-1218.17 238.25,-1220.35"/>
<polygon fill="midnightblue" stroke="midnightblue" points="238.08,-1223.85 248.42,-1221.55 238.9,-1216.9 238.08,-1223.85"/>
</g>
<!-- Node5 -->
<g id="node5" class="node">
<title>Node5</title>
<g id="a_node5"><a xlink:href="group__NTS.html#gac49ba2411b0441ae9fe6e7aa706773c0" target="_top" xlink:title="Print an IPv4 address prepended with a message (used for debugging).">
<polygon fill="none" stroke="black" points="248.5,-1178.5 248.5,-1197.5 325.5,-1197.5 325.5,-1178.5 248.5,-1178.5"/>
<text text-anchor="middle" x="287" y="-1185.5" font-family="Helvetica,sans-Serif" font-size="10.00">printIp4Addr</text>
</a>
</g>
</g>
<!-- Node2&#45;&gt;Node5 -->
<g id="edge4" class="edge">
<title>Node2&#45;&gt;Node5</title>
<path fill="none" stroke="midnightblue" d="M179.84,-1200.57C198.78,-1198.33 219.88,-1195.83 238.25,-1193.65"/>
<polygon fill="midnightblue" stroke="midnightblue" points="238.9,-1197.1 248.42,-1192.45 238.08,-1190.15 238.9,-1197.1"/>
</g>
<!-- Node7 -->
<g id="node7" class="node">
<title>Node7</title>
<g id="a_node7"><a xlink:href="classAxisEth.html#a592d80b8d1e2e41d2ec33315c6d9d75f" target="_top" xlink:title=" ">
<polygon fill="none" stroke="black" points="224.5,-1140.5 224.5,-1159.5 349.5,-1159.5 349.5,-1140.5 224.5,-1140.5"/>
<text text-anchor="middle" x="287" y="-1147.5" font-family="Helvetica,sans-Serif" font-size="10.00">AxisEth::getArpHwLen</text>
</a>
</g>
</g>
<!-- Node6&#45;&gt;Node7 -->
<g id="edge6" class="edge">
<title>Node6&#45;&gt;Node7</title>
<path fill="none" stroke="midnightblue" d="M126.42,-912.97C130.22,-948.39 147.96,-1069.35 217,-1131 218.77,-1132.58 220.66,-1134.03 222.64,-1135.36"/>
<polygon fill="midnightblue" stroke="midnightblue" points="221.39,-1138.67 231.83,-1140.46 224.79,-1132.55 221.39,-1138.67"/>
</g>
<!-- Node8 -->
<g id="node8" class="node">
<title>Node8</title>
<g id="a_node8"><a xlink:href="classAxisEth.html#ad02fdafc350e5f3225303d49a4a3b2c1" target="_top" xlink:title=" ">
<polygon fill="none" stroke="black" points="222,-1102.5 222,-1121.5 352,-1121.5 352,-1102.5 222,-1102.5"/>
<text text-anchor="middle" x="287" y="-1109.5" font-family="Helvetica,sans-Serif" font-size="10.00">AxisEth::getArpHwType</text>
</a>
</g>
</g>
<!-- Node6&#45;&gt;Node8 -->
<g id="edge7" class="edge">
<title>Node6&#45;&gt;Node8</title>
<path fill="none" stroke="midnightblue" d="M127.22,-912.61C133.32,-943.76 156.84,-1042.81 217,-1093 219.05,-1094.71 221.23,-1096.26 223.52,-1097.68"/>
<polygon fill="midnightblue" stroke="midnightblue" points="222.3,-1100.98 232.79,-1102.47 225.51,-1094.77 222.3,-1100.98"/>
</g>
<!-- Node9 -->
<g id="node9" class="node">
<title>Node9</title>
<g id="a_node9"><a xlink:href="classAxisEth.html#ad7f9933280fe8debd6505c4be9ac7fc7" target="_top" xlink:title=" ">
<polygon fill="none" stroke="black" points="229.5,-1064.5 229.5,-1083.5 344.5,-1083.5 344.5,-1064.5 229.5,-1064.5"/>
<text text-anchor="middle" x="287" y="-1071.5" font-family="Helvetica,sans-Serif" font-size="10.00">AxisEth::getArpOper</text>
</a>
</g>
</g>
<!-- Node6&#45;&gt;Node9 -->
<g id="edge8" class="edge">
<title>Node6&#45;&gt;Node9</title>
<path fill="none" stroke="midnightblue" d="M128.43,-912.56C137.18,-939.41 165.71,-1016.1 217,-1055 219.49,-1056.89 222.16,-1058.59 224.95,-1060.13"/>
<polygon fill="midnightblue" stroke="midnightblue" points="223.65,-1063.38 234.19,-1064.47 226.63,-1057.05 223.65,-1063.38"/>
</g>
<!-- Node10 -->
<g id="node10" class="node">
<title>Node10</title>
<g id="a_node10"><a xlink:href="classAxisEth.html#a5b7ac066515c5941feda652fc8c94429" target="_top" xlink:title=" ">
<polygon fill="none" stroke="black" points="223,-1026.5 223,-1045.5 351,-1045.5 351,-1026.5 223,-1026.5"/>
<text text-anchor="middle" x="287" y="-1033.5" font-family="Helvetica,sans-Serif" font-size="10.00">AxisEth::getArpProtLen</text>
</a>
</g>
</g>
<!-- Node6&#45;&gt;Node10 -->
<g id="edge9" class="edge">
<title>Node6&#45;&gt;Node10</title>
<path fill="none" stroke="midnightblue" d="M130.45,-912.64C142.28,-934.68 174.38,-988.98 217,-1017 220.14,-1019.07 223.51,-1020.91 227,-1022.56"/>
<polygon fill="midnightblue" stroke="midnightblue" points="225.89,-1025.88 236.47,-1026.46 228.56,-1019.41 225.89,-1025.88"/>
</g>
<!-- Node11 -->
<g id="node11" class="node">
<title>Node11</title>
<g id="a_node11"><a xlink:href="classAxisEth.html#ae581ad295af89d777e290786696f1999" target="_top" xlink:title=" ">
<polygon fill="none" stroke="black" points="220,-988.5 220,-1007.5 354,-1007.5 354,-988.5 220,-988.5"/>
<text text-anchor="middle" x="287" y="-995.5" font-family="Helvetica,sans-Serif" font-size="10.00">AxisEth::getArpProtType</text>
</a>
</g>
</g>
<!-- Node6&#45;&gt;Node11 -->
<g id="edge10" class="edge">
<title>Node6&#45;&gt;Node11</title>
<path fill="none" stroke="midnightblue" d="M134.4,-912.69C149.72,-928.82 182.76,-961.14 217,-979 221.32,-981.25 225.93,-983.26 230.64,-985.05"/>
<polygon fill="midnightblue" stroke="midnightblue" points="229.81,-988.46 240.41,-988.41 232.09,-981.84 229.81,-988.46"/>
</g>
<!-- Node12 -->
<g id="node12" class="node">
<title>Node12</title>
<g id="a_node12"><a xlink:href="classAxisEth.html#a1753f98f82434584aa858040b246aae0" target="_top" xlink:title=" ">
<polygon fill="none" stroke="black" points="227,-950.5 227,-969.5 347,-969.5 347,-950.5 227,-950.5"/>
<text text-anchor="middle" x="287" y="-957.5" font-family="Helvetica,sans-Serif" font-size="10.00">AxisEth::getArpShaHi</text>
</a>
</g>
</g>
<!-- Node6&#45;&gt;Node12 -->
<g id="edge11" class="edge">
<title>Node6&#45;&gt;Node12</title>
<path fill="none" stroke="midnightblue" d="M146.29,-912.51C164.65,-920.7 192.28,-932.5 217,-941 223.87,-943.36 231.19,-945.63 238.41,-947.74"/>
<polygon fill="midnightblue" stroke="midnightblue" points="237.56,-951.13 248.14,-950.49 239.47,-944.4 237.56,-951.13"/>
</g>
<!-- Node13 -->
<g id="node13" class="node">
<title>Node13</title>
<g id="a_node13"><a xlink:href="classAxisEth.html#a82a4670fb897b34a87cf714120d2fa0a" target="_top" xlink:title=" ">
<polygon fill="none" stroke="black" points="226.5,-912.5 226.5,-931.5 347.5,-931.5 347.5,-912.5 226.5,-912.5"/>
<text text-anchor="middle" x="287" y="-919.5" font-family="Helvetica,sans-Serif" font-size="10.00">AxisEth::getArpShaLo</text>
</a>
</g>
</g>
<!-- Node6&#45;&gt;Node13 -->
<g id="edge12" class="edge">
<title>Node6&#45;&gt;Node13</title>
<path fill="none" stroke="midnightblue" d="M181.18,-909.59C192.46,-910.93 204.45,-912.35 216.14,-913.73"/>
<polygon fill="midnightblue" stroke="midnightblue" points="215.97,-917.23 226.31,-914.93 216.79,-910.28 215.97,-917.23"/>
</g>
<!-- Node14 -->
<g id="node14" class="node">
<title>Node14</title>
<g id="a_node14"><a xlink:href="classAxisEth.html#ad7d3dd9533fe19c2ab9d1ab57025f66c" target="_top" xlink:title=" ">
<polygon fill="none" stroke="black" points="232,-874.5 232,-893.5 342,-893.5 342,-874.5 232,-874.5"/>
<text text-anchor="middle" x="287" y="-881.5" font-family="Helvetica,sans-Serif" font-size="10.00">AxisEth::getArpSpa</text>
</a>
</g>
</g>
<!-- Node6&#45;&gt;Node14 -->
<g id="edge13" class="edge">
<title>Node6&#45;&gt;Node14</title>
<path fill="none" stroke="midnightblue" d="M181.18,-896.41C194.24,-894.86 208.26,-893.2 221.67,-891.62"/>
<polygon fill="midnightblue" stroke="midnightblue" points="222.25,-895.07 231.77,-890.42 221.43,-888.12 222.25,-895.07"/>
</g>
<!-- Node15 -->
<g id="node15" class="node">
<title>Node15</title>
<g id="a_node15"><a xlink:href="classAxisEth.html#a96a839a52ad819f800b02b96719a7012" target="_top" xlink:title=" ">
<polygon fill="none" stroke="black" points="227,-836.5 227,-855.5 347,-855.5 347,-836.5 227,-836.5"/>
<text text-anchor="middle" x="287" y="-843.5" font-family="Helvetica,sans-Serif" font-size="10.00">AxisEth::getArpTpaHi</text>
</a>
</g>
</g>
<!-- Node6&#45;&gt;Node15 -->
<g id="edge14" class="edge">
<title>Node6&#45;&gt;Node15</title>
<path fill="none" stroke="midnightblue" d="M146.29,-893.49C164.65,-885.3 192.28,-873.5 217,-865 223.87,-862.64 231.19,-860.37 238.41,-858.26"/>
<polygon fill="midnightblue" stroke="midnightblue" points="239.47,-861.6 248.14,-855.51 237.56,-854.87 239.47,-861.6"/>
</g>
<!-- Node16 -->
<g id="node16" class="node">
<title>Node16</title>
<g id="a_node16"><a xlink:href="classAxisEth.html#acec5c935e13301b44c5ca1c9362cd25a" target="_top" xlink:title=" ">
<polygon fill="none" stroke="black" points="226.5,-798.5 226.5,-817.5 347.5,-817.5 347.5,-798.5 226.5,-798.5"/>
<text text-anchor="middle" x="287" y="-805.5" font-family="Helvetica,sans-Serif" font-size="10.00">AxisEth::getArpTpaLo</text>
</a>
</g>
</g>
<!-- Node6&#45;&gt;Node16 -->
<g id="edge15" class="edge">
<title>Node6&#45;&gt;Node16</title>
<path fill="none" stroke="midnightblue" d="M134.4,-893.31C149.72,-877.18 182.76,-844.86 217,-827 221.32,-824.75 225.93,-822.74 230.64,-820.95"/>
<polygon fill="midnightblue" stroke="midnightblue" points="232.09,-824.16 240.41,-817.59 229.81,-817.54 232.09,-824.16"/>
</g>
<!-- Node17 -->
<g id="node17" class="node">
<title>Node17</title>
<g id="a_node17"><a xlink:href="classAxisEth.html#a2c9bc0bee8904902e0e6f9daa89593dd" target="_top" xlink:title=" ">
<polygon fill="none" stroke="black" points="225.5,-760.5 225.5,-779.5 348.5,-779.5 348.5,-760.5 225.5,-760.5"/>
<text text-anchor="middle" x="287" y="-767.5" font-family="Helvetica,sans-Serif" font-size="10.00">AxisEth::getEtherType</text>
</a>
</g>
</g>
<!-- Node6&#45;&gt;Node17 -->
<g id="edge16" class="edge">
<title>Node6&#45;&gt;Node17</title>
<path fill="none" stroke="midnightblue" d="M130.45,-893.36C142.28,-871.32 174.38,-817.02 217,-789 220.14,-786.93 223.51,-785.09 227,-783.44"/>
<polygon fill="midnightblue" stroke="midnightblue" points="228.56,-786.59 236.47,-779.54 225.89,-780.12 228.56,-786.59"/>
</g>
<!-- Node18 -->
<g id="node18" class="node">
<title>Node18</title>
<g id="a_node18"><a xlink:href="classAxisEth.html#a018e7d57a1565bb88012b56b23487b31" target="_top" xlink:title=" ">
<polygon fill="none" stroke="black" points="217.5,-722.5 217.5,-741.5 356.5,-741.5 356.5,-722.5 217.5,-722.5"/>
<text text-anchor="middle" x="287" y="-729.5" font-family="Helvetica,sans-Serif" font-size="10.00">AxisEth::getEthSrcAddrHi</text>
</a>
</g>
</g>
<!-- Node6&#45;&gt;Node18 -->
<g id="edge17" class="edge">
<title>Node6&#45;&gt;Node18</title>
<path fill="none" stroke="midnightblue" d="M128.43,-893.44C137.18,-866.59 165.71,-789.9 217,-751 219.49,-749.11 222.16,-747.41 224.95,-745.87"/>
<polygon fill="midnightblue" stroke="midnightblue" points="226.63,-748.95 234.19,-741.53 223.65,-742.62 226.63,-748.95"/>
</g>
<!-- Node19 -->
<g id="node19" class="node">
<title>Node19</title>
<g id="a_node19"><a xlink:href="classAxisEth.html#a172484fa9178fb82ce8a73e472fb0168" target="_top" xlink:title=" ">
<polygon fill="none" stroke="black" points="217,-684.5 217,-703.5 357,-703.5 357,-684.5 217,-684.5"/>
<text text-anchor="middle" x="287" y="-691.5" font-family="Helvetica,sans-Serif" font-size="10.00">AxisEth::getEthSrcAddrLo</text>
</a>
</g>
</g>
<!-- Node6&#45;&gt;Node19 -->
<g id="edge18" class="edge">
<title>Node6&#45;&gt;Node19</title>
<path fill="none" stroke="midnightblue" d="M127.22,-893.39C133.32,-862.24 156.84,-763.19 217,-713 219.05,-711.29 221.23,-709.74 223.52,-708.32"/>
<polygon fill="midnightblue" stroke="midnightblue" points="225.51,-711.23 232.79,-703.53 222.3,-705.02 225.51,-711.23"/>
</g>
<!-- Node20 -->
<g id="node20" class="node">
<title>Node20</title>
<g id="a_node20"><a xlink:href="classAxisRaw.html#af8208752dcbb14911c5fda27d90a0ef4" target="_top" xlink:title=" ">
<polygon fill="none" stroke="black" points="226,-646.5 226,-665.5 348,-665.5 348,-646.5 226,-646.5"/>
<text text-anchor="middle" x="287" y="-653.5" font-family="Helvetica,sans-Serif" font-size="10.00">AxisRaw::getLE_TLast</text>
</a>
</g>
</g>
<!-- Node6&#45;&gt;Node20 -->
<g id="edge19" class="edge">
<title>Node6&#45;&gt;Node20</title>
<path fill="none" stroke="midnightblue" d="M126.42,-893.03C130.22,-857.61 147.96,-736.65 217,-675 218.77,-673.42 220.66,-671.97 222.64,-670.64"/>
<polygon fill="midnightblue" stroke="midnightblue" points="224.79,-673.45 231.83,-665.54 221.39,-667.33 224.79,-673.45"/>
</g>
<!-- Node22 -->
<g id="node22" class="node">
<title>Node22</title>
<g id="a_node22"><a xlink:href="classAxisEth.html#ac7dbb43311a8bb510a9920bd5bbc481d" target="_top" xlink:title=" ">
<polygon fill="none" stroke="black" points="225,-608.5 225,-627.5 349,-627.5 349,-608.5 225,-608.5"/>
<text text-anchor="middle" x="287" y="-615.5" font-family="Helvetica,sans-Serif" font-size="10.00">AxisEth::setArpHwLen</text>
</a>
</g>
</g>
<!-- Node21&#45;&gt;Node22 -->
<g id="edge21" class="edge">
<title>Node21&#45;&gt;Node22</title>
<path fill="none" stroke="midnightblue" d="M125.76,-342.67C127.35,-381.21 138.51,-525.28 217,-599 218.66,-600.56 220.43,-601.98 222.29,-603.3"/>
<polygon fill="midnightblue" stroke="midnightblue" points="220.55,-606.34 230.95,-608.36 224.08,-600.29 220.55,-606.34"/>
</g>
<!-- Node23 -->
<g id="node23" class="node">
<title>Node23</title>
<g id="a_node23"><a xlink:href="classAxisEth.html#ad0cb533703d0da29488ced9e19cebbea" target="_top" xlink:title=" ">
<polygon fill="none" stroke="black" points="222.5,-570.5 222.5,-589.5 351.5,-589.5 351.5,-570.5 222.5,-570.5"/>
<text text-anchor="middle" x="287" y="-577.5" font-family="Helvetica,sans-Serif" font-size="10.00">AxisEth::setArpHwType</text>
</a>
</g>
</g>
<!-- Node21&#45;&gt;Node23 -->
<g id="edge22" class="edge">
<title>Node21&#45;&gt;Node23</title>
<path fill="none" stroke="midnightblue" d="M126.42,-342.97C130.22,-378.39 147.96,-499.35 217,-561 218.77,-562.58 220.66,-564.03 222.64,-565.36"/>
<polygon fill="midnightblue" stroke="midnightblue" points="221.39,-568.67 231.83,-570.46 224.79,-562.55 221.39,-568.67"/>
</g>
<!-- Node24 -->
<g id="node24" class="node">
<title>Node24</title>
<g id="a_node24"><a xlink:href="classAxisEth.html#a73ade49b8d7106cd19ad9bc610e4e420" target="_top" xlink:title=" ">
<polygon fill="none" stroke="black" points="230,-532.5 230,-551.5 344,-551.5 344,-532.5 230,-532.5"/>
<text text-anchor="middle" x="287" y="-539.5" font-family="Helvetica,sans-Serif" font-size="10.00">AxisEth::setArpOper</text>
</a>
</g>
</g>
<!-- Node21&#45;&gt;Node24 -->
<g id="edge23" class="edge">
<title>Node21&#45;&gt;Node24</title>
<path fill="none" stroke="midnightblue" d="M127.22,-342.61C133.32,-373.76 156.84,-472.81 217,-523 219.05,-524.71 221.23,-526.26 223.52,-527.68"/>
<polygon fill="midnightblue" stroke="midnightblue" points="222.3,-530.98 232.79,-532.47 225.51,-524.77 222.3,-530.98"/>
</g>
<!-- Node25 -->
<g id="node25" class="node">
<title>Node25</title>
<g id="a_node25"><a xlink:href="classAxisEth.html#a2db52369f979159a5e60b3aad831afa6" target="_top" xlink:title=" ">
<polygon fill="none" stroke="black" points="223,-494.5 223,-513.5 351,-513.5 351,-494.5 223,-494.5"/>
<text text-anchor="middle" x="287" y="-501.5" font-family="Helvetica,sans-Serif" font-size="10.00">AxisEth::setArpProtLen</text>
</a>
</g>
</g>
<!-- Node21&#45;&gt;Node25 -->
<g id="edge24" class="edge">
<title>Node21&#45;&gt;Node25</title>
<path fill="none" stroke="midnightblue" d="M128.43,-342.56C137.18,-369.41 165.71,-446.1 217,-485 219.49,-486.89 222.16,-488.59 224.95,-490.13"/>
<polygon fill="midnightblue" stroke="midnightblue" points="223.65,-493.38 234.19,-494.47 226.63,-487.05 223.65,-493.38"/>
</g>
<!-- Node26 -->
<g id="node26" class="node">
<title>Node26</title>
<g id="a_node26"><a xlink:href="classAxisEth.html#a63f14a03ea22149927a8ba00cf5b64c5" target="_top" xlink:title=" ">
<polygon fill="none" stroke="black" points="220.5,-456.5 220.5,-475.5 353.5,-475.5 353.5,-456.5 220.5,-456.5"/>
<text text-anchor="middle" x="287" y="-463.5" font-family="Helvetica,sans-Serif" font-size="10.00">AxisEth::setArpProtType</text>
</a>
</g>
</g>
<!-- Node21&#45;&gt;Node26 -->
<g id="edge25" class="edge">
<title>Node21&#45;&gt;Node26</title>
<path fill="none" stroke="midnightblue" d="M130.45,-342.64C142.28,-364.68 174.38,-418.98 217,-447 220.14,-449.07 223.51,-450.91 227,-452.56"/>
<polygon fill="midnightblue" stroke="midnightblue" points="225.89,-455.88 236.47,-456.46 228.56,-449.41 225.89,-455.88"/>
</g>
<!-- Node27 -->
<g id="node27" class="node">
<title>Node27</title>
<g id="a_node27"><a xlink:href="classAxisEth.html#ab053cb411e65319d5691bc7ba0e99427" target="_top" xlink:title=" ">
<polygon fill="none" stroke="black" points="227.5,-418.5 227.5,-437.5 346.5,-437.5 346.5,-418.5 227.5,-418.5"/>
<text text-anchor="middle" x="287" y="-425.5" font-family="Helvetica,sans-Serif" font-size="10.00">AxisEth::setArpShaHi</text>
</a>
</g>
</g>
<!-- Node21&#45;&gt;Node27 -->
<g id="edge26" class="edge">
<title>Node21&#45;&gt;Node27</title>
<path fill="none" stroke="midnightblue" d="M134.4,-342.69C149.72,-358.82 182.76,-391.14 217,-409 221.32,-411.25 225.93,-413.26 230.64,-415.05"/>
<polygon fill="midnightblue" stroke="midnightblue" points="229.81,-418.46 240.41,-418.41 232.09,-411.84 229.81,-418.46"/>
</g>
<!-- Node28 -->
<g id="node28" class="node">
<title>Node28</title>
<g id="a_node28"><a xlink:href="classAxisEth.html#a9072a06e6649c9e84fb11612913886fd" target="_top" xlink:title=" ">
<polygon fill="none" stroke="black" points="227,-380.5 227,-399.5 347,-399.5 347,-380.5 227,-380.5"/>
<text text-anchor="middle" x="287" y="-387.5" font-family="Helvetica,sans-Serif" font-size="10.00">AxisEth::setArpShaLo</text>
</a>
</g>
</g>
<!-- Node21&#45;&gt;Node28 -->
<g id="edge27" class="edge">
<title>Node21&#45;&gt;Node28</title>
<path fill="none" stroke="midnightblue" d="M146.29,-342.51C164.65,-350.7 192.28,-362.5 217,-371 223.87,-373.36 231.19,-375.63 238.41,-377.74"/>
<polygon fill="midnightblue" stroke="midnightblue" points="237.56,-381.13 248.14,-380.49 239.47,-374.4 237.56,-381.13"/>
</g>
<!-- Node29 -->
<g id="node29" class="node">
<title>Node29</title>
<g id="a_node29"><a xlink:href="classAxisEth.html#a41f6381854f15d3fd77511dcfc3109f9" target="_top" xlink:title=" ">
<polygon fill="none" stroke="black" points="232.5,-342.5 232.5,-361.5 341.5,-361.5 341.5,-342.5 232.5,-342.5"/>
<text text-anchor="middle" x="287" y="-349.5" font-family="Helvetica,sans-Serif" font-size="10.00">AxisEth::setArpSpa</text>
</a>
</g>
</g>
<!-- Node21&#45;&gt;Node29 -->
<g id="edge28" class="edge">
<title>Node21&#45;&gt;Node29</title>
<path fill="none" stroke="midnightblue" d="M176.72,-339.06C191.19,-340.78 207.1,-342.66 222.2,-344.45"/>
<polygon fill="midnightblue" stroke="midnightblue" points="222.16,-347.97 232.5,-345.67 222.98,-341.02 222.16,-347.97"/>
</g>
<!-- Node30 -->
<g id="node30" class="node">
<title>Node30</title>
<g id="a_node30"><a xlink:href="classAxisEth.html#ad49caf535cbc7b1f43d051186ecc2d25" target="_top" xlink:title=" ">
<polygon fill="none" stroke="black" points="232.5,-304.5 232.5,-323.5 341.5,-323.5 341.5,-304.5 232.5,-304.5"/>
<text text-anchor="middle" x="287" y="-311.5" font-family="Helvetica,sans-Serif" font-size="10.00">AxisEth::setArpTha</text>
</a>
</g>
</g>
<!-- Node21&#45;&gt;Node30 -->
<g id="edge29" class="edge">
<title>Node21&#45;&gt;Node30</title>
<path fill="none" stroke="midnightblue" d="M176.72,-326.94C191.19,-325.22 207.1,-323.34 222.2,-321.55"/>
<polygon fill="midnightblue" stroke="midnightblue" points="222.98,-324.98 232.5,-320.33 222.16,-318.03 222.98,-324.98"/>
</g>
<!-- Node31 -->
<g id="node31" class="node">
<title>Node31</title>
<g id="a_node31"><a xlink:href="classAxisEth.html#a132c8070ff950ab539fe1ea859914973" target="_top" xlink:title=" ">
<polygon fill="none" stroke="black" points="227.5,-266.5 227.5,-285.5 346.5,-285.5 346.5,-266.5 227.5,-266.5"/>
<text text-anchor="middle" x="287" y="-273.5" font-family="Helvetica,sans-Serif" font-size="10.00">AxisEth::setArpTpaHi</text>
</a>
</g>
</g>
<!-- Node21&#45;&gt;Node31 -->
<g id="edge30" class="edge">
<title>Node21&#45;&gt;Node31</title>
<path fill="none" stroke="midnightblue" d="M146.29,-323.49C164.65,-315.3 192.28,-303.5 217,-295 223.87,-292.64 231.19,-290.37 238.41,-288.26"/>
<polygon fill="midnightblue" stroke="midnightblue" points="239.47,-291.6 248.14,-285.51 237.56,-284.87 239.47,-291.6"/>
</g>
<!-- Node32 -->
<g id="node32" class="node">
<title>Node32</title>
<g id="a_node32"><a xlink:href="classAxisEth.html#aa6ce35467a751affe92450c4e205785a" target="_top" xlink:title=" ">
<polygon fill="none" stroke="black" points="227,-228.5 227,-247.5 347,-247.5 347,-228.5 227,-228.5"/>
<text text-anchor="middle" x="287" y="-235.5" font-family="Helvetica,sans-Serif" font-size="10.00">AxisEth::setArpTpaLo</text>
</a>
</g>
</g>
<!-- Node21&#45;&gt;Node32 -->
<g id="edge31" class="edge">
<title>Node21&#45;&gt;Node32</title>
<path fill="none" stroke="midnightblue" d="M134.4,-323.31C149.72,-307.18 182.76,-274.86 217,-257 221.32,-254.75 225.93,-252.74 230.64,-250.95"/>
<polygon fill="midnightblue" stroke="midnightblue" points="232.09,-254.16 240.41,-247.59 229.81,-247.54 232.09,-254.16"/>
</g>
<!-- Node33 -->
<g id="node33" class="node">
<title>Node33</title>
<g id="a_node33"><a xlink:href="classAxisEth.html#a0c01abdff820f452a86c5f02a6be8ae5" target="_top" xlink:title=" ">
<polygon fill="none" stroke="black" points="222.5,-190.5 222.5,-209.5 351.5,-209.5 351.5,-190.5 222.5,-190.5"/>
<text text-anchor="middle" x="287" y="-197.5" font-family="Helvetica,sans-Serif" font-size="10.00">AxisEth::setEthDstAddr</text>
</a>
</g>
</g>
<!-- Node21&#45;&gt;Node33 -->
<g id="edge32" class="edge">
<title>Node21&#45;&gt;Node33</title>
<path fill="none" stroke="midnightblue" d="M130.45,-323.36C142.28,-301.32 174.38,-247.02 217,-219 220.14,-216.93 223.51,-215.09 227,-213.44"/>
<polygon fill="midnightblue" stroke="midnightblue" points="228.56,-216.59 236.47,-209.54 225.89,-210.12 228.56,-216.59"/>
</g>
<!-- Node34 -->
<g id="node34" class="node">
<title>Node34</title>
<g id="a_node34"><a xlink:href="classAxisEth.html#a2eb2a5da1175542dd8b47b4b0bba2cf3" target="_top" xlink:title=" ">
<polygon fill="none" stroke="black" points="224,-152.5 224,-171.5 350,-171.5 350,-152.5 224,-152.5"/>
<text text-anchor="middle" x="287" y="-159.5" font-family="Helvetica,sans-Serif" font-size="10.00">AxisEth::setEthertType</text>
</a>
</g>
</g>
<!-- Node21&#45;&gt;Node34 -->
<g id="edge33" class="edge">
<title>Node21&#45;&gt;Node34</title>
<path fill="none" stroke="midnightblue" d="M128.43,-323.44C137.18,-296.59 165.71,-219.9 217,-181 219.49,-179.11 222.16,-177.41 224.95,-175.87"/>
<polygon fill="midnightblue" stroke="midnightblue" points="226.63,-178.95 234.19,-171.53 223.65,-172.62 226.63,-178.95"/>
</g>
<!-- Node35 -->
<g id="node35" class="node">
<title>Node35</title>
<g id="a_node35"><a xlink:href="classAxisEth.html#aaadf3f58e70db3f42491bff1a19cb509" target="_top" xlink:title=" ">
<polygon fill="none" stroke="black" points="218,-114.5 218,-133.5 356,-133.5 356,-114.5 218,-114.5"/>
<text text-anchor="middle" x="287" y="-121.5" font-family="Helvetica,sans-Serif" font-size="10.00">AxisEth::setEthSrcAddrHi</text>
</a>
</g>
</g>
<!-- Node21&#45;&gt;Node35 -->
<g id="edge34" class="edge">
<title>Node21&#45;&gt;Node35</title>
<path fill="none" stroke="midnightblue" d="M127.22,-323.39C133.32,-292.24 156.84,-193.19 217,-143 219.05,-141.29 221.23,-139.74 223.52,-138.32"/>
<polygon fill="midnightblue" stroke="midnightblue" points="225.51,-141.23 232.79,-133.53 222.3,-135.02 225.51,-141.23"/>
</g>
<!-- Node36 -->
<g id="node36" class="node">
<title>Node36</title>
<g id="a_node36"><a xlink:href="classAxisEth.html#aad83e3d433ae775c3ec6035643e7e293" target="_top" xlink:title=" ">
<polygon fill="none" stroke="black" points="217.5,-76.5 217.5,-95.5 356.5,-95.5 356.5,-76.5 217.5,-76.5"/>
<text text-anchor="middle" x="287" y="-83.5" font-family="Helvetica,sans-Serif" font-size="10.00">AxisEth::setEthSrcAddrLo</text>
</a>
</g>
</g>
<!-- Node21&#45;&gt;Node36 -->
<g id="edge35" class="edge">
<title>Node21&#45;&gt;Node36</title>
<path fill="none" stroke="midnightblue" d="M126.42,-323.03C130.22,-287.61 147.96,-166.65 217,-105 218.77,-103.42 220.66,-101.97 222.64,-100.64"/>
<polygon fill="midnightblue" stroke="midnightblue" points="224.79,-103.45 231.83,-95.54 221.39,-97.33 224.79,-103.45"/>
</g>
<!-- Node37 -->
<g id="node37" class="node">
<title>Node37</title>
<g id="a_node37"><a xlink:href="classAxisRaw.html#ae8f59ce9fd52536106de4db99df4558e" target="_top" xlink:title=" ">
<polygon fill="none" stroke="black" points="224.5,-38.5 224.5,-57.5 349.5,-57.5 349.5,-38.5 224.5,-38.5"/>
<text text-anchor="middle" x="287" y="-45.5" font-family="Helvetica,sans-Serif" font-size="10.00">AxisRaw::setLE_TKeep</text>
</a>
</g>
</g>
<!-- Node21&#45;&gt;Node37 -->
<g id="edge36" class="edge">
<title>Node21&#45;&gt;Node37</title>
<path fill="none" stroke="midnightblue" d="M125.76,-323.33C127.35,-284.79 138.51,-140.72 217,-67 218.66,-65.44 220.43,-64.02 222.29,-62.7"/>
<polygon fill="midnightblue" stroke="midnightblue" points="224.08,-65.71 230.95,-57.64 220.55,-59.66 224.08,-65.71"/>
</g>
<!-- Node38 -->
<g id="node38" class="node">
<title>Node38</title>
<g id="a_node38"><a xlink:href="classAxisRaw.html#a7fd855df91177afa363d72b3eb17af25" target="_top" xlink:title=" ">
<polygon fill="none" stroke="black" points="226,-0.5 226,-19.5 348,-19.5 348,-0.5 226,-0.5"/>
<text text-anchor="middle" x="287" y="-7.5" font-family="Helvetica,sans-Serif" font-size="10.00">AxisRaw::setLE_TLast</text>
</a>
</g>
</g>
<!-- Node21&#45;&gt;Node38 -->
<g id="edge37" class="edge">
<title>Node21&#45;&gt;Node38</title>
<path fill="none" stroke="midnightblue" d="M125.29,-323.43C124.9,-281.82 129.07,-114.88 217,-29 218.47,-27.57 220.03,-26.24 221.67,-25.01"/>
<polygon fill="midnightblue" stroke="midnightblue" points="223.75,-27.85 230.46,-19.65 220.1,-21.87 223.75,-27.85"/>
</g>
</g>
</svg>
        <g id="navigator" transform="translate(0 0)" fill="#404254">
                <rect fill="#f2f5e9" fill-opacity="0.5" stroke="#606060" stroke-width=".5" x="0" y="0" width="60" height="60"/>
                <use id="zoomplus" xlink:href="#zoomPlus" x="17" y="9" onmousedown="handleZoom(evt,'in')"/>
                <use id="zoomminus" xlink:href="#zoomMin" x="42" y="9" onmousedown="handleZoom(evt,'out')"/>
                <use id="reset" xlink:href="#resetDef" x="30" y="36" onmousedown="handleReset()"/>
                <g id="arrowUp" xlink:href="#dirArrow" transform="translate(30 24)" onmousedown="handlePan(0,-1)">
                  <use xlink:href="#rim" fill="#404040">
                        <set attributeName="fill" to="#808080" begin="arrowUp.mouseover" end="arrowUp.mouseout"/>
                  </use>
                  <path fill="none" stroke="white" stroke-width="1.5" d="M0,-3.0v7 M-2.5,-0.5L0,-3.0L2.5,-0.5"/>
                </g>
                <g id="arrowRight" xlink:href="#dirArrow" transform="rotate(90) translate(36 -43)" onmousedown="handlePan(1,0)">
                  <use xlink:href="#rim" fill="#404040">
                        <set attributeName="fill" to="#808080" begin="arrowRight.mouseover" end="arrowRight.mouseout"/>
                  </use>
                  <path fill="none" stroke="white" stroke-width="1.5" d="M0,-3.0v7 M-2.5,-0.5L0,-3.0L2.5,-0.5"/>
                </g>
                <g id="arrowDown" xlink:href="#dirArrow" transform="rotate(180) translate(-30 -48)" onmousedown="handlePan(0,1)">
                  <use xlink:href="#rim" fill="#404040">
                        <set attributeName="fill" to="#808080" begin="arrowDown.mouseover" end="arrowDown.mouseout"/>
                  </use>
                  <path fill="none" stroke="white" stroke-width="1.5" d="M0,-3.0v7 M-2.5,-0.5L0,-3.0L2.5,-0.5"/>
                </g>
                <g id="arrowLeft" xlink:href="#dirArrow" transform="rotate(270) translate(-36 17)" onmousedown="handlePan(-1,0)">
                  <use xlink:href="#rim" fill="#404040">
                        <set attributeName="fill" to="#808080" begin="arrowLeft.mouseover" end="arrowLeft.mouseout"/>
                  </use>
                  <path fill="none" stroke="white" stroke-width="1.5" d="M0,-3.0v7 M-2.5,-0.5L0,-3.0L2.5,-0.5"/>
                </g>
        </g>
        <svg viewBox="0 0 15 15" width="100%" height="30px" preserveAspectRatio="xMaxYMin meet">
         <g id="arrow_out" transform="scale(0.3 0.3)">
          <a xlink:href="group__NTS__ARP_gab9ccf22b359d207c21e293d6489ff5a1_cgraph_org.svg" target="_base">
           <rect id="button" ry="5" rx="5" y="6" x="6" height="38" width="38"
                fill="#f2f5e9" fill-opacity="0.5" stroke="#606060" stroke-width="1.0"/>
           <path id="arrow"
             d="M 11.500037,31.436501 C 11.940474,20.09759 22.043105,11.32322 32.158766,21.979434 L 37.068811,17.246167 C 37.068811,17.246167 37.088388,32 37.088388,32 L 22.160133,31.978069 C 22.160133,31.978069 26.997745,27.140456 26.997745,27.140456 C 18.528582,18.264221 13.291696,25.230495 11.500037,31.436501 z"
             style="fill:#404040;"/>
          </a>
         </g>
        </svg>
</svg>
