<?xml version="1.0" encoding="UTF-8" standalone="no"?>
<!DOCTYPE svg PUBLIC "-//W3C//DTD SVG 1.1//EN"
 "http://www.w3.org/Graphics/SVG/1.1/DTD/svg11.dtd">
<!-- Generated by graphviz version 2.43.0 (0)
 -->
<!-- Title: genXoredNumbersSingleWord Pages: 1 -->
<svg width="406pt" height="66pt"
 viewBox="0.00 0.00 406.00 66.00" xmlns="http://www.w3.org/2000/svg" xmlns:xlink="http://www.w3.org/1999/xlink">
<g id="graph0" class="graph" transform="scale(1 1) rotate(0) translate(4 62)">
<title>genXoredNumbersSingleWord</title>
<!-- Node1 -->
<g id="node1" class="node">
<title>Node1</title>
<g id="a_node1"><a xlink:title=" ">
<polygon fill="#bfbfbf" stroke="black" points="236,-19.5 236,-38.5 398,-38.5 398,-19.5 236,-19.5"/>
<text text-anchor="middle" x="317" y="-26.5" font-family="Helvetica,sans-Serif" font-size="10.00">genXoredNumbersSingleWord</text>
</a>
</g>
</g>
<!-- Node2 -->
<g id="node2" class="node">
<title>Node2</title>
<g id="a_node2"><a xlink:href="group__MemtestHLS.html#gae8abd8a453243768a22edd5e9b8ae968" target="_top" xlink:title="Read a data stream and produce the gold expected value.">
<polygon fill="none" stroke="black" points="0,-38.5 0,-57.5 200,-57.5 200,-38.5 0,-38.5"/>
<text text-anchor="middle" x="100" y="-45.5" font-family="Helvetica,sans-Serif" font-size="10.00">pRDReadDataStreamAndProduceGold</text>
</a>
</g>
</g>
<!-- Node1&#45;&gt;Node2 -->
<g id="edge1" class="edge">
<title>Node1&#45;&gt;Node2</title>
<path fill="none" stroke="midnightblue" d="M225.97,-36.96C217.41,-37.71 208.7,-38.48 200.05,-39.25"/>
<polygon fill="midnightblue" stroke="midnightblue" points="226.29,-40.44 235.94,-36.07 225.67,-33.47 226.29,-40.44"/>
</g>
<!-- Node3 -->
<g id="node3" class="node">
<title>Node3</title>
<g id="a_node3"><a xlink:href="group__MemtestHLS.html#gaef6d60b9f93950ff7d5e0317f6008b62" target="_top" xlink:title="A function that generate a streams of data according to function and writes them on a stream CHECK: F...">
<polygon fill="none" stroke="black" points="6,-0.5 6,-19.5 194,-19.5 194,-0.5 6,-0.5"/>
<text text-anchor="middle" x="100" y="-7.5" font-family="Helvetica,sans-Serif" font-size="10.00">pWRGenerateData2WriteOnStream</text>
</a>
</g>
</g>
<!-- Node1&#45;&gt;Node3 -->
<g id="edge2" class="edge">
<title>Node1&#45;&gt;Node3</title>
<path fill="none" stroke="midnightblue" d="M225.96,-21.04C215.45,-20.11 204.72,-19.17 194.18,-18.23"/>
<polygon fill="midnightblue" stroke="midnightblue" points="225.67,-24.53 235.94,-21.93 226.29,-17.56 225.67,-24.53"/>
</g>
</g>
</svg>
