<?xml version="1.0" encoding="UTF-8" standalone="no"?>
<!DOCTYPE svg PUBLIC "-//W3C//DTD SVG 1.1//EN"
 "http://www.w3.org/Graphics/SVG/1.1/DTD/svg11.dtd">
<!-- Generated by graphviz version 2.43.0 (0)
 -->
<!-- Title: pCheckSumAccumulator Pages: 1 -->
<!--zoomable 951 -->
<svg id="main" version="1.1" xmlns="http://www.w3.org/2000/svg" xmlns:xlink="http://www.w3.org/1999/xlink" xml:space="preserve" onload="init(evt)">
<style type="text/css"><![CDATA[
.edge:hover path { stroke: red; }
.edge:hover polygon { stroke: red; fill: red; }
]]></style>
<script type="text/javascript"><![CDATA[
var edges = document.getElementsByTagName('g');
if (edges && edges.length) {
  for (var i=0;i<edges.length;i++) {
    if (edges[i].id.substr(0,4)=='edge') {
      edges[i].setAttribute('class','edge');
    }
  }
}
]]></script>
        <defs>
                <circle id="rim" cx="0" cy="0" r="7"/>
                <circle id="rim2" cx="0" cy="0" r="3.5"/>
                <g id="zoomPlus">
                        <use xlink:href="#rim" fill="#404040">
                                <set attributeName="fill" to="#808080" begin="zoomplus.mouseover" end="zoomplus.mouseout"/>
                        </use>
                        <path d="M-4,0h8M0,-4v8" fill="none" stroke="white" stroke-width="1.5" pointer-events="none"/>
                </g>
                <g id="zoomMin">
                        <use xlink:href="#rim" fill="#404040">
                                <set attributeName="fill" to="#808080" begin="zoomminus.mouseover" end="zoomminus.mouseout"/>
                        </use>
                        <path d="M-4,0h8" fill="none" stroke="white" stroke-width="1.5" pointer-events="none"/>
                </g>
                <g id="dirArrow">
                        <path fill="none" stroke="white" stroke-width="1.5" d="M0,-3.0v7 M-2.5,-0.5L0,-3.0L2.5,-0.5"/>
                </g>
               <g id="resetDef">
                       <use xlink:href="#rim2" fill="#404040">
                               <set attributeName="fill" to="#808080" begin="reset.mouseover" end="reset.mouseout"/>
                       </use>
               </g>
        </defs>

<script type="text/javascript">
var viewWidth = 517;
var viewHeight = 951;
var sectionId = 'dynsection-7';
</script>
<script xlink:href="svgpan.js"/>
<svg id="graph" class="graph">
<g id="viewport">
<title>pCheckSumAccumulator</title>
<!-- Node1 -->
<g id="node1" class="node">
<title>Node1</title>
<g id="a_node1"><a xlink:title="TCP checksum accumulator (Csa)">
<polygon fill="#bfbfbf" stroke="black" points="0,-456.5 0,-475.5 136,-475.5 136,-456.5 0,-456.5"/>
<text text-anchor="middle" x="68" y="-463.5" font-family="Helvetica,sans-Serif" font-size="10.00">pCheckSumAccumulator</text>
</a>
</g>
</g>
<!-- Node2 -->
<g id="node2" class="node">
<title>Node2</title>
<g id="a_node2"><a xlink:href="classAxisRaw.html#a7034bcf8cf143fb2bb9bfc46e70a7d6b" target="_top" xlink:title=" ">
<polygon fill="none" stroke="black" points="370.5,-912.5 370.5,-931.5 495.5,-931.5 495.5,-912.5 370.5,-912.5"/>
<text text-anchor="middle" x="433" y="-919.5" font-family="Helvetica,sans-Serif" font-size="10.00">AxisRaw::getLE_TData</text>
</a>
</g>
</g>
<!-- Node1&#45;&gt;Node2 -->
<g id="edge1" class="edge">
<title>Node1&#45;&gt;Node2</title>
<path fill="none" stroke="midnightblue" d="M69.76,-475.63C74.63,-534.44 103.35,-844.45 172,-903 231.12,-953.42 327.89,-944.76 385.21,-933.58"/>
<polygon fill="midnightblue" stroke="midnightblue" points="386,-936.99 395.1,-931.55 384.6,-930.14 386,-936.99"/>
</g>
<!-- Node3 -->
<g id="node3" class="node">
<title>Node3</title>
<g id="a_node3"><a xlink:href="classAxisRaw.html#a4becd0ad3c51e3db2749e888f2f72e31" target="_top" xlink:title=" ">
<polygon fill="none" stroke="black" points="370,-513.5 370,-532.5 496,-532.5 496,-513.5 370,-513.5"/>
<text text-anchor="middle" x="433" y="-520.5" font-family="Helvetica,sans-Serif" font-size="10.00">AxisRaw::getLE_TKeep</text>
</a>
</g>
</g>
<!-- Node1&#45;&gt;Node3 -->
<g id="edge2" class="edge">
<title>Node1&#45;&gt;Node3</title>
<path fill="none" stroke="midnightblue" d="M69.47,-456.35C71.94,-418 86.75,-275.81 172,-219 227.11,-182.27 266.73,-181.04 321,-219 417.49,-286.49 430.39,-447.2 431.89,-503.28"/>
<polygon fill="midnightblue" stroke="midnightblue" points="428.39,-503.38 432.06,-513.32 435.39,-503.26 428.39,-503.38"/>
</g>
<!-- Node4 -->
<g id="node4" class="node">
<title>Node4</title>
<g id="a_node4"><a xlink:href="classAxisPsd4.html#adf0400605356e716f296bbdd280ba85d" target="_top" xlink:title=" ">
<polygon fill="none" stroke="black" points="174,-836.5 174,-855.5 319,-855.5 319,-836.5 174,-836.5"/>
<text text-anchor="middle" x="246.5" y="-843.5" font-family="Helvetica,sans-Serif" font-size="10.00">AxisPsd4::getPsd4DstAddr</text>
</a>
</g>
</g>
<!-- Node1&#45;&gt;Node4 -->
<g id="edge3" class="edge">
<title>Node1&#45;&gt;Node4</title>
<path fill="none" stroke="midnightblue" d="M68.56,-475.78C67.01,-522.44 66.79,-724.38 172,-827 173.49,-828.45 175.07,-829.79 176.73,-831.04"/>
<polygon fill="midnightblue" stroke="midnightblue" points="175.24,-834.23 185.59,-836.47 178.9,-828.26 175.24,-834.23"/>
</g>
<!-- Node5 -->
<g id="node5" class="node">
<title>Node5</title>
<g id="a_node5"><a xlink:href="classAxisPsd4.html#adee5ac7342dca714878a780820a19940" target="_top" xlink:title=" ">
<polygon fill="none" stroke="black" points="185,-798.5 185,-817.5 308,-817.5 308,-798.5 185,-798.5"/>
<text text-anchor="middle" x="246.5" y="-805.5" font-family="Helvetica,sans-Serif" font-size="10.00">AxisPsd4::getPsd4Len</text>
</a>
</g>
</g>
<!-- Node1&#45;&gt;Node5 -->
<g id="edge4" class="edge">
<title>Node1&#45;&gt;Node5</title>
<path fill="none" stroke="midnightblue" d="M68.94,-475.63C69.19,-519.05 76.21,-698.41 172,-789 173.51,-790.43 175.11,-791.75 176.79,-792.98"/>
<polygon fill="midnightblue" stroke="midnightblue" points="175.34,-796.19 185.72,-798.34 178.95,-790.19 175.34,-796.19"/>
</g>
<!-- Node6 -->
<g id="node6" class="node">
<title>Node6</title>
<g id="a_node6"><a xlink:href="classAxisPsd4.html#a5ce53bcdabfd22df2621b4d35ed2855e" target="_top" xlink:title=" ">
<polygon fill="none" stroke="black" points="175,-760.5 175,-779.5 318,-779.5 318,-760.5 175,-760.5"/>
<text text-anchor="middle" x="246.5" y="-767.5" font-family="Helvetica,sans-Serif" font-size="10.00">AxisPsd4::getPsd4SrcAddr</text>
</a>
</g>
</g>
<!-- Node1&#45;&gt;Node6 -->
<g id="edge5" class="edge">
<title>Node1&#45;&gt;Node6</title>
<path fill="none" stroke="midnightblue" d="M69.4,-475.59C71.6,-515.79 85.63,-672.38 172,-751 173.7,-752.55 175.52,-753.98 177.41,-755.29"/>
<polygon fill="midnightblue" stroke="midnightblue" points="175.81,-758.41 186.23,-760.35 179.3,-752.34 175.81,-758.41"/>
</g>
<!-- Node7 -->
<g id="node7" class="node">
<title>Node7</title>
<g id="a_node7"><a xlink:href="classAxisPsd4.html#a9d98f14cbdecfa1bf6a2f7ae12ff656b" target="_top" xlink:title=" ">
<polygon fill="none" stroke="black" points="176.5,-722.5 176.5,-741.5 316.5,-741.5 316.5,-722.5 176.5,-722.5"/>
<text text-anchor="middle" x="246.5" y="-729.5" font-family="Helvetica,sans-Serif" font-size="10.00">AxisPsd4::getTcpAckNum</text>
</a>
</g>
</g>
<!-- Node1&#45;&gt;Node7 -->
<g id="edge6" class="edge">
<title>Node1&#45;&gt;Node7</title>
<path fill="none" stroke="midnightblue" d="M69.99,-475.56C74.31,-512.36 94.95,-646.19 172,-713 173.96,-714.7 176.05,-716.25 178.25,-717.67"/>
<polygon fill="midnightblue" stroke="midnightblue" points="176.69,-720.8 187.15,-722.47 180.01,-714.64 176.69,-720.8"/>
</g>
<!-- Node8 -->
<g id="node8" class="node">
<title>Node8</title>
<g id="a_node8"><a xlink:href="classAxisPsd4.html#ae6b43154f3904dea661d7e312a05559e" target="_top" xlink:title=" ">
<polygon fill="none" stroke="black" points="172,-684.5 172,-703.5 321,-703.5 321,-684.5 172,-684.5"/>
<text text-anchor="middle" x="246.5" y="-691.5" font-family="Helvetica,sans-Serif" font-size="10.00">AxisPsd4::getTcpChecksum</text>
</a>
</g>
</g>
<!-- Node1&#45;&gt;Node8 -->
<g id="edge7" class="edge">
<title>Node1&#45;&gt;Node8</title>
<path fill="none" stroke="midnightblue" d="M70.79,-475.67C77.49,-508.98 104.22,-619.86 172,-675 174.06,-676.67 176.25,-678.2 178.53,-679.6"/>
<polygon fill="midnightblue" stroke="midnightblue" points="177.27,-682.88 187.76,-684.34 180.47,-676.66 177.27,-682.88"/>
</g>
<!-- Node9 -->
<g id="node9" class="node">
<title>Node9</title>
<g id="a_node9"><a xlink:href="classAxisPsd4.html#a65968554667f011e331c4685948400cb" target="_top" xlink:title=" ">
<polygon fill="none" stroke="black" points="179.5,-646.5 179.5,-665.5 313.5,-665.5 313.5,-646.5 179.5,-646.5"/>
<text text-anchor="middle" x="246.5" y="-653.5" font-family="Helvetica,sans-Serif" font-size="10.00">AxisPsd4::getTcpCtrlAck</text>
</a>
</g>
</g>
<!-- Node1&#45;&gt;Node9 -->
<g id="edge8" class="edge">
<title>Node1&#45;&gt;Node9</title>
<path fill="none" stroke="midnightblue" d="M71.86,-475.53C81.12,-504.63 113.1,-593.07 172,-637 174.51,-638.87 177.18,-640.56 179.97,-642.08"/>
<polygon fill="midnightblue" stroke="midnightblue" points="178.66,-645.33 189.2,-646.39 181.63,-638.99 178.66,-645.33"/>
</g>
<!-- Node10 -->
<g id="node10" class="node">
<title>Node10</title>
<g id="a_node10"><a xlink:href="classAxisPsd4.html#a77055980f79cfee3ece2d28e6adb82e4" target="_top" xlink:title=" ">
<polygon fill="none" stroke="black" points="181.5,-608.5 181.5,-627.5 311.5,-627.5 311.5,-608.5 181.5,-608.5"/>
<text text-anchor="middle" x="246.5" y="-615.5" font-family="Helvetica,sans-Serif" font-size="10.00">AxisPsd4::getTcpCtrlFin</text>
</a>
</g>
</g>
<!-- Node1&#45;&gt;Node10 -->
<g id="edge9" class="edge">
<title>Node1&#45;&gt;Node10</title>
<path fill="none" stroke="midnightblue" d="M73.68,-475.81C86.03,-500.59 122,-566.07 172,-599 175.16,-601.08 178.53,-602.93 182.03,-604.58"/>
<polygon fill="midnightblue" stroke="midnightblue" points="180.95,-607.92 191.53,-608.49 183.62,-601.45 180.95,-607.92"/>
</g>
<!-- Node11 -->
<g id="node11" class="node">
<title>Node11</title>
<g id="a_node11"><a xlink:href="classAxisPsd4.html#ad02d2cc0c9dbd703f4c8e9db43476d60" target="_top" xlink:title=" ">
<polygon fill="none" stroke="black" points="181,-570.5 181,-589.5 312,-589.5 312,-570.5 181,-570.5"/>
<text text-anchor="middle" x="246.5" y="-577.5" font-family="Helvetica,sans-Serif" font-size="10.00">AxisPsd4::getTcpCtrlRst</text>
</a>
</g>
</g>
<!-- Node1&#45;&gt;Node11 -->
<g id="edge10" class="edge">
<title>Node1&#45;&gt;Node11</title>
<path fill="none" stroke="midnightblue" d="M76.66,-475.74C92.39,-495.06 130.35,-538.3 172,-561 176.19,-563.28 180.67,-565.3 185.27,-567.08"/>
<polygon fill="midnightblue" stroke="midnightblue" points="184.22,-570.43 194.82,-570.42 186.53,-563.82 184.22,-570.43"/>
</g>
<!-- Node12 -->
<g id="node12" class="node">
<title>Node12</title>
<g id="a_node12"><a xlink:href="classAxisPsd4.html#af5b0da4c785a56ec816fd4b20b5c1ace" target="_top" xlink:title=" ">
<polygon fill="none" stroke="black" points="179.5,-532.5 179.5,-551.5 313.5,-551.5 313.5,-532.5 179.5,-532.5"/>
<text text-anchor="middle" x="246.5" y="-539.5" font-family="Helvetica,sans-Serif" font-size="10.00">AxisPsd4::getTcpCtrlSyn</text>
</a>
</g>
</g>
<!-- Node1&#45;&gt;Node12 -->
<g id="edge11" class="edge">
<title>Node1&#45;&gt;Node12</title>
<path fill="none" stroke="midnightblue" d="M83.43,-475.53C102.84,-487.99 138.78,-509.76 172,-523 178.17,-525.46 184.76,-527.69 191.36,-529.68"/>
<polygon fill="midnightblue" stroke="midnightblue" points="190.42,-533.05 201,-532.42 192.34,-526.32 190.42,-533.05"/>
</g>
<!-- Node13 -->
<g id="node13" class="node">
<title>Node13</title>
<g id="a_node13"><a xlink:href="classAxisPsd4.html#a825afb56807ef9cc3b2ad0a2645cdf04" target="_top" xlink:title=" ">
<polygon fill="none" stroke="black" points="178.5,-494.5 178.5,-513.5 314.5,-513.5 314.5,-494.5 178.5,-494.5"/>
<text text-anchor="middle" x="246.5" y="-501.5" font-family="Helvetica,sans-Serif" font-size="10.00">AxisPsd4::getTcpDataOff</text>
</a>
</g>
</g>
<!-- Node1&#45;&gt;Node13 -->
<g id="edge12" class="edge">
<title>Node1&#45;&gt;Node13</title>
<path fill="none" stroke="midnightblue" d="M113.54,-475.59C137.14,-480.67 166.33,-486.96 191.25,-492.32"/>
<polygon fill="midnightblue" stroke="midnightblue" points="190.77,-495.8 201.28,-494.48 192.24,-488.95 190.77,-495.8"/>
</g>
<!-- Node14 -->
<g id="node14" class="node">
<title>Node14</title>
<g id="a_node14"><a xlink:href="classAxisPsd4.html#a03b6be5d871bf97d7e3a0c27bcb65bc5" target="_top" xlink:title=" ">
<polygon fill="none" stroke="black" points="179.5,-456.5 179.5,-475.5 313.5,-475.5 313.5,-456.5 179.5,-456.5"/>
<text text-anchor="middle" x="246.5" y="-463.5" font-family="Helvetica,sans-Serif" font-size="10.00">AxisPsd4::getTcpDstPort</text>
</a>
</g>
</g>
<!-- Node1&#45;&gt;Node14 -->
<g id="edge13" class="edge">
<title>Node1&#45;&gt;Node14</title>
<path fill="none" stroke="midnightblue" d="M136.23,-466C147.05,-466 158.31,-466 169.32,-466"/>
<polygon fill="midnightblue" stroke="midnightblue" points="169.33,-469.5 179.33,-466 169.33,-462.5 169.33,-469.5"/>
</g>
<!-- Node15 -->
<g id="node15" class="node">
<title>Node15</title>
<g id="a_node15"><a xlink:href="classAxisPsd4.html#a8fa45b55688545a66240736e57e674df" target="_top" xlink:title=" ">
<polygon fill="none" stroke="black" points="178,-418.5 178,-437.5 315,-437.5 315,-418.5 178,-418.5"/>
<text text-anchor="middle" x="246.5" y="-425.5" font-family="Helvetica,sans-Serif" font-size="10.00">AxisPsd4::getTcpOptKind</text>
</a>
</g>
</g>
<!-- Node1&#45;&gt;Node15 -->
<g id="edge14" class="edge">
<title>Node1&#45;&gt;Node15</title>
<path fill="none" stroke="midnightblue" d="M113.54,-456.41C137.14,-451.33 166.33,-445.04 191.25,-439.68"/>
<polygon fill="midnightblue" stroke="midnightblue" points="192.24,-443.05 201.28,-437.52 190.77,-436.2 192.24,-443.05"/>
</g>
<!-- Node16 -->
<g id="node16" class="node">
<title>Node16</title>
<g id="a_node16"><a xlink:href="classAxisPsd4.html#aaf063fe59c304d95c8164c2ceffaee80" target="_top" xlink:title=" ">
<polygon fill="none" stroke="black" points="179,-380.5 179,-399.5 314,-399.5 314,-380.5 179,-380.5"/>
<text text-anchor="middle" x="246.5" y="-387.5" font-family="Helvetica,sans-Serif" font-size="10.00">AxisPsd4::getTcpOptMss</text>
</a>
</g>
</g>
<!-- Node1&#45;&gt;Node16 -->
<g id="edge15" class="edge">
<title>Node1&#45;&gt;Node16</title>
<path fill="none" stroke="midnightblue" d="M83.43,-456.47C102.84,-444.01 138.78,-422.24 172,-409 178.17,-406.54 184.76,-404.31 191.36,-402.32"/>
<polygon fill="midnightblue" stroke="midnightblue" points="192.34,-405.68 201,-399.58 190.42,-398.95 192.34,-405.68"/>
</g>
<!-- Node17 -->
<g id="node17" class="node">
<title>Node17</title>
<g id="a_node17"><a xlink:href="classAxisPsd4.html#a0e578945c28d7f7c61f7dda25df37b9d" target="_top" xlink:title=" ">
<polygon fill="none" stroke="black" points="176.5,-342.5 176.5,-361.5 316.5,-361.5 316.5,-342.5 176.5,-342.5"/>
<text text-anchor="middle" x="246.5" y="-349.5" font-family="Helvetica,sans-Serif" font-size="10.00">AxisPsd4::getTcpSeqNum</text>
</a>
</g>
</g>
<!-- Node1&#45;&gt;Node17 -->
<g id="edge16" class="edge">
<title>Node1&#45;&gt;Node17</title>
<path fill="none" stroke="midnightblue" d="M76.66,-456.26C92.39,-436.94 130.35,-393.7 172,-371 176.19,-368.72 180.67,-366.7 185.27,-364.92"/>
<polygon fill="midnightblue" stroke="midnightblue" points="186.53,-368.18 194.82,-361.58 184.22,-361.57 186.53,-368.18"/>
</g>
<!-- Node18 -->
<g id="node18" class="node">
<title>Node18</title>
<g id="a_node18"><a xlink:href="classAxisPsd4.html#a723199c5a1b2bea0f16401569036e730" target="_top" xlink:title=" ">
<polygon fill="none" stroke="black" points="180,-304.5 180,-323.5 313,-323.5 313,-304.5 180,-304.5"/>
<text text-anchor="middle" x="246.5" y="-311.5" font-family="Helvetica,sans-Serif" font-size="10.00">AxisPsd4::getTcpSrcPort</text>
</a>
</g>
</g>
<!-- Node1&#45;&gt;Node18 -->
<g id="edge17" class="edge">
<title>Node1&#45;&gt;Node18</title>
<path fill="none" stroke="midnightblue" d="M73.68,-456.19C86.03,-431.41 122,-365.93 172,-333 175.16,-330.92 178.53,-329.07 182.03,-327.42"/>
<polygon fill="midnightblue" stroke="midnightblue" points="183.62,-330.55 191.53,-323.51 180.95,-324.08 183.62,-330.55"/>
</g>
<!-- Node19 -->
<g id="node19" class="node">
<title>Node19</title>
<g id="a_node19"><a xlink:href="classAxisPsd4.html#aace75a7fe2e72950260025da5a89bfa1" target="_top" xlink:title=" ">
<polygon fill="none" stroke="black" points="178,-266.5 178,-285.5 315,-285.5 315,-266.5 178,-266.5"/>
<text text-anchor="middle" x="246.5" y="-273.5" font-family="Helvetica,sans-Serif" font-size="10.00">AxisPsd4::getTcpWindow</text>
</a>
</g>
</g>
<!-- Node1&#45;&gt;Node19 -->
<g id="edge18" class="edge">
<title>Node1&#45;&gt;Node19</title>
<path fill="none" stroke="midnightblue" d="M71.86,-456.47C81.12,-427.37 113.1,-338.93 172,-295 174.51,-293.13 177.18,-291.44 179.97,-289.92"/>
<polygon fill="midnightblue" stroke="midnightblue" points="181.63,-293.01 189.2,-285.61 178.66,-286.67 181.63,-293.01"/>
</g>
<!-- Node20 -->
<g id="node20" class="node">
<title>Node20</title>
<g id="a_node20"><a xlink:href="classAxisRaw.html#a42cd520c9b19f7c2fc6d2fc204cb30b7" target="_top" xlink:title=" ">
<polygon fill="none" stroke="black" points="193.5,-228.5 193.5,-247.5 299.5,-247.5 299.5,-228.5 193.5,-228.5"/>
<text text-anchor="middle" x="246.5" y="-235.5" font-family="Helvetica,sans-Serif" font-size="10.00">AxisRaw::getTLast</text>
</a>
</g>
</g>
<!-- Node1&#45;&gt;Node20 -->
<g id="edge19" class="edge">
<title>Node1&#45;&gt;Node20</title>
<path fill="none" stroke="midnightblue" d="M70.79,-456.33C77.49,-423.02 104.22,-312.14 172,-257 175.61,-254.07 179.61,-251.58 183.84,-249.48"/>
<polygon fill="midnightblue" stroke="midnightblue" points="185.53,-252.56 193.39,-245.45 182.81,-246.11 185.53,-252.56"/>
</g>
<!-- Node21 -->
<g id="node21" class="node">
<title>Node21</title>
<g id="a_node21"><a xlink:href="group__NTS.html#ga5560d80c548e85eb53223a5e99410b7b" target="_top" xlink:title="Prints an Axis raw data chunk (used for debugging).">
<polygon fill="none" stroke="black" points="206,-874.5 206,-893.5 287,-893.5 287,-874.5 206,-874.5"/>
<text text-anchor="middle" x="246.5" y="-881.5" font-family="Helvetica,sans-Serif" font-size="10.00">printAxisRaw</text>
</a>
</g>
</g>
<!-- Node1&#45;&gt;Node21 -->
<g id="edge20" class="edge">
<title>Node1&#45;&gt;Node21</title>
<path fill="none" stroke="midnightblue" d="M70.17,-475.71C77.04,-531.11 113.83,-806.81 172,-865 178.57,-871.57 187.09,-875.96 196,-878.88"/>
<polygon fill="midnightblue" stroke="midnightblue" points="195.17,-882.28 205.74,-881.5 196.99,-875.52 195.17,-882.28"/>
</g>
<!-- Node23 -->
<g id="node23" class="node">
<title>Node23</title>
<g id="a_node23"><a xlink:href="group__NTS.html#gae526d64d204c4ad86d5383b82df63eaf" target="_top" xlink:title="Print a socket pair association.">
<polygon fill="none" stroke="black" points="206.5,-152.5 206.5,-171.5 286.5,-171.5 286.5,-152.5 206.5,-152.5"/>
<text text-anchor="middle" x="246.5" y="-159.5" font-family="Helvetica,sans-Serif" font-size="10.00">printSockPair</text>
</a>
</g>
</g>
<!-- Node1&#45;&gt;Node23 -->
<g id="edge24" class="edge">
<title>Node1&#45;&gt;Node23</title>
<path fill="none" stroke="midnightblue" d="M69.61,-456.45C72.63,-417.08 89.39,-265.62 172,-186 178.81,-179.43 187.45,-174.66 196.39,-171.2"/>
<polygon fill="midnightblue" stroke="midnightblue" points="197.76,-174.43 206.13,-167.93 195.54,-167.79 197.76,-174.43"/>
</g>
<!-- Node24 -->
<g id="node24" class="node">
<title>Node24</title>
<g id="a_node24"><a xlink:href="classAxisRaw.html#aa3f30a26f59cb6430ffd9196ab30c6d6" target="_top" xlink:title=" ">
<polygon fill="none" stroke="black" points="184,-114.5 184,-133.5 309,-133.5 309,-114.5 184,-114.5"/>
<text text-anchor="middle" x="246.5" y="-121.5" font-family="Helvetica,sans-Serif" font-size="10.00">AxisRaw::setLE_TData</text>
</a>
</g>
</g>
<!-- Node1&#45;&gt;Node24 -->
<g id="edge25" class="edge">
<title>Node1&#45;&gt;Node24</title>
<path fill="none" stroke="midnightblue" d="M68.94,-456.37C69.19,-412.95 76.21,-233.59 172,-143 173.51,-141.57 175.11,-140.25 176.79,-139.02"/>
<polygon fill="midnightblue" stroke="midnightblue" points="178.95,-141.81 185.72,-133.66 175.34,-135.81 178.95,-141.81"/>
</g>
<!-- Node25 -->
<g id="node25" class="node">
<title>Node25</title>
<g id="a_node25"><a xlink:href="classAxisRaw.html#ae8f59ce9fd52536106de4db99df4558e" target="_top" xlink:title=" ">
<polygon fill="none" stroke="black" points="184,-76.5 184,-95.5 309,-95.5 309,-76.5 184,-76.5"/>
<text text-anchor="middle" x="246.5" y="-83.5" font-family="Helvetica,sans-Serif" font-size="10.00">AxisRaw::setLE_TKeep</text>
</a>
</g>
</g>
<!-- Node1&#45;&gt;Node25 -->
<g id="edge26" class="edge">
<title>Node1&#45;&gt;Node25</title>
<path fill="none" stroke="midnightblue" d="M68.56,-456.22C67.01,-409.56 66.79,-207.62 172,-105 173.49,-103.55 175.07,-102.21 176.73,-100.96"/>
<polygon fill="midnightblue" stroke="midnightblue" points="178.9,-103.74 185.59,-95.53 175.24,-97.77 178.9,-103.74"/>
</g>
<!-- Node26 -->
<g id="node26" class="node">
<title>Node26</title>
<g id="a_node26"><a xlink:href="classAxisRaw.html#a7fd855df91177afa363d72b3eb17af25" target="_top" xlink:title=" ">
<polygon fill="none" stroke="black" points="185.5,-38.5 185.5,-57.5 307.5,-57.5 307.5,-38.5 185.5,-38.5"/>
<text text-anchor="middle" x="246.5" y="-45.5" font-family="Helvetica,sans-Serif" font-size="10.00">AxisRaw::setLE_TLast</text>
</a>
</g>
</g>
<!-- Node1&#45;&gt;Node26 -->
<g id="edge27" class="edge">
<title>Node1&#45;&gt;Node26</title>
<path fill="none" stroke="midnightblue" d="M70.17,-456.29C77.04,-400.89 113.83,-125.19 172,-67 173.47,-65.53 175.03,-64.17 176.68,-62.91"/>
<polygon fill="midnightblue" stroke="midnightblue" points="178.85,-65.68 185.49,-57.43 175.15,-59.74 178.85,-65.68"/>
</g>
<!-- Node27 -->
<g id="node27" class="node">
<title>Node27</title>
<g id="a_node27"><a xlink:href="classAxisRaw.html#a1238c47d46a7d858c542f55797dfc9f2" target="_top" xlink:title=" ">
<polygon fill="none" stroke="black" points="194,-0.5 194,-19.5 299,-19.5 299,-0.5 194,-0.5"/>
<text text-anchor="middle" x="246.5" y="-7.5" font-family="Helvetica,sans-Serif" font-size="10.00">AxisRaw::setTLast</text>
</a>
</g>
</g>
<!-- Node1&#45;&gt;Node27 -->
<g id="edge28" class="edge">
<title>Node1&#45;&gt;Node27</title>
<path fill="none" stroke="midnightblue" d="M69.95,-456.15C75.84,-397.38 109.03,-93.34 172,-29 175.65,-25.27 179.93,-22.24 184.56,-19.78"/>
<polygon fill="midnightblue" stroke="midnightblue" points="186.06,-22.94 193.82,-15.72 183.25,-16.53 186.06,-22.94"/>
</g>
<!-- Node21&#45;&gt;Node2 -->
<g id="edge21" class="edge">
<title>Node21&#45;&gt;Node2</title>
<path fill="none" stroke="midnightblue" d="M287.08,-892.15C312.94,-897.48 347.1,-904.51 375.76,-910.42"/>
<polygon fill="midnightblue" stroke="midnightblue" points="375.14,-913.86 385.64,-912.45 376.55,-907.01 375.14,-913.86"/>
</g>
<!-- Node21&#45;&gt;Node3 -->
<g id="edge22" class="edge">
<title>Node21&#45;&gt;Node3</title>
<path fill="none" stroke="midnightblue" d="M287.33,-881.09C299.41,-878.41 311.88,-873.58 321,-865 416.9,-774.77 430.12,-601.04 431.81,-542.67"/>
<polygon fill="midnightblue" stroke="midnightblue" points="435.31,-542.67 432.01,-532.6 428.31,-542.52 435.31,-542.67"/>
</g>
<!-- Node22 -->
<g id="node22" class="node">
<title>Node22</title>
<g id="a_node22"><a xlink:href="classAxisRaw.html#af8208752dcbb14911c5fda27d90a0ef4" target="_top" xlink:title=" ">
<polygon fill="none" stroke="black" points="372,-874.5 372,-893.5 494,-893.5 494,-874.5 372,-874.5"/>
<text text-anchor="middle" x="433" y="-881.5" font-family="Helvetica,sans-Serif" font-size="10.00">AxisRaw::getLE_TLast</text>
</a>
</g>
</g>
<!-- Node21&#45;&gt;Node22 -->
<g id="edge23" class="edge">
<title>Node21&#45;&gt;Node22</title>
<path fill="none" stroke="midnightblue" d="M287.08,-884C308.76,-884 336.28,-884 361.51,-884"/>
<polygon fill="midnightblue" stroke="midnightblue" points="361.78,-887.5 371.78,-884 361.78,-880.5 361.78,-887.5"/>
</g>
<!-- Node28 -->
<g id="node28" class="node">
<title>Node28</title>
<g id="a_node28"><a xlink:href="classAxisRaw.html#a4e8ed9ad2072a6563870f9344c362a4e" target="_top" xlink:title=" ">
<polygon fill="none" stroke="black" points="357,-0.5 357,-19.5 509,-19.5 509,-0.5 357,-0.5"/>
<text text-anchor="middle" x="433" y="-7.5" font-family="Helvetica,sans-Serif" font-size="10.00">AxisRaw::clearUnusedBytes</text>
</a>
</g>
</g>
<!-- Node27&#45;&gt;Node28 -->
<g id="edge29" class="edge">
<title>Node27&#45;&gt;Node28</title>
<path fill="none" stroke="midnightblue" d="M299.38,-10C314.12,-10 330.58,-10 346.74,-10"/>
<polygon fill="midnightblue" stroke="midnightblue" points="346.75,-13.5 356.75,-10 346.75,-6.5 346.75,-13.5"/>
</g>
</g>
</svg>
        <g id="navigator" transform="translate(0 0)" fill="#404254">
                <rect fill="#f2f5e9" fill-opacity="0.5" stroke="#606060" stroke-width=".5" x="0" y="0" width="60" height="60"/>
                <use id="zoomplus" xlink:href="#zoomPlus" x="17" y="9" onmousedown="handleZoom(evt,'in')"/>
                <use id="zoomminus" xlink:href="#zoomMin" x="42" y="9" onmousedown="handleZoom(evt,'out')"/>
                <use id="reset" xlink:href="#resetDef" x="30" y="36" onmousedown="handleReset()"/>
                <g id="arrowUp" xlink:href="#dirArrow" transform="translate(30 24)" onmousedown="handlePan(0,-1)">
                  <use xlink:href="#rim" fill="#404040">
                        <set attributeName="fill" to="#808080" begin="arrowUp.mouseover" end="arrowUp.mouseout"/>
                  </use>
                  <path fill="none" stroke="white" stroke-width="1.5" d="M0,-3.0v7 M-2.5,-0.5L0,-3.0L2.5,-0.5"/>
                </g>
                <g id="arrowRight" xlink:href="#dirArrow" transform="rotate(90) translate(36 -43)" onmousedown="handlePan(1,0)">
                  <use xlink:href="#rim" fill="#404040">
                        <set attributeName="fill" to="#808080" begin="arrowRight.mouseover" end="arrowRight.mouseout"/>
                  </use>
                  <path fill="none" stroke="white" stroke-width="1.5" d="M0,-3.0v7 M-2.5,-0.5L0,-3.0L2.5,-0.5"/>
                </g>
                <g id="arrowDown" xlink:href="#dirArrow" transform="rotate(180) translate(-30 -48)" onmousedown="handlePan(0,1)">
                  <use xlink:href="#rim" fill="#404040">
                        <set attributeName="fill" to="#808080" begin="arrowDown.mouseover" end="arrowDown.mouseout"/>
                  </use>
                  <path fill="none" stroke="white" stroke-width="1.5" d="M0,-3.0v7 M-2.5,-0.5L0,-3.0L2.5,-0.5"/>
                </g>
                <g id="arrowLeft" xlink:href="#dirArrow" transform="rotate(270) translate(-36 17)" onmousedown="handlePan(-1,0)">
                  <use xlink:href="#rim" fill="#404040">
                        <set attributeName="fill" to="#808080" begin="arrowLeft.mouseover" end="arrowLeft.mouseout"/>
                  </use>
                  <path fill="none" stroke="white" stroke-width="1.5" d="M0,-3.0v7 M-2.5,-0.5L0,-3.0L2.5,-0.5"/>
                </g>
        </g>
        <svg viewBox="0 0 15 15" width="100%" height="30px" preserveAspectRatio="xMaxYMin meet">
         <g id="arrow_out" transform="scale(0.3 0.3)">
          <a xlink:href="group__NTS__TOE_gad78e6dd5ce1bf5f5b9de484b12d7bf81_cgraph_org.svg" target="_base">
           <rect id="button" ry="5" rx="5" y="6" x="6" height="38" width="38"
                fill="#f2f5e9" fill-opacity="0.5" stroke="#606060" stroke-width="1.0"/>
           <path id="arrow"
             d="M 11.500037,31.436501 C 11.940474,20.09759 22.043105,11.32322 32.158766,21.979434 L 37.068811,17.246167 C 37.068811,17.246167 37.088388,32 37.088388,32 L 22.160133,31.978069 C 22.160133,31.978069 26.997745,27.140456 26.997745,27.140456 C 18.528582,18.264221 13.291696,25.230495 11.500037,31.436501 z"
             style="fill:#404040;"/>
          </a>
         </g>
        </svg>
</svg>
