<?xml version="1.0" encoding="UTF-8" standalone="no"?>
<!DOCTYPE svg PUBLIC "-//W3C//DTD SVG 1.1//EN"
 "http://www.w3.org/Graphics/SVG/1.1/DTD/svg11.dtd">
<!-- Generated by graphviz version 2.43.0 (0)
 -->
<!-- Title: repos_for_Dox/cFp_Zoo/ROLE/vision/hls/harris/include/harris.hpp Pages: 1 -->
<svg width="728pt" height="162pt"
 viewBox="0.00 0.00 727.50 162.00" xmlns="http://www.w3.org/2000/svg" xmlns:xlink="http://www.w3.org/1999/xlink">
<g id="graph0" class="graph" transform="scale(1 1) rotate(0) translate(4 158)">
<title>repos_for_Dox/cFp_Zoo/ROLE/vision/hls/harris/include/harris.hpp</title>
<!-- Node1 -->
<g id="node1" class="node">
<title>Node1</title>
<g id="a_node1"><a xlink:title="The Role for a Harris Example application (UDP or TCP)">
<polygon fill="#bfbfbf" stroke="black" points="266.5,-112.5 266.5,-153.5 397.5,-153.5 397.5,-112.5 266.5,-112.5"/>
<text text-anchor="start" x="274.5" y="-141.5" font-family="Helvetica,sans-Serif" font-size="10.00">repos_for_Dox/cFp_Zoo</text>
<text text-anchor="start" x="274.5" y="-130.5" font-family="Helvetica,sans-Serif" font-size="10.00">/ROLE/vision/hls/harris</text>
<text text-anchor="middle" x="332" y="-119.5" font-family="Helvetica,sans-Serif" font-size="10.00">/include/harris.hpp</text>
</a>
</g>
</g>
<!-- Node2 -->
<g id="node2" class="node">
<title>Node2</title>
<g id="a_node2"><a xlink:title=" ">
<polygon fill="none" stroke="#bfbfbf" points="0,-0.5 0,-19.5 50,-19.5 50,-0.5 0,-0.5"/>
<text text-anchor="middle" x="25" y="-7.5" font-family="Helvetica,sans-Serif" font-size="10.00">stdio.h</text>
</a>
</g>
</g>
<!-- Node1&#45;&gt;Node2 -->
<g id="edge1" class="edge">
<title>Node1&#45;&gt;Node2</title>
<path fill="none" stroke="midnightblue" d="M266.46,-119.19C225.61,-109.95 172.52,-95.64 128,-76 96.96,-62.31 64.38,-40.25 44.37,-25.69"/>
<polygon fill="midnightblue" stroke="midnightblue" points="46.24,-22.72 36.11,-19.58 42.07,-28.34 46.24,-22.72"/>
</g>
<!-- Node3 -->
<g id="node3" class="node">
<title>Node3</title>
<g id="a_node3"><a xlink:title=" ">
<polygon fill="none" stroke="#bfbfbf" points="331,-56.5 331,-75.5 391,-75.5 391,-56.5 331,-56.5"/>
<text text-anchor="middle" x="361" y="-63.5" font-family="Helvetica,sans-Serif" font-size="10.00">iostream</text>
</a>
</g>
</g>
<!-- Node1&#45;&gt;Node3 -->
<g id="edge2" class="edge">
<title>Node1&#45;&gt;Node3</title>
<path fill="none" stroke="midnightblue" d="M340.7,-112.5C344.59,-103.78 349.15,-93.56 352.96,-85.02"/>
<polygon fill="midnightblue" stroke="midnightblue" points="356.26,-86.21 357.14,-75.65 349.87,-83.36 356.26,-86.21"/>
</g>
<!-- Node4 -->
<g id="node4" class="node">
<title>Node4</title>
<g id="a_node4"><a xlink:title=" ">
<polygon fill="none" stroke="#bfbfbf" points="409.5,-56.5 409.5,-75.5 464.5,-75.5 464.5,-56.5 409.5,-56.5"/>
<text text-anchor="middle" x="437" y="-63.5" font-family="Helvetica,sans-Serif" font-size="10.00">fstream</text>
</a>
</g>
</g>
<!-- Node1&#45;&gt;Node4 -->
<g id="edge3" class="edge">
<title>Node1&#45;&gt;Node4</title>
<path fill="none" stroke="midnightblue" d="M363.5,-112.5C379.91,-102.34 399.6,-90.16 414.46,-80.95"/>
<polygon fill="midnightblue" stroke="midnightblue" points="416.36,-83.89 423.02,-75.65 412.68,-77.94 416.36,-83.89"/>
</g>
<!-- Node5 -->
<g id="node5" class="node">
<title>Node5</title>
<g id="a_node5"><a xlink:title=" ">
<polygon fill="none" stroke="#bfbfbf" points="483,-56.5 483,-75.5 527,-75.5 527,-56.5 483,-56.5"/>
<text text-anchor="middle" x="505" y="-63.5" font-family="Helvetica,sans-Serif" font-size="10.00">string</text>
</a>
</g>
</g>
<!-- Node1&#45;&gt;Node5 -->
<g id="edge4" class="edge">
<title>Node1&#45;&gt;Node5</title>
<path fill="none" stroke="midnightblue" d="M383.91,-112.5C412.95,-101.59 448.22,-88.33 473.19,-78.95"/>
<polygon fill="midnightblue" stroke="midnightblue" points="474.75,-82.11 482.88,-75.31 472.28,-75.55 474.75,-82.11"/>
</g>
<!-- Node6 -->
<g id="node6" class="node">
<title>Node6</title>
<g id="a_node6"><a xlink:title=" ">
<polygon fill="none" stroke="#bfbfbf" points="545.5,-56.5 545.5,-75.5 596.5,-75.5 596.5,-56.5 545.5,-56.5"/>
<text text-anchor="middle" x="571" y="-63.5" font-family="Helvetica,sans-Serif" font-size="10.00">math.h</text>
</a>
</g>
</g>
<!-- Node1&#45;&gt;Node6 -->
<g id="edge5" class="edge">
<title>Node1&#45;&gt;Node6</title>
<path fill="none" stroke="midnightblue" d="M397.62,-114.15C442.02,-102.08 498.97,-86.59 535.23,-76.73"/>
<polygon fill="midnightblue" stroke="midnightblue" points="536.61,-79.98 545.34,-73.98 534.77,-73.23 536.61,-79.98"/>
</g>
<!-- Node7 -->
<g id="node7" class="node">
<title>Node7</title>
<g id="a_node7"><a xlink:title=" ">
<polygon fill="none" stroke="#bfbfbf" points="68,-0.5 68,-19.5 148,-19.5 148,-0.5 68,-0.5"/>
<text text-anchor="middle" x="108" y="-7.5" font-family="Helvetica,sans-Serif" font-size="10.00">hls_stream.h</text>
</a>
</g>
</g>
<!-- Node1&#45;&gt;Node7 -->
<g id="edge6" class="edge">
<title>Node1&#45;&gt;Node7</title>
<path fill="none" stroke="midnightblue" d="M266.31,-123.15C229.24,-115.54 183.74,-101.54 150,-76 133.96,-63.87 122.32,-43.7 115.42,-29.04"/>
<polygon fill="midnightblue" stroke="midnightblue" points="118.47,-27.28 111.23,-19.54 112.06,-30.1 118.47,-27.28"/>
</g>
<!-- Node8 -->
<g id="node8" class="node">
<title>Node8</title>
<g id="a_node8"><a xlink:title=" ">
<polygon fill="none" stroke="#bfbfbf" points="248,-0.5 248,-19.5 304,-19.5 304,-0.5 248,-0.5"/>
<text text-anchor="middle" x="276" y="-7.5" font-family="Helvetica,sans-Serif" font-size="10.00">ap_int.h</text>
</a>
</g>
</g>
<!-- Node1&#45;&gt;Node8 -->
<g id="edge7" class="edge">
<title>Node1&#45;&gt;Node8</title>
<path fill="none" stroke="midnightblue" d="M322.88,-112.29C312.18,-89.17 294.59,-51.16 284.27,-28.86"/>
<polygon fill="midnightblue" stroke="midnightblue" points="287.34,-27.18 279.97,-19.57 280.99,-30.12 287.34,-27.18"/>
</g>
<!-- Node9 -->
<g id="node9" class="node">
<title>Node9</title>
<g id="a_node9"><a xlink:title=" ">
<polygon fill="none" stroke="#bfbfbf" points="322.5,-0.5 322.5,-19.5 375.5,-19.5 375.5,-0.5 322.5,-0.5"/>
<text text-anchor="middle" x="349" y="-7.5" font-family="Helvetica,sans-Serif" font-size="10.00">stdint.h</text>
</a>
</g>
</g>
<!-- Node1&#45;&gt;Node9 -->
<g id="edge8" class="edge">
<title>Node1&#45;&gt;Node9</title>
<path fill="none" stroke="midnightblue" d="M325.17,-112.33C320.8,-96.81 316.81,-74.72 322,-56 324.79,-45.92 330.51,-35.83 335.97,-27.77"/>
<polygon fill="midnightblue" stroke="midnightblue" points="338.82,-29.79 341.85,-19.64 333.15,-25.69 338.82,-29.79"/>
</g>
<!-- Node10 -->
<g id="node10" class="node">
<title>Node10</title>
<g id="a_node10"><a xlink:href="network_8hpp.html" target="_top" xlink:title=" ">
<polygon fill="none" stroke="black" points="159.5,-56.5 159.5,-75.5 236.5,-75.5 236.5,-56.5 159.5,-56.5"/>
<text text-anchor="middle" x="198" y="-63.5" font-family="Helvetica,sans-Serif" font-size="10.00">network.hpp</text>
</a>
</g>
</g>
<!-- Node1&#45;&gt;Node10 -->
<g id="edge9" class="edge">
<title>Node1&#45;&gt;Node10</title>
<path fill="none" stroke="midnightblue" d="M291.8,-112.5C270.16,-102.01 244.07,-89.35 224.9,-80.05"/>
<polygon fill="midnightblue" stroke="midnightblue" points="226.36,-76.87 215.84,-75.65 223.31,-83.17 226.36,-76.87"/>
</g>
<!-- Node12 -->
<g id="node12" class="node">
<title>Node12</title>
<g id="a_node12"><a xlink:title=" ">
<polygon fill="none" stroke="#bfbfbf" points="614.5,-56.5 614.5,-75.5 719.5,-75.5 719.5,-56.5 614.5,-56.5"/>
<text text-anchor="middle" x="667" y="-63.5" font-family="Helvetica,sans-Serif" font-size="10.00">memory_utils.hpp</text>
</a>
</g>
</g>
<!-- Node1&#45;&gt;Node12 -->
<g id="edge15" class="edge">
<title>Node1&#45;&gt;Node12</title>
<path fill="none" stroke="midnightblue" d="M397.79,-119.24C460.52,-107.06 553.89,-88.95 612.56,-77.56"/>
<polygon fill="midnightblue" stroke="midnightblue" points="613.59,-80.93 622.74,-75.59 612.25,-74.06 613.59,-80.93"/>
</g>
<!-- Node10&#45;&gt;Node2 -->
<g id="edge11" class="edge">
<title>Node10&#45;&gt;Node2</title>
<path fill="none" stroke="midnightblue" d="M170.59,-56.44C140.54,-47.06 92.27,-32 59.63,-21.81"/>
<polygon fill="midnightblue" stroke="midnightblue" points="60.63,-18.45 50.04,-18.82 58.54,-25.14 60.63,-18.45"/>
</g>
<!-- Node10&#45;&gt;Node7 -->
<g id="edge14" class="edge">
<title>Node10&#45;&gt;Node7</title>
<path fill="none" stroke="midnightblue" d="M183.54,-56.32C169.5,-47.9 147.95,-34.97 131.46,-25.07"/>
<polygon fill="midnightblue" stroke="midnightblue" points="132.8,-21.8 122.42,-19.65 129.2,-27.8 132.8,-21.8"/>
</g>
<!-- Node10&#45;&gt;Node8 -->
<g id="edge12" class="edge">
<title>Node10&#45;&gt;Node8</title>
<path fill="none" stroke="midnightblue" d="M210.53,-56.32C222.59,-47.98 241.03,-35.21 255.27,-25.35"/>
<polygon fill="midnightblue" stroke="midnightblue" points="257.27,-28.22 263.5,-19.65 253.28,-22.47 257.27,-28.22"/>
</g>
<!-- Node10&#45;&gt;Node9 -->
<g id="edge10" class="edge">
<title>Node10&#45;&gt;Node9</title>
<path fill="none" stroke="midnightblue" d="M221.93,-56.44C247.22,-47.4 287.3,-33.06 315.68,-22.92"/>
<polygon fill="midnightblue" stroke="midnightblue" points="316.95,-26.18 325.19,-19.52 314.59,-19.59 316.95,-26.18"/>
</g>
<!-- Node11 -->
<g id="node11" class="node">
<title>Node11</title>
<g id="a_node11"><a xlink:title=" ">
<polygon fill="none" stroke="#bfbfbf" points="166,-0.5 166,-19.5 230,-19.5 230,-0.5 166,-0.5"/>
<text text-anchor="middle" x="198" y="-7.5" font-family="Helvetica,sans-Serif" font-size="10.00">ap_utils.h</text>
</a>
</g>
</g>
<!-- Node10&#45;&gt;Node11 -->
<g id="edge13" class="edge">
<title>Node10&#45;&gt;Node11</title>
<path fill="none" stroke="midnightblue" d="M198,-56.08C198,-49.01 198,-38.86 198,-29.99"/>
<polygon fill="midnightblue" stroke="midnightblue" points="201.5,-29.75 198,-19.75 194.5,-29.75 201.5,-29.75"/>
</g>
</g>
</svg>
