<?xml version="1.0" encoding="UTF-8" standalone="no"?>
<!DOCTYPE svg PUBLIC "-//W3C//DTD SVG 1.1//EN"
 "http://www.w3.org/Graphics/SVG/1.1/DTD/svg11.dtd">
<!-- Generated by graphviz version 2.43.0 (0)
 -->
<!-- Title: repos_for_Dox/cFp_Zoo/ROLE/vision/hls/harris/include/xf_harris_config.h Pages: 1 -->
<!--zoomable 240 -->
<svg id="main" version="1.1" xmlns="http://www.w3.org/2000/svg" xmlns:xlink="http://www.w3.org/1999/xlink" xml:space="preserve" onload="init(evt)">
<style type="text/css"><![CDATA[
.edge:hover path { stroke: red; }
.edge:hover polygon { stroke: red; fill: red; }
]]></style>
<script type="text/javascript"><![CDATA[
var edges = document.getElementsByTagName('g');
if (edges && edges.length) {
  for (var i=0;i<edges.length;i++) {
    if (edges[i].id.substr(0,4)=='edge') {
      edges[i].setAttribute('class','edge');
    }
  }
}
]]></script>
        <defs>
                <circle id="rim" cx="0" cy="0" r="7"/>
                <circle id="rim2" cx="0" cy="0" r="3.5"/>
                <g id="zoomPlus">
                        <use xlink:href="#rim" fill="#404040">
                                <set attributeName="fill" to="#808080" begin="zoomplus.mouseover" end="zoomplus.mouseout"/>
                        </use>
                        <path d="M-4,0h8M0,-4v8" fill="none" stroke="white" stroke-width="1.5" pointer-events="none"/>
                </g>
                <g id="zoomMin">
                        <use xlink:href="#rim" fill="#404040">
                                <set attributeName="fill" to="#808080" begin="zoomminus.mouseover" end="zoomminus.mouseout"/>
                        </use>
                        <path d="M-4,0h8" fill="none" stroke="white" stroke-width="1.5" pointer-events="none"/>
                </g>
                <g id="dirArrow">
                        <path fill="none" stroke="white" stroke-width="1.5" d="M0,-3.0v7 M-2.5,-0.5L0,-3.0L2.5,-0.5"/>
                </g>
               <g id="resetDef">
                       <use xlink:href="#rim2" fill="#404040">
                               <set attributeName="fill" to="#808080" begin="reset.mouseover" end="reset.mouseout"/>
                       </use>
               </g>
        </defs>

<script type="text/javascript">
var viewWidth = 1263;
var viewHeight = 240;
var sectionId = 'dynsection-0';
</script>
<script xlink:href="svgpan.js"/>
<svg id="graph" class="graph">
<g id="viewport">
<title>repos_for_Dox/cFp_Zoo/ROLE/vision/hls/harris/include/xf_harris_config.h</title>
<!-- Node1 -->
<g id="node1" class="node">
<title>Node1</title>
<g id="a_node1"><a xlink:title="The Harris configuration header.">
<polygon fill="#bfbfbf" stroke="black" points="589,-190.5 589,-231.5 733,-231.5 733,-190.5 589,-190.5"/>
<text text-anchor="start" x="597" y="-219.5" font-family="Helvetica,sans-Serif" font-size="10.00">repos_for_Dox/cFp_Zoo</text>
<text text-anchor="start" x="597" y="-208.5" font-family="Helvetica,sans-Serif" font-size="10.00">/ROLE/vision/hls/harris</text>
<text text-anchor="middle" x="661" y="-197.5" font-family="Helvetica,sans-Serif" font-size="10.00">/include/xf_harris_config.h</text>
</a>
</g>
</g>
<!-- Node2 -->
<g id="node2" class="node">
<title>Node2</title>
<g id="a_node2"><a xlink:title=" ">
<polygon fill="none" stroke="#bfbfbf" points="0,-0.5 0,-19.5 80,-19.5 80,-0.5 0,-0.5"/>
<text text-anchor="middle" x="40" y="-7.5" font-family="Helvetica,sans-Serif" font-size="10.00">hls_stream.h</text>
</a>
</g>
</g>
<!-- Node1&#45;&gt;Node2 -->
<g id="edge1" class="edge">
<title>Node1&#45;&gt;Node2</title>
<path fill="none" stroke="midnightblue" d="M588.66,-209.78C496.93,-207.57 334.96,-197.14 204,-154 137.08,-131.96 112.37,-129.04 66,-76 54.39,-62.72 47.58,-43.59 43.87,-29.53"/>
<polygon fill="midnightblue" stroke="midnightblue" points="47.22,-28.47 41.52,-19.54 40.4,-30.07 47.22,-28.47"/>
</g>
<!-- Node3 -->
<g id="node3" class="node">
<title>Node3</title>
<g id="a_node3"><a xlink:title=" ">
<polygon fill="none" stroke="#bfbfbf" points="629,-0.5 629,-19.5 685,-19.5 685,-0.5 629,-0.5"/>
<text text-anchor="middle" x="657" y="-7.5" font-family="Helvetica,sans-Serif" font-size="10.00">ap_int.h</text>
</a>
</g>
</g>
<!-- Node1&#45;&gt;Node3 -->
<g id="edge2" class="edge">
<title>Node1&#45;&gt;Node3</title>
<path fill="none" stroke="midnightblue" d="M733.17,-199.25C784.17,-190 846.17,-174.84 862,-154 913.16,-86.64 767.57,-38.96 695.18,-20.04"/>
<polygon fill="midnightblue" stroke="midnightblue" points="695.62,-16.53 685.07,-17.45 693.89,-23.32 695.62,-16.53"/>
</g>
<!-- Node4 -->
<g id="node4" class="node">
<title>Node4</title>
<g id="a_node4"><a xlink:title=" ">
<polygon fill="none" stroke="#bfbfbf" points="296.5,-123.5 296.5,-142.5 437.5,-142.5 437.5,-123.5 296.5,-123.5"/>
<text text-anchor="middle" x="367" y="-130.5" font-family="Helvetica,sans-Serif" font-size="10.00">common/xf_common.hpp</text>
</a>
</g>
</g>
<!-- Node1&#45;&gt;Node4 -->
<g id="edge3" class="edge">
<title>Node1&#45;&gt;Node4</title>
<path fill="none" stroke="midnightblue" d="M588.7,-191.31C532.63,-176.82 456.81,-157.22 409.94,-145.1"/>
<polygon fill="midnightblue" stroke="midnightblue" points="410.67,-141.67 400.11,-142.56 408.92,-148.45 410.67,-141.67"/>
</g>
<!-- Node5 -->
<g id="node5" class="node">
<title>Node5</title>
<g id="a_node5"><a xlink:title=" ">
<polygon fill="none" stroke="#bfbfbf" points="455.5,-123.5 455.5,-142.5 580.5,-142.5 580.5,-123.5 455.5,-123.5"/>
<text text-anchor="middle" x="518" y="-130.5" font-family="Helvetica,sans-Serif" font-size="10.00">common/xf_utility.hpp</text>
</a>
</g>
</g>
<!-- Node1&#45;&gt;Node5 -->
<g id="edge4" class="edge">
<title>Node1&#45;&gt;Node5</title>
<path fill="none" stroke="midnightblue" d="M624.17,-190.43C598.69,-176.88 565.44,-159.21 543,-147.28"/>
<polygon fill="midnightblue" stroke="midnightblue" points="544.56,-144.15 534.09,-142.55 541.28,-150.34 544.56,-144.15"/>
</g>
<!-- Node6 -->
<g id="node6" class="node">
<title>Node6</title>
<g id="a_node6"><a xlink:title=" ">
<polygon fill="none" stroke="#bfbfbf" points="599,-123.5 599,-142.5 723,-142.5 723,-123.5 599,-123.5"/>
<text text-anchor="middle" x="661" y="-130.5" font-family="Helvetica,sans-Serif" font-size="10.00">features/xf_harris.hpp</text>
</a>
</g>
</g>
<!-- Node1&#45;&gt;Node6 -->
<g id="edge5" class="edge">
<title>Node1&#45;&gt;Node6</title>
<path fill="none" stroke="midnightblue" d="M661,-190.43C661,-178.82 661,-164.18 661,-152.72"/>
<polygon fill="midnightblue" stroke="midnightblue" points="664.5,-152.55 661,-142.55 657.5,-152.55 664.5,-152.55"/>
</g>
<!-- Node7 -->
<g id="node7" class="node">
<title>Node7</title>
<g id="a_node7"><a xlink:href="harris_2include_2xf__config__params_8h.html" target="_top" xlink:title="The Harris IP configuration header.">
<polygon fill="none" stroke="black" points="741,-123.5 741,-142.5 853,-142.5 853,-123.5 741,-123.5"/>
<text text-anchor="middle" x="797" y="-130.5" font-family="Helvetica,sans-Serif" font-size="10.00">xf_config_params.h</text>
</a>
</g>
</g>
<!-- Node1&#45;&gt;Node7 -->
<g id="edge6" class="edge">
<title>Node1&#45;&gt;Node7</title>
<path fill="none" stroke="midnightblue" d="M696.02,-190.43C720.16,-176.94 751.6,-159.37 772.94,-147.44"/>
<polygon fill="midnightblue" stroke="midnightblue" points="774.67,-150.49 781.7,-142.55 771.26,-144.37 774.67,-150.49"/>
</g>
<!-- Node8 -->
<g id="node8" class="node">
<title>Node8</title>
<g id="a_node8"><a xlink:href="harris_8hpp.html" target="_top" xlink:title="The Role for a Harris Example application (UDP or TCP)">
<polygon fill="none" stroke="black" points="213.5,-123.5 213.5,-142.5 278.5,-142.5 278.5,-123.5 213.5,-123.5"/>
<text text-anchor="middle" x="246" y="-130.5" font-family="Helvetica,sans-Serif" font-size="10.00">harris.hpp</text>
</a>
</g>
</g>
<!-- Node1&#45;&gt;Node8 -->
<g id="edge7" class="edge">
<title>Node1&#45;&gt;Node8</title>
<path fill="none" stroke="midnightblue" d="M588.9,-205.74C512.5,-199.73 389.04,-185.7 287,-154 281.33,-152.24 275.46,-149.79 270,-147.21"/>
<polygon fill="midnightblue" stroke="midnightblue" points="271.24,-143.92 260.74,-142.55 268.09,-150.17 271.24,-143.92"/>
</g>
<!-- Node18 -->
<g id="node18" class="node">
<title>Node18</title>
<g id="a_node18"><a xlink:href="vision_2harris_2languages_2cplusplus_2include_2config_8h.html" target="_top" xlink:title="The configuration of a Harris Example application (UDP or TCP)">
<polygon fill="none" stroke="black" points="909.5,-112.5 909.5,-153.5 1054.5,-153.5 1054.5,-112.5 909.5,-112.5"/>
<text text-anchor="start" x="917.5" y="-141.5" font-family="Helvetica,sans-Serif" font-size="10.00">../../../../../HOST</text>
<text text-anchor="start" x="917.5" y="-130.5" font-family="Helvetica,sans-Serif" font-size="10.00">/vision/harris/languages</text>
<text text-anchor="middle" x="982" y="-119.5" font-family="Helvetica,sans-Serif" font-size="10.00">/cplusplus/include/config.h</text>
</a>
</g>
</g>
<!-- Node1&#45;&gt;Node18 -->
<g id="edge23" class="edge">
<title>Node1&#45;&gt;Node18</title>
<path fill="none" stroke="midnightblue" d="M733.04,-192.94C782.44,-181.25 848.11,-165.7 899.6,-153.51"/>
<polygon fill="midnightblue" stroke="midnightblue" points="900.44,-156.91 909.37,-151.2 898.83,-150.09 900.44,-156.91"/>
</g>
<!-- Node19 -->
<g id="node19" class="node">
<title>Node19</title>
<g id="a_node19"><a xlink:title=" ">
<polygon fill="none" stroke="#bfbfbf" points="1073,-123.5 1073,-142.5 1255,-142.5 1255,-123.5 1073,-123.5"/>
<text text-anchor="middle" x="1164" y="-130.5" font-family="Helvetica,sans-Serif" font-size="10.00">imgproc/xf_gammacorrection.hpp</text>
</a>
</g>
</g>
<!-- Node1&#45;&gt;Node19 -->
<g id="edge24" class="edge">
<title>Node1&#45;&gt;Node19</title>
<path fill="none" stroke="midnightblue" d="M733.27,-201.27C814.07,-191.2 948.74,-173.52 1064,-154 1080.32,-151.24 1098.07,-147.82 1114.01,-144.6"/>
<polygon fill="midnightblue" stroke="midnightblue" points="1115.1,-147.95 1124.2,-142.52 1113.7,-141.09 1115.1,-147.95"/>
</g>
<!-- Node8&#45;&gt;Node2 -->
<g id="edge13" class="edge">
<title>Node8&#45;&gt;Node2</title>
<path fill="none" stroke="midnightblue" d="M213.37,-126.31C179.42,-119.13 126,-104.15 88,-76 71.15,-63.51 57.61,-43.44 49.26,-28.91"/>
<polygon fill="midnightblue" stroke="midnightblue" points="52.2,-26.98 44.33,-19.89 46.06,-30.34 52.2,-26.98"/>
</g>
<!-- Node8&#45;&gt;Node3 -->
<g id="edge14" class="edge">
<title>Node8&#45;&gt;Node3</title>
<path fill="none" stroke="midnightblue" d="M260.3,-123.48C267.96,-119.32 277.71,-114.65 287,-112 362.4,-90.48 577.74,-126.17 638,-76 651.39,-64.85 655.65,-44.82 656.85,-29.93"/>
<polygon fill="midnightblue" stroke="midnightblue" points="660.36,-29.92 657.28,-19.78 653.36,-29.63 660.36,-29.92"/>
</g>
<!-- Node9 -->
<g id="node9" class="node">
<title>Node9</title>
<g id="a_node9"><a xlink:title=" ">
<polygon fill="none" stroke="#bfbfbf" points="208,-0.5 208,-19.5 258,-19.5 258,-0.5 208,-0.5"/>
<text text-anchor="middle" x="233" y="-7.5" font-family="Helvetica,sans-Serif" font-size="10.00">stdio.h</text>
</a>
</g>
</g>
<!-- Node8&#45;&gt;Node9 -->
<g id="edge8" class="edge">
<title>Node8&#45;&gt;Node9</title>
<path fill="none" stroke="midnightblue" d="M213.38,-130.09C178.01,-126.06 123.12,-113.71 97,-76 70.07,-37.11 148.96,-20.74 197.67,-14.47"/>
<polygon fill="midnightblue" stroke="midnightblue" points="198.34,-17.91 207.85,-13.25 197.5,-10.96 198.34,-17.91"/>
</g>
<!-- Node10 -->
<g id="node10" class="node">
<title>Node10</title>
<g id="a_node10"><a xlink:title=" ">
<polygon fill="none" stroke="#bfbfbf" points="106,-56.5 106,-75.5 166,-75.5 166,-56.5 106,-56.5"/>
<text text-anchor="middle" x="136" y="-63.5" font-family="Helvetica,sans-Serif" font-size="10.00">iostream</text>
</a>
</g>
</g>
<!-- Node8&#45;&gt;Node10 -->
<g id="edge9" class="edge">
<title>Node8&#45;&gt;Node10</title>
<path fill="none" stroke="midnightblue" d="M231.16,-123.23C212.69,-112.32 180.93,-93.55 159.22,-80.72"/>
<polygon fill="midnightblue" stroke="midnightblue" points="160.99,-77.7 150.6,-75.63 157.43,-83.73 160.99,-77.7"/>
</g>
<!-- Node11 -->
<g id="node11" class="node">
<title>Node11</title>
<g id="a_node11"><a xlink:title=" ">
<polygon fill="none" stroke="#bfbfbf" points="184.5,-56.5 184.5,-75.5 239.5,-75.5 239.5,-56.5 184.5,-56.5"/>
<text text-anchor="middle" x="212" y="-63.5" font-family="Helvetica,sans-Serif" font-size="10.00">fstream</text>
</a>
</g>
</g>
<!-- Node8&#45;&gt;Node11 -->
<g id="edge10" class="edge">
<title>Node8&#45;&gt;Node11</title>
<path fill="none" stroke="midnightblue" d="M241.41,-123.23C236.27,-113.39 227.78,-97.16 221.24,-84.66"/>
<polygon fill="midnightblue" stroke="midnightblue" points="224.25,-82.87 216.51,-75.63 218.05,-86.11 224.25,-82.87"/>
</g>
<!-- Node12 -->
<g id="node12" class="node">
<title>Node12</title>
<g id="a_node12"><a xlink:title=" ">
<polygon fill="none" stroke="#bfbfbf" points="258,-56.5 258,-75.5 302,-75.5 302,-56.5 258,-56.5"/>
<text text-anchor="middle" x="280" y="-63.5" font-family="Helvetica,sans-Serif" font-size="10.00">string</text>
</a>
</g>
</g>
<!-- Node8&#45;&gt;Node12 -->
<g id="edge11" class="edge">
<title>Node8&#45;&gt;Node12</title>
<path fill="none" stroke="midnightblue" d="M250.59,-123.23C255.73,-113.39 264.22,-97.16 270.76,-84.66"/>
<polygon fill="midnightblue" stroke="midnightblue" points="273.95,-86.11 275.49,-75.63 267.75,-82.87 273.95,-86.11"/>
</g>
<!-- Node13 -->
<g id="node13" class="node">
<title>Node13</title>
<g id="a_node13"><a xlink:title=" ">
<polygon fill="none" stroke="#bfbfbf" points="320.5,-56.5 320.5,-75.5 371.5,-75.5 371.5,-56.5 320.5,-56.5"/>
<text text-anchor="middle" x="346" y="-63.5" font-family="Helvetica,sans-Serif" font-size="10.00">math.h</text>
</a>
</g>
</g>
<!-- Node8&#45;&gt;Node13 -->
<g id="edge12" class="edge">
<title>Node8&#45;&gt;Node13</title>
<path fill="none" stroke="midnightblue" d="M259.49,-123.23C276.05,-112.46 304.38,-94.05 324.09,-81.24"/>
<polygon fill="midnightblue" stroke="midnightblue" points="326.25,-84.01 332.73,-75.63 322.44,-78.14 326.25,-84.01"/>
</g>
<!-- Node14 -->
<g id="node14" class="node">
<title>Node14</title>
<g id="a_node14"><a xlink:title=" ">
<polygon fill="none" stroke="#bfbfbf" points="468.5,-0.5 468.5,-19.5 521.5,-19.5 521.5,-0.5 468.5,-0.5"/>
<text text-anchor="middle" x="495" y="-7.5" font-family="Helvetica,sans-Serif" font-size="10.00">stdint.h</text>
</a>
</g>
</g>
<!-- Node8&#45;&gt;Node14 -->
<g id="edge15" class="edge">
<title>Node8&#45;&gt;Node14</title>
<path fill="none" stroke="midnightblue" d="M261.17,-123.4C268.73,-119.43 278.13,-114.95 287,-112 368.14,-85.02 412.7,-133.49 476,-76 488.9,-64.28 493.23,-44.35 494.59,-29.63"/>
<polygon fill="midnightblue" stroke="midnightblue" points="498.09,-29.8 495.15,-19.62 491.1,-29.42 498.09,-29.8"/>
</g>
<!-- Node15 -->
<g id="node15" class="node">
<title>Node15</title>
<g id="a_node15"><a xlink:href="network_8hpp.html" target="_top" xlink:title=" ">
<polygon fill="none" stroke="black" points="389.5,-56.5 389.5,-75.5 466.5,-75.5 466.5,-56.5 389.5,-56.5"/>
<text text-anchor="middle" x="428" y="-63.5" font-family="Helvetica,sans-Serif" font-size="10.00">network.hpp</text>
</a>
</g>
</g>
<!-- Node8&#45;&gt;Node15 -->
<g id="edge16" class="edge">
<title>Node8&#45;&gt;Node15</title>
<path fill="none" stroke="midnightblue" d="M262.11,-123.47C269.57,-119.69 278.62,-115.36 287,-112 320.07,-98.74 358.68,-86.64 387.12,-78.34"/>
<polygon fill="midnightblue" stroke="midnightblue" points="388.1,-81.7 396.74,-75.56 386.16,-74.97 388.1,-81.7"/>
</g>
<!-- Node17 -->
<g id="node17" class="node">
<title>Node17</title>
<g id="a_node17"><a xlink:title=" ">
<polygon fill="none" stroke="#bfbfbf" points="523.5,-56.5 523.5,-75.5 628.5,-75.5 628.5,-56.5 523.5,-56.5"/>
<text text-anchor="middle" x="576" y="-63.5" font-family="Helvetica,sans-Serif" font-size="10.00">memory_utils.hpp</text>
</a>
</g>
</g>
<!-- Node8&#45;&gt;Node17 -->
<g id="edge22" class="edge">
<title>Node8&#45;&gt;Node17</title>
<path fill="none" stroke="midnightblue" d="M260.74,-123.47C268.36,-119.42 277.93,-114.85 287,-112 308.13,-105.37 434.62,-86.88 513.09,-75.78"/>
<polygon fill="midnightblue" stroke="midnightblue" points="513.95,-79.19 523.36,-74.33 512.97,-72.26 513.95,-79.19"/>
</g>
<!-- Node15&#45;&gt;Node2 -->
<g id="edge21" class="edge">
<title>Node15&#45;&gt;Node2</title>
<path fill="none" stroke="midnightblue" d="M389.3,-57.41C386.5,-56.91 383.71,-56.44 381,-56 278.04,-39.36 156.85,-24.48 90.22,-16.7"/>
<polygon fill="midnightblue" stroke="midnightblue" points="90.35,-13.19 80.01,-15.52 89.54,-20.15 90.35,-13.19"/>
</g>
<!-- Node15&#45;&gt;Node3 -->
<g id="edge19" class="edge">
<title>Node15&#45;&gt;Node3</title>
<path fill="none" stroke="midnightblue" d="M464.29,-56.44C506.55,-46.48 576.05,-30.09 619.03,-19.95"/>
<polygon fill="midnightblue" stroke="midnightblue" points="619.9,-23.35 628.83,-17.64 618.29,-16.53 619.9,-23.35"/>
</g>
<!-- Node15&#45;&gt;Node9 -->
<g id="edge18" class="edge">
<title>Node15&#45;&gt;Node9</title>
<path fill="none" stroke="midnightblue" d="M397.1,-56.44C361.96,-46.71 304.7,-30.86 267.96,-20.68"/>
<polygon fill="midnightblue" stroke="midnightblue" points="268.74,-17.27 258.17,-17.97 266.88,-24.01 268.74,-17.27"/>
</g>
<!-- Node15&#45;&gt;Node14 -->
<g id="edge17" class="edge">
<title>Node15&#45;&gt;Node14</title>
<path fill="none" stroke="midnightblue" d="M438.76,-56.32C448.77,-48.26 463.89,-36.08 475.93,-26.37"/>
<polygon fill="midnightblue" stroke="midnightblue" points="478.45,-28.83 484.04,-19.83 474.06,-23.38 478.45,-28.83"/>
</g>
<!-- Node16 -->
<g id="node16" class="node">
<title>Node16</title>
<g id="a_node16"><a xlink:title=" ">
<polygon fill="none" stroke="#bfbfbf" points="386,-0.5 386,-19.5 450,-19.5 450,-0.5 386,-0.5"/>
<text text-anchor="middle" x="418" y="-7.5" font-family="Helvetica,sans-Serif" font-size="10.00">ap_utils.h</text>
</a>
</g>
</g>
<!-- Node15&#45;&gt;Node16 -->
<g id="edge20" class="edge">
<title>Node15&#45;&gt;Node16</title>
<path fill="none" stroke="midnightblue" d="M426.35,-56.08C425.02,-48.93 423.12,-38.64 421.46,-29.69"/>
<polygon fill="midnightblue" stroke="midnightblue" points="424.88,-28.95 419.62,-19.75 418,-30.22 424.88,-28.95"/>
</g>
</g>
</svg>
        <g id="navigator" transform="translate(0 0)" fill="#404254">
                <rect fill="#f2f5e9" fill-opacity="0.5" stroke="#606060" stroke-width=".5" x="0" y="0" width="60" height="60"/>
                <use id="zoomplus" xlink:href="#zoomPlus" x="17" y="9" onmousedown="handleZoom(evt,'in')"/>
                <use id="zoomminus" xlink:href="#zoomMin" x="42" y="9" onmousedown="handleZoom(evt,'out')"/>
                <use id="reset" xlink:href="#resetDef" x="30" y="36" onmousedown="handleReset()"/>
                <g id="arrowUp" xlink:href="#dirArrow" transform="translate(30 24)" onmousedown="handlePan(0,-1)">
                  <use xlink:href="#rim" fill="#404040">
                        <set attributeName="fill" to="#808080" begin="arrowUp.mouseover" end="arrowUp.mouseout"/>
                  </use>
                  <path fill="none" stroke="white" stroke-width="1.5" d="M0,-3.0v7 M-2.5,-0.5L0,-3.0L2.5,-0.5"/>
                </g>
                <g id="arrowRight" xlink:href="#dirArrow" transform="rotate(90) translate(36 -43)" onmousedown="handlePan(1,0)">
                  <use xlink:href="#rim" fill="#404040">
                        <set attributeName="fill" to="#808080" begin="arrowRight.mouseover" end="arrowRight.mouseout"/>
                  </use>
                  <path fill="none" stroke="white" stroke-width="1.5" d="M0,-3.0v7 M-2.5,-0.5L0,-3.0L2.5,-0.5"/>
                </g>
                <g id="arrowDown" xlink:href="#dirArrow" transform="rotate(180) translate(-30 -48)" onmousedown="handlePan(0,1)">
                  <use xlink:href="#rim" fill="#404040">
                        <set attributeName="fill" to="#808080" begin="arrowDown.mouseover" end="arrowDown.mouseout"/>
                  </use>
                  <path fill="none" stroke="white" stroke-width="1.5" d="M0,-3.0v7 M-2.5,-0.5L0,-3.0L2.5,-0.5"/>
                </g>
                <g id="arrowLeft" xlink:href="#dirArrow" transform="rotate(270) translate(-36 17)" onmousedown="handlePan(-1,0)">
                  <use xlink:href="#rim" fill="#404040">
                        <set attributeName="fill" to="#808080" begin="arrowLeft.mouseover" end="arrowLeft.mouseout"/>
                  </use>
                  <path fill="none" stroke="white" stroke-width="1.5" d="M0,-3.0v7 M-2.5,-0.5L0,-3.0L2.5,-0.5"/>
                </g>
        </g>
        <svg viewBox="0 0 15 15" width="100%" height="30px" preserveAspectRatio="xMaxYMin meet">
         <g id="arrow_out" transform="scale(0.3 0.3)">
          <a xlink:href="harris_2include_2xf__harris__config_8h__incl_org.svg" target="_base">
           <rect id="button" ry="5" rx="5" y="6" x="6" height="38" width="38"
                fill="#f2f5e9" fill-opacity="0.5" stroke="#606060" stroke-width="1.0"/>
           <path id="arrow"
             d="M 11.500037,31.436501 C 11.940474,20.09759 22.043105,11.32322 32.158766,21.979434 L 37.068811,17.246167 C 37.068811,17.246167 37.088388,32 37.088388,32 L 22.160133,31.978069 C 22.160133,31.978069 26.997745,27.140456 26.997745,27.140456 C 18.528582,18.264221 13.291696,25.230495 11.500037,31.436501 z"
             style="fill:#404040;"/>
          </a>
         </g>
        </svg>
</svg>
