<?xml version="1.0" encoding="UTF-8" standalone="no"?>
<!DOCTYPE svg PUBLIC "-//W3C//DTD SVG 1.1//EN"
 "http://www.w3.org/Graphics/SVG/1.1/DTD/svg11.dtd">
<!-- Generated by graphviz version 2.43.0 (0)
 -->
<!-- Title: repos_for_Dox/cFp_Zoo/HOST/vision/harris/languages/cplusplus/src/harris_host.cpp Pages: 1 -->
<svg width="1001pt" height="184pt"
 viewBox="0.00 0.00 1000.50 184.00" xmlns="http://www.w3.org/2000/svg" xmlns:xlink="http://www.w3.org/1999/xlink">
<g id="graph0" class="graph" transform="scale(1 1) rotate(0) translate(4 180)">
<title>repos_for_Dox/cFp_Zoo/HOST/vision/harris/languages/cplusplus/src/harris_host.cpp</title>
<!-- Node1 -->
<g id="node1" class="node">
<title>Node1</title>
<g id="a_node1"><a xlink:title="Harris userspace application for cF (x86, ppc64).">
<polygon fill="#bfbfbf" stroke="black" points="261.5,-134.5 261.5,-175.5 424.5,-175.5 424.5,-134.5 261.5,-134.5"/>
<text text-anchor="start" x="269.5" y="-163.5" font-family="Helvetica,sans-Serif" font-size="10.00">repos_for_Dox/cFp_Zoo</text>
<text text-anchor="start" x="269.5" y="-152.5" font-family="Helvetica,sans-Serif" font-size="10.00">/HOST/vision/harris/languages</text>
<text text-anchor="middle" x="343" y="-141.5" font-family="Helvetica,sans-Serif" font-size="10.00">/cplusplus/src/harris_host.cpp</text>
</a>
</g>
</g>
<!-- Node2 -->
<g id="node2" class="node">
<title>Node2</title>
<g id="a_node2"><a xlink:title=" ">
<polygon fill="none" stroke="#bfbfbf" points="0,-67.5 0,-86.5 50,-86.5 50,-67.5 0,-67.5"/>
<text text-anchor="middle" x="25" y="-74.5" font-family="Helvetica,sans-Serif" font-size="10.00">stdio.h</text>
</a>
</g>
</g>
<!-- Node1&#45;&gt;Node2 -->
<g id="edge1" class="edge">
<title>Node1&#45;&gt;Node2</title>
<path fill="none" stroke="midnightblue" d="M261.42,-145.32C203.54,-137.4 124.77,-123 59,-98 54.63,-96.34 50.18,-94.14 45.99,-91.82"/>
<polygon fill="midnightblue" stroke="midnightblue" points="47.78,-88.81 37.4,-86.67 44.18,-94.81 47.78,-88.81"/>
</g>
<!-- Node3 -->
<g id="node3" class="node">
<title>Node3</title>
<g id="a_node3"><a xlink:title=" ">
<polygon fill="none" stroke="#bfbfbf" points="68,-67.5 68,-86.5 128,-86.5 128,-67.5 68,-67.5"/>
<text text-anchor="middle" x="98" y="-74.5" font-family="Helvetica,sans-Serif" font-size="10.00">iostream</text>
</a>
</g>
</g>
<!-- Node1&#45;&gt;Node3 -->
<g id="edge2" class="edge">
<title>Node1&#45;&gt;Node3</title>
<path fill="none" stroke="midnightblue" d="M261.01,-135.54C223.02,-125.99 177.63,-113.15 138,-98 132.87,-96.04 127.53,-93.64 122.48,-91.19"/>
<polygon fill="midnightblue" stroke="midnightblue" points="123.76,-87.91 113.26,-86.52 120.6,-94.16 123.76,-87.91"/>
</g>
<!-- Node4 -->
<g id="node4" class="node">
<title>Node4</title>
<g id="a_node4"><a xlink:title=" ">
<polygon fill="none" stroke="#bfbfbf" points="146.5,-67.5 146.5,-86.5 195.5,-86.5 195.5,-67.5 146.5,-67.5"/>
<text text-anchor="middle" x="171" y="-74.5" font-family="Helvetica,sans-Serif" font-size="10.00">cstdlib</text>
</a>
</g>
</g>
<!-- Node1&#45;&gt;Node4 -->
<g id="edge3" class="edge">
<title>Node1&#45;&gt;Node4</title>
<path fill="none" stroke="midnightblue" d="M289.45,-134.37C263.55,-124.35 232.24,-111.45 205,-98 201.24,-96.14 197.33,-94.03 193.56,-91.89"/>
<polygon fill="midnightblue" stroke="midnightblue" points="195.04,-88.7 184.64,-86.64 191.49,-94.73 195.04,-88.7"/>
</g>
<!-- Node5 -->
<g id="node5" class="node">
<title>Node5</title>
<g id="a_node5"><a xlink:title=" ">
<polygon fill="none" stroke="#bfbfbf" points="214,-67.5 214,-86.5 270,-86.5 270,-67.5 214,-67.5"/>
<text text-anchor="middle" x="242" y="-74.5" font-family="Helvetica,sans-Serif" font-size="10.00">assert.h</text>
</a>
</g>
</g>
<!-- Node1&#45;&gt;Node5 -->
<g id="edge4" class="edge">
<title>Node1&#45;&gt;Node5</title>
<path fill="none" stroke="midnightblue" d="M316.99,-134.43C299.63,-121.37 277.18,-104.47 261.38,-92.58"/>
<polygon fill="midnightblue" stroke="midnightblue" points="263.46,-89.77 253.37,-86.55 259.25,-95.36 263.46,-89.77"/>
</g>
<!-- Node6 -->
<g id="node6" class="node">
<title>Node6</title>
<g id="a_node6"><a xlink:title=" ">
<polygon fill="none" stroke="#bfbfbf" points="288,-67.5 288,-86.5 332,-86.5 332,-67.5 288,-67.5"/>
<text text-anchor="middle" x="310" y="-74.5" font-family="Helvetica,sans-Serif" font-size="10.00">string</text>
</a>
</g>
</g>
<!-- Node1&#45;&gt;Node6 -->
<g id="edge5" class="edge">
<title>Node1&#45;&gt;Node6</title>
<path fill="none" stroke="midnightblue" d="M334.5,-134.43C329.36,-122.58 322.84,-107.57 317.82,-96.01"/>
<polygon fill="midnightblue" stroke="midnightblue" points="320.91,-94.33 313.71,-86.55 314.49,-97.12 320.91,-94.33"/>
</g>
<!-- Node7 -->
<g id="node7" class="node">
<title>Node7</title>
<g id="a_node7"><a xlink:title=" ">
<polygon fill="none" stroke="#bfbfbf" points="350.5,-67.5 350.5,-86.5 403.5,-86.5 403.5,-67.5 350.5,-67.5"/>
<text text-anchor="middle" x="377" y="-74.5" font-family="Helvetica,sans-Serif" font-size="10.00">string.h</text>
</a>
</g>
</g>
<!-- Node1&#45;&gt;Node7 -->
<g id="edge6" class="edge">
<title>Node1&#45;&gt;Node7</title>
<path fill="none" stroke="midnightblue" d="M351.76,-134.43C357.06,-122.58 363.77,-107.57 368.94,-96.01"/>
<polygon fill="midnightblue" stroke="midnightblue" points="372.29,-97.11 373.17,-86.55 365.9,-94.25 372.29,-97.11"/>
</g>
<!-- Node8 -->
<g id="node8" class="node">
<title>Node8</title>
<g id="a_node8"><a xlink:title=" ">
<polygon fill="none" stroke="#bfbfbf" points="421.5,-62 421.5,-92 584.5,-92 584.5,-62 421.5,-62"/>
<text text-anchor="start" x="429.5" y="-80" font-family="Helvetica,sans-Serif" font-size="10.00">../../../../../Practical</text>
<text text-anchor="middle" x="503" y="-69" font-family="Helvetica,sans-Serif" font-size="10.00">Sockets/src/PracticalSockets.h</text>
</a>
</g>
</g>
<!-- Node1&#45;&gt;Node8 -->
<g id="edge7" class="edge">
<title>Node1&#45;&gt;Node8</title>
<path fill="none" stroke="midnightblue" d="M384.2,-134.43C408.73,-122.78 439.67,-108.08 463.82,-96.61"/>
<polygon fill="midnightblue" stroke="midnightblue" points="465.52,-99.68 473.05,-92.23 462.52,-93.35 465.52,-99.68"/>
</g>
<!-- Node9 -->
<g id="node9" class="node">
<title>Node9</title>
<g id="a_node9"><a xlink:href="vision_2harris_2languages_2cplusplus_2include_2config_8h.html" target="_top" xlink:title="The configuration of a Harris Example application (UDP or TCP)">
<polygon fill="none" stroke="black" points="603,-67.5 603,-86.5 705,-86.5 705,-67.5 603,-67.5"/>
<text text-anchor="middle" x="654" y="-74.5" font-family="Helvetica,sans-Serif" font-size="10.00">../include/config.h</text>
</a>
</g>
</g>
<!-- Node1&#45;&gt;Node9 -->
<g id="edge8" class="edge">
<title>Node1&#45;&gt;Node9</title>
<path fill="none" stroke="midnightblue" d="M424.63,-137.99C473.97,-127.77 537.96,-113.55 594,-98 602.67,-95.59 611.94,-92.68 620.53,-89.83"/>
<polygon fill="midnightblue" stroke="midnightblue" points="621.88,-93.07 630.23,-86.55 619.64,-86.44 621.88,-93.07"/>
</g>
<!-- Node10 -->
<g id="node10" class="node">
<title>Node10</title>
<g id="a_node10"><a xlink:title=" ">
<polygon fill="none" stroke="#bfbfbf" points="723,-67.5 723,-86.5 839,-86.5 839,-67.5 723,-67.5"/>
<text text-anchor="middle" x="781" y="-74.5" font-family="Helvetica,sans-Serif" font-size="10.00">opencv2/opencv.hpp</text>
</a>
</g>
</g>
<!-- Node1&#45;&gt;Node10 -->
<g id="edge9" class="edge">
<title>Node1&#45;&gt;Node10</title>
<path fill="none" stroke="midnightblue" d="M424.67,-145.01C500.25,-135.91 615.47,-120.03 714,-98 724.4,-95.68 735.54,-92.6 745.69,-89.55"/>
<polygon fill="midnightblue" stroke="midnightblue" points="746.92,-92.83 755.45,-86.55 744.86,-86.14 746.92,-92.83"/>
</g>
<!-- Node11 -->
<g id="node11" class="node">
<title>Node11</title>
<g id="a_node11"><a xlink:href="harris_2include_2xf__ocv__ref_8hpp.html" target="_top" xlink:title="The Harris reference functions used in TB.">
<polygon fill="none" stroke="black" points="857.5,-56.5 857.5,-97.5 992.5,-97.5 992.5,-56.5 857.5,-56.5"/>
<text text-anchor="start" x="865.5" y="-85.5" font-family="Helvetica,sans-Serif" font-size="10.00">../../../../../../ROLE</text>
<text text-anchor="start" x="865.5" y="-74.5" font-family="Helvetica,sans-Serif" font-size="10.00">/vision/hls/harris/include</text>
<text text-anchor="middle" x="925" y="-63.5" font-family="Helvetica,sans-Serif" font-size="10.00">/xf_ocv_ref.hpp</text>
</a>
</g>
</g>
<!-- Node1&#45;&gt;Node11 -->
<g id="edge10" class="edge">
<title>Node1&#45;&gt;Node11</title>
<path fill="none" stroke="midnightblue" d="M424.87,-148.56C523.04,-141.21 692.61,-125.94 846.95,-98.06"/>
<polygon fill="midnightblue" stroke="midnightblue" points="847.89,-101.44 857.1,-96.2 846.63,-94.56 847.89,-101.44"/>
</g>
<!-- Node12 -->
<g id="node12" class="node">
<title>Node12</title>
<g id="a_node12"><a xlink:href="harris_2include_2xf__config__params_8h.html" target="_top" xlink:title="The Harris IP configuration header.">
<polygon fill="none" stroke="black" points="869,-0.5 869,-19.5 981,-19.5 981,-0.5 869,-0.5"/>
<text text-anchor="middle" x="925" y="-7.5" font-family="Helvetica,sans-Serif" font-size="10.00">xf_config_params.h</text>
</a>
</g>
</g>
<!-- Node11&#45;&gt;Node12 -->
<g id="edge11" class="edge">
<title>Node11&#45;&gt;Node12</title>
<path fill="none" stroke="midnightblue" d="M925,-56.5C925,-48.07 925,-38.24 925,-29.87"/>
<polygon fill="midnightblue" stroke="midnightblue" points="928.5,-29.65 925,-19.65 921.5,-29.65 928.5,-29.65"/>
</g>
</g>
</svg>
