<?xml version="1.0" encoding="UTF-8" standalone="no"?>
<!DOCTYPE svg PUBLIC "-//W3C//DTD SVG 1.1//EN"
 "http://www.w3.org/Graphics/SVG/1.1/DTD/svg11.dtd">
<!-- Generated by graphviz version 2.43.0 (0)
 -->
<!-- Title: repos_for_Dox/cFp_Zoo/HOST/custom/memtest/languages/cplusplus/include/common.hpp Pages: 1 -->
<svg width="1476pt" height="117pt"
 viewBox="0.00 0.00 1476.00 117.00" xmlns="http://www.w3.org/2000/svg" xmlns:xlink="http://www.w3.org/1999/xlink">
<g id="graph0" class="graph" transform="scale(1 1) rotate(0) translate(4 113)">
<title>repos_for_Dox/cFp_Zoo/HOST/custom/memtest/languages/cplusplus/include/common.hpp</title>
<!-- Node1 -->
<g id="node1" class="node">
<title>Node1</title>
<g id="a_node1"><a xlink:title=" ">
<polygon fill="#bfbfbf" stroke="black" points="662.5,-56.5 662.5,-108.5 819.5,-108.5 819.5,-56.5 662.5,-56.5"/>
<text text-anchor="start" x="670.5" y="-96.5" font-family="Helvetica,sans-Serif" font-size="10.00">repos_for_Dox/cFp_Zoo</text>
<text text-anchor="start" x="670.5" y="-85.5" font-family="Helvetica,sans-Serif" font-size="10.00">/HOST/custom/memtest</text>
<text text-anchor="start" x="670.5" y="-74.5" font-family="Helvetica,sans-Serif" font-size="10.00">/languages/cplusplus/include</text>
<text text-anchor="middle" x="741" y="-63.5" font-family="Helvetica,sans-Serif" font-size="10.00">/common.hpp</text>
</a>
</g>
</g>
<!-- Node2 -->
<g id="node2" class="node">
<title>Node2</title>
<g id="a_node2"><a xlink:title=" ">
<polygon fill="none" stroke="#bfbfbf" points="0,-0.5 0,-19.5 50,-19.5 50,-0.5 0,-0.5"/>
<text text-anchor="middle" x="25" y="-7.5" font-family="Helvetica,sans-Serif" font-size="10.00">stdio.h</text>
</a>
</g>
</g>
<!-- Node1&#45;&gt;Node2 -->
<g id="edge1" class="edge">
<title>Node1&#45;&gt;Node2</title>
<path fill="none" stroke="midnightblue" d="M662.44,-78.73C536.82,-73.34 283.03,-58.57 60.07,-19.9"/>
<polygon fill="midnightblue" stroke="midnightblue" points="60.6,-16.44 50.15,-18.16 59.39,-23.34 60.6,-16.44"/>
</g>
<!-- Node3 -->
<g id="node3" class="node">
<title>Node3</title>
<g id="a_node3"><a xlink:title=" ">
<polygon fill="none" stroke="#bfbfbf" points="68,-0.5 68,-19.5 128,-19.5 128,-0.5 68,-0.5"/>
<text text-anchor="middle" x="98" y="-7.5" font-family="Helvetica,sans-Serif" font-size="10.00">iostream</text>
</a>
</g>
</g>
<!-- Node1&#45;&gt;Node3 -->
<g id="edge2" class="edge">
<title>Node1&#45;&gt;Node3</title>
<path fill="none" stroke="midnightblue" d="M662.4,-76.65C548.72,-68.95 331.75,-51.61 138.23,-20.01"/>
<polygon fill="midnightblue" stroke="midnightblue" points="138.6,-16.53 128.16,-18.35 137.46,-23.43 138.6,-16.53"/>
</g>
<!-- Node4 -->
<g id="node4" class="node">
<title>Node4</title>
<g id="a_node4"><a xlink:title=" ">
<polygon fill="none" stroke="#bfbfbf" points="146.5,-0.5 146.5,-19.5 195.5,-19.5 195.5,-0.5 146.5,-0.5"/>
<text text-anchor="middle" x="171" y="-7.5" font-family="Helvetica,sans-Serif" font-size="10.00">cstdlib</text>
</a>
</g>
</g>
<!-- Node1&#45;&gt;Node4 -->
<g id="edge3" class="edge">
<title>Node1&#45;&gt;Node4</title>
<path fill="none" stroke="midnightblue" d="M662.35,-76.05C559.45,-68.13 373.51,-51.08 205.79,-19.89"/>
<polygon fill="midnightblue" stroke="midnightblue" points="206.26,-16.41 195.79,-18 204.97,-23.29 206.26,-16.41"/>
</g>
<!-- Node5 -->
<g id="node5" class="node">
<title>Node5</title>
<g id="a_node5"><a xlink:title=" ">
<polygon fill="none" stroke="#bfbfbf" points="214,-0.5 214,-19.5 270,-19.5 270,-0.5 214,-0.5"/>
<text text-anchor="middle" x="242" y="-7.5" font-family="Helvetica,sans-Serif" font-size="10.00">assert.h</text>
</a>
</g>
</g>
<!-- Node1&#45;&gt;Node5 -->
<g id="edge4" class="edge">
<title>Node1&#45;&gt;Node5</title>
<path fill="none" stroke="midnightblue" d="M662.12,-73.58C571.98,-63.95 419.94,-45.94 280.25,-20.07"/>
<polygon fill="midnightblue" stroke="midnightblue" points="280.69,-16.59 270.21,-18.19 279.4,-23.47 280.69,-16.59"/>
</g>
<!-- Node6 -->
<g id="node6" class="node">
<title>Node6</title>
<g id="a_node6"><a xlink:title=" ">
<polygon fill="none" stroke="#bfbfbf" points="288,-0.5 288,-19.5 332,-19.5 332,-0.5 288,-0.5"/>
<text text-anchor="middle" x="310" y="-7.5" font-family="Helvetica,sans-Serif" font-size="10.00">string</text>
</a>
</g>
</g>
<!-- Node1&#45;&gt;Node6 -->
<g id="edge5" class="edge">
<title>Node1&#45;&gt;Node6</title>
<path fill="none" stroke="midnightblue" d="M662.26,-72.47C583.4,-62.72 458.51,-45.4 342.06,-20"/>
<polygon fill="midnightblue" stroke="midnightblue" points="342.78,-16.57 332.26,-17.84 341.27,-23.41 342.78,-16.57"/>
</g>
<!-- Node7 -->
<g id="node7" class="node">
<title>Node7</title>
<g id="a_node7"><a xlink:title=" ">
<polygon fill="none" stroke="#bfbfbf" points="350.5,-0.5 350.5,-19.5 403.5,-19.5 403.5,-0.5 350.5,-0.5"/>
<text text-anchor="middle" x="377" y="-7.5" font-family="Helvetica,sans-Serif" font-size="10.00">string.h</text>
</a>
</g>
</g>
<!-- Node1&#45;&gt;Node7 -->
<g id="edge6" class="edge">
<title>Node1&#45;&gt;Node7</title>
<path fill="none" stroke="midnightblue" d="M662.2,-68.08C597.93,-56.83 504.6,-39.77 413.63,-20.03"/>
<polygon fill="midnightblue" stroke="midnightblue" points="414.21,-16.58 403.69,-17.86 412.72,-23.41 414.21,-16.58"/>
</g>
<!-- Node8 -->
<g id="node8" class="node">
<title>Node8</title>
<g id="a_node8"><a xlink:title=" ">
<polygon fill="none" stroke="#bfbfbf" points="422,-0.5 422,-19.5 478,-19.5 478,-0.5 422,-0.5"/>
<text text-anchor="middle" x="450" y="-7.5" font-family="Helvetica,sans-Serif" font-size="10.00">sstream</text>
</a>
</g>
</g>
<!-- Node1&#45;&gt;Node8 -->
<g id="edge7" class="edge">
<title>Node1&#45;&gt;Node8</title>
<path fill="none" stroke="midnightblue" d="M662.33,-62.48C614.61,-50.93 552.2,-35.82 488.16,-20.28"/>
<polygon fill="midnightblue" stroke="midnightblue" points="488.82,-16.84 478.28,-17.88 487.17,-23.64 488.82,-16.84"/>
</g>
<!-- Node9 -->
<g id="node9" class="node">
<title>Node9</title>
<g id="a_node9"><a xlink:title=" ">
<polygon fill="none" stroke="#bfbfbf" points="496,-0.5 496,-19.5 542,-19.5 542,-0.5 496,-0.5"/>
<text text-anchor="middle" x="519" y="-7.5" font-family="Helvetica,sans-Serif" font-size="10.00">cstdio</text>
</a>
</g>
</g>
<!-- Node1&#45;&gt;Node9 -->
<g id="edge8" class="edge">
<title>Node1&#45;&gt;Node9</title>
<path fill="none" stroke="midnightblue" d="M662.42,-56.55C624.48,-44.5 581.01,-30.69 551.96,-21.47"/>
<polygon fill="midnightblue" stroke="midnightblue" points="552.91,-18.1 542.32,-18.41 550.8,-24.77 552.91,-18.1"/>
</g>
<!-- Node10 -->
<g id="node10" class="node">
<title>Node10</title>
<g id="a_node10"><a xlink:title=" ">
<polygon fill="none" stroke="#bfbfbf" points="560,-0.5 560,-19.5 618,-19.5 618,-0.5 560,-0.5"/>
<text text-anchor="middle" x="589" y="-7.5" font-family="Helvetica,sans-Serif" font-size="10.00">memory</text>
</a>
</g>
</g>
<!-- Node1&#45;&gt;Node10 -->
<g id="edge9" class="edge">
<title>Node1&#45;&gt;Node10</title>
<path fill="none" stroke="midnightblue" d="M686.98,-56.45C663.19,-45.41 636.24,-32.91 616.64,-23.82"/>
<polygon fill="midnightblue" stroke="midnightblue" points="617.93,-20.56 607.38,-19.53 614.98,-26.91 617.93,-20.56"/>
</g>
<!-- Node11 -->
<g id="node11" class="node">
<title>Node11</title>
<g id="a_node11"><a xlink:title=" ">
<polygon fill="none" stroke="#bfbfbf" points="636.5,-0.5 636.5,-19.5 701.5,-19.5 701.5,-0.5 636.5,-0.5"/>
<text text-anchor="middle" x="669" y="-7.5" font-family="Helvetica,sans-Serif" font-size="10.00">stdexcept</text>
</a>
</g>
</g>
<!-- Node1&#45;&gt;Node11 -->
<g id="edge10" class="edge">
<title>Node1&#45;&gt;Node11</title>
<path fill="none" stroke="midnightblue" d="M715.41,-56.45C705.39,-46.63 694.18,-35.66 685.29,-26.95"/>
<polygon fill="midnightblue" stroke="midnightblue" points="687.47,-24.19 677.88,-19.7 682.58,-29.19 687.47,-24.19"/>
</g>
<!-- Node12 -->
<g id="node12" class="node">
<title>Node12</title>
<g id="a_node12"><a xlink:title=" ">
<polygon fill="none" stroke="#bfbfbf" points="720,-0.5 720,-19.5 762,-19.5 762,-0.5 720,-0.5"/>
<text text-anchor="middle" x="741" y="-7.5" font-family="Helvetica,sans-Serif" font-size="10.00">array</text>
</a>
</g>
</g>
<!-- Node1&#45;&gt;Node12 -->
<g id="edge11" class="edge">
<title>Node1&#45;&gt;Node12</title>
<path fill="none" stroke="midnightblue" d="M741,-56.45C741,-47.73 741,-38.1 741,-29.96"/>
<polygon fill="midnightblue" stroke="midnightblue" points="744.5,-29.7 741,-19.7 737.5,-29.7 744.5,-29.7"/>
</g>
<!-- Node13 -->
<g id="node13" class="node">
<title>Node13</title>
<g id="a_node13"><a xlink:title=" ">
<polygon fill="none" stroke="#bfbfbf" points="780,-0.5 780,-19.5 844,-19.5 844,-0.5 780,-0.5"/>
<text text-anchor="middle" x="812" y="-7.5" font-family="Helvetica,sans-Serif" font-size="10.00">sys/stat.h</text>
</a>
</g>
</g>
<!-- Node1&#45;&gt;Node13 -->
<g id="edge12" class="edge">
<title>Node1&#45;&gt;Node13</title>
<path fill="none" stroke="midnightblue" d="M766.23,-56.45C776.12,-46.63 787.17,-35.66 795.93,-26.95"/>
<polygon fill="midnightblue" stroke="midnightblue" points="798.61,-29.23 803.24,-19.7 793.68,-24.26 798.61,-29.23"/>
</g>
<!-- Node14 -->
<g id="node14" class="node">
<title>Node14</title>
<g id="a_node14"><a xlink:title=" ">
<polygon fill="none" stroke="#bfbfbf" points="862.5,-0.5 862.5,-19.5 915.5,-19.5 915.5,-0.5 862.5,-0.5"/>
<text text-anchor="middle" x="889" y="-7.5" font-family="Helvetica,sans-Serif" font-size="10.00">stdlib.h</text>
</a>
</g>
</g>
<!-- Node1&#45;&gt;Node14 -->
<g id="edge13" class="edge">
<title>Node1&#45;&gt;Node14</title>
<path fill="none" stroke="midnightblue" d="M793.6,-56.45C816.66,-45.46 842.76,-33.03 861.83,-23.94"/>
<polygon fill="midnightblue" stroke="midnightblue" points="863.58,-26.99 871.1,-19.53 860.57,-20.67 863.58,-26.99"/>
</g>
<!-- Node15 -->
<g id="node15" class="node">
<title>Node15</title>
<g id="a_node15"><a xlink:href="custom_2memtest_2languages_2cplusplus_2include_2config_8h.html" target="_top" xlink:title="The configuration of a Memtest Example application (UDP or TCP)">
<polygon fill="none" stroke="black" points="933.5,-0.5 933.5,-19.5 988.5,-19.5 988.5,-0.5 933.5,-0.5"/>
<text text-anchor="middle" x="961" y="-7.5" font-family="Helvetica,sans-Serif" font-size="10.00">config.h</text>
</a>
</g>
</g>
<!-- Node1&#45;&gt;Node15 -->
<g id="edge14" class="edge">
<title>Node1&#45;&gt;Node15</title>
<path fill="none" stroke="midnightblue" d="M819.18,-56.45C855.2,-44.9 896.19,-31.77 924.81,-22.6"/>
<polygon fill="midnightblue" stroke="midnightblue" points="925.94,-25.91 934.39,-19.53 923.8,-19.25 925.94,-25.91"/>
</g>
<!-- Node16 -->
<g id="node16" class="node">
<title>Node16</title>
<g id="a_node16"><a xlink:title=" ">
<polygon fill="none" stroke="#bfbfbf" points="1007,-0.5 1007,-19.5 1071,-19.5 1071,-0.5 1007,-0.5"/>
<text text-anchor="middle" x="1039" y="-7.5" font-family="Helvetica,sans-Serif" font-size="10.00">algorithm</text>
</a>
</g>
</g>
<!-- Node1&#45;&gt;Node16 -->
<g id="edge15" class="edge">
<title>Node1&#45;&gt;Node16</title>
<path fill="none" stroke="midnightblue" d="M819.69,-62.88C876.44,-49.46 950.85,-31.86 996.76,-20.99"/>
<polygon fill="midnightblue" stroke="midnightblue" points="997.75,-24.36 1006.67,-18.65 996.14,-17.54 997.75,-24.36"/>
</g>
<!-- Node17 -->
<g id="node17" class="node">
<title>Node17</title>
<g id="a_node17"><a xlink:title=" ">
<polygon fill="none" stroke="#bfbfbf" points="1089.5,-0.5 1089.5,-19.5 1144.5,-19.5 1144.5,-0.5 1089.5,-0.5"/>
<text text-anchor="middle" x="1117" y="-7.5" font-family="Helvetica,sans-Serif" font-size="10.00">fstream</text>
</a>
</g>
</g>
<!-- Node1&#45;&gt;Node17 -->
<g id="edge16" class="edge">
<title>Node1&#45;&gt;Node17</title>
<path fill="none" stroke="midnightblue" d="M819.69,-68.58C886.21,-57.35 984.23,-40.07 1079.1,-20.09"/>
<polygon fill="midnightblue" stroke="midnightblue" points="1080.1,-23.46 1089.16,-17.96 1078.65,-16.61 1080.1,-23.46"/>
</g>
<!-- Node18 -->
<g id="node18" class="node">
<title>Node18</title>
<g id="a_node18"><a xlink:title=" ">
<polygon fill="none" stroke="#bfbfbf" points="1163,-0.5 1163,-19.5 1207,-19.5 1207,-0.5 1163,-0.5"/>
<text text-anchor="middle" x="1185" y="-7.5" font-family="Helvetica,sans-Serif" font-size="10.00">bitset</text>
</a>
</g>
</g>
<!-- Node1&#45;&gt;Node18 -->
<g id="edge17" class="edge">
<title>Node1&#45;&gt;Node18</title>
<path fill="none" stroke="midnightblue" d="M819.59,-72.99C900.91,-63.47 1031.62,-46.14 1152.91,-19.99"/>
<polygon fill="midnightblue" stroke="midnightblue" points="1153.72,-23.4 1162.74,-17.85 1152.23,-16.56 1153.72,-23.4"/>
</g>
<!-- Node19 -->
<g id="node19" class="node">
<title>Node19</title>
<g id="a_node19"><a xlink:title=" ">
<polygon fill="none" stroke="#bfbfbf" points="1225.5,-0.5 1225.5,-19.5 1272.5,-19.5 1272.5,-0.5 1225.5,-0.5"/>
<text text-anchor="middle" x="1249" y="-7.5" font-family="Helvetica,sans-Serif" font-size="10.00">vector</text>
</a>
</g>
</g>
<!-- Node1&#45;&gt;Node19 -->
<g id="edge18" class="edge">
<title>Node1&#45;&gt;Node19</title>
<path fill="none" stroke="midnightblue" d="M819.71,-74.65C912.24,-65.85 1070.49,-48.46 1215.34,-19.87"/>
<polygon fill="midnightblue" stroke="midnightblue" points="1216.18,-23.27 1225.3,-17.88 1214.81,-16.41 1216.18,-23.27"/>
</g>
<!-- Node20 -->
<g id="node20" class="node">
<title>Node20</title>
<g id="a_node20"><a xlink:title=" ">
<polygon fill="none" stroke="#bfbfbf" points="1290.5,-0.5 1290.5,-19.5 1337.5,-19.5 1337.5,-0.5 1290.5,-0.5"/>
<text text-anchor="middle" x="1314" y="-7.5" font-family="Helvetica,sans-Serif" font-size="10.00">cmath</text>
</a>
</g>
</g>
<!-- Node1&#45;&gt;Node20 -->
<g id="edge19" class="edge">
<title>Node1&#45;&gt;Node20</title>
<path fill="none" stroke="midnightblue" d="M819.55,-76.55C923.29,-69.13 1111.67,-52.59 1280.28,-20.08"/>
<polygon fill="midnightblue" stroke="midnightblue" points="1281.19,-23.46 1290.34,-18.11 1279.85,-16.59 1281.19,-23.46"/>
</g>
<!-- Node21 -->
<g id="node21" class="node">
<title>Node21</title>
<g id="a_node21"><a xlink:title=" ">
<polygon fill="none" stroke="#bfbfbf" points="1356,-0.5 1356,-19.5 1406,-19.5 1406,-0.5 1356,-0.5"/>
<text text-anchor="middle" x="1381" y="-7.5" font-family="Helvetica,sans-Serif" font-size="10.00">chrono</text>
</a>
</g>
</g>
<!-- Node1&#45;&gt;Node21 -->
<g id="edge20" class="edge">
<title>Node1&#45;&gt;Node21</title>
<path fill="none" stroke="midnightblue" d="M819.52,-77.49C933.6,-70.8 1151.85,-54.68 1345.76,-19.96"/>
<polygon fill="midnightblue" stroke="midnightblue" points="1346.63,-23.36 1355.85,-18.13 1345.38,-16.47 1346.63,-23.36"/>
</g>
<!-- Node22 -->
<g id="node22" class="node">
<title>Node22</title>
<g id="a_node22"><a xlink:title=" ">
<polygon fill="none" stroke="#bfbfbf" points="1424,-0.5 1424,-19.5 1468,-19.5 1468,-0.5 1424,-0.5"/>
<text text-anchor="middle" x="1446" y="-7.5" font-family="Helvetica,sans-Serif" font-size="10.00">ctime</text>
</a>
</g>
</g>
<!-- Node1&#45;&gt;Node22 -->
<g id="edge21" class="edge">
<title>Node1&#45;&gt;Node22</title>
<path fill="none" stroke="midnightblue" d="M819.51,-79.21C944.01,-74.5 1194.26,-60.68 1413.68,-19.91"/>
<polygon fill="midnightblue" stroke="midnightblue" points="1414.59,-23.29 1423.77,-18.01 1413.3,-16.42 1414.59,-23.29"/>
</g>
</g>
</svg>
