<?xml version="1.0" encoding="UTF-8" standalone="no"?>
<!DOCTYPE svg PUBLIC "-//W3C//DTD SVG 1.1//EN"
 "http://www.w3.org/Graphics/SVG/1.1/DTD/svg11.dtd">
<!-- Generated by graphviz version 2.43.0 (0)
 -->
<!-- Title: repos_for_Dox/cFDK/SRA/LIB/SHELL/LIB/hls/FMC/src/http.hpp Pages: 1 -->
<!--zoomable 362 -->
<svg id="main" version="1.1" xmlns="http://www.w3.org/2000/svg" xmlns:xlink="http://www.w3.org/1999/xlink" xml:space="preserve" onload="init(evt)">
<style type="text/css"><![CDATA[
.edge:hover path { stroke: red; }
.edge:hover polygon { stroke: red; fill: red; }
]]></style>
<script type="text/javascript"><![CDATA[
var edges = document.getElementsByTagName('g');
if (edges && edges.length) {
  for (var i=0;i<edges.length;i++) {
    if (edges[i].id.substr(0,4)=='edge') {
      edges[i].setAttribute('class','edge');
    }
  }
}
]]></script>
        <defs>
                <circle id="rim" cx="0" cy="0" r="7"/>
                <circle id="rim2" cx="0" cy="0" r="3.5"/>
                <g id="zoomPlus">
                        <use xlink:href="#rim" fill="#404040">
                                <set attributeName="fill" to="#808080" begin="zoomplus.mouseover" end="zoomplus.mouseout"/>
                        </use>
                        <path d="M-4,0h8M0,-4v8" fill="none" stroke="white" stroke-width="1.5" pointer-events="none"/>
                </g>
                <g id="zoomMin">
                        <use xlink:href="#rim" fill="#404040">
                                <set attributeName="fill" to="#808080" begin="zoomminus.mouseover" end="zoomminus.mouseout"/>
                        </use>
                        <path d="M-4,0h8" fill="none" stroke="white" stroke-width="1.5" pointer-events="none"/>
                </g>
                <g id="dirArrow">
                        <path fill="none" stroke="white" stroke-width="1.5" d="M0,-3.0v7 M-2.5,-0.5L0,-3.0L2.5,-0.5"/>
                </g>
               <g id="resetDef">
                       <use xlink:href="#rim2" fill="#404040">
                               <set attributeName="fill" to="#808080" begin="reset.mouseover" end="reset.mouseout"/>
                       </use>
               </g>
        </defs>

<script type="text/javascript">
var viewWidth = 971;
var viewHeight = 362;
var sectionId = 'dynsection-1';
</script>
<script xlink:href="svgpan.js"/>
<svg id="graph" class="graph">
<g id="viewport">
<title>repos_for_Dox/cFDK/SRA/LIB/SHELL/LIB/hls/FMC/src/http.hpp</title>
<!-- Node1 -->
<g id="node1" class="node">
<title>Node1</title>
<g id="a_node1"><a xlink:title=": The HTTP parsing functions for the FMC.">
<polygon fill="#bfbfbf" stroke="black" points="286,-312.5 286,-353.5 411,-353.5 411,-312.5 286,-312.5"/>
<text text-anchor="start" x="294" y="-341.5" font-family="Helvetica,sans-Serif" font-size="10.00">repos_for_Dox/cFDK</text>
<text text-anchor="start" x="294" y="-330.5" font-family="Helvetica,sans-Serif" font-size="10.00">/SRA/LIB/SHELL/LIB/hls</text>
<text text-anchor="middle" x="348.5" y="-319.5" font-family="Helvetica,sans-Serif" font-size="10.00">/FMC/src/http.hpp</text>
</a>
</g>
</g>
<!-- Node2 -->
<g id="node2" class="node">
<title>Node2</title>
<g id="a_node2"><a xlink:href="fmc_8cpp.html" target="_top" xlink:title=":">
<polygon fill="none" stroke="black" points="143,-156.5 143,-197.5 268,-197.5 268,-156.5 143,-156.5"/>
<text text-anchor="start" x="151" y="-185.5" font-family="Helvetica,sans-Serif" font-size="10.00">repos_for_Dox/cFDK</text>
<text text-anchor="start" x="151" y="-174.5" font-family="Helvetica,sans-Serif" font-size="10.00">/SRA/LIB/SHELL/LIB/hls</text>
<text text-anchor="middle" x="205.5" y="-163.5" font-family="Helvetica,sans-Serif" font-size="10.00">/FMC/src/fmc.cpp</text>
</a>
</g>
</g>
<!-- Node1&#45;&gt;Node2 -->
<g id="edge1" class="edge">
<title>Node1&#45;&gt;Node2</title>
<path fill="none" stroke="midnightblue" d="M323.56,-305.14C295.12,-274.51 249.3,-225.17 223.92,-197.83"/>
<polygon fill="midnightblue" stroke="midnightblue" points="321.02,-307.55 330.39,-312.5 326.15,-302.79 321.02,-307.55"/>
</g>
<!-- Node3 -->
<g id="node3" class="node">
<title>Node3</title>
<g id="a_node3"><a xlink:href="fmc_8hpp.html" target="_top" xlink:title=":">
<polygon fill="none" stroke="black" points="377,-234.5 377,-275.5 502,-275.5 502,-234.5 377,-234.5"/>
<text text-anchor="start" x="385" y="-263.5" font-family="Helvetica,sans-Serif" font-size="10.00">repos_for_Dox/cFDK</text>
<text text-anchor="start" x="385" y="-252.5" font-family="Helvetica,sans-Serif" font-size="10.00">/SRA/LIB/SHELL/LIB/hls</text>
<text text-anchor="middle" x="439.5" y="-241.5" font-family="Helvetica,sans-Serif" font-size="10.00">/FMC/src/fmc.hpp</text>
</a>
</g>
</g>
<!-- Node1&#45;&gt;Node3 -->
<g id="edge2" class="edge">
<title>Node1&#45;&gt;Node3</title>
<path fill="none" stroke="midnightblue" d="M379.9,-305.78C391.79,-295.84 405.12,-284.72 416.14,-275.51"/>
<polygon fill="midnightblue" stroke="midnightblue" points="377.37,-303.33 371.93,-312.43 381.85,-308.7 377.37,-303.33"/>
</g>
<!-- Node4 -->
<g id="node4" class="node">
<title>Node4</title>
<g id="a_node4"><a xlink:href="http_8cpp.html" target="_top" xlink:title=":">
<polygon fill="none" stroke="black" points="286,-156.5 286,-197.5 411,-197.5 411,-156.5 286,-156.5"/>
<text text-anchor="start" x="294" y="-185.5" font-family="Helvetica,sans-Serif" font-size="10.00">repos_for_Dox/cFDK</text>
<text text-anchor="start" x="294" y="-174.5" font-family="Helvetica,sans-Serif" font-size="10.00">/SRA/LIB/SHELL/LIB/hls</text>
<text text-anchor="middle" x="348.5" y="-163.5" font-family="Helvetica,sans-Serif" font-size="10.00">/FMC/src/http.cpp</text>
</a>
</g>
</g>
<!-- Node1&#45;&gt;Node4 -->
<g id="edge23" class="edge">
<title>Node1&#45;&gt;Node4</title>
<path fill="none" stroke="midnightblue" d="M348.5,-302.36C348.5,-271.61 348.5,-224.36 348.5,-197.83"/>
<polygon fill="midnightblue" stroke="midnightblue" points="345,-302.5 348.5,-312.5 352,-302.5 345,-302.5"/>
</g>
<!-- Node3&#45;&gt;Node2 -->
<g id="edge3" class="edge">
<title>Node3&#45;&gt;Node2</title>
<path fill="none" stroke="midnightblue" d="M369.62,-231.3C336.5,-220.55 297.32,-207.82 265.56,-197.51"/>
<polygon fill="midnightblue" stroke="midnightblue" points="368.65,-234.67 379.24,-234.43 370.81,-228.01 368.65,-234.67"/>
</g>
<!-- Node3&#45;&gt;Node4 -->
<g id="edge4" class="edge">
<title>Node3&#45;&gt;Node4</title>
<path fill="none" stroke="midnightblue" d="M408.1,-227.78C396.21,-217.84 382.88,-206.72 371.86,-197.51"/>
<polygon fill="midnightblue" stroke="midnightblue" points="406.15,-230.7 416.07,-234.43 410.63,-225.33 406.15,-230.7"/>
</g>
<!-- Node5 -->
<g id="node5" class="node">
<title>Node5</title>
<g id="a_node5"><a xlink:href="tb__fmc_8cpp.html" target="_top" xlink:title=":">
<polygon fill="none" stroke="black" points="0,-78.5 0,-119.5 125,-119.5 125,-78.5 0,-78.5"/>
<text text-anchor="start" x="8" y="-107.5" font-family="Helvetica,sans-Serif" font-size="10.00">repos_for_Dox/cFDK</text>
<text text-anchor="start" x="8" y="-96.5" font-family="Helvetica,sans-Serif" font-size="10.00">/SRA/LIB/SHELL/LIB/hls</text>
<text text-anchor="middle" x="62.5" y="-85.5" font-family="Helvetica,sans-Serif" font-size="10.00">/FMC/tb/tb_fmc.cpp</text>
</a>
</g>
</g>
<!-- Node3&#45;&gt;Node5 -->
<g id="edge5" class="edge">
<title>Node3&#45;&gt;Node5</title>
<path fill="none" stroke="midnightblue" d="M441.9,-224.07C441.9,-202.03 437.89,-173.04 419.5,-156 372.51,-112.46 196.28,-132.72 133.5,-120 130.74,-119.44 127.93,-118.83 125.1,-118.18"/>
<polygon fill="midnightblue" stroke="midnightblue" points="438.39,-224.16 441.62,-234.25 445.39,-224.35 438.39,-224.16"/>
</g>
<!-- Node6 -->
<g id="node6" class="node">
<title>Node6</title>
<g id="a_node6"><a xlink:href="nal_8hpp.html" target="_top" xlink:title=": The cloudFPGA Network Abstraction Layer (NAL) between NTS and ROlE. The NAL core manages the NTS St...">
<polygon fill="none" stroke="black" points="468,-156.5 468,-197.5 593,-197.5 593,-156.5 468,-156.5"/>
<text text-anchor="start" x="476" y="-185.5" font-family="Helvetica,sans-Serif" font-size="10.00">repos_for_Dox/cFDK</text>
<text text-anchor="start" x="476" y="-174.5" font-family="Helvetica,sans-Serif" font-size="10.00">/SRA/LIB/SHELL/LIB/hls</text>
<text text-anchor="middle" x="530.5" y="-163.5" font-family="Helvetica,sans-Serif" font-size="10.00">/NAL/src/nal.hpp</text>
</a>
</g>
</g>
<!-- Node3&#45;&gt;Node6 -->
<g id="edge6" class="edge">
<title>Node3&#45;&gt;Node6</title>
<path fill="none" stroke="midnightblue" d="M464.44,-227.78C475.82,-217.84 489.3,-206.72 501.16,-197.51"/>
<polygon fill="midnightblue" stroke="midnightblue" points="462.11,-225.17 456.95,-234.43 466.75,-230.41 462.11,-225.17"/>
</g>
<!-- Node6&#45;&gt;Node3 -->
<g id="edge7" class="edge">
<title>Node6&#45;&gt;Node3</title>
<path fill="none" stroke="midnightblue" d="M505.64,-204.15C494.27,-214.08 480.79,-225.21 468.92,-234.43"/>
<polygon fill="midnightblue" stroke="midnightblue" points="507.97,-206.76 513.13,-197.51 503.32,-201.52 507.97,-206.76"/>
</g>
<!-- Node6&#45;&gt;Node5 -->
<g id="edge8" class="edge">
<title>Node6&#45;&gt;Node5</title>
<path fill="none" stroke="midnightblue" d="M457.42,-156.75C456.11,-156.49 454.8,-156.24 453.5,-156 312.77,-129.94 273.95,-147.49 133.5,-120 130.74,-119.46 127.92,-118.86 125.09,-118.23"/>
<polygon fill="midnightblue" stroke="midnightblue" points="457.13,-160.26 467.63,-158.89 458.56,-153.41 457.13,-160.26"/>
</g>
<!-- Node7 -->
<g id="node7" class="node">
<title>Node7</title>
<g id="a_node7"><a xlink:href="hss_8cpp.html" target="_top" xlink:title=": The Housekeeping Sub System (HSS) of the NAL core.">
<polygon fill="none" stroke="black" points="653,-0.5 653,-41.5 778,-41.5 778,-0.5 653,-0.5"/>
<text text-anchor="start" x="661" y="-29.5" font-family="Helvetica,sans-Serif" font-size="10.00">repos_for_Dox/cFDK</text>
<text text-anchor="start" x="661" y="-18.5" font-family="Helvetica,sans-Serif" font-size="10.00">/SRA/LIB/SHELL/LIB/hls</text>
<text text-anchor="middle" x="715.5" y="-7.5" font-family="Helvetica,sans-Serif" font-size="10.00">/NAL/src/hss.cpp</text>
</a>
</g>
</g>
<!-- Node6&#45;&gt;Node7 -->
<g id="edge9" class="edge">
<title>Node6&#45;&gt;Node7</title>
<path fill="none" stroke="midnightblue" d="M603.31,-166.53C658.29,-157.7 727.13,-142.5 744.5,-120 762.39,-96.83 745.17,-62.81 730.67,-41.56"/>
<polygon fill="midnightblue" stroke="midnightblue" points="602.57,-163.1 593.23,-168.1 603.64,-170.02 602.57,-163.1"/>
</g>
<!-- Node8 -->
<g id="node8" class="node">
<title>Node8</title>
<g id="a_node8"><a xlink:href="hss_8hpp.html" target="_top" xlink:title=": The Housekeeping Sub System (HSS) of the NAL core.">
<polygon fill="none" stroke="black" points="143,-78.5 143,-119.5 268,-119.5 268,-78.5 143,-78.5"/>
<text text-anchor="start" x="151" y="-107.5" font-family="Helvetica,sans-Serif" font-size="10.00">repos_for_Dox/cFDK</text>
<text text-anchor="start" x="151" y="-96.5" font-family="Helvetica,sans-Serif" font-size="10.00">/SRA/LIB/SHELL/LIB/hls</text>
<text text-anchor="middle" x="205.5" y="-85.5" font-family="Helvetica,sans-Serif" font-size="10.00">/NAL/src/hss.hpp</text>
</a>
</g>
</g>
<!-- Node6&#45;&gt;Node8 -->
<g id="edge10" class="edge">
<title>Node6&#45;&gt;Node8</title>
<path fill="none" stroke="midnightblue" d="M457.87,-159.19C453.34,-158.08 448.86,-157.01 444.5,-156 366.29,-137.9 345.52,-138.9 267.5,-120 266.88,-119.85 266.25,-119.7 265.63,-119.54"/>
<polygon fill="midnightblue" stroke="midnightblue" points="457.29,-162.65 467.83,-161.65 458.96,-155.85 457.29,-162.65"/>
</g>
<!-- Node9 -->
<g id="node9" class="node">
<title>Node9</title>
<g id="a_node9"><a xlink:href="nal_8cpp.html" target="_top" xlink:title=" ">
<polygon fill="none" stroke="black" points="286,-78.5 286,-119.5 411,-119.5 411,-78.5 286,-78.5"/>
<text text-anchor="start" x="294" y="-107.5" font-family="Helvetica,sans-Serif" font-size="10.00">repos_for_Dox/cFDK</text>
<text text-anchor="start" x="294" y="-96.5" font-family="Helvetica,sans-Serif" font-size="10.00">/SRA/LIB/SHELL/LIB/hls</text>
<text text-anchor="middle" x="348.5" y="-85.5" font-family="Helvetica,sans-Serif" font-size="10.00">/NAL/src/nal.cpp</text>
</a>
</g>
</g>
<!-- Node6&#45;&gt;Node9 -->
<g id="edge12" class="edge">
<title>Node6&#45;&gt;Node9</title>
<path fill="none" stroke="midnightblue" d="M474.15,-152.47C448.82,-141.89 419.28,-129.56 395.21,-119.51"/>
<polygon fill="midnightblue" stroke="midnightblue" points="473.05,-155.8 483.63,-156.43 475.75,-149.34 473.05,-155.8"/>
</g>
<!-- Node10 -->
<g id="node10" class="node">
<title>Node10</title>
<g id="a_node10"><a xlink:href="tss_8cpp.html" target="_top" xlink:title=": The TCP Sub System (TSS) of the NAL core.">
<polygon fill="none" stroke="black" points="838,-0.5 838,-41.5 963,-41.5 963,-0.5 838,-0.5"/>
<text text-anchor="start" x="846" y="-29.5" font-family="Helvetica,sans-Serif" font-size="10.00">repos_for_Dox/cFDK</text>
<text text-anchor="start" x="846" y="-18.5" font-family="Helvetica,sans-Serif" font-size="10.00">/SRA/LIB/SHELL/LIB/hls</text>
<text text-anchor="middle" x="900.5" y="-7.5" font-family="Helvetica,sans-Serif" font-size="10.00">/NAL/src/tss.cpp</text>
</a>
</g>
</g>
<!-- Node6&#45;&gt;Node10 -->
<g id="edge13" class="edge">
<title>Node6&#45;&gt;Node10</title>
<path fill="none" stroke="midnightblue" d="M603.4,-176.63C706.34,-175.79 886.36,-167.35 927.5,-120 946.71,-97.89 929.66,-63.24 915.29,-41.62"/>
<polygon fill="midnightblue" stroke="midnightblue" points="603.37,-173.13 593.39,-176.69 603.41,-180.13 603.37,-173.13"/>
</g>
<!-- Node11 -->
<g id="node11" class="node">
<title>Node11</title>
<g id="a_node11"><a xlink:href="tss_8hpp.html" target="_top" xlink:title=": The TCP Sub System (TSS) of the NAL core.">
<polygon fill="none" stroke="black" points="793,-78.5 793,-119.5 918,-119.5 918,-78.5 793,-78.5"/>
<text text-anchor="start" x="801" y="-107.5" font-family="Helvetica,sans-Serif" font-size="10.00">repos_for_Dox/cFDK</text>
<text text-anchor="start" x="801" y="-96.5" font-family="Helvetica,sans-Serif" font-size="10.00">/SRA/LIB/SHELL/LIB/hls</text>
<text text-anchor="middle" x="855.5" y="-85.5" font-family="Helvetica,sans-Serif" font-size="10.00">/NAL/src/tss.hpp</text>
</a>
</g>
</g>
<!-- Node6&#45;&gt;Node11 -->
<g id="edge14" class="edge">
<title>Node6&#45;&gt;Node11</title>
<path fill="none" stroke="midnightblue" d="M602.99,-158.55C650.43,-147.82 713.64,-133.56 769.5,-120 777.02,-118.18 784.93,-116.19 792.8,-114.21"/>
<polygon fill="midnightblue" stroke="midnightblue" points="602.09,-155.16 593.11,-160.79 603.64,-161.99 602.09,-155.16"/>
</g>
<!-- Node12 -->
<g id="node12" class="node">
<title>Node12</title>
<g id="a_node12"><a xlink:href="uss_8cpp.html" target="_top" xlink:title=": The UDP Sub System (USS) of the NAL core.">
<polygon fill="none" stroke="black" points="423,-0.5 423,-41.5 548,-41.5 548,-0.5 423,-0.5"/>
<text text-anchor="start" x="431" y="-29.5" font-family="Helvetica,sans-Serif" font-size="10.00">repos_for_Dox/cFDK</text>
<text text-anchor="start" x="431" y="-18.5" font-family="Helvetica,sans-Serif" font-size="10.00">/SRA/LIB/SHELL/LIB/hls</text>
<text text-anchor="middle" x="485.5" y="-7.5" font-family="Helvetica,sans-Serif" font-size="10.00">/NAL/src/uss.cpp</text>
</a>
</g>
</g>
<!-- Node6&#45;&gt;Node12 -->
<g id="edge17" class="edge">
<title>Node6&#45;&gt;Node12</title>
<path fill="none" stroke="midnightblue" d="M484.76,-150.45C474.21,-142.2 464.38,-132.02 458.5,-120 445.94,-94.32 460.09,-61.9 472.17,-41.55"/>
<polygon fill="midnightblue" stroke="midnightblue" points="482.76,-153.33 492.91,-156.38 486.88,-147.67 482.76,-153.33"/>
</g>
<!-- Node13 -->
<g id="node13" class="node">
<title>Node13</title>
<g id="a_node13"><a xlink:href="uss_8hpp.html" target="_top" xlink:title=": The UDP Sub System (USS) of the NAL core.">
<polygon fill="none" stroke="black" points="468,-78.5 468,-119.5 593,-119.5 593,-78.5 468,-78.5"/>
<text text-anchor="start" x="476" y="-107.5" font-family="Helvetica,sans-Serif" font-size="10.00">repos_for_Dox/cFDK</text>
<text text-anchor="start" x="476" y="-96.5" font-family="Helvetica,sans-Serif" font-size="10.00">/SRA/LIB/SHELL/LIB/hls</text>
<text text-anchor="middle" x="530.5" y="-85.5" font-family="Helvetica,sans-Serif" font-size="10.00">/NAL/src/uss.hpp</text>
</a>
</g>
</g>
<!-- Node6&#45;&gt;Node13 -->
<g id="edge18" class="edge">
<title>Node6&#45;&gt;Node13</title>
<path fill="none" stroke="midnightblue" d="M523.9,-146.3C523.58,-137.3 523.78,-127.65 524.52,-119.51"/>
<polygon fill="midnightblue" stroke="midnightblue" points="520.41,-146.66 524.51,-156.43 527.4,-146.23 520.41,-146.66"/>
</g>
<!-- Node14 -->
<g id="node14" class="node">
<title>Node14</title>
<g id="a_node14"><a xlink:href="tb__nal_8cpp.html" target="_top" xlink:title=" ">
<polygon fill="none" stroke="black" points="611,-78.5 611,-119.5 736,-119.5 736,-78.5 611,-78.5"/>
<text text-anchor="start" x="619" y="-107.5" font-family="Helvetica,sans-Serif" font-size="10.00">repos_for_Dox/cFDK</text>
<text text-anchor="start" x="619" y="-96.5" font-family="Helvetica,sans-Serif" font-size="10.00">/SRA/LIB/SHELL/LIB/hls</text>
<text text-anchor="middle" x="673.5" y="-85.5" font-family="Helvetica,sans-Serif" font-size="10.00">/NAL/test/tb_nal.cpp</text>
</a>
</g>
</g>
<!-- Node6&#45;&gt;Node14 -->
<g id="edge22" class="edge">
<title>Node6&#45;&gt;Node14</title>
<path fill="none" stroke="midnightblue" d="M576.36,-151.63C595.9,-141.24 618.39,-129.29 636.8,-119.51"/>
<polygon fill="midnightblue" stroke="midnightblue" points="574.51,-148.64 567.33,-156.43 577.8,-154.83 574.51,-148.64"/>
</g>
<!-- Node8&#45;&gt;Node6 -->
<g id="edge11" class="edge">
<title>Node8&#45;&gt;Node6</title>
<path fill="none" stroke="midnightblue" d="M278.04,-118.15C280.56,-118.79 283.05,-119.41 285.5,-120 363.52,-138.9 384.29,-137.9 462.5,-156 464.25,-156.4 466.02,-156.82 467.8,-157.24"/>
<polygon fill="midnightblue" stroke="midnightblue" points="278.79,-114.72 268.23,-115.6 277.03,-121.5 278.79,-114.72"/>
</g>
<!-- Node11&#45;&gt;Node6 -->
<g id="edge15" class="edge">
<title>Node11&#45;&gt;Node6</title>
<path fill="none" stroke="midnightblue" d="M782.74,-121.14C714.46,-137.59 642.91,-153.5 593.07,-164"/>
<polygon fill="midnightblue" stroke="midnightblue" points="783.89,-124.46 792.79,-118.71 782.25,-117.65 783.89,-124.46"/>
</g>
<!-- Node11&#45;&gt;Node10 -->
<g id="edge16" class="edge">
<title>Node11&#45;&gt;Node10</title>
<path fill="none" stroke="midnightblue" d="M872.22,-69.76C877.79,-60.35 883.86,-50.1 888.95,-41.51"/>
<polygon fill="midnightblue" stroke="midnightblue" points="869.17,-68.04 867.09,-78.43 875.2,-71.61 869.17,-68.04"/>
</g>
<!-- Node13&#45;&gt;Node6 -->
<g id="edge20" class="edge">
<title>Node13&#45;&gt;Node6</title>
<path fill="none" stroke="midnightblue" d="M537.1,-129.63C537.42,-138.62 537.22,-148.27 536.49,-156.43"/>
<polygon fill="midnightblue" stroke="midnightblue" points="540.59,-129.27 536.48,-119.51 533.6,-129.7 540.59,-129.27"/>
</g>
<!-- Node13&#45;&gt;Node7 -->
<g id="edge19" class="edge">
<title>Node13&#45;&gt;Node7</title>
<path fill="none" stroke="midnightblue" d="M587.44,-74.61C613.26,-64 643.44,-51.6 668.02,-41.51"/>
<polygon fill="midnightblue" stroke="midnightblue" points="586.06,-71.39 578.14,-78.43 588.72,-77.87 586.06,-71.39"/>
</g>
<!-- Node13&#45;&gt;Node12 -->
<g id="edge21" class="edge">
<title>Node13&#45;&gt;Node12</title>
<path fill="none" stroke="midnightblue" d="M513.78,-69.76C508.21,-60.35 502.14,-50.1 497.05,-41.51"/>
<polygon fill="midnightblue" stroke="midnightblue" points="510.8,-71.61 518.91,-78.43 516.83,-68.04 510.8,-71.61"/>
</g>
</g>
</svg>
        <g id="navigator" transform="translate(0 0)" fill="#404254">
                <rect fill="#f2f5e9" fill-opacity="0.5" stroke="#606060" stroke-width=".5" x="0" y="0" width="60" height="60"/>
                <use id="zoomplus" xlink:href="#zoomPlus" x="17" y="9" onmousedown="handleZoom(evt,'in')"/>
                <use id="zoomminus" xlink:href="#zoomMin" x="42" y="9" onmousedown="handleZoom(evt,'out')"/>
                <use id="reset" xlink:href="#resetDef" x="30" y="36" onmousedown="handleReset()"/>
                <g id="arrowUp" xlink:href="#dirArrow" transform="translate(30 24)" onmousedown="handlePan(0,-1)">
                  <use xlink:href="#rim" fill="#404040">
                        <set attributeName="fill" to="#808080" begin="arrowUp.mouseover" end="arrowUp.mouseout"/>
                  </use>
                  <path fill="none" stroke="white" stroke-width="1.5" d="M0,-3.0v7 M-2.5,-0.5L0,-3.0L2.5,-0.5"/>
                </g>
                <g id="arrowRight" xlink:href="#dirArrow" transform="rotate(90) translate(36 -43)" onmousedown="handlePan(1,0)">
                  <use xlink:href="#rim" fill="#404040">
                        <set attributeName="fill" to="#808080" begin="arrowRight.mouseover" end="arrowRight.mouseout"/>
                  </use>
                  <path fill="none" stroke="white" stroke-width="1.5" d="M0,-3.0v7 M-2.5,-0.5L0,-3.0L2.5,-0.5"/>
                </g>
                <g id="arrowDown" xlink:href="#dirArrow" transform="rotate(180) translate(-30 -48)" onmousedown="handlePan(0,1)">
                  <use xlink:href="#rim" fill="#404040">
                        <set attributeName="fill" to="#808080" begin="arrowDown.mouseover" end="arrowDown.mouseout"/>
                  </use>
                  <path fill="none" stroke="white" stroke-width="1.5" d="M0,-3.0v7 M-2.5,-0.5L0,-3.0L2.5,-0.5"/>
                </g>
                <g id="arrowLeft" xlink:href="#dirArrow" transform="rotate(270) translate(-36 17)" onmousedown="handlePan(-1,0)">
                  <use xlink:href="#rim" fill="#404040">
                        <set attributeName="fill" to="#808080" begin="arrowLeft.mouseover" end="arrowLeft.mouseout"/>
                  </use>
                  <path fill="none" stroke="white" stroke-width="1.5" d="M0,-3.0v7 M-2.5,-0.5L0,-3.0L2.5,-0.5"/>
                </g>
        </g>
        <svg viewBox="0 0 15 15" width="100%" height="30px" preserveAspectRatio="xMaxYMin meet">
         <g id="arrow_out" transform="scale(0.3 0.3)">
          <a xlink:href="http_8hpp__dep__incl_org.svg" target="_base">
           <rect id="button" ry="5" rx="5" y="6" x="6" height="38" width="38"
                fill="#f2f5e9" fill-opacity="0.5" stroke="#606060" stroke-width="1.0"/>
           <path id="arrow"
             d="M 11.500037,31.436501 C 11.940474,20.09759 22.043105,11.32322 32.158766,21.979434 L 37.068811,17.246167 C 37.068811,17.246167 37.088388,32 37.088388,32 L 22.160133,31.978069 C 22.160133,31.978069 26.997745,27.140456 26.997745,27.140456 C 18.528582,18.264221 13.291696,25.230495 11.500037,31.436501 z"
             style="fill:#404040;"/>
          </a>
         </g>
        </svg>
</svg>
