<?xml version="1.0" encoding="UTF-8" standalone="no"?>
<!DOCTYPE svg PUBLIC "-//W3C//DTD SVG 1.1//EN"
 "http://www.w3.org/Graphics/SVG/1.1/DTD/svg11.dtd">
<!-- Generated by graphviz version 2.43.0 (0)
 -->
<!-- Title: repos_for_Dox/cFDK/SRA/LIB/SHELL/LIB/hls/NTS/icmp/src/icmp.hpp Pages: 1 -->
<svg width="318pt" height="206pt"
 viewBox="0.00 0.00 317.50 206.00" xmlns="http://www.w3.org/2000/svg" xmlns:xlink="http://www.w3.org/1999/xlink">
<g id="graph0" class="graph" transform="scale(1 1) rotate(0) translate(4 202)">
<title>repos_for_Dox/cFDK/SRA/LIB/SHELL/LIB/hls/NTS/icmp/src/icmp.hpp</title>
<!-- Node1 -->
<g id="node1" class="node">
<title>Node1</title>
<g id="a_node1"><a xlink:title=": Internet Control Message Protocol (ICMP) Server">
<polygon fill="#bfbfbf" stroke="black" points="82,-156.5 82,-197.5 213,-197.5 213,-156.5 82,-156.5"/>
<text text-anchor="start" x="90" y="-185.5" font-family="Helvetica,sans-Serif" font-size="10.00">repos_for_Dox/cFDK</text>
<text text-anchor="start" x="90" y="-174.5" font-family="Helvetica,sans-Serif" font-size="10.00">/SRA/LIB/SHELL/LIB/hls</text>
<text text-anchor="middle" x="147.5" y="-163.5" font-family="Helvetica,sans-Serif" font-size="10.00">/NTS/icmp/src/icmp.hpp</text>
</a>
</g>
</g>
<!-- Node2 -->
<g id="node2" class="node">
<title>Node2</title>
<g id="a_node2"><a xlink:href="icmp_8cpp.html" target="_top" xlink:title=": Internet Control Message Protocol (ICMP) Server">
<polygon fill="none" stroke="black" points="0,-78.5 0,-119.5 131,-119.5 131,-78.5 0,-78.5"/>
<text text-anchor="start" x="8" y="-107.5" font-family="Helvetica,sans-Serif" font-size="10.00">repos_for_Dox/cFDK</text>
<text text-anchor="start" x="8" y="-96.5" font-family="Helvetica,sans-Serif" font-size="10.00">/SRA/LIB/SHELL/LIB/hls</text>
<text text-anchor="middle" x="65.5" y="-85.5" font-family="Helvetica,sans-Serif" font-size="10.00">/NTS/icmp/src/icmp.cpp</text>
</a>
</g>
</g>
<!-- Node1&#45;&gt;Node2 -->
<g id="edge1" class="edge">
<title>Node1&#45;&gt;Node2</title>
<path fill="none" stroke="midnightblue" d="M118.9,-149.49C108.26,-139.63 96.39,-128.63 86.55,-119.51"/>
<polygon fill="midnightblue" stroke="midnightblue" points="116.67,-152.2 126.38,-156.43 121.43,-147.06 116.67,-152.2"/>
</g>
<!-- Node3 -->
<g id="node3" class="node">
<title>Node3</title>
<g id="a_node3"><a xlink:href="test__icmp_8hpp.html" target="_top" xlink:title=" ">
<polygon fill="none" stroke="black" points="149.5,-78.5 149.5,-119.5 309.5,-119.5 309.5,-78.5 149.5,-78.5"/>
<text text-anchor="start" x="157.5" y="-107.5" font-family="Helvetica,sans-Serif" font-size="10.00">repos_for_Dox/cFDK</text>
<text text-anchor="start" x="157.5" y="-96.5" font-family="Helvetica,sans-Serif" font-size="10.00">/SRA/LIB/SHELL/LIB/hls</text>
<text text-anchor="middle" x="229.5" y="-85.5" font-family="Helvetica,sans-Serif" font-size="10.00">/NTS/icmp/test/test_icmp.hpp</text>
</a>
</g>
</g>
<!-- Node1&#45;&gt;Node3 -->
<g id="edge2" class="edge">
<title>Node1&#45;&gt;Node3</title>
<path fill="none" stroke="midnightblue" d="M176.1,-149.49C186.74,-139.63 198.61,-128.63 208.45,-119.51"/>
<polygon fill="midnightblue" stroke="midnightblue" points="173.57,-147.06 168.62,-156.43 178.33,-152.2 173.57,-147.06"/>
</g>
<!-- Node4 -->
<g id="node4" class="node">
<title>Node4</title>
<g id="a_node4"><a xlink:href="test__icmp_8cpp.html" target="_top" xlink:title=": Testbench for the Internet Control Message Protocol (ICMP) server.">
<polygon fill="none" stroke="black" points="150,-0.5 150,-41.5 309,-41.5 309,-0.5 150,-0.5"/>
<text text-anchor="start" x="158" y="-29.5" font-family="Helvetica,sans-Serif" font-size="10.00">repos_for_Dox/cFDK</text>
<text text-anchor="start" x="158" y="-18.5" font-family="Helvetica,sans-Serif" font-size="10.00">/SRA/LIB/SHELL/LIB/hls</text>
<text text-anchor="middle" x="229.5" y="-7.5" font-family="Helvetica,sans-Serif" font-size="10.00">/NTS/icmp/test/test_icmp.cpp</text>
</a>
</g>
</g>
<!-- Node3&#45;&gt;Node4 -->
<g id="edge3" class="edge">
<title>Node3&#45;&gt;Node4</title>
<path fill="none" stroke="midnightblue" d="M229.5,-68.3C229.5,-59.3 229.5,-49.65 229.5,-41.51"/>
<polygon fill="midnightblue" stroke="midnightblue" points="226,-68.43 229.5,-78.43 233,-68.43 226,-68.43"/>
</g>
</g>
</svg>
