<?xml version="1.0" encoding="UTF-8" standalone="no"?>
<!DOCTYPE svg PUBLIC "-//W3C//DTD SVG 1.1//EN"
 "http://www.w3.org/Graphics/SVG/1.1/DTD/svg11.dtd">
<!-- Generated by graphviz version 2.43.0 (0)
 -->
<!-- Title: repos_for_Dox/cFDK/SRA/LIB/SHELL/LIB/hls/NTS/icmp/src/icmp.hpp Pages: 1 -->
<!--zoomable 554 -->
<svg id="main" version="1.1" xmlns="http://www.w3.org/2000/svg" xmlns:xlink="http://www.w3.org/1999/xlink" xml:space="preserve" onload="init(evt)">
<style type="text/css"><![CDATA[
.edge:hover path { stroke: red; }
.edge:hover polygon { stroke: red; fill: red; }
]]></style>
<script type="text/javascript"><![CDATA[
var edges = document.getElementsByTagName('g');
if (edges && edges.length) {
  for (var i=0;i<edges.length;i++) {
    if (edges[i].id.substr(0,4)=='edge') {
      edges[i].setAttribute('class','edge');
    }
  }
}
]]></script>
        <defs>
                <circle id="rim" cx="0" cy="0" r="7"/>
                <circle id="rim2" cx="0" cy="0" r="3.5"/>
                <g id="zoomPlus">
                        <use xlink:href="#rim" fill="#404040">
                                <set attributeName="fill" to="#808080" begin="zoomplus.mouseover" end="zoomplus.mouseout"/>
                        </use>
                        <path d="M-4,0h8M0,-4v8" fill="none" stroke="white" stroke-width="1.5" pointer-events="none"/>
                </g>
                <g id="zoomMin">
                        <use xlink:href="#rim" fill="#404040">
                                <set attributeName="fill" to="#808080" begin="zoomminus.mouseover" end="zoomminus.mouseout"/>
                        </use>
                        <path d="M-4,0h8" fill="none" stroke="white" stroke-width="1.5" pointer-events="none"/>
                </g>
                <g id="dirArrow">
                        <path fill="none" stroke="white" stroke-width="1.5" d="M0,-3.0v7 M-2.5,-0.5L0,-3.0L2.5,-0.5"/>
                </g>
               <g id="resetDef">
                       <use xlink:href="#rim2" fill="#404040">
                               <set attributeName="fill" to="#808080" begin="reset.mouseover" end="reset.mouseout"/>
                       </use>
               </g>
        </defs>

<script type="text/javascript">
var viewWidth = 567;
var viewHeight = 554;
var sectionId = 'dynsection-0';
</script>
<script xlink:href="svgpan.js"/>
<svg id="graph" class="graph">
<g id="viewport">
<title>repos_for_Dox/cFDK/SRA/LIB/SHELL/LIB/hls/NTS/icmp/src/icmp.hpp</title>
<!-- Node1 -->
<g id="node1" class="node">
<title>Node1</title>
<g id="a_node1"><a xlink:title=": Internet Control Message Protocol (ICMP) Server">
<polygon fill="#bfbfbf" stroke="black" points="58.5,-504.5 58.5,-545.5 189.5,-545.5 189.5,-504.5 58.5,-504.5"/>
<text text-anchor="start" x="66.5" y="-533.5" font-family="Helvetica,sans-Serif" font-size="10.00">repos_for_Dox/cFDK</text>
<text text-anchor="start" x="66.5" y="-522.5" font-family="Helvetica,sans-Serif" font-size="10.00">/SRA/LIB/SHELL/LIB/hls</text>
<text text-anchor="middle" x="124" y="-511.5" font-family="Helvetica,sans-Serif" font-size="10.00">/NTS/icmp/src/icmp.hpp</text>
</a>
</g>
</g>
<!-- Node2 -->
<g id="node2" class="node">
<title>Node2</title>
<g id="a_node2"><a xlink:href="nts_8hpp.html" target="_top" xlink:title=": Definition of the Network Transport Stack (NTS) component as if it was an HLS IP core.">
<polygon fill="none" stroke="black" points="119,-336.5 119,-355.5 221,-355.5 221,-336.5 119,-336.5"/>
<text text-anchor="middle" x="170" y="-343.5" font-family="Helvetica,sans-Serif" font-size="10.00">../../../NTS/nts.hpp</text>
</a>
</g>
</g>
<!-- Node1&#45;&gt;Node2 -->
<g id="edge1" class="edge">
<title>Node1&#45;&gt;Node2</title>
<path fill="none" stroke="midnightblue" d="M112.11,-504.37C97.45,-477.41 76.82,-428.15 97,-392 105.16,-377.39 120.22,-366.94 134.55,-359.8"/>
<polygon fill="midnightblue" stroke="midnightblue" points="136.15,-362.92 143.79,-355.59 133.24,-356.56 136.15,-362.92"/>
</g>
<!-- Node5 -->
<g id="node5" class="node">
<title>Node5</title>
<g id="a_node5"><a xlink:href="AxisEth_8hpp.html" target="_top" xlink:title=": A class to access an ETHernet data chunk transmitted over an AXI4&#45;Stream interface.">
<polygon fill="none" stroke="black" points="67,-224.5 67,-243.5 141,-243.5 141,-224.5 67,-224.5"/>
<text text-anchor="middle" x="104" y="-231.5" font-family="Helvetica,sans-Serif" font-size="10.00">AxisEth.hpp</text>
</a>
</g>
</g>
<!-- Node1&#45;&gt;Node5 -->
<g id="edge38" class="edge">
<title>Node1&#45;&gt;Node5</title>
<path fill="none" stroke="midnightblue" d="M98.8,-504.2C74.05,-482.34 40,-444.68 40,-403 40,-403 40,-403 40,-345 40,-307.33 68.39,-271.04 87.35,-251.01"/>
<polygon fill="midnightblue" stroke="midnightblue" points="90.04,-253.27 94.56,-243.69 85.05,-248.36 90.04,-253.27"/>
</g>
<!-- Node18 -->
<g id="node18" class="node">
<title>Node18</title>
<g id="a_node18"><a xlink:href="nts__utils_8hpp.html" target="_top" xlink:title=": Utilities and helpers for the Network&#45;Transport&#45;Stack (NTS) components.">
<polygon fill="none" stroke="black" points="106,-392.5 106,-411.5 234,-411.5 234,-392.5 106,-392.5"/>
<text text-anchor="middle" x="170" y="-399.5" font-family="Helvetica,sans-Serif" font-size="10.00">../../../NTS/nts_utils.hpp</text>
</a>
</g>
</g>
<!-- Node1&#45;&gt;Node18 -->
<g id="edge25" class="edge">
<title>Node1&#45;&gt;Node18</title>
<path fill="none" stroke="midnightblue" d="M131.49,-504.29C140.24,-481.27 154.6,-443.5 163.09,-421.17"/>
<polygon fill="midnightblue" stroke="midnightblue" points="166.46,-422.17 166.74,-411.57 159.92,-419.68 166.46,-422.17"/>
</g>
<!-- Node20 -->
<g id="node20" class="node">
<title>Node20</title>
<g id="a_node20"><a xlink:href="SimNtsUtils_8hpp.html" target="_top" xlink:title=": Utilities for the simulation of the Network&#45;Transport&#45;Stack (NTS) components.">
<polygon fill="none" stroke="black" points="280.5,-448.5 280.5,-467.5 425.5,-467.5 425.5,-448.5 280.5,-448.5"/>
<text text-anchor="middle" x="353" y="-455.5" font-family="Helvetica,sans-Serif" font-size="10.00">../../../NTS/SimNtsUtils.hpp</text>
</a>
</g>
</g>
<!-- Node1&#45;&gt;Node20 -->
<g id="edge29" class="edge">
<title>Node1&#45;&gt;Node20</title>
<path fill="none" stroke="midnightblue" d="M189.62,-505.37C229.39,-494.09 278.84,-480.05 312.85,-470.39"/>
<polygon fill="midnightblue" stroke="midnightblue" points="314.23,-473.64 322.89,-467.55 312.31,-466.91 314.23,-473.64"/>
</g>
<!-- Node3 -->
<g id="node3" class="node">
<title>Node3</title>
<g id="a_node3"><a xlink:href="nts__types_8hpp.html" target="_top" xlink:title=": Definition of the types used by the Network Transport Stack (NTS) component of the cloudFPGA shell.">
<polygon fill="none" stroke="black" points="74.5,-280.5 74.5,-299.5 159.5,-299.5 159.5,-280.5 74.5,-280.5"/>
<text text-anchor="middle" x="117" y="-287.5" font-family="Helvetica,sans-Serif" font-size="10.00">nts_types.hpp</text>
</a>
</g>
</g>
<!-- Node2&#45;&gt;Node3 -->
<g id="edge2" class="edge">
<title>Node2&#45;&gt;Node3</title>
<path fill="none" stroke="midnightblue" d="M161.25,-336.08C153.53,-328.22 142.1,-316.57 132.78,-307.08"/>
<polygon fill="midnightblue" stroke="midnightblue" points="135.09,-304.44 125.59,-299.75 130.1,-309.34 135.09,-304.44"/>
</g>
<!-- Node15 -->
<g id="node15" class="node">
<title>Node15</title>
<g id="a_node15"><a xlink:href="nts__config_8hpp.html" target="_top" xlink:title=": Configuration parameters for the Network Transport Stack (NTS) component and sub&#45;components.">
<polygon fill="none" stroke="black" points="179.5,-280.5 179.5,-299.5 266.5,-299.5 266.5,-280.5 179.5,-280.5"/>
<text text-anchor="middle" x="223" y="-287.5" font-family="Helvetica,sans-Serif" font-size="10.00">nts_config.hpp</text>
</a>
</g>
</g>
<!-- Node2&#45;&gt;Node15 -->
<g id="edge22" class="edge">
<title>Node2&#45;&gt;Node15</title>
<path fill="none" stroke="midnightblue" d="M178.75,-336.08C186.47,-328.22 197.9,-316.57 207.22,-307.08"/>
<polygon fill="midnightblue" stroke="midnightblue" points="209.9,-309.34 214.41,-299.75 204.91,-304.44 209.9,-309.34"/>
</g>
<!-- Node4 -->
<g id="node4" class="node">
<title>Node4</title>
<g id="a_node4"><a xlink:title=" ">
<polygon fill="none" stroke="#bfbfbf" points="11,-0.5 11,-19.5 91,-19.5 91,-0.5 11,-0.5"/>
<text text-anchor="middle" x="51" y="-7.5" font-family="Helvetica,sans-Serif" font-size="10.00">hls_stream.h</text>
</a>
</g>
</g>
<!-- Node3&#45;&gt;Node4 -->
<g id="edge3" class="edge">
<title>Node3&#45;&gt;Node4</title>
<path fill="none" stroke="midnightblue" d="M95.54,-280.46C61.76,-265.43 0,-230.86 0,-179 0,-179 0,-179 0,-121 0,-85.24 22.45,-48.51 37.56,-27.84"/>
<polygon fill="midnightblue" stroke="midnightblue" points="40.43,-29.85 43.69,-19.77 34.86,-25.61 40.43,-29.85"/>
</g>
<!-- Node3&#45;&gt;Node5 -->
<g id="edge4" class="edge">
<title>Node3&#45;&gt;Node5</title>
<path fill="none" stroke="midnightblue" d="M114.85,-280.08C113.13,-272.93 110.65,-262.64 108.5,-253.69"/>
<polygon fill="midnightblue" stroke="midnightblue" points="111.85,-252.65 106.11,-243.75 105.04,-254.29 111.85,-252.65"/>
</g>
<!-- Node11 -->
<g id="node11" class="node">
<title>Node11</title>
<g id="a_node11"><a xlink:href="AxisIp4_8hpp.html" target="_top" xlink:title=": A class to access an IPv4 data chunk transmitted over an AXI4&#45;Stream interface.">
<polygon fill="none" stroke="black" points="160,-168.5 160,-187.5 234,-187.5 234,-168.5 160,-168.5"/>
<text text-anchor="middle" x="197" y="-175.5" font-family="Helvetica,sans-Serif" font-size="10.00">AxisIp4.hpp</text>
</a>
</g>
</g>
<!-- Node3&#45;&gt;Node11 -->
<g id="edge21" class="edge">
<title>Node3&#45;&gt;Node11</title>
<path fill="none" stroke="midnightblue" d="M123.34,-280.39C130,-271.34 140.76,-256.69 150,-244 161.86,-227.72 175.32,-209.09 184.78,-195.96"/>
<polygon fill="midnightblue" stroke="midnightblue" points="187.63,-198 190.63,-187.84 181.95,-193.91 187.63,-198"/>
</g>
<!-- Node6 -->
<g id="node6" class="node">
<title>Node6</title>
<g id="a_node6"><a xlink:href="AxisRaw_8hpp.html" target="_top" xlink:title=": A generic class used by the Network&#45;Transport&#45;Stack (NTS) to to transfer a chunk of data over an AX...">
<polygon fill="none" stroke="black" points="145.5,-56.5 145.5,-75.5 224.5,-75.5 224.5,-56.5 145.5,-56.5"/>
<text text-anchor="middle" x="185" y="-63.5" font-family="Helvetica,sans-Serif" font-size="10.00">AxisRaw.hpp</text>
</a>
</g>
</g>
<!-- Node5&#45;&gt;Node6 -->
<g id="edge5" class="edge">
<title>Node5&#45;&gt;Node6</title>
<path fill="none" stroke="midnightblue" d="M90.06,-224.36C73.06,-212.62 47.67,-190.51 57,-168 74.87,-124.86 122.84,-95.39 154.72,-79.87"/>
<polygon fill="midnightblue" stroke="midnightblue" points="156.47,-82.92 164.04,-75.51 153.5,-76.58 156.47,-82.92"/>
</g>
<!-- Node10 -->
<g id="node10" class="node">
<title>Node10</title>
<g id="a_node10"><a xlink:href="AxisArp_8hpp.html" target="_top" xlink:title=": A class to access an ARP data chunk transmitted over an AXI4&#45;Stream interface.">
<polygon fill="none" stroke="black" points="66.5,-168.5 66.5,-187.5 141.5,-187.5 141.5,-168.5 66.5,-168.5"/>
<text text-anchor="middle" x="104" y="-175.5" font-family="Helvetica,sans-Serif" font-size="10.00">AxisArp.hpp</text>
</a>
</g>
</g>
<!-- Node5&#45;&gt;Node10 -->
<g id="edge10" class="edge">
<title>Node5&#45;&gt;Node10</title>
<path fill="none" stroke="midnightblue" d="M98.83,-224.08C97.32,-216.93 96.89,-206.64 97.54,-197.69"/>
<polygon fill="midnightblue" stroke="midnightblue" points="101.02,-198.13 98.87,-187.75 94.08,-197.2 101.02,-198.13"/>
</g>
<!-- Node5&#45;&gt;Node11 -->
<g id="edge13" class="edge">
<title>Node5&#45;&gt;Node11</title>
<path fill="none" stroke="midnightblue" d="M118.94,-224.32C133.59,-215.82 156.13,-202.73 173.24,-192.8"/>
<polygon fill="midnightblue" stroke="midnightblue" points="175.2,-195.7 182.1,-187.65 171.69,-189.65 175.2,-195.7"/>
</g>
<!-- Node6&#45;&gt;Node4 -->
<g id="edge8" class="edge">
<title>Node6&#45;&gt;Node4</title>
<path fill="none" stroke="midnightblue" d="M163.77,-56.44C141.62,-47.52 106.68,-33.44 81.56,-23.32"/>
<polygon fill="midnightblue" stroke="midnightblue" points="82.72,-20.01 72.13,-19.52 80.1,-26.5 82.72,-20.01"/>
</g>
<!-- Node7 -->
<g id="node7" class="node">
<title>Node7</title>
<g id="a_node7"><a xlink:title=" ">
<polygon fill="none" stroke="#bfbfbf" points="159,-0.5 159,-19.5 211,-19.5 211,-0.5 159,-0.5"/>
<text text-anchor="middle" x="185" y="-7.5" font-family="Helvetica,sans-Serif" font-size="10.00">cassert</text>
</a>
</g>
</g>
<!-- Node6&#45;&gt;Node7 -->
<g id="edge6" class="edge">
<title>Node6&#45;&gt;Node7</title>
<path fill="none" stroke="midnightblue" d="M185,-56.08C185,-49.01 185,-38.86 185,-29.99"/>
<polygon fill="midnightblue" stroke="midnightblue" points="188.5,-29.75 185,-19.75 181.5,-29.75 188.5,-29.75"/>
</g>
<!-- Node8 -->
<g id="node8" class="node">
<title>Node8</title>
<g id="a_node8"><a xlink:title=" ">
<polygon fill="none" stroke="#bfbfbf" points="462,-0.5 462,-19.5 522,-19.5 522,-0.5 462,-0.5"/>
<text text-anchor="middle" x="492" y="-7.5" font-family="Helvetica,sans-Serif" font-size="10.00">iostream</text>
</a>
</g>
</g>
<!-- Node6&#45;&gt;Node8 -->
<g id="edge7" class="edge">
<title>Node6&#45;&gt;Node8</title>
<path fill="none" stroke="midnightblue" d="M224.51,-58.05C283.17,-47.73 392.73,-28.46 451.79,-18.07"/>
<polygon fill="midnightblue" stroke="midnightblue" points="452.62,-21.48 461.86,-16.3 451.41,-14.59 452.62,-21.48"/>
</g>
<!-- Node9 -->
<g id="node9" class="node">
<title>Node9</title>
<g id="a_node9"><a xlink:title=" ">
<polygon fill="none" stroke="#bfbfbf" points="322,-0.5 322,-19.5 378,-19.5 378,-0.5 322,-0.5"/>
<text text-anchor="middle" x="350" y="-7.5" font-family="Helvetica,sans-Serif" font-size="10.00">ap_int.h</text>
</a>
</g>
</g>
<!-- Node6&#45;&gt;Node9 -->
<g id="edge9" class="edge">
<title>Node6&#45;&gt;Node9</title>
<path fill="none" stroke="midnightblue" d="M211.14,-56.44C239.02,-47.32 283.35,-32.81 314.4,-22.65"/>
<polygon fill="midnightblue" stroke="midnightblue" points="315.56,-25.95 323.98,-19.52 313.38,-19.3 315.56,-25.95"/>
</g>
<!-- Node10&#45;&gt;Node5 -->
<g id="edge12" class="edge">
<title>Node10&#45;&gt;Node5</title>
<path fill="none" stroke="midnightblue" d="M109.13,-187.75C110.66,-194.86 111.1,-205.14 110.47,-214.1"/>
<polygon fill="midnightblue" stroke="midnightblue" points="106.99,-213.71 109.17,-224.08 113.93,-214.62 106.99,-213.71"/>
</g>
<!-- Node10&#45;&gt;Node6 -->
<g id="edge11" class="edge">
<title>Node10&#45;&gt;Node6</title>
<path fill="none" stroke="midnightblue" d="M105.63,-168.29C108.43,-155.09 115.14,-129.71 128,-112 136.89,-99.76 149.96,-89.12 161.34,-81.25"/>
<polygon fill="midnightblue" stroke="midnightblue" points="163.56,-83.98 170,-75.57 159.72,-78.13 163.56,-83.98"/>
</g>
<!-- Node11&#45;&gt;Node6 -->
<g id="edge14" class="edge">
<title>Node11&#45;&gt;Node6</title>
<path fill="none" stroke="midnightblue" d="M176.15,-168.43C161.42,-161.13 142.8,-149.09 134,-132 124.13,-112.82 143.46,-93.74 161.08,-81.27"/>
<polygon fill="midnightblue" stroke="midnightblue" points="163.07,-84.15 169.46,-75.7 159.2,-78.32 163.07,-84.15"/>
</g>
<!-- Node12 -->
<g id="node12" class="node">
<title>Node12</title>
<g id="a_node12"><a xlink:href="AxisIcmp_8hpp.html" target="_top" xlink:title=": A class to access ICMP header fields within data chunks transmitted over an AXI4&#45;Stream interface.">
<polygon fill="none" stroke="black" points="143.5,-112.5 143.5,-131.5 226.5,-131.5 226.5,-112.5 143.5,-112.5"/>
<text text-anchor="middle" x="185" y="-119.5" font-family="Helvetica,sans-Serif" font-size="10.00">AxisIcmp.hpp</text>
</a>
</g>
</g>
<!-- Node11&#45;&gt;Node12 -->
<g id="edge15" class="edge">
<title>Node11&#45;&gt;Node12</title>
<path fill="none" stroke="midnightblue" d="M195.02,-168.08C193.43,-160.93 191.14,-150.64 189.15,-141.69"/>
<polygon fill="midnightblue" stroke="midnightblue" points="192.53,-140.75 186.94,-131.75 185.7,-142.27 192.53,-140.75"/>
</g>
<!-- Node13 -->
<g id="node13" class="node">
<title>Node13</title>
<g id="a_node13"><a xlink:href="AxisTcp_8hpp.html" target="_top" xlink:title=": A class to access TCP header fields within data chunks transmitted over an AXI4&#45;Stream interface.">
<polygon fill="none" stroke="black" points="245,-112.5 245,-131.5 319,-131.5 319,-112.5 245,-112.5"/>
<text text-anchor="middle" x="282" y="-119.5" font-family="Helvetica,sans-Serif" font-size="10.00">AxisTcp.hpp</text>
</a>
</g>
</g>
<!-- Node11&#45;&gt;Node13 -->
<g id="edge17" class="edge">
<title>Node11&#45;&gt;Node13</title>
<path fill="none" stroke="midnightblue" d="M210.66,-168.32C223.92,-159.9 244.27,-146.97 259.85,-137.07"/>
<polygon fill="midnightblue" stroke="midnightblue" points="261.81,-139.97 268.38,-131.65 258.06,-134.06 261.81,-139.97"/>
</g>
<!-- Node14 -->
<g id="node14" class="node">
<title>Node14</title>
<g id="a_node14"><a xlink:href="AxisUdp_8hpp.html" target="_top" xlink:title=": A class to access UDP header fields within data chunks transmitted over an AXI4&#45;Stream interface.">
<polygon fill="none" stroke="black" points="337,-112.5 337,-131.5 415,-131.5 415,-112.5 337,-112.5"/>
<text text-anchor="middle" x="376" y="-119.5" font-family="Helvetica,sans-Serif" font-size="10.00">AxisUdp.hpp</text>
</a>
</g>
</g>
<!-- Node11&#45;&gt;Node14 -->
<g id="edge19" class="edge">
<title>Node11&#45;&gt;Node14</title>
<path fill="none" stroke="midnightblue" d="M225.36,-168.44C255.74,-159.28 304.11,-144.69 337.82,-134.52"/>
<polygon fill="midnightblue" stroke="midnightblue" points="339.21,-137.76 347.77,-131.52 337.18,-131.05 339.21,-137.76"/>
</g>
<!-- Node12&#45;&gt;Node6 -->
<g id="edge16" class="edge">
<title>Node12&#45;&gt;Node6</title>
<path fill="none" stroke="midnightblue" d="M185,-112.08C185,-105.01 185,-94.86 185,-85.99"/>
<polygon fill="midnightblue" stroke="midnightblue" points="188.5,-85.75 185,-75.75 181.5,-85.75 188.5,-85.75"/>
</g>
<!-- Node13&#45;&gt;Node6 -->
<g id="edge18" class="edge">
<title>Node13&#45;&gt;Node6</title>
<path fill="none" stroke="midnightblue" d="M266.42,-112.32C251,-103.74 227.19,-90.49 209.29,-80.52"/>
<polygon fill="midnightblue" stroke="midnightblue" points="210.99,-77.46 200.55,-75.65 207.58,-83.58 210.99,-77.46"/>
</g>
<!-- Node14&#45;&gt;Node6 -->
<g id="edge20" class="edge">
<title>Node14&#45;&gt;Node6</title>
<path fill="none" stroke="midnightblue" d="M345.74,-112.44C313.04,-103.2 260.82,-88.44 224.82,-78.26"/>
<polygon fill="midnightblue" stroke="midnightblue" points="225.7,-74.87 215.12,-75.52 223.79,-81.61 225.7,-74.87"/>
</g>
<!-- Node16 -->
<g id="node16" class="node">
<title>Node16</title>
<g id="a_node16"><a xlink:title=" ">
<polygon fill="none" stroke="#bfbfbf" points="266.5,-224.5 266.5,-243.5 319.5,-243.5 319.5,-224.5 266.5,-224.5"/>
<text text-anchor="middle" x="293" y="-231.5" font-family="Helvetica,sans-Serif" font-size="10.00">stdint.h</text>
</a>
</g>
</g>
<!-- Node15&#45;&gt;Node16 -->
<g id="edge23" class="edge">
<title>Node15&#45;&gt;Node16</title>
<path fill="none" stroke="midnightblue" d="M234.25,-280.32C244.8,-272.18 260.8,-259.84 273.44,-250.09"/>
<polygon fill="midnightblue" stroke="midnightblue" points="275.77,-252.71 281.55,-243.83 271.49,-247.17 275.77,-252.71"/>
</g>
<!-- Node17 -->
<g id="node17" class="node">
<title>Node17</title>
<g id="a_node17"><a xlink:title=" ">
<polygon fill="none" stroke="#bfbfbf" points="197.5,-224.5 197.5,-243.5 248.5,-243.5 248.5,-224.5 197.5,-224.5"/>
<text text-anchor="middle" x="223" y="-231.5" font-family="Helvetica,sans-Serif" font-size="10.00">math.h</text>
</a>
</g>
</g>
<!-- Node15&#45;&gt;Node17 -->
<g id="edge24" class="edge">
<title>Node15&#45;&gt;Node17</title>
<path fill="none" stroke="midnightblue" d="M223,-280.08C223,-273.01 223,-262.86 223,-253.99"/>
<polygon fill="midnightblue" stroke="midnightblue" points="226.5,-253.75 223,-243.75 219.5,-253.75 226.5,-253.75"/>
</g>
<!-- Node18&#45;&gt;Node2 -->
<g id="edge28" class="edge">
<title>Node18&#45;&gt;Node2</title>
<path fill="none" stroke="midnightblue" d="M170,-392.08C170,-385.01 170,-374.86 170,-365.99"/>
<polygon fill="midnightblue" stroke="midnightblue" points="173.5,-365.75 170,-355.75 166.5,-365.75 173.5,-365.75"/>
</g>
<!-- Node19 -->
<g id="node19" class="node">
<title>Node19</title>
<g id="a_node19"><a xlink:href="mem_8hpp.html" target="_top" xlink:title=": Memory Sub&#45;System (MEM) for the cloudFPGA shell.">
<polygon fill="none" stroke="black" points="393.5,-336.5 393.5,-355.5 492.5,-355.5 492.5,-336.5 393.5,-336.5"/>
<text text-anchor="middle" x="443" y="-343.5" font-family="Helvetica,sans-Serif" font-size="10.00">../MEM/mem.hpp</text>
</a>
</g>
</g>
<!-- Node18&#45;&gt;Node19 -->
<g id="edge26" class="edge">
<title>Node18&#45;&gt;Node19</title>
<path fill="none" stroke="midnightblue" d="M213.26,-392.44C261.18,-382.96 338.48,-367.67 390,-357.48"/>
<polygon fill="midnightblue" stroke="midnightblue" points="390.81,-360.89 399.94,-355.52 389.46,-354.02 390.81,-360.89"/>
</g>
<!-- Node19&#45;&gt;Node9 -->
<g id="edge27" class="edge">
<title>Node19&#45;&gt;Node9</title>
<path fill="none" stroke="midnightblue" d="M443,-336.44C443,-317.94 443,-272.81 443,-235 443,-235 443,-235 443,-121 443,-78.31 401.65,-43.64 374.09,-25.28"/>
<polygon fill="midnightblue" stroke="midnightblue" points="375.67,-22.13 365.36,-19.69 371.89,-28.03 375.67,-22.13"/>
</g>
<!-- Node20&#45;&gt;Node2 -->
<g id="edge35" class="edge">
<title>Node20&#45;&gt;Node2</title>
<path fill="none" stroke="midnightblue" d="M338.64,-448.37C307.1,-429.41 231.56,-384 193.2,-360.94"/>
<polygon fill="midnightblue" stroke="midnightblue" points="194.67,-357.74 184.29,-355.59 191.06,-363.74 194.67,-357.74"/>
</g>
<!-- Node20&#45;&gt;Node8 -->
<g id="edge32" class="edge">
<title>Node20&#45;&gt;Node8</title>
<path fill="none" stroke="midnightblue" d="M416.79,-448.49C463.42,-441.02 521.45,-428.74 539,-412 560.78,-391.22 558,-377.1 558,-347 558,-347 558,-347 558,-121 558,-82.86 528.46,-46.52 508.91,-26.64"/>
<polygon fill="midnightblue" stroke="midnightblue" points="511.33,-24.12 501.74,-19.63 506.44,-29.12 511.33,-24.12"/>
</g>
<!-- Node20&#45;&gt;Node18 -->
<g id="edge36" class="edge">
<title>Node20&#45;&gt;Node18</title>
<path fill="none" stroke="midnightblue" d="M324,-448.44C292.82,-439.24 243.07,-424.56 208.59,-414.39"/>
<polygon fill="midnightblue" stroke="midnightblue" points="209.44,-410.99 198.86,-411.52 207.46,-417.7 209.44,-410.99"/>
</g>
<!-- Node20&#45;&gt;Node19 -->
<g id="edge34" class="edge">
<title>Node20&#45;&gt;Node19</title>
<path fill="none" stroke="midnightblue" d="M376.44,-448.42C392.98,-441.18 414.37,-429.22 427,-412 436.77,-398.68 440.63,-380.1 442.12,-366.22"/>
<polygon fill="midnightblue" stroke="midnightblue" points="445.64,-366.11 442.9,-355.88 438.66,-365.59 445.64,-366.11"/>
</g>
<!-- Node20&#45;&gt;Node20 -->
<g id="edge37" class="edge">
<title>Node20&#45;&gt;Node20</title>
<path fill="none" stroke="midnightblue" d="M391.6,-467.53C417.83,-470.31 443.5,-467.13 443.5,-458 443.5,-450.04 424.02,-446.61 401.66,-447.7"/>
<polygon fill="midnightblue" stroke="midnightblue" points="401.3,-444.21 391.6,-448.47 401.84,-451.19 401.3,-444.21"/>
</g>
<!-- Node21 -->
<g id="node21" class="node">
<title>Node21</title>
<g id="a_node21"><a xlink:title=" ">
<polygon fill="none" stroke="#bfbfbf" points="290.5,-392.5 290.5,-411.5 343.5,-411.5 343.5,-392.5 290.5,-392.5"/>
<text text-anchor="middle" x="317" y="-399.5" font-family="Helvetica,sans-Serif" font-size="10.00">stdlib.h</text>
</a>
</g>
</g>
<!-- Node20&#45;&gt;Node21 -->
<g id="edge30" class="edge">
<title>Node20&#45;&gt;Node21</title>
<path fill="none" stroke="midnightblue" d="M347.06,-448.08C342.02,-440.53 334.66,-429.49 328.49,-420.23"/>
<polygon fill="midnightblue" stroke="midnightblue" points="331.29,-418.13 322.83,-411.75 325.47,-422.01 331.29,-418.13"/>
</g>
<!-- Node22 -->
<g id="node22" class="node">
<title>Node22</title>
<g id="a_node22"><a xlink:title=" ">
<polygon fill="none" stroke="#bfbfbf" points="362,-392.5 362,-411.5 418,-411.5 418,-392.5 362,-392.5"/>
<text text-anchor="middle" x="390" y="-399.5" font-family="Helvetica,sans-Serif" font-size="10.00">unistd.h</text>
</a>
</g>
</g>
<!-- Node20&#45;&gt;Node22 -->
<g id="edge31" class="edge">
<title>Node20&#45;&gt;Node22</title>
<path fill="none" stroke="midnightblue" d="M359.11,-448.08C364.28,-440.53 371.85,-429.49 378.19,-420.23"/>
<polygon fill="midnightblue" stroke="midnightblue" points="381.24,-421.98 384,-411.75 375.46,-418.02 381.24,-421.98"/>
</g>
<!-- Node23 -->
<g id="node23" class="node">
<title>Node23</title>
<g id="a_node23"><a xlink:title=" ">
<polygon fill="none" stroke="#bfbfbf" points="474.5,-392.5 474.5,-411.5 529.5,-411.5 529.5,-392.5 474.5,-392.5"/>
<text text-anchor="middle" x="502" y="-399.5" font-family="Helvetica,sans-Serif" font-size="10.00">fstream</text>
</a>
</g>
</g>
<!-- Node20&#45;&gt;Node23 -->
<g id="edge33" class="edge">
<title>Node20&#45;&gt;Node23</title>
<path fill="none" stroke="midnightblue" d="M376.61,-448.44C401.46,-439.44 440.77,-425.19 468.75,-415.05"/>
<polygon fill="midnightblue" stroke="midnightblue" points="470.29,-418.21 478.5,-411.52 467.91,-411.63 470.29,-418.21"/>
</g>
</g>
</svg>
        <g id="navigator" transform="translate(0 0)" fill="#404254">
                <rect fill="#f2f5e9" fill-opacity="0.5" stroke="#606060" stroke-width=".5" x="0" y="0" width="60" height="60"/>
                <use id="zoomplus" xlink:href="#zoomPlus" x="17" y="9" onmousedown="handleZoom(evt,'in')"/>
                <use id="zoomminus" xlink:href="#zoomMin" x="42" y="9" onmousedown="handleZoom(evt,'out')"/>
                <use id="reset" xlink:href="#resetDef" x="30" y="36" onmousedown="handleReset()"/>
                <g id="arrowUp" xlink:href="#dirArrow" transform="translate(30 24)" onmousedown="handlePan(0,-1)">
                  <use xlink:href="#rim" fill="#404040">
                        <set attributeName="fill" to="#808080" begin="arrowUp.mouseover" end="arrowUp.mouseout"/>
                  </use>
                  <path fill="none" stroke="white" stroke-width="1.5" d="M0,-3.0v7 M-2.5,-0.5L0,-3.0L2.5,-0.5"/>
                </g>
                <g id="arrowRight" xlink:href="#dirArrow" transform="rotate(90) translate(36 -43)" onmousedown="handlePan(1,0)">
                  <use xlink:href="#rim" fill="#404040">
                        <set attributeName="fill" to="#808080" begin="arrowRight.mouseover" end="arrowRight.mouseout"/>
                  </use>
                  <path fill="none" stroke="white" stroke-width="1.5" d="M0,-3.0v7 M-2.5,-0.5L0,-3.0L2.5,-0.5"/>
                </g>
                <g id="arrowDown" xlink:href="#dirArrow" transform="rotate(180) translate(-30 -48)" onmousedown="handlePan(0,1)">
                  <use xlink:href="#rim" fill="#404040">
                        <set attributeName="fill" to="#808080" begin="arrowDown.mouseover" end="arrowDown.mouseout"/>
                  </use>
                  <path fill="none" stroke="white" stroke-width="1.5" d="M0,-3.0v7 M-2.5,-0.5L0,-3.0L2.5,-0.5"/>
                </g>
                <g id="arrowLeft" xlink:href="#dirArrow" transform="rotate(270) translate(-36 17)" onmousedown="handlePan(-1,0)">
                  <use xlink:href="#rim" fill="#404040">
                        <set attributeName="fill" to="#808080" begin="arrowLeft.mouseover" end="arrowLeft.mouseout"/>
                  </use>
                  <path fill="none" stroke="white" stroke-width="1.5" d="M0,-3.0v7 M-2.5,-0.5L0,-3.0L2.5,-0.5"/>
                </g>
        </g>
        <svg viewBox="0 0 15 15" width="100%" height="30px" preserveAspectRatio="xMaxYMin meet">
         <g id="arrow_out" transform="scale(0.3 0.3)">
          <a xlink:href="icmp_8hpp__incl_org.svg" target="_base">
           <rect id="button" ry="5" rx="5" y="6" x="6" height="38" width="38"
                fill="#f2f5e9" fill-opacity="0.5" stroke="#606060" stroke-width="1.0"/>
           <path id="arrow"
             d="M 11.500037,31.436501 C 11.940474,20.09759 22.043105,11.32322 32.158766,21.979434 L 37.068811,17.246167 C 37.068811,17.246167 37.088388,32 37.088388,32 L 22.160133,31.978069 C 22.160133,31.978069 26.997745,27.140456 26.997745,27.140456 C 18.528582,18.264221 13.291696,25.230495 11.500037,31.436501 z"
             style="fill:#404040;"/>
          </a>
         </g>
        </svg>
</svg>
