<?xml version="1.0" encoding="UTF-8" standalone="no"?>
<!DOCTYPE svg PUBLIC "-//W3C//DTD SVG 1.1//EN"
 "http://www.w3.org/Graphics/SVG/1.1/DTD/svg11.dtd">
<!-- Generated by graphviz version 2.43.0 (0)
 -->
<!-- Title: Graphical Class Hierarchy Pages: 1 -->
<svg width="715pt" height="2372pt"
 viewBox="0.00 0.00 715.00 2372.00" xmlns="http://www.w3.org/2000/svg" xmlns:xlink="http://www.w3.org/1999/xlink">
<g id="graph0" class="graph" transform="scale(1 1) rotate(0) translate(4 2368)">
<title>Graphical Class Hierarchy</title>
<!-- Node85 -->
<g id="node1" class="node">
<title>Node85</title>
<g id="a_node1"><a xlink:title=" ">
<polygon fill="none" stroke="#bfbfbf" points="148,-1157.5 148,-1176.5 195,-1176.5 195,-1157.5 148,-1157.5"/>
<text text-anchor="middle" x="171.5" y="-1164.5" font-family="Helvetica,sans-Serif" font-size="10.00">object</text>
</a>
</g>
</g>
<!-- Node0 -->
<g id="node2" class="node">
<title>Node0</title>
<g id="a_node2"><a xlink:href="classcFSPlib_1_1python__api__client_1_1swagger__client_1_1api_1_1administration____admin__only__04b2d7f2389d46ee7dbb9b95570d8f0d.html" target="_top" xlink:title=" ">
<polygon fill="none" stroke="black" points="316.5,-2238.5 316.5,-2279.5 565.5,-2279.5 565.5,-2238.5 316.5,-2238.5"/>
<text text-anchor="start" x="324.5" y="-2267.5" font-family="Helvetica,sans-Serif" font-size="10.00">cFSPlib.python_api</text>
<text text-anchor="start" x="324.5" y="-2256.5" font-family="Helvetica,sans-Serif" font-size="10.00">_client.swagger_client.api.administration</text>
<text text-anchor="middle" x="441" y="-2245.5" font-family="Helvetica,sans-Serif" font-size="10.00">__admin_only_api.AdministrationAdminOnlyApi</text>
</a>
</g>
</g>
<!-- Node85&#45;&gt;Node0 -->
<g id="edge1" class="edge">
<title>Node85&#45;&gt;Node0</title>
<path fill="none" stroke="midnightblue" d="M173.6,-1186.67C181.55,-1324.99 231.73,-2148.45 305,-2229 308.47,-2232.82 312.32,-2236.21 316.44,-2239.21"/>
<polygon fill="midnightblue" stroke="midnightblue" points="177.1,-1186.44 173.04,-1176.66 170.11,-1186.84 177.1,-1186.44"/>
</g>
<!-- Node87 -->
<g id="node3" class="node">
<title>Node87</title>
<g id="a_node3"><a xlink:href="classcFSPlib_1_1python__api__client_1_1swagger__client_1_1api_1_1clusters__api_1_1ClustersApi.html" target="_top" xlink:title=" ">
<polygon fill="none" stroke="black" points="348.5,-2178.5 348.5,-2219.5 533.5,-2219.5 533.5,-2178.5 348.5,-2178.5"/>
<text text-anchor="start" x="356.5" y="-2207.5" font-family="Helvetica,sans-Serif" font-size="10.00">cFSPlib.python_api</text>
<text text-anchor="start" x="356.5" y="-2196.5" font-family="Helvetica,sans-Serif" font-size="10.00">_client.swagger_client.api.clusters</text>
<text text-anchor="middle" x="441" y="-2185.5" font-family="Helvetica,sans-Serif" font-size="10.00">_api.ClustersApi</text>
</a>
</g>
</g>
<!-- Node85&#45;&gt;Node87 -->
<g id="edge2" class="edge">
<title>Node85&#45;&gt;Node87</title>
<path fill="none" stroke="midnightblue" d="M172.16,-1186.99C170.41,-1314.96 167.19,-2018.62 305,-2169 316.52,-2181.57 332.03,-2189.47 348.44,-2194.33"/>
<polygon fill="midnightblue" stroke="midnightblue" points="175.66,-1186.78 172.32,-1176.72 168.66,-1186.67 175.66,-1186.78"/>
</g>
<!-- Node88 -->
<g id="node4" class="node">
<title>Node88</title>
<g id="a_node4"><a xlink:href="classcFSPlib_1_1python__api__client_1_1swagger__client_1_1api_1_1debug__api_1_1DebugApi.html" target="_top" xlink:title=" ">
<polygon fill="none" stroke="black" points="353,-2118.5 353,-2159.5 529,-2159.5 529,-2118.5 353,-2118.5"/>
<text text-anchor="start" x="361" y="-2147.5" font-family="Helvetica,sans-Serif" font-size="10.00">cFSPlib.python_api</text>
<text text-anchor="start" x="361" y="-2136.5" font-family="Helvetica,sans-Serif" font-size="10.00">_client.swagger_client.api.debug</text>
<text text-anchor="middle" x="441" y="-2125.5" font-family="Helvetica,sans-Serif" font-size="10.00">_api.DebugApi</text>
</a>
</g>
</g>
<!-- Node85&#45;&gt;Node88 -->
<g id="edge3" class="edge">
<title>Node85&#45;&gt;Node88</title>
<path fill="none" stroke="midnightblue" d="M172.35,-1186.94C171.81,-1310.25 175.11,-1968.43 305,-2109 317.55,-2122.58 334.76,-2130.7 352.7,-2135.42"/>
<polygon fill="midnightblue" stroke="midnightblue" points="175.85,-1186.73 172.41,-1176.71 168.85,-1186.69 175.85,-1186.73"/>
</g>
<!-- Node89 -->
<g id="node5" class="node">
<title>Node89</title>
<g id="a_node5"><a xlink:href="classcFSPlib_1_1python__api__client_1_1swagger__client_1_1api_1_1images__api_1_1ImagesApi.html" target="_top" xlink:title=" ">
<polygon fill="none" stroke="black" points="350,-2058.5 350,-2099.5 532,-2099.5 532,-2058.5 350,-2058.5"/>
<text text-anchor="start" x="358" y="-2087.5" font-family="Helvetica,sans-Serif" font-size="10.00">cFSPlib.python_api</text>
<text text-anchor="start" x="358" y="-2076.5" font-family="Helvetica,sans-Serif" font-size="10.00">_client.swagger_client.api.images</text>
<text text-anchor="middle" x="441" y="-2065.5" font-family="Helvetica,sans-Serif" font-size="10.00">_api.ImagesApi</text>
</a>
</g>
</g>
<!-- Node85&#45;&gt;Node89 -->
<g id="edge4" class="edge">
<title>Node85&#45;&gt;Node89</title>
<path fill="none" stroke="midnightblue" d="M172.55,-1186.76C173.28,-1305.01 182.98,-1918.19 305,-2049 316.95,-2061.82 333.07,-2069.76 350,-2074.58"/>
<polygon fill="midnightblue" stroke="midnightblue" points="176.05,-1186.62 172.51,-1176.63 169.05,-1186.65 176.05,-1186.62"/>
</g>
<!-- Node90 -->
<g id="node6" class="node">
<title>Node90</title>
<g id="a_node6"><a xlink:href="classcFSPlib_1_1python__api__client_1_1swagger__client_1_1api_1_1instances__api_1_1InstancesApi.html" target="_top" xlink:title=" ">
<polygon fill="none" stroke="black" points="344.5,-1998.5 344.5,-2039.5 537.5,-2039.5 537.5,-1998.5 344.5,-1998.5"/>
<text text-anchor="start" x="352.5" y="-2027.5" font-family="Helvetica,sans-Serif" font-size="10.00">cFSPlib.python_api</text>
<text text-anchor="start" x="352.5" y="-2016.5" font-family="Helvetica,sans-Serif" font-size="10.00">_client.swagger_client.api.instances</text>
<text text-anchor="middle" x="441" y="-2005.5" font-family="Helvetica,sans-Serif" font-size="10.00">_api.InstancesApi</text>
</a>
</g>
</g>
<!-- Node85&#45;&gt;Node90 -->
<g id="edge5" class="edge">
<title>Node85&#45;&gt;Node90</title>
<path fill="none" stroke="midnightblue" d="M172.79,-1186.81C174.87,-1300.4 190.91,-1867.99 305,-1989 315.62,-2000.27 329.46,-2007.76 344.22,-2012.67"/>
<polygon fill="midnightblue" stroke="midnightblue" points="176.29,-1186.44 172.62,-1176.5 169.29,-1186.56 176.29,-1186.44"/>
</g>
<!-- Node91 -->
<g id="node7" class="node">
<title>Node91</title>
<g id="a_node7"><a xlink:href="classcFSPlib_1_1python__api__client_1_1swagger__client_1_1api_1_1mantle__architecture__api_1_1MantleArchitectureApi.html" target="_top" xlink:title=" ">
<polygon fill="none" stroke="black" points="335,-1938.5 335,-1979.5 547,-1979.5 547,-1938.5 335,-1938.5"/>
<text text-anchor="start" x="343" y="-1967.5" font-family="Helvetica,sans-Serif" font-size="10.00">cFSPlib.python_api</text>
<text text-anchor="start" x="343" y="-1956.5" font-family="Helvetica,sans-Serif" font-size="10.00">_client.swagger_client.api.mantle</text>
<text text-anchor="middle" x="441" y="-1945.5" font-family="Helvetica,sans-Serif" font-size="10.00">_architecture_api.MantleArchitectureApi</text>
</a>
</g>
</g>
<!-- Node85&#45;&gt;Node91 -->
<g id="edge6" class="edge">
<title>Node85&#45;&gt;Node91</title>
<path fill="none" stroke="midnightblue" d="M173.06,-1186.72C176.55,-1295.11 198.77,-1817.71 305,-1929 313.37,-1937.77 323.69,-1944.25 334.87,-1949"/>
<polygon fill="midnightblue" stroke="midnightblue" points="176.55,-1186.44 172.75,-1176.56 169.56,-1186.66 176.55,-1186.44"/>
</g>
<!-- Node92 -->
<g id="node8" class="node">
<title>Node92</title>
<g id="a_node8"><a xlink:href="classcFSPlib_1_1python__api__client_1_1swagger__client_1_1api_1_1projects__api_1_1ProjectsApi.html" target="_top" xlink:title=" ">
<polygon fill="none" stroke="black" points="348.5,-1878.5 348.5,-1919.5 533.5,-1919.5 533.5,-1878.5 348.5,-1878.5"/>
<text text-anchor="start" x="356.5" y="-1907.5" font-family="Helvetica,sans-Serif" font-size="10.00">cFSPlib.python_api</text>
<text text-anchor="start" x="356.5" y="-1896.5" font-family="Helvetica,sans-Serif" font-size="10.00">_client.swagger_client.api.projects</text>
<text text-anchor="middle" x="441" y="-1885.5" font-family="Helvetica,sans-Serif" font-size="10.00">_api.ProjectsApi</text>
</a>
</g>
</g>
<!-- Node85&#45;&gt;Node92 -->
<g id="edge7" class="edge">
<title>Node85&#45;&gt;Node92</title>
<path fill="none" stroke="midnightblue" d="M173.38,-1186.77C178.39,-1290.14 206.66,-1767.45 305,-1869 316.69,-1881.07 332.08,-1888.79 348.28,-1893.62"/>
<polygon fill="midnightblue" stroke="midnightblue" points="176.88,-1186.59 172.91,-1176.76 169.88,-1186.92 176.88,-1186.59"/>
</g>
<!-- Node93 -->
<g id="node9" class="node">
<title>Node93</title>
<g id="a_node9"><a xlink:href="classcFSPlib_1_1python__api__client_1_1swagger__client_1_1api_1_1resources____admin__only__api_1_1ResourcesAdminOnlyApi.html" target="_top" xlink:title=" ">
<polygon fill="none" stroke="black" points="327.5,-1818.5 327.5,-1859.5 554.5,-1859.5 554.5,-1818.5 327.5,-1818.5"/>
<text text-anchor="start" x="335.5" y="-1847.5" font-family="Helvetica,sans-Serif" font-size="10.00">cFSPlib.python_api</text>
<text text-anchor="start" x="335.5" y="-1836.5" font-family="Helvetica,sans-Serif" font-size="10.00">_client.swagger_client.api.resources</text>
<text text-anchor="middle" x="441" y="-1825.5" font-family="Helvetica,sans-Serif" font-size="10.00">__admin_only_api.ResourcesAdminOnlyApi</text>
</a>
</g>
</g>
<!-- Node85&#45;&gt;Node93 -->
<g id="edge8" class="edge">
<title>Node85&#45;&gt;Node93</title>
<path fill="none" stroke="midnightblue" d="M173.77,-1186.91C180.42,-1285.16 214.54,-1717.16 305,-1809 311.49,-1815.59 319.08,-1820.87 327.29,-1825.09"/>
<polygon fill="midnightblue" stroke="midnightblue" points="177.25,-1186.6 173.1,-1176.85 170.27,-1187.06 177.25,-1186.6"/>
</g>
<!-- Node94 -->
<g id="node10" class="node">
<title>Node94</title>
<g id="a_node10"><a xlink:href="classcFSPlib_1_1python__api__client_1_1swagger__client_1_1api__client_1_1ApiClient.html" target="_top" xlink:title=" ">
<polygon fill="none" stroke="black" points="369.5,-1758.5 369.5,-1799.5 512.5,-1799.5 512.5,-1758.5 369.5,-1758.5"/>
<text text-anchor="start" x="377.5" y="-1787.5" font-family="Helvetica,sans-Serif" font-size="10.00">cFSPlib.python_api</text>
<text text-anchor="start" x="377.5" y="-1776.5" font-family="Helvetica,sans-Serif" font-size="10.00">_client.swagger_client.api</text>
<text text-anchor="middle" x="441" y="-1765.5" font-family="Helvetica,sans-Serif" font-size="10.00">_client.ApiClient</text>
</a>
</g>
</g>
<!-- Node85&#45;&gt;Node94 -->
<g id="edge9" class="edge">
<title>Node85&#45;&gt;Node94</title>
<path fill="none" stroke="midnightblue" d="M174.21,-1186.78C182.59,-1279.12 222.31,-1666.74 305,-1749 321.94,-1765.85 346.1,-1774.13 369.32,-1777.96"/>
<polygon fill="midnightblue" stroke="midnightblue" points="177.7,-1186.46 173.32,-1176.81 170.72,-1187.08 177.7,-1186.46"/>
</g>
<!-- Node95 -->
<g id="node11" class="node">
<title>Node95</title>
<g id="a_node11"><a xlink:href="classcFSPlib_1_1python__api__client_1_1swagger__client_1_1configuration_1_1Configuration.html" target="_top" xlink:title=" ">
<polygon fill="none" stroke="black" points="343.5,-2298.5 343.5,-2339.5 538.5,-2339.5 538.5,-2298.5 343.5,-2298.5"/>
<text text-anchor="start" x="351.5" y="-2327.5" font-family="Helvetica,sans-Serif" font-size="10.00">cFSPlib.python_api</text>
<text text-anchor="start" x="351.5" y="-2316.5" font-family="Helvetica,sans-Serif" font-size="10.00">_client.swagger_client.configuration.</text>
<text text-anchor="middle" x="441" y="-2305.5" font-family="Helvetica,sans-Serif" font-size="10.00">Configuration</text>
</a>
</g>
</g>
<!-- Node85&#45;&gt;Node95 -->
<g id="edge10" class="edge">
<title>Node85&#45;&gt;Node95</title>
<path fill="none" stroke="midnightblue" d="M173.48,-1186.87C180.71,-1330.27 227.77,-2203.54 305,-2289 315.3,-2300.4 328.89,-2307.98 343.48,-2312.93"/>
<polygon fill="midnightblue" stroke="midnightblue" points="176.96,-1186.36 172.96,-1176.55 169.97,-1186.71 176.96,-1186.36"/>
</g>
<!-- Node96 -->
<g id="node12" class="node">
<title>Node96</title>
<g id="a_node12"><a xlink:href="classcFSPlib_1_1python__api__client_1_1swagger__client_1_1models_1_1administration__mantle__logi168f0a51d80725a08a224c580ca4eab6.html" target="_top" xlink:title=" ">
<polygon fill="none" stroke="black" points="305,-1698.5 305,-1739.5 577,-1739.5 577,-1698.5 305,-1698.5"/>
<text text-anchor="start" x="313" y="-1727.5" font-family="Helvetica,sans-Serif" font-size="10.00">cFSPlib.python_api</text>
<text text-anchor="start" x="313" y="-1716.5" font-family="Helvetica,sans-Serif" font-size="10.00">_client.swagger_client.models.administration</text>
<text text-anchor="middle" x="441" y="-1705.5" font-family="Helvetica,sans-Serif" font-size="10.00">_mantle_logic_body.AdministrationMantleLogicBody</text>
</a>
</g>
</g>
<!-- Node85&#45;&gt;Node96 -->
<g id="edge11" class="edge">
<title>Node85&#45;&gt;Node96</title>
<path fill="none" stroke="midnightblue" d="M174.74,-1186.62C184.98,-1272.75 230.03,-1616.24 305,-1689 308.62,-1692.51 312.55,-1695.65 316.72,-1698.45"/>
<polygon fill="midnightblue" stroke="midnightblue" points="178.21,-1186.15 173.58,-1176.63 171.26,-1186.97 178.21,-1186.15"/>
</g>
<!-- Node97 -->
<g id="node13" class="node">
<title>Node97</title>
<g id="a_node13"><a xlink:href="classcFSPlib_1_1python__api__client_1_1swagger__client_1_1models_1_1administration__platform__lo7236faec3e459a8c5be8431e1b997ede.html" target="_top" xlink:title=" ">
<polygon fill="none" stroke="black" points="321.5,-1627 321.5,-1679 560.5,-1679 560.5,-1627 321.5,-1627"/>
<text text-anchor="start" x="329.5" y="-1667" font-family="Helvetica,sans-Serif" font-size="10.00">cFSPlib.python_api</text>
<text text-anchor="start" x="329.5" y="-1656" font-family="Helvetica,sans-Serif" font-size="10.00">_client.swagger_client.models.administration</text>
<text text-anchor="start" x="329.5" y="-1645" font-family="Helvetica,sans-Serif" font-size="10.00">_platform_logic_body.AdministrationPlatform</text>
<text text-anchor="middle" x="441" y="-1634" font-family="Helvetica,sans-Serif" font-size="10.00">LogicBody</text>
</a>
</g>
</g>
<!-- Node85&#45;&gt;Node97 -->
<g id="edge12" class="edge">
<title>Node85&#45;&gt;Node97</title>
<path fill="none" stroke="midnightblue" d="M171.98,-1186.63C171.24,-1256.25 178.48,-1493.7 305,-1617 309.95,-1621.82 315.47,-1626.02 321.38,-1629.67"/>
<polygon fill="midnightblue" stroke="midnightblue" points="175.48,-1186.68 172.15,-1176.62 168.48,-1186.55 175.48,-1186.68"/>
</g>
<!-- Node98 -->
<g id="node14" class="node">
<title>Node98</title>
<g id="a_node14"><a xlink:href="classcFSPlib_1_1python__api__client_1_1swagger__client_1_1models_1_1build__script_1_1BuildScript.html" target="_top" xlink:title=" ">
<polygon fill="none" stroke="black" points="345.5,-1566.5 345.5,-1607.5 536.5,-1607.5 536.5,-1566.5 345.5,-1566.5"/>
<text text-anchor="start" x="353.5" y="-1595.5" font-family="Helvetica,sans-Serif" font-size="10.00">cFSPlib.python_api</text>
<text text-anchor="start" x="353.5" y="-1584.5" font-family="Helvetica,sans-Serif" font-size="10.00">_client.swagger_client.models.build</text>
<text text-anchor="middle" x="441" y="-1573.5" font-family="Helvetica,sans-Serif" font-size="10.00">_script.BuildScript</text>
</a>
</g>
</g>
<!-- Node85&#45;&gt;Node98 -->
<g id="edge13" class="edge">
<title>Node85&#45;&gt;Node98</title>
<path fill="none" stroke="midnightblue" d="M172.84,-1187.07C175.07,-1251.52 191.23,-1454.98 305,-1557 316.44,-1567.26 330.6,-1574.26 345.4,-1579"/>
<polygon fill="midnightblue" stroke="midnightblue" points="176.33,-1186.61 172.56,-1176.71 169.33,-1186.8 176.33,-1186.61"/>
</g>
<!-- Node99 -->
<g id="node15" class="node">
<title>Node99</title>
<g id="a_node15"><a xlink:href="classcFSPlib_1_1python__api__client_1_1swagger__client_1_1models_1_1cluster_1_1Cluster.html" target="_top" xlink:title=" ">
<polygon fill="none" stroke="black" points="339.5,-1506.5 339.5,-1547.5 542.5,-1547.5 542.5,-1506.5 339.5,-1506.5"/>
<text text-anchor="start" x="347.5" y="-1535.5" font-family="Helvetica,sans-Serif" font-size="10.00">cFSPlib.python_api</text>
<text text-anchor="start" x="347.5" y="-1524.5" font-family="Helvetica,sans-Serif" font-size="10.00">_client.swagger_client.models.cluster.</text>
<text text-anchor="middle" x="441" y="-1513.5" font-family="Helvetica,sans-Serif" font-size="10.00">Cluster</text>
</a>
</g>
</g>
<!-- Node85&#45;&gt;Node99 -->
<g id="edge14" class="edge">
<title>Node85&#45;&gt;Node99</title>
<path fill="none" stroke="midnightblue" d="M174.22,-1186.98C180.31,-1244.74 206.15,-1413.09 305,-1497 314.98,-1505.47 326.82,-1511.69 339.29,-1516.24"/>
<polygon fill="midnightblue" stroke="midnightblue" points="177.67,-1186.3 173.23,-1176.69 170.7,-1186.98 177.67,-1186.3"/>
</g>
<!-- Node100 -->
<g id="node16" class="node">
<title>Node100</title>
<g id="a_node16"><a xlink:href="classcFSPlib_1_1python__api__client_1_1swagger__client_1_1models_1_1cluster__id__node__id__body_1_1ClusterIdNodeIdBody.html" target="_top" xlink:title=" ">
<polygon fill="none" stroke="black" points="337,-1446.5 337,-1487.5 545,-1487.5 545,-1446.5 337,-1446.5"/>
<text text-anchor="start" x="345" y="-1475.5" font-family="Helvetica,sans-Serif" font-size="10.00">cFSPlib.python_api</text>
<text text-anchor="start" x="345" y="-1464.5" font-family="Helvetica,sans-Serif" font-size="10.00">_client.swagger_client.models.cluster</text>
<text text-anchor="middle" x="441" y="-1453.5" font-family="Helvetica,sans-Serif" font-size="10.00">_id_node_id_body.ClusterIdNodeIdBody</text>
</a>
</g>
</g>
<!-- Node85&#45;&gt;Node100 -->
<g id="edge15" class="edge">
<title>Node85&#45;&gt;Node100</title>
<path fill="none" stroke="midnightblue" d="M176.1,-1186.66C186.36,-1236.89 220.69,-1370.66 305,-1437 314.43,-1444.42 325.33,-1450.09 336.77,-1454.41"/>
<polygon fill="midnightblue" stroke="midnightblue" points="179.51,-1185.91 174.17,-1176.76 172.64,-1187.24 179.51,-1185.91"/>
</g>
<!-- Node101 -->
<g id="node17" class="node">
<title>Node101</title>
<g id="a_node17"><a xlink:href="classcFSPlib_1_1python__api__client_1_1swagger__client_1_1models_1_1clusters__body_1_1ClustersBody.html" target="_top" xlink:title=" ">
<polygon fill="none" stroke="black" points="338,-1386.5 338,-1427.5 544,-1427.5 544,-1386.5 338,-1386.5"/>
<text text-anchor="start" x="346" y="-1415.5" font-family="Helvetica,sans-Serif" font-size="10.00">cFSPlib.python_api</text>
<text text-anchor="start" x="346" y="-1404.5" font-family="Helvetica,sans-Serif" font-size="10.00">_client.swagger_client.models.clusters</text>
<text text-anchor="middle" x="441" y="-1393.5" font-family="Helvetica,sans-Serif" font-size="10.00">_body.ClustersBody</text>
</a>
</g>
</g>
<!-- Node85&#45;&gt;Node101 -->
<g id="edge16" class="edge">
<title>Node85&#45;&gt;Node101</title>
<path fill="none" stroke="midnightblue" d="M178.91,-1186.44C193.82,-1228.41 234.95,-1327.7 305,-1377 314.91,-1383.98 326.17,-1389.37 337.85,-1393.53"/>
<polygon fill="midnightblue" stroke="midnightblue" points="182.18,-1185.17 175.62,-1176.85 175.56,-1187.45 182.18,-1185.17"/>
</g>
<!-- Node102 -->
<g id="node18" class="node">
<title>Node102</title>
<g id="a_node18"><a xlink:href="classcFSPlib_1_1python__api__client_1_1swagger__client_1_1models_1_1image_1_1Image.html" target="_top" xlink:title=" ">
<polygon fill="none" stroke="black" points="340.5,-1326.5 340.5,-1367.5 541.5,-1367.5 541.5,-1326.5 340.5,-1326.5"/>
<text text-anchor="start" x="348.5" y="-1355.5" font-family="Helvetica,sans-Serif" font-size="10.00">cFSPlib.python_api</text>
<text text-anchor="start" x="348.5" y="-1344.5" font-family="Helvetica,sans-Serif" font-size="10.00">_client.swagger_client.models.image.</text>
<text text-anchor="middle" x="441" y="-1333.5" font-family="Helvetica,sans-Serif" font-size="10.00">Image</text>
</a>
</g>
</g>
<!-- Node85&#45;&gt;Node102 -->
<g id="edge17" class="edge">
<title>Node85&#45;&gt;Node102</title>
<path fill="none" stroke="midnightblue" d="M183.23,-1185.38C202.98,-1217.49 248.32,-1283.56 305,-1317 315.86,-1323.4 327.94,-1328.44 340.29,-1332.41"/>
<polygon fill="midnightblue" stroke="midnightblue" points="186.09,-1183.35 177.93,-1176.58 180.09,-1186.95 186.09,-1183.35"/>
</g>
<!-- Node103 -->
<g id="node19" class="node">
<title>Node103</title>
<g id="a_node19"><a xlink:href="classcFSPlib_1_1python__api__client_1_1swagger__client_1_1models_1_1images__app__logic__body_1_1ImagesAppLogicBody.html" target="_top" xlink:title=" ">
<polygon fill="none" stroke="black" points="339,-1266.5 339,-1307.5 543,-1307.5 543,-1266.5 339,-1266.5"/>
<text text-anchor="start" x="347" y="-1295.5" font-family="Helvetica,sans-Serif" font-size="10.00">cFSPlib.python_api</text>
<text text-anchor="start" x="347" y="-1284.5" font-family="Helvetica,sans-Serif" font-size="10.00">_client.swagger_client.models.images</text>
<text text-anchor="middle" x="441" y="-1273.5" font-family="Helvetica,sans-Serif" font-size="10.00">_app_logic_body.ImagesAppLogicBody</text>
</a>
</g>
</g>
<!-- Node85&#45;&gt;Node103 -->
<g id="edge18" class="edge">
<title>Node85&#45;&gt;Node103</title>
<path fill="none" stroke="midnightblue" d="M191.1,-1183.04C215.57,-1203.32 260.7,-1237.87 305,-1257 315.69,-1261.62 327.18,-1265.56 338.77,-1268.92"/>
<polygon fill="midnightblue" stroke="midnightblue" points="193.24,-1180.27 183.34,-1176.52 188.74,-1185.63 193.24,-1180.27"/>
</g>
<!-- Node104 -->
<g id="node20" class="node">
<title>Node104</title>
<g id="a_node20"><a xlink:href="classcFSPlib_1_1python__api__client_1_1swagger__client_1_1models_1_1images__body_1_1ImagesBody.html" target="_top" xlink:title=" ">
<polygon fill="none" stroke="black" points="339.5,-1206.5 339.5,-1247.5 542.5,-1247.5 542.5,-1206.5 339.5,-1206.5"/>
<text text-anchor="start" x="347.5" y="-1235.5" font-family="Helvetica,sans-Serif" font-size="10.00">cFSPlib.python_api</text>
<text text-anchor="start" x="347.5" y="-1224.5" font-family="Helvetica,sans-Serif" font-size="10.00">_client.swagger_client.models.images</text>
<text text-anchor="middle" x="441" y="-1213.5" font-family="Helvetica,sans-Serif" font-size="10.00">_body.ImagesBody</text>
</a>
</g>
</g>
<!-- Node85&#45;&gt;Node104 -->
<g id="edge19" class="edge">
<title>Node85&#45;&gt;Node104</title>
<path fill="none" stroke="midnightblue" d="M204.99,-1174.39C231.81,-1180.49 270.87,-1189.34 305,-1197 318.7,-1200.07 333.2,-1203.31 347.4,-1206.47"/>
<polygon fill="midnightblue" stroke="midnightblue" points="205.53,-1170.93 195,-1172.12 203.98,-1177.75 205.53,-1170.93"/>
</g>
<!-- Node105 -->
<g id="node21" class="node">
<title>Node105</title>
<g id="a_node21"><a xlink:href="classcFSPlib_1_1python__api__client_1_1swagger__client_1_1models_1_1inline__response2001_1_1InlineResponse2001.html" target="_top" xlink:title=" ">
<polygon fill="none" stroke="black" points="344,-1146.5 344,-1187.5 538,-1187.5 538,-1146.5 344,-1146.5"/>
<text text-anchor="start" x="352" y="-1175.5" font-family="Helvetica,sans-Serif" font-size="10.00">cFSPlib.python_api</text>
<text text-anchor="start" x="352" y="-1164.5" font-family="Helvetica,sans-Serif" font-size="10.00">_client.swagger_client.models.inline</text>
<text text-anchor="middle" x="441" y="-1153.5" font-family="Helvetica,sans-Serif" font-size="10.00">_response2001.InlineResponse2001</text>
</a>
</g>
</g>
<!-- Node85&#45;&gt;Node105 -->
<g id="edge20" class="edge">
<title>Node85&#45;&gt;Node105</title>
<path fill="none" stroke="midnightblue" d="M205.7,-1167C240.1,-1167 295.49,-1167 343.77,-1167"/>
<polygon fill="midnightblue" stroke="midnightblue" points="205.31,-1163.5 195.31,-1167 205.31,-1170.5 205.31,-1163.5"/>
</g>
<!-- Node106 -->
<g id="node22" class="node">
<title>Node106</title>
<g id="a_node22"><a xlink:href="classcFSPlib_1_1python__api__client_1_1swagger__client_1_1models_1_1inline__response2002_1_1InlineResponse2002.html" target="_top" xlink:title=" ">
<polygon fill="none" stroke="black" points="344,-1086.5 344,-1127.5 538,-1127.5 538,-1086.5 344,-1086.5"/>
<text text-anchor="start" x="352" y="-1115.5" font-family="Helvetica,sans-Serif" font-size="10.00">cFSPlib.python_api</text>
<text text-anchor="start" x="352" y="-1104.5" font-family="Helvetica,sans-Serif" font-size="10.00">_client.swagger_client.models.inline</text>
<text text-anchor="middle" x="441" y="-1093.5" font-family="Helvetica,sans-Serif" font-size="10.00">_response2002.InlineResponse2002</text>
</a>
</g>
</g>
<!-- Node85&#45;&gt;Node106 -->
<g id="edge21" class="edge">
<title>Node85&#45;&gt;Node106</title>
<path fill="none" stroke="midnightblue" d="M204.99,-1159.61C231.81,-1153.51 270.87,-1144.66 305,-1137 318.7,-1133.93 333.2,-1130.69 347.4,-1127.53"/>
<polygon fill="midnightblue" stroke="midnightblue" points="203.98,-1156.25 195,-1161.88 205.53,-1163.07 203.98,-1156.25"/>
</g>
<!-- Node107 -->
<g id="node23" class="node">
<title>Node107</title>
<g id="a_node23"><a xlink:href="classcFSPlib_1_1python__api__client_1_1swagger__client_1_1models_1_1inline__response2003_1_1InlineResponse2003.html" target="_top" xlink:title=" ">
<polygon fill="none" stroke="black" points="344,-1026.5 344,-1067.5 538,-1067.5 538,-1026.5 344,-1026.5"/>
<text text-anchor="start" x="352" y="-1055.5" font-family="Helvetica,sans-Serif" font-size="10.00">cFSPlib.python_api</text>
<text text-anchor="start" x="352" y="-1044.5" font-family="Helvetica,sans-Serif" font-size="10.00">_client.swagger_client.models.inline</text>
<text text-anchor="middle" x="441" y="-1033.5" font-family="Helvetica,sans-Serif" font-size="10.00">_response2003.InlineResponse2003</text>
</a>
</g>
</g>
<!-- Node85&#45;&gt;Node107 -->
<g id="edge22" class="edge">
<title>Node85&#45;&gt;Node107</title>
<path fill="none" stroke="midnightblue" d="M191.1,-1150.96C215.57,-1130.68 260.7,-1096.13 305,-1077 317.23,-1071.72 330.51,-1067.31 343.8,-1063.66"/>
<polygon fill="midnightblue" stroke="midnightblue" points="188.74,-1148.37 183.34,-1157.48 193.24,-1153.73 188.74,-1148.37"/>
</g>
<!-- Node108 -->
<g id="node24" class="node">
<title>Node108</title>
<g id="a_node24"><a xlink:href="classcFSPlib_1_1python__api__client_1_1swagger__client_1_1models_1_1inline__response2004_1_1InlineResponse2004.html" target="_top" xlink:title=" ">
<polygon fill="none" stroke="black" points="344,-966.5 344,-1007.5 538,-1007.5 538,-966.5 344,-966.5"/>
<text text-anchor="start" x="352" y="-995.5" font-family="Helvetica,sans-Serif" font-size="10.00">cFSPlib.python_api</text>
<text text-anchor="start" x="352" y="-984.5" font-family="Helvetica,sans-Serif" font-size="10.00">_client.swagger_client.models.inline</text>
<text text-anchor="middle" x="441" y="-973.5" font-family="Helvetica,sans-Serif" font-size="10.00">_response2004.InlineResponse2004</text>
</a>
</g>
</g>
<!-- Node85&#45;&gt;Node108 -->
<g id="edge23" class="edge">
<title>Node85&#45;&gt;Node108</title>
<path fill="none" stroke="midnightblue" d="M183.23,-1148.62C202.98,-1116.51 248.32,-1050.44 305,-1017 316.89,-1009.99 330.25,-1004.61 343.82,-1000.49"/>
<polygon fill="midnightblue" stroke="midnightblue" points="180.09,-1147.05 177.93,-1157.42 186.09,-1150.65 180.09,-1147.05"/>
</g>
<!-- Node109 -->
<g id="node25" class="node">
<title>Node109</title>
<g id="a_node25"><a xlink:href="classcFSPlib_1_1python__api__client_1_1swagger__client_1_1models_1_1inline__response2005_1_1InlineResponse2005.html" target="_top" xlink:title=" ">
<polygon fill="none" stroke="black" points="344,-906.5 344,-947.5 538,-947.5 538,-906.5 344,-906.5"/>
<text text-anchor="start" x="352" y="-935.5" font-family="Helvetica,sans-Serif" font-size="10.00">cFSPlib.python_api</text>
<text text-anchor="start" x="352" y="-924.5" font-family="Helvetica,sans-Serif" font-size="10.00">_client.swagger_client.models.inline</text>
<text text-anchor="middle" x="441" y="-913.5" font-family="Helvetica,sans-Serif" font-size="10.00">_response2005.InlineResponse2005</text>
</a>
</g>
</g>
<!-- Node85&#45;&gt;Node109 -->
<g id="edge24" class="edge">
<title>Node85&#45;&gt;Node109</title>
<path fill="none" stroke="midnightblue" d="M178.91,-1147.56C193.82,-1105.59 234.95,-1006.3 305,-957 316.58,-948.85 330,-942.86 343.79,-938.47"/>
<polygon fill="midnightblue" stroke="midnightblue" points="175.56,-1146.55 175.62,-1157.15 182.18,-1148.83 175.56,-1146.55"/>
</g>
<!-- Node110 -->
<g id="node26" class="node">
<title>Node110</title>
<g id="a_node26"><a xlink:href="classcFSPlib_1_1python__api__client_1_1swagger__client_1_1models_1_1inline__response2006_1_1InlineResponse2006.html" target="_top" xlink:title=" ">
<polygon fill="none" stroke="black" points="344,-846.5 344,-887.5 538,-887.5 538,-846.5 344,-846.5"/>
<text text-anchor="start" x="352" y="-875.5" font-family="Helvetica,sans-Serif" font-size="10.00">cFSPlib.python_api</text>
<text text-anchor="start" x="352" y="-864.5" font-family="Helvetica,sans-Serif" font-size="10.00">_client.swagger_client.models.inline</text>
<text text-anchor="middle" x="441" y="-853.5" font-family="Helvetica,sans-Serif" font-size="10.00">_response2006.InlineResponse2006</text>
</a>
</g>
</g>
<!-- Node85&#45;&gt;Node110 -->
<g id="edge25" class="edge">
<title>Node85&#45;&gt;Node110</title>
<path fill="none" stroke="midnightblue" d="M176.1,-1147.34C186.36,-1097.11 220.69,-963.34 305,-897 316.32,-888.09 329.75,-881.71 343.68,-877.16"/>
<polygon fill="midnightblue" stroke="midnightblue" points="172.64,-1146.76 174.17,-1157.24 179.51,-1148.09 172.64,-1146.76"/>
</g>
<!-- Node111 -->
<g id="node27" class="node">
<title>Node111</title>
<g id="a_node27"><a xlink:href="classcFSPlib_1_1python__api__client_1_1swagger__client_1_1models_1_1inline__response200_1_1InlineResponse200.html" target="_top" xlink:title=" ">
<polygon fill="none" stroke="black" points="344,-786.5 344,-827.5 538,-827.5 538,-786.5 344,-786.5"/>
<text text-anchor="start" x="352" y="-815.5" font-family="Helvetica,sans-Serif" font-size="10.00">cFSPlib.python_api</text>
<text text-anchor="start" x="352" y="-804.5" font-family="Helvetica,sans-Serif" font-size="10.00">_client.swagger_client.models.inline</text>
<text text-anchor="middle" x="441" y="-793.5" font-family="Helvetica,sans-Serif" font-size="10.00">_response200.InlineResponse200</text>
</a>
</g>
</g>
<!-- Node85&#45;&gt;Node111 -->
<g id="edge26" class="edge">
<title>Node85&#45;&gt;Node111</title>
<path fill="none" stroke="midnightblue" d="M174.22,-1147.02C180.31,-1089.26 206.15,-920.91 305,-837 316.17,-827.52 329.67,-820.86 343.78,-816.2"/>
<polygon fill="midnightblue" stroke="midnightblue" points="170.7,-1147.02 173.23,-1157.31 177.67,-1147.7 170.7,-1147.02"/>
</g>
<!-- Node112 -->
<g id="node28" class="node">
<title>Node112</title>
<g id="a_node28"><a xlink:href="classcFSPlib_1_1python__api__client_1_1swagger__client_1_1models_1_1instance_1_1Instance.html" target="_top" xlink:title=" ">
<polygon fill="none" stroke="black" points="335,-726.5 335,-767.5 547,-767.5 547,-726.5 335,-726.5"/>
<text text-anchor="start" x="343" y="-755.5" font-family="Helvetica,sans-Serif" font-size="10.00">cFSPlib.python_api</text>
<text text-anchor="start" x="343" y="-744.5" font-family="Helvetica,sans-Serif" font-size="10.00">_client.swagger_client.models.instance.</text>
<text text-anchor="middle" x="441" y="-733.5" font-family="Helvetica,sans-Serif" font-size="10.00">Instance</text>
</a>
</g>
</g>
<!-- Node85&#45;&gt;Node112 -->
<g id="edge27" class="edge">
<title>Node85&#45;&gt;Node112</title>
<path fill="none" stroke="midnightblue" d="M172.84,-1146.93C175.07,-1082.48 191.23,-879.02 305,-777 313.67,-769.23 323.9,-763.32 334.79,-758.86"/>
<polygon fill="midnightblue" stroke="midnightblue" points="169.33,-1147.2 172.56,-1157.29 176.33,-1147.39 169.33,-1147.2"/>
</g>
<!-- Node113 -->
<g id="node29" class="node">
<title>Node113</title>
<g id="a_node29"><a xlink:href="classcFSPlib_1_1python__api__client_1_1swagger__client_1_1models_1_1instance__id__api__gateway__33456c8700113c53c3cfaa915ef28716.html" target="_top" xlink:title=" ">
<polygon fill="none" stroke="black" points="309.5,-666.5 309.5,-707.5 572.5,-707.5 572.5,-666.5 309.5,-666.5"/>
<text text-anchor="start" x="317.5" y="-695.5" font-family="Helvetica,sans-Serif" font-size="10.00">cFSPlib.python_api</text>
<text text-anchor="start" x="317.5" y="-684.5" font-family="Helvetica,sans-Serif" font-size="10.00">_client.swagger_client.models.instance</text>
<text text-anchor="middle" x="441" y="-673.5" font-family="Helvetica,sans-Serif" font-size="10.00">_id_api_gateway_body.InstanceIdApiGatewayBody</text>
</a>
</g>
</g>
<!-- Node85&#45;&gt;Node113 -->
<g id="edge28" class="edge">
<title>Node85&#45;&gt;Node113</title>
<path fill="none" stroke="midnightblue" d="M171.8,-1147.18C170.46,-1076.93 175.92,-837.62 305,-717 308.77,-713.48 312.86,-710.33 317.19,-707.53"/>
<polygon fill="midnightblue" stroke="midnightblue" points="168.3,-1147.38 172.06,-1157.29 175.3,-1147.2 168.3,-1147.38"/>
</g>
<!-- Node114 -->
<g id="node30" class="node">
<title>Node114</title>
<g id="a_node30"><a xlink:href="classcFSPlib_1_1python__api__client_1_1swagger__client_1_1models_1_1instance__id__runlevel__body_1_1InstanceIdRunlevelBody.html" target="_top" xlink:title=" ">
<polygon fill="none" stroke="black" points="329,-606.5 329,-647.5 553,-647.5 553,-606.5 329,-606.5"/>
<text text-anchor="start" x="337" y="-635.5" font-family="Helvetica,sans-Serif" font-size="10.00">cFSPlib.python_api</text>
<text text-anchor="start" x="337" y="-624.5" font-family="Helvetica,sans-Serif" font-size="10.00">_client.swagger_client.models.instance</text>
<text text-anchor="middle" x="441" y="-613.5" font-family="Helvetica,sans-Serif" font-size="10.00">_id_runlevel_body.InstanceIdRunlevelBody</text>
</a>
</g>
</g>
<!-- Node85&#45;&gt;Node114 -->
<g id="edge29" class="edge">
<title>Node85&#45;&gt;Node114</title>
<path fill="none" stroke="midnightblue" d="M174.91,-1147.02C185.64,-1061.53 231.68,-727.76 305,-657 312,-650.25 320.16,-644.88 328.94,-640.63"/>
<polygon fill="midnightblue" stroke="midnightblue" points="171.41,-1146.83 173.66,-1157.18 178.36,-1147.69 171.41,-1146.83"/>
</g>
<!-- Node115 -->
<g id="node31" class="node">
<title>Node115</title>
<g id="a_node31"><a xlink:href="classcFSPlib_1_1python__api__client_1_1swagger__client_1_1models_1_1instances__body_1_1InstancesBody.html" target="_top" xlink:title=" ">
<polygon fill="none" stroke="black" points="334,-546.5 334,-587.5 548,-587.5 548,-546.5 334,-546.5"/>
<text text-anchor="start" x="342" y="-575.5" font-family="Helvetica,sans-Serif" font-size="10.00">cFSPlib.python_api</text>
<text text-anchor="start" x="342" y="-564.5" font-family="Helvetica,sans-Serif" font-size="10.00">_client.swagger_client.models.instances</text>
<text text-anchor="middle" x="441" y="-553.5" font-family="Helvetica,sans-Serif" font-size="10.00">_body.InstancesBody</text>
</a>
</g>
</g>
<!-- Node85&#45;&gt;Node115 -->
<g id="edge30" class="edge">
<title>Node85&#45;&gt;Node115</title>
<path fill="none" stroke="midnightblue" d="M174.3,-1147.34C183.02,-1056.39 223.83,-677.38 305,-597 313.19,-588.89 323.05,-582.77 333.68,-578.17"/>
<polygon fill="midnightblue" stroke="midnightblue" points="170.81,-1147.1 173.36,-1157.39 177.78,-1147.76 170.81,-1147.1"/>
</g>
<!-- Node116 -->
<g id="node32" class="node">
<title>Node116</title>
<g id="a_node32"><a xlink:href="classcFSPlib_1_1python__api__client_1_1swagger__client_1_1models_1_1instances__instance__id__body_1_1InstancesInstanceIdBody.html" target="_top" xlink:title=" ">
<polygon fill="none" stroke="black" points="326,-486.5 326,-527.5 556,-527.5 556,-486.5 326,-486.5"/>
<text text-anchor="start" x="334" y="-515.5" font-family="Helvetica,sans-Serif" font-size="10.00">cFSPlib.python_api</text>
<text text-anchor="start" x="334" y="-504.5" font-family="Helvetica,sans-Serif" font-size="10.00">_client.swagger_client.models.instances</text>
<text text-anchor="middle" x="441" y="-493.5" font-family="Helvetica,sans-Serif" font-size="10.00">_instance_id_body.InstancesInstanceIdBody</text>
</a>
</g>
</g>
<!-- Node85&#45;&gt;Node116 -->
<g id="edge31" class="edge">
<title>Node85&#45;&gt;Node116</title>
<path fill="none" stroke="midnightblue" d="M173.85,-1147.16C180.83,-1050.17 216.09,-626.93 305,-537 311.08,-530.85 318.11,-525.84 325.72,-521.77"/>
<polygon fill="midnightblue" stroke="midnightblue" points="170.34,-1147.11 173.13,-1157.33 177.32,-1147.6 170.34,-1147.11"/>
</g>
<!-- Node117 -->
<g id="node33" class="node">
<title>Node117</title>
<g id="a_node33"><a xlink:href="classcFSPlib_1_1python__api__client_1_1swagger__client_1_1models_1_1node__map_1_1NodeMap.html" target="_top" xlink:title=" ">
<polygon fill="none" stroke="black" points="345.5,-426.5 345.5,-467.5 536.5,-467.5 536.5,-426.5 345.5,-426.5"/>
<text text-anchor="start" x="353.5" y="-455.5" font-family="Helvetica,sans-Serif" font-size="10.00">cFSPlib.python_api</text>
<text text-anchor="start" x="353.5" y="-444.5" font-family="Helvetica,sans-Serif" font-size="10.00">_client.swagger_client.models.node</text>
<text text-anchor="middle" x="441" y="-433.5" font-family="Helvetica,sans-Serif" font-size="10.00">_map.NodeMap</text>
</a>
</g>
</g>
<!-- Node85&#45;&gt;Node117 -->
<g id="edge32" class="edge">
<title>Node85&#45;&gt;Node117</title>
<path fill="none" stroke="midnightblue" d="M173.45,-1147.25C178.77,-1045 208.22,-576.62 305,-477 315.96,-465.72 330.15,-458.25 345.19,-453.37"/>
<polygon fill="midnightblue" stroke="midnightblue" points="169.95,-1147.24 172.94,-1157.4 176.94,-1147.59 169.95,-1147.24"/>
</g>
<!-- Node118 -->
<g id="node34" class="node">
<title>Node118</title>
<g id="a_node34"><a xlink:href="classcFSPlib_1_1python__api__client_1_1swagger__client_1_1models_1_1node__map__inner_1_1NodeMapInner.html" target="_top" xlink:title=" ">
<polygon fill="none" stroke="black" points="345.5,-366.5 345.5,-407.5 536.5,-407.5 536.5,-366.5 345.5,-366.5"/>
<text text-anchor="start" x="353.5" y="-395.5" font-family="Helvetica,sans-Serif" font-size="10.00">cFSPlib.python_api</text>
<text text-anchor="start" x="353.5" y="-384.5" font-family="Helvetica,sans-Serif" font-size="10.00">_client.swagger_client.models.node</text>
<text text-anchor="middle" x="441" y="-373.5" font-family="Helvetica,sans-Serif" font-size="10.00">_map_inner.NodeMapInner</text>
</a>
</g>
</g>
<!-- Node85&#45;&gt;Node118 -->
<g id="edge33" class="edge">
<title>Node85&#45;&gt;Node118</title>
<path fill="none" stroke="midnightblue" d="M173.12,-1147.25C176.91,-1039.8 200.36,-526.33 305,-417 315.96,-405.55 330.24,-398.01 345.4,-393.13"/>
<polygon fill="midnightblue" stroke="midnightblue" points="169.62,-1147.23 172.78,-1157.34 176.62,-1147.47 169.62,-1147.23"/>
</g>
<!-- Node119 -->
<g id="node35" class="node">
<title>Node119</title>
<g id="a_node35"><a xlink:href="classcFSPlib_1_1python__api__client_1_1swagger__client_1_1models_1_1quota_1_1Quota.html" target="_top" xlink:title=" ">
<polygon fill="none" stroke="black" points="342,-306.5 342,-347.5 540,-347.5 540,-306.5 342,-306.5"/>
<text text-anchor="start" x="350" y="-335.5" font-family="Helvetica,sans-Serif" font-size="10.00">cFSPlib.python_api</text>
<text text-anchor="start" x="350" y="-324.5" font-family="Helvetica,sans-Serif" font-size="10.00">_client.swagger_client.models.quota.</text>
<text text-anchor="middle" x="441" y="-313.5" font-family="Helvetica,sans-Serif" font-size="10.00">Quota</text>
</a>
</g>
</g>
<!-- Node85&#45;&gt;Node119 -->
<g id="edge34" class="edge">
<title>Node85&#45;&gt;Node119</title>
<path fill="none" stroke="midnightblue" d="M172.84,-1147.12C175.21,-1034.36 192.51,-476.03 305,-357 315.06,-346.36 327.99,-339.08 341.85,-334.17"/>
<polygon fill="midnightblue" stroke="midnightblue" points="169.34,-1147.31 172.65,-1157.38 176.34,-1147.45 169.34,-1147.31"/>
</g>
<!-- Node120 -->
<g id="node36" class="node">
<title>Node120</title>
<g id="a_node36"><a xlink:href="classcFSPlib_1_1python__api__client_1_1swagger__client_1_1models_1_1resource_1_1Resource.html" target="_top" xlink:title=" ">
<polygon fill="none" stroke="black" points="335,-246.5 335,-287.5 547,-287.5 547,-246.5 335,-246.5"/>
<text text-anchor="start" x="343" y="-275.5" font-family="Helvetica,sans-Serif" font-size="10.00">cFSPlib.python_api</text>
<text text-anchor="start" x="343" y="-264.5" font-family="Helvetica,sans-Serif" font-size="10.00">_client.swagger_client.models.resource.</text>
<text text-anchor="middle" x="441" y="-253.5" font-family="Helvetica,sans-Serif" font-size="10.00">Resource</text>
</a>
</g>
</g>
<!-- Node85&#45;&gt;Node120 -->
<g id="edge35" class="edge">
<title>Node85&#45;&gt;Node120</title>
<path fill="none" stroke="midnightblue" d="M172.6,-1147.15C173.6,-1029.63 184.6,-425.82 305,-297 313.28,-288.14 323.55,-281.61 334.69,-276.83"/>
<polygon fill="midnightblue" stroke="midnightblue" points="169.1,-1147.47 172.53,-1157.5 176.1,-1147.52 169.1,-1147.47"/>
</g>
<!-- Node121 -->
<g id="node37" class="node">
<title>Node121</title>
<g id="a_node37"><a xlink:href="classcFSPlib_1_1python__api__client_1_1swagger__client_1_1models_1_1test__instance__instance__idb21fef29c350bd01bc51bf6a97dd8668.html" target="_top" xlink:title=" ">
<polygon fill="none" stroke="black" points="333.5,-175 333.5,-227 548.5,-227 548.5,-175 333.5,-175"/>
<text text-anchor="start" x="341.5" y="-215" font-family="Helvetica,sans-Serif" font-size="10.00">cFSPlib.python_api</text>
<text text-anchor="start" x="341.5" y="-204" font-family="Helvetica,sans-Serif" font-size="10.00">_client.swagger_client.models.test</text>
<text text-anchor="start" x="341.5" y="-193" font-family="Helvetica,sans-Serif" font-size="10.00">_instance_instance_id_body.TestInstance</text>
<text text-anchor="middle" x="441" y="-182" font-family="Helvetica,sans-Serif" font-size="10.00">InstanceIdBody</text>
</a>
</g>
</g>
<!-- Node85&#45;&gt;Node121 -->
<g id="edge36" class="edge">
<title>Node85&#45;&gt;Node121</title>
<path fill="none" stroke="midnightblue" d="M172.46,-1147.39C172.65,-1026.06 179.55,-378.36 305,-237 312.89,-228.11 322.7,-221.3 333.42,-216.11"/>
<polygon fill="midnightblue" stroke="midnightblue" points="168.96,-1147.45 172.46,-1157.45 175.96,-1147.45 168.96,-1147.45"/>
</g>
<!-- Node122 -->
<g id="node38" class="node">
<title>Node122</title>
<g id="a_node38"><a xlink:href="classcFSPlib_1_1python__api__client_1_1swagger__client_1_1rest_1_1RESTClientObject.html" target="_top" xlink:title=" ">
<polygon fill="none" stroke="black" points="366,-114.5 366,-155.5 516,-155.5 516,-114.5 366,-114.5"/>
<text text-anchor="start" x="374" y="-143.5" font-family="Helvetica,sans-Serif" font-size="10.00">cFSPlib.python_api</text>
<text text-anchor="start" x="374" y="-132.5" font-family="Helvetica,sans-Serif" font-size="10.00">_client.swagger_client.rest.</text>
<text text-anchor="middle" x="441" y="-121.5" font-family="Helvetica,sans-Serif" font-size="10.00">RESTClientObject</text>
</a>
</g>
</g>
<!-- Node85&#45;&gt;Node122 -->
<g id="edge37" class="edge">
<title>Node85&#45;&gt;Node122</title>
<path fill="none" stroke="midnightblue" d="M172.18,-1147.04C170.53,-1019.28 167.84,-316.71 305,-166 320.54,-148.93 343.41,-140.3 365.92,-136.18"/>
<polygon fill="midnightblue" stroke="midnightblue" points="168.68,-1147.34 172.32,-1157.29 175.68,-1147.24 168.68,-1147.34"/>
</g>
<!-- Node123 -->
<g id="node39" class="node">
<title>Node123</title>
<g id="a_node39"><a xlink:href="classvar_1_1common_1_1Bunch.html" target="_top" xlink:title=" ">
<polygon fill="none" stroke="black" points="386,-76.5 386,-95.5 496,-95.5 496,-76.5 386,-76.5"/>
<text text-anchor="middle" x="441" y="-83.5" font-family="Helvetica,sans-Serif" font-size="10.00">var.common.Bunch</text>
</a>
</g>
</g>
<!-- Node85&#45;&gt;Node123 -->
<g id="edge38" class="edge">
<title>Node85&#45;&gt;Node123</title>
<path fill="none" stroke="midnightblue" d="M173.54,-1147.27C181.02,-1008.51 228.61,-182.6 305,-105 325.59,-84.08 357.91,-78.97 385.76,-79.26"/>
<polygon fill="midnightblue" stroke="midnightblue" points="170.04,-1147.14 173,-1157.31 177.03,-1147.51 170.04,-1147.14"/>
</g>
<!-- Node124 -->
<g id="node40" class="node">
<title>Node124</title>
<g id="a_node40"><a xlink:href="classvar_1_1video_1_1VideoSynthBase.html" target="_top" xlink:title=" ">
<polygon fill="none" stroke="black" points="369,-38.5 369,-57.5 513,-57.5 513,-38.5 369,-38.5"/>
<text text-anchor="middle" x="441" y="-45.5" font-family="Helvetica,sans-Serif" font-size="10.00">var.video.VideoSynthBase</text>
</a>
</g>
</g>
<!-- Node85&#45;&gt;Node124 -->
<g id="edge39" class="edge">
<title>Node85&#45;&gt;Node124</title>
<path fill="none" stroke="midnightblue" d="M173.46,-1147.01C180.5,-1004.64 226.01,-147.58 305,-67 321.49,-50.18 345.55,-43.57 368.81,-41.76"/>
<polygon fill="midnightblue" stroke="midnightblue" points="169.95,-1147.13 172.96,-1157.29 176.94,-1147.47 169.95,-1147.13"/>
</g>
<!-- Node125 -->
<g id="node41" class="node">
<title>Node125</title>
<g id="a_node41"><a xlink:href="classvar_1_1video_1_1Book.html" target="_top" xlink:title=" ">
<polygon fill="none" stroke="black" points="615.5,-76.5 615.5,-95.5 704.5,-95.5 704.5,-76.5 615.5,-76.5"/>
<text text-anchor="middle" x="660" y="-83.5" font-family="Helvetica,sans-Serif" font-size="10.00">var.video.Book</text>
</a>
</g>
</g>
<!-- Node124&#45;&gt;Node125 -->
<g id="edge40" class="edge">
<title>Node124&#45;&gt;Node125</title>
<path fill="none" stroke="midnightblue" d="M523.58,-58.3C541.25,-60.86 559.78,-63.8 577,-67 591.37,-69.67 607.02,-73.15 620.77,-76.41"/>
<polygon fill="midnightblue" stroke="midnightblue" points="523.7,-54.79 513.3,-56.84 522.71,-61.72 523.7,-54.79"/>
</g>
<!-- Node126 -->
<g id="node42" class="node">
<title>Node126</title>
<g id="a_node42"><a xlink:href="classvar_1_1video_1_1Chess.html" target="_top" xlink:title=" ">
<polygon fill="none" stroke="black" points="613,-38.5 613,-57.5 707,-57.5 707,-38.5 613,-38.5"/>
<text text-anchor="middle" x="660" y="-45.5" font-family="Helvetica,sans-Serif" font-size="10.00">var.video.Chess</text>
</a>
</g>
</g>
<!-- Node124&#45;&gt;Node126 -->
<g id="edge41" class="edge">
<title>Node124&#45;&gt;Node126</title>
<path fill="none" stroke="midnightblue" d="M523.18,-48C553.42,-48 586.7,-48 612.74,-48"/>
<polygon fill="midnightblue" stroke="midnightblue" points="523.05,-44.5 513.05,-48 523.05,-51.5 523.05,-44.5"/>
</g>
<!-- Node127 -->
<g id="node43" class="node">
<title>Node127</title>
<g id="a_node43"><a xlink:href="classvar_1_1video_1_1Cube.html" target="_top" xlink:title=" ">
<polygon fill="none" stroke="black" points="615.5,-0.5 615.5,-19.5 704.5,-19.5 704.5,-0.5 615.5,-0.5"/>
<text text-anchor="middle" x="660" y="-7.5" font-family="Helvetica,sans-Serif" font-size="10.00">var.video.Cube</text>
</a>
</g>
</g>
<!-- Node124&#45;&gt;Node127 -->
<g id="edge42" class="edge">
<title>Node124&#45;&gt;Node127</title>
<path fill="none" stroke="midnightblue" d="M506.64,-36.68C541.76,-30.53 584.25,-23.09 615.42,-17.63"/>
<polygon fill="midnightblue" stroke="midnightblue" points="505.72,-33.29 496.48,-38.46 506.93,-40.18 505.72,-33.29"/>
</g>
<!-- Node227 -->
<g id="node44" class="node">
<title>Node227</title>
<g id="a_node44"><a xlink:title=" ">
<polygon fill="none" stroke="#bfbfbf" points="0,-2333.5 0,-2352.5 38,-2352.5 38,-2333.5 0,-2333.5"/>
<text text-anchor="middle" x="19" y="-2340.5" font-family="Helvetica,sans-Serif" font-size="10.00">type</text>
</a>
</g>
</g>
<!-- Node228 -->
<g id="node45" class="node">
<title>Node228</title>
<g id="a_node45"><a xlink:href="classcFSPlib_1_1python__api__client_1_1swagger__client_1_1configuration_1_1TypeWithDefault.html" target="_top" xlink:title=" ">
<polygon fill="none" stroke="black" points="74,-2322.5 74,-2363.5 269,-2363.5 269,-2322.5 74,-2322.5"/>
<text text-anchor="start" x="82" y="-2351.5" font-family="Helvetica,sans-Serif" font-size="10.00">cFSPlib.python_api</text>
<text text-anchor="start" x="82" y="-2340.5" font-family="Helvetica,sans-Serif" font-size="10.00">_client.swagger_client.configuration.</text>
<text text-anchor="middle" x="171.5" y="-2329.5" font-family="Helvetica,sans-Serif" font-size="10.00">TypeWithDefault</text>
</a>
</g>
</g>
<!-- Node227&#45;&gt;Node228 -->
<g id="edge43" class="edge">
<title>Node227&#45;&gt;Node228</title>
<path fill="none" stroke="midnightblue" d="M48.17,-2343C55.81,-2343 64.53,-2343 73.72,-2343"/>
<polygon fill="midnightblue" stroke="midnightblue" points="48.15,-2339.5 38.15,-2343 48.15,-2346.5 48.15,-2339.5"/>
</g>
<!-- Node228&#45;&gt;Node95 -->
<g id="edge44" class="edge">
<title>Node228&#45;&gt;Node95</title>
<path fill="none" stroke="midnightblue" d="M279.05,-2333.44C300.2,-2331.54 322.31,-2329.56 343.12,-2327.69"/>
<polygon fill="midnightblue" stroke="midnightblue" points="278.72,-2329.96 269.07,-2334.34 279.35,-2336.93 278.72,-2329.96"/>
</g>
<!-- Node233 -->
<g id="node46" class="node">
<title>Node233</title>
<g id="a_node46"><a xlink:title=" ">
<polygon fill="none" stroke="#bfbfbf" points="116.5,-2284.5 116.5,-2303.5 226.5,-2303.5 226.5,-2284.5 116.5,-2284.5"/>
<text text-anchor="middle" x="171.5" y="-2291.5" font-family="Helvetica,sans-Serif" font-size="10.00">six.with_metaclass</text>
</a>
</g>
</g>
<!-- Node233&#45;&gt;Node95 -->
<g id="edge45" class="edge">
<title>Node233&#45;&gt;Node95</title>
<path fill="none" stroke="midnightblue" d="M236.74,-2300C268.69,-2302.99 307.98,-2306.66 343.46,-2309.98"/>
<polygon fill="midnightblue" stroke="midnightblue" points="236.91,-2296.5 226.63,-2299.06 236.26,-2303.47 236.91,-2296.5"/>
</g>
</g>
</svg>
