<?xml version="1.0" encoding="UTF-8" standalone="no"?>
<!DOCTYPE svg PUBLIC "-//W3C//DTD SVG 1.1//EN"
 "http://www.w3.org/Graphics/SVG/1.1/DTD/svg11.dtd">
<!-- Generated by graphviz version 2.43.0 (0)
 -->
<!-- Title: kernel_mc Pages: 1 -->
<svg width="490pt" height="104pt"
 viewBox="0.00 0.00 490.00 104.00" xmlns="http://www.w3.org/2000/svg" xmlns:xlink="http://www.w3.org/1999/xlink">
<g id="graph0" class="graph" transform="scale(1 1) rotate(0) translate(4 100)">
<title>kernel_mc</title>
<!-- Node1 -->
<g id="node1" class="node">
<title>Node1</title>
<g id="a_node1"><a xlink:title=" ">
<polygon fill="#bfbfbf" stroke="black" points="415,-38.5 415,-57.5 482,-57.5 482,-38.5 415,-38.5"/>
<text text-anchor="middle" x="448.5" y="-45.5" font-family="Helvetica,sans-Serif" font-size="10.00">kernel_mc</text>
</a>
</g>
</g>
<!-- Node2 -->
<g id="node2" class="node">
<title>Node2</title>
<g id="a_node2"><a xlink:href="group__MCEuropeanEngineHLS.html#ga17d58313a1e5e59dcce3d0ee9f6ba7f4" target="_top" xlink:title="Processing Path &#45; Main processing FSM for Vitis kernels.">
<polygon fill="none" stroke="black" points="314,-38.5 314,-57.5 379,-57.5 379,-38.5 314,-38.5"/>
<text text-anchor="middle" x="346.5" y="-45.5" font-family="Helvetica,sans-Serif" font-size="10.00">pProcPath</text>
</a>
</g>
</g>
<!-- Node1&#45;&gt;Node2 -->
<g id="edge1" class="edge">
<title>Node1&#45;&gt;Node2</title>
<path fill="none" stroke="midnightblue" d="M404.6,-48C396.11,-48 387.34,-48 379.3,-48"/>
<polygon fill="midnightblue" stroke="midnightblue" points="404.76,-51.5 414.76,-48 404.76,-44.5 404.76,-51.5"/>
</g>
<!-- Node3 -->
<g id="node3" class="node">
<title>Node3</title>
<g id="a_node3"><a xlink:href="group__MCEuropeanEngineHLS.html#ga2a7f2438aec58df4fca9f58a8de66fbb" target="_top" xlink:title="Main process of the MCEuropeanEngine Application directives.">
<polygon fill="none" stroke="black" points="168,-76.5 168,-95.5 278,-95.5 278,-76.5 168,-76.5"/>
<text text-anchor="middle" x="223" y="-83.5" font-family="Helvetica,sans-Serif" font-size="10.00">mceuropeanengine</text>
</a>
</g>
</g>
<!-- Node2&#45;&gt;Node3 -->
<g id="edge2" class="edge">
<title>Node2&#45;&gt;Node3</title>
<path fill="none" stroke="midnightblue" d="M304.96,-60.68C288.54,-65.81 269.9,-71.64 254.65,-76.41"/>
<polygon fill="midnightblue" stroke="midnightblue" points="306.34,-63.91 314.84,-57.59 304.25,-57.23 306.34,-63.91"/>
</g>
<!-- Node5 -->
<g id="node5" class="node">
<title>Node5</title>
<g id="a_node5"><a xlink:href="group__SobelHLS.html#gae2400f612ea70da70714be60afc52630" target="_top" xlink:title="Main process of the Sobel Application directives.">
<polygon fill="none" stroke="black" points="201.5,-38.5 201.5,-57.5 244.5,-57.5 244.5,-38.5 201.5,-38.5"/>
<text text-anchor="middle" x="223" y="-45.5" font-family="Helvetica,sans-Serif" font-size="10.00">sobel</text>
</a>
</g>
</g>
<!-- Node2&#45;&gt;Node5 -->
<g id="edge4" class="edge">
<title>Node2&#45;&gt;Node5</title>
<path fill="none" stroke="midnightblue" d="M303.81,-48C283.89,-48 260.92,-48 244.76,-48"/>
<polygon fill="midnightblue" stroke="midnightblue" points="303.89,-51.5 313.89,-48 303.89,-44.5 303.89,-51.5"/>
</g>
<!-- Node8 -->
<g id="node8" class="node">
<title>Node8</title>
<g id="a_node8"><a xlink:href="group__WarpTransformHLS.html#ga629580531a041ab97320a4e4c73f20e0" target="_top" xlink:title="Main process of the WarpTransform Application directives.">
<polygon fill="none" stroke="black" points="176,-0.5 176,-19.5 270,-19.5 270,-0.5 176,-0.5"/>
<text text-anchor="middle" x="223" y="-7.5" font-family="Helvetica,sans-Serif" font-size="10.00">warp_transform</text>
</a>
</g>
</g>
<!-- Node2&#45;&gt;Node8 -->
<g id="edge7" class="edge">
<title>Node2&#45;&gt;Node8</title>
<path fill="none" stroke="midnightblue" d="M304.96,-35.32C288.54,-30.19 269.9,-24.36 254.65,-19.59"/>
<polygon fill="midnightblue" stroke="midnightblue" points="304.25,-38.77 314.84,-38.41 306.34,-32.09 304.25,-38.77"/>
</g>
<!-- Node4 -->
<g id="node4" class="node">
<title>Node4</title>
<g id="a_node4"><a xlink:href="group__MCEuropeanEngineTB.html#gad0919afcfb3151dee3f8653944ea7185" target="_top" xlink:title="Run a single iteration of the DUT model.">
<polygon fill="none" stroke="black" points="77,-76.5 77,-95.5 132,-95.5 132,-76.5 77,-76.5"/>
<text text-anchor="middle" x="104.5" y="-83.5" font-family="Helvetica,sans-Serif" font-size="10.00">stepDut</text>
</a>
</g>
</g>
<!-- Node3&#45;&gt;Node4 -->
<g id="edge3" class="edge">
<title>Node3&#45;&gt;Node4</title>
<path fill="none" stroke="midnightblue" d="M157.69,-86C148.74,-86 139.97,-86 132.26,-86"/>
<polygon fill="midnightblue" stroke="midnightblue" points="157.84,-89.5 167.84,-86 157.84,-82.5 157.84,-89.5"/>
</g>
<!-- Node6 -->
<g id="node6" class="node">
<title>Node6</title>
<g id="a_node6"><a xlink:href="group__SobelTB.html#gad0919afcfb3151dee3f8653944ea7185" target="_top" xlink:title="Run a single iteration of the DUT model.">
<polygon fill="none" stroke="black" points="77,-38.5 77,-57.5 132,-57.5 132,-38.5 77,-38.5"/>
<text text-anchor="middle" x="104.5" y="-45.5" font-family="Helvetica,sans-Serif" font-size="10.00">stepDut</text>
</a>
</g>
</g>
<!-- Node5&#45;&gt;Node6 -->
<g id="edge5" class="edge">
<title>Node5&#45;&gt;Node6</title>
<path fill="none" stroke="midnightblue" d="M191.29,-48C173,-48 150,-48 132.42,-48"/>
<polygon fill="midnightblue" stroke="midnightblue" points="191.44,-51.5 201.44,-48 191.44,-44.5 191.44,-51.5"/>
</g>
<!-- Node7 -->
<g id="node7" class="node">
<title>Node7</title>
<g id="a_node7"><a xlink:href="group__SobelTB.html#ga3c04138a5bfe5d72780bb7e82a18e627" target="_top" xlink:title="Main testbench of Hrris.">
<polygon fill="none" stroke="black" points="0,-38.5 0,-57.5 41,-57.5 41,-38.5 0,-38.5"/>
<text text-anchor="middle" x="20.5" y="-45.5" font-family="Helvetica,sans-Serif" font-size="10.00">main</text>
</a>
</g>
</g>
<!-- Node6&#45;&gt;Node7 -->
<g id="edge6" class="edge">
<title>Node6&#45;&gt;Node7</title>
<path fill="none" stroke="midnightblue" d="M66.57,-48C57.8,-48 48.77,-48 41.13,-48"/>
<polygon fill="midnightblue" stroke="midnightblue" points="66.65,-51.5 76.65,-48 66.65,-44.5 66.65,-51.5"/>
</g>
</g>
</svg>
