<?xml version="1.0" encoding="UTF-8" standalone="no"?>
<!DOCTYPE svg PUBLIC "-//W3C//DTD SVG 1.1//EN"
 "http://www.w3.org/Graphics/SVG/1.1/DTD/svg11.dtd">
<!-- Generated by graphviz version 2.43.0 (0)
 -->
<!-- Title: repos_for_Dox/cFp_Zoo/ROLE/quantitative_finance/hls/mceuropeanengine/include/mceuropeanengine.hpp Pages: 1 -->
<svg width="436pt" height="328pt"
 viewBox="0.00 0.00 435.50 328.00" xmlns="http://www.w3.org/2000/svg" xmlns:xlink="http://www.w3.org/1999/xlink">
<g id="graph0" class="graph" transform="scale(1 1) rotate(0) translate(4 324)">
<title>repos_for_Dox/cFp_Zoo/ROLE/quantitative_finance/hls/mceuropeanengine/include/mceuropeanengine.hpp</title>
<!-- Node1 -->
<g id="node1" class="node">
<title>Node1</title>
<g id="a_node1"><a xlink:title="The Role for a MCEuropeanEngine Example application (UDP or TCP)">
<polygon fill="#bfbfbf" stroke="black" points="176,-267.5 176,-319.5 345,-319.5 345,-267.5 176,-267.5"/>
<text text-anchor="start" x="184" y="-307.5" font-family="Helvetica,sans-Serif" font-size="10.00">repos_for_Dox/cFp_Zoo</text>
<text text-anchor="start" x="184" y="-296.5" font-family="Helvetica,sans-Serif" font-size="10.00">/ROLE/quantitative_finance</text>
<text text-anchor="start" x="184" y="-285.5" font-family="Helvetica,sans-Serif" font-size="10.00">/hls/mceuropeanengine/include</text>
<text text-anchor="middle" x="260.5" y="-274.5" font-family="Helvetica,sans-Serif" font-size="10.00">/mceuropeanengine.hpp</text>
</a>
</g>
</g>
<!-- Node2 -->
<g id="node2" class="node">
<title>Node2</title>
<g id="a_node2"><a xlink:href="ROLE_2quantitative__finance_2hls_2common_2include_2common_8hpp.html" target="_top" xlink:title=" ">
<polygon fill="none" stroke="black" points="76,-184 76,-225 261,-225 261,-184 76,-184"/>
<text text-anchor="start" x="84" y="-213" font-family="Helvetica,sans-Serif" font-size="10.00">repos_for_Dox/cFp_Zoo</text>
<text text-anchor="start" x="84" y="-202" font-family="Helvetica,sans-Serif" font-size="10.00">/ROLE/quantitative_finance</text>
<text text-anchor="middle" x="168.5" y="-191" font-family="Helvetica,sans-Serif" font-size="10.00">/hls/common/include/common.hpp</text>
</a>
</g>
</g>
<!-- Node1&#45;&gt;Node2 -->
<g id="edge1" class="edge">
<title>Node1&#45;&gt;Node2</title>
<path fill="none" stroke="midnightblue" d="M226.32,-260.18C213.86,-248.39 200.15,-235.43 189.21,-225.08"/>
<polygon fill="midnightblue" stroke="midnightblue" points="224.22,-263.01 233.89,-267.34 229.03,-257.92 224.22,-263.01"/>
</g>
<!-- Node6 -->
<g id="node6" class="node">
<title>Node6</title>
<g id="a_node6"><a xlink:href="mceuropeanengine_8cpp.html" target="_top" xlink:title="The Role for a MCEuropeanEngine Example application (UDP or TCP)">
<polygon fill="none" stroke="black" points="279.5,-178.5 279.5,-230.5 427.5,-230.5 427.5,-178.5 279.5,-178.5"/>
<text text-anchor="start" x="287.5" y="-218.5" font-family="Helvetica,sans-Serif" font-size="10.00">repos_for_Dox/cFp_Zoo</text>
<text text-anchor="start" x="287.5" y="-207.5" font-family="Helvetica,sans-Serif" font-size="10.00">/ROLE/quantitative_finance</text>
<text text-anchor="start" x="287.5" y="-196.5" font-family="Helvetica,sans-Serif" font-size="10.00">/hls/mceuropeanengine/src</text>
<text text-anchor="middle" x="353.5" y="-185.5" font-family="Helvetica,sans-Serif" font-size="10.00">/mceuropeanengine.cpp</text>
</a>
</g>
</g>
<!-- Node1&#45;&gt;Node6 -->
<g id="edge5" class="edge">
<title>Node1&#45;&gt;Node6</title>
<path fill="none" stroke="midnightblue" d="M294.85,-260.36C305.35,-250.54 316.74,-239.89 326.66,-230.61"/>
<polygon fill="midnightblue" stroke="midnightblue" points="292.31,-257.95 287.4,-267.34 297.09,-263.06 292.31,-257.95"/>
</g>
<!-- Node3 -->
<g id="node3" class="node">
<title>Node3</title>
<g id="a_node3"><a xlink:href="quantitative__finance_2hls_2common_2src_2common_8cpp.html" target="_top" xlink:title=" ">
<polygon fill="none" stroke="black" points="0,-95 0,-136 163,-136 163,-95 0,-95"/>
<text text-anchor="start" x="8" y="-124" font-family="Helvetica,sans-Serif" font-size="10.00">repos_for_Dox/cFp_Zoo</text>
<text text-anchor="start" x="8" y="-113" font-family="Helvetica,sans-Serif" font-size="10.00">/ROLE/quantitative_finance</text>
<text text-anchor="middle" x="81.5" y="-102" font-family="Helvetica,sans-Serif" font-size="10.00">/hls/common/src/common.cpp</text>
</a>
</g>
</g>
<!-- Node2&#45;&gt;Node3 -->
<g id="edge2" class="edge">
<title>Node2&#45;&gt;Node3</title>
<path fill="none" stroke="midnightblue" d="M141.4,-176.4C128.37,-163.37 113.05,-148.05 101.16,-136.16"/>
<polygon fill="midnightblue" stroke="midnightblue" points="139.21,-179.16 148.76,-183.76 144.16,-174.21 139.21,-179.16"/>
</g>
<!-- Node5 -->
<g id="node5" class="node">
<title>Node5</title>
<g id="a_node5"><a xlink:href="kernel__mc_8cpp.html" target="_top" xlink:title=" ">
<polygon fill="none" stroke="black" points="181.5,-89.5 181.5,-141.5 329.5,-141.5 329.5,-89.5 181.5,-89.5"/>
<text text-anchor="start" x="189.5" y="-129.5" font-family="Helvetica,sans-Serif" font-size="10.00">repos_for_Dox/cFp_Zoo</text>
<text text-anchor="start" x="189.5" y="-118.5" font-family="Helvetica,sans-Serif" font-size="10.00">/ROLE/quantitative_finance</text>
<text text-anchor="start" x="189.5" y="-107.5" font-family="Helvetica,sans-Serif" font-size="10.00">/hls/mceuropeanengine/src</text>
<text text-anchor="middle" x="255.5" y="-96.5" font-family="Helvetica,sans-Serif" font-size="10.00">/kernel_mc.cpp</text>
</a>
</g>
</g>
<!-- Node2&#45;&gt;Node5 -->
<g id="edge4" class="edge">
<title>Node2&#45;&gt;Node5</title>
<path fill="none" stroke="midnightblue" d="M195.59,-176.41C206.64,-165.36 219.35,-152.65 230.21,-141.79"/>
<polygon fill="midnightblue" stroke="midnightblue" points="192.84,-174.21 188.24,-183.76 197.79,-179.16 192.84,-174.21"/>
</g>
<!-- Node4 -->
<g id="node4" class="node">
<title>Node4</title>
<g id="a_node4"><a xlink:href="test__mceuropeanengine_8cpp.html" target="_top" xlink:title="Testbench for MCEuropeanEngine.">
<polygon fill="none" stroke="black" points="2.5,-0.5 2.5,-52.5 160.5,-52.5 160.5,-0.5 2.5,-0.5"/>
<text text-anchor="start" x="10.5" y="-40.5" font-family="Helvetica,sans-Serif" font-size="10.00">repos_for_Dox/cFp_Zoo</text>
<text text-anchor="start" x="10.5" y="-29.5" font-family="Helvetica,sans-Serif" font-size="10.00">/ROLE/quantitative_finance</text>
<text text-anchor="start" x="10.5" y="-18.5" font-family="Helvetica,sans-Serif" font-size="10.00">/hls/mceuropeanengine/test</text>
<text text-anchor="middle" x="81.5" y="-7.5" font-family="Helvetica,sans-Serif" font-size="10.00">/test_mceuropeanengine.cpp</text>
</a>
</g>
</g>
<!-- Node3&#45;&gt;Node4 -->
<g id="edge3" class="edge">
<title>Node3&#45;&gt;Node4</title>
<path fill="none" stroke="midnightblue" d="M81.5,-84.51C81.5,-74.17 81.5,-62.71 81.5,-52.79"/>
<polygon fill="midnightblue" stroke="midnightblue" points="78,-84.76 81.5,-94.76 85,-84.76 78,-84.76"/>
</g>
</g>
</svg>
