<?xml version="1.0" encoding="UTF-8" standalone="no"?>
<!DOCTYPE svg PUBLIC "-//W3C//DTD SVG 1.1//EN"
 "http://www.w3.org/Graphics/SVG/1.1/DTD/svg11.dtd">
<!-- Generated by graphviz version 2.43.0 (0)
 -->
<!-- Title: repos_for_Dox/cFp_Zoo/ROLE/quantitative_finance/hls/mceuropeanengine/src/mceuropeanengine.cpp Pages: 1 -->
<svg width="861pt" height="262pt"
 viewBox="0.00 0.00 860.50 262.00" xmlns="http://www.w3.org/2000/svg" xmlns:xlink="http://www.w3.org/1999/xlink">
<g id="graph0" class="graph" transform="scale(1 1) rotate(0) translate(4 258)">
<title>repos_for_Dox/cFp_Zoo/ROLE/quantitative_finance/hls/mceuropeanengine/src/mceuropeanengine.cpp</title>
<!-- Node1 -->
<g id="node1" class="node">
<title>Node1</title>
<g id="a_node1"><a xlink:title="The Role for a MCEuropeanEngine Example application (UDP or TCP)">
<polygon fill="#bfbfbf" stroke="black" points="191,-201.5 191,-253.5 339,-253.5 339,-201.5 191,-201.5"/>
<text text-anchor="start" x="199" y="-241.5" font-family="Helvetica,sans-Serif" font-size="10.00">repos_for_Dox/cFp_Zoo</text>
<text text-anchor="start" x="199" y="-230.5" font-family="Helvetica,sans-Serif" font-size="10.00">/ROLE/quantitative_finance</text>
<text text-anchor="start" x="199" y="-219.5" font-family="Helvetica,sans-Serif" font-size="10.00">/hls/mceuropeanengine/src</text>
<text text-anchor="middle" x="265" y="-208.5" font-family="Helvetica,sans-Serif" font-size="10.00">/mceuropeanengine.cpp</text>
</a>
</g>
</g>
<!-- Node2 -->
<g id="node2" class="node">
<title>Node2</title>
<g id="a_node2"><a xlink:href="quantitative__finance_2mceuropeanengine_2languages_2cplusplus_2include_2config_8h.html" target="_top" xlink:title="The configuration of a MCEuropeanEngine application (UDP or TCP)">
<polygon fill="none" stroke="black" points="86.5,-112.5 86.5,-164.5 253.5,-164.5 253.5,-112.5 86.5,-112.5"/>
<text text-anchor="start" x="94.5" y="-152.5" font-family="Helvetica,sans-Serif" font-size="10.00">../../../../../HOST</text>
<text text-anchor="start" x="94.5" y="-141.5" font-family="Helvetica,sans-Serif" font-size="10.00">/quantitative_finance</text>
<text text-anchor="start" x="94.5" y="-130.5" font-family="Helvetica,sans-Serif" font-size="10.00">/mceuropeanengine/languages</text>
<text text-anchor="middle" x="170" y="-119.5" font-family="Helvetica,sans-Serif" font-size="10.00">/cplusplus/include/config.h</text>
</a>
</g>
</g>
<!-- Node1&#45;&gt;Node2 -->
<g id="edge1" class="edge">
<title>Node1&#45;&gt;Node2</title>
<path fill="none" stroke="midnightblue" d="M237.52,-201.34C227.38,-192.05 215.75,-181.39 205.03,-171.58"/>
<polygon fill="midnightblue" stroke="midnightblue" points="207.15,-168.78 197.42,-164.61 202.43,-173.94 207.15,-168.78"/>
</g>
<!-- Node3 -->
<g id="node3" class="node">
<title>Node3</title>
<g id="a_node3"><a xlink:href="mceuropeanengine_8hpp.html" target="_top" xlink:title="The Role for a MCEuropeanEngine Example application (UDP or TCP)">
<polygon fill="none" stroke="black" points="271.5,-129 271.5,-148 450.5,-148 450.5,-129 271.5,-129"/>
<text text-anchor="middle" x="361" y="-136" font-family="Helvetica,sans-Serif" font-size="10.00">../include/mceuropeanengine.hpp</text>
</a>
</g>
</g>
<!-- Node1&#45;&gt;Node3 -->
<g id="edge2" class="edge">
<title>Node1&#45;&gt;Node3</title>
<path fill="none" stroke="midnightblue" d="M292.77,-201.34C309.25,-186.4 329.62,-167.94 343.79,-155.09"/>
<polygon fill="midnightblue" stroke="midnightblue" points="346.29,-157.56 351.35,-148.25 341.59,-152.37 346.29,-157.56"/>
</g>
<!-- Node4 -->
<g id="node4" class="node">
<title>Node4</title>
<g id="a_node4"><a xlink:title=" ">
<polygon fill="none" stroke="#bfbfbf" points="0,-0.5 0,-19.5 50,-19.5 50,-0.5 0,-0.5"/>
<text text-anchor="middle" x="25" y="-7.5" font-family="Helvetica,sans-Serif" font-size="10.00">stdio.h</text>
</a>
</g>
</g>
<!-- Node3&#45;&gt;Node4 -->
<g id="edge3" class="edge">
<title>Node3&#45;&gt;Node4</title>
<path fill="none" stroke="midnightblue" d="M327.93,-128.91C264.74,-112.48 132.66,-78.03 128,-76 96.9,-62.46 64.33,-40.36 44.34,-25.75"/>
<polygon fill="midnightblue" stroke="midnightblue" points="46.21,-22.78 36.1,-19.62 42.03,-28.4 46.21,-22.78"/>
</g>
<!-- Node5 -->
<g id="node5" class="node">
<title>Node5</title>
<g id="a_node5"><a xlink:title=" ">
<polygon fill="none" stroke="#bfbfbf" points="331,-56.5 331,-75.5 391,-75.5 391,-56.5 331,-56.5"/>
<text text-anchor="middle" x="361" y="-63.5" font-family="Helvetica,sans-Serif" font-size="10.00">iostream</text>
</a>
</g>
</g>
<!-- Node3&#45;&gt;Node5 -->
<g id="edge4" class="edge">
<title>Node3&#45;&gt;Node5</title>
<path fill="none" stroke="midnightblue" d="M361,-128.86C361,-118.18 361,-99.72 361,-85.73"/>
<polygon fill="midnightblue" stroke="midnightblue" points="364.5,-85.72 361,-75.72 357.5,-85.72 364.5,-85.72"/>
</g>
<!-- Node6 -->
<g id="node6" class="node">
<title>Node6</title>
<g id="a_node6"><a xlink:title=" ">
<polygon fill="none" stroke="#bfbfbf" points="409.5,-56.5 409.5,-75.5 464.5,-75.5 464.5,-56.5 409.5,-56.5"/>
<text text-anchor="middle" x="437" y="-63.5" font-family="Helvetica,sans-Serif" font-size="10.00">fstream</text>
</a>
</g>
</g>
<!-- Node3&#45;&gt;Node6 -->
<g id="edge5" class="edge">
<title>Node3&#45;&gt;Node6</title>
<path fill="none" stroke="midnightblue" d="M370.32,-128.86C382.63,-117.44 404.53,-97.12 419.86,-82.9"/>
<polygon fill="midnightblue" stroke="midnightblue" points="422.65,-85.08 427.6,-75.72 417.89,-79.95 422.65,-85.08"/>
</g>
<!-- Node7 -->
<g id="node7" class="node">
<title>Node7</title>
<g id="a_node7"><a xlink:title=" ">
<polygon fill="none" stroke="#bfbfbf" points="483,-56.5 483,-75.5 527,-75.5 527,-56.5 483,-56.5"/>
<text text-anchor="middle" x="505" y="-63.5" font-family="Helvetica,sans-Serif" font-size="10.00">string</text>
</a>
</g>
</g>
<!-- Node3&#45;&gt;Node7 -->
<g id="edge6" class="edge">
<title>Node3&#45;&gt;Node7</title>
<path fill="none" stroke="midnightblue" d="M378.37,-129C403.24,-116.82 449.19,-94.32 478.37,-80.04"/>
<polygon fill="midnightblue" stroke="midnightblue" points="480.13,-83.07 487.57,-75.53 477.05,-76.79 480.13,-83.07"/>
</g>
<!-- Node8 -->
<g id="node8" class="node">
<title>Node8</title>
<g id="a_node8"><a xlink:title=" ">
<polygon fill="none" stroke="#bfbfbf" points="545.5,-56.5 545.5,-75.5 598.5,-75.5 598.5,-56.5 545.5,-56.5"/>
<text text-anchor="middle" x="572" y="-63.5" font-family="Helvetica,sans-Serif" font-size="10.00">string.h</text>
</a>
</g>
</g>
<!-- Node3&#45;&gt;Node8 -->
<g id="edge7" class="edge">
<title>Node3&#45;&gt;Node8</title>
<path fill="none" stroke="midnightblue" d="M386.45,-129C424,-116.45 494.35,-92.94 536.82,-78.76"/>
<polygon fill="midnightblue" stroke="midnightblue" points="538.08,-82.02 546.46,-75.53 535.86,-75.38 538.08,-82.02"/>
</g>
<!-- Node9 -->
<g id="node9" class="node">
<title>Node9</title>
<g id="a_node9"><a xlink:title=" ">
<polygon fill="none" stroke="#bfbfbf" points="616.5,-56.5 616.5,-75.5 667.5,-75.5 667.5,-56.5 616.5,-56.5"/>
<text text-anchor="middle" x="642" y="-63.5" font-family="Helvetica,sans-Serif" font-size="10.00">math.h</text>
</a>
</g>
</g>
<!-- Node3&#45;&gt;Node9 -->
<g id="edge8" class="edge">
<title>Node3&#45;&gt;Node9</title>
<path fill="none" stroke="midnightblue" d="M396.22,-128.9C442.3,-117.62 525.82,-97.04 606.56,-76.35"/>
<polygon fill="midnightblue" stroke="midnightblue" points="607.57,-79.7 616.39,-73.82 605.83,-72.92 607.57,-79.7"/>
</g>
<!-- Node10 -->
<g id="node10" class="node">
<title>Node10</title>
<g id="a_node10"><a xlink:title=" ">
<polygon fill="none" stroke="#bfbfbf" points="68,-0.5 68,-19.5 148,-19.5 148,-0.5 68,-0.5"/>
<text text-anchor="middle" x="108" y="-7.5" font-family="Helvetica,sans-Serif" font-size="10.00">hls_stream.h</text>
</a>
</g>
</g>
<!-- Node3&#45;&gt;Node10 -->
<g id="edge9" class="edge">
<title>Node3&#45;&gt;Node10</title>
<path fill="none" stroke="midnightblue" d="M326.84,-128.94C270.86,-114.71 164.34,-86.69 150,-76 133.87,-63.98 122.25,-43.8 115.37,-29.11"/>
<polygon fill="midnightblue" stroke="midnightblue" points="118.42,-27.34 111.21,-19.57 112,-30.14 118.42,-27.34"/>
</g>
<!-- Node11 -->
<g id="node11" class="node">
<title>Node11</title>
<g id="a_node11"><a xlink:title=" ">
<polygon fill="none" stroke="#bfbfbf" points="248,-0.5 248,-19.5 304,-19.5 304,-0.5 248,-0.5"/>
<text text-anchor="middle" x="276" y="-7.5" font-family="Helvetica,sans-Serif" font-size="10.00">ap_int.h</text>
</a>
</g>
</g>
<!-- Node3&#45;&gt;Node11 -->
<g id="edge10" class="edge">
<title>Node3&#45;&gt;Node11</title>
<path fill="none" stroke="midnightblue" d="M354.37,-128.9C345.39,-117.15 328.99,-95.33 316,-76 305.4,-60.22 294.12,-41.72 286.25,-28.5"/>
<polygon fill="midnightblue" stroke="midnightblue" points="289.06,-26.38 280.97,-19.55 283.04,-29.94 289.06,-26.38"/>
</g>
<!-- Node12 -->
<g id="node12" class="node">
<title>Node12</title>
<g id="a_node12"><a xlink:title=" ">
<polygon fill="none" stroke="#bfbfbf" points="322.5,-0.5 322.5,-19.5 375.5,-19.5 375.5,-0.5 322.5,-0.5"/>
<text text-anchor="middle" x="349" y="-7.5" font-family="Helvetica,sans-Serif" font-size="10.00">stdint.h</text>
</a>
</g>
</g>
<!-- Node3&#45;&gt;Node12 -->
<g id="edge11" class="edge">
<title>Node3&#45;&gt;Node12</title>
<path fill="none" stroke="midnightblue" d="M353.12,-128.73C343.58,-117.47 328.06,-96.88 322,-76 317.12,-59.19 326.15,-40.84 335.06,-27.94"/>
<polygon fill="midnightblue" stroke="midnightblue" points="338.11,-29.71 341.32,-19.61 332.51,-25.5 338.11,-29.71"/>
</g>
<!-- Node13 -->
<g id="node13" class="node">
<title>Node13</title>
<g id="a_node13"><a xlink:href="network_8hpp.html" target="_top" xlink:title=" ">
<polygon fill="none" stroke="black" points="159.5,-56.5 159.5,-75.5 236.5,-75.5 236.5,-56.5 159.5,-56.5"/>
<text text-anchor="middle" x="198" y="-63.5" font-family="Helvetica,sans-Serif" font-size="10.00">network.hpp</text>
</a>
</g>
</g>
<!-- Node3&#45;&gt;Node13 -->
<g id="edge12" class="edge">
<title>Node3&#45;&gt;Node13</title>
<path fill="none" stroke="midnightblue" d="M341.34,-129C312.95,-116.72 260.26,-93.93 227.28,-79.67"/>
<polygon fill="midnightblue" stroke="midnightblue" points="228.3,-76.29 217.73,-75.53 225.52,-82.72 228.3,-76.29"/>
</g>
<!-- Node15 -->
<g id="node15" class="node">
<title>Node15</title>
<g id="a_node15"><a xlink:href="kernel__mceuropeanengine_8hpp.html" target="_top" xlink:title=" ">
<polygon fill="none" stroke="black" points="685.5,-56.5 685.5,-75.5 852.5,-75.5 852.5,-56.5 685.5,-56.5"/>
<text text-anchor="middle" x="769" y="-63.5" font-family="Helvetica,sans-Serif" font-size="10.00">kernel_mceuropeanengine.hpp</text>
</a>
</g>
</g>
<!-- Node3&#45;&gt;Node15 -->
<g id="edge18" class="edge">
<title>Node3&#45;&gt;Node15</title>
<path fill="none" stroke="midnightblue" d="M410.21,-129C485.42,-116 628.7,-91.24 709.59,-77.27"/>
<polygon fill="midnightblue" stroke="midnightblue" points="710.35,-80.69 719.61,-75.53 709.16,-73.79 710.35,-80.69"/>
</g>
<!-- Node13&#45;&gt;Node4 -->
<g id="edge14" class="edge">
<title>Node13&#45;&gt;Node4</title>
<path fill="none" stroke="midnightblue" d="M170.59,-56.44C140.54,-47.06 92.27,-32 59.63,-21.81"/>
<polygon fill="midnightblue" stroke="midnightblue" points="60.63,-18.45 50.04,-18.82 58.54,-25.14 60.63,-18.45"/>
</g>
<!-- Node13&#45;&gt;Node10 -->
<g id="edge17" class="edge">
<title>Node13&#45;&gt;Node10</title>
<path fill="none" stroke="midnightblue" d="M183.54,-56.32C169.5,-47.9 147.95,-34.97 131.46,-25.07"/>
<polygon fill="midnightblue" stroke="midnightblue" points="132.8,-21.8 122.42,-19.65 129.2,-27.8 132.8,-21.8"/>
</g>
<!-- Node13&#45;&gt;Node11 -->
<g id="edge15" class="edge">
<title>Node13&#45;&gt;Node11</title>
<path fill="none" stroke="midnightblue" d="M210.53,-56.32C222.59,-47.98 241.03,-35.21 255.27,-25.35"/>
<polygon fill="midnightblue" stroke="midnightblue" points="257.27,-28.22 263.5,-19.65 253.28,-22.47 257.27,-28.22"/>
</g>
<!-- Node13&#45;&gt;Node12 -->
<g id="edge13" class="edge">
<title>Node13&#45;&gt;Node12</title>
<path fill="none" stroke="midnightblue" d="M221.93,-56.44C247.22,-47.4 287.3,-33.06 315.68,-22.92"/>
<polygon fill="midnightblue" stroke="midnightblue" points="316.95,-26.18 325.19,-19.52 314.59,-19.59 316.95,-26.18"/>
</g>
<!-- Node14 -->
<g id="node14" class="node">
<title>Node14</title>
<g id="a_node14"><a xlink:title=" ">
<polygon fill="none" stroke="#bfbfbf" points="166,-0.5 166,-19.5 230,-19.5 230,-0.5 166,-0.5"/>
<text text-anchor="middle" x="198" y="-7.5" font-family="Helvetica,sans-Serif" font-size="10.00">ap_utils.h</text>
</a>
</g>
</g>
<!-- Node13&#45;&gt;Node14 -->
<g id="edge16" class="edge">
<title>Node13&#45;&gt;Node14</title>
<path fill="none" stroke="midnightblue" d="M198,-56.08C198,-49.01 198,-38.86 198,-29.99"/>
<polygon fill="midnightblue" stroke="midnightblue" points="201.5,-29.75 198,-19.75 194.5,-29.75 201.5,-29.75"/>
</g>
</g>
</svg>
