<?xml version="1.0" encoding="UTF-8" standalone="no"?>
<!DOCTYPE svg PUBLIC "-//W3C//DTD SVG 1.1//EN"
 "http://www.w3.org/Graphics/SVG/1.1/DTD/svg11.dtd">
<!-- Generated by graphviz version 2.43.0 (0)
 -->
<!-- Title: repos_for_Dox/cFp_Zoo/ROLE/vision/hls/median_blur/include/xf_gammacorrection_config.h Pages: 1 -->
<svg width="1063pt" height="128pt"
 viewBox="0.00 0.00 1063.00 128.00" xmlns="http://www.w3.org/2000/svg" xmlns:xlink="http://www.w3.org/1999/xlink">
<g id="graph0" class="graph" transform="scale(1 1) rotate(0) translate(4 124)">
<title>repos_for_Dox/cFp_Zoo/ROLE/vision/hls/median_blur/include/xf_gammacorrection_config.h</title>
<!-- Node1 -->
<g id="node1" class="node">
<title>Node1</title>
<g id="a_node1"><a xlink:title=" ">
<polygon fill="#bfbfbf" stroke="black" points="370.5,-67.5 370.5,-119.5 553.5,-119.5 553.5,-67.5 370.5,-67.5"/>
<text text-anchor="start" x="378.5" y="-107.5" font-family="Helvetica,sans-Serif" font-size="10.00">repos_for_Dox/cFp_Zoo</text>
<text text-anchor="start" x="378.5" y="-96.5" font-family="Helvetica,sans-Serif" font-size="10.00">/ROLE/vision/hls/median</text>
<text text-anchor="start" x="378.5" y="-85.5" font-family="Helvetica,sans-Serif" font-size="10.00">_blur/include/xf_gammacorrection</text>
<text text-anchor="middle" x="462" y="-74.5" font-family="Helvetica,sans-Serif" font-size="10.00">_config.h</text>
</a>
</g>
</g>
<!-- Node2 -->
<g id="node2" class="node">
<title>Node2</title>
<g id="a_node2"><a xlink:title=" ">
<polygon fill="none" stroke="#bfbfbf" points="0,-6 0,-25 80,-25 80,-6 0,-6"/>
<text text-anchor="middle" x="40" y="-13" font-family="Helvetica,sans-Serif" font-size="10.00">hls_stream.h</text>
</a>
</g>
</g>
<!-- Node1&#45;&gt;Node2 -->
<g id="edge1" class="edge">
<title>Node1&#45;&gt;Node2</title>
<path fill="none" stroke="midnightblue" d="M370.17,-80.61C294.29,-70 183.99,-52.8 89,-31 84.87,-30.05 80.57,-28.95 76.31,-27.79"/>
<polygon fill="midnightblue" stroke="midnightblue" points="77.12,-24.38 66.54,-25.01 75.2,-31.11 77.12,-24.38"/>
</g>
<!-- Node3 -->
<g id="node3" class="node">
<title>Node3</title>
<g id="a_node3"><a xlink:title=" ">
<polygon fill="none" stroke="#bfbfbf" points="98,-6 98,-25 154,-25 154,-6 98,-6"/>
<text text-anchor="middle" x="126" y="-13" font-family="Helvetica,sans-Serif" font-size="10.00">ap_int.h</text>
</a>
</g>
</g>
<!-- Node1&#45;&gt;Node3 -->
<g id="edge2" class="edge">
<title>Node1&#45;&gt;Node3</title>
<path fill="none" stroke="midnightblue" d="M370.39,-77.84C310.7,-67.26 231.47,-51.3 163,-31 160.57,-30.28 158.07,-29.47 155.58,-28.6"/>
<polygon fill="midnightblue" stroke="midnightblue" points="156.73,-25.3 146.14,-25.11 154.3,-31.86 156.73,-25.3"/>
</g>
<!-- Node4 -->
<g id="node4" class="node">
<title>Node4</title>
<g id="a_node4"><a xlink:title=" ">
<polygon fill="none" stroke="#bfbfbf" points="172.5,-6 172.5,-25 313.5,-25 313.5,-6 172.5,-6"/>
<text text-anchor="middle" x="243" y="-13" font-family="Helvetica,sans-Serif" font-size="10.00">common/xf_common.hpp</text>
</a>
</g>
</g>
<!-- Node1&#45;&gt;Node4 -->
<g id="edge3" class="edge">
<title>Node1&#45;&gt;Node4</title>
<path fill="none" stroke="midnightblue" d="M389.68,-67.4C351.85,-54.27 307.3,-38.81 277.3,-28.4"/>
<polygon fill="midnightblue" stroke="midnightblue" points="278.31,-25.05 267.72,-25.08 276.02,-31.66 278.31,-25.05"/>
</g>
<!-- Node5 -->
<g id="node5" class="node">
<title>Node5</title>
<g id="a_node5"><a xlink:title=" ">
<polygon fill="none" stroke="#bfbfbf" points="331.5,-6 331.5,-25 456.5,-25 456.5,-6 331.5,-6"/>
<text text-anchor="middle" x="394" y="-13" font-family="Helvetica,sans-Serif" font-size="10.00">common/xf_utility.hpp</text>
</a>
</g>
</g>
<!-- Node1&#45;&gt;Node5 -->
<g id="edge4" class="edge">
<title>Node1&#45;&gt;Node5</title>
<path fill="none" stroke="midnightblue" d="M439.36,-67.19C429.22,-55.86 417.55,-42.82 408.59,-32.81"/>
<polygon fill="midnightblue" stroke="midnightblue" points="411.07,-30.33 401.79,-25.21 405.85,-35 411.07,-30.33"/>
</g>
<!-- Node6 -->
<g id="node6" class="node">
<title>Node6</title>
<g id="a_node6"><a xlink:title=" ">
<polygon fill="none" stroke="#bfbfbf" points="475,-0.5 475,-30.5 587,-30.5 587,-0.5 475,-0.5"/>
<text text-anchor="start" x="483" y="-18.5" font-family="Helvetica,sans-Serif" font-size="10.00">features/xf_median</text>
<text text-anchor="middle" x="531" y="-7.5" font-family="Helvetica,sans-Serif" font-size="10.00">_blur.hpp</text>
</a>
</g>
</g>
<!-- Node1&#45;&gt;Node6 -->
<g id="edge5" class="edge">
<title>Node1&#45;&gt;Node6</title>
<path fill="none" stroke="midnightblue" d="M484.98,-67.19C493.47,-57.84 503.01,-47.33 511.19,-38.32"/>
<polygon fill="midnightblue" stroke="midnightblue" points="513.85,-40.6 517.98,-30.85 508.66,-35.9 513.85,-40.6"/>
</g>
<!-- Node7 -->
<g id="node7" class="node">
<title>Node7</title>
<g id="a_node7"><a xlink:href="median__blur_2include_2xf__config__params_8h.html" target="_top" xlink:title="The MedianBlur IP configuration header.">
<polygon fill="none" stroke="black" points="605,-6 605,-25 717,-25 717,-6 605,-6"/>
<text text-anchor="middle" x="661" y="-13" font-family="Helvetica,sans-Serif" font-size="10.00">xf_config_params.h</text>
</a>
</g>
</g>
<!-- Node1&#45;&gt;Node7 -->
<g id="edge6" class="edge">
<title>Node1&#45;&gt;Node7</title>
<path fill="none" stroke="midnightblue" d="M527.71,-67.4C561.79,-54.39 601.87,-39.08 629.12,-28.68"/>
<polygon fill="midnightblue" stroke="midnightblue" points="630.45,-31.92 638.54,-25.08 627.95,-25.38 630.45,-31.92"/>
</g>
<!-- Node8 -->
<g id="node8" class="node">
<title>Node8</title>
<g id="a_node8"><a xlink:title=" ">
<polygon fill="none" stroke="#bfbfbf" points="735,-0.5 735,-30.5 855,-30.5 855,-0.5 735,-0.5"/>
<text text-anchor="start" x="743" y="-18.5" font-family="Helvetica,sans-Serif" font-size="10.00">../../../host/median</text>
<text text-anchor="middle" x="795" y="-7.5" font-family="Helvetica,sans-Serif" font-size="10.00">_blur/include/config.h</text>
</a>
</g>
</g>
<!-- Node1&#45;&gt;Node8 -->
<g id="edge7" class="edge">
<title>Node1&#45;&gt;Node8</title>
<path fill="none" stroke="midnightblue" d="M553.88,-71.53C607.91,-59.2 675.16,-43.85 724.9,-32.5"/>
<polygon fill="midnightblue" stroke="midnightblue" points="725.95,-35.85 734.92,-30.21 724.39,-29.03 725.95,-35.85"/>
</g>
<!-- Node9 -->
<g id="node9" class="node">
<title>Node9</title>
<g id="a_node9"><a xlink:title=" ">
<polygon fill="none" stroke="#bfbfbf" points="873,-6 873,-25 1055,-25 1055,-6 873,-6"/>
<text text-anchor="middle" x="964" y="-13" font-family="Helvetica,sans-Serif" font-size="10.00">imgproc/xf_gammacorrection.hpp</text>
</a>
</g>
</g>
<!-- Node1&#45;&gt;Node9 -->
<g id="edge8" class="edge">
<title>Node1&#45;&gt;Node9</title>
<path fill="none" stroke="midnightblue" d="M553.78,-78.6C653.12,-63.57 809.12,-39.95 897.36,-26.59"/>
<polygon fill="midnightblue" stroke="midnightblue" points="898.15,-30.01 907.51,-25.05 897.1,-23.09 898.15,-30.01"/>
</g>
</g>
</svg>
