<?xml version="1.0" encoding="UTF-8" standalone="no"?>
<!DOCTYPE svg PUBLIC "-//W3C//DTD SVG 1.1//EN"
 "http://www.w3.org/Graphics/SVG/1.1/DTD/svg11.dtd">
<!-- Generated by graphviz version 2.43.0 (0)
 -->
<!-- Title: repos_for_Dox/cFp_Zoo/ROLE/custom/hls/memtest/include/memtest_pattern_library.hpp Pages: 1 -->
<svg width="573pt" height="195pt"
 viewBox="0.00 0.00 573.00 195.00" xmlns="http://www.w3.org/2000/svg" xmlns:xlink="http://www.w3.org/1999/xlink">
<g id="graph0" class="graph" transform="scale(1 1) rotate(0) translate(4 191)">
<title>repos_for_Dox/cFp_Zoo/ROLE/custom/hls/memtest/include/memtest_pattern_library.hpp</title>
<!-- Node1 -->
<g id="node1" class="node">
<title>Node1</title>
<g id="a_node1"><a xlink:title="A library for memory test functionalities: sequence generation, reading, writing.">
<polygon fill="#bfbfbf" stroke="black" points="190.5,-134.5 190.5,-186.5 339.5,-186.5 339.5,-134.5 190.5,-134.5"/>
<text text-anchor="start" x="198.5" y="-174.5" font-family="Helvetica,sans-Serif" font-size="10.00">repos_for_Dox/cFp_Zoo</text>
<text text-anchor="start" x="198.5" y="-163.5" font-family="Helvetica,sans-Serif" font-size="10.00">/ROLE/custom/hls/memtest</text>
<text text-anchor="start" x="198.5" y="-152.5" font-family="Helvetica,sans-Serif" font-size="10.00">/include/memtest_pattern</text>
<text text-anchor="middle" x="265" y="-141.5" font-family="Helvetica,sans-Serif" font-size="10.00">_library.hpp</text>
</a>
</g>
</g>
<!-- Node2 -->
<g id="node2" class="node">
<title>Node2</title>
<g id="a_node2"><a xlink:title=" ">
<polygon fill="none" stroke="#bfbfbf" points="0,-0.5 0,-19.5 50,-19.5 50,-0.5 0,-0.5"/>
<text text-anchor="middle" x="25" y="-7.5" font-family="Helvetica,sans-Serif" font-size="10.00">stdio.h</text>
</a>
</g>
</g>
<!-- Node1&#45;&gt;Node2 -->
<g id="edge1" class="edge">
<title>Node1&#45;&gt;Node2</title>
<path fill="none" stroke="midnightblue" d="M192.5,-134.4C168.53,-124.65 142.31,-112.34 120,-98 88.21,-77.56 56.99,-46.2 39.44,-27.24"/>
<polygon fill="midnightblue" stroke="midnightblue" points="41.91,-24.75 32.6,-19.71 36.74,-29.46 41.91,-24.75"/>
</g>
<!-- Node3 -->
<g id="node3" class="node">
<title>Node3</title>
<g id="a_node3"><a xlink:title=" ">
<polygon fill="none" stroke="#bfbfbf" points="331,-67.5 331,-86.5 391,-86.5 391,-67.5 331,-67.5"/>
<text text-anchor="middle" x="361" y="-74.5" font-family="Helvetica,sans-Serif" font-size="10.00">iostream</text>
</a>
</g>
</g>
<!-- Node1&#45;&gt;Node3 -->
<g id="edge2" class="edge">
<title>Node1&#45;&gt;Node3</title>
<path fill="none" stroke="midnightblue" d="M294.59,-134.38C310.46,-120.9 329.51,-104.74 343.12,-93.18"/>
<polygon fill="midnightblue" stroke="midnightblue" points="345.47,-95.78 350.82,-86.64 340.94,-90.44 345.47,-95.78"/>
</g>
<!-- Node4 -->
<g id="node4" class="node">
<title>Node4</title>
<g id="a_node4"><a xlink:title=" ">
<polygon fill="none" stroke="#bfbfbf" points="68,-0.5 68,-19.5 148,-19.5 148,-0.5 68,-0.5"/>
<text text-anchor="middle" x="108" y="-7.5" font-family="Helvetica,sans-Serif" font-size="10.00">hls_stream.h</text>
</a>
</g>
</g>
<!-- Node1&#45;&gt;Node4 -->
<g id="edge3" class="edge">
<title>Node1&#45;&gt;Node4</title>
<path fill="none" stroke="midnightblue" d="M201.34,-134.47C183.12,-125.07 164.34,-112.95 150,-98 131.08,-78.28 119.23,-48.42 113.12,-29.32"/>
<polygon fill="midnightblue" stroke="midnightblue" points="116.46,-28.28 110.23,-19.71 109.75,-30.29 116.46,-28.28"/>
</g>
<!-- Node5 -->
<g id="node5" class="node">
<title>Node5</title>
<g id="a_node5"><a xlink:title=" ">
<polygon fill="none" stroke="#bfbfbf" points="248,-0.5 248,-19.5 304,-19.5 304,-0.5 248,-0.5"/>
<text text-anchor="middle" x="276" y="-7.5" font-family="Helvetica,sans-Serif" font-size="10.00">ap_int.h</text>
</a>
</g>
</g>
<!-- Node1&#45;&gt;Node5 -->
<g id="edge4" class="edge">
<title>Node1&#45;&gt;Node5</title>
<path fill="none" stroke="midnightblue" d="M266.87,-134.31C269.06,-104.76 272.63,-56.43 274.6,-29.91"/>
<polygon fill="midnightblue" stroke="midnightblue" points="278.11,-29.92 275.36,-19.69 271.13,-29.41 278.11,-29.92"/>
</g>
<!-- Node6 -->
<g id="node6" class="node">
<title>Node6</title>
<g id="a_node6"><a xlink:title=" ">
<polygon fill="none" stroke="#bfbfbf" points="322.5,-0.5 322.5,-19.5 375.5,-19.5 375.5,-0.5 322.5,-0.5"/>
<text text-anchor="middle" x="349" y="-7.5" font-family="Helvetica,sans-Serif" font-size="10.00">stdint.h</text>
</a>
</g>
</g>
<!-- Node1&#45;&gt;Node6 -->
<g id="edge5" class="edge">
<title>Node1&#45;&gt;Node6</title>
<path fill="none" stroke="midnightblue" d="M278.56,-134.26C289.95,-113.21 306.76,-82.5 322,-56 327.29,-46.8 333.35,-36.66 338.39,-28.34"/>
<polygon fill="midnightblue" stroke="midnightblue" points="341.52,-29.93 343.73,-19.57 335.54,-26.29 341.52,-29.93"/>
</g>
<!-- Node7 -->
<g id="node7" class="node">
<title>Node7</title>
<g id="a_node7"><a xlink:href="custom_2memtest_2languages_2cplusplus_2include_2config_8h.html" target="_top" xlink:title="The configuration of a Memtest Example application (UDP or TCP)">
<polygon fill="none" stroke="black" points="409,-56.5 409,-97.5 565,-97.5 565,-56.5 409,-56.5"/>
<text text-anchor="start" x="417" y="-85.5" font-family="Helvetica,sans-Serif" font-size="10.00">../../../../../HOST</text>
<text text-anchor="start" x="417" y="-74.5" font-family="Helvetica,sans-Serif" font-size="10.00">/custom/memtest/languages</text>
<text text-anchor="middle" x="487" y="-63.5" font-family="Helvetica,sans-Serif" font-size="10.00">/cplusplus/include/config.h</text>
</a>
</g>
</g>
<!-- Node1&#45;&gt;Node7 -->
<g id="edge6" class="edge">
<title>Node1&#45;&gt;Node7</title>
<path fill="none" stroke="midnightblue" d="M333.12,-134.49C362.2,-123.82 395.93,-111.43 424.38,-100.99"/>
<polygon fill="midnightblue" stroke="midnightblue" points="425.64,-104.26 433.82,-97.52 423.22,-97.68 425.64,-104.26"/>
</g>
<!-- Node8 -->
<g id="node8" class="node">
<title>Node8</title>
<g id="a_node8"><a xlink:href="network_8hpp.html" target="_top" xlink:title=" ">
<polygon fill="none" stroke="black" points="159.5,-67.5 159.5,-86.5 236.5,-86.5 236.5,-67.5 159.5,-67.5"/>
<text text-anchor="middle" x="198" y="-74.5" font-family="Helvetica,sans-Serif" font-size="10.00">network.hpp</text>
</a>
</g>
</g>
<!-- Node1&#45;&gt;Node8 -->
<g id="edge7" class="edge">
<title>Node1&#45;&gt;Node8</title>
<path fill="none" stroke="midnightblue" d="M244.17,-134.16C233.52,-121.2 220.86,-105.81 211.49,-94.41"/>
<polygon fill="midnightblue" stroke="midnightblue" points="214.12,-92.09 205.06,-86.59 208.71,-96.54 214.12,-92.09"/>
</g>
<!-- Node8&#45;&gt;Node2 -->
<g id="edge9" class="edge">
<title>Node8&#45;&gt;Node2</title>
<path fill="none" stroke="midnightblue" d="M175.03,-67.37C144.83,-56.02 91.6,-36.02 57.34,-23.15"/>
<polygon fill="midnightblue" stroke="midnightblue" points="58.38,-19.8 47.79,-19.56 55.92,-26.36 58.38,-19.8"/>
</g>
<!-- Node8&#45;&gt;Node4 -->
<g id="edge12" class="edge">
<title>Node8&#45;&gt;Node4</title>
<path fill="none" stroke="midnightblue" d="M185.86,-67.23C171.15,-56.61 146.14,-38.55 128.44,-25.76"/>
<polygon fill="midnightblue" stroke="midnightblue" points="130.1,-22.64 119.95,-19.63 126,-28.32 130.1,-22.64"/>
</g>
<!-- Node8&#45;&gt;Node5 -->
<g id="edge10" class="edge">
<title>Node8&#45;&gt;Node5</title>
<path fill="none" stroke="midnightblue" d="M208.52,-67.23C221.15,-56.71 242.54,-38.88 257.86,-26.12"/>
<polygon fill="midnightblue" stroke="midnightblue" points="260.21,-28.72 265.65,-19.63 255.72,-23.34 260.21,-28.72"/>
</g>
<!-- Node8&#45;&gt;Node6 -->
<g id="edge8" class="edge">
<title>Node8&#45;&gt;Node6</title>
<path fill="none" stroke="midnightblue" d="M218.05,-67.37C244,-56.2 289.42,-36.65 319.36,-23.76"/>
<polygon fill="midnightblue" stroke="midnightblue" points="321.06,-26.84 328.87,-19.67 318.3,-20.41 321.06,-26.84"/>
</g>
<!-- Node9 -->
<g id="node9" class="node">
<title>Node9</title>
<g id="a_node9"><a xlink:title=" ">
<polygon fill="none" stroke="#bfbfbf" points="166,-0.5 166,-19.5 230,-19.5 230,-0.5 166,-0.5"/>
<text text-anchor="middle" x="198" y="-7.5" font-family="Helvetica,sans-Serif" font-size="10.00">ap_utils.h</text>
</a>
</g>
</g>
<!-- Node8&#45;&gt;Node9 -->
<g id="edge11" class="edge">
<title>Node8&#45;&gt;Node9</title>
<path fill="none" stroke="midnightblue" d="M198,-67.23C198,-57.68 198,-42.12 198,-29.78"/>
<polygon fill="midnightblue" stroke="midnightblue" points="201.5,-29.63 198,-19.63 194.5,-29.63 201.5,-29.63"/>
</g>
</g>
</svg>
