<?xml version="1.0" encoding="UTF-8" standalone="no"?>
<!DOCTYPE svg PUBLIC "-//W3C//DTD SVG 1.1//EN"
 "http://www.w3.org/Graphics/SVG/1.1/DTD/svg11.dtd">
<!-- Generated by graphviz version 2.43.0 (0)
 -->
<!-- Title: repos_for_Dox/cFp_Zoo/ROLE/custom/hls/memtest/include/memtest_processing.hpp Pages: 1 -->
<!--zoomable 251 -->
<svg id="main" version="1.1" xmlns="http://www.w3.org/2000/svg" xmlns:xlink="http://www.w3.org/1999/xlink" xml:space="preserve" onload="init(evt)">
<style type="text/css"><![CDATA[
.edge:hover path { stroke: red; }
.edge:hover polygon { stroke: red; fill: red; }
]]></style>
<script type="text/javascript"><![CDATA[
var edges = document.getElementsByTagName('g');
if (edges && edges.length) {
  for (var i=0;i<edges.length;i++) {
    if (edges[i].id.substr(0,4)=='edge') {
      edges[i].setAttribute('class','edge');
    }
  }
}
]]></script>
        <defs>
                <circle id="rim" cx="0" cy="0" r="7"/>
                <circle id="rim2" cx="0" cy="0" r="3.5"/>
                <g id="zoomPlus">
                        <use xlink:href="#rim" fill="#404040">
                                <set attributeName="fill" to="#808080" begin="zoomplus.mouseover" end="zoomplus.mouseout"/>
                        </use>
                        <path d="M-4,0h8M0,-4v8" fill="none" stroke="white" stroke-width="1.5" pointer-events="none"/>
                </g>
                <g id="zoomMin">
                        <use xlink:href="#rim" fill="#404040">
                                <set attributeName="fill" to="#808080" begin="zoomminus.mouseover" end="zoomminus.mouseout"/>
                        </use>
                        <path d="M-4,0h8" fill="none" stroke="white" stroke-width="1.5" pointer-events="none"/>
                </g>
                <g id="dirArrow">
                        <path fill="none" stroke="white" stroke-width="1.5" d="M0,-3.0v7 M-2.5,-0.5L0,-3.0L2.5,-0.5"/>
                </g>
               <g id="resetDef">
                       <use xlink:href="#rim2" fill="#404040">
                               <set attributeName="fill" to="#808080" begin="reset.mouseover" end="reset.mouseout"/>
                       </use>
               </g>
        </defs>

<script type="text/javascript">
var viewWidth = 634;
var viewHeight = 251;
var sectionId = 'dynsection-0';
</script>
<script xlink:href="svgpan.js"/>
<svg id="graph" class="graph">
<g id="viewport">
<title>repos_for_Dox/cFp_Zoo/ROLE/custom/hls/memtest/include/memtest_processing.hpp</title>
<!-- Node1 -->
<g id="node1" class="node">
<title>Node1</title>
<g id="a_node1"><a xlink:title="The processing template for the memory test.">
<polygon fill="#bfbfbf" stroke="black" points="231.5,-201.5 231.5,-242.5 412.5,-242.5 412.5,-201.5 231.5,-201.5"/>
<text text-anchor="start" x="239.5" y="-230.5" font-family="Helvetica,sans-Serif" font-size="10.00">repos_for_Dox/cFp_Zoo</text>
<text text-anchor="start" x="239.5" y="-219.5" font-family="Helvetica,sans-Serif" font-size="10.00">/ROLE/custom/hls/memtest</text>
<text text-anchor="middle" x="322" y="-208.5" font-family="Helvetica,sans-Serif" font-size="10.00">/include/memtest_processing.hpp</text>
</a>
</g>
</g>
<!-- Node2 -->
<g id="node2" class="node">
<title>Node2</title>
<g id="a_node2"><a xlink:href="memtest__library_8hpp.html" target="_top" xlink:title="A library for some common functionalities: Network&#45;Related Memory interaction Performance Counters.">
<polygon fill="none" stroke="black" points="340,-134.5 340,-164.5 448,-164.5 448,-134.5 340,-134.5"/>
<text text-anchor="start" x="348" y="-152.5" font-family="Helvetica,sans-Serif" font-size="10.00">../include/memtest</text>
<text text-anchor="middle" x="394" y="-141.5" font-family="Helvetica,sans-Serif" font-size="10.00">_library.hpp</text>
</a>
</g>
</g>
<!-- Node1&#45;&gt;Node2 -->
<g id="edge1" class="edge">
<title>Node1&#45;&gt;Node2</title>
<path fill="none" stroke="midnightblue" d="M342.06,-201.36C351.38,-192.23 362.49,-181.35 372.04,-172"/>
<polygon fill="midnightblue" stroke="midnightblue" points="374.61,-174.39 379.3,-164.89 369.71,-169.39 374.61,-174.39"/>
</g>
<!-- Node11 -->
<g id="node11" class="node">
<title>Node11</title>
<g id="a_node11"><a xlink:href="memtest__pattern__library_8hpp.html" target="_top" xlink:title="A library for memory test functionalities: sequence generation, reading, writing.">
<polygon fill="none" stroke="black" points="201.5,-134.5 201.5,-164.5 314.5,-164.5 314.5,-134.5 201.5,-134.5"/>
<text text-anchor="start" x="209.5" y="-152.5" font-family="Helvetica,sans-Serif" font-size="10.00">../include/memtest</text>
<text text-anchor="middle" x="258" y="-141.5" font-family="Helvetica,sans-Serif" font-size="10.00">_pattern_library.hpp</text>
</a>
</g>
</g>
<!-- Node1&#45;&gt;Node11 -->
<g id="edge14" class="edge">
<title>Node1&#45;&gt;Node11</title>
<path fill="none" stroke="midnightblue" d="M304.17,-201.36C296.05,-192.41 286.4,-181.78 278.02,-172.56"/>
<polygon fill="midnightblue" stroke="midnightblue" points="280.38,-169.94 271.06,-164.89 275.19,-174.65 280.38,-169.94"/>
</g>
<!-- Node3 -->
<g id="node3" class="node">
<title>Node3</title>
<g id="a_node3"><a xlink:title=" ">
<polygon fill="none" stroke="#bfbfbf" points="0,-0.5 0,-19.5 50,-19.5 50,-0.5 0,-0.5"/>
<text text-anchor="middle" x="25" y="-7.5" font-family="Helvetica,sans-Serif" font-size="10.00">stdio.h</text>
</a>
</g>
</g>
<!-- Node2&#45;&gt;Node3 -->
<g id="edge2" class="edge">
<title>Node2&#45;&gt;Node3</title>
<path fill="none" stroke="midnightblue" d="M339.77,-137.1C334.44,-136.03 329.12,-134.98 324,-134 233.58,-116.66 198.98,-145.32 120,-98 99.64,-85.8 104.1,-72.46 87,-56 74.97,-44.42 59.83,-33.38 47.52,-25.13"/>
<polygon fill="midnightblue" stroke="midnightblue" points="49.43,-22.19 39.15,-19.65 45.6,-28.05 49.43,-22.19"/>
</g>
<!-- Node4 -->
<g id="node4" class="node">
<title>Node4</title>
<g id="a_node4"><a xlink:title=" ">
<polygon fill="none" stroke="#bfbfbf" points="475,-67.5 475,-86.5 535,-86.5 535,-67.5 475,-67.5"/>
<text text-anchor="middle" x="505" y="-74.5" font-family="Helvetica,sans-Serif" font-size="10.00">iostream</text>
</a>
</g>
</g>
<!-- Node2&#45;&gt;Node4 -->
<g id="edge3" class="edge">
<title>Node2&#45;&gt;Node4</title>
<path fill="none" stroke="midnightblue" d="M416.2,-134.4C435.64,-122.05 463.74,-104.21 483.09,-91.91"/>
<polygon fill="midnightblue" stroke="midnightblue" points="485,-94.85 491.56,-86.53 481.25,-88.94 485,-94.85"/>
</g>
<!-- Node5 -->
<g id="node5" class="node">
<title>Node5</title>
<g id="a_node5"><a xlink:title=" ">
<polygon fill="none" stroke="#bfbfbf" points="68,-0.5 68,-19.5 148,-19.5 148,-0.5 68,-0.5"/>
<text text-anchor="middle" x="108" y="-7.5" font-family="Helvetica,sans-Serif" font-size="10.00">hls_stream.h</text>
</a>
</g>
</g>
<!-- Node2&#45;&gt;Node5 -->
<g id="edge4" class="edge">
<title>Node2&#45;&gt;Node5</title>
<path fill="none" stroke="midnightblue" d="M448.35,-145.51C481.83,-140.52 522.36,-128.13 544,-98 554.89,-82.84 556.57,-69.8 544,-56 516.45,-25.76 232.22,-25.81 158.36,-19.74"/>
<polygon fill="midnightblue" stroke="midnightblue" points="158.37,-16.22 148.06,-18.66 157.65,-23.18 158.37,-16.22"/>
</g>
<!-- Node6 -->
<g id="node6" class="node">
<title>Node6</title>
<g id="a_node6"><a xlink:title=" ">
<polygon fill="none" stroke="#bfbfbf" points="248,-0.5 248,-19.5 304,-19.5 304,-0.5 248,-0.5"/>
<text text-anchor="middle" x="276" y="-7.5" font-family="Helvetica,sans-Serif" font-size="10.00">ap_int.h</text>
</a>
</g>
</g>
<!-- Node2&#45;&gt;Node6 -->
<g id="edge5" class="edge">
<title>Node2&#45;&gt;Node6</title>
<path fill="none" stroke="midnightblue" d="M448.36,-140.84C496.46,-132.82 561.38,-118.52 577,-98 588.31,-83.15 589.27,-70.07 577,-56 538.22,-11.55 371.99,-30.81 314,-20 313.9,-19.98 313.8,-19.96 313.7,-19.94"/>
<polygon fill="midnightblue" stroke="midnightblue" points="314.66,-16.57 304.16,-17.99 313.25,-23.42 314.66,-16.57"/>
</g>
<!-- Node7 -->
<g id="node7" class="node">
<title>Node7</title>
<g id="a_node7"><a xlink:title=" ">
<polygon fill="none" stroke="#bfbfbf" points="322.5,-0.5 322.5,-19.5 375.5,-19.5 375.5,-0.5 322.5,-0.5"/>
<text text-anchor="middle" x="349" y="-7.5" font-family="Helvetica,sans-Serif" font-size="10.00">stdint.h</text>
</a>
</g>
</g>
<!-- Node2&#45;&gt;Node7 -->
<g id="edge6" class="edge">
<title>Node2&#45;&gt;Node7</title>
<path fill="none" stroke="midnightblue" d="M448.01,-144.57C528.25,-136.73 664.46,-114.53 615,-56 586.15,-21.86 452.45,-13.61 386.28,-11.63"/>
<polygon fill="midnightblue" stroke="midnightblue" points="385.98,-8.12 375.89,-11.35 385.8,-15.11 385.98,-8.12"/>
</g>
<!-- Node8 -->
<g id="node8" class="node">
<title>Node8</title>
<g id="a_node8"><a xlink:href="custom_2memtest_2languages_2cplusplus_2include_2config_8h.html" target="_top" xlink:title="The configuration of a Memtest Example application (UDP or TCP)">
<polygon fill="none" stroke="black" points="301,-56.5 301,-97.5 457,-97.5 457,-56.5 301,-56.5"/>
<text text-anchor="start" x="309" y="-85.5" font-family="Helvetica,sans-Serif" font-size="10.00">../../../../../HOST</text>
<text text-anchor="start" x="309" y="-74.5" font-family="Helvetica,sans-Serif" font-size="10.00">/custom/memtest/languages</text>
<text text-anchor="middle" x="379" y="-63.5" font-family="Helvetica,sans-Serif" font-size="10.00">/cplusplus/include/config.h</text>
</a>
</g>
</g>
<!-- Node2&#45;&gt;Node8 -->
<g id="edge7" class="edge">
<title>Node2&#45;&gt;Node8</title>
<path fill="none" stroke="midnightblue" d="M390.96,-134.23C389.33,-126.57 387.26,-116.84 385.3,-107.63"/>
<polygon fill="midnightblue" stroke="midnightblue" points="388.67,-106.64 383.17,-97.59 381.83,-108.1 388.67,-106.64"/>
</g>
<!-- Node9 -->
<g id="node9" class="node">
<title>Node9</title>
<g id="a_node9"><a xlink:href="network_8hpp.html" target="_top" xlink:title=" ">
<polygon fill="none" stroke="black" points="129.5,-67.5 129.5,-86.5 206.5,-86.5 206.5,-67.5 129.5,-67.5"/>
<text text-anchor="middle" x="168" y="-74.5" font-family="Helvetica,sans-Serif" font-size="10.00">network.hpp</text>
</a>
</g>
</g>
<!-- Node2&#45;&gt;Node9 -->
<g id="edge8" class="edge">
<title>Node2&#45;&gt;Node9</title>
<path fill="none" stroke="midnightblue" d="M349.08,-134.49C306.92,-121.34 244.61,-101.9 205.17,-89.6"/>
<polygon fill="midnightblue" stroke="midnightblue" points="206.01,-86.19 195.42,-86.55 203.93,-92.87 206.01,-86.19"/>
</g>
<!-- Node9&#45;&gt;Node3 -->
<g id="edge10" class="edge">
<title>Node9&#45;&gt;Node3</title>
<path fill="none" stroke="midnightblue" d="M149.01,-67.37C124.54,-56.25 81.8,-36.82 53.44,-23.93"/>
<polygon fill="midnightblue" stroke="midnightblue" points="54.62,-20.62 44.07,-19.67 51.72,-26.99 54.62,-20.62"/>
</g>
<!-- Node9&#45;&gt;Node5 -->
<g id="edge13" class="edge">
<title>Node9&#45;&gt;Node5</title>
<path fill="none" stroke="midnightblue" d="M159.91,-67.23C150.46,-57 134.64,-39.86 122.95,-27.19"/>
<polygon fill="midnightblue" stroke="midnightblue" points="125.32,-24.6 115.96,-19.63 120.17,-29.35 125.32,-24.6"/>
</g>
<!-- Node9&#45;&gt;Node6 -->
<g id="edge11" class="edge">
<title>Node9&#45;&gt;Node6</title>
<path fill="none" stroke="midnightblue" d="M182.57,-67.23C200.62,-56.37 231.61,-37.72 252.92,-24.89"/>
<polygon fill="midnightblue" stroke="midnightblue" points="254.9,-27.78 261.67,-19.63 251.29,-21.79 254.9,-27.78"/>
</g>
<!-- Node9&#45;&gt;Node7 -->
<g id="edge9" class="edge">
<title>Node9&#45;&gt;Node7</title>
<path fill="none" stroke="midnightblue" d="M192.04,-67.37C223.77,-55.97 279.79,-35.85 315.62,-22.99"/>
<polygon fill="midnightblue" stroke="midnightblue" points="316.92,-26.24 325.15,-19.56 314.56,-19.65 316.92,-26.24"/>
</g>
<!-- Node10 -->
<g id="node10" class="node">
<title>Node10</title>
<g id="a_node10"><a xlink:title=" ">
<polygon fill="none" stroke="#bfbfbf" points="166,-0.5 166,-19.5 230,-19.5 230,-0.5 166,-0.5"/>
<text text-anchor="middle" x="198" y="-7.5" font-family="Helvetica,sans-Serif" font-size="10.00">ap_utils.h</text>
</a>
</g>
</g>
<!-- Node9&#45;&gt;Node10 -->
<g id="edge12" class="edge">
<title>Node9&#45;&gt;Node10</title>
<path fill="none" stroke="midnightblue" d="M172.05,-67.23C176.54,-57.49 183.93,-41.48 189.68,-29.03"/>
<polygon fill="midnightblue" stroke="midnightblue" points="193.01,-30.17 194.02,-19.63 186.65,-27.24 193.01,-30.17"/>
</g>
<!-- Node11&#45;&gt;Node3 -->
<g id="edge15" class="edge">
<title>Node11&#45;&gt;Node3</title>
<path fill="none" stroke="midnightblue" d="M201.39,-137.86C170.27,-130.19 132.01,-117.65 102,-98 73.58,-79.39 49.22,-47.61 35.89,-28.04"/>
<polygon fill="midnightblue" stroke="midnightblue" points="38.69,-25.94 30.26,-19.53 32.85,-29.8 38.69,-25.94"/>
</g>
<!-- Node11&#45;&gt;Node4 -->
<g id="edge16" class="edge">
<title>Node11&#45;&gt;Node4</title>
<path fill="none" stroke="midnightblue" d="M314.5,-136.35C366.16,-124.96 438.57,-108.2 466,-98 471.04,-96.13 476.27,-93.76 481.2,-91.32"/>
<polygon fill="midnightblue" stroke="midnightblue" points="482.94,-94.36 490.19,-86.64 479.7,-88.16 482.94,-94.36"/>
</g>
<!-- Node11&#45;&gt;Node5 -->
<g id="edge17" class="edge">
<title>Node11&#45;&gt;Node5</title>
<path fill="none" stroke="midnightblue" d="M201.26,-141.63C172.59,-135.14 139.78,-122.53 120,-98 104.47,-78.74 103.81,-48.95 105.4,-29.71"/>
<polygon fill="midnightblue" stroke="midnightblue" points="108.91,-29.85 106.54,-19.52 101.95,-29.07 108.91,-29.85"/>
</g>
<!-- Node11&#45;&gt;Node6 -->
<g id="edge18" class="edge">
<title>Node11&#45;&gt;Node6</title>
<path fill="none" stroke="midnightblue" d="M256.63,-134.25C255.21,-115.95 253.86,-83.3 259,-56 260.74,-46.77 264.23,-36.96 267.6,-28.86"/>
<polygon fill="midnightblue" stroke="midnightblue" points="270.81,-30.26 271.66,-19.7 264.41,-27.42 270.81,-30.26"/>
</g>
<!-- Node11&#45;&gt;Node7 -->
<g id="edge19" class="edge">
<title>Node11&#45;&gt;Node7</title>
<path fill="none" stroke="midnightblue" d="M260.71,-134.19C264.88,-114.96 274.32,-80.38 292,-56 300.88,-43.76 313.95,-33.11 325.33,-25.25"/>
<polygon fill="midnightblue" stroke="midnightblue" points="327.55,-27.98 333.99,-19.56 323.71,-22.13 327.55,-27.98"/>
</g>
<!-- Node11&#45;&gt;Node8 -->
<g id="edge20" class="edge">
<title>Node11&#45;&gt;Node8</title>
<path fill="none" stroke="midnightblue" d="M282.2,-134.4C297.72,-125.36 318.32,-113.36 336.51,-102.75"/>
<polygon fill="midnightblue" stroke="midnightblue" points="338.34,-105.74 345.22,-97.68 334.82,-99.69 338.34,-105.74"/>
</g>
<!-- Node11&#45;&gt;Node9 -->
<g id="edge21" class="edge">
<title>Node11&#45;&gt;Node9</title>
<path fill="none" stroke="midnightblue" d="M239.79,-134.23C224.45,-122.22 202.57,-105.08 187.01,-92.89"/>
<polygon fill="midnightblue" stroke="midnightblue" points="189.13,-90.1 179.09,-86.69 184.81,-95.61 189.13,-90.1"/>
</g>
</g>
</svg>
        <g id="navigator" transform="translate(0 0)" fill="#404254">
                <rect fill="#f2f5e9" fill-opacity="0.5" stroke="#606060" stroke-width=".5" x="0" y="0" width="60" height="60"/>
                <use id="zoomplus" xlink:href="#zoomPlus" x="17" y="9" onmousedown="handleZoom(evt,'in')"/>
                <use id="zoomminus" xlink:href="#zoomMin" x="42" y="9" onmousedown="handleZoom(evt,'out')"/>
                <use id="reset" xlink:href="#resetDef" x="30" y="36" onmousedown="handleReset()"/>
                <g id="arrowUp" xlink:href="#dirArrow" transform="translate(30 24)" onmousedown="handlePan(0,-1)">
                  <use xlink:href="#rim" fill="#404040">
                        <set attributeName="fill" to="#808080" begin="arrowUp.mouseover" end="arrowUp.mouseout"/>
                  </use>
                  <path fill="none" stroke="white" stroke-width="1.5" d="M0,-3.0v7 M-2.5,-0.5L0,-3.0L2.5,-0.5"/>
                </g>
                <g id="arrowRight" xlink:href="#dirArrow" transform="rotate(90) translate(36 -43)" onmousedown="handlePan(1,0)">
                  <use xlink:href="#rim" fill="#404040">
                        <set attributeName="fill" to="#808080" begin="arrowRight.mouseover" end="arrowRight.mouseout"/>
                  </use>
                  <path fill="none" stroke="white" stroke-width="1.5" d="M0,-3.0v7 M-2.5,-0.5L0,-3.0L2.5,-0.5"/>
                </g>
                <g id="arrowDown" xlink:href="#dirArrow" transform="rotate(180) translate(-30 -48)" onmousedown="handlePan(0,1)">
                  <use xlink:href="#rim" fill="#404040">
                        <set attributeName="fill" to="#808080" begin="arrowDown.mouseover" end="arrowDown.mouseout"/>
                  </use>
                  <path fill="none" stroke="white" stroke-width="1.5" d="M0,-3.0v7 M-2.5,-0.5L0,-3.0L2.5,-0.5"/>
                </g>
                <g id="arrowLeft" xlink:href="#dirArrow" transform="rotate(270) translate(-36 17)" onmousedown="handlePan(-1,0)">
                  <use xlink:href="#rim" fill="#404040">
                        <set attributeName="fill" to="#808080" begin="arrowLeft.mouseover" end="arrowLeft.mouseout"/>
                  </use>
                  <path fill="none" stroke="white" stroke-width="1.5" d="M0,-3.0v7 M-2.5,-0.5L0,-3.0L2.5,-0.5"/>
                </g>
        </g>
        <svg viewBox="0 0 15 15" width="100%" height="30px" preserveAspectRatio="xMaxYMin meet">
         <g id="arrow_out" transform="scale(0.3 0.3)">
          <a xlink:href="memtest__processing_8hpp__incl_org.svg" target="_base">
           <rect id="button" ry="5" rx="5" y="6" x="6" height="38" width="38"
                fill="#f2f5e9" fill-opacity="0.5" stroke="#606060" stroke-width="1.0"/>
           <path id="arrow"
             d="M 11.500037,31.436501 C 11.940474,20.09759 22.043105,11.32322 32.158766,21.979434 L 37.068811,17.246167 C 37.068811,17.246167 37.088388,32 37.088388,32 L 22.160133,31.978069 C 22.160133,31.978069 26.997745,27.140456 26.997745,27.140456 C 18.528582,18.264221 13.291696,25.230495 11.500037,31.436501 z"
             style="fill:#404040;"/>
          </a>
         </g>
        </svg>
</svg>
