<?xml version="1.0" encoding="UTF-8" standalone="no"?>
<!DOCTYPE svg PUBLIC "-//W3C//DTD SVG 1.1//EN"
 "http://www.w3.org/Graphics/SVG/1.1/DTD/svg11.dtd">
<!-- Generated by graphviz version 2.43.0 (0)
 -->
<!-- Title: repos_for_Dox/cFp_Zoo/ROLE/custom/hls/memtest/include/memtest.hpp Pages: 1 -->
<svg width="324pt" height="128pt"
 viewBox="0.00 0.00 324.00 128.00" xmlns="http://www.w3.org/2000/svg" xmlns:xlink="http://www.w3.org/1999/xlink">
<g id="graph0" class="graph" transform="scale(1 1) rotate(0) translate(4 124)">
<title>repos_for_Dox/cFp_Zoo/ROLE/custom/hls/memtest/include/memtest.hpp</title>
<!-- Node1 -->
<g id="node1" class="node">
<title>Node1</title>
<g id="a_node1"><a xlink:title="The Role for a Memtest Example application (UDP or TCP)">
<polygon fill="#bfbfbf" stroke="black" points="83,-78.5 83,-119.5 232,-119.5 232,-78.5 83,-78.5"/>
<text text-anchor="start" x="91" y="-107.5" font-family="Helvetica,sans-Serif" font-size="10.00">repos_for_Dox/cFp_Zoo</text>
<text text-anchor="start" x="91" y="-96.5" font-family="Helvetica,sans-Serif" font-size="10.00">/ROLE/custom/hls/memtest</text>
<text text-anchor="middle" x="157.5" y="-85.5" font-family="Helvetica,sans-Serif" font-size="10.00">/include/memtest.hpp</text>
</a>
</g>
</g>
<!-- Node2 -->
<g id="node2" class="node">
<title>Node2</title>
<g id="a_node2"><a xlink:href="memtest_8cpp.html" target="_top" xlink:title="The Role for a Memtest Example application (UDP or TCP)">
<polygon fill="none" stroke="black" points="0,-0.5 0,-41.5 149,-41.5 149,-0.5 0,-0.5"/>
<text text-anchor="start" x="8" y="-29.5" font-family="Helvetica,sans-Serif" font-size="10.00">repos_for_Dox/cFp_Zoo</text>
<text text-anchor="start" x="8" y="-18.5" font-family="Helvetica,sans-Serif" font-size="10.00">/ROLE/custom/hls/memtest</text>
<text text-anchor="middle" x="74.5" y="-7.5" font-family="Helvetica,sans-Serif" font-size="10.00">/src/memtest.cpp</text>
</a>
</g>
</g>
<!-- Node1&#45;&gt;Node2 -->
<g id="edge1" class="edge">
<title>Node1&#45;&gt;Node2</title>
<path fill="none" stroke="midnightblue" d="M128.55,-71.49C117.78,-61.63 105.76,-50.63 95.8,-41.51"/>
<polygon fill="midnightblue" stroke="midnightblue" points="126.39,-74.26 136.13,-78.43 131.11,-69.09 126.39,-74.26"/>
</g>
<!-- Node3 -->
<g id="node3" class="node">
<title>Node3</title>
<g id="a_node3"><a xlink:href="test__memtest_8cpp.html" target="_top" xlink:title=": Testbench for Memtest.">
<polygon fill="none" stroke="black" points="167,-0.5 167,-41.5 316,-41.5 316,-0.5 167,-0.5"/>
<text text-anchor="start" x="175" y="-29.5" font-family="Helvetica,sans-Serif" font-size="10.00">repos_for_Dox/cFp_Zoo</text>
<text text-anchor="start" x="175" y="-18.5" font-family="Helvetica,sans-Serif" font-size="10.00">/ROLE/custom/hls/memtest</text>
<text text-anchor="middle" x="241.5" y="-7.5" font-family="Helvetica,sans-Serif" font-size="10.00">/test/test_memtest.cpp</text>
</a>
</g>
</g>
<!-- Node1&#45;&gt;Node3 -->
<g id="edge2" class="edge">
<title>Node1&#45;&gt;Node3</title>
<path fill="none" stroke="midnightblue" d="M186.8,-71.49C197.7,-61.63 209.86,-50.63 219.94,-41.51"/>
<polygon fill="midnightblue" stroke="midnightblue" points="184.2,-69.12 179.13,-78.43 188.9,-74.31 184.2,-69.12"/>
</g>
</g>
</svg>
