<?xml version="1.0" encoding="UTF-8" standalone="no"?>
<!DOCTYPE svg PUBLIC "-//W3C//DTD SVG 1.1//EN"
 "http://www.w3.org/Graphics/SVG/1.1/DTD/svg11.dtd">
<!-- Generated by graphviz version 2.43.0 (0)
 -->
<!-- Title: repos_for_Dox/cFp_Zoo/HOST/custom/memtest/languages/cplusplus/src/memtest_host_fwd_tb.cpp Pages: 1 -->
<svg width="1522pt" height="184pt"
 viewBox="0.00 0.00 1522.00 184.00" xmlns="http://www.w3.org/2000/svg" xmlns:xlink="http://www.w3.org/1999/xlink">
<g id="graph0" class="graph" transform="scale(1 1) rotate(0) translate(4 180)">
<title>repos_for_Dox/cFp_Zoo/HOST/custom/memtest/languages/cplusplus/src/memtest_host_fwd_tb.cpp</title>
<!-- Node1 -->
<g id="node1" class="node">
<title>Node1</title>
<g id="a_node1"><a xlink:title="Testbench for Memtest userspace application for cF (x86, ppc64).">
<polygon fill="#bfbfbf" stroke="black" points="512.5,-123.5 512.5,-175.5 660.5,-175.5 660.5,-123.5 512.5,-123.5"/>
<text text-anchor="start" x="520.5" y="-163.5" font-family="Helvetica,sans-Serif" font-size="10.00">repos_for_Dox/cFp_Zoo</text>
<text text-anchor="start" x="520.5" y="-152.5" font-family="Helvetica,sans-Serif" font-size="10.00">/HOST/custom/memtest</text>
<text text-anchor="start" x="520.5" y="-141.5" font-family="Helvetica,sans-Serif" font-size="10.00">/languages/cplusplus/src</text>
<text text-anchor="middle" x="586.5" y="-130.5" font-family="Helvetica,sans-Serif" font-size="10.00">/memtest_host_fwd_tb.cpp</text>
</a>
</g>
</g>
<!-- Node2 -->
<g id="node2" class="node">
<title>Node2</title>
<g id="a_node2"><a xlink:title=" ">
<polygon fill="none" stroke="#bfbfbf" points="0,-0.5 0,-19.5 49,-19.5 49,-0.5 0,-0.5"/>
<text text-anchor="middle" x="24.5" y="-7.5" font-family="Helvetica,sans-Serif" font-size="10.00">cstdlib</text>
</a>
</g>
</g>
<!-- Node1&#45;&gt;Node2 -->
<g id="edge1" class="edge">
<title>Node1&#45;&gt;Node2</title>
<path fill="none" stroke="midnightblue" d="M512.19,-144.1C429.42,-137.65 292.38,-122.28 179.5,-87 129.94,-71.51 76.47,-42.18 47.08,-24.83"/>
<polygon fill="midnightblue" stroke="midnightblue" points="48.8,-21.78 38.42,-19.66 45.21,-27.79 48.8,-21.78"/>
</g>
<!-- Node3 -->
<g id="node3" class="node">
<title>Node3</title>
<g id="a_node3"><a xlink:title=" ">
<polygon fill="none" stroke="#bfbfbf" points="67.5,-0.5 67.5,-19.5 127.5,-19.5 127.5,-0.5 67.5,-0.5"/>
<text text-anchor="middle" x="97.5" y="-7.5" font-family="Helvetica,sans-Serif" font-size="10.00">iostream</text>
</a>
</g>
</g>
<!-- Node1&#45;&gt;Node3 -->
<g id="edge2" class="edge">
<title>Node1&#45;&gt;Node3</title>
<path fill="none" stroke="midnightblue" d="M512.41,-140.76C443.75,-132.21 339.42,-115.71 252.5,-87 203.45,-70.8 150.19,-41.97 120.62,-24.85"/>
<polygon fill="midnightblue" stroke="midnightblue" points="122.29,-21.77 111.89,-19.74 118.75,-27.81 122.29,-21.77"/>
</g>
<!-- Node4 -->
<g id="node4" class="node">
<title>Node4</title>
<g id="a_node4"><a xlink:title=" ">
<polygon fill="none" stroke="#bfbfbf" points="145.5,-0.5 145.5,-19.5 191.5,-19.5 191.5,-0.5 145.5,-0.5"/>
<text text-anchor="middle" x="168.5" y="-7.5" font-family="Helvetica,sans-Serif" font-size="10.00">cstdio</text>
</a>
</g>
</g>
<!-- Node1&#45;&gt;Node4 -->
<g id="edge3" class="edge">
<title>Node1&#45;&gt;Node4</title>
<path fill="none" stroke="midnightblue" d="M512.43,-135.41C459.73,-125.04 387.71,-108.67 326.5,-87 277.31,-69.58 223.14,-41.41 192.72,-24.7"/>
<polygon fill="midnightblue" stroke="midnightblue" points="194.16,-21.49 183.72,-19.7 190.77,-27.61 194.16,-21.49"/>
</g>
<!-- Node5 -->
<g id="node5" class="node">
<title>Node5</title>
<g id="a_node5"><a xlink:title=" ">
<polygon fill="none" stroke="#bfbfbf" points="209.5,-0.5 209.5,-19.5 267.5,-19.5 267.5,-0.5 209.5,-0.5"/>
<text text-anchor="middle" x="238.5" y="-7.5" font-family="Helvetica,sans-Serif" font-size="10.00">memory</text>
</a>
</g>
</g>
<!-- Node1&#45;&gt;Node5 -->
<g id="edge4" class="edge">
<title>Node1&#45;&gt;Node5</title>
<path fill="none" stroke="midnightblue" d="M512.18,-127.21C476.48,-116.31 433.33,-102.16 395.5,-87 347.56,-67.79 293.82,-40.44 263.28,-24.33"/>
<polygon fill="midnightblue" stroke="midnightblue" points="264.69,-21.12 254.22,-19.52 261.41,-27.3 264.69,-21.12"/>
</g>
<!-- Node6 -->
<g id="node6" class="node">
<title>Node6</title>
<g id="a_node6"><a xlink:title=" ">
<polygon fill="none" stroke="#bfbfbf" points="286,-0.5 286,-19.5 351,-19.5 351,-0.5 286,-0.5"/>
<text text-anchor="middle" x="318.5" y="-7.5" font-family="Helvetica,sans-Serif" font-size="10.00">stdexcept</text>
</a>
</g>
</g>
<!-- Node1&#45;&gt;Node6 -->
<g id="edge5" class="edge">
<title>Node1&#45;&gt;Node6</title>
<path fill="none" stroke="midnightblue" d="M531.42,-123.36C508.14,-112.5 480.84,-99.45 456.5,-87 415.76,-66.17 369.34,-40.11 342.06,-24.55"/>
<polygon fill="midnightblue" stroke="midnightblue" points="343.66,-21.44 333.25,-19.51 340.19,-27.52 343.66,-21.44"/>
</g>
<!-- Node7 -->
<g id="node7" class="node">
<title>Node7</title>
<g id="a_node7"><a xlink:title=" ">
<polygon fill="none" stroke="#bfbfbf" points="369.5,-0.5 369.5,-19.5 413.5,-19.5 413.5,-0.5 369.5,-0.5"/>
<text text-anchor="middle" x="391.5" y="-7.5" font-family="Helvetica,sans-Serif" font-size="10.00">string</text>
</a>
</g>
</g>
<!-- Node1&#45;&gt;Node7 -->
<g id="edge6" class="edge">
<title>Node1&#45;&gt;Node7</title>
<path fill="none" stroke="midnightblue" d="M550.73,-123.28C510.13,-94.65 445.26,-48.91 412.26,-25.64"/>
<polygon fill="midnightblue" stroke="midnightblue" points="414.03,-22.6 403.84,-19.7 409.99,-28.32 414.03,-22.6"/>
</g>
<!-- Node8 -->
<g id="node8" class="node">
<title>Node8</title>
<g id="a_node8"><a xlink:title=" ">
<polygon fill="none" stroke="#bfbfbf" points="432,-0.5 432,-19.5 485,-19.5 485,-0.5 432,-0.5"/>
<text text-anchor="middle" x="458.5" y="-7.5" font-family="Helvetica,sans-Serif" font-size="10.00">string.h</text>
</a>
</g>
</g>
<!-- Node1&#45;&gt;Node8 -->
<g id="edge7" class="edge">
<title>Node1&#45;&gt;Node8</title>
<path fill="none" stroke="midnightblue" d="M563.02,-123.28C536.94,-95.26 495.6,-50.86 473.54,-27.16"/>
<polygon fill="midnightblue" stroke="midnightblue" points="475.97,-24.63 466.6,-19.7 470.85,-29.4 475.97,-24.63"/>
</g>
<!-- Node9 -->
<g id="node9" class="node">
<title>Node9</title>
<g id="a_node9"><a xlink:title=" ">
<polygon fill="none" stroke="#bfbfbf" points="503.5,-0.5 503.5,-19.5 545.5,-19.5 545.5,-0.5 503.5,-0.5"/>
<text text-anchor="middle" x="524.5" y="-7.5" font-family="Helvetica,sans-Serif" font-size="10.00">array</text>
</a>
</g>
</g>
<!-- Node1&#45;&gt;Node9 -->
<g id="edge8" class="edge">
<title>Node1&#45;&gt;Node9</title>
<path fill="none" stroke="midnightblue" d="M575.13,-123.28C562.83,-96 543.52,-53.17 532.64,-29.06"/>
<polygon fill="midnightblue" stroke="midnightblue" points="535.72,-27.38 528.42,-19.7 529.34,-30.25 535.72,-27.38"/>
</g>
<!-- Node10 -->
<g id="node10" class="node">
<title>Node10</title>
<g id="a_node10"><a xlink:title=" ">
<polygon fill="none" stroke="#bfbfbf" points="563.5,-0.5 563.5,-19.5 627.5,-19.5 627.5,-0.5 563.5,-0.5"/>
<text text-anchor="middle" x="595.5" y="-7.5" font-family="Helvetica,sans-Serif" font-size="10.00">sys/stat.h</text>
</a>
</g>
</g>
<!-- Node1&#45;&gt;Node10 -->
<g id="edge9" class="edge">
<title>Node1&#45;&gt;Node10</title>
<path fill="none" stroke="midnightblue" d="M588.15,-123.28C589.92,-96.24 592.69,-53.94 594.27,-29.72"/>
<polygon fill="midnightblue" stroke="midnightblue" points="597.77,-29.91 594.93,-19.7 590.78,-29.45 597.77,-29.91"/>
</g>
<!-- Node11 -->
<g id="node11" class="node">
<title>Node11</title>
<g id="a_node11"><a xlink:title=" ">
<polygon fill="none" stroke="#bfbfbf" points="645.5,-0.5 645.5,-19.5 701.5,-19.5 701.5,-0.5 645.5,-0.5"/>
<text text-anchor="middle" x="673.5" y="-7.5" font-family="Helvetica,sans-Serif" font-size="10.00">sstream</text>
</a>
</g>
</g>
<!-- Node1&#45;&gt;Node11 -->
<g id="edge10" class="edge">
<title>Node1&#45;&gt;Node11</title>
<path fill="none" stroke="midnightblue" d="M601.74,-123.22C613.09,-104.54 629.04,-78.55 643.5,-56 649.47,-46.7 656.29,-36.44 661.92,-28.06"/>
<polygon fill="midnightblue" stroke="midnightblue" points="664.96,-29.81 667.66,-19.57 659.16,-25.89 664.96,-29.81"/>
</g>
<!-- Node12 -->
<g id="node12" class="node">
<title>Node12</title>
<g id="a_node12"><a xlink:title=" ">
<polygon fill="none" stroke="#bfbfbf" points="1117,-0.5 1117,-19.5 1170,-19.5 1170,-0.5 1117,-0.5"/>
<text text-anchor="middle" x="1143.5" y="-7.5" font-family="Helvetica,sans-Serif" font-size="10.00">stdlib.h</text>
</a>
</g>
</g>
<!-- Node1&#45;&gt;Node12 -->
<g id="edge11" class="edge">
<title>Node1&#45;&gt;Node12</title>
<path fill="none" stroke="midnightblue" d="M660.59,-132.34C700.06,-122.19 748.74,-107.17 789.5,-87 810.62,-76.55 810.6,-64.68 832.5,-56 944.48,-11.64 984.9,-41.76 1106.74,-20.09"/>
<polygon fill="midnightblue" stroke="midnightblue" points="1107.63,-23.49 1116.82,-18.22 1106.35,-16.61 1107.63,-23.49"/>
</g>
<!-- Node13 -->
<g id="node13" class="node">
<title>Node13</title>
<g id="a_node13"><a xlink:title=" ">
<polygon fill="none" stroke="#bfbfbf" points="1188.5,-0.5 1188.5,-19.5 1238.5,-19.5 1238.5,-0.5 1188.5,-0.5"/>
<text text-anchor="middle" x="1213.5" y="-7.5" font-family="Helvetica,sans-Serif" font-size="10.00">stdio.h</text>
</a>
</g>
</g>
<!-- Node1&#45;&gt;Node13 -->
<g id="edge12" class="edge">
<title>Node1&#45;&gt;Node13</title>
<path fill="none" stroke="midnightblue" d="M660.66,-136.4C709.05,-126.83 772.77,-111.03 825.5,-87 847.6,-76.93 847.77,-64.55 870.5,-56 996.89,-8.49 1041.56,-44 1178.33,-19.93"/>
<polygon fill="midnightblue" stroke="midnightblue" points="1179.14,-23.34 1188.34,-18.09 1177.87,-16.45 1179.14,-23.34"/>
</g>
<!-- Node14 -->
<g id="node14" class="node">
<title>Node14</title>
<g id="a_node14"><a xlink:title=" ">
<polygon fill="none" stroke="#bfbfbf" points="989,-56.5 989,-86.5 1152,-86.5 1152,-56.5 989,-56.5"/>
<text text-anchor="start" x="997" y="-74.5" font-family="Helvetica,sans-Serif" font-size="10.00">../../../../../Practical</text>
<text text-anchor="middle" x="1070.5" y="-63.5" font-family="Helvetica,sans-Serif" font-size="10.00">Sockets/src/PracticalSockets.h</text>
</a>
</g>
</g>
<!-- Node1&#45;&gt;Node14 -->
<g id="edge13" class="edge">
<title>Node1&#45;&gt;Node14</title>
<path fill="none" stroke="midnightblue" d="M660.54,-136.87C746,-123.45 886.62,-101.37 978.9,-86.88"/>
<polygon fill="midnightblue" stroke="midnightblue" points="979.45,-90.34 988.78,-85.33 978.36,-83.43 979.45,-90.34"/>
</g>
<!-- Node15 -->
<g id="node15" class="node">
<title>Node15</title>
<g id="a_node15"><a xlink:href="custom_2memtest_2languages_2cplusplus_2include_2config_8h.html" target="_top" xlink:title="The configuration of a Memtest Example application (UDP or TCP)">
<polygon fill="none" stroke="black" points="1256.5,-0.5 1256.5,-19.5 1358.5,-19.5 1358.5,-0.5 1256.5,-0.5"/>
<text text-anchor="middle" x="1307.5" y="-7.5" font-family="Helvetica,sans-Serif" font-size="10.00">../include/config.h</text>
</a>
</g>
</g>
<!-- Node1&#45;&gt;Node15 -->
<g id="edge14" class="edge">
<title>Node1&#45;&gt;Node15</title>
<path fill="none" stroke="midnightblue" d="M660.58,-139.66C717.52,-131.06 797.22,-115.07 862.5,-87 885.15,-77.26 885.34,-64.44 908.5,-56 1047.8,-5.25 1095.18,-37.77 1246.35,-20.05"/>
<polygon fill="midnightblue" stroke="midnightblue" points="1246.96,-23.5 1256.46,-18.81 1246.11,-16.55 1246.96,-23.5"/>
</g>
<!-- Node16 -->
<g id="node16" class="node">
<title>Node16</title>
<g id="a_node16"><a xlink:title=" ">
<polygon fill="none" stroke="#bfbfbf" points="1376.5,-0.5 1376.5,-19.5 1440.5,-19.5 1440.5,-0.5 1376.5,-0.5"/>
<text text-anchor="middle" x="1408.5" y="-7.5" font-family="Helvetica,sans-Serif" font-size="10.00">algorithm</text>
</a>
</g>
</g>
<!-- Node1&#45;&gt;Node16 -->
<g id="edge15" class="edge">
<title>Node1&#45;&gt;Node16</title>
<path fill="none" stroke="midnightblue" d="M660.61,-142.12C725.54,-134.64 821.47,-118.94 899.5,-87 922.66,-77.52 922.86,-64.21 946.5,-56 1120.79,4.51 1179.76,-46.34 1366.21,-19.97"/>
<polygon fill="midnightblue" stroke="midnightblue" points="1366.96,-23.39 1376.35,-18.47 1365.94,-16.47 1366.96,-23.39"/>
</g>
<!-- Node17 -->
<g id="node17" class="node">
<title>Node17</title>
<g id="a_node17"><a xlink:title=" ">
<polygon fill="none" stroke="#bfbfbf" points="1459,-0.5 1459,-19.5 1514,-19.5 1514,-0.5 1459,-0.5"/>
<text text-anchor="middle" x="1486.5" y="-7.5" font-family="Helvetica,sans-Serif" font-size="10.00">fstream</text>
</a>
</g>
</g>
<!-- Node1&#45;&gt;Node17 -->
<g id="edge16" class="edge">
<title>Node1&#45;&gt;Node17</title>
<path fill="none" stroke="midnightblue" d="M660.84,-144.86C733.55,-139.16 846.2,-124.53 936.5,-87 958.59,-77.82 957.99,-64.09 980.5,-56 1174.15,13.63 1240.95,-50.74 1448.72,-19.81"/>
<polygon fill="midnightblue" stroke="midnightblue" points="1449.37,-23.26 1458.72,-18.27 1448.3,-16.34 1449.37,-23.26"/>
</g>
<!-- Node18 -->
<g id="node18" class="node">
<title>Node18</title>
<g id="a_node18"><a xlink:href="HOST_2custom_2memtest_2languages_2cplusplus_2include_2common_8hpp.html" target="_top" xlink:title=" ">
<polygon fill="none" stroke="black" points="652.5,-62 652.5,-81 780.5,-81 780.5,-62 652.5,-62"/>
<text text-anchor="middle" x="716.5" y="-69" font-family="Helvetica,sans-Serif" font-size="10.00">../include/common.hpp</text>
</a>
</g>
</g>
<!-- Node1&#45;&gt;Node18 -->
<g id="edge17" class="edge">
<title>Node1&#45;&gt;Node18</title>
<path fill="none" stroke="midnightblue" d="M629.43,-123.4C650.52,-111.07 675.13,-96.69 692.79,-86.36"/>
<polygon fill="midnightblue" stroke="midnightblue" points="694.96,-89.15 701.83,-81.08 691.43,-83.1 694.96,-89.15"/>
</g>
<!-- Node18&#45;&gt;Node2 -->
<g id="edge20" class="edge">
<title>Node18&#45;&gt;Node2</title>
<path fill="none" stroke="midnightblue" d="M652.05,-69.44C535.4,-66.67 281.56,-56.77 59.17,-19.78"/>
<polygon fill="midnightblue" stroke="midnightblue" points="59.71,-16.32 49.27,-18.11 58.55,-23.23 59.71,-16.32"/>
</g>
<!-- Node18&#45;&gt;Node3 -->
<g id="edge19" class="edge">
<title>Node18&#45;&gt;Node3</title>
<path fill="none" stroke="midnightblue" d="M652.2,-67.84C546.66,-62.84 330.01,-49.86 137.66,-19.97"/>
<polygon fill="midnightblue" stroke="midnightblue" points="138.07,-16.49 127.65,-18.4 136.99,-23.41 138.07,-16.49"/>
</g>
<!-- Node18&#45;&gt;Node4 -->
<g id="edge25" class="edge">
<title>Node18&#45;&gt;Node4</title>
<path fill="none" stroke="midnightblue" d="M652.44,-67.87C556.3,-63.12 369,-50.77 201.77,-19.93"/>
<polygon fill="midnightblue" stroke="midnightblue" points="202.28,-16.47 191.81,-18.07 200.99,-23.35 202.28,-16.47"/>
</g>
<!-- Node18&#45;&gt;Node5 -->
<g id="edge26" class="edge">
<title>Node18&#45;&gt;Node5</title>
<path fill="none" stroke="midnightblue" d="M652.4,-65.54C568.45,-58.5 416.56,-43.95 277.85,-20.06"/>
<polygon fill="midnightblue" stroke="midnightblue" points="278.34,-16.59 267.89,-18.32 277.14,-23.49 278.34,-16.59"/>
</g>
<!-- Node18&#45;&gt;Node6 -->
<g id="edge27" class="edge">
<title>Node18&#45;&gt;Node6</title>
<path fill="none" stroke="midnightblue" d="M652.3,-62.77C583.01,-54.12 469.21,-39.01 361.12,-20"/>
<polygon fill="midnightblue" stroke="midnightblue" points="361.47,-16.5 351.02,-18.2 360.25,-23.4 361.47,-16.5"/>
</g>
<!-- Node18&#45;&gt;Node7 -->
<g id="edge22" class="edge">
<title>Node18&#45;&gt;Node7</title>
<path fill="none" stroke="midnightblue" d="M655.01,-62C597.46,-53.57 508.98,-39.43 423.63,-20.05"/>
<polygon fill="midnightblue" stroke="midnightblue" points="424.3,-16.62 413.77,-17.79 422.73,-23.44 424.3,-16.62"/>
</g>
<!-- Node18&#45;&gt;Node8 -->
<g id="edge23" class="edge">
<title>Node18&#45;&gt;Node8</title>
<path fill="none" stroke="midnightblue" d="M677.94,-61.99C635.61,-52.59 565.37,-36.82 495.13,-20.11"/>
<polygon fill="midnightblue" stroke="midnightblue" points="495.76,-16.66 485.22,-17.75 494.14,-23.47 495.76,-16.66"/>
</g>
<!-- Node18&#45;&gt;Node9 -->
<g id="edge28" class="edge">
<title>Node18&#45;&gt;Node9</title>
<path fill="none" stroke="midnightblue" d="M688.99,-61.98C653.64,-51.02 592.43,-32.05 555.47,-20.6"/>
<polygon fill="midnightblue" stroke="midnightblue" points="556.32,-17.2 545.74,-17.58 554.25,-23.88 556.32,-17.2"/>
</g>
<!-- Node18&#45;&gt;Node10 -->
<g id="edge29" class="edge">
<title>Node18&#45;&gt;Node10</title>
<path fill="none" stroke="midnightblue" d="M699.16,-61.98C678.95,-52.03 645.31,-35.49 621.86,-23.96"/>
<polygon fill="midnightblue" stroke="midnightblue" points="623.32,-20.78 612.8,-19.51 620.23,-27.06 623.32,-20.78"/>
</g>
<!-- Node18&#45;&gt;Node11 -->
<g id="edge24" class="edge">
<title>Node18&#45;&gt;Node11</title>
<path fill="none" stroke="midnightblue" d="M710.34,-61.98C703.89,-53.05 693.6,-38.81 685.53,-27.64"/>
<polygon fill="midnightblue" stroke="midnightblue" points="688.34,-25.56 679.65,-19.51 682.67,-29.66 688.34,-25.56"/>
</g>
<!-- Node18&#45;&gt;Node12 -->
<g id="edge30" class="edge">
<title>Node18&#45;&gt;Node12</title>
<path fill="none" stroke="midnightblue" d="M759.32,-61.98C770.73,-59.87 783.06,-57.72 794.5,-56 930.16,-35.64 968.59,-45.08 1106.71,-20.12"/>
<polygon fill="midnightblue" stroke="midnightblue" points="1107.63,-23.51 1116.83,-18.26 1106.36,-16.62 1107.63,-23.51"/>
</g>
<!-- Node18&#45;&gt;Node13 -->
<g id="edge18" class="edge">
<title>Node18&#45;&gt;Node13</title>
<path fill="none" stroke="midnightblue" d="M780.59,-62.24C797.47,-60.14 815.66,-57.93 832.5,-56 983.24,-38.76 1025.19,-47.52 1178.11,-19.99"/>
<polygon fill="midnightblue" stroke="midnightblue" points="1179.14,-23.36 1188.35,-18.12 1177.88,-16.48 1179.14,-23.36"/>
</g>
<!-- Node18&#45;&gt;Node15 -->
<g id="edge31" class="edge">
<title>Node18&#45;&gt;Node15</title>
<path fill="none" stroke="midnightblue" d="M780.74,-64.44C908.72,-52.35 1187.67,-25.98 1246.48,-19.93"/>
<polygon fill="midnightblue" stroke="midnightblue" points="1246.9,-23.4 1256.46,-18.85 1246.14,-16.44 1246.9,-23.4"/>
</g>
<!-- Node18&#45;&gt;Node16 -->
<g id="edge32" class="edge">
<title>Node18&#45;&gt;Node16</title>
<path fill="none" stroke="midnightblue" d="M780.53,-65.65C930.8,-54.26 1298.03,-26.32 1366.34,-19.62"/>
<polygon fill="midnightblue" stroke="midnightblue" points="1366.8,-23.09 1376.35,-18.5 1366.02,-16.13 1366.8,-23.09"/>
</g>
<!-- Node18&#45;&gt;Node17 -->
<g id="edge33" class="edge">
<title>Node18&#45;&gt;Node17</title>
<path fill="none" stroke="midnightblue" d="M780.69,-66.38C944.21,-55.83 1368.66,-28.21 1448.67,-19.55"/>
<polygon fill="midnightblue" stroke="midnightblue" points="1449.24,-23.01 1458.72,-18.29 1448.36,-16.07 1449.24,-23.01"/>
</g>
<!-- Node19 -->
<g id="node19" class="node">
<title>Node19</title>
<g id="a_node19"><a xlink:title=" ">
<polygon fill="none" stroke="#bfbfbf" points="915.5,-0.5 915.5,-19.5 971.5,-19.5 971.5,-0.5 915.5,-0.5"/>
<text text-anchor="middle" x="943.5" y="-7.5" font-family="Helvetica,sans-Serif" font-size="10.00">assert.h</text>
</a>
</g>
</g>
<!-- Node18&#45;&gt;Node19 -->
<g id="edge21" class="edge">
<title>Node18&#45;&gt;Node19</title>
<path fill="none" stroke="midnightblue" d="M749.02,-61.98C790.42,-51.12 861.81,-32.41 905.62,-20.93"/>
<polygon fill="midnightblue" stroke="midnightblue" points="906.54,-24.3 915.33,-18.38 904.77,-17.53 906.54,-24.3"/>
</g>
<!-- Node20 -->
<g id="node20" class="node">
<title>Node20</title>
<g id="a_node20"><a xlink:title=" ">
<polygon fill="none" stroke="#bfbfbf" points="989.5,-0.5 989.5,-19.5 1033.5,-19.5 1033.5,-0.5 989.5,-0.5"/>
<text text-anchor="middle" x="1011.5" y="-7.5" font-family="Helvetica,sans-Serif" font-size="10.00">bitset</text>
</a>
</g>
</g>
<!-- Node18&#45;&gt;Node20 -->
<g id="edge34" class="edge">
<title>Node18&#45;&gt;Node20</title>
<path fill="none" stroke="midnightblue" d="M762.45,-61.95C826.23,-50.06 937.7,-29.13 979.26,-20.02"/>
<polygon fill="midnightblue" stroke="midnightblue" points="980.25,-23.39 989.22,-17.74 978.69,-16.56 980.25,-23.39"/>
</g>
<!-- Node21 -->
<g id="node21" class="node">
<title>Node21</title>
<g id="a_node21"><a xlink:title=" ">
<polygon fill="none" stroke="#bfbfbf" points="1052,-0.5 1052,-19.5 1099,-19.5 1099,-0.5 1052,-0.5"/>
<text text-anchor="middle" x="1075.5" y="-7.5" font-family="Helvetica,sans-Serif" font-size="10.00">vector</text>
</a>
</g>
</g>
<!-- Node18&#45;&gt;Node21 -->
<g id="edge35" class="edge">
<title>Node18&#45;&gt;Node21</title>
<path fill="none" stroke="midnightblue" d="M760.58,-61.99C771.64,-59.94 783.49,-57.82 794.5,-56 901.27,-38.33 931.75,-42.44 1041.95,-19.88"/>
<polygon fill="midnightblue" stroke="midnightblue" points="1042.71,-23.3 1051.79,-17.84 1041.29,-16.44 1042.71,-23.3"/>
</g>
<!-- Node22 -->
<g id="node22" class="node">
<title>Node22</title>
<g id="a_node22"><a xlink:title=" ">
<polygon fill="none" stroke="#bfbfbf" points="720,-0.5 720,-19.5 767,-19.5 767,-0.5 720,-0.5"/>
<text text-anchor="middle" x="743.5" y="-7.5" font-family="Helvetica,sans-Serif" font-size="10.00">cmath</text>
</a>
</g>
</g>
<!-- Node18&#45;&gt;Node22 -->
<g id="edge36" class="edge">
<title>Node18&#45;&gt;Node22</title>
<path fill="none" stroke="midnightblue" d="M720.37,-61.98C724.3,-53.32 730.5,-39.65 735.49,-28.65"/>
<polygon fill="midnightblue" stroke="midnightblue" points="738.69,-30.06 739.64,-19.51 732.32,-27.17 738.69,-30.06"/>
</g>
<!-- Node23 -->
<g id="node23" class="node">
<title>Node23</title>
<g id="a_node23"><a xlink:title=" ">
<polygon fill="none" stroke="#bfbfbf" points="785.5,-0.5 785.5,-19.5 835.5,-19.5 835.5,-0.5 785.5,-0.5"/>
<text text-anchor="middle" x="810.5" y="-7.5" font-family="Helvetica,sans-Serif" font-size="10.00">chrono</text>
</a>
</g>
</g>
<!-- Node18&#45;&gt;Node23 -->
<g id="edge37" class="edge">
<title>Node18&#45;&gt;Node23</title>
<path fill="none" stroke="midnightblue" d="M729.97,-61.98C745.18,-52.34 770.19,-36.52 788.3,-25.05"/>
<polygon fill="midnightblue" stroke="midnightblue" points="790.48,-27.81 797.06,-19.51 786.74,-21.9 790.48,-27.81"/>
</g>
<!-- Node24 -->
<g id="node24" class="node">
<title>Node24</title>
<g id="a_node24"><a xlink:title=" ">
<polygon fill="none" stroke="#bfbfbf" points="853.5,-0.5 853.5,-19.5 897.5,-19.5 897.5,-0.5 853.5,-0.5"/>
<text text-anchor="middle" x="875.5" y="-7.5" font-family="Helvetica,sans-Serif" font-size="10.00">ctime</text>
</a>
</g>
</g>
<!-- Node18&#45;&gt;Node24 -->
<g id="edge38" class="edge">
<title>Node18&#45;&gt;Node24</title>
<path fill="none" stroke="midnightblue" d="M739.28,-61.98C766.71,-51.71 812.93,-34.41 843.83,-22.85"/>
<polygon fill="midnightblue" stroke="midnightblue" points="845.14,-26.1 853.27,-19.32 842.68,-19.54 845.14,-26.1"/>
</g>
</g>
</svg>
