<?xml version="1.0" encoding="UTF-8" standalone="no"?>
<!DOCTYPE svg PUBLIC "-//W3C//DTD SVG 1.1//EN"
 "http://www.w3.org/Graphics/SVG/1.1/DTD/svg11.dtd">
<!-- Generated by graphviz version 2.43.0 (0)
 -->
<!-- Title: cFSPlib.cfsp_user.print_user_credentials_from_file Pages: 1 -->
<svg width="487pt" height="39pt"
 viewBox="0.00 0.00 487.00 39.00" xmlns="http://www.w3.org/2000/svg" xmlns:xlink="http://www.w3.org/1999/xlink">
<g id="graph0" class="graph" transform="scale(1 1) rotate(0) translate(4 35)">
<title>cFSPlib.cfsp_user.print_user_credentials_from_file</title>
<!-- Node1 -->
<g id="node1" class="node">
<title>Node1</title>
<g id="a_node1"><a xlink:title=" ">
<polygon fill="#bfbfbf" stroke="black" points="0,-0.5 0,-30.5 151,-30.5 151,-0.5 0,-0.5"/>
<text text-anchor="start" x="8" y="-18.5" font-family="Helvetica,sans-Serif" font-size="10.00">cFSPlib.cfsp_user.print</text>
<text text-anchor="middle" x="75.5" y="-7.5" font-family="Helvetica,sans-Serif" font-size="10.00">_user_credentials_from_file</text>
</a>
</g>
</g>
<!-- Node2 -->
<g id="node2" class="node">
<title>Node2</title>
<g id="a_node2"><a xlink:href="namespacecFSPlib_1_1cfsp__user.html#a6fc765e9b7161156cb72bacdb8959a95" target="_top" xlink:title=" ">
<polygon fill="none" stroke="black" points="187,-6 187,-25 315,-25 315,-6 187,-6"/>
<text text-anchor="middle" x="251" y="-13" font-family="Helvetica,sans-Serif" font-size="10.00">cFSPlib.cfsp_user.main</text>
</a>
</g>
</g>
<!-- Node1&#45;&gt;Node2 -->
<g id="edge1" class="edge">
<title>Node1&#45;&gt;Node2</title>
<path fill="none" stroke="midnightblue" d="M151.09,-8.81C159.57,-8.73 168.22,-8.73 176.69,-8.82"/>
<polygon fill="midnightblue" stroke="midnightblue" points="176.87,-12.33 186.92,-8.98 176.97,-5.33 176.87,-12.33"/>
</g>
<!-- Node2&#45;&gt;Node1 -->
<g id="edge2" class="edge">
<title>Node2&#45;&gt;Node1</title>
<path fill="none" stroke="midnightblue" d="M186.92,-22.02C178.55,-22.19 169.87,-22.26 161.21,-22.25"/>
<polygon fill="midnightblue" stroke="midnightblue" points="161.11,-18.75 151.09,-22.19 161.07,-25.75 161.11,-18.75"/>
</g>
<!-- Node3 -->
<g id="node3" class="node">
<title>Node3</title>
<g id="a_node3"><a xlink:href="namespacecFSPlib_1_1cfsp__user.html#a99296a7746d0c54c5fb488ca56943e75" target="_top" xlink:title=" ">
<polygon fill="none" stroke="black" points="351,-0.5 351,-30.5 479,-30.5 479,-0.5 351,-0.5"/>
<text text-anchor="start" x="359" y="-18.5" font-family="Helvetica,sans-Serif" font-size="10.00">cFSPlib.cfsp_user.write</text>
<text text-anchor="middle" x="415" y="-7.5" font-family="Helvetica,sans-Serif" font-size="10.00">_user_credentials</text>
</a>
</g>
</g>
<!-- Node2&#45;&gt;Node3 -->
<g id="edge3" class="edge">
<title>Node2&#45;&gt;Node3</title>
<path fill="none" stroke="midnightblue" d="M315.1,-15.5C323.43,-15.5 332.04,-15.5 340.53,-15.5"/>
<polygon fill="midnightblue" stroke="midnightblue" points="340.81,-19 350.81,-15.5 340.81,-12 340.81,-19"/>
</g>
</g>
</svg>
