<?xml version="1.0" encoding="UTF-8" standalone="no"?>
<!DOCTYPE svg PUBLIC "-//W3C//DTD SVG 1.1//EN"
 "http://www.w3.org/Graphics/SVG/1.1/DTD/svg11.dtd">
<!-- Generated by graphviz version 2.43.0 (0)
 -->
<!-- Title: test_warp_transform_numpi_video_threaded.main Pages: 1 -->
<svg width="376pt" height="166pt"
 viewBox="0.00 0.00 376.00 165.50" xmlns="http://www.w3.org/2000/svg" xmlns:xlink="http://www.w3.org/1999/xlink">
<g id="graph0" class="graph" transform="scale(1 1) rotate(0) translate(4 161.5)">
<title>test_warp_transform_numpi_video_threaded.main</title>
<!-- Node1 -->
<g id="node1" class="node">
<title>Node1</title>
<g id="a_node1"><a xlink:title=" ">
<polygon fill="#bfbfbf" stroke="black" points="0,-66.5 0,-96.5 161,-96.5 161,-66.5 0,-66.5"/>
<text text-anchor="start" x="8" y="-84.5" font-family="Helvetica,sans-Serif" font-size="10.00">test_warp_transform</text>
<text text-anchor="middle" x="80.5" y="-73.5" font-family="Helvetica,sans-Serif" font-size="10.00">_numpi_video_threaded.main</text>
</a>
</g>
</g>
<!-- Node2 -->
<g id="node2" class="node">
<title>Node2</title>
<g id="a_node2"><a xlink:href="namespacevar_1_1common.html#a0e8c2a1201adedb395a7e08410568717" target="_top" xlink:title=" ">
<polygon fill="none" stroke="black" points="229.5,-138 229.5,-157 335.5,-157 335.5,-138 229.5,-138"/>
<text text-anchor="middle" x="282.5" y="-145" font-family="Helvetica,sans-Serif" font-size="10.00">var.common.clock</text>
</a>
</g>
</g>
<!-- Node1&#45;&gt;Node2 -->
<g id="edge1" class="edge">
<title>Node1&#45;&gt;Node2</title>
<path fill="none" stroke="midnightblue" d="M114.33,-96.55C137.16,-106.6 168.49,-119.56 197,-128.5 205.15,-131.05 213.84,-133.41 222.43,-135.53"/>
<polygon fill="midnightblue" stroke="midnightblue" points="221.89,-139 232.43,-137.91 223.51,-132.19 221.89,-139"/>
</g>
<!-- Node3 -->
<g id="node3" class="node">
<title>Node3</title>
<g id="a_node3"><a xlink:href="namespacetest__median__blur__video__threaded__ray.html#a4ea97a5fa6202c13539fd028ddcb01e7" target="_top" xlink:title=" ">
<polygon fill="none" stroke="black" points="200,-88.5 200,-118.5 365,-118.5 365,-88.5 200,-88.5"/>
<text text-anchor="start" x="208" y="-106.5" font-family="Helvetica,sans-Serif" font-size="10.00">test_median_blur_video</text>
<text text-anchor="middle" x="282.5" y="-95.5" font-family="Helvetica,sans-Serif" font-size="10.00">_threaded_ray.crop_square_roi</text>
</a>
</g>
</g>
<!-- Node1&#45;&gt;Node3 -->
<g id="edge2" class="edge">
<title>Node1&#45;&gt;Node3</title>
<path fill="none" stroke="midnightblue" d="M161.12,-90.26C170.58,-91.3 180.29,-92.37 189.9,-93.42"/>
<polygon fill="midnightblue" stroke="midnightblue" points="189.54,-96.91 199.86,-94.52 190.31,-89.95 189.54,-96.91"/>
</g>
<!-- Node4 -->
<g id="node4" class="node">
<title>Node4</title>
<g id="a_node4"><a xlink:href="namespacevar_1_1common.html#a595600058e8a3c2ae1234489937dcdff" target="_top" xlink:title=" ">
<polygon fill="none" stroke="black" points="221.5,-50 221.5,-69 343.5,-69 343.5,-50 221.5,-50"/>
<text text-anchor="middle" x="282.5" y="-57" font-family="Helvetica,sans-Serif" font-size="10.00">var.common.draw_str</text>
</a>
</g>
</g>
<!-- Node1&#45;&gt;Node4 -->
<g id="edge3" class="edge">
<title>Node1&#45;&gt;Node4</title>
<path fill="none" stroke="midnightblue" d="M161.12,-72.74C177.56,-70.93 194.77,-69.04 210.87,-67.27"/>
<polygon fill="midnightblue" stroke="midnightblue" points="211.71,-70.7 221.26,-66.13 210.94,-63.74 211.71,-70.7"/>
</g>
<!-- Node5 -->
<g id="node5" class="node">
<title>Node5</title>
<g id="a_node5"><a xlink:href="namespacetest__median__blur__video__threaded__ray.html#a00851c01859ad56534dab7f3c7fa5df2" target="_top" xlink:title=" ">
<polygon fill="none" stroke="black" points="197,-0.5 197,-30.5 368,-30.5 368,-0.5 197,-0.5"/>
<text text-anchor="start" x="205" y="-18.5" font-family="Helvetica,sans-Serif" font-size="10.00">test_median_blur_video</text>
<text text-anchor="middle" x="282.5" y="-7.5" font-family="Helvetica,sans-Serif" font-size="10.00">_threaded_ray.patch_sqaure_roi</text>
</a>
</g>
</g>
<!-- Node1&#45;&gt;Node5 -->
<g id="edge4" class="edge">
<title>Node1&#45;&gt;Node5</title>
<path fill="none" stroke="midnightblue" d="M122.21,-66.45C144.25,-58.45 172.01,-48.63 197,-40.5 204.18,-38.16 211.74,-35.8 219.25,-33.5"/>
<polygon fill="midnightblue" stroke="midnightblue" points="220.52,-36.78 229.08,-30.54 218.49,-30.08 220.52,-36.78"/>
</g>
</g>
</svg>
