<?xml version="1.0" encoding="UTF-8" standalone="no"?>
<!DOCTYPE svg PUBLIC "-//W3C//DTD SVG 1.1//EN"
 "http://www.w3.org/Graphics/SVG/1.1/DTD/svg11.dtd">
<!-- Generated by graphviz version 2.43.0 (0)
 -->
<!-- Title: admin_sig.main Pages: 1 -->
<svg width="286pt" height="116pt"
 viewBox="0.00 0.00 286.00 115.50" xmlns="http://www.w3.org/2000/svg" xmlns:xlink="http://www.w3.org/1999/xlink">
<g id="graph0" class="graph" transform="scale(1 1) rotate(0) translate(4 111.5)">
<title>admin_sig.main</title>
<!-- Node1 -->
<g id="node1" class="node">
<title>Node1</title>
<g id="a_node1"><a xlink:title=" ">
<polygon fill="#bfbfbf" stroke="black" points="0,-38.5 0,-57.5 95,-57.5 95,-38.5 0,-38.5"/>
<text text-anchor="middle" x="47.5" y="-45.5" font-family="Helvetica,sans-Serif" font-size="10.00">admin_sig.main</text>
</a>
</g>
</g>
<!-- Node2 -->
<g id="node2" class="node">
<title>Node2</title>
<g id="a_node2"><a xlink:href="namespaceadmin__sig.html#a6fc88fc2ae1ba1a4c938dc1640146158" target="_top" xlink:title=" ">
<polygon fill="none" stroke="black" points="143.5,-77 143.5,-107 265.5,-107 265.5,-77 143.5,-77"/>
<text text-anchor="start" x="151.5" y="-95" font-family="Helvetica,sans-Serif" font-size="10.00">admin_sig.get_admin</text>
<text text-anchor="middle" x="204.5" y="-84" font-family="Helvetica,sans-Serif" font-size="10.00">_sig_string</text>
</a>
</g>
</g>
<!-- Node1&#45;&gt;Node2 -->
<g id="edge1" class="edge">
<title>Node1&#45;&gt;Node2</title>
<path fill="none" stroke="midnightblue" d="M82.13,-57.55C99.27,-62.41 120.68,-68.49 140.72,-74.18"/>
<polygon fill="midnightblue" stroke="midnightblue" points="139.85,-77.57 150.43,-76.93 141.76,-70.84 139.85,-77.57"/>
</g>
<!-- Node3 -->
<g id="node3" class="node">
<title>Node3</title>
<g id="a_node3"><a xlink:href="namespaceadmin__sig.html#a7705b30f409ebbebce5af47047b8e4d2" target="_top" xlink:title=" ">
<polygon fill="none" stroke="black" points="137.5,-38.5 137.5,-57.5 271.5,-57.5 271.5,-38.5 137.5,-38.5"/>
<text text-anchor="middle" x="204.5" y="-45.5" font-family="Helvetica,sans-Serif" font-size="10.00">admin_sig.get_file_hash</text>
</a>
</g>
</g>
<!-- Node1&#45;&gt;Node3 -->
<g id="edge2" class="edge">
<title>Node1&#45;&gt;Node3</title>
<path fill="none" stroke="midnightblue" d="M95.01,-48C105.18,-48 116.2,-48 127.2,-48"/>
<polygon fill="midnightblue" stroke="midnightblue" points="127.26,-51.5 137.26,-48 127.26,-44.5 127.26,-51.5"/>
</g>
<!-- Node4 -->
<g id="node4" class="node">
<title>Node4</title>
<g id="a_node4"><a xlink:href="namespaceadmin__sig.html#a0a58415533f802be04c60719646dea06" target="_top" xlink:title=" ">
<polygon fill="none" stroke="black" points="131,-0.5 131,-19.5 278,-19.5 278,-0.5 131,-0.5"/>
<text text-anchor="middle" x="204.5" y="-7.5" font-family="Helvetica,sans-Serif" font-size="10.00">admin_sig.get_string_hash</text>
</a>
</g>
</g>
<!-- Node1&#45;&gt;Node4 -->
<g id="edge3" class="edge">
<title>Node1&#45;&gt;Node4</title>
<path fill="none" stroke="midnightblue" d="M87.61,-38.41C107.97,-33.42 133.07,-27.27 154.69,-21.97"/>
<polygon fill="midnightblue" stroke="midnightblue" points="155.79,-25.3 164.67,-19.52 154.12,-18.5 155.79,-25.3"/>
</g>
</g>
</svg>
