<?xml version="1.0" encoding="UTF-8" standalone="no"?>
<!DOCTYPE svg PUBLIC "-//W3C//DTD SVG 1.1//EN"
 "http://www.w3.org/Graphics/SVG/1.1/DTD/svg11.dtd">
<!-- Generated by graphviz version 2.43.0 (0)
 -->
<!-- Title: tc_utils.display_throughput Pages: 1 -->
<svg width="372pt" height="154pt"
 viewBox="0.00 0.00 372.00 154.00" xmlns="http://www.w3.org/2000/svg" xmlns:xlink="http://www.w3.org/1999/xlink">
<g id="graph0" class="graph" transform="scale(1 1) rotate(0) translate(4 150)">
<title>tc_utils.display_throughput</title>
<!-- Node1 -->
<g id="node1" class="node">
<title>Node1</title>
<g id="a_node1"><a xlink:title=" ">
<polygon fill="#bfbfbf" stroke="black" points="215,-66.5 215,-85.5 364,-85.5 364,-66.5 215,-66.5"/>
<text text-anchor="middle" x="289.5" y="-73.5" font-family="Helvetica,sans-Serif" font-size="10.00">tc_utils.display_throughput</text>
</a>
</g>
</g>
<!-- Node2 -->
<g id="node2" class="node">
<title>Node2</title>
<g id="a_node2"><a xlink:href="namespacetc__TcpSend.html#a09e04404ec4ae1d4f3140068087e437a" target="_top" xlink:title=" ">
<polygon fill="none" stroke="black" points="24.5,-126.5 24.5,-145.5 154.5,-145.5 154.5,-126.5 24.5,-126.5"/>
<text text-anchor="middle" x="89.5" y="-133.5" font-family="Helvetica,sans-Serif" font-size="10.00">tc_TcpSend.tcp_tx_loop</text>
</a>
</g>
</g>
<!-- Node1&#45;&gt;Node2 -->
<g id="edge1" class="edge">
<title>Node1&#45;&gt;Node2</title>
<path fill="none" stroke="midnightblue" d="M256.41,-89.44C234.81,-98.13 205.52,-109.23 179,-117 166.93,-120.53 153.77,-123.71 141.37,-126.42"/>
<polygon fill="midnightblue" stroke="midnightblue" points="257.82,-92.64 265.76,-85.63 255.18,-86.16 257.82,-92.64"/>
</g>
<!-- Node3 -->
<g id="node3" class="node">
<title>Node3</title>
<g id="a_node3"><a xlink:href="namespacetc__TcpSend.html#ae5ac2ff6bfdd1b2972a6fef2836c51f5" target="_top" xlink:title=" ">
<polygon fill="none" stroke="black" points="0,-88.5 0,-107.5 179,-107.5 179,-88.5 0,-88.5"/>
<text text-anchor="middle" x="89.5" y="-95.5" font-family="Helvetica,sans-Serif" font-size="10.00">tc_TcpSend.tcp_tx_payload_ramp</text>
</a>
</g>
</g>
<!-- Node1&#45;&gt;Node3 -->
<g id="edge2" class="edge">
<title>Node1&#45;&gt;Node3</title>
<path fill="none" stroke="midnightblue" d="M204.68,-85.31C195.29,-86.36 185.72,-87.42 176.31,-88.47"/>
<polygon fill="midnightblue" stroke="midnightblue" points="205.22,-88.77 214.77,-84.19 204.45,-81.82 205.22,-88.77"/>
</g>
<!-- Node4 -->
<g id="node4" class="node">
<title>Node4</title>
<g id="a_node4"><a xlink:href="namespacetc__TcpSend.html#ad0124f54fe08169e5e176771e93f7f3f" target="_top" xlink:title=" ">
<polygon fill="none" stroke="black" points="26.5,-39 26.5,-69 152.5,-69 152.5,-39 26.5,-39"/>
<text text-anchor="start" x="34.5" y="-57" font-family="Helvetica,sans-Serif" font-size="10.00">tc_TcpSend.tcp_tx_seg</text>
<text text-anchor="middle" x="89.5" y="-46" font-family="Helvetica,sans-Serif" font-size="10.00">_size_ramp</text>
</a>
</g>
</g>
<!-- Node1&#45;&gt;Node4 -->
<g id="edge3" class="edge">
<title>Node1&#45;&gt;Node4</title>
<path fill="none" stroke="midnightblue" d="M204.6,-66.68C187.17,-64.74 169.09,-62.73 152.61,-60.9"/>
<polygon fill="midnightblue" stroke="midnightblue" points="204.45,-70.18 214.77,-67.81 205.22,-63.23 204.45,-70.18"/>
</g>
<!-- Node5 -->
<g id="node5" class="node">
<title>Node5</title>
<g id="a_node5"><a xlink:href="namespacetc__TcpSend.html#aeb4f90391f7edb3396f94fd2630d9e29" target="_top" xlink:title=" ">
<polygon fill="none" stroke="black" points="12,-0.5 12,-19.5 167,-19.5 167,-0.5 12,-0.5"/>
<text text-anchor="middle" x="89.5" y="-7.5" font-family="Helvetica,sans-Serif" font-size="10.00">tc_TcpSend.tcp_tx_slowpace</text>
</a>
</g>
</g>
<!-- Node1&#45;&gt;Node5 -->
<g id="edge4" class="edge">
<title>Node1&#45;&gt;Node5</title>
<path fill="none" stroke="midnightblue" d="M259.39,-62.12C237.62,-52.15 206.93,-38.95 179,-30 166.55,-26.01 152.87,-22.51 140.07,-19.59"/>
<polygon fill="midnightblue" stroke="midnightblue" points="258.17,-65.41 268.72,-66.44 261.12,-59.06 258.17,-65.41"/>
</g>
</g>
</svg>
