<?xml version="1.0" encoding="UTF-8" standalone="no"?>
<!DOCTYPE svg PUBLIC "-//W3C//DTD SVG 1.1//EN"
 "http://www.w3.org/Graphics/SVG/1.1/DTD/svg11.dtd">
<!-- Generated by graphviz version 2.43.0 (0)
 -->
<!-- Title: repos_for_Dox/cFDK/SRA/LIB/SHELL/LIB/hls/network_utils.hpp Pages: 1 -->
<!--zoomable 362 -->
<svg id="main" version="1.1" xmlns="http://www.w3.org/2000/svg" xmlns:xlink="http://www.w3.org/1999/xlink" xml:space="preserve" onload="init(evt)">
<style type="text/css"><![CDATA[
.edge:hover path { stroke: red; }
.edge:hover polygon { stroke: red; fill: red; }
]]></style>
<script type="text/javascript"><![CDATA[
var edges = document.getElementsByTagName('g');
if (edges && edges.length) {
  for (var i=0;i<edges.length;i++) {
    if (edges[i].id.substr(0,4)=='edge') {
      edges[i].setAttribute('class','edge');
    }
  }
}
]]></script>
        <defs>
                <circle id="rim" cx="0" cy="0" r="7"/>
                <circle id="rim2" cx="0" cy="0" r="3.5"/>
                <g id="zoomPlus">
                        <use xlink:href="#rim" fill="#404040">
                                <set attributeName="fill" to="#808080" begin="zoomplus.mouseover" end="zoomplus.mouseout"/>
                        </use>
                        <path d="M-4,0h8M0,-4v8" fill="none" stroke="white" stroke-width="1.5" pointer-events="none"/>
                </g>
                <g id="zoomMin">
                        <use xlink:href="#rim" fill="#404040">
                                <set attributeName="fill" to="#808080" begin="zoomminus.mouseover" end="zoomminus.mouseout"/>
                        </use>
                        <path d="M-4,0h8" fill="none" stroke="white" stroke-width="1.5" pointer-events="none"/>
                </g>
                <g id="dirArrow">
                        <path fill="none" stroke="white" stroke-width="1.5" d="M0,-3.0v7 M-2.5,-0.5L0,-3.0L2.5,-0.5"/>
                </g>
               <g id="resetDef">
                       <use xlink:href="#rim2" fill="#404040">
                               <set attributeName="fill" to="#808080" begin="reset.mouseover" end="reset.mouseout"/>
                       </use>
               </g>
        </defs>

<script type="text/javascript">
var viewWidth = 965;
var viewHeight = 362;
var sectionId = 'dynsection-1';
</script>
<script xlink:href="svgpan.js"/>
<svg id="graph" class="graph">
<g id="viewport">
<title>repos_for_Dox/cFDK/SRA/LIB/SHELL/LIB/hls/network_utils.hpp</title>
<!-- Node1 -->
<g id="node1" class="node">
<title>Node1</title>
<g id="a_node1"><a xlink:title=" ">
<polygon fill="#bfbfbf" stroke="black" points="506,-312.5 506,-353.5 631,-353.5 631,-312.5 506,-312.5"/>
<text text-anchor="start" x="514" y="-341.5" font-family="Helvetica,sans-Serif" font-size="10.00">repos_for_Dox/cFDK</text>
<text text-anchor="start" x="514" y="-330.5" font-family="Helvetica,sans-Serif" font-size="10.00">/SRA/LIB/SHELL/LIB/hls</text>
<text text-anchor="middle" x="568.5" y="-319.5" font-family="Helvetica,sans-Serif" font-size="10.00">/network_utils.hpp</text>
</a>
</g>
</g>
<!-- Node2 -->
<g id="node2" class="node">
<title>Node2</title>
<g id="a_node2"><a xlink:href="fmc_8hpp.html" target="_top" xlink:title=":">
<polygon fill="none" stroke="black" points="370,-234.5 370,-275.5 495,-275.5 495,-234.5 370,-234.5"/>
<text text-anchor="start" x="378" y="-263.5" font-family="Helvetica,sans-Serif" font-size="10.00">repos_for_Dox/cFDK</text>
<text text-anchor="start" x="378" y="-252.5" font-family="Helvetica,sans-Serif" font-size="10.00">/SRA/LIB/SHELL/LIB/hls</text>
<text text-anchor="middle" x="432.5" y="-241.5" font-family="Helvetica,sans-Serif" font-size="10.00">/FMC/src/fmc.hpp</text>
</a>
</g>
</g>
<!-- Node1&#45;&gt;Node2 -->
<g id="edge1" class="edge">
<title>Node1&#45;&gt;Node2</title>
<path fill="none" stroke="midnightblue" d="M524.63,-307.49C506.11,-297.13 484.84,-285.25 467.4,-275.51"/>
<polygon fill="midnightblue" stroke="midnightblue" points="523.04,-310.61 533.48,-312.43 526.45,-304.49 523.04,-310.61"/>
</g>
<!-- Node6 -->
<g id="node6" class="node">
<title>Node6</title>
<g id="a_node6"><a xlink:href="nal_8hpp.html" target="_top" xlink:title=": The cloudFPGA Network Abstraction Layer (NAL) between NTS and ROlE. The NAL core manages the NTS St...">
<polygon fill="none" stroke="black" points="461,-156.5 461,-197.5 586,-197.5 586,-156.5 461,-156.5"/>
<text text-anchor="start" x="469" y="-185.5" font-family="Helvetica,sans-Serif" font-size="10.00">repos_for_Dox/cFDK</text>
<text text-anchor="start" x="469" y="-174.5" font-family="Helvetica,sans-Serif" font-size="10.00">/SRA/LIB/SHELL/LIB/hls</text>
<text text-anchor="middle" x="523.5" y="-163.5" font-family="Helvetica,sans-Serif" font-size="10.00">/NAL/src/nal.hpp</text>
</a>
</g>
</g>
<!-- Node1&#45;&gt;Node6 -->
<g id="edge22" class="edge">
<title>Node1&#45;&gt;Node6</title>
<path fill="none" stroke="midnightblue" d="M553.44,-303.08C549.44,-294.53 545.43,-285.04 542.5,-276 533.91,-249.45 528.61,-217.54 525.86,-197.5"/>
<polygon fill="midnightblue" stroke="midnightblue" points="550.38,-304.79 557.9,-312.26 556.68,-301.73 550.38,-304.79"/>
</g>
<!-- Node15 -->
<g id="node15" class="node">
<title>Node15</title>
<g id="a_node15"><a xlink:href="network__utils_8cpp.html" target="_top" xlink:title=" ">
<polygon fill="none" stroke="black" points="552,-234.5 552,-275.5 677,-275.5 677,-234.5 552,-234.5"/>
<text text-anchor="start" x="560" y="-263.5" font-family="Helvetica,sans-Serif" font-size="10.00">repos_for_Dox/cFDK</text>
<text text-anchor="start" x="560" y="-252.5" font-family="Helvetica,sans-Serif" font-size="10.00">/SRA/LIB/SHELL/LIB/hls</text>
<text text-anchor="middle" x="614.5" y="-241.5" font-family="Helvetica,sans-Serif" font-size="10.00">/network_utils.cpp</text>
</a>
</g>
</g>
<!-- Node1&#45;&gt;Node15 -->
<g id="edge23" class="edge">
<title>Node1&#45;&gt;Node15</title>
<path fill="none" stroke="midnightblue" d="M585.59,-303.76C591.29,-294.35 597.49,-284.1 602.69,-275.51"/>
<polygon fill="midnightblue" stroke="midnightblue" points="582.53,-302.06 580.35,-312.43 588.52,-305.69 582.53,-302.06"/>
</g>
<!-- Node16 -->
<g id="node16" class="node">
<title>Node16</title>
<g id="a_node16"><a xlink:href="simulation__utils_8hpp.html" target="_top" xlink:title=" ">
<polygon fill="none" stroke="black" points="695,-234.5 695,-275.5 820,-275.5 820,-234.5 695,-234.5"/>
<text text-anchor="start" x="703" y="-263.5" font-family="Helvetica,sans-Serif" font-size="10.00">repos_for_Dox/cFDK</text>
<text text-anchor="start" x="703" y="-252.5" font-family="Helvetica,sans-Serif" font-size="10.00">/SRA/LIB/SHELL/LIB/hls</text>
<text text-anchor="middle" x="757.5" y="-241.5" font-family="Helvetica,sans-Serif" font-size="10.00">/simulation_utils.hpp</text>
</a>
</g>
</g>
<!-- Node1&#45;&gt;Node16 -->
<g id="edge24" class="edge">
<title>Node1&#45;&gt;Node16</title>
<path fill="none" stroke="midnightblue" d="M626.67,-308.61C653.05,-298 683.89,-285.6 708.99,-275.51"/>
<polygon fill="midnightblue" stroke="midnightblue" points="625.14,-305.45 617.17,-312.43 627.76,-311.94 625.14,-305.45"/>
</g>
<!-- Node3 -->
<g id="node3" class="node">
<title>Node3</title>
<g id="a_node3"><a xlink:href="fmc_8cpp.html" target="_top" xlink:title=":">
<polygon fill="none" stroke="black" points="136,-156.5 136,-197.5 261,-197.5 261,-156.5 136,-156.5"/>
<text text-anchor="start" x="144" y="-185.5" font-family="Helvetica,sans-Serif" font-size="10.00">repos_for_Dox/cFDK</text>
<text text-anchor="start" x="144" y="-174.5" font-family="Helvetica,sans-Serif" font-size="10.00">/SRA/LIB/SHELL/LIB/hls</text>
<text text-anchor="middle" x="198.5" y="-163.5" font-family="Helvetica,sans-Serif" font-size="10.00">/FMC/src/fmc.cpp</text>
</a>
</g>
</g>
<!-- Node2&#45;&gt;Node3 -->
<g id="edge2" class="edge">
<title>Node2&#45;&gt;Node3</title>
<path fill="none" stroke="midnightblue" d="M362.62,-231.3C329.5,-220.55 290.32,-207.82 258.56,-197.51"/>
<polygon fill="midnightblue" stroke="midnightblue" points="361.65,-234.67 372.24,-234.43 363.81,-228.01 361.65,-234.67"/>
</g>
<!-- Node4 -->
<g id="node4" class="node">
<title>Node4</title>
<g id="a_node4"><a xlink:href="http_8cpp.html" target="_top" xlink:title=":">
<polygon fill="none" stroke="black" points="279,-156.5 279,-197.5 404,-197.5 404,-156.5 279,-156.5"/>
<text text-anchor="start" x="287" y="-185.5" font-family="Helvetica,sans-Serif" font-size="10.00">repos_for_Dox/cFDK</text>
<text text-anchor="start" x="287" y="-174.5" font-family="Helvetica,sans-Serif" font-size="10.00">/SRA/LIB/SHELL/LIB/hls</text>
<text text-anchor="middle" x="341.5" y="-163.5" font-family="Helvetica,sans-Serif" font-size="10.00">/FMC/src/http.cpp</text>
</a>
</g>
</g>
<!-- Node2&#45;&gt;Node4 -->
<g id="edge3" class="edge">
<title>Node2&#45;&gt;Node4</title>
<path fill="none" stroke="midnightblue" d="M401.1,-227.78C389.21,-217.84 375.88,-206.72 364.86,-197.51"/>
<polygon fill="midnightblue" stroke="midnightblue" points="399.15,-230.7 409.07,-234.43 403.63,-225.33 399.15,-230.7"/>
</g>
<!-- Node5 -->
<g id="node5" class="node">
<title>Node5</title>
<g id="a_node5"><a xlink:href="tb__fmc_8cpp.html" target="_top" xlink:title=":">
<polygon fill="none" stroke="black" points="0,-78.5 0,-119.5 125,-119.5 125,-78.5 0,-78.5"/>
<text text-anchor="start" x="8" y="-107.5" font-family="Helvetica,sans-Serif" font-size="10.00">repos_for_Dox/cFDK</text>
<text text-anchor="start" x="8" y="-96.5" font-family="Helvetica,sans-Serif" font-size="10.00">/SRA/LIB/SHELL/LIB/hls</text>
<text text-anchor="middle" x="62.5" y="-85.5" font-family="Helvetica,sans-Serif" font-size="10.00">/FMC/tb/tb_fmc.cpp</text>
</a>
</g>
</g>
<!-- Node2&#45;&gt;Node5 -->
<g id="edge4" class="edge">
<title>Node2&#45;&gt;Node5</title>
<path fill="none" stroke="midnightblue" d="M434.88,-224.09C434.87,-202.05 430.86,-173.07 412.5,-156 366.71,-113.44 194.75,-132.51 133.5,-120 130.74,-119.44 127.93,-118.82 125.1,-118.17"/>
<polygon fill="midnightblue" stroke="midnightblue" points="431.38,-224.17 434.61,-234.26 438.38,-224.36 431.38,-224.17"/>
</g>
<!-- Node2&#45;&gt;Node6 -->
<g id="edge5" class="edge">
<title>Node2&#45;&gt;Node6</title>
<path fill="none" stroke="midnightblue" d="M457.44,-227.78C468.82,-217.84 482.3,-206.72 494.16,-197.51"/>
<polygon fill="midnightblue" stroke="midnightblue" points="455.11,-225.17 449.95,-234.43 459.75,-230.41 455.11,-225.17"/>
</g>
<!-- Node6&#45;&gt;Node2 -->
<g id="edge6" class="edge">
<title>Node6&#45;&gt;Node2</title>
<path fill="none" stroke="midnightblue" d="M498.64,-204.15C487.27,-214.08 473.79,-225.21 461.92,-234.43"/>
<polygon fill="midnightblue" stroke="midnightblue" points="500.97,-206.76 506.13,-197.51 496.32,-201.52 500.97,-206.76"/>
</g>
<!-- Node6&#45;&gt;Node5 -->
<g id="edge7" class="edge">
<title>Node6&#45;&gt;Node5</title>
<path fill="none" stroke="midnightblue" d="M450.42,-156.75C449.11,-156.49 447.8,-156.24 446.5,-156 308.84,-130.34 270.89,-147.07 133.5,-120 130.74,-119.46 127.92,-118.86 125.09,-118.22"/>
<polygon fill="midnightblue" stroke="midnightblue" points="450.12,-160.27 460.63,-158.91 451.57,-153.42 450.12,-160.27"/>
</g>
<!-- Node7 -->
<g id="node7" class="node">
<title>Node7</title>
<g id="a_node7"><a xlink:href="hss_8cpp.html" target="_top" xlink:title=": The Housekeeping Sub System (HSS) of the NAL core.">
<polygon fill="none" stroke="black" points="588,-0.5 588,-41.5 713,-41.5 713,-0.5 588,-0.5"/>
<text text-anchor="start" x="596" y="-29.5" font-family="Helvetica,sans-Serif" font-size="10.00">repos_for_Dox/cFDK</text>
<text text-anchor="start" x="596" y="-18.5" font-family="Helvetica,sans-Serif" font-size="10.00">/SRA/LIB/SHELL/LIB/hls</text>
<text text-anchor="middle" x="650.5" y="-7.5" font-family="Helvetica,sans-Serif" font-size="10.00">/NAL/src/hss.cpp</text>
</a>
</g>
</g>
<!-- Node6&#45;&gt;Node7 -->
<g id="edge8" class="edge">
<title>Node6&#45;&gt;Node7</title>
<path fill="none" stroke="midnightblue" d="M595.75,-155.32C612.97,-147.03 629.51,-135.62 640.5,-120 656.74,-96.92 656.2,-62.88 653.76,-41.6"/>
<polygon fill="midnightblue" stroke="midnightblue" points="593.85,-152.33 586.15,-159.6 596.71,-158.72 593.85,-152.33"/>
</g>
<!-- Node8 -->
<g id="node8" class="node">
<title>Node8</title>
<g id="a_node8"><a xlink:href="hss_8hpp.html" target="_top" xlink:title=": The Housekeeping Sub System (HSS) of the NAL core.">
<polygon fill="none" stroke="black" points="689,-78.5 689,-119.5 814,-119.5 814,-78.5 689,-78.5"/>
<text text-anchor="start" x="697" y="-107.5" font-family="Helvetica,sans-Serif" font-size="10.00">repos_for_Dox/cFDK</text>
<text text-anchor="start" x="697" y="-96.5" font-family="Helvetica,sans-Serif" font-size="10.00">/SRA/LIB/SHELL/LIB/hls</text>
<text text-anchor="middle" x="751.5" y="-85.5" font-family="Helvetica,sans-Serif" font-size="10.00">/NAL/src/hss.hpp</text>
</a>
</g>
</g>
<!-- Node6&#45;&gt;Node8 -->
<g id="edge9" class="edge">
<title>Node6&#45;&gt;Node8</title>
<path fill="none" stroke="midnightblue" d="M585.91,-153.11C617.85,-142.21 656.61,-129.33 688.62,-118.98"/>
<polygon fill="midnightblue" stroke="midnightblue" points="584.55,-149.88 576.23,-156.43 586.82,-156.5 584.55,-149.88"/>
</g>
<!-- Node9 -->
<g id="node9" class="node">
<title>Node9</title>
<g id="a_node9"><a xlink:href="nal_8cpp.html" target="_top" xlink:title=" ">
<polygon fill="none" stroke="black" points="143,-78.5 143,-119.5 268,-119.5 268,-78.5 143,-78.5"/>
<text text-anchor="start" x="151" y="-107.5" font-family="Helvetica,sans-Serif" font-size="10.00">repos_for_Dox/cFDK</text>
<text text-anchor="start" x="151" y="-96.5" font-family="Helvetica,sans-Serif" font-size="10.00">/SRA/LIB/SHELL/LIB/hls</text>
<text text-anchor="middle" x="205.5" y="-85.5" font-family="Helvetica,sans-Serif" font-size="10.00">/NAL/src/nal.cpp</text>
</a>
</g>
</g>
<!-- Node6&#45;&gt;Node9 -->
<g id="edge11" class="edge">
<title>Node6&#45;&gt;Node9</title>
<path fill="none" stroke="midnightblue" d="M450.95,-157.07C449.45,-156.71 447.97,-156.35 446.5,-156 373.93,-138.62 355.07,-137.38 282.5,-120 277.8,-118.87 272.94,-117.68 268.07,-116.46"/>
<polygon fill="midnightblue" stroke="midnightblue" points="450.39,-160.54 460.93,-159.54 452.06,-153.74 450.39,-160.54"/>
</g>
<!-- Node10 -->
<g id="node10" class="node">
<title>Node10</title>
<g id="a_node10"><a xlink:href="tss_8cpp.html" target="_top" xlink:title=": The TCP Sub System (TSS) of the NAL core.">
<polygon fill="none" stroke="black" points="264,-0.5 264,-41.5 389,-41.5 389,-0.5 264,-0.5"/>
<text text-anchor="start" x="272" y="-29.5" font-family="Helvetica,sans-Serif" font-size="10.00">repos_for_Dox/cFDK</text>
<text text-anchor="start" x="272" y="-18.5" font-family="Helvetica,sans-Serif" font-size="10.00">/SRA/LIB/SHELL/LIB/hls</text>
<text text-anchor="middle" x="326.5" y="-7.5" font-family="Helvetica,sans-Serif" font-size="10.00">/NAL/src/tss.cpp</text>
</a>
</g>
</g>
<!-- Node6&#45;&gt;Node10 -->
<g id="edge12" class="edge">
<title>Node6&#45;&gt;Node10</title>
<path fill="none" stroke="midnightblue" d="M451.19,-157.07C391.58,-141.39 316.59,-121.43 315.5,-120 298.32,-97.58 307.85,-63.35 316.8,-41.85"/>
<polygon fill="midnightblue" stroke="midnightblue" points="450.43,-160.49 460.99,-159.65 452.21,-153.72 450.43,-160.49"/>
</g>
<!-- Node11 -->
<g id="node11" class="node">
<title>Node11</title>
<g id="a_node11"><a xlink:href="tss_8hpp.html" target="_top" xlink:title=": The TCP Sub System (TSS) of the NAL core.">
<polygon fill="none" stroke="black" points="325,-78.5 325,-119.5 450,-119.5 450,-78.5 325,-78.5"/>
<text text-anchor="start" x="333" y="-107.5" font-family="Helvetica,sans-Serif" font-size="10.00">repos_for_Dox/cFDK</text>
<text text-anchor="start" x="333" y="-96.5" font-family="Helvetica,sans-Serif" font-size="10.00">/SRA/LIB/SHELL/LIB/hls</text>
<text text-anchor="middle" x="387.5" y="-85.5" font-family="Helvetica,sans-Serif" font-size="10.00">/NAL/src/tss.hpp</text>
</a>
</g>
</g>
<!-- Node6&#45;&gt;Node11 -->
<g id="edge13" class="edge">
<title>Node6&#45;&gt;Node11</title>
<path fill="none" stroke="midnightblue" d="M473.54,-151.63C454.31,-141.24 433.05,-129.29 416.42,-119.51"/>
<polygon fill="midnightblue" stroke="midnightblue" points="472.02,-154.79 482.49,-156.43 475.33,-148.62 472.02,-154.79"/>
</g>
<!-- Node12 -->
<g id="node12" class="node">
<title>Node12</title>
<g id="a_node12"><a xlink:href="uss_8cpp.html" target="_top" xlink:title=": The UDP Sub System (USS) of the NAL core.">
<polygon fill="none" stroke="black" points="426,-0.5 426,-41.5 551,-41.5 551,-0.5 426,-0.5"/>
<text text-anchor="start" x="434" y="-29.5" font-family="Helvetica,sans-Serif" font-size="10.00">repos_for_Dox/cFDK</text>
<text text-anchor="start" x="434" y="-18.5" font-family="Helvetica,sans-Serif" font-size="10.00">/SRA/LIB/SHELL/LIB/hls</text>
<text text-anchor="middle" x="488.5" y="-7.5" font-family="Helvetica,sans-Serif" font-size="10.00">/NAL/src/uss.cpp</text>
</a>
</g>
</g>
<!-- Node6&#45;&gt;Node12 -->
<g id="edge16" class="edge">
<title>Node6&#45;&gt;Node12</title>
<path fill="none" stroke="midnightblue" d="M507.86,-147.26C503.85,-138.71 499.97,-129.17 497.5,-120 490.39,-93.6 488.65,-61.92 488.35,-41.87"/>
<polygon fill="midnightblue" stroke="midnightblue" points="504.82,-148.99 512.38,-156.41 511.09,-145.9 504.82,-148.99"/>
</g>
<!-- Node13 -->
<g id="node13" class="node">
<title>Node13</title>
<g id="a_node13"><a xlink:href="uss_8hpp.html" target="_top" xlink:title=": The UDP Sub System (USS) of the NAL core.">
<polygon fill="none" stroke="black" points="507,-78.5 507,-119.5 632,-119.5 632,-78.5 507,-78.5"/>
<text text-anchor="start" x="515" y="-107.5" font-family="Helvetica,sans-Serif" font-size="10.00">repos_for_Dox/cFDK</text>
<text text-anchor="start" x="515" y="-96.5" font-family="Helvetica,sans-Serif" font-size="10.00">/SRA/LIB/SHELL/LIB/hls</text>
<text text-anchor="middle" x="569.5" y="-85.5" font-family="Helvetica,sans-Serif" font-size="10.00">/NAL/src/uss.hpp</text>
</a>
</g>
</g>
<!-- Node6&#45;&gt;Node13 -->
<g id="edge17" class="edge">
<title>Node6&#45;&gt;Node13</title>
<path fill="none" stroke="midnightblue" d="M534.21,-147.47C539.47,-138.14 545.8,-128.01 551.71,-119.51"/>
<polygon fill="midnightblue" stroke="midnightblue" points="531.04,-145.97 529.36,-156.43 537.2,-149.3 531.04,-145.97"/>
</g>
<!-- Node14 -->
<g id="node14" class="node">
<title>Node14</title>
<g id="a_node14"><a xlink:href="tb__nal_8cpp.html" target="_top" xlink:title=" ">
<polygon fill="none" stroke="black" points="832,-78.5 832,-119.5 957,-119.5 957,-78.5 832,-78.5"/>
<text text-anchor="start" x="840" y="-107.5" font-family="Helvetica,sans-Serif" font-size="10.00">repos_for_Dox/cFDK</text>
<text text-anchor="start" x="840" y="-96.5" font-family="Helvetica,sans-Serif" font-size="10.00">/SRA/LIB/SHELL/LIB/hls</text>
<text text-anchor="middle" x="894.5" y="-85.5" font-family="Helvetica,sans-Serif" font-size="10.00">/NAL/test/tb_nal.cpp</text>
</a>
</g>
</g>
<!-- Node6&#45;&gt;Node14 -->
<g id="edge21" class="edge">
<title>Node6&#45;&gt;Node14</title>
<path fill="none" stroke="midnightblue" d="M596.1,-164.33C657.1,-154.08 746.4,-138.02 823.5,-120 826.24,-119.36 829.04,-118.68 831.86,-117.98"/>
<polygon fill="midnightblue" stroke="midnightblue" points="595.47,-160.89 586.18,-165.99 596.62,-167.79 595.47,-160.89"/>
</g>
<!-- Node8&#45;&gt;Node6 -->
<g id="edge10" class="edge">
<title>Node8&#45;&gt;Node6</title>
<path fill="none" stroke="midnightblue" d="M689.04,-122.91C657,-133.84 618.13,-146.76 586.08,-157.12"/>
<polygon fill="midnightblue" stroke="midnightblue" points="690.42,-126.13 698.74,-119.58 688.15,-119.51 690.42,-126.13"/>
</g>
<!-- Node11&#45;&gt;Node6 -->
<g id="edge14" class="edge">
<title>Node11&#45;&gt;Node6</title>
<path fill="none" stroke="midnightblue" d="M437.33,-124.3C456.55,-134.68 477.81,-146.63 494.46,-156.43"/>
<polygon fill="midnightblue" stroke="midnightblue" points="438.85,-121.15 428.39,-119.51 435.55,-127.32 438.85,-121.15"/>
</g>
<!-- Node11&#45;&gt;Node10 -->
<g id="edge15" class="edge">
<title>Node11&#45;&gt;Node10</title>
<path fill="none" stroke="midnightblue" d="M365.53,-70.63C357.79,-60.99 349.26,-50.36 342.16,-41.51"/>
<polygon fill="midnightblue" stroke="midnightblue" points="362.8,-72.82 371.79,-78.43 368.26,-68.44 362.8,-72.82"/>
</g>
<!-- Node13&#45;&gt;Node6 -->
<g id="edge19" class="edge">
<title>Node13&#45;&gt;Node6</title>
<path fill="none" stroke="midnightblue" d="M558.83,-128.46C553.57,-137.78 547.25,-147.92 541.33,-156.43"/>
<polygon fill="midnightblue" stroke="midnightblue" points="562,-129.97 563.68,-119.51 555.84,-126.64 562,-129.97"/>
</g>
<!-- Node13&#45;&gt;Node7 -->
<g id="edge18" class="edge">
<title>Node13&#45;&gt;Node7</title>
<path fill="none" stroke="midnightblue" d="M597.75,-71.49C608.26,-61.63 619.99,-50.63 629.71,-41.51"/>
<polygon fill="midnightblue" stroke="midnightblue" points="595.26,-69.03 590.36,-78.43 600.05,-74.14 595.26,-69.03"/>
</g>
<!-- Node13&#45;&gt;Node12 -->
<g id="edge20" class="edge">
<title>Node13&#45;&gt;Node12</title>
<path fill="none" stroke="midnightblue" d="M541.25,-71.49C530.74,-61.63 519.01,-50.63 509.29,-41.51"/>
<polygon fill="midnightblue" stroke="midnightblue" points="538.95,-74.14 548.64,-78.43 543.74,-69.03 538.95,-74.14"/>
</g>
<!-- Node16&#45;&gt;Node6 -->
<g id="edge25" class="edge">
<title>Node16&#45;&gt;Node6</title>
<path fill="none" stroke="midnightblue" d="M687.62,-231.3C654.5,-220.55 615.32,-207.82 583.56,-197.51"/>
<polygon fill="midnightblue" stroke="midnightblue" points="686.65,-234.67 697.24,-234.43 688.81,-228.01 686.65,-234.67"/>
</g>
<!-- Node16&#45;&gt;Node14 -->
<g id="edge26" class="edge">
<title>Node16&#45;&gt;Node14</title>
<path fill="none" stroke="midnightblue" d="M756.86,-224.19C757.89,-203.13 762.42,-175.32 777.5,-156 791.22,-138.43 811.82,-126.07 831.94,-117.52"/>
<polygon fill="midnightblue" stroke="midnightblue" points="753.36,-224.13 756.6,-234.22 760.36,-224.31 753.36,-224.13"/>
</g>
<!-- Node17 -->
<g id="node17" class="node">
<title>Node17</title>
<g id="a_node17"><a xlink:href="simulation__utils_8cpp.html" target="_top" xlink:title=" ">
<polygon fill="none" stroke="black" points="786,-156.5 786,-197.5 911,-197.5 911,-156.5 786,-156.5"/>
<text text-anchor="start" x="794" y="-185.5" font-family="Helvetica,sans-Serif" font-size="10.00">repos_for_Dox/cFDK</text>
<text text-anchor="start" x="794" y="-174.5" font-family="Helvetica,sans-Serif" font-size="10.00">/SRA/LIB/SHELL/LIB/hls</text>
<text text-anchor="middle" x="848.5" y="-163.5" font-family="Helvetica,sans-Serif" font-size="10.00">/simulation_utils.cpp</text>
</a>
</g>
</g>
<!-- Node16&#45;&gt;Node17 -->
<g id="edge27" class="edge">
<title>Node16&#45;&gt;Node17</title>
<path fill="none" stroke="midnightblue" d="M788.9,-227.78C800.79,-217.84 814.12,-206.72 825.14,-197.51"/>
<polygon fill="midnightblue" stroke="midnightblue" points="786.37,-225.33 780.93,-234.43 790.85,-230.7 786.37,-225.33"/>
</g>
</g>
</svg>
        <g id="navigator" transform="translate(0 0)" fill="#404254">
                <rect fill="#f2f5e9" fill-opacity="0.5" stroke="#606060" stroke-width=".5" x="0" y="0" width="60" height="60"/>
                <use id="zoomplus" xlink:href="#zoomPlus" x="17" y="9" onmousedown="handleZoom(evt,'in')"/>
                <use id="zoomminus" xlink:href="#zoomMin" x="42" y="9" onmousedown="handleZoom(evt,'out')"/>
                <use id="reset" xlink:href="#resetDef" x="30" y="36" onmousedown="handleReset()"/>
                <g id="arrowUp" xlink:href="#dirArrow" transform="translate(30 24)" onmousedown="handlePan(0,-1)">
                  <use xlink:href="#rim" fill="#404040">
                        <set attributeName="fill" to="#808080" begin="arrowUp.mouseover" end="arrowUp.mouseout"/>
                  </use>
                  <path fill="none" stroke="white" stroke-width="1.5" d="M0,-3.0v7 M-2.5,-0.5L0,-3.0L2.5,-0.5"/>
                </g>
                <g id="arrowRight" xlink:href="#dirArrow" transform="rotate(90) translate(36 -43)" onmousedown="handlePan(1,0)">
                  <use xlink:href="#rim" fill="#404040">
                        <set attributeName="fill" to="#808080" begin="arrowRight.mouseover" end="arrowRight.mouseout"/>
                  </use>
                  <path fill="none" stroke="white" stroke-width="1.5" d="M0,-3.0v7 M-2.5,-0.5L0,-3.0L2.5,-0.5"/>
                </g>
                <g id="arrowDown" xlink:href="#dirArrow" transform="rotate(180) translate(-30 -48)" onmousedown="handlePan(0,1)">
                  <use xlink:href="#rim" fill="#404040">
                        <set attributeName="fill" to="#808080" begin="arrowDown.mouseover" end="arrowDown.mouseout"/>
                  </use>
                  <path fill="none" stroke="white" stroke-width="1.5" d="M0,-3.0v7 M-2.5,-0.5L0,-3.0L2.5,-0.5"/>
                </g>
                <g id="arrowLeft" xlink:href="#dirArrow" transform="rotate(270) translate(-36 17)" onmousedown="handlePan(-1,0)">
                  <use xlink:href="#rim" fill="#404040">
                        <set attributeName="fill" to="#808080" begin="arrowLeft.mouseover" end="arrowLeft.mouseout"/>
                  </use>
                  <path fill="none" stroke="white" stroke-width="1.5" d="M0,-3.0v7 M-2.5,-0.5L0,-3.0L2.5,-0.5"/>
                </g>
        </g>
        <svg viewBox="0 0 15 15" width="100%" height="30px" preserveAspectRatio="xMaxYMin meet">
         <g id="arrow_out" transform="scale(0.3 0.3)">
          <a xlink:href="network__utils_8hpp__dep__incl_org.svg" target="_base">
           <rect id="button" ry="5" rx="5" y="6" x="6" height="38" width="38"
                fill="#f2f5e9" fill-opacity="0.5" stroke="#606060" stroke-width="1.0"/>
           <path id="arrow"
             d="M 11.500037,31.436501 C 11.940474,20.09759 22.043105,11.32322 32.158766,21.979434 L 37.068811,17.246167 C 37.068811,17.246167 37.088388,32 37.088388,32 L 22.160133,31.978069 C 22.160133,31.978069 26.997745,27.140456 26.997745,27.140456 C 18.528582,18.264221 13.291696,25.230495 11.500037,31.436501 z"
             style="fill:#404040;"/>
          </a>
         </g>
        </svg>
</svg>
