<?xml version="1.0" encoding="UTF-8" standalone="no"?>
<!DOCTYPE svg PUBLIC "-//W3C//DTD SVG 1.1//EN"
 "http://www.w3.org/Graphics/SVG/1.1/DTD/svg11.dtd">
<!-- Generated by graphviz version 2.43.0 (0)
 -->
<!-- Title: repos_for_Dox/cFDK/SRA/LIB/SHELL/LIB/hls/network_utils.cpp Pages: 1 -->
<!--zoomable 554 -->
<svg id="main" version="1.1" xmlns="http://www.w3.org/2000/svg" xmlns:xlink="http://www.w3.org/1999/xlink" xml:space="preserve" onload="init(evt)">
<style type="text/css"><![CDATA[
.edge:hover path { stroke: red; }
.edge:hover polygon { stroke: red; fill: red; }
]]></style>
<script type="text/javascript"><![CDATA[
var edges = document.getElementsByTagName('g');
if (edges && edges.length) {
  for (var i=0;i<edges.length;i++) {
    if (edges[i].id.substr(0,4)=='edge') {
      edges[i].setAttribute('class','edge');
    }
  }
}
]]></script>
        <defs>
                <circle id="rim" cx="0" cy="0" r="7"/>
                <circle id="rim2" cx="0" cy="0" r="3.5"/>
                <g id="zoomPlus">
                        <use xlink:href="#rim" fill="#404040">
                                <set attributeName="fill" to="#808080" begin="zoomplus.mouseover" end="zoomplus.mouseout"/>
                        </use>
                        <path d="M-4,0h8M0,-4v8" fill="none" stroke="white" stroke-width="1.5" pointer-events="none"/>
                </g>
                <g id="zoomMin">
                        <use xlink:href="#rim" fill="#404040">
                                <set attributeName="fill" to="#808080" begin="zoomminus.mouseover" end="zoomminus.mouseout"/>
                        </use>
                        <path d="M-4,0h8" fill="none" stroke="white" stroke-width="1.5" pointer-events="none"/>
                </g>
                <g id="dirArrow">
                        <path fill="none" stroke="white" stroke-width="1.5" d="M0,-3.0v7 M-2.5,-0.5L0,-3.0L2.5,-0.5"/>
                </g>
               <g id="resetDef">
                       <use xlink:href="#rim2" fill="#404040">
                               <set attributeName="fill" to="#808080" begin="reset.mouseover" end="reset.mouseout"/>
                       </use>
               </g>
        </defs>

<script type="text/javascript">
var viewWidth = 1210;
var viewHeight = 554;
var sectionId = 'dynsection-0';
</script>
<script xlink:href="svgpan.js"/>
<svg id="graph" class="graph">
<g id="viewport">
<title>repos_for_Dox/cFDK/SRA/LIB/SHELL/LIB/hls/network_utils.cpp</title>
<!-- Node1 -->
<g id="node1" class="node">
<title>Node1</title>
<g id="a_node1"><a xlink:title=" ">
<polygon fill="#bfbfbf" stroke="black" points="968.5,-504.5 968.5,-545.5 1093.5,-545.5 1093.5,-504.5 968.5,-504.5"/>
<text text-anchor="start" x="976.5" y="-533.5" font-family="Helvetica,sans-Serif" font-size="10.00">repos_for_Dox/cFDK</text>
<text text-anchor="start" x="976.5" y="-522.5" font-family="Helvetica,sans-Serif" font-size="10.00">/SRA/LIB/SHELL/LIB/hls</text>
<text text-anchor="middle" x="1031" y="-511.5" font-family="Helvetica,sans-Serif" font-size="10.00">/network_utils.cpp</text>
</a>
</g>
</g>
<!-- Node2 -->
<g id="node2" class="node">
<title>Node2</title>
<g id="a_node2"><a xlink:title=" ">
<polygon fill="none" stroke="#bfbfbf" points="725.5,-224.5 725.5,-243.5 778.5,-243.5 778.5,-224.5 725.5,-224.5"/>
<text text-anchor="middle" x="752" y="-231.5" font-family="Helvetica,sans-Serif" font-size="10.00">stdint.h</text>
</a>
</g>
</g>
<!-- Node1&#45;&gt;Node2 -->
<g id="edge1" class="edge">
<title>Node1&#45;&gt;Node2</title>
<path fill="none" stroke="midnightblue" d="M1043.63,-504.38C1049.56,-494.01 1055.98,-480.8 1059,-468 1064.14,-446.24 1051.16,-393.97 1050,-392 993.35,-295.56 855,-255.59 788.66,-241.54"/>
<polygon fill="midnightblue" stroke="midnightblue" points="789.15,-238.07 778.65,-239.5 787.75,-244.93 789.15,-238.07"/>
</g>
<!-- Node3 -->
<g id="node3" class="node">
<title>Node3</title>
<g id="a_node3"><a xlink:title=" ">
<polygon fill="none" stroke="#bfbfbf" points="88,-0.5 88,-19.5 144,-19.5 144,-0.5 88,-0.5"/>
<text text-anchor="middle" x="116" y="-7.5" font-family="Helvetica,sans-Serif" font-size="10.00">ap_int.h</text>
</a>
</g>
</g>
<!-- Node1&#45;&gt;Node3 -->
<g id="edge2" class="edge">
<title>Node1&#45;&gt;Node3</title>
<path fill="none" stroke="midnightblue" d="M968.44,-523.27C745.07,-519.84 0,-501.05 0,-403 0,-403 0,-403 0,-121 0,-73.81 51.16,-40.79 85.53,-23.92"/>
<polygon fill="midnightblue" stroke="midnightblue" points="87.17,-27.02 94.72,-19.6 84.19,-20.69 87.17,-27.02"/>
</g>
<!-- Node4 -->
<g id="node4" class="node">
<title>Node4</title>
<g id="a_node4"><a xlink:title=" ">
<polygon fill="none" stroke="#bfbfbf" points="906,-336.5 906,-355.5 970,-355.5 970,-336.5 906,-336.5"/>
<text text-anchor="middle" x="938" y="-343.5" font-family="Helvetica,sans-Serif" font-size="10.00">ap_utils.h</text>
</a>
</g>
</g>
<!-- Node1&#45;&gt;Node4 -->
<g id="edge3" class="edge">
<title>Node1&#45;&gt;Node4</title>
<path fill="none" stroke="midnightblue" d="M1037.04,-504.33C1044.21,-476.88 1052.67,-426.56 1031,-392 1019.72,-374.01 998.99,-363.04 979.96,-356.44"/>
<polygon fill="midnightblue" stroke="midnightblue" points="980.81,-353.04 970.22,-353.37 978.71,-359.71 980.81,-353.04"/>
</g>
<!-- Node5 -->
<g id="node5" class="node">
<title>Node5</title>
<g id="a_node5"><a xlink:title=" ">
<polygon fill="none" stroke="#bfbfbf" points="808,-0.5 808,-19.5 888,-19.5 888,-0.5 808,-0.5"/>
<text text-anchor="middle" x="848" y="-7.5" font-family="Helvetica,sans-Serif" font-size="10.00">hls_stream.h</text>
</a>
</g>
</g>
<!-- Node1&#45;&gt;Node5 -->
<g id="edge4" class="edge">
<title>Node1&#45;&gt;Node5</title>
<path fill="none" stroke="midnightblue" d="M1060.28,-504.34C1088.19,-483 1126,-446.13 1126,-403 1126,-403 1126,-403 1126,-121 1126,-72.53 978.04,-36.24 898.01,-20.15"/>
<polygon fill="midnightblue" stroke="midnightblue" points="898.62,-16.7 888.13,-18.2 897.26,-23.57 898.62,-16.7"/>
</g>
<!-- Node6 -->
<g id="node6" class="node">
<title>Node6</title>
<g id="a_node6"><a xlink:title=" ">
<polygon fill="none" stroke="#bfbfbf" points="1154.5,-448.5 1154.5,-467.5 1201.5,-467.5 1201.5,-448.5 1154.5,-448.5"/>
<text text-anchor="middle" x="1178" y="-455.5" font-family="Helvetica,sans-Serif" font-size="10.00">queue</text>
</a>
</g>
</g>
<!-- Node1&#45;&gt;Node6 -->
<g id="edge5" class="edge">
<title>Node1&#45;&gt;Node6</title>
<path fill="none" stroke="midnightblue" d="M1075.1,-504.5C1099.05,-493.91 1127.98,-481.12 1149.06,-471.8"/>
<polygon fill="midnightblue" stroke="midnightblue" points="1150.7,-474.9 1158.43,-467.65 1147.87,-468.5 1150.7,-474.9"/>
</g>
<!-- Node7 -->
<g id="node7" class="node">
<title>Node7</title>
<g id="a_node7"><a xlink:title=" ">
<polygon fill="none" stroke="#bfbfbf" points="978,-392.5 978,-411.5 1022,-411.5 1022,-392.5 978,-392.5"/>
<text text-anchor="middle" x="1000" y="-399.5" font-family="Helvetica,sans-Serif" font-size="10.00">string</text>
</a>
</g>
</g>
<!-- Node1&#45;&gt;Node7 -->
<g id="edge6" class="edge">
<title>Node1&#45;&gt;Node7</title>
<path fill="none" stroke="midnightblue" d="M1025.95,-504.29C1020.08,-481.37 1010.46,-443.85 1004.73,-421.47"/>
<polygon fill="midnightblue" stroke="midnightblue" points="1008.07,-420.39 1002.2,-411.57 1001.29,-422.13 1008.07,-420.39"/>
</g>
<!-- Node8 -->
<g id="node8" class="node">
<title>Node8</title>
<g id="a_node8"><a xlink:href="network__utils_8hpp.html" target="_top" xlink:title=" ">
<polygon fill="none" stroke="black" points="568,-448.5 568,-467.5 672,-467.5 672,-448.5 568,-448.5"/>
<text text-anchor="middle" x="620" y="-455.5" font-family="Helvetica,sans-Serif" font-size="10.00">network_utils.hpp</text>
</a>
</g>
</g>
<!-- Node1&#45;&gt;Node8 -->
<g id="edge7" class="edge">
<title>Node1&#45;&gt;Node8</title>
<path fill="none" stroke="midnightblue" d="M968.13,-514.06C890.55,-501.79 759.45,-481.05 682.18,-468.83"/>
<polygon fill="midnightblue" stroke="midnightblue" points="682.53,-465.35 672.11,-467.24 681.44,-472.26 682.53,-465.35"/>
</g>
<!-- Node18 -->
<g id="node18" class="node">
<title>Node18</title>
<g id="a_node18"><a xlink:href="AxisRaw_8hpp.html" target="_top" xlink:title=": A generic class used by the Network&#45;Transport&#45;Stack (NTS) to to transfer a chunk of data over an AX...">
<polygon fill="none" stroke="black" points="375.5,-56.5 375.5,-75.5 454.5,-75.5 454.5,-56.5 375.5,-56.5"/>
<text text-anchor="middle" x="415" y="-63.5" font-family="Helvetica,sans-Serif" font-size="10.00">AxisRaw.hpp</text>
</a>
</g>
</g>
<!-- Node1&#45;&gt;Node18 -->
<g id="edge55" class="edge">
<title>Node1&#45;&gt;Node18</title>
<path fill="none" stroke="midnightblue" d="M968.33,-522.34C761.55,-516.02 114,-489.36 114,-403 114,-403 114,-403 114,-177 114,-146.9 110.42,-131.9 133,-112 166.68,-82.32 293.83,-72.11 365.35,-68.68"/>
<polygon fill="midnightblue" stroke="midnightblue" points="365.65,-72.17 375.48,-68.22 365.33,-65.18 365.65,-72.17"/>
</g>
<!-- Node8&#45;&gt;Node2 -->
<g id="edge8" class="edge">
<title>Node8&#45;&gt;Node2</title>
<path fill="none" stroke="midnightblue" d="M632.95,-448.28C644.42,-440.03 661.01,-426.74 672,-412 710.41,-360.52 735.95,-287.66 746.51,-253.74"/>
<polygon fill="midnightblue" stroke="midnightblue" points="749.96,-254.4 749.51,-243.81 743.26,-252.37 749.96,-254.4"/>
</g>
<!-- Node8&#45;&gt;Node3 -->
<g id="edge15" class="edge">
<title>Node8&#45;&gt;Node3</title>
<path fill="none" stroke="midnightblue" d="M567.88,-456.39C489.82,-454.32 338.5,-445.84 215,-412 123.1,-386.82 38,-386.29 38,-291 38,-291 38,-291 38,-121 38,-90.9 39.96,-80.81 57,-56 65.72,-43.31 79.16,-32.66 91.01,-24.91"/>
<polygon fill="midnightblue" stroke="midnightblue" points="92.99,-27.8 99.66,-19.56 89.31,-21.84 92.99,-27.8"/>
</g>
<!-- Node8&#45;&gt;Node4 -->
<g id="edge16" class="edge">
<title>Node8&#45;&gt;Node4</title>
<path fill="none" stroke="midnightblue" d="M672.11,-456.9C725.65,-454.77 809.99,-445.67 874,-412 895.59,-400.64 914.37,-379.42 925.9,-364.32"/>
<polygon fill="midnightblue" stroke="midnightblue" points="929.02,-365.98 932.11,-355.85 923.38,-361.84 929.02,-365.98"/>
</g>
<!-- Node8&#45;&gt;Node5 -->
<g id="edge17" class="edge">
<title>Node8&#45;&gt;Node5</title>
<path fill="none" stroke="midnightblue" d="M672.14,-455.91C730.27,-453.08 826.11,-443.51 902,-412 976.11,-381.23 1036,-371.24 1036,-291 1036,-291 1036,-291 1036,-121 1036,-57.1 954.09,-29.63 898.4,-18.34"/>
<polygon fill="midnightblue" stroke="midnightblue" points="898.81,-14.85 888.33,-16.41 897.5,-21.73 898.81,-14.85"/>
</g>
<!-- Node8&#45;&gt;Node7 -->
<g id="edge12" class="edge">
<title>Node8&#45;&gt;Node7</title>
<path fill="none" stroke="midnightblue" d="M672.16,-452.06C739.82,-445.23 861.33,-431.48 964,-412 965.25,-411.76 966.51,-411.51 967.79,-411.24"/>
<polygon fill="midnightblue" stroke="midnightblue" points="968.64,-414.64 977.62,-409.02 967.09,-407.81 968.64,-414.64"/>
</g>
<!-- Node9 -->
<g id="node9" class="node">
<title>Node9</title>
<g id="a_node9"><a xlink:title=" ">
<polygon fill="none" stroke="#bfbfbf" points="838,-336.5 838,-355.5 888,-355.5 888,-336.5 838,-336.5"/>
<text text-anchor="middle" x="863" y="-343.5" font-family="Helvetica,sans-Serif" font-size="10.00">stdio.h</text>
</a>
</g>
</g>
<!-- Node8&#45;&gt;Node9 -->
<g id="edge9" class="edge">
<title>Node8&#45;&gt;Node9</title>
<path fill="none" stroke="midnightblue" d="M672.22,-454.01C733.75,-449.34 830.7,-437.98 855,-412 866.28,-399.94 867.34,-380.66 866.14,-366.22"/>
<polygon fill="midnightblue" stroke="midnightblue" points="869.56,-365.39 864.85,-355.91 862.62,-366.26 869.56,-365.39"/>
</g>
<!-- Node10 -->
<g id="node10" class="node">
<title>Node10</title>
<g id="a_node10"><a xlink:title=" ">
<polygon fill="none" stroke="#bfbfbf" points="554,-0.5 554,-19.5 614,-19.5 614,-0.5 554,-0.5"/>
<text text-anchor="middle" x="584" y="-7.5" font-family="Helvetica,sans-Serif" font-size="10.00">iostream</text>
</a>
</g>
</g>
<!-- Node8&#45;&gt;Node10 -->
<g id="edge10" class="edge">
<title>Node8&#45;&gt;Node10</title>
<path fill="none" stroke="midnightblue" d="M623.12,-448.49C635.17,-414.82 678,-287.47 678,-179 678,-179 678,-179 678,-121 678,-77.93 635.84,-43.21 607.99,-24.98"/>
<polygon fill="midnightblue" stroke="midnightblue" points="609.85,-22.01 599.52,-19.65 606.12,-27.94 609.85,-22.01"/>
</g>
<!-- Node11 -->
<g id="node11" class="node">
<title>Node11</title>
<g id="a_node11"><a xlink:title=" ">
<polygon fill="none" stroke="#bfbfbf" points="395.5,-392.5 395.5,-411.5 450.5,-411.5 450.5,-392.5 395.5,-392.5"/>
<text text-anchor="middle" x="423" y="-399.5" font-family="Helvetica,sans-Serif" font-size="10.00">fstream</text>
</a>
</g>
</g>
<!-- Node8&#45;&gt;Node11 -->
<g id="edge11" class="edge">
<title>Node8&#45;&gt;Node11</title>
<path fill="none" stroke="midnightblue" d="M588.78,-448.44C553.98,-438.9 497.69,-423.47 460.52,-413.28"/>
<polygon fill="midnightblue" stroke="midnightblue" points="461.14,-409.83 450.57,-410.56 459.29,-416.58 461.14,-409.83"/>
</g>
<!-- Node12 -->
<g id="node12" class="node">
<title>Node12</title>
<g id="a_node12"><a xlink:title=" ">
<polygon fill="none" stroke="#bfbfbf" points="560.5,-224.5 560.5,-243.5 611.5,-243.5 611.5,-224.5 560.5,-224.5"/>
<text text-anchor="middle" x="586" y="-231.5" font-family="Helvetica,sans-Serif" font-size="10.00">math.h</text>
</a>
</g>
</g>
<!-- Node8&#45;&gt;Node12 -->
<g id="edge13" class="edge">
<title>Node8&#45;&gt;Node12</title>
<path fill="none" stroke="midnightblue" d="M613.18,-448.48C595.61,-425.94 549.07,-362.15 533,-300 530.77,-291.39 529.27,-288.07 533,-280 538.92,-267.21 550.47,-256.72 561.28,-249.1"/>
<polygon fill="midnightblue" stroke="midnightblue" points="563.21,-252.02 569.67,-243.61 559.38,-246.16 563.21,-252.02"/>
</g>
<!-- Node13 -->
<g id="node13" class="node">
<title>Node13</title>
<g id="a_node13"><a xlink:title=" ">
<polygon fill="none" stroke="#bfbfbf" points="468.5,-392.5 468.5,-411.5 515.5,-411.5 515.5,-392.5 468.5,-392.5"/>
<text text-anchor="middle" x="492" y="-399.5" font-family="Helvetica,sans-Serif" font-size="10.00">vector</text>
</a>
</g>
</g>
<!-- Node8&#45;&gt;Node13 -->
<g id="edge14" class="edge">
<title>Node8&#45;&gt;Node13</title>
<path fill="none" stroke="midnightblue" d="M599.72,-448.44C578.65,-439.56 545.48,-425.56 521.51,-415.45"/>
<polygon fill="midnightblue" stroke="midnightblue" points="522.76,-412.18 512.19,-411.52 520.04,-418.63 522.76,-412.18"/>
</g>
<!-- Node14 -->
<g id="node14" class="node">
<title>Node14</title>
<g id="a_node14"><a xlink:href="network_8hpp.html" target="_top" xlink:title=" ">
<polygon fill="none" stroke="black" points="724,-392.5 724,-411.5 846,-411.5 846,-392.5 724,-392.5"/>
<text text-anchor="middle" x="785" y="-399.5" font-family="Helvetica,sans-Serif" font-size="10.00">../../../hls/network.hpp</text>
</a>
</g>
</g>
<!-- Node8&#45;&gt;Node14 -->
<g id="edge18" class="edge">
<title>Node8&#45;&gt;Node14</title>
<path fill="none" stroke="midnightblue" d="M646.14,-448.44C674.02,-439.32 718.35,-424.81 749.4,-414.65"/>
<polygon fill="midnightblue" stroke="midnightblue" points="750.56,-417.95 758.98,-411.52 748.38,-411.3 750.56,-417.95"/>
</g>
<!-- Node15 -->
<g id="node15" class="node">
<title>Node15</title>
<g id="a_node15"><a xlink:href="nts_8hpp.html" target="_top" xlink:title=": Definition of the Network Transport Stack (NTS) component as if it was an HLS IP core.">
<polygon fill="none" stroke="black" points="416.5,-336.5 416.5,-355.5 491.5,-355.5 491.5,-336.5 416.5,-336.5"/>
<text text-anchor="middle" x="454" y="-343.5" font-family="Helvetica,sans-Serif" font-size="10.00">NTS/nts.hpp</text>
</a>
</g>
</g>
<!-- Node8&#45;&gt;Node15 -->
<g id="edge24" class="edge">
<title>Node8&#45;&gt;Node15</title>
<path fill="none" stroke="midnightblue" d="M607.64,-448.49C589.42,-435.98 554.24,-411.95 524,-392 508.13,-381.53 490.07,-369.93 476.27,-361.13"/>
<polygon fill="midnightblue" stroke="midnightblue" points="477.8,-357.95 467.48,-355.53 474.04,-363.85 477.8,-357.95"/>
</g>
<!-- Node16 -->
<g id="node16" class="node">
<title>Node16</title>
<g id="a_node16"><a xlink:href="nts__types_8hpp.html" target="_top" xlink:title=": Definition of the types used by the Network Transport Stack (NTS) component of the cloudFPGA shell.">
<polygon fill="none" stroke="black" points="362.5,-280.5 362.5,-299.5 447.5,-299.5 447.5,-280.5 362.5,-280.5"/>
<text text-anchor="middle" x="405" y="-287.5" font-family="Helvetica,sans-Serif" font-size="10.00">nts_types.hpp</text>
</a>
</g>
</g>
<!-- Node8&#45;&gt;Node16 -->
<g id="edge48" class="edge">
<title>Node8&#45;&gt;Node16</title>
<path fill="none" stroke="midnightblue" d="M567.62,-454.8C466.04,-449.99 250.23,-436.92 228,-412 182.4,-360.87 293.86,-320.72 360.11,-302.18"/>
<polygon fill="midnightblue" stroke="midnightblue" points="361.2,-305.51 369.93,-299.5 359.36,-298.76 361.2,-305.51"/>
</g>
<!-- Node8&#45;&gt;Node18 -->
<g id="edge54" class="edge">
<title>Node8&#45;&gt;Node18</title>
<path fill="none" stroke="midnightblue" d="M567.73,-454.47C505.93,-450.25 408.59,-439.35 386,-412 370.5,-393.23 391.77,-356.12 407,-336 423.31,-314.45 440.94,-322.44 456,-300 498.71,-236.35 487.58,-208.29 495,-132 495.86,-123.15 499.49,-119.67 495,-112 486.14,-96.85 470.09,-86.41 454.69,-79.42"/>
<polygon fill="midnightblue" stroke="midnightblue" points="455.83,-76.11 445.25,-75.51 453.15,-82.57 455.83,-76.11"/>
</g>
<!-- Node25 -->
<g id="node25" class="node">
<title>Node25</title>
<g id="a_node25"><a xlink:href="nts__config_8hpp.html" target="_top" xlink:title=": Configuration parameters for the Network Transport Stack (NTS) component and sub&#45;components.">
<polygon fill="none" stroke="black" points="542.5,-280.5 542.5,-299.5 629.5,-299.5 629.5,-280.5 542.5,-280.5"/>
<text text-anchor="middle" x="586" y="-287.5" font-family="Helvetica,sans-Serif" font-size="10.00">nts_config.hpp</text>
</a>
</g>
</g>
<!-- Node8&#45;&gt;Node25 -->
<g id="edge49" class="edge">
<title>Node8&#45;&gt;Node25</title>
<path fill="none" stroke="midnightblue" d="M618.17,-448.08C612.82,-421.95 597.1,-345.21 589.8,-309.58"/>
<polygon fill="midnightblue" stroke="midnightblue" points="593.19,-308.66 587.75,-299.57 586.33,-310.07 593.19,-308.66"/>
</g>
<!-- Node26 -->
<g id="node26" class="node">
<title>Node26</title>
<g id="a_node26"><a xlink:href="nts__utils_8hpp.html" target="_top" xlink:title=": Utilities and helpers for the Network&#45;Transport&#45;Stack (NTS) components.">
<polygon fill="none" stroke="black" points="237.5,-392.5 237.5,-411.5 338.5,-411.5 338.5,-392.5 237.5,-392.5"/>
<text text-anchor="middle" x="288" y="-399.5" font-family="Helvetica,sans-Serif" font-size="10.00">NTS/nts_utils.hpp</text>
</a>
</g>
</g>
<!-- Node8&#45;&gt;Node26 -->
<g id="edge50" class="edge">
<title>Node8&#45;&gt;Node26</title>
<path fill="none" stroke="midnightblue" d="M567.76,-448.5C508.34,-438.84 411.46,-423.08 348.72,-412.88"/>
<polygon fill="midnightblue" stroke="midnightblue" points="349.01,-409.38 338.58,-411.23 347.88,-416.29 349.01,-409.38"/>
</g>
<!-- Node14&#45;&gt;Node2 -->
<g id="edge19" class="edge">
<title>Node14&#45;&gt;Node2</title>
<path fill="none" stroke="midnightblue" d="M783.23,-392.08C778.03,-365.95 762.78,-289.21 755.69,-253.58"/>
<polygon fill="midnightblue" stroke="midnightblue" points="759.09,-252.69 753.7,-243.57 752.22,-254.06 759.09,-252.69"/>
</g>
<!-- Node14&#45;&gt;Node3 -->
<g id="edge21" class="edge">
<title>Node14&#45;&gt;Node3</title>
<path fill="none" stroke="midnightblue" d="M773.62,-392.23C739.44,-364.79 640,-276.59 640,-179 640,-179 640,-179 640,-121 640,-21.75 275.36,-11.54 154.44,-10.88"/>
<polygon fill="midnightblue" stroke="midnightblue" points="154.18,-7.38 144.17,-10.85 154.16,-14.38 154.18,-7.38"/>
</g>
<!-- Node14&#45;&gt;Node4 -->
<g id="edge22" class="edge">
<title>Node14&#45;&gt;Node4</title>
<path fill="none" stroke="midnightblue" d="M809.24,-392.44C834.87,-383.4 875.49,-369.06 904.24,-358.92"/>
<polygon fill="midnightblue" stroke="midnightblue" points="905.61,-362.15 913.87,-355.52 903.28,-355.54 905.61,-362.15"/>
</g>
<!-- Node14&#45;&gt;Node5 -->
<g id="edge23" class="edge">
<title>Node14&#45;&gt;Node5</title>
<path fill="none" stroke="midnightblue" d="M790.81,-392.44C806.41,-368.63 848,-299.12 848,-235 848,-235 848,-235 848,-121 848,-88.95 848,-51.64 848,-29.75"/>
<polygon fill="midnightblue" stroke="midnightblue" points="851.5,-29.56 848,-19.56 844.5,-29.56 851.5,-29.56"/>
</g>
<!-- Node14&#45;&gt;Node9 -->
<g id="edge20" class="edge">
<title>Node14&#45;&gt;Node9</title>
<path fill="none" stroke="midnightblue" d="M797.53,-392.32C809.59,-383.98 828.03,-371.21 842.27,-361.35"/>
<polygon fill="midnightblue" stroke="midnightblue" points="844.27,-364.22 850.5,-355.65 840.28,-358.47 844.27,-364.22"/>
</g>
<!-- Node15&#45;&gt;Node16 -->
<g id="edge25" class="edge">
<title>Node15&#45;&gt;Node16</title>
<path fill="none" stroke="midnightblue" d="M445.91,-336.08C438.84,-328.3 428.41,-316.8 419.85,-307.37"/>
<polygon fill="midnightblue" stroke="midnightblue" points="422.25,-304.8 412.94,-299.75 417.07,-309.51 422.25,-304.8"/>
</g>
<!-- Node15&#45;&gt;Node25 -->
<g id="edge45" class="edge">
<title>Node15&#45;&gt;Node25</title>
<path fill="none" stroke="midnightblue" d="M474.92,-336.44C496.74,-327.52 531.15,-313.44 555.89,-303.32"/>
<polygon fill="midnightblue" stroke="midnightblue" points="557.25,-306.54 565.18,-299.52 554.6,-300.06 557.25,-306.54"/>
</g>
<!-- Node16&#45;&gt;Node5 -->
<g id="edge26" class="edge">
<title>Node16&#45;&gt;Node5</title>
<path fill="none" stroke="midnightblue" d="M418.74,-280.38C482.18,-240.57 746.9,-74.44 825.75,-24.96"/>
<polygon fill="midnightblue" stroke="midnightblue" points="827.81,-27.8 834.42,-19.52 824.09,-21.88 827.81,-27.8"/>
</g>
<!-- Node17 -->
<g id="node17" class="node">
<title>Node17</title>
<g id="a_node17"><a xlink:href="AxisEth_8hpp.html" target="_top" xlink:title=": A class to access an ETHernet data chunk transmitted over an AXI4&#45;Stream interface.">
<polygon fill="none" stroke="black" points="381,-224.5 381,-243.5 455,-243.5 455,-224.5 381,-224.5"/>
<text text-anchor="middle" x="418" y="-231.5" font-family="Helvetica,sans-Serif" font-size="10.00">AxisEth.hpp</text>
</a>
</g>
</g>
<!-- Node16&#45;&gt;Node17 -->
<g id="edge27" class="edge">
<title>Node16&#45;&gt;Node17</title>
<path fill="none" stroke="midnightblue" d="M407.15,-280.08C408.87,-272.93 411.35,-262.64 413.5,-253.69"/>
<polygon fill="midnightblue" stroke="midnightblue" points="416.96,-254.29 415.89,-243.75 410.15,-252.65 416.96,-254.29"/>
</g>
<!-- Node21 -->
<g id="node21" class="node">
<title>Node21</title>
<g id="a_node21"><a xlink:href="AxisIp4_8hpp.html" target="_top" xlink:title=": A class to access an IPv4 data chunk transmitted over an AXI4&#45;Stream interface.">
<polygon fill="none" stroke="black" points="286,-168.5 286,-187.5 360,-187.5 360,-168.5 286,-168.5"/>
<text text-anchor="middle" x="323" y="-175.5" font-family="Helvetica,sans-Serif" font-size="10.00">AxisIp4.hpp</text>
</a>
</g>
</g>
<!-- Node16&#45;&gt;Node21 -->
<g id="edge44" class="edge">
<title>Node16&#45;&gt;Node21</title>
<path fill="none" stroke="midnightblue" d="M398.57,-280.37C384.97,-262.14 353.14,-219.43 335.43,-195.68"/>
<polygon fill="midnightblue" stroke="midnightblue" points="338.19,-193.52 329.4,-187.59 332.58,-197.7 338.19,-193.52"/>
</g>
<!-- Node17&#45;&gt;Node18 -->
<g id="edge28" class="edge">
<title>Node17&#45;&gt;Node18</title>
<path fill="none" stroke="midnightblue" d="M430.07,-224.4C440.63,-216.23 455.57,-203 464,-188 480.8,-158.13 492.56,-142.53 477,-112 470,-98.27 456.63,-87.75 444.1,-80.35"/>
<polygon fill="midnightblue" stroke="midnightblue" points="445.68,-77.22 435.22,-75.51 442.33,-83.37 445.68,-77.22"/>
</g>
<!-- Node20 -->
<g id="node20" class="node">
<title>Node20</title>
<g id="a_node20"><a xlink:href="AxisArp_8hpp.html" target="_top" xlink:title=": A class to access an ARP data chunk transmitted over an AXI4&#45;Stream interface.">
<polygon fill="none" stroke="black" points="380.5,-168.5 380.5,-187.5 455.5,-187.5 455.5,-168.5 380.5,-168.5"/>
<text text-anchor="middle" x="418" y="-175.5" font-family="Helvetica,sans-Serif" font-size="10.00">AxisArp.hpp</text>
</a>
</g>
</g>
<!-- Node17&#45;&gt;Node20 -->
<g id="edge33" class="edge">
<title>Node17&#45;&gt;Node20</title>
<path fill="none" stroke="midnightblue" d="M412.83,-224.08C411.32,-216.93 410.89,-206.64 411.54,-197.69"/>
<polygon fill="midnightblue" stroke="midnightblue" points="415.02,-198.13 412.87,-187.75 408.08,-197.2 415.02,-198.13"/>
</g>
<!-- Node17&#45;&gt;Node21 -->
<g id="edge36" class="edge">
<title>Node17&#45;&gt;Node21</title>
<path fill="none" stroke="midnightblue" d="M402.74,-224.32C387.78,-215.82 364.75,-202.73 347.27,-192.8"/>
<polygon fill="midnightblue" stroke="midnightblue" points="348.65,-189.55 338.23,-187.65 345.19,-195.64 348.65,-189.55"/>
</g>
<!-- Node18&#45;&gt;Node3 -->
<g id="edge32" class="edge">
<title>Node18&#45;&gt;Node3</title>
<path fill="none" stroke="midnightblue" d="M375.3,-57.83C317.57,-47.4 211.17,-28.19 154.27,-17.91"/>
<polygon fill="midnightblue" stroke="midnightblue" points="154.7,-14.43 144.24,-16.1 153.46,-21.32 154.7,-14.43"/>
</g>
<!-- Node18&#45;&gt;Node5 -->
<g id="edge31" class="edge">
<title>Node18&#45;&gt;Node5</title>
<path fill="none" stroke="midnightblue" d="M454.57,-60.06C533.52,-50.22 710.44,-28.15 797.57,-17.29"/>
<polygon fill="midnightblue" stroke="midnightblue" points="798.24,-20.73 807.73,-16.02 797.38,-13.79 798.24,-20.73"/>
</g>
<!-- Node18&#45;&gt;Node10 -->
<g id="edge30" class="edge">
<title>Node18&#45;&gt;Node10</title>
<path fill="none" stroke="midnightblue" d="M441.78,-56.44C470.33,-47.32 515.73,-32.81 547.54,-22.65"/>
<polygon fill="midnightblue" stroke="midnightblue" points="548.89,-25.89 557.35,-19.52 546.76,-19.23 548.89,-25.89"/>
</g>
<!-- Node19 -->
<g id="node19" class="node">
<title>Node19</title>
<g id="a_node19"><a xlink:title=" ">
<polygon fill="none" stroke="#bfbfbf" points="389,-0.5 389,-19.5 441,-19.5 441,-0.5 389,-0.5"/>
<text text-anchor="middle" x="415" y="-7.5" font-family="Helvetica,sans-Serif" font-size="10.00">cassert</text>
</a>
</g>
</g>
<!-- Node18&#45;&gt;Node19 -->
<g id="edge29" class="edge">
<title>Node18&#45;&gt;Node19</title>
<path fill="none" stroke="midnightblue" d="M415,-56.08C415,-49.01 415,-38.86 415,-29.99"/>
<polygon fill="midnightblue" stroke="midnightblue" points="418.5,-29.75 415,-19.75 411.5,-29.75 418.5,-29.75"/>
</g>
<!-- Node20&#45;&gt;Node17 -->
<g id="edge35" class="edge">
<title>Node20&#45;&gt;Node17</title>
<path fill="none" stroke="midnightblue" d="M423.13,-187.75C424.66,-194.86 425.1,-205.14 424.47,-214.1"/>
<polygon fill="midnightblue" stroke="midnightblue" points="420.99,-213.71 423.17,-224.08 427.93,-214.62 420.99,-213.71"/>
</g>
<!-- Node20&#45;&gt;Node18 -->
<g id="edge34" class="edge">
<title>Node20&#45;&gt;Node18</title>
<path fill="none" stroke="midnightblue" d="M430.68,-168.36C446.45,-156.44 470.23,-133.95 461,-112 455.97,-100.05 446.06,-89.69 436.71,-81.93"/>
<polygon fill="midnightblue" stroke="midnightblue" points="438.84,-79.15 428.79,-75.81 434.56,-84.69 438.84,-79.15"/>
</g>
<!-- Node21&#45;&gt;Node18 -->
<g id="edge37" class="edge">
<title>Node21&#45;&gt;Node18</title>
<path fill="none" stroke="midnightblue" d="M305.81,-168.3C284.08,-156.15 251.3,-133.18 267,-112 289.39,-81.79 331.56,-71.16 365.18,-67.74"/>
<polygon fill="midnightblue" stroke="midnightblue" points="365.63,-71.21 375.3,-66.89 365.05,-64.24 365.63,-71.21"/>
</g>
<!-- Node22 -->
<g id="node22" class="node">
<title>Node22</title>
<g id="a_node22"><a xlink:href="AxisIcmp_8hpp.html" target="_top" xlink:title=": A class to access ICMP header fields within data chunks transmitted over an AXI4&#45;Stream interface.">
<polygon fill="none" stroke="black" points="276.5,-112.5 276.5,-131.5 359.5,-131.5 359.5,-112.5 276.5,-112.5"/>
<text text-anchor="middle" x="318" y="-119.5" font-family="Helvetica,sans-Serif" font-size="10.00">AxisIcmp.hpp</text>
</a>
</g>
</g>
<!-- Node21&#45;&gt;Node22 -->
<g id="edge38" class="edge">
<title>Node21&#45;&gt;Node22</title>
<path fill="none" stroke="midnightblue" d="M322.17,-168.08C321.52,-161.01 320.58,-150.86 319.76,-141.99"/>
<polygon fill="midnightblue" stroke="midnightblue" points="323.22,-141.39 318.81,-131.75 316.25,-142.03 323.22,-141.39"/>
</g>
<!-- Node23 -->
<g id="node23" class="node">
<title>Node23</title>
<g id="a_node23"><a xlink:href="AxisTcp_8hpp.html" target="_top" xlink:title=": A class to access TCP header fields within data chunks transmitted over an AXI4&#45;Stream interface.">
<polygon fill="none" stroke="black" points="378,-112.5 378,-131.5 452,-131.5 452,-112.5 378,-112.5"/>
<text text-anchor="middle" x="415" y="-119.5" font-family="Helvetica,sans-Serif" font-size="10.00">AxisTcp.hpp</text>
</a>
</g>
</g>
<!-- Node21&#45;&gt;Node23 -->
<g id="edge40" class="edge">
<title>Node21&#45;&gt;Node23</title>
<path fill="none" stroke="midnightblue" d="M337.78,-168.32C352.27,-159.82 374.57,-146.73 391.49,-136.8"/>
<polygon fill="midnightblue" stroke="midnightblue" points="393.4,-139.74 400.26,-131.65 389.86,-133.7 393.4,-139.74"/>
</g>
<!-- Node24 -->
<g id="node24" class="node">
<title>Node24</title>
<g id="a_node24"><a xlink:href="AxisUdp_8hpp.html" target="_top" xlink:title=": A class to access UDP header fields within data chunks transmitted over an AXI4&#45;Stream interface.">
<polygon fill="none" stroke="black" points="142,-112.5 142,-131.5 220,-131.5 220,-112.5 142,-112.5"/>
<text text-anchor="middle" x="181" y="-119.5" font-family="Helvetica,sans-Serif" font-size="10.00">AxisUdp.hpp</text>
</a>
</g>
</g>
<!-- Node21&#45;&gt;Node24 -->
<g id="edge42" class="edge">
<title>Node21&#45;&gt;Node24</title>
<path fill="none" stroke="midnightblue" d="M300.5,-168.44C276.92,-159.48 239.68,-145.31 213.04,-135.18"/>
<polygon fill="midnightblue" stroke="midnightblue" points="213.99,-131.8 203.4,-131.52 211.5,-138.34 213.99,-131.8"/>
</g>
<!-- Node22&#45;&gt;Node18 -->
<g id="edge39" class="edge">
<title>Node22&#45;&gt;Node18</title>
<path fill="none" stroke="midnightblue" d="M333.58,-112.32C349,-103.74 372.81,-90.49 390.71,-80.52"/>
<polygon fill="midnightblue" stroke="midnightblue" points="392.42,-83.58 399.45,-75.65 389.01,-77.46 392.42,-83.58"/>
</g>
<!-- Node23&#45;&gt;Node18 -->
<g id="edge41" class="edge">
<title>Node23&#45;&gt;Node18</title>
<path fill="none" stroke="midnightblue" d="M415,-112.08C415,-105.01 415,-94.86 415,-85.99"/>
<polygon fill="midnightblue" stroke="midnightblue" points="418.5,-85.75 415,-75.75 411.5,-85.75 418.5,-85.75"/>
</g>
<!-- Node24&#45;&gt;Node18 -->
<g id="edge43" class="edge">
<title>Node24&#45;&gt;Node18</title>
<path fill="none" stroke="midnightblue" d="M218.08,-112.44C258.73,-103.06 324.03,-87.99 368.18,-77.8"/>
<polygon fill="midnightblue" stroke="midnightblue" points="369.14,-81.18 378.1,-75.52 367.56,-74.35 369.14,-81.18"/>
</g>
<!-- Node25&#45;&gt;Node2 -->
<g id="edge46" class="edge">
<title>Node25&#45;&gt;Node2</title>
<path fill="none" stroke="midnightblue" d="M612.3,-280.44C640.35,-271.32 684.94,-256.81 716.18,-246.65"/>
<polygon fill="midnightblue" stroke="midnightblue" points="717.39,-249.94 725.82,-243.52 715.23,-243.28 717.39,-249.94"/>
</g>
<!-- Node25&#45;&gt;Node12 -->
<g id="edge47" class="edge">
<title>Node25&#45;&gt;Node12</title>
<path fill="none" stroke="midnightblue" d="M586,-280.08C586,-273.01 586,-262.86 586,-253.99"/>
<polygon fill="midnightblue" stroke="midnightblue" points="589.5,-253.75 586,-243.75 582.5,-253.75 589.5,-253.75"/>
</g>
<!-- Node26&#45;&gt;Node15 -->
<g id="edge53" class="edge">
<title>Node26&#45;&gt;Node15</title>
<path fill="none" stroke="midnightblue" d="M314.3,-392.44C342.35,-383.32 386.94,-368.81 418.18,-358.65"/>
<polygon fill="midnightblue" stroke="midnightblue" points="419.39,-361.94 427.82,-355.52 417.23,-355.28 419.39,-361.94"/>
</g>
<!-- Node27 -->
<g id="node27" class="node">
<title>Node27</title>
<g id="a_node27"><a xlink:href="mem_8hpp.html" target="_top" xlink:title=": Memory Sub&#45;System (MEM) for the cloudFPGA shell.">
<polygon fill="none" stroke="black" points="66.5,-56.5 66.5,-75.5 165.5,-75.5 165.5,-56.5 66.5,-56.5"/>
<text text-anchor="middle" x="116" y="-63.5" font-family="Helvetica,sans-Serif" font-size="10.00">../MEM/mem.hpp</text>
</a>
</g>
</g>
<!-- Node26&#45;&gt;Node27 -->
<g id="edge51" class="edge">
<title>Node26&#45;&gt;Node27</title>
<path fill="none" stroke="midnightblue" d="M237.49,-396.69C174.78,-388.25 76,-363.46 76,-291 76,-291 76,-291 76,-177 76,-142.62 93.47,-105.63 105.32,-84.5"/>
<polygon fill="midnightblue" stroke="midnightblue" points="108.42,-86.13 110.44,-75.73 102.38,-82.61 108.42,-86.13"/>
</g>
<!-- Node27&#45;&gt;Node3 -->
<g id="edge52" class="edge">
<title>Node27&#45;&gt;Node3</title>
<path fill="none" stroke="midnightblue" d="M116,-56.08C116,-49.01 116,-38.86 116,-29.99"/>
<polygon fill="midnightblue" stroke="midnightblue" points="119.5,-29.75 116,-19.75 112.5,-29.75 119.5,-29.75"/>
</g>
</g>
</svg>
        <g id="navigator" transform="translate(0 0)" fill="#404254">
                <rect fill="#f2f5e9" fill-opacity="0.5" stroke="#606060" stroke-width=".5" x="0" y="0" width="60" height="60"/>
                <use id="zoomplus" xlink:href="#zoomPlus" x="17" y="9" onmousedown="handleZoom(evt,'in')"/>
                <use id="zoomminus" xlink:href="#zoomMin" x="42" y="9" onmousedown="handleZoom(evt,'out')"/>
                <use id="reset" xlink:href="#resetDef" x="30" y="36" onmousedown="handleReset()"/>
                <g id="arrowUp" xlink:href="#dirArrow" transform="translate(30 24)" onmousedown="handlePan(0,-1)">
                  <use xlink:href="#rim" fill="#404040">
                        <set attributeName="fill" to="#808080" begin="arrowUp.mouseover" end="arrowUp.mouseout"/>
                  </use>
                  <path fill="none" stroke="white" stroke-width="1.5" d="M0,-3.0v7 M-2.5,-0.5L0,-3.0L2.5,-0.5"/>
                </g>
                <g id="arrowRight" xlink:href="#dirArrow" transform="rotate(90) translate(36 -43)" onmousedown="handlePan(1,0)">
                  <use xlink:href="#rim" fill="#404040">
                        <set attributeName="fill" to="#808080" begin="arrowRight.mouseover" end="arrowRight.mouseout"/>
                  </use>
                  <path fill="none" stroke="white" stroke-width="1.5" d="M0,-3.0v7 M-2.5,-0.5L0,-3.0L2.5,-0.5"/>
                </g>
                <g id="arrowDown" xlink:href="#dirArrow" transform="rotate(180) translate(-30 -48)" onmousedown="handlePan(0,1)">
                  <use xlink:href="#rim" fill="#404040">
                        <set attributeName="fill" to="#808080" begin="arrowDown.mouseover" end="arrowDown.mouseout"/>
                  </use>
                  <path fill="none" stroke="white" stroke-width="1.5" d="M0,-3.0v7 M-2.5,-0.5L0,-3.0L2.5,-0.5"/>
                </g>
                <g id="arrowLeft" xlink:href="#dirArrow" transform="rotate(270) translate(-36 17)" onmousedown="handlePan(-1,0)">
                  <use xlink:href="#rim" fill="#404040">
                        <set attributeName="fill" to="#808080" begin="arrowLeft.mouseover" end="arrowLeft.mouseout"/>
                  </use>
                  <path fill="none" stroke="white" stroke-width="1.5" d="M0,-3.0v7 M-2.5,-0.5L0,-3.0L2.5,-0.5"/>
                </g>
        </g>
        <svg viewBox="0 0 15 15" width="100%" height="30px" preserveAspectRatio="xMaxYMin meet">
         <g id="arrow_out" transform="scale(0.3 0.3)">
          <a xlink:href="network__utils_8cpp__incl_org.svg" target="_base">
           <rect id="button" ry="5" rx="5" y="6" x="6" height="38" width="38"
                fill="#f2f5e9" fill-opacity="0.5" stroke="#606060" stroke-width="1.0"/>
           <path id="arrow"
             d="M 11.500037,31.436501 C 11.940474,20.09759 22.043105,11.32322 32.158766,21.979434 L 37.068811,17.246167 C 37.068811,17.246167 37.088388,32 37.088388,32 L 22.160133,31.978069 C 22.160133,31.978069 26.997745,27.140456 26.997745,27.140456 C 18.528582,18.264221 13.291696,25.230495 11.500037,31.436501 z"
             style="fill:#404040;"/>
          </a>
         </g>
        </svg>
</svg>
