<?xml version="1.0" encoding="UTF-8" standalone="no"?>
<!DOCTYPE svg PUBLIC "-//W3C//DTD SVG 1.1//EN"
 "http://www.w3.org/Graphics/SVG/1.1/DTD/svg11.dtd">
<!-- Generated by graphviz version 2.43.0 (0)
 -->
<!-- Title: repos_for_Dox/cFDK/SRA/LIB/SHELL/LIB/hls/NTS/nts_utils.cpp Pages: 1 -->
<!--zoomable 498 -->
<svg id="main" version="1.1" xmlns="http://www.w3.org/2000/svg" xmlns:xlink="http://www.w3.org/1999/xlink" xml:space="preserve" onload="init(evt)">
<style type="text/css"><![CDATA[
.edge:hover path { stroke: red; }
.edge:hover polygon { stroke: red; fill: red; }
]]></style>
<script type="text/javascript"><![CDATA[
var edges = document.getElementsByTagName('g');
if (edges && edges.length) {
  for (var i=0;i<edges.length;i++) {
    if (edges[i].id.substr(0,4)=='edge') {
      edges[i].setAttribute('class','edge');
    }
  }
}
]]></script>
        <defs>
                <circle id="rim" cx="0" cy="0" r="7"/>
                <circle id="rim2" cx="0" cy="0" r="3.5"/>
                <g id="zoomPlus">
                        <use xlink:href="#rim" fill="#404040">
                                <set attributeName="fill" to="#808080" begin="zoomplus.mouseover" end="zoomplus.mouseout"/>
                        </use>
                        <path d="M-4,0h8M0,-4v8" fill="none" stroke="white" stroke-width="1.5" pointer-events="none"/>
                </g>
                <g id="zoomMin">
                        <use xlink:href="#rim" fill="#404040">
                                <set attributeName="fill" to="#808080" begin="zoomminus.mouseover" end="zoomminus.mouseout"/>
                        </use>
                        <path d="M-4,0h8" fill="none" stroke="white" stroke-width="1.5" pointer-events="none"/>
                </g>
                <g id="dirArrow">
                        <path fill="none" stroke="white" stroke-width="1.5" d="M0,-3.0v7 M-2.5,-0.5L0,-3.0L2.5,-0.5"/>
                </g>
               <g id="resetDef">
                       <use xlink:href="#rim2" fill="#404040">
                               <set attributeName="fill" to="#808080" begin="reset.mouseover" end="reset.mouseout"/>
                       </use>
               </g>
        </defs>

<script type="text/javascript">
var viewWidth = 647;
var viewHeight = 498;
var sectionId = 'dynsection-0';
</script>
<script xlink:href="svgpan.js"/>
<svg id="graph" class="graph">
<g id="viewport">
<title>repos_for_Dox/cFDK/SRA/LIB/SHELL/LIB/hls/NTS/nts_utils.cpp</title>
<!-- Node1 -->
<g id="node1" class="node">
<title>Node1</title>
<g id="a_node1"><a xlink:title=": Utilities and helpers for the Network&#45;Transport&#45;Stack (NTS) components.">
<polygon fill="#bfbfbf" stroke="black" points="82,-448.5 82,-489.5 207,-489.5 207,-448.5 82,-448.5"/>
<text text-anchor="start" x="90" y="-477.5" font-family="Helvetica,sans-Serif" font-size="10.00">repos_for_Dox/cFDK</text>
<text text-anchor="start" x="90" y="-466.5" font-family="Helvetica,sans-Serif" font-size="10.00">/SRA/LIB/SHELL/LIB/hls</text>
<text text-anchor="middle" x="144.5" y="-455.5" font-family="Helvetica,sans-Serif" font-size="10.00">/NTS/nts_utils.cpp</text>
</a>
</g>
</g>
<!-- Node2 -->
<g id="node2" class="node">
<title>Node2</title>
<g id="a_node2"><a xlink:href="nts__utils_8hpp.html" target="_top" xlink:title=": Utilities and helpers for the Network&#45;Transport&#45;Stack (NTS) components.">
<polygon fill="none" stroke="black" points="105,-392.5 105,-411.5 184,-411.5 184,-392.5 105,-392.5"/>
<text text-anchor="middle" x="144.5" y="-399.5" font-family="Helvetica,sans-Serif" font-size="10.00">nts_utils.hpp</text>
</a>
</g>
</g>
<!-- Node1&#45;&gt;Node2 -->
<g id="edge1" class="edge">
<title>Node1&#45;&gt;Node2</title>
<path fill="none" stroke="midnightblue" d="M144.5,-448.5C144.5,-440.07 144.5,-430.24 144.5,-421.87"/>
<polygon fill="midnightblue" stroke="midnightblue" points="148,-421.65 144.5,-411.65 141,-421.65 148,-421.65"/>
</g>
<!-- Node3 -->
<g id="node3" class="node">
<title>Node3</title>
<g id="a_node3"><a xlink:href="mem_8hpp.html" target="_top" xlink:title=": Memory Sub&#45;System (MEM) for the cloudFPGA shell.">
<polygon fill="none" stroke="black" points="0,-56.5 0,-75.5 99,-75.5 99,-56.5 0,-56.5"/>
<text text-anchor="middle" x="49.5" y="-63.5" font-family="Helvetica,sans-Serif" font-size="10.00">../MEM/mem.hpp</text>
</a>
</g>
</g>
<!-- Node2&#45;&gt;Node3 -->
<g id="edge2" class="edge">
<title>Node2&#45;&gt;Node3</title>
<path fill="none" stroke="midnightblue" d="M127.88,-392.27C99.92,-376.26 46.5,-339.34 46.5,-291 46.5,-291 46.5,-291 46.5,-177 46.5,-144.94 47.79,-107.63 48.68,-85.74"/>
<polygon fill="midnightblue" stroke="midnightblue" points="52.18,-85.69 49.11,-75.56 45.19,-85.4 52.18,-85.69"/>
</g>
<!-- Node5 -->
<g id="node5" class="node">
<title>Node5</title>
<g id="a_node5"><a xlink:href="nts_8hpp.html" target="_top" xlink:title=": Definition of the Network Transport Stack (NTS) component as if it was an HLS IP core.">
<polygon fill="none" stroke="black" points="201.5,-336.5 201.5,-355.5 285.5,-355.5 285.5,-336.5 201.5,-336.5"/>
<text text-anchor="middle" x="243.5" y="-343.5" font-family="Helvetica,sans-Serif" font-size="10.00">../NTS/nts.hpp</text>
</a>
</g>
</g>
<!-- Node2&#45;&gt;Node5 -->
<g id="edge4" class="edge">
<title>Node2&#45;&gt;Node5</title>
<path fill="none" stroke="midnightblue" d="M160.41,-392.32C176.14,-383.74 200.44,-370.49 218.71,-360.52"/>
<polygon fill="midnightblue" stroke="midnightblue" points="220.53,-363.52 227.63,-355.65 217.18,-357.37 220.53,-363.52"/>
</g>
<!-- Node4 -->
<g id="node4" class="node">
<title>Node4</title>
<g id="a_node4"><a xlink:title=" ">
<polygon fill="none" stroke="#bfbfbf" points="65.5,-0.5 65.5,-19.5 121.5,-19.5 121.5,-0.5 65.5,-0.5"/>
<text text-anchor="middle" x="93.5" y="-7.5" font-family="Helvetica,sans-Serif" font-size="10.00">ap_int.h</text>
</a>
</g>
</g>
<!-- Node3&#45;&gt;Node4 -->
<g id="edge3" class="edge">
<title>Node3&#45;&gt;Node4</title>
<path fill="none" stroke="midnightblue" d="M56.77,-56.08C63.04,-48.38 72.29,-37.03 79.93,-27.65"/>
<polygon fill="midnightblue" stroke="midnightblue" points="82.77,-29.71 86.37,-19.75 77.34,-25.29 82.77,-29.71"/>
</g>
<!-- Node6 -->
<g id="node6" class="node">
<title>Node6</title>
<g id="a_node6"><a xlink:href="nts__types_8hpp.html" target="_top" xlink:title=": Definition of the types used by the Network Transport Stack (NTS) component of the cloudFPGA shell.">
<polygon fill="none" stroke="black" points="201,-280.5 201,-299.5 286,-299.5 286,-280.5 201,-280.5"/>
<text text-anchor="middle" x="243.5" y="-287.5" font-family="Helvetica,sans-Serif" font-size="10.00">nts_types.hpp</text>
</a>
</g>
</g>
<!-- Node5&#45;&gt;Node6 -->
<g id="edge5" class="edge">
<title>Node5&#45;&gt;Node6</title>
<path fill="none" stroke="midnightblue" d="M243.5,-336.08C243.5,-329.01 243.5,-318.86 243.5,-309.99"/>
<polygon fill="midnightblue" stroke="midnightblue" points="247,-309.75 243.5,-299.75 240,-309.75 247,-309.75"/>
</g>
<!-- Node17 -->
<g id="node17" class="node">
<title>Node17</title>
<g id="a_node17"><a xlink:href="nts__config_8hpp.html" target="_top" xlink:title=": Configuration parameters for the Network Transport Stack (NTS) component and sub&#45;components.">
<polygon fill="none" stroke="black" points="500,-280.5 500,-299.5 587,-299.5 587,-280.5 500,-280.5"/>
<text text-anchor="middle" x="543.5" y="-287.5" font-family="Helvetica,sans-Serif" font-size="10.00">nts_config.hpp</text>
</a>
</g>
</g>
<!-- Node5&#45;&gt;Node17 -->
<g id="edge25" class="edge">
<title>Node5&#45;&gt;Node17</title>
<path fill="none" stroke="midnightblue" d="M285.53,-337.43C338.93,-327.82 431.15,-311.22 489.65,-300.69"/>
<polygon fill="midnightblue" stroke="midnightblue" points="490.59,-304.08 499.81,-298.86 489.35,-297.19 490.59,-304.08"/>
</g>
<!-- Node7 -->
<g id="node7" class="node">
<title>Node7</title>
<g id="a_node7"><a xlink:title=" ">
<polygon fill="none" stroke="#bfbfbf" points="355.5,-0.5 355.5,-19.5 435.5,-19.5 435.5,-0.5 355.5,-0.5"/>
<text text-anchor="middle" x="395.5" y="-7.5" font-family="Helvetica,sans-Serif" font-size="10.00">hls_stream.h</text>
</a>
</g>
</g>
<!-- Node6&#45;&gt;Node7 -->
<g id="edge6" class="edge">
<title>Node6&#45;&gt;Node7</title>
<path fill="none" stroke="midnightblue" d="M286.18,-288.39C356.37,-284.89 488.5,-266.66 488.5,-179 488.5,-179 488.5,-179 488.5,-121 488.5,-78.31 447.15,-43.64 419.59,-25.28"/>
<polygon fill="midnightblue" stroke="midnightblue" points="421.17,-22.13 410.86,-19.69 417.39,-28.03 421.17,-22.13"/>
</g>
<!-- Node8 -->
<g id="node8" class="node">
<title>Node8</title>
<g id="a_node8"><a xlink:href="AxisEth_8hpp.html" target="_top" xlink:title=": A class to access an ETHernet data chunk transmitted over an AXI4&#45;Stream interface.">
<polygon fill="none" stroke="black" points="113.5,-224.5 113.5,-243.5 187.5,-243.5 187.5,-224.5 113.5,-224.5"/>
<text text-anchor="middle" x="150.5" y="-231.5" font-family="Helvetica,sans-Serif" font-size="10.00">AxisEth.hpp</text>
</a>
</g>
</g>
<!-- Node6&#45;&gt;Node8 -->
<g id="edge7" class="edge">
<title>Node6&#45;&gt;Node8</title>
<path fill="none" stroke="midnightblue" d="M228.56,-280.32C213.91,-271.82 191.37,-258.73 174.26,-248.8"/>
<polygon fill="midnightblue" stroke="midnightblue" points="175.81,-245.65 165.4,-243.65 172.3,-251.7 175.81,-245.65"/>
</g>
<!-- Node13 -->
<g id="node13" class="node">
<title>Node13</title>
<g id="a_node13"><a xlink:href="AxisIp4_8hpp.html" target="_top" xlink:title=": A class to access an IPv4 data chunk transmitted over an AXI4&#45;Stream interface.">
<polygon fill="none" stroke="black" points="206.5,-168.5 206.5,-187.5 280.5,-187.5 280.5,-168.5 206.5,-168.5"/>
<text text-anchor="middle" x="243.5" y="-175.5" font-family="Helvetica,sans-Serif" font-size="10.00">AxisIp4.hpp</text>
</a>
</g>
</g>
<!-- Node6&#45;&gt;Node13 -->
<g id="edge24" class="edge">
<title>Node6&#45;&gt;Node13</title>
<path fill="none" stroke="midnightblue" d="M243.5,-280.37C243.5,-262.62 243.5,-221.67 243.5,-197.6"/>
<polygon fill="midnightblue" stroke="midnightblue" points="247,-197.59 243.5,-187.59 240,-197.59 247,-197.59"/>
</g>
<!-- Node9 -->
<g id="node9" class="node">
<title>Node9</title>
<g id="a_node9"><a xlink:href="AxisRaw_8hpp.html" target="_top" xlink:title=": A generic class used by the Network&#45;Transport&#45;Stack (NTS) to to transfer a chunk of data over an AX...">
<polygon fill="none" stroke="black" points="156,-56.5 156,-75.5 235,-75.5 235,-56.5 156,-56.5"/>
<text text-anchor="middle" x="195.5" y="-63.5" font-family="Helvetica,sans-Serif" font-size="10.00">AxisRaw.hpp</text>
</a>
</g>
</g>
<!-- Node8&#45;&gt;Node9 -->
<g id="edge8" class="edge">
<title>Node8&#45;&gt;Node9</title>
<path fill="none" stroke="midnightblue" d="M136.42,-224.26C125.15,-216.35 110.15,-203.58 103.5,-188 100.01,-179.83 101.05,-176.54 103.5,-168 114.4,-129.99 150.12,-98.66 173.71,-81.42"/>
<polygon fill="midnightblue" stroke="midnightblue" points="175.92,-84.14 182.08,-75.52 171.89,-78.42 175.92,-84.14"/>
</g>
<!-- Node12 -->
<g id="node12" class="node">
<title>Node12</title>
<g id="a_node12"><a xlink:href="AxisArp_8hpp.html" target="_top" xlink:title=": A class to access an ARP data chunk transmitted over an AXI4&#45;Stream interface.">
<polygon fill="none" stroke="black" points="113,-168.5 113,-187.5 188,-187.5 188,-168.5 113,-168.5"/>
<text text-anchor="middle" x="150.5" y="-175.5" font-family="Helvetica,sans-Serif" font-size="10.00">AxisArp.hpp</text>
</a>
</g>
</g>
<!-- Node8&#45;&gt;Node12 -->
<g id="edge13" class="edge">
<title>Node8&#45;&gt;Node12</title>
<path fill="none" stroke="midnightblue" d="M145.33,-224.08C143.82,-216.93 143.39,-206.64 144.04,-197.69"/>
<polygon fill="midnightblue" stroke="midnightblue" points="147.52,-198.13 145.37,-187.75 140.58,-197.2 147.52,-198.13"/>
</g>
<!-- Node8&#45;&gt;Node13 -->
<g id="edge16" class="edge">
<title>Node8&#45;&gt;Node13</title>
<path fill="none" stroke="midnightblue" d="M165.44,-224.32C180.09,-215.82 202.63,-202.73 219.74,-192.8"/>
<polygon fill="midnightblue" stroke="midnightblue" points="221.7,-195.7 228.6,-187.65 218.19,-189.65 221.7,-195.7"/>
</g>
<!-- Node9&#45;&gt;Node4 -->
<g id="edge12" class="edge">
<title>Node9&#45;&gt;Node4</title>
<path fill="none" stroke="midnightblue" d="M179.11,-56.32C162.83,-47.7 137.63,-34.36 118.78,-24.39"/>
<polygon fill="midnightblue" stroke="midnightblue" points="120.32,-21.24 109.85,-19.65 117.05,-27.43 120.32,-21.24"/>
</g>
<!-- Node9&#45;&gt;Node7 -->
<g id="edge11" class="edge">
<title>Node9&#45;&gt;Node7</title>
<path fill="none" stroke="midnightblue" d="M227.19,-56.44C261.57,-47.16 316.58,-32.31 354.29,-22.13"/>
<polygon fill="midnightblue" stroke="midnightblue" points="355.22,-25.5 363.96,-19.52 353.39,-18.74 355.22,-25.5"/>
</g>
<!-- Node10 -->
<g id="node10" class="node">
<title>Node10</title>
<g id="a_node10"><a xlink:title=" ">
<polygon fill="none" stroke="#bfbfbf" points="148.5,-0.5 148.5,-19.5 200.5,-19.5 200.5,-0.5 148.5,-0.5"/>
<text text-anchor="middle" x="174.5" y="-7.5" font-family="Helvetica,sans-Serif" font-size="10.00">cassert</text>
</a>
</g>
</g>
<!-- Node9&#45;&gt;Node10 -->
<g id="edge9" class="edge">
<title>Node9&#45;&gt;Node10</title>
<path fill="none" stroke="midnightblue" d="M192.03,-56.08C189.19,-48.77 185.07,-38.18 181.54,-29.1"/>
<polygon fill="midnightblue" stroke="midnightblue" points="184.79,-27.8 177.9,-19.75 178.27,-30.34 184.79,-27.8"/>
</g>
<!-- Node11 -->
<g id="node11" class="node">
<title>Node11</title>
<g id="a_node11"><a xlink:title=" ">
<polygon fill="none" stroke="#bfbfbf" points="218.5,-0.5 218.5,-19.5 278.5,-19.5 278.5,-0.5 218.5,-0.5"/>
<text text-anchor="middle" x="248.5" y="-7.5" font-family="Helvetica,sans-Serif" font-size="10.00">iostream</text>
</a>
</g>
</g>
<!-- Node9&#45;&gt;Node11 -->
<g id="edge10" class="edge">
<title>Node9&#45;&gt;Node11</title>
<path fill="none" stroke="midnightblue" d="M204.25,-56.08C211.97,-48.22 223.4,-36.57 232.72,-27.08"/>
<polygon fill="midnightblue" stroke="midnightblue" points="235.4,-29.34 239.91,-19.75 230.41,-24.44 235.4,-29.34"/>
</g>
<!-- Node12&#45;&gt;Node8 -->
<g id="edge15" class="edge">
<title>Node12&#45;&gt;Node8</title>
<path fill="none" stroke="midnightblue" d="M155.63,-187.75C157.16,-194.86 157.6,-205.14 156.97,-214.1"/>
<polygon fill="midnightblue" stroke="midnightblue" points="153.49,-213.71 155.67,-224.08 160.43,-214.62 153.49,-213.71"/>
</g>
<!-- Node12&#45;&gt;Node9 -->
<g id="edge14" class="edge">
<title>Node12&#45;&gt;Node9</title>
<path fill="none" stroke="midnightblue" d="M147.49,-168.14C143.62,-155.2 138.31,-130.63 146.5,-112 151.89,-99.73 162.46,-89.34 172.4,-81.65"/>
<polygon fill="midnightblue" stroke="midnightblue" points="174.75,-84.27 180.84,-75.6 170.67,-78.58 174.75,-84.27"/>
</g>
<!-- Node13&#45;&gt;Node9 -->
<g id="edge17" class="edge">
<title>Node13&#45;&gt;Node9</title>
<path fill="none" stroke="midnightblue" d="M222.02,-168.36C207.11,-161.09 188.39,-149.12 179.5,-132 171.74,-117.06 177.88,-98.22 184.68,-84.67"/>
<polygon fill="midnightblue" stroke="midnightblue" points="187.77,-86.32 189.56,-75.88 181.65,-82.93 187.77,-86.32"/>
</g>
<!-- Node14 -->
<g id="node14" class="node">
<title>Node14</title>
<g id="a_node14"><a xlink:href="AxisIcmp_8hpp.html" target="_top" xlink:title=": A class to access ICMP header fields within data chunks transmitted over an AXI4&#45;Stream interface.">
<polygon fill="none" stroke="black" points="189,-112.5 189,-131.5 272,-131.5 272,-112.5 189,-112.5"/>
<text text-anchor="middle" x="230.5" y="-119.5" font-family="Helvetica,sans-Serif" font-size="10.00">AxisIcmp.hpp</text>
</a>
</g>
</g>
<!-- Node13&#45;&gt;Node14 -->
<g id="edge18" class="edge">
<title>Node13&#45;&gt;Node14</title>
<path fill="none" stroke="midnightblue" d="M241.35,-168.08C239.63,-160.93 237.15,-150.64 235,-141.69"/>
<polygon fill="midnightblue" stroke="midnightblue" points="238.35,-140.65 232.61,-131.75 231.54,-142.29 238.35,-140.65"/>
</g>
<!-- Node15 -->
<g id="node15" class="node">
<title>Node15</title>
<g id="a_node15"><a xlink:href="AxisTcp_8hpp.html" target="_top" xlink:title=": A class to access TCP header fields within data chunks transmitted over an AXI4&#45;Stream interface.">
<polygon fill="none" stroke="black" points="290.5,-112.5 290.5,-131.5 364.5,-131.5 364.5,-112.5 290.5,-112.5"/>
<text text-anchor="middle" x="327.5" y="-119.5" font-family="Helvetica,sans-Serif" font-size="10.00">AxisTcp.hpp</text>
</a>
</g>
</g>
<!-- Node13&#45;&gt;Node15 -->
<g id="edge20" class="edge">
<title>Node13&#45;&gt;Node15</title>
<path fill="none" stroke="midnightblue" d="M257,-168.32C270.1,-159.9 290.21,-146.97 305.61,-137.07"/>
<polygon fill="midnightblue" stroke="midnightblue" points="307.52,-140.01 314.04,-131.65 303.73,-134.12 307.52,-140.01"/>
</g>
<!-- Node16 -->
<g id="node16" class="node">
<title>Node16</title>
<g id="a_node16"><a xlink:href="AxisUdp_8hpp.html" target="_top" xlink:title=": A class to access UDP header fields within data chunks transmitted over an AXI4&#45;Stream interface.">
<polygon fill="none" stroke="black" points="382.5,-112.5 382.5,-131.5 460.5,-131.5 460.5,-112.5 382.5,-112.5"/>
<text text-anchor="middle" x="421.5" y="-119.5" font-family="Helvetica,sans-Serif" font-size="10.00">AxisUdp.hpp</text>
</a>
</g>
</g>
<!-- Node13&#45;&gt;Node16 -->
<g id="edge22" class="edge">
<title>Node13&#45;&gt;Node16</title>
<path fill="none" stroke="midnightblue" d="M271.7,-168.44C301.91,-159.28 350.01,-144.69 383.53,-134.52"/>
<polygon fill="midnightblue" stroke="midnightblue" points="384.87,-137.77 393.43,-131.52 382.84,-131.07 384.87,-137.77"/>
</g>
<!-- Node14&#45;&gt;Node9 -->
<g id="edge19" class="edge">
<title>Node14&#45;&gt;Node9</title>
<path fill="none" stroke="midnightblue" d="M224.72,-112.08C219.83,-104.53 212.67,-93.49 206.67,-84.23"/>
<polygon fill="midnightblue" stroke="midnightblue" points="209.55,-82.24 201.17,-75.75 203.67,-86.05 209.55,-82.24"/>
</g>
<!-- Node15&#45;&gt;Node9 -->
<g id="edge21" class="edge">
<title>Node15&#45;&gt;Node9</title>
<path fill="none" stroke="midnightblue" d="M306.58,-112.44C284.76,-103.52 250.35,-89.44 225.61,-79.32"/>
<polygon fill="midnightblue" stroke="midnightblue" points="226.9,-76.06 216.32,-75.52 224.25,-82.54 226.9,-76.06"/>
</g>
<!-- Node16&#45;&gt;Node9 -->
<g id="edge23" class="edge">
<title>Node16&#45;&gt;Node9</title>
<path fill="none" stroke="midnightblue" d="M385.69,-112.44C346.51,-103.08 283.62,-88.06 240.98,-77.87"/>
<polygon fill="midnightblue" stroke="midnightblue" points="241.68,-74.44 231.14,-75.52 240.06,-81.24 241.68,-74.44"/>
</g>
<!-- Node18 -->
<g id="node18" class="node">
<title>Node18</title>
<g id="a_node18"><a xlink:title=" ">
<polygon fill="none" stroke="#bfbfbf" points="517,-224.5 517,-243.5 570,-243.5 570,-224.5 517,-224.5"/>
<text text-anchor="middle" x="543.5" y="-231.5" font-family="Helvetica,sans-Serif" font-size="10.00">stdint.h</text>
</a>
</g>
</g>
<!-- Node17&#45;&gt;Node18 -->
<g id="edge26" class="edge">
<title>Node17&#45;&gt;Node18</title>
<path fill="none" stroke="midnightblue" d="M543.5,-280.08C543.5,-273.01 543.5,-262.86 543.5,-253.99"/>
<polygon fill="midnightblue" stroke="midnightblue" points="547,-253.75 543.5,-243.75 540,-253.75 547,-253.75"/>
</g>
<!-- Node19 -->
<g id="node19" class="node">
<title>Node19</title>
<g id="a_node19"><a xlink:title=" ">
<polygon fill="none" stroke="#bfbfbf" points="588,-224.5 588,-243.5 639,-243.5 639,-224.5 588,-224.5"/>
<text text-anchor="middle" x="613.5" y="-231.5" font-family="Helvetica,sans-Serif" font-size="10.00">math.h</text>
</a>
</g>
</g>
<!-- Node17&#45;&gt;Node19 -->
<g id="edge27" class="edge">
<title>Node17&#45;&gt;Node19</title>
<path fill="none" stroke="midnightblue" d="M554.75,-280.32C565.3,-272.18 581.3,-259.84 593.94,-250.09"/>
<polygon fill="midnightblue" stroke="midnightblue" points="596.27,-252.71 602.05,-243.83 591.99,-247.17 596.27,-252.71"/>
</g>
</g>
</svg>
        <g id="navigator" transform="translate(0 0)" fill="#404254">
                <rect fill="#f2f5e9" fill-opacity="0.5" stroke="#606060" stroke-width=".5" x="0" y="0" width="60" height="60"/>
                <use id="zoomplus" xlink:href="#zoomPlus" x="17" y="9" onmousedown="handleZoom(evt,'in')"/>
                <use id="zoomminus" xlink:href="#zoomMin" x="42" y="9" onmousedown="handleZoom(evt,'out')"/>
                <use id="reset" xlink:href="#resetDef" x="30" y="36" onmousedown="handleReset()"/>
                <g id="arrowUp" xlink:href="#dirArrow" transform="translate(30 24)" onmousedown="handlePan(0,-1)">
                  <use xlink:href="#rim" fill="#404040">
                        <set attributeName="fill" to="#808080" begin="arrowUp.mouseover" end="arrowUp.mouseout"/>
                  </use>
                  <path fill="none" stroke="white" stroke-width="1.5" d="M0,-3.0v7 M-2.5,-0.5L0,-3.0L2.5,-0.5"/>
                </g>
                <g id="arrowRight" xlink:href="#dirArrow" transform="rotate(90) translate(36 -43)" onmousedown="handlePan(1,0)">
                  <use xlink:href="#rim" fill="#404040">
                        <set attributeName="fill" to="#808080" begin="arrowRight.mouseover" end="arrowRight.mouseout"/>
                  </use>
                  <path fill="none" stroke="white" stroke-width="1.5" d="M0,-3.0v7 M-2.5,-0.5L0,-3.0L2.5,-0.5"/>
                </g>
                <g id="arrowDown" xlink:href="#dirArrow" transform="rotate(180) translate(-30 -48)" onmousedown="handlePan(0,1)">
                  <use xlink:href="#rim" fill="#404040">
                        <set attributeName="fill" to="#808080" begin="arrowDown.mouseover" end="arrowDown.mouseout"/>
                  </use>
                  <path fill="none" stroke="white" stroke-width="1.5" d="M0,-3.0v7 M-2.5,-0.5L0,-3.0L2.5,-0.5"/>
                </g>
                <g id="arrowLeft" xlink:href="#dirArrow" transform="rotate(270) translate(-36 17)" onmousedown="handlePan(-1,0)">
                  <use xlink:href="#rim" fill="#404040">
                        <set attributeName="fill" to="#808080" begin="arrowLeft.mouseover" end="arrowLeft.mouseout"/>
                  </use>
                  <path fill="none" stroke="white" stroke-width="1.5" d="M0,-3.0v7 M-2.5,-0.5L0,-3.0L2.5,-0.5"/>
                </g>
        </g>
        <svg viewBox="0 0 15 15" width="100%" height="30px" preserveAspectRatio="xMaxYMin meet">
         <g id="arrow_out" transform="scale(0.3 0.3)">
          <a xlink:href="nts__utils_8cpp__incl_org.svg" target="_base">
           <rect id="button" ry="5" rx="5" y="6" x="6" height="38" width="38"
                fill="#f2f5e9" fill-opacity="0.5" stroke="#606060" stroke-width="1.0"/>
           <path id="arrow"
             d="M 11.500037,31.436501 C 11.940474,20.09759 22.043105,11.32322 32.158766,21.979434 L 37.068811,17.246167 C 37.068811,17.246167 37.088388,32 37.088388,32 L 22.160133,31.978069 C 22.160133,31.978069 26.997745,27.140456 26.997745,27.140456 C 18.528582,18.264221 13.291696,25.230495 11.500037,31.436501 z"
             style="fill:#404040;"/>
          </a>
         </g>
        </svg>
</svg>
