<?xml version="1.0" encoding="UTF-8" standalone="no"?>
<!DOCTYPE svg PUBLIC "-//W3C//DTD SVG 1.1//EN"
 "http://www.w3.org/Graphics/SVG/1.1/DTD/svg11.dtd">
<!-- Generated by graphviz version 2.43.0 (0)
 -->
<!-- Title: repos_for_Dox/cFDK/SRA/LIB/SHELL/LIB/hls/NTS/rlb/src/rlb.cpp Pages: 1 -->
<!--zoomable 610 -->
<svg id="main" version="1.1" xmlns="http://www.w3.org/2000/svg" xmlns:xlink="http://www.w3.org/1999/xlink" xml:space="preserve" onload="init(evt)">
<style type="text/css"><![CDATA[
.edge:hover path { stroke: red; }
.edge:hover polygon { stroke: red; fill: red; }
]]></style>
<script type="text/javascript"><![CDATA[
var edges = document.getElementsByTagName('g');
if (edges && edges.length) {
  for (var i=0;i<edges.length;i++) {
    if (edges[i].id.substr(0,4)=='edge') {
      edges[i].setAttribute('class','edge');
    }
  }
}
]]></script>
        <defs>
                <circle id="rim" cx="0" cy="0" r="7"/>
                <circle id="rim2" cx="0" cy="0" r="3.5"/>
                <g id="zoomPlus">
                        <use xlink:href="#rim" fill="#404040">
                                <set attributeName="fill" to="#808080" begin="zoomplus.mouseover" end="zoomplus.mouseout"/>
                        </use>
                        <path d="M-4,0h8M0,-4v8" fill="none" stroke="white" stroke-width="1.5" pointer-events="none"/>
                </g>
                <g id="zoomMin">
                        <use xlink:href="#rim" fill="#404040">
                                <set attributeName="fill" to="#808080" begin="zoomminus.mouseover" end="zoomminus.mouseout"/>
                        </use>
                        <path d="M-4,0h8" fill="none" stroke="white" stroke-width="1.5" pointer-events="none"/>
                </g>
                <g id="dirArrow">
                        <path fill="none" stroke="white" stroke-width="1.5" d="M0,-3.0v7 M-2.5,-0.5L0,-3.0L2.5,-0.5"/>
                </g>
               <g id="resetDef">
                       <use xlink:href="#rim2" fill="#404040">
                               <set attributeName="fill" to="#808080" begin="reset.mouseover" end="reset.mouseout"/>
                       </use>
               </g>
        </defs>

<script type="text/javascript">
var viewWidth = 556;
var viewHeight = 610;
var sectionId = 'dynsection-0';
</script>
<script xlink:href="svgpan.js"/>
<svg id="graph" class="graph">
<g id="viewport">
<title>repos_for_Dox/cFDK/SRA/LIB/SHELL/LIB/hls/NTS/rlb/src/rlb.cpp</title>
<!-- Node1 -->
<g id="node1" class="node">
<title>Node1</title>
<g id="a_node1"><a xlink:title=": Ready Logic Barrier (RLB)">
<polygon fill="#bfbfbf" stroke="black" points="87.5,-560.5 87.5,-601.5 212.5,-601.5 212.5,-560.5 87.5,-560.5"/>
<text text-anchor="start" x="95.5" y="-589.5" font-family="Helvetica,sans-Serif" font-size="10.00">repos_for_Dox/cFDK</text>
<text text-anchor="start" x="95.5" y="-578.5" font-family="Helvetica,sans-Serif" font-size="10.00">/SRA/LIB/SHELL/LIB/hls</text>
<text text-anchor="middle" x="150" y="-567.5" font-family="Helvetica,sans-Serif" font-size="10.00">/NTS/rlb/src/rlb.cpp</text>
</a>
</g>
</g>
<!-- Node2 -->
<g id="node2" class="node">
<title>Node2</title>
<g id="a_node2"><a xlink:href="rlb_8hpp.html" target="_top" xlink:title=": Defines and prototypes related to the Ready Logic Barrier.">
<polygon fill="none" stroke="black" points="125,-504.5 125,-523.5 175,-523.5 175,-504.5 125,-504.5"/>
<text text-anchor="middle" x="150" y="-511.5" font-family="Helvetica,sans-Serif" font-size="10.00">rlb.hpp</text>
</a>
</g>
</g>
<!-- Node1&#45;&gt;Node2 -->
<g id="edge1" class="edge">
<title>Node1&#45;&gt;Node2</title>
<path fill="none" stroke="midnightblue" d="M150,-560.5C150,-552.07 150,-542.24 150,-533.87"/>
<polygon fill="midnightblue" stroke="midnightblue" points="153.5,-533.65 150,-523.65 146.5,-533.65 153.5,-533.65"/>
</g>
<!-- Node3 -->
<g id="node3" class="node">
<title>Node3</title>
<g id="a_node3"><a xlink:href="nts_8hpp.html" target="_top" xlink:title=": Definition of the Network Transport Stack (NTS) component as if it was an HLS IP core.">
<polygon fill="none" stroke="black" points="117,-336.5 117,-355.5 219,-355.5 219,-336.5 117,-336.5"/>
<text text-anchor="middle" x="168" y="-343.5" font-family="Helvetica,sans-Serif" font-size="10.00">../../../NTS/nts.hpp</text>
</a>
</g>
</g>
<!-- Node2&#45;&gt;Node3 -->
<g id="edge2" class="edge">
<title>Node2&#45;&gt;Node3</title>
<path fill="none" stroke="midnightblue" d="M137.74,-504.45C110.82,-484.59 50.98,-433.89 77,-392 86.72,-376.36 103.66,-365.98 120.32,-359.19"/>
<polygon fill="midnightblue" stroke="midnightblue" points="121.87,-362.35 130.03,-355.59 119.44,-355.78 121.87,-362.35"/>
</g>
<!-- Node19 -->
<g id="node19" class="node">
<title>Node19</title>
<g id="a_node19"><a xlink:href="nts__utils_8hpp.html" target="_top" xlink:title=": Utilities and helpers for the Network&#45;Transport&#45;Stack (NTS) components.">
<polygon fill="none" stroke="black" points="86,-392.5 86,-411.5 214,-411.5 214,-392.5 86,-392.5"/>
<text text-anchor="middle" x="150" y="-399.5" font-family="Helvetica,sans-Serif" font-size="10.00">../../../NTS/nts_utils.hpp</text>
</a>
</g>
</g>
<!-- Node2&#45;&gt;Node19 -->
<g id="edge26" class="edge">
<title>Node2&#45;&gt;Node19</title>
<path fill="none" stroke="midnightblue" d="M150,-504.37C150,-486.62 150,-445.67 150,-421.6"/>
<polygon fill="midnightblue" stroke="midnightblue" points="153.5,-421.59 150,-411.59 146.5,-421.59 153.5,-421.59"/>
</g>
<!-- Node21 -->
<g id="node21" class="node">
<title>Node21</title>
<g id="a_node21"><a xlink:href="SimNtsUtils_8hpp.html" target="_top" xlink:title=": Utilities for the simulation of the Network&#45;Transport&#45;Stack (NTS) components.">
<polygon fill="none" stroke="black" points="260.5,-448.5 260.5,-467.5 405.5,-467.5 405.5,-448.5 260.5,-448.5"/>
<text text-anchor="middle" x="333" y="-455.5" font-family="Helvetica,sans-Serif" font-size="10.00">../../../NTS/SimNtsUtils.hpp</text>
</a>
</g>
</g>
<!-- Node2&#45;&gt;Node21 -->
<g id="edge30" class="edge">
<title>Node2&#45;&gt;Node21</title>
<path fill="none" stroke="midnightblue" d="M175.06,-505.6C205.84,-496.52 258.38,-481.02 294.35,-470.41"/>
<polygon fill="midnightblue" stroke="midnightblue" points="295.42,-473.74 304.02,-467.55 293.44,-467.02 295.42,-473.74"/>
</g>
<!-- Node4 -->
<g id="node4" class="node">
<title>Node4</title>
<g id="a_node4"><a xlink:href="nts__types_8hpp.html" target="_top" xlink:title=": Definition of the types used by the Network Transport Stack (NTS) component of the cloudFPGA shell.">
<polygon fill="none" stroke="black" points="125.5,-280.5 125.5,-299.5 210.5,-299.5 210.5,-280.5 125.5,-280.5"/>
<text text-anchor="middle" x="168" y="-287.5" font-family="Helvetica,sans-Serif" font-size="10.00">nts_types.hpp</text>
</a>
</g>
</g>
<!-- Node3&#45;&gt;Node4 -->
<g id="edge3" class="edge">
<title>Node3&#45;&gt;Node4</title>
<path fill="none" stroke="midnightblue" d="M168,-336.08C168,-329.01 168,-318.86 168,-309.99"/>
<polygon fill="midnightblue" stroke="midnightblue" points="171.5,-309.75 168,-299.75 164.5,-309.75 171.5,-309.75"/>
</g>
<!-- Node16 -->
<g id="node16" class="node">
<title>Node16</title>
<g id="a_node16"><a xlink:href="nts__config_8hpp.html" target="_top" xlink:title=": Configuration parameters for the Network Transport Stack (NTS) component and sub&#45;components.">
<polygon fill="none" stroke="black" points="272.5,-280.5 272.5,-299.5 359.5,-299.5 359.5,-280.5 272.5,-280.5"/>
<text text-anchor="middle" x="316" y="-287.5" font-family="Helvetica,sans-Serif" font-size="10.00">nts_config.hpp</text>
</a>
</g>
</g>
<!-- Node3&#45;&gt;Node16 -->
<g id="edge23" class="edge">
<title>Node3&#45;&gt;Node16</title>
<path fill="none" stroke="midnightblue" d="M191.45,-336.44C216.13,-327.44 255.19,-313.19 282.98,-303.05"/>
<polygon fill="midnightblue" stroke="midnightblue" points="284.46,-306.23 292.66,-299.52 282.06,-299.66 284.46,-306.23"/>
</g>
<!-- Node5 -->
<g id="node5" class="node">
<title>Node5</title>
<g id="a_node5"><a xlink:title=" ">
<polygon fill="none" stroke="#bfbfbf" points="82,-0.5 82,-19.5 162,-19.5 162,-0.5 82,-0.5"/>
<text text-anchor="middle" x="122" y="-7.5" font-family="Helvetica,sans-Serif" font-size="10.00">hls_stream.h</text>
</a>
</g>
</g>
<!-- Node4&#45;&gt;Node5 -->
<g id="edge4" class="edge">
<title>Node4&#45;&gt;Node5</title>
<path fill="none" stroke="midnightblue" d="M125.17,-280.5C75.4,-267.84 0,-238.79 0,-179 0,-179 0,-179 0,-121 0,-72.57 53.69,-39.99 89.83,-23.54"/>
<polygon fill="midnightblue" stroke="midnightblue" points="91.29,-26.72 99.05,-19.52 88.49,-20.31 91.29,-26.72"/>
</g>
<!-- Node6 -->
<g id="node6" class="node">
<title>Node6</title>
<g id="a_node6"><a xlink:href="AxisEth_8hpp.html" target="_top" xlink:title=": A class to access an ETHernet data chunk transmitted over an AXI4&#45;Stream interface.">
<polygon fill="none" stroke="black" points="198,-224.5 198,-243.5 272,-243.5 272,-224.5 198,-224.5"/>
<text text-anchor="middle" x="235" y="-231.5" font-family="Helvetica,sans-Serif" font-size="10.00">AxisEth.hpp</text>
</a>
</g>
</g>
<!-- Node4&#45;&gt;Node6 -->
<g id="edge5" class="edge">
<title>Node4&#45;&gt;Node6</title>
<path fill="none" stroke="midnightblue" d="M178.76,-280.32C188.77,-272.26 203.89,-260.08 215.93,-250.37"/>
<polygon fill="midnightblue" stroke="midnightblue" points="218.45,-252.83 224.04,-243.83 214.06,-247.38 218.45,-252.83"/>
</g>
<!-- Node12 -->
<g id="node12" class="node">
<title>Node12</title>
<g id="a_node12"><a xlink:href="AxisIp4_8hpp.html" target="_top" xlink:title=": A class to access an IPv4 data chunk transmitted over an AXI4&#45;Stream interface.">
<polygon fill="none" stroke="black" points="131,-168.5 131,-187.5 205,-187.5 205,-168.5 131,-168.5"/>
<text text-anchor="middle" x="168" y="-175.5" font-family="Helvetica,sans-Serif" font-size="10.00">AxisIp4.hpp</text>
</a>
</g>
</g>
<!-- Node4&#45;&gt;Node12 -->
<g id="edge22" class="edge">
<title>Node4&#45;&gt;Node12</title>
<path fill="none" stroke="midnightblue" d="M168,-280.37C168,-262.62 168,-221.67 168,-197.6"/>
<polygon fill="midnightblue" stroke="midnightblue" points="171.5,-197.59 168,-187.59 164.5,-197.59 171.5,-197.59"/>
</g>
<!-- Node7 -->
<g id="node7" class="node">
<title>Node7</title>
<g id="a_node7"><a xlink:href="AxisRaw_8hpp.html" target="_top" xlink:title=": A generic class used by the Network&#45;Transport&#45;Stack (NTS) to to transfer a chunk of data over an AX...">
<polygon fill="none" stroke="black" points="288.5,-56.5 288.5,-75.5 367.5,-75.5 367.5,-56.5 288.5,-56.5"/>
<text text-anchor="middle" x="328" y="-63.5" font-family="Helvetica,sans-Serif" font-size="10.00">AxisRaw.hpp</text>
</a>
</g>
</g>
<!-- Node6&#45;&gt;Node7 -->
<g id="edge6" class="edge">
<title>Node6&#45;&gt;Node7</title>
<path fill="none" stroke="midnightblue" d="M255.34,-224.32C285.34,-210.16 339.85,-178.9 358,-132 364.55,-115.08 353.87,-96.31 343.48,-83.31"/>
<polygon fill="midnightblue" stroke="midnightblue" points="346.07,-80.95 336.88,-75.68 340.78,-85.53 346.07,-80.95"/>
</g>
<!-- Node11 -->
<g id="node11" class="node">
<title>Node11</title>
<g id="a_node11"><a xlink:href="AxisArp_8hpp.html" target="_top" xlink:title=": A class to access an ARP data chunk transmitted over an AXI4&#45;Stream interface.">
<polygon fill="none" stroke="black" points="223.5,-168.5 223.5,-187.5 298.5,-187.5 298.5,-168.5 223.5,-168.5"/>
<text text-anchor="middle" x="261" y="-175.5" font-family="Helvetica,sans-Serif" font-size="10.00">AxisArp.hpp</text>
</a>
</g>
</g>
<!-- Node6&#45;&gt;Node11 -->
<g id="edge11" class="edge">
<title>Node6&#45;&gt;Node11</title>
<path fill="none" stroke="midnightblue" d="M234.13,-224.08C236.15,-216.61 240.99,-205.72 246.2,-196.52"/>
<polygon fill="midnightblue" stroke="midnightblue" points="249.34,-198.09 251.66,-187.75 243.4,-194.39 249.34,-198.09"/>
</g>
<!-- Node6&#45;&gt;Node12 -->
<g id="edge14" class="edge">
<title>Node6&#45;&gt;Node12</title>
<path fill="none" stroke="midnightblue" d="M224.24,-224.32C214.23,-216.26 199.11,-204.08 187.07,-194.37"/>
<polygon fill="midnightblue" stroke="midnightblue" points="188.94,-191.38 178.96,-187.83 184.55,-196.83 188.94,-191.38"/>
</g>
<!-- Node7&#45;&gt;Node5 -->
<g id="edge9" class="edge">
<title>Node7&#45;&gt;Node5</title>
<path fill="none" stroke="midnightblue" d="M295.36,-56.44C259.95,-47.16 203.29,-32.31 164.45,-22.13"/>
<polygon fill="midnightblue" stroke="midnightblue" points="165.05,-18.67 154.49,-19.52 163.27,-25.44 165.05,-18.67"/>
</g>
<!-- Node8 -->
<g id="node8" class="node">
<title>Node8</title>
<g id="a_node8"><a xlink:title=" ">
<polygon fill="none" stroke="#bfbfbf" points="302,-0.5 302,-19.5 354,-19.5 354,-0.5 302,-0.5"/>
<text text-anchor="middle" x="328" y="-7.5" font-family="Helvetica,sans-Serif" font-size="10.00">cassert</text>
</a>
</g>
</g>
<!-- Node7&#45;&gt;Node8 -->
<g id="edge7" class="edge">
<title>Node7&#45;&gt;Node8</title>
<path fill="none" stroke="midnightblue" d="M328,-56.08C328,-49.01 328,-38.86 328,-29.99"/>
<polygon fill="midnightblue" stroke="midnightblue" points="331.5,-29.75 328,-19.75 324.5,-29.75 331.5,-29.75"/>
</g>
<!-- Node9 -->
<g id="node9" class="node">
<title>Node9</title>
<g id="a_node9"><a xlink:title=" ">
<polygon fill="none" stroke="#bfbfbf" points="488,-0.5 488,-19.5 548,-19.5 548,-0.5 488,-0.5"/>
<text text-anchor="middle" x="518" y="-7.5" font-family="Helvetica,sans-Serif" font-size="10.00">iostream</text>
</a>
</g>
</g>
<!-- Node7&#45;&gt;Node9 -->
<g id="edge8" class="edge">
<title>Node7&#45;&gt;Node9</title>
<path fill="none" stroke="midnightblue" d="M358.11,-56.44C390.63,-47.2 442.58,-32.44 478.39,-22.26"/>
<polygon fill="midnightblue" stroke="midnightblue" points="479.37,-25.62 488.03,-19.52 477.46,-18.88 479.37,-25.62"/>
</g>
<!-- Node10 -->
<g id="node10" class="node">
<title>Node10</title>
<g id="a_node10"><a xlink:title=" ">
<polygon fill="none" stroke="#bfbfbf" points="393,-0.5 393,-19.5 449,-19.5 449,-0.5 393,-0.5"/>
<text text-anchor="middle" x="421" y="-7.5" font-family="Helvetica,sans-Serif" font-size="10.00">ap_int.h</text>
</a>
</g>
</g>
<!-- Node7&#45;&gt;Node10 -->
<g id="edge10" class="edge">
<title>Node7&#45;&gt;Node10</title>
<path fill="none" stroke="midnightblue" d="M342.94,-56.32C357.59,-47.82 380.13,-34.73 397.24,-24.8"/>
<polygon fill="midnightblue" stroke="midnightblue" points="399.2,-27.7 406.1,-19.65 395.69,-21.65 399.2,-27.7"/>
</g>
<!-- Node11&#45;&gt;Node6 -->
<g id="edge13" class="edge">
<title>Node11&#45;&gt;Node6</title>
<path fill="none" stroke="midnightblue" d="M261.92,-187.75C259.92,-195.25 255.02,-206.27 249.75,-215.57"/>
<polygon fill="midnightblue" stroke="midnightblue" points="246.77,-213.74 244.46,-224.08 252.71,-217.44 246.77,-213.74"/>
</g>
<!-- Node11&#45;&gt;Node7 -->
<g id="edge12" class="edge">
<title>Node11&#45;&gt;Node7</title>
<path fill="none" stroke="midnightblue" d="M292.02,-168.44C310.03,-161.69 331.23,-150.3 342,-132 350.57,-117.43 344.76,-98.26 338.21,-84.52"/>
<polygon fill="midnightblue" stroke="midnightblue" points="341.27,-82.82 333.5,-75.61 335.08,-86.09 341.27,-82.82"/>
</g>
<!-- Node12&#45;&gt;Node7 -->
<g id="edge15" class="edge">
<title>Node12&#45;&gt;Node7</title>
<path fill="none" stroke="midnightblue" d="M205.19,-169.28C241.86,-160.96 294.46,-146.9 309,-132 320.92,-119.78 325.43,-100.52 327.1,-86.13"/>
<polygon fill="midnightblue" stroke="midnightblue" points="330.62,-86.11 327.92,-75.86 323.64,-85.55 330.62,-86.11"/>
</g>
<!-- Node13 -->
<g id="node13" class="node">
<title>Node13</title>
<g id="a_node13"><a xlink:href="AxisIcmp_8hpp.html" target="_top" xlink:title=": A class to access ICMP header fields within data chunks transmitted over an AXI4&#45;Stream interface.">
<polygon fill="none" stroke="black" points="28.5,-112.5 28.5,-131.5 111.5,-131.5 111.5,-112.5 28.5,-112.5"/>
<text text-anchor="middle" x="70" y="-119.5" font-family="Helvetica,sans-Serif" font-size="10.00">AxisIcmp.hpp</text>
</a>
</g>
</g>
<!-- Node12&#45;&gt;Node13 -->
<g id="edge16" class="edge">
<title>Node12&#45;&gt;Node13</title>
<path fill="none" stroke="midnightblue" d="M152.25,-168.32C136.68,-159.74 112.62,-146.49 94.54,-136.52"/>
<polygon fill="midnightblue" stroke="midnightblue" points="96.15,-133.42 85.71,-131.65 92.78,-139.55 96.15,-133.42"/>
</g>
<!-- Node14 -->
<g id="node14" class="node">
<title>Node14</title>
<g id="a_node14"><a xlink:href="AxisTcp_8hpp.html" target="_top" xlink:title=": A class to access TCP header fields within data chunks transmitted over an AXI4&#45;Stream interface.">
<polygon fill="none" stroke="black" points="130,-112.5 130,-131.5 204,-131.5 204,-112.5 130,-112.5"/>
<text text-anchor="middle" x="167" y="-119.5" font-family="Helvetica,sans-Serif" font-size="10.00">AxisTcp.hpp</text>
</a>
</g>
</g>
<!-- Node12&#45;&gt;Node14 -->
<g id="edge18" class="edge">
<title>Node12&#45;&gt;Node14</title>
<path fill="none" stroke="midnightblue" d="M167.83,-168.08C167.7,-161.01 167.52,-150.86 167.35,-141.99"/>
<polygon fill="midnightblue" stroke="midnightblue" points="170.85,-141.68 167.16,-131.75 163.85,-141.81 170.85,-141.68"/>
</g>
<!-- Node15 -->
<g id="node15" class="node">
<title>Node15</title>
<g id="a_node15"><a xlink:href="AxisUdp_8hpp.html" target="_top" xlink:title=": A class to access UDP header fields within data chunks transmitted over an AXI4&#45;Stream interface.">
<polygon fill="none" stroke="black" points="222,-112.5 222,-131.5 300,-131.5 300,-112.5 222,-112.5"/>
<text text-anchor="middle" x="261" y="-119.5" font-family="Helvetica,sans-Serif" font-size="10.00">AxisUdp.hpp</text>
</a>
</g>
</g>
<!-- Node12&#45;&gt;Node15 -->
<g id="edge20" class="edge">
<title>Node12&#45;&gt;Node15</title>
<path fill="none" stroke="midnightblue" d="M182.94,-168.32C197.59,-159.82 220.13,-146.73 237.24,-136.8"/>
<polygon fill="midnightblue" stroke="midnightblue" points="239.2,-139.7 246.1,-131.65 235.69,-133.65 239.2,-139.7"/>
</g>
<!-- Node13&#45;&gt;Node7 -->
<g id="edge17" class="edge">
<title>Node13&#45;&gt;Node7</title>
<path fill="none" stroke="midnightblue" d="M110.88,-112.44C156.25,-102.95 229.47,-87.62 278.16,-77.43"/>
<polygon fill="midnightblue" stroke="midnightblue" points="279.09,-80.81 288.16,-75.34 277.65,-73.96 279.09,-80.81"/>
</g>
<!-- Node14&#45;&gt;Node7 -->
<g id="edge19" class="edge">
<title>Node14&#45;&gt;Node7</title>
<path fill="none" stroke="midnightblue" d="M192.51,-112.44C219.6,-103.36 262.59,-88.94 292.87,-78.78"/>
<polygon fill="midnightblue" stroke="midnightblue" points="294.24,-82.01 302.61,-75.52 292.01,-75.38 294.24,-82.01"/>
</g>
<!-- Node15&#45;&gt;Node7 -->
<g id="edge21" class="edge">
<title>Node15&#45;&gt;Node7</title>
<path fill="none" stroke="midnightblue" d="M271.76,-112.32C281.77,-104.26 296.89,-92.08 308.93,-82.37"/>
<polygon fill="midnightblue" stroke="midnightblue" points="311.45,-84.83 317.04,-75.83 307.06,-79.38 311.45,-84.83"/>
</g>
<!-- Node17 -->
<g id="node17" class="node">
<title>Node17</title>
<g id="a_node17"><a xlink:title=" ">
<polygon fill="none" stroke="#bfbfbf" points="359.5,-224.5 359.5,-243.5 412.5,-243.5 412.5,-224.5 359.5,-224.5"/>
<text text-anchor="middle" x="386" y="-231.5" font-family="Helvetica,sans-Serif" font-size="10.00">stdint.h</text>
</a>
</g>
</g>
<!-- Node16&#45;&gt;Node17 -->
<g id="edge24" class="edge">
<title>Node16&#45;&gt;Node17</title>
<path fill="none" stroke="midnightblue" d="M327.25,-280.32C337.8,-272.18 353.8,-259.84 366.44,-250.09"/>
<polygon fill="midnightblue" stroke="midnightblue" points="368.77,-252.71 374.55,-243.83 364.49,-247.17 368.77,-252.71"/>
</g>
<!-- Node18 -->
<g id="node18" class="node">
<title>Node18</title>
<g id="a_node18"><a xlink:title=" ">
<polygon fill="none" stroke="#bfbfbf" points="290.5,-224.5 290.5,-243.5 341.5,-243.5 341.5,-224.5 290.5,-224.5"/>
<text text-anchor="middle" x="316" y="-231.5" font-family="Helvetica,sans-Serif" font-size="10.00">math.h</text>
</a>
</g>
</g>
<!-- Node16&#45;&gt;Node18 -->
<g id="edge25" class="edge">
<title>Node16&#45;&gt;Node18</title>
<path fill="none" stroke="midnightblue" d="M316,-280.08C316,-273.01 316,-262.86 316,-253.99"/>
<polygon fill="midnightblue" stroke="midnightblue" points="319.5,-253.75 316,-243.75 312.5,-253.75 319.5,-253.75"/>
</g>
<!-- Node19&#45;&gt;Node3 -->
<g id="edge29" class="edge">
<title>Node19&#45;&gt;Node3</title>
<path fill="none" stroke="midnightblue" d="M152.97,-392.08C155.38,-384.85 158.86,-374.41 161.87,-365.4"/>
<polygon fill="midnightblue" stroke="midnightblue" points="165.24,-366.34 165.08,-355.75 158.6,-364.13 165.24,-366.34"/>
</g>
<!-- Node20 -->
<g id="node20" class="node">
<title>Node20</title>
<g id="a_node20"><a xlink:href="mem_8hpp.html" target="_top" xlink:title=": Memory Sub&#45;System (MEM) for the cloudFPGA shell.">
<polygon fill="none" stroke="black" points="392.5,-336.5 392.5,-355.5 491.5,-355.5 491.5,-336.5 392.5,-336.5"/>
<text text-anchor="middle" x="442" y="-343.5" font-family="Helvetica,sans-Serif" font-size="10.00">../MEM/mem.hpp</text>
</a>
</g>
</g>
<!-- Node19&#45;&gt;Node20 -->
<g id="edge27" class="edge">
<title>Node19&#45;&gt;Node20</title>
<path fill="none" stroke="midnightblue" d="M196.27,-392.44C247.74,-382.92 330.89,-367.55 386,-357.36"/>
<polygon fill="midnightblue" stroke="midnightblue" points="386.75,-360.78 395.95,-355.52 385.48,-353.89 386.75,-360.78"/>
</g>
<!-- Node20&#45;&gt;Node10 -->
<g id="edge28" class="edge">
<title>Node20&#45;&gt;Node10</title>
<path fill="none" stroke="midnightblue" d="M442,-336.44C442,-317.94 442,-272.81 442,-235 442,-235 442,-235 442,-121 442,-88.38 432.98,-51.28 426.77,-29.57"/>
<polygon fill="midnightblue" stroke="midnightblue" points="430.04,-28.32 423.83,-19.73 423.33,-30.32 430.04,-28.32"/>
</g>
<!-- Node21&#45;&gt;Node3 -->
<g id="edge36" class="edge">
<title>Node21&#45;&gt;Node3</title>
<path fill="none" stroke="midnightblue" d="M318.79,-448.42C304.17,-439.51 280.8,-425.09 261,-412 235.58,-395.19 206.93,-374.96 188.23,-361.59"/>
<polygon fill="midnightblue" stroke="midnightblue" points="190.07,-358.6 179.9,-355.61 185.99,-364.29 190.07,-358.6"/>
</g>
<!-- Node21&#45;&gt;Node9 -->
<g id="edge33" class="edge">
<title>Node21&#45;&gt;Node9</title>
<path fill="none" stroke="midnightblue" d="M402.98,-448.49C462.36,-436.9 538,-409.81 538,-347 538,-347 538,-347 538,-121 538,-88.44 529.41,-51.32 523.49,-29.59"/>
<polygon fill="midnightblue" stroke="midnightblue" points="526.79,-28.41 520.7,-19.74 520.06,-30.32 526.79,-28.41"/>
</g>
<!-- Node21&#45;&gt;Node19 -->
<g id="edge37" class="edge">
<title>Node21&#45;&gt;Node19</title>
<path fill="none" stroke="midnightblue" d="M304,-448.44C272.82,-439.24 223.07,-424.56 188.59,-414.39"/>
<polygon fill="midnightblue" stroke="midnightblue" points="189.44,-410.99 178.86,-411.52 187.46,-417.7 189.44,-410.99"/>
</g>
<!-- Node21&#45;&gt;Node20 -->
<g id="edge35" class="edge">
<title>Node21&#45;&gt;Node20</title>
<path fill="none" stroke="midnightblue" d="M405.73,-452.87C433.88,-447.27 463.49,-435.63 481,-412 492.97,-395.85 476.78,-375.84 461.77,-362.32"/>
<polygon fill="midnightblue" stroke="midnightblue" points="463.63,-359.31 453.73,-355.54 459.12,-364.66 463.63,-359.31"/>
</g>
<!-- Node21&#45;&gt;Node21 -->
<g id="edge38" class="edge">
<title>Node21&#45;&gt;Node21</title>
<path fill="none" stroke="midnightblue" d="M371.6,-467.53C397.83,-470.31 423.5,-467.13 423.5,-458 423.5,-450.04 404.02,-446.61 381.66,-447.7"/>
<polygon fill="midnightblue" stroke="midnightblue" points="381.3,-444.21 371.6,-448.47 381.84,-451.19 381.3,-444.21"/>
</g>
<!-- Node22 -->
<g id="node22" class="node">
<title>Node22</title>
<g id="a_node22"><a xlink:title=" ">
<polygon fill="none" stroke="#bfbfbf" points="270.5,-392.5 270.5,-411.5 323.5,-411.5 323.5,-392.5 270.5,-392.5"/>
<text text-anchor="middle" x="297" y="-399.5" font-family="Helvetica,sans-Serif" font-size="10.00">stdlib.h</text>
</a>
</g>
</g>
<!-- Node21&#45;&gt;Node22 -->
<g id="edge31" class="edge">
<title>Node21&#45;&gt;Node22</title>
<path fill="none" stroke="midnightblue" d="M327.06,-448.08C322.02,-440.53 314.66,-429.49 308.49,-420.23"/>
<polygon fill="midnightblue" stroke="midnightblue" points="311.29,-418.13 302.83,-411.75 305.47,-422.01 311.29,-418.13"/>
</g>
<!-- Node23 -->
<g id="node23" class="node">
<title>Node23</title>
<g id="a_node23"><a xlink:title=" ">
<polygon fill="none" stroke="#bfbfbf" points="342,-392.5 342,-411.5 398,-411.5 398,-392.5 342,-392.5"/>
<text text-anchor="middle" x="370" y="-399.5" font-family="Helvetica,sans-Serif" font-size="10.00">unistd.h</text>
</a>
</g>
</g>
<!-- Node21&#45;&gt;Node23 -->
<g id="edge32" class="edge">
<title>Node21&#45;&gt;Node23</title>
<path fill="none" stroke="midnightblue" d="M339.11,-448.08C344.28,-440.53 351.85,-429.49 358.19,-420.23"/>
<polygon fill="midnightblue" stroke="midnightblue" points="361.24,-421.98 364,-411.75 355.46,-418.02 361.24,-421.98"/>
</g>
<!-- Node24 -->
<g id="node24" class="node">
<title>Node24</title>
<g id="a_node24"><a xlink:title=" ">
<polygon fill="none" stroke="#bfbfbf" points="416.5,-392.5 416.5,-411.5 471.5,-411.5 471.5,-392.5 416.5,-392.5"/>
<text text-anchor="middle" x="444" y="-399.5" font-family="Helvetica,sans-Serif" font-size="10.00">fstream</text>
</a>
</g>
</g>
<!-- Node21&#45;&gt;Node24 -->
<g id="edge34" class="edge">
<title>Node21&#45;&gt;Node24</title>
<path fill="none" stroke="midnightblue" d="M350.83,-448.32C368.72,-439.62 396.48,-426.12 417.05,-416.11"/>
<polygon fill="midnightblue" stroke="midnightblue" points="418.75,-419.18 426.21,-411.65 415.69,-412.88 418.75,-419.18"/>
</g>
</g>
</svg>
        <g id="navigator" transform="translate(0 0)" fill="#404254">
                <rect fill="#f2f5e9" fill-opacity="0.5" stroke="#606060" stroke-width=".5" x="0" y="0" width="60" height="60"/>
                <use id="zoomplus" xlink:href="#zoomPlus" x="17" y="9" onmousedown="handleZoom(evt,'in')"/>
                <use id="zoomminus" xlink:href="#zoomMin" x="42" y="9" onmousedown="handleZoom(evt,'out')"/>
                <use id="reset" xlink:href="#resetDef" x="30" y="36" onmousedown="handleReset()"/>
                <g id="arrowUp" xlink:href="#dirArrow" transform="translate(30 24)" onmousedown="handlePan(0,-1)">
                  <use xlink:href="#rim" fill="#404040">
                        <set attributeName="fill" to="#808080" begin="arrowUp.mouseover" end="arrowUp.mouseout"/>
                  </use>
                  <path fill="none" stroke="white" stroke-width="1.5" d="M0,-3.0v7 M-2.5,-0.5L0,-3.0L2.5,-0.5"/>
                </g>
                <g id="arrowRight" xlink:href="#dirArrow" transform="rotate(90) translate(36 -43)" onmousedown="handlePan(1,0)">
                  <use xlink:href="#rim" fill="#404040">
                        <set attributeName="fill" to="#808080" begin="arrowRight.mouseover" end="arrowRight.mouseout"/>
                  </use>
                  <path fill="none" stroke="white" stroke-width="1.5" d="M0,-3.0v7 M-2.5,-0.5L0,-3.0L2.5,-0.5"/>
                </g>
                <g id="arrowDown" xlink:href="#dirArrow" transform="rotate(180) translate(-30 -48)" onmousedown="handlePan(0,1)">
                  <use xlink:href="#rim" fill="#404040">
                        <set attributeName="fill" to="#808080" begin="arrowDown.mouseover" end="arrowDown.mouseout"/>
                  </use>
                  <path fill="none" stroke="white" stroke-width="1.5" d="M0,-3.0v7 M-2.5,-0.5L0,-3.0L2.5,-0.5"/>
                </g>
                <g id="arrowLeft" xlink:href="#dirArrow" transform="rotate(270) translate(-36 17)" onmousedown="handlePan(-1,0)">
                  <use xlink:href="#rim" fill="#404040">
                        <set attributeName="fill" to="#808080" begin="arrowLeft.mouseover" end="arrowLeft.mouseout"/>
                  </use>
                  <path fill="none" stroke="white" stroke-width="1.5" d="M0,-3.0v7 M-2.5,-0.5L0,-3.0L2.5,-0.5"/>
                </g>
        </g>
        <svg viewBox="0 0 15 15" width="100%" height="30px" preserveAspectRatio="xMaxYMin meet">
         <g id="arrow_out" transform="scale(0.3 0.3)">
          <a xlink:href="rlb_8cpp__incl_org.svg" target="_base">
           <rect id="button" ry="5" rx="5" y="6" x="6" height="38" width="38"
                fill="#f2f5e9" fill-opacity="0.5" stroke="#606060" stroke-width="1.0"/>
           <path id="arrow"
             d="M 11.500037,31.436501 C 11.940474,20.09759 22.043105,11.32322 32.158766,21.979434 L 37.068811,17.246167 C 37.068811,17.246167 37.088388,32 37.088388,32 L 22.160133,31.978069 C 22.160133,31.978069 26.997745,27.140456 26.997745,27.140456 C 18.528582,18.264221 13.291696,25.230495 11.500037,31.436501 z"
             style="fill:#404040;"/>
          </a>
         </g>
        </svg>
</svg>
