<?xml version="1.0" encoding="UTF-8" standalone="no"?>
<!DOCTYPE svg PUBLIC "-//W3C//DTD SVG 1.1//EN"
 "http://www.w3.org/Graphics/SVG/1.1/DTD/svg11.dtd">
<!-- Generated by graphviz version 2.43.0 (0)
 -->
<!-- Title: repos_for_Dox/cFDK/SRA/LIB/SHELL/LIB/hls/NTS/toe/src/rx_engine/src/rx_engine.cpp Pages: 1 -->
<!--zoomable 732 -->
<svg id="main" version="1.1" xmlns="http://www.w3.org/2000/svg" xmlns:xlink="http://www.w3.org/1999/xlink" xml:space="preserve" onload="init(evt)">
<style type="text/css"><![CDATA[
.edge:hover path { stroke: red; }
.edge:hover polygon { stroke: red; fill: red; }
]]></style>
<script type="text/javascript"><![CDATA[
var edges = document.getElementsByTagName('g');
if (edges && edges.length) {
  for (var i=0;i<edges.length;i++) {
    if (edges[i].id.substr(0,4)=='edge') {
      edges[i].setAttribute('class','edge');
    }
  }
}
]]></script>
        <defs>
                <circle id="rim" cx="0" cy="0" r="7"/>
                <circle id="rim2" cx="0" cy="0" r="3.5"/>
                <g id="zoomPlus">
                        <use xlink:href="#rim" fill="#404040">
                                <set attributeName="fill" to="#808080" begin="zoomplus.mouseover" end="zoomplus.mouseout"/>
                        </use>
                        <path d="M-4,0h8M0,-4v8" fill="none" stroke="white" stroke-width="1.5" pointer-events="none"/>
                </g>
                <g id="zoomMin">
                        <use xlink:href="#rim" fill="#404040">
                                <set attributeName="fill" to="#808080" begin="zoomminus.mouseover" end="zoomminus.mouseout"/>
                        </use>
                        <path d="M-4,0h8" fill="none" stroke="white" stroke-width="1.5" pointer-events="none"/>
                </g>
                <g id="dirArrow">
                        <path fill="none" stroke="white" stroke-width="1.5" d="M0,-3.0v7 M-2.5,-0.5L0,-3.0L2.5,-0.5"/>
                </g>
               <g id="resetDef">
                       <use xlink:href="#rim2" fill="#404040">
                               <set attributeName="fill" to="#808080" begin="reset.mouseover" end="reset.mouseout"/>
                       </use>
               </g>
        </defs>

<script type="text/javascript">
var viewWidth = 964;
var viewHeight = 732;
var sectionId = 'dynsection-0';
</script>
<script xlink:href="svgpan.js"/>
<svg id="graph" class="graph">
<g id="viewport">
<title>repos_for_Dox/cFDK/SRA/LIB/SHELL/LIB/hls/NTS/toe/src/rx_engine/src/rx_engine.cpp</title>
<!-- Node1 -->
<g id="node1" class="node">
<title>Node1</title>
<g id="a_node1"><a xlink:title=" ">
<polygon fill="#bfbfbf" stroke="black" points="307.25,-671.5 307.25,-723.5 433.25,-723.5 433.25,-671.5 307.25,-671.5"/>
<text text-anchor="start" x="315.25" y="-711.5" font-family="Helvetica,sans-Serif" font-size="10.00">repos_for_Dox/cFDK</text>
<text text-anchor="start" x="315.25" y="-700.5" font-family="Helvetica,sans-Serif" font-size="10.00">/SRA/LIB/SHELL/LIB/hls</text>
<text text-anchor="start" x="315.25" y="-689.5" font-family="Helvetica,sans-Serif" font-size="10.00">/NTS/toe/src/rx_engine</text>
<text text-anchor="middle" x="370.25" y="-678.5" font-family="Helvetica,sans-Serif" font-size="10.00">/src/rx_engine.cpp</text>
</a>
</g>
</g>
<!-- Node2 -->
<g id="node2" class="node">
<title>Node2</title>
<g id="a_node2"><a xlink:href="rx__engine_8hpp.html" target="_top" xlink:title=": Rx Engine (RXe) of the TCP Offload Engine (TOE)">
<polygon fill="none" stroke="black" points="327.25,-615.5 327.25,-634.5 413.25,-634.5 413.25,-615.5 327.25,-615.5"/>
<text text-anchor="middle" x="370.25" y="-622.5" font-family="Helvetica,sans-Serif" font-size="10.00">rx_engine.hpp</text>
</a>
</g>
</g>
<!-- Node1&#45;&gt;Node2 -->
<g id="edge1" class="edge">
<title>Node1&#45;&gt;Node2</title>
<path fill="none" stroke="midnightblue" d="M370.25,-671.45C370.25,-662.73 370.25,-653.1 370.25,-644.96"/>
<polygon fill="midnightblue" stroke="midnightblue" points="373.75,-644.7 370.25,-634.7 366.75,-644.7 373.75,-644.7"/>
</g>
<!-- Node3 -->
<g id="node3" class="node">
<title>Node3</title>
<g id="a_node3"><a xlink:href="nts_8hpp.html" target="_top" xlink:title=": Definition of the Network Transport Stack (NTS) component as if it was an HLS IP core.">
<polygon fill="none" stroke="black" points="367.75,-347.5 367.75,-377.5 448.75,-377.5 448.75,-347.5 367.75,-347.5"/>
<text text-anchor="start" x="375.75" y="-365.5" font-family="Helvetica,sans-Serif" font-size="10.00">../../../../../NTS</text>
<text text-anchor="middle" x="408.25" y="-354.5" font-family="Helvetica,sans-Serif" font-size="10.00">/nts.hpp</text>
</a>
</g>
</g>
<!-- Node2&#45;&gt;Node3 -->
<g id="edge2" class="edge">
<title>Node2&#45;&gt;Node3</title>
<path fill="none" stroke="midnightblue" d="M371.52,-615.33C376.72,-579.66 396.59,-443.45 404.74,-387.6"/>
<polygon fill="midnightblue" stroke="midnightblue" points="408.22,-387.96 406.2,-377.56 401.3,-386.95 408.22,-387.96"/>
</g>
<!-- Node12 -->
<g id="node12" class="node">
<title>Node12</title>
<g id="a_node12"><a xlink:href="AxisIp4_8hpp.html" target="_top" xlink:title=": A class to access an IPv4 data chunk transmitted over an AXI4&#45;Stream interface.">
<polygon fill="none" stroke="black" points="294.25,-174 294.25,-193 368.25,-193 368.25,-174 294.25,-174"/>
<text text-anchor="middle" x="331.25" y="-181" font-family="Helvetica,sans-Serif" font-size="10.00">AxisIp4.hpp</text>
</a>
</g>
</g>
<!-- Node2&#45;&gt;Node12 -->
<g id="edge46" class="edge">
<title>Node2&#45;&gt;Node12</title>
<path fill="none" stroke="midnightblue" d="M365.75,-615.37C355.68,-595.29 332.25,-543.59 332.25,-497.5 332.25,-497.5 332.25,-497.5 332.25,-300 332.25,-265.86 331.81,-226.05 331.52,-203.21"/>
<polygon fill="midnightblue" stroke="midnightblue" points="335.01,-203.15 331.38,-193.19 328.02,-203.24 335.01,-203.15"/>
</g>
<!-- Node14 -->
<g id="node14" class="node">
<title>Node14</title>
<g id="a_node14"><a xlink:href="AxisTcp_8hpp.html" target="_top" xlink:title=": A class to access TCP header fields within data chunks transmitted over an AXI4&#45;Stream interface.">
<polygon fill="none" stroke="black" points="97.25,-112.5 97.25,-131.5 171.25,-131.5 171.25,-112.5 97.25,-112.5"/>
<text text-anchor="middle" x="134.25" y="-119.5" font-family="Helvetica,sans-Serif" font-size="10.00">AxisTcp.hpp</text>
</a>
</g>
</g>
<!-- Node2&#45;&gt;Node14 -->
<g id="edge47" class="edge">
<title>Node2&#45;&gt;Node14</title>
<path fill="none" stroke="midnightblue" d="M327.19,-620.89C257.15,-613.24 126.25,-586.97 126.25,-497.5 126.25,-497.5 126.25,-497.5 126.25,-300 126.25,-242.47 130.52,-174.52 132.82,-142.09"/>
<polygon fill="midnightblue" stroke="midnightblue" points="136.34,-142.06 133.57,-131.83 129.35,-141.55 136.34,-142.06"/>
</g>
<!-- Node19 -->
<g id="node19" class="node">
<title>Node19</title>
<g id="a_node19"><a xlink:href="nts__utils_8hpp.html" target="_top" xlink:title=": Utilities and helpers for the Network&#45;Transport&#45;Stack (NTS) components.">
<polygon fill="none" stroke="black" points="732.25,-414.5 732.25,-444.5 814.25,-444.5 814.25,-414.5 732.25,-414.5"/>
<text text-anchor="start" x="740.25" y="-432.5" font-family="Helvetica,sans-Serif" font-size="10.00">../../../../../NTS</text>
<text text-anchor="middle" x="773.25" y="-421.5" font-family="Helvetica,sans-Serif" font-size="10.00">/nts_utils.hpp</text>
</a>
</g>
</g>
<!-- Node2&#45;&gt;Node19 -->
<g id="edge26" class="edge">
<title>Node2&#45;&gt;Node19</title>
<path fill="none" stroke="midnightblue" d="M391.92,-615.39C414.68,-606.34 451.49,-591.7 483.25,-579 557.51,-549.32 579.44,-549.17 650.25,-512 684.8,-493.87 721.77,-468.47 746.06,-450.86"/>
<polygon fill="midnightblue" stroke="midnightblue" points="748.4,-453.48 754.41,-444.76 744.27,-447.83 748.4,-453.48"/>
</g>
<!-- Node21 -->
<g id="node21" class="node">
<title>Node21</title>
<g id="a_node21"><a xlink:href="SimNtsUtils_8hpp.html" target="_top" xlink:title=": Utilities for the simulation of the Network&#45;Transport&#45;Stack (NTS) components.">
<polygon fill="none" stroke="black" points="525.25,-481.5 525.25,-511.5 623.25,-511.5 623.25,-481.5 525.25,-481.5"/>
<text text-anchor="start" x="533.25" y="-499.5" font-family="Helvetica,sans-Serif" font-size="10.00">../../../../../NTS</text>
<text text-anchor="middle" x="574.25" y="-488.5" font-family="Helvetica,sans-Serif" font-size="10.00">/SimNtsUtils.hpp</text>
</a>
</g>
</g>
<!-- Node2&#45;&gt;Node21 -->
<g id="edge30" class="edge">
<title>Node2&#45;&gt;Node21</title>
<path fill="none" stroke="midnightblue" d="M384.28,-615.31C416.77,-595.16 497.86,-544.87 542.88,-516.95"/>
<polygon fill="midnightblue" stroke="midnightblue" points="544.73,-519.93 551.38,-511.68 541.04,-513.98 544.73,-519.93"/>
</g>
<!-- Node25 -->
<g id="node25" class="node">
<title>Node25</title>
<g id="a_node25"><a xlink:href="toe_8hpp.html" target="_top" xlink:title=": TCP Offload Engine (TOE)">
<polygon fill="none" stroke="black" points="796.25,-548.5 796.25,-578.5 888.25,-578.5 888.25,-548.5 796.25,-548.5"/>
<text text-anchor="start" x="804.25" y="-566.5" font-family="Helvetica,sans-Serif" font-size="10.00">../../../../../NTS</text>
<text text-anchor="middle" x="842.25" y="-555.5" font-family="Helvetica,sans-Serif" font-size="10.00">/toe/src/toe.hpp</text>
</a>
</g>
</g>
<!-- Node2&#45;&gt;Node25 -->
<g id="edge39" class="edge">
<title>Node2&#45;&gt;Node25</title>
<path fill="none" stroke="midnightblue" d="M413.39,-618.56C499.03,-607.77 690.43,-583.64 785.88,-571.61"/>
<polygon fill="midnightblue" stroke="midnightblue" points="786.44,-575.06 795.93,-570.34 785.57,-568.12 786.44,-575.06"/>
</g>
<!-- Node26 -->
<g id="node26" class="node">
<title>Node26</title>
<g id="a_node26"><a xlink:href="AxisPsd4_8hpp.html" target="_top" xlink:title=": A class to access the fields of a TCP/IPv4 or UDP/IPv4 pseudo packet when transmitted over an AXI4&#45;...">
<polygon fill="none" stroke="black" points="20.75,-168.5 20.75,-198.5 105.75,-198.5 105.75,-168.5 20.75,-168.5"/>
<text text-anchor="start" x="28.75" y="-186.5" font-family="Helvetica,sans-Serif" font-size="10.00">../../../../../NTS</text>
<text text-anchor="middle" x="63.25" y="-175.5" font-family="Helvetica,sans-Serif" font-size="10.00">/AxisPsd4.hpp</text>
</a>
</g>
</g>
<!-- Node2&#45;&gt;Node26 -->
<g id="edge48" class="edge">
<title>Node2&#45;&gt;Node26</title>
<path fill="none" stroke="midnightblue" d="M327.01,-621.34C262.46,-616.58 144.98,-604.6 112.25,-579 81.06,-554.6 76.25,-537.1 76.25,-497.5 76.25,-497.5 76.25,-497.5 76.25,-300 76.25,-268.3 71.36,-232 67.57,-208.69"/>
<polygon fill="midnightblue" stroke="midnightblue" points="71,-207.95 65.88,-198.67 64.09,-209.11 71,-207.95"/>
</g>
<!-- Node4 -->
<g id="node4" class="node">
<title>Node4</title>
<g id="a_node4"><a xlink:href="nts__types_8hpp.html" target="_top" xlink:title=": Definition of the types used by the Network Transport Stack (NTS) component of the cloudFPGA shell.">
<polygon fill="none" stroke="black" points="202.75,-291.5 202.75,-310.5 287.75,-310.5 287.75,-291.5 202.75,-291.5"/>
<text text-anchor="middle" x="245.25" y="-298.5" font-family="Helvetica,sans-Serif" font-size="10.00">nts_types.hpp</text>
</a>
</g>
</g>
<!-- Node3&#45;&gt;Node4 -->
<g id="edge3" class="edge">
<title>Node3&#45;&gt;Node4</title>
<path fill="none" stroke="midnightblue" d="M369.62,-347.4C341.91,-337.28 304.95,-323.79 278.54,-314.15"/>
<polygon fill="midnightblue" stroke="midnightblue" points="279.57,-310.8 268.97,-310.66 277.17,-317.37 279.57,-310.8"/>
</g>
<!-- Node16 -->
<g id="node16" class="node">
<title>Node16</title>
<g id="a_node16"><a xlink:href="nts__config_8hpp.html" target="_top" xlink:title=": Configuration parameters for the Network Transport Stack (NTS) component and sub&#45;components.">
<polygon fill="none" stroke="black" points="364.75,-291.5 364.75,-310.5 451.75,-310.5 451.75,-291.5 364.75,-291.5"/>
<text text-anchor="middle" x="408.25" y="-298.5" font-family="Helvetica,sans-Serif" font-size="10.00">nts_config.hpp</text>
</a>
</g>
</g>
<!-- Node3&#45;&gt;Node16 -->
<g id="edge23" class="edge">
<title>Node3&#45;&gt;Node16</title>
<path fill="none" stroke="midnightblue" d="M408.25,-347.4C408.25,-339.47 408.25,-329.46 408.25,-320.86"/>
<polygon fill="midnightblue" stroke="midnightblue" points="411.75,-320.66 408.25,-310.66 404.75,-320.66 411.75,-320.66"/>
</g>
<!-- Node5 -->
<g id="node5" class="node">
<title>Node5</title>
<g id="a_node5"><a xlink:title=" ">
<polygon fill="none" stroke="#bfbfbf" points="68.25,-0.5 68.25,-19.5 148.25,-19.5 148.25,-0.5 68.25,-0.5"/>
<text text-anchor="middle" x="108.25" y="-7.5" font-family="Helvetica,sans-Serif" font-size="10.00">hls_stream.h</text>
</a>
</g>
</g>
<!-- Node4&#45;&gt;Node5 -->
<g id="edge4" class="edge">
<title>Node4&#45;&gt;Node5</title>
<path fill="none" stroke="midnightblue" d="M202.58,-295.5C147.52,-287.14 53.8,-263.7 11.25,-199 -28.7,-138.23 51.19,-58.99 89.43,-26.21"/>
<polygon fill="midnightblue" stroke="midnightblue" points="91.91,-28.7 97.32,-19.6 87.41,-23.34 91.91,-28.7"/>
</g>
<!-- Node6 -->
<g id="node6" class="node">
<title>Node6</title>
<g id="a_node6"><a xlink:href="AxisEth_8hpp.html" target="_top" xlink:title=": A class to access an ETHernet data chunk transmitted over an AXI4&#45;Stream interface.">
<polygon fill="none" stroke="black" points="192.25,-235.5 192.25,-254.5 266.25,-254.5 266.25,-235.5 192.25,-235.5"/>
<text text-anchor="middle" x="229.25" y="-242.5" font-family="Helvetica,sans-Serif" font-size="10.00">AxisEth.hpp</text>
</a>
</g>
</g>
<!-- Node4&#45;&gt;Node6 -->
<g id="edge5" class="edge">
<title>Node4&#45;&gt;Node6</title>
<path fill="none" stroke="midnightblue" d="M242.61,-291.08C240.47,-283.85 237.37,-273.41 234.7,-264.4"/>
<polygon fill="midnightblue" stroke="midnightblue" points="238.04,-263.34 231.85,-254.75 231.33,-265.33 238.04,-263.34"/>
</g>
<!-- Node4&#45;&gt;Node12 -->
<g id="edge22" class="edge">
<title>Node4&#45;&gt;Node12</title>
<path fill="none" stroke="midnightblue" d="M251.72,-291.32C265.91,-272.26 300.02,-226.45 318.63,-201.46"/>
<polygon fill="midnightblue" stroke="midnightblue" points="321.55,-203.39 324.71,-193.28 315.94,-199.21 321.55,-203.39"/>
</g>
<!-- Node7 -->
<g id="node7" class="node">
<title>Node7</title>
<g id="a_node7"><a xlink:href="AxisRaw_8hpp.html" target="_top" xlink:title=": A generic class used by the Network&#45;Transport&#45;Stack (NTS) to to transfer a chunk of data over an AX...">
<polygon fill="none" stroke="black" points="232.75,-56.5 232.75,-75.5 311.75,-75.5 311.75,-56.5 232.75,-56.5"/>
<text text-anchor="middle" x="272.25" y="-63.5" font-family="Helvetica,sans-Serif" font-size="10.00">AxisRaw.hpp</text>
</a>
</g>
</g>
<!-- Node6&#45;&gt;Node7 -->
<g id="edge6" class="edge">
<title>Node6&#45;&gt;Node7</title>
<path fill="none" stroke="midnightblue" d="M233.56,-235.27C237.75,-226.37 243.96,-212.05 247.25,-199 256.79,-161.26 248.83,-150 257.25,-112 259.24,-103.06 262.33,-93.39 265.19,-85.31"/>
<polygon fill="midnightblue" stroke="midnightblue" points="268.52,-86.4 268.71,-75.81 261.95,-83.97 268.52,-86.4"/>
</g>
<!-- Node11 -->
<g id="node11" class="node">
<title>Node11</title>
<g id="a_node11"><a xlink:href="AxisArp_8hpp.html" target="_top" xlink:title=": A class to access an ARP data chunk transmitted over an AXI4&#45;Stream interface.">
<polygon fill="none" stroke="black" points="162.75,-174 162.75,-193 237.75,-193 237.75,-174 162.75,-174"/>
<text text-anchor="middle" x="200.25" y="-181" font-family="Helvetica,sans-Serif" font-size="10.00">AxisArp.hpp</text>
</a>
</g>
</g>
<!-- Node6&#45;&gt;Node11 -->
<g id="edge11" class="edge">
<title>Node6&#45;&gt;Node11</title>
<path fill="none" stroke="midnightblue" d="M220.2,-235.48C214.15,-226.9 207.13,-213.43 202.76,-202.48"/>
<polygon fill="midnightblue" stroke="midnightblue" points="206.07,-201.33 199.5,-193.01 199.45,-203.6 206.07,-201.33"/>
</g>
<!-- Node6&#45;&gt;Node12 -->
<g id="edge14" class="edge">
<title>Node6&#45;&gt;Node12</title>
<path fill="none" stroke="midnightblue" d="M243.87,-235.48C260.61,-225.71 288.26,-209.58 307.97,-198.08"/>
<polygon fill="midnightblue" stroke="midnightblue" points="309.79,-201.07 316.67,-193.01 306.27,-195.02 309.79,-201.07"/>
</g>
<!-- Node7&#45;&gt;Node5 -->
<g id="edge9" class="edge">
<title>Node7&#45;&gt;Node5</title>
<path fill="none" stroke="midnightblue" d="M246.27,-56.44C218.56,-47.32 174.5,-32.81 143.64,-22.65"/>
<polygon fill="midnightblue" stroke="midnightblue" points="144.71,-19.32 134.12,-19.52 142.52,-25.97 144.71,-19.32"/>
</g>
<!-- Node8 -->
<g id="node8" class="node">
<title>Node8</title>
<g id="a_node8"><a xlink:title=" ">
<polygon fill="none" stroke="#bfbfbf" points="246.25,-0.5 246.25,-19.5 298.25,-19.5 298.25,-0.5 246.25,-0.5"/>
<text text-anchor="middle" x="272.25" y="-7.5" font-family="Helvetica,sans-Serif" font-size="10.00">cassert</text>
</a>
</g>
</g>
<!-- Node7&#45;&gt;Node8 -->
<g id="edge7" class="edge">
<title>Node7&#45;&gt;Node8</title>
<path fill="none" stroke="midnightblue" d="M272.25,-56.08C272.25,-49.01 272.25,-38.86 272.25,-29.99"/>
<polygon fill="midnightblue" stroke="midnightblue" points="275.75,-29.75 272.25,-19.75 268.75,-29.75 275.75,-29.75"/>
</g>
<!-- Node9 -->
<g id="node9" class="node">
<title>Node9</title>
<g id="a_node9"><a xlink:title=" ">
<polygon fill="none" stroke="#bfbfbf" points="381.25,-0.5 381.25,-19.5 441.25,-19.5 441.25,-0.5 381.25,-0.5"/>
<text text-anchor="middle" x="411.25" y="-7.5" font-family="Helvetica,sans-Serif" font-size="10.00">iostream</text>
</a>
</g>
</g>
<!-- Node7&#45;&gt;Node9 -->
<g id="edge8" class="edge">
<title>Node7&#45;&gt;Node9</title>
<path fill="none" stroke="midnightblue" d="M294.28,-56.44C317.36,-47.48 353.82,-33.31 379.89,-23.18"/>
<polygon fill="midnightblue" stroke="midnightblue" points="381.28,-26.4 389.33,-19.52 378.74,-19.88 381.28,-26.4"/>
</g>
<!-- Node10 -->
<g id="node10" class="node">
<title>Node10</title>
<g id="a_node10"><a xlink:title=" ">
<polygon fill="none" stroke="#bfbfbf" points="745.25,-0.5 745.25,-19.5 801.25,-19.5 801.25,-0.5 745.25,-0.5"/>
<text text-anchor="middle" x="773.25" y="-7.5" font-family="Helvetica,sans-Serif" font-size="10.00">ap_int.h</text>
</a>
</g>
</g>
<!-- Node7&#45;&gt;Node10 -->
<g id="edge10" class="edge">
<title>Node7&#45;&gt;Node10</title>
<path fill="none" stroke="midnightblue" d="M311.98,-60.72C406.25,-50.56 642.45,-25.1 735.1,-15.11"/>
<polygon fill="midnightblue" stroke="midnightblue" points="735.59,-18.58 745.16,-14.03 734.84,-11.62 735.59,-18.58"/>
</g>
<!-- Node11&#45;&gt;Node6 -->
<g id="edge13" class="edge">
<title>Node11&#45;&gt;Node6</title>
<path fill="none" stroke="midnightblue" d="M209.3,-193.01C215.34,-201.57 222.37,-215.05 226.74,-226"/>
<polygon fill="midnightblue" stroke="midnightblue" points="223.44,-227.16 230,-235.48 230.05,-224.88 223.44,-227.16"/>
</g>
<!-- Node11&#45;&gt;Node7 -->
<g id="edge12" class="edge">
<title>Node11&#45;&gt;Node7</title>
<path fill="none" stroke="midnightblue" d="M201.65,-173.63C204.16,-159.63 210.44,-131.92 223.25,-112 230.7,-100.43 241.82,-89.88 251.59,-81.92"/>
<polygon fill="midnightblue" stroke="midnightblue" points="253.95,-84.51 259.7,-75.61 249.65,-78.99 253.95,-84.51"/>
</g>
<!-- Node12&#45;&gt;Node7 -->
<g id="edge15" class="edge">
<title>Node12&#45;&gt;Node7</title>
<path fill="none" stroke="midnightblue" d="M368.38,-175.98C413.58,-166.41 480.81,-145.92 454.25,-112 438.05,-91.3 369.85,-78.81 321.71,-72.41"/>
<polygon fill="midnightblue" stroke="midnightblue" points="322.13,-68.93 311.77,-71.13 321.24,-75.88 322.13,-68.93"/>
</g>
<!-- Node13 -->
<g id="node13" class="node">
<title>Node13</title>
<g id="a_node13"><a xlink:href="AxisIcmp_8hpp.html" target="_top" xlink:title=": A class to access ICMP header fields within data chunks transmitted over an AXI4&#45;Stream interface.">
<polygon fill="none" stroke="black" points="265.75,-112.5 265.75,-131.5 348.75,-131.5 348.75,-112.5 265.75,-112.5"/>
<text text-anchor="middle" x="307.25" y="-119.5" font-family="Helvetica,sans-Serif" font-size="10.00">AxisIcmp.hpp</text>
</a>
</g>
</g>
<!-- Node12&#45;&gt;Node13 -->
<g id="edge16" class="edge">
<title>Node12&#45;&gt;Node13</title>
<path fill="none" stroke="midnightblue" d="M327.81,-173.98C324.36,-165.4 318.92,-151.93 314.51,-140.98"/>
<polygon fill="midnightblue" stroke="midnightblue" points="317.67,-139.47 310.69,-131.51 311.18,-142.09 317.67,-139.47"/>
</g>
<!-- Node12&#45;&gt;Node14 -->
<g id="edge18" class="edge">
<title>Node12&#45;&gt;Node14</title>
<path fill="none" stroke="midnightblue" d="M303.03,-173.98C268.65,-163.59 210.44,-146.01 172.18,-134.45"/>
<polygon fill="midnightblue" stroke="midnightblue" points="173.01,-131.05 162.43,-131.51 170.99,-137.75 173.01,-131.05"/>
</g>
<!-- Node15 -->
<g id="node15" class="node">
<title>Node15</title>
<g id="a_node15"><a xlink:href="AxisUdp_8hpp.html" target="_top" xlink:title=": A class to access UDP header fields within data chunks transmitted over an AXI4&#45;Stream interface.">
<polygon fill="none" stroke="black" points="367.25,-112.5 367.25,-131.5 445.25,-131.5 445.25,-112.5 367.25,-112.5"/>
<text text-anchor="middle" x="406.25" y="-119.5" font-family="Helvetica,sans-Serif" font-size="10.00">AxisUdp.hpp</text>
</a>
</g>
</g>
<!-- Node12&#45;&gt;Node15 -->
<g id="edge20" class="edge">
<title>Node12&#45;&gt;Node15</title>
<path fill="none" stroke="midnightblue" d="M342,-173.98C353.81,-164.61 373,-149.38 387.34,-138.01"/>
<polygon fill="midnightblue" stroke="midnightblue" points="389.87,-140.47 395.53,-131.51 385.52,-134.98 389.87,-140.47"/>
</g>
<!-- Node13&#45;&gt;Node7 -->
<g id="edge17" class="edge">
<title>Node13&#45;&gt;Node7</title>
<path fill="none" stroke="midnightblue" d="M301.47,-112.08C296.58,-104.53 289.43,-93.49 283.42,-84.23"/>
<polygon fill="midnightblue" stroke="midnightblue" points="286.3,-82.24 277.93,-75.75 280.43,-86.05 286.3,-82.24"/>
</g>
<!-- Node14&#45;&gt;Node7 -->
<g id="edge19" class="edge">
<title>Node14&#45;&gt;Node7</title>
<path fill="none" stroke="midnightblue" d="M156.12,-112.44C179.03,-103.48 215.23,-89.31 241.12,-79.18"/>
<polygon fill="midnightblue" stroke="midnightblue" points="242.45,-82.42 250.49,-75.52 239.9,-75.9 242.45,-82.42"/>
</g>
<!-- Node15&#45;&gt;Node7 -->
<g id="edge21" class="edge">
<title>Node15&#45;&gt;Node7</title>
<path fill="none" stroke="midnightblue" d="M385.02,-112.44C362.87,-103.52 327.93,-89.44 302.82,-79.32"/>
<polygon fill="midnightblue" stroke="midnightblue" points="303.97,-76.01 293.39,-75.52 301.35,-82.5 303.97,-76.01"/>
</g>
<!-- Node17 -->
<g id="node17" class="node">
<title>Node17</title>
<g id="a_node17"><a xlink:title=" ">
<polygon fill="none" stroke="#bfbfbf" points="429.75,-235.5 429.75,-254.5 482.75,-254.5 482.75,-235.5 429.75,-235.5"/>
<text text-anchor="middle" x="456.25" y="-242.5" font-family="Helvetica,sans-Serif" font-size="10.00">stdint.h</text>
</a>
</g>
</g>
<!-- Node16&#45;&gt;Node17 -->
<g id="edge24" class="edge">
<title>Node16&#45;&gt;Node17</title>
<path fill="none" stroke="midnightblue" d="M416.18,-291.08C423.1,-283.3 433.32,-271.8 441.71,-262.37"/>
<polygon fill="midnightblue" stroke="midnightblue" points="444.45,-264.55 448.47,-254.75 439.22,-259.9 444.45,-264.55"/>
</g>
<!-- Node18 -->
<g id="node18" class="node">
<title>Node18</title>
<g id="a_node18"><a xlink:title=" ">
<polygon fill="none" stroke="#bfbfbf" points="360.75,-235.5 360.75,-254.5 411.75,-254.5 411.75,-235.5 360.75,-235.5"/>
<text text-anchor="middle" x="386.25" y="-242.5" font-family="Helvetica,sans-Serif" font-size="10.00">math.h</text>
</a>
</g>
</g>
<!-- Node16&#45;&gt;Node18 -->
<g id="edge25" class="edge">
<title>Node16&#45;&gt;Node18</title>
<path fill="none" stroke="midnightblue" d="M404.62,-291.08C401.64,-283.77 397.33,-273.18 393.63,-264.1"/>
<polygon fill="midnightblue" stroke="midnightblue" points="396.83,-262.69 389.82,-254.75 390.35,-265.33 396.83,-262.69"/>
</g>
<!-- Node19&#45;&gt;Node3 -->
<g id="edge29" class="edge">
<title>Node19&#45;&gt;Node3</title>
<path fill="none" stroke="midnightblue" d="M732.09,-421.17C664.87,-409.2 531.74,-385.49 458.86,-372.51"/>
<polygon fill="midnightblue" stroke="midnightblue" points="459.44,-369.06 448.98,-370.75 458.22,-375.95 459.44,-369.06"/>
</g>
<!-- Node20 -->
<g id="node20" class="node">
<title>Node20</title>
<g id="a_node20"><a xlink:href="mem_8hpp.html" target="_top" xlink:title=": Memory Sub&#45;System (MEM) for the cloudFPGA shell.">
<polygon fill="none" stroke="black" points="723.75,-353 723.75,-372 822.75,-372 822.75,-353 723.75,-353"/>
<text text-anchor="middle" x="773.25" y="-360" font-family="Helvetica,sans-Serif" font-size="10.00">../MEM/mem.hpp</text>
</a>
</g>
</g>
<!-- Node19&#45;&gt;Node20 -->
<g id="edge27" class="edge">
<title>Node19&#45;&gt;Node20</title>
<path fill="none" stroke="midnightblue" d="M773.25,-414.4C773.25,-405.06 773.25,-392.71 773.25,-382.52"/>
<polygon fill="midnightblue" stroke="midnightblue" points="776.75,-382.19 773.25,-372.19 769.75,-382.19 776.75,-382.19"/>
</g>
<!-- Node20&#45;&gt;Node10 -->
<g id="edge28" class="edge">
<title>Node20&#45;&gt;Node10</title>
<path fill="none" stroke="midnightblue" d="M773.25,-352.81C773.25,-333.56 773.25,-285.9 773.25,-246 773.25,-246 773.25,-246 773.25,-121 773.25,-88.95 773.25,-51.64 773.25,-29.75"/>
<polygon fill="midnightblue" stroke="midnightblue" points="776.75,-29.56 773.25,-19.56 769.75,-29.56 776.75,-29.56"/>
</g>
<!-- Node21&#45;&gt;Node3 -->
<g id="edge36" class="edge">
<title>Node21&#45;&gt;Node3</title>
<path fill="none" stroke="midnightblue" d="M525,-489.45C494.41,-483.2 456.44,-470.56 432.25,-445 417.66,-429.58 411.89,-405.73 409.64,-387.81"/>
<polygon fill="midnightblue" stroke="midnightblue" points="413.11,-387.41 408.66,-377.8 406.15,-388.09 413.11,-387.41"/>
</g>
<!-- Node21&#45;&gt;Node9 -->
<g id="edge33" class="edge">
<title>Node21&#45;&gt;Node9</title>
<path fill="none" stroke="midnightblue" d="M525.09,-485.17C503.13,-477.84 479.31,-465.52 466.25,-445 458.86,-433.38 464.92,-427.71 466.25,-414 476.3,-310.54 511.25,-288.44 511.25,-184.5 511.25,-184.5 511.25,-184.5 511.25,-121 511.25,-76.98 466.87,-42.8 437.24,-24.87"/>
<polygon fill="midnightblue" stroke="midnightblue" points="438.62,-21.63 428.22,-19.64 435.11,-27.68 438.62,-21.63"/>
</g>
<!-- Node21&#45;&gt;Node19 -->
<g id="edge37" class="edge">
<title>Node21&#45;&gt;Node19</title>
<path fill="none" stroke="midnightblue" d="M617.43,-481.4C648.3,-471.31 689.96,-457.71 722.44,-447.1"/>
<polygon fill="midnightblue" stroke="midnightblue" points="723.78,-450.34 732.2,-443.91 721.61,-443.69 723.78,-450.34"/>
</g>
<!-- Node21&#45;&gt;Node20 -->
<g id="edge35" class="edge">
<title>Node21&#45;&gt;Node20</title>
<path fill="none" stroke="midnightblue" d="M613.09,-481.4C635.16,-472.54 662.78,-459.95 685.25,-445 700.55,-434.82 736.57,-399.95 757.48,-379.27"/>
<polygon fill="midnightblue" stroke="midnightblue" points="760.05,-381.65 764.67,-372.12 755.11,-376.68 760.05,-381.65"/>
</g>
<!-- Node21&#45;&gt;Node21 -->
<g id="edge38" class="edge">
<title>Node21&#45;&gt;Node21</title>
<path fill="none" stroke="midnightblue" d="M623.33,-508.48C633.74,-507.26 641.25,-503.27 641.25,-496.5 641.25,-492.16 638.17,-488.97 633.22,-486.91"/>
<polygon fill="midnightblue" stroke="midnightblue" points="633.88,-483.47 623.33,-484.52 632.23,-490.27 633.88,-483.47"/>
</g>
<!-- Node22 -->
<g id="node22" class="node">
<title>Node22</title>
<g id="a_node22"><a xlink:title=" ">
<polygon fill="none" stroke="#bfbfbf" points="474.75,-420 474.75,-439 527.75,-439 527.75,-420 474.75,-420"/>
<text text-anchor="middle" x="501.25" y="-427" font-family="Helvetica,sans-Serif" font-size="10.00">stdlib.h</text>
</a>
</g>
</g>
<!-- Node21&#45;&gt;Node22 -->
<g id="edge31" class="edge">
<title>Node21&#45;&gt;Node22</title>
<path fill="none" stroke="midnightblue" d="M558.41,-481.4C546.69,-470.96 530.74,-456.75 518.66,-446"/>
<polygon fill="midnightblue" stroke="midnightblue" points="520.81,-443.23 511.02,-439.19 516.16,-448.46 520.81,-443.23"/>
</g>
<!-- Node23 -->
<g id="node23" class="node">
<title>Node23</title>
<g id="a_node23"><a xlink:title=" ">
<polygon fill="none" stroke="#bfbfbf" points="546.25,-420 546.25,-439 602.25,-439 602.25,-420 546.25,-420"/>
<text text-anchor="middle" x="574.25" y="-427" font-family="Helvetica,sans-Serif" font-size="10.00">unistd.h</text>
</a>
</g>
</g>
<!-- Node21&#45;&gt;Node23 -->
<g id="edge32" class="edge">
<title>Node21&#45;&gt;Node23</title>
<path fill="none" stroke="midnightblue" d="M574.25,-481.4C574.25,-472.06 574.25,-459.71 574.25,-449.52"/>
<polygon fill="midnightblue" stroke="midnightblue" points="577.75,-449.19 574.25,-439.19 570.75,-449.19 577.75,-449.19"/>
</g>
<!-- Node24 -->
<g id="node24" class="node">
<title>Node24</title>
<g id="a_node24"><a xlink:title=" ">
<polygon fill="none" stroke="#bfbfbf" points="620.75,-420 620.75,-439 675.75,-439 675.75,-420 620.75,-420"/>
<text text-anchor="middle" x="648.25" y="-427" font-family="Helvetica,sans-Serif" font-size="10.00">fstream</text>
</a>
</g>
</g>
<!-- Node21&#45;&gt;Node24 -->
<g id="edge34" class="edge">
<title>Node21&#45;&gt;Node24</title>
<path fill="none" stroke="midnightblue" d="M590.31,-481.4C602.19,-470.96 618.37,-456.75 630.61,-446"/>
<polygon fill="midnightblue" stroke="midnightblue" points="633.15,-448.42 638.36,-439.19 628.53,-443.16 633.15,-448.42"/>
</g>
<!-- Node25&#45;&gt;Node3 -->
<g id="edge42" class="edge">
<title>Node25&#45;&gt;Node3</title>
<path fill="none" stroke="midnightblue" d="M845.48,-548.22C851.25,-518.58 859.57,-450.09 823.25,-414 797.81,-388.72 564.24,-372.37 459.11,-366.23"/>
<polygon fill="midnightblue" stroke="midnightblue" points="459.23,-362.73 449.05,-365.65 458.83,-369.72 459.23,-362.73"/>
</g>
<!-- Node25&#45;&gt;Node10 -->
<g id="edge41" class="edge">
<title>Node25&#45;&gt;Node10</title>
<path fill="none" stroke="midnightblue" d="M867.27,-548.39C900.83,-527.4 956.25,-484.55 956.25,-430.5 956.25,-430.5 956.25,-430.5 956.25,-121 956.25,-53.96 864.93,-26.75 811.31,-16.54"/>
<polygon fill="midnightblue" stroke="midnightblue" points="811.91,-13.09 801.45,-14.78 810.67,-19.98 811.91,-13.09"/>
</g>
<!-- Node25&#45;&gt;Node17 -->
<g id="edge40" class="edge">
<title>Node25&#45;&gt;Node17</title>
<path fill="none" stroke="midnightblue" d="M857.27,-548.23C879.42,-525.55 918.25,-478.89 918.25,-430.5 918.25,-430.5 918.25,-430.5 918.25,-361.5 918.25,-274.09 603.03,-252.28 493.34,-247.33"/>
<polygon fill="midnightblue" stroke="midnightblue" points="493.23,-243.83 483.09,-246.89 492.93,-250.82 493.23,-243.83"/>
</g>
<!-- Node25&#45;&gt;Node19 -->
<g id="edge43" class="edge">
<title>Node25&#45;&gt;Node19</title>
<path fill="none" stroke="midnightblue" d="M834.87,-548.37C822.99,-525.65 799.52,-480.75 785.23,-453.4"/>
<polygon fill="midnightblue" stroke="midnightblue" points="788.32,-451.77 780.58,-444.52 782.12,-455.01 788.32,-451.77"/>
</g>
<!-- Node25&#45;&gt;Node20 -->
<g id="edge45" class="edge">
<title>Node25&#45;&gt;Node20</title>
<path fill="none" stroke="midnightblue" d="M848.65,-548.29C860.14,-520.49 880.87,-457.79 856.25,-414 846.28,-396.26 827.27,-384.02 809.96,-376.04"/>
<polygon fill="midnightblue" stroke="midnightblue" points="811.15,-372.75 800.58,-372.04 808.41,-379.19 811.15,-372.75"/>
</g>
<!-- Node25&#45;&gt;Node21 -->
<g id="edge44" class="edge">
<title>Node25&#45;&gt;Node21</title>
<path fill="none" stroke="midnightblue" d="M796.18,-551.33C751.1,-540.39 682.24,-523.69 633.19,-511.79"/>
<polygon fill="midnightblue" stroke="midnightblue" points="633.89,-508.36 623.35,-509.41 632.24,-515.17 633.89,-508.36"/>
</g>
<!-- Node26&#45;&gt;Node7 -->
<g id="edge49" class="edge">
<title>Node26&#45;&gt;Node7</title>
<path fill="none" stroke="midnightblue" d="M64.35,-168.42C66.36,-152.42 72.07,-126.63 88.25,-112 124.8,-78.97 181.58,-69.18 222.4,-66.75"/>
<polygon fill="midnightblue" stroke="midnightblue" points="222.59,-70.25 232.41,-66.28 222.26,-63.26 222.59,-70.25"/>
</g>
<!-- Node26&#45;&gt;Node14 -->
<g id="edge50" class="edge">
<title>Node26&#45;&gt;Node14</title>
<path fill="none" stroke="midnightblue" d="M80.08,-168.4C90.93,-159.31 105.03,-147.49 116.13,-138.19"/>
<polygon fill="midnightblue" stroke="midnightblue" points="118.51,-140.76 123.92,-131.66 114.01,-135.4 118.51,-140.76"/>
</g>
</g>
</svg>
        <g id="navigator" transform="translate(0 0)" fill="#404254">
                <rect fill="#f2f5e9" fill-opacity="0.5" stroke="#606060" stroke-width=".5" x="0" y="0" width="60" height="60"/>
                <use id="zoomplus" xlink:href="#zoomPlus" x="17" y="9" onmousedown="handleZoom(evt,'in')"/>
                <use id="zoomminus" xlink:href="#zoomMin" x="42" y="9" onmousedown="handleZoom(evt,'out')"/>
                <use id="reset" xlink:href="#resetDef" x="30" y="36" onmousedown="handleReset()"/>
                <g id="arrowUp" xlink:href="#dirArrow" transform="translate(30 24)" onmousedown="handlePan(0,-1)">
                  <use xlink:href="#rim" fill="#404040">
                        <set attributeName="fill" to="#808080" begin="arrowUp.mouseover" end="arrowUp.mouseout"/>
                  </use>
                  <path fill="none" stroke="white" stroke-width="1.5" d="M0,-3.0v7 M-2.5,-0.5L0,-3.0L2.5,-0.5"/>
                </g>
                <g id="arrowRight" xlink:href="#dirArrow" transform="rotate(90) translate(36 -43)" onmousedown="handlePan(1,0)">
                  <use xlink:href="#rim" fill="#404040">
                        <set attributeName="fill" to="#808080" begin="arrowRight.mouseover" end="arrowRight.mouseout"/>
                  </use>
                  <path fill="none" stroke="white" stroke-width="1.5" d="M0,-3.0v7 M-2.5,-0.5L0,-3.0L2.5,-0.5"/>
                </g>
                <g id="arrowDown" xlink:href="#dirArrow" transform="rotate(180) translate(-30 -48)" onmousedown="handlePan(0,1)">
                  <use xlink:href="#rim" fill="#404040">
                        <set attributeName="fill" to="#808080" begin="arrowDown.mouseover" end="arrowDown.mouseout"/>
                  </use>
                  <path fill="none" stroke="white" stroke-width="1.5" d="M0,-3.0v7 M-2.5,-0.5L0,-3.0L2.5,-0.5"/>
                </g>
                <g id="arrowLeft" xlink:href="#dirArrow" transform="rotate(270) translate(-36 17)" onmousedown="handlePan(-1,0)">
                  <use xlink:href="#rim" fill="#404040">
                        <set attributeName="fill" to="#808080" begin="arrowLeft.mouseover" end="arrowLeft.mouseout"/>
                  </use>
                  <path fill="none" stroke="white" stroke-width="1.5" d="M0,-3.0v7 M-2.5,-0.5L0,-3.0L2.5,-0.5"/>
                </g>
        </g>
        <svg viewBox="0 0 15 15" width="100%" height="30px" preserveAspectRatio="xMaxYMin meet">
         <g id="arrow_out" transform="scale(0.3 0.3)">
          <a xlink:href="rx__engine_8cpp__incl_org.svg" target="_base">
           <rect id="button" ry="5" rx="5" y="6" x="6" height="38" width="38"
                fill="#f2f5e9" fill-opacity="0.5" stroke="#606060" stroke-width="1.0"/>
           <path id="arrow"
             d="M 11.500037,31.436501 C 11.940474,20.09759 22.043105,11.32322 32.158766,21.979434 L 37.068811,17.246167 C 37.068811,17.246167 37.088388,32 37.088388,32 L 22.160133,31.978069 C 22.160133,31.978069 26.997745,27.140456 26.997745,27.140456 C 18.528582,18.264221 13.291696,25.230495 11.500037,31.436501 z"
             style="fill:#404040;"/>
          </a>
         </g>
        </svg>
</svg>
