<?xml version="1.0" encoding="UTF-8" standalone="no"?>
<!DOCTYPE svg PUBLIC "-//W3C//DTD SVG 1.1//EN"
 "http://www.w3.org/Graphics/SVG/1.1/DTD/svg11.dtd">
<!-- Generated by graphviz version 2.43.0 (0)
 -->
<!-- Title: repos_for_Dox/cFDK/SRA/LIB/SHELL/LIB/hls/NTS/toe/src/rx_engine/src/rx_engine.hpp Pages: 1 -->
<svg width="430pt" height="239pt"
 viewBox="0.00 0.00 430.00 239.00" xmlns="http://www.w3.org/2000/svg" xmlns:xlink="http://www.w3.org/1999/xlink">
<g id="graph0" class="graph" transform="scale(1 1) rotate(0) translate(4 235)">
<title>repos_for_Dox/cFDK/SRA/LIB/SHELL/LIB/hls/NTS/toe/src/rx_engine/src/rx_engine.hpp</title>
<!-- Node1 -->
<g id="node1" class="node">
<title>Node1</title>
<g id="a_node1"><a xlink:title=": Rx Engine (RXe) of the TCP Offload Engine (TOE)">
<polygon fill="#bfbfbf" stroke="black" points="144,-178.5 144,-230.5 270,-230.5 270,-178.5 144,-178.5"/>
<text text-anchor="start" x="152" y="-218.5" font-family="Helvetica,sans-Serif" font-size="10.00">repos_for_Dox/cFDK</text>
<text text-anchor="start" x="152" y="-207.5" font-family="Helvetica,sans-Serif" font-size="10.00">/SRA/LIB/SHELL/LIB/hls</text>
<text text-anchor="start" x="152" y="-196.5" font-family="Helvetica,sans-Serif" font-size="10.00">/NTS/toe/src/rx_engine</text>
<text text-anchor="middle" x="207" y="-185.5" font-family="Helvetica,sans-Serif" font-size="10.00">/src/rx_engine.hpp</text>
</a>
</g>
</g>
<!-- Node2 -->
<g id="node2" class="node">
<title>Node2</title>
<g id="a_node2"><a xlink:href="rx__engine_8cpp.html" target="_top" xlink:title=" ">
<polygon fill="none" stroke="black" points="0,-89.5 0,-141.5 126,-141.5 126,-89.5 0,-89.5"/>
<text text-anchor="start" x="8" y="-129.5" font-family="Helvetica,sans-Serif" font-size="10.00">repos_for_Dox/cFDK</text>
<text text-anchor="start" x="8" y="-118.5" font-family="Helvetica,sans-Serif" font-size="10.00">/SRA/LIB/SHELL/LIB/hls</text>
<text text-anchor="start" x="8" y="-107.5" font-family="Helvetica,sans-Serif" font-size="10.00">/NTS/toe/src/rx_engine</text>
<text text-anchor="middle" x="63" y="-96.5" font-family="Helvetica,sans-Serif" font-size="10.00">/src/rx_engine.cpp</text>
</a>
</g>
</g>
<!-- Node1&#45;&gt;Node2 -->
<g id="edge1" class="edge">
<title>Node1&#45;&gt;Node2</title>
<path fill="none" stroke="midnightblue" d="M156.63,-173.07C139.61,-162.79 120.82,-151.43 104.56,-141.61"/>
<polygon fill="midnightblue" stroke="midnightblue" points="154.98,-176.16 165.35,-178.34 158.6,-170.17 154.98,-176.16"/>
</g>
<!-- Node3 -->
<g id="node3" class="node">
<title>Node3</title>
<g id="a_node3"><a xlink:href="toe_8cpp.html" target="_top" xlink:title=": TCP Offload Engine (TOE)">
<polygon fill="none" stroke="black" points="144.5,-95 144.5,-136 269.5,-136 269.5,-95 144.5,-95"/>
<text text-anchor="start" x="152.5" y="-124" font-family="Helvetica,sans-Serif" font-size="10.00">repos_for_Dox/cFDK</text>
<text text-anchor="start" x="152.5" y="-113" font-family="Helvetica,sans-Serif" font-size="10.00">/SRA/LIB/SHELL/LIB/hls</text>
<text text-anchor="middle" x="207" y="-102" font-family="Helvetica,sans-Serif" font-size="10.00">/NTS/toe/src/toe.cpp</text>
</a>
</g>
</g>
<!-- Node1&#45;&gt;Node3 -->
<g id="edge2" class="edge">
<title>Node1&#45;&gt;Node3</title>
<path fill="none" stroke="midnightblue" d="M207,-168.16C207,-157.21 207,-145.55 207,-136.08"/>
<polygon fill="midnightblue" stroke="midnightblue" points="203.5,-168.34 207,-178.34 210.5,-168.34 203.5,-168.34"/>
</g>
<!-- Node4 -->
<g id="node4" class="node">
<title>Node4</title>
<g id="a_node4"><a xlink:href="test__tx__engine_8hpp.html" target="_top" xlink:title=" ">
<polygon fill="none" stroke="black" points="288,-89.5 288,-141.5 422,-141.5 422,-89.5 288,-89.5"/>
<text text-anchor="start" x="296" y="-129.5" font-family="Helvetica,sans-Serif" font-size="10.00">repos_for_Dox/cFDK</text>
<text text-anchor="start" x="296" y="-118.5" font-family="Helvetica,sans-Serif" font-size="10.00">/SRA/LIB/SHELL/LIB/hls</text>
<text text-anchor="start" x="296" y="-107.5" font-family="Helvetica,sans-Serif" font-size="10.00">/NTS/toe/src/tx_engine</text>
<text text-anchor="middle" x="355" y="-96.5" font-family="Helvetica,sans-Serif" font-size="10.00">/test/test_tx_engine.hpp</text>
</a>
</g>
</g>
<!-- Node1&#45;&gt;Node4 -->
<g id="edge3" class="edge">
<title>Node1&#45;&gt;Node4</title>
<path fill="none" stroke="midnightblue" d="M258.77,-173.07C276.26,-162.79 295.58,-151.43 312.29,-141.61"/>
<polygon fill="midnightblue" stroke="midnightblue" points="256.65,-170.25 249.81,-178.34 260.2,-176.29 256.65,-170.25"/>
</g>
<!-- Node5 -->
<g id="node5" class="node">
<title>Node5</title>
<g id="a_node5"><a xlink:href="test__tx__engine_8cpp.html" target="_top" xlink:title=": Testbench for TX Engine (TXe) of the TCP Offload Engine (TOE).">
<polygon fill="none" stroke="black" points="288,-0.5 288,-52.5 422,-52.5 422,-0.5 288,-0.5"/>
<text text-anchor="start" x="296" y="-40.5" font-family="Helvetica,sans-Serif" font-size="10.00">repos_for_Dox/cFDK</text>
<text text-anchor="start" x="296" y="-29.5" font-family="Helvetica,sans-Serif" font-size="10.00">/SRA/LIB/SHELL/LIB/hls</text>
<text text-anchor="start" x="296" y="-18.5" font-family="Helvetica,sans-Serif" font-size="10.00">/NTS/toe/src/tx_engine</text>
<text text-anchor="middle" x="355" y="-7.5" font-family="Helvetica,sans-Serif" font-size="10.00">/test/test_tx_engine.cpp</text>
</a>
</g>
</g>
<!-- Node4&#45;&gt;Node5 -->
<g id="edge4" class="edge">
<title>Node4&#45;&gt;Node5</title>
<path fill="none" stroke="midnightblue" d="M355,-79.19C355,-70.28 355,-60.9 355,-52.61"/>
<polygon fill="midnightblue" stroke="midnightblue" points="351.5,-79.34 355,-89.34 358.5,-79.34 351.5,-79.34"/>
</g>
</g>
</svg>
