<?xml version="1.0" encoding="UTF-8" standalone="no"?>
<!DOCTYPE svg PUBLIC "-//W3C//DTD SVG 1.1//EN"
 "http://www.w3.org/Graphics/SVG/1.1/DTD/svg11.dtd">
<!-- Generated by graphviz version 2.43.0 (0)
 -->
<!-- Title: repos_for_Dox/cFDK/SRA/LIB/SHELL/LIB/hls/NTS/toe/src/session_lookup_controller/session_lookup_controller.hpp Pages: 1 -->
<!--zoomable 261 -->
<svg id="main" version="1.1" xmlns="http://www.w3.org/2000/svg" xmlns:xlink="http://www.w3.org/1999/xlink" xml:space="preserve" onload="init(evt)">
<style type="text/css"><![CDATA[
.edge:hover path { stroke: red; }
.edge:hover polygon { stroke: red; fill: red; }
]]></style>
<script type="text/javascript"><![CDATA[
var edges = document.getElementsByTagName('g');
if (edges && edges.length) {
  for (var i=0;i<edges.length;i++) {
    if (edges[i].id.substr(0,4)=='edge') {
      edges[i].setAttribute('class','edge');
    }
  }
}
]]></script>
        <defs>
                <circle id="rim" cx="0" cy="0" r="7"/>
                <circle id="rim2" cx="0" cy="0" r="3.5"/>
                <g id="zoomPlus">
                        <use xlink:href="#rim" fill="#404040">
                                <set attributeName="fill" to="#808080" begin="zoomplus.mouseover" end="zoomplus.mouseout"/>
                        </use>
                        <path d="M-4,0h8M0,-4v8" fill="none" stroke="white" stroke-width="1.5" pointer-events="none"/>
                </g>
                <g id="zoomMin">
                        <use xlink:href="#rim" fill="#404040">
                                <set attributeName="fill" to="#808080" begin="zoomminus.mouseover" end="zoomminus.mouseout"/>
                        </use>
                        <path d="M-4,0h8" fill="none" stroke="white" stroke-width="1.5" pointer-events="none"/>
                </g>
                <g id="dirArrow">
                        <path fill="none" stroke="white" stroke-width="1.5" d="M0,-3.0v7 M-2.5,-0.5L0,-3.0L2.5,-0.5"/>
                </g>
               <g id="resetDef">
                       <use xlink:href="#rim2" fill="#404040">
                               <set attributeName="fill" to="#808080" begin="reset.mouseover" end="reset.mouseout"/>
                       </use>
               </g>
        </defs>

<script type="text/javascript">
var viewWidth = 796;
var viewHeight = 261;
var sectionId = 'dynsection-1';
</script>
<script xlink:href="svgpan.js"/>
<svg id="graph" class="graph">
<g id="viewport">
<title>repos_for_Dox/cFDK/SRA/LIB/SHELL/LIB/hls/NTS/toe/src/session_lookup_controller/session_lookup_controller.hpp</title>
<!-- Node1 -->
<g id="node1" class="node">
<title>Node1</title>
<g id="a_node1"><a xlink:title=" ">
<polygon fill="#bfbfbf" stroke="black" points="331,-189.5 331,-252.5 483,-252.5 483,-189.5 331,-189.5"/>
<text text-anchor="start" x="339" y="-240.5" font-family="Helvetica,sans-Serif" font-size="10.00">repos_for_Dox/cFDK</text>
<text text-anchor="start" x="339" y="-229.5" font-family="Helvetica,sans-Serif" font-size="10.00">/SRA/LIB/SHELL/LIB/hls</text>
<text text-anchor="start" x="339" y="-218.5" font-family="Helvetica,sans-Serif" font-size="10.00">/NTS/toe/src/session_lookup</text>
<text text-anchor="start" x="339" y="-207.5" font-family="Helvetica,sans-Serif" font-size="10.00">_controller/session_lookup</text>
<text text-anchor="middle" x="407" y="-196.5" font-family="Helvetica,sans-Serif" font-size="10.00">_controller.hpp</text>
</a>
</g>
</g>
<!-- Node2 -->
<g id="node2" class="node">
<title>Node2</title>
<g id="a_node2"><a xlink:href="test__rx__engine_8hpp.html" target="_top" xlink:title=": Testbench for RX Engine (RXe) of the TCP Offload Engine (TOE).">
<polygon fill="none" stroke="black" points="0,-95 0,-147 134,-147 134,-95 0,-95"/>
<text text-anchor="start" x="8" y="-135" font-family="Helvetica,sans-Serif" font-size="10.00">repos_for_Dox/cFDK</text>
<text text-anchor="start" x="8" y="-124" font-family="Helvetica,sans-Serif" font-size="10.00">/SRA/LIB/SHELL/LIB/hls</text>
<text text-anchor="start" x="8" y="-113" font-family="Helvetica,sans-Serif" font-size="10.00">/NTS/toe/src/rx_engine</text>
<text text-anchor="middle" x="67" y="-102" font-family="Helvetica,sans-Serif" font-size="10.00">/test/test_rx_engine.hpp</text>
</a>
</g>
</g>
<!-- Node1&#45;&gt;Node2 -->
<g id="edge1" class="edge">
<title>Node1&#45;&gt;Node2</title>
<path fill="none" stroke="midnightblue" d="M320.95,-201.35C268.92,-189.28 201.55,-172.27 143,-153 137.45,-151.17 131.73,-149.14 126.03,-147"/>
<polygon fill="midnightblue" stroke="midnightblue" points="320.28,-204.78 330.81,-203.62 321.85,-197.96 320.28,-204.78"/>
</g>
<!-- Node4 -->
<g id="node4" class="node">
<title>Node4</title>
<g id="a_node4"><a xlink:href="session__lookup__controller_8cpp.html" target="_top" xlink:title=" ">
<polygon fill="none" stroke="black" points="152,-89.5 152,-152.5 304,-152.5 304,-89.5 152,-89.5"/>
<text text-anchor="start" x="160" y="-140.5" font-family="Helvetica,sans-Serif" font-size="10.00">repos_for_Dox/cFDK</text>
<text text-anchor="start" x="160" y="-129.5" font-family="Helvetica,sans-Serif" font-size="10.00">/SRA/LIB/SHELL/LIB/hls</text>
<text text-anchor="start" x="160" y="-118.5" font-family="Helvetica,sans-Serif" font-size="10.00">/NTS/toe/src/session_lookup</text>
<text text-anchor="start" x="160" y="-107.5" font-family="Helvetica,sans-Serif" font-size="10.00">_controller/session_lookup</text>
<text text-anchor="middle" x="228" y="-96.5" font-family="Helvetica,sans-Serif" font-size="10.00">_controller.cpp</text>
</a>
</g>
</g>
<!-- Node1&#45;&gt;Node4 -->
<g id="edge3" class="edge">
<title>Node1&#45;&gt;Node4</title>
<path fill="none" stroke="midnightblue" d="M341.96,-184.39C322.95,-173.98 302.34,-162.7 283.95,-152.63"/>
<polygon fill="midnightblue" stroke="midnightblue" points="340.4,-187.53 350.85,-189.26 343.76,-181.39 340.4,-187.53"/>
</g>
<!-- Node5 -->
<g id="node5" class="node">
<title>Node5</title>
<g id="a_node5"><a xlink:href="test__session__lookup__controller_8cpp.html" target="_top" xlink:title=" ">
<polygon fill="none" stroke="black" points="322,-89.5 322,-152.5 492,-152.5 492,-89.5 322,-89.5"/>
<text text-anchor="start" x="330" y="-140.5" font-family="Helvetica,sans-Serif" font-size="10.00">repos_for_Dox/cFDK</text>
<text text-anchor="start" x="330" y="-129.5" font-family="Helvetica,sans-Serif" font-size="10.00">/SRA/LIB/SHELL/LIB/hls</text>
<text text-anchor="start" x="330" y="-118.5" font-family="Helvetica,sans-Serif" font-size="10.00">/NTS/toe/src/session_lookup</text>
<text text-anchor="start" x="330" y="-107.5" font-family="Helvetica,sans-Serif" font-size="10.00">_controller/test_session_lookup</text>
<text text-anchor="middle" x="407" y="-96.5" font-family="Helvetica,sans-Serif" font-size="10.00">_controller.cpp</text>
</a>
</g>
</g>
<!-- Node1&#45;&gt;Node5 -->
<g id="edge4" class="edge">
<title>Node1&#45;&gt;Node5</title>
<path fill="none" stroke="midnightblue" d="M407,-179.1C407,-170.24 407,-161.01 407,-152.63"/>
<polygon fill="midnightblue" stroke="midnightblue" points="403.5,-179.26 407,-189.26 410.5,-179.26 403.5,-179.26"/>
</g>
<!-- Node6 -->
<g id="node6" class="node">
<title>Node6</title>
<g id="a_node6"><a xlink:href="toe_8cpp.html" target="_top" xlink:title=": TCP Offload Engine (TOE)">
<polygon fill="none" stroke="black" points="510.5,-100.5 510.5,-141.5 635.5,-141.5 635.5,-100.5 510.5,-100.5"/>
<text text-anchor="start" x="518.5" y="-129.5" font-family="Helvetica,sans-Serif" font-size="10.00">repos_for_Dox/cFDK</text>
<text text-anchor="start" x="518.5" y="-118.5" font-family="Helvetica,sans-Serif" font-size="10.00">/SRA/LIB/SHELL/LIB/hls</text>
<text text-anchor="middle" x="573" y="-107.5" font-family="Helvetica,sans-Serif" font-size="10.00">/NTS/toe/src/toe.cpp</text>
</a>
</g>
</g>
<!-- Node1&#45;&gt;Node6 -->
<g id="edge5" class="edge">
<title>Node1&#45;&gt;Node6</title>
<path fill="none" stroke="midnightblue" d="M467.9,-184.05C492.25,-169.67 519.35,-153.68 539.92,-141.53"/>
<polygon fill="midnightblue" stroke="midnightblue" points="465.9,-181.16 459.07,-189.26 469.46,-187.19 465.9,-181.16"/>
</g>
<!-- Node7 -->
<g id="node7" class="node">
<title>Node7</title>
<g id="a_node7"><a xlink:href="test__tx__engine_8hpp.html" target="_top" xlink:title=" ">
<polygon fill="none" stroke="black" points="654,-95 654,-147 788,-147 788,-95 654,-95"/>
<text text-anchor="start" x="662" y="-135" font-family="Helvetica,sans-Serif" font-size="10.00">repos_for_Dox/cFDK</text>
<text text-anchor="start" x="662" y="-124" font-family="Helvetica,sans-Serif" font-size="10.00">/SRA/LIB/SHELL/LIB/hls</text>
<text text-anchor="start" x="662" y="-113" font-family="Helvetica,sans-Serif" font-size="10.00">/NTS/toe/src/tx_engine</text>
<text text-anchor="middle" x="721" y="-102" font-family="Helvetica,sans-Serif" font-size="10.00">/test/test_tx_engine.hpp</text>
</a>
</g>
</g>
<!-- Node1&#45;&gt;Node7 -->
<g id="edge6" class="edge">
<title>Node1&#45;&gt;Node7</title>
<path fill="none" stroke="midnightblue" d="M493.08,-198.28C538.62,-186.16 595.26,-170.08 645,-153 650.39,-151.15 655.95,-149.12 661.5,-147.01"/>
<polygon fill="midnightblue" stroke="midnightblue" points="492.01,-194.94 483.24,-200.88 493.8,-201.71 492.01,-194.94"/>
</g>
<!-- Node3 -->
<g id="node3" class="node">
<title>Node3</title>
<g id="a_node3"><a xlink:href="test__rx__engine_8cpp.html" target="_top" xlink:title=": Testbench for RX Engine (RXe) of the TCP Offload Engine (TOE).">
<polygon fill="none" stroke="black" points="0,-0.5 0,-52.5 134,-52.5 134,-0.5 0,-0.5"/>
<text text-anchor="start" x="8" y="-40.5" font-family="Helvetica,sans-Serif" font-size="10.00">repos_for_Dox/cFDK</text>
<text text-anchor="start" x="8" y="-29.5" font-family="Helvetica,sans-Serif" font-size="10.00">/SRA/LIB/SHELL/LIB/hls</text>
<text text-anchor="start" x="8" y="-18.5" font-family="Helvetica,sans-Serif" font-size="10.00">/NTS/toe/src/rx_engine</text>
<text text-anchor="middle" x="67" y="-7.5" font-family="Helvetica,sans-Serif" font-size="10.00">/test/test_rx_engine.cpp</text>
</a>
</g>
</g>
<!-- Node2&#45;&gt;Node3 -->
<g id="edge2" class="edge">
<title>Node2&#45;&gt;Node3</title>
<path fill="none" stroke="midnightblue" d="M67,-84.49C67,-73.91 67,-62.53 67,-52.75"/>
<polygon fill="midnightblue" stroke="midnightblue" points="63.5,-84.72 67,-94.72 70.5,-84.72 63.5,-84.72"/>
</g>
<!-- Node8 -->
<g id="node8" class="node">
<title>Node8</title>
<g id="a_node8"><a xlink:href="test__tx__engine_8cpp.html" target="_top" xlink:title=": Testbench for TX Engine (TXe) of the TCP Offload Engine (TOE).">
<polygon fill="none" stroke="black" points="654,-0.5 654,-52.5 788,-52.5 788,-0.5 654,-0.5"/>
<text text-anchor="start" x="662" y="-40.5" font-family="Helvetica,sans-Serif" font-size="10.00">repos_for_Dox/cFDK</text>
<text text-anchor="start" x="662" y="-29.5" font-family="Helvetica,sans-Serif" font-size="10.00">/SRA/LIB/SHELL/LIB/hls</text>
<text text-anchor="start" x="662" y="-18.5" font-family="Helvetica,sans-Serif" font-size="10.00">/NTS/toe/src/tx_engine</text>
<text text-anchor="middle" x="721" y="-7.5" font-family="Helvetica,sans-Serif" font-size="10.00">/test/test_tx_engine.cpp</text>
</a>
</g>
</g>
<!-- Node7&#45;&gt;Node8 -->
<g id="edge7" class="edge">
<title>Node7&#45;&gt;Node8</title>
<path fill="none" stroke="midnightblue" d="M721,-84.49C721,-73.91 721,-62.53 721,-52.75"/>
<polygon fill="midnightblue" stroke="midnightblue" points="717.5,-84.72 721,-94.72 724.5,-84.72 717.5,-84.72"/>
</g>
</g>
</svg>
        <g id="navigator" transform="translate(0 0)" fill="#404254">
                <rect fill="#f2f5e9" fill-opacity="0.5" stroke="#606060" stroke-width=".5" x="0" y="0" width="60" height="60"/>
                <use id="zoomplus" xlink:href="#zoomPlus" x="17" y="9" onmousedown="handleZoom(evt,'in')"/>
                <use id="zoomminus" xlink:href="#zoomMin" x="42" y="9" onmousedown="handleZoom(evt,'out')"/>
                <use id="reset" xlink:href="#resetDef" x="30" y="36" onmousedown="handleReset()"/>
                <g id="arrowUp" xlink:href="#dirArrow" transform="translate(30 24)" onmousedown="handlePan(0,-1)">
                  <use xlink:href="#rim" fill="#404040">
                        <set attributeName="fill" to="#808080" begin="arrowUp.mouseover" end="arrowUp.mouseout"/>
                  </use>
                  <path fill="none" stroke="white" stroke-width="1.5" d="M0,-3.0v7 M-2.5,-0.5L0,-3.0L2.5,-0.5"/>
                </g>
                <g id="arrowRight" xlink:href="#dirArrow" transform="rotate(90) translate(36 -43)" onmousedown="handlePan(1,0)">
                  <use xlink:href="#rim" fill="#404040">
                        <set attributeName="fill" to="#808080" begin="arrowRight.mouseover" end="arrowRight.mouseout"/>
                  </use>
                  <path fill="none" stroke="white" stroke-width="1.5" d="M0,-3.0v7 M-2.5,-0.5L0,-3.0L2.5,-0.5"/>
                </g>
                <g id="arrowDown" xlink:href="#dirArrow" transform="rotate(180) translate(-30 -48)" onmousedown="handlePan(0,1)">
                  <use xlink:href="#rim" fill="#404040">
                        <set attributeName="fill" to="#808080" begin="arrowDown.mouseover" end="arrowDown.mouseout"/>
                  </use>
                  <path fill="none" stroke="white" stroke-width="1.5" d="M0,-3.0v7 M-2.5,-0.5L0,-3.0L2.5,-0.5"/>
                </g>
                <g id="arrowLeft" xlink:href="#dirArrow" transform="rotate(270) translate(-36 17)" onmousedown="handlePan(-1,0)">
                  <use xlink:href="#rim" fill="#404040">
                        <set attributeName="fill" to="#808080" begin="arrowLeft.mouseover" end="arrowLeft.mouseout"/>
                  </use>
                  <path fill="none" stroke="white" stroke-width="1.5" d="M0,-3.0v7 M-2.5,-0.5L0,-3.0L2.5,-0.5"/>
                </g>
        </g>
        <svg viewBox="0 0 15 15" width="100%" height="30px" preserveAspectRatio="xMaxYMin meet">
         <g id="arrow_out" transform="scale(0.3 0.3)">
          <a xlink:href="session__lookup__controller_8hpp__dep__incl_org.svg" target="_base">
           <rect id="button" ry="5" rx="5" y="6" x="6" height="38" width="38"
                fill="#f2f5e9" fill-opacity="0.5" stroke="#606060" stroke-width="1.0"/>
           <path id="arrow"
             d="M 11.500037,31.436501 C 11.940474,20.09759 22.043105,11.32322 32.158766,21.979434 L 37.068811,17.246167 C 37.068811,17.246167 37.088388,32 37.088388,32 L 22.160133,31.978069 C 22.160133,31.978069 26.997745,27.140456 26.997745,27.140456 C 18.528582,18.264221 13.291696,25.230495 11.500037,31.436501 z"
             style="fill:#404040;"/>
          </a>
         </g>
        </svg>
</svg>
