<?xml version="1.0" encoding="UTF-8" standalone="no"?>
<!DOCTYPE svg PUBLIC "-//W3C//DTD SVG 1.1//EN"
 "http://www.w3.org/Graphics/SVG/1.1/DTD/svg11.dtd">
<!-- Generated by graphviz version 2.43.0 (0)
 -->
<!-- Title: repos_for_Dox/cFDK/SRA/LIB/SHELL/LIB/hls/NTS/SimArpPacket.hpp Pages: 1 -->
<svg width="478pt" height="498pt"
 viewBox="0.00 0.00 477.50 498.00" xmlns="http://www.w3.org/2000/svg" xmlns:xlink="http://www.w3.org/1999/xlink">
<g id="graph0" class="graph" transform="scale(1 1) rotate(0) translate(4 494)">
<title>repos_for_Dox/cFDK/SRA/LIB/SHELL/LIB/hls/NTS/SimArpPacket.hpp</title>
<!-- Node1 -->
<g id="node1" class="node">
<title>Node1</title>
<g id="a_node1"><a xlink:title=": A simulation class to build and handle ARP packets.">
<polygon fill="#bfbfbf" stroke="black" points="312,-448.5 312,-489.5 442,-489.5 442,-448.5 312,-448.5"/>
<text text-anchor="start" x="320" y="-477.5" font-family="Helvetica,sans-Serif" font-size="10.00">repos_for_Dox/cFDK</text>
<text text-anchor="start" x="320" y="-466.5" font-family="Helvetica,sans-Serif" font-size="10.00">/SRA/LIB/SHELL/LIB/hls</text>
<text text-anchor="middle" x="377" y="-455.5" font-family="Helvetica,sans-Serif" font-size="10.00">/NTS/SimArpPacket.hpp</text>
</a>
</g>
</g>
<!-- Node2 -->
<g id="node2" class="node">
<title>Node2</title>
<g id="a_node2"><a xlink:href="nts_8hpp.html" target="_top" xlink:title=": Definition of the Network Transport Stack (NTS) component as if it was an HLS IP core.">
<polygon fill="none" stroke="black" points="316.5,-336.5 316.5,-355.5 369.5,-355.5 369.5,-336.5 316.5,-336.5"/>
<text text-anchor="middle" x="343" y="-343.5" font-family="Helvetica,sans-Serif" font-size="10.00">nts.hpp</text>
</a>
</g>
</g>
<!-- Node1&#45;&gt;Node2 -->
<g id="edge1" class="edge">
<title>Node1&#45;&gt;Node2</title>
<path fill="none" stroke="midnightblue" d="M371.46,-448.29C365.02,-425.37 354.48,-387.85 348.19,-365.47"/>
<polygon fill="midnightblue" stroke="midnightblue" points="351.48,-364.26 345.41,-355.57 344.75,-366.15 351.48,-364.26"/>
</g>
<!-- Node18 -->
<g id="node18" class="node">
<title>Node18</title>
<g id="a_node18"><a xlink:href="nts__utils_8hpp.html" target="_top" xlink:title=": Utilities and helpers for the Network&#45;Transport&#45;Stack (NTS) components.">
<polygon fill="none" stroke="black" points="371.5,-392.5 371.5,-411.5 450.5,-411.5 450.5,-392.5 371.5,-392.5"/>
<text text-anchor="middle" x="411" y="-399.5" font-family="Helvetica,sans-Serif" font-size="10.00">nts_utils.hpp</text>
</a>
</g>
</g>
<!-- Node1&#45;&gt;Node18 -->
<g id="edge25" class="edge">
<title>Node1&#45;&gt;Node18</title>
<path fill="none" stroke="midnightblue" d="M387.2,-448.5C391.81,-439.68 397.22,-429.34 401.72,-420.74"/>
<polygon fill="midnightblue" stroke="midnightblue" points="404.94,-422.14 406.47,-411.65 398.74,-418.89 404.94,-422.14"/>
</g>
<!-- Node3 -->
<g id="node3" class="node">
<title>Node3</title>
<g id="a_node3"><a xlink:href="nts__types_8hpp.html" target="_top" xlink:title=": Definition of the types used by the Network Transport Stack (NTS) component of the cloudFPGA shell.">
<polygon fill="none" stroke="black" points="126.5,-280.5 126.5,-299.5 211.5,-299.5 211.5,-280.5 126.5,-280.5"/>
<text text-anchor="middle" x="169" y="-287.5" font-family="Helvetica,sans-Serif" font-size="10.00">nts_types.hpp</text>
</a>
</g>
</g>
<!-- Node2&#45;&gt;Node3 -->
<g id="edge2" class="edge">
<title>Node2&#45;&gt;Node3</title>
<path fill="none" stroke="midnightblue" d="M316.19,-336.68C286.73,-327.54 239.21,-312.79 206.17,-302.53"/>
<polygon fill="midnightblue" stroke="midnightblue" points="207,-299.13 196.41,-299.51 204.92,-305.81 207,-299.13"/>
</g>
<!-- Node15 -->
<g id="node15" class="node">
<title>Node15</title>
<g id="a_node15"><a xlink:href="nts__config_8hpp.html" target="_top" xlink:title=": Configuration parameters for the Network Transport Stack (NTS) component and sub&#45;components.">
<polygon fill="none" stroke="black" points="299.5,-280.5 299.5,-299.5 386.5,-299.5 386.5,-280.5 299.5,-280.5"/>
<text text-anchor="middle" x="343" y="-287.5" font-family="Helvetica,sans-Serif" font-size="10.00">nts_config.hpp</text>
</a>
</g>
</g>
<!-- Node2&#45;&gt;Node15 -->
<g id="edge22" class="edge">
<title>Node2&#45;&gt;Node15</title>
<path fill="none" stroke="midnightblue" d="M343,-336.08C343,-329.01 343,-318.86 343,-309.99"/>
<polygon fill="midnightblue" stroke="midnightblue" points="346.5,-309.75 343,-299.75 339.5,-309.75 346.5,-309.75"/>
</g>
<!-- Node4 -->
<g id="node4" class="node">
<title>Node4</title>
<g id="a_node4"><a xlink:title=" ">
<polygon fill="none" stroke="#bfbfbf" points="0,-0.5 0,-19.5 80,-19.5 80,-0.5 0,-0.5"/>
<text text-anchor="middle" x="40" y="-7.5" font-family="Helvetica,sans-Serif" font-size="10.00">hls_stream.h</text>
</a>
</g>
</g>
<!-- Node3&#45;&gt;Node4 -->
<g id="edge3" class="edge">
<title>Node3&#45;&gt;Node4</title>
<path fill="none" stroke="midnightblue" d="M137.75,-280.42C95.4,-266.66 25,-235.31 25,-179 25,-179 25,-179 25,-121 25,-88.5 31.51,-51.1 35.95,-29.34"/>
<polygon fill="midnightblue" stroke="midnightblue" points="39.39,-30.01 38.04,-19.5 32.54,-28.56 39.39,-30.01"/>
</g>
<!-- Node5 -->
<g id="node5" class="node">
<title>Node5</title>
<g id="a_node5"><a xlink:href="AxisEth_8hpp.html" target="_top" xlink:title=": A class to access an ETHernet data chunk transmitted over an AXI4&#45;Stream interface.">
<polygon fill="none" stroke="black" points="92,-224.5 92,-243.5 166,-243.5 166,-224.5 92,-224.5"/>
<text text-anchor="middle" x="129" y="-231.5" font-family="Helvetica,sans-Serif" font-size="10.00">AxisEth.hpp</text>
</a>
</g>
</g>
<!-- Node3&#45;&gt;Node5 -->
<g id="edge4" class="edge">
<title>Node3&#45;&gt;Node5</title>
<path fill="none" stroke="midnightblue" d="M162.39,-280.08C156.74,-272.46 148.46,-261.26 141.55,-251.94"/>
<polygon fill="midnightblue" stroke="midnightblue" points="144.25,-249.7 135.48,-243.75 138.62,-253.87 144.25,-249.7"/>
</g>
<!-- Node11 -->
<g id="node11" class="node">
<title>Node11</title>
<g id="a_node11"><a xlink:href="AxisIp4_8hpp.html" target="_top" xlink:title=": A class to access an IPv4 data chunk transmitted over an AXI4&#45;Stream interface.">
<polygon fill="none" stroke="black" points="185,-168.5 185,-187.5 259,-187.5 259,-168.5 185,-168.5"/>
<text text-anchor="middle" x="222" y="-175.5" font-family="Helvetica,sans-Serif" font-size="10.00">AxisIp4.hpp</text>
</a>
</g>
</g>
<!-- Node3&#45;&gt;Node11 -->
<g id="edge21" class="edge">
<title>Node3&#45;&gt;Node11</title>
<path fill="none" stroke="midnightblue" d="M173.16,-280.37C181.83,-262.38 201.98,-220.55 213.51,-196.63"/>
<polygon fill="midnightblue" stroke="midnightblue" points="216.67,-198.12 217.86,-187.59 210.37,-195.08 216.67,-198.12"/>
</g>
<!-- Node6 -->
<g id="node6" class="node">
<title>Node6</title>
<g id="a_node6"><a xlink:href="AxisRaw_8hpp.html" target="_top" xlink:title=": A generic class used by the Network&#45;Transport&#45;Stack (NTS) to to transfer a chunk of data over an AX...">
<polygon fill="none" stroke="black" points="132.5,-56.5 132.5,-75.5 211.5,-75.5 211.5,-56.5 132.5,-56.5"/>
<text text-anchor="middle" x="172" y="-63.5" font-family="Helvetica,sans-Serif" font-size="10.00">AxisRaw.hpp</text>
</a>
</g>
</g>
<!-- Node5&#45;&gt;Node6 -->
<g id="edge5" class="edge">
<title>Node5&#45;&gt;Node6</title>
<path fill="none" stroke="midnightblue" d="M114.92,-224.26C103.65,-216.35 88.65,-203.58 82,-188 78.51,-179.83 79.55,-176.54 82,-168 92.79,-130.36 127.69,-98.92 150.73,-81.56"/>
<polygon fill="midnightblue" stroke="midnightblue" points="152.87,-84.32 158.9,-75.61 148.75,-78.66 152.87,-84.32"/>
</g>
<!-- Node10 -->
<g id="node10" class="node">
<title>Node10</title>
<g id="a_node10"><a xlink:href="AxisArp_8hpp.html" target="_top" xlink:title=": A class to access an ARP data chunk transmitted over an AXI4&#45;Stream interface.">
<polygon fill="none" stroke="black" points="91.5,-168.5 91.5,-187.5 166.5,-187.5 166.5,-168.5 91.5,-168.5"/>
<text text-anchor="middle" x="129" y="-175.5" font-family="Helvetica,sans-Serif" font-size="10.00">AxisArp.hpp</text>
</a>
</g>
</g>
<!-- Node5&#45;&gt;Node10 -->
<g id="edge10" class="edge">
<title>Node5&#45;&gt;Node10</title>
<path fill="none" stroke="midnightblue" d="M123.83,-224.08C122.32,-216.93 121.89,-206.64 122.54,-197.69"/>
<polygon fill="midnightblue" stroke="midnightblue" points="126.02,-198.13 123.87,-187.75 119.08,-197.2 126.02,-198.13"/>
</g>
<!-- Node5&#45;&gt;Node11 -->
<g id="edge13" class="edge">
<title>Node5&#45;&gt;Node11</title>
<path fill="none" stroke="midnightblue" d="M143.94,-224.32C158.59,-215.82 181.13,-202.73 198.24,-192.8"/>
<polygon fill="midnightblue" stroke="midnightblue" points="200.2,-195.7 207.1,-187.65 196.69,-189.65 200.2,-195.7"/>
</g>
<!-- Node6&#45;&gt;Node4 -->
<g id="edge8" class="edge">
<title>Node6&#45;&gt;Node4</title>
<path fill="none" stroke="midnightblue" d="M151.08,-56.44C129.26,-47.52 94.85,-33.44 70.11,-23.32"/>
<polygon fill="midnightblue" stroke="midnightblue" points="71.4,-20.06 60.82,-19.52 68.75,-26.54 71.4,-20.06"/>
</g>
<!-- Node7 -->
<g id="node7" class="node">
<title>Node7</title>
<g id="a_node7"><a xlink:title=" ">
<polygon fill="none" stroke="#bfbfbf" points="105,-0.5 105,-19.5 157,-19.5 157,-0.5 105,-0.5"/>
<text text-anchor="middle" x="131" y="-7.5" font-family="Helvetica,sans-Serif" font-size="10.00">cassert</text>
</a>
</g>
</g>
<!-- Node6&#45;&gt;Node7 -->
<g id="edge6" class="edge">
<title>Node6&#45;&gt;Node7</title>
<path fill="none" stroke="midnightblue" d="M165.23,-56.08C159.44,-48.46 150.94,-37.26 143.86,-27.94"/>
<polygon fill="midnightblue" stroke="midnightblue" points="146.48,-25.6 137.64,-19.75 140.9,-29.83 146.48,-25.6"/>
</g>
<!-- Node8 -->
<g id="node8" class="node">
<title>Node8</title>
<g id="a_node8"><a xlink:title=" ">
<polygon fill="none" stroke="#bfbfbf" points="175,-0.5 175,-19.5 235,-19.5 235,-0.5 175,-0.5"/>
<text text-anchor="middle" x="205" y="-7.5" font-family="Helvetica,sans-Serif" font-size="10.00">iostream</text>
</a>
</g>
</g>
<!-- Node6&#45;&gt;Node8 -->
<g id="edge7" class="edge">
<title>Node6&#45;&gt;Node8</title>
<path fill="none" stroke="midnightblue" d="M177.45,-56.08C182.01,-48.61 188.67,-37.72 194.29,-28.52"/>
<polygon fill="midnightblue" stroke="midnightblue" points="197.42,-30.11 199.65,-19.75 191.45,-26.46 197.42,-30.11"/>
</g>
<!-- Node9 -->
<g id="node9" class="node">
<title>Node9</title>
<g id="a_node9"><a xlink:title=" ">
<polygon fill="none" stroke="#bfbfbf" points="346,-0.5 346,-19.5 402,-19.5 402,-0.5 346,-0.5"/>
<text text-anchor="middle" x="374" y="-7.5" font-family="Helvetica,sans-Serif" font-size="10.00">ap_int.h</text>
</a>
</g>
</g>
<!-- Node6&#45;&gt;Node9 -->
<g id="edge9" class="edge">
<title>Node6&#45;&gt;Node9</title>
<path fill="none" stroke="midnightblue" d="M204.01,-56.44C239.85,-46.86 297.9,-31.34 336.02,-21.15"/>
<polygon fill="midnightblue" stroke="midnightblue" points="336.97,-24.52 345.73,-18.56 335.16,-17.76 336.97,-24.52"/>
</g>
<!-- Node10&#45;&gt;Node5 -->
<g id="edge12" class="edge">
<title>Node10&#45;&gt;Node5</title>
<path fill="none" stroke="midnightblue" d="M134.13,-187.75C135.66,-194.86 136.1,-205.14 135.47,-214.1"/>
<polygon fill="midnightblue" stroke="midnightblue" points="131.99,-213.71 134.17,-224.08 138.93,-214.62 131.99,-213.71"/>
</g>
<!-- Node10&#45;&gt;Node6 -->
<g id="edge11" class="edge">
<title>Node10&#45;&gt;Node6</title>
<path fill="none" stroke="midnightblue" d="M126.04,-168.16C122.23,-155.25 117.01,-130.72 125,-112 130.15,-99.95 140.28,-89.58 149.83,-81.84"/>
<polygon fill="midnightblue" stroke="midnightblue" points="152.04,-84.55 157.92,-75.74 147.83,-78.96 152.04,-84.55"/>
</g>
<!-- Node11&#45;&gt;Node6 -->
<g id="edge14" class="edge">
<title>Node11&#45;&gt;Node6</title>
<path fill="none" stroke="midnightblue" d="M200.52,-168.36C185.61,-161.09 166.89,-149.12 158,-132 150.37,-117.31 155.68,-98.67 161.83,-85.13"/>
<polygon fill="midnightblue" stroke="midnightblue" points="165.11,-86.41 166.5,-75.91 158.86,-83.25 165.11,-86.41"/>
</g>
<!-- Node12 -->
<g id="node12" class="node">
<title>Node12</title>
<g id="a_node12"><a xlink:href="AxisIcmp_8hpp.html" target="_top" xlink:title=": A class to access ICMP header fields within data chunks transmitted over an AXI4&#45;Stream interface.">
<polygon fill="none" stroke="black" points="167.5,-112.5 167.5,-131.5 250.5,-131.5 250.5,-112.5 167.5,-112.5"/>
<text text-anchor="middle" x="209" y="-119.5" font-family="Helvetica,sans-Serif" font-size="10.00">AxisIcmp.hpp</text>
</a>
</g>
</g>
<!-- Node11&#45;&gt;Node12 -->
<g id="edge15" class="edge">
<title>Node11&#45;&gt;Node12</title>
<path fill="none" stroke="midnightblue" d="M219.85,-168.08C218.13,-160.93 215.65,-150.64 213.5,-141.69"/>
<polygon fill="midnightblue" stroke="midnightblue" points="216.85,-140.65 211.11,-131.75 210.04,-142.29 216.85,-140.65"/>
</g>
<!-- Node13 -->
<g id="node13" class="node">
<title>Node13</title>
<g id="a_node13"><a xlink:href="AxisTcp_8hpp.html" target="_top" xlink:title=": A class to access TCP header fields within data chunks transmitted over an AXI4&#45;Stream interface.">
<polygon fill="none" stroke="black" points="269,-112.5 269,-131.5 343,-131.5 343,-112.5 269,-112.5"/>
<text text-anchor="middle" x="306" y="-119.5" font-family="Helvetica,sans-Serif" font-size="10.00">AxisTcp.hpp</text>
</a>
</g>
</g>
<!-- Node11&#45;&gt;Node13 -->
<g id="edge17" class="edge">
<title>Node11&#45;&gt;Node13</title>
<path fill="none" stroke="midnightblue" d="M235.5,-168.32C248.6,-159.9 268.71,-146.97 284.11,-137.07"/>
<polygon fill="midnightblue" stroke="midnightblue" points="286.02,-140.01 292.54,-131.65 282.23,-134.12 286.02,-140.01"/>
</g>
<!-- Node14 -->
<g id="node14" class="node">
<title>Node14</title>
<g id="a_node14"><a xlink:href="AxisUdp_8hpp.html" target="_top" xlink:title=": A class to access UDP header fields within data chunks transmitted over an AXI4&#45;Stream interface.">
<polygon fill="none" stroke="black" points="361,-112.5 361,-131.5 439,-131.5 439,-112.5 361,-112.5"/>
<text text-anchor="middle" x="400" y="-119.5" font-family="Helvetica,sans-Serif" font-size="10.00">AxisUdp.hpp</text>
</a>
</g>
</g>
<!-- Node11&#45;&gt;Node14 -->
<g id="edge19" class="edge">
<title>Node11&#45;&gt;Node14</title>
<path fill="none" stroke="midnightblue" d="M250.2,-168.44C280.41,-159.28 328.51,-144.69 362.03,-134.52"/>
<polygon fill="midnightblue" stroke="midnightblue" points="363.37,-137.77 371.93,-131.52 361.34,-131.07 363.37,-137.77"/>
</g>
<!-- Node12&#45;&gt;Node6 -->
<g id="edge16" class="edge">
<title>Node12&#45;&gt;Node6</title>
<path fill="none" stroke="midnightblue" d="M202.89,-112.08C197.72,-104.53 190.15,-93.49 183.81,-84.23"/>
<polygon fill="midnightblue" stroke="midnightblue" points="186.54,-82.02 178,-75.75 180.76,-85.98 186.54,-82.02"/>
</g>
<!-- Node13&#45;&gt;Node6 -->
<g id="edge18" class="edge">
<title>Node13&#45;&gt;Node6</title>
<path fill="none" stroke="midnightblue" d="M284.77,-112.44C262.62,-103.52 227.68,-89.44 202.56,-79.32"/>
<polygon fill="midnightblue" stroke="midnightblue" points="203.72,-76.01 193.13,-75.52 201.1,-82.5 203.72,-76.01"/>
</g>
<!-- Node14&#45;&gt;Node6 -->
<g id="edge20" class="edge">
<title>Node14&#45;&gt;Node6</title>
<path fill="none" stroke="midnightblue" d="M363.87,-112.44C324.35,-103.08 260.9,-88.06 217.89,-77.87"/>
<polygon fill="midnightblue" stroke="midnightblue" points="218.5,-74.42 207.96,-75.52 216.88,-81.23 218.5,-74.42"/>
</g>
<!-- Node16 -->
<g id="node16" class="node">
<title>Node16</title>
<g id="a_node16"><a xlink:title=" ">
<polygon fill="none" stroke="#bfbfbf" points="281.5,-224.5 281.5,-243.5 334.5,-243.5 334.5,-224.5 281.5,-224.5"/>
<text text-anchor="middle" x="308" y="-231.5" font-family="Helvetica,sans-Serif" font-size="10.00">stdint.h</text>
</a>
</g>
</g>
<!-- Node15&#45;&gt;Node16 -->
<g id="edge23" class="edge">
<title>Node15&#45;&gt;Node16</title>
<path fill="none" stroke="midnightblue" d="M337.22,-280.08C332.33,-272.53 325.17,-261.49 319.17,-252.23"/>
<polygon fill="midnightblue" stroke="midnightblue" points="322.05,-250.24 313.67,-243.75 316.17,-254.05 322.05,-250.24"/>
</g>
<!-- Node17 -->
<g id="node17" class="node">
<title>Node17</title>
<g id="a_node17"><a xlink:title=" ">
<polygon fill="none" stroke="#bfbfbf" points="352.5,-224.5 352.5,-243.5 403.5,-243.5 403.5,-224.5 352.5,-224.5"/>
<text text-anchor="middle" x="378" y="-231.5" font-family="Helvetica,sans-Serif" font-size="10.00">math.h</text>
</a>
</g>
</g>
<!-- Node15&#45;&gt;Node17 -->
<g id="edge24" class="edge">
<title>Node15&#45;&gt;Node17</title>
<path fill="none" stroke="midnightblue" d="M348.78,-280.08C353.67,-272.53 360.83,-261.49 366.83,-252.23"/>
<polygon fill="midnightblue" stroke="midnightblue" points="369.83,-254.05 372.33,-243.75 363.95,-250.24 369.83,-254.05"/>
</g>
<!-- Node18&#45;&gt;Node2 -->
<g id="edge28" class="edge">
<title>Node18&#45;&gt;Node2</title>
<path fill="none" stroke="midnightblue" d="M400.07,-392.32C389.83,-384.18 374.28,-371.84 362,-362.09"/>
<polygon fill="midnightblue" stroke="midnightblue" points="364.13,-359.31 354.12,-355.83 359.78,-364.79 364.13,-359.31"/>
</g>
<!-- Node19 -->
<g id="node19" class="node">
<title>Node19</title>
<g id="a_node19"><a xlink:href="mem_8hpp.html" target="_top" xlink:title=": Memory Sub&#45;System (MEM) for the cloudFPGA shell.">
<polygon fill="none" stroke="black" points="370.5,-56.5 370.5,-75.5 469.5,-75.5 469.5,-56.5 370.5,-56.5"/>
<text text-anchor="middle" x="420" y="-63.5" font-family="Helvetica,sans-Serif" font-size="10.00">../MEM/mem.hpp</text>
</a>
</g>
</g>
<!-- Node18&#45;&gt;Node19 -->
<g id="edge26" class="edge">
<title>Node18&#45;&gt;Node19</title>
<path fill="none" stroke="midnightblue" d="M419.02,-392.36C434.51,-374.74 467,-332.79 467,-291 467,-291 467,-291 467,-177 467,-141.7 446.28,-104.79 432.36,-83.96"/>
<polygon fill="midnightblue" stroke="midnightblue" points="435.12,-81.8 426.54,-75.59 429.37,-85.8 435.12,-81.8"/>
</g>
<!-- Node19&#45;&gt;Node9 -->
<g id="edge27" class="edge">
<title>Node19&#45;&gt;Node9</title>
<path fill="none" stroke="midnightblue" d="M412.4,-56.08C405.77,-48.3 395.98,-36.8 387.94,-27.37"/>
<polygon fill="midnightblue" stroke="midnightblue" points="390.6,-25.09 381.45,-19.75 385.27,-29.63 390.6,-25.09"/>
</g>
</g>
</svg>
