<?xml version="1.0" encoding="UTF-8" standalone="no"?>
<!DOCTYPE svg PUBLIC "-//W3C//DTD SVG 1.1//EN"
 "http://www.w3.org/Graphics/SVG/1.1/DTD/svg11.dtd">
<!-- Generated by graphviz version 2.43.0 (0)
 -->
<!-- Title: repos_for_Dox/cFDK/SRA/LIB/SHELL/LIB/hls/NTS/SimAppData.hpp Pages: 1 -->
<svg width="714pt" height="554pt"
 viewBox="0.00 0.00 714.31 554.00" xmlns="http://www.w3.org/2000/svg" xmlns:xlink="http://www.w3.org/1999/xlink">
<g id="graph0" class="graph" transform="scale(1 1) rotate(0) translate(4 550)">
<title>repos_for_Dox/cFDK/SRA/LIB/SHELL/LIB/hls/NTS/SimAppData.hpp</title>
<!-- Node1 -->
<g id="node1" class="node">
<title>Node1</title>
<g id="a_node1"><a xlink:title=": A simulation class to build APP data streams.">
<polygon fill="#bfbfbf" stroke="black" points="96.81,-504.5 96.81,-545.5 221.81,-545.5 221.81,-504.5 96.81,-504.5"/>
<text text-anchor="start" x="104.81" y="-533.5" font-family="Helvetica,sans-Serif" font-size="10.00">repos_for_Dox/cFDK</text>
<text text-anchor="start" x="104.81" y="-522.5" font-family="Helvetica,sans-Serif" font-size="10.00">/SRA/LIB/SHELL/LIB/hls</text>
<text text-anchor="middle" x="159.31" y="-511.5" font-family="Helvetica,sans-Serif" font-size="10.00">/NTS/SimAppData.hpp</text>
</a>
</g>
</g>
<!-- Node2 -->
<g id="node2" class="node">
<title>Node2</title>
<g id="a_node2"><a xlink:title=" ">
<polygon fill="none" stroke="#bfbfbf" points="157.31,-0.5 157.31,-19.5 217.31,-19.5 217.31,-0.5 157.31,-0.5"/>
<text text-anchor="middle" x="187.31" y="-7.5" font-family="Helvetica,sans-Serif" font-size="10.00">iostream</text>
</a>
</g>
</g>
<!-- Node1&#45;&gt;Node2 -->
<g id="edge1" class="edge">
<title>Node1&#45;&gt;Node2</title>
<path fill="none" stroke="midnightblue" d="M96.75,-511.92C69.59,-503.73 39.46,-490.19 19.31,-468 -0.93,-445.72 0.31,-433.1 0.31,-403 0.31,-403 0.31,-403 0.31,-121 0.31,-53.41 92.18,-26.53 147.13,-16.5"/>
<polygon fill="midnightblue" stroke="midnightblue" points="148,-19.9 157.26,-14.76 146.82,-13 148,-19.9"/>
</g>
<!-- Node3 -->
<g id="node3" class="node">
<title>Node3</title>
<g id="a_node3"><a xlink:title=" ">
<polygon fill="none" stroke="#bfbfbf" points="28.31,-448.5 28.31,-467.5 84.31,-467.5 84.31,-448.5 28.31,-448.5"/>
<text text-anchor="middle" x="56.31" y="-455.5" font-family="Helvetica,sans-Serif" font-size="10.00">iomanip</text>
</a>
</g>
</g>
<!-- Node1&#45;&gt;Node3 -->
<g id="edge2" class="edge">
<title>Node1&#45;&gt;Node3</title>
<path fill="none" stroke="midnightblue" d="M128.41,-504.5C112.46,-494.44 93.36,-482.38 78.83,-473.21"/>
<polygon fill="midnightblue" stroke="midnightblue" points="80.34,-470.03 70.02,-467.65 76.61,-475.95 80.34,-470.03"/>
</g>
<!-- Node4 -->
<g id="node4" class="node">
<title>Node4</title>
<g id="a_node4"><a xlink:title=" ">
<polygon fill="none" stroke="#bfbfbf" points="102.81,-448.5 102.81,-467.5 149.81,-467.5 149.81,-448.5 102.81,-448.5"/>
<text text-anchor="middle" x="126.31" y="-455.5" font-family="Helvetica,sans-Serif" font-size="10.00">deque</text>
</a>
</g>
</g>
<!-- Node1&#45;&gt;Node4 -->
<g id="edge3" class="edge">
<title>Node1&#45;&gt;Node4</title>
<path fill="none" stroke="midnightblue" d="M149.41,-504.5C144.93,-495.68 139.68,-485.34 135.32,-476.74"/>
<polygon fill="midnightblue" stroke="midnightblue" points="138.35,-474.98 130.7,-467.65 132.11,-478.15 138.35,-474.98"/>
</g>
<!-- Node5 -->
<g id="node5" class="node">
<title>Node5</title>
<g id="a_node5"><a xlink:title=" ">
<polygon fill="none" stroke="#bfbfbf" points="167.81,-448.5 167.81,-467.5 216.81,-467.5 216.81,-448.5 167.81,-448.5"/>
<text text-anchor="middle" x="192.31" y="-455.5" font-family="Helvetica,sans-Serif" font-size="10.00">cstdlib</text>
</a>
</g>
</g>
<!-- Node1&#45;&gt;Node5 -->
<g id="edge4" class="edge">
<title>Node1&#45;&gt;Node5</title>
<path fill="none" stroke="midnightblue" d="M169.21,-504.5C173.69,-495.68 178.94,-485.34 183.3,-476.74"/>
<polygon fill="midnightblue" stroke="midnightblue" points="186.51,-478.15 187.92,-467.65 180.27,-474.98 186.51,-478.15"/>
</g>
<!-- Node6 -->
<g id="node6" class="node">
<title>Node6</title>
<g id="a_node6"><a xlink:href="nts__utils_8hpp.html" target="_top" xlink:title=": Utilities and helpers for the Network&#45;Transport&#45;Stack (NTS) components.">
<polygon fill="none" stroke="black" points="365.81,-392.5 365.81,-411.5 444.81,-411.5 444.81,-392.5 365.81,-392.5"/>
<text text-anchor="middle" x="405.31" y="-399.5" font-family="Helvetica,sans-Serif" font-size="10.00">nts_utils.hpp</text>
</a>
</g>
</g>
<!-- Node1&#45;&gt;Node6 -->
<g id="edge5" class="edge">
<title>Node1&#45;&gt;Node6</title>
<path fill="none" stroke="midnightblue" d="M222.25,-516.92C263.58,-509.82 317.21,-495.74 357.31,-468 374.74,-455.94 388.32,-435.47 396.52,-420.72"/>
<polygon fill="midnightblue" stroke="midnightblue" points="399.76,-422.07 401.32,-411.59 393.57,-418.81 399.76,-422.07"/>
</g>
<!-- Node23 -->
<g id="node23" class="node">
<title>Node23</title>
<g id="a_node23"><a xlink:href="SimNtsUtils_8hpp.html" target="_top" xlink:title=": Utilities for the simulation of the Network&#45;Transport&#45;Stack (NTS) components.">
<polygon fill="none" stroke="black" points="234.81,-448.5 234.81,-467.5 329.81,-467.5 329.81,-448.5 234.81,-448.5"/>
<text text-anchor="middle" x="282.31" y="-455.5" font-family="Helvetica,sans-Serif" font-size="10.00">SimNtsUtils.hpp</text>
</a>
</g>
</g>
<!-- Node1&#45;&gt;Node23 -->
<g id="edge32" class="edge">
<title>Node1&#45;&gt;Node23</title>
<path fill="none" stroke="midnightblue" d="M196.21,-504.5C215.8,-494.15 239.36,-481.69 256.89,-472.43"/>
<polygon fill="midnightblue" stroke="midnightblue" points="258.73,-475.42 265.94,-467.65 255.46,-469.23 258.73,-475.42"/>
</g>
<!-- Node7 -->
<g id="node7" class="node">
<title>Node7</title>
<g id="a_node7"><a xlink:href="mem_8hpp.html" target="_top" xlink:title=": Memory Sub&#45;System (MEM) for the cloudFPGA shell.">
<polygon fill="none" stroke="black" points="364.81,-336.5 364.81,-355.5 463.81,-355.5 463.81,-336.5 364.81,-336.5"/>
<text text-anchor="middle" x="414.31" y="-343.5" font-family="Helvetica,sans-Serif" font-size="10.00">../MEM/mem.hpp</text>
</a>
</g>
</g>
<!-- Node6&#45;&gt;Node7 -->
<g id="edge6" class="edge">
<title>Node6&#45;&gt;Node7</title>
<path fill="none" stroke="midnightblue" d="M406.79,-392.08C407.99,-384.93 409.7,-374.64 411.19,-365.69"/>
<polygon fill="midnightblue" stroke="midnightblue" points="414.66,-366.19 412.85,-355.75 407.75,-365.04 414.66,-366.19"/>
</g>
<!-- Node9 -->
<g id="node9" class="node">
<title>Node9</title>
<g id="a_node9"><a xlink:href="nts_8hpp.html" target="_top" xlink:title=": Definition of the Network Transport Stack (NTS) component as if it was an HLS IP core.">
<polygon fill="none" stroke="black" points="262.31,-336.5 262.31,-355.5 346.31,-355.5 346.31,-336.5 262.31,-336.5"/>
<text text-anchor="middle" x="304.31" y="-343.5" font-family="Helvetica,sans-Serif" font-size="10.00">../NTS/nts.hpp</text>
</a>
</g>
</g>
<!-- Node6&#45;&gt;Node9 -->
<g id="edge8" class="edge">
<title>Node6&#45;&gt;Node9</title>
<path fill="none" stroke="midnightblue" d="M389.08,-392.32C372.96,-383.7 348.01,-370.36 329.34,-360.39"/>
<polygon fill="midnightblue" stroke="midnightblue" points="330.96,-357.28 320.5,-355.65 327.66,-363.46 330.96,-357.28"/>
</g>
<!-- Node8 -->
<g id="node8" class="node">
<title>Node8</title>
<g id="a_node8"><a xlink:title=" ">
<polygon fill="none" stroke="#bfbfbf" points="650.31,-0.5 650.31,-19.5 706.31,-19.5 706.31,-0.5 650.31,-0.5"/>
<text text-anchor="middle" x="678.31" y="-7.5" font-family="Helvetica,sans-Serif" font-size="10.00">ap_int.h</text>
</a>
</g>
</g>
<!-- Node7&#45;&gt;Node8 -->
<g id="edge7" class="edge">
<title>Node7&#45;&gt;Node8</title>
<path fill="none" stroke="midnightblue" d="M462.3,-336.45C542.55,-320.77 695.31,-284.44 695.31,-235 695.31,-235 695.31,-235 695.31,-121 695.31,-88.58 688.01,-51.42 682.98,-29.64"/>
<polygon fill="midnightblue" stroke="midnightblue" points="686.34,-28.67 680.6,-19.77 679.54,-30.31 686.34,-28.67"/>
</g>
<!-- Node10 -->
<g id="node10" class="node">
<title>Node10</title>
<g id="a_node10"><a xlink:href="nts__types_8hpp.html" target="_top" xlink:title=": Definition of the types used by the Network Transport Stack (NTS) component of the cloudFPGA shell.">
<polygon fill="none" stroke="black" points="394.81,-280.5 394.81,-299.5 479.81,-299.5 479.81,-280.5 394.81,-280.5"/>
<text text-anchor="middle" x="437.31" y="-287.5" font-family="Helvetica,sans-Serif" font-size="10.00">nts_types.hpp</text>
</a>
</g>
</g>
<!-- Node9&#45;&gt;Node10 -->
<g id="edge9" class="edge">
<title>Node9&#45;&gt;Node10</title>
<path fill="none" stroke="midnightblue" d="M325.38,-336.44C347.37,-327.52 382.04,-313.44 406.97,-303.32"/>
<polygon fill="midnightblue" stroke="midnightblue" points="408.38,-306.52 416.33,-299.52 405.75,-300.04 408.38,-306.52"/>
</g>
<!-- Node20 -->
<g id="node20" class="node">
<title>Node20</title>
<g id="a_node20"><a xlink:href="nts__config_8hpp.html" target="_top" xlink:title=": Configuration parameters for the Network Transport Stack (NTS) component and sub&#45;components.">
<polygon fill="none" stroke="black" points="260.81,-280.5 260.81,-299.5 347.81,-299.5 347.81,-280.5 260.81,-280.5"/>
<text text-anchor="middle" x="304.31" y="-287.5" font-family="Helvetica,sans-Serif" font-size="10.00">nts_config.hpp</text>
</a>
</g>
</g>
<!-- Node9&#45;&gt;Node20 -->
<g id="edge29" class="edge">
<title>Node9&#45;&gt;Node20</title>
<path fill="none" stroke="midnightblue" d="M304.31,-336.08C304.31,-329.01 304.31,-318.86 304.31,-309.99"/>
<polygon fill="midnightblue" stroke="midnightblue" points="307.81,-309.75 304.31,-299.75 300.81,-309.75 307.81,-309.75"/>
</g>
<!-- Node11 -->
<g id="node11" class="node">
<title>Node11</title>
<g id="a_node11"><a xlink:title=" ">
<polygon fill="none" stroke="#bfbfbf" points="519.31,-0.5 519.31,-19.5 599.31,-19.5 599.31,-0.5 519.31,-0.5"/>
<text text-anchor="middle" x="559.31" y="-7.5" font-family="Helvetica,sans-Serif" font-size="10.00">hls_stream.h</text>
</a>
</g>
</g>
<!-- Node10&#45;&gt;Node11 -->
<g id="edge10" class="edge">
<title>Node10&#45;&gt;Node11</title>
<path fill="none" stroke="midnightblue" d="M479.99,-286.41C543.97,-279.96 657.31,-257.47 657.31,-179 657.31,-179 657.31,-179 657.31,-121 657.31,-77.38 613.82,-43.06 584.78,-25.01"/>
<polygon fill="midnightblue" stroke="midnightblue" points="586.31,-21.85 575.93,-19.73 582.73,-27.86 586.31,-21.85"/>
</g>
<!-- Node12 -->
<g id="node12" class="node">
<title>Node12</title>
<g id="a_node12"><a xlink:href="AxisEth_8hpp.html" target="_top" xlink:title=": A class to access an ETHernet data chunk transmitted over an AXI4&#45;Stream interface.">
<polygon fill="none" stroke="black" points="356.31,-224.5 356.31,-243.5 430.31,-243.5 430.31,-224.5 356.31,-224.5"/>
<text text-anchor="middle" x="393.31" y="-231.5" font-family="Helvetica,sans-Serif" font-size="10.00">AxisEth.hpp</text>
</a>
</g>
</g>
<!-- Node10&#45;&gt;Node12 -->
<g id="edge11" class="edge">
<title>Node10&#45;&gt;Node12</title>
<path fill="none" stroke="midnightblue" d="M430.04,-280.08C423.76,-272.38 414.52,-261.03 406.88,-251.65"/>
<polygon fill="midnightblue" stroke="midnightblue" points="409.47,-249.29 400.44,-243.75 404.04,-253.71 409.47,-249.29"/>
</g>
<!-- Node16 -->
<g id="node16" class="node">
<title>Node16</title>
<g id="a_node16"><a xlink:href="AxisIp4_8hpp.html" target="_top" xlink:title=": A class to access an IPv4 data chunk transmitted over an AXI4&#45;Stream interface.">
<polygon fill="none" stroke="black" points="421.31,-168.5 421.31,-187.5 495.31,-187.5 495.31,-168.5 421.31,-168.5"/>
<text text-anchor="middle" x="458.31" y="-175.5" font-family="Helvetica,sans-Serif" font-size="10.00">AxisIp4.hpp</text>
</a>
</g>
</g>
<!-- Node10&#45;&gt;Node16 -->
<g id="edge28" class="edge">
<title>Node10&#45;&gt;Node16</title>
<path fill="none" stroke="midnightblue" d="M438.96,-280.37C442.35,-262.62 450.16,-221.67 454.76,-197.6"/>
<polygon fill="midnightblue" stroke="midnightblue" points="458.23,-198.07 456.67,-187.59 451.36,-196.76 458.23,-198.07"/>
</g>
<!-- Node13 -->
<g id="node13" class="node">
<title>Node13</title>
<g id="a_node13"><a xlink:href="AxisRaw_8hpp.html" target="_top" xlink:title=": A generic class used by the Network&#45;Transport&#45;Stack (NTS) to to transfer a chunk of data over an AX...">
<polygon fill="none" stroke="black" points="418.81,-56.5 418.81,-75.5 497.81,-75.5 497.81,-56.5 418.81,-56.5"/>
<text text-anchor="middle" x="458.31" y="-63.5" font-family="Helvetica,sans-Serif" font-size="10.00">AxisRaw.hpp</text>
</a>
</g>
</g>
<!-- Node12&#45;&gt;Node13 -->
<g id="edge12" class="edge">
<title>Node12&#45;&gt;Node13</title>
<path fill="none" stroke="midnightblue" d="M379.38,-224.32C348.83,-204.21 280.98,-153.01 311.31,-112 333.46,-82.05 375.15,-71.38 408.49,-67.87"/>
<polygon fill="midnightblue" stroke="midnightblue" points="408.88,-71.35 418.54,-67 408.27,-64.38 408.88,-71.35"/>
</g>
<!-- Node15 -->
<g id="node15" class="node">
<title>Node15</title>
<g id="a_node15"><a xlink:href="AxisArp_8hpp.html" target="_top" xlink:title=": A class to access an ARP data chunk transmitted over an AXI4&#45;Stream interface.">
<polygon fill="none" stroke="black" points="215.81,-168.5 215.81,-187.5 290.81,-187.5 290.81,-168.5 215.81,-168.5"/>
<text text-anchor="middle" x="253.31" y="-175.5" font-family="Helvetica,sans-Serif" font-size="10.00">AxisArp.hpp</text>
</a>
</g>
</g>
<!-- Node12&#45;&gt;Node15 -->
<g id="edge17" class="edge">
<title>Node12&#45;&gt;Node15</title>
<path fill="none" stroke="midnightblue" d="M366.04,-224.44C341.05,-215.56 304.53,-201.56 279.8,-191.45"/>
<polygon fill="midnightblue" stroke="midnightblue" points="280.89,-188.11 270.31,-187.52 278.21,-194.58 280.89,-188.11"/>
</g>
<!-- Node12&#45;&gt;Node16 -->
<g id="edge20" class="edge">
<title>Node12&#45;&gt;Node16</title>
<path fill="none" stroke="midnightblue" d="M403.75,-224.32C413.46,-216.26 428.12,-204.08 439.81,-194.37"/>
<polygon fill="midnightblue" stroke="midnightblue" points="442.22,-196.92 447.68,-187.83 437.75,-191.53 442.22,-196.92"/>
</g>
<!-- Node13&#45;&gt;Node2 -->
<g id="edge14" class="edge">
<title>Node13&#45;&gt;Node2</title>
<path fill="none" stroke="midnightblue" d="M418.61,-57.09C367.45,-46.89 278.97,-29.26 227.54,-19.02"/>
<polygon fill="midnightblue" stroke="midnightblue" points="227.96,-15.53 217.47,-17.01 226.59,-22.4 227.96,-15.53"/>
</g>
<!-- Node13&#45;&gt;Node8 -->
<g id="edge16" class="edge">
<title>Node13&#45;&gt;Node8</title>
<path fill="none" stroke="midnightblue" d="M493.17,-56.44C533.27,-46.6 598.88,-30.5 640.27,-20.34"/>
<polygon fill="midnightblue" stroke="midnightblue" points="641.37,-23.67 650.24,-17.89 639.7,-16.87 641.37,-23.67"/>
</g>
<!-- Node13&#45;&gt;Node11 -->
<g id="edge15" class="edge">
<title>Node13&#45;&gt;Node11</title>
<path fill="none" stroke="midnightblue" d="M474.54,-56.32C490.66,-47.7 515.61,-34.36 534.27,-24.39"/>
<polygon fill="midnightblue" stroke="midnightblue" points="535.95,-27.46 543.12,-19.65 532.65,-21.28 535.95,-27.46"/>
</g>
<!-- Node14 -->
<g id="node14" class="node">
<title>Node14</title>
<g id="a_node14"><a xlink:title=" ">
<polygon fill="none" stroke="#bfbfbf" points="432.31,-0.5 432.31,-19.5 484.31,-19.5 484.31,-0.5 432.31,-0.5"/>
<text text-anchor="middle" x="458.31" y="-7.5" font-family="Helvetica,sans-Serif" font-size="10.00">cassert</text>
</a>
</g>
</g>
<!-- Node13&#45;&gt;Node14 -->
<g id="edge13" class="edge">
<title>Node13&#45;&gt;Node14</title>
<path fill="none" stroke="midnightblue" d="M458.31,-56.08C458.31,-49.01 458.31,-38.86 458.31,-29.99"/>
<polygon fill="midnightblue" stroke="midnightblue" points="461.81,-29.75 458.31,-19.75 454.81,-29.75 461.81,-29.75"/>
</g>
<!-- Node15&#45;&gt;Node12 -->
<g id="edge19" class="edge">
<title>Node15&#45;&gt;Node12</title>
<path fill="none" stroke="midnightblue" d="M280.47,-187.52C305.42,-196.39 341.94,-210.38 366.71,-220.5"/>
<polygon fill="midnightblue" stroke="midnightblue" points="365.64,-223.85 376.21,-224.44 368.32,-217.38 365.64,-223.85"/>
</g>
<!-- Node15&#45;&gt;Node13 -->
<g id="edge18" class="edge">
<title>Node15&#45;&gt;Node13</title>
<path fill="none" stroke="midnightblue" d="M253.97,-168.43C255.52,-154.48 260.64,-126.93 277.31,-112 313.14,-79.91 368.35,-69.91 408.37,-67.17"/>
<polygon fill="midnightblue" stroke="midnightblue" points="408.66,-70.66 418.45,-66.61 408.27,-63.67 408.66,-70.66"/>
</g>
<!-- Node16&#45;&gt;Node13 -->
<g id="edge21" class="edge">
<title>Node16&#45;&gt;Node13</title>
<path fill="none" stroke="midnightblue" d="M495.47,-176.67C528.96,-174.14 576.48,-164.55 600.31,-132 626.91,-95.67 559.25,-79.12 508.42,-71.98"/>
<polygon fill="midnightblue" stroke="midnightblue" points="508.57,-68.47 498.2,-70.63 507.65,-75.41 508.57,-68.47"/>
</g>
<!-- Node17 -->
<g id="node17" class="node">
<title>Node17</title>
<g id="a_node17"><a xlink:href="AxisIcmp_8hpp.html" target="_top" xlink:title=": A class to access ICMP header fields within data chunks transmitted over an AXI4&#45;Stream interface.">
<polygon fill="none" stroke="black" points="319.81,-112.5 319.81,-131.5 402.81,-131.5 402.81,-112.5 319.81,-112.5"/>
<text text-anchor="middle" x="361.31" y="-119.5" font-family="Helvetica,sans-Serif" font-size="10.00">AxisIcmp.hpp</text>
</a>
</g>
</g>
<!-- Node16&#45;&gt;Node17 -->
<g id="edge22" class="edge">
<title>Node16&#45;&gt;Node17</title>
<path fill="none" stroke="midnightblue" d="M442.72,-168.32C427.31,-159.74 403.5,-146.49 385.6,-136.52"/>
<polygon fill="midnightblue" stroke="midnightblue" points="387.29,-133.46 376.85,-131.65 383.89,-139.58 387.29,-133.46"/>
</g>
<!-- Node18 -->
<g id="node18" class="node">
<title>Node18</title>
<g id="a_node18"><a xlink:href="AxisTcp_8hpp.html" target="_top" xlink:title=": A class to access TCP header fields within data chunks transmitted over an AXI4&#45;Stream interface.">
<polygon fill="none" stroke="black" points="421.31,-112.5 421.31,-131.5 495.31,-131.5 495.31,-112.5 421.31,-112.5"/>
<text text-anchor="middle" x="458.31" y="-119.5" font-family="Helvetica,sans-Serif" font-size="10.00">AxisTcp.hpp</text>
</a>
</g>
</g>
<!-- Node16&#45;&gt;Node18 -->
<g id="edge24" class="edge">
<title>Node16&#45;&gt;Node18</title>
<path fill="none" stroke="midnightblue" d="M458.31,-168.08C458.31,-161.01 458.31,-150.86 458.31,-141.99"/>
<polygon fill="midnightblue" stroke="midnightblue" points="461.81,-141.75 458.31,-131.75 454.81,-141.75 461.81,-141.75"/>
</g>
<!-- Node19 -->
<g id="node19" class="node">
<title>Node19</title>
<g id="a_node19"><a xlink:href="AxisUdp_8hpp.html" target="_top" xlink:title=": A class to access UDP header fields within data chunks transmitted over an AXI4&#45;Stream interface.">
<polygon fill="none" stroke="black" points="513.31,-112.5 513.31,-131.5 591.31,-131.5 591.31,-112.5 513.31,-112.5"/>
<text text-anchor="middle" x="552.31" y="-119.5" font-family="Helvetica,sans-Serif" font-size="10.00">AxisUdp.hpp</text>
</a>
</g>
</g>
<!-- Node16&#45;&gt;Node19 -->
<g id="edge26" class="edge">
<title>Node16&#45;&gt;Node19</title>
<path fill="none" stroke="midnightblue" d="M473.41,-168.32C488.21,-159.82 511,-146.73 528.29,-136.8"/>
<polygon fill="midnightblue" stroke="midnightblue" points="530.32,-139.67 537.24,-131.65 526.83,-133.6 530.32,-139.67"/>
</g>
<!-- Node17&#45;&gt;Node13 -->
<g id="edge23" class="edge">
<title>Node17&#45;&gt;Node13</title>
<path fill="none" stroke="midnightblue" d="M376.89,-112.32C392.31,-103.74 416.12,-90.49 434.02,-80.52"/>
<polygon fill="midnightblue" stroke="midnightblue" points="435.73,-83.58 442.76,-75.65 432.32,-77.46 435.73,-83.58"/>
</g>
<!-- Node18&#45;&gt;Node13 -->
<g id="edge25" class="edge">
<title>Node18&#45;&gt;Node13</title>
<path fill="none" stroke="midnightblue" d="M458.31,-112.08C458.31,-105.01 458.31,-94.86 458.31,-85.99"/>
<polygon fill="midnightblue" stroke="midnightblue" points="461.81,-85.75 458.31,-75.75 454.81,-85.75 461.81,-85.75"/>
</g>
<!-- Node19&#45;&gt;Node13 -->
<g id="edge27" class="edge">
<title>Node19&#45;&gt;Node13</title>
<path fill="none" stroke="midnightblue" d="M537.21,-112.32C522.41,-103.82 499.61,-90.73 482.33,-80.8"/>
<polygon fill="midnightblue" stroke="midnightblue" points="483.79,-77.6 473.37,-75.65 480.3,-83.67 483.79,-77.6"/>
</g>
<!-- Node21 -->
<g id="node21" class="node">
<title>Node21</title>
<g id="a_node21"><a xlink:title=" ">
<polygon fill="none" stroke="#bfbfbf" points="215.81,-224.5 215.81,-243.5 268.81,-243.5 268.81,-224.5 215.81,-224.5"/>
<text text-anchor="middle" x="242.31" y="-231.5" font-family="Helvetica,sans-Serif" font-size="10.00">stdint.h</text>
</a>
</g>
</g>
<!-- Node20&#45;&gt;Node21 -->
<g id="edge30" class="edge">
<title>Node20&#45;&gt;Node21</title>
<path fill="none" stroke="midnightblue" d="M294.35,-280.32C285.18,-272.34 271.37,-260.31 260.28,-250.65"/>
<polygon fill="midnightblue" stroke="midnightblue" points="262.29,-247.76 252.45,-243.83 257.69,-253.04 262.29,-247.76"/>
</g>
<!-- Node22 -->
<g id="node22" class="node">
<title>Node22</title>
<g id="a_node22"><a xlink:title=" ">
<polygon fill="none" stroke="#bfbfbf" points="286.81,-224.5 286.81,-243.5 337.81,-243.5 337.81,-224.5 286.81,-224.5"/>
<text text-anchor="middle" x="312.31" y="-231.5" font-family="Helvetica,sans-Serif" font-size="10.00">math.h</text>
</a>
</g>
</g>
<!-- Node20&#45;&gt;Node22 -->
<g id="edge31" class="edge">
<title>Node20&#45;&gt;Node22</title>
<path fill="none" stroke="midnightblue" d="M305.63,-280.08C306.69,-272.93 308.21,-262.64 309.54,-253.69"/>
<polygon fill="midnightblue" stroke="midnightblue" points="313.01,-254.16 311.01,-243.75 306.08,-253.13 313.01,-254.16"/>
</g>
<!-- Node23&#45;&gt;Node2 -->
<g id="edge35" class="edge">
<title>Node23&#45;&gt;Node2</title>
<path fill="none" stroke="midnightblue" d="M266.62,-448.4C239.64,-432.31 187.31,-394.94 187.31,-347 187.31,-347 187.31,-347 187.31,-121 187.31,-88.95 187.31,-51.64 187.31,-29.75"/>
<polygon fill="midnightblue" stroke="midnightblue" points="190.81,-29.56 187.31,-19.56 183.81,-29.56 190.81,-29.56"/>
</g>
<!-- Node23&#45;&gt;Node6 -->
<g id="edge39" class="edge">
<title>Node23&#45;&gt;Node6</title>
<path fill="none" stroke="midnightblue" d="M301.8,-448.44C321.95,-439.6 353.63,-425.69 376.64,-415.59"/>
<polygon fill="midnightblue" stroke="midnightblue" points="378.16,-418.74 385.91,-411.52 375.35,-412.33 378.16,-418.74"/>
</g>
<!-- Node23&#45;&gt;Node7 -->
<g id="edge37" class="edge">
<title>Node23&#45;&gt;Node7</title>
<path fill="none" stroke="midnightblue" d="M291.9,-448.44C306.04,-435.87 333.41,-411.77 357.31,-392 369.57,-381.85 383.6,-370.77 394.68,-362.14"/>
<polygon fill="midnightblue" stroke="midnightblue" points="397.08,-364.71 402.83,-355.81 392.78,-359.18 397.08,-364.71"/>
</g>
<!-- Node23&#45;&gt;Node9 -->
<g id="edge38" class="edge">
<title>Node23&#45;&gt;Node9</title>
<path fill="none" stroke="midnightblue" d="M271.77,-448.29C258.17,-435.94 237.36,-412.53 247.31,-392 253.71,-378.8 266.06,-368.3 277.64,-360.78"/>
<polygon fill="midnightblue" stroke="midnightblue" points="279.46,-363.77 286.23,-355.61 275.85,-357.77 279.46,-363.77"/>
</g>
<!-- Node23&#45;&gt;Node23 -->
<g id="edge40" class="edge">
<title>Node23&#45;&gt;Node23</title>
<path fill="none" stroke="midnightblue" d="M310.24,-467.53C329.23,-470.31 347.81,-467.13 347.81,-458 347.81,-450.51 335.3,-447.03 320.33,-447.55"/>
<polygon fill="midnightblue" stroke="midnightblue" points="319.88,-444.08 310.24,-448.47 320.52,-451.05 319.88,-444.08"/>
</g>
<!-- Node24 -->
<g id="node24" class="node">
<title>Node24</title>
<g id="a_node24"><a xlink:title=" ">
<polygon fill="none" stroke="#bfbfbf" points="255.81,-392.5 255.81,-411.5 308.81,-411.5 308.81,-392.5 255.81,-392.5"/>
<text text-anchor="middle" x="282.31" y="-399.5" font-family="Helvetica,sans-Serif" font-size="10.00">stdlib.h</text>
</a>
</g>
</g>
<!-- Node23&#45;&gt;Node24 -->
<g id="edge33" class="edge">
<title>Node23&#45;&gt;Node24</title>
<path fill="none" stroke="midnightblue" d="M282.31,-448.08C282.31,-441.01 282.31,-430.86 282.31,-421.99"/>
<polygon fill="midnightblue" stroke="midnightblue" points="285.81,-421.75 282.31,-411.75 278.81,-421.75 285.81,-421.75"/>
</g>
<!-- Node25 -->
<g id="node25" class="node">
<title>Node25</title>
<g id="a_node25"><a xlink:title=" ">
<polygon fill="none" stroke="#bfbfbf" points="29.31,-392.5 29.31,-411.5 85.31,-411.5 85.31,-392.5 29.31,-392.5"/>
<text text-anchor="middle" x="57.31" y="-399.5" font-family="Helvetica,sans-Serif" font-size="10.00">unistd.h</text>
</a>
</g>
</g>
<!-- Node23&#45;&gt;Node25 -->
<g id="edge34" class="edge">
<title>Node23&#45;&gt;Node25</title>
<path fill="none" stroke="midnightblue" d="M246.61,-448.5C210.78,-439.95 153.74,-426.33 95.35,-412.25"/>
<polygon fill="midnightblue" stroke="midnightblue" points="96.13,-408.83 85.59,-409.89 94.49,-415.64 96.13,-408.83"/>
</g>
<!-- Node26 -->
<g id="node26" class="node">
<title>Node26</title>
<g id="a_node26"><a xlink:title=" ">
<polygon fill="none" stroke="#bfbfbf" points="103.81,-392.5 103.81,-411.5 158.81,-411.5 158.81,-392.5 103.81,-392.5"/>
<text text-anchor="middle" x="131.31" y="-399.5" font-family="Helvetica,sans-Serif" font-size="10.00">fstream</text>
</a>
</g>
</g>
<!-- Node23&#45;&gt;Node26 -->
<g id="edge36" class="edge">
<title>Node23&#45;&gt;Node26</title>
<path fill="none" stroke="midnightblue" d="M258.38,-448.44C233.09,-439.4 193.01,-425.06 164.63,-414.92"/>
<polygon fill="midnightblue" stroke="midnightblue" points="165.72,-411.59 155.12,-411.52 163.36,-418.18 165.72,-411.59"/>
</g>
</g>
</svg>
