<?xml version="1.0" encoding="UTF-8" standalone="no"?>
<!DOCTYPE svg PUBLIC "-//W3C//DTD SVG 1.1//EN"
 "http://www.w3.org/Graphics/SVG/1.1/DTD/svg11.dtd">
<!-- Generated by graphviz version 2.43.0 (0)
 -->
<!-- Title: repos_for_Dox/cFDK/SRA/LIB/SHELL/LIB/hls/NTS/SimEthFrame.hpp Pages: 1 -->
<!--zoomable 666 -->
<svg id="main" version="1.1" xmlns="http://www.w3.org/2000/svg" xmlns:xlink="http://www.w3.org/1999/xlink" xml:space="preserve" onload="init(evt)">
<style type="text/css"><![CDATA[
.edge:hover path { stroke: red; }
.edge:hover polygon { stroke: red; fill: red; }
]]></style>
<script type="text/javascript"><![CDATA[
var edges = document.getElementsByTagName('g');
if (edges && edges.length) {
  for (var i=0;i<edges.length;i++) {
    if (edges[i].id.substr(0,4)=='edge') {
      edges[i].setAttribute('class','edge');
    }
  }
}
]]></script>
        <defs>
                <circle id="rim" cx="0" cy="0" r="7"/>
                <circle id="rim2" cx="0" cy="0" r="3.5"/>
                <g id="zoomPlus">
                        <use xlink:href="#rim" fill="#404040">
                                <set attributeName="fill" to="#808080" begin="zoomplus.mouseover" end="zoomplus.mouseout"/>
                        </use>
                        <path d="M-4,0h8M0,-4v8" fill="none" stroke="white" stroke-width="1.5" pointer-events="none"/>
                </g>
                <g id="zoomMin">
                        <use xlink:href="#rim" fill="#404040">
                                <set attributeName="fill" to="#808080" begin="zoomminus.mouseover" end="zoomminus.mouseout"/>
                        </use>
                        <path d="M-4,0h8" fill="none" stroke="white" stroke-width="1.5" pointer-events="none"/>
                </g>
                <g id="dirArrow">
                        <path fill="none" stroke="white" stroke-width="1.5" d="M0,-3.0v7 M-2.5,-0.5L0,-3.0L2.5,-0.5"/>
                </g>
               <g id="resetDef">
                       <use xlink:href="#rim2" fill="#404040">
                               <set attributeName="fill" to="#808080" begin="reset.mouseover" end="reset.mouseout"/>
                       </use>
               </g>
        </defs>

<script type="text/javascript">
var viewWidth = 1219;
var viewHeight = 666;
var sectionId = 'dynsection-0';
</script>
<script xlink:href="svgpan.js"/>
<svg id="graph" class="graph">
<g id="viewport">
<title>repos_for_Dox/cFDK/SRA/LIB/SHELL/LIB/hls/NTS/SimEthFrame.hpp</title>
<!-- Node1 -->
<g id="node1" class="node">
<title>Node1</title>
<g id="a_node1"><a xlink:title=": A simulation class to build and handle Ethernet frames.">
<polygon fill="#bfbfbf" stroke="black" points="501,-616.5 501,-657.5 629,-657.5 629,-616.5 501,-616.5"/>
<text text-anchor="start" x="509" y="-645.5" font-family="Helvetica,sans-Serif" font-size="10.00">repos_for_Dox/cFDK</text>
<text text-anchor="start" x="509" y="-634.5" font-family="Helvetica,sans-Serif" font-size="10.00">/SRA/LIB/SHELL/LIB/hls</text>
<text text-anchor="middle" x="565" y="-623.5" font-family="Helvetica,sans-Serif" font-size="10.00">/NTS/SimEthFrame.hpp</text>
</a>
</g>
</g>
<!-- Node2 -->
<g id="node2" class="node">
<title>Node2</title>
<g id="a_node2"><a xlink:href="nts__utils_8hpp.html" target="_top" xlink:title=": Utilities and helpers for the Network&#45;Transport&#45;Stack (NTS) components.">
<polygon fill="none" stroke="black" points="399.5,-392.5 399.5,-411.5 478.5,-411.5 478.5,-392.5 399.5,-392.5"/>
<text text-anchor="middle" x="439" y="-399.5" font-family="Helvetica,sans-Serif" font-size="10.00">nts_utils.hpp</text>
</a>
</g>
</g>
<!-- Node1&#45;&gt;Node2 -->
<g id="edge1" class="edge">
<title>Node1&#45;&gt;Node2</title>
<path fill="none" stroke="midnightblue" d="M534.95,-616.42C506.96,-596.54 466.31,-563.18 444,-524 425.69,-491.84 430.2,-446.69 434.8,-421.63"/>
<polygon fill="midnightblue" stroke="midnightblue" points="438.27,-422.14 436.84,-411.64 431.41,-420.74 438.27,-422.14"/>
</g>
<!-- Node20 -->
<g id="node20" class="node">
<title>Node20</title>
<g id="a_node20"><a xlink:href="SimIp4Packet_8hpp.html" target="_top" xlink:title=": A simulation class to build and handle IPv4 packets.">
<polygon fill="none" stroke="black" points="663.5,-560.5 663.5,-579.5 766.5,-579.5 766.5,-560.5 663.5,-560.5"/>
<text text-anchor="middle" x="715" y="-567.5" font-family="Helvetica,sans-Serif" font-size="10.00">SimIp4Packet.hpp</text>
</a>
</g>
</g>
<!-- Node1&#45;&gt;Node20 -->
<g id="edge28" class="edge">
<title>Node1&#45;&gt;Node20</title>
<path fill="none" stroke="midnightblue" d="M610,-616.5C634.55,-605.86 664.23,-593 685.76,-583.67"/>
<polygon fill="midnightblue" stroke="midnightblue" points="687.25,-586.84 695.03,-579.65 684.47,-580.42 687.25,-586.84"/>
</g>
<!-- Node27 -->
<g id="node27" class="node">
<title>Node27</title>
<g id="a_node27"><a xlink:href="SimNtsUtils_8hpp.html" target="_top" xlink:title=": Utilities for the simulation of the Network&#45;Transport&#45;Stack (NTS) components.">
<polygon fill="none" stroke="black" points="145.5,-448.5 145.5,-467.5 240.5,-467.5 240.5,-448.5 145.5,-448.5"/>
<text text-anchor="middle" x="193" y="-455.5" font-family="Helvetica,sans-Serif" font-size="10.00">SimNtsUtils.hpp</text>
</a>
</g>
</g>
<!-- Node1&#45;&gt;Node27 -->
<g id="edge63" class="edge">
<title>Node1&#45;&gt;Node27</title>
<path fill="none" stroke="midnightblue" d="M500.79,-625.36C406.31,-608.27 237,-571.74 200,-524 189.91,-510.97 189.01,-491.82 190.13,-477.67"/>
<polygon fill="midnightblue" stroke="midnightblue" points="193.62,-477.96 191.31,-467.62 186.66,-477.14 193.62,-477.96"/>
</g>
<!-- Node32 -->
<g id="node32" class="node">
<title>Node32</title>
<g id="a_node32"><a xlink:href="SimArpPacket_8hpp.html" target="_top" xlink:title=": A simulation class to build and handle ARP packets.">
<polygon fill="none" stroke="black" points="880,-448.5 880,-467.5 984,-467.5 984,-448.5 880,-448.5"/>
<text text-anchor="middle" x="932" y="-455.5" font-family="Helvetica,sans-Serif" font-size="10.00">SimArpPacket.hpp</text>
</a>
</g>
</g>
<!-- Node1&#45;&gt;Node32 -->
<g id="edge60" class="edge">
<title>Node1&#45;&gt;Node32</title>
<path fill="none" stroke="midnightblue" d="M629.43,-624.1C672.09,-614.98 728.69,-600.45 776,-580 819.24,-561.31 828.99,-553.15 866,-524 885.04,-509 904.54,-489.13 917.35,-475.33"/>
<polygon fill="midnightblue" stroke="midnightblue" points="920.24,-477.36 924.41,-467.61 915.08,-472.63 920.24,-477.36"/>
</g>
<!-- Node3 -->
<g id="node3" class="node">
<title>Node3</title>
<g id="a_node3"><a xlink:href="mem_8hpp.html" target="_top" xlink:title=": Memory Sub&#45;System (MEM) for the cloudFPGA shell.">
<polygon fill="none" stroke="black" points="243.5,-336.5 243.5,-355.5 342.5,-355.5 342.5,-336.5 243.5,-336.5"/>
<text text-anchor="middle" x="293" y="-343.5" font-family="Helvetica,sans-Serif" font-size="10.00">../MEM/mem.hpp</text>
</a>
</g>
</g>
<!-- Node2&#45;&gt;Node3 -->
<g id="edge2" class="edge">
<title>Node2&#45;&gt;Node3</title>
<path fill="none" stroke="midnightblue" d="M415.87,-392.44C391.52,-383.44 352.99,-369.19 325.58,-359.05"/>
<polygon fill="midnightblue" stroke="midnightblue" points="326.62,-355.7 316.03,-355.52 324.19,-362.27 326.62,-355.7"/>
</g>
<!-- Node5 -->
<g id="node5" class="node">
<title>Node5</title>
<g id="a_node5"><a xlink:href="nts_8hpp.html" target="_top" xlink:title=": Definition of the Network Transport Stack (NTS) component as if it was an HLS IP core.">
<polygon fill="none" stroke="black" points="742,-336.5 742,-355.5 826,-355.5 826,-336.5 742,-336.5"/>
<text text-anchor="middle" x="784" y="-343.5" font-family="Helvetica,sans-Serif" font-size="10.00">../NTS/nts.hpp</text>
</a>
</g>
</g>
<!-- Node2&#45;&gt;Node5 -->
<g id="edge4" class="edge">
<title>Node2&#45;&gt;Node5</title>
<path fill="none" stroke="midnightblue" d="M478.58,-394.81C540.95,-385.04 662.16,-366.07 731.66,-355.19"/>
<polygon fill="midnightblue" stroke="midnightblue" points="732.6,-358.59 741.94,-353.58 731.52,-351.67 732.6,-358.59"/>
</g>
<!-- Node4 -->
<g id="node4" class="node">
<title>Node4</title>
<g id="a_node4"><a xlink:title=" ">
<polygon fill="none" stroke="#bfbfbf" points="539,-0.5 539,-19.5 595,-19.5 595,-0.5 539,-0.5"/>
<text text-anchor="middle" x="567" y="-7.5" font-family="Helvetica,sans-Serif" font-size="10.00">ap_int.h</text>
</a>
</g>
</g>
<!-- Node3&#45;&gt;Node4 -->
<g id="edge3" class="edge">
<title>Node3&#45;&gt;Node4</title>
<path fill="none" stroke="midnightblue" d="M295.7,-336.26C301.16,-317.77 313,-273.24 313,-235 313,-235 313,-235 313,-121 313,-28.21 457.5,-12.82 528.52,-10.85"/>
<polygon fill="midnightblue" stroke="midnightblue" points="528.92,-14.35 538.85,-10.65 528.78,-7.35 528.92,-14.35"/>
</g>
<!-- Node6 -->
<g id="node6" class="node">
<title>Node6</title>
<g id="a_node6"><a xlink:href="nts__types_8hpp.html" target="_top" xlink:title=": Definition of the types used by the Network Transport Stack (NTS) component of the cloudFPGA shell.">
<polygon fill="none" stroke="black" points="900.5,-280.5 900.5,-299.5 985.5,-299.5 985.5,-280.5 900.5,-280.5"/>
<text text-anchor="middle" x="943" y="-287.5" font-family="Helvetica,sans-Serif" font-size="10.00">nts_types.hpp</text>
</a>
</g>
</g>
<!-- Node5&#45;&gt;Node6 -->
<g id="edge5" class="edge">
<title>Node5&#45;&gt;Node6</title>
<path fill="none" stroke="midnightblue" d="M809.19,-336.44C835.94,-327.36 878.4,-312.94 908.31,-302.78"/>
<polygon fill="midnightblue" stroke="midnightblue" points="909.58,-306.05 917.92,-299.52 907.33,-299.42 909.58,-306.05"/>
</g>
<!-- Node17 -->
<g id="node17" class="node">
<title>Node17</title>
<g id="a_node17"><a xlink:href="nts__config_8hpp.html" target="_top" xlink:title=": Configuration parameters for the Network Transport Stack (NTS) component and sub&#45;components.">
<polygon fill="none" stroke="black" points="740.5,-280.5 740.5,-299.5 827.5,-299.5 827.5,-280.5 740.5,-280.5"/>
<text text-anchor="middle" x="784" y="-287.5" font-family="Helvetica,sans-Serif" font-size="10.00">nts_config.hpp</text>
</a>
</g>
</g>
<!-- Node5&#45;&gt;Node17 -->
<g id="edge25" class="edge">
<title>Node5&#45;&gt;Node17</title>
<path fill="none" stroke="midnightblue" d="M784,-336.08C784,-329.01 784,-318.86 784,-309.99"/>
<polygon fill="midnightblue" stroke="midnightblue" points="787.5,-309.75 784,-299.75 780.5,-309.75 787.5,-309.75"/>
</g>
<!-- Node7 -->
<g id="node7" class="node">
<title>Node7</title>
<g id="a_node7"><a xlink:title=" ">
<polygon fill="none" stroke="#bfbfbf" points="1067,-0.5 1067,-19.5 1147,-19.5 1147,-0.5 1067,-0.5"/>
<text text-anchor="middle" x="1107" y="-7.5" font-family="Helvetica,sans-Serif" font-size="10.00">hls_stream.h</text>
</a>
</g>
</g>
<!-- Node6&#45;&gt;Node7 -->
<g id="edge6" class="edge">
<title>Node6&#45;&gt;Node7</title>
<path fill="none" stroke="midnightblue" d="M985.65,-286.33C1045.28,-280.04 1151.68,-258.91 1200,-188 1238.35,-131.73 1163.32,-57.77 1126.15,-26.27"/>
<polygon fill="midnightblue" stroke="midnightblue" points="1128.37,-23.56 1118.43,-19.87 1123.9,-28.95 1128.37,-23.56"/>
</g>
<!-- Node8 -->
<g id="node8" class="node">
<title>Node8</title>
<g id="a_node8"><a xlink:href="AxisEth_8hpp.html" target="_top" xlink:title=": A class to access an ETHernet data chunk transmitted over an AXI4&#45;Stream interface.">
<polygon fill="none" stroke="black" points="910,-224.5 910,-243.5 984,-243.5 984,-224.5 910,-224.5"/>
<text text-anchor="middle" x="947" y="-231.5" font-family="Helvetica,sans-Serif" font-size="10.00">AxisEth.hpp</text>
</a>
</g>
</g>
<!-- Node6&#45;&gt;Node8 -->
<g id="edge7" class="edge">
<title>Node6&#45;&gt;Node8</title>
<path fill="none" stroke="midnightblue" d="M943.66,-280.08C944.18,-273.01 944.94,-262.86 945.59,-253.99"/>
<polygon fill="midnightblue" stroke="midnightblue" points="949.1,-253.98 946.35,-243.75 942.12,-253.47 949.1,-253.98"/>
</g>
<!-- Node13 -->
<g id="node13" class="node">
<title>Node13</title>
<g id="a_node13"><a xlink:href="AxisIp4_8hpp.html" target="_top" xlink:title=": A class to access an IPv4 data chunk transmitted over an AXI4&#45;Stream interface.">
<polygon fill="none" stroke="black" points="807,-168.5 807,-187.5 881,-187.5 881,-168.5 807,-168.5"/>
<text text-anchor="middle" x="844" y="-175.5" font-family="Helvetica,sans-Serif" font-size="10.00">AxisIp4.hpp</text>
</a>
</g>
</g>
<!-- Node6&#45;&gt;Node13 -->
<g id="edge24" class="edge">
<title>Node6&#45;&gt;Node13</title>
<path fill="none" stroke="midnightblue" d="M934.87,-280.45C926.35,-271.45 912.61,-256.84 901,-244 886.3,-227.75 869.82,-208.89 858.38,-195.68"/>
<polygon fill="midnightblue" stroke="midnightblue" points="860.85,-193.18 851.66,-187.91 855.55,-197.76 860.85,-193.18"/>
</g>
<!-- Node9 -->
<g id="node9" class="node">
<title>Node9</title>
<g id="a_node9"><a xlink:href="AxisRaw_8hpp.html" target="_top" xlink:title=": A generic class used by the Network&#45;Transport&#45;Stack (NTS) to to transfer a chunk of data over an AX...">
<polygon fill="none" stroke="black" points="836.5,-56.5 836.5,-75.5 915.5,-75.5 915.5,-56.5 836.5,-56.5"/>
<text text-anchor="middle" x="876" y="-63.5" font-family="Helvetica,sans-Serif" font-size="10.00">AxisRaw.hpp</text>
</a>
</g>
</g>
<!-- Node8&#45;&gt;Node9 -->
<g id="edge8" class="edge">
<title>Node8&#45;&gt;Node9</title>
<path fill="none" stroke="midnightblue" d="M943.18,-224.08C931.96,-197.83 898.9,-120.55 883.75,-85.12"/>
<polygon fill="midnightblue" stroke="midnightblue" points="886.82,-83.39 879.66,-75.57 880.38,-86.14 886.82,-83.39"/>
</g>
<!-- Node12 -->
<g id="node12" class="node">
<title>Node12</title>
<g id="a_node12"><a xlink:href="AxisArp_8hpp.html" target="_top" xlink:title=": A class to access an ARP data chunk transmitted over an AXI4&#45;Stream interface.">
<polygon fill="none" stroke="black" points="939.5,-168.5 939.5,-187.5 1014.5,-187.5 1014.5,-168.5 939.5,-168.5"/>
<text text-anchor="middle" x="977" y="-175.5" font-family="Helvetica,sans-Serif" font-size="10.00">AxisArp.hpp</text>
</a>
</g>
</g>
<!-- Node8&#45;&gt;Node12 -->
<g id="edge13" class="edge">
<title>Node8&#45;&gt;Node12</title>
<path fill="none" stroke="midnightblue" d="M946.79,-224.08C949.39,-216.53 955.13,-205.49 961.09,-196.23"/>
<polygon fill="midnightblue" stroke="midnightblue" points="964.15,-197.95 967.01,-187.75 958.41,-193.95 964.15,-197.95"/>
</g>
<!-- Node8&#45;&gt;Node13 -->
<g id="edge16" class="edge">
<title>Node8&#45;&gt;Node13</title>
<path fill="none" stroke="midnightblue" d="M930.45,-224.32C914.01,-215.7 888.57,-202.36 869.53,-192.39"/>
<polygon fill="midnightblue" stroke="midnightblue" points="870.99,-189.2 860.51,-187.65 867.74,-195.4 870.99,-189.2"/>
</g>
<!-- Node9&#45;&gt;Node4 -->
<g id="edge12" class="edge">
<title>Node9&#45;&gt;Node4</title>
<path fill="none" stroke="midnightblue" d="M836.24,-58.05C776.42,-47.6 664.04,-27.96 605.17,-17.67"/>
<polygon fill="midnightblue" stroke="midnightblue" points="605.62,-14.2 595.17,-15.92 604.42,-21.09 605.62,-14.2"/>
</g>
<!-- Node9&#45;&gt;Node7 -->
<g id="edge11" class="edge">
<title>Node9&#45;&gt;Node7</title>
<path fill="none" stroke="midnightblue" d="M912.6,-56.44C952.73,-47.06 1017.2,-31.99 1060.78,-21.8"/>
<polygon fill="midnightblue" stroke="midnightblue" points="1061.63,-25.2 1070.57,-19.52 1060.03,-18.38 1061.63,-25.2"/>
</g>
<!-- Node10 -->
<g id="node10" class="node">
<title>Node10</title>
<g id="a_node10"><a xlink:title=" ">
<polygon fill="none" stroke="#bfbfbf" points="850,-0.5 850,-19.5 902,-19.5 902,-0.5 850,-0.5"/>
<text text-anchor="middle" x="876" y="-7.5" font-family="Helvetica,sans-Serif" font-size="10.00">cassert</text>
</a>
</g>
</g>
<!-- Node9&#45;&gt;Node10 -->
<g id="edge9" class="edge">
<title>Node9&#45;&gt;Node10</title>
<path fill="none" stroke="midnightblue" d="M876,-56.08C876,-49.01 876,-38.86 876,-29.99"/>
<polygon fill="midnightblue" stroke="midnightblue" points="879.5,-29.75 876,-19.75 872.5,-29.75 879.5,-29.75"/>
</g>
<!-- Node11 -->
<g id="node11" class="node">
<title>Node11</title>
<g id="a_node11"><a xlink:title=" ">
<polygon fill="none" stroke="#bfbfbf" points="8,-0.5 8,-19.5 68,-19.5 68,-0.5 8,-0.5"/>
<text text-anchor="middle" x="38" y="-7.5" font-family="Helvetica,sans-Serif" font-size="10.00">iostream</text>
</a>
</g>
</g>
<!-- Node9&#45;&gt;Node11 -->
<g id="edge10" class="edge">
<title>Node9&#45;&gt;Node11</title>
<path fill="none" stroke="midnightblue" d="M836.43,-62.45C695.58,-53.37 219.54,-22.7 78.01,-13.58"/>
<polygon fill="midnightblue" stroke="midnightblue" points="78.23,-10.08 68.02,-12.93 77.78,-17.07 78.23,-10.08"/>
</g>
<!-- Node12&#45;&gt;Node8 -->
<g id="edge15" class="edge">
<title>Node12&#45;&gt;Node8</title>
<path fill="none" stroke="midnightblue" d="M977.27,-187.75C974.69,-195.33 968.88,-206.5 962.86,-215.86"/>
<polygon fill="midnightblue" stroke="midnightblue" points="959.97,-213.88 957.12,-224.08 965.71,-217.88 959.97,-213.88"/>
</g>
<!-- Node12&#45;&gt;Node9 -->
<g id="edge14" class="edge">
<title>Node12&#45;&gt;Node9</title>
<path fill="none" stroke="midnightblue" d="M970.67,-168.24C961.25,-155.42 942.76,-131.01 925,-112 915.24,-101.55 903.47,-90.69 893.91,-82.26"/>
<polygon fill="midnightblue" stroke="midnightblue" points="896.03,-79.46 886.18,-75.54 891.43,-84.74 896.03,-79.46"/>
</g>
<!-- Node13&#45;&gt;Node9 -->
<g id="edge17" class="edge">
<title>Node13&#45;&gt;Node9</title>
<path fill="none" stroke="midnightblue" d="M827.83,-168.36C807.79,-156.44 777.78,-133.95 791,-112 800.29,-96.57 816.83,-86.16 832.87,-79.27"/>
<polygon fill="midnightblue" stroke="midnightblue" points="834.17,-82.52 842.2,-75.61 831.61,-76.01 834.17,-82.52"/>
</g>
<!-- Node14 -->
<g id="node14" class="node">
<title>Node14</title>
<g id="a_node14"><a xlink:href="AxisIcmp_8hpp.html" target="_top" xlink:title=": A class to access ICMP header fields within data chunks transmitted over an AXI4&#45;Stream interface.">
<polygon fill="none" stroke="black" points="799.5,-112.5 799.5,-131.5 882.5,-131.5 882.5,-112.5 799.5,-112.5"/>
<text text-anchor="middle" x="841" y="-119.5" font-family="Helvetica,sans-Serif" font-size="10.00">AxisIcmp.hpp</text>
</a>
</g>
</g>
<!-- Node13&#45;&gt;Node14 -->
<g id="edge18" class="edge">
<title>Node13&#45;&gt;Node14</title>
<path fill="none" stroke="midnightblue" d="M843.5,-168.08C843.11,-161.01 842.55,-150.86 842.05,-141.99"/>
<polygon fill="midnightblue" stroke="midnightblue" points="845.54,-141.54 841.49,-131.75 838.55,-141.93 845.54,-141.54"/>
</g>
<!-- Node15 -->
<g id="node15" class="node">
<title>Node15</title>
<g id="a_node15"><a xlink:href="AxisTcp_8hpp.html" target="_top" xlink:title=": A class to access TCP header fields within data chunks transmitted over an AXI4&#45;Stream interface.">
<polygon fill="none" stroke="black" points="1006,-112.5 1006,-131.5 1080,-131.5 1080,-112.5 1006,-112.5"/>
<text text-anchor="middle" x="1043" y="-119.5" font-family="Helvetica,sans-Serif" font-size="10.00">AxisTcp.hpp</text>
</a>
</g>
</g>
<!-- Node13&#45;&gt;Node15 -->
<g id="edge20" class="edge">
<title>Node13&#45;&gt;Node15</title>
<path fill="none" stroke="midnightblue" d="M875.53,-168.44C909.59,-159.2 964.01,-144.44 1001.52,-134.26"/>
<polygon fill="midnightblue" stroke="midnightblue" points="1002.88,-137.51 1011.62,-131.52 1001.05,-130.76 1002.88,-137.51"/>
</g>
<!-- Node16 -->
<g id="node16" class="node">
<title>Node16</title>
<g id="a_node16"><a xlink:href="AxisUdp_8hpp.html" target="_top" xlink:title=": A class to access UDP header fields within data chunks transmitted over an AXI4&#45;Stream interface.">
<polygon fill="none" stroke="black" points="645,-112.5 645,-131.5 723,-131.5 723,-112.5 645,-112.5"/>
<text text-anchor="middle" x="684" y="-119.5" font-family="Helvetica,sans-Serif" font-size="10.00">AxisUdp.hpp</text>
</a>
</g>
</g>
<!-- Node13&#45;&gt;Node16 -->
<g id="edge22" class="edge">
<title>Node13&#45;&gt;Node16</title>
<path fill="none" stroke="midnightblue" d="M818.65,-168.44C791.73,-159.36 749,-144.94 718.91,-134.78"/>
<polygon fill="midnightblue" stroke="midnightblue" points="719.83,-131.4 709.23,-131.52 717.59,-138.03 719.83,-131.4"/>
</g>
<!-- Node14&#45;&gt;Node9 -->
<g id="edge19" class="edge">
<title>Node14&#45;&gt;Node9</title>
<path fill="none" stroke="midnightblue" d="M846.78,-112.08C851.67,-104.53 858.83,-93.49 864.83,-84.23"/>
<polygon fill="midnightblue" stroke="midnightblue" points="867.83,-86.05 870.33,-75.75 861.95,-82.24 867.83,-86.05"/>
</g>
<!-- Node15&#45;&gt;Node9 -->
<g id="edge21" class="edge">
<title>Node15&#45;&gt;Node9</title>
<path fill="none" stroke="midnightblue" d="M1016.54,-112.44C988.32,-103.32 943.46,-88.81 912.03,-78.65"/>
<polygon fill="midnightblue" stroke="midnightblue" points="912.93,-75.26 902.34,-75.52 910.78,-81.92 912.93,-75.26"/>
</g>
<!-- Node16&#45;&gt;Node9 -->
<g id="edge23" class="edge">
<title>Node16&#45;&gt;Node9</title>
<path fill="none" stroke="midnightblue" d="M714.42,-112.44C747.28,-103.2 799.78,-88.44 835.97,-78.26"/>
<polygon fill="midnightblue" stroke="midnightblue" points="837.04,-81.59 845.72,-75.52 835.15,-74.85 837.04,-81.59"/>
</g>
<!-- Node18 -->
<g id="node18" class="node">
<title>Node18</title>
<g id="a_node18"><a xlink:title=" ">
<polygon fill="none" stroke="#bfbfbf" points="762.5,-224.5 762.5,-243.5 815.5,-243.5 815.5,-224.5 762.5,-224.5"/>
<text text-anchor="middle" x="789" y="-231.5" font-family="Helvetica,sans-Serif" font-size="10.00">stdint.h</text>
</a>
</g>
</g>
<!-- Node17&#45;&gt;Node18 -->
<g id="edge26" class="edge">
<title>Node17&#45;&gt;Node18</title>
<path fill="none" stroke="midnightblue" d="M784.83,-280.08C785.48,-273.01 786.42,-262.86 787.24,-253.99"/>
<polygon fill="midnightblue" stroke="midnightblue" points="790.75,-254.03 788.19,-243.75 783.78,-253.39 790.75,-254.03"/>
</g>
<!-- Node19 -->
<g id="node19" class="node">
<title>Node19</title>
<g id="a_node19"><a xlink:title=" ">
<polygon fill="none" stroke="#bfbfbf" points="693.5,-224.5 693.5,-243.5 744.5,-243.5 744.5,-224.5 693.5,-224.5"/>
<text text-anchor="middle" x="719" y="-231.5" font-family="Helvetica,sans-Serif" font-size="10.00">math.h</text>
</a>
</g>
</g>
<!-- Node17&#45;&gt;Node19 -->
<g id="edge27" class="edge">
<title>Node17&#45;&gt;Node19</title>
<path fill="none" stroke="midnightblue" d="M773.56,-280.32C763.85,-272.26 749.18,-260.08 737.5,-250.37"/>
<polygon fill="midnightblue" stroke="midnightblue" points="739.56,-247.53 729.63,-243.83 735.09,-252.92 739.56,-247.53"/>
</g>
<!-- Node20&#45;&gt;Node2 -->
<g id="edge30" class="edge">
<title>Node20&#45;&gt;Node2</title>
<path fill="none" stroke="midnightblue" d="M663.3,-565.89C598.5,-560.97 492.36,-549.25 463,-524 433.73,-498.83 433.78,-449.12 436.37,-421.9"/>
<polygon fill="midnightblue" stroke="midnightblue" points="439.87,-422.09 437.56,-411.75 432.92,-421.28 439.87,-422.09"/>
</g>
<!-- Node20&#45;&gt;Node5 -->
<g id="edge29" class="edge">
<title>Node20&#45;&gt;Node5</title>
<path fill="none" stroke="midnightblue" d="M732.38,-560.46C759.81,-545.88 812.14,-513.32 833,-468 849.97,-431.15 819.24,-386.67 799.23,-363.25"/>
<polygon fill="midnightblue" stroke="midnightblue" points="801.71,-360.77 792.45,-355.63 796.48,-365.42 801.71,-360.77"/>
</g>
<!-- Node20&#45;&gt;Node13 -->
<g id="edge31" class="edge">
<title>Node20&#45;&gt;Node13</title>
<path fill="none" stroke="midnightblue" d="M766.52,-567.07C831.73,-561.54 941.73,-541.18 993,-468 998.1,-460.72 995.62,-456.49 993,-448 969.51,-371.91 929.35,-370.33 892,-300 873.52,-265.21 857.95,-221.7 849.9,-197.47"/>
<polygon fill="midnightblue" stroke="midnightblue" points="853.17,-196.22 846.74,-187.8 846.52,-198.39 853.17,-196.22"/>
</g>
<!-- Node20&#45;&gt;Node15 -->
<g id="edge32" class="edge">
<title>Node20&#45;&gt;Node15</title>
<path fill="none" stroke="midnightblue" d="M766.86,-564.61C869.35,-554.49 1088,-525.16 1088,-459 1088,-459 1088,-459 1088,-289 1088,-234.42 1084.73,-219.62 1067,-168 1063.73,-158.47 1058.63,-148.53 1053.96,-140.42"/>
<polygon fill="midnightblue" stroke="midnightblue" points="1056.81,-138.35 1048.65,-131.59 1050.81,-141.96 1056.81,-138.35"/>
</g>
<!-- Node20&#45;&gt;Node16 -->
<g id="edge33" class="edge">
<title>Node20&#45;&gt;Node16</title>
<path fill="none" stroke="midnightblue" d="M713.87,-560.36C711.62,-542.93 706.49,-502.26 703,-468 692.88,-368.6 688.23,-343.82 684,-244 682.47,-207.75 683,-165.33 683.51,-141.57"/>
<polygon fill="midnightblue" stroke="midnightblue" points="687.01,-141.59 683.75,-131.51 680.02,-141.43 687.01,-141.59"/>
</g>
<!-- Node21 -->
<g id="node21" class="node">
<title>Node21</title>
<g id="a_node21"><a xlink:href="AxisPsd4_8hpp.html" target="_top" xlink:title=": A class to access the fields of a TCP/IPv4 or UDP/IPv4 pseudo packet when transmitted over an AXI4&#45;...">
<polygon fill="none" stroke="black" points="1109,-168.5 1109,-187.5 1191,-187.5 1191,-168.5 1109,-168.5"/>
<text text-anchor="middle" x="1150" y="-175.5" font-family="Helvetica,sans-Serif" font-size="10.00">AxisPsd4.hpp</text>
</a>
</g>
</g>
<!-- Node20&#45;&gt;Node21 -->
<g id="edge34" class="edge">
<title>Node20&#45;&gt;Node21</title>
<path fill="none" stroke="midnightblue" d="M766.84,-568.79C859.43,-567.47 1048.55,-560.28 1102,-524 1129.15,-505.57 1137,-491.81 1137,-459 1137,-459 1137,-459 1137,-289 1137,-256.58 1142.64,-219.15 1146.49,-197.37"/>
<polygon fill="midnightblue" stroke="midnightblue" points="1149.93,-197.99 1148.3,-187.52 1143.05,-196.72 1149.93,-197.99"/>
</g>
<!-- Node22 -->
<g id="node22" class="node">
<title>Node22</title>
<g id="a_node22"><a xlink:href="SimIcmpPacket_8hpp.html" target="_top" xlink:title=": A simulation class to build and handle ICMP packets.">
<polygon fill="none" stroke="black" points="712,-448.5 712,-467.5 824,-467.5 824,-448.5 712,-448.5"/>
<text text-anchor="middle" x="768" y="-455.5" font-family="Helvetica,sans-Serif" font-size="10.00">SimIcmpPacket.hpp</text>
</a>
</g>
</g>
<!-- Node20&#45;&gt;Node22 -->
<g id="edge37" class="edge">
<title>Node20&#45;&gt;Node22</title>
<path fill="none" stroke="midnightblue" d="M719.16,-560.37C727.83,-542.38 747.98,-500.55 759.51,-476.63"/>
<polygon fill="midnightblue" stroke="midnightblue" points="762.67,-478.12 763.86,-467.59 756.37,-475.08 762.67,-478.12"/>
</g>
<!-- Node23 -->
<g id="node23" class="node">
<title>Node23</title>
<g id="a_node23"><a xlink:href="SimTcpSegment_8hpp.html" target="_top" xlink:title=": A simulation class to build TCP segments.">
<polygon fill="none" stroke="black" points="472,-504.5 472,-523.5 588,-523.5 588,-504.5 472,-504.5"/>
<text text-anchor="middle" x="530" y="-511.5" font-family="Helvetica,sans-Serif" font-size="10.00">SimTcpSegment.hpp</text>
</a>
</g>
</g>
<!-- Node20&#45;&gt;Node23 -->
<g id="edge40" class="edge">
<title>Node20&#45;&gt;Node23</title>
<path fill="none" stroke="midnightblue" d="M685.69,-560.44C654.16,-551.24 603.87,-536.56 569.01,-526.39"/>
<polygon fill="midnightblue" stroke="midnightblue" points="569.76,-522.96 559.18,-523.52 567.8,-529.68 569.76,-522.96"/>
</g>
<!-- Node31 -->
<g id="node31" class="node">
<title>Node31</title>
<g id="a_node31"><a xlink:href="SimUdpDatagram_8hpp.html" target="_top" xlink:title=": A simulation class to build UDP datagrams.">
<polygon fill="none" stroke="black" points="209.5,-504.5 209.5,-523.5 334.5,-523.5 334.5,-504.5 209.5,-504.5"/>
<text text-anchor="middle" x="272" y="-511.5" font-family="Helvetica,sans-Serif" font-size="10.00">SimUdpDatagram.hpp</text>
</a>
</g>
</g>
<!-- Node20&#45;&gt;Node31 -->
<g id="edge56" class="edge">
<title>Node20&#45;&gt;Node31</title>
<path fill="none" stroke="midnightblue" d="M663.32,-562.7C584.64,-553.11 434.52,-534.81 344.83,-523.88"/>
<polygon fill="midnightblue" stroke="midnightblue" points="345.08,-520.38 334.73,-522.65 344.24,-527.33 345.08,-520.38"/>
</g>
<!-- Node21&#45;&gt;Node9 -->
<g id="edge35" class="edge">
<title>Node21&#45;&gt;Node9</title>
<path fill="none" stroke="midnightblue" d="M1144.44,-168.24C1134.92,-154.03 1114.08,-126.12 1089,-112 1038.12,-83.36 971.1,-72.9 925.93,-69.11"/>
<polygon fill="midnightblue" stroke="midnightblue" points="926.03,-65.6 915.79,-68.34 925.5,-72.58 926.03,-65.6"/>
</g>
<!-- Node21&#45;&gt;Node15 -->
<g id="edge36" class="edge">
<title>Node21&#45;&gt;Node15</title>
<path fill="none" stroke="midnightblue" d="M1132.81,-168.32C1115.65,-159.66 1089.05,-146.24 1069.25,-136.25"/>
<polygon fill="midnightblue" stroke="midnightblue" points="1070.65,-133.04 1060.15,-131.65 1067.5,-139.28 1070.65,-133.04"/>
</g>
<!-- Node22&#45;&gt;Node2 -->
<g id="edge39" class="edge">
<title>Node22&#45;&gt;Node2</title>
<path fill="none" stroke="midnightblue" d="M715.87,-448.44C653.69,-438.24 550.49,-421.3 489.19,-411.24"/>
<polygon fill="midnightblue" stroke="midnightblue" points="489.42,-407.73 478.99,-409.56 488.29,-414.64 489.42,-407.73"/>
</g>
<!-- Node22&#45;&gt;Node5 -->
<g id="edge38" class="edge">
<title>Node22&#45;&gt;Node5</title>
<path fill="none" stroke="midnightblue" d="M769.26,-448.37C771.84,-430.62 777.79,-389.67 781.29,-365.6"/>
<polygon fill="midnightblue" stroke="midnightblue" points="784.77,-365.99 782.75,-355.59 777.85,-364.98 784.77,-365.99"/>
</g>
<!-- Node23&#45;&gt;Node2 -->
<g id="edge45" class="edge">
<title>Node23&#45;&gt;Node2</title>
<path fill="none" stroke="midnightblue" d="M508.07,-504.41C492,-497.04 470.82,-484.92 458,-468 447.8,-454.54 443.07,-435.73 440.88,-421.8"/>
<polygon fill="midnightblue" stroke="midnightblue" points="444.35,-421.35 439.61,-411.88 437.4,-422.24 444.35,-421.35"/>
</g>
<!-- Node23&#45;&gt;Node11 -->
<g id="edge41" class="edge">
<title>Node23&#45;&gt;Node11</title>
<path fill="none" stroke="midnightblue" d="M471.92,-508.74C378.13,-501.47 197.62,-485.7 136,-468 71.61,-449.5 0,-469.99 0,-403 0,-403 0,-403 0,-121 0,-86.81 16.6,-49.76 27.86,-28.57"/>
<polygon fill="midnightblue" stroke="midnightblue" points="30.95,-30.22 32.72,-19.77 24.82,-26.83 30.95,-30.22"/>
</g>
<!-- Node23&#45;&gt;Node15 -->
<g id="edge55" class="edge">
<title>Node23&#45;&gt;Node15</title>
<path fill="none" stroke="midnightblue" d="M588.31,-511.29C706.21,-507.27 964.26,-495.42 993,-468 1086.19,-379.09 1059,-199.59 1047.17,-141.55"/>
<polygon fill="midnightblue" stroke="midnightblue" points="1050.56,-140.68 1045.05,-131.63 1043.71,-142.14 1050.56,-140.68"/>
</g>
<!-- Node24 -->
<g id="node24" class="node">
<title>Node24</title>
<g id="a_node24"><a xlink:title=" ">
<polygon fill="none" stroke="#bfbfbf" points="467,-448.5 467,-467.5 523,-467.5 523,-448.5 467,-448.5"/>
<text text-anchor="middle" x="495" y="-455.5" font-family="Helvetica,sans-Serif" font-size="10.00">iomanip</text>
</a>
</g>
</g>
<!-- Node23&#45;&gt;Node24 -->
<g id="edge42" class="edge">
<title>Node23&#45;&gt;Node24</title>
<path fill="none" stroke="midnightblue" d="M524.22,-504.08C519.33,-496.53 512.17,-485.49 506.17,-476.23"/>
<polygon fill="midnightblue" stroke="midnightblue" points="509.05,-474.24 500.67,-467.75 503.17,-478.05 509.05,-474.24"/>
</g>
<!-- Node25 -->
<g id="node25" class="node">
<title>Node25</title>
<g id="a_node25"><a xlink:title=" ">
<polygon fill="none" stroke="#bfbfbf" points="541.5,-448.5 541.5,-467.5 588.5,-467.5 588.5,-448.5 541.5,-448.5"/>
<text text-anchor="middle" x="565" y="-455.5" font-family="Helvetica,sans-Serif" font-size="10.00">deque</text>
</a>
</g>
</g>
<!-- Node23&#45;&gt;Node25 -->
<g id="edge43" class="edge">
<title>Node23&#45;&gt;Node25</title>
<path fill="none" stroke="midnightblue" d="M535.78,-504.08C540.67,-496.53 547.83,-485.49 553.83,-476.23"/>
<polygon fill="midnightblue" stroke="midnightblue" points="556.83,-478.05 559.33,-467.75 550.95,-474.24 556.83,-478.05"/>
</g>
<!-- Node26 -->
<g id="node26" class="node">
<title>Node26</title>
<g id="a_node26"><a xlink:title=" ">
<polygon fill="none" stroke="#bfbfbf" points="606.5,-448.5 606.5,-467.5 655.5,-467.5 655.5,-448.5 606.5,-448.5"/>
<text text-anchor="middle" x="631" y="-455.5" font-family="Helvetica,sans-Serif" font-size="10.00">cstdlib</text>
</a>
</g>
</g>
<!-- Node23&#45;&gt;Node26 -->
<g id="edge44" class="edge">
<title>Node23&#45;&gt;Node26</title>
<path fill="none" stroke="midnightblue" d="M546.23,-504.32C562.35,-495.7 587.3,-482.36 605.96,-472.39"/>
<polygon fill="midnightblue" stroke="midnightblue" points="607.64,-475.46 614.81,-467.65 604.34,-469.28 607.64,-475.46"/>
</g>
<!-- Node23&#45;&gt;Node27 -->
<g id="edge46" class="edge">
<title>Node23&#45;&gt;Node27</title>
<path fill="none" stroke="midnightblue" d="M476.6,-504.44C415.07,-494.58 314.31,-478.44 250.92,-468.28"/>
<polygon fill="midnightblue" stroke="midnightblue" points="251.13,-464.77 240.7,-466.64 250.02,-471.68 251.13,-464.77"/>
</g>
<!-- Node27&#45;&gt;Node2 -->
<g id="edge53" class="edge">
<title>Node27&#45;&gt;Node2</title>
<path fill="none" stroke="midnightblue" d="M231.98,-448.44C274.89,-439.02 343.95,-423.87 390.37,-413.68"/>
<polygon fill="midnightblue" stroke="midnightblue" points="391.19,-417.08 400.2,-411.52 389.69,-410.24 391.19,-417.08"/>
</g>
<!-- Node27&#45;&gt;Node3 -->
<g id="edge51" class="edge">
<title>Node27&#45;&gt;Node3</title>
<path fill="none" stroke="midnightblue" d="M157.66,-448.46C121.63,-438.07 73.79,-418.57 95,-392 112.06,-370.63 181.17,-358.63 232.97,-352.5"/>
<polygon fill="midnightblue" stroke="midnightblue" points="233.54,-355.96 243.08,-351.35 232.75,-349 233.54,-355.96"/>
</g>
<!-- Node27&#45;&gt;Node5 -->
<g id="edge52" class="edge">
<title>Node27&#45;&gt;Node5</title>
<path fill="none" stroke="midnightblue" d="M214.17,-448.42C249.82,-434.32 324.4,-406.41 390,-392 510.58,-365.52 655.55,-354.05 731.58,-349.57"/>
<polygon fill="midnightblue" stroke="midnightblue" points="732.06,-353.04 741.84,-348.98 731.66,-346.05 732.06,-353.04"/>
</g>
<!-- Node27&#45;&gt;Node11 -->
<g id="edge49" class="edge">
<title>Node27&#45;&gt;Node11</title>
<path fill="none" stroke="midnightblue" d="M156.66,-448.39C110.85,-435.12 38,-404.91 38,-347 38,-347 38,-347 38,-121 38,-88.95 38,-51.64 38,-29.75"/>
<polygon fill="midnightblue" stroke="midnightblue" points="41.5,-29.56 38,-19.56 34.5,-29.56 41.5,-29.56"/>
</g>
<!-- Node27&#45;&gt;Node27 -->
<g id="edge54" class="edge">
<title>Node27&#45;&gt;Node27</title>
<path fill="none" stroke="midnightblue" d="M220.94,-467.53C239.92,-470.31 258.5,-467.13 258.5,-458 258.5,-450.51 246,-447.03 231.02,-447.55"/>
<polygon fill="midnightblue" stroke="midnightblue" points="230.58,-444.08 220.94,-448.47 231.21,-451.05 230.58,-444.08"/>
</g>
<!-- Node28 -->
<g id="node28" class="node">
<title>Node28</title>
<g id="a_node28"><a xlink:title=" ">
<polygon fill="none" stroke="#bfbfbf" points="251.5,-392.5 251.5,-411.5 304.5,-411.5 304.5,-392.5 251.5,-392.5"/>
<text text-anchor="middle" x="278" y="-399.5" font-family="Helvetica,sans-Serif" font-size="10.00">stdlib.h</text>
</a>
</g>
</g>
<!-- Node27&#45;&gt;Node28 -->
<g id="edge47" class="edge">
<title>Node27&#45;&gt;Node28</title>
<path fill="none" stroke="midnightblue" d="M206.66,-448.32C219.92,-439.9 240.27,-426.97 255.85,-417.07"/>
<polygon fill="midnightblue" stroke="midnightblue" points="257.81,-419.97 264.38,-411.65 254.06,-414.06 257.81,-419.97"/>
</g>
<!-- Node29 -->
<g id="node29" class="node">
<title>Node29</title>
<g id="a_node29"><a xlink:title=" ">
<polygon fill="none" stroke="#bfbfbf" points="104,-392.5 104,-411.5 160,-411.5 160,-392.5 104,-392.5"/>
<text text-anchor="middle" x="132" y="-399.5" font-family="Helvetica,sans-Serif" font-size="10.00">unistd.h</text>
</a>
</g>
</g>
<!-- Node27&#45;&gt;Node29 -->
<g id="edge48" class="edge">
<title>Node27&#45;&gt;Node29</title>
<path fill="none" stroke="midnightblue" d="M183.2,-448.32C174.18,-440.34 160.59,-428.31 149.68,-418.65"/>
<polygon fill="midnightblue" stroke="midnightblue" points="151.79,-415.84 141.98,-411.83 147.15,-421.08 151.79,-415.84"/>
</g>
<!-- Node30 -->
<g id="node30" class="node">
<title>Node30</title>
<g id="a_node30"><a xlink:title=" ">
<polygon fill="none" stroke="#bfbfbf" points="178.5,-392.5 178.5,-411.5 233.5,-411.5 233.5,-392.5 178.5,-392.5"/>
<text text-anchor="middle" x="206" y="-399.5" font-family="Helvetica,sans-Serif" font-size="10.00">fstream</text>
</a>
</g>
</g>
<!-- Node27&#45;&gt;Node30 -->
<g id="edge50" class="edge">
<title>Node27&#45;&gt;Node30</title>
<path fill="none" stroke="midnightblue" d="M195.15,-448.08C196.87,-440.93 199.35,-430.64 201.5,-421.69"/>
<polygon fill="midnightblue" stroke="midnightblue" points="204.96,-422.29 203.89,-411.75 198.15,-420.65 204.96,-422.29"/>
</g>
<!-- Node31&#45;&gt;Node2 -->
<g id="edge57" class="edge">
<title>Node31&#45;&gt;Node2</title>
<path fill="none" stroke="midnightblue" d="M280.92,-504.24C294.71,-490.98 322.41,-465.51 349,-448 368.08,-435.43 391.15,-423.96 409.16,-415.75"/>
<polygon fill="midnightblue" stroke="midnightblue" points="410.89,-418.81 418.59,-411.53 408.03,-412.42 410.89,-418.81"/>
</g>
<!-- Node31&#45;&gt;Node16 -->
<g id="edge59" class="edge">
<title>Node31&#45;&gt;Node16</title>
<path fill="none" stroke="midnightblue" d="M277.9,-504.32C299.21,-472.81 371,-365.29 371,-347 371,-347 371,-347 371,-233 371,-177.73 546.88,-143.51 634.96,-129.84"/>
<polygon fill="midnightblue" stroke="midnightblue" points="635.63,-133.28 644.99,-128.31 634.58,-126.36 635.63,-133.28"/>
</g>
<!-- Node31&#45;&gt;Node27 -->
<g id="edge58" class="edge">
<title>Node31&#45;&gt;Node27</title>
<path fill="none" stroke="midnightblue" d="M259.31,-504.32C247.1,-495.98 228.42,-483.21 214,-473.35"/>
<polygon fill="midnightblue" stroke="midnightblue" points="215.89,-470.41 205.66,-467.65 211.94,-476.19 215.89,-470.41"/>
</g>
<!-- Node32&#45;&gt;Node2 -->
<g id="edge62" class="edge">
<title>Node32&#45;&gt;Node2</title>
<path fill="none" stroke="midnightblue" d="M879.71,-451.27C784.16,-440.81 582.61,-418.73 488.88,-408.46"/>
<polygon fill="midnightblue" stroke="midnightblue" points="489.13,-404.97 478.81,-407.36 488.37,-411.93 489.13,-404.97"/>
</g>
<!-- Node32&#45;&gt;Node5 -->
<g id="edge61" class="edge">
<title>Node32&#45;&gt;Node5</title>
<path fill="none" stroke="midnightblue" d="M924.53,-448.23C912.93,-434.96 889.48,-409.48 866,-392 849.23,-379.52 828.59,-368.21 812.21,-360.05"/>
<polygon fill="midnightblue" stroke="midnightblue" points="813.65,-356.86 803.13,-355.63 810.58,-363.15 813.65,-356.86"/>
</g>
</g>
</svg>
        <g id="navigator" transform="translate(0 0)" fill="#404254">
                <rect fill="#f2f5e9" fill-opacity="0.5" stroke="#606060" stroke-width=".5" x="0" y="0" width="60" height="60"/>
                <use id="zoomplus" xlink:href="#zoomPlus" x="17" y="9" onmousedown="handleZoom(evt,'in')"/>
                <use id="zoomminus" xlink:href="#zoomMin" x="42" y="9" onmousedown="handleZoom(evt,'out')"/>
                <use id="reset" xlink:href="#resetDef" x="30" y="36" onmousedown="handleReset()"/>
                <g id="arrowUp" xlink:href="#dirArrow" transform="translate(30 24)" onmousedown="handlePan(0,-1)">
                  <use xlink:href="#rim" fill="#404040">
                        <set attributeName="fill" to="#808080" begin="arrowUp.mouseover" end="arrowUp.mouseout"/>
                  </use>
                  <path fill="none" stroke="white" stroke-width="1.5" d="M0,-3.0v7 M-2.5,-0.5L0,-3.0L2.5,-0.5"/>
                </g>
                <g id="arrowRight" xlink:href="#dirArrow" transform="rotate(90) translate(36 -43)" onmousedown="handlePan(1,0)">
                  <use xlink:href="#rim" fill="#404040">
                        <set attributeName="fill" to="#808080" begin="arrowRight.mouseover" end="arrowRight.mouseout"/>
                  </use>
                  <path fill="none" stroke="white" stroke-width="1.5" d="M0,-3.0v7 M-2.5,-0.5L0,-3.0L2.5,-0.5"/>
                </g>
                <g id="arrowDown" xlink:href="#dirArrow" transform="rotate(180) translate(-30 -48)" onmousedown="handlePan(0,1)">
                  <use xlink:href="#rim" fill="#404040">
                        <set attributeName="fill" to="#808080" begin="arrowDown.mouseover" end="arrowDown.mouseout"/>
                  </use>
                  <path fill="none" stroke="white" stroke-width="1.5" d="M0,-3.0v7 M-2.5,-0.5L0,-3.0L2.5,-0.5"/>
                </g>
                <g id="arrowLeft" xlink:href="#dirArrow" transform="rotate(270) translate(-36 17)" onmousedown="handlePan(-1,0)">
                  <use xlink:href="#rim" fill="#404040">
                        <set attributeName="fill" to="#808080" begin="arrowLeft.mouseover" end="arrowLeft.mouseout"/>
                  </use>
                  <path fill="none" stroke="white" stroke-width="1.5" d="M0,-3.0v7 M-2.5,-0.5L0,-3.0L2.5,-0.5"/>
                </g>
        </g>
        <svg viewBox="0 0 15 15" width="100%" height="30px" preserveAspectRatio="xMaxYMin meet">
         <g id="arrow_out" transform="scale(0.3 0.3)">
          <a xlink:href="SimEthFrame_8hpp__incl_org.svg" target="_base">
           <rect id="button" ry="5" rx="5" y="6" x="6" height="38" width="38"
                fill="#f2f5e9" fill-opacity="0.5" stroke="#606060" stroke-width="1.0"/>
           <path id="arrow"
             d="M 11.500037,31.436501 C 11.940474,20.09759 22.043105,11.32322 32.158766,21.979434 L 37.068811,17.246167 C 37.068811,17.246167 37.088388,32 37.088388,32 L 22.160133,31.978069 C 22.160133,31.978069 26.997745,27.140456 26.997745,27.140456 C 18.528582,18.264221 13.291696,25.230495 11.500037,31.436501 z"
             style="fill:#404040;"/>
          </a>
         </g>
        </svg>
</svg>
