<?xml version="1.0" encoding="UTF-8" standalone="no"?>
<!DOCTYPE svg PUBLIC "-//W3C//DTD SVG 1.1//EN"
 "http://www.w3.org/Graphics/SVG/1.1/DTD/svg11.dtd">
<!-- Generated by graphviz version 2.43.0 (0)
 -->
<!-- Title: repos_for_Dox/cFDK/SRA/LIB/SHELL/LIB/hls/NTS/SimNtsUtils.hpp Pages: 1 -->
<!--zoomable 498 -->
<svg id="main" version="1.1" xmlns="http://www.w3.org/2000/svg" xmlns:xlink="http://www.w3.org/1999/xlink" xml:space="preserve" onload="init(evt)">
<style type="text/css"><![CDATA[
.edge:hover path { stroke: red; }
.edge:hover polygon { stroke: red; fill: red; }
]]></style>
<script type="text/javascript"><![CDATA[
var edges = document.getElementsByTagName('g');
if (edges && edges.length) {
  for (var i=0;i<edges.length;i++) {
    if (edges[i].id.substr(0,4)=='edge') {
      edges[i].setAttribute('class','edge');
    }
  }
}
]]></script>
        <defs>
                <circle id="rim" cx="0" cy="0" r="7"/>
                <circle id="rim2" cx="0" cy="0" r="3.5"/>
                <g id="zoomPlus">
                        <use xlink:href="#rim" fill="#404040">
                                <set attributeName="fill" to="#808080" begin="zoomplus.mouseover" end="zoomplus.mouseout"/>
                        </use>
                        <path d="M-4,0h8M0,-4v8" fill="none" stroke="white" stroke-width="1.5" pointer-events="none"/>
                </g>
                <g id="zoomMin">
                        <use xlink:href="#rim" fill="#404040">
                                <set attributeName="fill" to="#808080" begin="zoomminus.mouseover" end="zoomminus.mouseout"/>
                        </use>
                        <path d="M-4,0h8" fill="none" stroke="white" stroke-width="1.5" pointer-events="none"/>
                </g>
                <g id="dirArrow">
                        <path fill="none" stroke="white" stroke-width="1.5" d="M0,-3.0v7 M-2.5,-0.5L0,-3.0L2.5,-0.5"/>
                </g>
               <g id="resetDef">
                       <use xlink:href="#rim2" fill="#404040">
                               <set attributeName="fill" to="#808080" begin="reset.mouseover" end="reset.mouseout"/>
                       </use>
               </g>
        </defs>

<script type="text/javascript">
var viewWidth = 669;
var viewHeight = 498;
var sectionId = 'dynsection-0';
</script>
<script xlink:href="svgpan.js"/>
<svg id="graph" class="graph">
<g id="viewport">
<title>repos_for_Dox/cFDK/SRA/LIB/SHELL/LIB/hls/NTS/SimNtsUtils.hpp</title>
<!-- Node1 -->
<g id="node1" class="node">
<title>Node1</title>
<g id="a_node1"><a xlink:title=": Utilities for the simulation of the Network&#45;Transport&#45;Stack (NTS) components.">
<polygon fill="#bfbfbf" stroke="black" points="131,-448.5 131,-489.5 256,-489.5 256,-448.5 131,-448.5"/>
<text text-anchor="start" x="139" y="-477.5" font-family="Helvetica,sans-Serif" font-size="10.00">repos_for_Dox/cFDK</text>
<text text-anchor="start" x="139" y="-466.5" font-family="Helvetica,sans-Serif" font-size="10.00">/SRA/LIB/SHELL/LIB/hls</text>
<text text-anchor="middle" x="193.5" y="-455.5" font-family="Helvetica,sans-Serif" font-size="10.00">/NTS/SimNtsUtils.hpp</text>
</a>
</g>
</g>
<!-- Node1&#45;&gt;Node1 -->
<g id="edge34" class="edge">
<title>Node1&#45;&gt;Node1</title>
<path fill="none" stroke="midnightblue" d="M256.28,-480.5C266.76,-478.89 274,-475.06 274,-469 274,-465.12 271.03,-462.15 266.14,-460.1"/>
<polygon fill="midnightblue" stroke="midnightblue" points="266.84,-456.66 256.28,-457.5 265.06,-463.43 266.84,-456.66"/>
</g>
<!-- Node2 -->
<g id="node2" class="node">
<title>Node2</title>
<g id="a_node2"><a xlink:title=" ">
<polygon fill="none" stroke="#bfbfbf" points="0,-392.5 0,-411.5 53,-411.5 53,-392.5 0,-392.5"/>
<text text-anchor="middle" x="26.5" y="-399.5" font-family="Helvetica,sans-Serif" font-size="10.00">stdlib.h</text>
</a>
</g>
</g>
<!-- Node1&#45;&gt;Node2 -->
<g id="edge1" class="edge">
<title>Node1&#45;&gt;Node2</title>
<path fill="none" stroke="midnightblue" d="M143.39,-448.5C115.7,-437.72 82.13,-424.65 58.09,-415.29"/>
<polygon fill="midnightblue" stroke="midnightblue" points="59.32,-412.02 48.73,-411.65 56.78,-418.54 59.32,-412.02"/>
</g>
<!-- Node3 -->
<g id="node3" class="node">
<title>Node3</title>
<g id="a_node3"><a xlink:title=" ">
<polygon fill="none" stroke="#bfbfbf" points="71.5,-392.5 71.5,-411.5 127.5,-411.5 127.5,-392.5 71.5,-392.5"/>
<text text-anchor="middle" x="99.5" y="-399.5" font-family="Helvetica,sans-Serif" font-size="10.00">unistd.h</text>
</a>
</g>
</g>
<!-- Node1&#45;&gt;Node3 -->
<g id="edge2" class="edge">
<title>Node1&#45;&gt;Node3</title>
<path fill="none" stroke="midnightblue" d="M165.3,-448.5C150.88,-438.53 133.65,-426.61 120.44,-417.48"/>
<polygon fill="midnightblue" stroke="midnightblue" points="122.23,-414.46 112.01,-411.65 118.25,-420.22 122.23,-414.46"/>
</g>
<!-- Node4 -->
<g id="node4" class="node">
<title>Node4</title>
<g id="a_node4"><a xlink:title=" ">
<polygon fill="none" stroke="#bfbfbf" points="236.5,-0.5 236.5,-19.5 296.5,-19.5 296.5,-0.5 236.5,-0.5"/>
<text text-anchor="middle" x="266.5" y="-7.5" font-family="Helvetica,sans-Serif" font-size="10.00">iostream</text>
</a>
</g>
</g>
<!-- Node1&#45;&gt;Node4 -->
<g id="edge3" class="edge">
<title>Node1&#45;&gt;Node4</title>
<path fill="none" stroke="midnightblue" d="M183.32,-448.47C172.06,-425.02 155.5,-384.21 155.5,-347 155.5,-347 155.5,-347 155.5,-121 155.5,-74.82 204.56,-41.43 237.45,-24.23"/>
<polygon fill="midnightblue" stroke="midnightblue" points="239.29,-27.22 246.66,-19.61 236.15,-20.96 239.29,-27.22"/>
</g>
<!-- Node5 -->
<g id="node5" class="node">
<title>Node5</title>
<g id="a_node5"><a xlink:title=" ">
<polygon fill="none" stroke="#bfbfbf" points="388,-392.5 388,-411.5 443,-411.5 443,-392.5 388,-392.5"/>
<text text-anchor="middle" x="415.5" y="-399.5" font-family="Helvetica,sans-Serif" font-size="10.00">fstream</text>
</a>
</g>
</g>
<!-- Node1&#45;&gt;Node5 -->
<g id="edge4" class="edge">
<title>Node1&#45;&gt;Node5</title>
<path fill="none" stroke="midnightblue" d="M256.23,-449.63C295.5,-438.13 344.79,-423.7 378.05,-413.96"/>
<polygon fill="midnightblue" stroke="midnightblue" points="379.22,-417.27 387.83,-411.1 377.25,-410.55 379.22,-417.27"/>
</g>
<!-- Node6 -->
<g id="node6" class="node">
<title>Node6</title>
<g id="a_node6"><a xlink:href="mem_8hpp.html" target="_top" xlink:title=": Memory Sub&#45;System (MEM) for the cloudFPGA shell.">
<polygon fill="none" stroke="black" points="323,-336.5 323,-355.5 422,-355.5 422,-336.5 323,-336.5"/>
<text text-anchor="middle" x="372.5" y="-343.5" font-family="Helvetica,sans-Serif" font-size="10.00">../MEM/mem.hpp</text>
</a>
</g>
</g>
<!-- Node1&#45;&gt;Node6 -->
<g id="edge5" class="edge">
<title>Node1&#45;&gt;Node6</title>
<path fill="none" stroke="midnightblue" d="M256.29,-455.21C284.7,-446.83 317.08,-433.33 340.5,-412 354.14,-399.58 362.65,-380.07 367.43,-365.66"/>
<polygon fill="midnightblue" stroke="midnightblue" points="370.86,-366.42 370.39,-355.83 364.16,-364.4 370.86,-366.42"/>
</g>
<!-- Node8 -->
<g id="node8" class="node">
<title>Node8</title>
<g id="a_node8"><a xlink:href="nts_8hpp.html" target="_top" xlink:title=": Definition of the Network Transport Stack (NTS) component as if it was an HLS IP core.">
<polygon fill="none" stroke="black" points="220.5,-336.5 220.5,-355.5 304.5,-355.5 304.5,-336.5 220.5,-336.5"/>
<text text-anchor="middle" x="262.5" y="-343.5" font-family="Helvetica,sans-Serif" font-size="10.00">../NTS/nts.hpp</text>
</a>
</g>
</g>
<!-- Node1&#45;&gt;Node8 -->
<g id="edge7" class="edge">
<title>Node1&#45;&gt;Node8</title>
<path fill="none" stroke="midnightblue" d="M195.21,-448.37C197.33,-432.26 202.06,-409.37 212.5,-392 219.58,-380.23 230.7,-369.79 240.66,-361.92"/>
<polygon fill="midnightblue" stroke="midnightblue" points="243.06,-364.5 248.98,-355.71 238.87,-358.89 243.06,-364.5"/>
</g>
<!-- Node22 -->
<g id="node22" class="node">
<title>Node22</title>
<g id="a_node22"><a xlink:href="nts__utils_8hpp.html" target="_top" xlink:title=": Utilities and helpers for the Network&#45;Transport&#45;Stack (NTS) components.">
<polygon fill="none" stroke="black" points="221.5,-392.5 221.5,-411.5 331.5,-411.5 331.5,-392.5 221.5,-392.5"/>
<text text-anchor="middle" x="276.5" y="-399.5" font-family="Helvetica,sans-Serif" font-size="10.00">../NTS/nts_utils.hpp</text>
</a>
</g>
</g>
<!-- Node1&#45;&gt;Node22 -->
<g id="edge31" class="edge">
<title>Node1&#45;&gt;Node22</title>
<path fill="none" stroke="midnightblue" d="M218.4,-448.5C230.88,-438.72 245.76,-427.07 257.34,-418.01"/>
<polygon fill="midnightblue" stroke="midnightblue" points="259.74,-420.57 265.45,-411.65 255.42,-415.06 259.74,-420.57"/>
</g>
<!-- Node7 -->
<g id="node7" class="node">
<title>Node7</title>
<g id="a_node7"><a xlink:title=" ">
<polygon fill="none" stroke="#bfbfbf" points="604.5,-0.5 604.5,-19.5 660.5,-19.5 660.5,-0.5 604.5,-0.5"/>
<text text-anchor="middle" x="632.5" y="-7.5" font-family="Helvetica,sans-Serif" font-size="10.00">ap_int.h</text>
</a>
</g>
</g>
<!-- Node6&#45;&gt;Node7 -->
<g id="edge6" class="edge">
<title>Node6&#45;&gt;Node7</title>
<path fill="none" stroke="midnightblue" d="M422.28,-345.43C498.52,-343.19 635.5,-326.44 635.5,-235 635.5,-235 635.5,-235 635.5,-121 635.5,-88.94 634.21,-51.63 633.32,-29.74"/>
<polygon fill="midnightblue" stroke="midnightblue" points="636.81,-29.4 632.89,-19.56 629.82,-29.69 636.81,-29.4"/>
</g>
<!-- Node9 -->
<g id="node9" class="node">
<title>Node9</title>
<g id="a_node9"><a xlink:href="nts__types_8hpp.html" target="_top" xlink:title=": Definition of the types used by the Network Transport Stack (NTS) component of the cloudFPGA shell.">
<polygon fill="none" stroke="black" points="398,-280.5 398,-299.5 483,-299.5 483,-280.5 398,-280.5"/>
<text text-anchor="middle" x="440.5" y="-287.5" font-family="Helvetica,sans-Serif" font-size="10.00">nts_types.hpp</text>
</a>
</g>
</g>
<!-- Node8&#45;&gt;Node9 -->
<g id="edge8" class="edge">
<title>Node8&#45;&gt;Node9</title>
<path fill="none" stroke="midnightblue" d="M290.7,-336.44C320.91,-327.28 369.01,-312.69 402.53,-302.52"/>
<polygon fill="midnightblue" stroke="midnightblue" points="403.87,-305.77 412.43,-299.52 401.84,-299.07 403.87,-305.77"/>
</g>
<!-- Node19 -->
<g id="node19" class="node">
<title>Node19</title>
<g id="a_node19"><a xlink:href="nts__config_8hpp.html" target="_top" xlink:title=": Configuration parameters for the Network Transport Stack (NTS) component and sub&#45;components.">
<polygon fill="none" stroke="black" points="219,-280.5 219,-299.5 306,-299.5 306,-280.5 219,-280.5"/>
<text text-anchor="middle" x="262.5" y="-287.5" font-family="Helvetica,sans-Serif" font-size="10.00">nts_config.hpp</text>
</a>
</g>
</g>
<!-- Node8&#45;&gt;Node19 -->
<g id="edge28" class="edge">
<title>Node8&#45;&gt;Node19</title>
<path fill="none" stroke="midnightblue" d="M262.5,-336.08C262.5,-329.01 262.5,-318.86 262.5,-309.99"/>
<polygon fill="midnightblue" stroke="midnightblue" points="266,-309.75 262.5,-299.75 259,-309.75 266,-309.75"/>
</g>
<!-- Node10 -->
<g id="node10" class="node">
<title>Node10</title>
<g id="a_node10"><a xlink:title=" ">
<polygon fill="none" stroke="#bfbfbf" points="499.5,-0.5 499.5,-19.5 579.5,-19.5 579.5,-0.5 499.5,-0.5"/>
<text text-anchor="middle" x="539.5" y="-7.5" font-family="Helvetica,sans-Serif" font-size="10.00">hls_stream.h</text>
</a>
</g>
</g>
<!-- Node9&#45;&gt;Node10 -->
<g id="edge9" class="edge">
<title>Node9&#45;&gt;Node10</title>
<path fill="none" stroke="midnightblue" d="M477.71,-280.42C524.13,-267.26 597.5,-237.24 597.5,-179 597.5,-179 597.5,-179 597.5,-121 597.5,-84.16 571.73,-47.57 554.55,-27.25"/>
<polygon fill="midnightblue" stroke="midnightblue" points="557.04,-24.79 547.81,-19.59 551.79,-29.41 557.04,-24.79"/>
</g>
<!-- Node11 -->
<g id="node11" class="node">
<title>Node11</title>
<g id="a_node11"><a xlink:href="AxisEth_8hpp.html" target="_top" xlink:title=": A class to access an ETHernet data chunk transmitted over an AXI4&#45;Stream interface.">
<polygon fill="none" stroke="black" points="447.5,-224.5 447.5,-243.5 521.5,-243.5 521.5,-224.5 447.5,-224.5"/>
<text text-anchor="middle" x="484.5" y="-231.5" font-family="Helvetica,sans-Serif" font-size="10.00">AxisEth.hpp</text>
</a>
</g>
</g>
<!-- Node9&#45;&gt;Node11 -->
<g id="edge10" class="edge">
<title>Node9&#45;&gt;Node11</title>
<path fill="none" stroke="midnightblue" d="M447.77,-280.08C454.04,-272.38 463.29,-261.03 470.93,-251.65"/>
<polygon fill="midnightblue" stroke="midnightblue" points="473.77,-253.71 477.37,-243.75 468.34,-249.29 473.77,-253.71"/>
</g>
<!-- Node15 -->
<g id="node15" class="node">
<title>Node15</title>
<g id="a_node15"><a xlink:href="AxisIp4_8hpp.html" target="_top" xlink:title=": A class to access an IPv4 data chunk transmitted over an AXI4&#45;Stream interface.">
<polygon fill="none" stroke="black" points="349.5,-168.5 349.5,-187.5 423.5,-187.5 423.5,-168.5 349.5,-168.5"/>
<text text-anchor="middle" x="386.5" y="-175.5" font-family="Helvetica,sans-Serif" font-size="10.00">AxisIp4.hpp</text>
</a>
</g>
</g>
<!-- Node9&#45;&gt;Node15 -->
<g id="edge27" class="edge">
<title>Node9&#45;&gt;Node15</title>
<path fill="none" stroke="midnightblue" d="M436.26,-280.37C427.43,-262.38 406.9,-220.55 395.15,-196.63"/>
<polygon fill="midnightblue" stroke="midnightblue" points="398.27,-195.03 390.72,-187.59 391.98,-198.11 398.27,-195.03"/>
</g>
<!-- Node12 -->
<g id="node12" class="node">
<title>Node12</title>
<g id="a_node12"><a xlink:href="AxisRaw_8hpp.html" target="_top" xlink:title=": A generic class used by the Network&#45;Transport&#45;Stack (NTS) to to transfer a chunk of data over an AX...">
<polygon fill="none" stroke="black" points="412,-56.5 412,-75.5 491,-75.5 491,-56.5 412,-56.5"/>
<text text-anchor="middle" x="451.5" y="-63.5" font-family="Helvetica,sans-Serif" font-size="10.00">AxisRaw.hpp</text>
</a>
</g>
</g>
<!-- Node11&#45;&gt;Node12 -->
<g id="edge11" class="edge">
<title>Node11&#45;&gt;Node12</title>
<path fill="none" stroke="midnightblue" d="M498.58,-224.26C509.85,-216.35 524.85,-203.58 531.5,-188 534.99,-179.83 532.59,-176.82 531.5,-168 528.37,-142.54 532.17,-133.05 517.5,-112 508.09,-98.5 493.23,-87.85 479.99,-80.31"/>
<polygon fill="midnightblue" stroke="midnightblue" points="481.64,-77.22 471.17,-75.58 478.34,-83.39 481.64,-77.22"/>
</g>
<!-- Node14 -->
<g id="node14" class="node">
<title>Node14</title>
<g id="a_node14"><a xlink:href="AxisArp_8hpp.html" target="_top" xlink:title=": A class to access an ARP data chunk transmitted over an AXI4&#45;Stream interface.">
<polygon fill="none" stroke="black" points="447,-168.5 447,-187.5 522,-187.5 522,-168.5 447,-168.5"/>
<text text-anchor="middle" x="484.5" y="-175.5" font-family="Helvetica,sans-Serif" font-size="10.00">AxisArp.hpp</text>
</a>
</g>
</g>
<!-- Node11&#45;&gt;Node14 -->
<g id="edge16" class="edge">
<title>Node11&#45;&gt;Node14</title>
<path fill="none" stroke="midnightblue" d="M479.33,-224.08C477.82,-216.93 477.39,-206.64 478.04,-197.69"/>
<polygon fill="midnightblue" stroke="midnightblue" points="481.52,-198.13 479.37,-187.75 474.58,-197.2 481.52,-198.13"/>
</g>
<!-- Node11&#45;&gt;Node15 -->
<g id="edge19" class="edge">
<title>Node11&#45;&gt;Node15</title>
<path fill="none" stroke="midnightblue" d="M468.75,-224.32C453.18,-215.74 429.12,-202.49 411.04,-192.52"/>
<polygon fill="midnightblue" stroke="midnightblue" points="412.65,-189.42 402.21,-187.65 409.28,-195.55 412.65,-189.42"/>
</g>
<!-- Node12&#45;&gt;Node4 -->
<g id="edge13" class="edge">
<title>Node12&#45;&gt;Node4</title>
<path fill="none" stroke="midnightblue" d="M422.19,-56.44C390.66,-47.24 340.37,-32.56 305.51,-22.39"/>
<polygon fill="midnightblue" stroke="midnightblue" points="306.26,-18.96 295.68,-19.52 304.3,-25.68 306.26,-18.96"/>
</g>
<!-- Node12&#45;&gt;Node7 -->
<g id="edge15" class="edge">
<title>Node12&#45;&gt;Node7</title>
<path fill="none" stroke="midnightblue" d="M480.18,-56.44C511.12,-47.21 560.52,-32.48 594.63,-22.3"/>
<polygon fill="midnightblue" stroke="midnightblue" points="595.67,-25.64 604.25,-19.43 593.67,-18.93 595.67,-25.64"/>
</g>
<!-- Node12&#45;&gt;Node10 -->
<g id="edge14" class="edge">
<title>Node12&#45;&gt;Node10</title>
<path fill="none" stroke="midnightblue" d="M465.64,-56.32C479.37,-47.9 500.44,-34.97 516.56,-25.07"/>
<polygon fill="midnightblue" stroke="midnightblue" points="518.7,-27.87 525.4,-19.65 515.04,-21.9 518.7,-27.87"/>
</g>
<!-- Node13 -->
<g id="node13" class="node">
<title>Node13</title>
<g id="a_node13"><a xlink:title=" ">
<polygon fill="none" stroke="#bfbfbf" points="425.5,-0.5 425.5,-19.5 477.5,-19.5 477.5,-0.5 425.5,-0.5"/>
<text text-anchor="middle" x="451.5" y="-7.5" font-family="Helvetica,sans-Serif" font-size="10.00">cassert</text>
</a>
</g>
</g>
<!-- Node12&#45;&gt;Node13 -->
<g id="edge12" class="edge">
<title>Node12&#45;&gt;Node13</title>
<path fill="none" stroke="midnightblue" d="M451.5,-56.08C451.5,-49.01 451.5,-38.86 451.5,-29.99"/>
<polygon fill="midnightblue" stroke="midnightblue" points="455,-29.75 451.5,-19.75 448,-29.75 455,-29.75"/>
</g>
<!-- Node14&#45;&gt;Node11 -->
<g id="edge18" class="edge">
<title>Node14&#45;&gt;Node11</title>
<path fill="none" stroke="midnightblue" d="M489.63,-187.75C491.16,-194.86 491.6,-205.14 490.97,-214.1"/>
<polygon fill="midnightblue" stroke="midnightblue" points="487.49,-213.71 489.67,-224.08 494.43,-214.62 487.49,-213.71"/>
</g>
<!-- Node14&#45;&gt;Node12 -->
<g id="edge17" class="edge">
<title>Node14&#45;&gt;Node12</title>
<path fill="none" stroke="midnightblue" d="M490.61,-168.29C498.75,-155.54 511.17,-131.21 502.5,-112 496.88,-99.56 485.94,-89.17 475.62,-81.53"/>
<polygon fill="midnightblue" stroke="midnightblue" points="477.46,-78.54 467.23,-75.76 473.49,-84.31 477.46,-78.54"/>
</g>
<!-- Node15&#45;&gt;Node12 -->
<g id="edge20" class="edge">
<title>Node15&#45;&gt;Node12</title>
<path fill="none" stroke="midnightblue" d="M386.85,-168.4C387.73,-155.35 390.8,-130.16 401.5,-112 408.54,-100.05 419.81,-89.5 429.86,-81.63"/>
<polygon fill="midnightblue" stroke="midnightblue" points="431.96,-84.44 437.91,-75.67 427.79,-78.81 431.96,-84.44"/>
</g>
<!-- Node16 -->
<g id="node16" class="node">
<title>Node16</title>
<g id="a_node16"><a xlink:href="AxisIcmp_8hpp.html" target="_top" xlink:title=": A class to access ICMP header fields within data chunks transmitted over an AXI4&#45;Stream interface.">
<polygon fill="none" stroke="black" points="410,-112.5 410,-131.5 493,-131.5 493,-112.5 410,-112.5"/>
<text text-anchor="middle" x="451.5" y="-119.5" font-family="Helvetica,sans-Serif" font-size="10.00">AxisIcmp.hpp</text>
</a>
</g>
</g>
<!-- Node15&#45;&gt;Node16 -->
<g id="edge21" class="edge">
<title>Node15&#45;&gt;Node16</title>
<path fill="none" stroke="midnightblue" d="M396.94,-168.32C406.65,-160.26 421.32,-148.08 433,-138.37"/>
<polygon fill="midnightblue" stroke="midnightblue" points="435.41,-140.92 440.87,-131.83 430.94,-135.53 435.41,-140.92"/>
</g>
<!-- Node17 -->
<g id="node17" class="node">
<title>Node17</title>
<g id="a_node17"><a xlink:href="AxisTcp_8hpp.html" target="_top" xlink:title=": A class to access TCP header fields within data chunks transmitted over an AXI4&#45;Stream interface.">
<polygon fill="none" stroke="black" points="183.5,-112.5 183.5,-131.5 257.5,-131.5 257.5,-112.5 183.5,-112.5"/>
<text text-anchor="middle" x="220.5" y="-119.5" font-family="Helvetica,sans-Serif" font-size="10.00">AxisTcp.hpp</text>
</a>
</g>
</g>
<!-- Node15&#45;&gt;Node17 -->
<g id="edge23" class="edge">
<title>Node15&#45;&gt;Node17</title>
<path fill="none" stroke="midnightblue" d="M360.2,-168.44C332.15,-159.32 287.56,-144.81 256.32,-134.65"/>
<polygon fill="midnightblue" stroke="midnightblue" points="257.27,-131.28 246.68,-131.52 255.11,-137.94 257.27,-131.28"/>
</g>
<!-- Node18 -->
<g id="node18" class="node">
<title>Node18</title>
<g id="a_node18"><a xlink:href="AxisUdp_8hpp.html" target="_top" xlink:title=": A class to access UDP header fields within data chunks transmitted over an AXI4&#45;Stream interface.">
<polygon fill="none" stroke="black" points="275.5,-112.5 275.5,-131.5 353.5,-131.5 353.5,-112.5 275.5,-112.5"/>
<text text-anchor="middle" x="314.5" y="-119.5" font-family="Helvetica,sans-Serif" font-size="10.00">AxisUdp.hpp</text>
</a>
</g>
</g>
<!-- Node15&#45;&gt;Node18 -->
<g id="edge25" class="edge">
<title>Node15&#45;&gt;Node18</title>
<path fill="none" stroke="midnightblue" d="M374.93,-168.32C364.08,-160.18 347.62,-147.84 334.62,-138.09"/>
<polygon fill="midnightblue" stroke="midnightblue" points="336.38,-135.03 326.28,-131.83 332.18,-140.63 336.38,-135.03"/>
</g>
<!-- Node16&#45;&gt;Node12 -->
<g id="edge22" class="edge">
<title>Node16&#45;&gt;Node12</title>
<path fill="none" stroke="midnightblue" d="M451.5,-112.08C451.5,-105.01 451.5,-94.86 451.5,-85.99"/>
<polygon fill="midnightblue" stroke="midnightblue" points="455,-85.75 451.5,-75.75 448,-85.75 455,-85.75"/>
</g>
<!-- Node17&#45;&gt;Node12 -->
<g id="edge24" class="edge">
<title>Node17&#45;&gt;Node12</title>
<path fill="none" stroke="midnightblue" d="M257.1,-112.44C297.23,-103.06 361.7,-87.99 405.28,-77.8"/>
<polygon fill="midnightblue" stroke="midnightblue" points="406.13,-81.2 415.07,-75.52 404.53,-74.38 406.13,-81.2"/>
</g>
<!-- Node18&#45;&gt;Node12 -->
<g id="edge26" class="edge">
<title>Node18&#45;&gt;Node12</title>
<path fill="none" stroke="midnightblue" d="M336.21,-112.44C358.85,-103.52 394.57,-89.44 420.25,-79.32"/>
<polygon fill="midnightblue" stroke="midnightblue" points="421.87,-82.44 429.89,-75.52 419.31,-75.93 421.87,-82.44"/>
</g>
<!-- Node20 -->
<g id="node20" class="node">
<title>Node20</title>
<g id="a_node20"><a xlink:title=" ">
<polygon fill="none" stroke="#bfbfbf" points="286,-224.5 286,-243.5 339,-243.5 339,-224.5 286,-224.5"/>
<text text-anchor="middle" x="312.5" y="-231.5" font-family="Helvetica,sans-Serif" font-size="10.00">stdint.h</text>
</a>
</g>
</g>
<!-- Node19&#45;&gt;Node20 -->
<g id="edge29" class="edge">
<title>Node19&#45;&gt;Node20</title>
<path fill="none" stroke="midnightblue" d="M270.76,-280.08C277.96,-272.3 288.61,-260.8 297.35,-251.37"/>
<polygon fill="midnightblue" stroke="midnightblue" points="300.17,-253.47 304.4,-243.75 295.03,-248.71 300.17,-253.47"/>
</g>
<!-- Node21 -->
<g id="node21" class="node">
<title>Node21</title>
<g id="a_node21"><a xlink:title=" ">
<polygon fill="none" stroke="#bfbfbf" points="217,-224.5 217,-243.5 268,-243.5 268,-224.5 217,-224.5"/>
<text text-anchor="middle" x="242.5" y="-231.5" font-family="Helvetica,sans-Serif" font-size="10.00">math.h</text>
</a>
</g>
</g>
<!-- Node19&#45;&gt;Node21 -->
<g id="edge30" class="edge">
<title>Node19&#45;&gt;Node21</title>
<path fill="none" stroke="midnightblue" d="M259.2,-280.08C256.52,-272.85 252.65,-262.41 249.31,-253.4"/>
<polygon fill="midnightblue" stroke="midnightblue" points="252.5,-251.91 245.74,-243.75 245.93,-254.34 252.5,-251.91"/>
</g>
<!-- Node22&#45;&gt;Node6 -->
<g id="edge32" class="edge">
<title>Node22&#45;&gt;Node6</title>
<path fill="none" stroke="midnightblue" d="M291.92,-392.32C307.04,-383.82 330.32,-370.73 347.97,-360.8"/>
<polygon fill="midnightblue" stroke="midnightblue" points="350.11,-363.61 357.11,-355.65 346.68,-357.51 350.11,-363.61"/>
</g>
<!-- Node22&#45;&gt;Node8 -->
<g id="edge33" class="edge">
<title>Node22&#45;&gt;Node8</title>
<path fill="none" stroke="midnightblue" d="M274.19,-392.08C272.33,-384.93 269.66,-374.64 267.35,-365.69"/>
<polygon fill="midnightblue" stroke="midnightblue" points="270.67,-364.55 264.77,-355.75 263.89,-366.31 270.67,-364.55"/>
</g>
</g>
</svg>
        <g id="navigator" transform="translate(0 0)" fill="#404254">
                <rect fill="#f2f5e9" fill-opacity="0.5" stroke="#606060" stroke-width=".5" x="0" y="0" width="60" height="60"/>
                <use id="zoomplus" xlink:href="#zoomPlus" x="17" y="9" onmousedown="handleZoom(evt,'in')"/>
                <use id="zoomminus" xlink:href="#zoomMin" x="42" y="9" onmousedown="handleZoom(evt,'out')"/>
                <use id="reset" xlink:href="#resetDef" x="30" y="36" onmousedown="handleReset()"/>
                <g id="arrowUp" xlink:href="#dirArrow" transform="translate(30 24)" onmousedown="handlePan(0,-1)">
                  <use xlink:href="#rim" fill="#404040">
                        <set attributeName="fill" to="#808080" begin="arrowUp.mouseover" end="arrowUp.mouseout"/>
                  </use>
                  <path fill="none" stroke="white" stroke-width="1.5" d="M0,-3.0v7 M-2.5,-0.5L0,-3.0L2.5,-0.5"/>
                </g>
                <g id="arrowRight" xlink:href="#dirArrow" transform="rotate(90) translate(36 -43)" onmousedown="handlePan(1,0)">
                  <use xlink:href="#rim" fill="#404040">
                        <set attributeName="fill" to="#808080" begin="arrowRight.mouseover" end="arrowRight.mouseout"/>
                  </use>
                  <path fill="none" stroke="white" stroke-width="1.5" d="M0,-3.0v7 M-2.5,-0.5L0,-3.0L2.5,-0.5"/>
                </g>
                <g id="arrowDown" xlink:href="#dirArrow" transform="rotate(180) translate(-30 -48)" onmousedown="handlePan(0,1)">
                  <use xlink:href="#rim" fill="#404040">
                        <set attributeName="fill" to="#808080" begin="arrowDown.mouseover" end="arrowDown.mouseout"/>
                  </use>
                  <path fill="none" stroke="white" stroke-width="1.5" d="M0,-3.0v7 M-2.5,-0.5L0,-3.0L2.5,-0.5"/>
                </g>
                <g id="arrowLeft" xlink:href="#dirArrow" transform="rotate(270) translate(-36 17)" onmousedown="handlePan(-1,0)">
                  <use xlink:href="#rim" fill="#404040">
                        <set attributeName="fill" to="#808080" begin="arrowLeft.mouseover" end="arrowLeft.mouseout"/>
                  </use>
                  <path fill="none" stroke="white" stroke-width="1.5" d="M0,-3.0v7 M-2.5,-0.5L0,-3.0L2.5,-0.5"/>
                </g>
        </g>
        <svg viewBox="0 0 15 15" width="100%" height="30px" preserveAspectRatio="xMaxYMin meet">
         <g id="arrow_out" transform="scale(0.3 0.3)">
          <a xlink:href="SimNtsUtils_8hpp__incl_org.svg" target="_base">
           <rect id="button" ry="5" rx="5" y="6" x="6" height="38" width="38"
                fill="#f2f5e9" fill-opacity="0.5" stroke="#606060" stroke-width="1.0"/>
           <path id="arrow"
             d="M 11.500037,31.436501 C 11.940474,20.09759 22.043105,11.32322 32.158766,21.979434 L 37.068811,17.246167 C 37.068811,17.246167 37.088388,32 37.088388,32 L 22.160133,31.978069 C 22.160133,31.978069 26.997745,27.140456 26.997745,27.140456 C 18.528582,18.264221 13.291696,25.230495 11.500037,31.436501 z"
             style="fill:#404040;"/>
          </a>
         </g>
        </svg>
</svg>
