<?xml version="1.0" encoding="UTF-8" standalone="no"?>
<!DOCTYPE svg PUBLIC "-//W3C//DTD SVG 1.1//EN"
 "http://www.w3.org/Graphics/SVG/1.1/DTD/svg11.dtd">
<!-- Generated by graphviz version 2.43.0 (0)
 -->
<!-- Title: repos_for_Dox/cFp_HelloKale/ROLE/hls/tcp_app_flash/test/simu_tcp_app_flash_env.cpp Pages: 1 -->
<!--zoomable 206 -->
<svg id="main" version="1.1" xmlns="http://www.w3.org/2000/svg" xmlns:xlink="http://www.w3.org/1999/xlink" xml:space="preserve" onload="init(evt)">
<style type="text/css"><![CDATA[
.edge:hover path { stroke: red; }
.edge:hover polygon { stroke: red; fill: red; }
]]></style>
<script type="text/javascript"><![CDATA[
var edges = document.getElementsByTagName('g');
if (edges && edges.length) {
  for (var i=0;i<edges.length;i++) {
    if (edges[i].id.substr(0,4)=='edge') {
      edges[i].setAttribute('class','edge');
    }
  }
}
]]></script>
        <defs>
                <circle id="rim" cx="0" cy="0" r="7"/>
                <circle id="rim2" cx="0" cy="0" r="3.5"/>
                <g id="zoomPlus">
                        <use xlink:href="#rim" fill="#404040">
                                <set attributeName="fill" to="#808080" begin="zoomplus.mouseover" end="zoomplus.mouseout"/>
                        </use>
                        <path d="M-4,0h8M0,-4v8" fill="none" stroke="white" stroke-width="1.5" pointer-events="none"/>
                </g>
                <g id="zoomMin">
                        <use xlink:href="#rim" fill="#404040">
                                <set attributeName="fill" to="#808080" begin="zoomminus.mouseover" end="zoomminus.mouseout"/>
                        </use>
                        <path d="M-4,0h8" fill="none" stroke="white" stroke-width="1.5" pointer-events="none"/>
                </g>
                <g id="dirArrow">
                        <path fill="none" stroke="white" stroke-width="1.5" d="M0,-3.0v7 M-2.5,-0.5L0,-3.0L2.5,-0.5"/>
                </g>
               <g id="resetDef">
                       <use xlink:href="#rim2" fill="#404040">
                               <set attributeName="fill" to="#808080" begin="reset.mouseover" end="reset.mouseout"/>
                       </use>
               </g>
        </defs>

<script type="text/javascript">
var viewWidth = 595;
var viewHeight = 206;
var sectionId = 'dynsection-0';
</script>
<script xlink:href="svgpan.js"/>
<svg id="graph" class="graph">
<g id="viewport">
<title>repos_for_Dox/cFp_HelloKale/ROLE/hls/tcp_app_flash/test/simu_tcp_app_flash_env.cpp</title>
<!-- Node1 -->
<g id="node1" class="node">
<title>Node1</title>
<g id="a_node1"><a xlink:title=": Simulation environment for the TCP Application Flash (TAF).">
<polygon fill="#bfbfbf" stroke="black" points="136,-145.5 136,-197.5 296,-197.5 296,-145.5 136,-145.5"/>
<text text-anchor="start" x="144" y="-185.5" font-family="Helvetica,sans-Serif" font-size="10.00">repos_for_Dox/cFp_HelloKale</text>
<text text-anchor="start" x="144" y="-174.5" font-family="Helvetica,sans-Serif" font-size="10.00">/ROLE/hls/tcp_app_flash</text>
<text text-anchor="start" x="144" y="-163.5" font-family="Helvetica,sans-Serif" font-size="10.00">/test/simu_tcp_app_flash</text>
<text text-anchor="middle" x="216" y="-152.5" font-family="Helvetica,sans-Serif" font-size="10.00">_env.cpp</text>
</a>
</g>
</g>
<!-- Node2 -->
<g id="node2" class="node">
<title>Node2</title>
<g id="a_node2"><a xlink:href="simu__tcp__app__flash__env_8hpp.html" target="_top" xlink:title=": Simulation environment for the TCP Application Flash (TAF).">
<polygon fill="none" stroke="black" points="159.5,-78.5 159.5,-108.5 272.5,-108.5 272.5,-78.5 159.5,-78.5"/>
<text text-anchor="start" x="167.5" y="-96.5" font-family="Helvetica,sans-Serif" font-size="10.00">simu_tcp_app_flash</text>
<text text-anchor="middle" x="216" y="-85.5" font-family="Helvetica,sans-Serif" font-size="10.00">_env.hpp</text>
</a>
</g>
</g>
<!-- Node1&#45;&gt;Node2 -->
<g id="edge1" class="edge">
<title>Node1&#45;&gt;Node2</title>
<path fill="none" stroke="midnightblue" d="M216,-145.19C216,-136.79 216,-127.44 216,-119.09"/>
<polygon fill="midnightblue" stroke="midnightblue" points="219.5,-118.85 216,-108.85 212.5,-118.85 219.5,-118.85"/>
</g>
<!-- Node3 -->
<g id="node3" class="node">
<title>Node3</title>
<g id="a_node3"><a xlink:title=" ">
<polygon fill="none" stroke="#bfbfbf" points="0,-11.5 0,-30.5 50,-30.5 50,-11.5 0,-11.5"/>
<text text-anchor="middle" x="25" y="-18.5" font-family="Helvetica,sans-Serif" font-size="10.00">stdio.h</text>
</a>
</g>
</g>
<!-- Node2&#45;&gt;Node3 -->
<g id="edge2" class="edge">
<title>Node2&#45;&gt;Node3</title>
<path fill="none" stroke="midnightblue" d="M162.58,-78.49C131.69,-69.62 92.44,-56.99 59,-42 54.99,-40.2 50.86,-38.05 46.92,-35.84"/>
<polygon fill="midnightblue" stroke="midnightblue" points="48.59,-32.76 38.2,-30.69 45.03,-38.79 48.59,-32.76"/>
</g>
<!-- Node4 -->
<g id="node4" class="node">
<title>Node4</title>
<g id="a_node4"><a xlink:title=" ">
<polygon fill="none" stroke="#bfbfbf" points="68.5,-11.5 68.5,-30.5 123.5,-30.5 123.5,-11.5 68.5,-11.5"/>
<text text-anchor="middle" x="96" y="-18.5" font-family="Helvetica,sans-Serif" font-size="10.00">fstream</text>
</a>
</g>
</g>
<!-- Node2&#45;&gt;Node4 -->
<g id="edge3" class="edge">
<title>Node2&#45;&gt;Node4</title>
<path fill="none" stroke="midnightblue" d="M192,-78.4C170.89,-66 140.33,-48.05 119.4,-35.75"/>
<polygon fill="midnightblue" stroke="midnightblue" points="120.92,-32.58 110.53,-30.53 117.37,-38.62 120.92,-32.58"/>
</g>
<!-- Node5 -->
<g id="node5" class="node">
<title>Node5</title>
<g id="a_node5"><a xlink:title=" ">
<polygon fill="none" stroke="#bfbfbf" points="142,-11.5 142,-30.5 202,-30.5 202,-11.5 142,-11.5"/>
<text text-anchor="middle" x="172" y="-18.5" font-family="Helvetica,sans-Serif" font-size="10.00">iostream</text>
</a>
</g>
</g>
<!-- Node2&#45;&gt;Node5 -->
<g id="edge4" class="edge">
<title>Node2&#45;&gt;Node5</title>
<path fill="none" stroke="midnightblue" d="M207.1,-78.23C200.12,-67.06 190.39,-51.46 182.94,-39.52"/>
<polygon fill="midnightblue" stroke="midnightblue" points="185.81,-37.52 177.55,-30.89 179.88,-41.23 185.81,-37.52"/>
</g>
<!-- Node6 -->
<g id="node6" class="node">
<title>Node6</title>
<g id="a_node6"><a xlink:title=" ">
<polygon fill="none" stroke="#bfbfbf" points="220,-11.5 220,-30.5 300,-30.5 300,-11.5 220,-11.5"/>
<text text-anchor="middle" x="260" y="-18.5" font-family="Helvetica,sans-Serif" font-size="10.00">hls_stream.h</text>
</a>
</g>
</g>
<!-- Node2&#45;&gt;Node6 -->
<g id="edge5" class="edge">
<title>Node2&#45;&gt;Node6</title>
<path fill="none" stroke="midnightblue" d="M224.9,-78.23C231.88,-67.06 241.61,-51.46 249.06,-39.52"/>
<polygon fill="midnightblue" stroke="midnightblue" points="252.12,-41.23 254.45,-30.89 246.19,-37.52 252.12,-41.23"/>
</g>
<!-- Node7 -->
<g id="node7" class="node">
<title>Node7</title>
<g id="a_node7"><a xlink:title=" ">
<polygon fill="none" stroke="#bfbfbf" points="318.5,-0.5 318.5,-41.5 443.5,-41.5 443.5,-0.5 318.5,-0.5"/>
<text text-anchor="start" x="326.5" y="-29.5" font-family="Helvetica,sans-Serif" font-size="10.00">../../../../cFDK/SRA</text>
<text text-anchor="start" x="326.5" y="-18.5" font-family="Helvetica,sans-Serif" font-size="10.00">/LIB/SHELL/LIB/hls/NTS</text>
<text text-anchor="middle" x="381" y="-7.5" font-family="Helvetica,sans-Serif" font-size="10.00">/SimNtsUtils.hpp</text>
</a>
</g>
</g>
<!-- Node2&#45;&gt;Node7 -->
<g id="edge6" class="edge">
<title>Node2&#45;&gt;Node7</title>
<path fill="none" stroke="midnightblue" d="M248.99,-78.4C271.02,-68.99 300.52,-56.39 326.05,-45.48"/>
<polygon fill="midnightblue" stroke="midnightblue" points="327.43,-48.69 335.25,-41.55 324.68,-42.26 327.43,-48.69"/>
</g>
<!-- Node8 -->
<g id="node8" class="node">
<title>Node8</title>
<g id="a_node8"><a xlink:title=" ">
<polygon fill="none" stroke="#bfbfbf" points="461.5,-0.5 461.5,-41.5 586.5,-41.5 586.5,-0.5 461.5,-0.5"/>
<text text-anchor="start" x="469.5" y="-29.5" font-family="Helvetica,sans-Serif" font-size="10.00">../../../../cFDK/SRA</text>
<text text-anchor="start" x="469.5" y="-18.5" font-family="Helvetica,sans-Serif" font-size="10.00">/LIB/SHELL/LIB/hls/NTS</text>
<text text-anchor="middle" x="524" y="-7.5" font-family="Helvetica,sans-Serif" font-size="10.00">/SimAppData.hpp</text>
</a>
</g>
</g>
<!-- Node2&#45;&gt;Node8 -->
<g id="edge7" class="edge">
<title>Node2&#45;&gt;Node8</title>
<path fill="none" stroke="midnightblue" d="M272.74,-81.48C318.64,-72.32 385.15,-58.51 451.55,-42.3"/>
<polygon fill="midnightblue" stroke="midnightblue" points="452.46,-45.68 461.34,-39.89 450.79,-38.88 452.46,-45.68"/>
</g>
</g>
</svg>
        <g id="navigator" transform="translate(0 0)" fill="#404254">
                <rect fill="#f2f5e9" fill-opacity="0.5" stroke="#606060" stroke-width=".5" x="0" y="0" width="60" height="60"/>
                <use id="zoomplus" xlink:href="#zoomPlus" x="17" y="9" onmousedown="handleZoom(evt,'in')"/>
                <use id="zoomminus" xlink:href="#zoomMin" x="42" y="9" onmousedown="handleZoom(evt,'out')"/>
                <use id="reset" xlink:href="#resetDef" x="30" y="36" onmousedown="handleReset()"/>
                <g id="arrowUp" xlink:href="#dirArrow" transform="translate(30 24)" onmousedown="handlePan(0,-1)">
                  <use xlink:href="#rim" fill="#404040">
                        <set attributeName="fill" to="#808080" begin="arrowUp.mouseover" end="arrowUp.mouseout"/>
                  </use>
                  <path fill="none" stroke="white" stroke-width="1.5" d="M0,-3.0v7 M-2.5,-0.5L0,-3.0L2.5,-0.5"/>
                </g>
                <g id="arrowRight" xlink:href="#dirArrow" transform="rotate(90) translate(36 -43)" onmousedown="handlePan(1,0)">
                  <use xlink:href="#rim" fill="#404040">
                        <set attributeName="fill" to="#808080" begin="arrowRight.mouseover" end="arrowRight.mouseout"/>
                  </use>
                  <path fill="none" stroke="white" stroke-width="1.5" d="M0,-3.0v7 M-2.5,-0.5L0,-3.0L2.5,-0.5"/>
                </g>
                <g id="arrowDown" xlink:href="#dirArrow" transform="rotate(180) translate(-30 -48)" onmousedown="handlePan(0,1)">
                  <use xlink:href="#rim" fill="#404040">
                        <set attributeName="fill" to="#808080" begin="arrowDown.mouseover" end="arrowDown.mouseout"/>
                  </use>
                  <path fill="none" stroke="white" stroke-width="1.5" d="M0,-3.0v7 M-2.5,-0.5L0,-3.0L2.5,-0.5"/>
                </g>
                <g id="arrowLeft" xlink:href="#dirArrow" transform="rotate(270) translate(-36 17)" onmousedown="handlePan(-1,0)">
                  <use xlink:href="#rim" fill="#404040">
                        <set attributeName="fill" to="#808080" begin="arrowLeft.mouseover" end="arrowLeft.mouseout"/>
                  </use>
                  <path fill="none" stroke="white" stroke-width="1.5" d="M0,-3.0v7 M-2.5,-0.5L0,-3.0L2.5,-0.5"/>
                </g>
        </g>
        <svg viewBox="0 0 15 15" width="100%" height="30px" preserveAspectRatio="xMaxYMin meet">
         <g id="arrow_out" transform="scale(0.3 0.3)">
          <a xlink:href="simu__tcp__app__flash__env_8cpp__incl_org.svg" target="_base">
           <rect id="button" ry="5" rx="5" y="6" x="6" height="38" width="38"
                fill="#f2f5e9" fill-opacity="0.5" stroke="#606060" stroke-width="1.0"/>
           <path id="arrow"
             d="M 11.500037,31.436501 C 11.940474,20.09759 22.043105,11.32322 32.158766,21.979434 L 37.068811,17.246167 C 37.068811,17.246167 37.088388,32 37.088388,32 L 22.160133,31.978069 C 22.160133,31.978069 26.997745,27.140456 26.997745,27.140456 C 18.528582,18.264221 13.291696,25.230495 11.500037,31.436501 z"
             style="fill:#404040;"/>
          </a>
         </g>
        </svg>
</svg>
