<?xml version="1.0" encoding="UTF-8" standalone="no"?>
<!DOCTYPE svg PUBLIC "-//W3C//DTD SVG 1.1//EN"
 "http://www.w3.org/Graphics/SVG/1.1/DTD/svg11.dtd">
<!-- Generated by graphviz version 2.43.0 (0)
 -->
<!-- Title: repos_for_Dox/cFDK/SRA/LIB/SHELL/LIB/hls/NTS/SimUdpDatagram.hpp Pages: 1 -->
<svg width="1438pt" height="395pt"
 viewBox="0.00 0.00 1438.00 395.00" xmlns="http://www.w3.org/2000/svg" xmlns:xlink="http://www.w3.org/1999/xlink">
<g id="graph0" class="graph" transform="scale(1 1) rotate(0) translate(4 391)">
<title>repos_for_Dox/cFDK/SRA/LIB/SHELL/LIB/hls/NTS/SimUdpDatagram.hpp</title>
<!-- Node1 -->
<g id="node1" class="node">
<title>Node1</title>
<g id="a_node1"><a xlink:title=": A simulation class to build UDP datagrams.">
<polygon fill="#bfbfbf" stroke="black" points="495.5,-345.5 495.5,-386.5 645.5,-386.5 645.5,-345.5 495.5,-345.5"/>
<text text-anchor="start" x="503.5" y="-374.5" font-family="Helvetica,sans-Serif" font-size="10.00">repos_for_Dox/cFDK</text>
<text text-anchor="start" x="503.5" y="-363.5" font-family="Helvetica,sans-Serif" font-size="10.00">/SRA/LIB/SHELL/LIB/hls</text>
<text text-anchor="middle" x="570.5" y="-352.5" font-family="Helvetica,sans-Serif" font-size="10.00">/NTS/SimUdpDatagram.hpp</text>
</a>
</g>
</g>
<!-- Node2 -->
<g id="node2" class="node">
<title>Node2</title>
<g id="a_node2"><a xlink:href="test__iprx_8hpp.html" target="_top" xlink:title=": Testbench for the IP Receiver packet handler (IPRX).">
<polygon fill="none" stroke="black" points="0,-95 0,-136 149,-136 149,-95 0,-95"/>
<text text-anchor="start" x="8" y="-124" font-family="Helvetica,sans-Serif" font-size="10.00">repos_for_Dox/cFDK</text>
<text text-anchor="start" x="8" y="-113" font-family="Helvetica,sans-Serif" font-size="10.00">/SRA/LIB/SHELL/LIB/hls</text>
<text text-anchor="middle" x="74.5" y="-102" font-family="Helvetica,sans-Serif" font-size="10.00">/NTS/iprx/test/test_iprx.hpp</text>
</a>
</g>
</g>
<!-- Node1&#45;&gt;Node2 -->
<g id="edge1" class="edge">
<title>Node1&#45;&gt;Node2</title>
<path fill="none" stroke="midnightblue" d="M485.38,-353.09C396.83,-337.31 257.53,-302.62 158.5,-231 123.54,-205.72 97.12,-161.49 83.91,-136.04"/>
<polygon fill="midnightblue" stroke="midnightblue" points="484.94,-356.57 495.39,-354.83 486.14,-349.67 484.94,-356.57"/>
</g>
<!-- Node4 -->
<g id="node4" class="node">
<title>Node4</title>
<g id="a_node4"><a xlink:href="SimIp4Packet_8hpp.html" target="_top" xlink:title=": A simulation class to build and handle IPv4 packets.">
<polygon fill="none" stroke="black" points="506.5,-267.5 506.5,-308.5 634.5,-308.5 634.5,-267.5 506.5,-267.5"/>
<text text-anchor="start" x="514.5" y="-296.5" font-family="Helvetica,sans-Serif" font-size="10.00">repos_for_Dox/cFDK</text>
<text text-anchor="start" x="514.5" y="-285.5" font-family="Helvetica,sans-Serif" font-size="10.00">/SRA/LIB/SHELL/LIB/hls</text>
<text text-anchor="middle" x="570.5" y="-274.5" font-family="Helvetica,sans-Serif" font-size="10.00">/NTS/SimIp4Packet.hpp</text>
</a>
</g>
</g>
<!-- Node1&#45;&gt;Node4 -->
<g id="edge3" class="edge">
<title>Node1&#45;&gt;Node4</title>
<path fill="none" stroke="midnightblue" d="M570.5,-335.3C570.5,-326.3 570.5,-316.65 570.5,-308.51"/>
<polygon fill="midnightblue" stroke="midnightblue" points="567,-335.43 570.5,-345.43 574,-335.43 567,-335.43"/>
</g>
<!-- Node20 -->
<g id="node20" class="node">
<title>Node20</title>
<g id="a_node20"><a xlink:href="test__uoe_8hpp.html" target="_top" xlink:title=": Testbench for the UDP Offload Engine (UOE).">
<polygon fill="none" stroke="black" points="1083.5,-184 1083.5,-225 1231.5,-225 1231.5,-184 1083.5,-184"/>
<text text-anchor="start" x="1091.5" y="-213" font-family="Helvetica,sans-Serif" font-size="10.00">repos_for_Dox/cFDK</text>
<text text-anchor="start" x="1091.5" y="-202" font-family="Helvetica,sans-Serif" font-size="10.00">/SRA/LIB/SHELL/LIB/hls</text>
<text text-anchor="middle" x="1157.5" y="-191" font-family="Helvetica,sans-Serif" font-size="10.00">/NTS/uoe/test/test_uoe.hpp</text>
</a>
</g>
</g>
<!-- Node1&#45;&gt;Node20 -->
<g id="edge27" class="edge">
<title>Node1&#45;&gt;Node20</title>
<path fill="none" stroke="midnightblue" d="M655.48,-343.31C755.69,-317.52 927.14,-272.7 1073.5,-231 1080.1,-229.12 1086.97,-227.11 1093.82,-225.08"/>
<polygon fill="midnightblue" stroke="midnightblue" points="654.53,-339.94 645.71,-345.82 656.27,-346.72 654.53,-339.94"/>
</g>
<!-- Node3 -->
<g id="node3" class="node">
<title>Node3</title>
<g id="a_node3"><a xlink:href="test__iprx_8cpp.html" target="_top" xlink:title=": Testbench for the IP Receiver packet handler (IPRX).">
<polygon fill="none" stroke="black" points="0,-6 0,-47 149,-47 149,-6 0,-6"/>
<text text-anchor="start" x="8" y="-35" font-family="Helvetica,sans-Serif" font-size="10.00">repos_for_Dox/cFDK</text>
<text text-anchor="start" x="8" y="-24" font-family="Helvetica,sans-Serif" font-size="10.00">/SRA/LIB/SHELL/LIB/hls</text>
<text text-anchor="middle" x="74.5" y="-13" font-family="Helvetica,sans-Serif" font-size="10.00">/NTS/iprx/test/test_iprx.cpp</text>
</a>
</g>
</g>
<!-- Node2&#45;&gt;Node3 -->
<g id="edge2" class="edge">
<title>Node2&#45;&gt;Node3</title>
<path fill="none" stroke="midnightblue" d="M74.5,-84.44C74.5,-72.1 74.5,-58.16 74.5,-47.16"/>
<polygon fill="midnightblue" stroke="midnightblue" points="71,-84.76 74.5,-94.76 78,-84.76 71,-84.76"/>
</g>
<!-- Node4&#45;&gt;Node2 -->
<g id="edge8" class="edge">
<title>Node4&#45;&gt;Node2</title>
<path fill="none" stroke="midnightblue" d="M496.48,-281.21C432.78,-274.45 339.29,-260.21 262.5,-231 199.63,-207.09 134.35,-161.94 99.69,-136.05"/>
<polygon fill="midnightblue" stroke="midnightblue" points="496.13,-284.69 506.44,-282.23 496.85,-277.73 496.13,-284.69"/>
</g>
<!-- Node5 -->
<g id="node5" class="node">
<title>Node5</title>
<g id="a_node5"><a xlink:href="test__arp_8hpp.html" target="_top" xlink:title=" ">
<polygon fill="none" stroke="black" points="310,-95 310,-136 453,-136 453,-95 310,-95"/>
<text text-anchor="start" x="318" y="-124" font-family="Helvetica,sans-Serif" font-size="10.00">repos_for_Dox/cFDK</text>
<text text-anchor="start" x="318" y="-113" font-family="Helvetica,sans-Serif" font-size="10.00">/SRA/LIB/SHELL/LIB/hls</text>
<text text-anchor="middle" x="381.5" y="-102" font-family="Helvetica,sans-Serif" font-size="10.00">/NTS/arp/test/test_arp.hpp</text>
</a>
</g>
</g>
<!-- Node4&#45;&gt;Node5 -->
<g id="edge4" class="edge">
<title>Node4&#45;&gt;Node5</title>
<path fill="none" stroke="midnightblue" d="M546.1,-259.54C525.32,-236.74 494.18,-203.96 464.5,-178 447.35,-163.01 426.79,-147.75 410.43,-136.19"/>
<polygon fill="midnightblue" stroke="midnightblue" points="543.7,-262.1 553.01,-267.16 548.89,-257.4 543.7,-262.1"/>
</g>
<!-- Node7 -->
<g id="node7" class="node">
<title>Node7</title>
<g id="a_node7"><a xlink:href="test__icmp_8hpp.html" target="_top" xlink:title=" ">
<polygon fill="none" stroke="black" points="471.5,-95 471.5,-136 631.5,-136 631.5,-95 471.5,-95"/>
<text text-anchor="start" x="479.5" y="-124" font-family="Helvetica,sans-Serif" font-size="10.00">repos_for_Dox/cFDK</text>
<text text-anchor="start" x="479.5" y="-113" font-family="Helvetica,sans-Serif" font-size="10.00">/SRA/LIB/SHELL/LIB/hls</text>
<text text-anchor="middle" x="551.5" y="-102" font-family="Helvetica,sans-Serif" font-size="10.00">/NTS/icmp/test/test_icmp.hpp</text>
</a>
</g>
</g>
<!-- Node4&#45;&gt;Node7 -->
<g id="edge6" class="edge">
<title>Node4&#45;&gt;Node7</title>
<path fill="none" stroke="midnightblue" d="M567.2,-257.4C563.32,-222.61 557,-165.84 553.68,-136.09"/>
<polygon fill="midnightblue" stroke="midnightblue" points="563.73,-257.89 568.32,-267.44 570.69,-257.12 563.73,-257.89"/>
</g>
<!-- Node9 -->
<g id="node9" class="node">
<title>Node9</title>
<g id="a_node9"><a xlink:href="test__iptx_8hpp.html" target="_top" xlink:title=": Testbench for the IP Transmitter packet handler (IPTX).">
<polygon fill="none" stroke="black" points="650,-95 650,-136 799,-136 799,-95 650,-95"/>
<text text-anchor="start" x="658" y="-124" font-family="Helvetica,sans-Serif" font-size="10.00">repos_for_Dox/cFDK</text>
<text text-anchor="start" x="658" y="-113" font-family="Helvetica,sans-Serif" font-size="10.00">/SRA/LIB/SHELL/LIB/hls</text>
<text text-anchor="middle" x="724.5" y="-102" font-family="Helvetica,sans-Serif" font-size="10.00">/NTS/iptx/test/test_iptx.hpp</text>
</a>
</g>
</g>
<!-- Node4&#45;&gt;Node9 -->
<g id="edge9" class="edge">
<title>Node4&#45;&gt;Node9</title>
<path fill="none" stroke="midnightblue" d="M574.76,-257.23C579.49,-233.46 589.17,-200.52 608.5,-178 624.31,-159.58 647.04,-145.84 668.2,-136.08"/>
<polygon fill="midnightblue" stroke="midnightblue" points="571.31,-256.65 572.97,-267.11 578.2,-257.9 571.31,-256.65"/>
</g>
<!-- Node11 -->
<g id="node11" class="node">
<title>Node11</title>
<g id="a_node11"><a xlink:href="SimEthFrame_8hpp.html" target="_top" xlink:title=": A simulation class to build and handle Ethernet frames.">
<polygon fill="none" stroke="black" points="327.5,-184 327.5,-225 455.5,-225 455.5,-184 327.5,-184"/>
<text text-anchor="start" x="335.5" y="-213" font-family="Helvetica,sans-Serif" font-size="10.00">repos_for_Dox/cFDK</text>
<text text-anchor="start" x="335.5" y="-202" font-family="Helvetica,sans-Serif" font-size="10.00">/SRA/LIB/SHELL/LIB/hls</text>
<text text-anchor="middle" x="391.5" y="-191" font-family="Helvetica,sans-Serif" font-size="10.00">/NTS/SimEthFrame.hpp</text>
</a>
</g>
</g>
<!-- Node4&#45;&gt;Node11 -->
<g id="edge11" class="edge">
<title>Node4&#45;&gt;Node11</title>
<path fill="none" stroke="midnightblue" d="M518.42,-263.29C491.72,-251.13 459.59,-236.5 434.33,-225"/>
<polygon fill="midnightblue" stroke="midnightblue" points="517.07,-266.52 527.63,-267.48 519.97,-260.15 517.07,-266.52"/>
</g>
<!-- Node12 -->
<g id="node12" class="node">
<title>Node12</title>
<g id="a_node12"><a xlink:href="test__toecam_8hpp.html" target="_top" xlink:title=" ">
<polygon fill="none" stroke="black" points="167,-89.5 167,-141.5 292,-141.5 292,-89.5 167,-89.5"/>
<text text-anchor="start" x="175" y="-129.5" font-family="Helvetica,sans-Serif" font-size="10.00">repos_for_Dox/cFDK</text>
<text text-anchor="start" x="175" y="-118.5" font-family="Helvetica,sans-Serif" font-size="10.00">/SRA/LIB/SHELL/LIB/hls</text>
<text text-anchor="start" x="175" y="-107.5" font-family="Helvetica,sans-Serif" font-size="10.00">/NTS/toecam/test/test</text>
<text text-anchor="middle" x="229.5" y="-96.5" font-family="Helvetica,sans-Serif" font-size="10.00">_toecam.hpp</text>
</a>
</g>
</g>
<!-- Node4&#45;&gt;Node12 -->
<g id="edge24" class="edge">
<title>Node4&#45;&gt;Node12</title>
<path fill="none" stroke="midnightblue" d="M496.39,-283.76C443.31,-278.43 372.04,-264.89 318.5,-231 283.61,-208.91 256.9,-168.14 242.2,-141.68"/>
<polygon fill="midnightblue" stroke="midnightblue" points="496.14,-287.25 506.42,-284.69 496.78,-280.28 496.14,-287.25"/>
</g>
<!-- Node14 -->
<g id="node14" class="node">
<title>Node14</title>
<g id="a_node14"><a xlink:href="test__rx__engine_8hpp.html" target="_top" xlink:title=": Testbench for RX Engine (RXe) of the TCP Offload Engine (TOE).">
<polygon fill="none" stroke="black" points="617.5,-178.5 617.5,-230.5 751.5,-230.5 751.5,-178.5 617.5,-178.5"/>
<text text-anchor="start" x="625.5" y="-218.5" font-family="Helvetica,sans-Serif" font-size="10.00">repos_for_Dox/cFDK</text>
<text text-anchor="start" x="625.5" y="-207.5" font-family="Helvetica,sans-Serif" font-size="10.00">/SRA/LIB/SHELL/LIB/hls</text>
<text text-anchor="start" x="625.5" y="-196.5" font-family="Helvetica,sans-Serif" font-size="10.00">/NTS/toe/src/rx_engine</text>
<text text-anchor="middle" x="684.5" y="-185.5" font-family="Helvetica,sans-Serif" font-size="10.00">/test/test_rx_engine.hpp</text>
</a>
</g>
</g>
<!-- Node4&#45;&gt;Node14 -->
<g id="edge18" class="edge">
<title>Node4&#45;&gt;Node14</title>
<path fill="none" stroke="midnightblue" d="M606.07,-261.57C619.81,-251.74 635.5,-240.53 649.21,-230.73"/>
<polygon fill="midnightblue" stroke="midnightblue" points="603.91,-258.82 597.81,-267.48 607.98,-264.51 603.91,-258.82"/>
</g>
<!-- Node16 -->
<g id="node16" class="node">
<title>Node16</title>
<g id="a_node16"><a xlink:href="test__tx__engine_8hpp.html" target="_top" xlink:title=" ">
<polygon fill="none" stroke="black" points="769.5,-178.5 769.5,-230.5 903.5,-230.5 903.5,-178.5 769.5,-178.5"/>
<text text-anchor="start" x="777.5" y="-218.5" font-family="Helvetica,sans-Serif" font-size="10.00">repos_for_Dox/cFDK</text>
<text text-anchor="start" x="777.5" y="-207.5" font-family="Helvetica,sans-Serif" font-size="10.00">/SRA/LIB/SHELL/LIB/hls</text>
<text text-anchor="start" x="777.5" y="-196.5" font-family="Helvetica,sans-Serif" font-size="10.00">/NTS/toe/src/tx_engine</text>
<text text-anchor="middle" x="836.5" y="-185.5" font-family="Helvetica,sans-Serif" font-size="10.00">/test/test_tx_engine.hpp</text>
</a>
</g>
</g>
<!-- Node4&#45;&gt;Node16 -->
<g id="edge20" class="edge">
<title>Node4&#45;&gt;Node16</title>
<path fill="none" stroke="midnightblue" d="M644.6,-265.85C679.81,-255.63 722.42,-242.99 760.5,-231 763.42,-230.08 766.4,-229.13 769.41,-228.16"/>
<polygon fill="midnightblue" stroke="midnightblue" points="643.51,-262.52 634.88,-268.67 645.46,-269.25 643.51,-262.52"/>
</g>
<!-- Node18 -->
<g id="node18" class="node">
<title>Node18</title>
<g id="a_node18"><a xlink:href="test__toe_8hpp.html" target="_top" xlink:title=": Testbench for the TCP Offload Engine (TOE)">
<polygon fill="none" stroke="black" points="922,-184 922,-225 1065,-225 1065,-184 922,-184"/>
<text text-anchor="start" x="930" y="-213" font-family="Helvetica,sans-Serif" font-size="10.00">repos_for_Dox/cFDK</text>
<text text-anchor="start" x="930" y="-202" font-family="Helvetica,sans-Serif" font-size="10.00">/SRA/LIB/SHELL/LIB/hls</text>
<text text-anchor="middle" x="993.5" y="-191" font-family="Helvetica,sans-Serif" font-size="10.00">/NTS/toe/test/test_toe.hpp</text>
</a>
</g>
</g>
<!-- Node4&#45;&gt;Node18 -->
<g id="edge22" class="edge">
<title>Node4&#45;&gt;Node18</title>
<path fill="none" stroke="midnightblue" d="M644.71,-277.96C714.39,-268.74 821.29,-252.71 912.5,-231 919.81,-229.26 927.43,-227.2 934.93,-225.02"/>
<polygon fill="midnightblue" stroke="midnightblue" points="644.16,-274.5 634.7,-279.27 645.07,-281.44 644.16,-274.5"/>
</g>
<!-- Node4&#45;&gt;Node20 -->
<g id="edge25" class="edge">
<title>Node4&#45;&gt;Node20</title>
<path fill="none" stroke="midnightblue" d="M644.78,-283.01C743.52,-276.74 923.05,-261.94 1073.5,-231 1081.41,-229.37 1089.65,-227.33 1097.74,-225.1"/>
<polygon fill="midnightblue" stroke="midnightblue" points="644.37,-279.53 634.61,-283.64 644.81,-286.52 644.37,-279.53"/>
</g>
<!-- Node6 -->
<g id="node6" class="node">
<title>Node6</title>
<g id="a_node6"><a xlink:href="test__arp_8cpp.html" target="_top" xlink:title=": Testbench for the Address Resolution Protocol (ARP) server.">
<polygon fill="none" stroke="black" points="310,-6 310,-47 453,-47 453,-6 310,-6"/>
<text text-anchor="start" x="318" y="-35" font-family="Helvetica,sans-Serif" font-size="10.00">repos_for_Dox/cFDK</text>
<text text-anchor="start" x="318" y="-24" font-family="Helvetica,sans-Serif" font-size="10.00">/SRA/LIB/SHELL/LIB/hls</text>
<text text-anchor="middle" x="381.5" y="-13" font-family="Helvetica,sans-Serif" font-size="10.00">/NTS/arp/test/test_arp.cpp</text>
</a>
</g>
</g>
<!-- Node5&#45;&gt;Node6 -->
<g id="edge5" class="edge">
<title>Node5&#45;&gt;Node6</title>
<path fill="none" stroke="midnightblue" d="M381.5,-84.44C381.5,-72.1 381.5,-58.16 381.5,-47.16"/>
<polygon fill="midnightblue" stroke="midnightblue" points="378,-84.76 381.5,-94.76 385,-84.76 378,-84.76"/>
</g>
<!-- Node8 -->
<g id="node8" class="node">
<title>Node8</title>
<g id="a_node8"><a xlink:href="test__icmp_8cpp.html" target="_top" xlink:title=": Testbench for the Internet Control Message Protocol (ICMP) server.">
<polygon fill="none" stroke="black" points="472,-6 472,-47 631,-47 631,-6 472,-6"/>
<text text-anchor="start" x="480" y="-35" font-family="Helvetica,sans-Serif" font-size="10.00">repos_for_Dox/cFDK</text>
<text text-anchor="start" x="480" y="-24" font-family="Helvetica,sans-Serif" font-size="10.00">/SRA/LIB/SHELL/LIB/hls</text>
<text text-anchor="middle" x="551.5" y="-13" font-family="Helvetica,sans-Serif" font-size="10.00">/NTS/icmp/test/test_icmp.cpp</text>
</a>
</g>
</g>
<!-- Node7&#45;&gt;Node8 -->
<g id="edge7" class="edge">
<title>Node7&#45;&gt;Node8</title>
<path fill="none" stroke="midnightblue" d="M551.5,-84.44C551.5,-72.1 551.5,-58.16 551.5,-47.16"/>
<polygon fill="midnightblue" stroke="midnightblue" points="548,-84.76 551.5,-94.76 555,-84.76 548,-84.76"/>
</g>
<!-- Node10 -->
<g id="node10" class="node">
<title>Node10</title>
<g id="a_node10"><a xlink:href="test__iptx_8cpp.html" target="_top" xlink:title=": Testbench for the IP Transmit frame handler (IPTX).">
<polygon fill="none" stroke="black" points="650,-6 650,-47 799,-47 799,-6 650,-6"/>
<text text-anchor="start" x="658" y="-35" font-family="Helvetica,sans-Serif" font-size="10.00">repos_for_Dox/cFDK</text>
<text text-anchor="start" x="658" y="-24" font-family="Helvetica,sans-Serif" font-size="10.00">/SRA/LIB/SHELL/LIB/hls</text>
<text text-anchor="middle" x="724.5" y="-13" font-family="Helvetica,sans-Serif" font-size="10.00">/NTS/iptx/test/test_iptx.cpp</text>
</a>
</g>
</g>
<!-- Node9&#45;&gt;Node10 -->
<g id="edge10" class="edge">
<title>Node9&#45;&gt;Node10</title>
<path fill="none" stroke="midnightblue" d="M724.5,-84.44C724.5,-72.1 724.5,-58.16 724.5,-47.16"/>
<polygon fill="midnightblue" stroke="midnightblue" points="721,-84.76 724.5,-94.76 728,-84.76 721,-84.76"/>
</g>
<!-- Node11&#45;&gt;Node2 -->
<g id="edge14" class="edge">
<title>Node11&#45;&gt;Node2</title>
<path fill="none" stroke="midnightblue" d="M317.58,-184.9C271.43,-173.08 210.85,-157.2 157.5,-142 150.98,-140.14 144.18,-138.15 137.41,-136.13"/>
<polygon fill="midnightblue" stroke="midnightblue" points="316.94,-188.35 327.5,-187.43 318.67,-181.57 316.94,-188.35"/>
</g>
<!-- Node11&#45;&gt;Node5 -->
<g id="edge12" class="edge">
<title>Node11&#45;&gt;Node5</title>
<path fill="none" stroke="midnightblue" d="M388.09,-173.81C386.66,-161.38 385.04,-147.27 383.76,-136.16"/>
<polygon fill="midnightblue" stroke="midnightblue" points="384.61,-174.22 389.23,-183.76 391.57,-173.42 384.61,-174.22"/>
</g>
<!-- Node11&#45;&gt;Node7 -->
<g id="edge13" class="edge">
<title>Node11&#45;&gt;Node7</title>
<path fill="none" stroke="midnightblue" d="M436.33,-179.12C461.32,-165.54 492.02,-148.84 515.44,-136.11"/>
<polygon fill="midnightblue" stroke="midnightblue" points="434.52,-176.12 427.41,-183.98 437.86,-182.27 434.52,-176.12"/>
</g>
<!-- Node11&#45;&gt;Node9 -->
<g id="edge15" class="edge">
<title>Node11&#45;&gt;Node9</title>
<path fill="none" stroke="midnightblue" d="M465.72,-186.25C515.37,-174.44 582.06,-158.08 640.5,-142 647.26,-140.14 654.3,-138.13 661.31,-136.07"/>
<polygon fill="midnightblue" stroke="midnightblue" points="464.63,-182.91 455.71,-188.62 466.25,-189.72 464.63,-182.91"/>
</g>
<!-- Node11&#45;&gt;Node12 -->
<g id="edge16" class="edge">
<title>Node11&#45;&gt;Node12</title>
<path fill="none" stroke="midnightblue" d="M346.09,-179.11C324.28,-167.4 298.18,-153.38 276.21,-141.58"/>
<polygon fill="midnightblue" stroke="midnightblue" points="344.68,-182.33 355.14,-183.98 347.99,-176.16 344.68,-182.33"/>
</g>
<!-- Node13 -->
<g id="node13" class="node">
<title>Node13</title>
<g id="a_node13"><a xlink:href="test__toecam_8cpp.html" target="_top" xlink:title=": Testbench for the Content&#45;Addressable Memory (CAM).">
<polygon fill="none" stroke="black" points="167,-0.5 167,-52.5 292,-52.5 292,-0.5 167,-0.5"/>
<text text-anchor="start" x="175" y="-40.5" font-family="Helvetica,sans-Serif" font-size="10.00">repos_for_Dox/cFDK</text>
<text text-anchor="start" x="175" y="-29.5" font-family="Helvetica,sans-Serif" font-size="10.00">/SRA/LIB/SHELL/LIB/hls</text>
<text text-anchor="start" x="175" y="-18.5" font-family="Helvetica,sans-Serif" font-size="10.00">/NTS/toecam/test/test</text>
<text text-anchor="middle" x="229.5" y="-7.5" font-family="Helvetica,sans-Serif" font-size="10.00">_toecam.cpp</text>
</a>
</g>
</g>
<!-- Node12&#45;&gt;Node13 -->
<g id="edge17" class="edge">
<title>Node12&#45;&gt;Node13</title>
<path fill="none" stroke="midnightblue" d="M229.5,-79.19C229.5,-70.28 229.5,-60.9 229.5,-52.61"/>
<polygon fill="midnightblue" stroke="midnightblue" points="226,-79.34 229.5,-89.34 233,-79.34 226,-79.34"/>
</g>
<!-- Node15 -->
<g id="node15" class="node">
<title>Node15</title>
<g id="a_node15"><a xlink:href="test__rx__engine_8cpp.html" target="_top" xlink:title=": Testbench for RX Engine (RXe) of the TCP Offload Engine (TOE).">
<polygon fill="none" stroke="black" points="817.5,-89.5 817.5,-141.5 951.5,-141.5 951.5,-89.5 817.5,-89.5"/>
<text text-anchor="start" x="825.5" y="-129.5" font-family="Helvetica,sans-Serif" font-size="10.00">repos_for_Dox/cFDK</text>
<text text-anchor="start" x="825.5" y="-118.5" font-family="Helvetica,sans-Serif" font-size="10.00">/SRA/LIB/SHELL/LIB/hls</text>
<text text-anchor="start" x="825.5" y="-107.5" font-family="Helvetica,sans-Serif" font-size="10.00">/NTS/toe/src/rx_engine</text>
<text text-anchor="middle" x="884.5" y="-96.5" font-family="Helvetica,sans-Serif" font-size="10.00">/test/test_rx_engine.cpp</text>
</a>
</g>
</g>
<!-- Node14&#45;&gt;Node15 -->
<g id="edge19" class="edge">
<title>Node14&#45;&gt;Node15</title>
<path fill="none" stroke="midnightblue" d="M751.31,-174.44C775.83,-163.77 803.35,-151.8 826.98,-141.52"/>
<polygon fill="midnightblue" stroke="midnightblue" points="749.85,-171.25 742.08,-178.45 752.65,-177.67 749.85,-171.25"/>
</g>
<!-- Node17 -->
<g id="node17" class="node">
<title>Node17</title>
<g id="a_node17"><a xlink:href="test__tx__engine_8cpp.html" target="_top" xlink:title=": Testbench for TX Engine (TXe) of the TCP Offload Engine (TOE).">
<polygon fill="none" stroke="black" points="969.5,-89.5 969.5,-141.5 1103.5,-141.5 1103.5,-89.5 969.5,-89.5"/>
<text text-anchor="start" x="977.5" y="-129.5" font-family="Helvetica,sans-Serif" font-size="10.00">repos_for_Dox/cFDK</text>
<text text-anchor="start" x="977.5" y="-118.5" font-family="Helvetica,sans-Serif" font-size="10.00">/SRA/LIB/SHELL/LIB/hls</text>
<text text-anchor="start" x="977.5" y="-107.5" font-family="Helvetica,sans-Serif" font-size="10.00">/NTS/toe/src/tx_engine</text>
<text text-anchor="middle" x="1036.5" y="-96.5" font-family="Helvetica,sans-Serif" font-size="10.00">/test/test_tx_engine.cpp</text>
</a>
</g>
</g>
<!-- Node16&#45;&gt;Node17 -->
<g id="edge21" class="edge">
<title>Node16&#45;&gt;Node17</title>
<path fill="none" stroke="midnightblue" d="M903.31,-174.44C927.83,-163.77 955.35,-151.8 978.98,-141.52"/>
<polygon fill="midnightblue" stroke="midnightblue" points="901.85,-171.25 894.08,-178.45 904.65,-177.67 901.85,-171.25"/>
</g>
<!-- Node19 -->
<g id="node19" class="node">
<title>Node19</title>
<g id="a_node19"><a xlink:href="test__toe_8cpp.html" target="_top" xlink:title=": Testbench for the TCP Offload Engine (TOE).">
<polygon fill="none" stroke="black" points="1122,-95 1122,-136 1265,-136 1265,-95 1122,-95"/>
<text text-anchor="start" x="1130" y="-124" font-family="Helvetica,sans-Serif" font-size="10.00">repos_for_Dox/cFDK</text>
<text text-anchor="start" x="1130" y="-113" font-family="Helvetica,sans-Serif" font-size="10.00">/SRA/LIB/SHELL/LIB/hls</text>
<text text-anchor="middle" x="1193.5" y="-102" font-family="Helvetica,sans-Serif" font-size="10.00">/NTS/toe/test/test_toe.cpp</text>
</a>
</g>
</g>
<!-- Node18&#45;&gt;Node19 -->
<g id="edge23" class="edge">
<title>Node18&#45;&gt;Node19</title>
<path fill="none" stroke="midnightblue" d="M1047.9,-179.84C1079.42,-166.12 1118.63,-149.07 1148.42,-136.11"/>
<polygon fill="midnightblue" stroke="midnightblue" points="1046.16,-176.78 1038.38,-183.98 1048.95,-183.2 1046.16,-176.78"/>
</g>
<!-- Node21 -->
<g id="node21" class="node">
<title>Node21</title>
<g id="a_node21"><a xlink:href="test__uoe_8cpp.html" target="_top" xlink:title=": Testbench for the UDP Offload Engine (UOE).">
<polygon fill="none" stroke="black" points="1283,-95 1283,-136 1430,-136 1430,-95 1283,-95"/>
<text text-anchor="start" x="1291" y="-124" font-family="Helvetica,sans-Serif" font-size="10.00">repos_for_Dox/cFDK</text>
<text text-anchor="start" x="1291" y="-113" font-family="Helvetica,sans-Serif" font-size="10.00">/SRA/LIB/SHELL/LIB/hls</text>
<text text-anchor="middle" x="1356.5" y="-102" font-family="Helvetica,sans-Serif" font-size="10.00">/NTS/uoe/test/test_uoe.cpp</text>
</a>
</g>
</g>
<!-- Node20&#45;&gt;Node21 -->
<g id="edge26" class="edge">
<title>Node20&#45;&gt;Node21</title>
<path fill="none" stroke="midnightblue" d="M1211.63,-179.84C1242.99,-166.12 1282.01,-149.07 1311.65,-136.11"/>
<polygon fill="midnightblue" stroke="midnightblue" points="1209.92,-176.76 1202.16,-183.98 1212.72,-183.18 1209.92,-176.76"/>
</g>
</g>
</svg>
