<?xml version="1.0" encoding="UTF-8" standalone="no"?>
<!DOCTYPE svg PUBLIC "-//W3C//DTD SVG 1.1//EN"
 "http://www.w3.org/Graphics/SVG/1.1/DTD/svg11.dtd">
<!-- Generated by graphviz version 2.43.0 (0)
 -->
<!-- Title: repos_for_Dox/cFDK/SRA/LIB/SHELL/LIB/hls/NTS/SimUdpDatagram.hpp Pages: 1 -->
<!--zoomable 554 -->
<svg id="main" version="1.1" xmlns="http://www.w3.org/2000/svg" xmlns:xlink="http://www.w3.org/1999/xlink" xml:space="preserve" onload="init(evt)">
<style type="text/css"><![CDATA[
.edge:hover path { stroke: red; }
.edge:hover polygon { stroke: red; fill: red; }
]]></style>
<script type="text/javascript"><![CDATA[
var edges = document.getElementsByTagName('g');
if (edges && edges.length) {
  for (var i=0;i<edges.length;i++) {
    if (edges[i].id.substr(0,4)=='edge') {
      edges[i].setAttribute('class','edge');
    }
  }
}
]]></script>
        <defs>
                <circle id="rim" cx="0" cy="0" r="7"/>
                <circle id="rim2" cx="0" cy="0" r="3.5"/>
                <g id="zoomPlus">
                        <use xlink:href="#rim" fill="#404040">
                                <set attributeName="fill" to="#808080" begin="zoomplus.mouseover" end="zoomplus.mouseout"/>
                        </use>
                        <path d="M-4,0h8M0,-4v8" fill="none" stroke="white" stroke-width="1.5" pointer-events="none"/>
                </g>
                <g id="zoomMin">
                        <use xlink:href="#rim" fill="#404040">
                                <set attributeName="fill" to="#808080" begin="zoomminus.mouseover" end="zoomminus.mouseout"/>
                        </use>
                        <path d="M-4,0h8" fill="none" stroke="white" stroke-width="1.5" pointer-events="none"/>
                </g>
                <g id="dirArrow">
                        <path fill="none" stroke="white" stroke-width="1.5" d="M0,-3.0v7 M-2.5,-0.5L0,-3.0L2.5,-0.5"/>
                </g>
               <g id="resetDef">
                       <use xlink:href="#rim2" fill="#404040">
                               <set attributeName="fill" to="#808080" begin="reset.mouseover" end="reset.mouseout"/>
                       </use>
               </g>
        </defs>

<script type="text/javascript">
var viewWidth = 555;
var viewHeight = 554;
var sectionId = 'dynsection-0';
</script>
<script xlink:href="svgpan.js"/>
<svg id="graph" class="graph">
<g id="viewport">
<title>repos_for_Dox/cFDK/SRA/LIB/SHELL/LIB/hls/NTS/SimUdpDatagram.hpp</title>
<!-- Node1 -->
<g id="node1" class="node">
<title>Node1</title>
<g id="a_node1"><a xlink:title=": A simulation class to build UDP datagrams.">
<polygon fill="#bfbfbf" stroke="black" points="114.02,-504.5 114.02,-545.5 264.02,-545.5 264.02,-504.5 114.02,-504.5"/>
<text text-anchor="start" x="122.02" y="-533.5" font-family="Helvetica,sans-Serif" font-size="10.00">repos_for_Dox/cFDK</text>
<text text-anchor="start" x="122.02" y="-522.5" font-family="Helvetica,sans-Serif" font-size="10.00">/SRA/LIB/SHELL/LIB/hls</text>
<text text-anchor="middle" x="189.02" y="-511.5" font-family="Helvetica,sans-Serif" font-size="10.00">/NTS/SimUdpDatagram.hpp</text>
</a>
</g>
</g>
<!-- Node2 -->
<g id="node2" class="node">
<title>Node2</title>
<g id="a_node2"><a xlink:href="nts__utils_8hpp.html" target="_top" xlink:title=": Utilities and helpers for the Network&#45;Transport&#45;Stack (NTS) components.">
<polygon fill="none" stroke="black" points="149.52,-392.5 149.52,-411.5 228.52,-411.5 228.52,-392.5 149.52,-392.5"/>
<text text-anchor="middle" x="189.02" y="-399.5" font-family="Helvetica,sans-Serif" font-size="10.00">nts_utils.hpp</text>
</a>
</g>
</g>
<!-- Node1&#45;&gt;Node2 -->
<g id="edge1" class="edge">
<title>Node1&#45;&gt;Node2</title>
<path fill="none" stroke="midnightblue" d="M189.02,-504.29C189.02,-481.48 189.02,-444.19 189.02,-421.78"/>
<polygon fill="midnightblue" stroke="midnightblue" points="192.52,-421.57 189.02,-411.57 185.52,-421.57 192.52,-421.57"/>
</g>
<!-- Node16 -->
<g id="node16" class="node">
<title>Node16</title>
<g id="a_node16"><a xlink:href="AxisUdp_8hpp.html" target="_top" xlink:title=": A class to access UDP header fields within data chunks transmitted over an AXI4&#45;Stream interface.">
<polygon fill="none" stroke="black" points="11.02,-112.5 11.02,-131.5 89.02,-131.5 89.02,-112.5 11.02,-112.5"/>
<text text-anchor="middle" x="50.02" y="-119.5" font-family="Helvetica,sans-Serif" font-size="10.00">AxisUdp.hpp</text>
</a>
</g>
</g>
<!-- Node1&#45;&gt;Node16 -->
<g id="edge37" class="edge">
<title>Node1&#45;&gt;Node16</title>
<path fill="none" stroke="midnightblue" d="M120.2,-504.32C73.81,-486.35 21.02,-454.58 21.02,-403 21.02,-403 21.02,-403 21.02,-233 21.02,-199.72 33.59,-162.58 42.17,-141.09"/>
<polygon fill="midnightblue" stroke="midnightblue" points="45.5,-142.21 46.11,-131.64 39.04,-139.53 45.5,-142.21"/>
</g>
<!-- Node20 -->
<g id="node20" class="node">
<title>Node20</title>
<g id="a_node20"><a xlink:href="SimNtsUtils_8hpp.html" target="_top" xlink:title=": Utilities for the simulation of the Network&#45;Transport&#45;Stack (NTS) components.">
<polygon fill="none" stroke="black" points="261.52,-448.5 261.52,-467.5 356.52,-467.5 356.52,-448.5 261.52,-448.5"/>
<text text-anchor="middle" x="309.02" y="-455.5" font-family="Helvetica,sans-Serif" font-size="10.00">SimNtsUtils.hpp</text>
</a>
</g>
</g>
<!-- Node1&#45;&gt;Node20 -->
<g id="edge28" class="edge">
<title>Node1&#45;&gt;Node20</title>
<path fill="none" stroke="midnightblue" d="M225.02,-504.5C244.13,-494.15 267.12,-481.69 284.22,-472.43"/>
<polygon fill="midnightblue" stroke="midnightblue" points="285.92,-475.49 293.04,-467.65 282.58,-469.34 285.92,-475.49"/>
</g>
<!-- Node3 -->
<g id="node3" class="node">
<title>Node3</title>
<g id="a_node3"><a xlink:href="mem_8hpp.html" target="_top" xlink:title=": Memory Sub&#45;System (MEM) for the cloudFPGA shell.">
<polygon fill="none" stroke="black" points="71.52,-336.5 71.52,-355.5 170.52,-355.5 170.52,-336.5 71.52,-336.5"/>
<text text-anchor="middle" x="121.02" y="-343.5" font-family="Helvetica,sans-Serif" font-size="10.00">../MEM/mem.hpp</text>
</a>
</g>
</g>
<!-- Node2&#45;&gt;Node3 -->
<g id="edge2" class="edge">
<title>Node2&#45;&gt;Node3</title>
<path fill="none" stroke="midnightblue" d="M178.09,-392.32C167.84,-384.18 152.3,-371.84 140.02,-362.09"/>
<polygon fill="midnightblue" stroke="midnightblue" points="142.15,-359.31 132.14,-355.83 137.8,-364.79 142.15,-359.31"/>
</g>
<!-- Node5 -->
<g id="node5" class="node">
<title>Node5</title>
<g id="a_node5"><a xlink:href="nts_8hpp.html" target="_top" xlink:title=": Definition of the Network Transport Stack (NTS) component as if it was an HLS IP core.">
<polygon fill="none" stroke="black" points="226.02,-336.5 226.02,-355.5 310.02,-355.5 310.02,-336.5 226.02,-336.5"/>
<text text-anchor="middle" x="268.02" y="-343.5" font-family="Helvetica,sans-Serif" font-size="10.00">../NTS/nts.hpp</text>
</a>
</g>
</g>
<!-- Node2&#45;&gt;Node5 -->
<g id="edge4" class="edge">
<title>Node2&#45;&gt;Node5</title>
<path fill="none" stroke="midnightblue" d="M201.71,-392.32C213.92,-383.98 232.6,-371.21 247.02,-361.35"/>
<polygon fill="midnightblue" stroke="midnightblue" points="249.08,-364.19 255.36,-355.65 245.13,-358.41 249.08,-364.19"/>
</g>
<!-- Node4 -->
<g id="node4" class="node">
<title>Node4</title>
<g id="a_node4"><a xlink:title=" ">
<polygon fill="none" stroke="#bfbfbf" points="70.02,-0.5 70.02,-19.5 126.02,-19.5 126.02,-0.5 70.02,-0.5"/>
<text text-anchor="middle" x="98.02" y="-7.5" font-family="Helvetica,sans-Serif" font-size="10.00">ap_int.h</text>
</a>
</g>
</g>
<!-- Node3&#45;&gt;Node4 -->
<g id="edge3" class="edge">
<title>Node3&#45;&gt;Node4</title>
<path fill="none" stroke="midnightblue" d="M114,-336.38C92.04,-308.79 24.75,-219.31 2.02,-132 -9.98,-85.94 40.8,-45.59 73.08,-25.17"/>
<polygon fill="midnightblue" stroke="midnightblue" points="75.3,-27.91 82.02,-19.72 71.66,-21.94 75.3,-27.91"/>
</g>
<!-- Node6 -->
<g id="node6" class="node">
<title>Node6</title>
<g id="a_node6"><a xlink:href="nts__types_8hpp.html" target="_top" xlink:title=": Definition of the types used by the Network Transport Stack (NTS) component of the cloudFPGA shell.">
<polygon fill="none" stroke="black" points="281.52,-280.5 281.52,-299.5 366.52,-299.5 366.52,-280.5 281.52,-280.5"/>
<text text-anchor="middle" x="324.02" y="-287.5" font-family="Helvetica,sans-Serif" font-size="10.00">nts_types.hpp</text>
</a>
</g>
</g>
<!-- Node5&#45;&gt;Node6 -->
<g id="edge5" class="edge">
<title>Node5&#45;&gt;Node6</title>
<path fill="none" stroke="midnightblue" d="M277.01,-336.32C285.21,-328.42 297.52,-316.55 307.49,-306.94"/>
<polygon fill="midnightblue" stroke="midnightblue" points="310.09,-309.29 314.86,-299.83 305.23,-304.26 310.09,-309.29"/>
</g>
<!-- Node17 -->
<g id="node17" class="node">
<title>Node17</title>
<g id="a_node17"><a xlink:href="nts__config_8hpp.html" target="_top" xlink:title=": Configuration parameters for the Network Transport Stack (NTS) component and sub&#45;components.">
<polygon fill="none" stroke="black" points="168.52,-280.5 168.52,-299.5 255.52,-299.5 255.52,-280.5 168.52,-280.5"/>
<text text-anchor="middle" x="212.02" y="-287.5" font-family="Helvetica,sans-Serif" font-size="10.00">nts_config.hpp</text>
</a>
</g>
</g>
<!-- Node5&#45;&gt;Node17 -->
<g id="edge25" class="edge">
<title>Node5&#45;&gt;Node17</title>
<path fill="none" stroke="midnightblue" d="M259.02,-336.32C250.82,-328.42 238.51,-316.55 228.55,-306.94"/>
<polygon fill="midnightblue" stroke="midnightblue" points="230.81,-304.26 221.18,-299.83 225.95,-309.29 230.81,-304.26"/>
</g>
<!-- Node7 -->
<g id="node7" class="node">
<title>Node7</title>
<g id="a_node7"><a xlink:title=" ">
<polygon fill="none" stroke="#bfbfbf" points="330.02,-0.5 330.02,-19.5 410.02,-19.5 410.02,-0.5 330.02,-0.5"/>
<text text-anchor="middle" x="370.02" y="-7.5" font-family="Helvetica,sans-Serif" font-size="10.00">hls_stream.h</text>
</a>
</g>
</g>
<!-- Node6&#45;&gt;Node7 -->
<g id="edge6" class="edge">
<title>Node6&#45;&gt;Node7</title>
<path fill="none" stroke="midnightblue" d="M341.15,-280.41C369.97,-264.61 425.02,-228 425.02,-179 425.02,-179 425.02,-179 425.02,-121 425.02,-84.57 400.58,-47.84 384.29,-27.39"/>
<polygon fill="midnightblue" stroke="midnightblue" points="386.97,-25.14 377.9,-19.67 381.58,-29.6 386.97,-25.14"/>
</g>
<!-- Node8 -->
<g id="node8" class="node">
<title>Node8</title>
<g id="a_node8"><a xlink:href="AxisEth_8hpp.html" target="_top" xlink:title=": A class to access an ETHernet data chunk transmitted over an AXI4&#45;Stream interface.">
<polygon fill="none" stroke="black" points="294.02,-224.5 294.02,-243.5 368.02,-243.5 368.02,-224.5 294.02,-224.5"/>
<text text-anchor="middle" x="331.02" y="-231.5" font-family="Helvetica,sans-Serif" font-size="10.00">AxisEth.hpp</text>
</a>
</g>
</g>
<!-- Node6&#45;&gt;Node8 -->
<g id="edge7" class="edge">
<title>Node6&#45;&gt;Node8</title>
<path fill="none" stroke="midnightblue" d="M325.17,-280.08C326.1,-272.93 327.44,-262.64 328.59,-253.69"/>
<polygon fill="midnightblue" stroke="midnightblue" points="332.07,-254.12 329.88,-243.75 325.13,-253.22 332.07,-254.12"/>
</g>
<!-- Node13 -->
<g id="node13" class="node">
<title>Node13</title>
<g id="a_node13"><a xlink:href="AxisIp4_8hpp.html" target="_top" xlink:title=": A class to access an IPv4 data chunk transmitted over an AXI4&#45;Stream interface.">
<polygon fill="none" stroke="black" points="170.02,-168.5 170.02,-187.5 244.02,-187.5 244.02,-168.5 170.02,-168.5"/>
<text text-anchor="middle" x="207.02" y="-175.5" font-family="Helvetica,sans-Serif" font-size="10.00">AxisIp4.hpp</text>
</a>
</g>
</g>
<!-- Node6&#45;&gt;Node13 -->
<g id="edge24" class="edge">
<title>Node6&#45;&gt;Node13</title>
<path fill="none" stroke="midnightblue" d="M314.84,-280.37C295.19,-261.89 248.81,-218.29 223.76,-194.74"/>
<polygon fill="midnightblue" stroke="midnightblue" points="225.84,-191.89 216.16,-187.59 221.04,-196.99 225.84,-191.89"/>
</g>
<!-- Node9 -->
<g id="node9" class="node">
<title>Node9</title>
<g id="a_node9"><a xlink:href="AxisRaw_8hpp.html" target="_top" xlink:title=": A generic class used by the Network&#45;Transport&#45;Stack (NTS) to to transfer a chunk of data over an AX...">
<polygon fill="none" stroke="black" points="244.52,-56.5 244.52,-75.5 323.52,-75.5 323.52,-56.5 244.52,-56.5"/>
<text text-anchor="middle" x="284.02" y="-63.5" font-family="Helvetica,sans-Serif" font-size="10.00">AxisRaw.hpp</text>
</a>
</g>
</g>
<!-- Node8&#45;&gt;Node9 -->
<g id="edge8" class="edge">
<title>Node8&#45;&gt;Node9</title>
<path fill="none" stroke="midnightblue" d="M326.14,-224.37C321.46,-215.55 314.71,-201.3 312.02,-188 310.25,-179.29 309.98,-176.65 312.02,-168 318.02,-142.56 340.15,-136.1 330.02,-112 324.99,-100.05 315.07,-89.69 305.73,-81.93"/>
<polygon fill="midnightblue" stroke="midnightblue" points="307.86,-79.15 297.8,-75.81 303.58,-84.69 307.86,-79.15"/>
</g>
<!-- Node12 -->
<g id="node12" class="node">
<title>Node12</title>
<g id="a_node12"><a xlink:href="AxisArp_8hpp.html" target="_top" xlink:title=": A class to access an ARP data chunk transmitted over an AXI4&#45;Stream interface.">
<polygon fill="none" stroke="black" points="321.52,-168.5 321.52,-187.5 396.52,-187.5 396.52,-168.5 321.52,-168.5"/>
<text text-anchor="middle" x="359.02" y="-175.5" font-family="Helvetica,sans-Serif" font-size="10.00">AxisArp.hpp</text>
</a>
</g>
</g>
<!-- Node8&#45;&gt;Node12 -->
<g id="edge13" class="edge">
<title>Node8&#45;&gt;Node12</title>
<path fill="none" stroke="midnightblue" d="M330.47,-224.08C332.8,-216.53 338.13,-205.49 343.74,-196.23"/>
<polygon fill="midnightblue" stroke="midnightblue" points="346.75,-198.02 349.35,-187.75 340.91,-194.16 346.75,-198.02"/>
</g>
<!-- Node8&#45;&gt;Node13 -->
<g id="edge16" class="edge">
<title>Node8&#45;&gt;Node13</title>
<path fill="none" stroke="midnightblue" d="M311.37,-224.44C291.05,-215.6 259.11,-201.69 235.92,-191.59"/>
<polygon fill="midnightblue" stroke="midnightblue" points="237.14,-188.3 226.57,-187.52 234.34,-194.72 237.14,-188.3"/>
</g>
<!-- Node9&#45;&gt;Node4 -->
<g id="edge12" class="edge">
<title>Node9&#45;&gt;Node4</title>
<path fill="none" stroke="midnightblue" d="M254.55,-56.44C222.47,-47.13 171.09,-32.22 136.01,-22.03"/>
<polygon fill="midnightblue" stroke="midnightblue" points="136.71,-18.59 126.13,-19.16 134.76,-25.31 136.71,-18.59"/>
</g>
<!-- Node9&#45;&gt;Node7 -->
<g id="edge11" class="edge">
<title>Node9&#45;&gt;Node7</title>
<path fill="none" stroke="midnightblue" d="M297.83,-56.32C311.25,-47.9 331.84,-34.97 347.6,-25.07"/>
<polygon fill="midnightblue" stroke="midnightblue" points="349.63,-27.94 356.23,-19.65 345.9,-22.01 349.63,-27.94"/>
</g>
<!-- Node10 -->
<g id="node10" class="node">
<title>Node10</title>
<g id="a_node10"><a xlink:title=" ">
<polygon fill="none" stroke="#bfbfbf" points="258.02,-0.5 258.02,-19.5 310.02,-19.5 310.02,-0.5 258.02,-0.5"/>
<text text-anchor="middle" x="284.02" y="-7.5" font-family="Helvetica,sans-Serif" font-size="10.00">cassert</text>
</a>
</g>
</g>
<!-- Node9&#45;&gt;Node10 -->
<g id="edge9" class="edge">
<title>Node9&#45;&gt;Node10</title>
<path fill="none" stroke="midnightblue" d="M284.02,-56.08C284.02,-49.01 284.02,-38.86 284.02,-29.99"/>
<polygon fill="midnightblue" stroke="midnightblue" points="287.52,-29.75 284.02,-19.75 280.52,-29.75 287.52,-29.75"/>
</g>
<!-- Node11 -->
<g id="node11" class="node">
<title>Node11</title>
<g id="a_node11"><a xlink:title=" ">
<polygon fill="none" stroke="#bfbfbf" points="431.02,-0.5 431.02,-19.5 491.02,-19.5 491.02,-0.5 431.02,-0.5"/>
<text text-anchor="middle" x="461.02" y="-7.5" font-family="Helvetica,sans-Serif" font-size="10.00">iostream</text>
</a>
</g>
</g>
<!-- Node9&#45;&gt;Node11 -->
<g id="edge10" class="edge">
<title>Node9&#45;&gt;Node11</title>
<path fill="none" stroke="midnightblue" d="M312.06,-56.44C342.1,-47.28 389.93,-32.69 423.26,-22.52"/>
<polygon fill="midnightblue" stroke="midnightblue" points="424.56,-25.78 433.1,-19.52 422.52,-19.09 424.56,-25.78"/>
</g>
<!-- Node12&#45;&gt;Node8 -->
<g id="edge15" class="edge">
<title>Node12&#45;&gt;Node8</title>
<path fill="none" stroke="midnightblue" d="M359.61,-187.75C357.33,-195.25 352.03,-206.27 346.42,-215.57"/>
<polygon fill="midnightblue" stroke="midnightblue" points="343.38,-213.81 340.81,-224.08 349.23,-217.66 343.38,-213.81"/>
</g>
<!-- Node12&#45;&gt;Node9 -->
<g id="edge14" class="edge">
<title>Node12&#45;&gt;Node9</title>
<path fill="none" stroke="midnightblue" d="M362.42,-168.31C366.97,-155.14 373.36,-129.79 363.02,-112 354.28,-96.97 338.44,-86.54 323.22,-79.54"/>
<polygon fill="midnightblue" stroke="midnightblue" points="324.47,-76.27 313.9,-75.61 321.76,-82.72 324.47,-76.27"/>
</g>
<!-- Node13&#45;&gt;Node9 -->
<g id="edge17" class="edge">
<title>Node13&#45;&gt;Node9</title>
<path fill="none" stroke="midnightblue" d="M184.5,-168.46C157.73,-156.99 118.7,-135.36 136.02,-112 158.41,-81.79 200.58,-71.16 234.19,-67.74"/>
<polygon fill="midnightblue" stroke="midnightblue" points="234.65,-71.21 244.32,-66.89 234.06,-64.24 234.65,-71.21"/>
</g>
<!-- Node14 -->
<g id="node14" class="node">
<title>Node14</title>
<g id="a_node14"><a xlink:href="AxisIcmp_8hpp.html" target="_top" xlink:title=": A class to access ICMP header fields within data chunks transmitted over an AXI4&#45;Stream interface.">
<polygon fill="none" stroke="black" points="145.52,-112.5 145.52,-131.5 228.52,-131.5 228.52,-112.5 145.52,-112.5"/>
<text text-anchor="middle" x="187.02" y="-119.5" font-family="Helvetica,sans-Serif" font-size="10.00">AxisIcmp.hpp</text>
</a>
</g>
</g>
<!-- Node13&#45;&gt;Node14 -->
<g id="edge18" class="edge">
<title>Node13&#45;&gt;Node14</title>
<path fill="none" stroke="midnightblue" d="M203.71,-168.08C201.04,-160.85 197.17,-150.41 193.83,-141.4"/>
<polygon fill="midnightblue" stroke="midnightblue" points="197.01,-139.91 190.26,-131.75 190.45,-142.34 197.01,-139.91"/>
</g>
<!-- Node15 -->
<g id="node15" class="node">
<title>Node15</title>
<g id="a_node15"><a xlink:href="AxisTcp_8hpp.html" target="_top" xlink:title=": A class to access TCP header fields within data chunks transmitted over an AXI4&#45;Stream interface.">
<polygon fill="none" stroke="black" points="247.02,-112.5 247.02,-131.5 321.02,-131.5 321.02,-112.5 247.02,-112.5"/>
<text text-anchor="middle" x="284.02" y="-119.5" font-family="Helvetica,sans-Serif" font-size="10.00">AxisTcp.hpp</text>
</a>
</g>
</g>
<!-- Node13&#45;&gt;Node15 -->
<g id="edge20" class="edge">
<title>Node13&#45;&gt;Node15</title>
<path fill="none" stroke="midnightblue" d="M219.39,-168.32C231.18,-160.06 249.15,-147.45 263.15,-137.63"/>
<polygon fill="midnightblue" stroke="midnightblue" points="265.5,-140.26 271.68,-131.65 261.48,-134.53 265.5,-140.26"/>
</g>
<!-- Node13&#45;&gt;Node16 -->
<g id="edge22" class="edge">
<title>Node13&#45;&gt;Node16</title>
<path fill="none" stroke="midnightblue" d="M182.14,-168.44C155.73,-159.36 113.8,-144.94 84.28,-134.78"/>
<polygon fill="midnightblue" stroke="midnightblue" points="85.37,-131.46 74.78,-131.52 83.1,-138.08 85.37,-131.46"/>
</g>
<!-- Node14&#45;&gt;Node9 -->
<g id="edge19" class="edge">
<title>Node14&#45;&gt;Node9</title>
<path fill="none" stroke="midnightblue" d="M202.6,-112.32C218.02,-103.74 241.83,-90.49 259.73,-80.52"/>
<polygon fill="midnightblue" stroke="midnightblue" points="261.44,-83.58 268.47,-75.65 258.03,-77.46 261.44,-83.58"/>
</g>
<!-- Node15&#45;&gt;Node9 -->
<g id="edge21" class="edge">
<title>Node15&#45;&gt;Node9</title>
<path fill="none" stroke="midnightblue" d="M284.02,-112.08C284.02,-105.01 284.02,-94.86 284.02,-85.99"/>
<polygon fill="midnightblue" stroke="midnightblue" points="287.52,-85.75 284.02,-75.75 280.52,-85.75 287.52,-85.75"/>
</g>
<!-- Node16&#45;&gt;Node9 -->
<g id="edge23" class="edge">
<title>Node16&#45;&gt;Node9</title>
<path fill="none" stroke="midnightblue" d="M87.1,-112.44C127.75,-103.06 193.05,-87.99 237.2,-77.8"/>
<polygon fill="midnightblue" stroke="midnightblue" points="238.16,-81.18 247.11,-75.52 236.58,-74.35 238.16,-81.18"/>
</g>
<!-- Node18 -->
<g id="node18" class="node">
<title>Node18</title>
<g id="a_node18"><a xlink:title=" ">
<polygon fill="none" stroke="#bfbfbf" points="115.52,-224.5 115.52,-243.5 168.52,-243.5 168.52,-224.5 115.52,-224.5"/>
<text text-anchor="middle" x="142.02" y="-231.5" font-family="Helvetica,sans-Serif" font-size="10.00">stdint.h</text>
</a>
</g>
</g>
<!-- Node17&#45;&gt;Node18 -->
<g id="edge26" class="edge">
<title>Node17&#45;&gt;Node18</title>
<path fill="none" stroke="midnightblue" d="M200.77,-280.32C190.22,-272.18 174.22,-259.84 161.58,-250.09"/>
<polygon fill="midnightblue" stroke="midnightblue" points="163.52,-247.17 153.47,-243.83 159.25,-252.71 163.52,-247.17"/>
</g>
<!-- Node19 -->
<g id="node19" class="node">
<title>Node19</title>
<g id="a_node19"><a xlink:title=" ">
<polygon fill="none" stroke="#bfbfbf" points="186.52,-224.5 186.52,-243.5 237.52,-243.5 237.52,-224.5 186.52,-224.5"/>
<text text-anchor="middle" x="212.02" y="-231.5" font-family="Helvetica,sans-Serif" font-size="10.00">math.h</text>
</a>
</g>
</g>
<!-- Node17&#45;&gt;Node19 -->
<g id="edge27" class="edge">
<title>Node17&#45;&gt;Node19</title>
<path fill="none" stroke="midnightblue" d="M212.02,-280.08C212.02,-273.01 212.02,-262.86 212.02,-253.99"/>
<polygon fill="midnightblue" stroke="midnightblue" points="215.52,-253.75 212.02,-243.75 208.52,-253.75 215.52,-253.75"/>
</g>
<!-- Node20&#45;&gt;Node2 -->
<g id="edge35" class="edge">
<title>Node20&#45;&gt;Node2</title>
<path fill="none" stroke="midnightblue" d="M290,-448.44C270.43,-439.64 239.71,-425.81 217.29,-415.72"/>
<polygon fill="midnightblue" stroke="midnightblue" points="218.5,-412.43 207.94,-411.52 215.63,-418.81 218.5,-412.43"/>
</g>
<!-- Node20&#45;&gt;Node3 -->
<g id="edge33" class="edge">
<title>Node20&#45;&gt;Node3</title>
<path fill="none" stroke="midnightblue" d="M261.33,-456.49C223.63,-453.52 172.17,-443.39 140.02,-412 127.8,-400.08 123.33,-380.77 121.75,-366.29"/>
<polygon fill="midnightblue" stroke="midnightblue" points="125.21,-365.67 121.01,-355.95 118.23,-366.17 125.21,-365.67"/>
</g>
<!-- Node20&#45;&gt;Node5 -->
<g id="edge34" class="edge">
<title>Node20&#45;&gt;Node5</title>
<path fill="none" stroke="midnightblue" d="M333.05,-448.44C360.49,-437.28 399.6,-416.29 383.02,-392 368.79,-371.16 343.34,-359.97 320,-353.96"/>
<polygon fill="midnightblue" stroke="midnightblue" points="320.69,-350.53 310.16,-351.69 319.11,-357.35 320.69,-350.53"/>
</g>
<!-- Node20&#45;&gt;Node11 -->
<g id="edge31" class="edge">
<title>Node20&#45;&gt;Node11</title>
<path fill="none" stroke="midnightblue" d="M344.74,-448.43C390.23,-435.13 463.02,-404.83 463.02,-347 463.02,-347 463.02,-347 463.02,-121 463.02,-88.94 462.16,-51.64 461.57,-29.75"/>
<polygon fill="midnightblue" stroke="midnightblue" points="465.06,-29.45 461.28,-19.56 458.06,-29.65 465.06,-29.45"/>
</g>
<!-- Node20&#45;&gt;Node20 -->
<g id="edge36" class="edge">
<title>Node20&#45;&gt;Node20</title>
<path fill="none" stroke="midnightblue" d="M336.95,-467.53C355.94,-470.31 374.52,-467.13 374.52,-458 374.52,-450.51 362.01,-447.03 347.04,-447.55"/>
<polygon fill="midnightblue" stroke="midnightblue" points="346.59,-444.08 336.95,-448.47 347.23,-451.05 346.59,-444.08"/>
</g>
<!-- Node21 -->
<g id="node21" class="node">
<title>Node21</title>
<g id="a_node21"><a xlink:title=" ">
<polygon fill="none" stroke="#bfbfbf" points="246.52,-392.5 246.52,-411.5 299.52,-411.5 299.52,-392.5 246.52,-392.5"/>
<text text-anchor="middle" x="273.02" y="-399.5" font-family="Helvetica,sans-Serif" font-size="10.00">stdlib.h</text>
</a>
</g>
</g>
<!-- Node20&#45;&gt;Node21 -->
<g id="edge29" class="edge">
<title>Node20&#45;&gt;Node21</title>
<path fill="none" stroke="midnightblue" d="M303.07,-448.08C298.04,-440.53 290.68,-429.49 284.5,-420.23"/>
<polygon fill="midnightblue" stroke="midnightblue" points="287.31,-418.13 278.85,-411.75 281.49,-422.01 287.31,-418.13"/>
</g>
<!-- Node22 -->
<g id="node22" class="node">
<title>Node22</title>
<g id="a_node22"><a xlink:title=" ">
<polygon fill="none" stroke="#bfbfbf" points="318.02,-392.5 318.02,-411.5 374.02,-411.5 374.02,-392.5 318.02,-392.5"/>
<text text-anchor="middle" x="346.02" y="-399.5" font-family="Helvetica,sans-Serif" font-size="10.00">unistd.h</text>
</a>
</g>
</g>
<!-- Node20&#45;&gt;Node22 -->
<g id="edge30" class="edge">
<title>Node20&#45;&gt;Node22</title>
<path fill="none" stroke="midnightblue" d="M315.13,-448.08C320.3,-440.53 327.86,-429.49 334.21,-420.23"/>
<polygon fill="midnightblue" stroke="midnightblue" points="337.26,-421.98 340.02,-411.75 331.48,-418.02 337.26,-421.98"/>
</g>
<!-- Node23 -->
<g id="node23" class="node">
<title>Node23</title>
<g id="a_node23"><a xlink:title=" ">
<polygon fill="none" stroke="#bfbfbf" points="491.52,-392.5 491.52,-411.5 546.52,-411.5 546.52,-392.5 491.52,-392.5"/>
<text text-anchor="middle" x="519.02" y="-399.5" font-family="Helvetica,sans-Serif" font-size="10.00">fstream</text>
</a>
</g>
</g>
<!-- Node20&#45;&gt;Node23 -->
<g id="edge32" class="edge">
<title>Node20&#45;&gt;Node23</title>
<path fill="none" stroke="midnightblue" d="M342.29,-448.44C380.17,-438.7 441.89,-422.83 481.46,-412.66"/>
<polygon fill="midnightblue" stroke="midnightblue" points="482.45,-416.02 491.26,-410.14 480.71,-409.24 482.45,-416.02"/>
</g>
</g>
</svg>
        <g id="navigator" transform="translate(0 0)" fill="#404254">
                <rect fill="#f2f5e9" fill-opacity="0.5" stroke="#606060" stroke-width=".5" x="0" y="0" width="60" height="60"/>
                <use id="zoomplus" xlink:href="#zoomPlus" x="17" y="9" onmousedown="handleZoom(evt,'in')"/>
                <use id="zoomminus" xlink:href="#zoomMin" x="42" y="9" onmousedown="handleZoom(evt,'out')"/>
                <use id="reset" xlink:href="#resetDef" x="30" y="36" onmousedown="handleReset()"/>
                <g id="arrowUp" xlink:href="#dirArrow" transform="translate(30 24)" onmousedown="handlePan(0,-1)">
                  <use xlink:href="#rim" fill="#404040">
                        <set attributeName="fill" to="#808080" begin="arrowUp.mouseover" end="arrowUp.mouseout"/>
                  </use>
                  <path fill="none" stroke="white" stroke-width="1.5" d="M0,-3.0v7 M-2.5,-0.5L0,-3.0L2.5,-0.5"/>
                </g>
                <g id="arrowRight" xlink:href="#dirArrow" transform="rotate(90) translate(36 -43)" onmousedown="handlePan(1,0)">
                  <use xlink:href="#rim" fill="#404040">
                        <set attributeName="fill" to="#808080" begin="arrowRight.mouseover" end="arrowRight.mouseout"/>
                  </use>
                  <path fill="none" stroke="white" stroke-width="1.5" d="M0,-3.0v7 M-2.5,-0.5L0,-3.0L2.5,-0.5"/>
                </g>
                <g id="arrowDown" xlink:href="#dirArrow" transform="rotate(180) translate(-30 -48)" onmousedown="handlePan(0,1)">
                  <use xlink:href="#rim" fill="#404040">
                        <set attributeName="fill" to="#808080" begin="arrowDown.mouseover" end="arrowDown.mouseout"/>
                  </use>
                  <path fill="none" stroke="white" stroke-width="1.5" d="M0,-3.0v7 M-2.5,-0.5L0,-3.0L2.5,-0.5"/>
                </g>
                <g id="arrowLeft" xlink:href="#dirArrow" transform="rotate(270) translate(-36 17)" onmousedown="handlePan(-1,0)">
                  <use xlink:href="#rim" fill="#404040">
                        <set attributeName="fill" to="#808080" begin="arrowLeft.mouseover" end="arrowLeft.mouseout"/>
                  </use>
                  <path fill="none" stroke="white" stroke-width="1.5" d="M0,-3.0v7 M-2.5,-0.5L0,-3.0L2.5,-0.5"/>
                </g>
        </g>
        <svg viewBox="0 0 15 15" width="100%" height="30px" preserveAspectRatio="xMaxYMin meet">
         <g id="arrow_out" transform="scale(0.3 0.3)">
          <a xlink:href="SimUdpDatagram_8hpp__incl_org.svg" target="_base">
           <rect id="button" ry="5" rx="5" y="6" x="6" height="38" width="38"
                fill="#f2f5e9" fill-opacity="0.5" stroke="#606060" stroke-width="1.0"/>
           <path id="arrow"
             d="M 11.500037,31.436501 C 11.940474,20.09759 22.043105,11.32322 32.158766,21.979434 L 37.068811,17.246167 C 37.068811,17.246167 37.088388,32 37.088388,32 L 22.160133,31.978069 C 22.160133,31.978069 26.997745,27.140456 26.997745,27.140456 C 18.528582,18.264221 13.291696,25.230495 11.500037,31.436501 z"
             style="fill:#404040;"/>
          </a>
         </g>
        </svg>
</svg>
