<?xml version="1.0" encoding="UTF-8" standalone="no"?>
<!DOCTYPE svg PUBLIC "-//W3C//DTD SVG 1.1//EN"
 "http://www.w3.org/Graphics/SVG/1.1/DTD/svg11.dtd">
<!-- Generated by graphviz version 2.43.0 (0)
 -->
<!-- Title: repos_for_Dox/cFDK/SRA/LIB/SHELL/LIB/hls/simulation_utils.hpp Pages: 1 -->
<!--zoomable 554 -->
<svg id="main" version="1.1" xmlns="http://www.w3.org/2000/svg" xmlns:xlink="http://www.w3.org/1999/xlink" xml:space="preserve" onload="init(evt)">
<style type="text/css"><![CDATA[
.edge:hover path { stroke: red; }
.edge:hover polygon { stroke: red; fill: red; }
]]></style>
<script type="text/javascript"><![CDATA[
var edges = document.getElementsByTagName('g');
if (edges && edges.length) {
  for (var i=0;i<edges.length;i++) {
    if (edges[i].id.substr(0,4)=='edge') {
      edges[i].setAttribute('class','edge');
    }
  }
}
]]></script>
        <defs>
                <circle id="rim" cx="0" cy="0" r="7"/>
                <circle id="rim2" cx="0" cy="0" r="3.5"/>
                <g id="zoomPlus">
                        <use xlink:href="#rim" fill="#404040">
                                <set attributeName="fill" to="#808080" begin="zoomplus.mouseover" end="zoomplus.mouseout"/>
                        </use>
                        <path d="M-4,0h8M0,-4v8" fill="none" stroke="white" stroke-width="1.5" pointer-events="none"/>
                </g>
                <g id="zoomMin">
                        <use xlink:href="#rim" fill="#404040">
                                <set attributeName="fill" to="#808080" begin="zoomminus.mouseover" end="zoomminus.mouseout"/>
                        </use>
                        <path d="M-4,0h8" fill="none" stroke="white" stroke-width="1.5" pointer-events="none"/>
                </g>
                <g id="dirArrow">
                        <path fill="none" stroke="white" stroke-width="1.5" d="M0,-3.0v7 M-2.5,-0.5L0,-3.0L2.5,-0.5"/>
                </g>
               <g id="resetDef">
                       <use xlink:href="#rim2" fill="#404040">
                               <set attributeName="fill" to="#808080" begin="reset.mouseover" end="reset.mouseout"/>
                       </use>
               </g>
        </defs>

<script type="text/javascript">
var viewWidth = 1347;
var viewHeight = 554;
var sectionId = 'dynsection-0';
</script>
<script xlink:href="svgpan.js"/>
<svg id="graph" class="graph">
<g id="viewport">
<title>repos_for_Dox/cFDK/SRA/LIB/SHELL/LIB/hls/simulation_utils.hpp</title>
<!-- Node1 -->
<g id="node1" class="node">
<title>Node1</title>
<g id="a_node1"><a xlink:title=" ">
<polygon fill="#bfbfbf" stroke="black" points="695.5,-504.5 695.5,-545.5 820.5,-545.5 820.5,-504.5 695.5,-504.5"/>
<text text-anchor="start" x="703.5" y="-533.5" font-family="Helvetica,sans-Serif" font-size="10.00">repos_for_Dox/cFDK</text>
<text text-anchor="start" x="703.5" y="-522.5" font-family="Helvetica,sans-Serif" font-size="10.00">/SRA/LIB/SHELL/LIB/hls</text>
<text text-anchor="middle" x="758" y="-511.5" font-family="Helvetica,sans-Serif" font-size="10.00">/simulation_utils.hpp</text>
</a>
</g>
</g>
<!-- Node2 -->
<g id="node2" class="node">
<title>Node2</title>
<g id="a_node2"><a xlink:title=" ">
<polygon fill="none" stroke="#bfbfbf" points="142,-336.5 142,-355.5 192,-355.5 192,-336.5 142,-336.5"/>
<text text-anchor="middle" x="167" y="-343.5" font-family="Helvetica,sans-Serif" font-size="10.00">stdio.h</text>
</a>
</g>
</g>
<!-- Node1&#45;&gt;Node2 -->
<g id="edge1" class="edge">
<title>Node1&#45;&gt;Node2</title>
<path fill="none" stroke="midnightblue" d="M695.27,-521.59C584.29,-516.5 358.41,-502.19 288,-468 238.51,-443.97 197.31,-391.4 178.3,-364.15"/>
<polygon fill="midnightblue" stroke="midnightblue" points="181.04,-361.95 172.52,-355.65 175.25,-365.89 181.04,-361.95"/>
</g>
<!-- Node3 -->
<g id="node3" class="node">
<title>Node3</title>
<g id="a_node3"><a xlink:title=" ">
<polygon fill="none" stroke="#bfbfbf" points="1119,-0.5 1119,-19.5 1179,-19.5 1179,-0.5 1119,-0.5"/>
<text text-anchor="middle" x="1149" y="-7.5" font-family="Helvetica,sans-Serif" font-size="10.00">iostream</text>
</a>
</g>
</g>
<!-- Node1&#45;&gt;Node3 -->
<g id="edge2" class="edge">
<title>Node1&#45;&gt;Node3</title>
<path fill="none" stroke="midnightblue" d="M820.73,-524.05C970.96,-522.49 1339,-507.96 1339,-403 1339,-403 1339,-403 1339,-121 1339,-52.29 1244.78,-25.8 1189.03,-16.14"/>
<polygon fill="midnightblue" stroke="midnightblue" points="1189.54,-12.68 1179.11,-14.53 1188.42,-19.59 1189.54,-12.68"/>
</g>
<!-- Node4 -->
<g id="node4" class="node">
<title>Node4</title>
<g id="a_node4"><a xlink:title=" ">
<polygon fill="none" stroke="#bfbfbf" points="957.5,-392.5 957.5,-411.5 1012.5,-411.5 1012.5,-392.5 957.5,-392.5"/>
<text text-anchor="middle" x="985" y="-399.5" font-family="Helvetica,sans-Serif" font-size="10.00">fstream</text>
</a>
</g>
</g>
<!-- Node1&#45;&gt;Node4 -->
<g id="edge3" class="edge">
<title>Node1&#45;&gt;Node4</title>
<path fill="none" stroke="midnightblue" d="M794.72,-504.42C841.19,-479.66 919.98,-437.66 960.03,-416.31"/>
<polygon fill="midnightblue" stroke="midnightblue" points="961.7,-419.39 968.87,-411.6 958.4,-413.21 961.7,-419.39"/>
</g>
<!-- Node5 -->
<g id="node5" class="node">
<title>Node5</title>
<g id="a_node5"><a xlink:title=" ">
<polygon fill="none" stroke="#bfbfbf" points="672,-392.5 672,-411.5 716,-411.5 716,-392.5 672,-392.5"/>
<text text-anchor="middle" x="694" y="-399.5" font-family="Helvetica,sans-Serif" font-size="10.00">string</text>
</a>
</g>
</g>
<!-- Node1&#45;&gt;Node5 -->
<g id="edge4" class="edge">
<title>Node1&#45;&gt;Node5</title>
<path fill="none" stroke="midnightblue" d="M747.57,-504.29C735.29,-481.06 715.06,-442.82 703.29,-420.56"/>
<polygon fill="midnightblue" stroke="midnightblue" points="706.3,-418.78 698.54,-411.57 700.12,-422.05 706.3,-418.78"/>
</g>
<!-- Node6 -->
<g id="node6" class="node">
<title>Node6</title>
<g id="a_node6"><a xlink:title=" ">
<polygon fill="none" stroke="#bfbfbf" points="644.5,-224.5 644.5,-243.5 695.5,-243.5 695.5,-224.5 644.5,-224.5"/>
<text text-anchor="middle" x="670" y="-231.5" font-family="Helvetica,sans-Serif" font-size="10.00">math.h</text>
</a>
</g>
</g>
<!-- Node1&#45;&gt;Node6 -->
<g id="edge5" class="edge">
<title>Node1&#45;&gt;Node6</title>
<path fill="none" stroke="midnightblue" d="M772.48,-504.14C787.87,-481.04 810,-441.18 810,-403 810,-403 810,-403 810,-345 810,-291.77 746.66,-260.38 705.19,-245.53"/>
<polygon fill="midnightblue" stroke="midnightblue" points="706.27,-242.21 695.68,-242.28 704.01,-248.83 706.27,-242.21"/>
</g>
<!-- Node7 -->
<g id="node7" class="node">
<title>Node7</title>
<g id="a_node7"><a xlink:title=" ">
<polygon fill="none" stroke="#bfbfbf" points="300,-0.5 300,-19.5 380,-19.5 380,-0.5 300,-0.5"/>
<text text-anchor="middle" x="340" y="-7.5" font-family="Helvetica,sans-Serif" font-size="10.00">hls_stream.h</text>
</a>
</g>
</g>
<!-- Node1&#45;&gt;Node7 -->
<g id="edge6" class="edge">
<title>Node1&#45;&gt;Node7</title>
<path fill="none" stroke="midnightblue" d="M695.42,-521.12C559.65,-514.43 241.91,-496.21 138,-468 72.57,-450.23 0,-470.8 0,-403 0,-403 0,-403 0,-121 0,-86.61 13.11,-74.66 42,-56 82.04,-30.14 216.01,-18.3 289.94,-13.62"/>
<polygon fill="midnightblue" stroke="midnightblue" points="290.19,-17.11 299.96,-13 289.76,-10.12 290.19,-17.11"/>
</g>
<!-- Node8 -->
<g id="node8" class="node">
<title>Node8</title>
<g id="a_node8"><a xlink:title=" ">
<polygon fill="none" stroke="#bfbfbf" points="281.5,-224.5 281.5,-243.5 334.5,-243.5 334.5,-224.5 281.5,-224.5"/>
<text text-anchor="middle" x="308" y="-231.5" font-family="Helvetica,sans-Serif" font-size="10.00">stdint.h</text>
</a>
</g>
</g>
<!-- Node1&#45;&gt;Node8 -->
<g id="edge7" class="edge">
<title>Node1&#45;&gt;Node8</title>
<path fill="none" stroke="midnightblue" d="M695.07,-520.44C569.98,-511.63 302,-483.37 302,-403 302,-403 302,-403 302,-345 302,-312.9 304.58,-275.61 306.36,-253.73"/>
<polygon fill="midnightblue" stroke="midnightblue" points="309.86,-253.81 307.22,-243.55 302.89,-253.22 309.86,-253.81"/>
</g>
<!-- Node9 -->
<g id="node9" class="node">
<title>Node9</title>
<g id="a_node9"><a xlink:title=" ">
<polygon fill="none" stroke="#bfbfbf" points="734.5,-392.5 734.5,-411.5 781.5,-411.5 781.5,-392.5 734.5,-392.5"/>
<text text-anchor="middle" x="758" y="-399.5" font-family="Helvetica,sans-Serif" font-size="10.00">vector</text>
</a>
</g>
</g>
<!-- Node1&#45;&gt;Node9 -->
<g id="edge8" class="edge">
<title>Node1&#45;&gt;Node9</title>
<path fill="none" stroke="midnightblue" d="M758,-504.29C758,-481.48 758,-444.19 758,-421.78"/>
<polygon fill="midnightblue" stroke="midnightblue" points="761.5,-421.57 758,-411.57 754.5,-421.57 761.5,-421.57"/>
</g>
<!-- Node10 -->
<g id="node10" class="node">
<title>Node10</title>
<g id="a_node10"><a xlink:title=" ">
<polygon fill="none" stroke="#bfbfbf" points="830,-0.5 830,-19.5 886,-19.5 886,-0.5 830,-0.5"/>
<text text-anchor="middle" x="858" y="-7.5" font-family="Helvetica,sans-Serif" font-size="10.00">ap_int.h</text>
</a>
</g>
</g>
<!-- Node1&#45;&gt;Node10 -->
<g id="edge9" class="edge">
<title>Node1&#45;&gt;Node10</title>
<path fill="none" stroke="midnightblue" d="M820.57,-520.58C920.35,-514.28 1110.35,-498.6 1170,-468 1200.49,-452.36 1210.32,-443.84 1223,-412 1276.37,-277.97 997,-323.27 997,-179 997,-179 997,-179 997,-121 997,-69.15 936.79,-37.9 895.62,-22.6"/>
<polygon fill="midnightblue" stroke="midnightblue" points="896.72,-19.27 886.13,-19.22 894.38,-25.87 896.72,-19.27"/>
</g>
<!-- Node11 -->
<g id="node11" class="node">
<title>Node11</title>
<g id="a_node11"><a xlink:href="network__utils_8hpp.html" target="_top" xlink:title=" ">
<polygon fill="none" stroke="black" points="478,-448.5 478,-467.5 582,-467.5 582,-448.5 478,-448.5"/>
<text text-anchor="middle" x="530" y="-455.5" font-family="Helvetica,sans-Serif" font-size="10.00">network_utils.hpp</text>
</a>
</g>
</g>
<!-- Node1&#45;&gt;Node11 -->
<g id="edge10" class="edge">
<title>Node1&#45;&gt;Node11</title>
<path fill="none" stroke="midnightblue" d="M695.4,-506.15C655.32,-494.73 604.53,-480.25 569.87,-470.37"/>
<polygon fill="midnightblue" stroke="midnightblue" points="570.68,-466.96 560.11,-467.58 568.76,-473.69 570.68,-466.96"/>
</g>
<!-- Node13 -->
<g id="node13" class="node">
<title>Node13</title>
<g id="a_node13"><a xlink:href="network_8hpp.html" target="_top" xlink:title=" ">
<polygon fill="none" stroke="black" points="38,-392.5 38,-411.5 160,-411.5 160,-392.5 38,-392.5"/>
<text text-anchor="middle" x="99" y="-399.5" font-family="Helvetica,sans-Serif" font-size="10.00">../../../hls/network.hpp</text>
</a>
</g>
</g>
<!-- Node1&#45;&gt;Node13 -->
<g id="edge68" class="edge">
<title>Node1&#45;&gt;Node13</title>
<path fill="none" stroke="midnightblue" d="M695.43,-522.78C564.6,-519.47 266.57,-507.67 174,-468 148.88,-457.23 126.09,-434.85 112.39,-419.39"/>
<polygon fill="midnightblue" stroke="midnightblue" points="114.92,-416.95 105.76,-411.62 109.6,-421.5 114.92,-416.95"/>
</g>
<!-- Node25 -->
<g id="node25" class="node">
<title>Node25</title>
<g id="a_node25"><a xlink:href="nts__utils_8hpp.html" target="_top" xlink:title=": Utilities and helpers for the Network&#45;Transport&#45;Stack (NTS) components.">
<polygon fill="none" stroke="black" points="838.5,-392.5 838.5,-411.5 939.5,-411.5 939.5,-392.5 838.5,-392.5"/>
<text text-anchor="middle" x="889" y="-399.5" font-family="Helvetica,sans-Serif" font-size="10.00">NTS/nts_utils.hpp</text>
</a>
</g>
</g>
<!-- Node1&#45;&gt;Node25 -->
<g id="edge58" class="edge">
<title>Node1&#45;&gt;Node25</title>
<path fill="none" stroke="midnightblue" d="M782.24,-504.24C794.9,-493.72 810.52,-480.42 824,-468 841.49,-451.88 860.65,-432.5 873.61,-419.11"/>
<polygon fill="midnightblue" stroke="midnightblue" points="876.39,-421.27 880.8,-411.64 871.34,-416.42 876.39,-421.27"/>
</g>
<!-- Node27 -->
<g id="node27" class="node">
<title>Node27</title>
<g id="a_node27"><a xlink:href="SimNtsUtils_8hpp.html" target="_top" xlink:title=": Utilities for the simulation of the Network&#45;Transport&#45;Stack (NTS) components.">
<polygon fill="none" stroke="black" points="1025,-448.5 1025,-467.5 1143,-467.5 1143,-448.5 1025,-448.5"/>
<text text-anchor="middle" x="1084" y="-455.5" font-family="Helvetica,sans-Serif" font-size="10.00">NTS/SimNtsUtils.hpp</text>
</a>
</g>
</g>
<!-- Node1&#45;&gt;Node27 -->
<g id="edge59" class="edge">
<title>Node1&#45;&gt;Node27</title>
<path fill="none" stroke="midnightblue" d="M820.86,-511.47C881.95,-499.29 973.68,-481 1031.13,-469.54"/>
<polygon fill="midnightblue" stroke="midnightblue" points="1031.97,-472.94 1041.09,-467.56 1030.6,-466.08 1031.97,-472.94"/>
</g>
<!-- Node11&#45;&gt;Node2 -->
<g id="edge12" class="edge">
<title>Node11&#45;&gt;Node2</title>
<path fill="none" stroke="midnightblue" d="M477.8,-451.8C428.39,-445.81 352.64,-433.86 290,-412 252.56,-398.93 212.54,-375.89 188.66,-361.04"/>
<polygon fill="midnightblue" stroke="midnightblue" points="190.37,-357.98 180.05,-355.6 186.63,-363.9 190.37,-357.98"/>
</g>
<!-- Node11&#45;&gt;Node3 -->
<g id="edge13" class="edge">
<title>Node11&#45;&gt;Node3</title>
<path fill="none" stroke="midnightblue" d="M537.43,-448.5C545.21,-439.54 557.68,-424.96 568,-412 594.3,-378.97 591.3,-361.43 625,-336 702.87,-277.23 1035,-276.56 1035,-179 1035,-179 1035,-179 1035,-121 1035,-74.11 1085.55,-40.89 1119.33,-23.93"/>
<polygon fill="midnightblue" stroke="midnightblue" points="1120.87,-27.07 1128.36,-19.58 1117.83,-20.77 1120.87,-27.07"/>
</g>
<!-- Node11&#45;&gt;Node4 -->
<g id="edge14" class="edge">
<title>Node11&#45;&gt;Node4</title>
<path fill="none" stroke="midnightblue" d="M582.26,-453.71C659.92,-448.32 810.5,-435.91 946.96,-412.16"/>
<polygon fill="midnightblue" stroke="midnightblue" points="947.93,-415.55 957.17,-410.36 946.72,-408.65 947.93,-415.55"/>
</g>
<!-- Node11&#45;&gt;Node5 -->
<g id="edge15" class="edge">
<title>Node11&#45;&gt;Node5</title>
<path fill="none" stroke="midnightblue" d="M555.99,-448.44C584.71,-438.99 631.01,-423.74 661.96,-413.55"/>
<polygon fill="midnightblue" stroke="midnightblue" points="663.41,-416.76 671.82,-410.3 661.22,-410.11 663.41,-416.76"/>
</g>
<!-- Node11&#45;&gt;Node6 -->
<g id="edge16" class="edge">
<title>Node11&#45;&gt;Node6</title>
<path fill="none" stroke="midnightblue" d="M529.01,-448.39C528.02,-439.34 526.56,-424.69 526,-412 524.48,-377.69 524.24,-366.52 540,-336 555.04,-306.88 562.55,-300.66 588,-280 604.02,-266.99 624.34,-255.81 640.74,-247.85"/>
<polygon fill="midnightblue" stroke="midnightblue" points="642.33,-250.97 649.88,-243.54 639.35,-244.64 642.33,-250.97"/>
</g>
<!-- Node11&#45;&gt;Node7 -->
<g id="edge20" class="edge">
<title>Node11&#45;&gt;Node7</title>
<path fill="none" stroke="midnightblue" d="M492.19,-448.47C470.91,-441.85 445.39,-430.57 429,-412 327.69,-297.23 333.71,-92.98 338.29,-30.01"/>
<polygon fill="midnightblue" stroke="midnightblue" points="341.81,-29.91 339.13,-19.66 334.83,-29.34 341.81,-29.91"/>
</g>
<!-- Node11&#45;&gt;Node8 -->
<g id="edge11" class="edge">
<title>Node11&#45;&gt;Node8</title>
<path fill="none" stroke="midnightblue" d="M478,-455.56C441.66,-451.83 394.38,-441.14 364,-412 340.82,-389.77 319.8,-294.91 311.62,-253.95"/>
<polygon fill="midnightblue" stroke="midnightblue" points="315.01,-253.08 309.66,-243.93 308.14,-254.42 315.01,-253.08"/>
</g>
<!-- Node11&#45;&gt;Node9 -->
<g id="edge17" class="edge">
<title>Node11&#45;&gt;Node9</title>
<path fill="none" stroke="midnightblue" d="M568.96,-448.48C606.32,-440.21 664.54,-427.05 724.25,-412.11"/>
<polygon fill="midnightblue" stroke="midnightblue" points="725.39,-415.43 734.24,-409.6 723.68,-408.65 725.39,-415.43"/>
</g>
<!-- Node11&#45;&gt;Node10 -->
<g id="edge18" class="edge">
<title>Node11&#45;&gt;Node10</title>
<path fill="none" stroke="midnightblue" d="M533.48,-448.27C543.58,-423.29 573.36,-352.34 592,-336 627.83,-304.58 656.06,-330.1 693,-300 760.71,-244.82 752.14,-208.11 795,-132 815.35,-95.87 837.33,-52.56 849.2,-28.79"/>
<polygon fill="midnightblue" stroke="midnightblue" points="852.44,-30.12 853.76,-19.61 846.17,-27.01 852.44,-30.12"/>
</g>
<!-- Node12 -->
<g id="node12" class="node">
<title>Node12</title>
<g id="a_node12"><a xlink:title=" ">
<polygon fill="none" stroke="#bfbfbf" points="210,-336.5 210,-355.5 274,-355.5 274,-336.5 210,-336.5"/>
<text text-anchor="middle" x="242" y="-343.5" font-family="Helvetica,sans-Serif" font-size="10.00">ap_utils.h</text>
</a>
</g>
</g>
<!-- Node11&#45;&gt;Node12 -->
<g id="edge19" class="edge">
<title>Node11&#45;&gt;Node12</title>
<path fill="none" stroke="midnightblue" d="M477.67,-451.88C435.2,-446.24 374.61,-434.76 326,-412 299.55,-399.62 273.67,-377.67 257.79,-362.74"/>
<polygon fill="midnightblue" stroke="midnightblue" points="260.07,-360.08 250.44,-355.66 255.21,-365.12 260.07,-360.08"/>
</g>
<!-- Node11&#45;&gt;Node13 -->
<g id="edge21" class="edge">
<title>Node11&#45;&gt;Node13</title>
<path fill="none" stroke="midnightblue" d="M477.58,-450.43C400.54,-440.78 256.54,-422.74 170.06,-411.9"/>
<polygon fill="midnightblue" stroke="midnightblue" points="170.42,-408.42 160.06,-410.65 169.55,-415.37 170.42,-408.42"/>
</g>
<!-- Node14 -->
<g id="node14" class="node">
<title>Node14</title>
<g id="a_node14"><a xlink:href="nts_8hpp.html" target="_top" xlink:title=": Definition of the Network Transport Stack (NTS) component as if it was an HLS IP core.">
<polygon fill="none" stroke="black" points="634.5,-336.5 634.5,-355.5 709.5,-355.5 709.5,-336.5 634.5,-336.5"/>
<text text-anchor="middle" x="672" y="-343.5" font-family="Helvetica,sans-Serif" font-size="10.00">NTS/nts.hpp</text>
</a>
</g>
</g>
<!-- Node11&#45;&gt;Node14 -->
<g id="edge27" class="edge">
<title>Node11&#45;&gt;Node14</title>
<path fill="none" stroke="midnightblue" d="M553.8,-448.41C572.95,-440.75 599.89,-428.25 620,-412 636.8,-398.42 651.71,-378.53 661.21,-364.34"/>
<polygon fill="midnightblue" stroke="midnightblue" points="664.39,-365.86 666.88,-355.57 658.51,-362.06 664.39,-365.86"/>
</g>
<!-- Node15 -->
<g id="node15" class="node">
<title>Node15</title>
<g id="a_node15"><a xlink:href="nts__types_8hpp.html" target="_top" xlink:title=": Definition of the types used by the Network Transport Stack (NTS) component of the cloudFPGA shell.">
<polygon fill="none" stroke="black" points="444.5,-280.5 444.5,-299.5 529.5,-299.5 529.5,-280.5 444.5,-280.5"/>
<text text-anchor="middle" x="487" y="-287.5" font-family="Helvetica,sans-Serif" font-size="10.00">nts_types.hpp</text>
</a>
</g>
</g>
<!-- Node11&#45;&gt;Node15 -->
<g id="edge51" class="edge">
<title>Node11&#45;&gt;Node15</title>
<path fill="none" stroke="midnightblue" d="M514.22,-448.47C501.8,-440.77 485.39,-428.18 478,-412 462.59,-378.29 472.62,-333.75 480.39,-309.2"/>
<polygon fill="midnightblue" stroke="midnightblue" points="483.71,-310.31 483.61,-299.71 477.08,-308.06 483.71,-310.31"/>
</g>
<!-- Node17 -->
<g id="node17" class="node">
<title>Node17</title>
<g id="a_node17"><a xlink:href="AxisRaw_8hpp.html" target="_top" xlink:title=": A generic class used by the Network&#45;Transport&#45;Stack (NTS) to to transfer a chunk of data over an AX...">
<polygon fill="none" stroke="black" points="628.5,-56.5 628.5,-75.5 707.5,-75.5 707.5,-56.5 628.5,-56.5"/>
<text text-anchor="middle" x="668" y="-63.5" font-family="Helvetica,sans-Serif" font-size="10.00">AxisRaw.hpp</text>
</a>
</g>
</g>
<!-- Node11&#45;&gt;Node17 -->
<g id="edge57" class="edge">
<title>Node11&#45;&gt;Node17</title>
<path fill="none" stroke="midnightblue" d="M509.36,-448.42C476.5,-433.23 416,-398.29 416,-347 416,-347 416,-347 416,-177 416,-89.76 544.44,-71.02 617.93,-67.44"/>
<polygon fill="midnightblue" stroke="midnightblue" points="618.5,-70.92 628.35,-67.01 618.21,-63.92 618.5,-70.92"/>
</g>
<!-- Node24 -->
<g id="node24" class="node">
<title>Node24</title>
<g id="a_node24"><a xlink:href="nts__config_8hpp.html" target="_top" xlink:title=": Configuration parameters for the Network Transport Stack (NTS) component and sub&#45;components.">
<polygon fill="none" stroke="black" points="597.5,-280.5 597.5,-299.5 684.5,-299.5 684.5,-280.5 597.5,-280.5"/>
<text text-anchor="middle" x="641" y="-287.5" font-family="Helvetica,sans-Serif" font-size="10.00">nts_config.hpp</text>
</a>
</g>
</g>
<!-- Node11&#45;&gt;Node24 -->
<g id="edge52" class="edge">
<title>Node11&#45;&gt;Node24</title>
<path fill="none" stroke="midnightblue" d="M529.32,-448.37C528.09,-427.02 527.75,-370.92 554,-336 565.45,-320.77 583.53,-310.26 600.26,-303.24"/>
<polygon fill="midnightblue" stroke="midnightblue" points="601.83,-306.39 609.89,-299.51 599.3,-299.86 601.83,-306.39"/>
</g>
<!-- Node11&#45;&gt;Node25 -->
<g id="edge53" class="edge">
<title>Node11&#45;&gt;Node25</title>
<path fill="none" stroke="midnightblue" d="M582.2,-449.15C647.5,-439.33 759.09,-422.54 828.18,-412.15"/>
<polygon fill="midnightblue" stroke="midnightblue" points="829.11,-415.55 838.48,-410.6 828.07,-408.63 829.11,-415.55"/>
</g>
<!-- Node13&#45;&gt;Node2 -->
<g id="edge23" class="edge">
<title>Node13&#45;&gt;Node2</title>
<path fill="none" stroke="midnightblue" d="M109.93,-392.32C120.17,-384.18 135.72,-371.84 148,-362.09"/>
<polygon fill="midnightblue" stroke="midnightblue" points="150.22,-364.79 155.88,-355.83 145.87,-359.31 150.22,-364.79"/>
</g>
<!-- Node13&#45;&gt;Node7 -->
<g id="edge26" class="edge">
<title>Node13&#45;&gt;Node7</title>
<path fill="none" stroke="midnightblue" d="M90.26,-392.49C73.39,-375.12 38,-333.58 38,-291 38,-291 38,-291 38,-121 38,-90.2 38.23,-75.57 62,-56 95.95,-28.05 219.48,-17.16 289.91,-13.15"/>
<polygon fill="midnightblue" stroke="midnightblue" points="290.11,-16.65 299.9,-12.61 289.73,-9.66 290.11,-16.65"/>
</g>
<!-- Node13&#45;&gt;Node8 -->
<g id="edge22" class="edge">
<title>Node13&#45;&gt;Node8</title>
<path fill="none" stroke="midnightblue" d="M101.71,-392.48C106.31,-379.09 116.78,-352.91 133,-336 173.91,-293.36 236.75,-263.1 274.95,-247.4"/>
<polygon fill="midnightblue" stroke="midnightblue" points="276.59,-250.51 284.56,-243.54 273.98,-244.01 276.59,-250.51"/>
</g>
<!-- Node13&#45;&gt;Node10 -->
<g id="edge24" class="edge">
<title>Node13&#45;&gt;Node10</title>
<path fill="none" stroke="midnightblue" d="M95.9,-392.29C89.62,-373.86 76,-329.44 76,-291 76,-291 76,-291 76,-121 76,-83.01 662.26,-28.34 819.56,-14.36"/>
<polygon fill="midnightblue" stroke="midnightblue" points="820.05,-17.83 829.71,-13.46 819.44,-10.85 820.05,-17.83"/>
</g>
<!-- Node13&#45;&gt;Node12 -->
<g id="edge25" class="edge">
<title>Node13&#45;&gt;Node12</title>
<path fill="none" stroke="midnightblue" d="M121.66,-392.44C145.4,-383.48 182.91,-369.31 209.74,-359.18"/>
<polygon fill="midnightblue" stroke="midnightblue" points="211.33,-362.32 219.45,-355.52 208.86,-355.77 211.33,-362.32"/>
</g>
<!-- Node14&#45;&gt;Node15 -->
<g id="edge28" class="edge">
<title>Node14&#45;&gt;Node15</title>
<path fill="none" stroke="midnightblue" d="M642.69,-336.44C611.16,-327.24 560.87,-312.56 526.01,-302.39"/>
<polygon fill="midnightblue" stroke="midnightblue" points="526.76,-298.96 516.18,-299.52 524.8,-305.68 526.76,-298.96"/>
</g>
<!-- Node14&#45;&gt;Node24 -->
<g id="edge48" class="edge">
<title>Node14&#45;&gt;Node24</title>
<path fill="none" stroke="midnightblue" d="M666.88,-336.08C662.59,-328.61 656.34,-317.72 651.06,-308.52"/>
<polygon fill="midnightblue" stroke="midnightblue" points="654.04,-306.68 646.02,-299.75 647.97,-310.17 654.04,-306.68"/>
</g>
<!-- Node15&#45;&gt;Node7 -->
<g id="edge29" class="edge">
<title>Node15&#45;&gt;Node7</title>
<path fill="none" stroke="midnightblue" d="M482.44,-280.38C461.86,-241.46 377.44,-81.81 349.23,-28.45"/>
<polygon fill="midnightblue" stroke="midnightblue" points="352.28,-26.73 344.51,-19.52 346.09,-30 352.28,-26.73"/>
</g>
<!-- Node16 -->
<g id="node16" class="node">
<title>Node16</title>
<g id="a_node16"><a xlink:href="AxisEth_8hpp.html" target="_top" xlink:title=": A class to access an ETHernet data chunk transmitted over an AXI4&#45;Stream interface.">
<polygon fill="none" stroke="black" points="552,-224.5 552,-243.5 626,-243.5 626,-224.5 552,-224.5"/>
<text text-anchor="middle" x="589" y="-231.5" font-family="Helvetica,sans-Serif" font-size="10.00">AxisEth.hpp</text>
</a>
</g>
</g>
<!-- Node15&#45;&gt;Node16 -->
<g id="edge30" class="edge">
<title>Node15&#45;&gt;Node16</title>
<path fill="none" stroke="midnightblue" d="M503.39,-280.32C519.67,-271.7 544.87,-258.36 563.72,-248.39"/>
<polygon fill="midnightblue" stroke="midnightblue" points="565.45,-251.43 572.65,-243.65 562.18,-245.24 565.45,-251.43"/>
</g>
<!-- Node20 -->
<g id="node20" class="node">
<title>Node20</title>
<g id="a_node20"><a xlink:href="AxisIp4_8hpp.html" target="_top" xlink:title=": A class to access an IPv4 data chunk transmitted over an AXI4&#45;Stream interface.">
<polygon fill="none" stroke="black" points="487,-168.5 487,-187.5 561,-187.5 561,-168.5 487,-168.5"/>
<text text-anchor="middle" x="524" y="-175.5" font-family="Helvetica,sans-Serif" font-size="10.00">AxisIp4.hpp</text>
</a>
</g>
</g>
<!-- Node15&#45;&gt;Node20 -->
<g id="edge47" class="edge">
<title>Node15&#45;&gt;Node20</title>
<path fill="none" stroke="midnightblue" d="M489.9,-280.37C495.9,-262.54 509.77,-221.3 517.85,-197.27"/>
<polygon fill="midnightblue" stroke="midnightblue" points="521.24,-198.19 521.11,-187.59 514.6,-195.95 521.24,-198.19"/>
</g>
<!-- Node16&#45;&gt;Node17 -->
<g id="edge31" class="edge">
<title>Node16&#45;&gt;Node17</title>
<path fill="none" stroke="midnightblue" d="M626.26,-225.3C671.51,-213.74 745.9,-187.07 779,-132 796.37,-103.1 754.63,-85.67 717.46,-76.25"/>
<polygon fill="midnightblue" stroke="midnightblue" points="718.2,-72.82 707.66,-73.91 716.57,-79.63 718.2,-72.82"/>
</g>
<!-- Node19 -->
<g id="node19" class="node">
<title>Node19</title>
<g id="a_node19"><a xlink:href="AxisArp_8hpp.html" target="_top" xlink:title=": A class to access an ARP data chunk transmitted over an AXI4&#45;Stream interface.">
<polygon fill="none" stroke="black" points="579.5,-168.5 579.5,-187.5 654.5,-187.5 654.5,-168.5 579.5,-168.5"/>
<text text-anchor="middle" x="617" y="-175.5" font-family="Helvetica,sans-Serif" font-size="10.00">AxisArp.hpp</text>
</a>
</g>
</g>
<!-- Node16&#45;&gt;Node19 -->
<g id="edge36" class="edge">
<title>Node16&#45;&gt;Node19</title>
<path fill="none" stroke="midnightblue" d="M588.46,-224.08C590.78,-216.53 596.11,-205.49 601.73,-196.23"/>
<polygon fill="midnightblue" stroke="midnightblue" points="604.74,-198.02 607.33,-187.75 598.9,-194.16 604.74,-198.02"/>
</g>
<!-- Node16&#45;&gt;Node20 -->
<g id="edge39" class="edge">
<title>Node16&#45;&gt;Node20</title>
<path fill="none" stroke="midnightblue" d="M578.56,-224.32C568.85,-216.26 554.18,-204.08 542.5,-194.37"/>
<polygon fill="midnightblue" stroke="midnightblue" points="544.56,-191.53 534.63,-187.83 540.09,-196.92 544.56,-191.53"/>
</g>
<!-- Node17&#45;&gt;Node3 -->
<g id="edge33" class="edge">
<title>Node17&#45;&gt;Node3</title>
<path fill="none" stroke="midnightblue" d="M707.77,-60.54C798.06,-50.4 1017.69,-25.74 1108.58,-15.54"/>
<polygon fill="midnightblue" stroke="midnightblue" points="1109.21,-18.99 1118.76,-14.39 1108.43,-12.03 1109.21,-18.99"/>
</g>
<!-- Node17&#45;&gt;Node7 -->
<g id="edge34" class="edge">
<title>Node17&#45;&gt;Node7</title>
<path fill="none" stroke="midnightblue" d="M628.44,-58.49C568.76,-48.66 455.74,-30.06 390.3,-19.28"/>
<polygon fill="midnightblue" stroke="midnightblue" points="390.65,-15.79 380.22,-17.62 389.52,-22.7 390.65,-15.79"/>
</g>
<!-- Node17&#45;&gt;Node10 -->
<g id="edge35" class="edge">
<title>Node17&#45;&gt;Node10</title>
<path fill="none" stroke="midnightblue" d="M698.11,-56.44C731.2,-47.04 784.42,-31.91 820.27,-21.72"/>
<polygon fill="midnightblue" stroke="midnightblue" points="821.23,-25.09 829.89,-18.99 819.32,-18.36 821.23,-25.09"/>
</g>
<!-- Node18 -->
<g id="node18" class="node">
<title>Node18</title>
<g id="a_node18"><a xlink:title=" ">
<polygon fill="none" stroke="#bfbfbf" points="642,-0.5 642,-19.5 694,-19.5 694,-0.5 642,-0.5"/>
<text text-anchor="middle" x="668" y="-7.5" font-family="Helvetica,sans-Serif" font-size="10.00">cassert</text>
</a>
</g>
</g>
<!-- Node17&#45;&gt;Node18 -->
<g id="edge32" class="edge">
<title>Node17&#45;&gt;Node18</title>
<path fill="none" stroke="midnightblue" d="M668,-56.08C668,-49.01 668,-38.86 668,-29.99"/>
<polygon fill="midnightblue" stroke="midnightblue" points="671.5,-29.75 668,-19.75 664.5,-29.75 671.5,-29.75"/>
</g>
<!-- Node19&#45;&gt;Node16 -->
<g id="edge38" class="edge">
<title>Node19&#45;&gt;Node16</title>
<path fill="none" stroke="midnightblue" d="M617.59,-187.75C615.32,-195.25 610.01,-206.27 604.4,-215.57"/>
<polygon fill="midnightblue" stroke="midnightblue" points="601.37,-213.81 598.79,-224.08 607.21,-217.66 601.37,-213.81"/>
</g>
<!-- Node19&#45;&gt;Node17 -->
<g id="edge37" class="edge">
<title>Node19&#45;&gt;Node17</title>
<path fill="none" stroke="midnightblue" d="M654.52,-177.05C688.96,-174.84 738.27,-165.5 763,-132 780.93,-107.71 744.61,-89.45 711.82,-78.56"/>
<polygon fill="midnightblue" stroke="midnightblue" points="712.86,-75.22 702.27,-75.56 710.76,-81.9 712.86,-75.22"/>
</g>
<!-- Node20&#45;&gt;Node17 -->
<g id="edge40" class="edge">
<title>Node20&#45;&gt;Node17</title>
<path fill="none" stroke="midnightblue" d="M508.6,-168.35C488.32,-155.87 457.02,-132.09 473,-112 490.84,-89.57 566.69,-77.36 618.36,-71.51"/>
<polygon fill="midnightblue" stroke="midnightblue" points="618.79,-74.99 628.35,-70.43 618.03,-68.03 618.79,-74.99"/>
</g>
<!-- Node21 -->
<g id="node21" class="node">
<title>Node21</title>
<g id="a_node21"><a xlink:href="AxisIcmp_8hpp.html" target="_top" xlink:title=": A class to access ICMP header fields within data chunks transmitted over an AXI4&#45;Stream interface.">
<polygon fill="none" stroke="black" points="482.5,-112.5 482.5,-131.5 565.5,-131.5 565.5,-112.5 482.5,-112.5"/>
<text text-anchor="middle" x="524" y="-119.5" font-family="Helvetica,sans-Serif" font-size="10.00">AxisIcmp.hpp</text>
</a>
</g>
</g>
<!-- Node20&#45;&gt;Node21 -->
<g id="edge41" class="edge">
<title>Node20&#45;&gt;Node21</title>
<path fill="none" stroke="midnightblue" d="M524,-168.08C524,-161.01 524,-150.86 524,-141.99"/>
<polygon fill="midnightblue" stroke="midnightblue" points="527.5,-141.75 524,-131.75 520.5,-141.75 527.5,-141.75"/>
</g>
<!-- Node22 -->
<g id="node22" class="node">
<title>Node22</title>
<g id="a_node22"><a xlink:href="AxisTcp_8hpp.html" target="_top" xlink:title=": A class to access TCP header fields within data chunks transmitted over an AXI4&#45;Stream interface.">
<polygon fill="none" stroke="black" points="584,-112.5 584,-131.5 658,-131.5 658,-112.5 584,-112.5"/>
<text text-anchor="middle" x="621" y="-119.5" font-family="Helvetica,sans-Serif" font-size="10.00">AxisTcp.hpp</text>
</a>
</g>
</g>
<!-- Node20&#45;&gt;Node22 -->
<g id="edge43" class="edge">
<title>Node20&#45;&gt;Node22</title>
<path fill="none" stroke="midnightblue" d="M539.58,-168.32C555,-159.74 578.81,-146.49 596.71,-136.52"/>
<polygon fill="midnightblue" stroke="midnightblue" points="598.42,-139.58 605.45,-131.65 595.01,-133.46 598.42,-139.58"/>
</g>
<!-- Node23 -->
<g id="node23" class="node">
<title>Node23</title>
<g id="a_node23"><a xlink:href="AxisUdp_8hpp.html" target="_top" xlink:title=": A class to access UDP header fields within data chunks transmitted over an AXI4&#45;Stream interface.">
<polygon fill="none" stroke="black" points="676,-112.5 676,-131.5 754,-131.5 754,-112.5 676,-112.5"/>
<text text-anchor="middle" x="715" y="-119.5" font-family="Helvetica,sans-Serif" font-size="10.00">AxisUdp.hpp</text>
</a>
</g>
</g>
<!-- Node20&#45;&gt;Node23 -->
<g id="edge45" class="edge">
<title>Node20&#45;&gt;Node23</title>
<path fill="none" stroke="midnightblue" d="M554.26,-168.44C586.96,-159.2 639.18,-144.44 675.18,-134.26"/>
<polygon fill="midnightblue" stroke="midnightblue" points="676.21,-137.61 684.88,-131.52 674.3,-130.87 676.21,-137.61"/>
</g>
<!-- Node21&#45;&gt;Node17 -->
<g id="edge42" class="edge">
<title>Node21&#45;&gt;Node17</title>
<path fill="none" stroke="midnightblue" d="M546.82,-112.44C570.83,-103.44 608.83,-89.19 635.87,-79.05"/>
<polygon fill="midnightblue" stroke="midnightblue" points="637.16,-82.3 645.29,-75.52 634.7,-75.75 637.16,-82.3"/>
</g>
<!-- Node22&#45;&gt;Node17 -->
<g id="edge44" class="edge">
<title>Node22&#45;&gt;Node17</title>
<path fill="none" stroke="midnightblue" d="M628.76,-112.08C635.54,-104.3 645.54,-92.8 653.76,-83.37"/>
<polygon fill="midnightblue" stroke="midnightblue" points="656.46,-85.59 660.38,-75.75 651.18,-81 656.46,-85.59"/>
</g>
<!-- Node23&#45;&gt;Node17 -->
<g id="edge46" class="edge">
<title>Node23&#45;&gt;Node17</title>
<path fill="none" stroke="midnightblue" d="M707.24,-112.08C700.46,-104.3 690.46,-92.8 682.24,-83.37"/>
<polygon fill="midnightblue" stroke="midnightblue" points="684.82,-81 675.62,-75.75 679.54,-85.59 684.82,-81"/>
</g>
<!-- Node24&#45;&gt;Node6 -->
<g id="edge50" class="edge">
<title>Node24&#45;&gt;Node6</title>
<path fill="none" stroke="midnightblue" d="M645.79,-280.08C649.76,-272.69 655.53,-261.95 660.43,-252.81"/>
<polygon fill="midnightblue" stroke="midnightblue" points="663.65,-254.22 665.3,-243.75 657.49,-250.91 663.65,-254.22"/>
</g>
<!-- Node24&#45;&gt;Node8 -->
<g id="edge49" class="edge">
<title>Node24&#45;&gt;Node8</title>
<path fill="none" stroke="midnightblue" d="M597.47,-281.94C531.3,-271.21 406.61,-250.99 344.74,-240.96"/>
<polygon fill="midnightblue" stroke="midnightblue" points="345.09,-237.47 334.66,-239.32 343.97,-244.38 345.09,-237.47"/>
</g>
<!-- Node25&#45;&gt;Node14 -->
<g id="edge56" class="edge">
<title>Node25&#45;&gt;Node14</title>
<path fill="none" stroke="midnightblue" d="M854.62,-392.44C817.08,-383.1 756.87,-368.12 715.93,-357.93"/>
<polygon fill="midnightblue" stroke="midnightblue" points="716.77,-354.53 706.22,-355.52 715.08,-361.33 716.77,-354.53"/>
</g>
<!-- Node26 -->
<g id="node26" class="node">
<title>Node26</title>
<g id="a_node26"><a xlink:href="mem_8hpp.html" target="_top" xlink:title=": Memory Sub&#45;System (MEM) for the cloudFPGA shell.">
<polygon fill="none" stroke="black" points="846.5,-336.5 846.5,-355.5 945.5,-355.5 945.5,-336.5 846.5,-336.5"/>
<text text-anchor="middle" x="896" y="-343.5" font-family="Helvetica,sans-Serif" font-size="10.00">../MEM/mem.hpp</text>
</a>
</g>
</g>
<!-- Node25&#45;&gt;Node26 -->
<g id="edge54" class="edge">
<title>Node25&#45;&gt;Node26</title>
<path fill="none" stroke="midnightblue" d="M890.16,-392.08C891.08,-384.93 892.42,-374.64 893.58,-365.69"/>
<polygon fill="midnightblue" stroke="midnightblue" points="897.05,-366.12 894.87,-355.75 890.11,-365.22 897.05,-366.12"/>
</g>
<!-- Node26&#45;&gt;Node10 -->
<g id="edge55" class="edge">
<title>Node26&#45;&gt;Node10</title>
<path fill="none" stroke="midnightblue" d="M896,-336.44C896,-317.94 896,-272.81 896,-235 896,-235 896,-235 896,-121 896,-86.81 879.4,-49.76 868.14,-28.57"/>
<polygon fill="midnightblue" stroke="midnightblue" points="871.18,-26.83 863.28,-19.77 865.05,-30.22 871.18,-26.83"/>
</g>
<!-- Node27&#45;&gt;Node3 -->
<g id="edge62" class="edge">
<title>Node27&#45;&gt;Node3</title>
<path fill="none" stroke="midnightblue" d="M1133.86,-448.45C1186.83,-436.16 1263,-407.91 1263,-347 1263,-347 1263,-347 1263,-121 1263,-74.11 1212.45,-40.89 1178.67,-23.93"/>
<polygon fill="midnightblue" stroke="midnightblue" points="1180.17,-20.77 1169.64,-19.58 1177.13,-27.07 1180.17,-20.77"/>
</g>
<!-- Node27&#45;&gt;Node4 -->
<g id="edge63" class="edge">
<title>Node27&#45;&gt;Node4</title>
<path fill="none" stroke="midnightblue" d="M1068.09,-448.32C1052.36,-439.74 1028.06,-426.49 1009.79,-416.52"/>
<polygon fill="midnightblue" stroke="midnightblue" points="1011.32,-413.37 1000.87,-411.65 1007.97,-419.52 1011.32,-413.37"/>
</g>
<!-- Node27&#45;&gt;Node14 -->
<g id="edge65" class="edge">
<title>Node27&#45;&gt;Node14</title>
<path fill="none" stroke="midnightblue" d="M1078.74,-448.48C1069.33,-434.09 1048.16,-405.24 1022,-392 970.17,-365.77 803.06,-353.71 719.91,-349.22"/>
<polygon fill="midnightblue" stroke="midnightblue" points="719.89,-345.71 709.72,-348.68 719.52,-352.7 719.89,-345.71"/>
</g>
<!-- Node27&#45;&gt;Node25 -->
<g id="edge66" class="edge">
<title>Node27&#45;&gt;Node25</title>
<path fill="none" stroke="midnightblue" d="M1053.1,-448.44C1019.73,-439.2 966.41,-424.44 929.65,-414.26"/>
<polygon fill="midnightblue" stroke="midnightblue" points="930.33,-410.81 919.75,-411.52 928.46,-417.56 930.33,-410.81"/>
</g>
<!-- Node27&#45;&gt;Node26 -->
<g id="edge64" class="edge">
<title>Node27&#45;&gt;Node26</title>
<path fill="none" stroke="midnightblue" d="M1134.44,-448.41C1178.19,-438.83 1230.89,-420.76 1206,-392 1174.31,-355.37 1036.62,-347.93 955.8,-346.79"/>
<polygon fill="midnightblue" stroke="midnightblue" points="955.79,-343.29 945.75,-346.68 955.71,-350.29 955.79,-343.29"/>
</g>
<!-- Node27&#45;&gt;Node27 -->
<g id="edge67" class="edge">
<title>Node27&#45;&gt;Node27</title>
<path fill="none" stroke="midnightblue" d="M1116.84,-467.53C1139.15,-470.31 1161,-467.13 1161,-458 1161,-450.26 1145.3,-446.8 1126.93,-447.62"/>
<polygon fill="midnightblue" stroke="midnightblue" points="1126.51,-444.14 1116.84,-448.47 1127.1,-451.12 1126.51,-444.14"/>
</g>
<!-- Node28 -->
<g id="node28" class="node">
<title>Node28</title>
<g id="a_node28"><a xlink:title=" ">
<polygon fill="none" stroke="#bfbfbf" points="1069.5,-392.5 1069.5,-411.5 1122.5,-411.5 1122.5,-392.5 1069.5,-392.5"/>
<text text-anchor="middle" x="1096" y="-399.5" font-family="Helvetica,sans-Serif" font-size="10.00">stdlib.h</text>
</a>
</g>
</g>
<!-- Node27&#45;&gt;Node28 -->
<g id="edge60" class="edge">
<title>Node27&#45;&gt;Node28</title>
<path fill="none" stroke="midnightblue" d="M1085.98,-448.08C1087.57,-440.93 1089.86,-430.64 1091.85,-421.69"/>
<polygon fill="midnightblue" stroke="midnightblue" points="1095.3,-422.27 1094.06,-411.75 1088.47,-420.75 1095.3,-422.27"/>
</g>
<!-- Node29 -->
<g id="node29" class="node">
<title>Node29</title>
<g id="a_node29"><a xlink:title=" ">
<polygon fill="none" stroke="#bfbfbf" points="1141,-392.5 1141,-411.5 1197,-411.5 1197,-392.5 1141,-392.5"/>
<text text-anchor="middle" x="1169" y="-399.5" font-family="Helvetica,sans-Serif" font-size="10.00">unistd.h</text>
</a>
</g>
</g>
<!-- Node27&#45;&gt;Node29 -->
<g id="edge61" class="edge">
<title>Node27&#45;&gt;Node29</title>
<path fill="none" stroke="midnightblue" d="M1097.66,-448.32C1110.92,-439.9 1131.27,-426.97 1146.85,-417.07"/>
<polygon fill="midnightblue" stroke="midnightblue" points="1148.81,-419.97 1155.38,-411.65 1145.06,-414.06 1148.81,-419.97"/>
</g>
</g>
</svg>
        <g id="navigator" transform="translate(0 0)" fill="#404254">
                <rect fill="#f2f5e9" fill-opacity="0.5" stroke="#606060" stroke-width=".5" x="0" y="0" width="60" height="60"/>
                <use id="zoomplus" xlink:href="#zoomPlus" x="17" y="9" onmousedown="handleZoom(evt,'in')"/>
                <use id="zoomminus" xlink:href="#zoomMin" x="42" y="9" onmousedown="handleZoom(evt,'out')"/>
                <use id="reset" xlink:href="#resetDef" x="30" y="36" onmousedown="handleReset()"/>
                <g id="arrowUp" xlink:href="#dirArrow" transform="translate(30 24)" onmousedown="handlePan(0,-1)">
                  <use xlink:href="#rim" fill="#404040">
                        <set attributeName="fill" to="#808080" begin="arrowUp.mouseover" end="arrowUp.mouseout"/>
                  </use>
                  <path fill="none" stroke="white" stroke-width="1.5" d="M0,-3.0v7 M-2.5,-0.5L0,-3.0L2.5,-0.5"/>
                </g>
                <g id="arrowRight" xlink:href="#dirArrow" transform="rotate(90) translate(36 -43)" onmousedown="handlePan(1,0)">
                  <use xlink:href="#rim" fill="#404040">
                        <set attributeName="fill" to="#808080" begin="arrowRight.mouseover" end="arrowRight.mouseout"/>
                  </use>
                  <path fill="none" stroke="white" stroke-width="1.5" d="M0,-3.0v7 M-2.5,-0.5L0,-3.0L2.5,-0.5"/>
                </g>
                <g id="arrowDown" xlink:href="#dirArrow" transform="rotate(180) translate(-30 -48)" onmousedown="handlePan(0,1)">
                  <use xlink:href="#rim" fill="#404040">
                        <set attributeName="fill" to="#808080" begin="arrowDown.mouseover" end="arrowDown.mouseout"/>
                  </use>
                  <path fill="none" stroke="white" stroke-width="1.5" d="M0,-3.0v7 M-2.5,-0.5L0,-3.0L2.5,-0.5"/>
                </g>
                <g id="arrowLeft" xlink:href="#dirArrow" transform="rotate(270) translate(-36 17)" onmousedown="handlePan(-1,0)">
                  <use xlink:href="#rim" fill="#404040">
                        <set attributeName="fill" to="#808080" begin="arrowLeft.mouseover" end="arrowLeft.mouseout"/>
                  </use>
                  <path fill="none" stroke="white" stroke-width="1.5" d="M0,-3.0v7 M-2.5,-0.5L0,-3.0L2.5,-0.5"/>
                </g>
        </g>
        <svg viewBox="0 0 15 15" width="100%" height="30px" preserveAspectRatio="xMaxYMin meet">
         <g id="arrow_out" transform="scale(0.3 0.3)">
          <a xlink:href="simulation__utils_8hpp__incl_org.svg" target="_base">
           <rect id="button" ry="5" rx="5" y="6" x="6" height="38" width="38"
                fill="#f2f5e9" fill-opacity="0.5" stroke="#606060" stroke-width="1.0"/>
           <path id="arrow"
             d="M 11.500037,31.436501 C 11.940474,20.09759 22.043105,11.32322 32.158766,21.979434 L 37.068811,17.246167 C 37.068811,17.246167 37.088388,32 37.088388,32 L 22.160133,31.978069 C 22.160133,31.978069 26.997745,27.140456 26.997745,27.140456 C 18.528582,18.264221 13.291696,25.230495 11.500037,31.436501 z"
             style="fill:#404040;"/>
          </a>
         </g>
        </svg>
</svg>
