<?xml version="1.0" encoding="UTF-8" standalone="no"?>
<!DOCTYPE svg PUBLIC "-//W3C//DTD SVG 1.1//EN"
 "http://www.w3.org/Graphics/SVG/1.1/DTD/svg11.dtd">
<!-- Generated by graphviz version 2.43.0 (0)
 -->
<!-- Title: repos_for_Dox/cFp_HelloKale/ROLE/hls/tcp_shell_if/test/simu_tcp_shell_if_env.cpp Pages: 1 -->
<svg width="778pt" height="262pt"
 viewBox="0.00 0.00 777.50 262.00" xmlns="http://www.w3.org/2000/svg" xmlns:xlink="http://www.w3.org/1999/xlink">
<g id="graph0" class="graph" transform="scale(1 1) rotate(0) translate(4 258)">
<title>repos_for_Dox/cFp_HelloKale/ROLE/hls/tcp_shell_if/test/simu_tcp_shell_if_env.cpp</title>
<!-- Node1 -->
<g id="node1" class="node">
<title>Node1</title>
<g id="a_node1"><a xlink:title=": Simulation environment for the TCP Shell Interface (TSIF).">
<polygon fill="#bfbfbf" stroke="black" points="197,-212.5 197,-253.5 357,-253.5 357,-212.5 197,-212.5"/>
<text text-anchor="start" x="205" y="-241.5" font-family="Helvetica,sans-Serif" font-size="10.00">repos_for_Dox/cFp_HelloKale</text>
<text text-anchor="start" x="205" y="-230.5" font-family="Helvetica,sans-Serif" font-size="10.00">/ROLE/hls/tcp_shell_if/test</text>
<text text-anchor="middle" x="277" y="-219.5" font-family="Helvetica,sans-Serif" font-size="10.00">/simu_tcp_shell_if_env.cpp</text>
</a>
</g>
</g>
<!-- Node2 -->
<g id="node2" class="node">
<title>Node2</title>
<g id="a_node2"><a xlink:href="simu__tcp__shell__if__env_8hpp.html" target="_top" xlink:title=": Simulation environment for the TCP Shell Interface (TSIF).">
<polygon fill="none" stroke="black" points="204.5,-156.5 204.5,-175.5 349.5,-175.5 349.5,-156.5 204.5,-156.5"/>
<text text-anchor="middle" x="277" y="-163.5" font-family="Helvetica,sans-Serif" font-size="10.00">simu_tcp_shell_if_env.hpp</text>
</a>
</g>
</g>
<!-- Node1&#45;&gt;Node2 -->
<g id="edge1" class="edge">
<title>Node1&#45;&gt;Node2</title>
<path fill="none" stroke="midnightblue" d="M277,-212.5C277,-204.07 277,-194.24 277,-185.87"/>
<polygon fill="midnightblue" stroke="midnightblue" points="280.5,-185.65 277,-175.65 273.5,-185.65 280.5,-185.65"/>
</g>
<!-- Node3 -->
<g id="node3" class="node">
<title>Node3</title>
<g id="a_node3"><a xlink:title=" ">
<polygon fill="none" stroke="#bfbfbf" points="0,-89.5 0,-108.5 50,-108.5 50,-89.5 0,-89.5"/>
<text text-anchor="middle" x="25" y="-96.5" font-family="Helvetica,sans-Serif" font-size="10.00">stdio.h</text>
</a>
</g>
</g>
<!-- Node2&#45;&gt;Node3 -->
<g id="edge2" class="edge">
<title>Node2&#45;&gt;Node3</title>
<path fill="none" stroke="midnightblue" d="M206.61,-156.46C163.07,-149.73 106.6,-138.33 59,-120 54.64,-118.32 50.19,-116.12 46.01,-113.79"/>
<polygon fill="midnightblue" stroke="midnightblue" points="47.79,-110.78 37.41,-108.64 44.19,-116.78 47.79,-110.78"/>
</g>
<!-- Node4 -->
<g id="node4" class="node">
<title>Node4</title>
<g id="a_node4"><a xlink:title=" ">
<polygon fill="none" stroke="#bfbfbf" points="68.5,-89.5 68.5,-108.5 123.5,-108.5 123.5,-89.5 68.5,-89.5"/>
<text text-anchor="middle" x="96" y="-96.5" font-family="Helvetica,sans-Serif" font-size="10.00">fstream</text>
</a>
</g>
</g>
<!-- Node2&#45;&gt;Node4 -->
<g id="edge3" class="edge">
<title>Node2&#45;&gt;Node4</title>
<path fill="none" stroke="midnightblue" d="M243.47,-156.49C213.86,-148.52 169.8,-135.53 133,-120 128.57,-118.13 123.96,-115.9 119.57,-113.61"/>
<polygon fill="midnightblue" stroke="midnightblue" points="120.9,-110.35 110.44,-108.65 117.56,-116.5 120.9,-110.35"/>
</g>
<!-- Node5 -->
<g id="node5" class="node">
<title>Node5</title>
<g id="a_node5"><a xlink:title=" ">
<polygon fill="none" stroke="#bfbfbf" points="142,-89.5 142,-108.5 202,-108.5 202,-89.5 142,-89.5"/>
<text text-anchor="middle" x="172" y="-96.5" font-family="Helvetica,sans-Serif" font-size="10.00">iostream</text>
</a>
</g>
</g>
<!-- Node2&#45;&gt;Node5 -->
<g id="edge4" class="edge">
<title>Node2&#45;&gt;Node5</title>
<path fill="none" stroke="midnightblue" d="M262.84,-156.23C245.29,-145.37 215.16,-126.72 194.44,-113.89"/>
<polygon fill="midnightblue" stroke="midnightblue" points="196.28,-110.91 185.94,-108.63 192.6,-116.87 196.28,-110.91"/>
</g>
<!-- Node6 -->
<g id="node6" class="node">
<title>Node6</title>
<g id="a_node6"><a xlink:title=" ">
<polygon fill="none" stroke="#bfbfbf" points="190,-11.5 190,-30.5 270,-30.5 270,-11.5 190,-11.5"/>
<text text-anchor="middle" x="230" y="-18.5" font-family="Helvetica,sans-Serif" font-size="10.00">hls_stream.h</text>
</a>
</g>
</g>
<!-- Node2&#45;&gt;Node6 -->
<g id="edge5" class="edge">
<title>Node2&#45;&gt;Node6</title>
<path fill="none" stroke="midnightblue" d="M270.17,-156.21C263.73,-147.5 254.31,-133.53 249,-120 238.63,-93.58 233.75,-60.86 231.58,-40.71"/>
<polygon fill="midnightblue" stroke="midnightblue" points="235.06,-40.3 230.62,-30.68 228.09,-40.97 235.06,-40.3"/>
</g>
<!-- Node7 -->
<g id="node7" class="node">
<title>Node7</title>
<g id="a_node7"><a xlink:title=" ">
<polygon fill="none" stroke="#bfbfbf" points="258,-89.5 258,-108.5 296,-108.5 296,-89.5 258,-89.5"/>
<text text-anchor="middle" x="277" y="-96.5" font-family="Helvetica,sans-Serif" font-size="10.00">map</text>
</a>
</g>
</g>
<!-- Node2&#45;&gt;Node7 -->
<g id="edge6" class="edge">
<title>Node2&#45;&gt;Node7</title>
<path fill="none" stroke="midnightblue" d="M277,-156.23C277,-146.68 277,-131.12 277,-118.78"/>
<polygon fill="midnightblue" stroke="midnightblue" points="280.5,-118.63 277,-108.63 273.5,-118.63 280.5,-118.63"/>
</g>
<!-- Node8 -->
<g id="node8" class="node">
<title>Node8</title>
<g id="a_node8"><a xlink:title=" ">
<polygon fill="none" stroke="#bfbfbf" points="314,-89.5 314,-108.5 346,-108.5 346,-89.5 314,-89.5"/>
<text text-anchor="middle" x="330" y="-96.5" font-family="Helvetica,sans-Serif" font-size="10.00">set</text>
</a>
</g>
</g>
<!-- Node2&#45;&gt;Node8 -->
<g id="edge7" class="edge">
<title>Node2&#45;&gt;Node8</title>
<path fill="none" stroke="midnightblue" d="M284.15,-156.23C292.41,-146.1 306.2,-129.19 316.5,-116.56"/>
<polygon fill="midnightblue" stroke="midnightblue" points="319.36,-118.59 322.97,-108.63 313.93,-114.17 319.36,-118.59"/>
</g>
<!-- Node9 -->
<g id="node9" class="node">
<title>Node9</title>
<g id="a_node9"><a xlink:href="tcp__shell__if_8hpp.html" target="_top" xlink:title=": TCP Shell Interface (TSIF)">
<polygon fill="none" stroke="black" points="364.5,-89.5 364.5,-108.5 483.5,-108.5 483.5,-89.5 364.5,-89.5"/>
<text text-anchor="middle" x="424" y="-96.5" font-family="Helvetica,sans-Serif" font-size="10.00">../src/tcp_shell_if.hpp</text>
</a>
</g>
</g>
<!-- Node2&#45;&gt;Node9 -->
<g id="edge8" class="edge">
<title>Node2&#45;&gt;Node9</title>
<path fill="none" stroke="midnightblue" d="M296.52,-156.37C321.78,-145.2 366,-125.65 395.14,-112.76"/>
<polygon fill="midnightblue" stroke="midnightblue" points="396.67,-115.91 404.4,-108.67 393.84,-109.51 396.67,-115.91"/>
</g>
<!-- Node13 -->
<g id="node13" class="node">
<title>Node13</title>
<g id="a_node13"><a xlink:title=" ">
<polygon fill="none" stroke="#bfbfbf" points="501.5,-78.5 501.5,-119.5 626.5,-119.5 626.5,-78.5 501.5,-78.5"/>
<text text-anchor="start" x="509.5" y="-107.5" font-family="Helvetica,sans-Serif" font-size="10.00">../../../../cFDK/SRA</text>
<text text-anchor="start" x="509.5" y="-96.5" font-family="Helvetica,sans-Serif" font-size="10.00">/LIB/SHELL/LIB/hls/NTS</text>
<text text-anchor="middle" x="564" y="-85.5" font-family="Helvetica,sans-Serif" font-size="10.00">/SimNtsUtils.hpp</text>
</a>
</g>
</g>
<!-- Node2&#45;&gt;Node13 -->
<g id="edge13" class="edge">
<title>Node2&#45;&gt;Node13</title>
<path fill="none" stroke="midnightblue" d="M322.72,-156.43C364.44,-148.39 428,-135.62 491.56,-120.29"/>
<polygon fill="midnightblue" stroke="midnightblue" points="492.45,-123.67 501.34,-117.9 490.8,-116.87 492.45,-123.67"/>
</g>
<!-- Node14 -->
<g id="node14" class="node">
<title>Node14</title>
<g id="a_node14"><a xlink:title=" ">
<polygon fill="none" stroke="#bfbfbf" points="644.5,-78.5 644.5,-119.5 769.5,-119.5 769.5,-78.5 644.5,-78.5"/>
<text text-anchor="start" x="652.5" y="-107.5" font-family="Helvetica,sans-Serif" font-size="10.00">../../../../cFDK/SRA</text>
<text text-anchor="start" x="652.5" y="-96.5" font-family="Helvetica,sans-Serif" font-size="10.00">/LIB/SHELL/LIB/hls/NTS</text>
<text text-anchor="middle" x="707" y="-85.5" font-family="Helvetica,sans-Serif" font-size="10.00">/SimAppData.hpp</text>
</a>
</g>
</g>
<!-- Node2&#45;&gt;Node14 -->
<g id="edge14" class="edge">
<title>Node2&#45;&gt;Node14</title>
<path fill="none" stroke="midnightblue" d="M349.72,-159.11C420.33,-152.66 530.64,-140.65 634.39,-120.19"/>
<polygon fill="midnightblue" stroke="midnightblue" points="635.29,-123.58 644.4,-118.18 633.91,-116.71 635.29,-123.58"/>
</g>
<!-- Node9&#45;&gt;Node6 -->
<g id="edge9" class="edge">
<title>Node9&#45;&gt;Node6</title>
<path fill="none" stroke="midnightblue" d="M401.34,-89.4C372.76,-78.52 322.14,-59.13 279,-42 272.95,-39.6 266.49,-36.99 260.32,-34.48"/>
<polygon fill="midnightblue" stroke="midnightblue" points="261.53,-31.19 250.95,-30.65 258.88,-37.67 261.53,-31.19"/>
</g>
<!-- Node10 -->
<g id="node10" class="node">
<title>Node10</title>
<g id="a_node10"><a xlink:title=" ">
<polygon fill="none" stroke="#bfbfbf" points="288,-11.5 288,-30.5 344,-30.5 344,-11.5 288,-11.5"/>
<text text-anchor="middle" x="316" y="-18.5" font-family="Helvetica,sans-Serif" font-size="10.00">ap_int.h</text>
</a>
</g>
</g>
<!-- Node9&#45;&gt;Node10 -->
<g id="edge10" class="edge">
<title>Node9&#45;&gt;Node10</title>
<path fill="none" stroke="midnightblue" d="M411.61,-89.28C393.3,-76.4 358.8,-52.12 336.63,-36.52"/>
<polygon fill="midnightblue" stroke="midnightblue" points="338.44,-33.51 328.24,-30.62 334.41,-39.23 338.44,-33.51"/>
</g>
<!-- Node11 -->
<g id="node11" class="node">
<title>Node11</title>
<g id="a_node11"><a xlink:title=" ">
<polygon fill="none" stroke="#bfbfbf" points="362.5,-0.5 362.5,-41.5 487.5,-41.5 487.5,-0.5 362.5,-0.5"/>
<text text-anchor="start" x="370.5" y="-29.5" font-family="Helvetica,sans-Serif" font-size="10.00">../../../../cFDK/SRA</text>
<text text-anchor="start" x="370.5" y="-18.5" font-family="Helvetica,sans-Serif" font-size="10.00">/LIB/SHELL/LIB/hls/NTS</text>
<text text-anchor="middle" x="425" y="-7.5" font-family="Helvetica,sans-Serif" font-size="10.00">/nts.hpp</text>
</a>
</g>
</g>
<!-- Node9&#45;&gt;Node11 -->
<g id="edge11" class="edge">
<title>Node9&#45;&gt;Node11</title>
<path fill="none" stroke="midnightblue" d="M424.11,-89.28C424.23,-80.18 424.43,-65.38 424.61,-51.97"/>
<polygon fill="midnightblue" stroke="midnightblue" points="428.11,-51.7 424.74,-41.66 421.11,-51.61 428.11,-51.7"/>
</g>
<!-- Node12 -->
<g id="node12" class="node">
<title>Node12</title>
<g id="a_node12"><a xlink:title=" ">
<polygon fill="none" stroke="#bfbfbf" points="505.5,-0.5 505.5,-41.5 630.5,-41.5 630.5,-0.5 505.5,-0.5"/>
<text text-anchor="start" x="513.5" y="-29.5" font-family="Helvetica,sans-Serif" font-size="10.00">../../../../cFDK/SRA</text>
<text text-anchor="start" x="513.5" y="-18.5" font-family="Helvetica,sans-Serif" font-size="10.00">/LIB/SHELL/LIB/hls/NTS</text>
<text text-anchor="middle" x="568" y="-7.5" font-family="Helvetica,sans-Serif" font-size="10.00">/nts_utils.hpp</text>
</a>
</g>
</g>
<!-- Node9&#45;&gt;Node12 -->
<g id="edge12" class="edge">
<title>Node9&#45;&gt;Node12</title>
<path fill="none" stroke="midnightblue" d="M440.24,-89.43C459.95,-79.03 494.03,-61.04 522.04,-46.26"/>
<polygon fill="midnightblue" stroke="midnightblue" points="523.68,-49.35 530.89,-41.59 520.41,-43.16 523.68,-49.35"/>
</g>
</g>
</svg>
