<?xml version="1.0" encoding="UTF-8" standalone="no"?>
<!DOCTYPE svg PUBLIC "-//W3C//DTD SVG 1.1//EN"
 "http://www.w3.org/Graphics/SVG/1.1/DTD/svg11.dtd">
<!-- Generated by graphviz version 2.43.0 (0)
 -->
<!-- Title: repos_for_Dox/cFp_HelloKale/ROLE/hls/udp_shell_if/test/simu_udp_shell_if_env.cpp Pages: 1 -->
<svg width="486pt" height="262pt"
 viewBox="0.00 0.00 486.00 262.00" xmlns="http://www.w3.org/2000/svg" xmlns:xlink="http://www.w3.org/1999/xlink">
<g id="graph0" class="graph" transform="scale(1 1) rotate(0) translate(4 258)">
<title>repos_for_Dox/cFp_HelloKale/ROLE/hls/udp_shell_if/test/simu_udp_shell_if_env.cpp</title>
<!-- Node1 -->
<g id="node1" class="node">
<title>Node1</title>
<g id="a_node1"><a xlink:title=": Testbench for the UDP Shell Interface (USIF).">
<polygon fill="#bfbfbf" stroke="black" points="55.5,-212.5 55.5,-253.5 215.5,-253.5 215.5,-212.5 55.5,-212.5"/>
<text text-anchor="start" x="63.5" y="-241.5" font-family="Helvetica,sans-Serif" font-size="10.00">repos_for_Dox/cFp_HelloKale</text>
<text text-anchor="start" x="63.5" y="-230.5" font-family="Helvetica,sans-Serif" font-size="10.00">/ROLE/hls/udp_shell_if/test</text>
<text text-anchor="middle" x="135.5" y="-219.5" font-family="Helvetica,sans-Serif" font-size="10.00">/simu_udp_shell_if_env.cpp</text>
</a>
</g>
</g>
<!-- Node2 -->
<g id="node2" class="node">
<title>Node2</title>
<g id="a_node2"><a xlink:href="simu__udp__shell__if__env_8hpp.html" target="_top" xlink:title=": Simulation environment for the UDP Shell Interface (USIF).">
<polygon fill="none" stroke="black" points="61.5,-156.5 61.5,-175.5 209.5,-175.5 209.5,-156.5 61.5,-156.5"/>
<text text-anchor="middle" x="135.5" y="-163.5" font-family="Helvetica,sans-Serif" font-size="10.00">simu_udp_shell_if_env.hpp</text>
</a>
</g>
</g>
<!-- Node1&#45;&gt;Node2 -->
<g id="edge1" class="edge">
<title>Node1&#45;&gt;Node2</title>
<path fill="none" stroke="midnightblue" d="M135.5,-212.5C135.5,-204.07 135.5,-194.24 135.5,-185.87"/>
<polygon fill="midnightblue" stroke="midnightblue" points="139,-185.65 135.5,-175.65 132,-185.65 139,-185.65"/>
</g>
<!-- Node3 -->
<g id="node3" class="node">
<title>Node3</title>
<g id="a_node3"><a xlink:title=" ">
<polygon fill="none" stroke="#bfbfbf" points="0,-89.5 0,-108.5 49,-108.5 49,-89.5 0,-89.5"/>
<text text-anchor="middle" x="24.5" y="-96.5" font-family="Helvetica,sans-Serif" font-size="10.00">cstdlib</text>
</a>
</g>
</g>
<!-- Node2&#45;&gt;Node3 -->
<g id="edge2" class="edge">
<title>Node2&#45;&gt;Node3</title>
<path fill="none" stroke="midnightblue" d="M120.53,-156.23C101.89,-145.32 69.84,-126.55 47.93,-113.72"/>
<polygon fill="midnightblue" stroke="midnightblue" points="49.63,-110.66 39.23,-108.63 46.09,-116.7 49.63,-110.66"/>
</g>
<!-- Node4 -->
<g id="node4" class="node">
<title>Node4</title>
<g id="a_node4"><a xlink:title=" ">
<polygon fill="none" stroke="#bfbfbf" points="37.5,-11.5 37.5,-30.5 117.5,-30.5 117.5,-11.5 37.5,-11.5"/>
<text text-anchor="middle" x="77.5" y="-18.5" font-family="Helvetica,sans-Serif" font-size="10.00">hls_stream.h</text>
</a>
</g>
</g>
<!-- Node2&#45;&gt;Node4 -->
<g id="edge3" class="edge">
<title>Node2&#45;&gt;Node4</title>
<path fill="none" stroke="midnightblue" d="M125.53,-156.4C116.49,-148.04 103.56,-134.5 96.5,-120 84.02,-94.35 79.73,-61.17 78.26,-40.74"/>
<polygon fill="midnightblue" stroke="midnightblue" points="81.75,-40.38 77.69,-30.59 74.76,-40.77 81.75,-40.38"/>
</g>
<!-- Node5 -->
<g id="node5" class="node">
<title>Node5</title>
<g id="a_node5"><a xlink:title=" ">
<polygon fill="none" stroke="#bfbfbf" points="105.5,-89.5 105.5,-108.5 165.5,-108.5 165.5,-89.5 105.5,-89.5"/>
<text text-anchor="middle" x="135.5" y="-96.5" font-family="Helvetica,sans-Serif" font-size="10.00">iostream</text>
</a>
</g>
</g>
<!-- Node2&#45;&gt;Node5 -->
<g id="edge4" class="edge">
<title>Node2&#45;&gt;Node5</title>
<path fill="none" stroke="midnightblue" d="M135.5,-156.23C135.5,-146.68 135.5,-131.12 135.5,-118.78"/>
<polygon fill="midnightblue" stroke="midnightblue" points="139,-118.63 135.5,-108.63 132,-118.63 139,-118.63"/>
</g>
<!-- Node6 -->
<g id="node6" class="node">
<title>Node6</title>
<g id="a_node6"><a xlink:href="udp__shell__if_8hpp.html" target="_top" xlink:title=": UDP Shell Interface (USIF).">
<polygon fill="none" stroke="black" points="183.5,-89.5 183.5,-108.5 305.5,-108.5 305.5,-89.5 183.5,-89.5"/>
<text text-anchor="middle" x="244.5" y="-96.5" font-family="Helvetica,sans-Serif" font-size="10.00">../src/udp_shell_if.hpp</text>
</a>
</g>
</g>
<!-- Node2&#45;&gt;Node6 -->
<g id="edge5" class="edge">
<title>Node2&#45;&gt;Node6</title>
<path fill="none" stroke="midnightblue" d="M150.2,-156.23C168.42,-145.37 199.7,-126.72 221.2,-113.89"/>
<polygon fill="midnightblue" stroke="midnightblue" points="223.24,-116.76 230.03,-108.63 219.65,-110.74 223.24,-116.76"/>
</g>
<!-- Node10 -->
<g id="node10" class="node">
<title>Node10</title>
<g id="a_node10"><a xlink:title=" ">
<polygon fill="none" stroke="#bfbfbf" points="324,-78.5 324,-119.5 449,-119.5 449,-78.5 324,-78.5"/>
<text text-anchor="start" x="332" y="-107.5" font-family="Helvetica,sans-Serif" font-size="10.00">../../../../cFDK/SRA</text>
<text text-anchor="start" x="332" y="-96.5" font-family="Helvetica,sans-Serif" font-size="10.00">/LIB/SHELL/LIB/hls/NTS</text>
<text text-anchor="middle" x="386.5" y="-85.5" font-family="Helvetica,sans-Serif" font-size="10.00">/SimNtsUtils.hpp</text>
</a>
</g>
</g>
<!-- Node2&#45;&gt;Node10 -->
<g id="edge10" class="edge">
<title>Node2&#45;&gt;Node10</title>
<path fill="none" stroke="midnightblue" d="M170.55,-156.46C204.71,-148.08 258.35,-134.75 314.02,-120.1"/>
<polygon fill="midnightblue" stroke="midnightblue" points="314.92,-123.48 323.7,-117.54 313.13,-116.71 314.92,-123.48"/>
</g>
<!-- Node6&#45;&gt;Node4 -->
<g id="edge6" class="edge">
<title>Node6&#45;&gt;Node4</title>
<path fill="none" stroke="midnightblue" d="M225.67,-89.43C196.4,-76.11 139.81,-50.36 105.67,-34.82"/>
<polygon fill="midnightblue" stroke="midnightblue" points="106.82,-31.5 96.26,-30.54 103.92,-37.87 106.82,-31.5"/>
</g>
<!-- Node7 -->
<g id="node7" class="node">
<title>Node7</title>
<g id="a_node7"><a xlink:title=" ">
<polygon fill="none" stroke="#bfbfbf" points="135.5,-11.5 135.5,-30.5 191.5,-30.5 191.5,-11.5 135.5,-11.5"/>
<text text-anchor="middle" x="163.5" y="-18.5" font-family="Helvetica,sans-Serif" font-size="10.00">ap_int.h</text>
</a>
</g>
</g>
<!-- Node6&#45;&gt;Node7 -->
<g id="edge7" class="edge">
<title>Node6&#45;&gt;Node7</title>
<path fill="none" stroke="midnightblue" d="M235.21,-89.28C221.78,-76.68 196.74,-53.19 180.09,-37.57"/>
<polygon fill="midnightblue" stroke="midnightblue" points="182.37,-34.91 172.68,-30.62 177.58,-40.01 182.37,-34.91"/>
</g>
<!-- Node8 -->
<g id="node8" class="node">
<title>Node8</title>
<g id="a_node8"><a xlink:title=" ">
<polygon fill="none" stroke="#bfbfbf" points="210,-0.5 210,-41.5 335,-41.5 335,-0.5 210,-0.5"/>
<text text-anchor="start" x="218" y="-29.5" font-family="Helvetica,sans-Serif" font-size="10.00">../../../../cFDK/SRA</text>
<text text-anchor="start" x="218" y="-18.5" font-family="Helvetica,sans-Serif" font-size="10.00">/LIB/SHELL/LIB/hls/NTS</text>
<text text-anchor="middle" x="272.5" y="-7.5" font-family="Helvetica,sans-Serif" font-size="10.00">/nts.hpp</text>
</a>
</g>
</g>
<!-- Node6&#45;&gt;Node8 -->
<g id="edge8" class="edge">
<title>Node6&#45;&gt;Node8</title>
<path fill="none" stroke="midnightblue" d="M247.71,-89.28C251.13,-79.99 256.74,-64.79 261.75,-51.18"/>
<polygon fill="midnightblue" stroke="midnightblue" points="265.08,-52.25 265.26,-41.66 258.52,-49.83 265.08,-52.25"/>
</g>
<!-- Node9 -->
<g id="node9" class="node">
<title>Node9</title>
<g id="a_node9"><a xlink:title=" ">
<polygon fill="none" stroke="#bfbfbf" points="353,-0.5 353,-41.5 478,-41.5 478,-0.5 353,-0.5"/>
<text text-anchor="start" x="361" y="-29.5" font-family="Helvetica,sans-Serif" font-size="10.00">../../../../cFDK/SRA</text>
<text text-anchor="start" x="361" y="-18.5" font-family="Helvetica,sans-Serif" font-size="10.00">/LIB/SHELL/LIB/hls/NTS</text>
<text text-anchor="middle" x="415.5" y="-7.5" font-family="Helvetica,sans-Serif" font-size="10.00">/nts_utils.hpp</text>
</a>
</g>
</g>
<!-- Node6&#45;&gt;Node9 -->
<g id="edge9" class="edge">
<title>Node6&#45;&gt;Node9</title>
<path fill="none" stroke="midnightblue" d="M263.78,-89.43C287.5,-78.89 328.72,-60.57 362.21,-45.68"/>
<polygon fill="midnightblue" stroke="midnightblue" points="363.72,-48.85 371.43,-41.59 360.87,-42.45 363.72,-48.85"/>
</g>
</g>
</svg>
