<?xml version="1.0" encoding="UTF-8" standalone="no"?>
<!DOCTYPE svg PUBLIC "-//W3C//DTD SVG 1.1//EN"
 "http://www.w3.org/Graphics/SVG/1.1/DTD/svg11.dtd">
<!-- Generated by graphviz version 2.43.0 (0)
 -->
<!-- Title: repos_for_Dox/cFp_HelloKale/ROLE/hls/tcp_app_flash/test/simu_tcp_app_flash_env.hpp Pages: 1 -->
<svg width="595pt" height="139pt"
 viewBox="0.00 0.00 594.50 139.00" xmlns="http://www.w3.org/2000/svg" xmlns:xlink="http://www.w3.org/1999/xlink">
<g id="graph0" class="graph" transform="scale(1 1) rotate(0) translate(4 135)">
<title>repos_for_Dox/cFp_HelloKale/ROLE/hls/tcp_app_flash/test/simu_tcp_app_flash_env.hpp</title>
<!-- Node1 -->
<g id="node1" class="node">
<title>Node1</title>
<g id="a_node1"><a xlink:title=": Simulation environment for the TCP Application Flash (TAF).">
<polygon fill="#bfbfbf" stroke="black" points="136,-78.5 136,-130.5 296,-130.5 296,-78.5 136,-78.5"/>
<text text-anchor="start" x="144" y="-118.5" font-family="Helvetica,sans-Serif" font-size="10.00">repos_for_Dox/cFp_HelloKale</text>
<text text-anchor="start" x="144" y="-107.5" font-family="Helvetica,sans-Serif" font-size="10.00">/ROLE/hls/tcp_app_flash</text>
<text text-anchor="start" x="144" y="-96.5" font-family="Helvetica,sans-Serif" font-size="10.00">/test/simu_tcp_app_flash</text>
<text text-anchor="middle" x="216" y="-85.5" font-family="Helvetica,sans-Serif" font-size="10.00">_env.hpp</text>
</a>
</g>
</g>
<!-- Node2 -->
<g id="node2" class="node">
<title>Node2</title>
<g id="a_node2"><a xlink:title=" ">
<polygon fill="none" stroke="#bfbfbf" points="0,-11.5 0,-30.5 50,-30.5 50,-11.5 0,-11.5"/>
<text text-anchor="middle" x="25" y="-18.5" font-family="Helvetica,sans-Serif" font-size="10.00">stdio.h</text>
</a>
</g>
</g>
<!-- Node1&#45;&gt;Node2 -->
<g id="edge1" class="edge">
<title>Node1&#45;&gt;Node2</title>
<path fill="none" stroke="midnightblue" d="M145.03,-78.43C117.72,-68.08 86.51,-55.38 59,-42 55.23,-40.17 51.31,-38.06 47.54,-35.93"/>
<polygon fill="midnightblue" stroke="midnightblue" points="49.02,-32.74 38.62,-30.68 45.47,-38.77 49.02,-32.74"/>
</g>
<!-- Node3 -->
<g id="node3" class="node">
<title>Node3</title>
<g id="a_node3"><a xlink:title=" ">
<polygon fill="none" stroke="#bfbfbf" points="68.5,-11.5 68.5,-30.5 123.5,-30.5 123.5,-11.5 68.5,-11.5"/>
<text text-anchor="middle" x="96" y="-18.5" font-family="Helvetica,sans-Serif" font-size="10.00">fstream</text>
</a>
</g>
</g>
<!-- Node1&#45;&gt;Node3 -->
<g id="edge2" class="edge">
<title>Node1&#45;&gt;Node3</title>
<path fill="none" stroke="midnightblue" d="M179.02,-78.38C158.8,-64.65 134.47,-48.12 117.39,-36.53"/>
<polygon fill="midnightblue" stroke="midnightblue" points="118.96,-33.36 108.72,-30.64 115.03,-39.15 118.96,-33.36"/>
</g>
<!-- Node4 -->
<g id="node4" class="node">
<title>Node4</title>
<g id="a_node4"><a xlink:title=" ">
<polygon fill="none" stroke="#bfbfbf" points="142,-11.5 142,-30.5 202,-30.5 202,-11.5 142,-11.5"/>
<text text-anchor="middle" x="172" y="-18.5" font-family="Helvetica,sans-Serif" font-size="10.00">iostream</text>
</a>
</g>
</g>
<!-- Node1&#45;&gt;Node4 -->
<g id="edge3" class="edge">
<title>Node1&#45;&gt;Node4</title>
<path fill="none" stroke="midnightblue" d="M202.32,-78.16C195.53,-65.58 187.5,-50.71 181.41,-39.43"/>
<polygon fill="midnightblue" stroke="midnightblue" points="184.47,-37.73 176.64,-30.59 178.31,-41.05 184.47,-37.73"/>
</g>
<!-- Node5 -->
<g id="node5" class="node">
<title>Node5</title>
<g id="a_node5"><a xlink:title=" ">
<polygon fill="none" stroke="#bfbfbf" points="220,-11.5 220,-30.5 300,-30.5 300,-11.5 220,-11.5"/>
<text text-anchor="middle" x="260" y="-18.5" font-family="Helvetica,sans-Serif" font-size="10.00">hls_stream.h</text>
</a>
</g>
</g>
<!-- Node1&#45;&gt;Node5 -->
<g id="edge4" class="edge">
<title>Node1&#45;&gt;Node5</title>
<path fill="none" stroke="midnightblue" d="M229.68,-78.16C236.47,-65.58 244.5,-50.71 250.59,-39.43"/>
<polygon fill="midnightblue" stroke="midnightblue" points="253.69,-41.05 255.36,-30.59 247.53,-37.73 253.69,-41.05"/>
</g>
<!-- Node6 -->
<g id="node6" class="node">
<title>Node6</title>
<g id="a_node6"><a xlink:title=" ">
<polygon fill="none" stroke="#bfbfbf" points="318.5,-0.5 318.5,-41.5 443.5,-41.5 443.5,-0.5 318.5,-0.5"/>
<text text-anchor="start" x="326.5" y="-29.5" font-family="Helvetica,sans-Serif" font-size="10.00">../../../../cFDK/SRA</text>
<text text-anchor="start" x="326.5" y="-18.5" font-family="Helvetica,sans-Serif" font-size="10.00">/LIB/SHELL/LIB/hls/NTS</text>
<text text-anchor="middle" x="381" y="-7.5" font-family="Helvetica,sans-Serif" font-size="10.00">/SimNtsUtils.hpp</text>
</a>
</g>
</g>
<!-- Node1&#45;&gt;Node6 -->
<g id="edge5" class="edge">
<title>Node1&#45;&gt;Node6</title>
<path fill="none" stroke="midnightblue" d="M266.85,-78.38C287.63,-68.12 311.56,-56.3 332.12,-46.14"/>
<polygon fill="midnightblue" stroke="midnightblue" points="333.9,-49.17 341.31,-41.6 330.8,-42.89 333.9,-49.17"/>
</g>
<!-- Node7 -->
<g id="node7" class="node">
<title>Node7</title>
<g id="a_node7"><a xlink:title=" ">
<polygon fill="none" stroke="#bfbfbf" points="461.5,-0.5 461.5,-41.5 586.5,-41.5 586.5,-0.5 461.5,-0.5"/>
<text text-anchor="start" x="469.5" y="-29.5" font-family="Helvetica,sans-Serif" font-size="10.00">../../../../cFDK/SRA</text>
<text text-anchor="start" x="469.5" y="-18.5" font-family="Helvetica,sans-Serif" font-size="10.00">/LIB/SHELL/LIB/hls/NTS</text>
<text text-anchor="middle" x="524" y="-7.5" font-family="Helvetica,sans-Serif" font-size="10.00">/SimAppData.hpp</text>
</a>
</g>
</g>
<!-- Node1&#45;&gt;Node7 -->
<g id="edge6" class="edge">
<title>Node1&#45;&gt;Node7</title>
<path fill="none" stroke="midnightblue" d="M296.19,-83.13C339.64,-71.99 394.5,-57.76 451.41,-42.41"/>
<polygon fill="midnightblue" stroke="midnightblue" points="452.56,-45.73 461.3,-39.74 450.73,-38.97 452.56,-45.73"/>
</g>
</g>
</svg>
