<?xml version="1.0" encoding="UTF-8" standalone="no"?>
<!DOCTYPE svg PUBLIC "-//W3C//DTD SVG 1.1//EN"
 "http://www.w3.org/Graphics/SVG/1.1/DTD/svg11.dtd">
<!-- Generated by graphviz version 2.43.0 (0)
 -->
<!-- Title: repos_for_Dox/cFp_Zoo/ROLE/vision/hls/sobel/include/xf_config_params.h Pages: 1 -->
<svg width="288pt" height="206pt"
 viewBox="0.00 0.00 288.00 206.00" xmlns="http://www.w3.org/2000/svg" xmlns:xlink="http://www.w3.org/1999/xlink">
<g id="graph0" class="graph" transform="scale(1 1) rotate(0) translate(4 202)">
<title>repos_for_Dox/cFp_Zoo/ROLE/vision/hls/sobel/include/xf_config_params.h</title>
<!-- Node1 -->
<g id="node1" class="node">
<title>Node1</title>
<g id="a_node1"><a xlink:title="The Sobel IP configuration header.">
<polygon fill="#bfbfbf" stroke="black" points="63,-156.5 63,-197.5 216,-197.5 216,-156.5 63,-156.5"/>
<text text-anchor="start" x="71" y="-185.5" font-family="Helvetica,sans-Serif" font-size="10.00">repos_for_Dox/cFp_Zoo</text>
<text text-anchor="start" x="71" y="-174.5" font-family="Helvetica,sans-Serif" font-size="10.00">/ROLE/vision/hls/sobel</text>
<text text-anchor="middle" x="139.5" y="-163.5" font-family="Helvetica,sans-Serif" font-size="10.00">/include/xf_config_params.h</text>
</a>
</g>
</g>
<!-- Node2 -->
<g id="node2" class="node">
<title>Node2</title>
<g id="a_node2"><a xlink:href="xf__sobel__config_8h.html" target="_top" xlink:title="The Sobel configuration header.">
<polygon fill="none" stroke="black" points="68,-78.5 68,-119.5 211,-119.5 211,-78.5 68,-78.5"/>
<text text-anchor="start" x="76" y="-107.5" font-family="Helvetica,sans-Serif" font-size="10.00">repos_for_Dox/cFp_Zoo</text>
<text text-anchor="start" x="76" y="-96.5" font-family="Helvetica,sans-Serif" font-size="10.00">/ROLE/vision/hls/sobel</text>
<text text-anchor="middle" x="139.5" y="-85.5" font-family="Helvetica,sans-Serif" font-size="10.00">/include/xf_sobel_config.h</text>
</a>
</g>
</g>
<!-- Node1&#45;&gt;Node2 -->
<g id="edge1" class="edge">
<title>Node1&#45;&gt;Node2</title>
<path fill="none" stroke="midnightblue" d="M139.5,-146.3C139.5,-137.3 139.5,-127.65 139.5,-119.51"/>
<polygon fill="midnightblue" stroke="midnightblue" points="136,-146.43 139.5,-156.43 143,-146.43 136,-146.43"/>
</g>
<!-- Node3 -->
<g id="node3" class="node">
<title>Node3</title>
<g id="a_node3"><a xlink:href="sobel_8cpp.html" target="_top" xlink:title="The Role for a Sobel Example application (UDP or TCP)">
<polygon fill="none" stroke="black" points="0,-0.5 0,-41.5 131,-41.5 131,-0.5 0,-0.5"/>
<text text-anchor="start" x="8" y="-29.5" font-family="Helvetica,sans-Serif" font-size="10.00">repos_for_Dox/cFp_Zoo</text>
<text text-anchor="start" x="8" y="-18.5" font-family="Helvetica,sans-Serif" font-size="10.00">/ROLE/vision/hls/sobel</text>
<text text-anchor="middle" x="65.5" y="-7.5" font-family="Helvetica,sans-Serif" font-size="10.00">/src/sobel.cpp</text>
</a>
</g>
</g>
<!-- Node2&#45;&gt;Node3 -->
<g id="edge2" class="edge">
<title>Node2&#45;&gt;Node3</title>
<path fill="none" stroke="midnightblue" d="M113.41,-71.2C103.88,-61.42 93.29,-50.54 84.49,-41.51"/>
<polygon fill="midnightblue" stroke="midnightblue" points="110.96,-73.71 120.44,-78.43 115.97,-68.82 110.96,-73.71"/>
</g>
<!-- Node4 -->
<g id="node4" class="node">
<title>Node4</title>
<g id="a_node4"><a xlink:href="xf__sobel__accel_8cpp.html" target="_top" xlink:title="The Sobel top&#45;level.">
<polygon fill="none" stroke="black" points="149,-0.5 149,-41.5 280,-41.5 280,-0.5 149,-0.5"/>
<text text-anchor="start" x="157" y="-29.5" font-family="Helvetica,sans-Serif" font-size="10.00">repos_for_Dox/cFp_Zoo</text>
<text text-anchor="start" x="157" y="-18.5" font-family="Helvetica,sans-Serif" font-size="10.00">/ROLE/vision/hls/sobel</text>
<text text-anchor="middle" x="214.5" y="-7.5" font-family="Helvetica,sans-Serif" font-size="10.00">/src/xf_sobel_accel.cpp</text>
</a>
</g>
</g>
<!-- Node2&#45;&gt;Node4 -->
<g id="edge3" class="edge">
<title>Node2&#45;&gt;Node4</title>
<path fill="none" stroke="midnightblue" d="M165.94,-71.2C175.6,-61.42 186.34,-50.54 195.25,-41.51"/>
<polygon fill="midnightblue" stroke="midnightblue" points="163.35,-68.85 158.81,-78.43 168.33,-73.77 163.35,-68.85"/>
</g>
</g>
</svg>
