<?xml version="1.0" encoding="UTF-8" standalone="no"?>
<!DOCTYPE svg PUBLIC "-//W3C//DTD SVG 1.1//EN"
 "http://www.w3.org/Graphics/SVG/1.1/DTD/svg11.dtd">
<!-- Generated by graphviz version 2.43.0 (0)
 -->
<!-- Title: repos_for_Dox/cFp_Zoo/ROLE/vision/hls/sobel/include/sobel.hpp Pages: 1 -->
<svg width="394pt" height="206pt"
 viewBox="0.00 0.00 394.00 206.00" xmlns="http://www.w3.org/2000/svg" xmlns:xlink="http://www.w3.org/1999/xlink">
<g id="graph0" class="graph" transform="scale(1 1) rotate(0) translate(4 202)">
<title>repos_for_Dox/cFp_Zoo/ROLE/vision/hls/sobel/include/sobel.hpp</title>
<!-- Node1 -->
<g id="node1" class="node">
<title>Node1</title>
<g id="a_node1"><a xlink:title="The Role for a Sobel Example application (UDP or TCP)">
<polygon fill="#bfbfbf" stroke="black" points="100,-156.5 100,-197.5 231,-197.5 231,-156.5 100,-156.5"/>
<text text-anchor="start" x="108" y="-185.5" font-family="Helvetica,sans-Serif" font-size="10.00">repos_for_Dox/cFp_Zoo</text>
<text text-anchor="start" x="108" y="-174.5" font-family="Helvetica,sans-Serif" font-size="10.00">/ROLE/vision/hls/sobel</text>
<text text-anchor="middle" x="165.5" y="-163.5" font-family="Helvetica,sans-Serif" font-size="10.00">/include/sobel.hpp</text>
</a>
</g>
</g>
<!-- Node2 -->
<g id="node2" class="node">
<title>Node2</title>
<g id="a_node2"><a xlink:href="xf__sobel__config_8h.html" target="_top" xlink:title="The Sobel configuration header.">
<polygon fill="none" stroke="black" points="94,-78.5 94,-119.5 237,-119.5 237,-78.5 94,-78.5"/>
<text text-anchor="start" x="102" y="-107.5" font-family="Helvetica,sans-Serif" font-size="10.00">repos_for_Dox/cFp_Zoo</text>
<text text-anchor="start" x="102" y="-96.5" font-family="Helvetica,sans-Serif" font-size="10.00">/ROLE/vision/hls/sobel</text>
<text text-anchor="middle" x="165.5" y="-85.5" font-family="Helvetica,sans-Serif" font-size="10.00">/include/xf_sobel_config.h</text>
</a>
</g>
</g>
<!-- Node1&#45;&gt;Node2 -->
<g id="edge1" class="edge">
<title>Node1&#45;&gt;Node2</title>
<path fill="none" stroke="midnightblue" d="M165.5,-146.3C165.5,-137.3 165.5,-127.65 165.5,-119.51"/>
<polygon fill="midnightblue" stroke="midnightblue" points="162,-146.43 165.5,-156.43 169,-146.43 162,-146.43"/>
</g>
<!-- Node3 -->
<g id="node3" class="node">
<title>Node3</title>
<g id="a_node3"><a xlink:href="sobel_8cpp.html" target="_top" xlink:title="The Role for a Sobel Example application (UDP or TCP)">
<polygon fill="none" stroke="black" points="0,-0.5 0,-41.5 131,-41.5 131,-0.5 0,-0.5"/>
<text text-anchor="start" x="8" y="-29.5" font-family="Helvetica,sans-Serif" font-size="10.00">repos_for_Dox/cFp_Zoo</text>
<text text-anchor="start" x="8" y="-18.5" font-family="Helvetica,sans-Serif" font-size="10.00">/ROLE/vision/hls/sobel</text>
<text text-anchor="middle" x="65.5" y="-7.5" font-family="Helvetica,sans-Serif" font-size="10.00">/src/sobel.cpp</text>
</a>
</g>
</g>
<!-- Node1&#45;&gt;Node3 -->
<g id="edge4" class="edge">
<title>Node1&#45;&gt;Node3</title>
<path fill="none" stroke="midnightblue" d="M116.47,-151.03C104.36,-142.7 92.55,-132.33 84.5,-120 68.95,-96.21 65.53,-62.68 65.07,-41.65"/>
<polygon fill="midnightblue" stroke="midnightblue" points="114.58,-153.97 124.87,-156.48 118.38,-148.1 114.58,-153.97"/>
</g>
<!-- Node5 -->
<g id="node5" class="node">
<title>Node5</title>
<g id="a_node5"><a xlink:href="test__sobel_8cpp.html" target="_top" xlink:title=": Testbench for Sobel.">
<polygon fill="none" stroke="black" points="255,-78.5 255,-119.5 386,-119.5 386,-78.5 255,-78.5"/>
<text text-anchor="start" x="263" y="-107.5" font-family="Helvetica,sans-Serif" font-size="10.00">repos_for_Dox/cFp_Zoo</text>
<text text-anchor="start" x="263" y="-96.5" font-family="Helvetica,sans-Serif" font-size="10.00">/ROLE/vision/hls/sobel</text>
<text text-anchor="middle" x="320.5" y="-85.5" font-family="Helvetica,sans-Serif" font-size="10.00">/test/test_sobel.cpp</text>
</a>
</g>
</g>
<!-- Node1&#45;&gt;Node5 -->
<g id="edge5" class="edge">
<title>Node1&#45;&gt;Node5</title>
<path fill="none" stroke="midnightblue" d="M214.63,-151.91C235.95,-141.46 260.58,-129.38 280.72,-119.51"/>
<polygon fill="midnightblue" stroke="midnightblue" points="212.85,-148.88 205.42,-156.43 215.94,-155.17 212.85,-148.88"/>
</g>
<!-- Node2&#45;&gt;Node3 -->
<g id="edge2" class="edge">
<title>Node2&#45;&gt;Node3</title>
<path fill="none" stroke="midnightblue" d="M131.75,-72.35C118.49,-62.27 103.52,-50.89 91.17,-41.51"/>
<polygon fill="midnightblue" stroke="midnightblue" points="129.67,-75.16 139.75,-78.43 133.9,-69.59 129.67,-75.16"/>
</g>
<!-- Node4 -->
<g id="node4" class="node">
<title>Node4</title>
<g id="a_node4"><a xlink:href="xf__sobel__accel_8cpp.html" target="_top" xlink:title="The Sobel top&#45;level.">
<polygon fill="none" stroke="black" points="149,-0.5 149,-41.5 280,-41.5 280,-0.5 149,-0.5"/>
<text text-anchor="start" x="157" y="-29.5" font-family="Helvetica,sans-Serif" font-size="10.00">repos_for_Dox/cFp_Zoo</text>
<text text-anchor="start" x="157" y="-18.5" font-family="Helvetica,sans-Serif" font-size="10.00">/ROLE/vision/hls/sobel</text>
<text text-anchor="middle" x="214.5" y="-7.5" font-family="Helvetica,sans-Serif" font-size="10.00">/src/xf_sobel_accel.cpp</text>
</a>
</g>
</g>
<!-- Node2&#45;&gt;Node4 -->
<g id="edge3" class="edge">
<title>Node2&#45;&gt;Node4</title>
<path fill="none" stroke="midnightblue" d="M183.71,-69.76C189.77,-60.35 196.39,-50.1 201.92,-41.51"/>
<polygon fill="midnightblue" stroke="midnightblue" points="180.6,-68.13 178.12,-78.43 186.48,-71.92 180.6,-68.13"/>
</g>
</g>
</svg>
