<?xml version="1.0" encoding="UTF-8" standalone="no"?>
<!DOCTYPE svg PUBLIC "-//W3C//DTD SVG 1.1//EN"
 "http://www.w3.org/Graphics/SVG/1.1/DTD/svg11.dtd">
<!-- Generated by graphviz version 2.43.0 (0)
 -->
<!-- Title: repos_for_Dox/cFp_Zoo/ROLE/vision/hls/sobel/include/sobel_network_library.hpp Pages: 1 -->
<svg width="686pt" height="195pt"
 viewBox="0.00 0.00 685.50 195.00" xmlns="http://www.w3.org/2000/svg" xmlns:xlink="http://www.w3.org/1999/xlink">
<g id="graph0" class="graph" transform="scale(1 1) rotate(0) translate(4 191)">
<title>repos_for_Dox/cFp_Zoo/ROLE/vision/hls/sobel/include/sobel_network_library.hpp</title>
<!-- Node1 -->
<g id="node1" class="node">
<title>Node1</title>
<g id="a_node1"><a xlink:title="A library for some common Network&#45;Related functionalities.">
<polygon fill="#bfbfbf" stroke="black" points="218.5,-134.5 218.5,-186.5 349.5,-186.5 349.5,-134.5 218.5,-134.5"/>
<text text-anchor="start" x="226.5" y="-174.5" font-family="Helvetica,sans-Serif" font-size="10.00">repos_for_Dox/cFp_Zoo</text>
<text text-anchor="start" x="226.5" y="-163.5" font-family="Helvetica,sans-Serif" font-size="10.00">/ROLE/vision/hls/sobel</text>
<text text-anchor="start" x="226.5" y="-152.5" font-family="Helvetica,sans-Serif" font-size="10.00">/include/sobel_network</text>
<text text-anchor="middle" x="284" y="-141.5" font-family="Helvetica,sans-Serif" font-size="10.00">_library.hpp</text>
</a>
</g>
</g>
<!-- Node2 -->
<g id="node2" class="node">
<title>Node2</title>
<g id="a_node2"><a xlink:title=" ">
<polygon fill="none" stroke="#bfbfbf" points="0,-0.5 0,-19.5 50,-19.5 50,-0.5 0,-0.5"/>
<text text-anchor="middle" x="25" y="-7.5" font-family="Helvetica,sans-Serif" font-size="10.00">stdio.h</text>
</a>
</g>
</g>
<!-- Node1&#45;&gt;Node2 -->
<g id="edge1" class="edge">
<title>Node1&#45;&gt;Node2</title>
<path fill="none" stroke="midnightblue" d="M218.23,-141.51C186.86,-131.33 149.59,-116.83 119,-98 86.83,-78.2 55.97,-46.37 38.84,-27.2"/>
<polygon fill="midnightblue" stroke="midnightblue" points="41.4,-24.81 32.18,-19.59 36.14,-29.42 41.4,-24.81"/>
</g>
<!-- Node3 -->
<g id="node3" class="node">
<title>Node3</title>
<g id="a_node3"><a xlink:title=" ">
<polygon fill="none" stroke="#bfbfbf" points="331,-67.5 331,-86.5 391,-86.5 391,-67.5 331,-67.5"/>
<text text-anchor="middle" x="361" y="-74.5" font-family="Helvetica,sans-Serif" font-size="10.00">iostream</text>
</a>
</g>
</g>
<!-- Node1&#45;&gt;Node3 -->
<g id="edge2" class="edge">
<title>Node1&#45;&gt;Node3</title>
<path fill="none" stroke="midnightblue" d="M307.94,-134.16C320.3,-121.07 335.02,-105.5 345.81,-94.08"/>
<polygon fill="midnightblue" stroke="midnightblue" points="348.56,-96.26 352.88,-86.59 343.47,-91.45 348.56,-96.26"/>
</g>
<!-- Node4 -->
<g id="node4" class="node">
<title>Node4</title>
<g id="a_node4"><a xlink:title=" ">
<polygon fill="none" stroke="#bfbfbf" points="68,-0.5 68,-19.5 148,-19.5 148,-0.5 68,-0.5"/>
<text text-anchor="middle" x="108" y="-7.5" font-family="Helvetica,sans-Serif" font-size="10.00">hls_stream.h</text>
</a>
</g>
</g>
<!-- Node1&#45;&gt;Node4 -->
<g id="edge3" class="edge">
<title>Node1&#45;&gt;Node4</title>
<path fill="none" stroke="midnightblue" d="M218.48,-139.92C194.69,-130.28 169.01,-116.64 150,-98 130.39,-78.77 118.68,-48.54 112.79,-29.25"/>
<polygon fill="midnightblue" stroke="midnightblue" points="116.14,-28.23 110.04,-19.56 109.4,-30.14 116.14,-28.23"/>
</g>
<!-- Node5 -->
<g id="node5" class="node">
<title>Node5</title>
<g id="a_node5"><a xlink:title=" ">
<polygon fill="none" stroke="#bfbfbf" points="248,-0.5 248,-19.5 304,-19.5 304,-0.5 248,-0.5"/>
<text text-anchor="middle" x="276" y="-7.5" font-family="Helvetica,sans-Serif" font-size="10.00">ap_int.h</text>
</a>
</g>
</g>
<!-- Node1&#45;&gt;Node5 -->
<g id="edge4" class="edge">
<title>Node1&#45;&gt;Node5</title>
<path fill="none" stroke="midnightblue" d="M282.64,-134.31C281.05,-104.76 278.45,-56.43 277.02,-29.91"/>
<polygon fill="midnightblue" stroke="midnightblue" points="280.5,-29.49 276.47,-19.69 273.51,-29.87 280.5,-29.49"/>
</g>
<!-- Node6 -->
<g id="node6" class="node">
<title>Node6</title>
<g id="a_node6"><a xlink:title=" ">
<polygon fill="none" stroke="#bfbfbf" points="322.5,-0.5 322.5,-19.5 375.5,-19.5 375.5,-0.5 322.5,-0.5"/>
<text text-anchor="middle" x="349" y="-7.5" font-family="Helvetica,sans-Serif" font-size="10.00">stdint.h</text>
</a>
</g>
</g>
<!-- Node1&#45;&gt;Node6 -->
<g id="edge5" class="edge">
<title>Node1&#45;&gt;Node6</title>
<path fill="none" stroke="midnightblue" d="M291.78,-134.28C298.69,-112.98 309.61,-81.9 322,-56 326.52,-46.55 332.43,-36.51 337.56,-28.31"/>
<polygon fill="midnightblue" stroke="midnightblue" points="340.65,-29.99 343.11,-19.69 334.76,-26.21 340.65,-29.99"/>
</g>
<!-- Node7 -->
<g id="node7" class="node">
<title>Node7</title>
<g id="a_node7"><a xlink:href="vision_2sobel_2languages_2cplusplus_2include_2config_8h.html" target="_top" xlink:title="The configuration of a Sobel Example application (UDP or TCP)">
<polygon fill="none" stroke="black" points="409.5,-56.5 409.5,-97.5 554.5,-97.5 554.5,-56.5 409.5,-56.5"/>
<text text-anchor="start" x="417.5" y="-85.5" font-family="Helvetica,sans-Serif" font-size="10.00">../../../../../HOST</text>
<text text-anchor="start" x="417.5" y="-74.5" font-family="Helvetica,sans-Serif" font-size="10.00">/vision/sobel/languages</text>
<text text-anchor="middle" x="482" y="-63.5" font-family="Helvetica,sans-Serif" font-size="10.00">/cplusplus/include/config.h</text>
</a>
</g>
</g>
<!-- Node1&#45;&gt;Node7 -->
<g id="edge6" class="edge">
<title>Node1&#45;&gt;Node7</title>
<path fill="none" stroke="midnightblue" d="M344.75,-134.49C370.36,-123.95 399.99,-111.76 425.16,-101.4"/>
<polygon fill="midnightblue" stroke="midnightblue" points="426.65,-104.57 434.57,-97.52 423.99,-98.09 426.65,-104.57"/>
</g>
<!-- Node8 -->
<g id="node8" class="node">
<title>Node8</title>
<g id="a_node8"><a xlink:title=" ">
<polygon fill="none" stroke="#bfbfbf" points="572.5,-67.5 572.5,-86.5 677.5,-86.5 677.5,-67.5 572.5,-67.5"/>
<text text-anchor="middle" x="625" y="-74.5" font-family="Helvetica,sans-Serif" font-size="10.00">memory_utils.hpp</text>
</a>
</g>
</g>
<!-- Node1&#45;&gt;Node8 -->
<g id="edge7" class="edge">
<title>Node1&#45;&gt;Node8</title>
<path fill="none" stroke="midnightblue" d="M349.52,-147.05C406.55,-135.75 491.26,-117.86 564,-98 572.91,-95.57 582.43,-92.62 591.25,-89.74"/>
<polygon fill="midnightblue" stroke="midnightblue" points="592.45,-93.03 600.83,-86.55 590.24,-86.39 592.45,-93.03"/>
</g>
<!-- Node9 -->
<g id="node9" class="node">
<title>Node9</title>
<g id="a_node9"><a xlink:href="network_8hpp.html" target="_top" xlink:title=" ">
<polygon fill="none" stroke="black" points="159.5,-67.5 159.5,-86.5 236.5,-86.5 236.5,-67.5 159.5,-67.5"/>
<text text-anchor="middle" x="198" y="-74.5" font-family="Helvetica,sans-Serif" font-size="10.00">network.hpp</text>
</a>
</g>
</g>
<!-- Node1&#45;&gt;Node9 -->
<g id="edge8" class="edge">
<title>Node1&#45;&gt;Node9</title>
<path fill="none" stroke="midnightblue" d="M257.26,-134.16C243.32,-120.95 226.7,-105.2 214.62,-93.75"/>
<polygon fill="midnightblue" stroke="midnightblue" points="216.73,-90.93 207.06,-86.59 211.91,-96.01 216.73,-90.93"/>
</g>
<!-- Node9&#45;&gt;Node2 -->
<g id="edge10" class="edge">
<title>Node9&#45;&gt;Node2</title>
<path fill="none" stroke="midnightblue" d="M175.03,-67.37C144.83,-56.02 91.6,-36.02 57.34,-23.15"/>
<polygon fill="midnightblue" stroke="midnightblue" points="58.38,-19.8 47.79,-19.56 55.92,-26.36 58.38,-19.8"/>
</g>
<!-- Node9&#45;&gt;Node4 -->
<g id="edge13" class="edge">
<title>Node9&#45;&gt;Node4</title>
<path fill="none" stroke="midnightblue" d="M185.86,-67.23C171.15,-56.61 146.14,-38.55 128.44,-25.76"/>
<polygon fill="midnightblue" stroke="midnightblue" points="130.1,-22.64 119.95,-19.63 126,-28.32 130.1,-22.64"/>
</g>
<!-- Node9&#45;&gt;Node5 -->
<g id="edge11" class="edge">
<title>Node9&#45;&gt;Node5</title>
<path fill="none" stroke="midnightblue" d="M208.52,-67.23C221.15,-56.71 242.54,-38.88 257.86,-26.12"/>
<polygon fill="midnightblue" stroke="midnightblue" points="260.21,-28.72 265.65,-19.63 255.72,-23.34 260.21,-28.72"/>
</g>
<!-- Node9&#45;&gt;Node6 -->
<g id="edge9" class="edge">
<title>Node9&#45;&gt;Node6</title>
<path fill="none" stroke="midnightblue" d="M218.05,-67.37C244,-56.2 289.42,-36.65 319.36,-23.76"/>
<polygon fill="midnightblue" stroke="midnightblue" points="321.06,-26.84 328.87,-19.67 318.3,-20.41 321.06,-26.84"/>
</g>
<!-- Node10 -->
<g id="node10" class="node">
<title>Node10</title>
<g id="a_node10"><a xlink:title=" ">
<polygon fill="none" stroke="#bfbfbf" points="166,-0.5 166,-19.5 230,-19.5 230,-0.5 166,-0.5"/>
<text text-anchor="middle" x="198" y="-7.5" font-family="Helvetica,sans-Serif" font-size="10.00">ap_utils.h</text>
</a>
</g>
</g>
<!-- Node9&#45;&gt;Node10 -->
<g id="edge12" class="edge">
<title>Node9&#45;&gt;Node10</title>
<path fill="none" stroke="midnightblue" d="M198,-67.23C198,-57.68 198,-42.12 198,-29.78"/>
<polygon fill="midnightblue" stroke="midnightblue" points="201.5,-29.63 198,-19.63 194.5,-29.63 201.5,-29.63"/>
</g>
</g>
</svg>
