<?xml version="1.0" encoding="UTF-8" standalone="no"?>
<!DOCTYPE svg PUBLIC "-//W3C//DTD SVG 1.1//EN"
 "http://www.w3.org/Graphics/SVG/1.1/DTD/svg11.dtd">
<!-- Generated by graphviz version 2.43.0 (0)
 -->
<!-- Title: repos_for_Dox/cFp_Zoo/ROLE/vision/hls/sobel/include/sobel_hw_common.hpp Pages: 1 -->
<svg width="686pt" height="184pt"
 viewBox="0.00 0.00 685.50 184.00" xmlns="http://www.w3.org/2000/svg" xmlns:xlink="http://www.w3.org/1999/xlink">
<g id="graph0" class="graph" transform="scale(1 1) rotate(0) translate(4 180)">
<title>repos_for_Dox/cFp_Zoo/ROLE/vision/hls/sobel/include/sobel_hw_common.hpp</title>
<!-- Node1 -->
<g id="node1" class="node">
<title>Node1</title>
<g id="a_node1"><a xlink:title="A library for some common functionalities: Memory interaction Performance Counters.">
<polygon fill="#bfbfbf" stroke="black" points="197.5,-134.5 197.5,-175.5 370.5,-175.5 370.5,-134.5 197.5,-134.5"/>
<text text-anchor="start" x="205.5" y="-163.5" font-family="Helvetica,sans-Serif" font-size="10.00">repos_for_Dox/cFp_Zoo</text>
<text text-anchor="start" x="205.5" y="-152.5" font-family="Helvetica,sans-Serif" font-size="10.00">/ROLE/vision/hls/sobel</text>
<text text-anchor="middle" x="284" y="-141.5" font-family="Helvetica,sans-Serif" font-size="10.00">/include/sobel_hw_common.hpp</text>
</a>
</g>
</g>
<!-- Node2 -->
<g id="node2" class="node">
<title>Node2</title>
<g id="a_node2"><a xlink:title=" ">
<polygon fill="none" stroke="#bfbfbf" points="0,-0.5 0,-19.5 50,-19.5 50,-0.5 0,-0.5"/>
<text text-anchor="middle" x="25" y="-7.5" font-family="Helvetica,sans-Serif" font-size="10.00">stdio.h</text>
</a>
</g>
</g>
<!-- Node1&#45;&gt;Node2 -->
<g id="edge1" class="edge">
<title>Node1&#45;&gt;Node2</title>
<path fill="none" stroke="midnightblue" d="M204.66,-134.46C176.47,-125.64 145.25,-113.63 119,-98 86.54,-78.68 55.77,-46.69 38.74,-27.36"/>
<polygon fill="midnightblue" stroke="midnightblue" points="41.3,-24.97 32.12,-19.69 36,-29.54 41.3,-24.97"/>
</g>
<!-- Node3 -->
<g id="node3" class="node">
<title>Node3</title>
<g id="a_node3"><a xlink:title=" ">
<polygon fill="none" stroke="#bfbfbf" points="331,-67.5 331,-86.5 391,-86.5 391,-67.5 331,-67.5"/>
<text text-anchor="middle" x="361" y="-74.5" font-family="Helvetica,sans-Serif" font-size="10.00">iostream</text>
</a>
</g>
</g>
<!-- Node1&#45;&gt;Node3 -->
<g id="edge2" class="edge">
<title>Node1&#45;&gt;Node3</title>
<path fill="none" stroke="midnightblue" d="M303.83,-134.43C316.7,-121.73 333.23,-105.41 345.21,-93.59"/>
<polygon fill="midnightblue" stroke="midnightblue" points="347.68,-96.07 352.34,-86.55 342.76,-91.09 347.68,-96.07"/>
</g>
<!-- Node4 -->
<g id="node4" class="node">
<title>Node4</title>
<g id="a_node4"><a xlink:title=" ">
<polygon fill="none" stroke="#bfbfbf" points="68,-0.5 68,-19.5 148,-19.5 148,-0.5 68,-0.5"/>
<text text-anchor="middle" x="108" y="-7.5" font-family="Helvetica,sans-Serif" font-size="10.00">hls_stream.h</text>
</a>
</g>
</g>
<!-- Node1&#45;&gt;Node4 -->
<g id="edge3" class="edge">
<title>Node1&#45;&gt;Node4</title>
<path fill="none" stroke="midnightblue" d="M210.91,-134.42C189.36,-125.93 167.02,-114.13 150,-98 130.06,-79.11 118.44,-48.78 112.66,-29.38"/>
<polygon fill="midnightblue" stroke="midnightblue" points="116.01,-28.34 109.97,-19.63 109.26,-30.2 116.01,-28.34"/>
</g>
<!-- Node5 -->
<g id="node5" class="node">
<title>Node5</title>
<g id="a_node5"><a xlink:title=" ">
<polygon fill="none" stroke="#bfbfbf" points="248,-0.5 248,-19.5 304,-19.5 304,-0.5 248,-0.5"/>
<text text-anchor="middle" x="276" y="-7.5" font-family="Helvetica,sans-Serif" font-size="10.00">ap_int.h</text>
</a>
</g>
</g>
<!-- Node1&#45;&gt;Node5 -->
<g id="edge4" class="edge">
<title>Node1&#45;&gt;Node5</title>
<path fill="none" stroke="midnightblue" d="M282.9,-134.42C281.36,-106.84 278.57,-56.91 277.05,-29.78"/>
<polygon fill="midnightblue" stroke="midnightblue" points="280.54,-29.47 276.49,-19.68 273.55,-29.86 280.54,-29.47"/>
</g>
<!-- Node6 -->
<g id="node6" class="node">
<title>Node6</title>
<g id="a_node6"><a xlink:title=" ">
<polygon fill="none" stroke="#bfbfbf" points="322.5,-0.5 322.5,-19.5 375.5,-19.5 375.5,-0.5 322.5,-0.5"/>
<text text-anchor="middle" x="349" y="-7.5" font-family="Helvetica,sans-Serif" font-size="10.00">stdint.h</text>
</a>
</g>
</g>
<!-- Node1&#45;&gt;Node6 -->
<g id="edge5" class="edge">
<title>Node1&#45;&gt;Node6</title>
<path fill="none" stroke="midnightblue" d="M290.48,-134.43C297.38,-114.35 309.08,-82.39 322,-56 326.61,-46.59 332.52,-36.55 337.64,-28.35"/>
<polygon fill="midnightblue" stroke="midnightblue" points="340.73,-30.03 343.16,-19.71 334.83,-26.26 340.73,-30.03"/>
</g>
<!-- Node7 -->
<g id="node7" class="node">
<title>Node7</title>
<g id="a_node7"><a xlink:href="vision_2sobel_2languages_2cplusplus_2include_2config_8h.html" target="_top" xlink:title="The configuration of a Sobel Example application (UDP or TCP)">
<polygon fill="none" stroke="black" points="409.5,-56.5 409.5,-97.5 554.5,-97.5 554.5,-56.5 409.5,-56.5"/>
<text text-anchor="start" x="417.5" y="-85.5" font-family="Helvetica,sans-Serif" font-size="10.00">../../../../../HOST</text>
<text text-anchor="start" x="417.5" y="-74.5" font-family="Helvetica,sans-Serif" font-size="10.00">/vision/sobel/languages</text>
<text text-anchor="middle" x="482" y="-63.5" font-family="Helvetica,sans-Serif" font-size="10.00">/cplusplus/include/config.h</text>
</a>
</g>
</g>
<!-- Node1&#45;&gt;Node7 -->
<g id="edge6" class="edge">
<title>Node1&#45;&gt;Node7</title>
<path fill="none" stroke="midnightblue" d="M334.99,-134.43C361.43,-124.28 393.91,-111.81 421.6,-101.18"/>
<polygon fill="midnightblue" stroke="midnightblue" points="423.1,-104.36 431.18,-97.51 420.59,-97.82 423.1,-104.36"/>
</g>
<!-- Node8 -->
<g id="node8" class="node">
<title>Node8</title>
<g id="a_node8"><a xlink:title=" ">
<polygon fill="none" stroke="#bfbfbf" points="572.5,-67.5 572.5,-86.5 677.5,-86.5 677.5,-67.5 572.5,-67.5"/>
<text text-anchor="middle" x="625" y="-74.5" font-family="Helvetica,sans-Serif" font-size="10.00">memory_utils.hpp</text>
</a>
</g>
</g>
<!-- Node1&#45;&gt;Node8 -->
<g id="edge7" class="edge">
<title>Node1&#45;&gt;Node8</title>
<path fill="none" stroke="midnightblue" d="M370.7,-139.42C426.32,-129.39 499.87,-114.86 564,-98 573.01,-95.63 582.63,-92.68 591.51,-89.78"/>
<polygon fill="midnightblue" stroke="midnightblue" points="592.78,-93.04 601.15,-86.55 590.56,-86.4 592.78,-93.04"/>
</g>
<!-- Node9 -->
<g id="node9" class="node">
<title>Node9</title>
<g id="a_node9"><a xlink:href="network_8hpp.html" target="_top" xlink:title=" ">
<polygon fill="none" stroke="black" points="159.5,-67.5 159.5,-86.5 236.5,-86.5 236.5,-67.5 159.5,-67.5"/>
<text text-anchor="middle" x="198" y="-74.5" font-family="Helvetica,sans-Serif" font-size="10.00">network.hpp</text>
</a>
</g>
</g>
<!-- Node1&#45;&gt;Node9 -->
<g id="edge8" class="edge">
<title>Node1&#45;&gt;Node9</title>
<path fill="none" stroke="midnightblue" d="M261.85,-134.43C247.35,-121.61 228.66,-105.09 215.26,-93.25"/>
<polygon fill="midnightblue" stroke="midnightblue" points="217.49,-90.55 207.68,-86.55 212.85,-95.8 217.49,-90.55"/>
</g>
<!-- Node9&#45;&gt;Node2 -->
<g id="edge10" class="edge">
<title>Node9&#45;&gt;Node2</title>
<path fill="none" stroke="midnightblue" d="M175.03,-67.37C144.83,-56.02 91.6,-36.02 57.34,-23.15"/>
<polygon fill="midnightblue" stroke="midnightblue" points="58.38,-19.8 47.79,-19.56 55.92,-26.36 58.38,-19.8"/>
</g>
<!-- Node9&#45;&gt;Node4 -->
<g id="edge13" class="edge">
<title>Node9&#45;&gt;Node4</title>
<path fill="none" stroke="midnightblue" d="M185.86,-67.23C171.15,-56.61 146.14,-38.55 128.44,-25.76"/>
<polygon fill="midnightblue" stroke="midnightblue" points="130.1,-22.64 119.95,-19.63 126,-28.32 130.1,-22.64"/>
</g>
<!-- Node9&#45;&gt;Node5 -->
<g id="edge11" class="edge">
<title>Node9&#45;&gt;Node5</title>
<path fill="none" stroke="midnightblue" d="M208.52,-67.23C221.15,-56.71 242.54,-38.88 257.86,-26.12"/>
<polygon fill="midnightblue" stroke="midnightblue" points="260.21,-28.72 265.65,-19.63 255.72,-23.34 260.21,-28.72"/>
</g>
<!-- Node9&#45;&gt;Node6 -->
<g id="edge9" class="edge">
<title>Node9&#45;&gt;Node6</title>
<path fill="none" stroke="midnightblue" d="M218.05,-67.37C244,-56.2 289.42,-36.65 319.36,-23.76"/>
<polygon fill="midnightblue" stroke="midnightblue" points="321.06,-26.84 328.87,-19.67 318.3,-20.41 321.06,-26.84"/>
</g>
<!-- Node10 -->
<g id="node10" class="node">
<title>Node10</title>
<g id="a_node10"><a xlink:title=" ">
<polygon fill="none" stroke="#bfbfbf" points="166,-0.5 166,-19.5 230,-19.5 230,-0.5 166,-0.5"/>
<text text-anchor="middle" x="198" y="-7.5" font-family="Helvetica,sans-Serif" font-size="10.00">ap_utils.h</text>
</a>
</g>
</g>
<!-- Node9&#45;&gt;Node10 -->
<g id="edge12" class="edge">
<title>Node9&#45;&gt;Node10</title>
<path fill="none" stroke="midnightblue" d="M198,-67.23C198,-57.68 198,-42.12 198,-29.78"/>
<polygon fill="midnightblue" stroke="midnightblue" points="201.5,-29.63 198,-19.63 194.5,-29.63 201.5,-29.63"/>
</g>
</g>
</svg>
