<?xml version="1.0" encoding="UTF-8" standalone="no"?>
<!DOCTYPE svg PUBLIC "-//W3C//DTD SVG 1.1//EN"
 "http://www.w3.org/Graphics/SVG/1.1/DTD/svg11.dtd">
<!-- Generated by graphviz version 2.43.0 (0)
 -->
<!-- Title: repos_for_Dox/cFDK/SRA/LIB/SHELL/LIB/hls/NTS/toe/src/state_table/state_table.hpp Pages: 1 -->
<svg width="740pt" height="239pt"
 viewBox="0.00 0.00 740.00 239.00" xmlns="http://www.w3.org/2000/svg" xmlns:xlink="http://www.w3.org/1999/xlink">
<g id="graph0" class="graph" transform="scale(1 1) rotate(0) translate(4 235)">
<title>repos_for_Dox/cFDK/SRA/LIB/SHELL/LIB/hls/NTS/toe/src/state_table/state_table.hpp</title>
<!-- Node1 -->
<g id="node1" class="node">
<title>Node1</title>
<g id="a_node1"><a xlink:title=": State Table (STt) for the TCP Offload Engine (TOE)">
<polygon fill="#bfbfbf" stroke="black" points="303.5,-178.5 303.5,-230.5 436.5,-230.5 436.5,-178.5 303.5,-178.5"/>
<text text-anchor="start" x="311.5" y="-218.5" font-family="Helvetica,sans-Serif" font-size="10.00">repos_for_Dox/cFDK</text>
<text text-anchor="start" x="311.5" y="-207.5" font-family="Helvetica,sans-Serif" font-size="10.00">/SRA/LIB/SHELL/LIB/hls</text>
<text text-anchor="start" x="311.5" y="-196.5" font-family="Helvetica,sans-Serif" font-size="10.00">/NTS/toe/src/state_table</text>
<text text-anchor="middle" x="370" y="-185.5" font-family="Helvetica,sans-Serif" font-size="10.00">/state_table.hpp</text>
</a>
</g>
</g>
<!-- Node2 -->
<g id="node2" class="node">
<title>Node2</title>
<g id="a_node2"><a xlink:href="test__rx__engine_8hpp.html" target="_top" xlink:title=": Testbench for RX Engine (RXe) of the TCP Offload Engine (TOE).">
<polygon fill="none" stroke="black" points="0,-89.5 0,-141.5 134,-141.5 134,-89.5 0,-89.5"/>
<text text-anchor="start" x="8" y="-129.5" font-family="Helvetica,sans-Serif" font-size="10.00">repos_for_Dox/cFDK</text>
<text text-anchor="start" x="8" y="-118.5" font-family="Helvetica,sans-Serif" font-size="10.00">/SRA/LIB/SHELL/LIB/hls</text>
<text text-anchor="start" x="8" y="-107.5" font-family="Helvetica,sans-Serif" font-size="10.00">/NTS/toe/src/rx_engine</text>
<text text-anchor="middle" x="67" y="-96.5" font-family="Helvetica,sans-Serif" font-size="10.00">/test/test_rx_engine.hpp</text>
</a>
</g>
</g>
<!-- Node1&#45;&gt;Node2 -->
<g id="edge1" class="edge">
<title>Node1&#45;&gt;Node2</title>
<path fill="none" stroke="midnightblue" d="M293.36,-183.94C249.21,-172.38 192.77,-157.08 143,-142 140.07,-141.11 137.08,-140.19 134.07,-139.24"/>
<polygon fill="midnightblue" stroke="midnightblue" points="292.59,-187.36 303.15,-186.5 294.36,-180.59 292.59,-187.36"/>
</g>
<!-- Node4 -->
<g id="node4" class="node">
<title>Node4</title>
<g id="a_node4"><a xlink:href="state__table_8cpp.html" target="_top" xlink:title=": State Table (STt)">
<polygon fill="none" stroke="black" points="152.5,-89.5 152.5,-141.5 285.5,-141.5 285.5,-89.5 152.5,-89.5"/>
<text text-anchor="start" x="160.5" y="-129.5" font-family="Helvetica,sans-Serif" font-size="10.00">repos_for_Dox/cFDK</text>
<text text-anchor="start" x="160.5" y="-118.5" font-family="Helvetica,sans-Serif" font-size="10.00">/SRA/LIB/SHELL/LIB/hls</text>
<text text-anchor="start" x="160.5" y="-107.5" font-family="Helvetica,sans-Serif" font-size="10.00">/NTS/toe/src/state_table</text>
<text text-anchor="middle" x="219" y="-96.5" font-family="Helvetica,sans-Serif" font-size="10.00">/state_table.cpp</text>
</a>
</g>
</g>
<!-- Node1&#45;&gt;Node4 -->
<g id="edge3" class="edge">
<title>Node1&#45;&gt;Node4</title>
<path fill="none" stroke="midnightblue" d="M317.19,-173.07C299.34,-162.79 279.63,-151.43 262.58,-141.61"/>
<polygon fill="midnightblue" stroke="midnightblue" points="315.91,-176.38 326.32,-178.34 319.41,-170.31 315.91,-176.38"/>
</g>
<!-- Node5 -->
<g id="node5" class="node">
<title>Node5</title>
<g id="a_node5"><a xlink:href="test__state__table_8cpp.html" target="_top" xlink:title=" ">
<polygon fill="none" stroke="black" points="303.5,-89.5 303.5,-141.5 436.5,-141.5 436.5,-89.5 303.5,-89.5"/>
<text text-anchor="start" x="311.5" y="-129.5" font-family="Helvetica,sans-Serif" font-size="10.00">repos_for_Dox/cFDK</text>
<text text-anchor="start" x="311.5" y="-118.5" font-family="Helvetica,sans-Serif" font-size="10.00">/SRA/LIB/SHELL/LIB/hls</text>
<text text-anchor="start" x="311.5" y="-107.5" font-family="Helvetica,sans-Serif" font-size="10.00">/NTS/toe/src/state_table</text>
<text text-anchor="middle" x="370" y="-96.5" font-family="Helvetica,sans-Serif" font-size="10.00">/test_state_table.cpp</text>
</a>
</g>
</g>
<!-- Node1&#45;&gt;Node5 -->
<g id="edge4" class="edge">
<title>Node1&#45;&gt;Node5</title>
<path fill="none" stroke="midnightblue" d="M370,-168.19C370,-159.28 370,-149.9 370,-141.61"/>
<polygon fill="midnightblue" stroke="midnightblue" points="366.5,-168.34 370,-178.34 373.5,-168.34 366.5,-168.34"/>
</g>
<!-- Node6 -->
<g id="node6" class="node">
<title>Node6</title>
<g id="a_node6"><a xlink:href="toe_8cpp.html" target="_top" xlink:title=": TCP Offload Engine (TOE)">
<polygon fill="none" stroke="black" points="454.5,-95 454.5,-136 579.5,-136 579.5,-95 454.5,-95"/>
<text text-anchor="start" x="462.5" y="-124" font-family="Helvetica,sans-Serif" font-size="10.00">repos_for_Dox/cFDK</text>
<text text-anchor="start" x="462.5" y="-113" font-family="Helvetica,sans-Serif" font-size="10.00">/SRA/LIB/SHELL/LIB/hls</text>
<text text-anchor="middle" x="517" y="-102" font-family="Helvetica,sans-Serif" font-size="10.00">/NTS/toe/src/toe.cpp</text>
</a>
</g>
</g>
<!-- Node1&#45;&gt;Node6 -->
<g id="edge5" class="edge">
<title>Node1&#45;&gt;Node6</title>
<path fill="none" stroke="midnightblue" d="M421.24,-173.17C442.03,-160.87 465.44,-147.01 483.91,-136.08"/>
<polygon fill="midnightblue" stroke="midnightblue" points="419.34,-170.23 412.52,-178.34 422.91,-176.25 419.34,-170.23"/>
</g>
<!-- Node7 -->
<g id="node7" class="node">
<title>Node7</title>
<g id="a_node7"><a xlink:href="test__tx__engine_8hpp.html" target="_top" xlink:title=" ">
<polygon fill="none" stroke="black" points="598,-89.5 598,-141.5 732,-141.5 732,-89.5 598,-89.5"/>
<text text-anchor="start" x="606" y="-129.5" font-family="Helvetica,sans-Serif" font-size="10.00">repos_for_Dox/cFDK</text>
<text text-anchor="start" x="606" y="-118.5" font-family="Helvetica,sans-Serif" font-size="10.00">/SRA/LIB/SHELL/LIB/hls</text>
<text text-anchor="start" x="606" y="-107.5" font-family="Helvetica,sans-Serif" font-size="10.00">/NTS/toe/src/tx_engine</text>
<text text-anchor="middle" x="665" y="-96.5" font-family="Helvetica,sans-Serif" font-size="10.00">/test/test_tx_engine.hpp</text>
</a>
</g>
</g>
<!-- Node1&#45;&gt;Node7 -->
<g id="edge6" class="edge">
<title>Node1&#45;&gt;Node7</title>
<path fill="none" stroke="midnightblue" d="M446.51,-183.02C488.69,-171.48 541.91,-156.5 589,-142 591.93,-141.1 594.91,-140.16 597.92,-139.21"/>
<polygon fill="midnightblue" stroke="midnightblue" points="445.59,-179.65 436.86,-185.65 447.43,-186.4 445.59,-179.65"/>
</g>
<!-- Node3 -->
<g id="node3" class="node">
<title>Node3</title>
<g id="a_node3"><a xlink:href="test__rx__engine_8cpp.html" target="_top" xlink:title=": Testbench for RX Engine (RXe) of the TCP Offload Engine (TOE).">
<polygon fill="none" stroke="black" points="0,-0.5 0,-52.5 134,-52.5 134,-0.5 0,-0.5"/>
<text text-anchor="start" x="8" y="-40.5" font-family="Helvetica,sans-Serif" font-size="10.00">repos_for_Dox/cFDK</text>
<text text-anchor="start" x="8" y="-29.5" font-family="Helvetica,sans-Serif" font-size="10.00">/SRA/LIB/SHELL/LIB/hls</text>
<text text-anchor="start" x="8" y="-18.5" font-family="Helvetica,sans-Serif" font-size="10.00">/NTS/toe/src/rx_engine</text>
<text text-anchor="middle" x="67" y="-7.5" font-family="Helvetica,sans-Serif" font-size="10.00">/test/test_rx_engine.cpp</text>
</a>
</g>
</g>
<!-- Node2&#45;&gt;Node3 -->
<g id="edge2" class="edge">
<title>Node2&#45;&gt;Node3</title>
<path fill="none" stroke="midnightblue" d="M67,-79.19C67,-70.28 67,-60.9 67,-52.61"/>
<polygon fill="midnightblue" stroke="midnightblue" points="63.5,-79.34 67,-89.34 70.5,-79.34 63.5,-79.34"/>
</g>
<!-- Node8 -->
<g id="node8" class="node">
<title>Node8</title>
<g id="a_node8"><a xlink:href="test__tx__engine_8cpp.html" target="_top" xlink:title=": Testbench for TX Engine (TXe) of the TCP Offload Engine (TOE).">
<polygon fill="none" stroke="black" points="598,-0.5 598,-52.5 732,-52.5 732,-0.5 598,-0.5"/>
<text text-anchor="start" x="606" y="-40.5" font-family="Helvetica,sans-Serif" font-size="10.00">repos_for_Dox/cFDK</text>
<text text-anchor="start" x="606" y="-29.5" font-family="Helvetica,sans-Serif" font-size="10.00">/SRA/LIB/SHELL/LIB/hls</text>
<text text-anchor="start" x="606" y="-18.5" font-family="Helvetica,sans-Serif" font-size="10.00">/NTS/toe/src/tx_engine</text>
<text text-anchor="middle" x="665" y="-7.5" font-family="Helvetica,sans-Serif" font-size="10.00">/test/test_tx_engine.cpp</text>
</a>
</g>
</g>
<!-- Node7&#45;&gt;Node8 -->
<g id="edge7" class="edge">
<title>Node7&#45;&gt;Node8</title>
<path fill="none" stroke="midnightblue" d="M665,-79.19C665,-70.28 665,-60.9 665,-52.61"/>
<polygon fill="midnightblue" stroke="midnightblue" points="661.5,-79.34 665,-89.34 668.5,-79.34 661.5,-79.34"/>
</g>
</g>
</svg>
