<?xml version="1.0" encoding="UTF-8" standalone="no"?>
<!DOCTYPE svg PUBLIC "-//W3C//DTD SVG 1.1//EN"
 "http://www.w3.org/Graphics/SVG/1.1/DTD/svg11.dtd">
<!-- Generated by graphviz version 2.43.0 (0)
 -->
<!-- Title: Cam8::insert Pages: 1 -->
<svg width="468pt" height="66pt"
 viewBox="0.00 0.00 468.00 66.00" xmlns="http://www.w3.org/2000/svg" xmlns:xlink="http://www.w3.org/1999/xlink">
<g id="graph0" class="graph" transform="scale(1 1) rotate(0) translate(4 62)">
<title>Cam8::insert</title>
<!-- Node1 -->
<g id="node1" class="node">
<title>Node1</title>
<g id="a_node1"><a xlink:title="Insert a new key&#45;value pair in the CAM array.">
<polygon fill="#bfbfbf" stroke="black" points="381,-19.5 381,-38.5 460,-38.5 460,-19.5 381,-19.5"/>
<text text-anchor="middle" x="420.5" y="-26.5" font-family="Helvetica,sans-Serif" font-size="10.00">Cam8::insert</text>
</a>
</g>
</g>
<!-- Node2 -->
<g id="node2" class="node">
<title>Node2</title>
<g id="a_node2"><a xlink:href="structCam8.html#a1b1051138202931eb6f7f53e9a92e1cb" target="_top" xlink:title=" ">
<polygon fill="none" stroke="black" points="266,-38.5 266,-57.5 345,-57.5 345,-38.5 266,-38.5"/>
<text text-anchor="middle" x="305.5" y="-45.5" font-family="Helvetica,sans-Serif" font-size="10.00">Cam8::insert</text>
</a>
</g>
</g>
<!-- Node1&#45;&gt;Node2 -->
<g id="edge1" class="edge">
<title>Node1&#45;&gt;Node2</title>
<path fill="none" stroke="midnightblue" d="M371,-37.15C362.41,-38.6 353.56,-40.09 345.28,-41.48"/>
<polygon fill="midnightblue" stroke="midnightblue" points="371.65,-40.6 380.93,-35.49 370.49,-33.69 371.65,-40.6"/>
</g>
<!-- Node3 -->
<g id="node3" class="node">
<title>Node3</title>
<g id="a_node3"><a xlink:href="group__NAL.html#gab34c230b2547d737a12d494ad37d1ee3" target="_top" xlink:title="ReadRequestHandler (RRh). Waits for a notification indicating the availability of new data for the RO...">
<polygon fill="none" stroke="black" points="276.5,-0.5 276.5,-19.5 334.5,-19.5 334.5,-0.5 276.5,-0.5"/>
<text text-anchor="middle" x="305.5" y="-7.5" font-family="Helvetica,sans-Serif" font-size="10.00">pTcpRRh</text>
</a>
</g>
</g>
<!-- Node1&#45;&gt;Node3 -->
<g id="edge2" class="edge">
<title>Node1&#45;&gt;Node3</title>
<path fill="none" stroke="midnightblue" d="M370.72,-20.8C358.36,-18.72 345.5,-16.56 334.56,-14.72"/>
<polygon fill="midnightblue" stroke="midnightblue" points="370.49,-24.31 380.93,-22.51 371.65,-17.4 370.49,-24.31"/>
</g>
<!-- Node4 -->
<g id="node4" class="node">
<title>Node4</title>
<g id="a_node4"><a xlink:href="group__NAL.html#ga9087660a7942cb823c0fa5f350a10844" target="_top" xlink:title="Main process of the Network Abstraction Layer (NAL)">
<polygon fill="none" stroke="black" points="168,-0.5 168,-19.5 230,-19.5 230,-0.5 168,-0.5"/>
<text text-anchor="middle" x="199" y="-7.5" font-family="Helvetica,sans-Serif" font-size="10.00">nal_main</text>
</a>
</g>
</g>
<!-- Node3&#45;&gt;Node4 -->
<g id="edge3" class="edge">
<title>Node3&#45;&gt;Node4</title>
<path fill="none" stroke="midnightblue" d="M266.39,-10C254.5,-10 241.56,-10 230.28,-10"/>
<polygon fill="midnightblue" stroke="midnightblue" points="266.5,-13.5 276.5,-10 266.5,-6.5 266.5,-13.5"/>
</g>
<!-- Node5 -->
<g id="node5" class="node">
<title>Node5</title>
<g id="a_node5"><a xlink:href="group__NAL.html#gad0919afcfb3151dee3f8653944ea7185" target="_top" xlink:title="Run a single iteration of the DUT model.">
<polygon fill="none" stroke="black" points="77,-0.5 77,-19.5 132,-19.5 132,-0.5 77,-0.5"/>
<text text-anchor="middle" x="104.5" y="-7.5" font-family="Helvetica,sans-Serif" font-size="10.00">stepDut</text>
</a>
</g>
</g>
<!-- Node4&#45;&gt;Node5 -->
<g id="edge4" class="edge">
<title>Node4&#45;&gt;Node5</title>
<path fill="none" stroke="midnightblue" d="M157.69,-10C149.09,-10 140.21,-10 132.26,-10"/>
<polygon fill="midnightblue" stroke="midnightblue" points="157.97,-13.5 167.97,-10 157.97,-6.5 157.97,-13.5"/>
</g>
<!-- Node6 -->
<g id="node6" class="node">
<title>Node6</title>
<g id="a_node6"><a xlink:href="group__NAL.html#gae66f6b31b5ad750f1fe042a706a4e3d4" target="_top" xlink:title="Main Testbench Loop; Emulates also the behavior of the UDP Offload Engine (UOE).">
<polygon fill="none" stroke="black" points="0,-0.5 0,-19.5 41,-19.5 41,-0.5 0,-0.5"/>
<text text-anchor="middle" x="20.5" y="-7.5" font-family="Helvetica,sans-Serif" font-size="10.00">main</text>
</a>
</g>
</g>
<!-- Node5&#45;&gt;Node6 -->
<g id="edge5" class="edge">
<title>Node5&#45;&gt;Node6</title>
<path fill="none" stroke="midnightblue" d="M66.57,-10C57.8,-10 48.77,-10 41.13,-10"/>
<polygon fill="midnightblue" stroke="midnightblue" points="66.65,-13.5 76.65,-10 66.65,-6.5 66.65,-13.5"/>
</g>
</g>
</svg>
