<?xml version="1.0" encoding="UTF-8" standalone="no"?>
<!DOCTYPE svg PUBLIC "-//W3C//DTD SVG 1.1//EN"
 "http://www.w3.org/Graphics/SVG/1.1/DTD/svg11.dtd">
<!-- Generated by graphviz version 2.43.0 (0)
 -->
<!-- Title: repos_for_Dox/cFp_HelloKale/ROLE/hls/tcp_shell_if/src/tcp_shell_if_top.hpp Pages: 1 -->
<svg width="346pt" height="206pt"
 viewBox="0.00 0.00 346.00 206.00" xmlns="http://www.w3.org/2000/svg" xmlns:xlink="http://www.w3.org/1999/xlink">
<g id="graph0" class="graph" transform="scale(1 1) rotate(0) translate(4 202)">
<title>repos_for_Dox/cFp_HelloKale/ROLE/hls/tcp_shell_if/src/tcp_shell_if_top.hpp</title>
<!-- Node1 -->
<g id="node1" class="node">
<title>Node1</title>
<g id="a_node1"><a xlink:title=": Top of TCP Shell Interface (TSIF)">
<polygon fill="#bfbfbf" stroke="black" points="89,-156.5 89,-197.5 249,-197.5 249,-156.5 89,-156.5"/>
<text text-anchor="start" x="97" y="-185.5" font-family="Helvetica,sans-Serif" font-size="10.00">repos_for_Dox/cFp_HelloKale</text>
<text text-anchor="start" x="97" y="-174.5" font-family="Helvetica,sans-Serif" font-size="10.00">/ROLE/hls/tcp_shell_if/src</text>
<text text-anchor="middle" x="169" y="-163.5" font-family="Helvetica,sans-Serif" font-size="10.00">/tcp_shell_if_top.hpp</text>
</a>
</g>
</g>
<!-- Node2 -->
<g id="node2" class="node">
<title>Node2</title>
<g id="a_node2"><a xlink:href="tcp__shell__if__top_8cpp.html" target="_top" xlink:title=": Top level with I/O ports for TCP Shell Interface (TSIF)">
<polygon fill="none" stroke="black" points="0,-78.5 0,-119.5 160,-119.5 160,-78.5 0,-78.5"/>
<text text-anchor="start" x="8" y="-107.5" font-family="Helvetica,sans-Serif" font-size="10.00">repos_for_Dox/cFp_HelloKale</text>
<text text-anchor="start" x="8" y="-96.5" font-family="Helvetica,sans-Serif" font-size="10.00">/ROLE/hls/tcp_shell_if/src</text>
<text text-anchor="middle" x="80" y="-85.5" font-family="Helvetica,sans-Serif" font-size="10.00">/tcp_shell_if_top.cpp</text>
</a>
</g>
</g>
<!-- Node1&#45;&gt;Node2 -->
<g id="edge1" class="edge">
<title>Node1&#45;&gt;Node2</title>
<path fill="none" stroke="midnightblue" d="M138.29,-149.78C126.66,-139.84 113.63,-128.72 102.84,-119.51"/>
<polygon fill="midnightblue" stroke="midnightblue" points="136.2,-152.6 146.08,-156.43 140.75,-147.27 136.2,-152.6"/>
</g>
<!-- Node3 -->
<g id="node3" class="node">
<title>Node3</title>
<g id="a_node3"><a xlink:href="test__tcp__shell__if__top_8hpp.html" target="_top" xlink:title=": Testbench for the toplevel of TCP Shell Interface (TSIF).">
<polygon fill="none" stroke="black" points="178,-78.5 178,-119.5 338,-119.5 338,-78.5 178,-78.5"/>
<text text-anchor="start" x="186" y="-107.5" font-family="Helvetica,sans-Serif" font-size="10.00">repos_for_Dox/cFp_HelloKale</text>
<text text-anchor="start" x="186" y="-96.5" font-family="Helvetica,sans-Serif" font-size="10.00">/ROLE/hls/tcp_shell_if/test</text>
<text text-anchor="middle" x="258" y="-85.5" font-family="Helvetica,sans-Serif" font-size="10.00">/test_tcp_shell_if_top.hpp</text>
</a>
</g>
</g>
<!-- Node1&#45;&gt;Node3 -->
<g id="edge2" class="edge">
<title>Node1&#45;&gt;Node3</title>
<path fill="none" stroke="midnightblue" d="M199.71,-149.78C211.34,-139.84 224.37,-128.72 235.16,-119.51"/>
<polygon fill="midnightblue" stroke="midnightblue" points="197.25,-147.27 191.92,-156.43 201.8,-152.6 197.25,-147.27"/>
</g>
<!-- Node4 -->
<g id="node4" class="node">
<title>Node4</title>
<g id="a_node4"><a xlink:href="test__tcp__shell__if__top_8cpp.html" target="_top" xlink:title=": Testbench for the toplevel of the TCP Shell Interface (TSIF).">
<polygon fill="none" stroke="black" points="178,-0.5 178,-41.5 338,-41.5 338,-0.5 178,-0.5"/>
<text text-anchor="start" x="186" y="-29.5" font-family="Helvetica,sans-Serif" font-size="10.00">repos_for_Dox/cFp_HelloKale</text>
<text text-anchor="start" x="186" y="-18.5" font-family="Helvetica,sans-Serif" font-size="10.00">/ROLE/hls/tcp_shell_if/test</text>
<text text-anchor="middle" x="258" y="-7.5" font-family="Helvetica,sans-Serif" font-size="10.00">/test_tcp_shell_if_top.cpp</text>
</a>
</g>
</g>
<!-- Node3&#45;&gt;Node4 -->
<g id="edge3" class="edge">
<title>Node3&#45;&gt;Node4</title>
<path fill="none" stroke="midnightblue" d="M258,-68.3C258,-59.3 258,-49.65 258,-41.51"/>
<polygon fill="midnightblue" stroke="midnightblue" points="254.5,-68.43 258,-78.43 261.5,-68.43 254.5,-68.43"/>
</g>
</g>
</svg>
