<?xml version="1.0" encoding="UTF-8" standalone="no"?>
<!DOCTYPE svg PUBLIC "-//W3C//DTD SVG 1.1//EN"
 "http://www.w3.org/Graphics/SVG/1.1/DTD/svg11.dtd">
<!-- Generated by graphviz version 2.43.0 (0)
 -->
<!-- Title: repos_for_Dox/cFp_HelloKale/ROLE/hls/tcp_app_flash/src/tcp_app_flash_top.hpp Pages: 1 -->
<svg width="287pt" height="184pt"
 viewBox="0.00 0.00 287.00 184.00" xmlns="http://www.w3.org/2000/svg" xmlns:xlink="http://www.w3.org/1999/xlink">
<g id="graph0" class="graph" transform="scale(1 1) rotate(0) translate(4 180)">
<title>repos_for_Dox/cFp_HelloKale/ROLE/hls/tcp_app_flash/src/tcp_app_flash_top.hpp</title>
<!-- Node1 -->
<g id="node1" class="node">
<title>Node1</title>
<g id="a_node1"><a xlink:title=": Top of TCP Application Flash (TAF)">
<polygon fill="#bfbfbf" stroke="black" points="59.5,-134.5 59.5,-175.5 219.5,-175.5 219.5,-134.5 59.5,-134.5"/>
<text text-anchor="start" x="67.5" y="-163.5" font-family="Helvetica,sans-Serif" font-size="10.00">repos_for_Dox/cFp_HelloKale</text>
<text text-anchor="start" x="67.5" y="-152.5" font-family="Helvetica,sans-Serif" font-size="10.00">/ROLE/hls/tcp_app_flash</text>
<text text-anchor="middle" x="139.5" y="-141.5" font-family="Helvetica,sans-Serif" font-size="10.00">/src/tcp_app_flash_top.hpp</text>
</a>
</g>
</g>
<!-- Node2 -->
<g id="node2" class="node">
<title>Node2</title>
<g id="a_node2"><a xlink:href="tcp__app__flash_8hpp.html" target="_top" xlink:title=": TCP Application Flash (TAF)">
<polygon fill="none" stroke="black" points="84.5,-78.5 84.5,-97.5 194.5,-97.5 194.5,-78.5 84.5,-78.5"/>
<text text-anchor="middle" x="139.5" y="-85.5" font-family="Helvetica,sans-Serif" font-size="10.00">./tcp_app_flash.hpp</text>
</a>
</g>
</g>
<!-- Node1&#45;&gt;Node2 -->
<g id="edge1" class="edge">
<title>Node1&#45;&gt;Node2</title>
<path fill="none" stroke="midnightblue" d="M139.5,-134.5C139.5,-126.07 139.5,-116.24 139.5,-107.87"/>
<polygon fill="midnightblue" stroke="midnightblue" points="143,-107.65 139.5,-97.65 136,-107.65 143,-107.65"/>
</g>
<!-- Node3 -->
<g id="node3" class="node">
<title>Node3</title>
<g id="a_node3"><a xlink:title=" ">
<polygon fill="none" stroke="#bfbfbf" points="0,-0.5 0,-41.5 125,-41.5 125,-0.5 0,-0.5"/>
<text text-anchor="start" x="8" y="-29.5" font-family="Helvetica,sans-Serif" font-size="10.00">../../../../cFDK/SRA</text>
<text text-anchor="start" x="8" y="-18.5" font-family="Helvetica,sans-Serif" font-size="10.00">/LIB/SHELL/LIB/hls/NTS</text>
<text text-anchor="middle" x="62.5" y="-7.5" font-family="Helvetica,sans-Serif" font-size="10.00">/nts.hpp</text>
</a>
</g>
</g>
<!-- Node1&#45;&gt;Node3 -->
<g id="edge4" class="edge">
<title>Node1&#45;&gt;Node3</title>
<path fill="none" stroke="midnightblue" d="M109.2,-134.47C96.84,-124.95 83.58,-112.43 75.5,-98 67.66,-84 64.31,-66.44 62.96,-51.73"/>
<polygon fill="midnightblue" stroke="midnightblue" points="66.45,-51.36 62.31,-41.61 59.46,-51.82 66.45,-51.36"/>
</g>
<!-- Node4 -->
<g id="node4" class="node">
<title>Node4</title>
<g id="a_node4"><a xlink:title=" ">
<polygon fill="none" stroke="#bfbfbf" points="154,-0.5 154,-41.5 279,-41.5 279,-0.5 154,-0.5"/>
<text text-anchor="start" x="162" y="-29.5" font-family="Helvetica,sans-Serif" font-size="10.00">../../../../cFDK/SRA</text>
<text text-anchor="start" x="162" y="-18.5" font-family="Helvetica,sans-Serif" font-size="10.00">/LIB/SHELL/LIB/hls/NTS</text>
<text text-anchor="middle" x="216.5" y="-7.5" font-family="Helvetica,sans-Serif" font-size="10.00">/nts_utils.hpp</text>
</a>
</g>
</g>
<!-- Node1&#45;&gt;Node4 -->
<g id="edge5" class="edge">
<title>Node1&#45;&gt;Node4</title>
<path fill="none" stroke="midnightblue" d="M169.8,-134.47C182.16,-124.95 195.42,-112.43 203.5,-98 211.34,-84 214.69,-66.44 216.04,-51.73"/>
<polygon fill="midnightblue" stroke="midnightblue" points="219.54,-51.82 216.69,-41.61 212.55,-51.36 219.54,-51.82"/>
</g>
<!-- Node2&#45;&gt;Node3 -->
<g id="edge2" class="edge">
<title>Node2&#45;&gt;Node3</title>
<path fill="none" stroke="midnightblue" d="M129.12,-78.23C119.94,-70.49 106.07,-58.78 93.36,-48.05"/>
<polygon fill="midnightblue" stroke="midnightblue" points="95.55,-45.32 85.65,-41.54 91.03,-50.67 95.55,-45.32"/>
</g>
<!-- Node2&#45;&gt;Node4 -->
<g id="edge3" class="edge">
<title>Node2&#45;&gt;Node4</title>
<path fill="none" stroke="midnightblue" d="M149.88,-78.23C159.06,-70.49 172.93,-58.78 185.64,-48.05"/>
<polygon fill="midnightblue" stroke="midnightblue" points="187.97,-50.67 193.35,-41.54 183.45,-45.32 187.97,-50.67"/>
</g>
</g>
</svg>
