<?xml version="1.0" encoding="UTF-8" standalone="no"?>
<!DOCTYPE svg PUBLIC "-//W3C//DTD SVG 1.1//EN"
 "http://www.w3.org/Graphics/SVG/1.1/DTD/svg11.dtd">
<!-- Generated by graphviz version 2.43.0 (0)
 -->
<!-- Title: repos_for_Dox/cFDK/SRA/LIB/SHELL/LIB/hls/NTS/toe/src/timers/timers.hpp Pages: 1 -->
<!--zoomable 666 -->
<svg id="main" version="1.1" xmlns="http://www.w3.org/2000/svg" xmlns:xlink="http://www.w3.org/1999/xlink" xml:space="preserve" onload="init(evt)">
<style type="text/css"><![CDATA[
.edge:hover path { stroke: red; }
.edge:hover polygon { stroke: red; fill: red; }
]]></style>
<script type="text/javascript"><![CDATA[
var edges = document.getElementsByTagName('g');
if (edges && edges.length) {
  for (var i=0;i<edges.length;i++) {
    if (edges[i].id.substr(0,4)=='edge') {
      edges[i].setAttribute('class','edge');
    }
  }
}
]]></script>
        <defs>
                <circle id="rim" cx="0" cy="0" r="7"/>
                <circle id="rim2" cx="0" cy="0" r="3.5"/>
                <g id="zoomPlus">
                        <use xlink:href="#rim" fill="#404040">
                                <set attributeName="fill" to="#808080" begin="zoomplus.mouseover" end="zoomplus.mouseout"/>
                        </use>
                        <path d="M-4,0h8M0,-4v8" fill="none" stroke="white" stroke-width="1.5" pointer-events="none"/>
                </g>
                <g id="zoomMin">
                        <use xlink:href="#rim" fill="#404040">
                                <set attributeName="fill" to="#808080" begin="zoomminus.mouseover" end="zoomminus.mouseout"/>
                        </use>
                        <path d="M-4,0h8" fill="none" stroke="white" stroke-width="1.5" pointer-events="none"/>
                </g>
                <g id="dirArrow">
                        <path fill="none" stroke="white" stroke-width="1.5" d="M0,-3.0v7 M-2.5,-0.5L0,-3.0L2.5,-0.5"/>
                </g>
               <g id="resetDef">
                       <use xlink:href="#rim2" fill="#404040">
                               <set attributeName="fill" to="#808080" begin="reset.mouseover" end="reset.mouseout"/>
                       </use>
               </g>
        </defs>

<script type="text/javascript">
var viewWidth = 856;
var viewHeight = 666;
var sectionId = 'dynsection-0';
</script>
<script xlink:href="svgpan.js"/>
<svg id="graph" class="graph">
<g id="viewport">
<title>repos_for_Dox/cFDK/SRA/LIB/SHELL/LIB/hls/NTS/toe/src/timers/timers.hpp</title>
<!-- Node1 -->
<g id="node1" class="node">
<title>Node1</title>
<g id="a_node1"><a xlink:title=": Timers (TIm) for the TCP Offload Engine (TOE)">
<polygon fill="#bfbfbf" stroke="black" points="308.5,-616.5 308.5,-657.5 473.5,-657.5 473.5,-616.5 308.5,-616.5"/>
<text text-anchor="start" x="316.5" y="-645.5" font-family="Helvetica,sans-Serif" font-size="10.00">repos_for_Dox/cFDK</text>
<text text-anchor="start" x="316.5" y="-634.5" font-family="Helvetica,sans-Serif" font-size="10.00">/SRA/LIB/SHELL/LIB/hls</text>
<text text-anchor="middle" x="391" y="-623.5" font-family="Helvetica,sans-Serif" font-size="10.00">/NTS/toe/src/timers/timers.hpp</text>
</a>
</g>
</g>
<!-- Node2 -->
<g id="node2" class="node">
<title>Node2</title>
<g id="a_node2"><a xlink:href="toe_8hpp.html" target="_top" xlink:title=": TCP Offload Engine (TOE)">
<polygon fill="none" stroke="black" points="323,-504.5 323,-523.5 385,-523.5 385,-504.5 323,-504.5"/>
<text text-anchor="middle" x="354" y="-511.5" font-family="Helvetica,sans-Serif" font-size="10.00">../toe.hpp</text>
</a>
</g>
</g>
<!-- Node1&#45;&gt;Node2 -->
<g id="edge1" class="edge">
<title>Node1&#45;&gt;Node2</title>
<path fill="none" stroke="midnightblue" d="M364.62,-616.35C353.9,-606.72 342.71,-594.15 337,-580 330.74,-564.49 336.83,-545.95 343.4,-532.65"/>
<polygon fill="midnightblue" stroke="midnightblue" points="346.6,-534.09 348.32,-523.64 340.45,-530.74 346.6,-534.09"/>
</g>
<!-- Node19 -->
<g id="node19" class="node">
<title>Node19</title>
<g id="a_node19"><a xlink:href="nts__utils_8hpp.html" target="_top" xlink:title=": Utilities and helpers for the Network&#45;Transport&#45;Stack (NTS) components.">
<polygon fill="none" stroke="black" points="400,-392.5 400,-411.5 528,-411.5 528,-392.5 400,-392.5"/>
<text text-anchor="middle" x="464" y="-399.5" font-family="Helvetica,sans-Serif" font-size="10.00">../../../NTS/nts_utils.hpp</text>
</a>
</g>
</g>
<!-- Node1&#45;&gt;Node19 -->
<g id="edge44" class="edge">
<title>Node1&#45;&gt;Node19</title>
<path fill="none" stroke="midnightblue" d="M415.62,-616.45C426.16,-606.68 437.51,-593.96 444,-580 468.72,-526.82 467.79,-455.3 465.65,-421.79"/>
<polygon fill="midnightblue" stroke="midnightblue" points="469.12,-421.33 464.88,-411.62 462.14,-421.86 469.12,-421.33"/>
</g>
<!-- Node25 -->
<g id="node25" class="node">
<title>Node25</title>
<g id="a_node25"><a xlink:href="toe__utils_8hpp.html" target="_top" xlink:title=": Utilities and helpers for the TCP Offload Engine (TOE)">
<polygon fill="none" stroke="black" points="346.5,-560.5 346.5,-579.5 435.5,-579.5 435.5,-560.5 346.5,-560.5"/>
<text text-anchor="middle" x="391" y="-567.5" font-family="Helvetica,sans-Serif" font-size="10.00">../toe_utils.hpp</text>
</a>
</g>
</g>
<!-- Node1&#45;&gt;Node25 -->
<g id="edge42" class="edge">
<title>Node1&#45;&gt;Node25</title>
<path fill="none" stroke="midnightblue" d="M391,-616.5C391,-608.07 391,-598.24 391,-589.87"/>
<polygon fill="midnightblue" stroke="midnightblue" points="394.5,-589.65 391,-579.65 387.5,-589.65 394.5,-589.65"/>
</g>
<!-- Node3 -->
<g id="node3" class="node">
<title>Node3</title>
<g id="a_node3"><a xlink:title=" ">
<polygon fill="none" stroke="#bfbfbf" points="471.5,-224.5 471.5,-243.5 524.5,-243.5 524.5,-224.5 471.5,-224.5"/>
<text text-anchor="middle" x="498" y="-231.5" font-family="Helvetica,sans-Serif" font-size="10.00">stdint.h</text>
</a>
</g>
</g>
<!-- Node2&#45;&gt;Node3 -->
<g id="edge2" class="edge">
<title>Node2&#45;&gt;Node3</title>
<path fill="none" stroke="midnightblue" d="M385.38,-512.59C450.43,-509.92 594,-493.75 594,-403 594,-403 594,-403 594,-345 594,-301.54 550.94,-266.96 522.5,-248.85"/>
<polygon fill="midnightblue" stroke="midnightblue" points="524.21,-245.79 513.85,-243.56 520.56,-251.77 524.21,-245.79"/>
</g>
<!-- Node4 -->
<g id="node4" class="node">
<title>Node4</title>
<g id="a_node4"><a xlink:title=" ">
<polygon fill="none" stroke="#bfbfbf" points="86,-0.5 86,-19.5 142,-19.5 142,-0.5 86,-0.5"/>
<text text-anchor="middle" x="114" y="-7.5" font-family="Helvetica,sans-Serif" font-size="10.00">ap_int.h</text>
</a>
</g>
</g>
<!-- Node2&#45;&gt;Node4 -->
<g id="edge3" class="edge">
<title>Node2&#45;&gt;Node4</title>
<path fill="none" stroke="midnightblue" d="M322.9,-510.07C236.51,-501.09 0,-470.33 0,-403 0,-403 0,-403 0,-121 0,-74.11 50.55,-40.89 84.33,-23.93"/>
<polygon fill="midnightblue" stroke="midnightblue" points="85.87,-27.07 93.36,-19.58 82.83,-20.77 85.87,-27.07"/>
</g>
<!-- Node5 -->
<g id="node5" class="node">
<title>Node5</title>
<g id="a_node5"><a xlink:href="nts_8hpp.html" target="_top" xlink:title=": Definition of the Network Transport Stack (NTS) component as if it was an HLS IP core.">
<polygon fill="none" stroke="black" points="420,-336.5 420,-355.5 522,-355.5 522,-336.5 420,-336.5"/>
<text text-anchor="middle" x="471" y="-343.5" font-family="Helvetica,sans-Serif" font-size="10.00">../../../NTS/nts.hpp</text>
</a>
</g>
</g>
<!-- Node2&#45;&gt;Node5 -->
<g id="edge4" class="edge">
<title>Node2&#45;&gt;Node5</title>
<path fill="none" stroke="midnightblue" d="M385.11,-506.17C428.09,-494.88 504.07,-467.78 537,-412 549.43,-390.94 523.81,-371.97 500.96,-360.03"/>
<polygon fill="midnightblue" stroke="midnightblue" points="502.29,-356.79 491.77,-355.51 499.2,-363.07 502.29,-356.79"/>
</g>
<!-- Node2&#45;&gt;Node19 -->
<g id="edge28" class="edge">
<title>Node2&#45;&gt;Node19</title>
<path fill="none" stroke="midnightblue" d="M362.63,-504.37C381.11,-485.89 424.71,-442.29 448.26,-418.74"/>
<polygon fill="midnightblue" stroke="midnightblue" points="450.81,-421.14 455.41,-411.59 445.86,-416.19 450.81,-421.14"/>
</g>
<!-- Node20 -->
<g id="node20" class="node">
<title>Node20</title>
<g id="a_node20"><a xlink:href="mem_8hpp.html" target="_top" xlink:title=": Memory Sub&#45;System (MEM) for the cloudFPGA shell.">
<polygon fill="none" stroke="black" points="158.5,-336.5 158.5,-355.5 257.5,-355.5 257.5,-336.5 158.5,-336.5"/>
<text text-anchor="middle" x="208" y="-343.5" font-family="Helvetica,sans-Serif" font-size="10.00">../MEM/mem.hpp</text>
</a>
</g>
</g>
<!-- Node2&#45;&gt;Node20 -->
<g id="edge41" class="edge">
<title>Node2&#45;&gt;Node20</title>
<path fill="none" stroke="midnightblue" d="M322.64,-512.31C264.4,-509.08 141.27,-492.56 95,-412 79.24,-384.55 114.42,-367.7 149.59,-358.05"/>
<polygon fill="midnightblue" stroke="midnightblue" points="150.65,-361.39 159.47,-355.52 148.91,-354.61 150.65,-361.39"/>
</g>
<!-- Node21 -->
<g id="node21" class="node">
<title>Node21</title>
<g id="a_node21"><a xlink:href="SimNtsUtils_8hpp.html" target="_top" xlink:title=": Utilities for the simulation of the Network&#45;Transport&#45;Stack (NTS) components.">
<polygon fill="none" stroke="black" points="200.5,-448.5 200.5,-467.5 345.5,-467.5 345.5,-448.5 200.5,-448.5"/>
<text text-anchor="middle" x="273" y="-455.5" font-family="Helvetica,sans-Serif" font-size="10.00">../../../NTS/SimNtsUtils.hpp</text>
</a>
</g>
</g>
<!-- Node2&#45;&gt;Node21 -->
<g id="edge32" class="edge">
<title>Node2&#45;&gt;Node21</title>
<path fill="none" stroke="midnightblue" d="M340.99,-504.32C328.47,-495.98 309.32,-483.21 294.53,-473.35"/>
<polygon fill="midnightblue" stroke="midnightblue" points="296.24,-470.29 285.98,-467.65 292.36,-476.11 296.24,-470.29"/>
</g>
<!-- Node6 -->
<g id="node6" class="node">
<title>Node6</title>
<g id="a_node6"><a xlink:href="nts__types_8hpp.html" target="_top" xlink:title=": Definition of the types used by the Network Transport Stack (NTS) component of the cloudFPGA shell.">
<polygon fill="none" stroke="black" points="622.5,-280.5 622.5,-299.5 707.5,-299.5 707.5,-280.5 622.5,-280.5"/>
<text text-anchor="middle" x="665" y="-287.5" font-family="Helvetica,sans-Serif" font-size="10.00">nts_types.hpp</text>
</a>
</g>
</g>
<!-- Node5&#45;&gt;Node6 -->
<g id="edge5" class="edge">
<title>Node5&#45;&gt;Node6</title>
<path fill="none" stroke="midnightblue" d="M501.74,-336.44C534.94,-327.2 587.99,-312.44 624.56,-302.26"/>
<polygon fill="midnightblue" stroke="midnightblue" points="625.71,-305.57 634.4,-299.52 623.83,-298.83 625.71,-305.57"/>
</g>
<!-- Node17 -->
<g id="node17" class="node">
<title>Node17</title>
<g id="a_node17"><a xlink:href="nts__config_8hpp.html" target="_top" xlink:title=": Configuration parameters for the Network Transport Stack (NTS) component and sub&#45;components.">
<polygon fill="none" stroke="black" points="427.5,-280.5 427.5,-299.5 514.5,-299.5 514.5,-280.5 427.5,-280.5"/>
<text text-anchor="middle" x="471" y="-287.5" font-family="Helvetica,sans-Serif" font-size="10.00">nts_config.hpp</text>
</a>
</g>
</g>
<!-- Node5&#45;&gt;Node17 -->
<g id="edge25" class="edge">
<title>Node5&#45;&gt;Node17</title>
<path fill="none" stroke="midnightblue" d="M471,-336.08C471,-329.01 471,-318.86 471,-309.99"/>
<polygon fill="midnightblue" stroke="midnightblue" points="474.5,-309.75 471,-299.75 467.5,-309.75 474.5,-309.75"/>
</g>
<!-- Node7 -->
<g id="node7" class="node">
<title>Node7</title>
<g id="a_node7"><a xlink:title=" ">
<polygon fill="none" stroke="#bfbfbf" points="686,-0.5 686,-19.5 766,-19.5 766,-0.5 686,-0.5"/>
<text text-anchor="middle" x="726" y="-7.5" font-family="Helvetica,sans-Serif" font-size="10.00">hls_stream.h</text>
</a>
</g>
</g>
<!-- Node6&#45;&gt;Node7 -->
<g id="edge6" class="edge">
<title>Node6&#45;&gt;Node7</title>
<path fill="none" stroke="midnightblue" d="M707.91,-282.51C761.99,-271.61 848,-244.06 848,-179 848,-179 848,-179 848,-121 848,-72.57 794.31,-39.99 758.17,-23.54"/>
<polygon fill="midnightblue" stroke="midnightblue" points="759.51,-20.31 748.95,-19.52 756.71,-26.72 759.51,-20.31"/>
</g>
<!-- Node8 -->
<g id="node8" class="node">
<title>Node8</title>
<g id="a_node8"><a xlink:href="AxisEth_8hpp.html" target="_top" xlink:title=": A class to access an ETHernet data chunk transmitted over an AXI4&#45;Stream interface.">
<polygon fill="none" stroke="black" points="543,-224.5 543,-243.5 617,-243.5 617,-224.5 543,-224.5"/>
<text text-anchor="middle" x="580" y="-231.5" font-family="Helvetica,sans-Serif" font-size="10.00">AxisEth.hpp</text>
</a>
</g>
</g>
<!-- Node6&#45;&gt;Node8 -->
<g id="edge7" class="edge">
<title>Node6&#45;&gt;Node8</title>
<path fill="none" stroke="midnightblue" d="M651.34,-280.32C638.08,-271.9 617.73,-258.97 602.15,-249.07"/>
<polygon fill="midnightblue" stroke="midnightblue" points="603.94,-246.06 593.62,-243.65 600.19,-251.97 603.94,-246.06"/>
</g>
<!-- Node13 -->
<g id="node13" class="node">
<title>Node13</title>
<g id="a_node13"><a xlink:href="AxisIp4_8hpp.html" target="_top" xlink:title=": A class to access an IPv4 data chunk transmitted over an AXI4&#45;Stream interface.">
<polygon fill="none" stroke="black" points="602,-168.5 602,-187.5 676,-187.5 676,-168.5 602,-168.5"/>
<text text-anchor="middle" x="639" y="-175.5" font-family="Helvetica,sans-Serif" font-size="10.00">AxisIp4.hpp</text>
</a>
</g>
</g>
<!-- Node6&#45;&gt;Node13 -->
<g id="edge24" class="edge">
<title>Node6&#45;&gt;Node13</title>
<path fill="none" stroke="midnightblue" d="M662.96,-280.37C658.76,-262.62 649.08,-221.67 643.4,-197.6"/>
<polygon fill="midnightblue" stroke="midnightblue" points="646.74,-196.52 641.03,-187.59 639.92,-198.13 646.74,-196.52"/>
</g>
<!-- Node9 -->
<g id="node9" class="node">
<title>Node9</title>
<g id="a_node9"><a xlink:href="AxisRaw_8hpp.html" target="_top" xlink:title=": A generic class used by the Network&#45;Transport&#45;Stack (NTS) to to transfer a chunk of data over an AX...">
<polygon fill="none" stroke="black" points="480.5,-56.5 480.5,-75.5 559.5,-75.5 559.5,-56.5 480.5,-56.5"/>
<text text-anchor="middle" x="520" y="-63.5" font-family="Helvetica,sans-Serif" font-size="10.00">AxisRaw.hpp</text>
</a>
</g>
</g>
<!-- Node8&#45;&gt;Node9 -->
<g id="edge8" class="edge">
<title>Node8&#45;&gt;Node9</title>
<path fill="none" stroke="midnightblue" d="M573.63,-224.37C561.64,-207.59 535.93,-168.95 525,-132 520.53,-116.89 519.44,-98.99 519.38,-85.81"/>
<polygon fill="midnightblue" stroke="midnightblue" points="522.88,-85.67 519.53,-75.62 515.88,-85.57 522.88,-85.67"/>
</g>
<!-- Node12 -->
<g id="node12" class="node">
<title>Node12</title>
<g id="a_node12"><a xlink:href="AxisArp_8hpp.html" target="_top" xlink:title=": A class to access an ARP data chunk transmitted over an AXI4&#45;Stream interface.">
<polygon fill="none" stroke="black" points="385.5,-168.5 385.5,-187.5 460.5,-187.5 460.5,-168.5 385.5,-168.5"/>
<text text-anchor="middle" x="423" y="-175.5" font-family="Helvetica,sans-Serif" font-size="10.00">AxisArp.hpp</text>
</a>
</g>
</g>
<!-- Node8&#45;&gt;Node12 -->
<g id="edge13" class="edge">
<title>Node8&#45;&gt;Node12</title>
<path fill="none" stroke="midnightblue" d="M550.03,-224.44C521.88,-215.44 480.24,-201.19 452.3,-191.05"/>
<polygon fill="midnightblue" stroke="midnightblue" points="453.27,-187.68 442.68,-187.52 450.86,-194.25 453.27,-187.68"/>
</g>
<!-- Node8&#45;&gt;Node13 -->
<g id="edge16" class="edge">
<title>Node8&#45;&gt;Node13</title>
<path fill="none" stroke="midnightblue" d="M589.48,-224.32C598.2,-216.34 611.34,-204.31 621.9,-194.65"/>
<polygon fill="midnightblue" stroke="midnightblue" points="624.33,-197.17 629.35,-187.83 619.61,-192 624.33,-197.17"/>
</g>
<!-- Node9&#45;&gt;Node4 -->
<g id="edge12" class="edge">
<title>Node9&#45;&gt;Node4</title>
<path fill="none" stroke="midnightblue" d="M480.33,-59.72C402.2,-49.33 229.3,-26.34 152.29,-16.09"/>
<polygon fill="midnightblue" stroke="midnightblue" points="152.46,-12.58 142.08,-14.74 151.53,-19.52 152.46,-12.58"/>
</g>
<!-- Node9&#45;&gt;Node7 -->
<g id="edge11" class="edge">
<title>Node9&#45;&gt;Node7</title>
<path fill="none" stroke="midnightblue" d="M552.64,-56.44C588.05,-47.16 644.71,-32.31 683.55,-22.13"/>
<polygon fill="midnightblue" stroke="midnightblue" points="684.73,-25.44 693.51,-19.52 682.95,-18.67 684.73,-25.44"/>
</g>
<!-- Node10 -->
<g id="node10" class="node">
<title>Node10</title>
<g id="a_node10"><a xlink:title=" ">
<polygon fill="none" stroke="#bfbfbf" points="494,-0.5 494,-19.5 546,-19.5 546,-0.5 494,-0.5"/>
<text text-anchor="middle" x="520" y="-7.5" font-family="Helvetica,sans-Serif" font-size="10.00">cassert</text>
</a>
</g>
</g>
<!-- Node9&#45;&gt;Node10 -->
<g id="edge9" class="edge">
<title>Node9&#45;&gt;Node10</title>
<path fill="none" stroke="midnightblue" d="M520,-56.08C520,-49.01 520,-38.86 520,-29.99"/>
<polygon fill="midnightblue" stroke="midnightblue" points="523.5,-29.75 520,-19.75 516.5,-29.75 523.5,-29.75"/>
</g>
<!-- Node11 -->
<g id="node11" class="node">
<title>Node11</title>
<g id="a_node11"><a xlink:title=" ">
<polygon fill="none" stroke="#bfbfbf" points="359,-0.5 359,-19.5 419,-19.5 419,-0.5 359,-0.5"/>
<text text-anchor="middle" x="389" y="-7.5" font-family="Helvetica,sans-Serif" font-size="10.00">iostream</text>
</a>
</g>
</g>
<!-- Node9&#45;&gt;Node11 -->
<g id="edge10" class="edge">
<title>Node9&#45;&gt;Node11</title>
<path fill="none" stroke="midnightblue" d="M499.24,-56.44C477.68,-47.56 443.74,-33.56 419.21,-23.45"/>
<polygon fill="midnightblue" stroke="midnightblue" points="420.24,-20.09 409.66,-19.52 417.57,-26.56 420.24,-20.09"/>
</g>
<!-- Node12&#45;&gt;Node8 -->
<g id="edge15" class="edge">
<title>Node12&#45;&gt;Node8</title>
<path fill="none" stroke="midnightblue" d="M452.84,-187.52C480.96,-196.51 522.6,-210.75 550.57,-220.91"/>
<polygon fill="midnightblue" stroke="midnightblue" points="549.62,-224.28 560.21,-224.44 552.03,-217.71 549.62,-224.28"/>
</g>
<!-- Node12&#45;&gt;Node9 -->
<g id="edge14" class="edge">
<title>Node12&#45;&gt;Node9</title>
<path fill="none" stroke="midnightblue" d="M428.18,-168.08C435.95,-155.05 451.5,-130.39 468,-112 477.84,-101.03 490.28,-90.18 500.53,-81.88"/>
<polygon fill="midnightblue" stroke="midnightblue" points="502.84,-84.51 508.51,-75.56 498.5,-79.02 502.84,-84.51"/>
</g>
<!-- Node13&#45;&gt;Node9 -->
<g id="edge17" class="edge">
<title>Node13&#45;&gt;Node9</title>
<path fill="none" stroke="midnightblue" d="M601.98,-168.6C580.78,-161.98 555.25,-150.67 539,-132 527.79,-119.12 523.19,-99.95 521.3,-85.76"/>
<polygon fill="midnightblue" stroke="midnightblue" points="524.77,-85.26 520.29,-75.66 517.8,-85.96 524.77,-85.26"/>
</g>
<!-- Node14 -->
<g id="node14" class="node">
<title>Node14</title>
<g id="a_node14"><a xlink:href="AxisIcmp_8hpp.html" target="_top" xlink:title=": A class to access ICMP header fields within data chunks transmitted over an AXI4&#45;Stream interface.">
<polygon fill="none" stroke="black" points="548.5,-112.5 548.5,-131.5 631.5,-131.5 631.5,-112.5 548.5,-112.5"/>
<text text-anchor="middle" x="590" y="-119.5" font-family="Helvetica,sans-Serif" font-size="10.00">AxisIcmp.hpp</text>
</a>
</g>
</g>
<!-- Node13&#45;&gt;Node14 -->
<g id="edge18" class="edge">
<title>Node13&#45;&gt;Node14</title>
<path fill="none" stroke="midnightblue" d="M630.91,-168.08C623.84,-160.3 613.41,-148.8 604.85,-139.37"/>
<polygon fill="midnightblue" stroke="midnightblue" points="607.25,-136.8 597.94,-131.75 602.07,-141.51 607.25,-136.8"/>
</g>
<!-- Node15 -->
<g id="node15" class="node">
<title>Node15</title>
<g id="a_node15"><a xlink:href="AxisTcp_8hpp.html" target="_top" xlink:title=": A class to access TCP header fields within data chunks transmitted over an AXI4&#45;Stream interface.">
<polygon fill="none" stroke="black" points="650,-112.5 650,-131.5 724,-131.5 724,-112.5 650,-112.5"/>
<text text-anchor="middle" x="687" y="-119.5" font-family="Helvetica,sans-Serif" font-size="10.00">AxisTcp.hpp</text>
</a>
</g>
</g>
<!-- Node13&#45;&gt;Node15 -->
<g id="edge20" class="edge">
<title>Node13&#45;&gt;Node15</title>
<path fill="none" stroke="midnightblue" d="M646.93,-168.08C653.85,-160.3 664.07,-148.8 672.45,-139.37"/>
<polygon fill="midnightblue" stroke="midnightblue" points="675.19,-141.55 679.22,-131.75 669.96,-136.9 675.19,-141.55"/>
</g>
<!-- Node16 -->
<g id="node16" class="node">
<title>Node16</title>
<g id="a_node16"><a xlink:href="AxisUdp_8hpp.html" target="_top" xlink:title=": A class to access UDP header fields within data chunks transmitted over an AXI4&#45;Stream interface.">
<polygon fill="none" stroke="black" points="742,-112.5 742,-131.5 820,-131.5 820,-112.5 742,-112.5"/>
<text text-anchor="middle" x="781" y="-119.5" font-family="Helvetica,sans-Serif" font-size="10.00">AxisUdp.hpp</text>
</a>
</g>
</g>
<!-- Node13&#45;&gt;Node16 -->
<g id="edge22" class="edge">
<title>Node13&#45;&gt;Node16</title>
<path fill="none" stroke="midnightblue" d="M661.5,-168.44C685.08,-159.48 722.32,-145.31 748.96,-135.18"/>
<polygon fill="midnightblue" stroke="midnightblue" points="750.5,-138.34 758.6,-131.52 748.01,-131.8 750.5,-138.34"/>
</g>
<!-- Node14&#45;&gt;Node9 -->
<g id="edge19" class="edge">
<title>Node14&#45;&gt;Node9</title>
<path fill="none" stroke="midnightblue" d="M578.75,-112.32C568.2,-104.18 552.2,-91.84 539.56,-82.09"/>
<polygon fill="midnightblue" stroke="midnightblue" points="541.51,-79.17 531.45,-75.83 537.23,-84.71 541.51,-79.17"/>
</g>
<!-- Node15&#45;&gt;Node9 -->
<g id="edge21" class="edge">
<title>Node15&#45;&gt;Node9</title>
<path fill="none" stroke="midnightblue" d="M660.54,-112.44C632.32,-103.32 587.46,-88.81 556.03,-78.65"/>
<polygon fill="midnightblue" stroke="midnightblue" points="556.93,-75.26 546.34,-75.52 554.78,-81.92 556.93,-75.26"/>
</g>
<!-- Node16&#45;&gt;Node9 -->
<g id="edge23" class="edge">
<title>Node16&#45;&gt;Node9</title>
<path fill="none" stroke="midnightblue" d="M741.93,-112.92C696.03,-103.42 619.8,-87.65 569.73,-77.29"/>
<polygon fill="midnightblue" stroke="midnightblue" points="570.27,-73.83 559.77,-75.23 568.85,-80.68 570.27,-73.83"/>
</g>
<!-- Node17&#45;&gt;Node3 -->
<g id="edge26" class="edge">
<title>Node17&#45;&gt;Node3</title>
<path fill="none" stroke="midnightblue" d="M475.46,-280.08C479.15,-272.69 484.52,-261.95 489.09,-252.81"/>
<polygon fill="midnightblue" stroke="midnightblue" points="492.28,-254.26 493.62,-243.75 486.02,-251.13 492.28,-254.26"/>
</g>
<!-- Node18 -->
<g id="node18" class="node">
<title>Node18</title>
<g id="a_node18"><a xlink:title=" ">
<polygon fill="none" stroke="#bfbfbf" points="402.5,-224.5 402.5,-243.5 453.5,-243.5 453.5,-224.5 402.5,-224.5"/>
<text text-anchor="middle" x="428" y="-231.5" font-family="Helvetica,sans-Serif" font-size="10.00">math.h</text>
</a>
</g>
</g>
<!-- Node17&#45;&gt;Node18 -->
<g id="edge27" class="edge">
<title>Node17&#45;&gt;Node18</title>
<path fill="none" stroke="midnightblue" d="M463.9,-280.08C457.76,-272.38 448.73,-261.03 441.26,-251.65"/>
<polygon fill="midnightblue" stroke="midnightblue" points="443.94,-249.39 434.97,-243.75 438.46,-253.75 443.94,-249.39"/>
</g>
<!-- Node19&#45;&gt;Node5 -->
<g id="edge31" class="edge">
<title>Node19&#45;&gt;Node5</title>
<path fill="none" stroke="midnightblue" d="M465.16,-392.08C466.08,-384.93 467.42,-374.64 468.58,-365.69"/>
<polygon fill="midnightblue" stroke="midnightblue" points="472.05,-366.12 469.87,-355.75 465.11,-365.22 472.05,-366.12"/>
</g>
<!-- Node19&#45;&gt;Node20 -->
<g id="edge29" class="edge">
<title>Node19&#45;&gt;Node20</title>
<path fill="none" stroke="midnightblue" d="M423.44,-392.44C378.68,-383 306.62,-367.8 258.3,-357.61"/>
<polygon fill="midnightblue" stroke="midnightblue" points="258.88,-354.16 248.37,-355.52 257.44,-361.01 258.88,-354.16"/>
</g>
<!-- Node20&#45;&gt;Node4 -->
<g id="edge30" class="edge">
<title>Node20&#45;&gt;Node4</title>
<path fill="none" stroke="midnightblue" d="M192.48,-336.35C165.78,-320.2 114,-282.73 114,-235 114,-235 114,-235 114,-121 114,-88.95 114,-51.64 114,-29.75"/>
<polygon fill="midnightblue" stroke="midnightblue" points="117.5,-29.56 114,-19.56 110.5,-29.56 117.5,-29.56"/>
</g>
<!-- Node21&#45;&gt;Node5 -->
<g id="edge38" class="edge">
<title>Node21&#45;&gt;Node5</title>
<path fill="none" stroke="midnightblue" d="M288.54,-448.37C322.88,-429.29 405.44,-383.42 446.69,-360.51"/>
<polygon fill="midnightblue" stroke="midnightblue" points="448.49,-363.51 455.54,-355.59 445.09,-357.39 448.49,-363.51"/>
</g>
<!-- Node21&#45;&gt;Node11 -->
<g id="edge35" class="edge">
<title>Node21&#45;&gt;Node11</title>
<path fill="none" stroke="midnightblue" d="M200.32,-455.04C164.39,-450.38 122.88,-438.88 95,-412 73.33,-391.11 76,-377.1 76,-347 76,-347 76,-347 76,-233 76,-100.48 264.97,-39.87 349.25,-19.43"/>
<polygon fill="midnightblue" stroke="midnightblue" points="350.06,-22.83 358.99,-17.13 348.45,-16.02 350.06,-22.83"/>
</g>
<!-- Node21&#45;&gt;Node19 -->
<g id="edge39" class="edge">
<title>Node21&#45;&gt;Node19</title>
<path fill="none" stroke="midnightblue" d="M303.26,-448.44C335.96,-439.2 388.18,-424.44 424.18,-414.26"/>
<polygon fill="midnightblue" stroke="midnightblue" points="425.21,-417.61 433.88,-411.52 423.3,-410.87 425.21,-417.61"/>
</g>
<!-- Node21&#45;&gt;Node20 -->
<g id="edge37" class="edge">
<title>Node21&#45;&gt;Node20</title>
<path fill="none" stroke="midnightblue" d="M269.52,-448.3C264.26,-435.55 253.69,-411.23 242,-392 235.96,-382.06 228.21,-371.66 221.63,-363.37"/>
<polygon fill="midnightblue" stroke="midnightblue" points="224.34,-361.15 215.33,-355.59 218.91,-365.56 224.34,-361.15"/>
</g>
<!-- Node21&#45;&gt;Node21 -->
<g id="edge40" class="edge">
<title>Node21&#45;&gt;Node21</title>
<path fill="none" stroke="midnightblue" d="M311.6,-467.53C337.83,-470.31 363.5,-467.13 363.5,-458 363.5,-450.04 344.02,-446.61 321.66,-447.7"/>
<polygon fill="midnightblue" stroke="midnightblue" points="321.3,-444.21 311.6,-448.47 321.84,-451.19 321.3,-444.21"/>
</g>
<!-- Node22 -->
<g id="node22" class="node">
<title>Node22</title>
<g id="a_node22"><a xlink:title=" ">
<polygon fill="none" stroke="#bfbfbf" points="290.5,-392.5 290.5,-411.5 343.5,-411.5 343.5,-392.5 290.5,-392.5"/>
<text text-anchor="middle" x="317" y="-399.5" font-family="Helvetica,sans-Serif" font-size="10.00">stdlib.h</text>
</a>
</g>
</g>
<!-- Node21&#45;&gt;Node22 -->
<g id="edge33" class="edge">
<title>Node21&#45;&gt;Node22</title>
<path fill="none" stroke="midnightblue" d="M280.27,-448.08C286.54,-440.38 295.79,-429.03 303.43,-419.65"/>
<polygon fill="midnightblue" stroke="midnightblue" points="306.27,-421.71 309.87,-411.75 300.84,-417.29 306.27,-421.71"/>
</g>
<!-- Node23 -->
<g id="node23" class="node">
<title>Node23</title>
<g id="a_node23"><a xlink:title=" ">
<polygon fill="none" stroke="#bfbfbf" points="104,-392.5 104,-411.5 160,-411.5 160,-392.5 104,-392.5"/>
<text text-anchor="middle" x="132" y="-399.5" font-family="Helvetica,sans-Serif" font-size="10.00">unistd.h</text>
</a>
</g>
</g>
<!-- Node21&#45;&gt;Node23 -->
<g id="edge34" class="edge">
<title>Node21&#45;&gt;Node23</title>
<path fill="none" stroke="midnightblue" d="M250.66,-448.44C227.25,-439.48 190.26,-425.31 163.81,-415.18"/>
<polygon fill="midnightblue" stroke="midnightblue" points="164.83,-411.82 154.24,-411.52 162.32,-418.36 164.83,-411.82"/>
</g>
<!-- Node24 -->
<g id="node24" class="node">
<title>Node24</title>
<g id="a_node24"><a xlink:title=" ">
<polygon fill="none" stroke="#bfbfbf" points="178.5,-392.5 178.5,-411.5 233.5,-411.5 233.5,-392.5 178.5,-392.5"/>
<text text-anchor="middle" x="206" y="-399.5" font-family="Helvetica,sans-Serif" font-size="10.00">fstream</text>
</a>
</g>
</g>
<!-- Node21&#45;&gt;Node24 -->
<g id="edge36" class="edge">
<title>Node21&#45;&gt;Node24</title>
<path fill="none" stroke="midnightblue" d="M262.24,-448.32C252.23,-440.26 237.11,-428.08 225.07,-418.37"/>
<polygon fill="midnightblue" stroke="midnightblue" points="226.94,-415.38 216.96,-411.83 222.55,-420.83 226.94,-415.38"/>
</g>
<!-- Node25&#45;&gt;Node2 -->
<g id="edge43" class="edge">
<title>Node25&#45;&gt;Node2</title>
<path fill="none" stroke="midnightblue" d="M384.89,-560.08C379.72,-552.53 372.15,-541.49 365.81,-532.23"/>
<polygon fill="midnightblue" stroke="midnightblue" points="368.54,-530.02 360,-523.75 362.76,-533.98 368.54,-530.02"/>
</g>
</g>
</svg>
        <g id="navigator" transform="translate(0 0)" fill="#404254">
                <rect fill="#f2f5e9" fill-opacity="0.5" stroke="#606060" stroke-width=".5" x="0" y="0" width="60" height="60"/>
                <use id="zoomplus" xlink:href="#zoomPlus" x="17" y="9" onmousedown="handleZoom(evt,'in')"/>
                <use id="zoomminus" xlink:href="#zoomMin" x="42" y="9" onmousedown="handleZoom(evt,'out')"/>
                <use id="reset" xlink:href="#resetDef" x="30" y="36" onmousedown="handleReset()"/>
                <g id="arrowUp" xlink:href="#dirArrow" transform="translate(30 24)" onmousedown="handlePan(0,-1)">
                  <use xlink:href="#rim" fill="#404040">
                        <set attributeName="fill" to="#808080" begin="arrowUp.mouseover" end="arrowUp.mouseout"/>
                  </use>
                  <path fill="none" stroke="white" stroke-width="1.5" d="M0,-3.0v7 M-2.5,-0.5L0,-3.0L2.5,-0.5"/>
                </g>
                <g id="arrowRight" xlink:href="#dirArrow" transform="rotate(90) translate(36 -43)" onmousedown="handlePan(1,0)">
                  <use xlink:href="#rim" fill="#404040">
                        <set attributeName="fill" to="#808080" begin="arrowRight.mouseover" end="arrowRight.mouseout"/>
                  </use>
                  <path fill="none" stroke="white" stroke-width="1.5" d="M0,-3.0v7 M-2.5,-0.5L0,-3.0L2.5,-0.5"/>
                </g>
                <g id="arrowDown" xlink:href="#dirArrow" transform="rotate(180) translate(-30 -48)" onmousedown="handlePan(0,1)">
                  <use xlink:href="#rim" fill="#404040">
                        <set attributeName="fill" to="#808080" begin="arrowDown.mouseover" end="arrowDown.mouseout"/>
                  </use>
                  <path fill="none" stroke="white" stroke-width="1.5" d="M0,-3.0v7 M-2.5,-0.5L0,-3.0L2.5,-0.5"/>
                </g>
                <g id="arrowLeft" xlink:href="#dirArrow" transform="rotate(270) translate(-36 17)" onmousedown="handlePan(-1,0)">
                  <use xlink:href="#rim" fill="#404040">
                        <set attributeName="fill" to="#808080" begin="arrowLeft.mouseover" end="arrowLeft.mouseout"/>
                  </use>
                  <path fill="none" stroke="white" stroke-width="1.5" d="M0,-3.0v7 M-2.5,-0.5L0,-3.0L2.5,-0.5"/>
                </g>
        </g>
        <svg viewBox="0 0 15 15" width="100%" height="30px" preserveAspectRatio="xMaxYMin meet">
         <g id="arrow_out" transform="scale(0.3 0.3)">
          <a xlink:href="timers_8hpp__incl_org.svg" target="_base">
           <rect id="button" ry="5" rx="5" y="6" x="6" height="38" width="38"
                fill="#f2f5e9" fill-opacity="0.5" stroke="#606060" stroke-width="1.0"/>
           <path id="arrow"
             d="M 11.500037,31.436501 C 11.940474,20.09759 22.043105,11.32322 32.158766,21.979434 L 37.068811,17.246167 C 37.068811,17.246167 37.088388,32 37.088388,32 L 22.160133,31.978069 C 22.160133,31.978069 26.997745,27.140456 26.997745,27.140456 C 18.528582,18.264221 13.291696,25.230495 11.500037,31.436501 z"
             style="fill:#404040;"/>
          </a>
         </g>
        </svg>
</svg>
