<?xml version="1.0" encoding="UTF-8" standalone="no"?>
<!DOCTYPE svg PUBLIC "-//W3C//DTD SVG 1.1//EN"
 "http://www.w3.org/Graphics/SVG/1.1/DTD/svg11.dtd">
<!-- Generated by graphviz version 2.43.0 (0)
 -->
<!-- Title: triangle_app Pages: 1 -->
<svg width="244pt" height="104pt"
 viewBox="0.00 0.00 244.00 104.00" xmlns="http://www.w3.org/2000/svg" xmlns:xlink="http://www.w3.org/1999/xlink">
<g id="graph0" class="graph" transform="scale(1 1) rotate(0) translate(4 100)">
<title>triangle_app</title>
<!-- Node1 -->
<g id="node1" class="node">
<title>Node1</title>
<g id="a_node1"><a xlink:title="Main process of the UDP/TCP Triangle Application. This HLS IP receives a packet and forwards it to th...">
<polygon fill="#bfbfbf" stroke="black" points="0,-38.5 0,-57.5 77,-57.5 77,-38.5 0,-38.5"/>
<text text-anchor="middle" x="38.5" y="-45.5" font-family="Helvetica,sans-Serif" font-size="10.00">triangle_app</text>
</a>
</g>
</g>
<!-- Node2 -->
<g id="node2" class="node">
<title>Node2</title>
<g id="a_node2"><a xlink:href="triangle__app_8cpp.html#a997c470d682d47ead9e6fc68c4fed4a4" target="_top" xlink:title=" ">
<polygon fill="none" stroke="black" points="153.5,-76.5 153.5,-95.5 195.5,-95.5 195.5,-76.5 153.5,-76.5"/>
<text text-anchor="middle" x="174.5" y="-83.5" font-family="Helvetica,sans-Serif" font-size="10.00">pDeq</text>
</a>
</g>
</g>
<!-- Node1&#45;&gt;Node2 -->
<g id="edge1" class="edge">
<title>Node1&#45;&gt;Node2</title>
<path fill="none" stroke="midnightblue" d="M73.31,-57.59C94.94,-63.72 122.73,-71.6 143.55,-77.51"/>
<polygon fill="midnightblue" stroke="midnightblue" points="142.87,-80.95 153.45,-80.31 144.78,-74.22 142.87,-80.95"/>
</g>
<!-- Node3 -->
<g id="node3" class="node">
<title>Node3</title>
<g id="a_node3"><a xlink:href="triangle__app_8cpp.html#ae0fba890190acbbf51e10489492c7f59" target="_top" xlink:title=" ">
<polygon fill="none" stroke="black" points="154,-38.5 154,-57.5 195,-57.5 195,-38.5 154,-38.5"/>
<text text-anchor="middle" x="174.5" y="-45.5" font-family="Helvetica,sans-Serif" font-size="10.00">pEnq</text>
</a>
</g>
</g>
<!-- Node1&#45;&gt;Node3 -->
<g id="edge2" class="edge">
<title>Node1&#45;&gt;Node3</title>
<path fill="none" stroke="midnightblue" d="M77.18,-48C98.21,-48 124.05,-48 143.66,-48"/>
<polygon fill="midnightblue" stroke="midnightblue" points="143.85,-51.5 153.85,-48 143.85,-44.5 143.85,-51.5"/>
</g>
<!-- Node4 -->
<g id="node4" class="node">
<title>Node4</title>
<g id="a_node4"><a xlink:href="triangle__app_8cpp.html#a033fd36668741325cf3c111416e82131" target="_top" xlink:title=" ">
<polygon fill="none" stroke="black" points="113,-0.5 113,-19.5 236,-19.5 236,-0.5 113,-0.5"/>
<text text-anchor="middle" x="174.5" y="-7.5" font-family="Helvetica,sans-Serif" font-size="10.00">pPortAndDestionation</text>
</a>
</g>
</g>
<!-- Node1&#45;&gt;Node4 -->
<g id="edge3" class="edge">
<title>Node1&#45;&gt;Node4</title>
<path fill="none" stroke="midnightblue" d="M73.31,-38.41C90.53,-33.53 111.66,-27.54 130.07,-22.32"/>
<polygon fill="midnightblue" stroke="midnightblue" points="131.03,-25.68 139.7,-19.59 129.12,-18.95 131.03,-25.68"/>
</g>
</g>
</svg>
