<?xml version="1.0" encoding="UTF-8" standalone="no"?>
<!DOCTYPE svg PUBLIC "-//W3C//DTD SVG 1.1//EN"
 "http://www.w3.org/Graphics/SVG/1.1/DTD/svg11.dtd">
<!-- Generated by graphviz version 2.43.0 (0)
 -->
<!-- Title: repos_for_Dox/cFDK/SRA/LIB/SHELL/LIB/hls/NAL/src/tss.hpp Pages: 1 -->
<svg width="1133pt" height="284pt"
 viewBox="0.00 0.00 1133.00 284.00" xmlns="http://www.w3.org/2000/svg" xmlns:xlink="http://www.w3.org/1999/xlink">
<g id="graph0" class="graph" transform="scale(1 1) rotate(0) translate(4 280)">
<title>repos_for_Dox/cFDK/SRA/LIB/SHELL/LIB/hls/NAL/src/tss.hpp</title>
<!-- Node1 -->
<g id="node1" class="node">
<title>Node1</title>
<g id="a_node1"><a xlink:title=": The TCP Sub System (TSS) of the NAL core.">
<polygon fill="#bfbfbf" stroke="black" points="532,-234.5 532,-275.5 657,-275.5 657,-234.5 532,-234.5"/>
<text text-anchor="start" x="540" y="-263.5" font-family="Helvetica,sans-Serif" font-size="10.00">repos_for_Dox/cFDK</text>
<text text-anchor="start" x="540" y="-252.5" font-family="Helvetica,sans-Serif" font-size="10.00">/SRA/LIB/SHELL/LIB/hls</text>
<text text-anchor="middle" x="594.5" y="-241.5" font-family="Helvetica,sans-Serif" font-size="10.00">/NAL/src/tss.hpp</text>
</a>
</g>
</g>
<!-- Node2 -->
<g id="node2" class="node">
<title>Node2</title>
<g id="a_node2"><a xlink:href="nal_8hpp.html" target="_top" xlink:title=": The cloudFPGA Network Abstraction Layer (NAL) between NTS and ROlE. The NAL core manages the NTS St...">
<polygon fill="none" stroke="black" points="532,-156.5 532,-197.5 657,-197.5 657,-156.5 532,-156.5"/>
<text text-anchor="start" x="540" y="-185.5" font-family="Helvetica,sans-Serif" font-size="10.00">repos_for_Dox/cFDK</text>
<text text-anchor="start" x="540" y="-174.5" font-family="Helvetica,sans-Serif" font-size="10.00">/SRA/LIB/SHELL/LIB/hls</text>
<text text-anchor="middle" x="594.5" y="-163.5" font-family="Helvetica,sans-Serif" font-size="10.00">/NAL/src/nal.hpp</text>
</a>
</g>
</g>
<!-- Node1&#45;&gt;Node2 -->
<g id="edge1" class="edge">
<title>Node1&#45;&gt;Node2</title>
<path fill="none" stroke="midnightblue" d="M587.9,-224.3C587.58,-215.3 587.78,-205.65 588.52,-197.51"/>
<polygon fill="midnightblue" stroke="midnightblue" points="584.41,-224.66 588.51,-234.43 591.4,-224.23 584.41,-224.66"/>
</g>
<!-- Node10 -->
<g id="node10" class="node">
<title>Node10</title>
<g id="a_node10"><a xlink:href="tss_8cpp.html" target="_top" xlink:title=": The TCP Sub System (TSS) of the NAL core.">
<polygon fill="none" stroke="black" points="1000,-78.5 1000,-119.5 1125,-119.5 1125,-78.5 1000,-78.5"/>
<text text-anchor="start" x="1008" y="-107.5" font-family="Helvetica,sans-Serif" font-size="10.00">repos_for_Dox/cFDK</text>
<text text-anchor="start" x="1008" y="-96.5" font-family="Helvetica,sans-Serif" font-size="10.00">/SRA/LIB/SHELL/LIB/hls</text>
<text text-anchor="middle" x="1062.5" y="-85.5" font-family="Helvetica,sans-Serif" font-size="10.00">/NAL/src/tss.cpp</text>
</a>
</g>
</g>
<!-- Node1&#45;&gt;Node10 -->
<g id="edge20" class="edge">
<title>Node1&#45;&gt;Node10</title>
<path fill="none" stroke="midnightblue" d="M663.53,-231.29C755.37,-201.06 916.21,-148.14 1002.97,-119.59"/>
<polygon fill="midnightblue" stroke="midnightblue" points="662.18,-228.05 653.77,-234.5 664.37,-234.69 662.18,-228.05"/>
</g>
<!-- Node2&#45;&gt;Node1 -->
<g id="edge13" class="edge">
<title>Node2&#45;&gt;Node1</title>
<path fill="none" stroke="midnightblue" d="M601.1,-207.63C601.42,-216.62 601.22,-226.27 600.49,-234.43"/>
<polygon fill="midnightblue" stroke="midnightblue" points="604.59,-207.27 600.48,-197.51 597.6,-207.7 604.59,-207.27"/>
</g>
<!-- Node3 -->
<g id="node3" class="node">
<title>Node3</title>
<g id="a_node3"><a xlink:href="fmc_8hpp.html" target="_top" xlink:title=":">
<polygon fill="none" stroke="black" points="169,-78.5 169,-119.5 294,-119.5 294,-78.5 169,-78.5"/>
<text text-anchor="start" x="177" y="-107.5" font-family="Helvetica,sans-Serif" font-size="10.00">repos_for_Dox/cFDK</text>
<text text-anchor="start" x="177" y="-96.5" font-family="Helvetica,sans-Serif" font-size="10.00">/SRA/LIB/SHELL/LIB/hls</text>
<text text-anchor="middle" x="231.5" y="-85.5" font-family="Helvetica,sans-Serif" font-size="10.00">/FMC/src/fmc.hpp</text>
</a>
</g>
</g>
<!-- Node2&#45;&gt;Node3 -->
<g id="edge2" class="edge">
<title>Node2&#45;&gt;Node3</title>
<path fill="none" stroke="midnightblue" d="M521.77,-164.32C461.75,-153.7 374.7,-137.11 299.5,-120 297.75,-119.6 295.98,-119.19 294.19,-118.77"/>
<polygon fill="midnightblue" stroke="midnightblue" points="521.45,-167.82 531.91,-166.1 522.67,-160.93 521.45,-167.82"/>
</g>
<!-- Node6 -->
<g id="node6" class="node">
<title>Node6</title>
<g id="a_node6"><a xlink:href="tb__fmc_8cpp.html" target="_top" xlink:title=":">
<polygon fill="none" stroke="black" points="286,-0.5 286,-41.5 411,-41.5 411,-0.5 286,-0.5"/>
<text text-anchor="start" x="294" y="-29.5" font-family="Helvetica,sans-Serif" font-size="10.00">repos_for_Dox/cFDK</text>
<text text-anchor="start" x="294" y="-18.5" font-family="Helvetica,sans-Serif" font-size="10.00">/SRA/LIB/SHELL/LIB/hls</text>
<text text-anchor="middle" x="348.5" y="-7.5" font-family="Helvetica,sans-Serif" font-size="10.00">/FMC/tb/tb_fmc.cpp</text>
</a>
</g>
</g>
<!-- Node2&#45;&gt;Node6 -->
<g id="edge7" class="edge">
<title>Node2&#45;&gt;Node6</title>
<path fill="none" stroke="midnightblue" d="M521.84,-166.81C463.39,-157.91 387.64,-142.43 366.5,-120 346.69,-98.98 345.06,-63.68 346.33,-41.68"/>
<polygon fill="midnightblue" stroke="midnightblue" points="521.39,-170.28 531.79,-168.29 522.42,-163.36 521.39,-170.28"/>
</g>
<!-- Node7 -->
<g id="node7" class="node">
<title>Node7</title>
<g id="a_node7"><a xlink:href="hss_8cpp.html" target="_top" xlink:title=": The Housekeeping Sub System (HSS) of the NAL core.">
<polygon fill="none" stroke="black" points="516,-0.5 516,-41.5 641,-41.5 641,-0.5 516,-0.5"/>
<text text-anchor="start" x="524" y="-29.5" font-family="Helvetica,sans-Serif" font-size="10.00">repos_for_Dox/cFDK</text>
<text text-anchor="start" x="524" y="-18.5" font-family="Helvetica,sans-Serif" font-size="10.00">/SRA/LIB/SHELL/LIB/hls</text>
<text text-anchor="middle" x="578.5" y="-7.5" font-family="Helvetica,sans-Serif" font-size="10.00">/NAL/src/hss.cpp</text>
</a>
</g>
</g>
<!-- Node2&#45;&gt;Node7 -->
<g id="edge8" class="edge">
<title>Node2&#45;&gt;Node7</title>
<path fill="none" stroke="midnightblue" d="M521.61,-166.62C466.34,-157.83 396.99,-142.63 379.5,-120 338.88,-67.44 443.35,-41.22 515.83,-29.7"/>
<polygon fill="midnightblue" stroke="midnightblue" points="521.34,-170.11 531.76,-168.18 522.41,-163.2 521.34,-170.11"/>
</g>
<!-- Node8 -->
<g id="node8" class="node">
<title>Node8</title>
<g id="a_node8"><a xlink:href="hss_8hpp.html" target="_top" xlink:title=": The Housekeeping Sub System (HSS) of the NAL core.">
<polygon fill="none" stroke="black" points="389,-78.5 389,-119.5 514,-119.5 514,-78.5 389,-78.5"/>
<text text-anchor="start" x="397" y="-107.5" font-family="Helvetica,sans-Serif" font-size="10.00">repos_for_Dox/cFDK</text>
<text text-anchor="start" x="397" y="-96.5" font-family="Helvetica,sans-Serif" font-size="10.00">/SRA/LIB/SHELL/LIB/hls</text>
<text text-anchor="middle" x="451.5" y="-85.5" font-family="Helvetica,sans-Serif" font-size="10.00">/NAL/src/hss.hpp</text>
</a>
</g>
</g>
<!-- Node2&#45;&gt;Node8 -->
<g id="edge9" class="edge">
<title>Node2&#45;&gt;Node8</title>
<path fill="none" stroke="midnightblue" d="M542.56,-151.77C522.32,-141.35 499.83,-129.34 482.22,-119.51"/>
<polygon fill="midnightblue" stroke="midnightblue" points="541.19,-154.99 551.69,-156.43 544.37,-148.76 541.19,-154.99"/>
</g>
<!-- Node9 -->
<g id="node9" class="node">
<title>Node9</title>
<g id="a_node9"><a xlink:href="nal_8cpp.html" target="_top" xlink:title=" ">
<polygon fill="none" stroke="black" points="532,-78.5 532,-119.5 657,-119.5 657,-78.5 532,-78.5"/>
<text text-anchor="start" x="540" y="-107.5" font-family="Helvetica,sans-Serif" font-size="10.00">repos_for_Dox/cFDK</text>
<text text-anchor="start" x="540" y="-96.5" font-family="Helvetica,sans-Serif" font-size="10.00">/SRA/LIB/SHELL/LIB/hls</text>
<text text-anchor="middle" x="594.5" y="-85.5" font-family="Helvetica,sans-Serif" font-size="10.00">/NAL/src/nal.cpp</text>
</a>
</g>
</g>
<!-- Node2&#45;&gt;Node9 -->
<g id="edge11" class="edge">
<title>Node2&#45;&gt;Node9</title>
<path fill="none" stroke="midnightblue" d="M594.5,-146.3C594.5,-137.3 594.5,-127.65 594.5,-119.51"/>
<polygon fill="midnightblue" stroke="midnightblue" points="591,-146.43 594.5,-156.43 598,-146.43 591,-146.43"/>
</g>
<!-- Node2&#45;&gt;Node10 -->
<g id="edge12" class="edge">
<title>Node2&#45;&gt;Node10</title>
<path fill="none" stroke="midnightblue" d="M666.95,-168.63C746.73,-159.84 878.55,-143.36 990.5,-120 993.55,-119.36 996.66,-118.67 999.79,-117.94"/>
<polygon fill="midnightblue" stroke="midnightblue" points="666.57,-165.15 657.01,-169.71 667.33,-172.11 666.57,-165.15"/>
</g>
<!-- Node11 -->
<g id="node11" class="node">
<title>Node11</title>
<g id="a_node11"><a xlink:href="uss_8cpp.html" target="_top" xlink:title=": The UDP Sub System (USS) of the NAL core.">
<polygon fill="none" stroke="black" points="720,-0.5 720,-41.5 845,-41.5 845,-0.5 720,-0.5"/>
<text text-anchor="start" x="728" y="-29.5" font-family="Helvetica,sans-Serif" font-size="10.00">repos_for_Dox/cFDK</text>
<text text-anchor="start" x="728" y="-18.5" font-family="Helvetica,sans-Serif" font-size="10.00">/SRA/LIB/SHELL/LIB/hls</text>
<text text-anchor="middle" x="782.5" y="-7.5" font-family="Helvetica,sans-Serif" font-size="10.00">/NAL/src/uss.cpp</text>
</a>
</g>
</g>
<!-- Node2&#45;&gt;Node11 -->
<g id="edge14" class="edge">
<title>Node2&#45;&gt;Node11</title>
<path fill="none" stroke="midnightblue" d="M667.31,-166.53C722.29,-157.7 791.13,-142.5 808.5,-120 826.25,-97.01 810.32,-62.94 796.75,-41.63"/>
<polygon fill="midnightblue" stroke="midnightblue" points="666.57,-163.1 657.23,-168.1 667.64,-170.02 666.57,-163.1"/>
</g>
<!-- Node12 -->
<g id="node12" class="node">
<title>Node12</title>
<g id="a_node12"><a xlink:href="uss_8hpp.html" target="_top" xlink:title=": The UDP Sub System (USS) of the NAL core.">
<polygon fill="none" stroke="black" points="675,-78.5 675,-119.5 800,-119.5 800,-78.5 675,-78.5"/>
<text text-anchor="start" x="683" y="-107.5" font-family="Helvetica,sans-Serif" font-size="10.00">repos_for_Dox/cFDK</text>
<text text-anchor="start" x="683" y="-96.5" font-family="Helvetica,sans-Serif" font-size="10.00">/SRA/LIB/SHELL/LIB/hls</text>
<text text-anchor="middle" x="737.5" y="-85.5" font-family="Helvetica,sans-Serif" font-size="10.00">/NAL/src/uss.hpp</text>
</a>
</g>
</g>
<!-- Node2&#45;&gt;Node12 -->
<g id="edge15" class="edge">
<title>Node2&#45;&gt;Node12</title>
<path fill="none" stroke="midnightblue" d="M634.27,-151.49C653.12,-141.13 675.61,-129.25 694.82,-119.51"/>
<polygon fill="midnightblue" stroke="midnightblue" points="632.39,-148.52 625.34,-156.43 635.78,-154.65 632.39,-148.52"/>
</g>
<!-- Node13 -->
<g id="node13" class="node">
<title>Node13</title>
<g id="a_node13"><a xlink:href="tb__nal_8cpp.html" target="_top" xlink:title=" ">
<polygon fill="none" stroke="black" points="857,-78.5 857,-119.5 982,-119.5 982,-78.5 857,-78.5"/>
<text text-anchor="start" x="865" y="-107.5" font-family="Helvetica,sans-Serif" font-size="10.00">repos_for_Dox/cFDK</text>
<text text-anchor="start" x="865" y="-96.5" font-family="Helvetica,sans-Serif" font-size="10.00">/SRA/LIB/SHELL/LIB/hls</text>
<text text-anchor="middle" x="919.5" y="-85.5" font-family="Helvetica,sans-Serif" font-size="10.00">/NAL/test/tb_nal.cpp</text>
</a>
</g>
</g>
<!-- Node2&#45;&gt;Node13 -->
<g id="edge19" class="edge">
<title>Node2&#45;&gt;Node13</title>
<path fill="none" stroke="midnightblue" d="M667.03,-160.26C716.56,-149.36 783.61,-134.29 842.5,-120 847.2,-118.86 852.05,-117.66 856.93,-116.43"/>
<polygon fill="midnightblue" stroke="midnightblue" points="666.07,-156.89 657.06,-162.46 667.57,-163.73 666.07,-156.89"/>
</g>
<!-- Node3&#45;&gt;Node2 -->
<g id="edge6" class="edge">
<title>Node3&#45;&gt;Node2</title>
<path fill="none" stroke="midnightblue" d="M304.12,-116.85C308.65,-117.95 313.14,-119.01 317.5,-120 390.89,-136.7 475.55,-152.9 531.84,-163.54"/>
<polygon fill="midnightblue" stroke="midnightblue" points="304.7,-113.39 294.15,-114.41 303.03,-120.19 304.7,-113.39"/>
</g>
<!-- Node4 -->
<g id="node4" class="node">
<title>Node4</title>
<g id="a_node4"><a xlink:href="fmc_8cpp.html" target="_top" xlink:title=":">
<polygon fill="none" stroke="black" points="0,-0.5 0,-41.5 125,-41.5 125,-0.5 0,-0.5"/>
<text text-anchor="start" x="8" y="-29.5" font-family="Helvetica,sans-Serif" font-size="10.00">repos_for_Dox/cFDK</text>
<text text-anchor="start" x="8" y="-18.5" font-family="Helvetica,sans-Serif" font-size="10.00">/SRA/LIB/SHELL/LIB/hls</text>
<text text-anchor="middle" x="62.5" y="-7.5" font-family="Helvetica,sans-Serif" font-size="10.00">/FMC/src/fmc.cpp</text>
</a>
</g>
</g>
<!-- Node3&#45;&gt;Node4 -->
<g id="edge3" class="edge">
<title>Node3&#45;&gt;Node4</title>
<path fill="none" stroke="midnightblue" d="M178.55,-74.19C155.17,-63.67 128.03,-51.47 105.87,-41.51"/>
<polygon fill="midnightblue" stroke="midnightblue" points="177.42,-77.52 187.98,-78.43 180.29,-71.13 177.42,-77.52"/>
</g>
<!-- Node5 -->
<g id="node5" class="node">
<title>Node5</title>
<g id="a_node5"><a xlink:href="http_8cpp.html" target="_top" xlink:title=":">
<polygon fill="none" stroke="black" points="143,-0.5 143,-41.5 268,-41.5 268,-0.5 143,-0.5"/>
<text text-anchor="start" x="151" y="-29.5" font-family="Helvetica,sans-Serif" font-size="10.00">repos_for_Dox/cFDK</text>
<text text-anchor="start" x="151" y="-18.5" font-family="Helvetica,sans-Serif" font-size="10.00">/SRA/LIB/SHELL/LIB/hls</text>
<text text-anchor="middle" x="205.5" y="-7.5" font-family="Helvetica,sans-Serif" font-size="10.00">/FMC/src/http.cpp</text>
</a>
</g>
</g>
<!-- Node3&#45;&gt;Node5 -->
<g id="edge4" class="edge">
<title>Node3&#45;&gt;Node5</title>
<path fill="none" stroke="midnightblue" d="M221.54,-68.88C218.4,-59.72 215.02,-49.83 212.17,-41.51"/>
<polygon fill="midnightblue" stroke="midnightblue" points="218.26,-70.1 224.8,-78.43 224.88,-67.83 218.26,-70.1"/>
</g>
<!-- Node3&#45;&gt;Node6 -->
<g id="edge5" class="edge">
<title>Node3&#45;&gt;Node6</title>
<path fill="none" stroke="midnightblue" d="M270.11,-72.92C285.84,-62.7 303.75,-51.07 318.47,-41.51"/>
<polygon fill="midnightblue" stroke="midnightblue" points="268.11,-70.05 261.63,-78.43 271.92,-75.92 268.11,-70.05"/>
</g>
<!-- Node8&#45;&gt;Node2 -->
<g id="edge10" class="edge">
<title>Node8&#45;&gt;Node2</title>
<path fill="none" stroke="midnightblue" d="M503.3,-124.16C523.54,-134.57 546.03,-146.59 563.66,-156.43"/>
<polygon fill="midnightblue" stroke="midnightblue" points="504.68,-120.94 494.18,-119.51 501.5,-127.17 504.68,-120.94"/>
</g>
<!-- Node12&#45;&gt;Node2 -->
<g id="edge17" class="edge">
<title>Node12&#45;&gt;Node2</title>
<path fill="none" stroke="midnightblue" d="M697.86,-124.44C679.03,-134.79 656.54,-146.68 637.31,-156.43"/>
<polygon fill="midnightblue" stroke="midnightblue" points="699.73,-127.41 706.78,-119.51 696.34,-121.29 699.73,-127.41"/>
</g>
<!-- Node12&#45;&gt;Node7 -->
<g id="edge16" class="edge">
<title>Node12&#45;&gt;Node7</title>
<path fill="none" stroke="midnightblue" d="M687.39,-74.05C665.46,-63.57 640.06,-51.42 619.31,-41.51"/>
<polygon fill="midnightblue" stroke="midnightblue" points="686.02,-77.27 696.55,-78.43 689.04,-70.96 686.02,-77.27"/>
</g>
<!-- Node12&#45;&gt;Node11 -->
<g id="edge18" class="edge">
<title>Node12&#45;&gt;Node11</title>
<path fill="none" stroke="midnightblue" d="M754.22,-69.76C759.79,-60.35 765.86,-50.1 770.95,-41.51"/>
<polygon fill="midnightblue" stroke="midnightblue" points="751.17,-68.04 749.09,-78.43 757.2,-71.61 751.17,-68.04"/>
</g>
</g>
</svg>
