<?xml version="1.0" encoding="UTF-8" standalone="no"?>
<!DOCTYPE svg PUBLIC "-//W3C//DTD SVG 1.1//EN"
 "http://www.w3.org/Graphics/SVG/1.1/DTD/svg11.dtd">
<!-- Generated by graphviz version 2.43.0 (0)
 -->
<!-- Title: repos_for_Dox/cFDK/SRA/LIB/SHELL/LIB/hls/NTS/toe/src/tx_app_interface/tx_app_interface.hpp Pages: 1 -->
<svg width="616pt" height="239pt"
 viewBox="0.00 0.00 616.00 239.00" xmlns="http://www.w3.org/2000/svg" xmlns:xlink="http://www.w3.org/1999/xlink">
<g id="graph0" class="graph" transform="scale(1 1) rotate(0) translate(4 235)">
<title>repos_for_Dox/cFDK/SRA/LIB/SHELL/LIB/hls/NTS/toe/src/tx_app_interface/tx_app_interface.hpp</title>
<!-- Node1 -->
<g id="node1" class="node">
<title>Node1</title>
<g id="a_node1"><a xlink:title=": Tx Application Interface (TAi)">
<polygon fill="#bfbfbf" stroke="black" points="215,-178.5 215,-230.5 375,-230.5 375,-178.5 215,-178.5"/>
<text text-anchor="start" x="223" y="-218.5" font-family="Helvetica,sans-Serif" font-size="10.00">repos_for_Dox/cFDK</text>
<text text-anchor="start" x="223" y="-207.5" font-family="Helvetica,sans-Serif" font-size="10.00">/SRA/LIB/SHELL/LIB/hls</text>
<text text-anchor="start" x="223" y="-196.5" font-family="Helvetica,sans-Serif" font-size="10.00">/NTS/toe/src/tx_app_interface</text>
<text text-anchor="middle" x="295" y="-185.5" font-family="Helvetica,sans-Serif" font-size="10.00">/tx_app_interface.hpp</text>
</a>
</g>
</g>
<!-- Node2 -->
<g id="node2" class="node">
<title>Node2</title>
<g id="a_node2"><a xlink:href="test__rx__engine_8hpp.html" target="_top" xlink:title=": Testbench for RX Engine (RXe) of the TCP Offload Engine (TOE).">
<polygon fill="none" stroke="black" points="0,-89.5 0,-141.5 134,-141.5 134,-89.5 0,-89.5"/>
<text text-anchor="start" x="8" y="-129.5" font-family="Helvetica,sans-Serif" font-size="10.00">repos_for_Dox/cFDK</text>
<text text-anchor="start" x="8" y="-118.5" font-family="Helvetica,sans-Serif" font-size="10.00">/SRA/LIB/SHELL/LIB/hls</text>
<text text-anchor="start" x="8" y="-107.5" font-family="Helvetica,sans-Serif" font-size="10.00">/NTS/toe/src/rx_engine</text>
<text text-anchor="middle" x="67" y="-96.5" font-family="Helvetica,sans-Serif" font-size="10.00">/test/test_rx_engine.hpp</text>
</a>
</g>
</g>
<!-- Node1&#45;&gt;Node2 -->
<g id="edge1" class="edge">
<title>Node1&#45;&gt;Node2</title>
<path fill="none" stroke="midnightblue" d="M219.94,-174.86C191.71,-164.09 159.87,-151.94 132.57,-141.52"/>
<polygon fill="midnightblue" stroke="midnightblue" points="218.77,-178.16 229.36,-178.45 221.26,-171.62 218.77,-178.16"/>
</g>
<!-- Node4 -->
<g id="node4" class="node">
<title>Node4</title>
<g id="a_node4"><a xlink:href="toe_8cpp.html" target="_top" xlink:title=": TCP Offload Engine (TOE)">
<polygon fill="none" stroke="black" points="152.5,-95 152.5,-136 277.5,-136 277.5,-95 152.5,-95"/>
<text text-anchor="start" x="160.5" y="-124" font-family="Helvetica,sans-Serif" font-size="10.00">repos_for_Dox/cFDK</text>
<text text-anchor="start" x="160.5" y="-113" font-family="Helvetica,sans-Serif" font-size="10.00">/SRA/LIB/SHELL/LIB/hls</text>
<text text-anchor="middle" x="215" y="-102" font-family="Helvetica,sans-Serif" font-size="10.00">/NTS/toe/src/toe.cpp</text>
</a>
</g>
</g>
<!-- Node1&#45;&gt;Node4 -->
<g id="edge3" class="edge">
<title>Node1&#45;&gt;Node4</title>
<path fill="none" stroke="midnightblue" d="M264.97,-170.85C254.22,-159.15 242.43,-146.33 233.01,-136.08"/>
<polygon fill="midnightblue" stroke="midnightblue" points="262.52,-173.34 271.86,-178.34 267.67,-168.61 262.52,-173.34"/>
</g>
<!-- Node5 -->
<g id="node5" class="node">
<title>Node5</title>
<g id="a_node5"><a xlink:href="tx__app__interface_8cpp.html" target="_top" xlink:title=": Tx Application Interface (TAi)">
<polygon fill="none" stroke="black" points="296,-89.5 296,-141.5 456,-141.5 456,-89.5 296,-89.5"/>
<text text-anchor="start" x="304" y="-129.5" font-family="Helvetica,sans-Serif" font-size="10.00">repos_for_Dox/cFDK</text>
<text text-anchor="start" x="304" y="-118.5" font-family="Helvetica,sans-Serif" font-size="10.00">/SRA/LIB/SHELL/LIB/hls</text>
<text text-anchor="start" x="304" y="-107.5" font-family="Helvetica,sans-Serif" font-size="10.00">/NTS/toe/src/tx_app_interface</text>
<text text-anchor="middle" x="376" y="-96.5" font-family="Helvetica,sans-Serif" font-size="10.00">/tx_app_interface.cpp</text>
</a>
</g>
</g>
<!-- Node1&#45;&gt;Node5 -->
<g id="edge4" class="edge">
<title>Node1&#45;&gt;Node5</title>
<path fill="none" stroke="midnightblue" d="M325.45,-170.79C334.45,-161.13 344.15,-150.71 352.62,-141.61"/>
<polygon fill="midnightblue" stroke="midnightblue" points="322.68,-168.63 318.43,-178.34 327.8,-173.4 322.68,-168.63"/>
</g>
<!-- Node6 -->
<g id="node6" class="node">
<title>Node6</title>
<g id="a_node6"><a xlink:href="test__tx__engine_8hpp.html" target="_top" xlink:title=" ">
<polygon fill="none" stroke="black" points="474,-89.5 474,-141.5 608,-141.5 608,-89.5 474,-89.5"/>
<text text-anchor="start" x="482" y="-129.5" font-family="Helvetica,sans-Serif" font-size="10.00">repos_for_Dox/cFDK</text>
<text text-anchor="start" x="482" y="-118.5" font-family="Helvetica,sans-Serif" font-size="10.00">/SRA/LIB/SHELL/LIB/hls</text>
<text text-anchor="start" x="482" y="-107.5" font-family="Helvetica,sans-Serif" font-size="10.00">/NTS/toe/src/tx_engine</text>
<text text-anchor="middle" x="541" y="-96.5" font-family="Helvetica,sans-Serif" font-size="10.00">/test/test_tx_engine.hpp</text>
</a>
</g>
</g>
<!-- Node1&#45;&gt;Node6 -->
<g id="edge5" class="edge">
<title>Node1&#45;&gt;Node6</title>
<path fill="none" stroke="midnightblue" d="M375.52,-175.02C407.27,-163.8 443.31,-151.05 473.63,-140.32"/>
<polygon fill="midnightblue" stroke="midnightblue" points="374.08,-171.82 365.82,-178.45 376.42,-178.42 374.08,-171.82"/>
</g>
<!-- Node3 -->
<g id="node3" class="node">
<title>Node3</title>
<g id="a_node3"><a xlink:href="test__rx__engine_8cpp.html" target="_top" xlink:title=": Testbench for RX Engine (RXe) of the TCP Offload Engine (TOE).">
<polygon fill="none" stroke="black" points="0,-0.5 0,-52.5 134,-52.5 134,-0.5 0,-0.5"/>
<text text-anchor="start" x="8" y="-40.5" font-family="Helvetica,sans-Serif" font-size="10.00">repos_for_Dox/cFDK</text>
<text text-anchor="start" x="8" y="-29.5" font-family="Helvetica,sans-Serif" font-size="10.00">/SRA/LIB/SHELL/LIB/hls</text>
<text text-anchor="start" x="8" y="-18.5" font-family="Helvetica,sans-Serif" font-size="10.00">/NTS/toe/src/rx_engine</text>
<text text-anchor="middle" x="67" y="-7.5" font-family="Helvetica,sans-Serif" font-size="10.00">/test/test_rx_engine.cpp</text>
</a>
</g>
</g>
<!-- Node2&#45;&gt;Node3 -->
<g id="edge2" class="edge">
<title>Node2&#45;&gt;Node3</title>
<path fill="none" stroke="midnightblue" d="M67,-79.19C67,-70.28 67,-60.9 67,-52.61"/>
<polygon fill="midnightblue" stroke="midnightblue" points="63.5,-79.34 67,-89.34 70.5,-79.34 63.5,-79.34"/>
</g>
<!-- Node7 -->
<g id="node7" class="node">
<title>Node7</title>
<g id="a_node7"><a xlink:href="test__tx__engine_8cpp.html" target="_top" xlink:title=": Testbench for TX Engine (TXe) of the TCP Offload Engine (TOE).">
<polygon fill="none" stroke="black" points="474,-0.5 474,-52.5 608,-52.5 608,-0.5 474,-0.5"/>
<text text-anchor="start" x="482" y="-40.5" font-family="Helvetica,sans-Serif" font-size="10.00">repos_for_Dox/cFDK</text>
<text text-anchor="start" x="482" y="-29.5" font-family="Helvetica,sans-Serif" font-size="10.00">/SRA/LIB/SHELL/LIB/hls</text>
<text text-anchor="start" x="482" y="-18.5" font-family="Helvetica,sans-Serif" font-size="10.00">/NTS/toe/src/tx_engine</text>
<text text-anchor="middle" x="541" y="-7.5" font-family="Helvetica,sans-Serif" font-size="10.00">/test/test_tx_engine.cpp</text>
</a>
</g>
</g>
<!-- Node6&#45;&gt;Node7 -->
<g id="edge6" class="edge">
<title>Node6&#45;&gt;Node7</title>
<path fill="none" stroke="midnightblue" d="M541,-79.19C541,-70.28 541,-60.9 541,-52.61"/>
<polygon fill="midnightblue" stroke="midnightblue" points="537.5,-79.34 541,-89.34 544.5,-79.34 537.5,-79.34"/>
</g>
</g>
</svg>
