<?xml version="1.0" encoding="UTF-8" standalone="no"?>
<!DOCTYPE svg PUBLIC "-//W3C//DTD SVG 1.1//EN"
 "http://www.w3.org/Graphics/SVG/1.1/DTD/svg11.dtd">
<!-- Generated by graphviz version 2.43.0 (0)
 -->
<!-- Title: repos_for_Dox/cFDK/SRA/LIB/SHELL/LIB/hls/NTS/legacy/udp/src/udp.cpp Pages: 1 -->
<svg width="653pt" height="162pt"
 viewBox="0.00 0.00 652.50 162.00" xmlns="http://www.w3.org/2000/svg" xmlns:xlink="http://www.w3.org/1999/xlink">
<g id="graph0" class="graph" transform="scale(1 1) rotate(0) translate(4 158)">
<title>repos_for_Dox/cFDK/SRA/LIB/SHELL/LIB/hls/NTS/legacy/udp/src/udp.cpp</title>
<!-- Node1 -->
<g id="node1" class="node">
<title>Node1</title>
<g id="a_node1"><a xlink:title=": UDP offload engine.">
<polygon fill="#bfbfbf" stroke="black" points="231,-112.5 231,-153.5 385,-153.5 385,-112.5 231,-112.5"/>
<text text-anchor="start" x="239" y="-141.5" font-family="Helvetica,sans-Serif" font-size="10.00">repos_for_Dox/cFDK</text>
<text text-anchor="start" x="239" y="-130.5" font-family="Helvetica,sans-Serif" font-size="10.00">/SRA/LIB/SHELL/LIB/hls</text>
<text text-anchor="middle" x="308" y="-119.5" font-family="Helvetica,sans-Serif" font-size="10.00">/NTS/legacy/udp/src/udp.cpp</text>
</a>
</g>
</g>
<!-- Node2 -->
<g id="node2" class="node">
<title>Node2</title>
<g id="a_node2"><a xlink:href="udp_8hpp.html" target="_top" xlink:title=": UDP offload engine.">
<polygon fill="none" stroke="black" points="280,-56.5 280,-75.5 336,-75.5 336,-56.5 280,-56.5"/>
<text text-anchor="middle" x="308" y="-63.5" font-family="Helvetica,sans-Serif" font-size="10.00">udp.hpp</text>
</a>
</g>
</g>
<!-- Node1&#45;&gt;Node2 -->
<g id="edge1" class="edge">
<title>Node1&#45;&gt;Node2</title>
<path fill="none" stroke="midnightblue" d="M308,-112.5C308,-104.07 308,-94.24 308,-85.87"/>
<polygon fill="midnightblue" stroke="midnightblue" points="311.5,-85.65 308,-75.65 304.5,-85.65 311.5,-85.65"/>
</g>
<!-- Node3 -->
<g id="node3" class="node">
<title>Node3</title>
<g id="a_node3"><a xlink:title=" ">
<polygon fill="none" stroke="#bfbfbf" points="0,-0.5 0,-19.5 50,-19.5 50,-0.5 0,-0.5"/>
<text text-anchor="middle" x="25" y="-7.5" font-family="Helvetica,sans-Serif" font-size="10.00">stdio.h</text>
</a>
</g>
</g>
<!-- Node2&#45;&gt;Node3 -->
<g id="edge2" class="edge">
<title>Node2&#45;&gt;Node3</title>
<path fill="none" stroke="midnightblue" d="M279.85,-60.67C235.27,-53.64 145.53,-38.84 60.06,-20.09"/>
<polygon fill="midnightblue" stroke="midnightblue" points="60.72,-16.66 50.2,-17.91 59.2,-23.49 60.72,-16.66"/>
</g>
<!-- Node4 -->
<g id="node4" class="node">
<title>Node4</title>
<g id="a_node4"><a xlink:title=" ">
<polygon fill="none" stroke="#bfbfbf" points="68,-0.5 68,-19.5 128,-19.5 128,-0.5 68,-0.5"/>
<text text-anchor="middle" x="98" y="-7.5" font-family="Helvetica,sans-Serif" font-size="10.00">iostream</text>
</a>
</g>
</g>
<!-- Node2&#45;&gt;Node4 -->
<g id="edge3" class="edge">
<title>Node2&#45;&gt;Node4</title>
<path fill="none" stroke="midnightblue" d="M279.68,-57.72C243.17,-48.33 179.46,-31.95 138.02,-21.29"/>
<polygon fill="midnightblue" stroke="midnightblue" points="138.8,-17.88 128.25,-18.78 137.06,-24.66 138.8,-17.88"/>
</g>
<!-- Node5 -->
<g id="node5" class="node">
<title>Node5</title>
<g id="a_node5"><a xlink:title=" ">
<polygon fill="none" stroke="#bfbfbf" points="146.5,-0.5 146.5,-19.5 201.5,-19.5 201.5,-0.5 146.5,-0.5"/>
<text text-anchor="middle" x="174" y="-7.5" font-family="Helvetica,sans-Serif" font-size="10.00">fstream</text>
</a>
</g>
</g>
<!-- Node2&#45;&gt;Node5 -->
<g id="edge4" class="edge">
<title>Node2&#45;&gt;Node5</title>
<path fill="none" stroke="midnightblue" d="M286.77,-56.44C264.62,-47.52 229.68,-33.44 204.56,-23.32"/>
<polygon fill="midnightblue" stroke="midnightblue" points="205.72,-20.01 195.13,-19.52 203.1,-26.5 205.72,-20.01"/>
</g>
<!-- Node6 -->
<g id="node6" class="node">
<title>Node6</title>
<g id="a_node6"><a xlink:title=" ">
<polygon fill="none" stroke="#bfbfbf" points="220,-0.5 220,-19.5 264,-19.5 264,-0.5 220,-0.5"/>
<text text-anchor="middle" x="242" y="-7.5" font-family="Helvetica,sans-Serif" font-size="10.00">string</text>
</a>
</g>
</g>
<!-- Node2&#45;&gt;Node6 -->
<g id="edge5" class="edge">
<title>Node2&#45;&gt;Node6</title>
<path fill="none" stroke="midnightblue" d="M297.4,-56.32C287.54,-48.26 272.65,-36.08 260.78,-26.37"/>
<polygon fill="midnightblue" stroke="midnightblue" points="262.75,-23.46 252.8,-19.83 258.32,-28.88 262.75,-23.46"/>
</g>
<!-- Node7 -->
<g id="node7" class="node">
<title>Node7</title>
<g id="a_node7"><a xlink:title=" ">
<polygon fill="none" stroke="#bfbfbf" points="282.5,-0.5 282.5,-19.5 333.5,-19.5 333.5,-0.5 282.5,-0.5"/>
<text text-anchor="middle" x="308" y="-7.5" font-family="Helvetica,sans-Serif" font-size="10.00">math.h</text>
</a>
</g>
</g>
<!-- Node2&#45;&gt;Node7 -->
<g id="edge6" class="edge">
<title>Node2&#45;&gt;Node7</title>
<path fill="none" stroke="midnightblue" d="M308,-56.08C308,-49.01 308,-38.86 308,-29.99"/>
<polygon fill="midnightblue" stroke="midnightblue" points="311.5,-29.75 308,-19.75 304.5,-29.75 311.5,-29.75"/>
</g>
<!-- Node8 -->
<g id="node8" class="node">
<title>Node8</title>
<g id="a_node8"><a xlink:title=" ">
<polygon fill="none" stroke="#bfbfbf" points="352,-0.5 352,-19.5 432,-19.5 432,-0.5 352,-0.5"/>
<text text-anchor="middle" x="392" y="-7.5" font-family="Helvetica,sans-Serif" font-size="10.00">hls_stream.h</text>
</a>
</g>
</g>
<!-- Node2&#45;&gt;Node8 -->
<g id="edge7" class="edge">
<title>Node2&#45;&gt;Node8</title>
<path fill="none" stroke="midnightblue" d="M321.5,-56.32C334.6,-47.9 354.71,-34.97 370.11,-25.07"/>
<polygon fill="midnightblue" stroke="midnightblue" points="372.02,-28.01 378.54,-19.65 368.23,-22.12 372.02,-28.01"/>
</g>
<!-- Node9 -->
<g id="node9" class="node">
<title>Node9</title>
<g id="a_node9"><a xlink:title=" ">
<polygon fill="none" stroke="#bfbfbf" points="450,-0.5 450,-19.5 506,-19.5 506,-0.5 450,-0.5"/>
<text text-anchor="middle" x="478" y="-7.5" font-family="Helvetica,sans-Serif" font-size="10.00">ap_int.h</text>
</a>
</g>
</g>
<!-- Node2&#45;&gt;Node9 -->
<g id="edge8" class="edge">
<title>Node2&#45;&gt;Node9</title>
<path fill="none" stroke="midnightblue" d="M334.94,-56.44C363.66,-47.32 409.33,-32.81 441.32,-22.65"/>
<polygon fill="midnightblue" stroke="midnightblue" points="442.72,-25.88 451.19,-19.52 440.6,-19.21 442.72,-25.88"/>
</g>
<!-- Node10 -->
<g id="node10" class="node">
<title>Node10</title>
<g id="a_node10"><a xlink:title=" ">
<polygon fill="none" stroke="#bfbfbf" points="524.5,-0.5 524.5,-19.5 577.5,-19.5 577.5,-0.5 524.5,-0.5"/>
<text text-anchor="middle" x="551" y="-7.5" font-family="Helvetica,sans-Serif" font-size="10.00">stdint.h</text>
</a>
</g>
</g>
<!-- Node2&#45;&gt;Node10 -->
<g id="edge9" class="edge">
<title>Node2&#45;&gt;Node10</title>
<path fill="none" stroke="midnightblue" d="M336.19,-59.16C374.29,-51.21 444.57,-36.31 514.43,-20.08"/>
<polygon fill="midnightblue" stroke="midnightblue" points="515.34,-23.46 524.29,-17.78 513.75,-16.64 515.34,-23.46"/>
</g>
<!-- Node11 -->
<g id="node11" class="node">
<title>Node11</title>
<g id="a_node11"><a xlink:title=" ">
<polygon fill="none" stroke="#bfbfbf" points="595.5,-0.5 595.5,-19.5 644.5,-19.5 644.5,-0.5 595.5,-0.5"/>
<text text-anchor="middle" x="620" y="-7.5" font-family="Helvetica,sans-Serif" font-size="10.00">cstdlib</text>
</a>
</g>
</g>
<!-- Node2&#45;&gt;Node11 -->
<g id="edge10" class="edge">
<title>Node2&#45;&gt;Node11</title>
<path fill="none" stroke="midnightblue" d="M336.3,-61.45C385.23,-55.09 488.94,-40.66 585.3,-20.2"/>
<polygon fill="midnightblue" stroke="midnightblue" points="586.16,-23.59 595.2,-18.07 584.69,-16.75 586.16,-23.59"/>
</g>
</g>
</svg>
