<?xml version="1.0" encoding="UTF-8" standalone="no"?>
<!DOCTYPE svg PUBLIC "-//W3C//DTD SVG 1.1//EN"
 "http://www.w3.org/Graphics/SVG/1.1/DTD/svg11.dtd">
<!-- Generated by graphviz version 2.43.0 (0)
 -->
<!-- Title: byteSwap32 Pages: 1 -->
<svg width="774pt" height="446pt"
 viewBox="0.00 0.00 774.00 446.00" xmlns="http://www.w3.org/2000/svg" xmlns:xlink="http://www.w3.org/1999/xlink">
<g id="graph0" class="graph" transform="scale(1 1) rotate(0) translate(4 442)">
<title>byteSwap32</title>
<!-- Node1 -->
<g id="node1" class="node">
<title>Node1</title>
<g id="a_node1"><a xlink:title=" ">
<polygon fill="#bfbfbf" stroke="black" points="689,-209.5 689,-228.5 766,-228.5 766,-209.5 689,-209.5"/>
<text text-anchor="middle" x="727.5" y="-216.5" font-family="Helvetica,sans-Serif" font-size="10.00">byteSwap32</text>
</a>
</g>
</g>
<!-- Node2 -->
<g id="node2" class="node">
<title>Node2</title>
<g id="a_node2"><a xlink:href="udp_8cpp.html#a81785bdba700074bf8a87c69cd60cc82" target="_top" xlink:title=" ">
<polygon fill="none" stroke="black" points="545,-114.5 545,-133.5 624,-133.5 624,-114.5 545,-114.5"/>
<text text-anchor="middle" x="584.5" y="-121.5" font-family="Helvetica,sans-Serif" font-size="10.00">addIpHeader</text>
</a>
</g>
</g>
<!-- Node1&#45;&gt;Node2 -->
<g id="edge1" class="edge">
<title>Node1&#45;&gt;Node2</title>
<path fill="none" stroke="midnightblue" d="M713.69,-201.06C700.41,-183.73 678.1,-157.98 653,-143 644.22,-137.76 633.93,-133.91 624.08,-131.11"/>
<polygon fill="midnightblue" stroke="midnightblue" points="711.01,-203.31 719.78,-209.25 716.62,-199.13 711.01,-203.31"/>
</g>
<!-- Node5 -->
<g id="node5" class="node">
<title>Node5</title>
<g id="a_node5"><a xlink:href="udp_8cpp.html#a0161cf9540ca39a6468a0c32b019d8cc" target="_top" xlink:title=" ">
<polygon fill="none" stroke="black" points="516,-152.5 516,-171.5 653,-171.5 653,-152.5 516,-152.5"/>
<text text-anchor="middle" x="584.5" y="-159.5" font-family="Helvetica,sans-Serif" font-size="10.00">outputPathWriteFunction</text>
</a>
</g>
</g>
<!-- Node1&#45;&gt;Node5 -->
<g id="edge4" class="edge">
<title>Node1&#45;&gt;Node5</title>
<path fill="none" stroke="midnightblue" d="M701.35,-204.38C687.42,-196.7 669.61,-187.55 653,-181 643.94,-177.43 633.95,-174.23 624.5,-171.53"/>
<polygon fill="midnightblue" stroke="midnightblue" points="699.88,-207.57 710.31,-209.41 703.3,-201.46 699.88,-207.57"/>
</g>
<!-- Node6 -->
<g id="node6" class="node">
<title>Node6</title>
<g id="a_node6"><a xlink:href="group__NTS__TOE__TEST.html#ga1c5c20696afed462358c80faea6e8494" target="_top" xlink:title="Take the ACK number of a session and inject it into the sequence number field of the current packet.">
<polygon fill="none" stroke="black" points="517.5,-418.5 517.5,-437.5 651.5,-437.5 651.5,-418.5 517.5,-418.5"/>
<text text-anchor="middle" x="584.5" y="-425.5" font-family="Helvetica,sans-Serif" font-size="10.00">pIPRX_InjectAckNumber</text>
</a>
</g>
</g>
<!-- Node1&#45;&gt;Node6 -->
<g id="edge6" class="edge">
<title>Node1&#45;&gt;Node6</title>
<path fill="none" stroke="midnightblue" d="M724.58,-238.95C719.79,-277.58 703.74,-362.85 653,-409 648.77,-412.85 643.81,-415.93 638.55,-418.38"/>
<polygon fill="midnightblue" stroke="midnightblue" points="728.11,-238.88 725.74,-228.55 721.15,-238.11 728.11,-238.88"/>
</g>
<!-- Node9 -->
<g id="node9" class="node">
<title>Node9</title>
<g id="a_node9"><a xlink:href="group__NTS__TOE.html#ga57d2070956ed6cfb2c6a787c77b63f5a" target="_top" xlink:title="Lookup Reply Handler (Lrh)">
<polygon fill="none" stroke="black" points="523,-380.5 523,-399.5 646,-399.5 646,-380.5 523,-380.5"/>
<text text-anchor="middle" x="584.5" y="-387.5" font-family="Helvetica,sans-Serif" font-size="10.00">pLookupReplyHandler</text>
</a>
</g>
</g>
<!-- Node1&#45;&gt;Node9 -->
<g id="edge9" class="edge">
<title>Node1&#45;&gt;Node9</title>
<path fill="none" stroke="midnightblue" d="M722.51,-238.52C714.86,-270.95 695.01,-335.81 653,-371 648.33,-374.91 642.92,-378.02 637.22,-380.49"/>
<polygon fill="midnightblue" stroke="midnightblue" points="725.98,-239.03 724.73,-228.51 719.15,-237.52 725.98,-239.03"/>
</g>
<!-- Node15 -->
<g id="node15" class="node">
<title>Node15</title>
<g id="a_node15"><a xlink:href="group__NTS__TOE.html#ga8662fb114e539be4f8947dccc7d04eb5" target="_top" xlink:title="MetaData Handler (Mdh)">
<polygon fill="none" stroke="black" points="530,-342.5 530,-361.5 639,-361.5 639,-342.5 530,-342.5"/>
<text text-anchor="middle" x="584.5" y="-349.5" font-family="Helvetica,sans-Serif" font-size="10.00">pMetaDataHandler</text>
</a>
</g>
</g>
<!-- Node1&#45;&gt;Node15 -->
<g id="edge15" class="edge">
<title>Node1&#45;&gt;Node15</title>
<path fill="none" stroke="midnightblue" d="M719.34,-237.94C708.74,-263.39 686.46,-308.28 653,-333 647.71,-336.91 641.65,-340.01 635.38,-342.48"/>
<polygon fill="midnightblue" stroke="midnightblue" points="722.6,-239.22 723.05,-228.63 716.1,-236.62 722.6,-239.22"/>
</g>
<!-- Node17 -->
<g id="node17" class="node">
<title>Node17</title>
<g id="a_node17"><a xlink:href="group__tcp__shell__if.html#ga588e42b7145e4d3aaa4b31a9f8b00505" target="_top" xlink:title="Read Path (RDp)">
<polygon fill="none" stroke="black" points="550.5,-266.5 550.5,-285.5 618.5,-285.5 618.5,-266.5 550.5,-266.5"/>
<text text-anchor="middle" x="584.5" y="-273.5" font-family="Helvetica,sans-Serif" font-size="10.00">pReadPath</text>
</a>
</g>
</g>
<!-- Node1&#45;&gt;Node17 -->
<g id="edge18" class="edge">
<title>Node1&#45;&gt;Node17</title>
<path fill="none" stroke="midnightblue" d="M701.35,-233.62C687.42,-241.3 669.61,-250.45 653,-257 642.02,-261.33 629.66,-265.11 618.56,-268.13"/>
<polygon fill="midnightblue" stroke="midnightblue" points="703.3,-236.54 710.31,-228.59 699.88,-230.43 703.3,-236.54"/>
</g>
<!-- Node21 -->
<g id="node21" class="node">
<title>Node21</title>
<g id="a_node21"><a xlink:href="group__NTS__TOE.html#ga211a909ee900030824ab98148898c9d1" target="_top" xlink:title="Print a socket pair association from an internal FourTuple encoding.">
<polygon fill="none" stroke="black" points="541.5,-228.5 541.5,-247.5 627.5,-247.5 627.5,-228.5 541.5,-228.5"/>
<text text-anchor="middle" x="584.5" y="-235.5" font-family="Helvetica,sans-Serif" font-size="10.00">printFourTuple</text>
</a>
</g>
</g>
<!-- Node1&#45;&gt;Node21 -->
<g id="edge22" class="edge">
<title>Node1&#45;&gt;Node21</title>
<path fill="none" stroke="midnightblue" d="M678.68,-225.44C662.12,-227.68 643.69,-230.16 627.62,-232.32"/>
<polygon fill="midnightblue" stroke="midnightblue" points="679.27,-228.9 688.71,-224.09 678.34,-221.96 679.27,-228.9"/>
</g>
<!-- Node23 -->
<g id="node23" class="node">
<title>Node23</title>
<g id="a_node23"><a xlink:href="classSimIp4Packet.html#acd45073036bd1f8641b8bfc3ea46a49f" target="_top" xlink:title="Print the header details of an IP packet.">
<polygon fill="none" stroke="black" points="520.5,-0.5 520.5,-19.5 648.5,-19.5 648.5,-0.5 520.5,-0.5"/>
<text text-anchor="middle" x="584.5" y="-7.5" font-family="Helvetica,sans-Serif" font-size="10.00">SimIp4Packet::printHdr</text>
</a>
</g>
</g>
<!-- Node1&#45;&gt;Node23 -->
<g id="edge24" class="edge">
<title>Node1&#45;&gt;Node23</title>
<path fill="none" stroke="midnightblue" d="M724.58,-199.05C719.79,-160.42 703.74,-75.15 653,-29 648.77,-25.15 643.81,-22.07 638.55,-19.62"/>
<polygon fill="midnightblue" stroke="midnightblue" points="721.15,-199.89 725.74,-209.45 728.11,-199.12 721.15,-199.89"/>
</g>
<!-- Node26 -->
<g id="node26" class="node">
<title>Node26</title>
<g id="a_node26"><a xlink:href="group__NTS__TOE.html#gaec2014c0d41b0e8e0bdf3b08c039388f" target="_top" xlink:title=" ">
<polygon fill="none" stroke="black" points="530.5,-304.5 530.5,-323.5 638.5,-323.5 638.5,-304.5 530.5,-304.5"/>
<text text-anchor="middle" x="584.5" y="-311.5" font-family="Helvetica,sans-Serif" font-size="10.00">pSocketPairSplitter</text>
</a>
</g>
</g>
<!-- Node1&#45;&gt;Node26 -->
<g id="edge27" class="edge">
<title>Node1&#45;&gt;Node26</title>
<path fill="none" stroke="midnightblue" d="M713.69,-236.94C700.41,-254.27 678.1,-280.02 653,-295 646.52,-298.87 639.22,-301.98 631.87,-304.47"/>
<polygon fill="midnightblue" stroke="midnightblue" points="716.62,-238.87 719.78,-228.75 711.01,-234.69 716.62,-238.87"/>
</g>
<!-- Node28 -->
<g id="node28" class="node">
<title>Node28</title>
<g id="a_node28"><a xlink:href="group__tcp__shell__if.html#ga4d29cb2d828e67dfdd9c7538336b2f04" target="_top" xlink:title="Emulate behavior of the SHELL/NTS/TCP Offload Engine (TOE).">
<polygon fill="none" stroke="black" points="563.5,-76.5 563.5,-95.5 605.5,-95.5 605.5,-76.5 563.5,-76.5"/>
<text text-anchor="middle" x="584.5" y="-83.5" font-family="Helvetica,sans-Serif" font-size="10.00">pTOE</text>
</a>
</g>
</g>
<!-- Node1&#45;&gt;Node28 -->
<g id="edge30" class="edge">
<title>Node1&#45;&gt;Node28</title>
<path fill="none" stroke="midnightblue" d="M719.34,-200.06C708.74,-174.61 686.46,-129.72 653,-105 639.19,-94.8 620.12,-90.07 605.77,-87.88"/>
<polygon fill="midnightblue" stroke="midnightblue" points="716.1,-201.38 723.05,-209.37 722.6,-198.78 716.1,-201.38"/>
</g>
<!-- Node29 -->
<g id="node29" class="node">
<title>Node29</title>
<g id="a_node29"><a xlink:href="group__udp__shell__if.html#gad2f4a79a5d25be1a5112d627ca6e3dc0" target="_top" xlink:title="Emulate behavior of the SHELL/NTS/UDP Offload Engine (UOE).">
<polygon fill="none" stroke="black" points="562.5,-38.5 562.5,-57.5 606.5,-57.5 606.5,-38.5 562.5,-38.5"/>
<text text-anchor="middle" x="584.5" y="-45.5" font-family="Helvetica,sans-Serif" font-size="10.00">pUOE</text>
</a>
</g>
</g>
<!-- Node1&#45;&gt;Node29 -->
<g id="edge31" class="edge">
<title>Node1&#45;&gt;Node29</title>
<path fill="none" stroke="midnightblue" d="M722.51,-199.48C714.86,-167.05 695.01,-102.19 653,-67 640.03,-56.13 621.24,-51.46 606.78,-49.47"/>
<polygon fill="midnightblue" stroke="midnightblue" points="719.15,-200.48 724.73,-209.49 725.98,-198.97 719.15,-200.48"/>
</g>
<!-- Node31 -->
<g id="node31" class="node">
<title>Node31</title>
<g id="a_node31"><a xlink:href="udp_8cpp.html#a9b4c08d9aba53de32255cb80e946b26a" target="_top" xlink:title=" ">
<polygon fill="none" stroke="black" points="543,-190.5 543,-209.5 626,-209.5 626,-190.5 543,-190.5"/>
<text text-anchor="middle" x="584.5" y="-197.5" font-family="Helvetica,sans-Serif" font-size="10.00">stripIpHeader</text>
</a>
</g>
</g>
<!-- Node1&#45;&gt;Node31 -->
<g id="edge33" class="edge">
<title>Node1&#45;&gt;Node31</title>
<path fill="none" stroke="midnightblue" d="M678.46,-212.53C661.52,-210.24 642.65,-207.7 626.36,-205.51"/>
<polygon fill="midnightblue" stroke="midnightblue" points="678.34,-216.04 688.71,-213.91 679.27,-209.1 678.34,-216.04"/>
</g>
<!-- Node3 -->
<g id="node3" class="node">
<title>Node3</title>
<g id="a_node3"><a xlink:href="udp_8cpp.html#ab52d8919cd270177a9b1fa89607abae7" target="_top" xlink:title=" ">
<polygon fill="none" stroke="black" points="379,-152.5 379,-171.5 438,-171.5 438,-152.5 379,-152.5"/>
<text text-anchor="middle" x="408.5" y="-159.5" font-family="Helvetica,sans-Serif" font-size="10.00">txEngine</text>
</a>
</g>
</g>
<!-- Node2&#45;&gt;Node3 -->
<g id="edge2" class="edge">
<title>Node2&#45;&gt;Node3</title>
<path fill="none" stroke="midnightblue" d="M535.06,-134.58C503.83,-141.4 464.28,-150.04 438,-155.77"/>
<polygon fill="midnightblue" stroke="midnightblue" points="535.86,-137.99 544.88,-132.43 534.37,-131.15 535.86,-137.99"/>
</g>
<!-- Node4 -->
<g id="node4" class="node">
<title>Node4</title>
<g id="a_node4"><a xlink:href="udp_8cpp.html#acf22a8b8213aa04e7082893eeadbc166" target="_top" xlink:title=" ">
<polygon fill="none" stroke="black" points="237,-171.5 237,-190.5 272,-190.5 272,-171.5 237,-171.5"/>
<text text-anchor="middle" x="254.5" y="-178.5" font-family="Helvetica,sans-Serif" font-size="10.00">udp</text>
</a>
</g>
</g>
<!-- Node3&#45;&gt;Node4 -->
<g id="edge3" class="edge">
<title>Node3&#45;&gt;Node4</title>
<path fill="none" stroke="midnightblue" d="M368.8,-166.84C337.62,-170.74 295.29,-176.03 272.2,-178.91"/>
<polygon fill="midnightblue" stroke="midnightblue" points="369.42,-170.29 378.91,-165.57 368.55,-163.34 369.42,-170.29"/>
</g>
<!-- Node5&#45;&gt;Node3 -->
<g id="edge5" class="edge">
<title>Node5&#45;&gt;Node3</title>
<path fill="none" stroke="midnightblue" d="M505.54,-162C481.58,-162 456.69,-162 438.26,-162"/>
<polygon fill="midnightblue" stroke="midnightblue" points="505.73,-165.5 515.73,-162 505.73,-158.5 505.73,-165.5"/>
</g>
<!-- Node7 -->
<g id="node7" class="node">
<title>Node7</title>
<g id="a_node7"><a xlink:href="group__NTS__TOE__TEST.html#ga117d84af693cae78b0f7f615942c8db8" target="_top" xlink:title="Feed TOE with an IP packet.">
<polygon fill="none" stroke="black" points="362,-418.5 362,-437.5 455,-437.5 455,-418.5 362,-418.5"/>
<text text-anchor="middle" x="408.5" y="-425.5" font-family="Helvetica,sans-Serif" font-size="10.00">pIPRX_FeedTOE</text>
</a>
</g>
</g>
<!-- Node6&#45;&gt;Node7 -->
<g id="edge7" class="edge">
<title>Node6&#45;&gt;Node7</title>
<path fill="none" stroke="midnightblue" d="M506.9,-428C489.22,-428 470.95,-428 455.08,-428"/>
<polygon fill="midnightblue" stroke="midnightblue" points="507.22,-431.5 517.22,-428 507.22,-424.5 507.22,-431.5"/>
</g>
<!-- Node8 -->
<g id="node8" class="node">
<title>Node8</title>
<g id="a_node8"><a xlink:href="group__NTS__TOE__TEST.html#ga19626da81d440ab83bcba2f6838ccb87" target="_top" xlink:title="Emulate the behavior of the IP Rx Path (IPRX).">
<polygon fill="none" stroke="black" points="232,-418.5 232,-437.5 277,-437.5 277,-418.5 232,-418.5"/>
<text text-anchor="middle" x="254.5" y="-425.5" font-family="Helvetica,sans-Serif" font-size="10.00">pIPRX</text>
</a>
</g>
</g>
<!-- Node7&#45;&gt;Node8 -->
<g id="edge8" class="edge">
<title>Node7&#45;&gt;Node8</title>
<path fill="none" stroke="midnightblue" d="M351.82,-428C325.98,-428 296.77,-428 277.36,-428"/>
<polygon fill="midnightblue" stroke="midnightblue" points="351.9,-431.5 361.89,-428 351.89,-424.5 351.9,-431.5"/>
</g>
<!-- Node10 -->
<g id="node10" class="node">
<title>Node10</title>
<g id="a_node10"><a xlink:href="group__NTS__TOE.html#ga444b23bab1124865117f8f6404e52be6" target="_top" xlink:title="Session Lookup Controller (SLc)">
<polygon fill="none" stroke="black" points="337,-380.5 337,-399.5 480,-399.5 480,-380.5 337,-380.5"/>
<text text-anchor="middle" x="408.5" y="-387.5" font-family="Helvetica,sans-Serif" font-size="10.00">session_lookup_controller</text>
</a>
</g>
</g>
<!-- Node9&#45;&gt;Node10 -->
<g id="edge10" class="edge">
<title>Node9&#45;&gt;Node10</title>
<path fill="none" stroke="midnightblue" d="M512.53,-390C501.85,-390 490.84,-390 480.16,-390"/>
<polygon fill="midnightblue" stroke="midnightblue" points="512.64,-393.5 522.64,-390 512.64,-386.5 512.64,-393.5"/>
</g>
<!-- Node11 -->
<g id="node11" class="node">
<title>Node11</title>
<g id="a_node11"><a xlink:href="test__session__lookup__controller_8cpp.html#ae66f6b31b5ad750f1fe042a706a4e3d4" target="_top" xlink:title=" ">
<polygon fill="none" stroke="black" points="234,-380.5 234,-399.5 275,-399.5 275,-380.5 234,-380.5"/>
<text text-anchor="middle" x="254.5" y="-387.5" font-family="Helvetica,sans-Serif" font-size="10.00">main</text>
</a>
</g>
</g>
<!-- Node10&#45;&gt;Node11 -->
<g id="edge11" class="edge">
<title>Node10&#45;&gt;Node11</title>
<path fill="none" stroke="midnightblue" d="M326.74,-390C307.46,-390 288.58,-390 275.11,-390"/>
<polygon fill="midnightblue" stroke="midnightblue" points="326.84,-393.5 336.84,-390 326.84,-386.5 326.84,-393.5"/>
</g>
<!-- Node12 -->
<g id="node12" class="node">
<title>Node12</title>
<g id="a_node12"><a xlink:href="group__NTS__TOE.html#ga1d48efdcf37aa3803a7f7444fe485c9f" target="_top" xlink:title="Main process of the TCP Offload Engine (TOE0.">
<polygon fill="none" stroke="black" points="238.5,-342.5 238.5,-361.5 270.5,-361.5 270.5,-342.5 238.5,-342.5"/>
<text text-anchor="middle" x="254.5" y="-349.5" font-family="Helvetica,sans-Serif" font-size="10.00">toe</text>
</a>
</g>
</g>
<!-- Node10&#45;&gt;Node12 -->
<g id="edge12" class="edge">
<title>Node10&#45;&gt;Node12</title>
<path fill="none" stroke="midnightblue" d="M359.11,-377.9C328.66,-370.29 291.36,-360.97 270.85,-355.84"/>
<polygon fill="midnightblue" stroke="midnightblue" points="358.59,-381.38 369.14,-380.41 360.29,-374.59 358.59,-381.38"/>
</g>
<!-- Node13 -->
<g id="node13" class="node">
<title>Node13</title>
<g id="a_node13"><a xlink:href="group__NTS__TOE.html#gab3d23260a8a037543d01f716091df7e8" target="_top" xlink:title="Top of TCP Offload Engine (TOE)">
<polygon fill="none" stroke="black" points="119,-342.5 119,-361.5 172,-361.5 172,-342.5 119,-342.5"/>
<text text-anchor="middle" x="145.5" y="-349.5" font-family="Helvetica,sans-Serif" font-size="10.00">toe_top</text>
</a>
</g>
</g>
<!-- Node12&#45;&gt;Node13 -->
<g id="edge13" class="edge">
<title>Node12&#45;&gt;Node13</title>
<path fill="none" stroke="midnightblue" d="M227.93,-352C211.05,-352 189.02,-352 172.13,-352"/>
<polygon fill="midnightblue" stroke="midnightblue" points="228.17,-355.5 238.17,-352 228.17,-348.5 228.17,-355.5"/>
</g>
<!-- Node14 -->
<g id="node14" class="node">
<title>Node14</title>
<g id="a_node14"><a xlink:href="group__NTS__TOE__TEST.html#gae95a90fdba9993f0d4e2f27cd94f22e2" target="_top" xlink:title="A wrapper for the Toplevel of the TCP Offload Engine (TOE).">
<polygon fill="none" stroke="black" points="0,-342.5 0,-361.5 83,-361.5 83,-342.5 0,-342.5"/>
<text text-anchor="middle" x="41.5" y="-349.5" font-family="Helvetica,sans-Serif" font-size="10.00">toe_top_wrap</text>
</a>
</g>
</g>
<!-- Node13&#45;&gt;Node14 -->
<g id="edge14" class="edge">
<title>Node13&#45;&gt;Node14</title>
<path fill="none" stroke="midnightblue" d="M108.74,-352C100.52,-352 91.73,-352 83.32,-352"/>
<polygon fill="midnightblue" stroke="midnightblue" points="108.76,-355.5 118.76,-352 108.76,-348.5 108.76,-355.5"/>
</g>
<!-- Node16 -->
<g id="node16" class="node">
<title>Node16</title>
<g id="a_node16"><a xlink:href="group__NTS__TOE.html#ga1682a5e1b442e8347cda40bb8c695487" target="_top" xlink:title="Receive Engine (RXe)">
<polygon fill="none" stroke="black" points="376,-342.5 376,-361.5 441,-361.5 441,-342.5 376,-342.5"/>
<text text-anchor="middle" x="408.5" y="-349.5" font-family="Helvetica,sans-Serif" font-size="10.00">rx_engine</text>
</a>
</g>
</g>
<!-- Node15&#45;&gt;Node16 -->
<g id="edge16" class="edge">
<title>Node15&#45;&gt;Node16</title>
<path fill="none" stroke="midnightblue" d="M519.8,-352C493.04,-352 463.1,-352 441.18,-352"/>
<polygon fill="midnightblue" stroke="midnightblue" points="519.87,-355.5 529.87,-352 519.87,-348.5 519.87,-355.5"/>
</g>
<!-- Node16&#45;&gt;Node12 -->
<g id="edge17" class="edge">
<title>Node16&#45;&gt;Node12</title>
<path fill="none" stroke="midnightblue" d="M365.36,-352C333.84,-352 292.56,-352 270.66,-352"/>
<polygon fill="midnightblue" stroke="midnightblue" points="365.64,-355.5 375.64,-352 365.64,-348.5 365.64,-355.5"/>
</g>
<!-- Node18 -->
<g id="node18" class="node">
<title>Node18</title>
<g id="a_node18"><a xlink:href="group__tcp__shell__if.html#ga33d275a5a280034b43adfd415c7599b0" target="_top" xlink:title="TCP Shell Interface (TSIF)">
<polygon fill="none" stroke="black" points="372.5,-266.5 372.5,-285.5 444.5,-285.5 444.5,-266.5 372.5,-266.5"/>
<text text-anchor="middle" x="408.5" y="-273.5" font-family="Helvetica,sans-Serif" font-size="10.00">tcp_shell_if</text>
</a>
</g>
</g>
<!-- Node17&#45;&gt;Node18 -->
<g id="edge19" class="edge">
<title>Node17&#45;&gt;Node18</title>
<path fill="none" stroke="midnightblue" d="M540.34,-276C510.83,-276 472.22,-276 444.6,-276"/>
<polygon fill="midnightblue" stroke="midnightblue" points="540.36,-279.5 550.36,-276 540.36,-272.5 540.36,-279.5"/>
</g>
<!-- Node19 -->
<g id="node19" class="node">
<title>Node19</title>
<g id="a_node19"><a xlink:href="group__tcp__shell__if.html#ga0ddf1224851353fc92bfbff6f499fa97" target="_top" xlink:title="Main function for the test of the TCP Shell Interface (TSIF).">
<polygon fill="none" stroke="black" points="234,-247.5 234,-266.5 275,-266.5 275,-247.5 234,-247.5"/>
<text text-anchor="middle" x="254.5" y="-254.5" font-family="Helvetica,sans-Serif" font-size="10.00">main</text>
</a>
</g>
</g>
<!-- Node18&#45;&gt;Node19 -->
<g id="edge20" class="edge">
<title>Node18&#45;&gt;Node19</title>
<path fill="none" stroke="midnightblue" d="M361.95,-270.31C333.03,-266.69 297.06,-262.2 275.22,-259.46"/>
<polygon fill="midnightblue" stroke="midnightblue" points="361.89,-273.83 372.25,-271.59 362.76,-266.88 361.89,-273.83"/>
</g>
<!-- Node20 -->
<g id="node20" class="node">
<title>Node20</title>
<g id="a_node20"><a xlink:href="group__tcp__shell__if.html#gacb6dcd3aa444269175772a0373dc4d56" target="_top" xlink:title="Top of TCP Shell Interface (TSIF)">
<polygon fill="none" stroke="black" points="208,-285.5 208,-304.5 301,-304.5 301,-285.5 208,-285.5"/>
<text text-anchor="middle" x="254.5" y="-292.5" font-family="Helvetica,sans-Serif" font-size="10.00">tcp_shell_if_top</text>
</a>
</g>
</g>
<!-- Node18&#45;&gt;Node20 -->
<g id="edge21" class="edge">
<title>Node18&#45;&gt;Node20</title>
<path fill="none" stroke="midnightblue" d="M362.21,-281.66C342.95,-284.07 320.54,-286.87 301.23,-289.28"/>
<polygon fill="midnightblue" stroke="midnightblue" points="362.76,-285.12 372.25,-280.41 361.89,-278.17 362.76,-285.12"/>
</g>
<!-- Node22 -->
<g id="node22" class="node">
<title>Node22</title>
<g id="a_node22"><a xlink:href="group__NTS__TOE__TEST.html#ga656ce2d824cae491ba91d81572eb0f08" target="_top" xlink:title="Emulate the behavior of the Content Addressable Memory (TOECAM).">
<polygon fill="none" stroke="black" points="365.5,-228.5 365.5,-247.5 451.5,-247.5 451.5,-228.5 365.5,-228.5"/>
<text text-anchor="middle" x="408.5" y="-235.5" font-family="Helvetica,sans-Serif" font-size="10.00">pEmulateCam</text>
</a>
</g>
</g>
<!-- Node21&#45;&gt;Node22 -->
<g id="edge23" class="edge">
<title>Node21&#45;&gt;Node22</title>
<path fill="none" stroke="midnightblue" d="M531.15,-238C505.68,-238 475.47,-238 451.53,-238"/>
<polygon fill="midnightblue" stroke="midnightblue" points="531.38,-241.5 541.38,-238 531.38,-234.5 531.38,-241.5"/>
</g>
<!-- Node24 -->
<g id="node24" class="node">
<title>Node24</title>
<g id="a_node24"><a xlink:href="group__NTS__TOE__TEST.html#ga9a2995ad064c9297d100faa61cd553a9" target="_top" xlink:title="Parse the TCP/IP packets generated by the TOE.">
<polygon fill="none" stroke="black" points="370.5,-0.5 370.5,-19.5 446.5,-19.5 446.5,-0.5 370.5,-0.5"/>
<text text-anchor="middle" x="408.5" y="-7.5" font-family="Helvetica,sans-Serif" font-size="10.00">pIPTX_Parse</text>
</a>
</g>
</g>
<!-- Node23&#45;&gt;Node24 -->
<g id="edge25" class="edge">
<title>Node23&#45;&gt;Node24</title>
<path fill="none" stroke="midnightblue" d="M509.93,-10C488.12,-10 465.15,-10 446.69,-10"/>
<polygon fill="midnightblue" stroke="midnightblue" points="510.19,-13.5 520.19,-10 510.19,-6.5 510.19,-13.5"/>
</g>
<!-- Node25 -->
<g id="node25" class="node">
<title>Node25</title>
<g id="a_node25"><a xlink:href="group__NTS__TOE__TEST.html#ga5555b85edfa105eb62cf20f0dbdf5962" target="_top" xlink:title="Emulate the behavior of the IP Tx Handler (IPTX).">
<polygon fill="none" stroke="black" points="232.5,-0.5 232.5,-19.5 276.5,-19.5 276.5,-0.5 232.5,-0.5"/>
<text text-anchor="middle" x="254.5" y="-7.5" font-family="Helvetica,sans-Serif" font-size="10.00">pIPTX</text>
</a>
</g>
</g>
<!-- Node24&#45;&gt;Node25 -->
<g id="edge26" class="edge">
<title>Node24&#45;&gt;Node25</title>
<path fill="none" stroke="midnightblue" d="M359.97,-10C332.12,-10 298.3,-10 276.84,-10"/>
<polygon fill="midnightblue" stroke="midnightblue" points="360.32,-13.5 370.32,-10 360.32,-6.5 360.32,-13.5"/>
</g>
<!-- Node27 -->
<g id="node27" class="node">
<title>Node27</title>
<g id="a_node27"><a xlink:href="group__NTS__TOE.html#gab7ba01372a1e4397ba0ce6d9cbb398eb" target="_top" xlink:title="Transmit Engine (TXe)">
<polygon fill="none" stroke="black" points="376,-304.5 376,-323.5 441,-323.5 441,-304.5 376,-304.5"/>
<text text-anchor="middle" x="408.5" y="-311.5" font-family="Helvetica,sans-Serif" font-size="10.00">tx_engine</text>
</a>
</g>
</g>
<!-- Node26&#45;&gt;Node27 -->
<g id="edge28" class="edge">
<title>Node26&#45;&gt;Node27</title>
<path fill="none" stroke="midnightblue" d="M520.22,-314C493.32,-314 463.15,-314 441.1,-314"/>
<polygon fill="midnightblue" stroke="midnightblue" points="520.35,-317.5 530.35,-314 520.35,-310.5 520.35,-317.5"/>
</g>
<!-- Node27&#45;&gt;Node12 -->
<g id="edge29" class="edge">
<title>Node27&#45;&gt;Node12</title>
<path fill="none" stroke="midnightblue" d="M365.77,-324.43C334.2,-332.32 292.65,-342.71 270.66,-348.21"/>
<polygon fill="midnightblue" stroke="midnightblue" points="366.78,-327.79 375.64,-321.97 365.09,-321 366.78,-327.79"/>
</g>
<!-- Node30 -->
<g id="node30" class="node">
<title>Node30</title>
<g id="a_node30"><a xlink:href="group__udp__shell__if.html#ga0ddf1224851353fc92bfbff6f499fa97" target="_top" xlink:title="Main function for the test of the UDP Shell Interface (USIF).">
<polygon fill="none" stroke="black" points="388,-38.5 388,-57.5 429,-57.5 429,-38.5 388,-38.5"/>
<text text-anchor="middle" x="408.5" y="-45.5" font-family="Helvetica,sans-Serif" font-size="10.00">main</text>
</a>
</g>
</g>
<!-- Node29&#45;&gt;Node30 -->
<g id="edge32" class="edge">
<title>Node29&#45;&gt;Node30</title>
<path fill="none" stroke="midnightblue" d="M551.8,-48C516.04,-48 458.97,-48 429.13,-48"/>
<polygon fill="midnightblue" stroke="midnightblue" points="552.16,-51.5 562.16,-48 552.16,-44.5 552.16,-51.5"/>
</g>
<!-- Node32 -->
<g id="node32" class="node">
<title>Node32</title>
<g id="a_node32"><a xlink:href="udp_8cpp.html#a50055eb4ca1f517dcf735489825fdd37" target="_top" xlink:title=" ">
<polygon fill="none" stroke="black" points="379,-190.5 379,-209.5 438,-209.5 438,-190.5 379,-190.5"/>
<text text-anchor="middle" x="408.5" y="-197.5" font-family="Helvetica,sans-Serif" font-size="10.00">rxEngine</text>
</a>
</g>
</g>
<!-- Node31&#45;&gt;Node32 -->
<g id="edge34" class="edge">
<title>Node31&#45;&gt;Node32</title>
<path fill="none" stroke="midnightblue" d="M532.57,-200C501.78,-200 463.67,-200 438.09,-200"/>
<polygon fill="midnightblue" stroke="midnightblue" points="532.7,-203.5 542.7,-200 532.7,-196.5 532.7,-203.5"/>
</g>
<!-- Node32&#45;&gt;Node4 -->
<g id="edge35" class="edge">
<title>Node32&#45;&gt;Node4</title>
<path fill="none" stroke="midnightblue" d="M368.8,-195.16C337.62,-191.26 295.29,-185.97 272.2,-183.09"/>
<polygon fill="midnightblue" stroke="midnightblue" points="368.55,-198.66 378.91,-196.43 369.42,-191.71 368.55,-198.66"/>
</g>
</g>
</svg>
