<?xml version="1.0" encoding="UTF-8" standalone="no"?>
<!DOCTYPE svg PUBLIC "-//W3C//DTD SVG 1.1//EN"
 "http://www.w3.org/Graphics/SVG/1.1/DTD/svg11.dtd">
<!-- Generated by graphviz version 2.43.0 (0)
 -->
<!-- Title: byteSwap16 Pages: 1 -->
<!--zoomable 812 -->
<svg id="main" version="1.1" xmlns="http://www.w3.org/2000/svg" xmlns:xlink="http://www.w3.org/1999/xlink" xml:space="preserve" onload="init(evt)">
<style type="text/css"><![CDATA[
.edge:hover path { stroke: red; }
.edge:hover polygon { stroke: red; fill: red; }
]]></style>
<script type="text/javascript"><![CDATA[
var edges = document.getElementsByTagName('g');
if (edges && edges.length) {
  for (var i=0;i<edges.length;i++) {
    if (edges[i].id.substr(0,4)=='edge') {
      edges[i].setAttribute('class','edge');
    }
  }
}
]]></script>
        <defs>
                <circle id="rim" cx="0" cy="0" r="7"/>
                <circle id="rim2" cx="0" cy="0" r="3.5"/>
                <g id="zoomPlus">
                        <use xlink:href="#rim" fill="#404040">
                                <set attributeName="fill" to="#808080" begin="zoomplus.mouseover" end="zoomplus.mouseout"/>
                        </use>
                        <path d="M-4,0h8M0,-4v8" fill="none" stroke="white" stroke-width="1.5" pointer-events="none"/>
                </g>
                <g id="zoomMin">
                        <use xlink:href="#rim" fill="#404040">
                                <set attributeName="fill" to="#808080" begin="zoomminus.mouseover" end="zoomminus.mouseout"/>
                        </use>
                        <path d="M-4,0h8" fill="none" stroke="white" stroke-width="1.5" pointer-events="none"/>
                </g>
                <g id="dirArrow">
                        <path fill="none" stroke="white" stroke-width="1.5" d="M0,-3.0v7 M-2.5,-0.5L0,-3.0L2.5,-0.5"/>
                </g>
               <g id="resetDef">
                       <use xlink:href="#rim2" fill="#404040">
                               <set attributeName="fill" to="#808080" begin="reset.mouseover" end="reset.mouseout"/>
                       </use>
               </g>
        </defs>

<script type="text/javascript">
var viewWidth = 928;
var viewHeight = 812;
var sectionId = 'dynsection-3';
</script>
<script xlink:href="svgpan.js"/>
<svg id="graph" class="graph">
<g id="viewport">
<title>byteSwap16</title>
<!-- Node1 -->
<g id="node1" class="node">
<title>Node1</title>
<g id="a_node1"><a xlink:title=" ">
<polygon fill="#bfbfbf" stroke="black" points="843,-380.5 843,-399.5 920,-399.5 920,-380.5 843,-380.5"/>
<text text-anchor="middle" x="881.5" y="-387.5" font-family="Helvetica,sans-Serif" font-size="10.00">byteSwap16</text>
</a>
</g>
</g>
<!-- Node2 -->
<g id="node2" class="node">
<title>Node2</title>
<g id="a_node2"><a xlink:href="udp_8cpp.html#a81785bdba700074bf8a87c69cd60cc82" target="_top" xlink:title=" ">
<polygon fill="none" stroke="black" points="690,-632.5 690,-651.5 769,-651.5 769,-632.5 690,-632.5"/>
<text text-anchor="middle" x="729.5" y="-639.5" font-family="Helvetica,sans-Serif" font-size="10.00">addIpHeader</text>
</a>
</g>
</g>
<!-- Node1&#45;&gt;Node2 -->
<g id="edge1" class="edge">
<title>Node1&#45;&gt;Node2</title>
<path fill="none" stroke="midnightblue" d="M879.94,-410.07C877.6,-454.06 865.81,-559.65 807,-618 796.92,-628 782.73,-633.84 769.3,-637.25"/>
<polygon fill="midnightblue" stroke="midnightblue" points="883.44,-409.97 880.36,-399.84 876.45,-409.68 883.44,-409.97"/>
</g>
<!-- Node5 -->
<g id="node5" class="node">
<title>Node5</title>
<g id="a_node5"><a xlink:href="classSimIcmpPacket.html#a7fa78af009cca666a504cb6410274c7b" target="_top" xlink:title=" ">
<polygon fill="none" stroke="black" points="463,-659 463,-689 604,-689 604,-659 463,-659"/>
<text text-anchor="start" x="471" y="-677" font-family="Helvetica,sans-Serif" font-size="10.00">SimIcmpPacket::calculate</text>
<text text-anchor="middle" x="533.5" y="-666" font-family="Helvetica,sans-Serif" font-size="10.00">IcmpChecksum</text>
</a>
</g>
</g>
<!-- Node1&#45;&gt;Node5 -->
<g id="edge4" class="edge">
<title>Node1&#45;&gt;Node5</title>
<path fill="none" stroke="midnightblue" d="M878.97,-409.85C874.83,-449.38 859.84,-538.15 807,-585 753.93,-632.06 719.22,-600.35 652,-623 621.86,-633.15 588.73,-647.88 565.36,-658.9"/>
<polygon fill="midnightblue" stroke="midnightblue" points="882.46,-410.16 879.89,-399.88 875.49,-409.51 882.46,-410.16"/>
</g>
<!-- Node9 -->
<g id="node9" class="node">
<title>Node9</title>
<g id="a_node9"><a xlink:href="classSimTcpSegment.html#a6f46c479e1c605aaa05bacb0f211276e" target="_top" xlink:title="Calculate the TCP checksum of the segment.">
<polygon fill="none" stroke="black" points="657,-457 657,-487 802,-487 802,-457 657,-457"/>
<text text-anchor="start" x="665" y="-475" font-family="Helvetica,sans-Serif" font-size="10.00">SimTcpSegment::calculate</text>
<text text-anchor="middle" x="729.5" y="-464" font-family="Helvetica,sans-Serif" font-size="10.00">TcpChecksum</text>
</a>
</g>
</g>
<!-- Node1&#45;&gt;Node9 -->
<g id="edge9" class="edge">
<title>Node1&#45;&gt;Node9</title>
<path fill="none" stroke="midnightblue" d="M862.83,-406.55C848.65,-419.09 827.75,-435.99 807,-447 799.96,-450.73 792.27,-454.04 784.56,-456.93"/>
<polygon fill="midnightblue" stroke="midnightblue" points="865.28,-409.05 870.35,-399.75 860.58,-403.86 865.28,-409.05"/>
</g>
<!-- Node10 -->
<g id="node10" class="node">
<title>Node10</title>
<g id="a_node10"><a xlink:href="classSimUdpDatagram.html#a548bbafdc75719ff512dcc44e5e47d7e" target="_top" xlink:title="Calculate the UDP checksum of the datagram.">
<polygon fill="none" stroke="black" points="652.5,-545 652.5,-575 806.5,-575 806.5,-545 652.5,-545"/>
<text text-anchor="start" x="660.5" y="-563" font-family="Helvetica,sans-Serif" font-size="10.00">SimUdpDatagram::calculate</text>
<text text-anchor="middle" x="729.5" y="-552" font-family="Helvetica,sans-Serif" font-size="10.00">UdpChecksum</text>
</a>
</g>
</g>
<!-- Node1&#45;&gt;Node10 -->
<g id="edge10" class="edge">
<title>Node1&#45;&gt;Node10</title>
<path fill="none" stroke="midnightblue" d="M875.73,-409.75C867.23,-440.84 846.5,-501.13 807,-535 802.54,-538.82 797.49,-542.06 792.16,-544.81"/>
<polygon fill="midnightblue" stroke="midnightblue" points="879.21,-410.28 878.33,-399.72 872.44,-408.53 879.21,-410.28"/>
</g>
<!-- Node22 -->
<g id="node18" class="node">
<title>Node22</title>
<g id="a_node18"><a xlink:href="udp_8cpp.html#ae9d746a44b78299bf262dcc5ed518c74" target="_top" xlink:title=" ">
<polygon fill="none" stroke="black" points="675.5,-784.5 675.5,-803.5 783.5,-803.5 783.5,-784.5 675.5,-784.5"/>
<text text-anchor="middle" x="729.5" y="-791.5" font-family="Helvetica,sans-Serif" font-size="10.00">inputPathRxEngine</text>
</a>
</g>
</g>
<!-- Node1&#45;&gt;Node22 -->
<g id="edge20" class="edge">
<title>Node1&#45;&gt;Node22</title>
<path fill="none" stroke="midnightblue" d="M879.46,-409.96C875.34,-481.16 857.85,-721.28 807,-775 800.7,-781.66 792.45,-786.13 783.72,-789.11"/>
<polygon fill="midnightblue" stroke="midnightblue" points="882.97,-409.88 880.03,-399.7 875.98,-409.49 882.97,-409.88"/>
</g>
<!-- Node24 -->
<g id="node20" class="node">
<title>Node24</title>
<g id="a_node20"><a xlink:href="udp_8cpp.html#ac9534443c048247ba677ee69e19efca9" target="_top" xlink:title=" ">
<polygon fill="none" stroke="black" points="662,-708.5 662,-727.5 797,-727.5 797,-708.5 662,-708.5"/>
<text text-anchor="middle" x="729.5" y="-715.5" font-family="Helvetica,sans-Serif" font-size="10.00">outputPathReadFunction</text>
</a>
</g>
</g>
<!-- Node1&#45;&gt;Node24 -->
<g id="edge23" class="edge">
<title>Node1&#45;&gt;Node24</title>
<path fill="none" stroke="midnightblue" d="M878.45,-409.88C871.72,-471.44 848.28,-657.31 807,-699 803.24,-702.79 798.86,-705.87 794.12,-708.36"/>
<polygon fill="midnightblue" stroke="midnightblue" points="881.97,-409.91 879.55,-399.6 875.01,-409.17 881.97,-409.91"/>
</g>
<!-- Node25 -->
<g id="node21" class="node">
<title>Node25</title>
<g id="a_node21"><a xlink:href="udp_8cpp.html#a0161cf9540ca39a6468a0c32b019d8cc" target="_top" xlink:title=" ">
<polygon fill="none" stroke="black" points="661,-670.5 661,-689.5 798,-689.5 798,-670.5 661,-670.5"/>
<text text-anchor="middle" x="729.5" y="-677.5" font-family="Helvetica,sans-Serif" font-size="10.00">outputPathWriteFunction</text>
</a>
</g>
</g>
<!-- Node1&#45;&gt;Node25 -->
<g id="edge25" class="edge">
<title>Node1&#45;&gt;Node25</title>
<path fill="none" stroke="midnightblue" d="M877.78,-409.61C869.61,-465.73 843.58,-625.19 807,-661 803.09,-664.83 798.53,-667.93 793.63,-670.42"/>
<polygon fill="midnightblue" stroke="midnightblue" points="881.27,-409.95 879.21,-399.56 874.34,-408.97 881.27,-409.95"/>
</g>
<!-- Node26 -->
<g id="node22" class="node">
<title>Node26</title>
<g id="a_node22"><a xlink:href="group__NTS__TOE.html#gaa0e03c71d906be782ee98e91d2f073a9" target="_top" xlink:title="Insert pseudo header (Iph)">
<polygon fill="none" stroke="black" points="669,-342.5 669,-361.5 790,-361.5 790,-342.5 669,-342.5"/>
<text text-anchor="middle" x="729.5" y="-349.5" font-family="Helvetica,sans-Serif" font-size="10.00">pInsertPseudoHeader</text>
</a>
</g>
</g>
<!-- Node1&#45;&gt;Node26 -->
<g id="edge27" class="edge">
<title>Node1&#45;&gt;Node26</title>
<path fill="none" stroke="midnightblue" d="M833.98,-377.9C825.03,-375.6 815.73,-373.21 807,-371 794.8,-367.91 781.48,-364.58 769.44,-361.59"/>
<polygon fill="midnightblue" stroke="midnightblue" points="833.32,-381.35 843.88,-380.46 835.07,-374.57 833.32,-381.35"/>
</g>
<!-- Node31 -->
<g id="node25" class="node">
<title>Node31</title>
<g id="a_node25"><a xlink:href="group__NTS__IPRX.html#gae3bc92369e84aaf6ce498bc596412800" target="_top" xlink:title=" ">
<polygon fill="none" stroke="black" points="657.5,-266.5 657.5,-285.5 801.5,-285.5 801.5,-266.5 657.5,-266.5"/>
<text text-anchor="middle" x="729.5" y="-273.5" font-family="Helvetica,sans-Serif" font-size="10.00">pIpChecksumAccumulator</text>
</a>
</g>
</g>
<!-- Node1&#45;&gt;Node31 -->
<g id="edge30" class="edge">
<title>Node1&#45;&gt;Node31</title>
<path fill="none" stroke="midnightblue" d="M871.24,-371.58C859.35,-349.89 836.69,-314.36 807,-295 801.04,-291.11 794.34,-288.02 787.46,-285.56"/>
<polygon fill="midnightblue" stroke="midnightblue" points="868.16,-373.26 875.92,-380.47 874.35,-369.99 868.16,-373.26"/>
</g>
<!-- Node36 -->
<g id="node28" class="node">
<title>Node36</title>
<g id="a_node28"><a xlink:href="group__NTS__TOE__TEST.html#ga1c5c20696afed462358c80faea6e8494" target="_top" xlink:title="Take the ACK number of a session and inject it into the sequence number field of the current packet.">
<polygon fill="none" stroke="black" points="662.5,-506.5 662.5,-525.5 796.5,-525.5 796.5,-506.5 662.5,-506.5"/>
<text text-anchor="middle" x="729.5" y="-513.5" font-family="Helvetica,sans-Serif" font-size="10.00">pIPRX_InjectAckNumber</text>
</a>
</g>
</g>
<!-- Node1&#45;&gt;Node36 -->
<g id="edge33" class="edge">
<title>Node1&#45;&gt;Node36</title>
<path fill="none" stroke="midnightblue" d="M872.65,-408.97C861.63,-433.2 839.25,-474.64 807,-497 801.38,-500.9 795.03,-504 788.46,-506.46"/>
<polygon fill="midnightblue" stroke="midnightblue" points="875.88,-410.32 876.67,-399.75 869.47,-407.52 875.88,-410.32"/>
</g>
<!-- Node38 -->
<g id="node30" class="node">
<title>Node38</title>
<g id="a_node30"><a xlink:href="group__NTS__TOE.html#ga57d2070956ed6cfb2c6a787c77b63f5a" target="_top" xlink:title="Lookup Reply Handler (Lrh)">
<polygon fill="none" stroke="black" points="668,-418.5 668,-437.5 791,-437.5 791,-418.5 668,-418.5"/>
<text text-anchor="middle" x="729.5" y="-425.5" font-family="Helvetica,sans-Serif" font-size="10.00">pLookupReplyHandler</text>
</a>
</g>
</g>
<!-- Node1&#45;&gt;Node38 -->
<g id="edge36" class="edge">
<title>Node1&#45;&gt;Node38</title>
<path fill="none" stroke="midnightblue" d="M833.98,-402.1C825.03,-404.4 815.73,-406.79 807,-409 794.8,-412.09 781.48,-415.42 769.44,-418.41"/>
<polygon fill="midnightblue" stroke="midnightblue" points="835.07,-405.43 843.88,-399.54 833.32,-398.65 835.07,-405.43"/>
</g>
<!-- Node41 -->
<g id="node33" class="node">
<title>Node41</title>
<g id="a_node33"><a xlink:href="group__NTS__TOE.html#ga8662fb114e539be4f8947dccc7d04eb5" target="_top" xlink:title="MetaData Handler (Mdh)">
<polygon fill="none" stroke="black" points="675,-380.5 675,-399.5 784,-399.5 784,-380.5 675,-380.5"/>
<text text-anchor="middle" x="729.5" y="-387.5" font-family="Helvetica,sans-Serif" font-size="10.00">pMetaDataHandler</text>
</a>
</g>
</g>
<!-- Node1&#45;&gt;Node41 -->
<g id="edge40" class="edge">
<title>Node1&#45;&gt;Node41</title>
<path fill="none" stroke="midnightblue" d="M832.34,-390C816.99,-390 799.92,-390 784.2,-390"/>
<polygon fill="midnightblue" stroke="midnightblue" points="832.65,-393.5 842.65,-390 832.65,-386.5 832.65,-393.5"/>
</g>
<!-- Node42 -->
<g id="node34" class="node">
<title>Node42</title>
<g id="a_node34"><a xlink:href="group__tcp__shell__if.html#ga588e42b7145e4d3aaa4b31a9f8b00505" target="_top" xlink:title="Read Path (RDp)">
<polygon fill="none" stroke="black" points="695.5,-228.5 695.5,-247.5 763.5,-247.5 763.5,-228.5 695.5,-228.5"/>
<text text-anchor="middle" x="729.5" y="-235.5" font-family="Helvetica,sans-Serif" font-size="10.00">pReadPath</text>
</a>
</g>
</g>
<!-- Node1&#45;&gt;Node42 -->
<g id="edge42" class="edge">
<title>Node1&#45;&gt;Node42</title>
<path fill="none" stroke="midnightblue" d="M875.14,-370.31C866.12,-340.99 845.04,-286.2 807,-257 794.62,-247.5 778.1,-242.69 763.58,-240.28"/>
<polygon fill="midnightblue" stroke="midnightblue" points="871.86,-371.57 878.02,-380.19 878.58,-369.61 871.86,-371.57"/>
</g>
<!-- Node46 -->
<g id="node37" class="node">
<title>Node46</title>
<g id="a_node37"><a xlink:href="group__NTS__TOE.html#ga211a909ee900030824ab98148898c9d1" target="_top" xlink:title="Print a socket pair association from an internal FourTuple encoding.">
<polygon fill="none" stroke="black" points="686.5,-190.5 686.5,-209.5 772.5,-209.5 772.5,-190.5 686.5,-190.5"/>
<text text-anchor="middle" x="729.5" y="-197.5" font-family="Helvetica,sans-Serif" font-size="10.00">printFourTuple</text>
</a>
</g>
</g>
<!-- Node1&#45;&gt;Node46 -->
<g id="edge45" class="edge">
<title>Node1&#45;&gt;Node46</title>
<path fill="none" stroke="midnightblue" d="M877.73,-369.91C871.69,-334 853.89,-258.83 807,-219 797.4,-210.85 784.83,-206.1 772.65,-203.37"/>
<polygon fill="midnightblue" stroke="midnightblue" points="874.32,-370.75 879.3,-380.1 881.24,-369.68 874.32,-370.75"/>
</g>
<!-- Node48 -->
<g id="node39" class="node">
<title>Node48</title>
<g id="a_node39"><a xlink:href="classSimIp4Packet.html#acd45073036bd1f8641b8bfc3ea46a49f" target="_top" xlink:title="Print the header details of an IP packet.">
<polygon fill="none" stroke="black" points="665.5,-152.5 665.5,-171.5 793.5,-171.5 793.5,-152.5 665.5,-152.5"/>
<text text-anchor="middle" x="729.5" y="-159.5" font-family="Helvetica,sans-Serif" font-size="10.00">SimIp4Packet::printHdr</text>
</a>
</g>
</g>
<!-- Node1&#45;&gt;Node48 -->
<g id="edge47" class="edge">
<title>Node1&#45;&gt;Node48</title>
<path fill="none" stroke="midnightblue" d="M879.54,-370.21C876.42,-328.69 863.18,-232.1 807,-181 802.75,-177.13 797.83,-174.02 792.58,-171.53"/>
<polygon fill="midnightblue" stroke="midnightblue" points="876.06,-370.62 880.18,-380.38 883.05,-370.18 876.06,-370.62"/>
</g>
<!-- Node50 -->
<g id="node41" class="node">
<title>Node50</title>
<g id="a_node41"><a xlink:href="group__NTS__TOE.html#gaec2014c0d41b0e8e0bdf3b08c039388f" target="_top" xlink:title=" ">
<polygon fill="none" stroke="black" points="675.5,-304.5 675.5,-323.5 783.5,-323.5 783.5,-304.5 675.5,-304.5"/>
<text text-anchor="middle" x="729.5" y="-311.5" font-family="Helvetica,sans-Serif" font-size="10.00">pSocketPairSplitter</text>
</a>
</g>
</g>
<!-- Node1&#45;&gt;Node50 -->
<g id="edge49" class="edge">
<title>Node1&#45;&gt;Node50</title>
<path fill="none" stroke="midnightblue" d="M863.52,-373.47C849.46,-360.64 828.38,-343.37 807,-333 799.12,-329.18 790.4,-326.08 781.75,-323.58"/>
<polygon fill="midnightblue" stroke="midnightblue" points="861.25,-376.13 870.94,-380.41 866.04,-371.02 861.25,-376.13"/>
</g>
<!-- Node52 -->
<g id="node43" class="node">
<title>Node52</title>
<g id="a_node43"><a xlink:href="group__tcp__shell__if.html#ga4d29cb2d828e67dfdd9c7538336b2f04" target="_top" xlink:title="Emulate behavior of the SHELL/NTS/TCP Offload Engine (TOE).">
<polygon fill="none" stroke="black" points="708.5,-114.5 708.5,-133.5 750.5,-133.5 750.5,-114.5 708.5,-114.5"/>
<text text-anchor="middle" x="729.5" y="-121.5" font-family="Helvetica,sans-Serif" font-size="10.00">pTOE</text>
</a>
</g>
</g>
<!-- Node1&#45;&gt;Node52 -->
<g id="edge52" class="edge">
<title>Node1&#45;&gt;Node52</title>
<path fill="none" stroke="midnightblue" d="M880.79,-370.22C880.36,-323.49 872.45,-205.52 807,-143 791.96,-128.63 767.81,-124.63 750.67,-123.75"/>
<polygon fill="midnightblue" stroke="midnightblue" points="877.29,-370.25 880.78,-380.25 884.29,-370.26 877.29,-370.25"/>
</g>
<!-- Node53 -->
<g id="node44" class="node">
<title>Node53</title>
<g id="a_node44"><a xlink:href="group__NTS__UOE.html#ga049dc0a8894b4489363d6e958fab1332" target="_top" xlink:title=" ">
<polygon fill="none" stroke="black" points="652,-76.5 652,-95.5 807,-95.5 807,-76.5 652,-76.5"/>
<text text-anchor="middle" x="729.5" y="-83.5" font-family="Helvetica,sans-Serif" font-size="10.00">pUdpChecksumAccumulator</text>
</a>
</g>
</g>
<!-- Node1&#45;&gt;Node53 -->
<g id="edge53" class="edge">
<title>Node1&#45;&gt;Node53</title>
<path fill="none" stroke="midnightblue" d="M878.03,-370.14C870.38,-311.85 845.28,-142.94 807,-105 803.11,-101.15 798.57,-98.03 793.68,-95.52"/>
<polygon fill="midnightblue" stroke="midnightblue" points="874.58,-370.78 879.32,-380.25 881.52,-369.89 874.58,-370.78"/>
</g>
<!-- Node58 -->
<g id="node46" class="node">
<title>Node58</title>
<g id="a_node46"><a xlink:href="group__NTS__UOE.html#ga2a359e091f9f35fcd4f5564574eafc6c" target="_top" xlink:title=" ">
<polygon fill="none" stroke="black" points="663.5,-38.5 663.5,-57.5 795.5,-57.5 795.5,-38.5 663.5,-38.5"/>
<text text-anchor="middle" x="729.5" y="-45.5" font-family="Helvetica,sans-Serif" font-size="10.00">pUdpChecksumChecker</text>
</a>
</g>
</g>
<!-- Node1&#45;&gt;Node58 -->
<g id="edge55" class="edge">
<title>Node1&#45;&gt;Node58</title>
<path fill="none" stroke="midnightblue" d="M878.67,-370.05C872.43,-306.58 850.02,-110.88 807,-67 803.26,-63.19 798.89,-60.1 794.16,-57.6"/>
<polygon fill="midnightblue" stroke="midnightblue" points="875.21,-370.68 879.64,-380.3 882.18,-370.01 875.21,-370.68"/>
</g>
<!-- Node60 -->
<g id="node48" class="node">
<title>Node60</title>
<g id="a_node48"><a xlink:href="group__udp__shell__if.html#gad2f4a79a5d25be1a5112d627ca6e3dc0" target="_top" xlink:title="Emulate behavior of the SHELL/NTS/UDP Offload Engine (UOE).">
<polygon fill="none" stroke="black" points="707.5,-0.5 707.5,-19.5 751.5,-19.5 751.5,-0.5 707.5,-0.5"/>
<text text-anchor="middle" x="729.5" y="-7.5" font-family="Helvetica,sans-Serif" font-size="10.00">pUOE</text>
</a>
</g>
</g>
<!-- Node1&#45;&gt;Node60 -->
<g id="edge57" class="edge">
<title>Node1&#45;&gt;Node60</title>
<path fill="none" stroke="midnightblue" d="M879.18,-369.97C874.26,-301.59 854.79,-78.87 807,-29 792.8,-14.18 768.97,-10.2 751.68,-9.45"/>
<polygon fill="midnightblue" stroke="midnightblue" points="875.71,-370.49 879.89,-380.22 882.69,-370.01 875.71,-370.49"/>
</g>
<!-- Node62 -->
<g id="node50" class="node">
<title>Node62</title>
<g id="a_node50"><a xlink:href="udp_8cpp.html#a9b4c08d9aba53de32255cb80e946b26a" target="_top" xlink:title=" ">
<polygon fill="none" stroke="black" points="688,-746.5 688,-765.5 771,-765.5 771,-746.5 688,-746.5"/>
<text text-anchor="middle" x="729.5" y="-753.5" font-family="Helvetica,sans-Serif" font-size="10.00">stripIpHeader</text>
</a>
</g>
</g>
<!-- Node1&#45;&gt;Node62 -->
<g id="edge59" class="edge">
<title>Node1&#45;&gt;Node62</title>
<path fill="none" stroke="midnightblue" d="M878.99,-410.11C873.59,-476.83 853.01,-689.37 807,-737 797.68,-746.65 784.29,-751.69 771.3,-754.24"/>
<polygon fill="midnightblue" stroke="midnightblue" points="882.51,-409.98 879.8,-399.73 875.54,-409.43 882.51,-409.98"/>
</g>
<!-- Node3 -->
<g id="node3" class="node">
<title>Node3</title>
<g id="a_node3"><a xlink:href="udp_8cpp.html#ab52d8919cd270177a9b1fa89607abae7" target="_top" xlink:title=" ">
<polygon fill="none" stroke="black" points="504,-708.5 504,-727.5 563,-727.5 563,-708.5 504,-708.5"/>
<text text-anchor="middle" x="533.5" y="-715.5" font-family="Helvetica,sans-Serif" font-size="10.00">txEngine</text>
</a>
</g>
</g>
<!-- Node2&#45;&gt;Node3 -->
<g id="edge2" class="edge">
<title>Node2&#45;&gt;Node3</title>
<path fill="none" stroke="midnightblue" d="M679.94,-649.65C670.28,-652.36 660.51,-656.04 652,-661 631.9,-672.72 636.18,-687.43 616,-699 599.87,-708.25 579.49,-713 563.15,-715.44"/>
<polygon fill="midnightblue" stroke="midnightblue" points="681.05,-652.97 689.9,-647.15 679.35,-646.19 681.05,-652.97"/>
</g>
<!-- Node4 -->
<g id="node4" class="node">
<title>Node4</title>
<g id="a_node4"><a xlink:href="udp_8cpp.html#acf22a8b8213aa04e7082893eeadbc166" target="_top" xlink:title=" ">
<polygon fill="none" stroke="black" points="305,-746.5 305,-765.5 340,-765.5 340,-746.5 305,-746.5"/>
<text text-anchor="middle" x="322.5" y="-753.5" font-family="Helvetica,sans-Serif" font-size="10.00">udp</text>
</a>
</g>
</g>
<!-- Node3&#45;&gt;Node4 -->
<g id="edge3" class="edge">
<title>Node3&#45;&gt;Node4</title>
<path fill="none" stroke="midnightblue" d="M493.98,-725C448.07,-733.35 373.41,-746.93 340.26,-752.95"/>
<polygon fill="midnightblue" stroke="midnightblue" points="494.67,-728.44 503.88,-723.2 493.41,-721.55 494.67,-728.44"/>
</g>
<!-- Node6 -->
<g id="node6" class="node">
<title>Node6</title>
<g id="a_node6"><a xlink:href="group__NTS__ICMP__TEST.html#ga652464dca3fe1c76270d52a9acdc94a5" target="_top" xlink:title="Create the golden reference file from an input test file.">
<polygon fill="none" stroke="black" points="86,-664.5 86,-683.5 185,-683.5 185,-664.5 86,-664.5"/>
<text text-anchor="middle" x="135.5" y="-671.5" font-family="Helvetica,sans-Serif" font-size="10.00">createGoldenFile</text>
</a>
</g>
</g>
<!-- Node5&#45;&gt;Node6 -->
<g id="edge5" class="edge">
<title>Node5&#45;&gt;Node6</title>
<path fill="none" stroke="midnightblue" d="M463.93,-691.11C447.97,-694.39 430.97,-697.32 415,-699 333.23,-707.6 311.52,-709.71 230,-699 207.68,-696.07 183.1,-689.35 164.76,-683.62"/>
<polygon fill="midnightblue" stroke="midnightblue" points="464.66,-694.53 473.71,-689.03 463.21,-687.68 464.66,-694.53"/>
</g>
<!-- Node8 -->
<g id="node8" class="node">
<title>Node8</title>
<g id="a_node8"><a xlink:href="classSimIcmpPacket.html#a8b9bf5b28ebde0d389f51bc3389ea429" target="_top" xlink:title="Recalculate the ICMP checksum of a packet.">
<polygon fill="none" stroke="black" points="246.5,-659 246.5,-689 398.5,-689 398.5,-659 246.5,-659"/>
<text text-anchor="start" x="254.5" y="-677" font-family="Helvetica,sans-Serif" font-size="10.00">SimIcmpPacket::reCalculate</text>
<text text-anchor="middle" x="322.5" y="-666" font-family="Helvetica,sans-Serif" font-size="10.00">IcmpChecksum</text>
</a>
</g>
</g>
<!-- Node5&#45;&gt;Node8 -->
<g id="edge7" class="edge">
<title>Node5&#45;&gt;Node8</title>
<path fill="none" stroke="midnightblue" d="M452.59,-674C434.84,-674 416.08,-674 398.53,-674"/>
<polygon fill="midnightblue" stroke="midnightblue" points="452.91,-677.5 462.91,-674 452.91,-670.5 452.91,-677.5"/>
</g>
<!-- Node7 -->
<g id="node7" class="node">
<title>Node7</title>
<g id="a_node7"><a xlink:href="group__NTS__ICMP__TEST.html#ga0ddf1224851353fc92bfbff6f499fa97" target="_top" xlink:title="Main function.">
<polygon fill="none" stroke="black" points="0,-664.5 0,-683.5 41,-683.5 41,-664.5 0,-664.5"/>
<text text-anchor="middle" x="20.5" y="-671.5" font-family="Helvetica,sans-Serif" font-size="10.00">main</text>
</a>
</g>
</g>
<!-- Node6&#45;&gt;Node7 -->
<g id="edge6" class="edge">
<title>Node6&#45;&gt;Node7</title>
<path fill="none" stroke="midnightblue" d="M75.86,-674C63.3,-674 50.88,-674 41.09,-674"/>
<polygon fill="midnightblue" stroke="midnightblue" points="75.92,-677.5 85.92,-674 75.92,-670.5 75.92,-677.5"/>
</g>
<!-- Node8&#45;&gt;Node6 -->
<g id="edge8" class="edge">
<title>Node8&#45;&gt;Node6</title>
<path fill="none" stroke="midnightblue" d="M236.03,-674C218.58,-674 200.79,-674 185.17,-674"/>
<polygon fill="midnightblue" stroke="midnightblue" points="236.25,-677.5 246.25,-674 236.25,-670.5 236.25,-677.5"/>
</g>
<!-- Node11 -->
<g id="node11" class="node">
<title>Node11</title>
<g id="a_node11"><a xlink:href="classSimUdpDatagram.html#ad0d2ae16d9a266b36c2ec50811a99e37" target="_top" xlink:title="Recalculate the UDP checksum of a datagram.">
<polygon fill="none" stroke="black" points="451,-545 451,-575 616,-575 616,-545 451,-545"/>
<text text-anchor="start" x="459" y="-563" font-family="Helvetica,sans-Serif" font-size="10.00">SimUdpDatagram::reCalculate</text>
<text text-anchor="middle" x="533.5" y="-552" font-family="Helvetica,sans-Serif" font-size="10.00">UdpChecksum</text>
</a>
</g>
</g>
<!-- Node10&#45;&gt;Node11 -->
<g id="edge11" class="edge">
<title>Node10&#45;&gt;Node11</title>
<path fill="none" stroke="midnightblue" d="M642.26,-560C633.58,-560 624.79,-560 616.16,-560"/>
<polygon fill="midnightblue" stroke="midnightblue" points="642.38,-563.5 652.38,-560 642.38,-556.5 642.38,-563.5"/>
</g>
<!-- Node12 -->
<g id="node12" class="node">
<title>Node12</title>
<g id="a_node12"><a xlink:href="group__NTS__UOE__TEST.html#ga40610514eb0285c8afbe8cfe003638f6" target="_top" xlink:title="Create the golden Rx APP reference files from an input IPRX test file.">
<polygon fill="none" stroke="red" points="77,-538.5 77,-557.5 194,-557.5 194,-538.5 77,-538.5"/>
<text text-anchor="middle" x="135.5" y="-545.5" font-family="Helvetica,sans-Serif" font-size="10.00">createGoldenRxFiles</text>
</a>
</g>
</g>
<!-- Node11&#45;&gt;Node12 -->
<g id="edge12" class="edge">
<title>Node11&#45;&gt;Node12</title>
<path fill="none" stroke="midnightblue" d="M507.79,-538.21C485.35,-519.98 450.43,-495.34 415,-485 336.07,-461.96 304.3,-449.79 230,-485 207.17,-495.82 214.82,-514.69 194,-529 188.45,-532.81 182.09,-535.9 175.66,-538.4"/>
<polygon fill="midnightblue" stroke="midnightblue" points="505.83,-541.13 515.76,-544.84 510.31,-535.75 505.83,-541.13"/>
</g>
<!-- Node14 -->
<g id="node13" class="node">
<title>Node14</title>
<g id="a_node13"><a xlink:href="classSimIp4Packet.html#a56e254cf6292c3fa12a6a6e4ed7bbd6f" target="_top" xlink:title="Checks if the IP header and embedded protocol fields are properly set.">
<polygon fill="none" stroke="red" points="245.5,-620.5 245.5,-639.5 399.5,-639.5 399.5,-620.5 245.5,-620.5"/>
<text text-anchor="middle" x="322.5" y="-627.5" font-family="Helvetica,sans-Serif" font-size="10.00">SimIp4Packet::isWellFormed</text>
</a>
</g>
</g>
<!-- Node11&#45;&gt;Node14 -->
<g id="edge13" class="edge">
<title>Node11&#45;&gt;Node14</title>
<path fill="none" stroke="midnightblue" d="M493.04,-579.54C470.59,-590.04 441.71,-602.53 415,-611 403.4,-614.68 390.75,-617.83 378.65,-620.45"/>
<polygon fill="midnightblue" stroke="midnightblue" points="494.7,-582.63 502.24,-575.18 491.7,-576.3 494.7,-582.63"/>
</g>
<!-- Node17 -->
<g id="node15" class="node">
<title>Node17</title>
<g id="a_node15"><a xlink:href="classSimUdpDatagram.html#a75792488c03e516ee2d74e4dc59cca65" target="_top" xlink:title="Checks if the datagram header fields are properly set.">
<polygon fill="none" stroke="black" points="234.5,-582.5 234.5,-601.5 410.5,-601.5 410.5,-582.5 234.5,-582.5"/>
<text text-anchor="middle" x="322.5" y="-589.5" font-family="Helvetica,sans-Serif" font-size="10.00">SimUdpDatagram::isWellFormed</text>
</a>
</g>
</g>
<!-- Node11&#45;&gt;Node17 -->
<g id="edge17" class="edge">
<title>Node11&#45;&gt;Node17</title>
<path fill="none" stroke="midnightblue" d="M440.83,-574.04C422.21,-576.89 403.04,-579.82 385.73,-582.47"/>
<polygon fill="midnightblue" stroke="midnightblue" points="441.44,-577.48 450.8,-572.51 440.38,-570.56 441.44,-577.48"/>
</g>
<!-- Node18 -->
<g id="node16" class="node">
<title>Node18</title>
<g id="a_node16"><a xlink:href="classSimIp4Packet.html#a46b1a73e1415f5adf102790fd3a52ee5" target="_top" xlink:title="Recalculate checksum of an UDP datagram after it was modified.">
<polygon fill="none" stroke="red" points="241,-533 241,-563 404,-563 404,-533 241,-533"/>
<text text-anchor="start" x="249" y="-551" font-family="Helvetica,sans-Serif" font-size="10.00">SimIp4Packet::udpRecalculate</text>
<text text-anchor="middle" x="322.5" y="-540" font-family="Helvetica,sans-Serif" font-size="10.00">Checksum</text>
</a>
</g>
</g>
<!-- Node11&#45;&gt;Node18 -->
<g id="edge18" class="edge">
<title>Node11&#45;&gt;Node18</title>
<path fill="none" stroke="midnightblue" d="M440.65,-554.73C428.48,-554.03 416.08,-553.32 404.12,-552.63"/>
<polygon fill="midnightblue" stroke="midnightblue" points="440.61,-558.23 450.8,-555.31 441.01,-551.24 440.61,-558.23"/>
</g>
<!-- Node19 -->
<g id="node17" class="node">
<title>Node19</title>
<g id="a_node17"><a xlink:href="classSimIp4Packet.html#aa5a8e5a5e60578f723a82b283b558d90" target="_top" xlink:title="Recalculate the UDP checksum and compare it with the one embedded into the datagram.">
<polygon fill="none" stroke="red" points="230,-494.5 230,-513.5 415,-513.5 415,-494.5 230,-494.5"/>
<text text-anchor="middle" x="322.5" y="-501.5" font-family="Helvetica,sans-Serif" font-size="10.00">SimIp4Packet::udpVerifyChecksum</text>
</a>
</g>
</g>
<!-- Node11&#45;&gt;Node19 -->
<g id="edge19" class="edge">
<title>Node11&#45;&gt;Node19</title>
<path fill="none" stroke="midnightblue" d="M476.81,-541.91C457.36,-535.87 435.3,-529.32 415,-524 400.69,-520.25 384.99,-516.64 370.7,-513.54"/>
<polygon fill="midnightblue" stroke="midnightblue" points="475.84,-545.28 486.43,-544.93 477.93,-538.6 475.84,-545.28"/>
</g>
<!-- Node14&#45;&gt;Node6 -->
<g id="edge14" class="edge">
<title>Node14&#45;&gt;Node6</title>
<path fill="none" stroke="midnightblue" d="M266.37,-641.71C254.37,-644.36 241.74,-647.21 230,-650 210.92,-654.53 189.75,-659.93 172.39,-664.47"/>
<polygon fill="midnightblue" stroke="midnightblue" points="267.26,-645.1 276.28,-639.55 265.77,-638.26 267.26,-645.1"/>
</g>
<!-- Node14&#45;&gt;Node12 -->
<g id="edge15" class="edge">
<title>Node14&#45;&gt;Node12</title>
<path fill="none" stroke="midnightblue" d="M249.25,-617.77C242.64,-615.82 236.13,-613.58 230,-611 197.35,-597.24 164.13,-571.45 147.47,-557.51"/>
<polygon fill="midnightblue" stroke="midnightblue" points="248.42,-621.17 258.98,-620.41 250.25,-614.41 248.42,-621.17"/>
</g>
<!-- Node15 -->
<g id="node14" class="node">
<title>Node15</title>
<g id="a_node14"><a xlink:href="group__NTS__TOE__TEST.html#ga19626da81d440ab83bcba2f6838ccb87" target="_top" xlink:title="Emulate the behavior of the IP Rx Path (IPRX).">
<polygon fill="none" stroke="black" points="113,-500.5 113,-519.5 158,-519.5 158,-500.5 113,-500.5"/>
<text text-anchor="middle" x="135.5" y="-507.5" font-family="Helvetica,sans-Serif" font-size="10.00">pIPRX</text>
</a>
</g>
</g>
<!-- Node14&#45;&gt;Node15 -->
<g id="edge16" class="edge">
<title>Node14&#45;&gt;Node15</title>
<path fill="none" stroke="midnightblue" d="M236.42,-615.57C234.19,-614.17 232.04,-612.65 230,-611 199.07,-585.94 223.44,-555.78 194,-529 184.12,-520.02 169.89,-515.27 158.06,-512.77"/>
<polygon fill="midnightblue" stroke="midnightblue" points="234.95,-618.75 245.42,-620.37 238.25,-612.58 234.95,-618.75"/>
</g>
<!-- Node23 -->
<g id="node19" class="node">
<title>Node23</title>
<g id="a_node19"><a xlink:href="udp_8cpp.html#a50055eb4ca1f517dcf735489825fdd37" target="_top" xlink:title=" ">
<polygon fill="none" stroke="black" points="504,-746.5 504,-765.5 563,-765.5 563,-746.5 504,-746.5"/>
<text text-anchor="middle" x="533.5" y="-753.5" font-family="Helvetica,sans-Serif" font-size="10.00">rxEngine</text>
</a>
</g>
</g>
<!-- Node22&#45;&gt;Node23 -->
<g id="edge21" class="edge">
<title>Node22&#45;&gt;Node23</title>
<path fill="none" stroke="midnightblue" d="M669.38,-782.42C634.19,-775.53 591.11,-767.09 563.25,-761.63"/>
<polygon fill="midnightblue" stroke="midnightblue" points="669.06,-785.92 679.55,-784.41 670.4,-779.05 669.06,-785.92"/>
</g>
<!-- Node23&#45;&gt;Node4 -->
<g id="edge22" class="edge">
<title>Node23&#45;&gt;Node4</title>
<path fill="none" stroke="midnightblue" d="M493.7,-756C447.76,-756 373.34,-756 340.26,-756"/>
<polygon fill="midnightblue" stroke="midnightblue" points="493.88,-759.5 503.88,-756 493.88,-752.5 493.88,-759.5"/>
</g>
<!-- Node24&#45;&gt;Node3 -->
<g id="edge24" class="edge">
<title>Node24&#45;&gt;Node3</title>
<path fill="none" stroke="midnightblue" d="M651.34,-718C620.29,-718 586.42,-718 563.18,-718"/>
<polygon fill="midnightblue" stroke="midnightblue" points="651.74,-721.5 661.74,-718 651.74,-714.5 651.74,-721.5"/>
</g>
<!-- Node25&#45;&gt;Node3 -->
<g id="edge26" class="edge">
<title>Node25&#45;&gt;Node3</title>
<path fill="none" stroke="midnightblue" d="M669.38,-691.58C634.19,-698.47 591.11,-706.91 563.25,-712.37"/>
<polygon fill="midnightblue" stroke="midnightblue" points="670.4,-694.95 679.55,-689.59 669.06,-688.08 670.4,-694.95"/>
</g>
<!-- Node27 -->
<g id="node23" class="node">
<title>Node27</title>
<g id="a_node23"><a xlink:href="group__NTS__TOE.html#ga1682a5e1b442e8347cda40bb8c695487" target="_top" xlink:title="Receive Engine (RXe)">
<polygon fill="none" stroke="black" points="501,-342.5 501,-361.5 566,-361.5 566,-342.5 501,-342.5"/>
<text text-anchor="middle" x="533.5" y="-349.5" font-family="Helvetica,sans-Serif" font-size="10.00">rx_engine</text>
</a>
</g>
</g>
<!-- Node26&#45;&gt;Node27 -->
<g id="edge28" class="edge">
<title>Node26&#45;&gt;Node27</title>
<path fill="none" stroke="midnightblue" d="M658.83,-352C627.08,-352 591.07,-352 566.01,-352"/>
<polygon fill="midnightblue" stroke="midnightblue" points="658.98,-355.5 668.98,-352 658.98,-348.5 658.98,-355.5"/>
</g>
<!-- Node28 -->
<g id="node24" class="node">
<title>Node28</title>
<g id="a_node24"><a xlink:href="group__NTS__TOE.html#ga1d48efdcf37aa3803a7f7444fe485c9f" target="_top" xlink:title="Main process of the TCP Offload Engine (TOE0.">
<polygon fill="none" stroke="red" points="306.5,-342.5 306.5,-361.5 338.5,-361.5 338.5,-342.5 306.5,-342.5"/>
<text text-anchor="middle" x="322.5" y="-349.5" font-family="Helvetica,sans-Serif" font-size="10.00">toe</text>
</a>
</g>
</g>
<!-- Node27&#45;&gt;Node28 -->
<g id="edge29" class="edge">
<title>Node27&#45;&gt;Node28</title>
<path fill="none" stroke="midnightblue" d="M490.61,-352C443.72,-352 370.2,-352 338.68,-352"/>
<polygon fill="midnightblue" stroke="midnightblue" points="490.76,-355.5 500.76,-352 490.76,-348.5 490.76,-355.5"/>
</g>
<!-- Node32 -->
<g id="node26" class="node">
<title>Node32</title>
<g id="a_node26"><a xlink:href="group__NTS__IPRX.html#ga7e8c72b9e6e0c5d3dc9c3db3d7d2b223" target="_top" xlink:title="Main process of the IP Receive handler (IPRX).">
<polygon fill="none" stroke="black" points="516,-266.5 516,-285.5 551,-285.5 551,-266.5 516,-266.5"/>
<text text-anchor="middle" x="533.5" y="-273.5" font-family="Helvetica,sans-Serif" font-size="10.00">iprx</text>
</a>
</g>
</g>
<!-- Node31&#45;&gt;Node32 -->
<g id="edge31" class="edge">
<title>Node31&#45;&gt;Node32</title>
<path fill="none" stroke="midnightblue" d="M647.33,-276C611.4,-276 572.49,-276 551.05,-276"/>
<polygon fill="midnightblue" stroke="midnightblue" points="647.36,-279.5 657.36,-276 647.36,-272.5 647.36,-279.5"/>
</g>
<!-- Node33 -->
<g id="node27" class="node">
<title>Node33</title>
<g id="a_node27"><a xlink:href="group__NTS__IPRX.html#ga9551c84175612702350bad828283ff42" target="_top" xlink:title="Top of IP Receive handler (IPRX)">
<polygon fill="none" stroke="red" points="294.5,-266.5 294.5,-285.5 350.5,-285.5 350.5,-266.5 294.5,-266.5"/>
<text text-anchor="middle" x="322.5" y="-273.5" font-family="Helvetica,sans-Serif" font-size="10.00">iprx_top</text>
</a>
</g>
</g>
<!-- Node32&#45;&gt;Node33 -->
<g id="edge32" class="edge">
<title>Node32&#45;&gt;Node33</title>
<path fill="none" stroke="midnightblue" d="M505.69,-276C465.7,-276 390.87,-276 350.68,-276"/>
<polygon fill="midnightblue" stroke="midnightblue" points="505.75,-279.5 515.75,-276 505.75,-272.5 505.75,-279.5"/>
</g>
<!-- Node37 -->
<g id="node29" class="node">
<title>Node37</title>
<g id="a_node29"><a xlink:href="group__NTS__TOE__TEST.html#ga117d84af693cae78b0f7f615942c8db8" target="_top" xlink:title="Feed TOE with an IP packet.">
<polygon fill="none" stroke="black" points="276,-418.5 276,-437.5 369,-437.5 369,-418.5 276,-418.5"/>
<text text-anchor="middle" x="322.5" y="-425.5" font-family="Helvetica,sans-Serif" font-size="10.00">pIPRX_FeedTOE</text>
</a>
</g>
</g>
<!-- Node36&#45;&gt;Node37 -->
<g id="edge34" class="edge">
<title>Node36&#45;&gt;Node37</title>
<path fill="none" stroke="midnightblue" d="M674.79,-504.33C593.82,-486.74 442.07,-453.76 367.35,-437.53"/>
<polygon fill="midnightblue" stroke="midnightblue" points="674.26,-507.8 684.77,-506.5 675.74,-500.96 674.26,-507.8"/>
</g>
<!-- Node37&#45;&gt;Node15 -->
<g id="edge35" class="edge">
<title>Node37&#45;&gt;Node15</title>
<path fill="none" stroke="midnightblue" d="M265.93,-439.73C253.86,-443.06 241.32,-447.14 230,-452 199.11,-465.27 166.5,-487.71 149.14,-500.44"/>
<polygon fill="midnightblue" stroke="midnightblue" points="267.14,-443.03 275.93,-437.11 265.36,-436.26 267.14,-443.03"/>
</g>
<!-- Node39 -->
<g id="node31" class="node">
<title>Node39</title>
<g id="a_node31"><a xlink:href="group__NTS__TOE.html#ga444b23bab1124865117f8f6404e52be6" target="_top" xlink:title="Session Lookup Controller (SLc)">
<polygon fill="none" stroke="black" points="462,-380.5 462,-399.5 605,-399.5 605,-380.5 462,-380.5"/>
<text text-anchor="middle" x="533.5" y="-387.5" font-family="Helvetica,sans-Serif" font-size="10.00">session_lookup_controller</text>
</a>
</g>
</g>
<!-- Node38&#45;&gt;Node39 -->
<g id="edge37" class="edge">
<title>Node38&#45;&gt;Node39</title>
<path fill="none" stroke="midnightblue" d="M669.59,-416.46C641.92,-411.04 609.34,-404.66 583.1,-399.52"/>
<polygon fill="midnightblue" stroke="midnightblue" points="669.06,-419.92 679.55,-418.41 670.4,-413.05 669.06,-419.92"/>
</g>
<!-- Node39&#45;&gt;Node28 -->
<g id="edge39" class="edge">
<title>Node39&#45;&gt;Node28</title>
<path fill="none" stroke="midnightblue" d="M469.93,-378.62C424.36,-370.34 366.03,-359.73 338.79,-354.78"/>
<polygon fill="midnightblue" stroke="midnightblue" points="469.57,-382.11 480.03,-380.46 470.82,-375.23 469.57,-382.11"/>
</g>
<!-- Node40 -->
<g id="node32" class="node">
<title>Node40</title>
<g id="a_node32"><a xlink:href="test__session__lookup__controller_8cpp.html#ae66f6b31b5ad750f1fe042a706a4e3d4" target="_top" xlink:title=" ">
<polygon fill="none" stroke="black" points="302,-380.5 302,-399.5 343,-399.5 343,-380.5 302,-380.5"/>
<text text-anchor="middle" x="322.5" y="-387.5" font-family="Helvetica,sans-Serif" font-size="10.00">main</text>
</a>
</g>
</g>
<!-- Node39&#45;&gt;Node40 -->
<g id="edge38" class="edge">
<title>Node39&#45;&gt;Node40</title>
<path fill="none" stroke="midnightblue" d="M451.59,-390C412.24,-390 368.19,-390 343.35,-390"/>
<polygon fill="midnightblue" stroke="midnightblue" points="451.74,-393.5 461.74,-390 451.74,-386.5 451.74,-393.5"/>
</g>
<!-- Node41&#45;&gt;Node27 -->
<g id="edge41" class="edge">
<title>Node41&#45;&gt;Node27</title>
<path fill="none" stroke="midnightblue" d="M669.7,-378.48C635.63,-371.81 594.08,-363.67 566.11,-358.19"/>
<polygon fill="midnightblue" stroke="midnightblue" points="669.06,-381.92 679.55,-380.41 670.4,-375.05 669.06,-381.92"/>
</g>
<!-- Node43 -->
<g id="node35" class="node">
<title>Node43</title>
<g id="a_node35"><a xlink:href="group__tcp__shell__if.html#ga33d275a5a280034b43adfd415c7599b0" target="_top" xlink:title="TCP Shell Interface (TSIF)">
<polygon fill="none" stroke="red" points="497.5,-228.5 497.5,-247.5 569.5,-247.5 569.5,-228.5 497.5,-228.5"/>
<text text-anchor="middle" x="533.5" y="-235.5" font-family="Helvetica,sans-Serif" font-size="10.00">tcp_shell_if</text>
</a>
</g>
</g>
<!-- Node42&#45;&gt;Node43 -->
<g id="edge43" class="edge">
<title>Node42&#45;&gt;Node43</title>
<path fill="none" stroke="midnightblue" d="M684.82,-238C650.06,-238 602.04,-238 569.71,-238"/>
<polygon fill="midnightblue" stroke="midnightblue" points="685.15,-241.5 695.15,-238 685.15,-234.5 685.15,-241.5"/>
</g>
<!-- Node44 -->
<g id="node36" class="node">
<title>Node44</title>
<g id="a_node36"><a xlink:href="group__tcp__shell__if.html#ga0ddf1224851353fc92bfbff6f499fa97" target="_top" xlink:title="Main function for the test of the TCP Shell Interface (TSIF).">
<polygon fill="none" stroke="black" points="302,-228.5 302,-247.5 343,-247.5 343,-228.5 302,-228.5"/>
<text text-anchor="middle" x="322.5" y="-235.5" font-family="Helvetica,sans-Serif" font-size="10.00">main</text>
</a>
</g>
</g>
<!-- Node43&#45;&gt;Node44 -->
<g id="edge44" class="edge">
<title>Node43&#45;&gt;Node44</title>
<path fill="none" stroke="midnightblue" d="M486.98,-238C442.12,-238 375.7,-238 343.06,-238"/>
<polygon fill="midnightblue" stroke="midnightblue" points="487.05,-241.5 497.05,-238 487.05,-234.5 487.05,-241.5"/>
</g>
<!-- Node47 -->
<g id="node38" class="node">
<title>Node47</title>
<g id="a_node38"><a xlink:href="group__NTS__TOE__TEST.html#ga656ce2d824cae491ba91d81572eb0f08" target="_top" xlink:title="Emulate the behavior of the Content Addressable Memory (TOECAM).">
<polygon fill="none" stroke="black" points="490.5,-190.5 490.5,-209.5 576.5,-209.5 576.5,-190.5 490.5,-190.5"/>
<text text-anchor="middle" x="533.5" y="-197.5" font-family="Helvetica,sans-Serif" font-size="10.00">pEmulateCam</text>
</a>
</g>
</g>
<!-- Node46&#45;&gt;Node47 -->
<g id="edge46" class="edge">
<title>Node46&#45;&gt;Node47</title>
<path fill="none" stroke="midnightblue" d="M676.14,-200C644.89,-200 605.73,-200 576.51,-200"/>
<polygon fill="midnightblue" stroke="midnightblue" points="676.4,-203.5 686.4,-200 676.4,-196.5 676.4,-203.5"/>
</g>
<!-- Node49 -->
<g id="node40" class="node">
<title>Node49</title>
<g id="a_node40"><a xlink:href="group__NTS__TOE__TEST.html#ga9a2995ad064c9297d100faa61cd553a9" target="_top" xlink:title="Parse the TCP/IP packets generated by the TOE.">
<polygon fill="none" stroke="red" points="495.5,-152.5 495.5,-171.5 571.5,-171.5 571.5,-152.5 495.5,-152.5"/>
<text text-anchor="middle" x="533.5" y="-159.5" font-family="Helvetica,sans-Serif" font-size="10.00">pIPTX_Parse</text>
</a>
</g>
</g>
<!-- Node48&#45;&gt;Node49 -->
<g id="edge48" class="edge">
<title>Node48&#45;&gt;Node49</title>
<path fill="none" stroke="midnightblue" d="M654.92,-162C626.48,-162 595.19,-162 571.64,-162"/>
<polygon fill="midnightblue" stroke="midnightblue" points="655.25,-165.5 665.25,-162 655.25,-158.5 655.25,-165.5"/>
</g>
<!-- Node51 -->
<g id="node42" class="node">
<title>Node51</title>
<g id="a_node42"><a xlink:href="group__NTS__TOE.html#gab7ba01372a1e4397ba0ce6d9cbb398eb" target="_top" xlink:title="Transmit Engine (TXe)">
<polygon fill="none" stroke="black" points="501,-304.5 501,-323.5 566,-323.5 566,-304.5 501,-304.5"/>
<text text-anchor="middle" x="533.5" y="-311.5" font-family="Helvetica,sans-Serif" font-size="10.00">tx_engine</text>
</a>
</g>
</g>
<!-- Node50&#45;&gt;Node51 -->
<g id="edge50" class="edge">
<title>Node50&#45;&gt;Node51</title>
<path fill="none" stroke="midnightblue" d="M665.41,-314C632.24,-314 593.02,-314 566.21,-314"/>
<polygon fill="midnightblue" stroke="midnightblue" points="665.49,-317.5 675.49,-314 665.49,-310.5 665.49,-317.5"/>
</g>
<!-- Node51&#45;&gt;Node28 -->
<g id="edge51" class="edge">
<title>Node51&#45;&gt;Node28</title>
<path fill="none" stroke="midnightblue" d="M490.9,-321.56C444.03,-330.09 370.27,-343.5 338.68,-349.24"/>
<polygon fill="midnightblue" stroke="midnightblue" points="491.54,-325 500.76,-319.77 490.29,-318.12 491.54,-325"/>
</g>
<!-- Node54 -->
<g id="node45" class="node">
<title>Node54</title>
<g id="a_node45"><a xlink:href="group__NTS__UOE.html#ga857a71b260dfd52bf76ffdcd4260aeae" target="_top" xlink:title=" ">
<polygon fill="none" stroke="red" points="499.5,-76.5 499.5,-95.5 567.5,-95.5 567.5,-76.5 499.5,-76.5"/>
<text text-anchor="middle" x="533.5" y="-83.5" font-family="Helvetica,sans-Serif" font-size="10.00">pTxEngine</text>
</a>
</g>
</g>
<!-- Node53&#45;&gt;Node54 -->
<g id="edge54" class="edge">
<title>Node53&#45;&gt;Node54</title>
<path fill="none" stroke="midnightblue" d="M641.81,-86C615.5,-86 588.17,-86 567.67,-86"/>
<polygon fill="midnightblue" stroke="midnightblue" points="641.83,-89.5 651.83,-86 641.83,-82.5 641.83,-89.5"/>
</g>
<!-- Node59 -->
<g id="node47" class="node">
<title>Node59</title>
<g id="a_node47"><a xlink:href="group__NTS__UOE.html#ga0f2f0d19a54d57f63fe33700654988f8" target="_top" xlink:title=" ">
<polygon fill="none" stroke="red" points="499.5,-38.5 499.5,-57.5 567.5,-57.5 567.5,-38.5 499.5,-38.5"/>
<text text-anchor="middle" x="533.5" y="-45.5" font-family="Helvetica,sans-Serif" font-size="10.00">pRxEngine</text>
</a>
</g>
</g>
<!-- Node58&#45;&gt;Node59 -->
<g id="edge56" class="edge">
<title>Node58&#45;&gt;Node59</title>
<path fill="none" stroke="midnightblue" d="M653.04,-48C623.46,-48 591.06,-48 567.63,-48"/>
<polygon fill="midnightblue" stroke="midnightblue" points="653.36,-51.5 663.36,-48 653.36,-44.5 653.36,-51.5"/>
</g>
<!-- Node61 -->
<g id="node49" class="node">
<title>Node61</title>
<g id="a_node49"><a xlink:href="group__udp__shell__if.html#ga0ddf1224851353fc92bfbff6f499fa97" target="_top" xlink:title="Main function for the test of the UDP Shell Interface (USIF).">
<polygon fill="none" stroke="black" points="513,-0.5 513,-19.5 554,-19.5 554,-0.5 513,-0.5"/>
<text text-anchor="middle" x="533.5" y="-7.5" font-family="Helvetica,sans-Serif" font-size="10.00">main</text>
</a>
</g>
</g>
<!-- Node60&#45;&gt;Node61 -->
<g id="edge58" class="edge">
<title>Node60&#45;&gt;Node61</title>
<path fill="none" stroke="midnightblue" d="M697.29,-10C656.93,-10 587.85,-10 554.15,-10"/>
<polygon fill="midnightblue" stroke="midnightblue" points="697.37,-13.5 707.37,-10 697.37,-6.5 697.37,-13.5"/>
</g>
<!-- Node62&#45;&gt;Node23 -->
<g id="edge60" class="edge">
<title>Node62&#45;&gt;Node23</title>
<path fill="none" stroke="midnightblue" d="M677.38,-756C640.9,-756 593.17,-756 563.16,-756"/>
<polygon fill="midnightblue" stroke="midnightblue" points="677.83,-759.5 687.83,-756 677.83,-752.5 677.83,-759.5"/>
</g>
</g>
</svg>
        <g id="navigator" transform="translate(0 0)" fill="#404254">
                <rect fill="#f2f5e9" fill-opacity="0.5" stroke="#606060" stroke-width=".5" x="0" y="0" width="60" height="60"/>
                <use id="zoomplus" xlink:href="#zoomPlus" x="17" y="9" onmousedown="handleZoom(evt,'in')"/>
                <use id="zoomminus" xlink:href="#zoomMin" x="42" y="9" onmousedown="handleZoom(evt,'out')"/>
                <use id="reset" xlink:href="#resetDef" x="30" y="36" onmousedown="handleReset()"/>
                <g id="arrowUp" xlink:href="#dirArrow" transform="translate(30 24)" onmousedown="handlePan(0,-1)">
                  <use xlink:href="#rim" fill="#404040">
                        <set attributeName="fill" to="#808080" begin="arrowUp.mouseover" end="arrowUp.mouseout"/>
                  </use>
                  <path fill="none" stroke="white" stroke-width="1.5" d="M0,-3.0v7 M-2.5,-0.5L0,-3.0L2.5,-0.5"/>
                </g>
                <g id="arrowRight" xlink:href="#dirArrow" transform="rotate(90) translate(36 -43)" onmousedown="handlePan(1,0)">
                  <use xlink:href="#rim" fill="#404040">
                        <set attributeName="fill" to="#808080" begin="arrowRight.mouseover" end="arrowRight.mouseout"/>
                  </use>
                  <path fill="none" stroke="white" stroke-width="1.5" d="M0,-3.0v7 M-2.5,-0.5L0,-3.0L2.5,-0.5"/>
                </g>
                <g id="arrowDown" xlink:href="#dirArrow" transform="rotate(180) translate(-30 -48)" onmousedown="handlePan(0,1)">
                  <use xlink:href="#rim" fill="#404040">
                        <set attributeName="fill" to="#808080" begin="arrowDown.mouseover" end="arrowDown.mouseout"/>
                  </use>
                  <path fill="none" stroke="white" stroke-width="1.5" d="M0,-3.0v7 M-2.5,-0.5L0,-3.0L2.5,-0.5"/>
                </g>
                <g id="arrowLeft" xlink:href="#dirArrow" transform="rotate(270) translate(-36 17)" onmousedown="handlePan(-1,0)">
                  <use xlink:href="#rim" fill="#404040">
                        <set attributeName="fill" to="#808080" begin="arrowLeft.mouseover" end="arrowLeft.mouseout"/>
                  </use>
                  <path fill="none" stroke="white" stroke-width="1.5" d="M0,-3.0v7 M-2.5,-0.5L0,-3.0L2.5,-0.5"/>
                </g>
        </g>
        <svg viewBox="0 0 15 15" width="100%" height="30px" preserveAspectRatio="xMaxYMin meet">
         <g id="arrow_out" transform="scale(0.3 0.3)">
          <a xlink:href="udp_8cpp_ga3179abf5c515026aad3e82047a1dd9a3_icgraph_org.svg" target="_base">
           <rect id="button" ry="5" rx="5" y="6" x="6" height="38" width="38"
                fill="#f2f5e9" fill-opacity="0.5" stroke="#606060" stroke-width="1.0"/>
           <path id="arrow"
             d="M 11.500037,31.436501 C 11.940474,20.09759 22.043105,11.32322 32.158766,21.979434 L 37.068811,17.246167 C 37.068811,17.246167 37.088388,32 37.088388,32 L 22.160133,31.978069 C 22.160133,31.978069 26.997745,27.140456 26.997745,27.140456 C 18.528582,18.264221 13.291696,25.230495 11.500037,31.436501 z"
             style="fill:#404040;"/>
          </a>
         </g>
        </svg>
</svg>
