<?xml version="1.0" encoding="UTF-8" standalone="no"?>
<!DOCTYPE svg PUBLIC "-//W3C//DTD SVG 1.1//EN"
 "http://www.w3.org/Graphics/SVG/1.1/DTD/svg11.dtd">
<!-- Generated by graphviz version 2.43.0 (0)
 -->
<!-- Title: repos_for_Dox/cFp_HelloKale/ROLE/hls/udp_app_flash/src/udp_app_flash.hpp Pages: 1 -->
<!--zoomable 317 -->
<svg id="main" version="1.1" xmlns="http://www.w3.org/2000/svg" xmlns:xlink="http://www.w3.org/1999/xlink" xml:space="preserve" onload="init(evt)">
<style type="text/css"><![CDATA[
.edge:hover path { stroke: red; }
.edge:hover polygon { stroke: red; fill: red; }
]]></style>
<script type="text/javascript"><![CDATA[
var edges = document.getElementsByTagName('g');
if (edges && edges.length) {
  for (var i=0;i<edges.length;i++) {
    if (edges[i].id.substr(0,4)=='edge') {
      edges[i].setAttribute('class','edge');
    }
  }
}
]]></script>
        <defs>
                <circle id="rim" cx="0" cy="0" r="7"/>
                <circle id="rim2" cx="0" cy="0" r="3.5"/>
                <g id="zoomPlus">
                        <use xlink:href="#rim" fill="#404040">
                                <set attributeName="fill" to="#808080" begin="zoomplus.mouseover" end="zoomplus.mouseout"/>
                        </use>
                        <path d="M-4,0h8M0,-4v8" fill="none" stroke="white" stroke-width="1.5" pointer-events="none"/>
                </g>
                <g id="zoomMin">
                        <use xlink:href="#rim" fill="#404040">
                                <set attributeName="fill" to="#808080" begin="zoomminus.mouseover" end="zoomminus.mouseout"/>
                        </use>
                        <path d="M-4,0h8" fill="none" stroke="white" stroke-width="1.5" pointer-events="none"/>
                </g>
                <g id="dirArrow">
                        <path fill="none" stroke="white" stroke-width="1.5" d="M0,-3.0v7 M-2.5,-0.5L0,-3.0L2.5,-0.5"/>
                </g>
               <g id="resetDef">
                       <use xlink:href="#rim2" fill="#404040">
                               <set attributeName="fill" to="#808080" begin="reset.mouseover" end="reset.mouseout"/>
                       </use>
               </g>
        </defs>

<script type="text/javascript">
var viewWidth = 880;
var viewHeight = 317;
var sectionId = 'dynsection-1';
</script>
<script xlink:href="svgpan.js"/>
<svg id="graph" class="graph">
<g id="viewport">
<title>repos_for_Dox/cFp_HelloKale/ROLE/hls/udp_app_flash/src/udp_app_flash.hpp</title>
<!-- Node1 -->
<g id="node1" class="node">
<title>Node1</title>
<g id="a_node1"><a xlink:title=": UDP Application Flash (UAF)">
<polygon fill="#bfbfbf" stroke="black" points="356,-267.5 356,-308.5 516,-308.5 516,-267.5 356,-267.5"/>
<text text-anchor="start" x="364" y="-296.5" font-family="Helvetica,sans-Serif" font-size="10.00">repos_for_Dox/cFp_HelloKale</text>
<text text-anchor="start" x="364" y="-285.5" font-family="Helvetica,sans-Serif" font-size="10.00">/ROLE/hls/udp_app_flash</text>
<text text-anchor="middle" x="436" y="-274.5" font-family="Helvetica,sans-Serif" font-size="10.00">/src/udp_app_flash.hpp</text>
</a>
</g>
</g>
<!-- Node2 -->
<g id="node2" class="node">
<title>Node2</title>
<g id="a_node2"><a xlink:href="udp__app__flash_8cpp.html" target="_top" xlink:title=": UDP Application Flash (UAF)">
<polygon fill="none" stroke="black" points="0,-184 0,-225 160,-225 160,-184 0,-184"/>
<text text-anchor="start" x="8" y="-213" font-family="Helvetica,sans-Serif" font-size="10.00">repos_for_Dox/cFp_HelloKale</text>
<text text-anchor="start" x="8" y="-202" font-family="Helvetica,sans-Serif" font-size="10.00">/ROLE/hls/udp_app_flash</text>
<text text-anchor="middle" x="80" y="-191" font-family="Helvetica,sans-Serif" font-size="10.00">/src/udp_app_flash.cpp</text>
</a>
</g>
</g>
<!-- Node1&#45;&gt;Node2 -->
<g id="edge1" class="edge">
<title>Node1&#45;&gt;Node2</title>
<path fill="none" stroke="midnightblue" d="M346.06,-269.82C294.11,-259.48 227.63,-245.53 169,-231 161.67,-229.18 154.03,-227.17 146.44,-225.1"/>
<polygon fill="midnightblue" stroke="midnightblue" points="345.43,-273.26 355.92,-271.78 346.79,-266.4 345.43,-273.26"/>
</g>
<!-- Node3 -->
<g id="node3" class="node">
<title>Node3</title>
<g id="a_node3"><a xlink:href="udp__app__flash__top_8cpp.html" target="_top" xlink:title=": Top level with I/O ports for UDP Application Flash (UAF)">
<polygon fill="none" stroke="black" points="178,-184 178,-225 338,-225 338,-184 178,-184"/>
<text text-anchor="start" x="186" y="-213" font-family="Helvetica,sans-Serif" font-size="10.00">repos_for_Dox/cFp_HelloKale</text>
<text text-anchor="start" x="186" y="-202" font-family="Helvetica,sans-Serif" font-size="10.00">/ROLE/hls/udp_app_flash</text>
<text text-anchor="middle" x="258" y="-191" font-family="Helvetica,sans-Serif" font-size="10.00">/src/udp_app_flash_top.cpp</text>
</a>
</g>
</g>
<!-- Node1&#45;&gt;Node3 -->
<g id="edge2" class="edge">
<title>Node1&#45;&gt;Node3</title>
<path fill="none" stroke="midnightblue" d="M384.22,-263.29C357.66,-251.13 325.71,-236.5 300.6,-225"/>
<polygon fill="midnightblue" stroke="midnightblue" points="382.82,-266.5 393.36,-267.48 385.73,-260.13 382.82,-266.5"/>
</g>
<!-- Node4 -->
<g id="node4" class="node">
<title>Node4</title>
<g id="a_node4"><a xlink:href="udp__app__flash__top_8hpp.html" target="_top" xlink:title=": Top of UDP Application Flash (UAF)">
<polygon fill="none" stroke="black" points="356,-184 356,-225 516,-225 516,-184 356,-184"/>
<text text-anchor="start" x="364" y="-213" font-family="Helvetica,sans-Serif" font-size="10.00">repos_for_Dox/cFp_HelloKale</text>
<text text-anchor="start" x="364" y="-202" font-family="Helvetica,sans-Serif" font-size="10.00">/ROLE/hls/udp_app_flash</text>
<text text-anchor="middle" x="436" y="-191" font-family="Helvetica,sans-Serif" font-size="10.00">/src/udp_app_flash_top.hpp</text>
</a>
</g>
</g>
<!-- Node1&#45;&gt;Node4 -->
<g id="edge3" class="edge">
<title>Node1&#45;&gt;Node4</title>
<path fill="none" stroke="midnightblue" d="M436,-257.06C436,-246.38 436,-234.63 436,-225.05"/>
<polygon fill="midnightblue" stroke="midnightblue" points="432.5,-257.27 436,-267.27 439.5,-257.27 432.5,-257.27"/>
</g>
<!-- Node7 -->
<g id="node7" class="node">
<title>Node7</title>
<g id="a_node7"><a xlink:href="simu__udp__app__flash__env_8hpp.html" target="_top" xlink:title=" ">
<polygon fill="none" stroke="black" points="534,-178.5 534,-230.5 694,-230.5 694,-178.5 534,-178.5"/>
<text text-anchor="start" x="542" y="-218.5" font-family="Helvetica,sans-Serif" font-size="10.00">repos_for_Dox/cFp_HelloKale</text>
<text text-anchor="start" x="542" y="-207.5" font-family="Helvetica,sans-Serif" font-size="10.00">/ROLE/hls/udp_app_flash</text>
<text text-anchor="start" x="542" y="-196.5" font-family="Helvetica,sans-Serif" font-size="10.00">/test/simu_udp_app_flash</text>
<text text-anchor="middle" x="614" y="-185.5" font-family="Helvetica,sans-Serif" font-size="10.00">_env.hpp</text>
</a>
</g>
</g>
<!-- Node1&#45;&gt;Node7 -->
<g id="edge6" class="edge">
<title>Node1&#45;&gt;Node7</title>
<path fill="none" stroke="midnightblue" d="M487.97,-263.2C510.36,-252.95 536.55,-240.96 559.23,-230.58"/>
<polygon fill="midnightblue" stroke="midnightblue" points="486.27,-260.13 478.64,-267.48 489.18,-266.5 486.27,-260.13"/>
</g>
<!-- Node9 -->
<g id="node9" class="node">
<title>Node9</title>
<g id="a_node9"><a xlink:href="test__udp__app__flash_8hpp.html" target="_top" xlink:title=": Testbench for the UDP Application Flash (UAF).">
<polygon fill="none" stroke="black" points="712,-95 712,-136 872,-136 872,-95 712,-95"/>
<text text-anchor="start" x="720" y="-124" font-family="Helvetica,sans-Serif" font-size="10.00">repos_for_Dox/cFp_HelloKale</text>
<text text-anchor="start" x="720" y="-113" font-family="Helvetica,sans-Serif" font-size="10.00">/ROLE/hls/udp_app_flash</text>
<text text-anchor="middle" x="792" y="-102" font-family="Helvetica,sans-Serif" font-size="10.00">/test/test_udp_app_flash.hpp</text>
</a>
</g>
</g>
<!-- Node1&#45;&gt;Node9 -->
<g id="edge11" class="edge">
<title>Node1&#45;&gt;Node9</title>
<path fill="none" stroke="midnightblue" d="M526.18,-283.6C580.86,-277.94 650.06,-264.07 703,-231 740.58,-207.52 768.55,-162.21 782.37,-136.18"/>
<polygon fill="midnightblue" stroke="midnightblue" points="525.76,-280.12 516.14,-284.57 526.43,-287.09 525.76,-280.12"/>
</g>
<!-- Node5 -->
<g id="node5" class="node">
<title>Node5</title>
<g id="a_node5"><a xlink:href="test__udp__app__flash__top_8hpp.html" target="_top" xlink:title=": Testbench for toplevel of the UDP Application Flash.">
<polygon fill="none" stroke="black" points="356,-89.5 356,-141.5 516,-141.5 516,-89.5 356,-89.5"/>
<text text-anchor="start" x="364" y="-129.5" font-family="Helvetica,sans-Serif" font-size="10.00">repos_for_Dox/cFp_HelloKale</text>
<text text-anchor="start" x="364" y="-118.5" font-family="Helvetica,sans-Serif" font-size="10.00">/ROLE/hls/udp_app_flash</text>
<text text-anchor="start" x="364" y="-107.5" font-family="Helvetica,sans-Serif" font-size="10.00">/test/test_udp_app_flash</text>
<text text-anchor="middle" x="436" y="-96.5" font-family="Helvetica,sans-Serif" font-size="10.00">_top.hpp</text>
</a>
</g>
</g>
<!-- Node4&#45;&gt;Node5 -->
<g id="edge4" class="edge">
<title>Node4&#45;&gt;Node5</title>
<path fill="none" stroke="midnightblue" d="M436,-173.51C436,-163.17 436,-151.71 436,-141.79"/>
<polygon fill="midnightblue" stroke="midnightblue" points="432.5,-173.76 436,-183.76 439.5,-173.76 432.5,-173.76"/>
</g>
<!-- Node6 -->
<g id="node6" class="node">
<title>Node6</title>
<g id="a_node6"><a xlink:href="test__udp__app__flash__top_8cpp.html" target="_top" xlink:title=": Testbench for toplevel of the UDP Application Flash.">
<polygon fill="none" stroke="black" points="356,-0.5 356,-52.5 516,-52.5 516,-0.5 356,-0.5"/>
<text text-anchor="start" x="364" y="-40.5" font-family="Helvetica,sans-Serif" font-size="10.00">repos_for_Dox/cFp_HelloKale</text>
<text text-anchor="start" x="364" y="-29.5" font-family="Helvetica,sans-Serif" font-size="10.00">/ROLE/hls/udp_app_flash</text>
<text text-anchor="start" x="364" y="-18.5" font-family="Helvetica,sans-Serif" font-size="10.00">/test/test_udp_app_flash</text>
<text text-anchor="middle" x="436" y="-7.5" font-family="Helvetica,sans-Serif" font-size="10.00">_top.cpp</text>
</a>
</g>
</g>
<!-- Node5&#45;&gt;Node6 -->
<g id="edge5" class="edge">
<title>Node5&#45;&gt;Node6</title>
<path fill="none" stroke="midnightblue" d="M436,-79.19C436,-70.28 436,-60.9 436,-52.61"/>
<polygon fill="midnightblue" stroke="midnightblue" points="432.5,-79.34 436,-89.34 439.5,-79.34 432.5,-79.34"/>
</g>
<!-- Node7&#45;&gt;Node5 -->
<g id="edge10" class="edge">
<title>Node7&#45;&gt;Node5</title>
<path fill="none" stroke="midnightblue" d="M553.47,-173.92C531.98,-163.41 508.02,-151.7 487.37,-141.61"/>
<polygon fill="midnightblue" stroke="midnightblue" points="551.99,-177.09 562.52,-178.34 555.07,-170.8 551.99,-177.09"/>
</g>
<!-- Node8 -->
<g id="node8" class="node">
<title>Node8</title>
<g id="a_node8"><a xlink:href="simu__udp__app__flash__env_8cpp.html" target="_top" xlink:title=": Simulation environment for the UDP Application Flash (UAF).">
<polygon fill="none" stroke="black" points="534,-89.5 534,-141.5 694,-141.5 694,-89.5 534,-89.5"/>
<text text-anchor="start" x="542" y="-129.5" font-family="Helvetica,sans-Serif" font-size="10.00">repos_for_Dox/cFp_HelloKale</text>
<text text-anchor="start" x="542" y="-118.5" font-family="Helvetica,sans-Serif" font-size="10.00">/ROLE/hls/udp_app_flash</text>
<text text-anchor="start" x="542" y="-107.5" font-family="Helvetica,sans-Serif" font-size="10.00">/test/simu_udp_app_flash</text>
<text text-anchor="middle" x="614" y="-96.5" font-family="Helvetica,sans-Serif" font-size="10.00">_env.cpp</text>
</a>
</g>
</g>
<!-- Node7&#45;&gt;Node8 -->
<g id="edge7" class="edge">
<title>Node7&#45;&gt;Node8</title>
<path fill="none" stroke="midnightblue" d="M614,-168.19C614,-159.28 614,-149.9 614,-141.61"/>
<polygon fill="midnightblue" stroke="midnightblue" points="610.5,-168.34 614,-178.34 617.5,-168.34 610.5,-168.34"/>
</g>
<!-- Node7&#45;&gt;Node9 -->
<g id="edge8" class="edge">
<title>Node7&#45;&gt;Node9</title>
<path fill="none" stroke="midnightblue" d="M674.71,-173.83C700.21,-161.36 729.17,-147.21 751.94,-136.08"/>
<polygon fill="midnightblue" stroke="midnightblue" points="672.93,-170.8 665.48,-178.34 676.01,-177.09 672.93,-170.8"/>
</g>
<!-- Node10 -->
<g id="node10" class="node">
<title>Node10</title>
<g id="a_node10"><a xlink:href="test__udp__app__flash_8cpp.html" target="_top" xlink:title=": Testbench for UDP Application Flash (UAF).">
<polygon fill="none" stroke="black" points="712,-6 712,-47 872,-47 872,-6 712,-6"/>
<text text-anchor="start" x="720" y="-35" font-family="Helvetica,sans-Serif" font-size="10.00">repos_for_Dox/cFp_HelloKale</text>
<text text-anchor="start" x="720" y="-24" font-family="Helvetica,sans-Serif" font-size="10.00">/ROLE/hls/udp_app_flash</text>
<text text-anchor="middle" x="792" y="-13" font-family="Helvetica,sans-Serif" font-size="10.00">/test/test_udp_app_flash.cpp</text>
</a>
</g>
</g>
<!-- Node9&#45;&gt;Node10 -->
<g id="edge9" class="edge">
<title>Node9&#45;&gt;Node10</title>
<path fill="none" stroke="midnightblue" d="M792,-84.44C792,-72.1 792,-58.16 792,-47.16"/>
<polygon fill="midnightblue" stroke="midnightblue" points="788.5,-84.76 792,-94.76 795.5,-84.76 788.5,-84.76"/>
</g>
</g>
</svg>
        <g id="navigator" transform="translate(0 0)" fill="#404254">
                <rect fill="#f2f5e9" fill-opacity="0.5" stroke="#606060" stroke-width=".5" x="0" y="0" width="60" height="60"/>
                <use id="zoomplus" xlink:href="#zoomPlus" x="17" y="9" onmousedown="handleZoom(evt,'in')"/>
                <use id="zoomminus" xlink:href="#zoomMin" x="42" y="9" onmousedown="handleZoom(evt,'out')"/>
                <use id="reset" xlink:href="#resetDef" x="30" y="36" onmousedown="handleReset()"/>
                <g id="arrowUp" xlink:href="#dirArrow" transform="translate(30 24)" onmousedown="handlePan(0,-1)">
                  <use xlink:href="#rim" fill="#404040">
                        <set attributeName="fill" to="#808080" begin="arrowUp.mouseover" end="arrowUp.mouseout"/>
                  </use>
                  <path fill="none" stroke="white" stroke-width="1.5" d="M0,-3.0v7 M-2.5,-0.5L0,-3.0L2.5,-0.5"/>
                </g>
                <g id="arrowRight" xlink:href="#dirArrow" transform="rotate(90) translate(36 -43)" onmousedown="handlePan(1,0)">
                  <use xlink:href="#rim" fill="#404040">
                        <set attributeName="fill" to="#808080" begin="arrowRight.mouseover" end="arrowRight.mouseout"/>
                  </use>
                  <path fill="none" stroke="white" stroke-width="1.5" d="M0,-3.0v7 M-2.5,-0.5L0,-3.0L2.5,-0.5"/>
                </g>
                <g id="arrowDown" xlink:href="#dirArrow" transform="rotate(180) translate(-30 -48)" onmousedown="handlePan(0,1)">
                  <use xlink:href="#rim" fill="#404040">
                        <set attributeName="fill" to="#808080" begin="arrowDown.mouseover" end="arrowDown.mouseout"/>
                  </use>
                  <path fill="none" stroke="white" stroke-width="1.5" d="M0,-3.0v7 M-2.5,-0.5L0,-3.0L2.5,-0.5"/>
                </g>
                <g id="arrowLeft" xlink:href="#dirArrow" transform="rotate(270) translate(-36 17)" onmousedown="handlePan(-1,0)">
                  <use xlink:href="#rim" fill="#404040">
                        <set attributeName="fill" to="#808080" begin="arrowLeft.mouseover" end="arrowLeft.mouseout"/>
                  </use>
                  <path fill="none" stroke="white" stroke-width="1.5" d="M0,-3.0v7 M-2.5,-0.5L0,-3.0L2.5,-0.5"/>
                </g>
        </g>
        <svg viewBox="0 0 15 15" width="100%" height="30px" preserveAspectRatio="xMaxYMin meet">
         <g id="arrow_out" transform="scale(0.3 0.3)">
          <a xlink:href="udp__app__flash_8hpp__dep__incl_org.svg" target="_base">
           <rect id="button" ry="5" rx="5" y="6" x="6" height="38" width="38"
                fill="#f2f5e9" fill-opacity="0.5" stroke="#606060" stroke-width="1.0"/>
           <path id="arrow"
             d="M 11.500037,31.436501 C 11.940474,20.09759 22.043105,11.32322 32.158766,21.979434 L 37.068811,17.246167 C 37.068811,17.246167 37.088388,32 37.088388,32 L 22.160133,31.978069 C 22.160133,31.978069 26.997745,27.140456 26.997745,27.140456 C 18.528582,18.264221 13.291696,25.230495 11.500037,31.436501 z"
             style="fill:#404040;"/>
          </a>
         </g>
        </svg>
</svg>
