<?xml version="1.0" encoding="UTF-8" standalone="no"?>
<!DOCTYPE svg PUBLIC "-//W3C//DTD SVG 1.1//EN"
 "http://www.w3.org/Graphics/SVG/1.1/DTD/svg11.dtd">
<!-- Generated by graphviz version 2.43.0 (0)
 -->
<!-- Title: rxEngine Pages: 1 -->
<svg width="401pt" height="161pt"
 viewBox="0.00 0.00 401.00 161.00" xmlns="http://www.w3.org/2000/svg" xmlns:xlink="http://www.w3.org/1999/xlink">
<g id="graph0" class="graph" transform="scale(1 1) rotate(0) translate(4 157)">
<title>rxEngine</title>
<!-- Node1 -->
<g id="node1" class="node">
<title>Node1</title>
<g id="a_node1"><a xlink:title=" ">
<polygon fill="#bfbfbf" stroke="black" points="0,-76.5 0,-95.5 59,-95.5 59,-76.5 0,-76.5"/>
<text text-anchor="middle" x="29.5" y="-83.5" font-family="Helvetica,sans-Serif" font-size="10.00">rxEngine</text>
</a>
</g>
</g>
<!-- Node2 -->
<g id="node2" class="node">
<title>Node2</title>
<g id="a_node2"><a xlink:href="udp_8cpp.html#ae9d746a44b78299bf262dcc5ed518c74" target="_top" xlink:title=" ">
<polygon fill="none" stroke="black" points="133.5,-133.5 133.5,-152.5 241.5,-152.5 241.5,-133.5 133.5,-133.5"/>
<text text-anchor="middle" x="187.5" y="-140.5" font-family="Helvetica,sans-Serif" font-size="10.00">inputPathRxEngine</text>
</a>
</g>
</g>
<!-- Node1&#45;&gt;Node2 -->
<g id="edge1" class="edge">
<title>Node1&#45;&gt;Node2</title>
<path fill="none" stroke="midnightblue" d="M43.68,-95.52C56.27,-104.18 76.09,-116.7 95,-124 103.99,-127.47 113.73,-130.35 123.39,-132.73"/>
<polygon fill="midnightblue" stroke="midnightblue" points="122.86,-136.2 133.39,-135.04 124.43,-129.38 122.86,-136.2"/>
</g>
<!-- Node4 -->
<g id="node4" class="node">
<title>Node4</title>
<g id="a_node4"><a xlink:href="udp_8cpp.html#afdbef87d4c0a22a84d59c0d40997e92b" target="_top" xlink:title=" ">
<polygon fill="none" stroke="black" points="156.5,-95.5 156.5,-114.5 218.5,-114.5 218.5,-95.5 156.5,-95.5"/>
<text text-anchor="middle" x="187.5" y="-102.5" font-family="Helvetica,sans-Serif" font-size="10.00">portTable</text>
</a>
</g>
</g>
<!-- Node1&#45;&gt;Node4 -->
<g id="edge3" class="edge">
<title>Node1&#45;&gt;Node4</title>
<path fill="none" stroke="midnightblue" d="M59.11,-89.48C83.6,-92.47 119.13,-96.79 146.45,-100.12"/>
<polygon fill="midnightblue" stroke="midnightblue" points="146.12,-103.61 156.47,-101.34 146.97,-96.66 146.12,-103.61"/>
</g>
<!-- Node5 -->
<g id="node5" class="node">
<title>Node5</title>
<g id="a_node5"><a xlink:href="udp_8cpp.html#ab457e4a99df4a06683f999114457ec19" target="_top" xlink:title=" ">
<polygon fill="none" stroke="black" points="95,-57.5 95,-76.5 280,-76.5 280,-57.5 95,-57.5"/>
<text text-anchor="middle" x="187.5" y="-64.5" font-family="Helvetica,sans-Serif" font-size="10.00">rxEngineUdpChecksumVerification</text>
</a>
</g>
</g>
<!-- Node1&#45;&gt;Node5 -->
<g id="edge4" class="edge">
<title>Node1&#45;&gt;Node5</title>
<path fill="none" stroke="midnightblue" d="M59.11,-82.52C70.37,-81.14 83.95,-79.49 98,-77.78"/>
<polygon fill="midnightblue" stroke="midnightblue" points="98.78,-81.21 108.28,-76.53 97.93,-74.26 98.78,-81.21"/>
</g>
<!-- Node6 -->
<g id="node6" class="node">
<title>Node6</title>
<g id="a_node6"><a xlink:href="udp_8cpp.html#a9b4c08d9aba53de32255cb80e946b26a" target="_top" xlink:title=" ">
<polygon fill="none" stroke="black" points="146,-19.5 146,-38.5 229,-38.5 229,-19.5 146,-19.5"/>
<text text-anchor="middle" x="187.5" y="-26.5" font-family="Helvetica,sans-Serif" font-size="10.00">stripIpHeader</text>
</a>
</g>
</g>
<!-- Node1&#45;&gt;Node6 -->
<g id="edge5" class="edge">
<title>Node1&#45;&gt;Node6</title>
<path fill="none" stroke="midnightblue" d="M43.68,-76.48C56.27,-67.82 76.09,-55.3 95,-48 107.78,-43.06 122.09,-39.31 135.53,-36.51"/>
<polygon fill="midnightblue" stroke="midnightblue" points="136.45,-39.9 145.59,-34.54 135.11,-33.03 136.45,-39.9"/>
</g>
<!-- Node3 -->
<g id="node3" class="node">
<title>Node3</title>
<g id="a_node3"><a xlink:href="udp_8cpp.html#ga3179abf5c515026aad3e82047a1dd9a3" target="_top" xlink:title=" ">
<polygon fill="none" stroke="black" points="316,-104.5 316,-123.5 393,-123.5 393,-104.5 316,-104.5"/>
<text text-anchor="middle" x="354.5" y="-111.5" font-family="Helvetica,sans-Serif" font-size="10.00">byteSwap16</text>
</a>
</g>
</g>
<!-- Node2&#45;&gt;Node3 -->
<g id="edge2" class="edge">
<title>Node2&#45;&gt;Node3</title>
<path fill="none" stroke="midnightblue" d="M241.62,-133.66C262.33,-130.02 285.88,-125.88 306.02,-122.35"/>
<polygon fill="midnightblue" stroke="midnightblue" points="306.66,-125.79 315.9,-120.61 305.45,-118.89 306.66,-125.79"/>
</g>
<!-- Node6&#45;&gt;Node3 -->
<g id="edge6" class="edge">
<title>Node6&#45;&gt;Node3</title>
<path fill="none" stroke="midnightblue" d="M229.21,-32.78C245.64,-35.48 264.36,-40.09 280,-48 303.5,-59.89 325.26,-81.26 338.9,-96.46"/>
<polygon fill="midnightblue" stroke="midnightblue" points="336.4,-98.93 345.61,-104.17 341.69,-94.33 336.4,-98.93"/>
</g>
<!-- Node7 -->
<g id="node7" class="node">
<title>Node7</title>
<g id="a_node7"><a xlink:href="udp_8cpp.html#ga2355e0cecd0576470bca0178c4c1aec2" target="_top" xlink:title=" ">
<polygon fill="none" stroke="black" points="316,-38.5 316,-57.5 393,-57.5 393,-38.5 316,-38.5"/>
<text text-anchor="middle" x="354.5" y="-45.5" font-family="Helvetica,sans-Serif" font-size="10.00">byteSwap32</text>
</a>
</g>
</g>
<!-- Node6&#45;&gt;Node7 -->
<g id="edge7" class="edge">
<title>Node6&#45;&gt;Node7</title>
<path fill="none" stroke="midnightblue" d="M229.29,-33.7C252.42,-36.36 281.48,-39.71 305.68,-42.49"/>
<polygon fill="midnightblue" stroke="midnightblue" points="305.39,-45.98 315.72,-43.65 306.19,-39.03 305.39,-45.98"/>
</g>
<!-- Node8 -->
<g id="node8" class="node">
<title>Node8</title>
<g id="a_node8"><a xlink:href="udp_8cpp.html#ae97a3ce458f62004e3eef7684e184a89" target="_top" xlink:title=" ">
<polygon fill="none" stroke="black" points="323.5,-0.5 323.5,-19.5 385.5,-19.5 385.5,-0.5 323.5,-0.5"/>
<text text-anchor="middle" x="354.5" y="-7.5" font-family="Helvetica,sans-Serif" font-size="10.00">countBits</text>
</a>
</g>
</g>
<!-- Node6&#45;&gt;Node8 -->
<g id="edge8" class="edge">
<title>Node6&#45;&gt;Node8</title>
<path fill="none" stroke="midnightblue" d="M229.29,-24.3C254.87,-21.36 287.71,-17.58 313.2,-14.64"/>
<polygon fill="midnightblue" stroke="midnightblue" points="313.75,-18.1 323.28,-13.48 312.95,-11.15 313.75,-18.1"/>
</g>
</g>
</svg>
