<?xml version="1.0" encoding="UTF-8" standalone="no"?>
<!DOCTYPE svg PUBLIC "-//W3C//DTD SVG 1.1//EN"
 "http://www.w3.org/Graphics/SVG/1.1/DTD/svg11.dtd">
<!-- Generated by graphviz version 2.43.0 (0)
 -->
<!-- Title: invert_case Pages: 1 -->
<svg width="404pt" height="28pt"
 viewBox="0.00 0.00 404.00 28.00" xmlns="http://www.w3.org/2000/svg" xmlns:xlink="http://www.w3.org/1999/xlink">
<g id="graph0" class="graph" transform="scale(1 1) rotate(0) translate(4 24)">
<title>invert_case</title>
<!-- Node1 -->
<g id="node1" class="node">
<title>Node1</title>
<g id="a_node1"><a xlink:title=" ">
<polygon fill="#bfbfbf" stroke="black" points="323,-0.5 323,-19.5 396,-19.5 396,-0.5 323,-0.5"/>
<text text-anchor="middle" x="359.5" y="-7.5" font-family="Helvetica,sans-Serif" font-size="10.00">invert_case</text>
</a>
</g>
</g>
<!-- Node2 -->
<g id="node2" class="node">
<title>Node2</title>
<g id="a_node2"><a xlink:href="upper__lower__app_8cpp.html#a8a5f141f8dc88f53cf31783841acd89f" target="_top" xlink:title=" ">
<polygon fill="none" stroke="black" points="213,-0.5 213,-19.5 287,-19.5 287,-0.5 213,-0.5"/>
<text text-anchor="middle" x="250" y="-7.5" font-family="Helvetica,sans-Serif" font-size="10.00">invert_word</text>
</a>
</g>
</g>
<!-- Node1&#45;&gt;Node2 -->
<g id="edge1" class="edge">
<title>Node1&#45;&gt;Node2</title>
<path fill="none" stroke="midnightblue" d="M312.5,-10C303.97,-10 295.18,-10 287.01,-10"/>
<polygon fill="midnightblue" stroke="midnightblue" points="312.7,-13.5 322.7,-10 312.7,-6.5 312.7,-13.5"/>
</g>
<!-- Node3 -->
<g id="node3" class="node">
<title>Node3</title>
<g id="a_node3"><a xlink:href="upper__lower__app_8cpp.html#ae0fba890190acbbf51e10489492c7f59" target="_top" xlink:title=" ">
<polygon fill="none" stroke="black" points="136,-0.5 136,-19.5 177,-19.5 177,-0.5 136,-0.5"/>
<text text-anchor="middle" x="156.5" y="-7.5" font-family="Helvetica,sans-Serif" font-size="10.00">pEnq</text>
</a>
</g>
</g>
<!-- Node2&#45;&gt;Node3 -->
<g id="edge2" class="edge">
<title>Node2&#45;&gt;Node3</title>
<path fill="none" stroke="midnightblue" d="M202.7,-10C193.67,-10 184.66,-10 177.09,-10"/>
<polygon fill="midnightblue" stroke="midnightblue" points="202.84,-13.5 212.84,-10 202.84,-6.5 202.84,-13.5"/>
</g>
<!-- Node4 -->
<g id="node4" class="node">
<title>Node4</title>
<g id="a_node4"><a xlink:href="upper__lower__app_8cpp.html#a99a4fd54364708cb3699ed4e476b581b" target="_top" xlink:title="Main process of the UDP/TCP Triangle Application. This HLS IP receives a packet, invert the case of A...">
<polygon fill="none" stroke="black" points="0,-0.5 0,-19.5 100,-19.5 100,-0.5 0,-0.5"/>
<text text-anchor="middle" x="50" y="-7.5" font-family="Helvetica,sans-Serif" font-size="10.00">upper_lower_app</text>
</a>
</g>
</g>
<!-- Node3&#45;&gt;Node4 -->
<g id="edge3" class="edge">
<title>Node3&#45;&gt;Node4</title>
<path fill="none" stroke="midnightblue" d="M125.6,-10C117.63,-10 108.81,-10 100.1,-10"/>
<polygon fill="midnightblue" stroke="midnightblue" points="125.84,-13.5 135.84,-10 125.84,-6.5 125.84,-13.5"/>
</g>
</g>
</svg>
