<?xml version="1.0" encoding="UTF-8" standalone="no"?>
<!DOCTYPE svg PUBLIC "-//W3C//DTD SVG 1.1//EN"
 "http://www.w3.org/Graphics/SVG/1.1/DTD/svg11.dtd">
<!-- Generated by graphviz version 2.43.0 (0)
 -->
<!-- Title: repos_for_Dox/cFp_Zoo/HOST/common/langs/cpp/src/util.cpp Pages: 1 -->
<svg width="488pt" height="162pt"
 viewBox="0.00 0.00 488.00 162.00" xmlns="http://www.w3.org/2000/svg" xmlns:xlink="http://www.w3.org/1999/xlink">
<g id="graph0" class="graph" transform="scale(1 1) rotate(0) translate(4 158)">
<title>repos_for_Dox/cFp_Zoo/HOST/common/langs/cpp/src/util.cpp</title>
<!-- Node1 -->
<g id="node1" class="node">
<title>Node1</title>
<g id="a_node1"><a xlink:title="Common utility functions, i.e. timing, printing wrappers.">
<polygon fill="#bfbfbf" stroke="black" points="172,-112.5 172,-153.5 314,-153.5 314,-112.5 172,-112.5"/>
<text text-anchor="start" x="180" y="-141.5" font-family="Helvetica,sans-Serif" font-size="10.00">repos_for_Dox/cFp_Zoo</text>
<text text-anchor="start" x="180" y="-130.5" font-family="Helvetica,sans-Serif" font-size="10.00">/HOST/common/langs/cpp</text>
<text text-anchor="middle" x="243" y="-119.5" font-family="Helvetica,sans-Serif" font-size="10.00">/src/util.cpp</text>
</a>
</g>
</g>
<!-- Node2 -->
<g id="node2" class="node">
<title>Node2</title>
<g id="a_node2"><a xlink:href="util_8hpp.html" target="_top" xlink:title="Common utility functions headers, i.e. timing, printing wrappers.">
<polygon fill="none" stroke="black" points="216.5,-56.5 216.5,-75.5 269.5,-75.5 269.5,-56.5 216.5,-56.5"/>
<text text-anchor="middle" x="243" y="-63.5" font-family="Helvetica,sans-Serif" font-size="10.00">util.hpp</text>
</a>
</g>
</g>
<!-- Node1&#45;&gt;Node2 -->
<g id="edge1" class="edge">
<title>Node1&#45;&gt;Node2</title>
<path fill="none" stroke="midnightblue" d="M243,-112.5C243,-104.07 243,-94.24 243,-85.87"/>
<polygon fill="midnightblue" stroke="midnightblue" points="246.5,-85.65 243,-75.65 239.5,-85.65 246.5,-85.65"/>
</g>
<!-- Node3 -->
<g id="node3" class="node">
<title>Node3</title>
<g id="a_node3"><a xlink:title=" ">
<polygon fill="none" stroke="#bfbfbf" points="0,-0.5 0,-19.5 50,-19.5 50,-0.5 0,-0.5"/>
<text text-anchor="middle" x="25" y="-7.5" font-family="Helvetica,sans-Serif" font-size="10.00">stdio.h</text>
</a>
</g>
</g>
<!-- Node2&#45;&gt;Node3 -->
<g id="edge2" class="edge">
<title>Node2&#45;&gt;Node3</title>
<path fill="none" stroke="midnightblue" d="M216.45,-58.67C182.47,-50.54 121.53,-35.83 60.1,-20.25"/>
<polygon fill="midnightblue" stroke="midnightblue" points="60.79,-16.81 50.24,-17.74 59.07,-23.59 60.79,-16.81"/>
</g>
<!-- Node4 -->
<g id="node4" class="node">
<title>Node4</title>
<g id="a_node4"><a xlink:title=" ">
<polygon fill="none" stroke="#bfbfbf" points="68.5,-0.5 68.5,-19.5 121.5,-19.5 121.5,-0.5 68.5,-0.5"/>
<text text-anchor="middle" x="95" y="-7.5" font-family="Helvetica,sans-Serif" font-size="10.00">stdint.h</text>
</a>
</g>
</g>
<!-- Node2&#45;&gt;Node4 -->
<g id="edge3" class="edge">
<title>Node2&#45;&gt;Node4</title>
<path fill="none" stroke="midnightblue" d="M219.55,-56.44C194.87,-47.44 155.81,-33.19 128.02,-23.05"/>
<polygon fill="midnightblue" stroke="midnightblue" points="128.94,-19.66 118.34,-19.52 126.54,-26.23 128.94,-19.66"/>
</g>
<!-- Node5 -->
<g id="node5" class="node">
<title>Node5</title>
<g id="a_node5"><a xlink:title=" ">
<polygon fill="none" stroke="#bfbfbf" points="140,-0.5 140,-19.5 196,-19.5 196,-0.5 140,-0.5"/>
<text text-anchor="middle" x="168" y="-7.5" font-family="Helvetica,sans-Serif" font-size="10.00">stdarg.h</text>
</a>
</g>
</g>
<!-- Node2&#45;&gt;Node5 -->
<g id="edge4" class="edge">
<title>Node2&#45;&gt;Node5</title>
<path fill="none" stroke="midnightblue" d="M230.95,-56.32C219.54,-48.11 202.17,-35.6 188.57,-25.81"/>
<polygon fill="midnightblue" stroke="midnightblue" points="190.43,-22.84 180.27,-19.83 186.34,-28.52 190.43,-22.84"/>
</g>
<!-- Node6 -->
<g id="node6" class="node">
<title>Node6</title>
<g id="a_node6"><a xlink:title=" ">
<polygon fill="none" stroke="#bfbfbf" points="214.5,-0.5 214.5,-19.5 271.5,-19.5 271.5,-0.5 214.5,-0.5"/>
<text text-anchor="middle" x="243" y="-7.5" font-family="Helvetica,sans-Serif" font-size="10.00">ostream</text>
</a>
</g>
</g>
<!-- Node2&#45;&gt;Node6 -->
<g id="edge5" class="edge">
<title>Node2&#45;&gt;Node6</title>
<path fill="none" stroke="midnightblue" d="M243,-56.08C243,-49.01 243,-38.86 243,-29.99"/>
<polygon fill="midnightblue" stroke="midnightblue" points="246.5,-29.75 243,-19.75 239.5,-29.75 246.5,-29.75"/>
</g>
<!-- Node7 -->
<g id="node7" class="node">
<title>Node7</title>
<g id="a_node7"><a xlink:title=" ">
<polygon fill="none" stroke="#bfbfbf" points="289.5,-0.5 289.5,-19.5 344.5,-19.5 344.5,-0.5 289.5,-0.5"/>
<text text-anchor="middle" x="317" y="-7.5" font-family="Helvetica,sans-Serif" font-size="10.00">fstream</text>
</a>
</g>
</g>
<!-- Node2&#45;&gt;Node7 -->
<g id="edge6" class="edge">
<title>Node2&#45;&gt;Node7</title>
<path fill="none" stroke="midnightblue" d="M254.89,-56.32C266.15,-48.11 283.29,-35.6 296.71,-25.81"/>
<polygon fill="midnightblue" stroke="midnightblue" points="298.88,-28.56 304.89,-19.83 294.75,-22.9 298.88,-28.56"/>
</g>
<!-- Node8 -->
<g id="node8" class="node">
<title>Node8</title>
<g id="a_node8"><a xlink:title=" ">
<polygon fill="none" stroke="#bfbfbf" points="362.5,-0.5 362.5,-19.5 417.5,-19.5 417.5,-0.5 362.5,-0.5"/>
<text text-anchor="middle" x="390" y="-7.5" font-family="Helvetica,sans-Serif" font-size="10.00">config.h</text>
</a>
</g>
</g>
<!-- Node2&#45;&gt;Node8 -->
<g id="edge7" class="edge">
<title>Node2&#45;&gt;Node8</title>
<path fill="none" stroke="midnightblue" d="M266.29,-56.44C290.81,-47.44 329.6,-33.19 357.2,-23.05"/>
<polygon fill="midnightblue" stroke="midnightblue" points="358.64,-26.25 366.82,-19.52 356.22,-19.68 358.64,-26.25"/>
</g>
<!-- Node9 -->
<g id="node9" class="node">
<title>Node9</title>
<g id="a_node9"><a xlink:title=" ">
<polygon fill="none" stroke="#bfbfbf" points="436,-0.5 436,-19.5 480,-19.5 480,-0.5 436,-0.5"/>
<text text-anchor="middle" x="458" y="-7.5" font-family="Helvetica,sans-Serif" font-size="10.00">string</text>
</a>
</g>
</g>
<!-- Node2&#45;&gt;Node9 -->
<g id="edge8" class="edge">
<title>Node2&#45;&gt;Node9</title>
<path fill="none" stroke="midnightblue" d="M269.6,-58.87C303.64,-50.95 364.64,-36.47 425.86,-20.23"/>
<polygon fill="midnightblue" stroke="midnightblue" points="426.92,-23.56 435.68,-17.6 425.12,-16.8 426.92,-23.56"/>
</g>
</g>
</svg>
