<?xml version="1.0" encoding="UTF-8" standalone="no"?>
<!DOCTYPE svg PUBLIC "-//W3C//DTD SVG 1.1//EN"
 "http://www.w3.org/Graphics/SVG/1.1/DTD/svg11.dtd">
<!-- Generated by graphviz version 2.43.0 (0)
 -->
<!-- Title: repos_for_Dox/cFp_Zoo/ROLE/vision/hls/warp_transform/include/warp_transform.hpp Pages: 1 -->
<svg width="507pt" height="239pt"
 viewBox="0.00 0.00 506.50 239.00" xmlns="http://www.w3.org/2000/svg" xmlns:xlink="http://www.w3.org/1999/xlink">
<g id="graph0" class="graph" transform="scale(1 1) rotate(0) translate(4 235)">
<title>repos_for_Dox/cFp_Zoo/ROLE/vision/hls/warp_transform/include/warp_transform.hpp</title>
<!-- Node1 -->
<g id="node1" class="node">
<title>Node1</title>
<g id="a_node1"><a xlink:title="The Role for a WarpTransform Example application (UDP or TCP)">
<polygon fill="#bfbfbf" stroke="black" points="204.5,-178.5 204.5,-230.5 339.5,-230.5 339.5,-178.5 204.5,-178.5"/>
<text text-anchor="start" x="212.5" y="-218.5" font-family="Helvetica,sans-Serif" font-size="10.00">repos_for_Dox/cFp_Zoo</text>
<text text-anchor="start" x="212.5" y="-207.5" font-family="Helvetica,sans-Serif" font-size="10.00">/ROLE/vision/hls/warp</text>
<text text-anchor="start" x="212.5" y="-196.5" font-family="Helvetica,sans-Serif" font-size="10.00">_transform/include/warp</text>
<text text-anchor="middle" x="272" y="-185.5" font-family="Helvetica,sans-Serif" font-size="10.00">_transform.hpp</text>
</a>
</g>
</g>
<!-- Node2 -->
<g id="node2" class="node">
<title>Node2</title>
<g id="a_node2"><a xlink:href="xf__warp__transform__config_8h.html" target="_top" xlink:title="The WarpTransform configuration header.">
<polygon fill="none" stroke="black" points="200.5,-89.5 200.5,-141.5 343.5,-141.5 343.5,-89.5 200.5,-89.5"/>
<text text-anchor="start" x="208.5" y="-129.5" font-family="Helvetica,sans-Serif" font-size="10.00">repos_for_Dox/cFp_Zoo</text>
<text text-anchor="start" x="208.5" y="-118.5" font-family="Helvetica,sans-Serif" font-size="10.00">/ROLE/vision/hls/warp</text>
<text text-anchor="start" x="208.5" y="-107.5" font-family="Helvetica,sans-Serif" font-size="10.00">_transform/include/xf</text>
<text text-anchor="middle" x="272" y="-96.5" font-family="Helvetica,sans-Serif" font-size="10.00">_warp_transform_config.h</text>
</a>
</g>
</g>
<!-- Node1&#45;&gt;Node2 -->
<g id="edge1" class="edge">
<title>Node1&#45;&gt;Node2</title>
<path fill="none" stroke="midnightblue" d="M272,-168.19C272,-159.28 272,-149.9 272,-141.61"/>
<polygon fill="midnightblue" stroke="midnightblue" points="268.5,-168.34 272,-178.34 275.5,-168.34 268.5,-168.34"/>
</g>
<!-- Node3 -->
<g id="node3" class="node">
<title>Node3</title>
<g id="a_node3"><a xlink:href="warp__transform_8cpp.html" target="_top" xlink:title="The Role for a WarpTransform Example application (UDP or TCP)">
<polygon fill="none" stroke="black" points="0,-6 0,-47 188,-47 188,-6 0,-6"/>
<text text-anchor="start" x="8" y="-35" font-family="Helvetica,sans-Serif" font-size="10.00">repos_for_Dox/cFp_Zoo</text>
<text text-anchor="start" x="8" y="-24" font-family="Helvetica,sans-Serif" font-size="10.00">/ROLE/vision/hls/warp</text>
<text text-anchor="middle" x="94" y="-13" font-family="Helvetica,sans-Serif" font-size="10.00">_transform/src/warp_transform.cpp</text>
</a>
</g>
</g>
<!-- Node1&#45;&gt;Node3 -->
<g id="edge5" class="edge">
<title>Node1&#45;&gt;Node3</title>
<path fill="none" stroke="midnightblue" d="M227.26,-172.28C215.06,-163.04 202.14,-152.56 191,-142 158.86,-111.53 126.63,-71.04 108.6,-47.27"/>
<polygon fill="midnightblue" stroke="midnightblue" points="225.45,-175.29 235.56,-178.46 229.63,-169.68 225.45,-175.29"/>
</g>
<!-- Node5 -->
<g id="node5" class="node">
<title>Node5</title>
<g id="a_node5"><a xlink:href="test__warp__transform_8cpp.html" target="_top" xlink:title=": Testbench for WarpTransform.">
<polygon fill="none" stroke="black" points="355.5,-0.5 355.5,-52.5 498.5,-52.5 498.5,-0.5 355.5,-0.5"/>
<text text-anchor="start" x="363.5" y="-40.5" font-family="Helvetica,sans-Serif" font-size="10.00">repos_for_Dox/cFp_Zoo</text>
<text text-anchor="start" x="363.5" y="-29.5" font-family="Helvetica,sans-Serif" font-size="10.00">/ROLE/vision/hls/warp</text>
<text text-anchor="start" x="363.5" y="-18.5" font-family="Helvetica,sans-Serif" font-size="10.00">_transform/test/test_warp</text>
<text text-anchor="middle" x="427" y="-7.5" font-family="Helvetica,sans-Serif" font-size="10.00">_transform.cpp</text>
</a>
</g>
</g>
<!-- Node1&#45;&gt;Node5 -->
<g id="edge6" class="edge">
<title>Node1&#45;&gt;Node5</title>
<path fill="none" stroke="midnightblue" d="M318.69,-172.41C330.58,-163.36 342.86,-152.94 353,-142 378.42,-114.58 400.65,-77.39 413.95,-52.93"/>
<polygon fill="midnightblue" stroke="midnightblue" points="316.5,-169.68 310.55,-178.44 320.67,-175.3 316.5,-169.68"/>
</g>
<!-- Node2&#45;&gt;Node3 -->
<g id="edge2" class="edge">
<title>Node2&#45;&gt;Node3</title>
<path fill="none" stroke="midnightblue" d="M211.29,-84.83C185.79,-72.36 156.83,-58.21 134.06,-47.08"/>
<polygon fill="midnightblue" stroke="midnightblue" points="209.99,-88.09 220.52,-89.34 213.07,-81.8 209.99,-88.09"/>
</g>
<!-- Node4 -->
<g id="node4" class="node">
<title>Node4</title>
<g id="a_node4"><a xlink:href="xf__warp__transform__accel_8cpp.html" target="_top" xlink:title="The WarpTransform top&#45;level.">
<polygon fill="none" stroke="black" points="206.5,-0.5 206.5,-52.5 337.5,-52.5 337.5,-0.5 206.5,-0.5"/>
<text text-anchor="start" x="214.5" y="-40.5" font-family="Helvetica,sans-Serif" font-size="10.00">repos_for_Dox/cFp_Zoo</text>
<text text-anchor="start" x="214.5" y="-29.5" font-family="Helvetica,sans-Serif" font-size="10.00">/ROLE/vision/hls/warp</text>
<text text-anchor="start" x="214.5" y="-18.5" font-family="Helvetica,sans-Serif" font-size="10.00">_transform/src/xf_warp</text>
<text text-anchor="middle" x="272" y="-7.5" font-family="Helvetica,sans-Serif" font-size="10.00">_transform_accel.cpp</text>
</a>
</g>
</g>
<!-- Node2&#45;&gt;Node4 -->
<g id="edge3" class="edge">
<title>Node2&#45;&gt;Node4</title>
<path fill="none" stroke="midnightblue" d="M272,-79.19C272,-70.28 272,-60.9 272,-52.61"/>
<polygon fill="midnightblue" stroke="midnightblue" points="268.5,-79.34 272,-89.34 275.5,-79.34 268.5,-79.34"/>
</g>
<!-- Node2&#45;&gt;Node5 -->
<g id="edge4" class="edge">
<title>Node2&#45;&gt;Node5</title>
<path fill="none" stroke="midnightblue" d="M325.71,-84.35C344.16,-74 364.61,-62.52 382.27,-52.61"/>
<polygon fill="midnightblue" stroke="midnightblue" points="323.84,-81.39 316.83,-89.34 327.27,-87.49 323.84,-81.39"/>
</g>
</g>
</svg>
