<?xml version="1.0" encoding="UTF-8" standalone="no"?>
<!DOCTYPE svg PUBLIC "-//W3C//DTD SVG 1.1//EN"
 "http://www.w3.org/Graphics/SVG/1.1/DTD/svg11.dtd">
<!-- Generated by graphviz version 2.43.0 (0)
 -->
<!-- Title: repos_for_Dox/cFp_Zoo/HOST/vision/warp_transform/languages/cplusplus/src/warp_transform_host.cpp Pages: 1 -->
<!--zoomable 195 -->
<svg id="main" version="1.1" xmlns="http://www.w3.org/2000/svg" xmlns:xlink="http://www.w3.org/1999/xlink" xml:space="preserve" onload="init(evt)">
<style type="text/css"><![CDATA[
.edge:hover path { stroke: red; }
.edge:hover polygon { stroke: red; fill: red; }
]]></style>
<script type="text/javascript"><![CDATA[
var edges = document.getElementsByTagName('g');
if (edges && edges.length) {
  for (var i=0;i<edges.length;i++) {
    if (edges[i].id.substr(0,4)=='edge') {
      edges[i].setAttribute('class','edge');
    }
  }
}
]]></script>
        <defs>
                <circle id="rim" cx="0" cy="0" r="7"/>
                <circle id="rim2" cx="0" cy="0" r="3.5"/>
                <g id="zoomPlus">
                        <use xlink:href="#rim" fill="#404040">
                                <set attributeName="fill" to="#808080" begin="zoomplus.mouseover" end="zoomplus.mouseout"/>
                        </use>
                        <path d="M-4,0h8M0,-4v8" fill="none" stroke="white" stroke-width="1.5" pointer-events="none"/>
                </g>
                <g id="zoomMin">
                        <use xlink:href="#rim" fill="#404040">
                                <set attributeName="fill" to="#808080" begin="zoomminus.mouseover" end="zoomminus.mouseout"/>
                        </use>
                        <path d="M-4,0h8" fill="none" stroke="white" stroke-width="1.5" pointer-events="none"/>
                </g>
                <g id="dirArrow">
                        <path fill="none" stroke="white" stroke-width="1.5" d="M0,-3.0v7 M-2.5,-0.5L0,-3.0L2.5,-0.5"/>
                </g>
               <g id="resetDef">
                       <use xlink:href="#rim2" fill="#404040">
                               <set attributeName="fill" to="#808080" begin="reset.mouseover" end="reset.mouseout"/>
                       </use>
               </g>
        </defs>

<script type="text/javascript">
var viewWidth = 953;
var viewHeight = 195;
var sectionId = 'dynsection-0';
</script>
<script xlink:href="svgpan.js"/>
<svg id="graph" class="graph">
<g id="viewport">
<title>repos_for_Dox/cFp_Zoo/HOST/vision/warp_transform/languages/cplusplus/src/warp_transform_host.cpp</title>
<!-- Node1 -->
<g id="node1" class="node">
<title>Node1</title>
<g id="a_node1"><a xlink:title="WarpTransform userspace application for cF (x86, ppc64).">
<polygon fill="#bfbfbf" stroke="black" points="273.5,-134.5 273.5,-186.5 432.5,-186.5 432.5,-134.5 273.5,-134.5"/>
<text text-anchor="start" x="281.5" y="-174.5" font-family="Helvetica,sans-Serif" font-size="10.00">repos_for_Dox/cFp_Zoo</text>
<text text-anchor="start" x="281.5" y="-163.5" font-family="Helvetica,sans-Serif" font-size="10.00">/HOST/vision/warp_transform</text>
<text text-anchor="start" x="281.5" y="-152.5" font-family="Helvetica,sans-Serif" font-size="10.00">/languages/cplusplus/src</text>
<text text-anchor="middle" x="353" y="-141.5" font-family="Helvetica,sans-Serif" font-size="10.00">/warp_transform_host.cpp</text>
</a>
</g>
</g>
<!-- Node2 -->
<g id="node2" class="node">
<title>Node2</title>
<g id="a_node2"><a xlink:title=" ">
<polygon fill="none" stroke="#bfbfbf" points="0,-0.5 0,-19.5 50,-19.5 50,-0.5 0,-0.5"/>
<text text-anchor="middle" x="25" y="-7.5" font-family="Helvetica,sans-Serif" font-size="10.00">stdio.h</text>
</a>
</g>
</g>
<!-- Node1&#45;&gt;Node2 -->
<g id="edge1" class="edge">
<title>Node1&#45;&gt;Node2</title>
<path fill="none" stroke="midnightblue" d="M273.46,-150.34C224.16,-142.07 160.94,-126.59 111,-98 79.67,-80.06 52.03,-47.59 37,-27.8"/>
<polygon fill="midnightblue" stroke="midnightblue" points="39.76,-25.65 31,-19.69 34.13,-29.81 39.76,-25.65"/>
</g>
<!-- Node3 -->
<g id="node3" class="node">
<title>Node3</title>
<g id="a_node3"><a xlink:title=" ">
<polygon fill="none" stroke="#bfbfbf" points="250,-67.5 250,-86.5 310,-86.5 310,-67.5 250,-67.5"/>
<text text-anchor="middle" x="280" y="-74.5" font-family="Helvetica,sans-Serif" font-size="10.00">iostream</text>
</a>
</g>
</g>
<!-- Node1&#45;&gt;Node3 -->
<g id="edge2" class="edge">
<title>Node1&#45;&gt;Node3</title>
<path fill="none" stroke="midnightblue" d="M330.3,-134.16C318.58,-121.07 304.63,-105.5 294.4,-94.08"/>
<polygon fill="midnightblue" stroke="midnightblue" points="296.97,-91.7 287.69,-86.59 291.76,-96.37 296.97,-91.7"/>
</g>
<!-- Node4 -->
<g id="node4" class="node">
<title>Node4</title>
<g id="a_node4"><a xlink:title=" ">
<polygon fill="none" stroke="#bfbfbf" points="328.5,-67.5 328.5,-86.5 377.5,-86.5 377.5,-67.5 328.5,-67.5"/>
<text text-anchor="middle" x="353" y="-74.5" font-family="Helvetica,sans-Serif" font-size="10.00">cstdlib</text>
</a>
</g>
</g>
<!-- Node1&#45;&gt;Node4 -->
<g id="edge3" class="edge">
<title>Node1&#45;&gt;Node4</title>
<path fill="none" stroke="midnightblue" d="M353,-134.16C353,-122.09 353,-107.91 353,-96.81"/>
<polygon fill="midnightblue" stroke="midnightblue" points="356.5,-96.59 353,-86.59 349.5,-96.59 356.5,-96.59"/>
</g>
<!-- Node5 -->
<g id="node5" class="node">
<title>Node5</title>
<g id="a_node5"><a xlink:title=" ">
<polygon fill="none" stroke="#bfbfbf" points="396,-67.5 396,-86.5 452,-86.5 452,-67.5 396,-67.5"/>
<text text-anchor="middle" x="424" y="-74.5" font-family="Helvetica,sans-Serif" font-size="10.00">assert.h</text>
</a>
</g>
</g>
<!-- Node1&#45;&gt;Node5 -->
<g id="edge4" class="edge">
<title>Node1&#45;&gt;Node5</title>
<path fill="none" stroke="midnightblue" d="M375.08,-134.16C386.36,-121.2 399.78,-105.81 409.7,-94.41"/>
<polygon fill="midnightblue" stroke="midnightblue" points="412.59,-96.43 416.52,-86.59 407.31,-91.83 412.59,-96.43"/>
</g>
<!-- Node6 -->
<g id="node6" class="node">
<title>Node6</title>
<g id="a_node6"><a xlink:title=" ">
<polygon fill="none" stroke="#bfbfbf" points="68,-0.5 68,-19.5 112,-19.5 112,-0.5 68,-0.5"/>
<text text-anchor="middle" x="90" y="-7.5" font-family="Helvetica,sans-Serif" font-size="10.00">string</text>
</a>
</g>
</g>
<!-- Node1&#45;&gt;Node6 -->
<g id="edge5" class="edge">
<title>Node1&#45;&gt;Node6</title>
<path fill="none" stroke="midnightblue" d="M273.19,-147.85C233.61,-139.08 186.76,-123.93 151,-98 126.07,-79.93 107.72,-48.44 97.97,-28.71"/>
<polygon fill="midnightblue" stroke="midnightblue" points="101.1,-27.14 93.66,-19.6 94.77,-30.14 101.1,-27.14"/>
</g>
<!-- Node7 -->
<g id="node7" class="node">
<title>Node7</title>
<g id="a_node7"><a xlink:title=" ">
<polygon fill="none" stroke="#bfbfbf" points="470.5,-67.5 470.5,-86.5 523.5,-86.5 523.5,-67.5 470.5,-67.5"/>
<text text-anchor="middle" x="497" y="-74.5" font-family="Helvetica,sans-Serif" font-size="10.00">string.h</text>
</a>
</g>
</g>
<!-- Node1&#45;&gt;Node7 -->
<g id="edge6" class="edge">
<title>Node1&#45;&gt;Node7</title>
<path fill="none" stroke="midnightblue" d="M397.38,-134.38C422.32,-120.27 452.47,-103.2 473.02,-91.57"/>
<polygon fill="midnightblue" stroke="midnightblue" points="474.76,-94.61 481.74,-86.64 471.31,-88.52 474.76,-94.61"/>
</g>
<!-- Node8 -->
<g id="node8" class="node">
<title>Node8</title>
<g id="a_node8"><a xlink:title=" ">
<polygon fill="none" stroke="#bfbfbf" points="541.5,-67.5 541.5,-86.5 646.5,-86.5 646.5,-67.5 541.5,-67.5"/>
<text text-anchor="middle" x="594" y="-74.5" font-family="Helvetica,sans-Serif" font-size="10.00">PracticalSockets.h</text>
</a>
</g>
</g>
<!-- Node1&#45;&gt;Node8 -->
<g id="edge7" class="edge">
<title>Node1&#45;&gt;Node8</title>
<path fill="none" stroke="midnightblue" d="M426.95,-134.49C470.9,-119.63 524.61,-101.47 559.06,-89.82"/>
<polygon fill="midnightblue" stroke="midnightblue" points="560.32,-93.09 568.67,-86.57 558.07,-86.45 560.32,-93.09"/>
</g>
<!-- Node9 -->
<g id="node9" class="node">
<title>Node9</title>
<g id="a_node9"><a xlink:title=" ">
<polygon fill="none" stroke="#bfbfbf" points="130.5,-0.5 130.5,-19.5 185.5,-19.5 185.5,-0.5 130.5,-0.5"/>
<text text-anchor="middle" x="158" y="-7.5" font-family="Helvetica,sans-Serif" font-size="10.00">config.h</text>
</a>
</g>
</g>
<!-- Node1&#45;&gt;Node9 -->
<g id="edge8" class="edge">
<title>Node1&#45;&gt;Node9</title>
<path fill="none" stroke="midnightblue" d="M273.15,-152.14C235.97,-144.46 194.42,-128.99 169,-98 153.26,-78.81 153.11,-48.79 155.07,-29.5"/>
<polygon fill="midnightblue" stroke="midnightblue" points="158.54,-29.92 156.37,-19.56 151.6,-29.02 158.54,-29.92"/>
</g>
<!-- Node10 -->
<g id="node10" class="node">
<title>Node10</title>
<g id="a_node10"><a xlink:href="util_8hpp.html" target="_top" xlink:title="Common utility functions headers, i.e. timing, printing wrappers.">
<polygon fill="none" stroke="black" points="178.5,-67.5 178.5,-86.5 231.5,-86.5 231.5,-67.5 178.5,-67.5"/>
<text text-anchor="middle" x="205" y="-74.5" font-family="Helvetica,sans-Serif" font-size="10.00">util.hpp</text>
</a>
</g>
</g>
<!-- Node1&#45;&gt;Node10 -->
<g id="edge9" class="edge">
<title>Node1&#45;&gt;Node10</title>
<path fill="none" stroke="midnightblue" d="M307.2,-134.42C286.9,-123.29 262.75,-110.01 241,-98 237.2,-95.9 233.17,-93.67 229.25,-91.49"/>
<polygon fill="midnightblue" stroke="midnightblue" points="230.85,-88.38 220.41,-86.58 227.45,-94.5 230.85,-88.38"/>
</g>
<!-- Node15 -->
<g id="node15" class="node">
<title>Node15</title>
<g id="a_node15"><a xlink:title=" ">
<polygon fill="none" stroke="#bfbfbf" points="665,-67.5 665,-86.5 781,-86.5 781,-67.5 665,-67.5"/>
<text text-anchor="middle" x="723" y="-74.5" font-family="Helvetica,sans-Serif" font-size="10.00">opencv2/opencv.hpp</text>
</a>
</g>
</g>
<!-- Node1&#45;&gt;Node15 -->
<g id="edge17" class="edge">
<title>Node1&#45;&gt;Node15</title>
<path fill="none" stroke="midnightblue" d="M432.55,-145.38C493.92,-133.99 580.76,-116.83 656,-98 666.07,-95.48 676.89,-92.41 686.83,-89.45"/>
<polygon fill="midnightblue" stroke="midnightblue" points="687.87,-92.79 696.42,-86.53 685.83,-86.09 687.87,-92.79"/>
</g>
<!-- Node16 -->
<g id="node16" class="node">
<title>Node16</title>
<g id="a_node16"><a xlink:href="warp__transform_2include_2xf__ocv__ref_8hpp.html" target="_top" xlink:title="The WarpTransform reference functions used in TB.">
<polygon fill="none" stroke="black" points="799,-56.5 799,-97.5 945,-97.5 945,-56.5 799,-56.5"/>
<text text-anchor="start" x="807" y="-85.5" font-family="Helvetica,sans-Serif" font-size="10.00">../../../../../../ROLE</text>
<text text-anchor="start" x="807" y="-74.5" font-family="Helvetica,sans-Serif" font-size="10.00">/vision/hls/warp_transform</text>
<text text-anchor="middle" x="872" y="-63.5" font-family="Helvetica,sans-Serif" font-size="10.00">/include/xf_ocv_ref.hpp</text>
</a>
</g>
</g>
<!-- Node1&#45;&gt;Node16 -->
<g id="edge18" class="edge">
<title>Node1&#45;&gt;Node16</title>
<path fill="none" stroke="midnightblue" d="M432.74,-150.69C518.41,-140.68 658.69,-122.72 788.63,-98.18"/>
<polygon fill="midnightblue" stroke="midnightblue" points="789.59,-101.56 798.76,-96.25 788.28,-94.68 789.59,-101.56"/>
</g>
<!-- Node10&#45;&gt;Node2 -->
<g id="edge10" class="edge">
<title>Node10&#45;&gt;Node2</title>
<path fill="none" stroke="midnightblue" d="M181.1,-67.37C149.54,-55.97 93.82,-35.85 58.19,-22.99"/>
<polygon fill="midnightblue" stroke="midnightblue" points="59.31,-19.67 48.71,-19.56 56.93,-26.25 59.31,-19.67"/>
</g>
<!-- Node10&#45;&gt;Node6 -->
<g id="edge16" class="edge">
<title>Node10&#45;&gt;Node6</title>
<path fill="none" stroke="midnightblue" d="M189.49,-67.23C170.09,-56.27 136.67,-37.38 113.97,-24.55"/>
<polygon fill="midnightblue" stroke="midnightblue" points="115.69,-21.5 105.26,-19.63 112.25,-27.59 115.69,-21.5"/>
</g>
<!-- Node10&#45;&gt;Node9 -->
<g id="edge15" class="edge">
<title>Node10&#45;&gt;Node9</title>
<path fill="none" stroke="midnightblue" d="M198.66,-67.23C191.4,-57.2 179.34,-40.51 170.24,-27.92"/>
<polygon fill="midnightblue" stroke="midnightblue" points="172.93,-25.68 164.24,-19.63 167.26,-29.78 172.93,-25.68"/>
</g>
<!-- Node11 -->
<g id="node11" class="node">
<title>Node11</title>
<g id="a_node11"><a xlink:title=" ">
<polygon fill="none" stroke="#bfbfbf" points="203.5,-0.5 203.5,-19.5 256.5,-19.5 256.5,-0.5 203.5,-0.5"/>
<text text-anchor="middle" x="230" y="-7.5" font-family="Helvetica,sans-Serif" font-size="10.00">stdint.h</text>
</a>
</g>
</g>
<!-- Node10&#45;&gt;Node11 -->
<g id="edge11" class="edge">
<title>Node10&#45;&gt;Node11</title>
<path fill="none" stroke="midnightblue" d="M208.37,-67.23C212.12,-57.49 218.28,-41.48 223.06,-29.03"/>
<polygon fill="midnightblue" stroke="midnightblue" points="226.36,-30.22 226.68,-19.63 219.83,-27.7 226.36,-30.22"/>
</g>
<!-- Node12 -->
<g id="node12" class="node">
<title>Node12</title>
<g id="a_node12"><a xlink:title=" ">
<polygon fill="none" stroke="#bfbfbf" points="275,-0.5 275,-19.5 331,-19.5 331,-0.5 275,-0.5"/>
<text text-anchor="middle" x="303" y="-7.5" font-family="Helvetica,sans-Serif" font-size="10.00">stdarg.h</text>
</a>
</g>
</g>
<!-- Node10&#45;&gt;Node12 -->
<g id="edge12" class="edge">
<title>Node10&#45;&gt;Node12</title>
<path fill="none" stroke="midnightblue" d="M218.22,-67.23C234.45,-56.46 262.22,-38.05 281.53,-25.24"/>
<polygon fill="midnightblue" stroke="midnightblue" points="283.59,-28.07 289.99,-19.63 279.72,-22.24 283.59,-28.07"/>
</g>
<!-- Node13 -->
<g id="node13" class="node">
<title>Node13</title>
<g id="a_node13"><a xlink:title=" ">
<polygon fill="none" stroke="#bfbfbf" points="349.5,-0.5 349.5,-19.5 406.5,-19.5 406.5,-0.5 349.5,-0.5"/>
<text text-anchor="middle" x="378" y="-7.5" font-family="Helvetica,sans-Serif" font-size="10.00">ostream</text>
</a>
</g>
</g>
<!-- Node10&#45;&gt;Node13 -->
<g id="edge13" class="edge">
<title>Node10&#45;&gt;Node13</title>
<path fill="none" stroke="midnightblue" d="M219.05,-67.38C225.58,-63.59 233.53,-59.27 241,-56 273.38,-41.84 311.71,-29.61 339.58,-21.49"/>
<polygon fill="midnightblue" stroke="midnightblue" points="340.69,-24.81 349.34,-18.69 338.76,-18.09 340.69,-24.81"/>
</g>
<!-- Node14 -->
<g id="node14" class="node">
<title>Node14</title>
<g id="a_node14"><a xlink:title=" ">
<polygon fill="none" stroke="#bfbfbf" points="424.5,-0.5 424.5,-19.5 479.5,-19.5 479.5,-0.5 424.5,-0.5"/>
<text text-anchor="middle" x="452" y="-7.5" font-family="Helvetica,sans-Serif" font-size="10.00">fstream</text>
</a>
</g>
</g>
<!-- Node10&#45;&gt;Node14 -->
<g id="edge14" class="edge">
<title>Node10&#45;&gt;Node14</title>
<path fill="none" stroke="midnightblue" d="M218.21,-67.39C224.82,-63.42 233.09,-58.94 241,-56 312.14,-29.58 336.09,-36.7 414.33,-20.04"/>
<polygon fill="midnightblue" stroke="midnightblue" points="415.13,-23.45 424.14,-17.89 413.63,-16.61 415.13,-23.45"/>
</g>
<!-- Node17 -->
<g id="node17" class="node">
<title>Node17</title>
<g id="a_node17"><a xlink:href="warp__transform_2include_2xf__config__params_8h.html" target="_top" xlink:title="The WarpTransform IP configuration header.">
<polygon fill="none" stroke="black" points="816,-0.5 816,-19.5 928,-19.5 928,-0.5 816,-0.5"/>
<text text-anchor="middle" x="872" y="-7.5" font-family="Helvetica,sans-Serif" font-size="10.00">xf_config_params.h</text>
</a>
</g>
</g>
<!-- Node16&#45;&gt;Node17 -->
<g id="edge19" class="edge">
<title>Node16&#45;&gt;Node17</title>
<path fill="none" stroke="midnightblue" d="M872,-56.5C872,-48.07 872,-38.24 872,-29.87"/>
<polygon fill="midnightblue" stroke="midnightblue" points="875.5,-29.65 872,-19.65 868.5,-29.65 875.5,-29.65"/>
</g>
</g>
</svg>
        <g id="navigator" transform="translate(0 0)" fill="#404254">
                <rect fill="#f2f5e9" fill-opacity="0.5" stroke="#606060" stroke-width=".5" x="0" y="0" width="60" height="60"/>
                <use id="zoomplus" xlink:href="#zoomPlus" x="17" y="9" onmousedown="handleZoom(evt,'in')"/>
                <use id="zoomminus" xlink:href="#zoomMin" x="42" y="9" onmousedown="handleZoom(evt,'out')"/>
                <use id="reset" xlink:href="#resetDef" x="30" y="36" onmousedown="handleReset()"/>
                <g id="arrowUp" xlink:href="#dirArrow" transform="translate(30 24)" onmousedown="handlePan(0,-1)">
                  <use xlink:href="#rim" fill="#404040">
                        <set attributeName="fill" to="#808080" begin="arrowUp.mouseover" end="arrowUp.mouseout"/>
                  </use>
                  <path fill="none" stroke="white" stroke-width="1.5" d="M0,-3.0v7 M-2.5,-0.5L0,-3.0L2.5,-0.5"/>
                </g>
                <g id="arrowRight" xlink:href="#dirArrow" transform="rotate(90) translate(36 -43)" onmousedown="handlePan(1,0)">
                  <use xlink:href="#rim" fill="#404040">
                        <set attributeName="fill" to="#808080" begin="arrowRight.mouseover" end="arrowRight.mouseout"/>
                  </use>
                  <path fill="none" stroke="white" stroke-width="1.5" d="M0,-3.0v7 M-2.5,-0.5L0,-3.0L2.5,-0.5"/>
                </g>
                <g id="arrowDown" xlink:href="#dirArrow" transform="rotate(180) translate(-30 -48)" onmousedown="handlePan(0,1)">
                  <use xlink:href="#rim" fill="#404040">
                        <set attributeName="fill" to="#808080" begin="arrowDown.mouseover" end="arrowDown.mouseout"/>
                  </use>
                  <path fill="none" stroke="white" stroke-width="1.5" d="M0,-3.0v7 M-2.5,-0.5L0,-3.0L2.5,-0.5"/>
                </g>
                <g id="arrowLeft" xlink:href="#dirArrow" transform="rotate(270) translate(-36 17)" onmousedown="handlePan(-1,0)">
                  <use xlink:href="#rim" fill="#404040">
                        <set attributeName="fill" to="#808080" begin="arrowLeft.mouseover" end="arrowLeft.mouseout"/>
                  </use>
                  <path fill="none" stroke="white" stroke-width="1.5" d="M0,-3.0v7 M-2.5,-0.5L0,-3.0L2.5,-0.5"/>
                </g>
        </g>
        <svg viewBox="0 0 15 15" width="100%" height="30px" preserveAspectRatio="xMaxYMin meet">
         <g id="arrow_out" transform="scale(0.3 0.3)">
          <a xlink:href="warp__transform__host_8cpp__incl_org.svg" target="_base">
           <rect id="button" ry="5" rx="5" y="6" x="6" height="38" width="38"
                fill="#f2f5e9" fill-opacity="0.5" stroke="#606060" stroke-width="1.0"/>
           <path id="arrow"
             d="M 11.500037,31.436501 C 11.940474,20.09759 22.043105,11.32322 32.158766,21.979434 L 37.068811,17.246167 C 37.068811,17.246167 37.088388,32 37.088388,32 L 22.160133,31.978069 C 22.160133,31.978069 26.997745,27.140456 26.997745,27.140456 C 18.528582,18.264221 13.291696,25.230495 11.500037,31.436501 z"
             style="fill:#404040;"/>
          </a>
         </g>
        </svg>
</svg>
