<?xml version="1.0" encoding="UTF-8" standalone="no"?>
<!DOCTYPE svg PUBLIC "-//W3C//DTD SVG 1.1//EN"
 "http://www.w3.org/Graphics/SVG/1.1/DTD/svg11.dtd">
<!-- Generated by graphviz version 2.43.0 (0)
 -->
<!-- Title: repos_for_Dox/cFp_Zoo/ROLE/vision/hls/warp_transform/src/warp_transform.cpp Pages: 1 -->
<svg width="1726pt" height="318pt"
 viewBox="0.00 0.00 1726.48 318.00" xmlns="http://www.w3.org/2000/svg" xmlns:xlink="http://www.w3.org/1999/xlink">
<g id="graph0" class="graph" transform="scale(1 1) rotate(0) translate(4 314)">
<title>repos_for_Dox/cFp_Zoo/ROLE/vision/hls/warp_transform/src/warp_transform.cpp</title>
<!-- Node1 -->
<g id="node1" class="node">
<title>Node1</title>
<g id="a_node1"><a xlink:title="The Role for a WarpTransform Example application (UDP or TCP)">
<polygon fill="#bfbfbf" stroke="black" points="1138.4,-268.5 1138.4,-309.5 1326.4,-309.5 1326.4,-268.5 1138.4,-268.5"/>
<text text-anchor="start" x="1146.4" y="-297.5" font-family="Helvetica,sans-Serif" font-size="10.00">repos_for_Dox/cFp_Zoo</text>
<text text-anchor="start" x="1146.4" y="-286.5" font-family="Helvetica,sans-Serif" font-size="10.00">/ROLE/vision/hls/warp</text>
<text text-anchor="middle" x="1232.4" y="-275.5" font-family="Helvetica,sans-Serif" font-size="10.00">_transform/src/warp_transform.cpp</text>
</a>
</g>
</g>
<!-- Node2 -->
<g id="node2" class="node">
<title>Node2</title>
<g id="a_node2"><a xlink:href="warp__transform_8hpp.html" target="_top" xlink:title="The Role for a WarpTransform Example application (UDP or TCP)">
<polygon fill="none" stroke="black" points="816.4,-145.5 816.4,-164.5 978.4,-164.5 978.4,-145.5 816.4,-145.5"/>
<text text-anchor="middle" x="897.4" y="-152.5" font-family="Helvetica,sans-Serif" font-size="10.00">../include/warp_transform.hpp</text>
</a>
</g>
</g>
<!-- Node1&#45;&gt;Node2 -->
<g id="edge1" class="edge">
<title>Node1&#45;&gt;Node2</title>
<path fill="none" stroke="midnightblue" d="M1182.61,-268.38C1112.48,-240.75 986.7,-191.19 928.5,-168.26"/>
<polygon fill="midnightblue" stroke="midnightblue" points="929.69,-164.96 919.1,-164.55 927.12,-171.48 929.69,-164.96"/>
</g>
<!-- Node14 -->
<g id="node14" class="node">
<title>Node14</title>
<g id="a_node14"><a xlink:href="xf__warp__transform__config_8h.html" target="_top" xlink:title="The WarpTransform configuration header.">
<polygon fill="none" stroke="black" points="500.9,-201.5 500.9,-231.5 613.9,-231.5 613.9,-201.5 500.9,-201.5"/>
<text text-anchor="start" x="508.9" y="-219.5" font-family="Helvetica,sans-Serif" font-size="10.00">../include/xf_warp</text>
<text text-anchor="middle" x="557.4" y="-208.5" font-family="Helvetica,sans-Serif" font-size="10.00">_transform_config.h</text>
</a>
</g>
</g>
<!-- Node1&#45;&gt;Node14 -->
<g id="edge17" class="edge">
<title>Node1&#45;&gt;Node14</title>
<path fill="none" stroke="midnightblue" d="M1138.19,-278.16C999.92,-263.72 745.38,-237.13 624.51,-224.51"/>
<polygon fill="midnightblue" stroke="midnightblue" points="624.6,-221 614.29,-223.44 623.87,-227.96 624.6,-221"/>
</g>
<!-- Node20 -->
<g id="node20" class="node">
<title>Node20</title>
<g id="a_node20"><a xlink:href="warp__transform__network__library_8hpp.html" target="_top" xlink:title="A library for some common Network&#45;Related functionalities.">
<polygon fill="none" stroke="black" points="1161.9,-201.5 1161.9,-231.5 1302.9,-231.5 1302.9,-201.5 1161.9,-201.5"/>
<text text-anchor="start" x="1169.9" y="-219.5" font-family="Helvetica,sans-Serif" font-size="10.00">../include/warp_transform</text>
<text text-anchor="middle" x="1232.4" y="-208.5" font-family="Helvetica,sans-Serif" font-size="10.00">_network_library.hpp</text>
</a>
</g>
</g>
<!-- Node1&#45;&gt;Node20 -->
<g id="edge26" class="edge">
<title>Node1&#45;&gt;Node20</title>
<path fill="none" stroke="midnightblue" d="M1232.4,-268.36C1232.4,-260.23 1232.4,-250.7 1232.4,-242.11"/>
<polygon fill="midnightblue" stroke="midnightblue" points="1235.9,-241.89 1232.4,-231.89 1228.9,-241.89 1235.9,-241.89"/>
</g>
<!-- Node21 -->
<g id="node21" class="node">
<title>Node21</title>
<g id="a_node21"><a xlink:href="warp__transform__hw__common_8hpp.html" target="_top" xlink:title="A library for some common functionalities: Memory interaction Performance Counters.">
<polygon fill="none" stroke="black" points="1279.4,-145.5 1279.4,-164.5 1461.4,-164.5 1461.4,-145.5 1279.4,-145.5"/>
<text text-anchor="middle" x="1370.4" y="-152.5" font-family="Helvetica,sans-Serif" font-size="10.00">warp_transform_hw_common.hpp</text>
</a>
</g>
</g>
<!-- Node1&#45;&gt;Node21 -->
<g id="edge44" class="edge">
<title>Node1&#45;&gt;Node21</title>
<path fill="none" stroke="midnightblue" d="M1265.28,-268.29C1280.45,-258.39 1298.21,-245.62 1312.4,-232 1331.22,-213.94 1348.79,-189.41 1359.55,-173.16"/>
<polygon fill="midnightblue" stroke="midnightblue" points="1362.56,-174.96 1365.06,-164.66 1356.69,-171.15 1362.56,-174.96"/>
</g>
<!-- Node22 -->
<g id="node22" class="node">
<title>Node22</title>
<g id="a_node22"><a xlink:href="warp__transform__processing_8hpp.html" target="_top" xlink:title="The processing function for the warp_transform filte.">
<polygon fill="none" stroke="black" points="1359.9,-201.5 1359.9,-231.5 1500.9,-231.5 1500.9,-201.5 1359.9,-201.5"/>
<text text-anchor="start" x="1367.9" y="-219.5" font-family="Helvetica,sans-Serif" font-size="10.00">../include/warp_transform</text>
<text text-anchor="middle" x="1430.4" y="-208.5" font-family="Helvetica,sans-Serif" font-size="10.00">_processing.hpp</text>
</a>
</g>
</g>
<!-- Node1&#45;&gt;Node22 -->
<g id="edge45" class="edge">
<title>Node1&#45;&gt;Node22</title>
<path fill="none" stroke="midnightblue" d="M1287.29,-268.46C1316.67,-257.99 1352.57,-245.21 1381.06,-235.07"/>
<polygon fill="midnightblue" stroke="midnightblue" points="1382.56,-238.25 1390.81,-231.6 1380.21,-231.65 1382.56,-238.25"/>
</g>
<!-- Node3 -->
<g id="node3" class="node">
<title>Node3</title>
<g id="a_node3"><a xlink:title=" ">
<polygon fill="none" stroke="#bfbfbf" points="1342.4,-0.5 1342.4,-19.5 1392.4,-19.5 1392.4,-0.5 1342.4,-0.5"/>
<text text-anchor="middle" x="1367.4" y="-7.5" font-family="Helvetica,sans-Serif" font-size="10.00">stdio.h</text>
</a>
</g>
</g>
<!-- Node2&#45;&gt;Node3 -->
<g id="edge2" class="edge">
<title>Node2&#45;&gt;Node3</title>
<path fill="none" stroke="midnightblue" d="M908.29,-145.21C936.9,-122.2 1012.94,-61.54 1026.4,-56 1054.28,-44.53 1250.35,-23.15 1331.92,-14.64"/>
<polygon fill="midnightblue" stroke="midnightblue" points="1332.61,-18.09 1342.19,-13.57 1331.89,-11.12 1332.61,-18.09"/>
</g>
<!-- Node4 -->
<g id="node4" class="node">
<title>Node4</title>
<g id="a_node4"><a xlink:title=" ">
<polygon fill="none" stroke="#bfbfbf" points="1330.4,-73 1330.4,-92 1390.4,-92 1390.4,-73 1330.4,-73"/>
<text text-anchor="middle" x="1360.4" y="-80" font-family="Helvetica,sans-Serif" font-size="10.00">iostream</text>
</a>
</g>
</g>
<!-- Node2&#45;&gt;Node4 -->
<g id="edge3" class="edge">
<title>Node2&#45;&gt;Node4</title>
<path fill="none" stroke="midnightblue" d="M978.42,-149.31C1082.1,-142.62 1255.55,-128.9 1316.4,-109 1324.66,-106.3 1333.07,-101.9 1340.3,-97.52"/>
<polygon fill="midnightblue" stroke="midnightblue" points="1342.21,-100.45 1348.72,-92.1 1338.42,-94.57 1342.21,-100.45"/>
</g>
<!-- Node5 -->
<g id="node5" class="node">
<title>Node5</title>
<g id="a_node5"><a xlink:title=" ">
<polygon fill="none" stroke="#bfbfbf" points="714.9,-73 714.9,-92 769.9,-92 769.9,-73 714.9,-73"/>
<text text-anchor="middle" x="742.4" y="-80" font-family="Helvetica,sans-Serif" font-size="10.00">fstream</text>
</a>
</g>
</g>
<!-- Node2&#45;&gt;Node5 -->
<g id="edge4" class="edge">
<title>Node2&#45;&gt;Node5</title>
<path fill="none" stroke="midnightblue" d="M869.4,-145.43C844.97,-137.46 808.9,-124.5 779.4,-109 773.33,-105.81 767.06,-101.8 761.45,-97.91"/>
<polygon fill="midnightblue" stroke="midnightblue" points="763.45,-95.04 753.29,-92.04 759.36,-100.72 763.45,-95.04"/>
</g>
<!-- Node6 -->
<g id="node6" class="node">
<title>Node6</title>
<g id="a_node6"><a xlink:title=" ">
<polygon fill="none" stroke="#bfbfbf" points="788.4,-73 788.4,-92 832.4,-92 832.4,-73 788.4,-73"/>
<text text-anchor="middle" x="810.4" y="-80" font-family="Helvetica,sans-Serif" font-size="10.00">string</text>
</a>
</g>
</g>
<!-- Node2&#45;&gt;Node6 -->
<g id="edge5" class="edge">
<title>Node2&#45;&gt;Node6</title>
<path fill="none" stroke="midnightblue" d="M886.73,-145.36C872.38,-133.73 846.64,-112.86 829.05,-98.61"/>
<polygon fill="midnightblue" stroke="midnightblue" points="831.13,-95.79 821.15,-92.22 826.72,-101.23 831.13,-95.79"/>
</g>
<!-- Node7 -->
<g id="node7" class="node">
<title>Node7</title>
<g id="a_node7"><a xlink:title=" ">
<polygon fill="none" stroke="#bfbfbf" points="850.9,-73 850.9,-92 901.9,-92 901.9,-73 850.9,-73"/>
<text text-anchor="middle" x="876.4" y="-80" font-family="Helvetica,sans-Serif" font-size="10.00">math.h</text>
</a>
</g>
</g>
<!-- Node2&#45;&gt;Node7 -->
<g id="edge6" class="edge">
<title>Node2&#45;&gt;Node7</title>
<path fill="none" stroke="midnightblue" d="M894.82,-145.36C891.61,-134.57 886.03,-115.85 881.86,-101.82"/>
<polygon fill="midnightblue" stroke="midnightblue" points="885.2,-100.8 878.99,-92.22 878.5,-102.8 885.2,-100.8"/>
</g>
<!-- Node8 -->
<g id="node8" class="node">
<title>Node8</title>
<g id="a_node8"><a xlink:title=" ">
<polygon fill="none" stroke="#bfbfbf" points="608.4,-0.5 608.4,-19.5 688.4,-19.5 688.4,-0.5 608.4,-0.5"/>
<text text-anchor="middle" x="648.4" y="-7.5" font-family="Helvetica,sans-Serif" font-size="10.00">hls_stream.h</text>
</a>
</g>
</g>
<!-- Node2&#45;&gt;Node8 -->
<g id="edge7" class="edge">
<title>Node2&#45;&gt;Node8</title>
<path fill="none" stroke="midnightblue" d="M816.13,-149.2C779.71,-143.64 737.97,-132.2 706.4,-109 679.02,-88.87 662.26,-51.6 654.2,-29.27"/>
<polygon fill="midnightblue" stroke="midnightblue" points="657.47,-28 650.94,-19.65 650.84,-30.25 657.47,-28"/>
</g>
<!-- Node9 -->
<g id="node9" class="node">
<title>Node9</title>
<g id="a_node9"><a xlink:title=" ">
<polygon fill="none" stroke="#bfbfbf" points="978.4,-0.5 978.4,-19.5 1034.4,-19.5 1034.4,-0.5 978.4,-0.5"/>
<text text-anchor="middle" x="1006.4" y="-7.5" font-family="Helvetica,sans-Serif" font-size="10.00">ap_int.h</text>
</a>
</g>
</g>
<!-- Node2&#45;&gt;Node9 -->
<g id="edge8" class="edge">
<title>Node2&#45;&gt;Node9</title>
<path fill="none" stroke="midnightblue" d="M901.27,-145.27C909.45,-127.37 929.78,-85.7 954.4,-56 963.68,-44.8 975.91,-34.06 986.18,-25.89"/>
<polygon fill="midnightblue" stroke="midnightblue" points="988.46,-28.55 994.23,-19.67 984.18,-23.01 988.46,-28.55"/>
</g>
<!-- Node10 -->
<g id="node10" class="node">
<title>Node10</title>
<g id="a_node10"><a xlink:title=" ">
<polygon fill="none" stroke="#bfbfbf" points="1438.9,-0.5 1438.9,-19.5 1491.9,-19.5 1491.9,-0.5 1438.9,-0.5"/>
<text text-anchor="middle" x="1465.4" y="-7.5" font-family="Helvetica,sans-Serif" font-size="10.00">stdint.h</text>
</a>
</g>
</g>
<!-- Node2&#45;&gt;Node10 -->
<g id="edge9" class="edge">
<title>Node2&#45;&gt;Node10</title>
<path fill="none" stroke="midnightblue" d="M978.66,-152.16C1076.35,-148.64 1233.41,-138.45 1283.4,-109 1308.37,-94.29 1297.91,-72.98 1321.4,-56 1353.44,-32.84 1397.76,-21.35 1428.74,-15.82"/>
<polygon fill="midnightblue" stroke="midnightblue" points="1429.4,-19.25 1438.69,-14.16 1428.25,-12.35 1429.4,-19.25"/>
</g>
<!-- Node11 -->
<g id="node11" class="node">
<title>Node11</title>
<g id="a_node11"><a xlink:href="network_8hpp.html" target="_top" xlink:title=" ">
<polygon fill="none" stroke="black" points="1196.9,-73 1196.9,-92 1273.9,-92 1273.9,-73 1196.9,-73"/>
<text text-anchor="middle" x="1235.4" y="-80" font-family="Helvetica,sans-Serif" font-size="10.00">network.hpp</text>
</a>
</g>
</g>
<!-- Node2&#45;&gt;Node11 -->
<g id="edge10" class="edge">
<title>Node2&#45;&gt;Node11</title>
<path fill="none" stroke="midnightblue" d="M955.58,-145.5C1006.9,-137.55 1083.56,-124.59 1149.4,-109 1166.06,-105.06 1184.26,-99.8 1199.62,-95.08"/>
<polygon fill="midnightblue" stroke="midnightblue" points="1200.75,-98.4 1209.26,-92.08 1198.67,-91.71 1200.75,-98.4"/>
</g>
<!-- Node13 -->
<g id="node13" class="node">
<title>Node13</title>
<g id="a_node13"><a xlink:title=" ">
<polygon fill="none" stroke="#bfbfbf" points="1034.9,-73 1034.9,-92 1139.9,-92 1139.9,-73 1034.9,-73"/>
<text text-anchor="middle" x="1087.4" y="-80" font-family="Helvetica,sans-Serif" font-size="10.00">memory_utils.hpp</text>
</a>
</g>
</g>
<!-- Node2&#45;&gt;Node13 -->
<g id="edge16" class="edge">
<title>Node2&#45;&gt;Node13</title>
<path fill="none" stroke="midnightblue" d="M920.32,-145.5C953.84,-133.06 1016.41,-109.84 1054.74,-95.62"/>
<polygon fill="midnightblue" stroke="midnightblue" points="1056.24,-98.79 1064.4,-92.03 1053.81,-92.23 1056.24,-98.79"/>
</g>
<!-- Node11&#45;&gt;Node3 -->
<g id="edge12" class="edge">
<title>Node11&#45;&gt;Node3</title>
<path fill="none" stroke="midnightblue" d="M1251.32,-73C1273.92,-60.93 1315.51,-38.71 1342.29,-24.41"/>
<polygon fill="midnightblue" stroke="midnightblue" points="1344.25,-27.33 1351.42,-19.53 1340.95,-21.16 1344.25,-27.33"/>
</g>
<!-- Node11&#45;&gt;Node8 -->
<g id="edge15" class="edge">
<title>Node11&#45;&gt;Node8</title>
<path fill="none" stroke="midnightblue" d="M1221.11,-72.85C1210.75,-67.04 1196.19,-59.76 1182.4,-56 1092.09,-31.37 813.84,-17.66 698.89,-12.92"/>
<polygon fill="midnightblue" stroke="midnightblue" points="698.74,-9.41 688.61,-12.5 698.46,-16.4 698.74,-9.41"/>
</g>
<!-- Node11&#45;&gt;Node9 -->
<g id="edge13" class="edge">
<title>Node11&#45;&gt;Node9</title>
<path fill="none" stroke="midnightblue" d="M1219.52,-72.84C1209.17,-67.45 1195.25,-60.68 1182.4,-56 1136.14,-39.15 1080.86,-26.12 1044.76,-18.51"/>
<polygon fill="midnightblue" stroke="midnightblue" points="1045.16,-15.02 1034.66,-16.42 1043.74,-21.87 1045.16,-15.02"/>
</g>
<!-- Node11&#45;&gt;Node10 -->
<g id="edge11" class="edge">
<title>Node11&#45;&gt;Node10</title>
<path fill="none" stroke="midnightblue" d="M1251.28,-72.83C1261.62,-67.44 1275.54,-60.68 1288.4,-56 1335.73,-38.79 1392.46,-25.62 1428.71,-18.09"/>
<polygon fill="midnightblue" stroke="midnightblue" points="1429.71,-21.46 1438.81,-16.03 1428.32,-14.6 1429.71,-21.46"/>
</g>
<!-- Node12 -->
<g id="node12" class="node">
<title>Node12</title>
<g id="a_node12"><a xlink:title=" ">
<polygon fill="none" stroke="#bfbfbf" points="1203.4,-0.5 1203.4,-19.5 1267.4,-19.5 1267.4,-0.5 1203.4,-0.5"/>
<text text-anchor="middle" x="1235.4" y="-7.5" font-family="Helvetica,sans-Serif" font-size="10.00">ap_utils.h</text>
</a>
</g>
</g>
<!-- Node11&#45;&gt;Node12 -->
<g id="edge14" class="edge">
<title>Node11&#45;&gt;Node12</title>
<path fill="none" stroke="midnightblue" d="M1235.4,-72.86C1235.4,-62.18 1235.4,-43.72 1235.4,-29.73"/>
<polygon fill="midnightblue" stroke="midnightblue" points="1238.9,-29.72 1235.4,-19.72 1231.9,-29.72 1238.9,-29.72"/>
</g>
<!-- Node14&#45;&gt;Node2 -->
<g id="edge24" class="edge">
<title>Node14&#45;&gt;Node2</title>
<path fill="none" stroke="midnightblue" d="M613.92,-205.61C676.08,-194.73 775.49,-177.33 838.55,-166.3"/>
<polygon fill="midnightblue" stroke="midnightblue" points="839.49,-169.69 848.74,-164.52 838.28,-162.79 839.49,-169.69"/>
</g>
<!-- Node14&#45;&gt;Node8 -->
<g id="edge18" class="edge">
<title>Node14&#45;&gt;Node8</title>
<path fill="none" stroke="midnightblue" d="M500.84,-214.56C366.59,-211.74 37.42,-201.18 4.4,-165 -1.59,-158.44 -1.21,-151.9 4.4,-145 79.54,-52.61 459.7,-21.82 598,-13.58"/>
<polygon fill="midnightblue" stroke="midnightblue" points="598.53,-17.06 608.31,-12.98 598.12,-10.07 598.53,-17.06"/>
</g>
<!-- Node14&#45;&gt;Node9 -->
<g id="edge19" class="edge">
<title>Node14&#45;&gt;Node9</title>
<path fill="none" stroke="midnightblue" d="M581.66,-201.45C596.43,-192.21 615.12,-179.23 629.4,-165 671.41,-123.13 655.91,-87.12 706.4,-56 749.47,-29.45 896.88,-17.41 967.75,-13.05"/>
<polygon fill="midnightblue" stroke="midnightblue" points="968.25,-16.52 978.03,-12.44 967.84,-9.54 968.25,-16.52"/>
</g>
<!-- Node15 -->
<g id="node15" class="node">
<title>Node15</title>
<g id="a_node15"><a xlink:title=" ">
<polygon fill="none" stroke="#bfbfbf" points="335.9,-145.5 335.9,-164.5 476.9,-164.5 476.9,-145.5 335.9,-145.5"/>
<text text-anchor="middle" x="406.4" y="-152.5" font-family="Helvetica,sans-Serif" font-size="10.00">common/xf_common.hpp</text>
</a>
</g>
</g>
<!-- Node14&#45;&gt;Node15 -->
<g id="edge20" class="edge">
<title>Node14&#45;&gt;Node15</title>
<path fill="none" stroke="midnightblue" d="M521.61,-201.4C496.17,-191.37 462.3,-178.03 437.88,-168.4"/>
<polygon fill="midnightblue" stroke="midnightblue" points="438.96,-165.07 428.37,-164.66 436.39,-171.58 438.96,-165.07"/>
</g>
<!-- Node16 -->
<g id="node16" class="node">
<title>Node16</title>
<g id="a_node16"><a xlink:title=" ">
<polygon fill="none" stroke="#bfbfbf" points="494.9,-145.5 494.9,-164.5 619.9,-164.5 619.9,-145.5 494.9,-145.5"/>
<text text-anchor="middle" x="557.4" y="-152.5" font-family="Helvetica,sans-Serif" font-size="10.00">common/xf_utility.hpp</text>
</a>
</g>
</g>
<!-- Node14&#45;&gt;Node16 -->
<g id="edge21" class="edge">
<title>Node14&#45;&gt;Node16</title>
<path fill="none" stroke="midnightblue" d="M557.4,-201.4C557.4,-193.47 557.4,-183.46 557.4,-174.86"/>
<polygon fill="midnightblue" stroke="midnightblue" points="560.9,-174.66 557.4,-164.66 553.9,-174.66 560.9,-174.66"/>
</g>
<!-- Node17 -->
<g id="node17" class="node">
<title>Node17</title>
<g id="a_node17"><a xlink:title=" ">
<polygon fill="none" stroke="#bfbfbf" points="13.9,-145.5 13.9,-164.5 186.9,-164.5 186.9,-145.5 13.9,-145.5"/>
<text text-anchor="middle" x="100.4" y="-152.5" font-family="Helvetica,sans-Serif" font-size="10.00">imgproc/xf_warp_transform.hpp</text>
</a>
</g>
</g>
<!-- Node14&#45;&gt;Node17 -->
<g id="edge22" class="edge">
<title>Node14&#45;&gt;Node17</title>
<path fill="none" stroke="midnightblue" d="M500.44,-208.08C418.46,-197.41 267.03,-177.7 175.83,-165.82"/>
<polygon fill="midnightblue" stroke="midnightblue" points="176.2,-162.34 165.84,-164.52 175.3,-169.28 176.2,-162.34"/>
</g>
<!-- Node18 -->
<g id="node18" class="node">
<title>Node18</title>
<g id="a_node18"><a xlink:href="warp__transform_2include_2xf__config__params_8h.html" target="_top" xlink:title="The WarpTransform IP configuration header.">
<polygon fill="none" stroke="black" points="205.4,-145.5 205.4,-164.5 317.4,-164.5 317.4,-145.5 205.4,-145.5"/>
<text text-anchor="middle" x="261.4" y="-152.5" font-family="Helvetica,sans-Serif" font-size="10.00">xf_config_params.h</text>
</a>
</g>
</g>
<!-- Node14&#45;&gt;Node18 -->
<g id="edge23" class="edge">
<title>Node14&#45;&gt;Node18</title>
<path fill="none" stroke="midnightblue" d="M500.68,-204.1C446.85,-193.28 366.61,-177.15 314.14,-166.6"/>
<polygon fill="midnightblue" stroke="midnightblue" points="314.52,-163.11 304.03,-164.57 313.15,-169.97 314.52,-163.11"/>
</g>
<!-- Node19 -->
<g id="node19" class="node">
<title>Node19</title>
<g id="a_node19"><a xlink:href="vision_2warp__transform_2languages_2cplusplus_2include_2config_8h.html" target="_top" xlink:title="The configuration of a WarpTransform Example application (UDP or TCP)">
<polygon fill="none" stroke="black" points="1522.9,-56.5 1522.9,-108.5 1679.9,-108.5 1679.9,-56.5 1522.9,-56.5"/>
<text text-anchor="start" x="1530.9" y="-96.5" font-family="Helvetica,sans-Serif" font-size="10.00">../../../../../HOST</text>
<text text-anchor="start" x="1530.9" y="-85.5" font-family="Helvetica,sans-Serif" font-size="10.00">/vision/warp_transform</text>
<text text-anchor="start" x="1530.9" y="-74.5" font-family="Helvetica,sans-Serif" font-size="10.00">/languages/cplusplus/include</text>
<text text-anchor="middle" x="1601.4" y="-63.5" font-family="Helvetica,sans-Serif" font-size="10.00">/config.h</text>
</a>
</g>
</g>
<!-- Node14&#45;&gt;Node19 -->
<g id="edge25" class="edge">
<title>Node14&#45;&gt;Node19</title>
<path fill="none" stroke="midnightblue" d="M614.22,-214C801.05,-208.83 1389.08,-190.68 1470.4,-165 1504.25,-154.31 1538.15,-132.85 1562.99,-114.63"/>
<polygon fill="midnightblue" stroke="midnightblue" points="1565.14,-117.39 1571.05,-108.6 1560.95,-111.79 1565.14,-117.39"/>
</g>
<!-- Node20&#45;&gt;Node3 -->
<g id="edge27" class="edge">
<title>Node20&#45;&gt;Node3</title>
<path fill="none" stroke="midnightblue" d="M1303.26,-205.99C1394.54,-193.56 1544.48,-172.51 1569.4,-165 1625.75,-148.02 1657.78,-158.64 1689.4,-109 1702.05,-89.13 1704.87,-73.77 1689.4,-56 1651.24,-12.17 1487.94,-28.11 1430.4,-20 1421.34,-18.72 1411.54,-17.33 1402.44,-16.03"/>
<polygon fill="midnightblue" stroke="midnightblue" points="1402.93,-12.56 1392.53,-14.61 1401.94,-19.49 1402.93,-12.56"/>
</g>
<!-- Node20&#45;&gt;Node4 -->
<g id="edge28" class="edge">
<title>Node20&#45;&gt;Node4</title>
<path fill="none" stroke="midnightblue" d="M1237.68,-201.3C1243.84,-186.12 1255.14,-161.95 1270.4,-145 1280.74,-133.51 1314.51,-111.65 1337.62,-97.33"/>
<polygon fill="midnightblue" stroke="midnightblue" points="1339.49,-100.29 1346.17,-92.07 1335.82,-94.32 1339.49,-100.29"/>
</g>
<!-- Node20&#45;&gt;Node8 -->
<g id="edge29" class="edge">
<title>Node20&#45;&gt;Node8</title>
<path fill="none" stroke="midnightblue" d="M1161.88,-212.47C1076.77,-207.59 929.85,-195.26 807.4,-165 739.93,-148.33 704.46,-163.55 661.4,-109 643.55,-86.39 643.52,-51.3 645.61,-29.82"/>
<polygon fill="midnightblue" stroke="midnightblue" points="649.11,-30.06 646.86,-19.7 642.16,-29.2 649.11,-30.06"/>
</g>
<!-- Node20&#45;&gt;Node9 -->
<g id="edge30" class="edge">
<title>Node20&#45;&gt;Node9</title>
<path fill="none" stroke="midnightblue" d="M1176.77,-201.37C1129.45,-186.39 1063.43,-157.97 1026.4,-109 1008.82,-85.75 1005.69,-50.87 1005.63,-29.59"/>
<polygon fill="midnightblue" stroke="midnightblue" points="1009.13,-29.65 1005.82,-19.59 1002.13,-29.52 1009.13,-29.65"/>
</g>
<!-- Node20&#45;&gt;Node10 -->
<g id="edge31" class="edge">
<title>Node20&#45;&gt;Node10</title>
<path fill="none" stroke="midnightblue" d="M1303.33,-206.75C1414,-193.04 1615.96,-167.76 1623.4,-165 1665.81,-149.25 1686.94,-148.83 1708.4,-109 1719.57,-88.26 1723.46,-74.11 1708.4,-56 1682.59,-24.97 1563.5,-15.25 1502.15,-12.27"/>
<polygon fill="midnightblue" stroke="midnightblue" points="1502.26,-8.77 1492.11,-11.82 1501.95,-15.76 1502.26,-8.77"/>
</g>
<!-- Node20&#45;&gt;Node11 -->
<g id="edge34" class="edge">
<title>Node20&#45;&gt;Node11</title>
<path fill="none" stroke="midnightblue" d="M1232.72,-201.37C1233.26,-177.5 1234.36,-129.18 1234.97,-102.41"/>
<polygon fill="midnightblue" stroke="midnightblue" points="1238.47,-102.17 1235.2,-92.1 1231.48,-102.02 1238.47,-102.17"/>
</g>
<!-- Node20&#45;&gt;Node13 -->
<g id="edge33" class="edge">
<title>Node20&#45;&gt;Node13</title>
<path fill="none" stroke="midnightblue" d="M1216.88,-201.37C1189.49,-176.43 1132.76,-124.8 1104.37,-98.95"/>
<polygon fill="midnightblue" stroke="midnightblue" points="1106.59,-96.24 1096.84,-92.1 1101.88,-101.42 1106.59,-96.24"/>
</g>
<!-- Node20&#45;&gt;Node19 -->
<g id="edge32" class="edge">
<title>Node20&#45;&gt;Node19</title>
<path fill="none" stroke="midnightblue" d="M1303.05,-207.08C1389.02,-196.37 1525.26,-177.75 1545.4,-165 1563.14,-153.77 1576.72,-134.66 1586.06,-117.76"/>
<polygon fill="midnightblue" stroke="midnightblue" points="1589.28,-119.15 1590.81,-108.67 1583.07,-115.91 1589.28,-119.15"/>
</g>
<!-- Node20&#45;&gt;Node21 -->
<g id="edge35" class="edge">
<title>Node20&#45;&gt;Node21</title>
<path fill="none" stroke="midnightblue" d="M1265.1,-201.4C1288.15,-191.46 1318.76,-178.26 1341.03,-168.66"/>
<polygon fill="midnightblue" stroke="midnightblue" points="1342.52,-171.83 1350.32,-164.66 1339.75,-165.4 1342.52,-171.83"/>
</g>
<!-- Node21&#45;&gt;Node3 -->
<g id="edge36" class="edge">
<title>Node21&#45;&gt;Node3</title>
<path fill="none" stroke="midnightblue" d="M1390.62,-145.49C1405.17,-138.17 1423.7,-126.06 1432.4,-109 1443.1,-88.01 1443.33,-76.87 1432.4,-56 1425.12,-42.11 1411.39,-31.65 1398.42,-24.33"/>
<polygon fill="midnightblue" stroke="midnightblue" points="1399.69,-21.05 1389.21,-19.55 1396.47,-27.27 1399.69,-21.05"/>
</g>
<!-- Node21&#45;&gt;Node4 -->
<g id="edge37" class="edge">
<title>Node21&#45;&gt;Node4</title>
<path fill="none" stroke="midnightblue" d="M1369.17,-145.36C1367.66,-134.68 1365.04,-116.22 1363.06,-102.23"/>
<polygon fill="midnightblue" stroke="midnightblue" points="1366.5,-101.62 1361.63,-92.22 1359.57,-102.61 1366.5,-101.62"/>
</g>
<!-- Node21&#45;&gt;Node8 -->
<g id="edge38" class="edge">
<title>Node21&#45;&gt;Node8</title>
<path fill="none" stroke="midnightblue" d="M1285.25,-145.42C1252.87,-139.09 1216.94,-128.09 1188.4,-109 1164.09,-92.74 1174.88,-70.35 1149.4,-56 1110.76,-34.24 818.04,-18.68 698.75,-13.18"/>
<polygon fill="midnightblue" stroke="midnightblue" points="698.59,-9.67 688.44,-12.71 698.27,-16.66 698.59,-9.67"/>
</g>
<!-- Node21&#45;&gt;Node9 -->
<g id="edge39" class="edge">
<title>Node21&#45;&gt;Node9</title>
<path fill="none" stroke="midnightblue" d="M1377.79,-145.23C1392.65,-126.5 1422.78,-82.22 1399.4,-56 1376.01,-29.78 1138.95,-16.73 1044.72,-12.54"/>
<polygon fill="midnightblue" stroke="midnightblue" points="1044.62,-9.04 1034.48,-12.1 1044.32,-16.03 1044.62,-9.04"/>
</g>
<!-- Node21&#45;&gt;Node10 -->
<g id="edge40" class="edge">
<title>Node21&#45;&gt;Node10</title>
<path fill="none" stroke="midnightblue" d="M1398.53,-145.36C1416.26,-138.41 1438.07,-126.82 1450.4,-109 1466.67,-85.47 1468.14,-51.18 1467.16,-30.02"/>
<polygon fill="midnightblue" stroke="midnightblue" points="1470.64,-29.51 1466.45,-19.77 1463.65,-29.99 1470.64,-29.51"/>
</g>
<!-- Node21&#45;&gt;Node11 -->
<g id="edge43" class="edge">
<title>Node21&#45;&gt;Node11</title>
<path fill="none" stroke="midnightblue" d="M1354.11,-145.5C1330.9,-133.37 1288.09,-111.02 1260.72,-96.72"/>
<polygon fill="midnightblue" stroke="midnightblue" points="1262.22,-93.56 1251.74,-92.03 1258.98,-99.77 1262.22,-93.56"/>
</g>
<!-- Node21&#45;&gt;Node13 -->
<g id="edge42" class="edge">
<title>Node21&#45;&gt;Node13</title>
<path fill="none" stroke="midnightblue" d="M1317.89,-145.46C1273.79,-137.72 1209.36,-125.08 1154.4,-109 1141.93,-105.35 1128.48,-100.44 1116.93,-95.9"/>
<polygon fill="midnightblue" stroke="midnightblue" points="1117.93,-92.53 1107.35,-92.04 1115.32,-99.02 1117.93,-92.53"/>
</g>
<!-- Node21&#45;&gt;Node19 -->
<g id="edge41" class="edge">
<title>Node21&#45;&gt;Node19</title>
<path fill="none" stroke="midnightblue" d="M1398.26,-145.5C1426.7,-136.82 1472.34,-122.89 1513.16,-110.43"/>
<polygon fill="midnightblue" stroke="midnightblue" points="1514.33,-113.73 1522.87,-107.47 1512.28,-107.04 1514.33,-113.73"/>
</g>
</g>
</svg>
