<?xml version="1.0" encoding="UTF-8" standalone="no"?>
<!DOCTYPE svg PUBLIC "-//W3C//DTD SVG 1.1//EN"
 "http://www.w3.org/Graphics/SVG/1.1/DTD/svg11.dtd">
<!-- Generated by graphviz version 2.43.0 (0)
 -->
<!-- Title: repos_for_Dox/cFp_Zoo/ROLE/vision/hls/warp_transform/include/warp_transform_hw_common.hpp Pages: 1 -->
<svg width="698pt" height="206pt"
 viewBox="0.00 0.00 697.50 206.00" xmlns="http://www.w3.org/2000/svg" xmlns:xlink="http://www.w3.org/1999/xlink">
<g id="graph0" class="graph" transform="scale(1 1) rotate(0) translate(4 202)">
<title>repos_for_Dox/cFp_Zoo/ROLE/vision/hls/warp_transform/include/warp_transform_hw_common.hpp</title>
<!-- Node1 -->
<g id="node1" class="node">
<title>Node1</title>
<g id="a_node1"><a xlink:title="A library for some common functionalities: Memory interaction Performance Counters.">
<polygon fill="#bfbfbf" stroke="black" points="205,-145.5 205,-197.5 363,-197.5 363,-145.5 205,-145.5"/>
<text text-anchor="start" x="213" y="-185.5" font-family="Helvetica,sans-Serif" font-size="10.00">repos_for_Dox/cFp_Zoo</text>
<text text-anchor="start" x="213" y="-174.5" font-family="Helvetica,sans-Serif" font-size="10.00">/ROLE/vision/hls/warp</text>
<text text-anchor="start" x="213" y="-163.5" font-family="Helvetica,sans-Serif" font-size="10.00">_transform/include/warp</text>
<text text-anchor="middle" x="284" y="-152.5" font-family="Helvetica,sans-Serif" font-size="10.00">_transform_hw_common.hpp</text>
</a>
</g>
</g>
<!-- Node2 -->
<g id="node2" class="node">
<title>Node2</title>
<g id="a_node2"><a xlink:title=" ">
<polygon fill="none" stroke="#bfbfbf" points="0,-0.5 0,-19.5 50,-19.5 50,-0.5 0,-0.5"/>
<text text-anchor="middle" x="25" y="-7.5" font-family="Helvetica,sans-Serif" font-size="10.00">stdio.h</text>
</a>
</g>
</g>
<!-- Node1&#45;&gt;Node2 -->
<g id="edge1" class="edge">
<title>Node1&#45;&gt;Node2</title>
<path fill="none" stroke="midnightblue" d="M204.68,-149.97C175.36,-140.25 142.77,-126.8 116,-109 82.33,-86.62 52.36,-49.35 36.64,-27.79"/>
<polygon fill="midnightblue" stroke="midnightblue" points="39.46,-25.72 30.8,-19.61 33.76,-29.78 39.46,-25.72"/>
</g>
<!-- Node3 -->
<g id="node3" class="node">
<title>Node3</title>
<g id="a_node3"><a xlink:title=" ">
<polygon fill="none" stroke="#bfbfbf" points="331,-73 331,-92 391,-92 391,-73 331,-73"/>
<text text-anchor="middle" x="361" y="-80" font-family="Helvetica,sans-Serif" font-size="10.00">iostream</text>
</a>
</g>
</g>
<!-- Node1&#45;&gt;Node3 -->
<g id="edge2" class="edge">
<title>Node1&#45;&gt;Node3</title>
<path fill="none" stroke="midnightblue" d="M306.27,-145.34C319.24,-130.68 335.22,-112.63 346.56,-99.82"/>
<polygon fill="midnightblue" stroke="midnightblue" points="349.25,-102.06 353.26,-92.25 344.01,-97.42 349.25,-102.06"/>
</g>
<!-- Node4 -->
<g id="node4" class="node">
<title>Node4</title>
<g id="a_node4"><a xlink:title=" ">
<polygon fill="none" stroke="#bfbfbf" points="68,-0.5 68,-19.5 148,-19.5 148,-0.5 68,-0.5"/>
<text text-anchor="middle" x="108" y="-7.5" font-family="Helvetica,sans-Serif" font-size="10.00">hls_stream.h</text>
</a>
</g>
</g>
<!-- Node1&#45;&gt;Node4 -->
<g id="edge3" class="edge">
<title>Node1&#45;&gt;Node4</title>
<path fill="none" stroke="midnightblue" d="M204.84,-145.69C185.06,-136.59 165.19,-124.58 150,-109 128.21,-86.65 116.91,-51.23 111.72,-29.65"/>
<polygon fill="midnightblue" stroke="midnightblue" points="115.12,-28.78 109.55,-19.77 108.28,-30.29 115.12,-28.78"/>
</g>
<!-- Node5 -->
<g id="node5" class="node">
<title>Node5</title>
<g id="a_node5"><a xlink:title=" ">
<polygon fill="none" stroke="#bfbfbf" points="248,-0.5 248,-19.5 304,-19.5 304,-0.5 248,-0.5"/>
<text text-anchor="middle" x="276" y="-7.5" font-family="Helvetica,sans-Serif" font-size="10.00">ap_int.h</text>
</a>
</g>
</g>
<!-- Node1&#45;&gt;Node5 -->
<g id="edge4" class="edge">
<title>Node1&#45;&gt;Node5</title>
<path fill="none" stroke="midnightblue" d="M282.73,-145.23C281.12,-113.11 278.38,-58.41 276.94,-29.76"/>
<polygon fill="midnightblue" stroke="midnightblue" points="280.42,-29.35 276.43,-19.53 273.43,-29.7 280.42,-29.35"/>
</g>
<!-- Node6 -->
<g id="node6" class="node">
<title>Node6</title>
<g id="a_node6"><a xlink:title=" ">
<polygon fill="none" stroke="#bfbfbf" points="322.5,-0.5 322.5,-19.5 375.5,-19.5 375.5,-0.5 322.5,-0.5"/>
<text text-anchor="middle" x="349" y="-7.5" font-family="Helvetica,sans-Serif" font-size="10.00">stdint.h</text>
</a>
</g>
</g>
<!-- Node1&#45;&gt;Node6 -->
<g id="edge5" class="edge">
<title>Node1&#45;&gt;Node6</title>
<path fill="none" stroke="midnightblue" d="M290.62,-145.33C297.24,-121.72 308.37,-85.69 322,-56 326.37,-46.48 332.26,-36.43 337.43,-28.25"/>
<polygon fill="midnightblue" stroke="midnightblue" points="340.5,-29.94 343.02,-19.65 334.64,-26.12 340.5,-29.94"/>
</g>
<!-- Node7 -->
<g id="node7" class="node">
<title>Node7</title>
<g id="a_node7"><a xlink:href="vision_2warp__transform_2languages_2cplusplus_2include_2config_8h.html" target="_top" xlink:title="The configuration of a WarpTransform Example application (UDP or TCP)">
<polygon fill="none" stroke="black" points="409.5,-56.5 409.5,-108.5 566.5,-108.5 566.5,-56.5 409.5,-56.5"/>
<text text-anchor="start" x="417.5" y="-96.5" font-family="Helvetica,sans-Serif" font-size="10.00">../../../../../HOST</text>
<text text-anchor="start" x="417.5" y="-85.5" font-family="Helvetica,sans-Serif" font-size="10.00">/vision/warp_transform</text>
<text text-anchor="start" x="417.5" y="-74.5" font-family="Helvetica,sans-Serif" font-size="10.00">/languages/cplusplus/include</text>
<text text-anchor="middle" x="488" y="-63.5" font-family="Helvetica,sans-Serif" font-size="10.00">/config.h</text>
</a>
</g>
</g>
<!-- Node1&#45;&gt;Node7 -->
<g id="edge6" class="edge">
<title>Node1&#45;&gt;Node7</title>
<path fill="none" stroke="midnightblue" d="M342.73,-145.45C366.84,-135.17 394.91,-123.2 419.91,-112.54"/>
<polygon fill="midnightblue" stroke="midnightblue" points="421.5,-115.66 429.33,-108.52 418.76,-109.22 421.5,-115.66"/>
</g>
<!-- Node8 -->
<g id="node8" class="node">
<title>Node8</title>
<g id="a_node8"><a xlink:title=" ">
<polygon fill="none" stroke="#bfbfbf" points="584.5,-73 584.5,-92 689.5,-92 689.5,-73 584.5,-73"/>
<text text-anchor="middle" x="637" y="-80" font-family="Helvetica,sans-Serif" font-size="10.00">memory_utils.hpp</text>
</a>
</g>
</g>
<!-- Node1&#45;&gt;Node8 -->
<g id="edge7" class="edge">
<title>Node1&#45;&gt;Node8</title>
<path fill="none" stroke="midnightblue" d="M363.11,-158C422.44,-147.63 505.26,-131.02 576,-109 587.21,-105.51 599.2,-100.74 609.56,-96.26"/>
<polygon fill="midnightblue" stroke="midnightblue" points="611.19,-99.37 618.92,-92.12 608.36,-92.97 611.19,-99.37"/>
</g>
<!-- Node9 -->
<g id="node9" class="node">
<title>Node9</title>
<g id="a_node9"><a xlink:href="network_8hpp.html" target="_top" xlink:title=" ">
<polygon fill="none" stroke="black" points="159.5,-73 159.5,-92 236.5,-92 236.5,-73 159.5,-73"/>
<text text-anchor="middle" x="198" y="-80" font-family="Helvetica,sans-Serif" font-size="10.00">network.hpp</text>
</a>
</g>
</g>
<!-- Node1&#45;&gt;Node9 -->
<g id="edge8" class="edge">
<title>Node1&#45;&gt;Node9</title>
<path fill="none" stroke="midnightblue" d="M259.13,-145.34C244.5,-130.54 226.45,-112.28 213.77,-99.45"/>
<polygon fill="midnightblue" stroke="midnightblue" points="216.17,-96.9 206.65,-92.25 211.19,-101.82 216.17,-96.9"/>
</g>
<!-- Node9&#45;&gt;Node2 -->
<g id="edge10" class="edge">
<title>Node9&#45;&gt;Node2</title>
<path fill="none" stroke="midnightblue" d="M177.13,-73C146.87,-60.66 90.6,-37.73 55.63,-23.48"/>
<polygon fill="midnightblue" stroke="midnightblue" points="56.52,-20.07 45.94,-19.53 53.88,-26.55 56.52,-20.07"/>
</g>
<!-- Node9&#45;&gt;Node4 -->
<g id="edge13" class="edge">
<title>Node9&#45;&gt;Node4</title>
<path fill="none" stroke="midnightblue" d="M186.96,-72.86C172.12,-61.23 145.49,-40.36 127.29,-26.11"/>
<polygon fill="midnightblue" stroke="midnightblue" points="129.16,-23.13 119.13,-19.72 124.84,-28.64 129.16,-23.13"/>
</g>
<!-- Node9&#45;&gt;Node5 -->
<g id="edge11" class="edge">
<title>Node9&#45;&gt;Node5</title>
<path fill="none" stroke="midnightblue" d="M207.56,-72.86C220.31,-61.33 243.09,-40.74 258.85,-26.5"/>
<polygon fill="midnightblue" stroke="midnightblue" points="261.29,-29.02 266.36,-19.72 256.59,-23.82 261.29,-29.02"/>
</g>
<!-- Node9&#45;&gt;Node6 -->
<g id="edge9" class="edge">
<title>Node9&#45;&gt;Node6</title>
<path fill="none" stroke="midnightblue" d="M216.21,-73C242.4,-60.77 290.9,-38.13 321.47,-23.85"/>
<polygon fill="midnightblue" stroke="midnightblue" points="323.14,-26.94 330.72,-19.53 320.18,-20.59 323.14,-26.94"/>
</g>
<!-- Node10 -->
<g id="node10" class="node">
<title>Node10</title>
<g id="a_node10"><a xlink:title=" ">
<polygon fill="none" stroke="#bfbfbf" points="166,-0.5 166,-19.5 230,-19.5 230,-0.5 166,-0.5"/>
<text text-anchor="middle" x="198" y="-7.5" font-family="Helvetica,sans-Serif" font-size="10.00">ap_utils.h</text>
</a>
</g>
</g>
<!-- Node9&#45;&gt;Node10 -->
<g id="edge12" class="edge">
<title>Node9&#45;&gt;Node10</title>
<path fill="none" stroke="midnightblue" d="M198,-72.86C198,-62.18 198,-43.72 198,-29.73"/>
<polygon fill="midnightblue" stroke="midnightblue" points="201.5,-29.72 198,-19.72 194.5,-29.72 201.5,-29.72"/>
</g>
</g>
</svg>
