<?xml version="1.0" encoding="UTF-8" standalone="no"?>
<!DOCTYPE svg PUBLIC "-//W3C//DTD SVG 1.1//EN"
 "http://www.w3.org/Graphics/SVG/1.1/DTD/svg11.dtd">
<!-- Generated by graphviz version 2.43.0 (0)
 -->
<!-- Title: repos_for_Dox/cFp_Zoo/ROLE/vision/hls/sobel/src/xf_sobel_accel.cpp Pages: 1 -->
<svg width="1035pt" height="307pt"
 viewBox="0.00 0.00 1034.83 307.00" xmlns="http://www.w3.org/2000/svg" xmlns:xlink="http://www.w3.org/1999/xlink">
<g id="graph0" class="graph" transform="scale(1 1) rotate(0) translate(4 303)">
<title>repos_for_Dox/cFp_Zoo/ROLE/vision/hls/sobel/src/xf_sobel_accel.cpp</title>
<!-- Node1 -->
<g id="node1" class="node">
<title>Node1</title>
<g id="a_node1"><a xlink:title="The Sobel top&#45;level.">
<polygon fill="#bfbfbf" stroke="black" points="200.5,-257.5 200.5,-298.5 331.5,-298.5 331.5,-257.5 200.5,-257.5"/>
<text text-anchor="start" x="208.5" y="-286.5" font-family="Helvetica,sans-Serif" font-size="10.00">repos_for_Dox/cFp_Zoo</text>
<text text-anchor="start" x="208.5" y="-275.5" font-family="Helvetica,sans-Serif" font-size="10.00">/ROLE/vision/hls/sobel</text>
<text text-anchor="middle" x="266" y="-264.5" font-family="Helvetica,sans-Serif" font-size="10.00">/src/xf_sobel_accel.cpp</text>
</a>
</g>
</g>
<!-- Node2 -->
<g id="node2" class="node">
<title>Node2</title>
<g id="a_node2"><a xlink:href="xf__sobel__config_8h.html" target="_top" xlink:title="The Sobel configuration header.">
<polygon fill="none" stroke="black" points="450.5,-190.5 450.5,-220.5 555.5,-220.5 555.5,-190.5 450.5,-190.5"/>
<text text-anchor="start" x="458.5" y="-208.5" font-family="Helvetica,sans-Serif" font-size="10.00">../include/xf_sobel</text>
<text text-anchor="middle" x="503" y="-197.5" font-family="Helvetica,sans-Serif" font-size="10.00">_config.h</text>
</a>
</g>
</g>
<!-- Node1&#45;&gt;Node2 -->
<g id="edge1" class="edge">
<title>Node1&#45;&gt;Node2</title>
<path fill="none" stroke="midnightblue" d="M331.7,-257.46C367.49,-246.81 411.34,-233.76 445.72,-223.54"/>
<polygon fill="midnightblue" stroke="midnightblue" points="447.02,-226.8 455.61,-220.6 445.03,-220.09 447.02,-226.8"/>
</g>
<!-- Node11 -->
<g id="node11" class="node">
<title>Node11</title>
<g id="a_node11"><a xlink:title=" ">
<polygon fill="none" stroke="#bfbfbf" points="0,-56.5 0,-75.5 60,-75.5 60,-56.5 0,-56.5"/>
<text text-anchor="middle" x="30" y="-63.5" font-family="Helvetica,sans-Serif" font-size="10.00">iostream</text>
</a>
</g>
</g>
<!-- Node1&#45;&gt;Node11 -->
<g id="edge25" class="edge">
<title>Node1&#45;&gt;Node11</title>
<path fill="none" stroke="midnightblue" d="M221.97,-257.33C179.64,-236.62 116.06,-200.56 74,-154 55.51,-133.54 42.74,-103.88 35.89,-85.02"/>
<polygon fill="midnightblue" stroke="midnightblue" points="39.19,-83.86 32.62,-75.55 32.57,-86.14 39.19,-83.86"/>
</g>
<!-- Node3 -->
<g id="node3" class="node">
<title>Node3</title>
<g id="a_node3"><a xlink:title=" ">
<polygon fill="none" stroke="#bfbfbf" points="624,-0.5 624,-19.5 704,-19.5 704,-0.5 624,-0.5"/>
<text text-anchor="middle" x="664" y="-7.5" font-family="Helvetica,sans-Serif" font-size="10.00">hls_stream.h</text>
</a>
</g>
</g>
<!-- Node2&#45;&gt;Node3 -->
<g id="edge2" class="edge">
<title>Node2&#45;&gt;Node3</title>
<path fill="none" stroke="midnightblue" d="M555.67,-203.16C679.12,-199.48 978.97,-187.18 1009,-154 1097.17,-56.59 829.6,-23.8 714.22,-14.35"/>
<polygon fill="midnightblue" stroke="midnightblue" points="714.45,-10.86 704.2,-13.56 713.9,-17.84 714.45,-10.86"/>
</g>
<!-- Node4 -->
<g id="node4" class="node">
<title>Node4</title>
<g id="a_node4"><a xlink:title=" ">
<polygon fill="none" stroke="#bfbfbf" points="81,-0.5 81,-19.5 137,-19.5 137,-0.5 81,-0.5"/>
<text text-anchor="middle" x="109" y="-7.5" font-family="Helvetica,sans-Serif" font-size="10.00">ap_int.h</text>
</a>
</g>
</g>
<!-- Node2&#45;&gt;Node4 -->
<g id="edge3" class="edge">
<title>Node2&#45;&gt;Node4</title>
<path fill="none" stroke="midnightblue" d="M450.29,-201.47C372.36,-196.1 231.18,-182.64 190,-154 145.98,-123.38 122.94,-60.66 113.8,-29.46"/>
<polygon fill="midnightblue" stroke="midnightblue" points="117.09,-28.22 111.05,-19.52 110.34,-30.09 117.09,-28.22"/>
</g>
<!-- Node5 -->
<g id="node5" class="node">
<title>Node5</title>
<g id="a_node5"><a xlink:title=" ">
<polygon fill="none" stroke="#bfbfbf" points="281.5,-123.5 281.5,-142.5 422.5,-142.5 422.5,-123.5 281.5,-123.5"/>
<text text-anchor="middle" x="352" y="-130.5" font-family="Helvetica,sans-Serif" font-size="10.00">common/xf_common.hpp</text>
</a>
</g>
</g>
<!-- Node2&#45;&gt;Node5 -->
<g id="edge4" class="edge">
<title>Node2&#45;&gt;Node5</title>
<path fill="none" stroke="midnightblue" d="M472.81,-190.4C445.64,-177.72 406.05,-159.23 379.68,-146.92"/>
<polygon fill="midnightblue" stroke="midnightblue" points="380.82,-143.59 370.28,-142.53 377.86,-149.94 380.82,-143.59"/>
</g>
<!-- Node6 -->
<g id="node6" class="node">
<title>Node6</title>
<g id="a_node6"><a xlink:title=" ">
<polygon fill="none" stroke="#bfbfbf" points="440.5,-123.5 440.5,-142.5 565.5,-142.5 565.5,-123.5 440.5,-123.5"/>
<text text-anchor="middle" x="503" y="-130.5" font-family="Helvetica,sans-Serif" font-size="10.00">common/xf_utility.hpp</text>
</a>
</g>
</g>
<!-- Node2&#45;&gt;Node6 -->
<g id="edge5" class="edge">
<title>Node2&#45;&gt;Node6</title>
<path fill="none" stroke="midnightblue" d="M503,-190.23C503,-179.5 503,-164.69 503,-152.96"/>
<polygon fill="midnightblue" stroke="midnightblue" points="506.5,-152.89 503,-142.89 499.5,-152.89 506.5,-152.89"/>
</g>
<!-- Node7 -->
<g id="node7" class="node">
<title>Node7</title>
<g id="a_node7"><a xlink:title=" ">
<polygon fill="none" stroke="#bfbfbf" points="584,-123.5 584,-142.5 706,-142.5 706,-123.5 584,-123.5"/>
<text text-anchor="middle" x="645" y="-130.5" font-family="Helvetica,sans-Serif" font-size="10.00">imgproc/xf_sobel.hpp</text>
</a>
</g>
</g>
<!-- Node2&#45;&gt;Node7 -->
<g id="edge6" class="edge">
<title>Node2&#45;&gt;Node7</title>
<path fill="none" stroke="midnightblue" d="M531.39,-190.4C556.83,-177.77 593.85,-159.4 618.64,-147.09"/>
<polygon fill="midnightblue" stroke="midnightblue" points="620.41,-150.12 627.81,-142.53 617.3,-143.85 620.41,-150.12"/>
</g>
<!-- Node8 -->
<g id="node8" class="node">
<title>Node8</title>
<g id="a_node8"><a xlink:href="sobel_2include_2xf__config__params_8h.html" target="_top" xlink:title="The Sobel IP configuration header.">
<polygon fill="none" stroke="black" points="724,-123.5 724,-142.5 836,-142.5 836,-123.5 724,-123.5"/>
<text text-anchor="middle" x="780" y="-130.5" font-family="Helvetica,sans-Serif" font-size="10.00">xf_config_params.h</text>
</a>
</g>
</g>
<!-- Node2&#45;&gt;Node8 -->
<g id="edge7" class="edge">
<title>Node2&#45;&gt;Node8</title>
<path fill="none" stroke="midnightblue" d="M555.51,-192.98C598.56,-183.31 660.98,-168.73 715,-154 724.37,-151.45 734.43,-148.47 743.77,-145.6"/>
<polygon fill="midnightblue" stroke="midnightblue" points="745.04,-148.87 753.55,-142.56 742.96,-142.19 745.04,-148.87"/>
</g>
<!-- Node9 -->
<g id="node9" class="node">
<title>Node9</title>
<g id="a_node9"><a xlink:href="sobel_8hpp.html" target="_top" xlink:title="The Role for a Sobel Example application (UDP or TCP)">
<polygon fill="none" stroke="black" points="199,-123.5 199,-142.5 263,-142.5 263,-123.5 199,-123.5"/>
<text text-anchor="middle" x="231" y="-130.5" font-family="Helvetica,sans-Serif" font-size="10.00">sobel.hpp</text>
</a>
</g>
</g>
<!-- Node2&#45;&gt;Node9 -->
<g id="edge8" class="edge">
<title>Node2&#45;&gt;Node9</title>
<path fill="none" stroke="midnightblue" d="M450.18,-196.65C402.71,-188.72 331.52,-174.69 272,-154 266.58,-152.11 260.94,-149.69 255.64,-147.19"/>
<polygon fill="midnightblue" stroke="midnightblue" points="257.1,-144.01 246.59,-142.7 253.99,-150.28 257.1,-144.01"/>
</g>
<!-- Node19 -->
<g id="node19" class="node">
<title>Node19</title>
<g id="a_node19"><a xlink:href="vision_2sobel_2languages_2cplusplus_2include_2config_8h.html" target="_top" xlink:title="The configuration of a Sobel Example application (UDP or TCP)">
<polygon fill="none" stroke="black" points="854.5,-112.5 854.5,-153.5 999.5,-153.5 999.5,-112.5 854.5,-112.5"/>
<text text-anchor="start" x="862.5" y="-141.5" font-family="Helvetica,sans-Serif" font-size="10.00">../../../../../HOST</text>
<text text-anchor="start" x="862.5" y="-130.5" font-family="Helvetica,sans-Serif" font-size="10.00">/vision/sobel/languages</text>
<text text-anchor="middle" x="927" y="-119.5" font-family="Helvetica,sans-Serif" font-size="10.00">/cplusplus/include/config.h</text>
</a>
</g>
</g>
<!-- Node2&#45;&gt;Node19 -->
<g id="edge24" class="edge">
<title>Node2&#45;&gt;Node19</title>
<path fill="none" stroke="midnightblue" d="M555.7,-198.26C621.04,-190.18 736.01,-174.84 844.1,-154.09"/>
<polygon fill="midnightblue" stroke="midnightblue" points="845.05,-157.47 854.2,-152.13 843.72,-150.6 845.05,-157.47"/>
</g>
<!-- Node9&#45;&gt;Node3 -->
<g id="edge14" class="edge">
<title>Node9&#45;&gt;Node3</title>
<path fill="none" stroke="midnightblue" d="M245.3,-123.48C252.96,-119.32 262.71,-114.65 272,-112 347.61,-90.43 557.4,-117.8 624,-76 641.14,-65.24 652.07,-44.18 658.09,-28.94"/>
<polygon fill="midnightblue" stroke="midnightblue" points="661.39,-30.11 661.5,-19.52 654.81,-27.73 661.39,-30.11"/>
</g>
<!-- Node9&#45;&gt;Node4 -->
<g id="edge15" class="edge">
<title>Node9&#45;&gt;Node4</title>
<path fill="none" stroke="midnightblue" d="M222.23,-123.3C201.83,-103.07 150.97,-52.62 124.92,-26.79"/>
<polygon fill="midnightblue" stroke="midnightblue" points="127.26,-24.18 117.69,-19.62 122.33,-29.15 127.26,-24.18"/>
</g>
<!-- Node10 -->
<g id="node10" class="node">
<title>Node10</title>
<g id="a_node10"><a xlink:title=" ">
<polygon fill="none" stroke="#bfbfbf" points="155,-0.5 155,-19.5 205,-19.5 205,-0.5 155,-0.5"/>
<text text-anchor="middle" x="180" y="-7.5" font-family="Helvetica,sans-Serif" font-size="10.00">stdio.h</text>
</a>
</g>
</g>
<!-- Node9&#45;&gt;Node10 -->
<g id="edge9" class="edge">
<title>Node9&#45;&gt;Node10</title>
<path fill="none" stroke="midnightblue" d="M220.28,-123.43C208.69,-113.44 190.83,-95.76 183,-76 177.2,-61.38 176.83,-43.44 177.69,-30.11"/>
<polygon fill="midnightblue" stroke="midnightblue" points="181.2,-30.07 178.66,-19.79 174.24,-29.42 181.2,-30.07"/>
</g>
<!-- Node9&#45;&gt;Node11 -->
<g id="edge10" class="edge">
<title>Node9&#45;&gt;Node11</title>
<path fill="none" stroke="midnightblue" d="M204.31,-123.37C168.77,-111.88 105.79,-91.51 66.05,-78.66"/>
<polygon fill="midnightblue" stroke="midnightblue" points="67.07,-75.31 56.48,-75.56 64.92,-81.97 67.07,-75.31"/>
</g>
<!-- Node12 -->
<g id="node12" class="node">
<title>Node12</title>
<g id="a_node12"><a xlink:title=" ">
<polygon fill="none" stroke="#bfbfbf" points="287.5,-56.5 287.5,-75.5 342.5,-75.5 342.5,-56.5 287.5,-56.5"/>
<text text-anchor="middle" x="315" y="-63.5" font-family="Helvetica,sans-Serif" font-size="10.00">fstream</text>
</a>
</g>
</g>
<!-- Node9&#45;&gt;Node12 -->
<g id="edge11" class="edge">
<title>Node9&#45;&gt;Node12</title>
<path fill="none" stroke="midnightblue" d="M242.33,-123.23C256.06,-112.61 279.4,-94.55 295.92,-81.76"/>
<polygon fill="midnightblue" stroke="midnightblue" points="298.08,-84.52 303.85,-75.63 293.8,-78.98 298.08,-84.52"/>
</g>
<!-- Node13 -->
<g id="node13" class="node">
<title>Node13</title>
<g id="a_node13"><a xlink:title=" ">
<polygon fill="none" stroke="#bfbfbf" points="361,-56.5 361,-75.5 405,-75.5 405,-56.5 361,-56.5"/>
<text text-anchor="middle" x="383" y="-63.5" font-family="Helvetica,sans-Serif" font-size="10.00">string</text>
</a>
</g>
</g>
<!-- Node9&#45;&gt;Node13 -->
<g id="edge12" class="edge">
<title>Node9&#45;&gt;Node13</title>
<path fill="none" stroke="midnightblue" d="M248.03,-123.37C255.35,-119.74 264.04,-115.55 272,-112 298.47,-100.2 329.02,-87.91 351.36,-79.16"/>
<polygon fill="midnightblue" stroke="midnightblue" points="352.65,-82.41 360.7,-75.52 350.11,-75.89 352.65,-82.41"/>
</g>
<!-- Node14 -->
<g id="node14" class="node">
<title>Node14</title>
<g id="a_node14"><a xlink:title=" ">
<polygon fill="none" stroke="#bfbfbf" points="423.5,-56.5 423.5,-75.5 474.5,-75.5 474.5,-56.5 423.5,-56.5"/>
<text text-anchor="middle" x="449" y="-63.5" font-family="Helvetica,sans-Serif" font-size="10.00">math.h</text>
</a>
</g>
</g>
<!-- Node9&#45;&gt;Node14 -->
<g id="edge13" class="edge">
<title>Node9&#45;&gt;Node14</title>
<path fill="none" stroke="midnightblue" d="M246.63,-123.43C254.15,-119.56 263.37,-115.16 272,-112 330.27,-90.66 349.15,-91.93 413.55,-76.07"/>
<polygon fill="midnightblue" stroke="midnightblue" points="414.54,-79.43 423.39,-73.6 412.84,-72.64 414.54,-79.43"/>
</g>
<!-- Node15 -->
<g id="node15" class="node">
<title>Node15</title>
<g id="a_node15"><a xlink:title=" ">
<polygon fill="none" stroke="#bfbfbf" points="421.5,-0.5 421.5,-19.5 474.5,-19.5 474.5,-0.5 421.5,-0.5"/>
<text text-anchor="middle" x="448" y="-7.5" font-family="Helvetica,sans-Serif" font-size="10.00">stdint.h</text>
</a>
</g>
</g>
<!-- Node9&#45;&gt;Node15 -->
<g id="edge16" class="edge">
<title>Node9&#45;&gt;Node15</title>
<path fill="none" stroke="midnightblue" d="M245.31,-123.5C252.97,-119.34 262.72,-114.67 272,-112 343.95,-91.28 556.97,-131.7 607,-76 644.15,-34.65 542.9,-19.05 485.11,-13.63"/>
<polygon fill="midnightblue" stroke="midnightblue" points="485.13,-10.12 474.86,-12.73 484.52,-17.09 485.13,-10.12"/>
</g>
<!-- Node16 -->
<g id="node16" class="node">
<title>Node16</title>
<g id="a_node16"><a xlink:href="network_8hpp.html" target="_top" xlink:title=" ">
<polygon fill="none" stroke="black" points="192.5,-56.5 192.5,-75.5 269.5,-75.5 269.5,-56.5 192.5,-56.5"/>
<text text-anchor="middle" x="231" y="-63.5" font-family="Helvetica,sans-Serif" font-size="10.00">network.hpp</text>
</a>
</g>
</g>
<!-- Node9&#45;&gt;Node16 -->
<g id="edge17" class="edge">
<title>Node9&#45;&gt;Node16</title>
<path fill="none" stroke="midnightblue" d="M231,-123.23C231,-113.68 231,-98.12 231,-85.78"/>
<polygon fill="midnightblue" stroke="midnightblue" points="234.5,-85.63 231,-75.63 227.5,-85.63 234.5,-85.63"/>
</g>
<!-- Node18 -->
<g id="node18" class="node">
<title>Node18</title>
<g id="a_node18"><a xlink:title=" ">
<polygon fill="none" stroke="#bfbfbf" points="492.5,-56.5 492.5,-75.5 597.5,-75.5 597.5,-56.5 492.5,-56.5"/>
<text text-anchor="middle" x="545" y="-63.5" font-family="Helvetica,sans-Serif" font-size="10.00">memory_utils.hpp</text>
</a>
</g>
</g>
<!-- Node9&#45;&gt;Node18 -->
<g id="edge23" class="edge">
<title>Node9&#45;&gt;Node18</title>
<path fill="none" stroke="midnightblue" d="M246.14,-123.3C253.69,-119.31 263.1,-114.84 272,-112 291.64,-105.74 407.71,-87.64 482.05,-76.39"/>
<polygon fill="midnightblue" stroke="midnightblue" points="482.88,-79.81 492.24,-74.85 481.83,-72.89 482.88,-79.81"/>
</g>
<!-- Node16&#45;&gt;Node3 -->
<g id="edge22" class="edge">
<title>Node16&#45;&gt;Node3</title>
<path fill="none" stroke="midnightblue" d="M269.69,-57.36C272.5,-56.88 275.29,-56.42 278,-56 397.81,-37.57 539.57,-22.85 613.46,-15.7"/>
<polygon fill="midnightblue" stroke="midnightblue" points="614.24,-19.14 623.86,-14.7 613.57,-12.17 614.24,-19.14"/>
</g>
<!-- Node16&#45;&gt;Node4 -->
<g id="edge20" class="edge">
<title>Node16&#45;&gt;Node4</title>
<path fill="none" stroke="midnightblue" d="M211.67,-56.44C191.68,-47.6 160.26,-33.69 137.44,-23.59"/>
<polygon fill="midnightblue" stroke="midnightblue" points="138.8,-20.36 128.24,-19.52 135.97,-26.76 138.8,-20.36"/>
</g>
<!-- Node16&#45;&gt;Node10 -->
<g id="edge19" class="edge">
<title>Node16&#45;&gt;Node10</title>
<path fill="none" stroke="midnightblue" d="M222.58,-56.08C215.15,-48.22 204.15,-36.57 195.19,-27.08"/>
<polygon fill="midnightblue" stroke="midnightblue" points="197.68,-24.62 188.26,-19.75 192.59,-29.42 197.68,-24.62"/>
</g>
<!-- Node16&#45;&gt;Node15 -->
<g id="edge18" class="edge">
<title>Node16&#45;&gt;Node15</title>
<path fill="none" stroke="midnightblue" d="M265.38,-56.44C305.27,-46.52 370.74,-30.23 411.5,-20.08"/>
<polygon fill="midnightblue" stroke="midnightblue" points="412.44,-23.46 421.3,-17.64 410.75,-16.66 412.44,-23.46"/>
</g>
<!-- Node17 -->
<g id="node17" class="node">
<title>Node17</title>
<g id="a_node17"><a xlink:title=" ">
<polygon fill="none" stroke="#bfbfbf" points="223,-0.5 223,-19.5 287,-19.5 287,-0.5 223,-0.5"/>
<text text-anchor="middle" x="255" y="-7.5" font-family="Helvetica,sans-Serif" font-size="10.00">ap_utils.h</text>
</a>
</g>
</g>
<!-- Node16&#45;&gt;Node17 -->
<g id="edge21" class="edge">
<title>Node16&#45;&gt;Node17</title>
<path fill="none" stroke="midnightblue" d="M234.96,-56.08C238.21,-48.77 242.92,-38.18 246.95,-29.1"/>
<polygon fill="midnightblue" stroke="midnightblue" points="250.25,-30.31 251.11,-19.75 243.85,-27.47 250.25,-30.31"/>
</g>
</g>
</svg>
