<?xml version="1.0" encoding="UTF-8" standalone="no"?>
<!DOCTYPE svg PUBLIC "-//W3C//DTD SVG 1.1//EN"
 "http://www.w3.org/Graphics/SVG/1.1/DTD/svg11.dtd">
<!-- Generated by graphviz version 2.43.0 (0)
 -->
<!-- Title: repos_for_Dox/cFp_Zoo/ROLE/vision/hls/warp_transform/include/xf_warp_transform_config.h Pages: 1 -->
<svg width="1149pt" height="262pt"
 viewBox="0.00 0.00 1148.50 262.00" xmlns="http://www.w3.org/2000/svg" xmlns:xlink="http://www.w3.org/1999/xlink">
<g id="graph0" class="graph" transform="scale(1 1) rotate(0) translate(4 258)">
<title>repos_for_Dox/cFp_Zoo/ROLE/vision/hls/warp_transform/include/xf_warp_transform_config.h</title>
<!-- Node1 -->
<g id="node1" class="node">
<title>Node1</title>
<g id="a_node1"><a xlink:title="The WarpTransform configuration header.">
<polygon fill="#bfbfbf" stroke="black" points="554.5,-201.5 554.5,-253.5 697.5,-253.5 697.5,-201.5 554.5,-201.5"/>
<text text-anchor="start" x="562.5" y="-241.5" font-family="Helvetica,sans-Serif" font-size="10.00">repos_for_Dox/cFp_Zoo</text>
<text text-anchor="start" x="562.5" y="-230.5" font-family="Helvetica,sans-Serif" font-size="10.00">/ROLE/vision/hls/warp</text>
<text text-anchor="start" x="562.5" y="-219.5" font-family="Helvetica,sans-Serif" font-size="10.00">_transform/include/xf</text>
<text text-anchor="middle" x="626" y="-208.5" font-family="Helvetica,sans-Serif" font-size="10.00">_warp_transform_config.h</text>
</a>
</g>
</g>
<!-- Node2 -->
<g id="node2" class="node">
<title>Node2</title>
<g id="a_node2"><a xlink:title=" ">
<polygon fill="none" stroke="#bfbfbf" points="0,-0.5 0,-19.5 80,-19.5 80,-0.5 0,-0.5"/>
<text text-anchor="middle" x="40" y="-7.5" font-family="Helvetica,sans-Serif" font-size="10.00">hls_stream.h</text>
</a>
</g>
</g>
<!-- Node1&#45;&gt;Node2 -->
<g id="edge1" class="edge">
<title>Node1&#45;&gt;Node2</title>
<path fill="none" stroke="midnightblue" d="M554.22,-221.23C445.59,-212.47 245.05,-193.08 179,-165 120.17,-139.99 104.28,-127.2 66,-76 55.55,-62.02 48.64,-43.27 44.59,-29.5"/>
<polygon fill="midnightblue" stroke="midnightblue" points="47.93,-28.45 41.94,-19.71 41.17,-30.28 47.93,-28.45"/>
</g>
<!-- Node3 -->
<g id="node3" class="node">
<title>Node3</title>
<g id="a_node3"><a xlink:title=" ">
<polygon fill="none" stroke="#bfbfbf" points="629,-0.5 629,-19.5 685,-19.5 685,-0.5 629,-0.5"/>
<text text-anchor="middle" x="657" y="-7.5" font-family="Helvetica,sans-Serif" font-size="10.00">ap_int.h</text>
</a>
</g>
</g>
<!-- Node1&#45;&gt;Node3 -->
<g id="edge2" class="edge">
<title>Node1&#45;&gt;Node3</title>
<path fill="none" stroke="midnightblue" d="M697.79,-222.52C779.79,-216.29 906.45,-200.99 936,-165 1007.75,-77.61 787.12,-31.6 695.22,-16.6"/>
<polygon fill="midnightblue" stroke="midnightblue" points="695.62,-13.12 685.19,-15 694.51,-20.03 695.62,-13.12"/>
</g>
<!-- Node4 -->
<g id="node4" class="node">
<title>Node4</title>
<g id="a_node4"><a xlink:title=" ">
<polygon fill="none" stroke="#bfbfbf" points="321.5,-129 321.5,-148 462.5,-148 462.5,-129 321.5,-129"/>
<text text-anchor="middle" x="392" y="-136" font-family="Helvetica,sans-Serif" font-size="10.00">common/xf_common.hpp</text>
</a>
</g>
</g>
<!-- Node1&#45;&gt;Node4 -->
<g id="edge3" class="edge">
<title>Node1&#45;&gt;Node4</title>
<path fill="none" stroke="midnightblue" d="M558.63,-201.45C514.64,-185.1 459.15,-164.47 424.62,-151.63"/>
<polygon fill="midnightblue" stroke="midnightblue" points="425.63,-148.27 415.04,-148.07 423.19,-154.83 425.63,-148.27"/>
</g>
<!-- Node5 -->
<g id="node5" class="node">
<title>Node5</title>
<g id="a_node5"><a xlink:title=" ">
<polygon fill="none" stroke="#bfbfbf" points="480.5,-129 480.5,-148 605.5,-148 605.5,-129 480.5,-129"/>
<text text-anchor="middle" x="543" y="-136" font-family="Helvetica,sans-Serif" font-size="10.00">common/xf_utility.hpp</text>
</a>
</g>
</g>
<!-- Node1&#45;&gt;Node5 -->
<g id="edge4" class="edge">
<title>Node1&#45;&gt;Node5</title>
<path fill="none" stroke="midnightblue" d="M601.99,-201.34C588.01,-186.68 570.79,-168.63 558.57,-155.82"/>
<polygon fill="midnightblue" stroke="midnightblue" points="560.78,-153.07 551.35,-148.25 555.72,-157.9 560.78,-153.07"/>
</g>
<!-- Node6 -->
<g id="node6" class="node">
<title>Node6</title>
<g id="a_node6"><a xlink:title=" ">
<polygon fill="none" stroke="#bfbfbf" points="623.5,-129 623.5,-148 796.5,-148 796.5,-129 623.5,-129"/>
<text text-anchor="middle" x="710" y="-136" font-family="Helvetica,sans-Serif" font-size="10.00">imgproc/xf_warp_transform.hpp</text>
</a>
</g>
</g>
<!-- Node1&#45;&gt;Node6 -->
<g id="edge5" class="edge">
<title>Node1&#45;&gt;Node6</title>
<path fill="none" stroke="midnightblue" d="M650.3,-201.34C664.58,-186.54 682.21,-168.28 694.6,-155.45"/>
<polygon fill="midnightblue" stroke="midnightblue" points="697.13,-157.87 701.55,-148.25 692.09,-153.01 697.13,-157.87"/>
</g>
<!-- Node7 -->
<g id="node7" class="node">
<title>Node7</title>
<g id="a_node7"><a xlink:href="warp__transform_2include_2xf__config__params_8h.html" target="_top" xlink:title="The WarpTransform IP configuration header.">
<polygon fill="none" stroke="black" points="815,-129 815,-148 927,-148 927,-129 815,-129"/>
<text text-anchor="middle" x="871" y="-136" font-family="Helvetica,sans-Serif" font-size="10.00">xf_config_params.h</text>
</a>
</g>
</g>
<!-- Node1&#45;&gt;Node7 -->
<g id="edge6" class="edge">
<title>Node1&#45;&gt;Node7</title>
<path fill="none" stroke="midnightblue" d="M697.65,-202.84C730.75,-191.7 770.5,-178.02 806,-165 817.33,-160.85 829.67,-156.07 840.53,-151.78"/>
<polygon fill="midnightblue" stroke="midnightblue" points="842.01,-154.95 850.01,-148.01 839.43,-148.45 842.01,-154.95"/>
</g>
<!-- Node8 -->
<g id="node8" class="node">
<title>Node8</title>
<g id="a_node8"><a xlink:href="warp__transform_8hpp.html" target="_top" xlink:title="The Role for a WarpTransform Example application (UDP or TCP)">
<polygon fill="none" stroke="black" points="188.5,-129 188.5,-148 303.5,-148 303.5,-129 188.5,-129"/>
<text text-anchor="middle" x="246" y="-136" font-family="Helvetica,sans-Serif" font-size="10.00">warp_transform.hpp</text>
</a>
</g>
</g>
<!-- Node1&#45;&gt;Node8 -->
<g id="edge7" class="edge">
<title>Node1&#45;&gt;Node8</title>
<path fill="none" stroke="midnightblue" d="M554.38,-216.14C490.18,-205.99 393.79,-188.61 312,-165 299.59,-161.42 286.23,-156.47 274.8,-151.89"/>
<polygon fill="midnightblue" stroke="midnightblue" points="275.91,-148.56 265.33,-148 273.25,-155.04 275.91,-148.56"/>
</g>
<!-- Node18 -->
<g id="node18" class="node">
<title>Node18</title>
<g id="a_node18"><a xlink:href="vision_2warp__transform_2languages_2cplusplus_2include_2config_8h.html" target="_top" xlink:title="The configuration of a WarpTransform Example application (UDP or TCP)">
<polygon fill="none" stroke="black" points="983.5,-112.5 983.5,-164.5 1140.5,-164.5 1140.5,-112.5 983.5,-112.5"/>
<text text-anchor="start" x="991.5" y="-152.5" font-family="Helvetica,sans-Serif" font-size="10.00">../../../../../HOST</text>
<text text-anchor="start" x="991.5" y="-141.5" font-family="Helvetica,sans-Serif" font-size="10.00">/vision/warp_transform</text>
<text text-anchor="start" x="991.5" y="-130.5" font-family="Helvetica,sans-Serif" font-size="10.00">/languages/cplusplus/include</text>
<text text-anchor="middle" x="1062" y="-119.5" font-family="Helvetica,sans-Serif" font-size="10.00">/config.h</text>
</a>
</g>
</g>
<!-- Node1&#45;&gt;Node18 -->
<g id="edge23" class="edge">
<title>Node1&#45;&gt;Node18</title>
<path fill="none" stroke="midnightblue" d="M697.65,-215.58C767.31,-204.52 875.92,-186.06 969,-165 970.48,-164.67 971.97,-164.32 973.47,-163.97"/>
<polygon fill="midnightblue" stroke="midnightblue" points="974.58,-167.31 983.48,-161.57 972.94,-160.5 974.58,-167.31"/>
</g>
<!-- Node8&#45;&gt;Node2 -->
<g id="edge13" class="edge">
<title>Node8&#45;&gt;Node2</title>
<path fill="none" stroke="midnightblue" d="M207.22,-128.93C173.22,-119.98 123.77,-103.36 88,-76 71.34,-63.26 57.77,-43.23 49.36,-28.77"/>
<polygon fill="midnightblue" stroke="midnightblue" points="52.3,-26.86 44.39,-19.81 46.18,-30.25 52.3,-26.86"/>
</g>
<!-- Node8&#45;&gt;Node3 -->
<g id="edge14" class="edge">
<title>Node8&#45;&gt;Node3</title>
<path fill="none" stroke="midnightblue" d="M264.36,-128.93C277.38,-123.22 295.41,-116.05 312,-112 382.81,-94.72 582.17,-122.85 638,-76 651.35,-64.8 655.61,-44.78 656.83,-29.91"/>
<polygon fill="midnightblue" stroke="midnightblue" points="660.33,-29.91 657.27,-19.77 653.34,-29.61 660.33,-29.91"/>
</g>
<!-- Node9 -->
<g id="node9" class="node">
<title>Node9</title>
<g id="a_node9"><a xlink:title=" ">
<polygon fill="none" stroke="#bfbfbf" points="208,-0.5 208,-19.5 258,-19.5 258,-0.5 208,-0.5"/>
<text text-anchor="middle" x="233" y="-7.5" font-family="Helvetica,sans-Serif" font-size="10.00">stdio.h</text>
</a>
</g>
</g>
<!-- Node8&#45;&gt;Node9 -->
<g id="edge8" class="edge">
<title>Node8&#45;&gt;Node9</title>
<path fill="none" stroke="midnightblue" d="M188.32,-129.53C155.63,-121.74 117.31,-106.35 97,-76 70.7,-36.69 149.32,-20.49 197.83,-14.36"/>
<polygon fill="midnightblue" stroke="midnightblue" points="198.44,-17.81 207.96,-13.17 197.62,-10.86 198.44,-17.81"/>
</g>
<!-- Node10 -->
<g id="node10" class="node">
<title>Node10</title>
<g id="a_node10"><a xlink:title=" ">
<polygon fill="none" stroke="#bfbfbf" points="106,-56.5 106,-75.5 166,-75.5 166,-56.5 106,-56.5"/>
<text text-anchor="middle" x="136" y="-63.5" font-family="Helvetica,sans-Serif" font-size="10.00">iostream</text>
</a>
</g>
</g>
<!-- Node8&#45;&gt;Node10 -->
<g id="edge9" class="edge">
<title>Node8&#45;&gt;Node10</title>
<path fill="none" stroke="midnightblue" d="M232.51,-128.86C213.96,-116.96 180.33,-95.41 158.08,-81.15"/>
<polygon fill="midnightblue" stroke="midnightblue" points="159.91,-78.16 149.6,-75.72 156.13,-84.06 159.91,-78.16"/>
</g>
<!-- Node11 -->
<g id="node11" class="node">
<title>Node11</title>
<g id="a_node11"><a xlink:title=" ">
<polygon fill="none" stroke="#bfbfbf" points="184.5,-56.5 184.5,-75.5 239.5,-75.5 239.5,-56.5 184.5,-56.5"/>
<text text-anchor="middle" x="212" y="-63.5" font-family="Helvetica,sans-Serif" font-size="10.00">fstream</text>
</a>
</g>
</g>
<!-- Node8&#45;&gt;Node11 -->
<g id="edge10" class="edge">
<title>Node8&#45;&gt;Node11</title>
<path fill="none" stroke="midnightblue" d="M241.83,-128.86C236.58,-117.97 227.42,-98.98 220.64,-84.91"/>
<polygon fill="midnightblue" stroke="midnightblue" points="223.7,-83.2 216.2,-75.72 217.39,-86.24 223.7,-83.2"/>
</g>
<!-- Node12 -->
<g id="node12" class="node">
<title>Node12</title>
<g id="a_node12"><a xlink:title=" ">
<polygon fill="none" stroke="#bfbfbf" points="258,-56.5 258,-75.5 302,-75.5 302,-56.5 258,-56.5"/>
<text text-anchor="middle" x="280" y="-63.5" font-family="Helvetica,sans-Serif" font-size="10.00">string</text>
</a>
</g>
</g>
<!-- Node8&#45;&gt;Node12 -->
<g id="edge11" class="edge">
<title>Node8&#45;&gt;Node12</title>
<path fill="none" stroke="midnightblue" d="M250.17,-128.86C255.42,-117.97 264.58,-98.98 271.36,-84.91"/>
<polygon fill="midnightblue" stroke="midnightblue" points="274.61,-86.24 275.8,-75.72 268.3,-83.2 274.61,-86.24"/>
</g>
<!-- Node13 -->
<g id="node13" class="node">
<title>Node13</title>
<g id="a_node13"><a xlink:title=" ">
<polygon fill="none" stroke="#bfbfbf" points="320.5,-56.5 320.5,-75.5 371.5,-75.5 371.5,-56.5 320.5,-56.5"/>
<text text-anchor="middle" x="346" y="-63.5" font-family="Helvetica,sans-Serif" font-size="10.00">math.h</text>
</a>
</g>
</g>
<!-- Node8&#45;&gt;Node13 -->
<g id="edge12" class="edge">
<title>Node8&#45;&gt;Node13</title>
<path fill="none" stroke="midnightblue" d="M258.26,-128.86C274.98,-117.07 305.16,-95.79 325.39,-81.53"/>
<polygon fill="midnightblue" stroke="midnightblue" points="327.48,-84.34 333.64,-75.72 323.45,-78.62 327.48,-84.34"/>
</g>
<!-- Node14 -->
<g id="node14" class="node">
<title>Node14</title>
<g id="a_node14"><a xlink:title=" ">
<polygon fill="none" stroke="#bfbfbf" points="468.5,-0.5 468.5,-19.5 521.5,-19.5 521.5,-0.5 468.5,-0.5"/>
<text text-anchor="middle" x="495" y="-7.5" font-family="Helvetica,sans-Serif" font-size="10.00">stdint.h</text>
</a>
</g>
</g>
<!-- Node8&#45;&gt;Node14 -->
<g id="edge15" class="edge">
<title>Node8&#45;&gt;Node14</title>
<path fill="none" stroke="midnightblue" d="M265.65,-129C278.64,-123.61 296.12,-116.78 312,-112 383.46,-90.49 421.46,-126.93 476,-76 488.61,-64.22 493.01,-44.59 494.46,-29.97"/>
<polygon fill="midnightblue" stroke="midnightblue" points="497.98,-29.77 495.1,-19.57 490.99,-29.34 497.98,-29.77"/>
</g>
<!-- Node15 -->
<g id="node15" class="node">
<title>Node15</title>
<g id="a_node15"><a xlink:href="network_8hpp.html" target="_top" xlink:title=" ">
<polygon fill="none" stroke="black" points="389.5,-56.5 389.5,-75.5 466.5,-75.5 466.5,-56.5 389.5,-56.5"/>
<text text-anchor="middle" x="428" y="-63.5" font-family="Helvetica,sans-Serif" font-size="10.00">network.hpp</text>
</a>
</g>
</g>
<!-- Node8&#45;&gt;Node15 -->
<g id="edge16" class="edge">
<title>Node8&#45;&gt;Node15</title>
<path fill="none" stroke="midnightblue" d="M267.95,-129C299.93,-116.61 359.49,-93.54 396.25,-79.3"/>
<polygon fill="midnightblue" stroke="midnightblue" points="397.91,-82.41 405.97,-75.53 395.38,-75.88 397.91,-82.41"/>
</g>
<!-- Node17 -->
<g id="node17" class="node">
<title>Node17</title>
<g id="a_node17"><a xlink:title=" ">
<polygon fill="none" stroke="#bfbfbf" points="523.5,-56.5 523.5,-75.5 628.5,-75.5 628.5,-56.5 523.5,-56.5"/>
<text text-anchor="middle" x="576" y="-63.5" font-family="Helvetica,sans-Serif" font-size="10.00">memory_utils.hpp</text>
</a>
</g>
</g>
<!-- Node8&#45;&gt;Node17 -->
<g id="edge22" class="edge">
<title>Node8&#45;&gt;Node17</title>
<path fill="none" stroke="midnightblue" d="M265.01,-128.99C278.01,-123.46 295.78,-116.47 312,-112 348.86,-101.85 447.31,-86.17 513,-76.25"/>
<polygon fill="midnightblue" stroke="midnightblue" points="513.88,-79.66 523.25,-74.71 512.84,-72.74 513.88,-79.66"/>
</g>
<!-- Node15&#45;&gt;Node2 -->
<g id="edge21" class="edge">
<title>Node15&#45;&gt;Node2</title>
<path fill="none" stroke="midnightblue" d="M389.3,-57.41C386.5,-56.91 383.71,-56.44 381,-56 278.04,-39.36 156.85,-24.48 90.22,-16.7"/>
<polygon fill="midnightblue" stroke="midnightblue" points="90.35,-13.19 80.01,-15.52 89.54,-20.15 90.35,-13.19"/>
</g>
<!-- Node15&#45;&gt;Node3 -->
<g id="edge19" class="edge">
<title>Node15&#45;&gt;Node3</title>
<path fill="none" stroke="midnightblue" d="M464.29,-56.44C506.55,-46.48 576.05,-30.09 619.03,-19.95"/>
<polygon fill="midnightblue" stroke="midnightblue" points="619.9,-23.35 628.83,-17.64 618.29,-16.53 619.9,-23.35"/>
</g>
<!-- Node15&#45;&gt;Node9 -->
<g id="edge18" class="edge">
<title>Node15&#45;&gt;Node9</title>
<path fill="none" stroke="midnightblue" d="M397.1,-56.44C361.96,-46.71 304.7,-30.86 267.96,-20.68"/>
<polygon fill="midnightblue" stroke="midnightblue" points="268.74,-17.27 258.17,-17.97 266.88,-24.01 268.74,-17.27"/>
</g>
<!-- Node15&#45;&gt;Node14 -->
<g id="edge17" class="edge">
<title>Node15&#45;&gt;Node14</title>
<path fill="none" stroke="midnightblue" d="M438.76,-56.32C448.77,-48.26 463.89,-36.08 475.93,-26.37"/>
<polygon fill="midnightblue" stroke="midnightblue" points="478.45,-28.83 484.04,-19.83 474.06,-23.38 478.45,-28.83"/>
</g>
<!-- Node16 -->
<g id="node16" class="node">
<title>Node16</title>
<g id="a_node16"><a xlink:title=" ">
<polygon fill="none" stroke="#bfbfbf" points="386,-0.5 386,-19.5 450,-19.5 450,-0.5 386,-0.5"/>
<text text-anchor="middle" x="418" y="-7.5" font-family="Helvetica,sans-Serif" font-size="10.00">ap_utils.h</text>
</a>
</g>
</g>
<!-- Node15&#45;&gt;Node16 -->
<g id="edge20" class="edge">
<title>Node15&#45;&gt;Node16</title>
<path fill="none" stroke="midnightblue" d="M426.35,-56.08C425.02,-48.93 423.12,-38.64 421.46,-29.69"/>
<polygon fill="midnightblue" stroke="midnightblue" points="424.88,-28.95 419.62,-19.75 418,-30.22 424.88,-28.95"/>
</g>
</g>
</svg>
