<?xml version="1.0" encoding="UTF-8" standalone="no"?>
<!DOCTYPE svg PUBLIC "-//W3C//DTD SVG 1.1//EN"
 "http://www.w3.org/Graphics/SVG/1.1/DTD/svg11.dtd">
<!-- Generated by graphviz version 2.43.0 (0)
 -->
<!-- Title: repos_for_Dox/cFp_Zoo/ROLE/vision/hls/sobel/include/xf_sobel_config.h Pages: 1 -->
<svg width="1061pt" height="240pt"
 viewBox="0.00 0.00 1060.50 240.00" xmlns="http://www.w3.org/2000/svg" xmlns:xlink="http://www.w3.org/1999/xlink">
<g id="graph0" class="graph" transform="scale(1 1) rotate(0) translate(4 236)">
<title>repos_for_Dox/cFp_Zoo/ROLE/vision/hls/sobel/include/xf_sobel_config.h</title>
<!-- Node1 -->
<g id="node1" class="node">
<title>Node1</title>
<g id="a_node1"><a xlink:title="The Sobel configuration header.">
<polygon fill="#bfbfbf" stroke="black" points="517.5,-190.5 517.5,-231.5 660.5,-231.5 660.5,-190.5 517.5,-190.5"/>
<text text-anchor="start" x="525.5" y="-219.5" font-family="Helvetica,sans-Serif" font-size="10.00">repos_for_Dox/cFp_Zoo</text>
<text text-anchor="start" x="525.5" y="-208.5" font-family="Helvetica,sans-Serif" font-size="10.00">/ROLE/vision/hls/sobel</text>
<text text-anchor="middle" x="589" y="-197.5" font-family="Helvetica,sans-Serif" font-size="10.00">/include/xf_sobel_config.h</text>
</a>
</g>
</g>
<!-- Node2 -->
<g id="node2" class="node">
<title>Node2</title>
<g id="a_node2"><a xlink:title=" ">
<polygon fill="none" stroke="#bfbfbf" points="0,-0.5 0,-19.5 80,-19.5 80,-0.5 0,-0.5"/>
<text text-anchor="middle" x="40" y="-7.5" font-family="Helvetica,sans-Serif" font-size="10.00">hls_stream.h</text>
</a>
</g>
</g>
<!-- Node1&#45;&gt;Node2 -->
<g id="edge1" class="edge">
<title>Node1&#45;&gt;Node2</title>
<path fill="none" stroke="midnightblue" d="M517.47,-207.36C438.95,-202.69 310.07,-189.77 205,-154 137.94,-131.17 112.71,-129.26 66,-76 54.36,-62.73 47.56,-43.61 43.86,-29.54"/>
<polygon fill="midnightblue" stroke="midnightblue" points="47.2,-28.48 41.51,-19.54 40.39,-30.08 47.2,-28.48"/>
</g>
<!-- Node3 -->
<g id="node3" class="node">
<title>Node3</title>
<g id="a_node3"><a xlink:title=" ">
<polygon fill="none" stroke="#bfbfbf" points="629,-0.5 629,-19.5 685,-19.5 685,-0.5 629,-0.5"/>
<text text-anchor="middle" x="657" y="-7.5" font-family="Helvetica,sans-Serif" font-size="10.00">ap_int.h</text>
</a>
</g>
</g>
<!-- Node1&#45;&gt;Node3 -->
<g id="edge2" class="edge">
<title>Node1&#45;&gt;Node3</title>
<path fill="none" stroke="midnightblue" d="M660.52,-205.22C732.17,-198.76 835.27,-184.36 860,-154 913.17,-88.72 767.05,-39.81 694.78,-20.29"/>
<polygon fill="midnightblue" stroke="midnightblue" points="695.66,-16.91 685.1,-17.73 693.87,-23.67 695.66,-16.91"/>
</g>
<!-- Node4 -->
<g id="node4" class="node">
<title>Node4</title>
<g id="a_node4"><a xlink:title=" ">
<polygon fill="none" stroke="#bfbfbf" points="296.5,-123.5 296.5,-142.5 437.5,-142.5 437.5,-123.5 296.5,-123.5"/>
<text text-anchor="middle" x="367" y="-130.5" font-family="Helvetica,sans-Serif" font-size="10.00">common/xf_common.hpp</text>
</a>
</g>
</g>
<!-- Node1&#45;&gt;Node4 -->
<g id="edge3" class="edge">
<title>Node1&#45;&gt;Node4</title>
<path fill="none" stroke="midnightblue" d="M531.83,-190.43C490.67,-176.34 436.48,-157.79 401.69,-145.87"/>
<polygon fill="midnightblue" stroke="midnightblue" points="402.58,-142.48 391.98,-142.55 400.31,-149.1 402.58,-142.48"/>
</g>
<!-- Node5 -->
<g id="node5" class="node">
<title>Node5</title>
<g id="a_node5"><a xlink:title=" ">
<polygon fill="none" stroke="#bfbfbf" points="455.5,-123.5 455.5,-142.5 580.5,-142.5 580.5,-123.5 455.5,-123.5"/>
<text text-anchor="middle" x="518" y="-130.5" font-family="Helvetica,sans-Serif" font-size="10.00">common/xf_utility.hpp</text>
</a>
</g>
</g>
<!-- Node1&#45;&gt;Node5 -->
<g id="edge4" class="edge">
<title>Node1&#45;&gt;Node5</title>
<path fill="none" stroke="midnightblue" d="M570.72,-190.43C558.96,-177.85 543.89,-161.72 532.88,-149.92"/>
<polygon fill="midnightblue" stroke="midnightblue" points="535.37,-147.47 525.99,-142.55 530.26,-152.25 535.37,-147.47"/>
</g>
<!-- Node6 -->
<g id="node6" class="node">
<title>Node6</title>
<g id="a_node6"><a xlink:title=" ">
<polygon fill="none" stroke="#bfbfbf" points="599,-123.5 599,-142.5 721,-142.5 721,-123.5 599,-123.5"/>
<text text-anchor="middle" x="660" y="-130.5" font-family="Helvetica,sans-Serif" font-size="10.00">imgproc/xf_sobel.hpp</text>
</a>
</g>
</g>
<!-- Node1&#45;&gt;Node6 -->
<g id="edge5" class="edge">
<title>Node1&#45;&gt;Node6</title>
<path fill="none" stroke="midnightblue" d="M607.28,-190.43C619.04,-177.85 634.11,-161.72 645.12,-149.92"/>
<polygon fill="midnightblue" stroke="midnightblue" points="647.74,-152.25 652.01,-142.55 642.63,-147.47 647.74,-152.25"/>
</g>
<!-- Node7 -->
<g id="node7" class="node">
<title>Node7</title>
<g id="a_node7"><a xlink:href="sobel_2include_2xf__config__params_8h.html" target="_top" xlink:title="The Sobel IP configuration header.">
<polygon fill="none" stroke="black" points="739,-123.5 739,-142.5 851,-142.5 851,-123.5 739,-123.5"/>
<text text-anchor="middle" x="795" y="-130.5" font-family="Helvetica,sans-Serif" font-size="10.00">xf_config_params.h</text>
</a>
</g>
</g>
<!-- Node1&#45;&gt;Node7 -->
<g id="edge6" class="edge">
<title>Node1&#45;&gt;Node7</title>
<path fill="none" stroke="midnightblue" d="M642.05,-190.43C680.08,-176.4 730.09,-157.95 762.4,-146.03"/>
<polygon fill="midnightblue" stroke="midnightblue" points="763.65,-149.3 771.82,-142.55 761.23,-142.73 763.65,-149.3"/>
</g>
<!-- Node8 -->
<g id="node8" class="node">
<title>Node8</title>
<g id="a_node8"><a xlink:href="sobel_8hpp.html" target="_top" xlink:title="The Role for a Sobel Example application (UDP or TCP)">
<polygon fill="none" stroke="black" points="214,-123.5 214,-142.5 278,-142.5 278,-123.5 214,-123.5"/>
<text text-anchor="middle" x="246" y="-130.5" font-family="Helvetica,sans-Serif" font-size="10.00">sobel.hpp</text>
</a>
</g>
</g>
<!-- Node1&#45;&gt;Node8 -->
<g id="edge7" class="edge">
<title>Node1&#45;&gt;Node8</title>
<path fill="none" stroke="midnightblue" d="M517.47,-202.27C455.4,-194.27 363.72,-179.3 287,-154 281.45,-152.17 275.7,-149.74 270.32,-147.19"/>
<polygon fill="midnightblue" stroke="midnightblue" points="271.67,-143.96 261.16,-142.62 268.54,-150.22 271.67,-143.96"/>
</g>
<!-- Node18 -->
<g id="node18" class="node">
<title>Node18</title>
<g id="a_node18"><a xlink:href="vision_2sobel_2languages_2cplusplus_2include_2config_8h.html" target="_top" xlink:title="The configuration of a Sobel Example application (UDP or TCP)">
<polygon fill="none" stroke="black" points="907.5,-112.5 907.5,-153.5 1052.5,-153.5 1052.5,-112.5 907.5,-112.5"/>
<text text-anchor="start" x="915.5" y="-141.5" font-family="Helvetica,sans-Serif" font-size="10.00">../../../../../HOST</text>
<text text-anchor="start" x="915.5" y="-130.5" font-family="Helvetica,sans-Serif" font-size="10.00">/vision/sobel/languages</text>
<text text-anchor="middle" x="980" y="-119.5" font-family="Helvetica,sans-Serif" font-size="10.00">/cplusplus/include/config.h</text>
</a>
</g>
</g>
<!-- Node1&#45;&gt;Node18 -->
<g id="edge23" class="edge">
<title>Node1&#45;&gt;Node18</title>
<path fill="none" stroke="midnightblue" d="M660.73,-197.7C722.44,-186.9 813.78,-170.39 893,-154 894.47,-153.7 895.95,-153.39 897.45,-153.07"/>
<polygon fill="midnightblue" stroke="midnightblue" points="898.38,-156.45 907.42,-150.93 896.91,-149.61 898.38,-156.45"/>
</g>
<!-- Node8&#45;&gt;Node2 -->
<g id="edge13" class="edge">
<title>Node8&#45;&gt;Node2</title>
<path fill="none" stroke="midnightblue" d="M214,-126.44C180.08,-119.31 126.23,-104.33 88,-76 71.15,-63.51 57.61,-43.44 49.26,-28.91"/>
<polygon fill="midnightblue" stroke="midnightblue" points="52.2,-26.98 44.33,-19.89 46.06,-30.34 52.2,-26.98"/>
</g>
<!-- Node8&#45;&gt;Node3 -->
<g id="edge14" class="edge">
<title>Node8&#45;&gt;Node3</title>
<path fill="none" stroke="midnightblue" d="M260.3,-123.48C267.96,-119.32 277.71,-114.65 287,-112 362.4,-90.48 577.74,-126.17 638,-76 651.39,-64.85 655.65,-44.82 656.85,-29.93"/>
<polygon fill="midnightblue" stroke="midnightblue" points="660.36,-29.92 657.28,-19.78 653.36,-29.63 660.36,-29.92"/>
</g>
<!-- Node9 -->
<g id="node9" class="node">
<title>Node9</title>
<g id="a_node9"><a xlink:title=" ">
<polygon fill="none" stroke="#bfbfbf" points="208,-0.5 208,-19.5 258,-19.5 258,-0.5 208,-0.5"/>
<text text-anchor="middle" x="233" y="-7.5" font-family="Helvetica,sans-Serif" font-size="10.00">stdio.h</text>
</a>
</g>
</g>
<!-- Node8&#45;&gt;Node9 -->
<g id="edge8" class="edge">
<title>Node8&#45;&gt;Node9</title>
<path fill="none" stroke="midnightblue" d="M213.7,-130.12C178.34,-126.14 123.19,-113.83 97,-76 70.07,-37.11 148.96,-20.74 197.67,-14.47"/>
<polygon fill="midnightblue" stroke="midnightblue" points="198.34,-17.91 207.85,-13.25 197.5,-10.96 198.34,-17.91"/>
</g>
<!-- Node10 -->
<g id="node10" class="node">
<title>Node10</title>
<g id="a_node10"><a xlink:title=" ">
<polygon fill="none" stroke="#bfbfbf" points="106,-56.5 106,-75.5 166,-75.5 166,-56.5 106,-56.5"/>
<text text-anchor="middle" x="136" y="-63.5" font-family="Helvetica,sans-Serif" font-size="10.00">iostream</text>
</a>
</g>
</g>
<!-- Node8&#45;&gt;Node10 -->
<g id="edge9" class="edge">
<title>Node8&#45;&gt;Node10</title>
<path fill="none" stroke="midnightblue" d="M231.16,-123.23C212.69,-112.32 180.93,-93.55 159.22,-80.72"/>
<polygon fill="midnightblue" stroke="midnightblue" points="160.99,-77.7 150.6,-75.63 157.43,-83.73 160.99,-77.7"/>
</g>
<!-- Node11 -->
<g id="node11" class="node">
<title>Node11</title>
<g id="a_node11"><a xlink:title=" ">
<polygon fill="none" stroke="#bfbfbf" points="184.5,-56.5 184.5,-75.5 239.5,-75.5 239.5,-56.5 184.5,-56.5"/>
<text text-anchor="middle" x="212" y="-63.5" font-family="Helvetica,sans-Serif" font-size="10.00">fstream</text>
</a>
</g>
</g>
<!-- Node8&#45;&gt;Node11 -->
<g id="edge10" class="edge">
<title>Node8&#45;&gt;Node11</title>
<path fill="none" stroke="midnightblue" d="M241.41,-123.23C236.27,-113.39 227.78,-97.16 221.24,-84.66"/>
<polygon fill="midnightblue" stroke="midnightblue" points="224.25,-82.87 216.51,-75.63 218.05,-86.11 224.25,-82.87"/>
</g>
<!-- Node12 -->
<g id="node12" class="node">
<title>Node12</title>
<g id="a_node12"><a xlink:title=" ">
<polygon fill="none" stroke="#bfbfbf" points="258,-56.5 258,-75.5 302,-75.5 302,-56.5 258,-56.5"/>
<text text-anchor="middle" x="280" y="-63.5" font-family="Helvetica,sans-Serif" font-size="10.00">string</text>
</a>
</g>
</g>
<!-- Node8&#45;&gt;Node12 -->
<g id="edge11" class="edge">
<title>Node8&#45;&gt;Node12</title>
<path fill="none" stroke="midnightblue" d="M250.59,-123.23C255.73,-113.39 264.22,-97.16 270.76,-84.66"/>
<polygon fill="midnightblue" stroke="midnightblue" points="273.95,-86.11 275.49,-75.63 267.75,-82.87 273.95,-86.11"/>
</g>
<!-- Node13 -->
<g id="node13" class="node">
<title>Node13</title>
<g id="a_node13"><a xlink:title=" ">
<polygon fill="none" stroke="#bfbfbf" points="320.5,-56.5 320.5,-75.5 371.5,-75.5 371.5,-56.5 320.5,-56.5"/>
<text text-anchor="middle" x="346" y="-63.5" font-family="Helvetica,sans-Serif" font-size="10.00">math.h</text>
</a>
</g>
</g>
<!-- Node8&#45;&gt;Node13 -->
<g id="edge12" class="edge">
<title>Node8&#45;&gt;Node13</title>
<path fill="none" stroke="midnightblue" d="M259.49,-123.23C276.05,-112.46 304.38,-94.05 324.09,-81.24"/>
<polygon fill="midnightblue" stroke="midnightblue" points="326.25,-84.01 332.73,-75.63 322.44,-78.14 326.25,-84.01"/>
</g>
<!-- Node14 -->
<g id="node14" class="node">
<title>Node14</title>
<g id="a_node14"><a xlink:title=" ">
<polygon fill="none" stroke="#bfbfbf" points="468.5,-0.5 468.5,-19.5 521.5,-19.5 521.5,-0.5 468.5,-0.5"/>
<text text-anchor="middle" x="495" y="-7.5" font-family="Helvetica,sans-Serif" font-size="10.00">stdint.h</text>
</a>
</g>
</g>
<!-- Node8&#45;&gt;Node14 -->
<g id="edge15" class="edge">
<title>Node8&#45;&gt;Node14</title>
<path fill="none" stroke="midnightblue" d="M261.17,-123.4C268.73,-119.43 278.13,-114.95 287,-112 368.14,-85.02 412.7,-133.49 476,-76 488.9,-64.28 493.23,-44.35 494.59,-29.63"/>
<polygon fill="midnightblue" stroke="midnightblue" points="498.09,-29.8 495.15,-19.62 491.1,-29.42 498.09,-29.8"/>
</g>
<!-- Node15 -->
<g id="node15" class="node">
<title>Node15</title>
<g id="a_node15"><a xlink:href="network_8hpp.html" target="_top" xlink:title=" ">
<polygon fill="none" stroke="black" points="389.5,-56.5 389.5,-75.5 466.5,-75.5 466.5,-56.5 389.5,-56.5"/>
<text text-anchor="middle" x="428" y="-63.5" font-family="Helvetica,sans-Serif" font-size="10.00">network.hpp</text>
</a>
</g>
</g>
<!-- Node8&#45;&gt;Node15 -->
<g id="edge16" class="edge">
<title>Node8&#45;&gt;Node15</title>
<path fill="none" stroke="midnightblue" d="M262.11,-123.47C269.57,-119.69 278.62,-115.36 287,-112 320.07,-98.74 358.68,-86.64 387.12,-78.34"/>
<polygon fill="midnightblue" stroke="midnightblue" points="388.1,-81.7 396.74,-75.56 386.16,-74.97 388.1,-81.7"/>
</g>
<!-- Node17 -->
<g id="node17" class="node">
<title>Node17</title>
<g id="a_node17"><a xlink:title=" ">
<polygon fill="none" stroke="#bfbfbf" points="523.5,-56.5 523.5,-75.5 628.5,-75.5 628.5,-56.5 523.5,-56.5"/>
<text text-anchor="middle" x="576" y="-63.5" font-family="Helvetica,sans-Serif" font-size="10.00">memory_utils.hpp</text>
</a>
</g>
</g>
<!-- Node8&#45;&gt;Node17 -->
<g id="edge22" class="edge">
<title>Node8&#45;&gt;Node17</title>
<path fill="none" stroke="midnightblue" d="M260.74,-123.47C268.36,-119.42 277.93,-114.85 287,-112 308.13,-105.37 434.62,-86.88 513.09,-75.78"/>
<polygon fill="midnightblue" stroke="midnightblue" points="513.95,-79.19 523.36,-74.33 512.97,-72.26 513.95,-79.19"/>
</g>
<!-- Node15&#45;&gt;Node2 -->
<g id="edge21" class="edge">
<title>Node15&#45;&gt;Node2</title>
<path fill="none" stroke="midnightblue" d="M389.3,-57.41C386.5,-56.91 383.71,-56.44 381,-56 278.04,-39.36 156.85,-24.48 90.22,-16.7"/>
<polygon fill="midnightblue" stroke="midnightblue" points="90.35,-13.19 80.01,-15.52 89.54,-20.15 90.35,-13.19"/>
</g>
<!-- Node15&#45;&gt;Node3 -->
<g id="edge19" class="edge">
<title>Node15&#45;&gt;Node3</title>
<path fill="none" stroke="midnightblue" d="M464.29,-56.44C506.55,-46.48 576.05,-30.09 619.03,-19.95"/>
<polygon fill="midnightblue" stroke="midnightblue" points="619.9,-23.35 628.83,-17.64 618.29,-16.53 619.9,-23.35"/>
</g>
<!-- Node15&#45;&gt;Node9 -->
<g id="edge18" class="edge">
<title>Node15&#45;&gt;Node9</title>
<path fill="none" stroke="midnightblue" d="M397.1,-56.44C361.96,-46.71 304.7,-30.86 267.96,-20.68"/>
<polygon fill="midnightblue" stroke="midnightblue" points="268.74,-17.27 258.17,-17.97 266.88,-24.01 268.74,-17.27"/>
</g>
<!-- Node15&#45;&gt;Node14 -->
<g id="edge17" class="edge">
<title>Node15&#45;&gt;Node14</title>
<path fill="none" stroke="midnightblue" d="M438.76,-56.32C448.77,-48.26 463.89,-36.08 475.93,-26.37"/>
<polygon fill="midnightblue" stroke="midnightblue" points="478.45,-28.83 484.04,-19.83 474.06,-23.38 478.45,-28.83"/>
</g>
<!-- Node16 -->
<g id="node16" class="node">
<title>Node16</title>
<g id="a_node16"><a xlink:title=" ">
<polygon fill="none" stroke="#bfbfbf" points="386,-0.5 386,-19.5 450,-19.5 450,-0.5 386,-0.5"/>
<text text-anchor="middle" x="418" y="-7.5" font-family="Helvetica,sans-Serif" font-size="10.00">ap_utils.h</text>
</a>
</g>
</g>
<!-- Node15&#45;&gt;Node16 -->
<g id="edge20" class="edge">
<title>Node15&#45;&gt;Node16</title>
<path fill="none" stroke="midnightblue" d="M426.35,-56.08C425.02,-48.93 423.12,-38.64 421.46,-29.69"/>
<polygon fill="midnightblue" stroke="midnightblue" points="424.88,-28.95 419.62,-19.75 418,-30.22 424.88,-28.95"/>
</g>
</g>
</svg>
