<?xml version="1.0" encoding="UTF-8" standalone="no"?>
<!DOCTYPE svg PUBLIC "-//W3C//DTD SVG 1.1//EN"
 "http://www.w3.org/Graphics/SVG/1.1/DTD/svg11.dtd">
<!-- Generated by graphviz version 2.43.0 (0)
 -->
<!-- Title: repos_for_Dox/cFp_Zoo/ROLE/vision/hls/median_blur/include/xf_median_blur_config.h Pages: 1 -->
<svg width="1085pt" height="262pt"
 viewBox="0.00 0.00 1084.50 262.00" xmlns="http://www.w3.org/2000/svg" xmlns:xlink="http://www.w3.org/1999/xlink">
<g id="graph0" class="graph" transform="scale(1 1) rotate(0) translate(4 258)">
<title>repos_for_Dox/cFp_Zoo/ROLE/vision/hls/median_blur/include/xf_median_blur_config.h</title>
<!-- Node1 -->
<g id="node1" class="node">
<title>Node1</title>
<g id="a_node1"><a xlink:title="The MedianBlur configuration header.">
<polygon fill="#bfbfbf" stroke="black" points="547,-201.5 547,-253.5 681,-253.5 681,-201.5 547,-201.5"/>
<text text-anchor="start" x="555" y="-241.5" font-family="Helvetica,sans-Serif" font-size="10.00">repos_for_Dox/cFp_Zoo</text>
<text text-anchor="start" x="555" y="-230.5" font-family="Helvetica,sans-Serif" font-size="10.00">/ROLE/vision/hls/median</text>
<text text-anchor="start" x="555" y="-219.5" font-family="Helvetica,sans-Serif" font-size="10.00">_blur/include/xf_median</text>
<text text-anchor="middle" x="614" y="-208.5" font-family="Helvetica,sans-Serif" font-size="10.00">_blur_config.h</text>
</a>
</g>
</g>
<!-- Node2 -->
<g id="node2" class="node">
<title>Node2</title>
<g id="a_node2"><a xlink:title=" ">
<polygon fill="none" stroke="#bfbfbf" points="0,-0.5 0,-19.5 80,-19.5 80,-0.5 0,-0.5"/>
<text text-anchor="middle" x="40" y="-7.5" font-family="Helvetica,sans-Serif" font-size="10.00">hls_stream.h</text>
</a>
</g>
</g>
<!-- Node1&#45;&gt;Node2 -->
<g id="edge1" class="edge">
<title>Node1&#45;&gt;Node2</title>
<path fill="none" stroke="midnightblue" d="M546.83,-226.69C460.62,-224.74 307.9,-213.84 188,-165 125.84,-139.68 107.18,-129 66,-76 55.29,-62.22 48.42,-43.44 44.44,-29.61"/>
<polygon fill="midnightblue" stroke="midnightblue" points="47.78,-28.56 41.86,-19.78 41.01,-30.34 47.78,-28.56"/>
</g>
<!-- Node3 -->
<g id="node3" class="node">
<title>Node3</title>
<g id="a_node3"><a xlink:title=" ">
<polygon fill="none" stroke="#bfbfbf" points="629,-0.5 629,-19.5 685,-19.5 685,-0.5 629,-0.5"/>
<text text-anchor="middle" x="657" y="-7.5" font-family="Helvetica,sans-Serif" font-size="10.00">ap_int.h</text>
</a>
</g>
</g>
<!-- Node1&#45;&gt;Node3 -->
<g id="edge2" class="edge">
<title>Node1&#45;&gt;Node3</title>
<path fill="none" stroke="midnightblue" d="M681.2,-222.15C759.48,-215.51 881.72,-199.76 910,-165 975.49,-84.51 780.52,-35.22 695.03,-17.96"/>
<polygon fill="midnightblue" stroke="midnightblue" points="695.66,-14.52 685.17,-16.02 694.3,-21.39 695.66,-14.52"/>
</g>
<!-- Node4 -->
<g id="node4" class="node">
<title>Node4</title>
<g id="a_node4"><a xlink:title=" ">
<polygon fill="none" stroke="#bfbfbf" points="313.5,-129 313.5,-148 454.5,-148 454.5,-129 313.5,-129"/>
<text text-anchor="middle" x="384" y="-136" font-family="Helvetica,sans-Serif" font-size="10.00">common/xf_common.hpp</text>
</a>
</g>
</g>
<!-- Node1&#45;&gt;Node4 -->
<g id="edge3" class="edge">
<title>Node1&#45;&gt;Node4</title>
<path fill="none" stroke="midnightblue" d="M547.78,-201.45C504.54,-185.1 450.01,-164.47 416.06,-151.63"/>
<polygon fill="midnightblue" stroke="midnightblue" points="417.24,-148.33 406.64,-148.07 414.76,-154.88 417.24,-148.33"/>
</g>
<!-- Node5 -->
<g id="node5" class="node">
<title>Node5</title>
<g id="a_node5"><a xlink:title=" ">
<polygon fill="none" stroke="#bfbfbf" points="472.5,-129 472.5,-148 597.5,-148 597.5,-129 472.5,-129"/>
<text text-anchor="middle" x="535" y="-136" font-family="Helvetica,sans-Serif" font-size="10.00">common/xf_utility.hpp</text>
</a>
</g>
</g>
<!-- Node1&#45;&gt;Node5 -->
<g id="edge4" class="edge">
<title>Node1&#45;&gt;Node5</title>
<path fill="none" stroke="midnightblue" d="M591.15,-201.34C577.84,-186.68 561.45,-168.63 549.82,-155.82"/>
<polygon fill="midnightblue" stroke="midnightblue" points="552.26,-153.3 542.94,-148.25 547.07,-158 552.26,-153.3"/>
</g>
<!-- Node6 -->
<g id="node6" class="node">
<title>Node6</title>
<g id="a_node6"><a xlink:title=" ">
<polygon fill="none" stroke="#bfbfbf" points="615.5,-129 615.5,-148 770.5,-148 770.5,-129 615.5,-129"/>
<text text-anchor="middle" x="693" y="-136" font-family="Helvetica,sans-Serif" font-size="10.00">imgproc/xf_median_blur.hpp</text>
</a>
</g>
</g>
<!-- Node1&#45;&gt;Node6 -->
<g id="edge5" class="edge">
<title>Node1&#45;&gt;Node6</title>
<path fill="none" stroke="midnightblue" d="M636.85,-201.34C650.16,-186.68 666.55,-168.63 678.18,-155.82"/>
<polygon fill="midnightblue" stroke="midnightblue" points="680.93,-158 685.06,-148.25 675.74,-153.3 680.93,-158"/>
</g>
<!-- Node7 -->
<g id="node7" class="node">
<title>Node7</title>
<g id="a_node7"><a xlink:href="median__blur_2include_2xf__config__params_8h.html" target="_top" xlink:title="The MedianBlur IP configuration header.">
<polygon fill="none" stroke="black" points="789,-129 789,-148 901,-148 901,-129 789,-129"/>
<text text-anchor="middle" x="845" y="-136" font-family="Helvetica,sans-Serif" font-size="10.00">xf_config_params.h</text>
</a>
</g>
</g>
<!-- Node1&#45;&gt;Node7 -->
<g id="edge6" class="edge">
<title>Node1&#45;&gt;Node7</title>
<path fill="none" stroke="midnightblue" d="M681.15,-201.95C711.4,-190.81 747.55,-177.37 780,-165 791.1,-160.77 803.23,-156.04 813.97,-151.81"/>
<polygon fill="midnightblue" stroke="midnightblue" points="815.35,-155.03 823.37,-148.1 812.79,-148.52 815.35,-155.03"/>
</g>
<!-- Node8 -->
<g id="node8" class="node">
<title>Node8</title>
<g id="a_node8"><a xlink:href="median__blur_8hpp.html" target="_top" xlink:title="The Role for a MedianBlur Example application (UDP or TCP)">
<polygon fill="none" stroke="black" points="197,-129 197,-148 295,-148 295,-129 197,-129"/>
<text text-anchor="middle" x="246" y="-136" font-family="Helvetica,sans-Serif" font-size="10.00">median_blur.hpp</text>
</a>
</g>
</g>
<!-- Node1&#45;&gt;Node8 -->
<g id="edge7" class="edge">
<title>Node1&#45;&gt;Node8</title>
<path fill="none" stroke="midnightblue" d="M546.73,-217.49C483.21,-207.98 385.77,-190.75 304,-165 293.3,-161.63 281.92,-156.9 272.1,-152.42"/>
<polygon fill="midnightblue" stroke="midnightblue" points="273.42,-149.18 262.88,-148.09 270.44,-155.51 273.42,-149.18"/>
</g>
<!-- Node18 -->
<g id="node18" class="node">
<title>Node18</title>
<g id="a_node18"><a xlink:href="vision_2median__blur_2languages_2cplusplus_2include_2config_8h.html" target="_top" xlink:title="The configuration of a MedianBlur Example application (UDP or TCP)">
<polygon fill="none" stroke="black" points="957.5,-112.5 957.5,-164.5 1076.5,-164.5 1076.5,-112.5 957.5,-112.5"/>
<text text-anchor="start" x="965.5" y="-152.5" font-family="Helvetica,sans-Serif" font-size="10.00">../../../../../HOST</text>
<text text-anchor="start" x="965.5" y="-141.5" font-family="Helvetica,sans-Serif" font-size="10.00">/vision/median_blur</text>
<text text-anchor="start" x="965.5" y="-130.5" font-family="Helvetica,sans-Serif" font-size="10.00">/languages/cplusplus</text>
<text text-anchor="middle" x="1017" y="-119.5" font-family="Helvetica,sans-Serif" font-size="10.00">/include/config.h</text>
</a>
</g>
</g>
<!-- Node1&#45;&gt;Node18 -->
<g id="edge23" class="edge">
<title>Node1&#45;&gt;Node18</title>
<path fill="none" stroke="midnightblue" d="M681.12,-216.92C748.06,-206.67 853.53,-188.64 943,-165 944.48,-164.61 945.97,-164.2 947.47,-163.79"/>
<polygon fill="midnightblue" stroke="midnightblue" points="948.84,-167.03 957.46,-160.86 946.88,-160.31 948.84,-167.03"/>
</g>
<!-- Node8&#45;&gt;Node2 -->
<g id="edge13" class="edge">
<title>Node8&#45;&gt;Node2</title>
<path fill="none" stroke="midnightblue" d="M207.22,-128.93C173.22,-119.98 123.77,-103.36 88,-76 71.34,-63.26 57.77,-43.23 49.36,-28.77"/>
<polygon fill="midnightblue" stroke="midnightblue" points="52.3,-26.86 44.39,-19.81 46.18,-30.25 52.3,-26.86"/>
</g>
<!-- Node8&#45;&gt;Node3 -->
<g id="edge14" class="edge">
<title>Node8&#45;&gt;Node3</title>
<path fill="none" stroke="midnightblue" d="M261.77,-128.98C273.17,-123.22 289.12,-115.97 304,-112 376.13,-92.75 580.75,-123.91 638,-76 651.36,-64.82 655.62,-44.79 656.84,-29.92"/>
<polygon fill="midnightblue" stroke="midnightblue" points="660.34,-29.92 657.28,-19.77 653.35,-29.61 660.34,-29.92"/>
</g>
<!-- Node9 -->
<g id="node9" class="node">
<title>Node9</title>
<g id="a_node9"><a xlink:title=" ">
<polygon fill="none" stroke="#bfbfbf" points="208,-0.5 208,-19.5 258,-19.5 258,-0.5 208,-0.5"/>
<text text-anchor="middle" x="233" y="-7.5" font-family="Helvetica,sans-Serif" font-size="10.00">stdio.h</text>
</a>
</g>
</g>
<!-- Node8&#45;&gt;Node9 -->
<g id="edge8" class="edge">
<title>Node8&#45;&gt;Node9</title>
<path fill="none" stroke="midnightblue" d="M196.82,-131.42C162.53,-124.34 119.1,-109.03 97,-76 70.7,-36.69 149.32,-20.49 197.83,-14.36"/>
<polygon fill="midnightblue" stroke="midnightblue" points="198.44,-17.81 207.96,-13.17 197.62,-10.86 198.44,-17.81"/>
</g>
<!-- Node10 -->
<g id="node10" class="node">
<title>Node10</title>
<g id="a_node10"><a xlink:title=" ">
<polygon fill="none" stroke="#bfbfbf" points="106,-56.5 106,-75.5 166,-75.5 166,-56.5 106,-56.5"/>
<text text-anchor="middle" x="136" y="-63.5" font-family="Helvetica,sans-Serif" font-size="10.00">iostream</text>
</a>
</g>
</g>
<!-- Node8&#45;&gt;Node10 -->
<g id="edge9" class="edge">
<title>Node8&#45;&gt;Node10</title>
<path fill="none" stroke="midnightblue" d="M232.51,-128.86C213.96,-116.96 180.33,-95.41 158.08,-81.15"/>
<polygon fill="midnightblue" stroke="midnightblue" points="159.91,-78.16 149.6,-75.72 156.13,-84.06 159.91,-78.16"/>
</g>
<!-- Node11 -->
<g id="node11" class="node">
<title>Node11</title>
<g id="a_node11"><a xlink:title=" ">
<polygon fill="none" stroke="#bfbfbf" points="184.5,-56.5 184.5,-75.5 239.5,-75.5 239.5,-56.5 184.5,-56.5"/>
<text text-anchor="middle" x="212" y="-63.5" font-family="Helvetica,sans-Serif" font-size="10.00">fstream</text>
</a>
</g>
</g>
<!-- Node8&#45;&gt;Node11 -->
<g id="edge10" class="edge">
<title>Node8&#45;&gt;Node11</title>
<path fill="none" stroke="midnightblue" d="M241.83,-128.86C236.58,-117.97 227.42,-98.98 220.64,-84.91"/>
<polygon fill="midnightblue" stroke="midnightblue" points="223.7,-83.2 216.2,-75.72 217.39,-86.24 223.7,-83.2"/>
</g>
<!-- Node12 -->
<g id="node12" class="node">
<title>Node12</title>
<g id="a_node12"><a xlink:title=" ">
<polygon fill="none" stroke="#bfbfbf" points="258,-56.5 258,-75.5 302,-75.5 302,-56.5 258,-56.5"/>
<text text-anchor="middle" x="280" y="-63.5" font-family="Helvetica,sans-Serif" font-size="10.00">string</text>
</a>
</g>
</g>
<!-- Node8&#45;&gt;Node12 -->
<g id="edge11" class="edge">
<title>Node8&#45;&gt;Node12</title>
<path fill="none" stroke="midnightblue" d="M250.17,-128.86C255.42,-117.97 264.58,-98.98 271.36,-84.91"/>
<polygon fill="midnightblue" stroke="midnightblue" points="274.61,-86.24 275.8,-75.72 268.3,-83.2 274.61,-86.24"/>
</g>
<!-- Node13 -->
<g id="node13" class="node">
<title>Node13</title>
<g id="a_node13"><a xlink:title=" ">
<polygon fill="none" stroke="#bfbfbf" points="320.5,-56.5 320.5,-75.5 371.5,-75.5 371.5,-56.5 320.5,-56.5"/>
<text text-anchor="middle" x="346" y="-63.5" font-family="Helvetica,sans-Serif" font-size="10.00">math.h</text>
</a>
</g>
</g>
<!-- Node8&#45;&gt;Node13 -->
<g id="edge12" class="edge">
<title>Node8&#45;&gt;Node13</title>
<path fill="none" stroke="midnightblue" d="M258.26,-128.86C274.98,-117.07 305.16,-95.79 325.39,-81.53"/>
<polygon fill="midnightblue" stroke="midnightblue" points="327.48,-84.34 333.64,-75.72 323.45,-78.62 327.48,-84.34"/>
</g>
<!-- Node14 -->
<g id="node14" class="node">
<title>Node14</title>
<g id="a_node14"><a xlink:title=" ">
<polygon fill="none" stroke="#bfbfbf" points="468.5,-0.5 468.5,-19.5 521.5,-19.5 521.5,-0.5 468.5,-0.5"/>
<text text-anchor="middle" x="495" y="-7.5" font-family="Helvetica,sans-Serif" font-size="10.00">stdint.h</text>
</a>
</g>
</g>
<!-- Node8&#45;&gt;Node14 -->
<g id="edge15" class="edge">
<title>Node8&#45;&gt;Node14</title>
<path fill="none" stroke="midnightblue" d="M262.89,-128.95C274.28,-123.48 289.75,-116.57 304,-112 378.37,-88.15 418.66,-129.03 476,-76 488.67,-64.28 493.06,-44.64 494.49,-30"/>
<polygon fill="midnightblue" stroke="midnightblue" points="498.01,-29.78 495.12,-19.59 491.03,-29.36 498.01,-29.78"/>
</g>
<!-- Node15 -->
<g id="node15" class="node">
<title>Node15</title>
<g id="a_node15"><a xlink:href="network_8hpp.html" target="_top" xlink:title=" ">
<polygon fill="none" stroke="black" points="389.5,-56.5 389.5,-75.5 466.5,-75.5 466.5,-56.5 389.5,-56.5"/>
<text text-anchor="middle" x="428" y="-63.5" font-family="Helvetica,sans-Serif" font-size="10.00">network.hpp</text>
</a>
</g>
</g>
<!-- Node8&#45;&gt;Node15 -->
<g id="edge16" class="edge">
<title>Node8&#45;&gt;Node15</title>
<path fill="none" stroke="midnightblue" d="M264.67,-128.91C275.98,-123.81 290.73,-117.32 304,-112 333.71,-100.09 367.93,-87.78 392.89,-79.05"/>
<polygon fill="midnightblue" stroke="midnightblue" points="394.35,-82.24 402.64,-75.65 392.05,-75.63 394.35,-82.24"/>
</g>
<!-- Node17 -->
<g id="node17" class="node">
<title>Node17</title>
<g id="a_node17"><a xlink:title=" ">
<polygon fill="none" stroke="#bfbfbf" points="523.5,-56.5 523.5,-75.5 628.5,-75.5 628.5,-56.5 523.5,-56.5"/>
<text text-anchor="middle" x="576" y="-63.5" font-family="Helvetica,sans-Serif" font-size="10.00">memory_utils.hpp</text>
</a>
</g>
</g>
<!-- Node8&#45;&gt;Node17 -->
<g id="edge22" class="edge">
<title>Node8&#45;&gt;Node17</title>
<path fill="none" stroke="midnightblue" d="M262.33,-129C273.73,-123.4 289.45,-116.33 304,-112 342.13,-100.66 445.41,-85.07 513.17,-75.54"/>
<polygon fill="midnightblue" stroke="midnightblue" points="513.89,-78.97 523.31,-74.12 512.92,-72.04 513.89,-78.97"/>
</g>
<!-- Node15&#45;&gt;Node2 -->
<g id="edge21" class="edge">
<title>Node15&#45;&gt;Node2</title>
<path fill="none" stroke="midnightblue" d="M389.3,-57.41C386.5,-56.91 383.71,-56.44 381,-56 278.04,-39.36 156.85,-24.48 90.22,-16.7"/>
<polygon fill="midnightblue" stroke="midnightblue" points="90.35,-13.19 80.01,-15.52 89.54,-20.15 90.35,-13.19"/>
</g>
<!-- Node15&#45;&gt;Node3 -->
<g id="edge19" class="edge">
<title>Node15&#45;&gt;Node3</title>
<path fill="none" stroke="midnightblue" d="M464.29,-56.44C506.55,-46.48 576.05,-30.09 619.03,-19.95"/>
<polygon fill="midnightblue" stroke="midnightblue" points="619.9,-23.35 628.83,-17.64 618.29,-16.53 619.9,-23.35"/>
</g>
<!-- Node15&#45;&gt;Node9 -->
<g id="edge18" class="edge">
<title>Node15&#45;&gt;Node9</title>
<path fill="none" stroke="midnightblue" d="M397.1,-56.44C361.96,-46.71 304.7,-30.86 267.96,-20.68"/>
<polygon fill="midnightblue" stroke="midnightblue" points="268.74,-17.27 258.17,-17.97 266.88,-24.01 268.74,-17.27"/>
</g>
<!-- Node15&#45;&gt;Node14 -->
<g id="edge17" class="edge">
<title>Node15&#45;&gt;Node14</title>
<path fill="none" stroke="midnightblue" d="M438.76,-56.32C448.77,-48.26 463.89,-36.08 475.93,-26.37"/>
<polygon fill="midnightblue" stroke="midnightblue" points="478.45,-28.83 484.04,-19.83 474.06,-23.38 478.45,-28.83"/>
</g>
<!-- Node16 -->
<g id="node16" class="node">
<title>Node16</title>
<g id="a_node16"><a xlink:title=" ">
<polygon fill="none" stroke="#bfbfbf" points="386,-0.5 386,-19.5 450,-19.5 450,-0.5 386,-0.5"/>
<text text-anchor="middle" x="418" y="-7.5" font-family="Helvetica,sans-Serif" font-size="10.00">ap_utils.h</text>
</a>
</g>
</g>
<!-- Node15&#45;&gt;Node16 -->
<g id="edge20" class="edge">
<title>Node15&#45;&gt;Node16</title>
<path fill="none" stroke="midnightblue" d="M426.35,-56.08C425.02,-48.93 423.12,-38.64 421.46,-29.69"/>
<polygon fill="midnightblue" stroke="midnightblue" points="424.88,-28.95 419.62,-19.75 418,-30.22 424.88,-28.95"/>
</g>
</g>
</svg>
